<svg version="1.1" viewBox="0.0 0.0 532.0 328.0" fill="none" stroke="none" stroke-linecap="square" stroke-miterlimit="10" width="532" height="328" xmlns:xlink="http://www.w3.org/1999/xlink" xmlns="http://www.w3.org/2000/svg"><path fill="#ffffff" d="M0 0L532.0 0L532.0 328.0L0 328.0L0 0Z" fill-rule="nonzero"/><path stroke="#333333" stroke-width="1.0" stroke-linecap="butt" d="M81.5 285.5L515.5 285.5" fill-rule="nonzero"/><path stroke="#cccccc" stroke-width="1.0" stroke-linecap="butt" d="M81.5 238.5L515.5 238.5" fill-rule="nonzero"/><path stroke="#cccccc" stroke-width="1.0" stroke-linecap="butt" d="M81.5 190.5L515.5 190.5" fill-rule="nonzero"/><path stroke="#cccccc" stroke-width="1.0" stroke-linecap="butt" d="M81.5 143.5L515.5 143.5" fill-rule="nonzero"/><path stroke="#cccccc" stroke-width="1.0" stroke-linecap="butt" d="M81.5 95.5L515.5 95.5" fill-rule="nonzero"/><path stroke="#cccccc" stroke-width="1.0" stroke-linecap="butt" d="M81.5 48.5L515.5 48.5" fill-rule="nonzero"/><path stroke="#000000" stroke-width="1.0" stroke-linecap="butt" d="M515.5 285.5L81.5 285.5" fill-rule="nonzero"/><path stroke="#000000" stroke-width="1.0" stroke-linecap="butt" d="M81.5 285.5L81.5 48.5" fill-rule="nonzero"/><clipPath id="id_0"><path d="M81.4 48.333332L515.6 48.333332L515.6 285.6L81.4 285.6L81.4 48.333332Z" clip-rule="nonzero"/></clipPath><path stroke="#4285f4" stroke-width="2.0" stroke-linecap="butt" clip-path="url(#id_0)" d="M153.76666 83.92333C153.76666 83.92333 250.25555 83.92333 298.5 83.92333C346.74445 83.92333 443.23334 83.92333 443.23334 83.92333" fill-rule="nonzero"/><path stroke="#ea4335" stroke-width="2.0" stroke-linecap="butt" clip-path="url(#id_0)" d="M153.76666 285.6C153.76666 285.6 250.25555 204.53389 298.5 166.96666C346.74445 129.39944 443.23334 60.196667 443.23334 60.196667" fill-rule="nonzero"/><path stroke="#fbbc04" stroke-width="2.0" stroke-linecap="butt" clip-path="url(#id_0)" d="M153.76666 143.24C153.76666 143.24 250.25555 143.24 298.5 143.24C346.74445 143.24 443.23334 143.24 443.23334 143.24" fill-rule="nonzero"/><path fill="#4285f4" clip-path="url(#id_0)" d="M157.26666 83.92333C157.26666 85.85633 155.69966 87.42333 153.76666 87.42333C151.83366 87.42333 150.26666 85.85633 150.26666 83.92333C150.26666 81.99033 151.83366 80.42333 153.76666 80.42333C155.69966 80.42333 157.26666 81.99033 157.26666 83.92333Z" fill-rule="nonzero"/><path fill="#4285f4" clip-path="url(#id_0)" d="M302.0 83.92333C302.0 85.85633 300.43298 87.42333 298.5 87.42333C296.56702 87.42333 295.0 85.85633 295.0 83.92333C295.0 81.99033 296.56702 80.42333 298.5 80.42333C300.43298 80.42333 302.0 81.99033 302.0 83.92333Z" fill-rule="nonzero"/><path fill="#4285f4" clip-path="url(#id_0)" d="M446.73334 83.92333C446.73334 85.85633 445.16632 87.42333 443.23334 87.42333C441.30032 87.42333 439.73334 85.85633 439.73334 83.92333C439.73334 81.99033 441.30032 80.42333 443.23334 80.42333C445.16632 80.42333 446.73334 81.99033 446.73334 83.92333Z" fill-rule="nonzero"/><path fill="#ea4335" clip-path="url(#id_0)" d="M157.26666 285.6C157.26666 287.533 155.69966 289.1 153.76666 289.1C151.83366 289.1 150.26666 287.533 150.26666 285.6C150.26666 283.667 151.83366 282.1 153.76666 282.1C155.69966 282.1 157.26666 283.667 157.26666 285.6Z" fill-rule="nonzero"/><path fill="#ea4335" clip-path="url(#id_0)" d="M302.0 166.96666C302.0 168.89966 300.43298 170.46666 298.5 170.46666C296.56702 170.46666 295.0 168.89966 295.0 166.96666C295.0 165.03368 296.56702 163.46666 298.5 163.46666C300.43298 163.46666 302.0 165.03368 302.0 166.96666Z" fill-rule="nonzero"/><path fill="#ea4335" clip-path="url(#id_0)" d="M446.73334 60.196667C446.73334 62.12966 445.16632 63.696667 443.23334 63.696667C441.30032 63.696667 439.73334 62.12966 439.73334 60.196667C439.73334 58.26367 441.30032 56.696667 443.23334 56.696667C445.16632 56.696667 446.73334 58.26367 446.73334 60.196667Z" fill-rule="nonzero"/><path fill="#fbbc04" clip-path="url(#id_0)" d="M157.26666 143.24C157.26666 145.173 155.69966 146.74 153.76666 146.74C151.83366 146.74 150.26666 145.173 150.26666 143.24C150.26666 141.307 151.83366 139.74 153.76666 139.74C155.69966 139.74 157.26666 141.307 157.26666 143.24Z" fill-rule="nonzero"/><path fill="#fbbc04" clip-path="url(#id_0)" d="M302.0 143.24C302.0 145.173 300.43298 146.74 298.5 146.74C296.56702 146.74 295.0 145.173 295.0 143.24C295.0 141.307 296.56702 139.74 298.5 139.74C300.43298 139.74 302.0 141.307 302.0 143.24Z" fill-rule="nonzero"/><path fill="#fbbc04" clip-path="url(#id_0)" d="M446.73334 143.24C446.73334 145.173 445.16632 146.74 443.23334 146.74C441.30032 146.74 439.73334 145.173 439.73334 143.24C439.73334 141.307 441.30032 139.74 443.23334 139.74C445.16632 139.74 446.73334 141.307 446.73334 143.24Z" fill-rule="nonzero"/><path stroke="#000000" stroke-width="1.0" stroke-linecap="butt" d="M153.5 291.5L153.5 279.5" fill-rule="nonzero"/><path stroke="#000000" stroke-width="1.0" stroke-linecap="butt" d="M298.5 291.5L298.5 279.5" fill-rule="nonzero"/><path stroke="#000000" stroke-width="1.0" stroke-linecap="butt" d="M443.5 291.5L443.5 279.5" fill-rule="nonzero"/><path stroke="#000000" stroke-width="1.0" stroke-linecap="butt" d="M75.5 285.5L87.5 285.5" fill-rule="nonzero"/><path stroke="#000000" stroke-width="1.0" stroke-linecap="butt" d="M75.5 238.5L87.5 238.5" fill-rule="nonzero"/><path stroke="#000000" stroke-width="1.0" stroke-linecap="butt" d="M75.5 190.5L87.5 190.5" fill-rule="nonzero"/><path stroke="#000000" stroke-width="1.0" stroke-linecap="butt" d="M75.5 143.5L87.5 143.5" fill-rule="nonzero"/><path stroke="#000000" stroke-width="1.0" stroke-linecap="butt" d="M75.5 95.5L87.5 95.5" fill-rule="nonzero"/><path stroke="#000000" stroke-width="1.0" stroke-linecap="butt" d="M75.5 48.5L87.5 48.5" fill-rule="nonzero"/><path fill="#000000" d="M62.9 285.36563Q62.9 283.83438 63.2125 282.9125Q63.525 281.975 64.13438 281.475Q64.75938 280.975 65.69688 280.975Q66.38438 280.975 66.9 281.25626Q67.43125 281.5375 67.775 282.06876Q68.11875 282.58438 68.30625 283.33438Q68.49375 284.08438 68.49375 285.36563Q68.49375 286.88126 68.18125 287.80313Q67.88438 288.725 67.25938 289.24063Q66.65 289.74063 65.69688 289.74063Q64.4625 289.74063 63.74375 288.85Q62.9 287.7875 62.9 285.36563ZM63.978127 285.36563Q63.978127 287.475 64.47813 288.17813Q64.97813 288.88126 65.69688 288.88126Q66.43125 288.88126 66.91563 288.17813Q67.41563 287.475 67.41563 285.36563Q67.41563 283.24063 66.91563 282.55313Q66.43125 281.85 65.68125 281.85Q64.9625 281.85 64.525 282.45938Q63.978127 283.24063 63.978127 285.36563Z" fill-rule="nonzero"/><path fill="#000000" d="M61.446877 241.13104L61.446877 242.14667L55.759377 242.14667Q55.759377 241.77167 55.884377 241.4123Q56.103127 240.83417 56.571877 240.27167Q57.05625 239.70917 57.9625 238.9748Q59.36875 237.81854 59.853127 237.14667Q60.353127 236.4748 60.353127 235.88104Q60.353127 235.25604 59.9 234.83417Q59.446877 234.39667 58.728127 234.39667Q57.9625 234.39667 57.509377 234.8498Q57.05625 235.30292 57.040627 236.11542L55.9625 236.00604Q56.071877 234.7873 56.790627 234.1623Q57.525 233.52167 58.759377 233.52167Q59.99375 233.52167 60.7125 234.20917Q61.43125 234.89667 61.43125 235.9123Q61.43125 236.42792 61.2125 236.92792Q61.009377 237.4123 60.509377 237.9748Q60.025 238.52167 58.9 239.4748Q57.946877 240.27167 57.665627 240.56854Q57.4 240.8498 57.228127 241.13104L61.446877 241.13104ZM62.9 237.9123Q62.9 236.38104 63.2125 235.45917Q63.525 234.52167 64.13438 234.02167Q64.75938 233.52167 65.69688 233.52167Q66.38438 233.52167 66.9 233.80292Q67.43125 234.08417 67.775 234.61542Q68.11875 235.13104 68.30625 235.88104Q68.49375 236.63104 68.49375 237.9123Q68.49375 239.42792 68.18125 240.3498Q67.88438 241.27167 67.25938 241.7873Q66.65 242.2873 65.69688 242.2873Q64.4625 242.2873 63.74375 241.39667Q62.9 240.33417 62.9 237.9123ZM63.978127 237.9123Q63.978127 240.02167 64.47813 240.7248Q64.97813 241.42792 65.69688 241.42792Q66.43125 241.42792 66.91563 240.7248Q67.41563 240.02167 67.41563 237.9123Q67.41563 235.7873 66.91563 235.0998Q66.43125 234.39667 65.68125 234.39667Q64.9625 234.39667 64.525 235.00604Q63.978127 235.7873 63.978127 237.9123Z" fill-rule="nonzero"/><path fill="#000000" d="M59.275 194.69333L59.275 192.63083L55.55625 192.63083L55.55625 191.66208L59.478127 186.09958L60.3375 186.09958L60.3375 191.66208L61.49375 191.66208L61.49375 192.63083L60.3375 192.63083L60.3375 194.69333L59.275 194.69333ZM59.275 191.66208L59.275 187.8027L56.5875 191.66208L59.275 191.66208ZM62.9 190.45895Q62.9 188.9277 63.2125 188.00583Q63.525 187.06833 64.13438 186.56833Q64.75938 186.06833 65.69688 186.06833Q66.38438 186.06833 66.9 186.34958Q67.43125 186.63083 67.775 187.16208Q68.11875 187.6777 68.30625 188.4277Q68.49375 189.1777 68.49375 190.45895Q68.49375 191.97458 68.18125 192.89645Q67.88438 193.81833 67.25938 194.33395Q66.65 194.83395 65.69688 194.83395Q64.4625 194.83395 63.74375 193.94333Q62.9 192.88083 62.9 190.45895ZM63.978127 190.45895Q63.978127 192.56833 64.47813 193.27145Q64.97813 193.97458 65.69688 193.97458Q66.43125 193.97458 66.91563 193.27145Q67.41563 192.56833 67.41563 190.45895Q67.41563 188.33395 66.91563 187.64645Q66.43125 186.94333 65.68125 186.94333Q64.9625 186.94333 64.525 187.5527Q63.978127 188.33395 63.978127 190.45895Z" fill-rule="nonzero"/><path fill="#000000" d="M61.36875 140.75563L60.321877 140.83376Q60.18125 140.20876 59.93125 139.9275Q59.49375 139.47438 58.86875 139.47438Q58.36875 139.47438 57.978127 139.75563Q57.49375 140.13063 57.196877 140.83376Q56.915627 141.52126 56.9 142.8025Q57.275 142.22438 57.821877 141.94313Q58.384377 141.66188 58.99375 141.66188Q60.040627 141.66188 60.775 142.44313Q61.525 143.22438 61.525 144.44313Q61.525 145.25563 61.165627 145.95876Q60.821877 146.64626 60.2125 147.02126Q59.603127 147.38063 58.8375 147.38063Q57.509377 147.38063 56.68125 146.41188Q55.853127 145.44313 55.853127 143.22438Q55.853127 140.72438 56.775 139.59938Q57.571877 138.615 58.93125 138.615Q59.946877 138.615 60.5875 139.19313Q61.24375 139.75563 61.36875 140.75563ZM57.071877 144.45876Q57.071877 145.00563 57.290627 145.50563Q57.525 145.99 57.93125 146.25563Q58.353127 146.52126 58.821877 146.52126Q59.478127 146.52126 59.9625 145.99Q60.446877 145.44313 60.446877 144.52126Q60.446877 143.63063 59.9625 143.115Q59.49375 142.59938 58.775 142.59938Q58.05625 142.59938 57.55625 143.115Q57.071877 143.63063 57.071877 144.45876ZM62.9 143.00563Q62.9 141.47438 63.2125 140.5525Q63.525 139.615 64.13438 139.115Q64.75938 138.615 65.69688 138.615Q66.38438 138.615 66.9 138.89626Q67.43125 139.1775 67.775 139.70876Q68.11875 140.22438 68.30625 140.97438Q68.49375 141.72438 68.49375 143.00563Q68.49375 144.52126 68.18125 145.44313Q67.88438 146.365 67.25938 146.88063Q66.65 147.38063 65.69688 147.38063Q64.4625 147.38063 63.74375 146.49Q62.9 145.4275 62.9 143.00563ZM63.978127 143.00563Q63.978127 145.115 64.47813 145.81813Q64.97813 146.52126 65.69688 146.52126Q66.43125 146.52126 66.91563 145.81813Q67.41563 145.115 67.41563 143.00563Q67.41563 140.88063 66.91563 140.19313Q66.43125 139.49 65.68125 139.49Q64.9625 139.49 64.525 140.09938Q63.978127 140.88063 63.978127 143.00563Z" fill-rule="nonzero"/><path fill="#000000" d="M57.525 95.13042Q56.86875 94.88042 56.540627 94.44292Q56.228127 93.98979 56.228127 93.38042Q56.228127 92.44292 56.9 91.80229Q57.5875 91.16167 58.696877 91.16167Q59.821877 91.16167 60.509377 91.81792Q61.196877 92.47417 61.196877 93.41167Q61.196877 94.00542 60.884377 94.44292Q60.571877 94.88042 59.93125 95.13042Q60.728127 95.38042 61.134377 95.95854Q61.540627 96.53667 61.540627 97.33354Q61.540627 98.42729 60.759377 99.17729Q59.99375 99.92729 58.7125 99.92729Q57.446877 99.92729 56.665627 99.17729Q55.884377 98.42729 55.884377 97.30229Q55.884377 96.45854 56.30625 95.89604Q56.74375 95.33354 57.525 95.13042ZM57.30625 93.33354Q57.30625 93.94292 57.696877 94.33354Q58.103127 94.72417 58.728127 94.72417Q59.3375 94.72417 59.728127 94.34917Q60.11875 93.95854 60.11875 93.39604Q60.11875 92.81792 59.7125 92.42729Q59.30625 92.02104 58.7125 92.02104Q58.103127 92.02104 57.696877 92.41167Q57.30625 92.80229 57.30625 93.33354ZM56.978127 97.30229Q56.978127 97.75542 57.18125 98.17729Q57.4 98.59917 57.821877 98.83354Q58.24375 99.06792 58.728127 99.06792Q59.478127 99.06792 59.9625 98.58354Q60.4625 98.09917 60.4625 97.34917Q60.4625 96.58354 59.9625 96.08354Q59.4625 95.58354 58.696877 95.58354Q57.946877 95.58354 57.4625 96.08354Q56.978127 96.56792 56.978127 97.30229ZM62.9 95.55229Q62.9 94.02104 63.2125 93.09917Q63.525 92.16167 64.13438 91.66167Q64.75938 91.16167 65.69688 91.16167Q66.38438 91.16167 66.9 91.44292Q67.43125 91.72417 67.775 92.25542Q68.11875 92.77104 68.30625 93.52104Q68.49375 94.27104 68.49375 95.55229Q68.49375 97.06792 68.18125 97.98979Q67.88438 98.91167 67.25938 99.42729Q66.65 99.92729 65.69688 99.92729Q64.4625 99.92729 63.74375 99.03667Q62.9 97.97417 62.9 95.55229ZM63.978127 95.55229Q63.978127 97.66167 64.47813 98.36479Q64.97813 99.06792 65.69688 99.06792Q66.43125 99.06792 66.91563 98.36479Q67.41563 97.66167 67.41563 95.55229Q67.41563 93.42729 66.91563 92.73979Q66.43125 92.03667 65.68125 92.03667Q64.9625 92.03667 64.525 92.64604Q63.978127 93.42729 63.978127 95.55229Z" fill-rule="nonzero"/><path fill="#000000" d="M52.86875 52.333332L51.821877 52.333332L51.821877 45.614582Q51.43125 45.973957 50.80625 46.348957Q50.196877 46.708332 49.7125 46.880207L49.7125 45.864582Q50.5875 45.442707 51.24375 44.864582Q51.915627 44.270832 52.196877 43.708332L52.86875 43.708332L52.86875 52.333332ZM55.9 48.098957Q55.9 46.567707 56.2125 45.645832Q56.525 44.708332 57.134377 44.208332Q57.759377 43.708332 58.696877 43.708332Q59.384377 43.708332 59.9 43.989582Q60.43125 44.270832 60.775 44.802082Q61.11875 45.317707 61.30625 46.067707Q61.49375 46.817707 61.49375 48.098957Q61.49375 49.614582 61.18125 50.536457Q60.884377 51.458332 60.259377 51.973957Q59.65 52.473957 58.696877 52.473957Q57.4625 52.473957 56.74375 51.583332Q55.9 50.520832 55.9 48.098957ZM56.978127 48.098957Q56.978127 50.208332 57.478127 50.911457Q57.978127 51.614582 58.696877 51.614582Q59.43125 51.614582 59.915627 50.911457Q60.415627 50.208332 60.415627 48.098957Q60.415627 45.973957 59.915627 45.286457Q59.43125 44.583332 58.68125 44.583332Q57.9625 44.583332 57.525 45.192707Q56.978127 45.973957 56.978127 48.098957ZM62.9 48.098957Q62.9 46.567707 63.2125 45.645832Q63.525 44.708332 64.13438 44.208332Q64.75938 43.708332 65.69688 43.708332Q66.38438 43.708332 66.9 43.989582Q67.43125 44.270832 67.775 44.802082Q68.11875 45.317707 68.30625 46.067707Q68.49375 46.817707 68.49375 48.098957Q68.49375 49.614582 68.18125 50.536457Q67.88438 51.458332 67.25938 51.973957Q66.65 52.473957 65.69688 52.473957Q64.4625 52.473957 63.74375 51.583332Q62.9 50.520832 62.9 48.098957ZM63.978127 48.098957Q63.978127 50.208332 64.47813 50.911457Q64.97813 51.614582 65.69688 51.614582Q66.43125 51.614582 66.91563 50.911457Q67.41563 50.208332 67.41563 48.098957Q67.41563 45.973957 66.91563 45.286457Q66.43125 44.583332 65.68125 44.583332Q64.9625 44.583332 64.525 45.192707Q63.978127 45.973957 63.978127 48.098957Z" fill-rule="nonzero"/><path fill="#000000" d="M133.31354 305.83438L134.37604 305.74063Q134.45416 306.39688 134.73541 306.80313Q135.01666 307.20938 135.59479 307.475Q136.18854 307.725 136.92291 307.725Q137.56354 307.725 138.06354 307.5375Q138.56354 307.33438 138.79791 307.00626Q139.04791 306.6625 139.04791 306.27188Q139.04791 305.86563 138.81354 305.56876Q138.57916 305.25626 138.04791 305.05313Q137.68854 304.9125 136.50104 304.63126Q135.32916 304.35 134.86041 304.1Q134.23541 303.77188 133.93854 303.30313Q133.64166 302.81876 133.64166 302.225Q133.64166 301.58438 134.00104 301.02188Q134.37604 300.44376 135.07916 300.1625Q135.79791 299.86563 136.65729 299.86563Q137.61041 299.86563 138.34479 300.17813Q139.07916 300.475 139.46979 301.08438Q139.86041 301.67813 139.89166 302.42813L138.79791 302.50626Q138.70416 301.69376 138.18854 301.2875Q137.68854 300.86563 136.70416 300.86563Q135.67291 300.86563 135.20416 301.24063Q134.73541 301.61563 134.73541 302.14688Q134.73541 302.61563 135.06354 302.9125Q135.39166 303.20938 136.76666 303.52188Q138.15729 303.83438 138.67291 304.06876Q139.42291 304.42813 139.78229 304.95938Q140.14166 305.475 140.14166 306.17813Q140.14166 306.86563 139.75104 307.475Q139.36041 308.06876 138.62604 308.4125Q137.89166 308.74063 136.96979 308.74063Q135.79791 308.74063 135.00104 308.4125Q134.21979 308.06876 133.76666 307.38126Q133.32916 306.69376 133.31354 305.83438ZM141.56354 310.99063L141.56354 302.38126L142.51666 302.38126L142.51666 303.17813Q142.86041 302.70938 143.28229 302.475Q143.71979 302.24063 144.32916 302.24063Q145.12604 302.24063 145.73541 302.64688Q146.34479 303.05313 146.64166 303.80313Q146.95416 304.55313 146.95416 305.44376Q146.95416 306.39688 146.61041 307.1625Q146.28229 307.92813 145.62604 308.33438Q144.96979 308.74063 144.25104 308.74063Q143.71979 308.74063 143.29791 308.52188Q142.87604 308.2875 142.61041 307.95938L142.61041 310.99063L141.56354 310.99063ZM142.51666 305.52188Q142.51666 306.725 143.00104 307.30313Q143.48541 307.86563 144.17291 307.86563Q144.87604 307.86563 145.37604 307.27188Q145.87604 306.67813 145.87604 305.42813Q145.87604 304.24063 145.39166 303.6625Q144.90729 303.06876 144.21979 303.06876Q143.54791 303.06876 143.03229 303.69376Q142.51666 304.31876 142.51666 305.52188ZM148.54791 308.6L148.54791 302.38126L149.50104 302.38126L149.50104 303.31876Q149.86041 302.6625 150.15729 302.45938Q150.46979 302.24063 150.84479 302.24063Q151.37604 302.24063 151.92291 302.56876L151.56354 303.55313Q151.17291 303.31876 150.79791 303.31876Q150.43854 303.31876 150.15729 303.5375Q149.89166 303.74063 149.78229 304.11563Q149.59479 304.67813 149.59479 305.33438L149.59479 308.6L148.54791 308.6ZM152.56354 301.225L152.56354 300.00626L153.62604 300.00626L153.62604 301.225L152.56354 301.225ZM152.56354 308.6L152.56354 302.38126L153.62604 302.38126L153.62604 308.6L152.56354 308.6ZM155.56354 308.6L155.56354 302.38126L156.50104 302.38126L156.50104 303.25626Q157.18854 302.24063 158.48541 302.24063Q159.04791 302.24063 159.51666 302.44376Q160.00104 302.64688 160.23541 302.975Q160.46979 303.30313 160.56354 303.74063Q160.61041 304.0375 160.61041 304.77188L160.61041 308.6L159.56354 308.6L159.56354 304.81876Q159.56354 304.1625 159.43854 303.85Q159.31354 303.5375 159.00104 303.35Q158.68854 303.14688 158.26666 303.14688Q157.59479 303.14688 157.09479 303.58438Q156.61041 304.00626 156.61041 305.19376L156.61041 308.6L155.56354 308.6ZM164.86041 307.6625L165.01666 308.58438Q164.56354 308.67813 164.21979 308.67813Q163.64166 308.67813 163.32916 308.50626Q163.01666 308.31876 162.87604 308.02188Q162.75104 307.725 162.75104 306.77188L162.75104 303.19376L161.98541 303.19376L161.98541 302.38126L162.75104 302.38126L162.75104 300.83438L163.79791 300.20938L163.79791 302.38126L164.86041 302.38126L164.86041 303.19376L163.79791 303.19376L163.79791 306.83438Q163.79791 307.2875 163.84479 307.4125Q163.90729 307.5375 164.03229 307.61563Q164.15729 307.69376 164.39166 307.69376Q164.57916 307.69376 164.86041 307.6625ZM168.42291 306.61563L169.43854 306.52188Q169.56354 307.24063 169.92291 307.56876Q170.29791 307.88126 170.86041 307.88126Q171.34479 307.88126 171.70416 307.6625Q172.07916 307.42813 172.31354 307.06876Q172.54791 306.69376 172.70416 306.06876Q172.86041 305.42813 172.86041 304.77188Q172.86041 304.69376 172.86041 304.55313Q172.54791 305.05313 172.00104 305.38126Q171.45416 305.69376 170.81354 305.69376Q169.73541 305.69376 169.00104 304.92813Q168.26666 304.14688 168.26666 302.88126Q168.26666 301.56876 169.03229 300.77188Q169.81354 299.975 170.96979 299.975Q171.79791 299.975 172.48541 300.42813Q173.18854 300.88126 173.54791 301.725Q173.90729 302.55313 173.90729 304.13126Q173.90729 305.77188 173.54791 306.75626Q173.20416 307.725 172.48541 308.24063Q171.78229 308.74063 170.84479 308.74063Q169.82916 308.74063 169.18854 308.19376Q168.54791 307.63126 168.42291 306.61563ZM172.73541 302.81876Q172.73541 301.9125 172.25104 301.38126Q171.78229 300.85 171.09479 300.85Q170.39166 300.85 169.86041 301.42813Q169.34479 301.99063 169.34479 302.9125Q169.34479 303.725 169.84479 304.24063Q170.34479 304.75626 171.06354 304.75626Q171.79791 304.75626 172.26666 304.24063Q172.73541 303.725 172.73541 302.81876Z" fill-rule="nonzero"/><path fill="#000000" d="M274.54688 305.83438L275.60938 305.74063Q275.6875 306.39688 275.96875 306.80313Q276.25 307.20938 276.82812 307.475Q277.42188 307.725 278.15625 307.725Q278.79688 307.725 279.29688 307.5375Q279.79688 307.33438 280.03125 307.00626Q280.28125 306.6625 280.28125 306.27188Q280.28125 305.86563 280.04688 305.56876Q279.8125 305.25626 279.28125 305.05313Q278.92188 304.9125 277.73438 304.63126Q276.5625 304.35 276.09375 304.1Q275.46875 303.77188 275.17188 303.30313Q274.875 302.81876 274.875 302.225Q274.875 301.58438 275.23438 301.02188Q275.60938 300.44376 276.3125 300.1625Q277.03125 299.86563 277.89062 299.86563Q278.84375 299.86563 279.57812 300.17813Q280.3125 300.475 280.70312 301.08438Q281.09375 301.67813 281.125 302.42813L280.03125 302.50626Q279.9375 301.69376 279.42188 301.2875Q278.92188 300.86563 277.9375 300.86563Q276.90625 300.86563 276.4375 301.24063Q275.96875 301.61563 275.96875 302.14688Q275.96875 302.61563 276.29688 302.9125Q276.625 303.20938 278.0 303.52188Q279.39062 303.83438 279.90625 304.06876Q280.65625 304.42813 281.01562 304.95938Q281.375 305.475 281.375 306.17813Q281.375 306.86563 280.98438 307.475Q280.59375 308.06876 279.85938 308.4125Q279.125 308.74063 278.20312 308.74063Q277.03125 308.74063 276.23438 308.4125Q275.45312 308.06876 275.0 307.38126Q274.5625 306.69376 274.54688 305.83438ZM282.79688 310.99063L282.79688 302.38126L283.75 302.38126L283.75 303.17813Q284.09375 302.70938 284.51562 302.475Q284.95312 302.24063 285.5625 302.24063Q286.35938 302.24063 286.96875 302.64688Q287.57812 303.05313 287.875 303.80313Q288.1875 304.55313 288.1875 305.44376Q288.1875 306.39688 287.84375 307.1625Q287.51562 307.92813 286.85938 308.33438Q286.20312 308.74063 285.48438 308.74063Q284.95312 308.74063 284.53125 308.52188Q284.10938 308.2875 283.84375 307.95938L283.84375 310.99063L282.79688 310.99063ZM283.75 305.52188Q283.75 306.725 284.23438 307.30313Q284.71875 307.86563 285.40625 307.86563Q286.10938 307.86563 286.60938 307.27188Q287.10938 306.67813 287.10938 305.42813Q287.10938 304.24063 286.625 303.6625Q286.14062 303.06876 285.45312 303.06876Q284.78125 303.06876 284.26562 303.69376Q283.75 304.31876 283.75 305.52188ZM289.78125 308.6L289.78125 302.38126L290.73438 302.38126L290.73438 303.31876Q291.09375 302.6625 291.39062 302.45938Q291.70312 302.24063 292.07812 302.24063Q292.60938 302.24063 293.15625 302.56876L292.79688 303.55313Q292.40625 303.31876 292.03125 303.31876Q291.67188 303.31876 291.39062 303.5375Q291.125 303.74063 291.01562 304.11563Q290.82812 304.67813 290.82812 305.33438L290.82812 308.6L289.78125 308.6ZM293.79688 301.225L293.79688 300.00626L294.85938 300.00626L294.85938 301.225L293.79688 301.225ZM293.79688 308.6L293.79688 302.38126L294.85938 302.38126L294.85938 308.6L293.79688 308.6ZM296.79688 308.6L296.79688 302.38126L297.73438 302.38126L297.73438 303.25626Q298.42188 302.24063 299.71875 302.24063Q300.28125 302.24063 300.75 302.44376Q301.23438 302.64688 301.46875 302.975Q301.70312 303.30313 301.79688 303.74063Q301.84375 304.0375 301.84375 304.77188L301.84375 308.6L300.79688 308.6L300.79688 304.81876Q300.79688 304.1625 300.67188 303.85Q300.54688 303.5375 300.23438 303.35Q299.92188 303.14688 299.5 303.14688Q298.82812 303.14688 298.32812 303.58438Q297.84375 304.00626 297.84375 305.19376L297.84375 308.6L296.79688 308.6ZM306.09375 307.6625L306.25 308.58438Q305.79688 308.67813 305.45312 308.67813Q304.875 308.67813 304.5625 308.50626Q304.25 308.31876 304.10938 308.02188Q303.98438 307.725 303.98438 306.77188L303.98438 303.19376L303.21875 303.19376L303.21875 302.38126L303.98438 302.38126L303.98438 300.83438L305.03125 300.20938L305.03125 302.38126L306.09375 302.38126L306.09375 303.19376L305.03125 303.19376L305.03125 306.83438Q305.03125 307.2875 305.07812 307.4125Q305.14062 307.5375 305.26562 307.61563Q305.39062 307.69376 305.625 307.69376Q305.8125 307.69376 306.09375 307.6625ZM313.46875 308.6L312.42188 308.6L312.42188 301.88126Q312.03125 302.24063 311.40625 302.61563Q310.79688 302.975 310.3125 303.14688L310.3125 302.13126Q311.1875 301.70938 311.84375 301.13126Q312.51562 300.5375 312.79688 299.975L313.46875 299.975L313.46875 308.6ZM316.5 304.36563Q316.5 302.83438 316.8125 301.9125Q317.125 300.975 317.73438 300.475Q318.35938 299.975 319.29688 299.975Q319.98438 299.975 320.5 300.25626Q321.03125 300.5375 321.375 301.06876Q321.71875 301.58438 321.90625 302.33438Q322.09375 303.08438 322.09375 304.36563Q322.09375 305.88126 321.78125 306.80313Q321.48438 307.725 320.85938 308.24063Q320.25 308.74063 319.29688 308.74063Q318.0625 308.74063 317.34375 307.85Q316.5 306.7875 316.5 304.36563ZM317.57812 304.36563Q317.57812 306.475 318.07812 307.17813Q318.57812 307.88126 319.29688 307.88126Q320.03125 307.88126 320.51562 307.17813Q321.01562 306.475 321.01562 304.36563Q321.01562 302.24063 320.51562 301.55313Q320.03125 300.85 319.28125 300.85Q318.5625 300.85 318.125 301.45938Q317.57812 302.24063 317.57812 304.36563Z" fill-rule="nonzero"/><path fill="#000000" d="M419.2802 305.83438L420.3427 305.74063Q420.42084 306.39688 420.7021 306.80313Q420.98334 307.20938 421.56146 307.475Q422.1552 307.725 422.8896 307.725Q423.5302 307.725 424.0302 307.5375Q424.5302 307.33438 424.7646 307.00626Q425.0146 306.6625 425.0146 306.27188Q425.0146 305.86563 424.7802 305.56876Q424.54584 305.25626 424.0146 305.05313Q423.6552 304.9125 422.4677 304.63126Q421.29584 304.35 420.8271 304.1Q420.2021 303.77188 419.9052 303.30313Q419.60834 302.81876 419.60834 302.225Q419.60834 301.58438 419.9677 301.02188Q420.3427 300.44376 421.04584 300.1625Q421.7646 299.86563 422.62396 299.86563Q423.5771 299.86563 424.31146 300.17813Q425.04584 300.475 425.43646 301.08438Q425.8271 301.67813 425.85834 302.42813L424.7646 302.50626Q424.67084 301.69376 424.1552 301.2875Q423.6552 300.86563 422.67084 300.86563Q421.6396 300.86563 421.17084 301.24063Q420.7021 301.61563 420.7021 302.14688Q420.7021 302.61563 421.0302 302.9125Q421.35834 303.20938 422.73334 303.52188Q424.12396 303.83438 424.6396 304.06876Q425.3896 304.42813 425.74896 304.95938Q426.10834 305.475 426.10834 306.17813Q426.10834 306.86563 425.7177 307.475Q425.3271 308.06876 424.5927 308.4125Q423.85834 308.74063 422.93646 308.74063Q421.7646 308.74063 420.9677 308.4125Q420.18646 308.06876 419.73334 307.38126Q419.29584 306.69376 419.2802 305.83438ZM427.5302 310.99063L427.5302 302.38126L428.48334 302.38126L428.48334 303.17813Q428.8271 302.70938 429.24896 302.475Q429.68646 302.24063 430.29584 302.24063Q431.0927 302.24063 431.7021 302.64688Q432.31146 303.05313 432.60834 303.80313Q432.92084 304.55313 432.92084 305.44376Q432.92084 306.39688 432.5771 307.1625Q432.24896 307.92813 431.5927 308.33438Q430.93646 308.74063 430.2177 308.74063Q429.68646 308.74063 429.2646 308.52188Q428.8427 308.2875 428.5771 307.95938L428.5771 310.99063L427.5302 310.99063ZM428.48334 305.52188Q428.48334 306.725 428.9677 307.30313Q429.4521 307.86563 430.1396 307.86563Q430.8427 307.86563 431.3427 307.27188Q431.8427 306.67813 431.8427 305.42813Q431.8427 304.24063 431.35834 303.6625Q430.87396 303.06876 430.18646 303.06876Q429.5146 303.06876 428.99896 303.69376Q428.48334 304.31876 428.48334 305.52188ZM434.5146 308.6L434.5146 302.38126L435.4677 302.38126L435.4677 303.31876Q435.8271 302.6625 436.12396 302.45938Q436.43646 302.24063 436.81146 302.24063Q437.3427 302.24063 437.8896 302.56876L437.5302 303.55313Q437.1396 303.31876 436.7646 303.31876Q436.4052 303.31876 436.12396 303.5375Q435.85834 303.74063 435.74896 304.11563Q435.56146 304.67813 435.56146 305.33438L435.56146 308.6L434.5146 308.6ZM438.5302 301.225L438.5302 300.00626L439.5927 300.00626L439.5927 301.225L438.5302 301.225ZM438.5302 308.6L438.5302 302.38126L439.5927 302.38126L439.5927 308.6L438.5302 308.6ZM441.5302 308.6L441.5302 302.38126L442.4677 302.38126L442.4677 303.25626Q443.1552 302.24063 444.4521 302.24063Q445.0146 302.24063 445.48334 302.44376Q445.9677 302.64688 446.2021 302.975Q446.43646 303.30313 446.5302 303.74063Q446.5771 304.0375 446.5771 304.77188L446.5771 308.6L445.5302 308.6L445.5302 304.81876Q445.5302 304.1625 445.4052 303.85Q445.2802 303.5375 444.9677 303.35Q444.6552 303.14688 444.23334 303.14688Q443.56146 303.14688 443.06146 303.58438Q442.5771 304.00626 442.5771 305.19376L442.5771 308.6L441.5302 308.6ZM450.8271 307.6625L450.98334 308.58438Q450.5302 308.67813 450.18646 308.67813Q449.60834 308.67813 449.29584 308.50626Q448.98334 308.31876 448.8427 308.02188Q448.7177 307.725 448.7177 306.77188L448.7177 303.19376L447.9521 303.19376L447.9521 302.38126L448.7177 302.38126L448.7177 300.83438L449.7646 300.20938L449.7646 302.38126L450.8271 302.38126L450.8271 303.19376L449.7646 303.19376L449.7646 306.83438Q449.7646 307.2875 449.81146 307.4125Q449.87396 307.5375 449.99896 307.61563Q450.12396 307.69376 450.35834 307.69376Q450.54584 307.69376 450.8271 307.6625ZM458.2021 308.6L457.1552 308.6L457.1552 301.88126Q456.7646 302.24063 456.1396 302.61563Q455.5302 302.975 455.04584 303.14688L455.04584 302.13126Q455.92084 301.70938 456.5771 301.13126Q457.24896 300.5375 457.5302 299.975L458.2021 299.975L458.2021 308.6ZM465.2021 308.6L464.1552 308.6L464.1552 301.88126Q463.7646 302.24063 463.1396 302.61563Q462.5302 302.975 462.04584 303.14688L462.04584 302.13126Q462.92084 301.70938 463.5771 301.13126Q464.24896 300.5375 464.5302 299.975L465.2021 299.975L465.2021 308.6Z" fill-rule="nonzero"/><path fill="#4285f4" d="M139.0 23.4C139.0 26.713709 136.3137 29.4 133.0 29.4C129.6863 29.4 127.0 26.713709 127.0 23.4C127.0 20.086292 129.6863 17.4 133.0 17.4C136.3137 17.4 139.0 20.086292 139.0 23.4Z" fill-rule="nonzero"/><path fill="#1a1a1a" d="M150.375 27.4L147.04688 18.80625L148.28125 18.80625L150.51562 25.05625Q150.78125 25.80625 150.96875 26.4625Q151.17188 25.759375 151.4375 25.05625L153.75 18.80625L154.90625 18.80625L151.54688 27.4L150.375 27.4ZM158.85938 26.634375Q158.26562 27.134375 157.71875 27.3375Q157.1875 27.540625 156.5625 27.540625Q155.53125 27.540625 154.98438 27.040625Q154.4375 26.540625 154.4375 25.759375Q154.4375 25.30625 154.64062 24.93125Q154.84375 24.540625 155.1875 24.321875Q155.53125 24.0875 155.95312 23.978125Q156.25 23.884375 156.89062 23.80625Q158.15625 23.665625 158.76562 23.446875Q158.76562 23.228125 158.76562 23.18125Q158.76562 22.525 158.46875 22.259375Q158.0625 21.915625 157.26562 21.915625Q156.53125 21.915625 156.17188 22.18125Q155.8125 22.43125 155.64062 23.0875L154.60938 22.946875Q154.75 22.290625 155.07812 21.884375Q155.40625 21.478125 156.01562 21.259375Q156.625 21.040625 157.42188 21.040625Q158.21875 21.040625 158.71875 21.228125Q159.21875 21.415625 159.45312 21.696875Q159.6875 21.978125 159.78125 22.415625Q159.82812 22.68125 159.82812 23.384375L159.82812 24.790625Q159.82812 26.259375 159.89062 26.65Q159.96875 27.040625 160.17188 27.4L159.0625 27.4Q158.90625 27.071875 158.85938 26.634375ZM158.76562 24.275Q158.1875 24.509375 157.04688 24.68125Q156.39062 24.775 156.125 24.9Q155.85938 25.009375 155.70312 25.228125Q155.5625 25.446875 155.5625 25.728125Q155.5625 26.15 155.875 26.43125Q156.20312 26.7125 156.8125 26.7125Q157.42188 26.7125 157.89062 26.446875Q158.375 26.18125 158.59375 25.7125Q158.76562 25.353125 158.76562 24.665625L158.76562 24.275ZM161.76562 27.4L161.76562 18.80625L162.82812 18.80625L162.82812 27.4L161.76562 27.4ZM164.40625 24.290625Q164.40625 22.55625 165.35938 21.728125Q166.15625 21.040625 167.3125 21.040625Q168.59375 21.040625 169.40625 21.884375Q170.23438 22.7125 170.23438 24.196875Q170.23438 25.4 169.875 26.0875Q169.51562 26.775 168.8125 27.165625Q168.125 27.540625 167.3125 27.540625Q166.01562 27.540625 165.20312 26.7125Q164.40625 25.86875 164.40625 24.290625ZM165.48438 24.290625Q165.48438 25.478125 166.0 26.071875Q166.53125 26.665625 167.3125 26.665625Q168.10938 26.665625 168.625 26.071875Q169.14062 25.478125 169.14062 24.259375Q169.14062 23.103125 168.60938 22.509375Q168.09375 21.915625 167.3125 21.915625Q166.53125 21.915625 166.0 22.509375Q165.48438 23.0875 165.48438 24.290625ZM171.78125 27.4L171.78125 21.18125L172.73438 21.18125L172.73438 22.11875Q173.09375 21.4625 173.39062 21.259375Q173.70312 21.040625 174.07812 21.040625Q174.60938 21.040625 175.15625 21.36875L174.79688 22.353125Q174.40625 22.11875 174.03125 22.11875Q173.67188 22.11875 173.39062 22.3375Q173.125 22.540625 173.01562 22.915625Q172.82812 23.478125 172.82812 24.134375L172.82812 27.4L171.78125 27.4ZM180.04688 25.4L181.14062 25.525Q180.89062 26.478125 180.1875 27.009375Q179.48438 27.540625 178.40625 27.540625Q177.04688 27.540625 176.23438 26.696875Q175.4375 25.853125 175.4375 24.3375Q175.4375 22.775 176.25 21.915625Q177.0625 21.040625 178.34375 21.040625Q179.59375 21.040625 180.375 21.884375Q181.17188 22.728125 181.17188 24.275Q181.17188 24.36875 181.17188 24.55625L176.53125 24.55625Q176.59375 25.5875 177.10938 26.134375Q177.625 26.665625 178.40625 26.665625Q178.98438 26.665625 179.39062 26.36875Q179.8125 26.05625 180.04688 25.4ZM176.59375 23.696875L180.0625 23.696875Q180.0 22.9 179.67188 22.509375Q179.15625 21.9 178.35938 21.9Q177.625 21.9 177.125 22.384375Q176.64062 22.86875 176.59375 23.696875ZM185.40625 24.290625Q185.40625 22.55625 186.35938 21.728125Q187.15625 21.040625 188.3125 21.040625Q189.59375 21.040625 190.40625 21.884375Q191.23438 22.7125 191.23438 24.196875Q191.23438 25.4 190.875 26.0875Q190.51562 26.775 189.8125 27.165625Q189.125 27.540625 188.3125 27.540625Q187.01562 27.540625 186.20312 26.7125Q185.40625 25.86875 185.40625 24.290625ZM186.48438 24.290625Q186.48438 25.478125 187.0 26.071875Q187.53125 26.665625 188.3125 26.665625Q189.10938 26.665625 189.625 26.071875Q190.14062 25.478125 190.14062 24.259375Q190.14062 23.103125 189.60938 22.509375Q189.09375 21.915625 188.3125 21.915625Q187.53125 21.915625 187.0 22.509375Q186.48438 23.0875 186.48438 24.290625ZM195.09375 26.4625L195.25 27.384375Q194.79688 27.478125 194.45312 27.478125Q193.875 27.478125 193.5625 27.30625Q193.25 27.11875 193.10938 26.821875Q192.98438 26.525 192.98438 25.571875L192.98438 21.99375L192.21875 21.99375L192.21875 21.18125L192.98438 21.18125L192.98438 19.634375L194.03125 19.009375L194.03125 21.18125L195.09375 21.18125L195.09375 21.99375L194.03125 21.99375L194.03125 25.634375Q194.03125 26.0875 194.07812 26.2125Q194.14062 26.3375 194.26562 26.415625Q194.39062 26.49375 194.625 26.49375Q194.8125 26.49375 195.09375 26.4625ZM198.09375 26.4625L198.25 27.384375Q197.79688 27.478125 197.45312 27.478125Q196.875 27.478125 196.5625 27.30625Q196.25 27.11875 196.10938 26.821875Q195.98438 26.525 195.98438 25.571875L195.98438 21.99375L195.21875 21.99375L195.21875 21.18125L195.98438 21.18125L195.98438 19.634375L197.03125 19.009375L197.03125 21.18125L198.09375 21.18125L198.09375 21.99375L197.03125 21.99375L197.03125 25.634375Q197.03125 26.0875 197.07812 26.2125Q197.14062 26.3375 197.26562 26.415625Q197.39062 26.49375 197.625 26.49375Q197.8125 26.49375 198.09375 26.4625ZM198.79688 20.025L198.79688 18.80625L199.85938 18.80625L199.85938 20.025L198.79688 20.025ZM198.79688 27.4L198.79688 21.18125L199.85938 21.18125L199.85938 27.4L198.79688 27.4ZM201.79688 27.4L201.79688 21.18125L202.73438 21.18125L202.73438 22.05625Q203.03125 21.5875 203.51562 21.321875Q204.0 21.040625 204.625 21.040625Q205.3125 21.040625 205.75 21.321875Q206.20312 21.603125 206.375 22.11875Q207.125 21.040625 208.29688 21.040625Q209.23438 21.040625 209.71875 21.55625Q210.21875 22.05625 210.21875 23.134375L210.21875 27.4L209.17188 27.4L209.17188 23.478125Q209.17188 22.853125 209.0625 22.571875Q208.96875 22.290625 208.70312 22.11875Q208.4375 21.946875 208.0625 21.946875Q207.40625 21.946875 206.96875 22.384375Q206.54688 22.821875 206.54688 23.790625L206.54688 27.4L205.48438 27.4L205.48438 23.353125Q205.48438 22.65 205.21875 22.30625Q204.96875 21.946875 204.39062 21.946875Q203.9375 21.946875 203.5625 22.18125Q203.1875 22.415625 203.01562 22.86875Q202.84375 23.321875 202.84375 24.165625L202.84375 27.4L201.79688 27.4ZM212.40625 24.290625Q212.40625 22.55625 213.35938 21.728125Q214.15625 21.040625 215.3125 21.040625Q216.59375 21.040625 217.40625 21.884375Q218.23438 22.7125 218.23438 24.196875Q218.23438 25.4 217.875 26.0875Q217.51562 26.775 216.8125 27.165625Q216.125 27.540625 215.3125 27.540625Q214.01562 27.540625 213.20312 26.7125Q212.40625 25.86875 212.40625 24.290625ZM213.48438 24.290625Q213.48438 25.478125 214.0 26.071875Q214.53125 26.665625 215.3125 26.665625Q216.10938 26.665625 216.625 26.071875Q217.14062 25.478125 217.14062 24.259375Q217.14062 23.103125 216.60938 22.509375Q216.09375 21.915625 215.3125 21.915625Q214.53125 21.915625 214.0 22.509375Q213.48438 23.0875 213.48438 24.290625Z" fill-rule="nonzero"/><path fill="#ea4335" d="M247.0 23.4C247.0 26.713709 244.3137 29.4 241.0 29.4C237.6863 29.4 235.0 26.713709 235.0 23.4C235.0 20.086292 237.6863 17.4 241.0 17.4C244.3137 17.4 247.0 20.086292 247.0 23.4Z" fill-rule="nonzero"/><path fill="#1a1a1a" d="M255.875 27.4L255.875 18.80625L259.10938 18.80625Q260.09375 18.80625 260.6875 19.071875Q261.28125 19.3375 261.60938 19.884375Q261.95312 20.415625 261.95312 21.009375Q261.95312 21.55625 261.65625 22.040625Q261.35938 22.525 260.75 22.821875Q261.53125 23.05625 261.9375 23.61875Q262.35938 24.165625 262.35938 24.915625Q262.35938 25.509375 262.10938 26.040625Q261.85938 26.55625 261.48438 26.8375Q261.10938 27.11875 260.53125 27.259375Q259.96875 27.4 259.15625 27.4L255.875 27.4ZM257.01562 22.415625L258.875 22.415625Q259.625 22.415625 259.95312 22.321875Q260.39062 22.196875 260.60938 21.9Q260.82812 21.5875 260.82812 21.134375Q260.82812 20.7125 260.625 20.384375Q260.42188 20.05625 260.03125 19.946875Q259.65625 19.821875 258.73438 19.821875L257.01562 19.821875L257.01562 22.415625ZM257.01562 26.384375L259.15625 26.384375Q259.70312 26.384375 259.92188 26.3375Q260.32812 26.275 260.57812 26.11875Q260.84375 25.946875 261.01562 25.634375Q261.1875 25.321875 261.1875 24.915625Q261.1875 24.43125 260.9375 24.071875Q260.70312 23.7125 260.26562 23.571875Q259.82812 23.43125 259.0 23.43125L257.01562 23.43125L257.01562 26.384375ZM270.0625 24.384375L271.1875 24.68125Q270.82812 26.071875 269.90625 26.80625Q268.98438 27.540625 267.64062 27.540625Q266.25 27.540625 265.375 26.978125Q264.5 26.415625 264.04688 25.353125Q263.59375 24.275 263.59375 23.040625Q263.59375 21.696875 264.10938 20.696875Q264.625 19.696875 265.5625 19.18125Q266.51562 18.665625 267.65625 18.665625Q268.9375 18.665625 269.8125 19.321875Q270.70312 19.978125 271.04688 21.165625L269.92188 21.43125Q269.625 20.49375 269.04688 20.071875Q268.48438 19.634375 267.625 19.634375Q266.64062 19.634375 265.96875 20.11875Q265.3125 20.5875 265.03125 21.384375Q264.76562 22.18125 264.76562 23.040625Q264.76562 24.134375 265.07812 24.946875Q265.40625 25.759375 266.07812 26.165625Q266.75 26.571875 267.54688 26.571875Q268.5 26.571875 269.15625 26.025Q269.82812 25.478125 270.0625 24.384375Z" fill-rule="nonzero"/><path fill="#fbbc04" d="M300.0 23.4C300.0 26.713709 297.31372 29.4 294.0 29.4C290.68628 29.4 288.0 26.713709 288.0 23.4C288.0 20.086292 290.68628 17.4 294.0 17.4C297.31372 17.4 300.0 20.086292 300.0 23.4Z" fill-rule="nonzero"/><path fill="#1a1a1a" d="M311.375 27.4L308.04688 18.80625L309.28125 18.80625L311.51562 25.05625Q311.78125 25.80625 311.96875 26.4625Q312.17188 25.759375 312.4375 25.05625L314.75 18.80625L315.90625 18.80625L312.54688 27.4L311.375 27.4ZM319.85938 26.634375Q319.26562 27.134375 318.71875 27.3375Q318.1875 27.540625 317.5625 27.540625Q316.53125 27.540625 315.98438 27.040625Q315.4375 26.540625 315.4375 25.759375Q315.4375 25.30625 315.64062 24.93125Q315.84375 24.540625 316.1875 24.321875Q316.53125 24.0875 316.95312 23.978125Q317.25 23.884375 317.89062 23.80625Q319.15625 23.665625 319.76562 23.446875Q319.76562 23.228125 319.76562 23.18125Q319.76562 22.525 319.46875 22.259375Q319.0625 21.915625 318.26562 21.915625Q317.53125 21.915625 317.17188 22.18125Q316.8125 22.43125 316.64062 23.0875L315.60938 22.946875Q315.75 22.290625 316.07812 21.884375Q316.40625 21.478125 317.01562 21.259375Q317.625 21.040625 318.42188 21.040625Q319.21875 21.040625 319.71875 21.228125Q320.21875 21.415625 320.45312 21.696875Q320.6875 21.978125 320.78125 22.415625Q320.82812 22.68125 320.82812 23.384375L320.82812 24.790625Q320.82812 26.259375 320.89062 26.65Q320.96875 27.040625 321.17188 27.4L320.0625 27.4Q319.90625 27.071875 319.85938 26.634375ZM319.76562 24.275Q319.1875 24.509375 318.04688 24.68125Q317.39062 24.775 317.125 24.9Q316.85938 25.009375 316.70312 25.228125Q316.5625 25.446875 316.5625 25.728125Q316.5625 26.15 316.875 26.43125Q317.20312 26.7125 317.8125 26.7125Q318.42188 26.7125 318.89062 26.446875Q319.375 26.18125 319.59375 25.7125Q319.76562 25.353125 319.76562 24.665625L319.76562 24.275ZM322.76562 27.4L322.76562 18.80625L323.82812 18.80625L323.82812 27.4L322.76562 27.4ZM325.40625 24.290625Q325.40625 22.55625 326.35938 21.728125Q327.15625 21.040625 328.3125 21.040625Q329.59375 21.040625 330.40625 21.884375Q331.23438 22.7125 331.23438 24.196875Q331.23438 25.4 330.875 26.0875Q330.51562 26.775 329.8125 27.165625Q329.125 27.540625 328.3125 27.540625Q327.01562 27.540625 326.20312 26.7125Q325.40625 25.86875 325.40625 24.290625ZM326.48438 24.290625Q326.48438 25.478125 327.0 26.071875Q327.53125 26.665625 328.3125 26.665625Q329.10938 26.665625 329.625 26.071875Q330.14062 25.478125 330.14062 24.259375Q330.14062 23.103125 329.60938 22.509375Q329.09375 21.915625 328.3125 21.915625Q327.53125 21.915625 327.0 22.509375Q326.48438 23.0875 326.48438 24.290625ZM332.78125 27.4L332.78125 21.18125L333.73438 21.18125L333.73438 22.11875Q334.09375 21.4625 334.39062 21.259375Q334.70312 21.040625 335.07812 21.040625Q335.60938 21.040625 336.15625 21.36875L335.79688 22.353125Q335.40625 22.11875 335.03125 22.11875Q334.67188 22.11875 334.39062 22.3375Q334.125 22.540625 334.01562 22.915625Q333.82812 23.478125 333.82812 24.134375L333.82812 27.4L332.78125 27.4ZM341.04688 25.4L342.14062 25.525Q341.89062 26.478125 341.1875 27.009375Q340.48438 27.540625 339.40625 27.540625Q338.04688 27.540625 337.23438 26.696875Q336.4375 25.853125 336.4375 24.3375Q336.4375 22.775 337.25 21.915625Q338.0625 21.040625 339.34375 21.040625Q340.59375 21.040625 341.375 21.884375Q342.17188 22.728125 342.17188 24.275Q342.17188 24.36875 342.17188 24.55625L337.53125 24.55625Q337.59375 25.5875 338.10938 26.134375Q338.625 26.665625 339.40625 26.665625Q339.98438 26.665625 340.39062 26.36875Q340.8125 26.05625 341.04688 25.4ZM337.59375 23.696875L341.0625 23.696875Q341.0 22.9 340.67188 22.509375Q340.15625 21.9 339.35938 21.9Q338.625 21.9 338.125 22.384375Q337.64062 22.86875 337.59375 23.696875ZM350.85938 26.634375Q350.26562 27.134375 349.71875 27.3375Q349.1875 27.540625 348.5625 27.540625Q347.53125 27.540625 346.98438 27.040625Q346.4375 26.540625 346.4375 25.759375Q346.4375 25.30625 346.64062 24.93125Q346.84375 24.540625 347.1875 24.321875Q347.53125 24.0875 347.95312 23.978125Q348.25 23.884375 348.89062 23.80625Q350.15625 23.665625 350.76562 23.446875Q350.76562 23.228125 350.76562 23.18125Q350.76562 22.525 350.46875 22.259375Q350.0625 21.915625 349.26562 21.915625Q348.53125 21.915625 348.17188 22.18125Q347.8125 22.43125 347.64062 23.0875L346.60938 22.946875Q346.75 22.290625 347.07812 21.884375Q347.40625 21.478125 348.01562 21.259375Q348.625 21.040625 349.42188 21.040625Q350.21875 21.040625 350.71875 21.228125Q351.21875 21.415625 351.45312 21.696875Q351.6875 21.978125 351.78125 22.415625Q351.82812 22.68125 351.82812 23.384375L351.82812 24.790625Q351.82812 26.259375 351.89062 26.65Q351.96875 27.040625 352.17188 27.4L351.0625 27.4Q350.90625 27.071875 350.85938 26.634375ZM350.76562 24.275Q350.1875 24.509375 349.04688 24.68125Q348.39062 24.775 348.125 24.9Q347.85938 25.009375 347.70312 25.228125Q347.5625 25.446875 347.5625 25.728125Q347.5625 26.15 347.875 26.43125Q348.20312 26.7125 348.8125 26.7125Q349.42188 26.7125 349.89062 26.446875Q350.375 26.18125 350.59375 25.7125Q350.76562 25.353125 350.76562 24.665625L350.76562 24.275ZM357.85938 25.11875L358.89062 25.259375Q358.71875 26.321875 358.01562 26.93125Q357.3125 27.540625 356.29688 27.540625Q355.01562 27.540625 354.23438 26.7125Q353.46875 25.86875 353.46875 24.30625Q353.46875 23.30625 353.79688 22.55625Q354.14062 21.790625 354.8125 21.415625Q355.5 21.040625 356.3125 21.040625Q357.3125 21.040625 357.95312 21.55625Q358.60938 22.05625 358.79688 23.009375L357.76562 23.165625Q357.625 22.540625 357.25 22.228125Q356.875 21.9 356.34375 21.9Q355.54688 21.9 355.04688 22.478125Q354.54688 23.040625 354.54688 24.275Q354.54688 25.540625 355.03125 26.103125Q355.51562 26.665625 356.28125 26.665625Q356.90625 26.665625 357.3125 26.290625Q357.73438 25.915625 357.85938 25.11875ZM363.85938 25.11875L364.89062 25.259375Q364.71875 26.321875 364.01562 26.93125Q363.3125 27.540625 362.29688 27.540625Q361.01562 27.540625 360.23438 26.7125Q359.46875 25.86875 359.46875 24.30625Q359.46875 23.30625 359.79688 22.55625Q360.14062 21.790625 360.8125 21.415625Q361.5 21.040625 362.3125 21.040625Q363.3125 21.040625 363.95312 21.55625Q364.60938 22.05625 364.79688 23.009375L363.76562 23.165625Q363.625 22.540625 363.25 22.228125Q362.875 21.9 362.34375 21.9Q361.54688 21.9 361.04688 22.478125Q360.54688 23.040625 360.54688 24.275Q360.54688 25.540625 361.03125 26.103125Q361.51562 26.665625 362.28125 26.665625Q362.90625 26.665625 363.3125 26.290625Q363.73438 25.915625 363.85938 25.11875ZM370.04688 25.4L371.14062 25.525Q370.89062 26.478125 370.1875 27.009375Q369.48438 27.540625 368.40625 27.540625Q367.04688 27.540625 366.23438 26.696875Q365.4375 25.853125 365.4375 24.3375Q365.4375 22.775 366.25 21.915625Q367.0625 21.040625 368.34375 21.040625Q369.59375 21.040625 370.375 21.884375Q371.17188 22.728125 371.17188 24.275Q371.17188 24.36875 371.17188 24.55625L366.53125 24.55625Q366.59375 25.5875 367.10938 26.134375Q367.625 26.665625 368.40625 26.665625Q368.98438 26.665625 369.39062 26.36875Q369.8125 26.05625 370.04688 25.4ZM366.59375 23.696875L370.0625 23.696875Q370.0 22.9 369.67188 22.509375Q369.15625 21.9 368.35938 21.9Q367.625 21.9 367.125 22.384375Q366.64062 22.86875 366.59375 23.696875ZM375.09375 26.4625L375.25 27.384375Q374.79688 27.478125 374.45312 27.478125Q373.875 27.478125 373.5625 27.30625Q373.25 27.11875 373.10938 26.821875Q372.98438 26.525 372.98438 25.571875L372.98438 21.99375L372.21875 21.99375L372.21875 21.18125L372.98438 21.18125L372.98438 19.634375L374.03125 19.009375L374.03125 21.18125L375.09375 21.18125L375.09375 21.99375L374.03125 21.99375L374.03125 25.634375Q374.03125 26.0875 374.07812 26.2125Q374.14062 26.3375 374.26562 26.415625Q374.39062 26.49375 374.625 26.49375Q374.8125 26.49375 375.09375 26.4625ZM378.09375 26.4625L378.25 27.384375Q377.79688 27.478125 377.45312 27.478125Q376.875 27.478125 376.5625 27.30625Q376.25 27.11875 376.10938 26.821875Q375.98438 26.525 375.98438 25.571875L375.98438 21.99375L375.21875 21.99375L375.21875 21.18125L375.98438 21.18125L375.98438 19.634375L377.03125 19.009375L377.03125 21.18125L378.09375 21.18125L378.09375 21.99375L377.03125 21.99375L377.03125 25.634375Q377.03125 26.0875 377.07812 26.2125Q377.14062 26.3375 377.26562 26.415625Q377.39062 26.49375 377.625 26.49375Q377.8125 26.49375 378.09375 26.4625ZM382.85938 26.634375Q382.26562 27.134375 381.71875 27.3375Q381.1875 27.540625 380.5625 27.540625Q379.53125 27.540625 378.98438 27.040625Q378.4375 26.540625 378.4375 25.759375Q378.4375 25.30625 378.64062 24.93125Q378.84375 24.540625 379.1875 24.321875Q379.53125 24.0875 379.95312 23.978125Q380.25 23.884375 380.89062 23.80625Q382.15625 23.665625 382.76562 23.446875Q382.76562 23.228125 382.76562 23.18125Q382.76562 22.525 382.46875 22.259375Q382.0625 21.915625 381.26562 21.915625Q380.53125 21.915625 380.17188 22.18125Q379.8125 22.43125 379.64062 23.0875L378.60938 22.946875Q378.75 22.290625 379.07812 21.884375Q379.40625 21.478125 380.01562 21.259375Q380.625 21.040625 381.42188 21.040625Q382.21875 21.040625 382.71875 21.228125Q383.21875 21.415625 383.45312 21.696875Q383.6875 21.978125 383.78125 22.415625Q383.82812 22.68125 383.82812 23.384375L383.82812 24.790625Q383.82812 26.259375 383.89062 26.65Q383.96875 27.040625 384.17188 27.4L383.0625 27.4Q382.90625 27.071875 382.85938 26.634375ZM382.76562 24.275Q382.1875 24.509375 381.04688 24.68125Q380.39062 24.775 380.125 24.9Q379.85938 25.009375 379.70312 25.228125Q379.5625 25.446875 379.5625 25.728125Q379.5625 26.15 379.875 26.43125Q380.20312 26.7125 380.8125 26.7125Q381.42188 26.7125 381.89062 26.446875Q382.375 26.18125 382.59375 25.7125Q382.76562 25.353125 382.76562 24.665625L382.76562 24.275ZM386.76562 27.4L385.78125 27.4L385.78125 18.80625L386.84375 18.80625L386.84375 21.86875Q387.51562 21.040625 388.54688 21.040625Q389.125 21.040625 389.625 21.275Q390.14062 21.49375 390.46875 21.915625Q390.8125 22.3375 391.0 22.93125Q391.1875 23.525 391.1875 24.196875Q391.1875 25.790625 390.39062 26.665625Q389.59375 27.540625 388.5 27.540625Q387.39062 27.540625 386.76562 26.61875L386.76562 27.4ZM386.75 24.24375Q386.75 25.353125 387.0625 25.853125Q387.5625 26.665625 388.40625 26.665625Q389.09375 26.665625 389.59375 26.071875Q390.10938 25.478125 390.10938 24.275Q390.10938 23.05625 389.625 22.478125Q389.14062 21.9 388.45312 21.9Q387.76562 21.9 387.25 22.509375Q386.75 23.103125 386.75 24.24375ZM392.79688 20.025L392.79688 18.80625L393.85938 18.80625L393.85938 20.025L392.79688 20.025ZM392.79688 27.4L392.79688 21.18125L393.85938 21.18125L393.85938 27.4L392.79688 27.4ZM395.76562 27.4L395.76562 18.80625L396.82812 18.80625L396.82812 27.4L395.76562 27.4ZM403.04688 25.4L404.14062 25.525Q403.89062 26.478125 403.1875 27.009375Q402.48438 27.540625 401.40625 27.540625Q400.04688 27.540625 399.23438 26.696875Q398.4375 25.853125 398.4375 24.3375Q398.4375 22.775 399.25 21.915625Q400.0625 21.040625 401.34375 21.040625Q402.59375 21.040625 403.375 21.884375Q404.17188 22.728125 404.17188 24.275Q404.17188 24.36875 404.17188 24.55625L399.53125 24.55625Q399.59375 25.5875 400.10938 26.134375Q400.625 26.665625 401.40625 26.665625Q401.98438 26.665625 402.39062 26.36875Q402.8125 26.05625 403.04688 25.4ZM399.59375 23.696875L403.0625 23.696875Q403.0 22.9 402.67188 22.509375Q402.15625 21.9 401.35938 21.9Q400.625 21.9 400.125 22.384375Q399.64062 22.86875 399.59375 23.696875Z" fill-rule="nonzero"/></svg>