<svg version="1.1" viewBox="0.0 0.0 532.0 328.0" fill="none" stroke="none" stroke-linecap="square" stroke-miterlimit="10" width="532" height="328" xmlns:xlink="http://www.w3.org/1999/xlink" xmlns="http://www.w3.org/2000/svg"><path fill="#ffffff" d="M0 0L532.0 0L532.0 328.0L0 328.0L0 0Z" fill-rule="nonzero"/><path stroke="#333333" stroke-width="1.0" stroke-linecap="butt" d="M81.5 285.5L515.5 285.5" fill-rule="nonzero"/><path stroke="#cccccc" stroke-width="1.0" stroke-linecap="butt" d="M81.5 246.5L515.5 246.5" fill-rule="nonzero"/><path stroke="#cccccc" stroke-width="1.0" stroke-linecap="butt" d="M81.5 206.5L515.5 206.5" fill-rule="nonzero"/><path stroke="#cccccc" stroke-width="1.0" stroke-linecap="butt" d="M81.5 166.5L515.5 166.5" fill-rule="nonzero"/><path stroke="#cccccc" stroke-width="1.0" stroke-linecap="butt" d="M81.5 127.5L515.5 127.5" fill-rule="nonzero"/><path stroke="#cccccc" stroke-width="1.0" stroke-linecap="butt" d="M81.5 87.5L515.5 87.5" fill-rule="nonzero"/><path stroke="#cccccc" stroke-width="1.0" stroke-linecap="butt" d="M81.5 48.5L515.5 48.5" fill-rule="nonzero"/><path stroke="#000000" stroke-width="1.0" stroke-linecap="butt" d="M515.5 285.5L81.5 285.5" fill-rule="nonzero"/><path stroke="#000000" stroke-width="1.0" stroke-linecap="butt" d="M81.5 285.5L81.5 48.5" fill-rule="nonzero"/><clipPath id="id_0"><path d="M81.4 48.333332L515.6 48.333332L515.6 285.6L81.4 285.6L81.4 48.333332Z" clip-rule="nonzero"/></clipPath><path stroke="#4285f4" stroke-width="2.0" stroke-linecap="butt" clip-path="url(#id_0)" d="M153.76666 206.51111C153.76666 206.51111 250.25555 206.51111 298.5 206.51111C346.74445 206.51111 443.23334 206.51111 443.23334 206.51111" fill-rule="nonzero"/><path stroke="#ea4335" stroke-width="2.0" stroke-linecap="butt" clip-path="url(#id_0)" d="M153.76666 87.87778C153.76666 87.87778 250.25555 135.33112 298.5 151.1489C346.74445 166.96666 443.23334 182.78444 443.23334 182.78444" fill-rule="nonzero"/><path stroke="#fbbc04" stroke-width="2.0" stroke-linecap="butt" clip-path="url(#id_0)" d="M153.76666 127.422226C153.76666 127.422226 250.25555 127.422226 298.5 127.422226C346.74445 127.422226 443.23334 127.422226 443.23334 127.422226" fill-rule="nonzero"/><path fill="#4285f4" clip-path="url(#id_0)" d="M157.26666 206.51111C157.26666 208.4441 155.69966 210.01111 153.76666 210.01111C151.83366 210.01111 150.26666 208.4441 150.26666 206.51111C150.26666 204.57811 151.83366 203.01111 153.76666 203.01111C155.69966 203.01111 157.26666 204.57811 157.26666 206.51111Z" fill-rule="nonzero"/><path fill="#4285f4" clip-path="url(#id_0)" d="M302.0 206.51111C302.0 208.4441 300.43298 210.01111 298.5 210.01111C296.56702 210.01111 295.0 208.4441 295.0 206.51111C295.0 204.57811 296.56702 203.01111 298.5 203.01111C300.43298 203.01111 302.0 204.57811 302.0 206.51111Z" fill-rule="nonzero"/><path fill="#4285f4" clip-path="url(#id_0)" d="M446.73334 206.51111C446.73334 208.4441 445.16632 210.01111 443.23334 210.01111C441.30032 210.01111 439.73334 208.4441 439.73334 206.51111C439.73334 204.57811 441.30032 203.01111 443.23334 203.01111C445.16632 203.01111 446.73334 204.57811 446.73334 206.51111Z" fill-rule="nonzero"/><path fill="#ea4335" clip-path="url(#id_0)" d="M157.26666 87.87778C157.26666 89.810776 155.69966 91.37778 153.76666 91.37778C151.83366 91.37778 150.26666 89.810776 150.26666 87.87778C150.26666 85.94478 151.83366 84.37778 153.76666 84.37778C155.69966 84.37778 157.26666 85.94478 157.26666 87.87778Z" fill-rule="nonzero"/><path fill="#ea4335" clip-path="url(#id_0)" d="M302.0 151.1489C302.0 153.08188 300.43298 154.6489 298.5 154.6489C296.56702 154.6489 295.0 153.08188 295.0 151.1489C295.0 149.2159 296.56702 147.6489 298.5 147.6489C300.43298 147.6489 302.0 149.2159 302.0 151.1489Z" fill-rule="nonzero"/><path fill="#ea4335" clip-path="url(#id_0)" d="M446.73334 182.78444C446.73334 184.71744 445.16632 186.28444 443.23334 186.28444C441.30032 186.28444 439.73334 184.71744 439.73334 182.78444C439.73334 180.85144 441.30032 179.28444 443.23334 179.28444C445.16632 179.28444 446.73334 180.85144 446.73334 182.78444Z" fill-rule="nonzero"/><path fill="#fbbc04" clip-path="url(#id_0)" d="M157.26666 127.422226C157.26666 129.35522 155.69966 130.92223 153.76666 130.92223C151.83366 130.92223 150.26666 129.35522 150.26666 127.422226C150.26666 125.48923 151.83366 123.922226 153.76666 123.922226C155.69966 123.922226 157.26666 125.48923 157.26666 127.422226Z" fill-rule="nonzero"/><path fill="#fbbc04" clip-path="url(#id_0)" d="M302.0 127.422226C302.0 129.35522 300.43298 130.92223 298.5 130.92223C296.56702 130.92223 295.0 129.35522 295.0 127.422226C295.0 125.48923 296.56702 123.922226 298.5 123.922226C300.43298 123.922226 302.0 125.48923 302.0 127.422226Z" fill-rule="nonzero"/><path fill="#fbbc04" clip-path="url(#id_0)" d="M446.73334 127.422226C446.73334 129.35522 445.16632 130.92223 443.23334 130.92223C441.30032 130.92223 439.73334 129.35522 439.73334 127.422226C439.73334 125.48923 441.30032 123.922226 443.23334 123.922226C445.16632 123.922226 446.73334 125.48923 446.73334 127.422226Z" fill-rule="nonzero"/><path stroke="#000000" stroke-width="1.0" stroke-linecap="butt" d="M153.5 291.5L153.5 279.5" fill-rule="nonzero"/><path stroke="#000000" stroke-width="1.0" stroke-linecap="butt" d="M298.5 291.5L298.5 279.5" fill-rule="nonzero"/><path stroke="#000000" stroke-width="1.0" stroke-linecap="butt" d="M443.5 291.5L443.5 279.5" fill-rule="nonzero"/><path stroke="#000000" stroke-width="1.0" stroke-linecap="butt" d="M75.5 285.5L87.5 285.5" fill-rule="nonzero"/><path stroke="#000000" stroke-width="1.0" stroke-linecap="butt" d="M75.5 246.5L87.5 246.5" fill-rule="nonzero"/><path stroke="#000000" stroke-width="1.0" stroke-linecap="butt" d="M75.5 206.5L87.5 206.5" fill-rule="nonzero"/><path stroke="#000000" stroke-width="1.0" stroke-linecap="butt" d="M75.5 166.5L87.5 166.5" fill-rule="nonzero"/><path stroke="#000000" stroke-width="1.0" stroke-linecap="butt" d="M75.5 127.5L87.5 127.5" fill-rule="nonzero"/><path stroke="#000000" stroke-width="1.0" stroke-linecap="butt" d="M75.5 87.5L87.5 87.5" fill-rule="nonzero"/><path stroke="#000000" stroke-width="1.0" stroke-linecap="butt" d="M75.5 48.5L87.5 48.5" fill-rule="nonzero"/><path fill="#000000" d="M62.9 285.36563Q62.9 283.83438 63.2125 282.9125Q63.525 281.975 64.13438 281.475Q64.75938 280.975 65.69688 280.975Q66.38438 280.975 66.9 281.25626Q67.43125 281.5375 67.775 282.06876Q68.11875 282.58438 68.30625 283.33438Q68.49375 284.08438 68.49375 285.36563Q68.49375 286.88126 68.18125 287.80313Q67.88438 288.725 67.25938 289.24063Q66.65 289.74063 65.69688 289.74063Q64.4625 289.74063 63.74375 288.85Q62.9 287.7875 62.9 285.36563ZM63.978127 285.36563Q63.978127 287.475 64.47813 288.17813Q64.97813 288.88126 65.69688 288.88126Q66.43125 288.88126 66.91563 288.17813Q67.41563 287.475 67.41563 285.36563Q67.41563 283.24063 66.91563 282.55313Q66.43125 281.85 65.68125 281.85Q64.9625 281.85 64.525 282.45938Q63.978127 283.24063 63.978127 285.36563Z" fill-rule="nonzero"/><path fill="#000000" d="M62.9 247.80556L64.00938 247.7118Q64.13438 248.5243 64.57188 248.93056Q65.025 249.3368 65.66563 249.3368Q66.41563 249.3368 66.94688 248.75868Q67.47813 248.18056 67.47813 247.24306Q67.47813 246.3368 66.9625 245.82118Q66.4625 245.28993 65.63438 245.28993Q65.13438 245.28993 64.7125 245.5243Q64.30625 245.75868 64.07188 246.11806L63.0875 245.99306L63.915627 241.5868L68.19688 241.5868L68.19688 242.5868L64.75938 242.5868L64.30625 244.8993Q65.07188 244.35243 65.91563 244.35243Q67.04063 244.35243 67.80625 245.13368Q68.5875 245.91493 68.5875 247.1493Q68.5875 248.30556 67.91563 249.16493Q67.0875 250.19618 65.66563 250.19618Q64.49375 250.19618 63.74375 249.53993Q63.009377 248.88368 62.9 247.80556Z" fill-rule="nonzero"/><path fill="#000000" d="M59.86875 210.51111L58.821877 210.51111L58.821877 203.79236Q58.43125 204.15173 57.80625 204.52673Q57.196877 204.88611 56.7125 205.05798L56.7125 204.04236Q57.5875 203.62048 58.24375 203.04236Q58.915627 202.44861 59.196877 201.88611L59.86875 201.88611L59.86875 210.51111ZM62.9 206.27673Q62.9 204.74548 63.2125 203.82361Q63.525 202.88611 64.13438 202.38611Q64.75938 201.88611 65.69688 201.88611Q66.38438 201.88611 66.9 202.16736Q67.43125 202.44861 67.775 202.97986Q68.11875 203.49548 68.30625 204.24548Q68.49375 204.99548 68.49375 206.27673Q68.49375 207.79236 68.18125 208.71423Q67.88438 209.63611 67.25938 210.15173Q66.65 210.65173 65.69688 210.65173Q64.4625 210.65173 63.74375 209.76111Q62.9 208.69861 62.9 206.27673ZM63.978127 206.27673Q63.978127 208.38611 64.47813 209.08923Q64.97813 209.79236 65.69688 209.79236Q66.43125 209.79236 66.91563 209.08923Q67.41563 208.38611 67.41563 206.27673Q67.41563 204.15173 66.91563 203.46423Q66.43125 202.76111 65.68125 202.76111Q64.9625 202.76111 64.525 203.37048Q63.978127 204.15173 63.978127 206.27673Z" fill-rule="nonzero"/><path fill="#000000" d="M59.86875 170.96666L58.821877 170.96666L58.821877 164.24791Q58.43125 164.60728 57.80625 164.98228Q57.196877 165.34166 56.7125 165.51353L56.7125 164.49791Q57.5875 164.07603 58.24375 163.49791Q58.915627 162.90416 59.196877 162.34166L59.86875 162.34166L59.86875 170.96666ZM62.9 168.71666L64.00938 168.62291Q64.13438 169.43541 64.57188 169.84166Q65.025 170.24791 65.66563 170.24791Q66.41563 170.24791 66.94688 169.66978Q67.47813 169.09166 67.47813 168.15416Q67.47813 167.24791 66.9625 166.73228Q66.4625 166.20103 65.63438 166.20103Q65.13438 166.20103 64.7125 166.43541Q64.30625 166.66978 64.07188 167.02916L63.0875 166.90416L63.915627 162.49791L68.19688 162.49791L68.19688 163.49791L64.75938 163.49791L64.30625 165.81041Q65.07188 165.26353 65.91563 165.26353Q67.04063 165.26353 67.80625 166.04478Q68.5875 166.82603 68.5875 168.06041Q68.5875 169.21666 67.91563 170.07603Q67.0875 171.10728 65.66563 171.10728Q64.49375 171.10728 63.74375 170.45103Q63.009377 169.79478 62.9 168.71666Z" fill-rule="nonzero"/><path fill="#000000" d="M61.446877 130.4066L61.446877 131.42223L55.759377 131.42223Q55.759377 131.04723 55.884377 130.68785Q56.103127 130.10973 56.571877 129.54723Q57.05625 128.98473 57.9625 128.25035Q59.36875 127.0941 59.853127 126.422226Q60.353127 125.75035 60.353127 125.1566Q60.353127 124.5316 59.9 124.109726Q59.446877 123.672226 58.728127 123.672226Q57.9625 123.672226 57.509377 124.12535Q57.05625 124.578476 57.040627 125.390976L55.9625 125.2816Q56.071877 124.06285 56.790627 123.43785Q57.525 122.797226 58.759377 122.797226Q59.99375 122.797226 60.7125 123.484726Q61.43125 124.172226 61.43125 125.18785Q61.43125 125.703476 61.2125 126.203476Q61.009377 126.68785 60.509377 127.25035Q60.025 127.797226 58.9 128.75035Q57.946877 129.54723 57.665627 129.8441Q57.4 130.12535 57.228127 130.4066L61.446877 130.4066ZM62.9 127.18785Q62.9 125.6566 63.2125 124.734726Q63.525 123.797226 64.13438 123.297226Q64.75938 122.797226 65.69688 122.797226Q66.38438 122.797226 66.9 123.078476Q67.43125 123.359726 67.775 123.890976Q68.11875 124.4066 68.30625 125.1566Q68.49375 125.9066 68.49375 127.18785Q68.49375 128.70348 68.18125 129.62535Q67.88438 130.54723 67.25938 131.06285Q66.65 131.56285 65.69688 131.56285Q64.4625 131.56285 63.74375 130.67223Q62.9 129.60973 62.9 127.18785ZM63.978127 127.18785Q63.978127 129.29723 64.47813 130.00035Q64.97813 130.70348 65.69688 130.70348Q66.43125 130.70348 66.91563 130.00035Q67.41563 129.29723 67.41563 127.18785Q67.41563 125.06285 66.91563 124.37535Q66.43125 123.672226 65.68125 123.672226Q64.9625 123.672226 64.525 124.2816Q63.978127 125.06285 63.978127 127.18785Z" fill-rule="nonzero"/><path fill="#000000" d="M61.446877 90.86215L61.446877 91.87778L55.759377 91.87778Q55.759377 91.50278 55.884377 91.1434Q56.103127 90.56528 56.571877 90.00278Q57.05625 89.44028 57.9625 88.7059Q59.36875 87.54965 59.853127 86.87778Q60.353127 86.2059 60.353127 85.61215Q60.353127 84.98715 59.9 84.56528Q59.446877 84.12778 58.728127 84.12778Q57.9625 84.12778 57.509377 84.5809Q57.05625 85.03403 57.040627 85.84653L55.9625 85.73715Q56.071877 84.5184 56.790627 83.8934Q57.525 83.25278 58.759377 83.25278Q59.99375 83.25278 60.7125 83.94028Q61.43125 84.62778 61.43125 85.6434Q61.43125 86.15903 61.2125 86.65903Q61.009377 87.1434 60.509377 87.7059Q60.025 88.25278 58.9 89.2059Q57.946877 90.00278 57.665627 90.29965Q57.4 90.5809 57.228127 90.86215L61.446877 90.86215ZM62.9 89.62778L64.00938 89.53403Q64.13438 90.34653 64.57188 90.75278Q65.025 91.15903 65.66563 91.15903Q66.41563 91.15903 66.94688 90.5809Q67.47813 90.00278 67.47813 89.06528Q67.47813 88.15903 66.9625 87.6434Q66.4625 87.11215 65.63438 87.11215Q65.13438 87.11215 64.7125 87.34653Q64.30625 87.5809 64.07188 87.94028L63.0875 87.81528L63.915627 83.40903L68.19688 83.40903L68.19688 84.40903L64.75938 84.40903L64.30625 86.72153Q65.07188 86.17465 65.91563 86.17465Q67.04063 86.17465 67.80625 86.9559Q68.5875 87.73715 68.5875 88.97153Q68.5875 90.12778 67.91563 90.98715Q67.0875 92.0184 65.66563 92.0184Q64.49375 92.0184 63.74375 91.36215Q63.009377 90.7059 62.9 89.62778Z" fill-rule="nonzero"/><path fill="#000000" d="M55.9 50.067707L56.9625 49.927082Q57.134377 50.817707 57.571877 51.223957Q58.009377 51.614582 58.634377 51.614582Q59.384377 51.614582 59.9 51.098957Q60.415627 50.583332 60.415627 49.817707Q60.415627 49.098957 59.93125 48.630207Q59.4625 48.145832 58.728127 48.145832Q58.43125 48.145832 57.978127 48.270832L58.103127 47.333332Q58.2125 47.348957 58.275 47.348957Q58.946877 47.348957 59.478127 47.005207Q60.025 46.645832 60.025 45.911457Q60.025 45.333332 59.634377 44.958332Q59.24375 44.567707 58.61875 44.567707Q58.009377 44.567707 57.5875 44.958332Q57.18125 45.348957 57.071877 46.114582L56.009377 45.927082Q56.196877 44.880207 56.884377 44.302082Q57.571877 43.708332 58.5875 43.708332Q59.290627 43.708332 59.884377 44.020832Q60.478127 44.317707 60.790627 44.833332Q61.103127 45.348957 61.103127 45.942707Q61.103127 46.489582 60.80625 46.958332Q60.509377 47.411457 59.93125 47.677082Q60.68125 47.848957 61.103127 48.411457Q61.525 48.958332 61.525 49.802082Q61.525 50.927082 60.696877 51.708332Q59.884377 52.489582 58.634377 52.489582Q57.509377 52.489582 56.759377 51.817707Q56.009377 51.130207 55.9 50.067707ZM62.9 48.098957Q62.9 46.567707 63.2125 45.645832Q63.525 44.708332 64.13438 44.208332Q64.75938 43.708332 65.69688 43.708332Q66.38438 43.708332 66.9 43.989582Q67.43125 44.270832 67.775 44.802082Q68.11875 45.317707 68.30625 46.067707Q68.49375 46.817707 68.49375 48.098957Q68.49375 49.614582 68.18125 50.536457Q67.88438 51.458332 67.25938 51.973957Q66.65 52.473957 65.69688 52.473957Q64.4625 52.473957 63.74375 51.583332Q62.9 50.520832 62.9 48.098957ZM63.978127 48.098957Q63.978127 50.208332 64.47813 50.911457Q64.97813 51.614582 65.69688 51.614582Q66.43125 51.614582 66.91563 50.911457Q67.41563 50.208332 67.41563 48.098957Q67.41563 45.973957 66.91563 45.286457Q66.43125 44.583332 65.68125 44.583332Q64.9625 44.583332 64.525 45.192707Q63.978127 45.973957 63.978127 48.098957Z" fill-rule="nonzero"/><path fill="#000000" d="M133.31354 305.83438L134.37604 305.74063Q134.45416 306.39688 134.73541 306.80313Q135.01666 307.20938 135.59479 307.475Q136.18854 307.725 136.92291 307.725Q137.56354 307.725 138.06354 307.5375Q138.56354 307.33438 138.79791 307.00626Q139.04791 306.6625 139.04791 306.27188Q139.04791 305.86563 138.81354 305.56876Q138.57916 305.25626 138.04791 305.05313Q137.68854 304.9125 136.50104 304.63126Q135.32916 304.35 134.86041 304.1Q134.23541 303.77188 133.93854 303.30313Q133.64166 302.81876 133.64166 302.225Q133.64166 301.58438 134.00104 301.02188Q134.37604 300.44376 135.07916 300.1625Q135.79791 299.86563 136.65729 299.86563Q137.61041 299.86563 138.34479 300.17813Q139.07916 300.475 139.46979 301.08438Q139.86041 301.67813 139.89166 302.42813L138.79791 302.50626Q138.70416 301.69376 138.18854 301.2875Q137.68854 300.86563 136.70416 300.86563Q135.67291 300.86563 135.20416 301.24063Q134.73541 301.61563 134.73541 302.14688Q134.73541 302.61563 135.06354 302.9125Q135.39166 303.20938 136.76666 303.52188Q138.15729 303.83438 138.67291 304.06876Q139.42291 304.42813 139.78229 304.95938Q140.14166 305.475 140.14166 306.17813Q140.14166 306.86563 139.75104 307.475Q139.36041 308.06876 138.62604 308.4125Q137.89166 308.74063 136.96979 308.74063Q135.79791 308.74063 135.00104 308.4125Q134.21979 308.06876 133.76666 307.38126Q133.32916 306.69376 133.31354 305.83438ZM141.56354 310.99063L141.56354 302.38126L142.51666 302.38126L142.51666 303.17813Q142.86041 302.70938 143.28229 302.475Q143.71979 302.24063 144.32916 302.24063Q145.12604 302.24063 145.73541 302.64688Q146.34479 303.05313 146.64166 303.80313Q146.95416 304.55313 146.95416 305.44376Q146.95416 306.39688 146.61041 307.1625Q146.28229 307.92813 145.62604 308.33438Q144.96979 308.74063 144.25104 308.74063Q143.71979 308.74063 143.29791 308.52188Q142.87604 308.2875 142.61041 307.95938L142.61041 310.99063L141.56354 310.99063ZM142.51666 305.52188Q142.51666 306.725 143.00104 307.30313Q143.48541 307.86563 144.17291 307.86563Q144.87604 307.86563 145.37604 307.27188Q145.87604 306.67813 145.87604 305.42813Q145.87604 304.24063 145.39166 303.6625Q144.90729 303.06876 144.21979 303.06876Q143.54791 303.06876 143.03229 303.69376Q142.51666 304.31876 142.51666 305.52188ZM148.54791 308.6L148.54791 302.38126L149.50104 302.38126L149.50104 303.31876Q149.86041 302.6625 150.15729 302.45938Q150.46979 302.24063 150.84479 302.24063Q151.37604 302.24063 151.92291 302.56876L151.56354 303.55313Q151.17291 303.31876 150.79791 303.31876Q150.43854 303.31876 150.15729 303.5375Q149.89166 303.74063 149.78229 304.11563Q149.59479 304.67813 149.59479 305.33438L149.59479 308.6L148.54791 308.6ZM152.56354 301.225L152.56354 300.00626L153.62604 300.00626L153.62604 301.225L152.56354 301.225ZM152.56354 308.6L152.56354 302.38126L153.62604 302.38126L153.62604 308.6L152.56354 308.6ZM155.56354 308.6L155.56354 302.38126L156.50104 302.38126L156.50104 303.25626Q157.18854 302.24063 158.48541 302.24063Q159.04791 302.24063 159.51666 302.44376Q160.00104 302.64688 160.23541 302.975Q160.46979 303.30313 160.56354 303.74063Q160.61041 304.0375 160.61041 304.77188L160.61041 308.6L159.56354 308.6L159.56354 304.81876Q159.56354 304.1625 159.43854 303.85Q159.31354 303.5375 159.00104 303.35Q158.68854 303.14688 158.26666 303.14688Q157.59479 303.14688 157.09479 303.58438Q156.61041 304.00626 156.61041 305.19376L156.61041 308.6L155.56354 308.6ZM164.86041 307.6625L165.01666 308.58438Q164.56354 308.67813 164.21979 308.67813Q163.64166 308.67813 163.32916 308.50626Q163.01666 308.31876 162.87604 308.02188Q162.75104 307.725 162.75104 306.77188L162.75104 303.19376L161.98541 303.19376L161.98541 302.38126L162.75104 302.38126L162.75104 300.83438L163.79791 300.20938L163.79791 302.38126L164.86041 302.38126L164.86041 303.19376L163.79791 303.19376L163.79791 306.83438Q163.79791 307.2875 163.84479 307.4125Q163.90729 307.5375 164.03229 307.61563Q164.15729 307.69376 164.39166 307.69376Q164.57916 307.69376 164.86041 307.6625ZM168.42291 306.61563L169.43854 306.52188Q169.56354 307.24063 169.92291 307.56876Q170.29791 307.88126 170.86041 307.88126Q171.34479 307.88126 171.70416 307.6625Q172.07916 307.42813 172.31354 307.06876Q172.54791 306.69376 172.70416 306.06876Q172.86041 305.42813 172.86041 304.77188Q172.86041 304.69376 172.86041 304.55313Q172.54791 305.05313 172.00104 305.38126Q171.45416 305.69376 170.81354 305.69376Q169.73541 305.69376 169.00104 304.92813Q168.26666 304.14688 168.26666 302.88126Q168.26666 301.56876 169.03229 300.77188Q169.81354 299.975 170.96979 299.975Q171.79791 299.975 172.48541 300.42813Q173.18854 300.88126 173.54791 301.725Q173.90729 302.55313 173.90729 304.13126Q173.90729 305.77188 173.54791 306.75626Q173.20416 307.725 172.48541 308.24063Q171.78229 308.74063 170.84479 308.74063Q169.82916 308.74063 169.18854 308.19376Q168.54791 307.63126 168.42291 306.61563ZM172.73541 302.81876Q172.73541 301.9125 172.25104 301.38126Q171.78229 300.85 171.09479 300.85Q170.39166 300.85 169.86041 301.42813Q169.34479 301.99063 169.34479 302.9125Q169.34479 303.725 169.84479 304.24063Q170.34479 304.75626 171.06354 304.75626Q171.79791 304.75626 172.26666 304.24063Q172.73541 303.725 172.73541 302.81876Z" fill-rule="nonzero"/><path fill="#000000" d="M274.54688 305.83438L275.60938 305.74063Q275.6875 306.39688 275.96875 306.80313Q276.25 307.20938 276.82812 307.475Q277.42188 307.725 278.15625 307.725Q278.79688 307.725 279.29688 307.5375Q279.79688 307.33438 280.03125 307.00626Q280.28125 306.6625 280.28125 306.27188Q280.28125 305.86563 280.04688 305.56876Q279.8125 305.25626 279.28125 305.05313Q278.92188 304.9125 277.73438 304.63126Q276.5625 304.35 276.09375 304.1Q275.46875 303.77188 275.17188 303.30313Q274.875 302.81876 274.875 302.225Q274.875 301.58438 275.23438 301.02188Q275.60938 300.44376 276.3125 300.1625Q277.03125 299.86563 277.89062 299.86563Q278.84375 299.86563 279.57812 300.17813Q280.3125 300.475 280.70312 301.08438Q281.09375 301.67813 281.125 302.42813L280.03125 302.50626Q279.9375 301.69376 279.42188 301.2875Q278.92188 300.86563 277.9375 300.86563Q276.90625 300.86563 276.4375 301.24063Q275.96875 301.61563 275.96875 302.14688Q275.96875 302.61563 276.29688 302.9125Q276.625 303.20938 278.0 303.52188Q279.39062 303.83438 279.90625 304.06876Q280.65625 304.42813 281.01562 304.95938Q281.375 305.475 281.375 306.17813Q281.375 306.86563 280.98438 307.475Q280.59375 308.06876 279.85938 308.4125Q279.125 308.74063 278.20312 308.74063Q277.03125 308.74063 276.23438 308.4125Q275.45312 308.06876 275.0 307.38126Q274.5625 306.69376 274.54688 305.83438ZM282.79688 310.99063L282.79688 302.38126L283.75 302.38126L283.75 303.17813Q284.09375 302.70938 284.51562 302.475Q284.95312 302.24063 285.5625 302.24063Q286.35938 302.24063 286.96875 302.64688Q287.57812 303.05313 287.875 303.80313Q288.1875 304.55313 288.1875 305.44376Q288.1875 306.39688 287.84375 307.1625Q287.51562 307.92813 286.85938 308.33438Q286.20312 308.74063 285.48438 308.74063Q284.95312 308.74063 284.53125 308.52188Q284.10938 308.2875 283.84375 307.95938L283.84375 310.99063L282.79688 310.99063ZM283.75 305.52188Q283.75 306.725 284.23438 307.30313Q284.71875 307.86563 285.40625 307.86563Q286.10938 307.86563 286.60938 307.27188Q287.10938 306.67813 287.10938 305.42813Q287.10938 304.24063 286.625 303.6625Q286.14062 303.06876 285.45312 303.06876Q284.78125 303.06876 284.26562 303.69376Q283.75 304.31876 283.75 305.52188ZM289.78125 308.6L289.78125 302.38126L290.73438 302.38126L290.73438 303.31876Q291.09375 302.6625 291.39062 302.45938Q291.70312 302.24063 292.07812 302.24063Q292.60938 302.24063 293.15625 302.56876L292.79688 303.55313Q292.40625 303.31876 292.03125 303.31876Q291.67188 303.31876 291.39062 303.5375Q291.125 303.74063 291.01562 304.11563Q290.82812 304.67813 290.82812 305.33438L290.82812 308.6L289.78125 308.6ZM293.79688 301.225L293.79688 300.00626L294.85938 300.00626L294.85938 301.225L293.79688 301.225ZM293.79688 308.6L293.79688 302.38126L294.85938 302.38126L294.85938 308.6L293.79688 308.6ZM296.79688 308.6L296.79688 302.38126L297.73438 302.38126L297.73438 303.25626Q298.42188 302.24063 299.71875 302.24063Q300.28125 302.24063 300.75 302.44376Q301.23438 302.64688 301.46875 302.975Q301.70312 303.30313 301.79688 303.74063Q301.84375 304.0375 301.84375 304.77188L301.84375 308.6L300.79688 308.6L300.79688 304.81876Q300.79688 304.1625 300.67188 303.85Q300.54688 303.5375 300.23438 303.35Q299.92188 303.14688 299.5 303.14688Q298.82812 303.14688 298.32812 303.58438Q297.84375 304.00626 297.84375 305.19376L297.84375 308.6L296.79688 308.6ZM306.09375 307.6625L306.25 308.58438Q305.79688 308.67813 305.45312 308.67813Q304.875 308.67813 304.5625 308.50626Q304.25 308.31876 304.10938 308.02188Q303.98438 307.725 303.98438 306.77188L303.98438 303.19376L303.21875 303.19376L303.21875 302.38126L303.98438 302.38126L303.98438 300.83438L305.03125 300.20938L305.03125 302.38126L306.09375 302.38126L306.09375 303.19376L305.03125 303.19376L305.03125 306.83438Q305.03125 307.2875 305.07812 307.4125Q305.14062 307.5375 305.26562 307.61563Q305.39062 307.69376 305.625 307.69376Q305.8125 307.69376 306.09375 307.6625ZM313.46875 308.6L312.42188 308.6L312.42188 301.88126Q312.03125 302.24063 311.40625 302.61563Q310.79688 302.975 310.3125 303.14688L310.3125 302.13126Q311.1875 301.70938 311.84375 301.13126Q312.51562 300.5375 312.79688 299.975L313.46875 299.975L313.46875 308.6ZM316.5 304.36563Q316.5 302.83438 316.8125 301.9125Q317.125 300.975 317.73438 300.475Q318.35938 299.975 319.29688 299.975Q319.98438 299.975 320.5 300.25626Q321.03125 300.5375 321.375 301.06876Q321.71875 301.58438 321.90625 302.33438Q322.09375 303.08438 322.09375 304.36563Q322.09375 305.88126 321.78125 306.80313Q321.48438 307.725 320.85938 308.24063Q320.25 308.74063 319.29688 308.74063Q318.0625 308.74063 317.34375 307.85Q316.5 306.7875 316.5 304.36563ZM317.57812 304.36563Q317.57812 306.475 318.07812 307.17813Q318.57812 307.88126 319.29688 307.88126Q320.03125 307.88126 320.51562 307.17813Q321.01562 306.475 321.01562 304.36563Q321.01562 302.24063 320.51562 301.55313Q320.03125 300.85 319.28125 300.85Q318.5625 300.85 318.125 301.45938Q317.57812 302.24063 317.57812 304.36563Z" fill-rule="nonzero"/><path fill="#000000" d="M419.2802 305.83438L420.3427 305.74063Q420.42084 306.39688 420.7021 306.80313Q420.98334 307.20938 421.56146 307.475Q422.1552 307.725 422.8896 307.725Q423.5302 307.725 424.0302 307.5375Q424.5302 307.33438 424.7646 307.00626Q425.0146 306.6625 425.0146 306.27188Q425.0146 305.86563 424.7802 305.56876Q424.54584 305.25626 424.0146 305.05313Q423.6552 304.9125 422.4677 304.63126Q421.29584 304.35 420.8271 304.1Q420.2021 303.77188 419.9052 303.30313Q419.60834 302.81876 419.60834 302.225Q419.60834 301.58438 419.9677 301.02188Q420.3427 300.44376 421.04584 300.1625Q421.7646 299.86563 422.62396 299.86563Q423.5771 299.86563 424.31146 300.17813Q425.04584 300.475 425.43646 301.08438Q425.8271 301.67813 425.85834 302.42813L424.7646 302.50626Q424.67084 301.69376 424.1552 301.2875Q423.6552 300.86563 422.67084 300.86563Q421.6396 300.86563 421.17084 301.24063Q420.7021 301.61563 420.7021 302.14688Q420.7021 302.61563 421.0302 302.9125Q421.35834 303.20938 422.73334 303.52188Q424.12396 303.83438 424.6396 304.06876Q425.3896 304.42813 425.74896 304.95938Q426.10834 305.475 426.10834 306.17813Q426.10834 306.86563 425.7177 307.475Q425.3271 308.06876 424.5927 308.4125Q423.85834 308.74063 422.93646 308.74063Q421.7646 308.74063 420.9677 308.4125Q420.18646 308.06876 419.73334 307.38126Q419.29584 306.69376 419.2802 305.83438ZM427.5302 310.99063L427.5302 302.38126L428.48334 302.38126L428.48334 303.17813Q428.8271 302.70938 429.24896 302.475Q429.68646 302.24063 430.29584 302.24063Q431.0927 302.24063 431.7021 302.64688Q432.31146 303.05313 432.60834 303.80313Q432.92084 304.55313 432.92084 305.44376Q432.92084 306.39688 432.5771 307.1625Q432.24896 307.92813 431.5927 308.33438Q430.93646 308.74063 430.2177 308.74063Q429.68646 308.74063 429.2646 308.52188Q428.8427 308.2875 428.5771 307.95938L428.5771 310.99063L427.5302 310.99063ZM428.48334 305.52188Q428.48334 306.725 428.9677 307.30313Q429.4521 307.86563 430.1396 307.86563Q430.8427 307.86563 431.3427 307.27188Q431.8427 306.67813 431.8427 305.42813Q431.8427 304.24063 431.35834 303.6625Q430.87396 303.06876 430.18646 303.06876Q429.5146 303.06876 428.99896 303.69376Q428.48334 304.31876 428.48334 305.52188ZM434.5146 308.6L434.5146 302.38126L435.4677 302.38126L435.4677 303.31876Q435.8271 302.6625 436.12396 302.45938Q436.43646 302.24063 436.81146 302.24063Q437.3427 302.24063 437.8896 302.56876L437.5302 303.55313Q437.1396 303.31876 436.7646 303.31876Q436.4052 303.31876 436.12396 303.5375Q435.85834 303.74063 435.74896 304.11563Q435.56146 304.67813 435.56146 305.33438L435.56146 308.6L434.5146 308.6ZM438.5302 301.225L438.5302 300.00626L439.5927 300.00626L439.5927 301.225L438.5302 301.225ZM438.5302 308.6L438.5302 302.38126L439.5927 302.38126L439.5927 308.6L438.5302 308.6ZM441.5302 308.6L441.5302 302.38126L442.4677 302.38126L442.4677 303.25626Q443.1552 302.24063 444.4521 302.24063Q445.0146 302.24063 445.48334 302.44376Q445.9677 302.64688 446.2021 302.975Q446.43646 303.30313 446.5302 303.74063Q446.5771 304.0375 446.5771 304.77188L446.5771 308.6L445.5302 308.6L445.5302 304.81876Q445.5302 304.1625 445.4052 303.85Q445.2802 303.5375 444.9677 303.35Q444.6552 303.14688 444.23334 303.14688Q443.56146 303.14688 443.06146 303.58438Q442.5771 304.00626 442.5771 305.19376L442.5771 308.6L441.5302 308.6ZM450.8271 307.6625L450.98334 308.58438Q450.5302 308.67813 450.18646 308.67813Q449.60834 308.67813 449.29584 308.50626Q448.98334 308.31876 448.8427 308.02188Q448.7177 307.725 448.7177 306.77188L448.7177 303.19376L447.9521 303.19376L447.9521 302.38126L448.7177 302.38126L448.7177 300.83438L449.7646 300.20938L449.7646 302.38126L450.8271 302.38126L450.8271 303.19376L449.7646 303.19376L449.7646 306.83438Q449.7646 307.2875 449.81146 307.4125Q449.87396 307.5375 449.99896 307.61563Q450.12396 307.69376 450.35834 307.69376Q450.54584 307.69376 450.8271 307.6625ZM458.2021 308.6L457.1552 308.6L457.1552 301.88126Q456.7646 302.24063 456.1396 302.61563Q455.5302 302.975 455.04584 303.14688L455.04584 302.13126Q455.92084 301.70938 456.5771 301.13126Q457.24896 300.5375 457.5302 299.975L458.2021 299.975L458.2021 308.6ZM465.2021 308.6L464.1552 308.6L464.1552 301.88126Q463.7646 302.24063 463.1396 302.61563Q462.5302 302.975 462.04584 303.14688L462.04584 302.13126Q462.92084 301.70938 463.5771 301.13126Q464.24896 300.5375 464.5302 299.975L465.2021 299.975L465.2021 308.6Z" fill-rule="nonzero"/><path fill="#4285f4" d="M138.5 23.4C138.5 26.713709 135.8137 29.4 132.5 29.4C129.1863 29.4 126.5 26.713709 126.5 23.4C126.5 20.086292 129.1863 17.4 132.5 17.4C135.8137 17.4 138.5 20.086292 138.5 23.4Z" fill-rule="nonzero"/><path fill="#1a1a1a" d="M149.875 27.4L146.54688 18.80625L147.78125 18.80625L150.01562 25.05625Q150.28125 25.80625 150.46875 26.4625Q150.67188 25.759375 150.9375 25.05625L153.25 18.80625L154.40625 18.80625L151.04688 27.4L149.875 27.4ZM158.35938 26.634375Q157.76562 27.134375 157.21875 27.3375Q156.6875 27.540625 156.0625 27.540625Q155.03125 27.540625 154.48438 27.040625Q153.9375 26.540625 153.9375 25.759375Q153.9375 25.30625 154.14062 24.93125Q154.34375 24.540625 154.6875 24.321875Q155.03125 24.0875 155.45312 23.978125Q155.75 23.884375 156.39062 23.80625Q157.65625 23.665625 158.26562 23.446875Q158.26562 23.228125 158.26562 23.18125Q158.26562 22.525 157.96875 22.259375Q157.5625 21.915625 156.76562 21.915625Q156.03125 21.915625 155.67188 22.18125Q155.3125 22.43125 155.14062 23.0875L154.10938 22.946875Q154.25 22.290625 154.57812 21.884375Q154.90625 21.478125 155.51562 21.259375Q156.125 21.040625 156.92188 21.040625Q157.71875 21.040625 158.21875 21.228125Q158.71875 21.415625 158.95312 21.696875Q159.1875 21.978125 159.28125 22.415625Q159.32812 22.68125 159.32812 23.384375L159.32812 24.790625Q159.32812 26.259375 159.39062 26.65Q159.46875 27.040625 159.67188 27.4L158.5625 27.4Q158.40625 27.071875 158.35938 26.634375ZM158.26562 24.275Q157.6875 24.509375 156.54688 24.68125Q155.89062 24.775 155.625 24.9Q155.35938 25.009375 155.20312 25.228125Q155.0625 25.446875 155.0625 25.728125Q155.0625 26.15 155.375 26.43125Q155.70312 26.7125 156.3125 26.7125Q156.92188 26.7125 157.39062 26.446875Q157.875 26.18125 158.09375 25.7125Q158.26562 25.353125 158.26562 24.665625L158.26562 24.275ZM161.26562 27.4L161.26562 18.80625L162.32812 18.80625L162.32812 27.4L161.26562 27.4ZM163.90625 24.290625Q163.90625 22.55625 164.85938 21.728125Q165.65625 21.040625 166.8125 21.040625Q168.09375 21.040625 168.90625 21.884375Q169.73438 22.7125 169.73438 24.196875Q169.73438 25.4 169.375 26.0875Q169.01562 26.775 168.3125 27.165625Q167.625 27.540625 166.8125 27.540625Q165.51562 27.540625 164.70312 26.7125Q163.90625 25.86875 163.90625 24.290625ZM164.98438 24.290625Q164.98438 25.478125 165.5 26.071875Q166.03125 26.665625 166.8125 26.665625Q167.60938 26.665625 168.125 26.071875Q168.64062 25.478125 168.64062 24.259375Q168.64062 23.103125 168.10938 22.509375Q167.59375 21.915625 166.8125 21.915625Q166.03125 21.915625 165.5 22.509375Q164.98438 23.0875 164.98438 24.290625ZM171.28125 27.4L171.28125 21.18125L172.23438 21.18125L172.23438 22.11875Q172.59375 21.4625 172.89062 21.259375Q173.20312 21.040625 173.57812 21.040625Q174.10938 21.040625 174.65625 21.36875L174.29688 22.353125Q173.90625 22.11875 173.53125 22.11875Q173.17188 22.11875 172.89062 22.3375Q172.625 22.540625 172.51562 22.915625Q172.32812 23.478125 172.32812 24.134375L172.32812 27.4L171.28125 27.4ZM179.54688 25.4L180.64062 25.525Q180.39062 26.478125 179.6875 27.009375Q178.98438 27.540625 177.90625 27.540625Q176.54688 27.540625 175.73438 26.696875Q174.9375 25.853125 174.9375 24.3375Q174.9375 22.775 175.75 21.915625Q176.5625 21.040625 177.84375 21.040625Q179.09375 21.040625 179.875 21.884375Q180.67188 22.728125 180.67188 24.275Q180.67188 24.36875 180.67188 24.55625L176.03125 24.55625Q176.09375 25.5875 176.60938 26.134375Q177.125 26.665625 177.90625 26.665625Q178.48438 26.665625 178.89062 26.36875Q179.3125 26.05625 179.54688 25.4ZM176.09375 23.696875L179.5625 23.696875Q179.5 22.9 179.17188 22.509375Q178.65625 21.9 177.85938 21.9Q177.125 21.9 176.625 22.384375Q176.14062 22.86875 176.09375 23.696875ZM184.90625 24.290625Q184.90625 22.55625 185.85938 21.728125Q186.65625 21.040625 187.8125 21.040625Q189.09375 21.040625 189.90625 21.884375Q190.73438 22.7125 190.73438 24.196875Q190.73438 25.4 190.375 26.0875Q190.01562 26.775 189.3125 27.165625Q188.625 27.540625 187.8125 27.540625Q186.51562 27.540625 185.70312 26.7125Q184.90625 25.86875 184.90625 24.290625ZM185.98438 24.290625Q185.98438 25.478125 186.5 26.071875Q187.03125 26.665625 187.8125 26.665625Q188.60938 26.665625 189.125 26.071875Q189.64062 25.478125 189.64062 24.259375Q189.64062 23.103125 189.10938 22.509375Q188.59375 21.915625 187.8125 21.915625Q187.03125 21.915625 186.5 22.509375Q185.98438 23.0875 185.98438 24.290625ZM194.59375 26.4625L194.75 27.384375Q194.29688 27.478125 193.95312 27.478125Q193.375 27.478125 193.0625 27.30625Q192.75 27.11875 192.60938 26.821875Q192.48438 26.525 192.48438 25.571875L192.48438 21.99375L191.71875 21.99375L191.71875 21.18125L192.48438 21.18125L192.48438 19.634375L193.53125 19.009375L193.53125 21.18125L194.59375 21.18125L194.59375 21.99375L193.53125 21.99375L193.53125 25.634375Q193.53125 26.0875 193.57812 26.2125Q193.64062 26.3375 193.76562 26.415625Q193.89062 26.49375 194.125 26.49375Q194.3125 26.49375 194.59375 26.4625ZM197.59375 26.4625L197.75 27.384375Q197.29688 27.478125 196.95312 27.478125Q196.375 27.478125 196.0625 27.30625Q195.75 27.11875 195.60938 26.821875Q195.48438 26.525 195.48438 25.571875L195.48438 21.99375L194.71875 21.99375L194.71875 21.18125L195.48438 21.18125L195.48438 19.634375L196.53125 19.009375L196.53125 21.18125L197.59375 21.18125L197.59375 21.99375L196.53125 21.99375L196.53125 25.634375Q196.53125 26.0875 196.57812 26.2125Q196.64062 26.3375 196.76562 26.415625Q196.89062 26.49375 197.125 26.49375Q197.3125 26.49375 197.59375 26.4625ZM198.29688 20.025L198.29688 18.80625L199.35938 18.80625L199.35938 20.025L198.29688 20.025ZM198.29688 27.4L198.29688 21.18125L199.35938 21.18125L199.35938 27.4L198.29688 27.4ZM201.29688 27.4L201.29688 21.18125L202.23438 21.18125L202.23438 22.05625Q202.53125 21.5875 203.01562 21.321875Q203.5 21.040625 204.125 21.040625Q204.8125 21.040625 205.25 21.321875Q205.70312 21.603125 205.875 22.11875Q206.625 21.040625 207.79688 21.040625Q208.73438 21.040625 209.21875 21.55625Q209.71875 22.05625 209.71875 23.134375L209.71875 27.4L208.67188 27.4L208.67188 23.478125Q208.67188 22.853125 208.5625 22.571875Q208.46875 22.290625 208.20312 22.11875Q207.9375 21.946875 207.5625 21.946875Q206.90625 21.946875 206.46875 22.384375Q206.04688 22.821875 206.04688 23.790625L206.04688 27.4L204.98438 27.4L204.98438 23.353125Q204.98438 22.65 204.71875 22.30625Q204.46875 21.946875 203.89062 21.946875Q203.4375 21.946875 203.0625 22.18125Q202.6875 22.415625 202.51562 22.86875Q202.34375 23.321875 202.34375 24.165625L202.34375 27.4L201.29688 27.4ZM211.90625 24.290625Q211.90625 22.55625 212.85938 21.728125Q213.65625 21.040625 214.8125 21.040625Q216.09375 21.040625 216.90625 21.884375Q217.73438 22.7125 217.73438 24.196875Q217.73438 25.4 217.375 26.0875Q217.01562 26.775 216.3125 27.165625Q215.625 27.540625 214.8125 27.540625Q213.51562 27.540625 212.70312 26.7125Q211.90625 25.86875 211.90625 24.290625ZM212.98438 24.290625Q212.98438 25.478125 213.5 26.071875Q214.03125 26.665625 214.8125 26.665625Q215.60938 26.665625 216.125 26.071875Q216.64062 25.478125 216.64062 24.259375Q216.64062 23.103125 216.10938 22.509375Q215.59375 21.915625 214.8125 21.915625Q214.03125 21.915625 213.5 22.509375Q212.98438 23.0875 212.98438 24.290625Z" fill-rule="nonzero"/><path fill="#ea4335" d="M246.5 23.4C246.5 26.713709 243.8137 29.4 240.5 29.4C237.1863 29.4 234.5 26.713709 234.5 23.4C234.5 20.086292 237.1863 17.4 240.5 17.4C243.8137 17.4 246.5 20.086292 246.5 23.4Z" fill-rule="nonzero"/><path fill="#1a1a1a" d="M261.5625 24.384375L262.6875 24.68125Q262.32812 26.071875 261.40625 26.80625Q260.48438 27.540625 259.14062 27.540625Q257.75 27.540625 256.875 26.978125Q256.0 26.415625 255.54688 25.353125Q255.09375 24.275 255.09375 23.040625Q255.09375 21.696875 255.60938 20.696875Q256.125 19.696875 257.0625 19.18125Q258.01562 18.665625 259.15625 18.665625Q260.4375 18.665625 261.3125 19.321875Q262.20312 19.978125 262.54688 21.165625L261.42188 21.43125Q261.125 20.49375 260.54688 20.071875Q259.98438 19.634375 259.125 19.634375Q258.14062 19.634375 257.46875 20.11875Q256.8125 20.5875 256.53125 21.384375Q256.26562 22.18125 256.26562 23.040625Q256.26562 24.134375 256.57812 24.946875Q256.90625 25.759375 257.57812 26.165625Q258.25 26.571875 259.04688 26.571875Q260.0 26.571875 260.65625 26.025Q261.32812 25.478125 261.5625 24.384375ZM270.5625 24.384375L271.6875 24.68125Q271.32812 26.071875 270.40625 26.80625Q269.48438 27.540625 268.14062 27.540625Q266.75 27.540625 265.875 26.978125Q265.0 26.415625 264.54688 25.353125Q264.09375 24.275 264.09375 23.040625Q264.09375 21.696875 264.60938 20.696875Q265.125 19.696875 266.0625 19.18125Q267.01562 18.665625 268.15625 18.665625Q269.4375 18.665625 270.3125 19.321875Q271.20312 19.978125 271.54688 21.165625L270.42188 21.43125Q270.125 20.49375 269.54688 20.071875Q268.98438 19.634375 268.125 19.634375Q267.14062 19.634375 266.46875 20.11875Q265.8125 20.5875 265.53125 21.384375Q265.26562 22.18125 265.26562 23.040625Q265.26562 24.134375 265.57812 24.946875Q265.90625 25.759375 266.57812 26.165625Q267.25 26.571875 268.04688 26.571875Q269.0 26.571875 269.65625 26.025Q270.32812 25.478125 270.5625 24.384375Z" fill-rule="nonzero"/><path fill="#fbbc04" d="M300.5 23.4C300.5 26.713709 297.81372 29.4 294.5 29.4C291.18628 29.4 288.5 26.713709 288.5 23.4C288.5 20.086292 291.18628 17.4 294.5 17.4C297.81372 17.4 300.5 20.086292 300.5 23.4Z" fill-rule="nonzero"/><path fill="#1a1a1a" d="M311.875 27.4L308.54688 18.80625L309.78125 18.80625L312.01562 25.05625Q312.28125 25.80625 312.46875 26.4625Q312.67188 25.759375 312.9375 25.05625L315.25 18.80625L316.40625 18.80625L313.04688 27.4L311.875 27.4ZM320.35938 26.634375Q319.76562 27.134375 319.21875 27.3375Q318.6875 27.540625 318.0625 27.540625Q317.03125 27.540625 316.48438 27.040625Q315.9375 26.540625 315.9375 25.759375Q315.9375 25.30625 316.14062 24.93125Q316.34375 24.540625 316.6875 24.321875Q317.03125 24.0875 317.45312 23.978125Q317.75 23.884375 318.39062 23.80625Q319.65625 23.665625 320.26562 23.446875Q320.26562 23.228125 320.26562 23.18125Q320.26562 22.525 319.96875 22.259375Q319.5625 21.915625 318.76562 21.915625Q318.03125 21.915625 317.67188 22.18125Q317.3125 22.43125 317.14062 23.0875L316.10938 22.946875Q316.25 22.290625 316.57812 21.884375Q316.90625 21.478125 317.51562 21.259375Q318.125 21.040625 318.92188 21.040625Q319.71875 21.040625 320.21875 21.228125Q320.71875 21.415625 320.95312 21.696875Q321.1875 21.978125 321.28125 22.415625Q321.32812 22.68125 321.32812 23.384375L321.32812 24.790625Q321.32812 26.259375 321.39062 26.65Q321.46875 27.040625 321.67188 27.4L320.5625 27.4Q320.40625 27.071875 320.35938 26.634375ZM320.26562 24.275Q319.6875 24.509375 318.54688 24.68125Q317.89062 24.775 317.625 24.9Q317.35938 25.009375 317.20312 25.228125Q317.0625 25.446875 317.0625 25.728125Q317.0625 26.15 317.375 26.43125Q317.70312 26.7125 318.3125 26.7125Q318.92188 26.7125 319.39062 26.446875Q319.875 26.18125 320.09375 25.7125Q320.26562 25.353125 320.26562 24.665625L320.26562 24.275ZM323.26562 27.4L323.26562 18.80625L324.32812 18.80625L324.32812 27.4L323.26562 27.4ZM325.90625 24.290625Q325.90625 22.55625 326.85938 21.728125Q327.65625 21.040625 328.8125 21.040625Q330.09375 21.040625 330.90625 21.884375Q331.73438 22.7125 331.73438 24.196875Q331.73438 25.4 331.375 26.0875Q331.01562 26.775 330.3125 27.165625Q329.625 27.540625 328.8125 27.540625Q327.51562 27.540625 326.70312 26.7125Q325.90625 25.86875 325.90625 24.290625ZM326.98438 24.290625Q326.98438 25.478125 327.5 26.071875Q328.03125 26.665625 328.8125 26.665625Q329.60938 26.665625 330.125 26.071875Q330.64062 25.478125 330.64062 24.259375Q330.64062 23.103125 330.10938 22.509375Q329.59375 21.915625 328.8125 21.915625Q328.03125 21.915625 327.5 22.509375Q326.98438 23.0875 326.98438 24.290625ZM333.28125 27.4L333.28125 21.18125L334.23438 21.18125L334.23438 22.11875Q334.59375 21.4625 334.89062 21.259375Q335.20312 21.040625 335.57812 21.040625Q336.10938 21.040625 336.65625 21.36875L336.29688 22.353125Q335.90625 22.11875 335.53125 22.11875Q335.17188 22.11875 334.89062 22.3375Q334.625 22.540625 334.51562 22.915625Q334.32812 23.478125 334.32812 24.134375L334.32812 27.4L333.28125 27.4ZM341.54688 25.4L342.64062 25.525Q342.39062 26.478125 341.6875 27.009375Q340.98438 27.540625 339.90625 27.540625Q338.54688 27.540625 337.73438 26.696875Q336.9375 25.853125 336.9375 24.3375Q336.9375 22.775 337.75 21.915625Q338.5625 21.040625 339.84375 21.040625Q341.09375 21.040625 341.875 21.884375Q342.67188 22.728125 342.67188 24.275Q342.67188 24.36875 342.67188 24.55625L338.03125 24.55625Q338.09375 25.5875 338.60938 26.134375Q339.125 26.665625 339.90625 26.665625Q340.48438 26.665625 340.89062 26.36875Q341.3125 26.05625 341.54688 25.4ZM338.09375 23.696875L341.5625 23.696875Q341.5 22.9 341.17188 22.509375Q340.65625 21.9 339.85938 21.9Q339.125 21.9 338.625 22.384375Q338.14062 22.86875 338.09375 23.696875ZM351.35938 26.634375Q350.76562 27.134375 350.21875 27.3375Q349.6875 27.540625 349.0625 27.540625Q348.03125 27.540625 347.48438 27.040625Q346.9375 26.540625 346.9375 25.759375Q346.9375 25.30625 347.14062 24.93125Q347.34375 24.540625 347.6875 24.321875Q348.03125 24.0875 348.45312 23.978125Q348.75 23.884375 349.39062 23.80625Q350.65625 23.665625 351.26562 23.446875Q351.26562 23.228125 351.26562 23.18125Q351.26562 22.525 350.96875 22.259375Q350.5625 21.915625 349.76562 21.915625Q349.03125 21.915625 348.67188 22.18125Q348.3125 22.43125 348.14062 23.0875L347.10938 22.946875Q347.25 22.290625 347.57812 21.884375Q347.90625 21.478125 348.51562 21.259375Q349.125 21.040625 349.92188 21.040625Q350.71875 21.040625 351.21875 21.228125Q351.71875 21.415625 351.95312 21.696875Q352.1875 21.978125 352.28125 22.415625Q352.32812 22.68125 352.32812 23.384375L352.32812 24.790625Q352.32812 26.259375 352.39062 26.65Q352.46875 27.040625 352.67188 27.4L351.5625 27.4Q351.40625 27.071875 351.35938 26.634375ZM351.26562 24.275Q350.6875 24.509375 349.54688 24.68125Q348.89062 24.775 348.625 24.9Q348.35938 25.009375 348.20312 25.228125Q348.0625 25.446875 348.0625 25.728125Q348.0625 26.15 348.375 26.43125Q348.70312 26.7125 349.3125 26.7125Q349.92188 26.7125 350.39062 26.446875Q350.875 26.18125 351.09375 25.7125Q351.26562 25.353125 351.26562 24.665625L351.26562 24.275ZM358.35938 25.11875L359.39062 25.259375Q359.21875 26.321875 358.51562 26.93125Q357.8125 27.540625 356.79688 27.540625Q355.51562 27.540625 354.73438 26.7125Q353.96875 25.86875 353.96875 24.30625Q353.96875 23.30625 354.29688 22.55625Q354.64062 21.790625 355.3125 21.415625Q356.0 21.040625 356.8125 21.040625Q357.8125 21.040625 358.45312 21.55625Q359.10938 22.05625 359.29688 23.009375L358.26562 23.165625Q358.125 22.540625 357.75 22.228125Q357.375 21.9 356.84375 21.9Q356.04688 21.9 355.54688 22.478125Q355.04688 23.040625 355.04688 24.275Q355.04688 25.540625 355.53125 26.103125Q356.01562 26.665625 356.78125 26.665625Q357.40625 26.665625 357.8125 26.290625Q358.23438 25.915625 358.35938 25.11875ZM364.35938 25.11875L365.39062 25.259375Q365.21875 26.321875 364.51562 26.93125Q363.8125 27.540625 362.79688 27.540625Q361.51562 27.540625 360.73438 26.7125Q359.96875 25.86875 359.96875 24.30625Q359.96875 23.30625 360.29688 22.55625Q360.64062 21.790625 361.3125 21.415625Q362.0 21.040625 362.8125 21.040625Q363.8125 21.040625 364.45312 21.55625Q365.10938 22.05625 365.29688 23.009375L364.26562 23.165625Q364.125 22.540625 363.75 22.228125Q363.375 21.9 362.84375 21.9Q362.04688 21.9 361.54688 22.478125Q361.04688 23.040625 361.04688 24.275Q361.04688 25.540625 361.53125 26.103125Q362.01562 26.665625 362.78125 26.665625Q363.40625 26.665625 363.8125 26.290625Q364.23438 25.915625 364.35938 25.11875ZM370.54688 25.4L371.64062 25.525Q371.39062 26.478125 370.6875 27.009375Q369.98438 27.540625 368.90625 27.540625Q367.54688 27.540625 366.73438 26.696875Q365.9375 25.853125 365.9375 24.3375Q365.9375 22.775 366.75 21.915625Q367.5625 21.040625 368.84375 21.040625Q370.09375 21.040625 370.875 21.884375Q371.67188 22.728125 371.67188 24.275Q371.67188 24.36875 371.67188 24.55625L367.03125 24.55625Q367.09375 25.5875 367.60938 26.134375Q368.125 26.665625 368.90625 26.665625Q369.48438 26.665625 369.89062 26.36875Q370.3125 26.05625 370.54688 25.4ZM367.09375 23.696875L370.5625 23.696875Q370.5 22.9 370.17188 22.509375Q369.65625 21.9 368.85938 21.9Q368.125 21.9 367.625 22.384375Q367.14062 22.86875 367.09375 23.696875ZM375.59375 26.4625L375.75 27.384375Q375.29688 27.478125 374.95312 27.478125Q374.375 27.478125 374.0625 27.30625Q373.75 27.11875 373.60938 26.821875Q373.48438 26.525 373.48438 25.571875L373.48438 21.99375L372.71875 21.99375L372.71875 21.18125L373.48438 21.18125L373.48438 19.634375L374.53125 19.009375L374.53125 21.18125L375.59375 21.18125L375.59375 21.99375L374.53125 21.99375L374.53125 25.634375Q374.53125 26.0875 374.57812 26.2125Q374.64062 26.3375 374.76562 26.415625Q374.89062 26.49375 375.125 26.49375Q375.3125 26.49375 375.59375 26.4625ZM378.59375 26.4625L378.75 27.384375Q378.29688 27.478125 377.95312 27.478125Q377.375 27.478125 377.0625 27.30625Q376.75 27.11875 376.60938 26.821875Q376.48438 26.525 376.48438 25.571875L376.48438 21.99375L375.71875 21.99375L375.71875 21.18125L376.48438 21.18125L376.48438 19.634375L377.53125 19.009375L377.53125 21.18125L378.59375 21.18125L378.59375 21.99375L377.53125 21.99375L377.53125 25.634375Q377.53125 26.0875 377.57812 26.2125Q377.64062 26.3375 377.76562 26.415625Q377.89062 26.49375 378.125 26.49375Q378.3125 26.49375 378.59375 26.4625ZM383.35938 26.634375Q382.76562 27.134375 382.21875 27.3375Q381.6875 27.540625 381.0625 27.540625Q380.03125 27.540625 379.48438 27.040625Q378.9375 26.540625 378.9375 25.759375Q378.9375 25.30625 379.14062 24.93125Q379.34375 24.540625 379.6875 24.321875Q380.03125 24.0875 380.45312 23.978125Q380.75 23.884375 381.39062 23.80625Q382.65625 23.665625 383.26562 23.446875Q383.26562 23.228125 383.26562 23.18125Q383.26562 22.525 382.96875 22.259375Q382.5625 21.915625 381.76562 21.915625Q381.03125 21.915625 380.67188 22.18125Q380.3125 22.43125 380.14062 23.0875L379.10938 22.946875Q379.25 22.290625 379.57812 21.884375Q379.90625 21.478125 380.51562 21.259375Q381.125 21.040625 381.92188 21.040625Q382.71875 21.040625 383.21875 21.228125Q383.71875 21.415625 383.95312 21.696875Q384.1875 21.978125 384.28125 22.415625Q384.32812 22.68125 384.32812 23.384375L384.32812 24.790625Q384.32812 26.259375 384.39062 26.65Q384.46875 27.040625 384.67188 27.4L383.5625 27.4Q383.40625 27.071875 383.35938 26.634375ZM383.26562 24.275Q382.6875 24.509375 381.54688 24.68125Q380.89062 24.775 380.625 24.9Q380.35938 25.009375 380.20312 25.228125Q380.0625 25.446875 380.0625 25.728125Q380.0625 26.15 380.375 26.43125Q380.70312 26.7125 381.3125 26.7125Q381.92188 26.7125 382.39062 26.446875Q382.875 26.18125 383.09375 25.7125Q383.26562 25.353125 383.26562 24.665625L383.26562 24.275ZM387.26562 27.4L386.28125 27.4L386.28125 18.80625L387.34375 18.80625L387.34375 21.86875Q388.01562 21.040625 389.04688 21.040625Q389.625 21.040625 390.125 21.275Q390.64062 21.49375 390.96875 21.915625Q391.3125 22.3375 391.5 22.93125Q391.6875 23.525 391.6875 24.196875Q391.6875 25.790625 390.89062 26.665625Q390.09375 27.540625 389.0 27.540625Q387.89062 27.540625 387.26562 26.61875L387.26562 27.4ZM387.25 24.24375Q387.25 25.353125 387.5625 25.853125Q388.0625 26.665625 388.90625 26.665625Q389.59375 26.665625 390.09375 26.071875Q390.60938 25.478125 390.60938 24.275Q390.60938 23.05625 390.125 22.478125Q389.64062 21.9 388.95312 21.9Q388.26562 21.9 387.75 22.509375Q387.25 23.103125 387.25 24.24375ZM393.29688 20.025L393.29688 18.80625L394.35938 18.80625L394.35938 20.025L393.29688 20.025ZM393.29688 27.4L393.29688 21.18125L394.35938 21.18125L394.35938 27.4L393.29688 27.4ZM396.26562 27.4L396.26562 18.80625L397.32812 18.80625L397.32812 27.4L396.26562 27.4ZM403.54688 25.4L404.64062 25.525Q404.39062 26.478125 403.6875 27.009375Q402.98438 27.540625 401.90625 27.540625Q400.54688 27.540625 399.73438 26.696875Q398.9375 25.853125 398.9375 24.3375Q398.9375 22.775 399.75 21.915625Q400.5625 21.040625 401.84375 21.040625Q403.09375 21.040625 403.875 21.884375Q404.67188 22.728125 404.67188 24.275Q404.67188 24.36875 404.67188 24.55625L400.03125 24.55625Q400.09375 25.5875 400.60938 26.134375Q401.125 26.665625 401.90625 26.665625Q402.48438 26.665625 402.89062 26.36875Q403.3125 26.05625 403.54688 25.4ZM400.09375 23.696875L403.5625 23.696875Q403.5 22.9 403.17188 22.509375Q402.65625 21.9 401.85938 21.9Q401.125 21.9 400.625 22.384375Q400.14062 22.86875 400.09375 23.696875Z" fill-rule="nonzero"/></svg>