<svg version="1.1" viewBox="0.0 0.0 532.0 328.0" fill="none" stroke="none" stroke-linecap="square" stroke-miterlimit="10" width="532" height="328" xmlns:xlink="http://www.w3.org/1999/xlink" xmlns="http://www.w3.org/2000/svg"><path fill="#ffffff" d="M0 0L532.0 0L532.0 328.0L0 328.0L0 0Z" fill-rule="nonzero"/><path stroke="#333333" stroke-width="1.0" stroke-linecap="butt" d="M81.5 285.5L515.5 285.5" fill-rule="nonzero"/><path stroke="#cccccc" stroke-width="1.0" stroke-linecap="butt" d="M81.5 238.5L515.5 238.5" fill-rule="nonzero"/><path stroke="#cccccc" stroke-width="1.0" stroke-linecap="butt" d="M81.5 190.5L515.5 190.5" fill-rule="nonzero"/><path stroke="#cccccc" stroke-width="1.0" stroke-linecap="butt" d="M81.5 143.5L515.5 143.5" fill-rule="nonzero"/><path stroke="#cccccc" stroke-width="1.0" stroke-linecap="butt" d="M81.5 95.5L515.5 95.5" fill-rule="nonzero"/><path stroke="#cccccc" stroke-width="1.0" stroke-linecap="butt" d="M81.5 48.5L515.5 48.5" fill-rule="nonzero"/><path stroke="#000000" stroke-width="1.0" stroke-linecap="butt" d="M515.5 285.5L81.5 285.5" fill-rule="nonzero"/><path stroke="#000000" stroke-width="1.0" stroke-linecap="butt" d="M81.5 285.5L81.5 48.5" fill-rule="nonzero"/><clipPath id="id_0"><path d="M81.4 48.333332L515.6 48.333332L515.6 285.6L81.4 285.6L81.4 48.333332Z" clip-rule="nonzero"/></clipPath><path stroke="#4285f4" stroke-width="4.0" stroke-linecap="butt" stroke-opacity="0.5019608" clip-path="url(#id_0)" d="M153.76666 48.333332C153.76666 48.333332 250.25555 48.333332 298.5 48.333332C346.74445 48.333332 443.23334 48.333332 443.23334 48.333332" fill-rule="nonzero"/><path stroke="#ea4335" stroke-width="2.0" stroke-linecap="butt" stroke-opacity="0.9019608" clip-path="url(#id_0)" d="M153.76666 285.6C153.76666 285.6 250.25555 228.26056 298.5 190.69333C346.74445 153.12611 443.23334 60.196667 443.23334 60.196667" fill-rule="nonzero"/><path stroke="#fbbc04" stroke-width="2.0" stroke-linecap="butt" stroke-opacity="0.5019608" clip-path="url(#id_0)" d="M153.76666 119.513336C153.76666 119.513336 250.25555 119.513336 298.5 119.513336C346.74445 119.513336 443.23334 119.513336 443.23334 119.513336" fill-rule="nonzero"/><path fill="#4285f4" fill-opacity="0.5019608" clip-path="url(#id_0)" d="M157.26666 48.333332C157.26666 50.26633 155.69966 51.833332 153.76666 51.833332C151.83366 51.833332 150.26666 50.26633 150.26666 48.333332C150.26666 46.400337 151.83366 44.833332 153.76666 44.833332C155.69966 44.833332 157.26666 46.400337 157.26666 48.333332Z" fill-rule="nonzero"/><path fill="#4285f4" fill-opacity="0.5019608" clip-path="url(#id_0)" d="M302.0 48.333332C302.0 50.26633 300.43298 51.833332 298.5 51.833332C296.56702 51.833332 295.0 50.26633 295.0 48.333332C295.0 46.400337 296.56702 44.833332 298.5 44.833332C300.43298 44.833332 302.0 46.400337 302.0 48.333332Z" fill-rule="nonzero"/><path fill="#4285f4" fill-opacity="0.5019608" clip-path="url(#id_0)" d="M446.73334 48.333332C446.73334 50.26633 445.16632 51.833332 443.23334 51.833332C441.30032 51.833332 439.73334 50.26633 439.73334 48.333332C439.73334 46.400337 441.30032 44.833332 443.23334 44.833332C445.16632 44.833332 446.73334 46.400337 446.73334 48.333332Z" fill-rule="nonzero"/><path fill="#ea4335" fill-opacity="0.9019608" clip-path="url(#id_0)" d="M157.26666 285.6C157.26666 287.533 155.69966 289.1 153.76666 289.1C151.83366 289.1 150.26666 287.533 150.26666 285.6C150.26666 283.667 151.83366 282.1 153.76666 282.1C155.69966 282.1 157.26666 283.667 157.26666 285.6Z" fill-rule="nonzero"/><path fill="#ea4335" fill-opacity="0.9019608" clip-path="url(#id_0)" d="M302.0 190.69333C302.0 192.62633 300.43298 194.19333 298.5 194.19333C296.56702 194.19333 295.0 192.62633 295.0 190.69333C295.0 188.76033 296.56702 187.19333 298.5 187.19333C300.43298 187.19333 302.0 188.76033 302.0 190.69333Z" fill-rule="nonzero"/><path fill="#ea4335" fill-opacity="0.9019608" clip-path="url(#id_0)" d="M446.73334 60.196667C446.73334 62.12966 445.16632 63.696667 443.23334 63.696667C441.30032 63.696667 439.73334 62.12966 439.73334 60.196667C439.73334 58.26367 441.30032 56.696667 443.23334 56.696667C445.16632 56.696667 446.73334 58.26367 446.73334 60.196667Z" fill-rule="nonzero"/><path fill="#fbbc04" fill-opacity="0.5019608" clip-path="url(#id_0)" d="M157.26666 119.513336C157.26666 121.44633 155.69966 123.013336 153.76666 123.013336C151.83366 123.013336 150.26666 121.44633 150.26666 119.513336C150.26666 117.58034 151.83366 116.013336 153.76666 116.013336C155.69966 116.013336 157.26666 117.58034 157.26666 119.513336Z" fill-rule="nonzero"/><path fill="#fbbc04" fill-opacity="0.5019608" clip-path="url(#id_0)" d="M302.0 119.513336C302.0 121.44633 300.43298 123.013336 298.5 123.013336C296.56702 123.013336 295.0 121.44633 295.0 119.513336C295.0 117.58034 296.56702 116.013336 298.5 116.013336C300.43298 116.013336 302.0 117.58034 302.0 119.513336Z" fill-rule="nonzero"/><path fill="#fbbc04" fill-opacity="0.5019608" clip-path="url(#id_0)" d="M446.73334 119.513336C446.73334 121.44633 445.16632 123.013336 443.23334 123.013336C441.30032 123.013336 439.73334 121.44633 439.73334 119.513336C439.73334 117.58034 441.30032 116.013336 443.23334 116.013336C445.16632 116.013336 446.73334 117.58034 446.73334 119.513336Z" fill-rule="nonzero"/><path stroke="#000000" stroke-width="1.0" stroke-linecap="butt" d="M153.5 291.5L153.5 279.5" fill-rule="nonzero"/><path stroke="#000000" stroke-width="1.0" stroke-linecap="butt" d="M298.5 291.5L298.5 279.5" fill-rule="nonzero"/><path stroke="#000000" stroke-width="1.0" stroke-linecap="butt" d="M443.5 291.5L443.5 279.5" fill-rule="nonzero"/><path stroke="#000000" stroke-width="1.0" stroke-linecap="butt" d="M75.5 285.5L87.5 285.5" fill-rule="nonzero"/><path stroke="#000000" stroke-width="1.0" stroke-linecap="butt" d="M75.5 238.5L87.5 238.5" fill-rule="nonzero"/><path stroke="#000000" stroke-width="1.0" stroke-linecap="butt" d="M75.5 190.5L87.5 190.5" fill-rule="nonzero"/><path stroke="#000000" stroke-width="1.0" stroke-linecap="butt" d="M75.5 143.5L87.5 143.5" fill-rule="nonzero"/><path stroke="#000000" stroke-width="1.0" stroke-linecap="butt" d="M75.5 95.5L87.5 95.5" fill-rule="nonzero"/><path stroke="#000000" stroke-width="1.0" stroke-linecap="butt" d="M75.5 48.5L87.5 48.5" fill-rule="nonzero"/><path fill="#000000" d="M62.9 285.36563Q62.9 283.83438 63.2125 282.9125Q63.525 281.975 64.13438 281.475Q64.75938 280.975 65.69688 280.975Q66.38438 280.975 66.9 281.25626Q67.43125 281.5375 67.775 282.06876Q68.11875 282.58438 68.30625 283.33438Q68.49375 284.08438 68.49375 285.36563Q68.49375 286.88126 68.18125 287.80313Q67.88438 288.725 67.25938 289.24063Q66.65 289.74063 65.69688 289.74063Q64.4625 289.74063 63.74375 288.85Q62.9 287.7875 62.9 285.36563ZM63.978127 285.36563Q63.978127 287.475 64.47813 288.17813Q64.97813 288.88126 65.69688 288.88126Q66.43125 288.88126 66.91563 288.17813Q67.41563 287.475 67.41563 285.36563Q67.41563 283.24063 66.91563 282.55313Q66.43125 281.85 65.68125 281.85Q64.9625 281.85 64.525 282.45938Q63.978127 283.24063 63.978127 285.36563Z" fill-rule="nonzero"/><path fill="#000000" d="M61.446877 241.13104L61.446877 242.14667L55.759377 242.14667Q55.759377 241.77167 55.884377 241.4123Q56.103127 240.83417 56.571877 240.27167Q57.05625 239.70917 57.9625 238.9748Q59.36875 237.81854 59.853127 237.14667Q60.353127 236.4748 60.353127 235.88104Q60.353127 235.25604 59.9 234.83417Q59.446877 234.39667 58.728127 234.39667Q57.9625 234.39667 57.509377 234.8498Q57.05625 235.30292 57.040627 236.11542L55.9625 236.00604Q56.071877 234.7873 56.790627 234.1623Q57.525 233.52167 58.759377 233.52167Q59.99375 233.52167 60.7125 234.20917Q61.43125 234.89667 61.43125 235.9123Q61.43125 236.42792 61.2125 236.92792Q61.009377 237.4123 60.509377 237.9748Q60.025 238.52167 58.9 239.4748Q57.946877 240.27167 57.665627 240.56854Q57.4 240.8498 57.228127 241.13104L61.446877 241.13104ZM62.9 237.9123Q62.9 236.38104 63.2125 235.45917Q63.525 234.52167 64.13438 234.02167Q64.75938 233.52167 65.69688 233.52167Q66.38438 233.52167 66.9 233.80292Q67.43125 234.08417 67.775 234.61542Q68.11875 235.13104 68.30625 235.88104Q68.49375 236.63104 68.49375 237.9123Q68.49375 239.42792 68.18125 240.3498Q67.88438 241.27167 67.25938 241.7873Q66.65 242.2873 65.69688 242.2873Q64.4625 242.2873 63.74375 241.39667Q62.9 240.33417 62.9 237.9123ZM63.978127 237.9123Q63.978127 240.02167 64.47813 240.7248Q64.97813 241.42792 65.69688 241.42792Q66.43125 241.42792 66.91563 240.7248Q67.41563 240.02167 67.41563 237.9123Q67.41563 235.7873 66.91563 235.0998Q66.43125 234.39667 65.68125 234.39667Q64.9625 234.39667 64.525 235.00604Q63.978127 235.7873 63.978127 237.9123Z" fill-rule="nonzero"/><path fill="#000000" d="M59.275 194.69333L59.275 192.63083L55.55625 192.63083L55.55625 191.66208L59.478127 186.09958L60.3375 186.09958L60.3375 191.66208L61.49375 191.66208L61.49375 192.63083L60.3375 192.63083L60.3375 194.69333L59.275 194.69333ZM59.275 191.66208L59.275 187.8027L56.5875 191.66208L59.275 191.66208ZM62.9 190.45895Q62.9 188.9277 63.2125 188.00583Q63.525 187.06833 64.13438 186.56833Q64.75938 186.06833 65.69688 186.06833Q66.38438 186.06833 66.9 186.34958Q67.43125 186.63083 67.775 187.16208Q68.11875 187.6777 68.30625 188.4277Q68.49375 189.1777 68.49375 190.45895Q68.49375 191.97458 68.18125 192.89645Q67.88438 193.81833 67.25938 194.33395Q66.65 194.83395 65.69688 194.83395Q64.4625 194.83395 63.74375 193.94333Q62.9 192.88083 62.9 190.45895ZM63.978127 190.45895Q63.978127 192.56833 64.47813 193.27145Q64.97813 193.97458 65.69688 193.97458Q66.43125 193.97458 66.91563 193.27145Q67.41563 192.56833 67.41563 190.45895Q67.41563 188.33395 66.91563 187.64645Q66.43125 186.94333 65.68125 186.94333Q64.9625 186.94333 64.525 187.5527Q63.978127 188.33395 63.978127 190.45895Z" fill-rule="nonzero"/><path fill="#000000" d="M61.36875 140.75563L60.321877 140.83376Q60.18125 140.20876 59.93125 139.9275Q59.49375 139.47438 58.86875 139.47438Q58.36875 139.47438 57.978127 139.75563Q57.49375 140.13063 57.196877 140.83376Q56.915627 141.52126 56.9 142.8025Q57.275 142.22438 57.821877 141.94313Q58.384377 141.66188 58.99375 141.66188Q60.040627 141.66188 60.775 142.44313Q61.525 143.22438 61.525 144.44313Q61.525 145.25563 61.165627 145.95876Q60.821877 146.64626 60.2125 147.02126Q59.603127 147.38063 58.8375 147.38063Q57.509377 147.38063 56.68125 146.41188Q55.853127 145.44313 55.853127 143.22438Q55.853127 140.72438 56.775 139.59938Q57.571877 138.615 58.93125 138.615Q59.946877 138.615 60.5875 139.19313Q61.24375 139.75563 61.36875 140.75563ZM57.071877 144.45876Q57.071877 145.00563 57.290627 145.50563Q57.525 145.99 57.93125 146.25563Q58.353127 146.52126 58.821877 146.52126Q59.478127 146.52126 59.9625 145.99Q60.446877 145.44313 60.446877 144.52126Q60.446877 143.63063 59.9625 143.115Q59.49375 142.59938 58.775 142.59938Q58.05625 142.59938 57.55625 143.115Q57.071877 143.63063 57.071877 144.45876ZM62.9 143.00563Q62.9 141.47438 63.2125 140.5525Q63.525 139.615 64.13438 139.115Q64.75938 138.615 65.69688 138.615Q66.38438 138.615 66.9 138.89626Q67.43125 139.1775 67.775 139.70876Q68.11875 140.22438 68.30625 140.97438Q68.49375 141.72438 68.49375 143.00563Q68.49375 144.52126 68.18125 145.44313Q67.88438 146.365 67.25938 146.88063Q66.65 147.38063 65.69688 147.38063Q64.4625 147.38063 63.74375 146.49Q62.9 145.4275 62.9 143.00563ZM63.978127 143.00563Q63.978127 145.115 64.47813 145.81813Q64.97813 146.52126 65.69688 146.52126Q66.43125 146.52126 66.91563 145.81813Q67.41563 145.115 67.41563 143.00563Q67.41563 140.88063 66.91563 140.19313Q66.43125 139.49 65.68125 139.49Q64.9625 139.49 64.525 140.09938Q63.978127 140.88063 63.978127 143.00563Z" fill-rule="nonzero"/><path fill="#000000" d="M57.525 95.13042Q56.86875 94.88042 56.540627 94.44292Q56.228127 93.98979 56.228127 93.38042Q56.228127 92.44292 56.9 91.80229Q57.5875 91.16167 58.696877 91.16167Q59.821877 91.16167 60.509377 91.81792Q61.196877 92.47417 61.196877 93.41167Q61.196877 94.00542 60.884377 94.44292Q60.571877 94.88042 59.93125 95.13042Q60.728127 95.38042 61.134377 95.95854Q61.540627 96.53667 61.540627 97.33354Q61.540627 98.42729 60.759377 99.17729Q59.99375 99.92729 58.7125 99.92729Q57.446877 99.92729 56.665627 99.17729Q55.884377 98.42729 55.884377 97.30229Q55.884377 96.45854 56.30625 95.89604Q56.74375 95.33354 57.525 95.13042ZM57.30625 93.33354Q57.30625 93.94292 57.696877 94.33354Q58.103127 94.72417 58.728127 94.72417Q59.3375 94.72417 59.728127 94.34917Q60.11875 93.95854 60.11875 93.39604Q60.11875 92.81792 59.7125 92.42729Q59.30625 92.02104 58.7125 92.02104Q58.103127 92.02104 57.696877 92.41167Q57.30625 92.80229 57.30625 93.33354ZM56.978127 97.30229Q56.978127 97.75542 57.18125 98.17729Q57.4 98.59917 57.821877 98.83354Q58.24375 99.06792 58.728127 99.06792Q59.478127 99.06792 59.9625 98.58354Q60.4625 98.09917 60.4625 97.34917Q60.4625 96.58354 59.9625 96.08354Q59.4625 95.58354 58.696877 95.58354Q57.946877 95.58354 57.4625 96.08354Q56.978127 96.56792 56.978127 97.30229ZM62.9 95.55229Q62.9 94.02104 63.2125 93.09917Q63.525 92.16167 64.13438 91.66167Q64.75938 91.16167 65.69688 91.16167Q66.38438 91.16167 66.9 91.44292Q67.43125 91.72417 67.775 92.25542Q68.11875 92.77104 68.30625 93.52104Q68.49375 94.27104 68.49375 95.55229Q68.49375 97.06792 68.18125 97.98979Q67.88438 98.91167 67.25938 99.42729Q66.65 99.92729 65.69688 99.92729Q64.4625 99.92729 63.74375 99.03667Q62.9 97.97417 62.9 95.55229ZM63.978127 95.55229Q63.978127 97.66167 64.47813 98.36479Q64.97813 99.06792 65.69688 99.06792Q66.43125 99.06792 66.91563 98.36479Q67.41563 97.66167 67.41563 95.55229Q67.41563 93.42729 66.91563 92.73979Q66.43125 92.03667 65.68125 92.03667Q64.9625 92.03667 64.525 92.64604Q63.978127 93.42729 63.978127 95.55229Z" fill-rule="nonzero"/><path fill="#000000" d="M52.86875 52.333332L51.821877 52.333332L51.821877 45.614582Q51.43125 45.973957 50.80625 46.348957Q50.196877 46.708332 49.7125 46.880207L49.7125 45.864582Q50.5875 45.442707 51.24375 44.864582Q51.915627 44.270832 52.196877 43.708332L52.86875 43.708332L52.86875 52.333332ZM55.9 48.098957Q55.9 46.567707 56.2125 45.645832Q56.525 44.708332 57.134377 44.208332Q57.759377 43.708332 58.696877 43.708332Q59.384377 43.708332 59.9 43.989582Q60.43125 44.270832 60.775 44.802082Q61.11875 45.317707 61.30625 46.067707Q61.49375 46.817707 61.49375 48.098957Q61.49375 49.614582 61.18125 50.536457Q60.884377 51.458332 60.259377 51.973957Q59.65 52.473957 58.696877 52.473957Q57.4625 52.473957 56.74375 51.583332Q55.9 50.520832 55.9 48.098957ZM56.978127 48.098957Q56.978127 50.208332 57.478127 50.911457Q57.978127 51.614582 58.696877 51.614582Q59.43125 51.614582 59.915627 50.911457Q60.415627 50.208332 60.415627 48.098957Q60.415627 45.973957 59.915627 45.286457Q59.43125 44.583332 58.68125 44.583332Q57.9625 44.583332 57.525 45.192707Q56.978127 45.973957 56.978127 48.098957ZM62.9 48.098957Q62.9 46.567707 63.2125 45.645832Q63.525 44.708332 64.13438 44.208332Q64.75938 43.708332 65.69688 43.708332Q66.38438 43.708332 66.9 43.989582Q67.43125 44.270832 67.775 44.802082Q68.11875 45.317707 68.30625 46.067707Q68.49375 46.817707 68.49375 48.098957Q68.49375 49.614582 68.18125 50.536457Q67.88438 51.458332 67.25938 51.973957Q66.65 52.473957 65.69688 52.473957Q64.4625 52.473957 63.74375 51.583332Q62.9 50.520832 62.9 48.098957ZM63.978127 48.098957Q63.978127 50.208332 64.47813 50.911457Q64.97813 51.614582 65.69688 51.614582Q66.43125 51.614582 66.91563 50.911457Q67.41563 50.208332 67.41563 48.098957Q67.41563 45.973957 66.91563 45.286457Q66.43125 44.583332 65.68125 44.583332Q64.9625 44.583332 64.525 45.192707Q63.978127 45.973957 63.978127 48.098957Z" fill-rule="nonzero"/><path fill="#000000" d="M133.31354 305.83438L134.37604 305.74063Q134.45416 306.39688 134.73541 306.80313Q135.01666 307.20938 135.59479 307.475Q136.18854 307.725 136.92291 307.725Q137.56354 307.725 138.06354 307.5375Q138.56354 307.33438 138.79791 307.00626Q139.04791 306.6625 139.04791 306.27188Q139.04791 305.86563 138.81354 305.56876Q138.57916 305.25626 138.04791 305.05313Q137.68854 304.9125 136.50104 304.63126Q135.32916 304.35 134.86041 304.1Q134.23541 303.77188 133.93854 303.30313Q133.64166 302.81876 133.64166 302.225Q133.64166 301.58438 134.00104 301.02188Q134.37604 300.44376 135.07916 300.1625Q135.79791 299.86563 136.65729 299.86563Q137.61041 299.86563 138.34479 300.17813Q139.07916 300.475 139.46979 301.08438Q139.86041 301.67813 139.89166 302.42813L138.79791 302.50626Q138.70416 301.69376 138.18854 301.2875Q137.68854 300.86563 136.70416 300.86563Q135.67291 300.86563 135.20416 301.24063Q134.73541 301.61563 134.73541 302.14688Q134.73541 302.61563 135.06354 302.9125Q135.39166 303.20938 136.76666 303.52188Q138.15729 303.83438 138.67291 304.06876Q139.42291 304.42813 139.78229 304.95938Q140.14166 305.475 140.14166 306.17813Q140.14166 306.86563 139.75104 307.475Q139.36041 308.06876 138.62604 308.4125Q137.89166 308.74063 136.96979 308.74063Q135.79791 308.74063 135.00104 308.4125Q134.21979 308.06876 133.76666 307.38126Q133.32916 306.69376 133.31354 305.83438ZM141.56354 310.99063L141.56354 302.38126L142.51666 302.38126L142.51666 303.17813Q142.86041 302.70938 143.28229 302.475Q143.71979 302.24063 144.32916 302.24063Q145.12604 302.24063 145.73541 302.64688Q146.34479 303.05313 146.64166 303.80313Q146.95416 304.55313 146.95416 305.44376Q146.95416 306.39688 146.61041 307.1625Q146.28229 307.92813 145.62604 308.33438Q144.96979 308.74063 144.25104 308.74063Q143.71979 308.74063 143.29791 308.52188Q142.87604 308.2875 142.61041 307.95938L142.61041 310.99063L141.56354 310.99063ZM142.51666 305.52188Q142.51666 306.725 143.00104 307.30313Q143.48541 307.86563 144.17291 307.86563Q144.87604 307.86563 145.37604 307.27188Q145.87604 306.67813 145.87604 305.42813Q145.87604 304.24063 145.39166 303.6625Q144.90729 303.06876 144.21979 303.06876Q143.54791 303.06876 143.03229 303.69376Q142.51666 304.31876 142.51666 305.52188ZM148.54791 308.6L148.54791 302.38126L149.50104 302.38126L149.50104 303.31876Q149.86041 302.6625 150.15729 302.45938Q150.46979 302.24063 150.84479 302.24063Q151.37604 302.24063 151.92291 302.56876L151.56354 303.55313Q151.17291 303.31876 150.79791 303.31876Q150.43854 303.31876 150.15729 303.5375Q149.89166 303.74063 149.78229 304.11563Q149.59479 304.67813 149.59479 305.33438L149.59479 308.6L148.54791 308.6ZM152.56354 301.225L152.56354 300.00626L153.62604 300.00626L153.62604 301.225L152.56354 301.225ZM152.56354 308.6L152.56354 302.38126L153.62604 302.38126L153.62604 308.6L152.56354 308.6ZM155.56354 308.6L155.56354 302.38126L156.50104 302.38126L156.50104 303.25626Q157.18854 302.24063 158.48541 302.24063Q159.04791 302.24063 159.51666 302.44376Q160.00104 302.64688 160.23541 302.975Q160.46979 303.30313 160.56354 303.74063Q160.61041 304.0375 160.61041 304.77188L160.61041 308.6L159.56354 308.6L159.56354 304.81876Q159.56354 304.1625 159.43854 303.85Q159.31354 303.5375 159.00104 303.35Q158.68854 303.14688 158.26666 303.14688Q157.59479 303.14688 157.09479 303.58438Q156.61041 304.00626 156.61041 305.19376L156.61041 308.6L155.56354 308.6ZM164.86041 307.6625L165.01666 308.58438Q164.56354 308.67813 164.21979 308.67813Q163.64166 308.67813 163.32916 308.50626Q163.01666 308.31876 162.87604 308.02188Q162.75104 307.725 162.75104 306.77188L162.75104 303.19376L161.98541 303.19376L161.98541 302.38126L162.75104 302.38126L162.75104 300.83438L163.79791 300.20938L163.79791 302.38126L164.86041 302.38126L164.86041 303.19376L163.79791 303.19376L163.79791 306.83438Q163.79791 307.2875 163.84479 307.4125Q163.90729 307.5375 164.03229 307.61563Q164.15729 307.69376 164.39166 307.69376Q164.57916 307.69376 164.86041 307.6625ZM168.42291 306.61563L169.43854 306.52188Q169.56354 307.24063 169.92291 307.56876Q170.29791 307.88126 170.86041 307.88126Q171.34479 307.88126 171.70416 307.6625Q172.07916 307.42813 172.31354 307.06876Q172.54791 306.69376 172.70416 306.06876Q172.86041 305.42813 172.86041 304.77188Q172.86041 304.69376 172.86041 304.55313Q172.54791 305.05313 172.00104 305.38126Q171.45416 305.69376 170.81354 305.69376Q169.73541 305.69376 169.00104 304.92813Q168.26666 304.14688 168.26666 302.88126Q168.26666 301.56876 169.03229 300.77188Q169.81354 299.975 170.96979 299.975Q171.79791 299.975 172.48541 300.42813Q173.18854 300.88126 173.54791 301.725Q173.90729 302.55313 173.90729 304.13126Q173.90729 305.77188 173.54791 306.75626Q173.20416 307.725 172.48541 308.24063Q171.78229 308.74063 170.84479 308.74063Q169.82916 308.74063 169.18854 308.19376Q168.54791 307.63126 168.42291 306.61563ZM172.73541 302.81876Q172.73541 301.9125 172.25104 301.38126Q171.78229 300.85 171.09479 300.85Q170.39166 300.85 169.86041 301.42813Q169.34479 301.99063 169.34479 302.9125Q169.34479 303.725 169.84479 304.24063Q170.34479 304.75626 171.06354 304.75626Q171.79791 304.75626 172.26666 304.24063Q172.73541 303.725 172.73541 302.81876Z" fill-rule="nonzero"/><path fill="#000000" d="M274.54688 305.83438L275.60938 305.74063Q275.6875 306.39688 275.96875 306.80313Q276.25 307.20938 276.82812 307.475Q277.42188 307.725 278.15625 307.725Q278.79688 307.725 279.29688 307.5375Q279.79688 307.33438 280.03125 307.00626Q280.28125 306.6625 280.28125 306.27188Q280.28125 305.86563 280.04688 305.56876Q279.8125 305.25626 279.28125 305.05313Q278.92188 304.9125 277.73438 304.63126Q276.5625 304.35 276.09375 304.1Q275.46875 303.77188 275.17188 303.30313Q274.875 302.81876 274.875 302.225Q274.875 301.58438 275.23438 301.02188Q275.60938 300.44376 276.3125 300.1625Q277.03125 299.86563 277.89062 299.86563Q278.84375 299.86563 279.57812 300.17813Q280.3125 300.475 280.70312 301.08438Q281.09375 301.67813 281.125 302.42813L280.03125 302.50626Q279.9375 301.69376 279.42188 301.2875Q278.92188 300.86563 277.9375 300.86563Q276.90625 300.86563 276.4375 301.24063Q275.96875 301.61563 275.96875 302.14688Q275.96875 302.61563 276.29688 302.9125Q276.625 303.20938 278.0 303.52188Q279.39062 303.83438 279.90625 304.06876Q280.65625 304.42813 281.01562 304.95938Q281.375 305.475 281.375 306.17813Q281.375 306.86563 280.98438 307.475Q280.59375 308.06876 279.85938 308.4125Q279.125 308.74063 278.20312 308.74063Q277.03125 308.74063 276.23438 308.4125Q275.45312 308.06876 275.0 307.38126Q274.5625 306.69376 274.54688 305.83438ZM282.79688 310.99063L282.79688 302.38126L283.75 302.38126L283.75 303.17813Q284.09375 302.70938 284.51562 302.475Q284.95312 302.24063 285.5625 302.24063Q286.35938 302.24063 286.96875 302.64688Q287.57812 303.05313 287.875 303.80313Q288.1875 304.55313 288.1875 305.44376Q288.1875 306.39688 287.84375 307.1625Q287.51562 307.92813 286.85938 308.33438Q286.20312 308.74063 285.48438 308.74063Q284.95312 308.74063 284.53125 308.52188Q284.10938 308.2875 283.84375 307.95938L283.84375 310.99063L282.79688 310.99063ZM283.75 305.52188Q283.75 306.725 284.23438 307.30313Q284.71875 307.86563 285.40625 307.86563Q286.10938 307.86563 286.60938 307.27188Q287.10938 306.67813 287.10938 305.42813Q287.10938 304.24063 286.625 303.6625Q286.14062 303.06876 285.45312 303.06876Q284.78125 303.06876 284.26562 303.69376Q283.75 304.31876 283.75 305.52188ZM289.78125 308.6L289.78125 302.38126L290.73438 302.38126L290.73438 303.31876Q291.09375 302.6625 291.39062 302.45938Q291.70312 302.24063 292.07812 302.24063Q292.60938 302.24063 293.15625 302.56876L292.79688 303.55313Q292.40625 303.31876 292.03125 303.31876Q291.67188 303.31876 291.39062 303.5375Q291.125 303.74063 291.01562 304.11563Q290.82812 304.67813 290.82812 305.33438L290.82812 308.6L289.78125 308.6ZM293.79688 301.225L293.79688 300.00626L294.85938 300.00626L294.85938 301.225L293.79688 301.225ZM293.79688 308.6L293.79688 302.38126L294.85938 302.38126L294.85938 308.6L293.79688 308.6ZM296.79688 308.6L296.79688 302.38126L297.73438 302.38126L297.73438 303.25626Q298.42188 302.24063 299.71875 302.24063Q300.28125 302.24063 300.75 302.44376Q301.23438 302.64688 301.46875 302.975Q301.70312 303.30313 301.79688 303.74063Q301.84375 304.0375 301.84375 304.77188L301.84375 308.6L300.79688 308.6L300.79688 304.81876Q300.79688 304.1625 300.67188 303.85Q300.54688 303.5375 300.23438 303.35Q299.92188 303.14688 299.5 303.14688Q298.82812 303.14688 298.32812 303.58438Q297.84375 304.00626 297.84375 305.19376L297.84375 308.6L296.79688 308.6ZM306.09375 307.6625L306.25 308.58438Q305.79688 308.67813 305.45312 308.67813Q304.875 308.67813 304.5625 308.50626Q304.25 308.31876 304.10938 308.02188Q303.98438 307.725 303.98438 306.77188L303.98438 303.19376L303.21875 303.19376L303.21875 302.38126L303.98438 302.38126L303.98438 300.83438L305.03125 300.20938L305.03125 302.38126L306.09375 302.38126L306.09375 303.19376L305.03125 303.19376L305.03125 306.83438Q305.03125 307.2875 305.07812 307.4125Q305.14062 307.5375 305.26562 307.61563Q305.39062 307.69376 305.625 307.69376Q305.8125 307.69376 306.09375 307.6625ZM313.46875 308.6L312.42188 308.6L312.42188 301.88126Q312.03125 302.24063 311.40625 302.61563Q310.79688 302.975 310.3125 303.14688L310.3125 302.13126Q311.1875 301.70938 311.84375 301.13126Q312.51562 300.5375 312.79688 299.975L313.46875 299.975L313.46875 308.6ZM316.5 304.36563Q316.5 302.83438 316.8125 301.9125Q317.125 300.975 317.73438 300.475Q318.35938 299.975 319.29688 299.975Q319.98438 299.975 320.5 300.25626Q321.03125 300.5375 321.375 301.06876Q321.71875 301.58438 321.90625 302.33438Q322.09375 303.08438 322.09375 304.36563Q322.09375 305.88126 321.78125 306.80313Q321.48438 307.725 320.85938 308.24063Q320.25 308.74063 319.29688 308.74063Q318.0625 308.74063 317.34375 307.85Q316.5 306.7875 316.5 304.36563ZM317.57812 304.36563Q317.57812 306.475 318.07812 307.17813Q318.57812 307.88126 319.29688 307.88126Q320.03125 307.88126 320.51562 307.17813Q321.01562 306.475 321.01562 304.36563Q321.01562 302.24063 320.51562 301.55313Q320.03125 300.85 319.28125 300.85Q318.5625 300.85 318.125 301.45938Q317.57812 302.24063 317.57812 304.36563Z" fill-rule="nonzero"/><path fill="#000000" d="M419.2802 305.83438L420.3427 305.74063Q420.42084 306.39688 420.7021 306.80313Q420.98334 307.20938 421.56146 307.475Q422.1552 307.725 422.8896 307.725Q423.5302 307.725 424.0302 307.5375Q424.5302 307.33438 424.7646 307.00626Q425.0146 306.6625 425.0146 306.27188Q425.0146 305.86563 424.7802 305.56876Q424.54584 305.25626 424.0146 305.05313Q423.6552 304.9125 422.4677 304.63126Q421.29584 304.35 420.8271 304.1Q420.2021 303.77188 419.9052 303.30313Q419.60834 302.81876 419.60834 302.225Q419.60834 301.58438 419.9677 301.02188Q420.3427 300.44376 421.04584 300.1625Q421.7646 299.86563 422.62396 299.86563Q423.5771 299.86563 424.31146 300.17813Q425.04584 300.475 425.43646 301.08438Q425.8271 301.67813 425.85834 302.42813L424.7646 302.50626Q424.67084 301.69376 424.1552 301.2875Q423.6552 300.86563 422.67084 300.86563Q421.6396 300.86563 421.17084 301.24063Q420.7021 301.61563 420.7021 302.14688Q420.7021 302.61563 421.0302 302.9125Q421.35834 303.20938 422.73334 303.52188Q424.12396 303.83438 424.6396 304.06876Q425.3896 304.42813 425.74896 304.95938Q426.10834 305.475 426.10834 306.17813Q426.10834 306.86563 425.7177 307.475Q425.3271 308.06876 424.5927 308.4125Q423.85834 308.74063 422.93646 308.74063Q421.7646 308.74063 420.9677 308.4125Q420.18646 308.06876 419.73334 307.38126Q419.29584 306.69376 419.2802 305.83438ZM427.5302 310.99063L427.5302 302.38126L428.48334 302.38126L428.48334 303.17813Q428.8271 302.70938 429.24896 302.475Q429.68646 302.24063 430.29584 302.24063Q431.0927 302.24063 431.7021 302.64688Q432.31146 303.05313 432.60834 303.80313Q432.92084 304.55313 432.92084 305.44376Q432.92084 306.39688 432.5771 307.1625Q432.24896 307.92813 431.5927 308.33438Q430.93646 308.74063 430.2177 308.74063Q429.68646 308.74063 429.2646 308.52188Q428.8427 308.2875 428.5771 307.95938L428.5771 310.99063L427.5302 310.99063ZM428.48334 305.52188Q428.48334 306.725 428.9677 307.30313Q429.4521 307.86563 430.1396 307.86563Q430.8427 307.86563 431.3427 307.27188Q431.8427 306.67813 431.8427 305.42813Q431.8427 304.24063 431.35834 303.6625Q430.87396 303.06876 430.18646 303.06876Q429.5146 303.06876 428.99896 303.69376Q428.48334 304.31876 428.48334 305.52188ZM434.5146 308.6L434.5146 302.38126L435.4677 302.38126L435.4677 303.31876Q435.8271 302.6625 436.12396 302.45938Q436.43646 302.24063 436.81146 302.24063Q437.3427 302.24063 437.8896 302.56876L437.5302 303.55313Q437.1396 303.31876 436.7646 303.31876Q436.4052 303.31876 436.12396 303.5375Q435.85834 303.74063 435.74896 304.11563Q435.56146 304.67813 435.56146 305.33438L435.56146 308.6L434.5146 308.6ZM438.5302 301.225L438.5302 300.00626L439.5927 300.00626L439.5927 301.225L438.5302 301.225ZM438.5302 308.6L438.5302 302.38126L439.5927 302.38126L439.5927 308.6L438.5302 308.6ZM441.5302 308.6L441.5302 302.38126L442.4677 302.38126L442.4677 303.25626Q443.1552 302.24063 444.4521 302.24063Q445.0146 302.24063 445.48334 302.44376Q445.9677 302.64688 446.2021 302.975Q446.43646 303.30313 446.5302 303.74063Q446.5771 304.0375 446.5771 304.77188L446.5771 308.6L445.5302 308.6L445.5302 304.81876Q445.5302 304.1625 445.4052 303.85Q445.2802 303.5375 444.9677 303.35Q444.6552 303.14688 444.23334 303.14688Q443.56146 303.14688 443.06146 303.58438Q442.5771 304.00626 442.5771 305.19376L442.5771 308.6L441.5302 308.6ZM450.8271 307.6625L450.98334 308.58438Q450.5302 308.67813 450.18646 308.67813Q449.60834 308.67813 449.29584 308.50626Q448.98334 308.31876 448.8427 308.02188Q448.7177 307.725 448.7177 306.77188L448.7177 303.19376L447.9521 303.19376L447.9521 302.38126L448.7177 302.38126L448.7177 300.83438L449.7646 300.20938L449.7646 302.38126L450.8271 302.38126L450.8271 303.19376L449.7646 303.19376L449.7646 306.83438Q449.7646 307.2875 449.81146 307.4125Q449.87396 307.5375 449.99896 307.61563Q450.12396 307.69376 450.35834 307.69376Q450.54584 307.69376 450.8271 307.6625ZM458.2021 308.6L457.1552 308.6L457.1552 301.88126Q456.7646 302.24063 456.1396 302.61563Q455.5302 302.975 455.04584 303.14688L455.04584 302.13126Q455.92084 301.70938 456.5771 301.13126Q457.24896 300.5375 457.5302 299.975L458.2021 299.975L458.2021 308.6ZM465.2021 308.6L464.1552 308.6L464.1552 301.88126Q463.7646 302.24063 463.1396 302.61563Q462.5302 302.975 462.04584 303.14688L462.04584 302.13126Q462.92084 301.70938 463.5771 301.13126Q464.24896 300.5375 464.5302 299.975L465.2021 299.975L465.2021 308.6Z" fill-rule="nonzero"/><path fill="#4285f4" fill-opacity="0.5019608" d="M134.0 23.4C134.0 26.713709 131.3137 29.4 128.0 29.4C124.686295 29.4 122.0 26.713709 122.0 23.4C122.0 20.086292 124.686295 17.4 128.0 17.4C131.3137 17.4 134.0 20.086292 134.0 23.4Z" fill-rule="nonzero"/><path fill="#1a1a1a" d="M145.375 27.4L142.04688 18.80625L143.28125 18.80625L145.51562 25.05625Q145.78125 25.80625 145.96875 26.4625Q146.17188 25.759375 146.4375 25.05625L148.75 18.80625L149.90625 18.80625L146.54688 27.4L145.375 27.4ZM153.85938 26.634375Q153.26562 27.134375 152.71875 27.3375Q152.1875 27.540625 151.5625 27.540625Q150.53125 27.540625 149.98438 27.040625Q149.4375 26.540625 149.4375 25.759375Q149.4375 25.30625 149.64062 24.93125Q149.84375 24.540625 150.1875 24.321875Q150.53125 24.0875 150.95312 23.978125Q151.25 23.884375 151.89062 23.80625Q153.15625 23.665625 153.76562 23.446875Q153.76562 23.228125 153.76562 23.18125Q153.76562 22.525 153.46875 22.259375Q153.0625 21.915625 152.26562 21.915625Q151.53125 21.915625 151.17188 22.18125Q150.8125 22.43125 150.64062 23.0875L149.60938 22.946875Q149.75 22.290625 150.07812 21.884375Q150.40625 21.478125 151.01562 21.259375Q151.625 21.040625 152.42188 21.040625Q153.21875 21.040625 153.71875 21.228125Q154.21875 21.415625 154.45312 21.696875Q154.6875 21.978125 154.78125 22.415625Q154.82812 22.68125 154.82812 23.384375L154.82812 24.790625Q154.82812 26.259375 154.89062 26.65Q154.96875 27.040625 155.17188 27.4L154.0625 27.4Q153.90625 27.071875 153.85938 26.634375ZM153.76562 24.275Q153.1875 24.509375 152.04688 24.68125Q151.39062 24.775 151.125 24.9Q150.85938 25.009375 150.70312 25.228125Q150.5625 25.446875 150.5625 25.728125Q150.5625 26.15 150.875 26.43125Q151.20312 26.7125 151.8125 26.7125Q152.42188 26.7125 152.89062 26.446875Q153.375 26.18125 153.59375 25.7125Q153.76562 25.353125 153.76562 24.665625L153.76562 24.275ZM156.76562 27.4L156.76562 18.80625L157.82812 18.80625L157.82812 27.4L156.76562 27.4ZM159.40625 24.290625Q159.40625 22.55625 160.35938 21.728125Q161.15625 21.040625 162.3125 21.040625Q163.59375 21.040625 164.40625 21.884375Q165.23438 22.7125 165.23438 24.196875Q165.23438 25.4 164.875 26.0875Q164.51562 26.775 163.8125 27.165625Q163.125 27.540625 162.3125 27.540625Q161.01562 27.540625 160.20312 26.7125Q159.40625 25.86875 159.40625 24.290625ZM160.48438 24.290625Q160.48438 25.478125 161.0 26.071875Q161.53125 26.665625 162.3125 26.665625Q163.10938 26.665625 163.625 26.071875Q164.14062 25.478125 164.14062 24.259375Q164.14062 23.103125 163.60938 22.509375Q163.09375 21.915625 162.3125 21.915625Q161.53125 21.915625 161.0 22.509375Q160.48438 23.0875 160.48438 24.290625ZM166.78125 27.4L166.78125 21.18125L167.73438 21.18125L167.73438 22.11875Q168.09375 21.4625 168.39062 21.259375Q168.70312 21.040625 169.07812 21.040625Q169.60938 21.040625 170.15625 21.36875L169.79688 22.353125Q169.40625 22.11875 169.03125 22.11875Q168.67188 22.11875 168.39062 22.3375Q168.125 22.540625 168.01562 22.915625Q167.82812 23.478125 167.82812 24.134375L167.82812 27.4L166.78125 27.4ZM175.04688 25.4L176.14062 25.525Q175.89062 26.478125 175.1875 27.009375Q174.48438 27.540625 173.40625 27.540625Q172.04688 27.540625 171.23438 26.696875Q170.4375 25.853125 170.4375 24.3375Q170.4375 22.775 171.25 21.915625Q172.0625 21.040625 173.34375 21.040625Q174.59375 21.040625 175.375 21.884375Q176.17188 22.728125 176.17188 24.275Q176.17188 24.36875 176.17188 24.55625L171.53125 24.55625Q171.59375 25.5875 172.10938 26.134375Q172.625 26.665625 173.40625 26.665625Q173.98438 26.665625 174.39062 26.36875Q174.8125 26.05625 175.04688 25.4ZM171.59375 23.696875L175.0625 23.696875Q175.0 22.9 174.67188 22.509375Q174.15625 21.9 173.35938 21.9Q172.625 21.9 172.125 22.384375Q171.64062 22.86875 171.59375 23.696875ZM180.40625 24.290625Q180.40625 22.55625 181.35938 21.728125Q182.15625 21.040625 183.3125 21.040625Q184.59375 21.040625 185.40625 21.884375Q186.23438 22.7125 186.23438 24.196875Q186.23438 25.4 185.875 26.0875Q185.51562 26.775 184.8125 27.165625Q184.125 27.540625 183.3125 27.540625Q182.01562 27.540625 181.20312 26.7125Q180.40625 25.86875 180.40625 24.290625ZM181.48438 24.290625Q181.48438 25.478125 182.0 26.071875Q182.53125 26.665625 183.3125 26.665625Q184.10938 26.665625 184.625 26.071875Q185.14062 25.478125 185.14062 24.259375Q185.14062 23.103125 184.60938 22.509375Q184.09375 21.915625 183.3125 21.915625Q182.53125 21.915625 182.0 22.509375Q181.48438 23.0875 181.48438 24.290625ZM190.09375 26.4625L190.25 27.384375Q189.79688 27.478125 189.45312 27.478125Q188.875 27.478125 188.5625 27.30625Q188.25 27.11875 188.10938 26.821875Q187.98438 26.525 187.98438 25.571875L187.98438 21.99375L187.21875 21.99375L187.21875 21.18125L187.98438 21.18125L187.98438 19.634375L189.03125 19.009375L189.03125 21.18125L190.09375 21.18125L190.09375 21.99375L189.03125 21.99375L189.03125 25.634375Q189.03125 26.0875 189.07812 26.2125Q189.14062 26.3375 189.26562 26.415625Q189.39062 26.49375 189.625 26.49375Q189.8125 26.49375 190.09375 26.4625ZM193.09375 26.4625L193.25 27.384375Q192.79688 27.478125 192.45312 27.478125Q191.875 27.478125 191.5625 27.30625Q191.25 27.11875 191.10938 26.821875Q190.98438 26.525 190.98438 25.571875L190.98438 21.99375L190.21875 21.99375L190.21875 21.18125L190.98438 21.18125L190.98438 19.634375L192.03125 19.009375L192.03125 21.18125L193.09375 21.18125L193.09375 21.99375L192.03125 21.99375L192.03125 25.634375Q192.03125 26.0875 192.07812 26.2125Q192.14062 26.3375 192.26562 26.415625Q192.39062 26.49375 192.625 26.49375Q192.8125 26.49375 193.09375 26.4625ZM193.79688 20.025L193.79688 18.80625L194.85938 18.80625L194.85938 20.025L193.79688 20.025ZM193.79688 27.4L193.79688 21.18125L194.85938 21.18125L194.85938 27.4L193.79688 27.4ZM196.79688 27.4L196.79688 21.18125L197.73438 21.18125L197.73438 22.05625Q198.03125 21.5875 198.51562 21.321875Q199.0 21.040625 199.625 21.040625Q200.3125 21.040625 200.75 21.321875Q201.20312 21.603125 201.375 22.11875Q202.125 21.040625 203.29688 21.040625Q204.23438 21.040625 204.71875 21.55625Q205.21875 22.05625 205.21875 23.134375L205.21875 27.4L204.17188 27.4L204.17188 23.478125Q204.17188 22.853125 204.0625 22.571875Q203.96875 22.290625 203.70312 22.11875Q203.4375 21.946875 203.0625 21.946875Q202.40625 21.946875 201.96875 22.384375Q201.54688 22.821875 201.54688 23.790625L201.54688 27.4L200.48438 27.4L200.48438 23.353125Q200.48438 22.65 200.21875 22.30625Q199.96875 21.946875 199.39062 21.946875Q198.9375 21.946875 198.5625 22.18125Q198.1875 22.415625 198.01562 22.86875Q197.84375 23.321875 197.84375 24.165625L197.84375 27.4L196.79688 27.4ZM207.40625 24.290625Q207.40625 22.55625 208.35938 21.728125Q209.15625 21.040625 210.3125 21.040625Q211.59375 21.040625 212.40625 21.884375Q213.23438 22.7125 213.23438 24.196875Q213.23438 25.4 212.875 26.0875Q212.51562 26.775 211.8125 27.165625Q211.125 27.540625 210.3125 27.540625Q209.01562 27.540625 208.20312 26.7125Q207.40625 25.86875 207.40625 24.290625ZM208.48438 24.290625Q208.48438 25.478125 209.0 26.071875Q209.53125 26.665625 210.3125 26.665625Q211.10938 26.665625 211.625 26.071875Q212.14062 25.478125 212.14062 24.259375Q212.14062 23.103125 211.60938 22.509375Q211.09375 21.915625 210.3125 21.915625Q209.53125 21.915625 209.0 22.509375Q208.48438 23.0875 208.48438 24.290625Z" fill-rule="nonzero"/><path fill="#ea4335" fill-opacity="0.9019608" d="M242.0 23.4C242.0 26.713709 239.3137 29.4 236.0 29.4C232.6863 29.4 230.0 26.713709 230.0 23.4C230.0 20.086292 232.6863 17.4 236.0 17.4C239.3137 17.4 242.0 20.086292 242.0 23.4Z" fill-rule="nonzero"/><path fill="#1a1a1a" d="M257.0625 24.384375L258.1875 24.68125Q257.82812 26.071875 256.90625 26.80625Q255.98438 27.540625 254.64062 27.540625Q253.25 27.540625 252.375 26.978125Q251.5 26.415625 251.04688 25.353125Q250.59375 24.275 250.59375 23.040625Q250.59375 21.696875 251.10938 20.696875Q251.625 19.696875 252.5625 19.18125Q253.51562 18.665625 254.65625 18.665625Q255.9375 18.665625 256.8125 19.321875Q257.70312 19.978125 258.04688 21.165625L256.92188 21.43125Q256.625 20.49375 256.04688 20.071875Q255.48438 19.634375 254.625 19.634375Q253.64062 19.634375 252.96875 20.11875Q252.3125 20.5875 252.03125 21.384375Q251.76562 22.18125 251.76562 23.040625Q251.76562 24.134375 252.07812 24.946875Q252.40625 25.759375 253.07812 26.165625Q253.75 26.571875 254.54688 26.571875Q255.5 26.571875 256.15625 26.025Q256.82812 25.478125 257.0625 24.384375ZM266.0625 24.384375L267.1875 24.68125Q266.82812 26.071875 265.90625 26.80625Q264.98438 27.540625 263.64062 27.540625Q262.25 27.540625 261.375 26.978125Q260.5 26.415625 260.04688 25.353125Q259.59375 24.275 259.59375 23.040625Q259.59375 21.696875 260.10938 20.696875Q260.625 19.696875 261.5625 19.18125Q262.51562 18.665625 263.65625 18.665625Q264.9375 18.665625 265.8125 19.321875Q266.70312 19.978125 267.04688 21.165625L265.92188 21.43125Q265.625 20.49375 265.04688 20.071875Q264.48438 19.634375 263.625 19.634375Q262.64062 19.634375 261.96875 20.11875Q261.3125 20.5875 261.03125 21.384375Q260.76562 22.18125 260.76562 23.040625Q260.76562 24.134375 261.07812 24.946875Q261.40625 25.759375 262.07812 26.165625Q262.75 26.571875 263.54688 26.571875Q264.5 26.571875 265.15625 26.025Q265.82812 25.478125 266.0625 24.384375ZM268.57812 23.2125Q268.57812 21.071875 269.71875 19.86875Q270.875 18.65 272.6875 18.65Q273.89062 18.65 274.84375 19.228125Q275.79688 19.790625 276.29688 20.80625Q276.79688 21.821875 276.79688 23.11875Q276.79688 24.415625 276.26562 25.446875Q275.73438 26.478125 274.76562 27.009375Q273.8125 27.540625 272.6875 27.540625Q271.46875 27.540625 270.51562 26.9625Q269.5625 26.36875 269.0625 25.36875Q268.57812 24.353125 268.57812 23.2125ZM269.75 23.228125Q269.75 24.790625 270.57812 25.68125Q271.42188 26.571875 272.6875 26.571875Q273.96875 26.571875 274.79688 25.68125Q275.625 24.775 275.625 23.103125Q275.625 22.05625 275.26562 21.275Q274.92188 20.49375 274.23438 20.071875Q273.54688 19.634375 272.70312 19.634375Q271.5 19.634375 270.625 20.4625Q269.75 21.290625 269.75 23.228125Z" fill-rule="nonzero"/><path fill="#fbbc04" fill-opacity="0.5019608" d="M305.0 23.4C305.0 26.713709 302.31372 29.4 299.0 29.4C295.68628 29.4 293.0 26.713709 293.0 23.4C293.0 20.086292 295.68628 17.4 299.0 17.4C302.31372 17.4 305.0 20.086292 305.0 23.4Z" fill-rule="nonzero"/><path fill="#1a1a1a" d="M316.375 27.4L313.04688 18.80625L314.28125 18.80625L316.51562 25.05625Q316.78125 25.80625 316.96875 26.4625Q317.17188 25.759375 317.4375 25.05625L319.75 18.80625L320.90625 18.80625L317.54688 27.4L316.375 27.4ZM324.85938 26.634375Q324.26562 27.134375 323.71875 27.3375Q323.1875 27.540625 322.5625 27.540625Q321.53125 27.540625 320.98438 27.040625Q320.4375 26.540625 320.4375 25.759375Q320.4375 25.30625 320.64062 24.93125Q320.84375 24.540625 321.1875 24.321875Q321.53125 24.0875 321.95312 23.978125Q322.25 23.884375 322.89062 23.80625Q324.15625 23.665625 324.76562 23.446875Q324.76562 23.228125 324.76562 23.18125Q324.76562 22.525 324.46875 22.259375Q324.0625 21.915625 323.26562 21.915625Q322.53125 21.915625 322.17188 22.18125Q321.8125 22.43125 321.64062 23.0875L320.60938 22.946875Q320.75 22.290625 321.07812 21.884375Q321.40625 21.478125 322.01562 21.259375Q322.625 21.040625 323.42188 21.040625Q324.21875 21.040625 324.71875 21.228125Q325.21875 21.415625 325.45312 21.696875Q325.6875 21.978125 325.78125 22.415625Q325.82812 22.68125 325.82812 23.384375L325.82812 24.790625Q325.82812 26.259375 325.89062 26.65Q325.96875 27.040625 326.17188 27.4L325.0625 27.4Q324.90625 27.071875 324.85938 26.634375ZM324.76562 24.275Q324.1875 24.509375 323.04688 24.68125Q322.39062 24.775 322.125 24.9Q321.85938 25.009375 321.70312 25.228125Q321.5625 25.446875 321.5625 25.728125Q321.5625 26.15 321.875 26.43125Q322.20312 26.7125 322.8125 26.7125Q323.42188 26.7125 323.89062 26.446875Q324.375 26.18125 324.59375 25.7125Q324.76562 25.353125 324.76562 24.665625L324.76562 24.275ZM327.76562 27.4L327.76562 18.80625L328.82812 18.80625L328.82812 27.4L327.76562 27.4ZM330.40625 24.290625Q330.40625 22.55625 331.35938 21.728125Q332.15625 21.040625 333.3125 21.040625Q334.59375 21.040625 335.40625 21.884375Q336.23438 22.7125 336.23438 24.196875Q336.23438 25.4 335.875 26.0875Q335.51562 26.775 334.8125 27.165625Q334.125 27.540625 333.3125 27.540625Q332.01562 27.540625 331.20312 26.7125Q330.40625 25.86875 330.40625 24.290625ZM331.48438 24.290625Q331.48438 25.478125 332.0 26.071875Q332.53125 26.665625 333.3125 26.665625Q334.10938 26.665625 334.625 26.071875Q335.14062 25.478125 335.14062 24.259375Q335.14062 23.103125 334.60938 22.509375Q334.09375 21.915625 333.3125 21.915625Q332.53125 21.915625 332.0 22.509375Q331.48438 23.0875 331.48438 24.290625ZM337.78125 27.4L337.78125 21.18125L338.73438 21.18125L338.73438 22.11875Q339.09375 21.4625 339.39062 21.259375Q339.70312 21.040625 340.07812 21.040625Q340.60938 21.040625 341.15625 21.36875L340.79688 22.353125Q340.40625 22.11875 340.03125 22.11875Q339.67188 22.11875 339.39062 22.3375Q339.125 22.540625 339.01562 22.915625Q338.82812 23.478125 338.82812 24.134375L338.82812 27.4L337.78125 27.4ZM346.04688 25.4L347.14062 25.525Q346.89062 26.478125 346.1875 27.009375Q345.48438 27.540625 344.40625 27.540625Q343.04688 27.540625 342.23438 26.696875Q341.4375 25.853125 341.4375 24.3375Q341.4375 22.775 342.25 21.915625Q343.0625 21.040625 344.34375 21.040625Q345.59375 21.040625 346.375 21.884375Q347.17188 22.728125 347.17188 24.275Q347.17188 24.36875 347.17188 24.55625L342.53125 24.55625Q342.59375 25.5875 343.10938 26.134375Q343.625 26.665625 344.40625 26.665625Q344.98438 26.665625 345.39062 26.36875Q345.8125 26.05625 346.04688 25.4ZM342.59375 23.696875L346.0625 23.696875Q346.0 22.9 345.67188 22.509375Q345.15625 21.9 344.35938 21.9Q343.625 21.9 343.125 22.384375Q342.64062 22.86875 342.59375 23.696875ZM355.85938 26.634375Q355.26562 27.134375 354.71875 27.3375Q354.1875 27.540625 353.5625 27.540625Q352.53125 27.540625 351.98438 27.040625Q351.4375 26.540625 351.4375 25.759375Q351.4375 25.30625 351.64062 24.93125Q351.84375 24.540625 352.1875 24.321875Q352.53125 24.0875 352.95312 23.978125Q353.25 23.884375 353.89062 23.80625Q355.15625 23.665625 355.76562 23.446875Q355.76562 23.228125 355.76562 23.18125Q355.76562 22.525 355.46875 22.259375Q355.0625 21.915625 354.26562 21.915625Q353.53125 21.915625 353.17188 22.18125Q352.8125 22.43125 352.64062 23.0875L351.60938 22.946875Q351.75 22.290625 352.07812 21.884375Q352.40625 21.478125 353.01562 21.259375Q353.625 21.040625 354.42188 21.040625Q355.21875 21.040625 355.71875 21.228125Q356.21875 21.415625 356.45312 21.696875Q356.6875 21.978125 356.78125 22.415625Q356.82812 22.68125 356.82812 23.384375L356.82812 24.790625Q356.82812 26.259375 356.89062 26.65Q356.96875 27.040625 357.17188 27.4L356.0625 27.4Q355.90625 27.071875 355.85938 26.634375ZM355.76562 24.275Q355.1875 24.509375 354.04688 24.68125Q353.39062 24.775 353.125 24.9Q352.85938 25.009375 352.70312 25.228125Q352.5625 25.446875 352.5625 25.728125Q352.5625 26.15 352.875 26.43125Q353.20312 26.7125 353.8125 26.7125Q354.42188 26.7125 354.89062 26.446875Q355.375 26.18125 355.59375 25.7125Q355.76562 25.353125 355.76562 24.665625L355.76562 24.275ZM362.85938 25.11875L363.89062 25.259375Q363.71875 26.321875 363.01562 26.93125Q362.3125 27.540625 361.29688 27.540625Q360.01562 27.540625 359.23438 26.7125Q358.46875 25.86875 358.46875 24.30625Q358.46875 23.30625 358.79688 22.55625Q359.14062 21.790625 359.8125 21.415625Q360.5 21.040625 361.3125 21.040625Q362.3125 21.040625 362.95312 21.55625Q363.60938 22.05625 363.79688 23.009375L362.76562 23.165625Q362.625 22.540625 362.25 22.228125Q361.875 21.9 361.34375 21.9Q360.54688 21.9 360.04688 22.478125Q359.54688 23.040625 359.54688 24.275Q359.54688 25.540625 360.03125 26.103125Q360.51562 26.665625 361.28125 26.665625Q361.90625 26.665625 362.3125 26.290625Q362.73438 25.915625 362.85938 25.11875ZM368.85938 25.11875L369.89062 25.259375Q369.71875 26.321875 369.01562 26.93125Q368.3125 27.540625 367.29688 27.540625Q366.01562 27.540625 365.23438 26.7125Q364.46875 25.86875 364.46875 24.30625Q364.46875 23.30625 364.79688 22.55625Q365.14062 21.790625 365.8125 21.415625Q366.5 21.040625 367.3125 21.040625Q368.3125 21.040625 368.95312 21.55625Q369.60938 22.05625 369.79688 23.009375L368.76562 23.165625Q368.625 22.540625 368.25 22.228125Q367.875 21.9 367.34375 21.9Q366.54688 21.9 366.04688 22.478125Q365.54688 23.040625 365.54688 24.275Q365.54688 25.540625 366.03125 26.103125Q366.51562 26.665625 367.28125 26.665625Q367.90625 26.665625 368.3125 26.290625Q368.73438 25.915625 368.85938 25.11875ZM375.04688 25.4L376.14062 25.525Q375.89062 26.478125 375.1875 27.009375Q374.48438 27.540625 373.40625 27.540625Q372.04688 27.540625 371.23438 26.696875Q370.4375 25.853125 370.4375 24.3375Q370.4375 22.775 371.25 21.915625Q372.0625 21.040625 373.34375 21.040625Q374.59375 21.040625 375.375 21.884375Q376.17188 22.728125 376.17188 24.275Q376.17188 24.36875 376.17188 24.55625L371.53125 24.55625Q371.59375 25.5875 372.10938 26.134375Q372.625 26.665625 373.40625 26.665625Q373.98438 26.665625 374.39062 26.36875Q374.8125 26.05625 375.04688 25.4ZM371.59375 23.696875L375.0625 23.696875Q375.0 22.9 374.67188 22.509375Q374.15625 21.9 373.35938 21.9Q372.625 21.9 372.125 22.384375Q371.64062 22.86875 371.59375 23.696875ZM380.09375 26.4625L380.25 27.384375Q379.79688 27.478125 379.45312 27.478125Q378.875 27.478125 378.5625 27.30625Q378.25 27.11875 378.10938 26.821875Q377.98438 26.525 377.98438 25.571875L377.98438 21.99375L377.21875 21.99375L377.21875 21.18125L377.98438 21.18125L377.98438 19.634375L379.03125 19.009375L379.03125 21.18125L380.09375 21.18125L380.09375 21.99375L379.03125 21.99375L379.03125 25.634375Q379.03125 26.0875 379.07812 26.2125Q379.14062 26.3375 379.26562 26.415625Q379.39062 26.49375 379.625 26.49375Q379.8125 26.49375 380.09375 26.4625ZM383.09375 26.4625L383.25 27.384375Q382.79688 27.478125 382.45312 27.478125Q381.875 27.478125 381.5625 27.30625Q381.25 27.11875 381.10938 26.821875Q380.98438 26.525 380.98438 25.571875L380.98438 21.99375L380.21875 21.99375L380.21875 21.18125L380.98438 21.18125L380.98438 19.634375L382.03125 19.009375L382.03125 21.18125L383.09375 21.18125L383.09375 21.99375L382.03125 21.99375L382.03125 25.634375Q382.03125 26.0875 382.07812 26.2125Q382.14062 26.3375 382.26562 26.415625Q382.39062 26.49375 382.625 26.49375Q382.8125 26.49375 383.09375 26.4625ZM387.85938 26.634375Q387.26562 27.134375 386.71875 27.3375Q386.1875 27.540625 385.5625 27.540625Q384.53125 27.540625 383.98438 27.040625Q383.4375 26.540625 383.4375 25.759375Q383.4375 25.30625 383.64062 24.93125Q383.84375 24.540625 384.1875 24.321875Q384.53125 24.0875 384.95312 23.978125Q385.25 23.884375 385.89062 23.80625Q387.15625 23.665625 387.76562 23.446875Q387.76562 23.228125 387.76562 23.18125Q387.76562 22.525 387.46875 22.259375Q387.0625 21.915625 386.26562 21.915625Q385.53125 21.915625 385.17188 22.18125Q384.8125 22.43125 384.64062 23.0875L383.60938 22.946875Q383.75 22.290625 384.07812 21.884375Q384.40625 21.478125 385.01562 21.259375Q385.625 21.040625 386.42188 21.040625Q387.21875 21.040625 387.71875 21.228125Q388.21875 21.415625 388.45312 21.696875Q388.6875 21.978125 388.78125 22.415625Q388.82812 22.68125 388.82812 23.384375L388.82812 24.790625Q388.82812 26.259375 388.89062 26.65Q388.96875 27.040625 389.17188 27.4L388.0625 27.4Q387.90625 27.071875 387.85938 26.634375ZM387.76562 24.275Q387.1875 24.509375 386.04688 24.68125Q385.39062 24.775 385.125 24.9Q384.85938 25.009375 384.70312 25.228125Q384.5625 25.446875 384.5625 25.728125Q384.5625 26.15 384.875 26.43125Q385.20312 26.7125 385.8125 26.7125Q386.42188 26.7125 386.89062 26.446875Q387.375 26.18125 387.59375 25.7125Q387.76562 25.353125 387.76562 24.665625L387.76562 24.275ZM391.76562 27.4L390.78125 27.4L390.78125 18.80625L391.84375 18.80625L391.84375 21.86875Q392.51562 21.040625 393.54688 21.040625Q394.125 21.040625 394.625 21.275Q395.14062 21.49375 395.46875 21.915625Q395.8125 22.3375 396.0 22.93125Q396.1875 23.525 396.1875 24.196875Q396.1875 25.790625 395.39062 26.665625Q394.59375 27.540625 393.5 27.540625Q392.39062 27.540625 391.76562 26.61875L391.76562 27.4ZM391.75 24.24375Q391.75 25.353125 392.0625 25.853125Q392.5625 26.665625 393.40625 26.665625Q394.09375 26.665625 394.59375 26.071875Q395.10938 25.478125 395.10938 24.275Q395.10938 23.05625 394.625 22.478125Q394.14062 21.9 393.45312 21.9Q392.76562 21.9 392.25 22.509375Q391.75 23.103125 391.75 24.24375ZM397.79688 20.025L397.79688 18.80625L398.85938 18.80625L398.85938 20.025L397.79688 20.025ZM397.79688 27.4L397.79688 21.18125L398.85938 21.18125L398.85938 27.4L397.79688 27.4ZM400.76562 27.4L400.76562 18.80625L401.82812 18.80625L401.82812 27.4L400.76562 27.4ZM408.04688 25.4L409.14062 25.525Q408.89062 26.478125 408.1875 27.009375Q407.48438 27.540625 406.40625 27.540625Q405.04688 27.540625 404.23438 26.696875Q403.4375 25.853125 403.4375 24.3375Q403.4375 22.775 404.25 21.915625Q405.0625 21.040625 406.34375 21.040625Q407.59375 21.040625 408.375 21.884375Q409.17188 22.728125 409.17188 24.275Q409.17188 24.36875 409.17188 24.55625L404.53125 24.55625Q404.59375 25.5875 405.10938 26.134375Q405.625 26.665625 406.40625 26.665625Q406.98438 26.665625 407.39062 26.36875Q407.8125 26.05625 408.04688 25.4ZM404.59375 23.696875L408.0625 23.696875Q408.0 22.9 407.67188 22.509375Q407.15625 21.9 406.35938 21.9Q405.625 21.9 405.125 22.384375Q404.64062 22.86875 404.59375 23.696875Z" fill-rule="nonzero"/></svg>