<svg version="1.1" viewBox="0.0 0.0 532.0 328.0" fill="none" stroke="none" stroke-linecap="square" stroke-miterlimit="10" width="532" height="328" xmlns:xlink="http://www.w3.org/1999/xlink" xmlns="http://www.w3.org/2000/svg"><path fill="#ffffff" d="M0 0L532.0 0L532.0 328.0L0 328.0L0 0Z" fill-rule="nonzero"/><path stroke="#333333" stroke-width="1.0" stroke-linecap="butt" d="M84.5 285.5L515.5 285.5" fill-rule="nonzero"/><path stroke="#cccccc" stroke-width="1.0" stroke-linecap="butt" d="M84.5 255.5L515.5 255.5" fill-rule="nonzero"/><path stroke="#cccccc" stroke-width="1.0" stroke-linecap="butt" d="M84.5 226.5L515.5 226.5" fill-rule="nonzero"/><path stroke="#cccccc" stroke-width="1.0" stroke-linecap="butt" d="M84.5 196.5L515.5 196.5" fill-rule="nonzero"/><path stroke="#cccccc" stroke-width="1.0" stroke-linecap="butt" d="M84.5 166.5L515.5 166.5" fill-rule="nonzero"/><path stroke="#cccccc" stroke-width="1.0" stroke-linecap="butt" d="M84.5 137.5L515.5 137.5" fill-rule="nonzero"/><path stroke="#cccccc" stroke-width="1.0" stroke-linecap="butt" d="M84.5 107.5L515.5 107.5" fill-rule="nonzero"/><path stroke="#cccccc" stroke-width="1.0" stroke-linecap="butt" d="M84.5 77.5L515.5 77.5" fill-rule="nonzero"/><path stroke="#cccccc" stroke-width="1.0" stroke-linecap="butt" d="M84.5 48.5L515.5 48.5" fill-rule="nonzero"/><path stroke="#000000" stroke-width="1.0" stroke-linecap="butt" d="M515.5 285.5L84.5 285.5" fill-rule="nonzero"/><path stroke="#000000" stroke-width="1.0" stroke-linecap="butt" d="M84.5 285.5L84.5 48.5" fill-rule="nonzero"/><clipPath id="id_0"><path d="M84.4 48.333332L515.6 48.333332L515.6 285.6L84.4 285.6L84.4 48.333332Z" clip-rule="nonzero"/></clipPath><path stroke="#4285f4" stroke-width="2.0" stroke-linecap="butt" clip-path="url(#id_0)" d="M108.35555 176.45972C108.35555 176.45972 140.2963 174.39249 156.26666 173.41849C172.23703 172.44449 188.20741 171.18134 204.17778 170.61568C220.14815 170.05002 236.11852 170.21877 252.08888 170.02452C268.05927 169.83026 284.02963 169.59854 300.0 169.45016C315.97037 169.30179 331.94073 169.37755 347.9111 169.13426C363.88147 168.89098 379.85184 168.12164 395.82224 167.99045C411.7926 167.85925 427.76297 168.45041 443.73334 168.34708C459.7037 168.24376 491.64444 167.3705 491.64444 167.3705" fill-rule="nonzero"/><path stroke="#ea4335" stroke-width="2.0" stroke-linecap="butt" clip-path="url(#id_0)" d="M108.35555 155.10333C108.35555 155.10333 140.2963 155.10333 156.26666 155.10333C172.23703 155.10333 188.20741 155.10333 204.17778 155.10333C220.14815 155.10333 236.11852 155.10333 252.08888 155.10333C268.05927 155.10333 284.02963 155.10333 300.0 155.10333C315.97037 155.10333 331.94073 155.10333 347.9111 155.10333C363.88147 155.10333 379.85184 155.10333 395.82224 155.10333C411.7926 155.10333 427.76297 155.10333 443.73334 155.10333C459.7037 155.10333 491.64444 155.10333 491.64444 155.10333" fill-rule="nonzero"/><path stroke="#fbbc04" stroke-width="2.0" stroke-linecap="butt" stroke-opacity="0.7019608" clip-path="url(#id_0)" d="M108.35555 178.83C108.35555 178.83 140.2963 178.83 156.26666 178.83C172.23703 178.83 188.20741 178.83 204.17778 178.83C220.14815 178.83 236.11852 178.83 252.08888 178.83C268.05927 178.83 284.02963 178.83 300.0 178.83C315.97037 178.83 331.94073 178.83 347.9111 178.83C363.88147 178.83 379.85184 178.83 395.82224 178.83C411.7926 178.83 427.76297 178.83 443.73334 178.83C459.7037 178.83 491.64444 178.83 491.64444 178.83" fill-rule="nonzero"/><path fill="#4285f4" clip-path="url(#id_0)" d="M111.85555 176.45972C111.85555 178.39272 110.28855 179.95972 108.35555 179.95972C106.42256 179.95972 104.85555 178.39272 104.85555 176.45972C104.85555 174.52672 106.42256 172.95972 108.35555 172.95972C110.28855 172.95972 111.85555 174.52672 111.85555 176.45972Z" fill-rule="nonzero"/><path fill="#4285f4" clip-path="url(#id_0)" d="M159.76666 173.41849C159.76666 175.35149 158.19966 176.91849 156.26666 176.91849C154.33366 176.91849 152.76666 175.35149 152.76666 173.41849C152.76666 171.48549 154.33366 169.91849 156.26666 169.91849C158.19966 169.91849 159.76666 171.48549 159.76666 173.41849Z" fill-rule="nonzero"/><path fill="#4285f4" clip-path="url(#id_0)" d="M207.67778 170.61568C207.67778 172.54868 206.11078 174.11568 204.17778 174.11568C202.24478 174.11568 200.67778 172.54868 200.67778 170.61568C200.67778 168.68268 202.24478 167.11568 204.17778 167.11568C206.11078 167.11568 207.67778 168.68268 207.67778 170.61568Z" fill-rule="nonzero"/><path fill="#4285f4" clip-path="url(#id_0)" d="M255.58888 170.02452C255.58888 171.95752 254.02188 173.52452 252.08888 173.52452C250.1559 173.52452 248.58888 171.95752 248.58888 170.02452C248.58888 168.09152 250.1559 166.52452 252.08888 166.52452C254.02188 166.52452 255.58888 168.09152 255.58888 170.02452Z" fill-rule="nonzero"/><path fill="#4285f4" clip-path="url(#id_0)" d="M303.5 169.45016C303.5 171.38316 301.93298 172.95016 300.0 172.95016C298.06702 172.95016 296.5 171.38316 296.5 169.45016C296.5 167.51717 298.06702 165.95016 300.0 165.95016C301.93298 165.95016 303.5 167.51717 303.5 169.45016Z" fill-rule="nonzero"/><path fill="#4285f4" clip-path="url(#id_0)" d="M351.4111 169.13426C351.4111 171.06726 349.84412 172.63426 347.9111 172.63426C345.97812 172.63426 344.4111 171.06726 344.4111 169.13426C344.4111 167.20128 345.97812 165.63426 347.9111 165.63426C349.84412 165.63426 351.4111 167.20128 351.4111 169.13426Z" fill-rule="nonzero"/><path fill="#4285f4" clip-path="url(#id_0)" d="M399.32224 167.99045C399.32224 169.92345 397.75522 171.49045 395.82224 171.49045C393.88922 171.49045 392.32224 169.92345 392.32224 167.99045C392.32224 166.05745 393.88922 164.49045 395.82224 164.49045C397.75522 164.49045 399.32224 166.05745 399.32224 167.99045Z" fill-rule="nonzero"/><path fill="#4285f4" clip-path="url(#id_0)" d="M447.23334 168.34708C447.23334 170.28008 445.66632 171.84708 443.73334 171.84708C441.80032 171.84708 440.23334 170.28008 440.23334 168.34708C440.23334 166.4141 441.80032 164.84708 443.73334 164.84708C445.66632 164.84708 447.23334 166.4141 447.23334 168.34708Z" fill-rule="nonzero"/><path fill="#4285f4" clip-path="url(#id_0)" d="M495.14444 167.3705C495.14444 169.3035 493.57745 170.8705 491.64444 170.8705C489.71146 170.8705 488.14444 169.3035 488.14444 167.3705C488.14444 165.43752 489.71146 163.8705 491.64444 163.8705C493.57745 163.8705 495.14444 165.43752 495.14444 167.3705Z" fill-rule="nonzero"/><path fill="#ea4335" clip-path="url(#id_0)" d="M111.85555 155.10333C111.85555 157.03633 110.28855 158.60333 108.35555 158.60333C106.42256 158.60333 104.85555 157.03633 104.85555 155.10333C104.85555 153.17033 106.42256 151.60333 108.35555 151.60333C110.28855 151.60333 111.85555 153.17033 111.85555 155.10333Z" fill-rule="nonzero"/><path fill="#ea4335" clip-path="url(#id_0)" d="M159.76666 155.10333C159.76666 157.03633 158.19966 158.60333 156.26666 158.60333C154.33366 158.60333 152.76666 157.03633 152.76666 155.10333C152.76666 153.17033 154.33366 151.60333 156.26666 151.60333C158.19966 151.60333 159.76666 153.17033 159.76666 155.10333Z" fill-rule="nonzero"/><path fill="#ea4335" clip-path="url(#id_0)" d="M207.67778 155.10333C207.67778 157.03633 206.11078 158.60333 204.17778 158.60333C202.24478 158.60333 200.67778 157.03633 200.67778 155.10333C200.67778 153.17033 202.24478 151.60333 204.17778 151.60333C206.11078 151.60333 207.67778 153.17033 207.67778 155.10333Z" fill-rule="nonzero"/><path fill="#ea4335" clip-path="url(#id_0)" d="M255.58888 155.10333C255.58888 157.03633 254.02188 158.60333 252.08888 158.60333C250.1559 158.60333 248.58888 157.03633 248.58888 155.10333C248.58888 153.17033 250.1559 151.60333 252.08888 151.60333C254.02188 151.60333 255.58888 153.17033 255.58888 155.10333Z" fill-rule="nonzero"/><path fill="#ea4335" clip-path="url(#id_0)" d="M303.5 155.10333C303.5 157.03633 301.93298 158.60333 300.0 158.60333C298.06702 158.60333 296.5 157.03633 296.5 155.10333C296.5 153.17033 298.06702 151.60333 300.0 151.60333C301.93298 151.60333 303.5 153.17033 303.5 155.10333Z" fill-rule="nonzero"/><path fill="#ea4335" clip-path="url(#id_0)" d="M351.4111 155.10333C351.4111 157.03633 349.84412 158.60333 347.9111 158.60333C345.97812 158.60333 344.4111 157.03633 344.4111 155.10333C344.4111 153.17033 345.97812 151.60333 347.9111 151.60333C349.84412 151.60333 351.4111 153.17033 351.4111 155.10333Z" fill-rule="nonzero"/><path fill="#ea4335" clip-path="url(#id_0)" d="M399.32224 155.10333C399.32224 157.03633 397.75522 158.60333 395.82224 158.60333C393.88922 158.60333 392.32224 157.03633 392.32224 155.10333C392.32224 153.17033 393.88922 151.60333 395.82224 151.60333C397.75522 151.60333 399.32224 153.17033 399.32224 155.10333Z" fill-rule="nonzero"/><path fill="#ea4335" clip-path="url(#id_0)" d="M447.23334 155.10333C447.23334 157.03633 445.66632 158.60333 443.73334 158.60333C441.80032 158.60333 440.23334 157.03633 440.23334 155.10333C440.23334 153.17033 441.80032 151.60333 443.73334 151.60333C445.66632 151.60333 447.23334 153.17033 447.23334 155.10333Z" fill-rule="nonzero"/><path fill="#ea4335" clip-path="url(#id_0)" d="M495.14444 155.10333C495.14444 157.03633 493.57745 158.60333 491.64444 158.60333C489.71146 158.60333 488.14444 157.03633 488.14444 155.10333C488.14444 153.17033 489.71146 151.60333 491.64444 151.60333C493.57745 151.60333 495.14444 153.17033 495.14444 155.10333Z" fill-rule="nonzero"/><path fill="#fbbc04" fill-opacity="0.7019608" clip-path="url(#id_0)" d="M111.85555 178.83C111.85555 180.763 110.28855 182.33 108.35555 182.33C106.42256 182.33 104.85555 180.763 104.85555 178.83C104.85555 176.897 106.42256 175.33 108.35555 175.33C110.28855 175.33 111.85555 176.897 111.85555 178.83Z" fill-rule="nonzero"/><path fill="#fbbc04" fill-opacity="0.7019608" clip-path="url(#id_0)" d="M159.76666 178.83C159.76666 180.763 158.19966 182.33 156.26666 182.33C154.33366 182.33 152.76666 180.763 152.76666 178.83C152.76666 176.897 154.33366 175.33 156.26666 175.33C158.19966 175.33 159.76666 176.897 159.76666 178.83Z" fill-rule="nonzero"/><path fill="#fbbc04" fill-opacity="0.7019608" clip-path="url(#id_0)" d="M207.67778 178.83C207.67778 180.763 206.11078 182.33 204.17778 182.33C202.24478 182.33 200.67778 180.763 200.67778 178.83C200.67778 176.897 202.24478 175.33 204.17778 175.33C206.11078 175.33 207.67778 176.897 207.67778 178.83Z" fill-rule="nonzero"/><path fill="#fbbc04" fill-opacity="0.7019608" clip-path="url(#id_0)" d="M255.58888 178.83C255.58888 180.763 254.02188 182.33 252.08888 182.33C250.1559 182.33 248.58888 180.763 248.58888 178.83C248.58888 176.897 250.1559 175.33 252.08888 175.33C254.02188 175.33 255.58888 176.897 255.58888 178.83Z" fill-rule="nonzero"/><path fill="#fbbc04" fill-opacity="0.7019608" clip-path="url(#id_0)" d="M303.5 178.83C303.5 180.763 301.93298 182.33 300.0 182.33C298.06702 182.33 296.5 180.763 296.5 178.83C296.5 176.897 298.06702 175.33 300.0 175.33C301.93298 175.33 303.5 176.897 303.5 178.83Z" fill-rule="nonzero"/><path fill="#fbbc04" fill-opacity="0.7019608" clip-path="url(#id_0)" d="M351.4111 178.83C351.4111 180.763 349.84412 182.33 347.9111 182.33C345.97812 182.33 344.4111 180.763 344.4111 178.83C344.4111 176.897 345.97812 175.33 347.9111 175.33C349.84412 175.33 351.4111 176.897 351.4111 178.83Z" fill-rule="nonzero"/><path fill="#fbbc04" fill-opacity="0.7019608" clip-path="url(#id_0)" d="M399.32224 178.83C399.32224 180.763 397.75522 182.33 395.82224 182.33C393.88922 182.33 392.32224 180.763 392.32224 178.83C392.32224 176.897 393.88922 175.33 395.82224 175.33C397.75522 175.33 399.32224 176.897 399.32224 178.83Z" fill-rule="nonzero"/><path fill="#fbbc04" fill-opacity="0.7019608" clip-path="url(#id_0)" d="M447.23334 178.83C447.23334 180.763 445.66632 182.33 443.73334 182.33C441.80032 182.33 440.23334 180.763 440.23334 178.83C440.23334 176.897 441.80032 175.33 443.73334 175.33C445.66632 175.33 447.23334 176.897 447.23334 178.83Z" fill-rule="nonzero"/><path fill="#fbbc04" fill-opacity="0.7019608" clip-path="url(#id_0)" d="M495.14444 178.83C495.14444 180.763 493.57745 182.33 491.64444 182.33C489.71146 182.33 488.14444 180.763 488.14444 178.83C488.14444 176.897 489.71146 175.33 491.64444 175.33C493.57745 175.33 495.14444 176.897 495.14444 178.83Z" fill-rule="nonzero"/><path stroke="#000000" stroke-width="1.0" stroke-linecap="butt" d="M108.5 291.5L108.5 279.5" fill-rule="nonzero"/><path stroke="#000000" stroke-width="1.0" stroke-linecap="butt" d="M156.5 291.5L156.5 279.5" fill-rule="nonzero"/><path stroke="#000000" stroke-width="1.0" stroke-linecap="butt" d="M204.5 291.5L204.5 279.5" fill-rule="nonzero"/><path stroke="#000000" stroke-width="1.0" stroke-linecap="butt" d="M252.5 291.5L252.5 279.5" fill-rule="nonzero"/><path stroke="#000000" stroke-width="1.0" stroke-linecap="butt" d="M300.5 291.5L300.5 279.5" fill-rule="nonzero"/><path stroke="#000000" stroke-width="1.0" stroke-linecap="butt" d="M347.5 291.5L347.5 279.5" fill-rule="nonzero"/><path stroke="#000000" stroke-width="1.0" stroke-linecap="butt" d="M395.5 291.5L395.5 279.5" fill-rule="nonzero"/><path stroke="#000000" stroke-width="1.0" stroke-linecap="butt" d="M443.5 291.5L443.5 279.5" fill-rule="nonzero"/><path stroke="#000000" stroke-width="1.0" stroke-linecap="butt" d="M491.5 291.5L491.5 279.5" fill-rule="nonzero"/><path stroke="#000000" stroke-width="1.0" stroke-linecap="butt" d="M78.5 285.5L90.5 285.5" fill-rule="nonzero"/><path stroke="#000000" stroke-width="1.0" stroke-linecap="butt" d="M78.5 255.5L90.5 255.5" fill-rule="nonzero"/><path stroke="#000000" stroke-width="1.0" stroke-linecap="butt" d="M78.5 226.5L90.5 226.5" fill-rule="nonzero"/><path stroke="#000000" stroke-width="1.0" stroke-linecap="butt" d="M78.5 196.5L90.5 196.5" fill-rule="nonzero"/><path stroke="#000000" stroke-width="1.0" stroke-linecap="butt" d="M78.5 166.5L90.5 166.5" fill-rule="nonzero"/><path stroke="#000000" stroke-width="1.0" stroke-linecap="butt" d="M78.5 137.5L90.5 137.5" fill-rule="nonzero"/><path stroke="#000000" stroke-width="1.0" stroke-linecap="butt" d="M78.5 107.5L90.5 107.5" fill-rule="nonzero"/><path stroke="#000000" stroke-width="1.0" stroke-linecap="butt" d="M78.5 77.5L90.5 77.5" fill-rule="nonzero"/><path stroke="#000000" stroke-width="1.0" stroke-linecap="butt" d="M78.5 48.5L90.5 48.5" fill-rule="nonzero"/><path fill="#000000" d="M65.9 285.36563Q65.9 283.83438 66.2125 282.9125Q66.525 281.975 67.13438 281.475Q67.75938 280.975 68.69688 280.975Q69.38438 280.975 69.9 281.25626Q70.43125 281.5375 70.775 282.06876Q71.11875 282.58438 71.30625 283.33438Q71.49375 284.08438 71.49375 285.36563Q71.49375 286.88126 71.18125 287.80313Q70.88438 288.725 70.25938 289.24063Q69.65 289.74063 68.69688 289.74063Q67.4625 289.74063 66.74375 288.85Q65.9 287.7875 65.9 285.36563ZM66.97813 285.36563Q66.97813 287.475 67.47813 288.17813Q67.97813 288.88126 68.69688 288.88126Q69.43125 288.88126 69.91563 288.17813Q70.41563 287.475 70.41563 285.36563Q70.41563 283.24063 69.91563 282.55313Q69.43125 281.85 68.68125 281.85Q67.9625 281.85 67.525 282.45938Q66.97813 283.24063 66.97813 285.36563Z" fill-rule="nonzero"/><path fill="#000000" d="M48.9 255.7073Q48.9 254.17606 49.2125 253.25418Q49.525 252.31668 50.134377 251.81668Q50.759377 251.31668 51.696877 251.31668Q52.384377 251.31668 52.9 251.59793Q53.43125 251.87918 53.775 252.41043Q54.11875 252.92606 54.30625 253.67606Q54.49375 254.42606 54.49375 255.7073Q54.49375 257.22293 54.18125 258.1448Q53.884377 259.06668 53.259377 259.5823Q52.65 260.0823 51.696877 260.0823Q50.4625 260.0823 49.74375 259.19168Q48.9 258.12918 48.9 255.7073ZM49.978127 255.7073Q49.978127 257.81668 50.478127 258.5198Q50.978127 259.22293 51.696877 259.22293Q52.43125 259.22293 52.915627 258.5198Q53.415627 257.81668 53.415627 255.7073Q53.415627 253.5823 52.915627 252.8948Q52.43125 252.19168 51.68125 252.19168Q50.9625 252.19168 50.525 252.80106Q49.978127 253.5823 49.978127 255.7073ZM56.49375 259.94168L56.49375 258.73856L57.696877 258.73856L57.696877 259.94168L56.49375 259.94168ZM64.44688 258.92606L64.44688 259.94168L58.759377 259.94168Q58.759377 259.56668 58.884377 259.2073Q59.103127 258.62918 59.571877 258.06668Q60.05625 257.50418 60.9625 256.7698Q62.36875 255.61356 62.853127 254.94168Q63.353127 254.2698 63.353127 253.67606Q63.353127 253.05106 62.9 252.62918Q62.446877 252.19168 61.728127 252.19168Q60.9625 252.19168 60.509377 252.6448Q60.05625 253.09793 60.040627 253.91043L58.9625 253.80106Q59.071877 252.5823 59.790627 251.9573Q60.525 251.31668 61.759377 251.31668Q62.99375 251.31668 63.7125 252.00418Q64.43125 252.69168 64.43125 253.7073Q64.43125 254.22293 64.2125 254.72293Q64.00938 255.2073 63.509377 255.7698Q63.025 256.31668 61.9 257.2698Q60.946877 258.06668 60.665627 258.36356Q60.4 258.6448 60.228127 258.92606L64.44688 258.92606ZM65.9 257.69168L67.00938 257.59793Q67.13438 258.41043 67.57188 258.81668Q68.025 259.22293 68.66563 259.22293Q69.41563 259.22293 69.94688 258.6448Q70.47813 258.06668 70.47813 257.12918Q70.47813 256.22293 69.9625 255.7073Q69.4625 255.17606 68.63438 255.17606Q68.13438 255.17606 67.7125 255.41043Q67.30625 255.6448 67.07188 256.00418L66.0875 255.87918L66.91563 251.47293L71.19688 251.47293L71.19688 252.47293L67.75938 252.47293L67.30625 254.78543Q68.07188 254.23856 68.91563 254.23856Q70.04063 254.23856 70.80625 255.0198Q71.5875 255.80106 71.5875 257.03543Q71.5875 258.19168 70.91563 259.05106Q70.0875 260.0823 68.66563 260.0823Q67.49375 260.0823 66.74375 259.42606Q66.00938 258.7698 65.9 257.69168Z" fill-rule="nonzero"/><path fill="#000000" d="M55.9 226.04897Q55.9 224.51772 56.2125 223.59584Q56.525 222.65834 57.134377 222.15834Q57.759377 221.65834 58.696877 221.65834Q59.384377 221.65834 59.9 221.93959Q60.43125 222.22084 60.775 222.75209Q61.11875 223.26772 61.30625 224.01772Q61.49375 224.76772 61.49375 226.04897Q61.49375 227.56459 61.18125 228.48647Q60.884377 229.40834 60.259377 229.92397Q59.65 230.42397 58.696877 230.42397Q57.4625 230.42397 56.74375 229.53334Q55.9 228.47084 55.9 226.04897ZM56.978127 226.04897Q56.978127 228.15834 57.478127 228.86147Q57.978127 229.56459 58.696877 229.56459Q59.43125 229.56459 59.915627 228.86147Q60.415627 228.15834 60.415627 226.04897Q60.415627 223.92397 59.915627 223.23647Q59.43125 222.53334 58.68125 222.53334Q57.9625 222.53334 57.525 223.14272Q56.978127 223.92397 56.978127 226.04897ZM63.49375 230.28334L63.49375 229.08022L64.69688 229.08022L64.69688 230.28334L63.49375 230.28334ZM65.9 228.03334L67.00938 227.93959Q67.13438 228.75209 67.57188 229.15834Q68.025 229.56459 68.66563 229.56459Q69.41563 229.56459 69.94688 228.98647Q70.47813 228.40834 70.47813 227.47084Q70.47813 226.56459 69.9625 226.04897Q69.4625 225.51772 68.63438 225.51772Q68.13438 225.51772 67.7125 225.75209Q67.30625 225.98647 67.07188 226.34584L66.0875 226.22084L66.91563 221.81459L71.19688 221.81459L71.19688 222.81459L67.75938 222.81459L67.30625 225.12709Q68.07188 224.58022 68.91563 224.58022Q70.04063 224.58022 70.80625 225.36147Q71.5875 226.14272 71.5875 227.37709Q71.5875 228.53334 70.91563 229.39272Q70.0875 230.42397 68.66563 230.42397Q67.49375 230.42397 66.74375 229.76772Q66.00938 229.11147 65.9 228.03334Z" fill-rule="nonzero"/><path fill="#000000" d="M48.9 196.39062Q48.9 194.85938 49.2125 193.9375Q49.525 193.0 50.134377 192.5Q50.759377 192.0 51.696877 192.0Q52.384377 192.0 52.9 192.28125Q53.43125 192.5625 53.775 193.09375Q54.11875 193.60938 54.30625 194.35938Q54.49375 195.10938 54.49375 196.39062Q54.49375 197.90625 54.18125 198.82812Q53.884377 199.75 53.259377 200.26562Q52.65 200.76562 51.696877 200.76562Q50.4625 200.76562 49.74375 199.875Q48.9 198.8125 48.9 196.39062ZM49.978127 196.39062Q49.978127 198.5 50.478127 199.20312Q50.978127 199.90625 51.696877 199.90625Q52.43125 199.90625 52.915627 199.20312Q53.415627 198.5 53.415627 196.39062Q53.415627 194.26562 52.915627 193.57812Q52.43125 192.875 51.68125 192.875Q50.9625 192.875 50.525 193.48438Q49.978127 194.26562 49.978127 196.39062ZM56.49375 200.625L56.49375 199.42188L57.696877 199.42188L57.696877 200.625L56.49375 200.625ZM58.9625 193.15625L58.9625 192.14062L64.525 192.14062L64.525 192.96875Q63.7125 193.84375 62.9 195.29688Q62.103127 196.73438 61.665627 198.26562Q61.3375 199.34375 61.259377 200.625L60.165627 200.625Q60.18125 199.60938 60.55625 198.17188Q60.946877 196.73438 61.65 195.40625Q62.36875 194.07812 63.18125 193.15625L58.9625 193.15625ZM65.9 198.375L67.00938 198.28125Q67.13438 199.09375 67.57188 199.5Q68.025 199.90625 68.66563 199.90625Q69.41563 199.90625 69.94688 199.32812Q70.47813 198.75 70.47813 197.8125Q70.47813 196.90625 69.9625 196.39062Q69.4625 195.85938 68.63438 195.85938Q68.13438 195.85938 67.7125 196.09375Q67.30625 196.32812 67.07188 196.6875L66.0875 196.5625L66.91563 192.15625L71.19688 192.15625L71.19688 193.15625L67.75938 193.15625L67.30625 195.46875Q68.07188 194.92188 68.91563 194.92188Q70.04063 194.92188 70.80625 195.70312Q71.5875 196.48438 71.5875 197.71875Q71.5875 198.875 70.91563 199.73438Q70.0875 200.76562 68.66563 200.76562Q67.49375 200.76562 66.74375 200.10938Q66.00938 199.45312 65.9 198.375Z" fill-rule="nonzero"/><path fill="#000000" d="M69.86875 170.96666L68.82188 170.96666L68.82188 164.24791Q68.43125 164.60728 67.80625 164.98228Q67.19688 165.34166 66.7125 165.51353L66.7125 164.49791Q67.5875 164.07603 68.24375 163.49791Q68.91563 162.90416 69.19688 162.34166L69.86875 162.34166L69.86875 170.96666Z" fill-rule="nonzero"/><path fill="#000000" d="M52.86875 141.30833L51.821877 141.30833L51.821877 134.58958Q51.43125 134.94896 50.80625 135.32396Q50.196877 135.68333 49.7125 135.85521L49.7125 134.83958Q50.5875 134.41771 51.24375 133.83958Q51.915627 133.24583 52.196877 132.68333L52.86875 132.68333L52.86875 141.30833ZM56.49375 141.30833L56.49375 140.10521L57.696877 140.10521L57.696877 141.30833L56.49375 141.30833ZM64.44688 140.29271L64.44688 141.30833L58.759377 141.30833Q58.759377 140.93333 58.884377 140.57396Q59.103127 139.99583 59.571877 139.43333Q60.05625 138.87083 60.9625 138.13646Q62.36875 136.98021 62.853127 136.30833Q63.353127 135.63646 63.353127 135.04271Q63.353127 134.41771 62.9 133.99583Q62.446877 133.55833 61.728127 133.55833Q60.9625 133.55833 60.509377 134.01146Q60.05625 134.46458 60.040627 135.27708L58.9625 135.16771Q59.071877 133.94896 59.790627 133.32396Q60.525 132.68333 61.759377 132.68333Q62.99375 132.68333 63.7125 133.37083Q64.43125 134.05833 64.43125 135.07396Q64.43125 135.58958 64.2125 136.08958Q64.00938 136.57396 63.509377 137.13646Q63.025 137.68333 61.9 138.63646Q60.946877 139.43333 60.665627 139.73021Q60.4 140.01146 60.228127 140.29271L64.44688 140.29271ZM65.9 139.05833L67.00938 138.96458Q67.13438 139.77708 67.57188 140.18333Q68.025 140.58958 68.66563 140.58958Q69.41563 140.58958 69.94688 140.01146Q70.47813 139.43333 70.47813 138.49583Q70.47813 137.58958 69.9625 137.07396Q69.4625 136.54271 68.63438 136.54271Q68.13438 136.54271 67.7125 136.77708Q67.30625 137.01146 67.07188 137.37083L66.0875 137.24583L66.91563 132.83958L71.19688 132.83958L71.19688 133.83958L67.75938 133.83958L67.30625 136.15208Q68.07188 135.60521 68.91563 135.60521Q70.04063 135.60521 70.80625 136.38646Q71.5875 137.16771 71.5875 138.40208Q71.5875 139.55833 70.91563 140.41771Q70.0875 141.44896 68.66563 141.44896Q67.49375 141.44896 66.74375 140.79271Q66.00938 140.13646 65.9 139.05833Z" fill-rule="nonzero"/><path fill="#000000" d="M59.86875 111.65L58.821877 111.65L58.821877 104.93125Q58.43125 105.29063 57.80625 105.66563Q57.196877 106.025 56.7125 106.19688L56.7125 105.18125Q57.5875 104.75938 58.24375 104.18125Q58.915627 103.5875 59.196877 103.025L59.86875 103.025L59.86875 111.65ZM63.49375 111.65L63.49375 110.44688L64.69688 110.44688L64.69688 111.65L63.49375 111.65ZM65.9 109.4L67.00938 109.30625Q67.13438 110.11875 67.57188 110.525Q68.025 110.93125 68.66563 110.93125Q69.41563 110.93125 69.94688 110.35313Q70.47813 109.775 70.47813 108.8375Q70.47813 107.93125 69.9625 107.41563Q69.4625 106.88438 68.63438 106.88438Q68.13438 106.88438 67.7125 107.11875Q67.30625 107.35313 67.07188 107.7125L66.0875 107.5875L66.91563 103.18125L71.19688 103.18125L71.19688 104.18125L67.75938 104.18125L67.30625 106.49375Q68.07188 105.94688 68.91563 105.94688Q70.04063 105.94688 70.80625 106.72813Q71.5875 107.50938 71.5875 108.74375Q71.5875 109.9 70.91563 110.75938Q70.0875 111.79063 68.66563 111.79063Q67.49375 111.79063 66.74375 111.13438Q66.00938 110.47813 65.9 109.4Z" fill-rule="nonzero"/><path fill="#000000" d="M52.86875 81.99167L51.821877 81.99167L51.821877 75.27292Q51.43125 75.63229 50.80625 76.00729Q50.196877 76.36667 49.7125 76.53854L49.7125 75.52292Q50.5875 75.10104 51.24375 74.52292Q51.915627 73.92917 52.196877 73.36667L52.86875 73.36667L52.86875 81.99167ZM56.49375 81.99167L56.49375 80.78854L57.696877 80.78854L57.696877 81.99167L56.49375 81.99167ZM58.9625 74.52292L58.9625 73.50729L64.525 73.50729L64.525 74.33542Q63.7125 75.21042 62.9 76.66354Q62.103127 78.10104 61.665627 79.63229Q61.3375 80.71042 61.259377 81.99167L60.165627 81.99167Q60.18125 80.97604 60.55625 79.53854Q60.946877 78.10104 61.65 76.77292Q62.36875 75.44479 63.18125 74.52292L58.9625 74.52292ZM65.9 79.74167L67.00938 79.64792Q67.13438 80.46042 67.57188 80.86667Q68.025 81.27292 68.66563 81.27292Q69.41563 81.27292 69.94688 80.69479Q70.47813 80.11667 70.47813 79.17917Q70.47813 78.27292 69.9625 77.75729Q69.4625 77.22604 68.63438 77.22604Q68.13438 77.22604 67.7125 77.46042Q67.30625 77.69479 67.07188 78.05417L66.0875 77.92917L66.91563 73.52292L71.19688 73.52292L71.19688 74.52292L67.75938 74.52292L67.30625 76.83542Q68.07188 76.28854 68.91563 76.28854Q70.04063 76.28854 70.80625 77.06979Q71.5875 77.85104 71.5875 79.08542Q71.5875 80.24167 70.91563 81.10104Q70.0875 82.13229 68.66563 82.13229Q67.49375 82.13229 66.74375 81.47604Q66.00938 80.81979 65.9 79.74167Z" fill-rule="nonzero"/><path fill="#000000" d="M71.44688 51.317707L71.44688 52.333332L65.75938 52.333332Q65.75938 51.958332 65.88438 51.598957Q66.10313 51.020832 66.57188 50.458332Q67.05625 49.895832 67.9625 49.161457Q69.36875 48.005207 69.85313 47.333332Q70.35313 46.661457 70.35313 46.067707Q70.35313 45.442707 69.9 45.020832Q69.44688 44.583332 68.72813 44.583332Q67.9625 44.583332 67.50938 45.036457Q67.05625 45.489582 67.04063 46.302082L65.9625 46.192707Q66.07188 44.973957 66.79063 44.348957Q67.525 43.708332 68.75938 43.708332Q69.99375 43.708332 70.7125 44.395832Q71.43125 45.083332 71.43125 46.098957Q71.43125 46.614582 71.2125 47.114582Q71.00938 47.598957 70.50938 48.161457Q70.025 48.708332 68.9 49.661457Q67.94688 50.458332 67.66563 50.755207Q67.4 51.036457 67.22813 51.317707L71.44688 51.317707Z" fill-rule="nonzero"/><path fill="#000000" d="M87.90243 305.83438L88.96493 305.74063Q89.04305 306.39688 89.3243 306.80313Q89.60555 307.20938 90.18368 307.475Q90.77743 307.725 91.5118 307.725Q92.15243 307.725 92.65243 307.5375Q93.15243 307.33438 93.3868 307.00626Q93.6368 306.6625 93.6368 306.27188Q93.6368 305.86563 93.40243 305.56876Q93.16805 305.25626 92.6368 305.05313Q92.27743 304.9125 91.08993 304.63126Q89.91805 304.35 89.4493 304.1Q88.8243 303.77188 88.52743 303.30313Q88.23055 302.81876 88.23055 302.225Q88.23055 301.58438 88.58993 301.02188Q88.96493 300.44376 89.66805 300.1625Q90.3868 299.86563 91.24618 299.86563Q92.1993 299.86563 92.93368 300.17813Q93.66805 300.475 94.05868 301.08438Q94.4493 301.67813 94.48055 302.42813L93.3868 302.50626Q93.29305 301.69376 92.77743 301.2875Q92.27743 300.86563 91.29305 300.86563Q90.2618 300.86563 89.79305 301.24063Q89.3243 301.61563 89.3243 302.14688Q89.3243 302.61563 89.65243 302.9125Q89.98055 303.20938 91.35555 303.52188Q92.74618 303.83438 93.2618 304.06876Q94.0118 304.42813 94.37118 304.95938Q94.73055 305.475 94.73055 306.17813Q94.73055 306.86563 94.33993 307.475Q93.9493 308.06876 93.21493 308.4125Q92.48055 308.74063 91.55868 308.74063Q90.3868 308.74063 89.58993 308.4125Q88.80868 308.06876 88.35555 307.38126Q87.91805 306.69376 87.90243 305.83438ZM96.15243 310.99063L96.15243 302.38126L97.10555 302.38126L97.10555 303.17813Q97.4493 302.70938 97.87118 302.475Q98.30868 302.24063 98.91805 302.24063Q99.71493 302.24063 100.3243 302.64688Q100.93368 303.05313 101.23055 303.80313Q101.54305 304.55313 101.54305 305.44376Q101.54305 306.39688 101.1993 307.1625Q100.87118 307.92813 100.21493 308.33438Q99.55868 308.74063 98.83993 308.74063Q98.30868 308.74063 97.8868 308.52188Q97.46493 308.2875 97.1993 307.95938L97.1993 310.99063L96.15243 310.99063ZM97.10555 305.52188Q97.10555 306.725 97.58993 307.30313Q98.0743 307.86563 98.7618 307.86563Q99.46493 307.86563 99.96493 307.27188Q100.46493 306.67813 100.46493 305.42813Q100.46493 304.24063 99.98055 303.6625Q99.49618 303.06876 98.80868 303.06876Q98.1368 303.06876 97.62118 303.69376Q97.10555 304.31876 97.10555 305.52188ZM103.1368 308.6L103.1368 302.38126L104.08993 302.38126L104.08993 303.31876Q104.4493 302.6625 104.74618 302.45938Q105.05868 302.24063 105.43368 302.24063Q105.96493 302.24063 106.5118 302.56876L106.15243 303.55313Q105.7618 303.31876 105.3868 303.31876Q105.02743 303.31876 104.74618 303.5375Q104.48055 303.74063 104.37118 304.11563Q104.18368 304.67813 104.18368 305.33438L104.18368 308.6L103.1368 308.6ZM107.15243 301.225L107.15243 300.00626L108.21493 300.00626L108.21493 301.225L107.15243 301.225ZM107.15243 308.6L107.15243 302.38126L108.21493 302.38126L108.21493 308.6L107.15243 308.6ZM110.15243 308.6L110.15243 302.38126L111.08993 302.38126L111.08993 303.25626Q111.77743 302.24063 113.0743 302.24063Q113.6368 302.24063 114.10555 302.44376Q114.58993 302.64688 114.8243 302.975Q115.05868 303.30313 115.15243 303.74063Q115.1993 304.0375 115.1993 304.77188L115.1993 308.6L114.15243 308.6L114.15243 304.81876Q114.15243 304.1625 114.02743 303.85Q113.90243 303.5375 113.58993 303.35Q113.27743 303.14688 112.85555 303.14688Q112.18368 303.14688 111.68368 303.58438Q111.1993 304.00626 111.1993 305.19376L111.1993 308.6L110.15243 308.6ZM119.4493 307.6625L119.60555 308.58438Q119.15243 308.67813 118.80868 308.67813Q118.23055 308.67813 117.91805 308.50626Q117.60555 308.31876 117.46493 308.02188Q117.33993 307.725 117.33993 306.77188L117.33993 303.19376L116.5743 303.19376L116.5743 302.38126L117.33993 302.38126L117.33993 300.83438L118.3868 300.20938L118.3868 302.38126L119.4493 302.38126L119.4493 303.19376L118.3868 303.19376L118.3868 306.83438Q118.3868 307.2875 118.43368 307.4125Q118.49618 307.5375 118.62118 307.61563Q118.74618 307.69376 118.98055 307.69376Q119.16805 307.69376 119.4493 307.6625ZM126.8243 308.6L125.77743 308.6L125.77743 301.88126Q125.3868 302.24063 124.7618 302.61563Q124.15243 302.975 123.66805 303.14688L123.66805 302.13126Q124.54305 301.70938 125.1993 301.13126Q125.87118 300.5375 126.15243 299.975L126.8243 299.975L126.8243 308.6Z" fill-rule="nonzero"/><path fill="#000000" d="M135.81354 305.83438L136.87604 305.74063Q136.95416 306.39688 137.23541 306.80313Q137.51666 307.20938 138.09479 307.475Q138.68854 307.725 139.42291 307.725Q140.06354 307.725 140.56354 307.5375Q141.06354 307.33438 141.29791 307.00626Q141.54791 306.6625 141.54791 306.27188Q141.54791 305.86563 141.31354 305.56876Q141.07916 305.25626 140.54791 305.05313Q140.18854 304.9125 139.00104 304.63126Q137.82916 304.35 137.36041 304.1Q136.73541 303.77188 136.43854 303.30313Q136.14166 302.81876 136.14166 302.225Q136.14166 301.58438 136.50104 301.02188Q136.87604 300.44376 137.57916 300.1625Q138.29791 299.86563 139.15729 299.86563Q140.11041 299.86563 140.84479 300.17813Q141.57916 300.475 141.96979 301.08438Q142.36041 301.67813 142.39166 302.42813L141.29791 302.50626Q141.20416 301.69376 140.68854 301.2875Q140.18854 300.86563 139.20416 300.86563Q138.17291 300.86563 137.70416 301.24063Q137.23541 301.61563 137.23541 302.14688Q137.23541 302.61563 137.56354 302.9125Q137.89166 303.20938 139.26666 303.52188Q140.65729 303.83438 141.17291 304.06876Q141.92291 304.42813 142.28229 304.95938Q142.64166 305.475 142.64166 306.17813Q142.64166 306.86563 142.25104 307.475Q141.86041 308.06876 141.12604 308.4125Q140.39166 308.74063 139.46979 308.74063Q138.29791 308.74063 137.50104 308.4125Q136.71979 308.06876 136.26666 307.38126Q135.82916 306.69376 135.81354 305.83438ZM144.06354 310.99063L144.06354 302.38126L145.01666 302.38126L145.01666 303.17813Q145.36041 302.70938 145.78229 302.475Q146.21979 302.24063 146.82916 302.24063Q147.62604 302.24063 148.23541 302.64688Q148.84479 303.05313 149.14166 303.80313Q149.45416 304.55313 149.45416 305.44376Q149.45416 306.39688 149.11041 307.1625Q148.78229 307.92813 148.12604 308.33438Q147.46979 308.74063 146.75104 308.74063Q146.21979 308.74063 145.79791 308.52188Q145.37604 308.2875 145.11041 307.95938L145.11041 310.99063L144.06354 310.99063ZM145.01666 305.52188Q145.01666 306.725 145.50104 307.30313Q145.98541 307.86563 146.67291 307.86563Q147.37604 307.86563 147.87604 307.27188Q148.37604 306.67813 148.37604 305.42813Q148.37604 304.24063 147.89166 303.6625Q147.40729 303.06876 146.71979 303.06876Q146.04791 303.06876 145.53229 303.69376Q145.01666 304.31876 145.01666 305.52188ZM151.04791 308.6L151.04791 302.38126L152.00104 302.38126L152.00104 303.31876Q152.36041 302.6625 152.65729 302.45938Q152.96979 302.24063 153.34479 302.24063Q153.87604 302.24063 154.42291 302.56876L154.06354 303.55313Q153.67291 303.31876 153.29791 303.31876Q152.93854 303.31876 152.65729 303.5375Q152.39166 303.74063 152.28229 304.11563Q152.09479 304.67813 152.09479 305.33438L152.09479 308.6L151.04791 308.6ZM155.06354 301.225L155.06354 300.00626L156.12604 300.00626L156.12604 301.225L155.06354 301.225ZM155.06354 308.6L155.06354 302.38126L156.12604 302.38126L156.12604 308.6L155.06354 308.6ZM158.06354 308.6L158.06354 302.38126L159.00104 302.38126L159.00104 303.25626Q159.68854 302.24063 160.98541 302.24063Q161.54791 302.24063 162.01666 302.44376Q162.50104 302.64688 162.73541 302.975Q162.96979 303.30313 163.06354 303.74063Q163.11041 304.0375 163.11041 304.77188L163.11041 308.6L162.06354 308.6L162.06354 304.81876Q162.06354 304.1625 161.93854 303.85Q161.81354 303.5375 161.50104 303.35Q161.18854 303.14688 160.76666 303.14688Q160.09479 303.14688 159.59479 303.58438Q159.11041 304.00626 159.11041 305.19376L159.11041 308.6L158.06354 308.6ZM167.36041 307.6625L167.51666 308.58438Q167.06354 308.67813 166.71979 308.67813Q166.14166 308.67813 165.82916 308.50626Q165.51666 308.31876 165.37604 308.02188Q165.25104 307.725 165.25104 306.77188L165.25104 303.19376L164.48541 303.19376L164.48541 302.38126L165.25104 302.38126L165.25104 300.83438L166.29791 300.20938L166.29791 302.38126L167.36041 302.38126L167.36041 303.19376L166.29791 303.19376L166.29791 306.83438Q166.29791 307.2875 166.34479 307.4125Q166.40729 307.5375 166.53229 307.61563Q166.65729 307.69376 166.89166 307.69376Q167.07916 307.69376 167.36041 307.6625ZM176.31354 307.58438L176.31354 308.6L170.62604 308.6Q170.62604 308.225 170.75104 307.86563Q170.96979 307.2875 171.43854 306.725Q171.92291 306.1625 172.82916 305.42813Q174.23541 304.27188 174.71979 303.6Q175.21979 302.92813 175.21979 302.33438Q175.21979 301.70938 174.76666 301.2875Q174.31354 300.85 173.59479 300.85Q172.82916 300.85 172.37604 301.30313Q171.92291 301.75626 171.90729 302.56876L170.82916 302.45938Q170.93854 301.24063 171.65729 300.61563Q172.39166 299.975 173.62604 299.975Q174.86041 299.975 175.57916 300.6625Q176.29791 301.35 176.29791 302.36563Q176.29791 302.88126 176.07916 303.38126Q175.87604 303.86563 175.37604 304.42813Q174.89166 304.975 173.76666 305.92813Q172.81354 306.725 172.53229 307.02188Q172.26666 307.30313 172.09479 307.58438L176.31354 307.58438Z" fill-rule="nonzero"/><path fill="#000000" d="M183.72466 305.83438L184.78716 305.74063Q184.86528 306.39688 185.14653 306.80313Q185.42778 307.20938 186.0059 307.475Q186.59966 307.725 187.33403 307.725Q187.97466 307.725 188.47466 307.5375Q188.97466 307.33438 189.20903 307.00626Q189.45903 306.6625 189.45903 306.27188Q189.45903 305.86563 189.22466 305.56876Q188.99028 305.25626 188.45903 305.05313Q188.09966 304.9125 186.91216 304.63126Q185.74028 304.35 185.27153 304.1Q184.64653 303.77188 184.34966 303.30313Q184.05278 302.81876 184.05278 302.225Q184.05278 301.58438 184.41216 301.02188Q184.78716 300.44376 185.49028 300.1625Q186.20903 299.86563 187.0684 299.86563Q188.02153 299.86563 188.7559 300.17813Q189.49028 300.475 189.8809 301.08438Q190.27153 301.67813 190.30278 302.42813L189.20903 302.50626Q189.11528 301.69376 188.59966 301.2875Q188.09966 300.86563 187.11528 300.86563Q186.08403 300.86563 185.61528 301.24063Q185.14653 301.61563 185.14653 302.14688Q185.14653 302.61563 185.47466 302.9125Q185.80278 303.20938 187.17778 303.52188Q188.5684 303.83438 189.08403 304.06876Q189.83403 304.42813 190.1934 304.95938Q190.55278 305.475 190.55278 306.17813Q190.55278 306.86563 190.16216 307.475Q189.77153 308.06876 189.03716 308.4125Q188.30278 308.74063 187.3809 308.74063Q186.20903 308.74063 185.41216 308.4125Q184.6309 308.06876 184.17778 307.38126Q183.74028 306.69376 183.72466 305.83438ZM191.97466 310.99063L191.97466 302.38126L192.92778 302.38126L192.92778 303.17813Q193.27153 302.70938 193.6934 302.475Q194.1309 302.24063 194.74028 302.24063Q195.53716 302.24063 196.14653 302.64688Q196.7559 303.05313 197.05278 303.80313Q197.36528 304.55313 197.36528 305.44376Q197.36528 306.39688 197.02153 307.1625Q196.6934 307.92813 196.03716 308.33438Q195.3809 308.74063 194.66216 308.74063Q194.1309 308.74063 193.70903 308.52188Q193.28716 308.2875 193.02153 307.95938L193.02153 310.99063L191.97466 310.99063ZM192.92778 305.52188Q192.92778 306.725 193.41216 307.30313Q193.89653 307.86563 194.58403 307.86563Q195.28716 307.86563 195.78716 307.27188Q196.28716 306.67813 196.28716 305.42813Q196.28716 304.24063 195.80278 303.6625Q195.3184 303.06876 194.6309 303.06876Q193.95903 303.06876 193.4434 303.69376Q192.92778 304.31876 192.92778 305.52188ZM198.95903 308.6L198.95903 302.38126L199.91216 302.38126L199.91216 303.31876Q200.27153 302.6625 200.5684 302.45938Q200.8809 302.24063 201.2559 302.24063Q201.78716 302.24063 202.33403 302.56876L201.97466 303.55313Q201.58403 303.31876 201.20903 303.31876Q200.84966 303.31876 200.5684 303.5375Q200.30278 303.74063 200.1934 304.11563Q200.0059 304.67813 200.0059 305.33438L200.0059 308.6L198.95903 308.6ZM202.97466 301.225L202.97466 300.00626L204.03716 300.00626L204.03716 301.225L202.97466 301.225ZM202.97466 308.6L202.97466 302.38126L204.03716 302.38126L204.03716 308.6L202.97466 308.6ZM205.97466 308.6L205.97466 302.38126L206.91216 302.38126L206.91216 303.25626Q207.59966 302.24063 208.89653 302.24063Q209.45903 302.24063 209.92778 302.44376Q210.41216 302.64688 210.64653 302.975Q210.8809 303.30313 210.97466 303.74063Q211.02153 304.0375 211.02153 304.77188L211.02153 308.6L209.97466 308.6L209.97466 304.81876Q209.97466 304.1625 209.84966 303.85Q209.72466 303.5375 209.41216 303.35Q209.09966 303.14688 208.67778 303.14688Q208.0059 303.14688 207.5059 303.58438Q207.02153 304.00626 207.02153 305.19376L207.02153 308.6L205.97466 308.6ZM215.27153 307.6625L215.42778 308.58438Q214.97466 308.67813 214.6309 308.67813Q214.05278 308.67813 213.74028 308.50626Q213.42778 308.31876 213.28716 308.02188Q213.16216 307.725 213.16216 306.77188L213.16216 303.19376L212.39653 303.19376L212.39653 302.38126L213.16216 302.38126L213.16216 300.83438L214.20903 300.20938L214.20903 302.38126L215.27153 302.38126L215.27153 303.19376L214.20903 303.19376L214.20903 306.83438Q214.20903 307.2875 214.2559 307.4125Q214.3184 307.5375 214.4434 307.61563Q214.5684 307.69376 214.80278 307.69376Q214.99028 307.69376 215.27153 307.6625ZM218.67778 306.33438L219.74028 306.19376Q219.91216 307.08438 220.34966 307.49063Q220.78716 307.88126 221.41216 307.88126Q222.16216 307.88126 222.67778 307.36563Q223.1934 306.85 223.1934 306.08438Q223.1934 305.36563 222.70903 304.89688Q222.24028 304.4125 221.5059 304.4125Q221.20903 304.4125 220.7559 304.5375L220.8809 303.6Q220.99028 303.61563 221.05278 303.61563Q221.72466 303.61563 222.2559 303.27188Q222.80278 302.9125 222.80278 302.17813Q222.80278 301.6 222.41216 301.225Q222.02153 300.83438 221.39653 300.83438Q220.78716 300.83438 220.36528 301.225Q219.95903 301.61563 219.84966 302.38126L218.78716 302.19376Q218.97466 301.14688 219.66216 300.56876Q220.34966 299.975 221.36528 299.975Q222.0684 299.975 222.66216 300.2875Q223.2559 300.58438 223.5684 301.1Q223.8809 301.61563 223.8809 302.20938Q223.8809 302.75626 223.58403 303.225Q223.28716 303.67813 222.70903 303.94376Q223.45903 304.11563 223.8809 304.67813Q224.30278 305.225 224.30278 306.06876Q224.30278 307.19376 223.47466 307.975Q222.66216 308.75626 221.41216 308.75626Q220.28716 308.75626 219.53716 308.08438Q218.78716 307.39688 218.67778 306.33438Z" fill-rule="nonzero"/><path fill="#000000" d="M231.63576 305.83438L232.69826 305.74063Q232.77638 306.39688 233.05763 306.80313Q233.33888 307.20938 233.917 307.475Q234.51076 307.725 235.24513 307.725Q235.88576 307.725 236.38576 307.5375Q236.88576 307.33438 237.12013 307.00626Q237.37013 306.6625 237.37013 306.27188Q237.37013 305.86563 237.13576 305.56876Q236.90138 305.25626 236.37013 305.05313Q236.01076 304.9125 234.82326 304.63126Q233.65138 304.35 233.18263 304.1Q232.55763 303.77188 232.26076 303.30313Q231.96388 302.81876 231.96388 302.225Q231.96388 301.58438 232.32326 301.02188Q232.69826 300.44376 233.40138 300.1625Q234.12013 299.86563 234.9795 299.86563Q235.93263 299.86563 236.667 300.17813Q237.40138 300.475 237.792 301.08438Q238.18263 301.67813 238.21388 302.42813L237.12013 302.50626Q237.02638 301.69376 236.51076 301.2875Q236.01076 300.86563 235.02638 300.86563Q233.99513 300.86563 233.52638 301.24063Q233.05763 301.61563 233.05763 302.14688Q233.05763 302.61563 233.38576 302.9125Q233.71388 303.20938 235.08888 303.52188Q236.4795 303.83438 236.99513 304.06876Q237.74513 304.42813 238.1045 304.95938Q238.46388 305.475 238.46388 306.17813Q238.46388 306.86563 238.07326 307.475Q237.68263 308.06876 236.94826 308.4125Q236.21388 308.74063 235.292 308.74063Q234.12013 308.74063 233.32326 308.4125Q232.542 308.06876 232.08888 307.38126Q231.65138 306.69376 231.63576 305.83438ZM239.88576 310.99063L239.88576 302.38126L240.83888 302.38126L240.83888 303.17813Q241.18263 302.70938 241.6045 302.475Q242.042 302.24063 242.65138 302.24063Q243.44826 302.24063 244.05763 302.64688Q244.667 303.05313 244.96388 303.80313Q245.27638 304.55313 245.27638 305.44376Q245.27638 306.39688 244.93263 307.1625Q244.6045 307.92813 243.94826 308.33438Q243.292 308.74063 242.57326 308.74063Q242.042 308.74063 241.62013 308.52188Q241.19826 308.2875 240.93263 307.95938L240.93263 310.99063L239.88576 310.99063ZM240.83888 305.52188Q240.83888 306.725 241.32326 307.30313Q241.80763 307.86563 242.49513 307.86563Q243.19826 307.86563 243.69826 307.27188Q244.19826 306.67813 244.19826 305.42813Q244.19826 304.24063 243.71388 303.6625Q243.2295 303.06876 242.542 303.06876Q241.87013 303.06876 241.3545 303.69376Q240.83888 304.31876 240.83888 305.52188ZM246.87013 308.6L246.87013 302.38126L247.82326 302.38126L247.82326 303.31876Q248.18263 302.6625 248.4795 302.45938Q248.792 302.24063 249.167 302.24063Q249.69826 302.24063 250.24513 302.56876L249.88576 303.55313Q249.49513 303.31876 249.12013 303.31876Q248.76076 303.31876 248.4795 303.5375Q248.21388 303.74063 248.1045 304.11563Q247.917 304.67813 247.917 305.33438L247.917 308.6L246.87013 308.6ZM250.88576 301.225L250.88576 300.00626L251.94826 300.00626L251.94826 301.225L250.88576 301.225ZM250.88576 308.6L250.88576 302.38126L251.94826 302.38126L251.94826 308.6L250.88576 308.6ZM253.88576 308.6L253.88576 302.38126L254.82326 302.38126L254.82326 303.25626Q255.51076 302.24063 256.80762 302.24063Q257.37012 302.24063 257.83887 302.44376Q258.32324 302.64688 258.55762 302.975Q258.792 303.30313 258.88574 303.74063Q258.93262 304.0375 258.93262 304.77188L258.93262 308.6L257.88574 308.6L257.88574 304.81876Q257.88574 304.1625 257.76074 303.85Q257.63574 303.5375 257.32324 303.35Q257.01074 303.14688 256.58887 303.14688Q255.917 303.14688 255.417 303.58438Q254.93263 304.00626 254.93263 305.19376L254.93263 308.6L253.88576 308.6ZM263.18262 307.6625L263.33887 308.58438Q262.88574 308.67813 262.542 308.67813Q261.96387 308.67813 261.65137 308.50626Q261.33887 308.31876 261.19824 308.02188Q261.07324 307.725 261.07324 306.77188L261.07324 303.19376L260.30762 303.19376L260.30762 302.38126L261.07324 302.38126L261.07324 300.83438L262.12012 300.20938L262.12012 302.38126L263.18262 302.38126L263.18262 303.19376L262.12012 303.19376L262.12012 306.83438Q262.12012 307.2875 262.167 307.4125Q262.2295 307.5375 262.3545 307.61563Q262.4795 307.69376 262.71387 307.69376Q262.90137 307.69376 263.18262 307.6625ZM269.96387 308.6L269.96387 306.5375L266.24512 306.5375L266.24512 305.56876L270.167 300.00626L271.02637 300.00626L271.02637 305.56876L272.18262 305.56876L272.18262 306.5375L271.02637 306.5375L271.02637 308.6L269.96387 308.6ZM269.96387 305.56876L269.96387 301.70938L267.27637 305.56876L269.96387 305.56876Z" fill-rule="nonzero"/><path fill="#000000" d="M279.54688 305.83438L280.60938 305.74063Q280.6875 306.39688 280.96875 306.80313Q281.25 307.20938 281.82812 307.475Q282.42188 307.725 283.15625 307.725Q283.79688 307.725 284.29688 307.5375Q284.79688 307.33438 285.03125 307.00626Q285.28125 306.6625 285.28125 306.27188Q285.28125 305.86563 285.04688 305.56876Q284.8125 305.25626 284.28125 305.05313Q283.92188 304.9125 282.73438 304.63126Q281.5625 304.35 281.09375 304.1Q280.46875 303.77188 280.17188 303.30313Q279.875 302.81876 279.875 302.225Q279.875 301.58438 280.23438 301.02188Q280.60938 300.44376 281.3125 300.1625Q282.03125 299.86563 282.89062 299.86563Q283.84375 299.86563 284.57812 300.17813Q285.3125 300.475 285.70312 301.08438Q286.09375 301.67813 286.125 302.42813L285.03125 302.50626Q284.9375 301.69376 284.42188 301.2875Q283.92188 300.86563 282.9375 300.86563Q281.90625 300.86563 281.4375 301.24063Q280.96875 301.61563 280.96875 302.14688Q280.96875 302.61563 281.29688 302.9125Q281.625 303.20938 283.0 303.52188Q284.39062 303.83438 284.90625 304.06876Q285.65625 304.42813 286.01562 304.95938Q286.375 305.475 286.375 306.17813Q286.375 306.86563 285.98438 307.475Q285.59375 308.06876 284.85938 308.4125Q284.125 308.74063 283.20312 308.74063Q282.03125 308.74063 281.23438 308.4125Q280.45312 308.06876 280.0 307.38126Q279.5625 306.69376 279.54688 305.83438ZM287.79688 310.99063L287.79688 302.38126L288.75 302.38126L288.75 303.17813Q289.09375 302.70938 289.51562 302.475Q289.95312 302.24063 290.5625 302.24063Q291.35938 302.24063 291.96875 302.64688Q292.57812 303.05313 292.875 303.80313Q293.1875 304.55313 293.1875 305.44376Q293.1875 306.39688 292.84375 307.1625Q292.51562 307.92813 291.85938 308.33438Q291.20312 308.74063 290.48438 308.74063Q289.95312 308.74063 289.53125 308.52188Q289.10938 308.2875 288.84375 307.95938L288.84375 310.99063L287.79688 310.99063ZM288.75 305.52188Q288.75 306.725 289.23438 307.30313Q289.71875 307.86563 290.40625 307.86563Q291.10938 307.86563 291.60938 307.27188Q292.10938 306.67813 292.10938 305.42813Q292.10938 304.24063 291.625 303.6625Q291.14062 303.06876 290.45312 303.06876Q289.78125 303.06876 289.26562 303.69376Q288.75 304.31876 288.75 305.52188ZM294.78125 308.6L294.78125 302.38126L295.73438 302.38126L295.73438 303.31876Q296.09375 302.6625 296.39062 302.45938Q296.70312 302.24063 297.07812 302.24063Q297.60938 302.24063 298.15625 302.56876L297.79688 303.55313Q297.40625 303.31876 297.03125 303.31876Q296.67188 303.31876 296.39062 303.5375Q296.125 303.74063 296.01562 304.11563Q295.82812 304.67813 295.82812 305.33438L295.82812 308.6L294.78125 308.6ZM298.79688 301.225L298.79688 300.00626L299.85938 300.00626L299.85938 301.225L298.79688 301.225ZM298.79688 308.6L298.79688 302.38126L299.85938 302.38126L299.85938 308.6L298.79688 308.6ZM301.79688 308.6L301.79688 302.38126L302.73438 302.38126L302.73438 303.25626Q303.42188 302.24063 304.71875 302.24063Q305.28125 302.24063 305.75 302.44376Q306.23438 302.64688 306.46875 302.975Q306.70312 303.30313 306.79688 303.74063Q306.84375 304.0375 306.84375 304.77188L306.84375 308.6L305.79688 308.6L305.79688 304.81876Q305.79688 304.1625 305.67188 303.85Q305.54688 303.5375 305.23438 303.35Q304.92188 303.14688 304.5 303.14688Q303.82812 303.14688 303.32812 303.58438Q302.84375 304.00626 302.84375 305.19376L302.84375 308.6L301.79688 308.6ZM311.09375 307.6625L311.25 308.58438Q310.79688 308.67813 310.45312 308.67813Q309.875 308.67813 309.5625 308.50626Q309.25 308.31876 309.10938 308.02188Q308.98438 307.725 308.98438 306.77188L308.98438 303.19376L308.21875 303.19376L308.21875 302.38126L308.98438 302.38126L308.98438 300.83438L310.03125 300.20938L310.03125 302.38126L311.09375 302.38126L311.09375 303.19376L310.03125 303.19376L310.03125 306.83438Q310.03125 307.2875 310.07812 307.4125Q310.14062 307.5375 310.26562 307.61563Q310.39062 307.69376 310.625 307.69376Q310.8125 307.69376 311.09375 307.6625ZM314.5 306.35L315.60938 306.25626Q315.73438 307.06876 316.17188 307.475Q316.625 307.88126 317.26562 307.88126Q318.01562 307.88126 318.54688 307.30313Q319.07812 306.725 319.07812 305.7875Q319.07812 304.88126 318.5625 304.36563Q318.0625 303.83438 317.23438 303.83438Q316.73438 303.83438 316.3125 304.06876Q315.90625 304.30313 315.67188 304.6625L314.6875 304.5375L315.51562 300.13126L319.79688 300.13126L319.79688 301.13126L316.35938 301.13126L315.90625 303.44376Q316.67188 302.89688 317.51562 302.89688Q318.64062 302.89688 319.40625 303.67813Q320.1875 304.45938 320.1875 305.69376Q320.1875 306.85 319.51562 307.70938Q318.6875 308.74063 317.26562 308.74063Q316.09375 308.74063 315.34375 308.08438Q314.60938 307.42813 314.5 306.35Z" fill-rule="nonzero"/><path fill="#000000" d="M327.45798 305.83438L328.52048 305.74063Q328.5986 306.39688 328.87985 306.80313Q329.1611 307.20938 329.73923 307.475Q330.33298 307.725 331.06735 307.725Q331.70798 307.725 332.20798 307.5375Q332.70798 307.33438 332.94235 307.00626Q333.19235 306.6625 333.19235 306.27188Q333.19235 305.86563 332.95798 305.56876Q332.7236 305.25626 332.19235 305.05313Q331.83298 304.9125 330.64548 304.63126Q329.4736 304.35 329.00485 304.1Q328.37985 303.77188 328.08298 303.30313Q327.7861 302.81876 327.7861 302.225Q327.7861 301.58438 328.14548 301.02188Q328.52048 300.44376 329.2236 300.1625Q329.94235 299.86563 330.80173 299.86563Q331.75485 299.86563 332.48923 300.17813Q333.2236 300.475 333.61423 301.08438Q334.00485 301.67813 334.0361 302.42813L332.94235 302.50626Q332.8486 301.69376 332.33298 301.2875Q331.83298 300.86563 330.8486 300.86563Q329.81735 300.86563 329.3486 301.24063Q328.87985 301.61563 328.87985 302.14688Q328.87985 302.61563 329.20798 302.9125Q329.5361 303.20938 330.9111 303.52188Q332.30173 303.83438 332.81735 304.06876Q333.56735 304.42813 333.92673 304.95938Q334.2861 305.475 334.2861 306.17813Q334.2861 306.86563 333.89548 307.475Q333.50485 308.06876 332.77048 308.4125Q332.0361 308.74063 331.11423 308.74063Q329.94235 308.74063 329.14548 308.4125Q328.36423 308.06876 327.9111 307.38126Q327.4736 306.69376 327.45798 305.83438ZM335.70798 310.99063L335.70798 302.38126L336.6611 302.38126L336.6611 303.17813Q337.00485 302.70938 337.42673 302.475Q337.86423 302.24063 338.4736 302.24063Q339.27048 302.24063 339.87985 302.64688Q340.48923 303.05313 340.7861 303.80313Q341.0986 304.55313 341.0986 305.44376Q341.0986 306.39688 340.75485 307.1625Q340.42673 307.92813 339.77048 308.33438Q339.11423 308.74063 338.39548 308.74063Q337.86423 308.74063 337.44235 308.52188Q337.02048 308.2875 336.75485 307.95938L336.75485 310.99063L335.70798 310.99063ZM336.6611 305.52188Q336.6611 306.725 337.14548 307.30313Q337.62985 307.86563 338.31735 307.86563Q339.02048 307.86563 339.52048 307.27188Q340.02048 306.67813 340.02048 305.42813Q340.02048 304.24063 339.5361 303.6625Q339.05173 303.06876 338.36423 303.06876Q337.69235 303.06876 337.17673 303.69376Q336.6611 304.31876 336.6611 305.52188ZM342.69235 308.6L342.69235 302.38126L343.64548 302.38126L343.64548 303.31876Q344.00485 302.6625 344.30173 302.45938Q344.61423 302.24063 344.98923 302.24063Q345.52048 302.24063 346.06735 302.56876L345.70798 303.55313Q345.31735 303.31876 344.94235 303.31876Q344.58298 303.31876 344.30173 303.5375Q344.0361 303.74063 343.92673 304.11563Q343.73923 304.67813 343.73923 305.33438L343.73923 308.6L342.69235 308.6ZM346.70798 301.225L346.70798 300.00626L347.77048 300.00626L347.77048 301.225L346.70798 301.225ZM346.70798 308.6L346.70798 302.38126L347.77048 302.38126L347.77048 308.6L346.70798 308.6ZM349.70798 308.6L349.70798 302.38126L350.64548 302.38126L350.64548 303.25626Q351.33298 302.24063 352.62985 302.24063Q353.19235 302.24063 353.6611 302.44376Q354.14548 302.64688 354.37985 302.975Q354.61423 303.30313 354.70798 303.74063Q354.75485 304.0375 354.75485 304.77188L354.75485 308.6L353.70798 308.6L353.70798 304.81876Q353.70798 304.1625 353.58298 303.85Q353.45798 303.5375 353.14548 303.35Q352.83298 303.14688 352.4111 303.14688Q351.73923 303.14688 351.23923 303.58438Q350.75485 304.00626 350.75485 305.19376L350.75485 308.6L349.70798 308.6ZM359.00485 307.6625L359.1611 308.58438Q358.70798 308.67813 358.36423 308.67813Q357.7861 308.67813 357.4736 308.50626Q357.1611 308.31876 357.02048 308.02188Q356.89548 307.725 356.89548 306.77188L356.89548 303.19376L356.12985 303.19376L356.12985 302.38126L356.89548 302.38126L356.89548 300.83438L357.94235 300.20938L357.94235 302.38126L359.00485 302.38126L359.00485 303.19376L357.94235 303.19376L357.94235 306.83438Q357.94235 307.2875 357.98923 307.4125Q358.05173 307.5375 358.17673 307.61563Q358.30173 307.69376 358.5361 307.69376Q358.7236 307.69376 359.00485 307.6625ZM367.87985 302.11563L366.83298 302.19376Q366.69235 301.56876 366.44235 301.2875Q366.00485 300.83438 365.37985 300.83438Q364.87985 300.83438 364.48923 301.11563Q364.00485 301.49063 363.70798 302.19376Q363.42673 302.88126 363.4111 304.1625Q363.7861 303.58438 364.33298 303.30313Q364.89548 303.02188 365.50485 303.02188Q366.55173 303.02188 367.2861 303.80313Q368.0361 304.58438 368.0361 305.80313Q368.0361 306.61563 367.67673 307.31876Q367.33298 308.00626 366.7236 308.38126Q366.11423 308.74063 365.3486 308.74063Q364.02048 308.74063 363.19235 307.77188Q362.36423 306.80313 362.36423 304.58438Q362.36423 302.08438 363.2861 300.95938Q364.08298 299.975 365.44235 299.975Q366.45798 299.975 367.0986 300.55313Q367.75485 301.11563 367.87985 302.11563ZM363.58298 305.81876Q363.58298 306.36563 363.80173 306.86563Q364.0361 307.35 364.44235 307.61563Q364.86423 307.88126 365.33298 307.88126Q365.98923 307.88126 366.4736 307.35Q366.95798 306.80313 366.95798 305.88126Q366.95798 304.99063 366.4736 304.475Q366.00485 303.95938 365.2861 303.95938Q364.56735 303.95938 364.06735 304.475Q363.58298 304.99063 363.58298 305.81876Z" fill-rule="nonzero"/><path fill="#000000" d="M375.3691 305.83438L376.4316 305.74063Q376.50974 306.39688 376.791 306.80313Q377.07224 307.20938 377.65036 307.475Q378.2441 307.725 378.9785 307.725Q379.6191 307.725 380.1191 307.5375Q380.6191 307.33438 380.8535 307.00626Q381.1035 306.6625 381.1035 306.27188Q381.1035 305.86563 380.8691 305.56876Q380.63474 305.25626 380.1035 305.05313Q379.7441 304.9125 378.5566 304.63126Q377.38474 304.35 376.916 304.1Q376.291 303.77188 375.9941 303.30313Q375.69724 302.81876 375.69724 302.225Q375.69724 301.58438 376.0566 301.02188Q376.4316 300.44376 377.13474 300.1625Q377.8535 299.86563 378.71286 299.86563Q379.666 299.86563 380.40036 300.17813Q381.13474 300.475 381.52536 301.08438Q381.916 301.67813 381.94724 302.42813L380.8535 302.50626Q380.75974 301.69376 380.2441 301.2875Q379.7441 300.86563 378.75974 300.86563Q377.7285 300.86563 377.25974 301.24063Q376.791 301.61563 376.791 302.14688Q376.791 302.61563 377.1191 302.9125Q377.44724 303.20938 378.82224 303.52188Q380.21286 303.83438 380.7285 304.06876Q381.4785 304.42813 381.83786 304.95938Q382.19724 305.475 382.19724 306.17813Q382.19724 306.86563 381.8066 307.475Q381.416 308.06876 380.6816 308.4125Q379.94724 308.74063 379.02536 308.74063Q377.8535 308.74063 377.0566 308.4125Q376.27536 308.06876 375.82224 307.38126Q375.38474 306.69376 375.3691 305.83438ZM383.6191 310.99063L383.6191 302.38126L384.57224 302.38126L384.57224 303.17813Q384.916 302.70938 385.33786 302.475Q385.77536 302.24063 386.38474 302.24063Q387.1816 302.24063 387.791 302.64688Q388.40036 303.05313 388.69724 303.80313Q389.00974 304.55313 389.00974 305.44376Q389.00974 306.39688 388.666 307.1625Q388.33786 307.92813 387.6816 308.33438Q387.02536 308.74063 386.3066 308.74063Q385.77536 308.74063 385.3535 308.52188Q384.9316 308.2875 384.666 307.95938L384.666 310.99063L383.6191 310.99063ZM384.57224 305.52188Q384.57224 306.725 385.0566 307.30313Q385.541 307.86563 386.2285 307.86563Q386.9316 307.86563 387.4316 307.27188Q387.9316 306.67813 387.9316 305.42813Q387.9316 304.24063 387.44724 303.6625Q386.96286 303.06876 386.27536 303.06876Q385.6035 303.06876 385.08786 303.69376Q384.57224 304.31876 384.57224 305.52188ZM390.6035 308.6L390.6035 302.38126L391.5566 302.38126L391.5566 303.31876Q391.916 302.6625 392.21286 302.45938Q392.52536 302.24063 392.90036 302.24063Q393.4316 302.24063 393.9785 302.56876L393.6191 303.55313Q393.2285 303.31876 392.8535 303.31876Q392.4941 303.31876 392.21286 303.5375Q391.94724 303.74063 391.83786 304.11563Q391.65036 304.67813 391.65036 305.33438L391.65036 308.6L390.6035 308.6ZM394.6191 301.225L394.6191 300.00626L395.6816 300.00626L395.6816 301.225L394.6191 301.225ZM394.6191 308.6L394.6191 302.38126L395.6816 302.38126L395.6816 308.6L394.6191 308.6ZM397.6191 308.6L397.6191 302.38126L398.5566 302.38126L398.5566 303.25626Q399.2441 302.24063 400.541 302.24063Q401.1035 302.24063 401.57224 302.44376Q402.0566 302.64688 402.291 302.975Q402.52536 303.30313 402.6191 303.74063Q402.666 304.0375 402.666 304.77188L402.666 308.6L401.6191 308.6L401.6191 304.81876Q401.6191 304.1625 401.4941 303.85Q401.3691 303.5375 401.0566 303.35Q400.7441 303.14688 400.32224 303.14688Q399.65036 303.14688 399.15036 303.58438Q398.666 304.00626 398.666 305.19376L398.666 308.6L397.6191 308.6ZM406.916 307.6625L407.07224 308.58438Q406.6191 308.67813 406.27536 308.67813Q405.69724 308.67813 405.38474 308.50626Q405.07224 308.31876 404.9316 308.02188Q404.8066 307.725 404.8066 306.77188L404.8066 303.19376L404.041 303.19376L404.041 302.38126L404.8066 302.38126L404.8066 300.83438L405.8535 300.20938L405.8535 302.38126L406.916 302.38126L406.916 303.19376L405.8535 303.19376L405.8535 306.83438Q405.8535 307.2875 405.90036 307.4125Q405.96286 307.5375 406.08786 307.61563Q406.21286 307.69376 406.44724 307.69376Q406.63474 307.69376 406.916 307.6625ZM410.38474 301.13126L410.38474 300.11563L415.94724 300.11563L415.94724 300.94376Q415.13474 301.81876 414.32224 303.27188Q413.52536 304.70938 413.08786 306.24063Q412.75974 307.31876 412.6816 308.6L411.58786 308.6Q411.6035 307.58438 411.9785 306.14688Q412.3691 304.70938 413.07224 303.38126Q413.791 302.05313 414.6035 301.13126L410.38474 301.13126Z" fill-rule="nonzero"/><path fill="#000000" d="M423.2802 305.83438L424.3427 305.74063Q424.42084 306.39688 424.7021 306.80313Q424.98334 307.20938 425.56146 307.475Q426.1552 307.725 426.8896 307.725Q427.5302 307.725 428.0302 307.5375Q428.5302 307.33438 428.7646 307.00626Q429.0146 306.6625 429.0146 306.27188Q429.0146 305.86563 428.7802 305.56876Q428.54584 305.25626 428.0146 305.05313Q427.6552 304.9125 426.4677 304.63126Q425.29584 304.35 424.8271 304.1Q424.2021 303.77188 423.9052 303.30313Q423.60834 302.81876 423.60834 302.225Q423.60834 301.58438 423.9677 301.02188Q424.3427 300.44376 425.04584 300.1625Q425.7646 299.86563 426.62396 299.86563Q427.5771 299.86563 428.31146 300.17813Q429.04584 300.475 429.43646 301.08438Q429.8271 301.67813 429.85834 302.42813L428.7646 302.50626Q428.67084 301.69376 428.1552 301.2875Q427.6552 300.86563 426.67084 300.86563Q425.6396 300.86563 425.17084 301.24063Q424.7021 301.61563 424.7021 302.14688Q424.7021 302.61563 425.0302 302.9125Q425.35834 303.20938 426.73334 303.52188Q428.12396 303.83438 428.6396 304.06876Q429.3896 304.42813 429.74896 304.95938Q430.10834 305.475 430.10834 306.17813Q430.10834 306.86563 429.7177 307.475Q429.3271 308.06876 428.5927 308.4125Q427.85834 308.74063 426.93646 308.74063Q425.7646 308.74063 424.9677 308.4125Q424.18646 308.06876 423.73334 307.38126Q423.29584 306.69376 423.2802 305.83438ZM431.5302 310.99063L431.5302 302.38126L432.48334 302.38126L432.48334 303.17813Q432.8271 302.70938 433.24896 302.475Q433.68646 302.24063 434.29584 302.24063Q435.0927 302.24063 435.7021 302.64688Q436.31146 303.05313 436.60834 303.80313Q436.92084 304.55313 436.92084 305.44376Q436.92084 306.39688 436.5771 307.1625Q436.24896 307.92813 435.5927 308.33438Q434.93646 308.74063 434.2177 308.74063Q433.68646 308.74063 433.2646 308.52188Q432.8427 308.2875 432.5771 307.95938L432.5771 310.99063L431.5302 310.99063ZM432.48334 305.52188Q432.48334 306.725 432.9677 307.30313Q433.4521 307.86563 434.1396 307.86563Q434.8427 307.86563 435.3427 307.27188Q435.8427 306.67813 435.8427 305.42813Q435.8427 304.24063 435.35834 303.6625Q434.87396 303.06876 434.18646 303.06876Q433.5146 303.06876 432.99896 303.69376Q432.48334 304.31876 432.48334 305.52188ZM438.5146 308.6L438.5146 302.38126L439.4677 302.38126L439.4677 303.31876Q439.8271 302.6625 440.12396 302.45938Q440.43646 302.24063 440.81146 302.24063Q441.3427 302.24063 441.8896 302.56876L441.5302 303.55313Q441.1396 303.31876 440.7646 303.31876Q440.4052 303.31876 440.12396 303.5375Q439.85834 303.74063 439.74896 304.11563Q439.56146 304.67813 439.56146 305.33438L439.56146 308.6L438.5146 308.6ZM442.5302 301.225L442.5302 300.00626L443.5927 300.00626L443.5927 301.225L442.5302 301.225ZM442.5302 308.6L442.5302 302.38126L443.5927 302.38126L443.5927 308.6L442.5302 308.6ZM445.5302 308.6L445.5302 302.38126L446.4677 302.38126L446.4677 303.25626Q447.1552 302.24063 448.4521 302.24063Q449.0146 302.24063 449.48334 302.44376Q449.9677 302.64688 450.2021 302.975Q450.43646 303.30313 450.5302 303.74063Q450.5771 304.0375 450.5771 304.77188L450.5771 308.6L449.5302 308.6L449.5302 304.81876Q449.5302 304.1625 449.4052 303.85Q449.2802 303.5375 448.9677 303.35Q448.6552 303.14688 448.23334 303.14688Q447.56146 303.14688 447.06146 303.58438Q446.5771 304.00626 446.5771 305.19376L446.5771 308.6L445.5302 308.6ZM454.8271 307.6625L454.98334 308.58438Q454.5302 308.67813 454.18646 308.67813Q453.60834 308.67813 453.29584 308.50626Q452.98334 308.31876 452.8427 308.02188Q452.7177 307.725 452.7177 306.77188L452.7177 303.19376L451.9521 303.19376L451.9521 302.38126L452.7177 302.38126L452.7177 300.83438L453.7646 300.20938L453.7646 302.38126L454.8271 302.38126L454.8271 303.19376L453.7646 303.19376L453.7646 306.83438Q453.7646 307.2875 453.81146 307.4125Q453.87396 307.5375 453.99896 307.61563Q454.12396 307.69376 454.35834 307.69376Q454.54584 307.69376 454.8271 307.6625ZM459.85834 303.94376Q459.2021 303.69376 458.87396 303.25626Q458.56146 302.80313 458.56146 302.19376Q458.56146 301.25626 459.23334 300.61563Q459.92084 299.975 461.0302 299.975Q462.1552 299.975 462.8427 300.63126Q463.5302 301.2875 463.5302 302.225Q463.5302 302.81876 463.2177 303.25626Q462.9052 303.69376 462.2646 303.94376Q463.06146 304.19376 463.4677 304.77188Q463.87396 305.35 463.87396 306.14688Q463.87396 307.24063 463.0927 307.99063Q462.3271 308.74063 461.04584 308.74063Q459.7802 308.74063 458.99896 307.99063Q458.2177 307.24063 458.2177 306.11563Q458.2177 305.27188 458.6396 304.70938Q459.0771 304.14688 459.85834 303.94376ZM459.6396 302.14688Q459.6396 302.75626 460.0302 303.14688Q460.43646 303.5375 461.06146 303.5375Q461.67084 303.5375 462.06146 303.1625Q462.4521 302.77188 462.4521 302.20938Q462.4521 301.63126 462.04584 301.24063Q461.6396 300.83438 461.04584 300.83438Q460.43646 300.83438 460.0302 301.225Q459.6396 301.61563 459.6396 302.14688ZM459.31146 306.11563Q459.31146 306.56876 459.5146 306.99063Q459.73334 307.4125 460.1552 307.64688Q460.5771 307.88126 461.06146 307.88126Q461.81146 307.88126 462.29584 307.39688Q462.79584 306.9125 462.79584 306.1625Q462.79584 305.39688 462.29584 304.89688Q461.79584 304.39688 461.0302 304.39688Q460.2802 304.39688 459.79584 304.89688Q459.31146 305.38126 459.31146 306.11563Z" fill-rule="nonzero"/><path fill="#000000" d="M471.1913 305.83438L472.2538 305.74063Q472.33194 306.39688 472.6132 306.80313Q472.89444 307.20938 473.47256 307.475Q474.0663 307.725 474.8007 307.725Q475.4413 307.725 475.9413 307.5375Q476.4413 307.33438 476.6757 307.00626Q476.9257 306.6625 476.9257 306.27188Q476.9257 305.86563 476.6913 305.56876Q476.45694 305.25626 475.9257 305.05313Q475.5663 304.9125 474.3788 304.63126Q473.20694 304.35 472.7382 304.1Q472.1132 303.77188 471.8163 303.30313Q471.51944 302.81876 471.51944 302.225Q471.51944 301.58438 471.8788 301.02188Q472.2538 300.44376 472.95694 300.1625Q473.6757 299.86563 474.53506 299.86563Q475.4882 299.86563 476.22256 300.17813Q476.95694 300.475 477.34756 301.08438Q477.7382 301.67813 477.76944 302.42813L476.6757 302.50626Q476.58194 301.69376 476.0663 301.2875Q475.5663 300.86563 474.58194 300.86563Q473.5507 300.86563 473.08194 301.24063Q472.6132 301.61563 472.6132 302.14688Q472.6132 302.61563 472.9413 302.9125Q473.26944 303.20938 474.64444 303.52188Q476.03506 303.83438 476.5507 304.06876Q477.3007 304.42813 477.66006 304.95938Q478.01944 305.475 478.01944 306.17813Q478.01944 306.86563 477.6288 307.475Q477.2382 308.06876 476.5038 308.4125Q475.76944 308.74063 474.84756 308.74063Q473.6757 308.74063 472.8788 308.4125Q472.09756 308.06876 471.64444 307.38126Q471.20694 306.69376 471.1913 305.83438ZM479.4413 310.99063L479.4413 302.38126L480.39444 302.38126L480.39444 303.17813Q480.7382 302.70938 481.16006 302.475Q481.59756 302.24063 482.20694 302.24063Q483.0038 302.24063 483.6132 302.64688Q484.22256 303.05313 484.51944 303.80313Q484.83194 304.55313 484.83194 305.44376Q484.83194 306.39688 484.4882 307.1625Q484.16006 307.92813 483.5038 308.33438Q482.84756 308.74063 482.1288 308.74063Q481.59756 308.74063 481.1757 308.52188Q480.7538 308.2875 480.4882 307.95938L480.4882 310.99063L479.4413 310.99063ZM480.39444 305.52188Q480.39444 306.725 480.8788 307.30313Q481.3632 307.86563 482.0507 307.86563Q482.7538 307.86563 483.2538 307.27188Q483.7538 306.67813 483.7538 305.42813Q483.7538 304.24063 483.26944 303.6625Q482.78506 303.06876 482.09756 303.06876Q481.4257 303.06876 480.91006 303.69376Q480.39444 304.31876 480.39444 305.52188ZM486.4257 308.6L486.4257 302.38126L487.3788 302.38126L487.3788 303.31876Q487.7382 302.6625 488.03506 302.45938Q488.34756 302.24063 488.72256 302.24063Q489.2538 302.24063 489.8007 302.56876L489.4413 303.55313Q489.0507 303.31876 488.6757 303.31876Q488.3163 303.31876 488.03506 303.5375Q487.76944 303.74063 487.66006 304.11563Q487.47256 304.67813 487.47256 305.33438L487.47256 308.6L486.4257 308.6ZM490.4413 301.225L490.4413 300.00626L491.5038 300.00626L491.5038 301.225L490.4413 301.225ZM490.4413 308.6L490.4413 302.38126L491.5038 302.38126L491.5038 308.6L490.4413 308.6ZM493.4413 308.6L493.4413 302.38126L494.3788 302.38126L494.3788 303.25626Q495.0663 302.24063 496.3632 302.24063Q496.9257 302.24063 497.39444 302.44376Q497.8788 302.64688 498.1132 302.975Q498.34756 303.30313 498.4413 303.74063Q498.4882 304.0375 498.4882 304.77188L498.4882 308.6L497.4413 308.6L497.4413 304.81876Q497.4413 304.1625 497.3163 303.85Q497.1913 303.5375 496.8788 303.35Q496.5663 303.14688 496.14444 303.14688Q495.47256 303.14688 494.97256 303.58438Q494.4882 304.00626 494.4882 305.19376L494.4882 308.6L493.4413 308.6ZM502.7382 307.6625L502.89444 308.58438Q502.4413 308.67813 502.09756 308.67813Q501.51944 308.67813 501.20694 308.50626Q500.89444 308.31876 500.7538 308.02188Q500.6288 307.725 500.6288 306.77188L500.6288 303.19376L499.8632 303.19376L499.8632 302.38126L500.6288 302.38126L500.6288 300.83438L501.6757 300.20938L501.6757 302.38126L502.7382 302.38126L502.7382 303.19376L501.6757 303.19376L501.6757 306.83438Q501.6757 307.2875 501.72256 307.4125Q501.78506 307.5375 501.91006 307.61563Q502.03506 307.69376 502.26944 307.69376Q502.45694 307.69376 502.7382 307.6625ZM506.3007 306.61563L507.3163 306.52188Q507.4413 307.24063 507.8007 307.56876Q508.1757 307.88126 508.7382 307.88126Q509.22256 307.88126 509.58194 307.6625Q509.95694 307.42813 510.1913 307.06876Q510.4257 306.69376 510.58194 306.06876Q510.7382 305.42813 510.7382 304.77188Q510.7382 304.69376 510.7382 304.55313Q510.4257 305.05313 509.8788 305.38126Q509.33194 305.69376 508.6913 305.69376Q507.6132 305.69376 506.8788 304.92813Q506.14444 304.14688 506.14444 302.88126Q506.14444 301.56876 506.91006 300.77188Q507.6913 299.975 508.84756 299.975Q509.6757 299.975 510.3632 300.42813Q511.0663 300.88126 511.4257 301.725Q511.78506 302.55313 511.78506 304.13126Q511.78506 305.77188 511.4257 306.75626Q511.08194 307.725 510.3632 308.24063Q509.66006 308.74063 508.72256 308.74063Q507.70694 308.74063 507.0663 308.19376Q506.4257 307.63126 506.3007 306.61563ZM510.6132 302.81876Q510.6132 301.9125 510.1288 301.38126Q509.66006 300.85 508.97256 300.85Q508.26944 300.85 507.7382 301.42813Q507.22256 301.99063 507.22256 302.9125Q507.22256 303.725 507.72256 304.24063Q508.22256 304.75626 508.9413 304.75626Q509.6757 304.75626 510.14444 304.24063Q510.6132 303.725 510.6132 302.81876Z" fill-rule="nonzero"/><path fill="#4285f4" d="M136.0 23.4C136.0 26.713709 133.3137 29.4 130.0 29.4C126.686295 29.4 124.0 26.713709 124.0 23.4C124.0 20.086292 126.686295 17.4 130.0 17.4C133.3137 17.4 136.0 20.086292 136.0 23.4Z" fill-rule="nonzero"/><path fill="#1a1a1a" d="M151.0625 24.384375L152.1875 24.68125Q151.82812 26.071875 150.90625 26.80625Q149.98438 27.540625 148.64062 27.540625Q147.25 27.540625 146.375 26.978125Q145.5 26.415625 145.04688 25.353125Q144.59375 24.275 144.59375 23.040625Q144.59375 21.696875 145.10938 20.696875Q145.625 19.696875 146.5625 19.18125Q147.51562 18.665625 148.65625 18.665625Q149.9375 18.665625 150.8125 19.321875Q151.70312 19.978125 152.04688 21.165625L150.92188 21.43125Q150.625 20.49375 150.04688 20.071875Q149.48438 19.634375 148.625 19.634375Q147.64062 19.634375 146.96875 20.11875Q146.3125 20.5875 146.03125 21.384375Q145.76562 22.18125 145.76562 23.040625Q145.76562 24.134375 146.07812 24.946875Q146.40625 25.759375 147.07812 26.165625Q147.75 26.571875 148.54688 26.571875Q149.5 26.571875 150.15625 26.025Q150.82812 25.478125 151.0625 24.384375ZM153.92188 27.4L153.92188 18.80625L157.17188 18.80625Q158.01562 18.80625 158.46875 18.884375Q159.10938 18.99375 159.53125 19.290625Q159.96875 19.5875 160.21875 20.11875Q160.48438 20.65 160.48438 21.290625Q160.48438 22.384375 159.78125 23.15Q159.09375 23.9 157.26562 23.9L155.0625 23.9L155.0625 27.4L153.92188 27.4ZM155.0625 22.9L157.28125 22.9Q158.39062 22.9 158.84375 22.49375Q159.3125 22.071875 159.3125 21.321875Q159.3125 20.790625 159.03125 20.415625Q158.76562 20.025 158.32812 19.9Q158.03125 19.821875 157.26562 19.821875L155.0625 19.821875L155.0625 22.9ZM162.125 27.4L162.125 18.80625L163.25 18.80625L163.25 27.4L162.125 27.4Z" fill-rule="nonzero"/><path fill="#ea4335" d="M192.0 23.4C192.0 26.713709 189.3137 29.4 186.0 29.4C182.6863 29.4 180.0 26.713709 180.0 23.4C180.0 20.086292 182.6863 17.4 186.0 17.4C189.3137 17.4 192.0 20.086292 192.0 23.4Z" fill-rule="nonzero"/><path fill="#1a1a1a" d="M200.875 27.4L200.875 18.80625L202.01562 18.80625L202.01562 26.384375L206.25 26.384375L206.25 27.4L200.875 27.4ZM207.79688 20.025L207.79688 18.80625L208.85938 18.80625L208.85938 20.025L207.79688 20.025ZM207.79688 27.4L207.79688 21.18125L208.85938 21.18125L208.85938 27.4L207.79688 27.4ZM210.79688 27.4L210.79688 21.18125L211.73438 21.18125L211.73438 22.05625Q212.03125 21.5875 212.51562 21.321875Q213.0 21.040625 213.625 21.040625Q214.3125 21.040625 214.75 21.321875Q215.20312 21.603125 215.375 22.11875Q216.125 21.040625 217.29688 21.040625Q218.23438 21.040625 218.71875 21.55625Q219.21875 22.05625 219.21875 23.134375L219.21875 27.4L218.17188 27.4L218.17188 23.478125Q218.17188 22.853125 218.0625 22.571875Q217.96875 22.290625 217.70312 22.11875Q217.4375 21.946875 217.0625 21.946875Q216.40625 21.946875 215.96875 22.384375Q215.54688 22.821875 215.54688 23.790625L215.54688 27.4L214.48438 27.4L214.48438 23.353125Q214.48438 22.65 214.21875 22.30625Q213.96875 21.946875 213.39062 21.946875Q212.9375 21.946875 212.5625 22.18125Q212.1875 22.415625 212.01562 22.86875Q211.84375 23.321875 211.84375 24.165625L211.84375 27.4L210.79688 27.4ZM221.79688 20.025L221.79688 18.80625L222.85938 18.80625L222.85938 20.025L221.79688 20.025ZM221.79688 27.4L221.79688 21.18125L222.85938 21.18125L222.85938 27.4L221.79688 27.4ZM227.09375 26.4625L227.25 27.384375Q226.79688 27.478125 226.45312 27.478125Q225.875 27.478125 225.5625 27.30625Q225.25 27.11875 225.10938 26.821875Q224.98438 26.525 224.98438 25.571875L224.98438 21.99375L224.21875 21.99375L224.21875 21.18125L224.98438 21.18125L224.98438 19.634375L226.03125 19.009375L226.03125 21.18125L227.09375 21.18125L227.09375 21.99375L226.03125 21.99375L226.03125 25.634375Q226.03125 26.0875 226.07812 26.2125Q226.14062 26.3375 226.26562 26.415625Q226.39062 26.49375 226.625 26.49375Q226.8125 26.49375 227.09375 26.4625ZM232.04688 25.4L233.14062 25.525Q232.89062 26.478125 232.1875 27.009375Q231.48438 27.540625 230.40625 27.540625Q229.04688 27.540625 228.23438 26.696875Q227.4375 25.853125 227.4375 24.3375Q227.4375 22.775 228.25 21.915625Q229.0625 21.040625 230.34375 21.040625Q231.59375 21.040625 232.375 21.884375Q233.17188 22.728125 233.17188 24.275Q233.17188 24.36875 233.17188 24.55625L228.53125 24.55625Q228.59375 25.5875 229.10938 26.134375Q229.625 26.665625 230.40625 26.665625Q230.98438 26.665625 231.39062 26.36875Q231.8125 26.05625 232.04688 25.4ZM228.59375 23.696875L232.0625 23.696875Q232.0 22.9 231.67188 22.509375Q231.15625 21.9 230.35938 21.9Q229.625 21.9 229.125 22.384375Q228.64062 22.86875 228.59375 23.696875ZM237.375 25.540625L238.40625 25.384375Q238.5 26.009375 238.89062 26.3375Q239.29688 26.665625 240.03125 26.665625Q240.75 26.665625 241.09375 26.384375Q241.45312 26.0875 241.45312 25.68125Q241.45312 25.321875 241.14062 25.11875Q240.92188 24.978125 240.0625 24.759375Q238.90625 24.4625 238.45312 24.259375Q238.01562 24.040625 237.78125 23.665625Q237.54688 23.290625 237.54688 22.821875Q237.54688 22.415625 237.73438 22.05625Q237.92188 21.696875 238.25 21.4625Q238.5 21.290625 238.92188 21.165625Q239.34375 21.040625 239.84375 21.040625Q240.5625 21.040625 241.10938 21.259375Q241.67188 21.4625 241.9375 21.821875Q242.20312 22.18125 242.29688 22.775L241.26562 22.915625Q241.20312 22.446875 240.85938 22.18125Q240.53125 21.9 239.90625 21.9Q239.1875 21.9 238.875 22.15Q238.5625 22.384375 238.5625 22.7125Q238.5625 22.915625 238.6875 23.071875Q238.82812 23.24375 239.09375 23.353125Q239.25 23.415625 240.03125 23.61875Q241.15625 23.93125 241.59375 24.11875Q242.03125 24.30625 242.28125 24.665625Q242.53125 25.025 242.53125 25.571875Q242.53125 26.103125 242.21875 26.571875Q241.92188 27.025 241.34375 27.290625Q240.76562 27.540625 240.03125 27.540625Q238.8125 27.540625 238.17188 27.040625Q237.54688 26.525 237.375 25.540625ZM248.875 27.4L248.875 26.478125Q248.14062 27.540625 246.89062 27.540625Q246.34375 27.540625 245.85938 27.3375Q245.39062 27.11875 245.15625 26.80625Q244.92188 26.478125 244.82812 26.009375Q244.76562 25.7125 244.76562 25.025L244.76562 21.18125L245.82812 21.18125L245.82812 24.634375Q245.82812 25.446875 245.89062 25.74375Q245.98438 26.15 246.29688 26.4Q246.625 26.634375 247.10938 26.634375Q247.57812 26.634375 247.98438 26.4Q248.40625 26.15 248.57812 25.728125Q248.76562 25.30625 248.76562 24.509375L248.76562 21.18125L249.8125 21.18125L249.8125 27.4L248.875 27.4ZM251.79688 29.790625L251.79688 21.18125L252.75 21.18125L252.75 21.978125Q253.09375 21.509375 253.51562 21.275Q253.95312 21.040625 254.5625 21.040625Q255.35938 21.040625 255.96875 21.446875Q256.57812 21.853125 256.875 22.603125Q257.1875 23.353125 257.1875 24.24375Q257.1875 25.196875 256.84375 25.9625Q256.51562 26.728125 255.85938 27.134375Q255.20312 27.540625 254.48438 27.540625Q253.95312 27.540625 253.53125 27.321875Q253.10938 27.0875 252.84375 26.759375L252.84375 29.790625L251.79688 29.790625ZM252.75 24.321875Q252.75 25.525 253.23438 26.103125Q253.71875 26.665625 254.40625 26.665625Q255.10938 26.665625 255.60938 26.071875Q256.10938 25.478125 256.10938 24.228125Q256.10938 23.040625 255.625 22.4625Q255.14062 21.86875 254.45312 21.86875Q253.78125 21.86875 253.26562 22.49375Q252.75 23.11875 252.75 24.321875ZM263.04688 25.4L264.14062 25.525Q263.89062 26.478125 263.1875 27.009375Q262.48438 27.540625 261.40625 27.540625Q260.04688 27.540625 259.23438 26.696875Q258.4375 25.853125 258.4375 24.3375Q258.4375 22.775 259.25 21.915625Q260.0625 21.040625 261.34375 21.040625Q262.59375 21.040625 263.375 21.884375Q264.17188 22.728125 264.17188 24.275Q264.17188 24.36875 264.17188 24.55625L259.53125 24.55625Q259.59375 25.5875 260.10938 26.134375Q260.625 26.665625 261.40625 26.665625Q261.98438 26.665625 262.39062 26.36875Q262.8125 26.05625 263.04688 25.4ZM259.59375 23.696875L263.0625 23.696875Q263.0 22.9 262.67188 22.509375Q262.15625 21.9 261.35938 21.9Q260.625 21.9 260.125 22.384375Q259.64062 22.86875 259.59375 23.696875ZM265.78125 27.4L265.78125 21.18125L266.73438 21.18125L266.73438 22.11875Q267.09375 21.4625 267.39062 21.259375Q267.70312 21.040625 268.07812 21.040625Q268.60938 21.040625 269.15625 21.36875L268.79688 22.353125Q268.40625 22.11875 268.03125 22.11875Q267.67188 22.11875 267.39062 22.3375Q267.125 22.540625 267.01562 22.915625Q266.82812 23.478125 266.82812 24.134375L266.82812 27.4L265.78125 27.4ZM269.79688 20.025L269.79688 18.80625L270.85938 18.80625L270.85938 20.025L269.79688 20.025ZM269.79688 27.4L269.79688 21.18125L270.85938 21.18125L270.85938 27.4L269.79688 27.4ZM272.40625 24.290625Q272.40625 22.55625 273.35938 21.728125Q274.15625 21.040625 275.3125 21.040625Q276.59375 21.040625 277.40625 21.884375Q278.23438 22.7125 278.23438 24.196875Q278.23438 25.4 277.875 26.0875Q277.51562 26.775 276.8125 27.165625Q276.125 27.540625 275.3125 27.540625Q274.01562 27.540625 273.20312 26.7125Q272.40625 25.86875 272.40625 24.290625ZM273.48438 24.290625Q273.48438 25.478125 274.0 26.071875Q274.53125 26.665625 275.3125 26.665625Q276.10938 26.665625 276.625 26.071875Q277.14062 25.478125 277.14062 24.259375Q277.14062 23.103125 276.60938 22.509375Q276.09375 21.915625 275.3125 21.915625Q274.53125 21.915625 274.0 22.509375Q273.48438 23.0875 273.48438 24.290625ZM279.78125 27.4L279.78125 21.18125L280.73438 21.18125L280.73438 22.11875Q281.09375 21.4625 281.39062 21.259375Q281.70312 21.040625 282.07812 21.040625Q282.60938 21.040625 283.15625 21.36875L282.79688 22.353125Q282.40625 22.11875 282.03125 22.11875Q281.67188 22.11875 281.39062 22.3375Q281.125 22.540625 281.01562 22.915625Q280.82812 23.478125 280.82812 24.134375L280.82812 27.4L279.78125 27.4ZM288.04688 25.4L289.14062 25.525Q288.89062 26.478125 288.1875 27.009375Q287.48438 27.540625 286.40625 27.540625Q285.04688 27.540625 284.23438 26.696875Q283.4375 25.853125 283.4375 24.3375Q283.4375 22.775 284.25 21.915625Q285.0625 21.040625 286.34375 21.040625Q287.59375 21.040625 288.375 21.884375Q289.17188 22.728125 289.17188 24.275Q289.17188 24.36875 289.17188 24.55625L284.53125 24.55625Q284.59375 25.5875 285.10938 26.134375Q285.625 26.665625 286.40625 26.665625Q286.98438 26.665625 287.39062 26.36875Q287.8125 26.05625 288.04688 25.4ZM284.59375 23.696875L288.0625 23.696875Q288.0 22.9 287.67188 22.509375Q287.15625 21.9 286.35938 21.9Q285.625 21.9 285.125 22.384375Q284.64062 22.86875 284.59375 23.696875Z" fill-rule="nonzero"/><path fill="#fbbc04" fill-opacity="0.7019608" d="M318.0 23.4C318.0 26.713709 315.31372 29.4 312.0 29.4C308.68628 29.4 306.0 26.713709 306.0 23.4C306.0 20.086292 308.68628 17.4 312.0 17.4C315.31372 17.4 318.0 20.086292 318.0 23.4Z" fill-rule="nonzero"/><path fill="#1a1a1a" d="M326.875 27.4L326.875 18.80625L328.01562 18.80625L328.01562 26.384375L332.25 26.384375L332.25 27.4L326.875 27.4ZM333.79688 20.025L333.79688 18.80625L334.85938 18.80625L334.85938 20.025L333.79688 20.025ZM333.79688 27.4L333.79688 21.18125L334.85938 21.18125L334.85938 27.4L333.79688 27.4ZM336.79688 27.4L336.79688 21.18125L337.73438 21.18125L337.73438 22.05625Q338.03125 21.5875 338.51562 21.321875Q339.0 21.040625 339.625 21.040625Q340.3125 21.040625 340.75 21.321875Q341.20312 21.603125 341.375 22.11875Q342.125 21.040625 343.29688 21.040625Q344.23438 21.040625 344.71875 21.55625Q345.21875 22.05625 345.21875 23.134375L345.21875 27.4L344.17188 27.4L344.17188 23.478125Q344.17188 22.853125 344.0625 22.571875Q343.96875 22.290625 343.70312 22.11875Q343.4375 21.946875 343.0625 21.946875Q342.40625 21.946875 341.96875 22.384375Q341.54688 22.821875 341.54688 23.790625L341.54688 27.4L340.48438 27.4L340.48438 23.353125Q340.48438 22.65 340.21875 22.30625Q339.96875 21.946875 339.39062 21.946875Q338.9375 21.946875 338.5625 22.18125Q338.1875 22.415625 338.01562 22.86875Q337.84375 23.321875 337.84375 24.165625L337.84375 27.4L336.79688 27.4ZM347.79688 20.025L347.79688 18.80625L348.85938 18.80625L348.85938 20.025L347.79688 20.025ZM347.79688 27.4L347.79688 21.18125L348.85938 21.18125L348.85938 27.4L347.79688 27.4ZM353.09375 26.4625L353.25 27.384375Q352.79688 27.478125 352.45312 27.478125Q351.875 27.478125 351.5625 27.30625Q351.25 27.11875 351.10938 26.821875Q350.98438 26.525 350.98438 25.571875L350.98438 21.99375L350.21875 21.99375L350.21875 21.18125L350.98438 21.18125L350.98438 19.634375L352.03125 19.009375L352.03125 21.18125L353.09375 21.18125L353.09375 21.99375L352.03125 21.99375L352.03125 25.634375Q352.03125 26.0875 352.07812 26.2125Q352.14062 26.3375 352.26562 26.415625Q352.39062 26.49375 352.625 26.49375Q352.8125 26.49375 353.09375 26.4625ZM358.04688 25.4L359.14062 25.525Q358.89062 26.478125 358.1875 27.009375Q357.48438 27.540625 356.40625 27.540625Q355.04688 27.540625 354.23438 26.696875Q353.4375 25.853125 353.4375 24.3375Q353.4375 22.775 354.25 21.915625Q355.0625 21.040625 356.34375 21.040625Q357.59375 21.040625 358.375 21.884375Q359.17188 22.728125 359.17188 24.275Q359.17188 24.36875 359.17188 24.55625L354.53125 24.55625Q354.59375 25.5875 355.10938 26.134375Q355.625 26.665625 356.40625 26.665625Q356.98438 26.665625 357.39062 26.36875Q357.8125 26.05625 358.04688 25.4ZM354.59375 23.696875L358.0625 23.696875Q358.0 22.9 357.67188 22.509375Q357.15625 21.9 356.35938 21.9Q355.625 21.9 355.125 22.384375Q354.64062 22.86875 354.59375 23.696875ZM363.79688 20.025L363.79688 18.80625L364.85938 18.80625L364.85938 20.025L363.79688 20.025ZM363.79688 27.4L363.79688 21.18125L364.85938 21.18125L364.85938 27.4L363.79688 27.4ZM366.79688 27.4L366.79688 21.18125L367.73438 21.18125L367.73438 22.05625Q368.42188 21.040625 369.71875 21.040625Q370.28125 21.040625 370.75 21.24375Q371.23438 21.446875 371.46875 21.775Q371.70312 22.103125 371.79688 22.540625Q371.84375 22.8375 371.84375 23.571875L371.84375 27.4L370.79688 27.4L370.79688 23.61875Q370.79688 22.9625 370.67188 22.65Q370.54688 22.3375 370.23438 22.15Q369.92188 21.946875 369.5 21.946875Q368.82812 21.946875 368.32812 22.384375Q367.84375 22.80625 367.84375 23.99375L367.84375 27.4L366.79688 27.4ZM374.04688 27.4L374.04688 21.99375L373.10938 21.99375L373.10938 21.18125L374.04688 21.18125L374.04688 20.509375Q374.04688 19.884375 374.15625 19.5875Q374.3125 19.165625 374.6875 18.915625Q375.07812 18.665625 375.76562 18.665625Q376.21875 18.665625 376.75 18.775L376.59375 19.68125Q376.26562 19.634375 375.96875 19.634375Q375.48438 19.634375 375.28125 19.8375Q375.09375 20.040625 375.09375 20.603125L375.09375 21.18125L376.3125 21.18125L376.3125 21.99375L375.09375 21.99375L375.09375 27.4L374.04688 27.4ZM381.04688 25.4L382.14062 25.525Q381.89062 26.478125 381.1875 27.009375Q380.48438 27.540625 379.40625 27.540625Q378.04688 27.540625 377.23438 26.696875Q376.4375 25.853125 376.4375 24.3375Q376.4375 22.775 377.25 21.915625Q378.0625 21.040625 379.34375 21.040625Q380.59375 21.040625 381.375 21.884375Q382.17188 22.728125 382.17188 24.275Q382.17188 24.36875 382.17188 24.55625L377.53125 24.55625Q377.59375 25.5875 378.10938 26.134375Q378.625 26.665625 379.40625 26.665625Q379.98438 26.665625 380.39062 26.36875Q380.8125 26.05625 381.04688 25.4ZM377.59375 23.696875L381.0625 23.696875Q381.0 22.9 380.67188 22.509375Q380.15625 21.9 379.35938 21.9Q378.625 21.9 378.125 22.384375Q377.64062 22.86875 377.59375 23.696875ZM383.78125 27.4L383.78125 21.18125L384.73438 21.18125L384.73438 22.11875Q385.09375 21.4625 385.39062 21.259375Q385.70312 21.040625 386.07812 21.040625Q386.60938 21.040625 387.15625 21.36875L386.79688 22.353125Q386.40625 22.11875 386.03125 22.11875Q385.67188 22.11875 385.39062 22.3375Q385.125 22.540625 385.01562 22.915625Q384.82812 23.478125 384.82812 24.134375L384.82812 27.4L383.78125 27.4ZM387.79688 20.025L387.79688 18.80625L388.85938 18.80625L388.85938 20.025L387.79688 20.025ZM387.79688 27.4L387.79688 21.18125L388.85938 21.18125L388.85938 27.4L387.79688 27.4ZM390.40625 24.290625Q390.40625 22.55625 391.35938 21.728125Q392.15625 21.040625 393.3125 21.040625Q394.59375 21.040625 395.40625 21.884375Q396.23438 22.7125 396.23438 24.196875Q396.23438 25.4 395.875 26.0875Q395.51562 26.775 394.8125 27.165625Q394.125 27.540625 393.3125 27.540625Q392.01562 27.540625 391.20312 26.7125Q390.40625 25.86875 390.40625 24.290625ZM391.48438 24.290625Q391.48438 25.478125 392.0 26.071875Q392.53125 26.665625 393.3125 26.665625Q394.10938 26.665625 394.625 26.071875Q395.14062 25.478125 395.14062 24.259375Q395.14062 23.103125 394.60938 22.509375Q394.09375 21.915625 393.3125 21.915625Q392.53125 21.915625 392.0 22.509375Q391.48438 23.0875 391.48438 24.290625ZM397.78125 27.4L397.78125 21.18125L398.73438 21.18125L398.73438 22.11875Q399.09375 21.4625 399.39062 21.259375Q399.70312 21.040625 400.07812 21.040625Q400.60938 21.040625 401.15625 21.36875L400.79688 22.353125Q400.40625 22.11875 400.03125 22.11875Q399.67188 22.11875 399.39062 22.3375Q399.125 22.540625 399.01562 22.915625Q398.82812 23.478125 398.82812 24.134375L398.82812 27.4L397.78125 27.4ZM406.04688 25.4L407.14062 25.525Q406.89062 26.478125 406.1875 27.009375Q405.48438 27.540625 404.40625 27.540625Q403.04688 27.540625 402.23438 26.696875Q401.4375 25.853125 401.4375 24.3375Q401.4375 22.775 402.25 21.915625Q403.0625 21.040625 404.34375 21.040625Q405.59375 21.040625 406.375 21.884375Q407.17188 22.728125 407.17188 24.275Q407.17188 24.36875 407.17188 24.55625L402.53125 24.55625Q402.59375 25.5875 403.10938 26.134375Q403.625 26.665625 404.40625 26.665625Q404.98438 26.665625 405.39062 26.36875Q405.8125 26.05625 406.04688 25.4ZM402.59375 23.696875L406.0625 23.696875Q406.0 22.9 405.67188 22.509375Q405.15625 21.9 404.35938 21.9Q403.625 21.9 403.125 22.384375Q402.64062 22.86875 402.59375 23.696875Z" fill-rule="nonzero"/></svg>