<svg version="1.1" viewBox="0.0 0.0 532.0 328.0" fill="none" stroke="none" stroke-linecap="square" stroke-miterlimit="10" width="532" height="328" xmlns:xlink="http://www.w3.org/1999/xlink" xmlns="http://www.w3.org/2000/svg"><path fill="#ffffff" d="M0 0L532.0 0L532.0 328.0L0 328.0L0 0Z" fill-rule="nonzero"/><path stroke="#333333" stroke-width="1.0" stroke-linecap="butt" d="M84.5 271.5L515.5 271.5" fill-rule="nonzero"/><path stroke="#cccccc" stroke-width="1.0" stroke-linecap="butt" d="M84.5 243.5L515.5 243.5" fill-rule="nonzero"/><path stroke="#cccccc" stroke-width="1.0" stroke-linecap="butt" d="M84.5 215.5L515.5 215.5" fill-rule="nonzero"/><path stroke="#cccccc" stroke-width="1.0" stroke-linecap="butt" d="M84.5 187.5L515.5 187.5" fill-rule="nonzero"/><path stroke="#cccccc" stroke-width="1.0" stroke-linecap="butt" d="M84.5 159.5L515.5 159.5" fill-rule="nonzero"/><path stroke="#cccccc" stroke-width="1.0" stroke-linecap="butt" d="M84.5 132.5L515.5 132.5" fill-rule="nonzero"/><path stroke="#cccccc" stroke-width="1.0" stroke-linecap="butt" d="M84.5 104.5L515.5 104.5" fill-rule="nonzero"/><path stroke="#cccccc" stroke-width="1.0" stroke-linecap="butt" d="M84.5 76.5L515.5 76.5" fill-rule="nonzero"/><path stroke="#cccccc" stroke-width="1.0" stroke-linecap="butt" d="M84.5 48.5L515.5 48.5" fill-rule="nonzero"/><path stroke="#000000" stroke-width="1.0" stroke-linecap="butt" d="M515.5 271.5L84.5 271.5" fill-rule="nonzero"/><path stroke="#000000" stroke-width="1.0" stroke-linecap="butt" d="M84.5 271.5L84.5 48.5" fill-rule="nonzero"/><clipPath id="id_0"><path d="M84.4 48.333332L515.6 48.333332L515.6 271.6L84.4 271.6L84.4 48.333332Z" clip-rule="nonzero"/></clipPath><path stroke="#4285f4" stroke-width="2.0" stroke-linecap="butt" clip-path="url(#id_0)" d="M105.96 168.89957C105.96 168.89957 134.70667 166.95433 149.08 166.0378C163.45334 165.12126 177.82666 163.93265 192.2 163.40036C206.57333 162.86809 220.94667 163.02689 235.32 162.84409C249.69333 162.6613 264.06668 162.44324 278.44 162.30362C292.81332 162.164 307.18668 162.2353 321.56 162.00636C335.93332 161.77744 350.30667 161.0535 364.68 160.93004C379.05334 160.80658 393.42667 161.36285 407.8 161.26562C422.17334 161.16841 436.54666 160.67015 450.92 160.34668C465.29333 160.02321 494.04 159.32483 494.04 159.32483" fill-rule="nonzero"/><path stroke="#ea4335" stroke-width="2.0" stroke-linecap="butt" clip-path="url(#id_0)" d="M105.96 148.80333C105.96 148.80333 134.70667 148.80333 149.08 148.80333C163.45334 148.80333 177.82666 148.80333 192.2 148.80333C206.57333 148.80333 220.94667 148.80333 235.32 148.80333C249.69333 148.80333 264.06668 148.80333 278.44 148.80333C292.81332 148.80333 307.18668 148.80333 321.56 148.80333C335.93332 148.80333 350.30667 148.80333 364.68 148.80333C379.05334 148.80333 393.42667 148.80333 407.8 148.80333C422.17334 148.80333 436.54666 148.80333 450.92 148.80333C465.29333 148.80333 494.04 148.80333 494.04 148.80333" fill-rule="nonzero"/><path stroke="#fbbc04" stroke-width="2.0" stroke-linecap="butt" stroke-opacity="0.7019608" clip-path="url(#id_0)" d="M105.96 171.13C105.96 171.13 134.70667 171.13 149.08 171.13C163.45334 171.13 177.82666 171.13 192.2 171.13C206.57333 171.13 220.94667 171.13 235.32 171.13C249.69333 171.13 264.06668 171.13 278.44 171.13C292.81332 171.13 307.18668 171.13 321.56 171.13C335.93332 171.13 350.30667 171.13 364.68 171.13C379.05334 171.13 393.42667 171.13 407.8 171.13C422.17334 171.13 436.54666 171.13 450.92 171.13C465.29333 171.13 494.04 171.13 494.04 171.13" fill-rule="nonzero"/><path fill="#4285f4" clip-path="url(#id_0)" d="M109.46 168.89957C109.46 170.83257 107.893 172.39957 105.96 172.39957C104.027 172.39957 102.46 170.83257 102.46 168.89957C102.46 166.96657 104.027 165.39957 105.96 165.39957C107.893 165.39957 109.46 166.96657 109.46 168.89957Z" fill-rule="nonzero"/><path fill="#4285f4" clip-path="url(#id_0)" d="M152.58 166.0378C152.58 167.9708 151.013 169.5378 149.08 169.5378C147.147 169.5378 145.58 167.9708 145.58 166.0378C145.58 164.1048 147.147 162.5378 149.08 162.5378C151.013 162.5378 152.58 164.1048 152.58 166.0378Z" fill-rule="nonzero"/><path fill="#4285f4" clip-path="url(#id_0)" d="M195.7 163.40036C195.7 165.33336 194.133 166.90036 192.2 166.90036C190.267 166.90036 188.7 165.33336 188.7 163.40036C188.7 161.46736 190.267 159.90036 192.2 159.90036C194.133 159.90036 195.7 161.46736 195.7 163.40036Z" fill-rule="nonzero"/><path fill="#4285f4" clip-path="url(#id_0)" d="M238.82 162.84409C238.82 164.77708 237.25299 166.34409 235.32 166.34409C233.38701 166.34409 231.82 164.77708 231.82 162.84409C231.82 160.91109 233.38701 159.34409 235.32 159.34409C237.25299 159.34409 238.82 160.91109 238.82 162.84409Z" fill-rule="nonzero"/><path fill="#4285f4" clip-path="url(#id_0)" d="M281.94 162.30362C281.94 164.23662 280.373 165.80362 278.44 165.80362C276.507 165.80362 274.94 164.23662 274.94 162.30362C274.94 160.37062 276.507 158.80362 278.44 158.80362C280.373 158.80362 281.94 160.37062 281.94 162.30362Z" fill-rule="nonzero"/><path fill="#4285f4" clip-path="url(#id_0)" d="M325.06 162.00636C325.06 163.93936 323.493 165.50636 321.56 165.50636C319.627 165.50636 318.06 163.93936 318.06 162.00636C318.06 160.07338 319.627 158.50636 321.56 158.50636C323.493 158.50636 325.06 160.07338 325.06 162.00636Z" fill-rule="nonzero"/><path fill="#4285f4" clip-path="url(#id_0)" d="M368.18 160.93004C368.18 162.86304 366.613 164.43004 364.68 164.43004C362.747 164.43004 361.18 162.86304 361.18 160.93004C361.18 158.99704 362.747 157.43004 364.68 157.43004C366.613 157.43004 368.18 158.99704 368.18 160.93004Z" fill-rule="nonzero"/><path fill="#4285f4" clip-path="url(#id_0)" d="M411.3 161.26562C411.3 163.19862 409.733 164.76562 407.8 164.76562C405.867 164.76562 404.3 163.19862 404.3 161.26562C404.3 159.33264 405.867 157.76562 407.8 157.76562C409.733 157.76562 411.3 159.33264 411.3 161.26562Z" fill-rule="nonzero"/><path fill="#4285f4" clip-path="url(#id_0)" d="M454.42 160.34668C454.42 162.27968 452.853 163.84668 450.92 163.84668C448.987 163.84668 447.42 162.27968 447.42 160.34668C447.42 158.41368 448.987 156.84668 450.92 156.84668C452.853 156.84668 454.42 158.41368 454.42 160.34668Z" fill-rule="nonzero"/><path fill="#4285f4" clip-path="url(#id_0)" d="M497.54 159.32483C497.54 161.25781 495.973 162.82483 494.04 162.82483C492.107 162.82483 490.54 161.25781 490.54 159.32483C490.54 157.39183 492.107 155.82483 494.04 155.82483C495.973 155.82483 497.54 157.39183 497.54 159.32483Z" fill-rule="nonzero"/><path fill="#ea4335" clip-path="url(#id_0)" d="M109.46 148.80333C109.46 150.73633 107.893 152.30333 105.96 152.30333C104.027 152.30333 102.46 150.73633 102.46 148.80333C102.46 146.87033 104.027 145.30333 105.96 145.30333C107.893 145.30333 109.46 146.87033 109.46 148.80333Z" fill-rule="nonzero"/><path fill="#ea4335" clip-path="url(#id_0)" d="M152.58 148.80333C152.58 150.73633 151.013 152.30333 149.08 152.30333C147.147 152.30333 145.58 150.73633 145.58 148.80333C145.58 146.87033 147.147 145.30333 149.08 145.30333C151.013 145.30333 152.58 146.87033 152.58 148.80333Z" fill-rule="nonzero"/><path fill="#ea4335" clip-path="url(#id_0)" d="M195.7 148.80333C195.7 150.73633 194.133 152.30333 192.2 152.30333C190.267 152.30333 188.7 150.73633 188.7 148.80333C188.7 146.87033 190.267 145.30333 192.2 145.30333C194.133 145.30333 195.7 146.87033 195.7 148.80333Z" fill-rule="nonzero"/><path fill="#ea4335" clip-path="url(#id_0)" d="M238.82 148.80333C238.82 150.73633 237.25299 152.30333 235.32 152.30333C233.38701 152.30333 231.82 150.73633 231.82 148.80333C231.82 146.87033 233.38701 145.30333 235.32 145.30333C237.25299 145.30333 238.82 146.87033 238.82 148.80333Z" fill-rule="nonzero"/><path fill="#ea4335" clip-path="url(#id_0)" d="M281.94 148.80333C281.94 150.73633 280.373 152.30333 278.44 152.30333C276.507 152.30333 274.94 150.73633 274.94 148.80333C274.94 146.87033 276.507 145.30333 278.44 145.30333C280.373 145.30333 281.94 146.87033 281.94 148.80333Z" fill-rule="nonzero"/><path fill="#ea4335" clip-path="url(#id_0)" d="M325.06 148.80333C325.06 150.73633 323.493 152.30333 321.56 152.30333C319.627 152.30333 318.06 150.73633 318.06 148.80333C318.06 146.87033 319.627 145.30333 321.56 145.30333C323.493 145.30333 325.06 146.87033 325.06 148.80333Z" fill-rule="nonzero"/><path fill="#ea4335" clip-path="url(#id_0)" d="M368.18 148.80333C368.18 150.73633 366.613 152.30333 364.68 152.30333C362.747 152.30333 361.18 150.73633 361.18 148.80333C361.18 146.87033 362.747 145.30333 364.68 145.30333C366.613 145.30333 368.18 146.87033 368.18 148.80333Z" fill-rule="nonzero"/><path fill="#ea4335" clip-path="url(#id_0)" d="M411.3 148.80333C411.3 150.73633 409.733 152.30333 407.8 152.30333C405.867 152.30333 404.3 150.73633 404.3 148.80333C404.3 146.87033 405.867 145.30333 407.8 145.30333C409.733 145.30333 411.3 146.87033 411.3 148.80333Z" fill-rule="nonzero"/><path fill="#ea4335" clip-path="url(#id_0)" d="M454.42 148.80333C454.42 150.73633 452.853 152.30333 450.92 152.30333C448.987 152.30333 447.42 150.73633 447.42 148.80333C447.42 146.87033 448.987 145.30333 450.92 145.30333C452.853 145.30333 454.42 146.87033 454.42 148.80333Z" fill-rule="nonzero"/><path fill="#ea4335" clip-path="url(#id_0)" d="M497.54 148.80333C497.54 150.73633 495.973 152.30333 494.04 152.30333C492.107 152.30333 490.54 150.73633 490.54 148.80333C490.54 146.87033 492.107 145.30333 494.04 145.30333C495.973 145.30333 497.54 146.87033 497.54 148.80333Z" fill-rule="nonzero"/><path fill="#fbbc04" fill-opacity="0.7019608" clip-path="url(#id_0)" d="M109.46 171.13C109.46 173.063 107.893 174.63 105.96 174.63C104.027 174.63 102.46 173.063 102.46 171.13C102.46 169.197 104.027 167.63 105.96 167.63C107.893 167.63 109.46 169.197 109.46 171.13Z" fill-rule="nonzero"/><path fill="#fbbc04" fill-opacity="0.7019608" clip-path="url(#id_0)" d="M152.58 171.13C152.58 173.063 151.013 174.63 149.08 174.63C147.147 174.63 145.58 173.063 145.58 171.13C145.58 169.197 147.147 167.63 149.08 167.63C151.013 167.63 152.58 169.197 152.58 171.13Z" fill-rule="nonzero"/><path fill="#fbbc04" fill-opacity="0.7019608" clip-path="url(#id_0)" d="M195.7 171.13C195.7 173.063 194.133 174.63 192.2 174.63C190.267 174.63 188.7 173.063 188.7 171.13C188.7 169.197 190.267 167.63 192.2 167.63C194.133 167.63 195.7 169.197 195.7 171.13Z" fill-rule="nonzero"/><path fill="#fbbc04" fill-opacity="0.7019608" clip-path="url(#id_0)" d="M238.82 171.13C238.82 173.063 237.25299 174.63 235.32 174.63C233.38701 174.63 231.82 173.063 231.82 171.13C231.82 169.197 233.38701 167.63 235.32 167.63C237.25299 167.63 238.82 169.197 238.82 171.13Z" fill-rule="nonzero"/><path fill="#fbbc04" fill-opacity="0.7019608" clip-path="url(#id_0)" d="M281.94 171.13C281.94 173.063 280.373 174.63 278.44 174.63C276.507 174.63 274.94 173.063 274.94 171.13C274.94 169.197 276.507 167.63 278.44 167.63C280.373 167.63 281.94 169.197 281.94 171.13Z" fill-rule="nonzero"/><path fill="#fbbc04" fill-opacity="0.7019608" clip-path="url(#id_0)" d="M325.06 171.13C325.06 173.063 323.493 174.63 321.56 174.63C319.627 174.63 318.06 173.063 318.06 171.13C318.06 169.197 319.627 167.63 321.56 167.63C323.493 167.63 325.06 169.197 325.06 171.13Z" fill-rule="nonzero"/><path fill="#fbbc04" fill-opacity="0.7019608" clip-path="url(#id_0)" d="M368.18 171.13C368.18 173.063 366.613 174.63 364.68 174.63C362.747 174.63 361.18 173.063 361.18 171.13C361.18 169.197 362.747 167.63 364.68 167.63C366.613 167.63 368.18 169.197 368.18 171.13Z" fill-rule="nonzero"/><path fill="#fbbc04" fill-opacity="0.7019608" clip-path="url(#id_0)" d="M411.3 171.13C411.3 173.063 409.733 174.63 407.8 174.63C405.867 174.63 404.3 173.063 404.3 171.13C404.3 169.197 405.867 167.63 407.8 167.63C409.733 167.63 411.3 169.197 411.3 171.13Z" fill-rule="nonzero"/><path fill="#fbbc04" fill-opacity="0.7019608" clip-path="url(#id_0)" d="M454.42 171.13C454.42 173.063 452.853 174.63 450.92 174.63C448.987 174.63 447.42 173.063 447.42 171.13C447.42 169.197 448.987 167.63 450.92 167.63C452.853 167.63 454.42 169.197 454.42 171.13Z" fill-rule="nonzero"/><path fill="#fbbc04" fill-opacity="0.7019608" clip-path="url(#id_0)" d="M497.54 171.13C497.54 173.063 495.973 174.63 494.04 174.63C492.107 174.63 490.54 173.063 490.54 171.13C490.54 169.197 492.107 167.63 494.04 167.63C495.973 167.63 497.54 169.197 497.54 171.13Z" fill-rule="nonzero"/><path stroke="#000000" stroke-width="1.0" stroke-linecap="butt" d="M105.5 277.5L105.5 265.5" fill-rule="nonzero"/><path stroke="#000000" stroke-width="1.0" stroke-linecap="butt" d="M149.5 277.5L149.5 265.5" fill-rule="nonzero"/><path stroke="#000000" stroke-width="1.0" stroke-linecap="butt" d="M192.5 277.5L192.5 265.5" fill-rule="nonzero"/><path stroke="#000000" stroke-width="1.0" stroke-linecap="butt" d="M235.5 277.5L235.5 265.5" fill-rule="nonzero"/><path stroke="#000000" stroke-width="1.0" stroke-linecap="butt" d="M278.5 277.5L278.5 265.5" fill-rule="nonzero"/><path stroke="#000000" stroke-width="1.0" stroke-linecap="butt" d="M321.5 277.5L321.5 265.5" fill-rule="nonzero"/><path stroke="#000000" stroke-width="1.0" stroke-linecap="butt" d="M364.5 277.5L364.5 265.5" fill-rule="nonzero"/><path stroke="#000000" stroke-width="1.0" stroke-linecap="butt" d="M407.5 277.5L407.5 265.5" fill-rule="nonzero"/><path stroke="#000000" stroke-width="1.0" stroke-linecap="butt" d="M450.5 277.5L450.5 265.5" fill-rule="nonzero"/><path stroke="#000000" stroke-width="1.0" stroke-linecap="butt" d="M494.5 277.5L494.5 265.5" fill-rule="nonzero"/><path stroke="#000000" stroke-width="1.0" stroke-linecap="butt" d="M78.5 271.5L90.5 271.5" fill-rule="nonzero"/><path stroke="#000000" stroke-width="1.0" stroke-linecap="butt" d="M78.5 243.5L90.5 243.5" fill-rule="nonzero"/><path stroke="#000000" stroke-width="1.0" stroke-linecap="butt" d="M78.5 215.5L90.5 215.5" fill-rule="nonzero"/><path stroke="#000000" stroke-width="1.0" stroke-linecap="butt" d="M78.5 187.5L90.5 187.5" fill-rule="nonzero"/><path stroke="#000000" stroke-width="1.0" stroke-linecap="butt" d="M78.5 159.5L90.5 159.5" fill-rule="nonzero"/><path stroke="#000000" stroke-width="1.0" stroke-linecap="butt" d="M78.5 132.5L90.5 132.5" fill-rule="nonzero"/><path stroke="#000000" stroke-width="1.0" stroke-linecap="butt" d="M78.5 104.5L90.5 104.5" fill-rule="nonzero"/><path stroke="#000000" stroke-width="1.0" stroke-linecap="butt" d="M78.5 76.5L90.5 76.5" fill-rule="nonzero"/><path stroke="#000000" stroke-width="1.0" stroke-linecap="butt" d="M78.5 48.5L90.5 48.5" fill-rule="nonzero"/><path fill="#000000" d="M65.9 271.36563Q65.9 269.83438 66.2125 268.9125Q66.525 267.975 67.13438 267.475Q67.75938 266.975 68.69688 266.975Q69.38438 266.975 69.9 267.25626Q70.43125 267.5375 70.775 268.06876Q71.11875 268.58438 71.30625 269.33438Q71.49375 270.08438 71.49375 271.36563Q71.49375 272.88126 71.18125 273.80313Q70.88438 274.725 70.25938 275.24063Q69.65 275.74063 68.69688 275.74063Q67.4625 275.74063 66.74375 274.85Q65.9 273.7875 65.9 271.36563ZM66.97813 271.36563Q66.97813 273.475 67.47813 274.17813Q67.97813 274.88126 68.69688 274.88126Q69.43125 274.88126 69.91563 274.17813Q70.41563 273.475 70.41563 271.36563Q70.41563 269.24063 69.91563 268.55313Q69.43125 267.85 68.68125 267.85Q67.9625 267.85 67.525 268.45938Q66.97813 269.24063 66.97813 271.36563Z" fill-rule="nonzero"/><path fill="#000000" d="M48.9 243.45729Q48.9 241.92604 49.2125 241.00417Q49.525 240.06667 50.134377 239.56667Q50.759377 239.06667 51.696877 239.06667Q52.384377 239.06667 52.9 239.34792Q53.43125 239.62917 53.775 240.16042Q54.11875 240.67604 54.30625 241.42604Q54.49375 242.17604 54.49375 243.45729Q54.49375 244.97292 54.18125 245.89479Q53.884377 246.81667 53.259377 247.33229Q52.65 247.83229 51.696877 247.83229Q50.4625 247.83229 49.74375 246.94167Q48.9 245.87917 48.9 243.45729ZM49.978127 243.45729Q49.978127 245.56667 50.478127 246.26979Q50.978127 246.97292 51.696877 246.97292Q52.43125 246.97292 52.915627 246.26979Q53.415627 245.56667 53.415627 243.45729Q53.415627 241.33229 52.915627 240.64479Q52.43125 239.94167 51.68125 239.94167Q50.9625 239.94167 50.525 240.55104Q49.978127 241.33229 49.978127 243.45729ZM56.49375 247.69167L56.49375 246.48854L57.696877 246.48854L57.696877 247.69167L56.49375 247.69167ZM64.44688 246.67604L64.44688 247.69167L58.759377 247.69167Q58.759377 247.31667 58.884377 246.95729Q59.103127 246.37917 59.571877 245.81667Q60.05625 245.25417 60.9625 244.51979Q62.36875 243.36354 62.853127 242.69167Q63.353127 242.01979 63.353127 241.42604Q63.353127 240.80104 62.9 240.37917Q62.446877 239.94167 61.728127 239.94167Q60.9625 239.94167 60.509377 240.39479Q60.05625 240.84792 60.040627 241.66042L58.9625 241.55104Q59.071877 240.33229 59.790627 239.70729Q60.525 239.06667 61.759377 239.06667Q62.99375 239.06667 63.7125 239.75417Q64.43125 240.44167 64.43125 241.45729Q64.43125 241.97292 64.2125 242.47292Q64.00938 242.95729 63.509377 243.51979Q63.025 244.06667 61.9 245.01979Q60.946877 245.81667 60.665627 246.11354Q60.4 246.39479 60.228127 246.67604L64.44688 246.67604ZM65.9 245.44167L67.00938 245.34792Q67.13438 246.16042 67.57188 246.56667Q68.025 246.97292 68.66563 246.97292Q69.41563 246.97292 69.94688 246.39479Q70.47813 245.81667 70.47813 244.87917Q70.47813 243.97292 69.9625 243.45729Q69.4625 242.92604 68.63438 242.92604Q68.13438 242.92604 67.7125 243.16042Q67.30625 243.39479 67.07188 243.75417L66.0875 243.62917L66.91563 239.22292L71.19688 239.22292L71.19688 240.22292L67.75938 240.22292L67.30625 242.53542Q68.07188 241.98854 68.91563 241.98854Q70.04063 241.98854 70.80625 242.76979Q71.5875 243.55104 71.5875 244.78542Q71.5875 245.94167 70.91563 246.80104Q70.0875 247.83229 68.66563 247.83229Q67.49375 247.83229 66.74375 247.17604Q66.00938 246.51979 65.9 245.44167Z" fill-rule="nonzero"/><path fill="#000000" d="M55.9 215.54897Q55.9 214.01772 56.2125 213.09584Q56.525 212.15834 57.134377 211.65834Q57.759377 211.15834 58.696877 211.15834Q59.384377 211.15834 59.9 211.43959Q60.43125 211.72084 60.775 212.25209Q61.11875 212.76772 61.30625 213.51772Q61.49375 214.26772 61.49375 215.54897Q61.49375 217.06459 61.18125 217.98647Q60.884377 218.90834 60.259377 219.42397Q59.65 219.92397 58.696877 219.92397Q57.4625 219.92397 56.74375 219.03334Q55.9 217.97084 55.9 215.54897ZM56.978127 215.54897Q56.978127 217.65834 57.478127 218.36147Q57.978127 219.06459 58.696877 219.06459Q59.43125 219.06459 59.915627 218.36147Q60.415627 217.65834 60.415627 215.54897Q60.415627 213.42397 59.915627 212.73647Q59.43125 212.03334 58.68125 212.03334Q57.9625 212.03334 57.525 212.64272Q56.978127 213.42397 56.978127 215.54897ZM63.49375 219.78334L63.49375 218.58022L64.69688 218.58022L64.69688 219.78334L63.49375 219.78334ZM65.9 217.53334L67.00938 217.43959Q67.13438 218.25209 67.57188 218.65834Q68.025 219.06459 68.66563 219.06459Q69.41563 219.06459 69.94688 218.48647Q70.47813 217.90834 70.47813 216.97084Q70.47813 216.06459 69.9625 215.54897Q69.4625 215.01772 68.63438 215.01772Q68.13438 215.01772 67.7125 215.25209Q67.30625 215.48647 67.07188 215.84584L66.0875 215.72084L66.91563 211.31459L71.19688 211.31459L71.19688 212.31459L67.75938 212.31459L67.30625 214.62709Q68.07188 214.08022 68.91563 214.08022Q70.04063 214.08022 70.80625 214.86147Q71.5875 215.64272 71.5875 216.87709Q71.5875 218.03334 70.91563 218.89272Q70.0875 219.92397 68.66563 219.92397Q67.49375 219.92397 66.74375 219.26772Q66.00938 218.61147 65.9 217.53334Z" fill-rule="nonzero"/><path fill="#000000" d="M48.9 187.64062Q48.9 186.10938 49.2125 185.1875Q49.525 184.25 50.134377 183.75Q50.759377 183.25 51.696877 183.25Q52.384377 183.25 52.9 183.53125Q53.43125 183.8125 53.775 184.34375Q54.11875 184.85938 54.30625 185.60938Q54.49375 186.35938 54.49375 187.64062Q54.49375 189.15625 54.18125 190.07812Q53.884377 191.0 53.259377 191.51562Q52.65 192.01562 51.696877 192.01562Q50.4625 192.01562 49.74375 191.125Q48.9 190.0625 48.9 187.64062ZM49.978127 187.64062Q49.978127 189.75 50.478127 190.45312Q50.978127 191.15625 51.696877 191.15625Q52.43125 191.15625 52.915627 190.45312Q53.415627 189.75 53.415627 187.64062Q53.415627 185.51562 52.915627 184.82812Q52.43125 184.125 51.68125 184.125Q50.9625 184.125 50.525 184.73438Q49.978127 185.51562 49.978127 187.64062ZM56.49375 191.875L56.49375 190.67188L57.696877 190.67188L57.696877 191.875L56.49375 191.875ZM58.9625 184.40625L58.9625 183.39062L64.525 183.39062L64.525 184.21875Q63.7125 185.09375 62.9 186.54688Q62.103127 187.98438 61.665627 189.51562Q61.3375 190.59375 61.259377 191.875L60.165627 191.875Q60.18125 190.85938 60.55625 189.42188Q60.946877 187.98438 61.65 186.65625Q62.36875 185.32812 63.18125 184.40625L58.9625 184.40625ZM65.9 189.625L67.00938 189.53125Q67.13438 190.34375 67.57188 190.75Q68.025 191.15625 68.66563 191.15625Q69.41563 191.15625 69.94688 190.57812Q70.47813 190.0 70.47813 189.0625Q70.47813 188.15625 69.9625 187.64062Q69.4625 187.10938 68.63438 187.10938Q68.13438 187.10938 67.7125 187.34375Q67.30625 187.57812 67.07188 187.9375L66.0875 187.8125L66.91563 183.40625L71.19688 183.40625L71.19688 184.40625L67.75938 184.40625L67.30625 186.71875Q68.07188 186.17188 68.91563 186.17188Q70.04063 186.17188 70.80625 186.95312Q71.5875 187.73438 71.5875 188.96875Q71.5875 190.125 70.91563 190.98438Q70.0875 192.01562 68.66563 192.01562Q67.49375 192.01562 66.74375 191.35938Q66.00938 190.70312 65.9 189.625Z" fill-rule="nonzero"/><path fill="#000000" d="M69.86875 163.96666L68.82188 163.96666L68.82188 157.24791Q68.43125 157.60728 67.80625 157.98228Q67.19688 158.34166 66.7125 158.51353L66.7125 157.49791Q67.5875 157.07603 68.24375 156.49791Q68.91563 155.90416 69.19688 155.34166L69.86875 155.34166L69.86875 163.96666Z" fill-rule="nonzero"/><path fill="#000000" d="M52.86875 136.05833L51.821877 136.05833L51.821877 129.33958Q51.43125 129.69896 50.80625 130.07396Q50.196877 130.43333 49.7125 130.60521L49.7125 129.58958Q50.5875 129.16771 51.24375 128.58958Q51.915627 127.995834 52.196877 127.433334L52.86875 127.433334L52.86875 136.05833ZM56.49375 136.05833L56.49375 134.85521L57.696877 134.85521L57.696877 136.05833L56.49375 136.05833ZM64.44688 135.04271L64.44688 136.05833L58.759377 136.05833Q58.759377 135.68333 58.884377 135.32396Q59.103127 134.74583 59.571877 134.18333Q60.05625 133.62083 60.9625 132.88646Q62.36875 131.73021 62.853127 131.05833Q63.353127 130.38646 63.353127 129.79271Q63.353127 129.16771 62.9 128.74583Q62.446877 128.30833 61.728127 128.30833Q60.9625 128.30833 60.509377 128.76146Q60.05625 129.21458 60.040627 130.02708L58.9625 129.91771Q59.071877 128.69896 59.790627 128.07396Q60.525 127.433334 61.759377 127.433334Q62.99375 127.433334 63.7125 128.12083Q64.43125 128.80833 64.43125 129.82396Q64.43125 130.33958 64.2125 130.83958Q64.00938 131.32396 63.509377 131.88646Q63.025 132.43333 61.9 133.38646Q60.946877 134.18333 60.665627 134.48021Q60.4 134.76146 60.228127 135.04271L64.44688 135.04271ZM65.9 133.80833L67.00938 133.71458Q67.13438 134.52708 67.57188 134.93333Q68.025 135.33958 68.66563 135.33958Q69.41563 135.33958 69.94688 134.76146Q70.47813 134.18333 70.47813 133.24583Q70.47813 132.33958 69.9625 131.82396Q69.4625 131.29271 68.63438 131.29271Q68.13438 131.29271 67.7125 131.52708Q67.30625 131.76146 67.07188 132.12083L66.0875 131.99583L66.91563 127.589584L71.19688 127.589584L71.19688 128.58958L67.75938 128.58958L67.30625 130.90208Q68.07188 130.35521 68.91563 130.35521Q70.04063 130.35521 70.80625 131.13646Q71.5875 131.91771 71.5875 133.15208Q71.5875 134.30833 70.91563 135.16771Q70.0875 136.19896 68.66563 136.19896Q67.49375 136.19896 66.74375 135.54271Q66.00938 134.88646 65.9 133.80833Z" fill-rule="nonzero"/><path fill="#000000" d="M59.86875 108.15L58.821877 108.15L58.821877 101.43125Q58.43125 101.79063 57.80625 102.16563Q57.196877 102.525 56.7125 102.69688L56.7125 101.68125Q57.5875 101.25938 58.24375 100.68125Q58.915627 100.0875 59.196877 99.525L59.86875 99.525L59.86875 108.15ZM63.49375 108.15L63.49375 106.94688L64.69688 106.94688L64.69688 108.15L63.49375 108.15ZM65.9 105.9L67.00938 105.80625Q67.13438 106.61875 67.57188 107.025Q68.025 107.43125 68.66563 107.43125Q69.41563 107.43125 69.94688 106.85313Q70.47813 106.275 70.47813 105.3375Q70.47813 104.43125 69.9625 103.91563Q69.4625 103.38438 68.63438 103.38438Q68.13438 103.38438 67.7125 103.61875Q67.30625 103.85313 67.07188 104.2125L66.0875 104.0875L66.91563 99.68125L71.19688 99.68125L71.19688 100.68125L67.75938 100.68125L67.30625 102.99375Q68.07188 102.44688 68.91563 102.44688Q70.04063 102.44688 70.80625 103.22813Q71.5875 104.00938 71.5875 105.24375Q71.5875 106.4 70.91563 107.25938Q70.0875 108.29063 68.66563 108.29063Q67.49375 108.29063 66.74375 107.63438Q66.00938 106.97813 65.9 105.9Z" fill-rule="nonzero"/><path fill="#000000" d="M52.86875 80.24167L51.821877 80.24167L51.821877 73.52292Q51.43125 73.88229 50.80625 74.25729Q50.196877 74.61667 49.7125 74.78854L49.7125 73.77292Q50.5875 73.35104 51.24375 72.77292Q51.915627 72.17917 52.196877 71.61667L52.86875 71.61667L52.86875 80.24167ZM56.49375 80.24167L56.49375 79.03854L57.696877 79.03854L57.696877 80.24167L56.49375 80.24167ZM58.9625 72.77292L58.9625 71.75729L64.525 71.75729L64.525 72.58542Q63.7125 73.46042 62.9 74.91354Q62.103127 76.35104 61.665627 77.88229Q61.3375 78.96042 61.259377 80.24167L60.165627 80.24167Q60.18125 79.22604 60.55625 77.78854Q60.946877 76.35104 61.65 75.02292Q62.36875 73.69479 63.18125 72.77292L58.9625 72.77292ZM65.9 77.99167L67.00938 77.89792Q67.13438 78.71042 67.57188 79.11667Q68.025 79.52292 68.66563 79.52292Q69.41563 79.52292 69.94688 78.94479Q70.47813 78.36667 70.47813 77.42917Q70.47813 76.52292 69.9625 76.00729Q69.4625 75.47604 68.63438 75.47604Q68.13438 75.47604 67.7125 75.71042Q67.30625 75.94479 67.07188 76.30417L66.0875 76.17917L66.91563 71.77292L71.19688 71.77292L71.19688 72.77292L67.75938 72.77292L67.30625 75.08542Q68.07188 74.53854 68.91563 74.53854Q70.04063 74.53854 70.80625 75.31979Q71.5875 76.10104 71.5875 77.33542Q71.5875 78.49167 70.91563 79.35104Q70.0875 80.38229 68.66563 80.38229Q67.49375 80.38229 66.74375 79.72604Q66.00938 79.06979 65.9 77.99167Z" fill-rule="nonzero"/><path fill="#000000" d="M71.44688 51.317707L71.44688 52.333332L65.75938 52.333332Q65.75938 51.958332 65.88438 51.598957Q66.10313 51.020832 66.57188 50.458332Q67.05625 49.895832 67.9625 49.161457Q69.36875 48.005207 69.85313 47.333332Q70.35313 46.661457 70.35313 46.067707Q70.35313 45.442707 69.9 45.020832Q69.44688 44.583332 68.72813 44.583332Q67.9625 44.583332 67.50938 45.036457Q67.05625 45.489582 67.04063 46.302082L65.9625 46.192707Q66.07188 44.973957 66.79063 44.348957Q67.525 43.708332 68.75938 43.708332Q69.99375 43.708332 70.7125 44.395832Q71.43125 45.083332 71.43125 46.098957Q71.43125 46.614582 71.2125 47.114582Q71.00938 47.598957 70.50938 48.161457Q70.025 48.708332 68.9 49.661457Q67.94688 50.458332 67.66563 50.755207Q67.4 51.036457 67.22813 51.317707L71.44688 51.317707Z" fill-rule="nonzero"/><path fill="#000000" d="M90.506874 291.83438L91.569374 291.74063Q91.6475 292.39688 91.92875 292.80313Q92.21 293.20938 92.788124 293.475Q93.381874 293.725 94.11625 293.725Q94.756874 293.725 95.256874 293.5375Q95.756874 293.33438 95.99125 293.00626Q96.24125 292.6625 96.24125 292.27188Q96.24125 291.86563 96.006874 291.56876Q95.7725 291.25626 95.24125 291.05313Q94.881874 290.9125 93.694374 290.63126Q92.5225 290.35 92.05375 290.1Q91.42875 289.77188 91.131874 289.30313Q90.835 288.81876 90.835 288.225Q90.835 287.58438 91.194374 287.02188Q91.569374 286.44376 92.2725 286.1625Q92.99125 285.86563 93.850624 285.86563Q94.80375 285.86563 95.538124 286.17813Q96.2725 286.475 96.663124 287.08438Q97.05375 287.67813 97.085 288.42813L95.99125 288.50626Q95.8975 287.69376 95.381874 287.2875Q94.881874 286.86563 93.8975 286.86563Q92.86625 286.86563 92.3975 287.24063Q91.92875 287.61563 91.92875 288.14688Q91.92875 288.61563 92.256874 288.9125Q92.585 289.20938 93.96 289.52188Q95.350624 289.83438 95.86625 290.06876Q96.61625 290.42813 96.975624 290.95938Q97.335 291.475 97.335 292.17813Q97.335 292.86563 96.944374 293.475Q96.55375 294.06876 95.819374 294.4125Q95.085 294.74063 94.163124 294.74063Q92.99125 294.74063 92.194374 294.4125Q91.413124 294.06876 90.96 293.38126Q90.5225 292.69376 90.506874 291.83438ZM98.756874 296.99063L98.756874 288.38126L99.71 288.38126L99.71 289.17813Q100.05375 288.70938 100.475624 288.475Q100.913124 288.24063 101.5225 288.24063Q102.319374 288.24063 102.92875 288.64688Q103.538124 289.05313 103.835 289.80313Q104.1475 290.55313 104.1475 291.44376Q104.1475 292.39688 103.80375 293.1625Q103.475624 293.92813 102.819374 294.33438Q102.163124 294.74063 101.444374 294.74063Q100.913124 294.74063 100.49125 294.52188Q100.069374 294.2875 99.80375 293.95938L99.80375 296.99063L98.756874 296.99063ZM99.71 291.52188Q99.71 292.725 100.194374 293.30313Q100.67875 293.86563 101.36625 293.86563Q102.069374 293.86563 102.569374 293.27188Q103.069374 292.67813 103.069374 291.42813Q103.069374 290.24063 102.585 289.6625Q102.100624 289.06876 101.413124 289.06876Q100.74125 289.06876 100.225624 289.69376Q99.71 290.31876 99.71 291.52188ZM105.74125 294.6L105.74125 288.38126L106.694374 288.38126L106.694374 289.31876Q107.05375 288.6625 107.350624 288.45938Q107.663124 288.24063 108.038124 288.24063Q108.569374 288.24063 109.11625 288.56876L108.756874 289.55313Q108.36625 289.31876 107.99125 289.31876Q107.631874 289.31876 107.350624 289.5375Q107.085 289.74063 106.975624 290.11563Q106.788124 290.67813 106.788124 291.33438L106.788124 294.6L105.74125 294.6ZM109.756874 287.225L109.756874 286.00626L110.819374 286.00626L110.819374 287.225L109.756874 287.225ZM109.756874 294.6L109.756874 288.38126L110.819374 288.38126L110.819374 294.6L109.756874 294.6ZM112.756874 294.6L112.756874 288.38126L113.694374 288.38126L113.694374 289.25626Q114.381874 288.24063 115.67875 288.24063Q116.24125 288.24063 116.71 288.44376Q117.194374 288.64688 117.42875 288.975Q117.663124 289.30313 117.756874 289.74063Q117.80375 290.0375 117.80375 290.77188L117.80375 294.6L116.756874 294.6L116.756874 290.81876Q116.756874 290.1625 116.631874 289.85Q116.506874 289.5375 116.194374 289.35Q115.881874 289.14688 115.46 289.14688Q114.788124 289.14688 114.288124 289.58438Q113.80375 290.00626 113.80375 291.19376L113.80375 294.6L112.756874 294.6ZM122.05375 293.6625L122.21 294.58438Q121.756874 294.67813 121.413124 294.67813Q120.835 294.67813 120.5225 294.50626Q120.21 294.31876 120.069374 294.02188Q119.944374 293.725 119.944374 292.77188L119.944374 289.19376L119.17875 289.19376L119.17875 288.38126L119.944374 288.38126L119.944374 286.83438L120.99125 286.20938L120.99125 288.38126L122.05375 288.38126L122.05375 289.19376L120.99125 289.19376L120.99125 292.83438Q120.99125 293.2875 121.038124 293.4125Q121.100624 293.5375 121.225624 293.61563Q121.350624 293.69376 121.585 293.69376Q121.7725 293.69376 122.05375 293.6625Z" fill-rule="nonzero"/><path fill="#000000" d="M106.92875 308.6L105.881874 308.6L105.881874 301.88126Q105.49125 302.24063 104.86625 302.61563Q104.256874 302.975 103.7725 303.14688L103.7725 302.13126Q104.6475 301.70938 105.30375 301.13126Q105.975624 300.5375 106.256874 299.975L106.92875 299.975L106.92875 308.6Z" fill-rule="nonzero"/><path fill="#000000" d="M133.62688 291.83438L134.68938 291.74063Q134.7675 292.39688 135.04875 292.80313Q135.33 293.20938 135.90813 293.475Q136.50188 293.725 137.23625 293.725Q137.87688 293.725 138.37688 293.5375Q138.87688 293.33438 139.11125 293.00626Q139.36125 292.6625 139.36125 292.27188Q139.36125 291.86563 139.12688 291.56876Q138.8925 291.25626 138.36125 291.05313Q138.00188 290.9125 136.81438 290.63126Q135.6425 290.35 135.17375 290.1Q134.54875 289.77188 134.25188 289.30313Q133.955 288.81876 133.955 288.225Q133.955 287.58438 134.31438 287.02188Q134.68938 286.44376 135.3925 286.1625Q136.11125 285.86563 136.97063 285.86563Q137.92375 285.86563 138.65813 286.17813Q139.3925 286.475 139.78313 287.08438Q140.17375 287.67813 140.205 288.42813L139.11125 288.50626Q139.0175 287.69376 138.50188 287.2875Q138.00188 286.86563 137.0175 286.86563Q135.98625 286.86563 135.5175 287.24063Q135.04875 287.61563 135.04875 288.14688Q135.04875 288.61563 135.37688 288.9125Q135.705 289.20938 137.08 289.52188Q138.47063 289.83438 138.98625 290.06876Q139.73625 290.42813 140.09563 290.95938Q140.455 291.475 140.455 292.17813Q140.455 292.86563 140.06438 293.475Q139.67375 294.06876 138.93938 294.4125Q138.205 294.74063 137.28313 294.74063Q136.11125 294.74063 135.31438 294.4125Q134.53313 294.06876 134.08 293.38126Q133.6425 292.69376 133.62688 291.83438ZM141.87688 296.99063L141.87688 288.38126L142.83 288.38126L142.83 289.17813Q143.17375 288.70938 143.59563 288.475Q144.03313 288.24063 144.6425 288.24063Q145.43938 288.24063 146.04875 288.64688Q146.65813 289.05313 146.955 289.80313Q147.2675 290.55313 147.2675 291.44376Q147.2675 292.39688 146.92375 293.1625Q146.59563 293.92813 145.93938 294.33438Q145.28313 294.74063 144.56438 294.74063Q144.03313 294.74063 143.61125 294.52188Q143.18938 294.2875 142.92375 293.95938L142.92375 296.99063L141.87688 296.99063ZM142.83 291.52188Q142.83 292.725 143.31438 293.30313Q143.79875 293.86563 144.48625 293.86563Q145.18938 293.86563 145.68938 293.27188Q146.18938 292.67813 146.18938 291.42813Q146.18938 290.24063 145.705 289.6625Q145.22063 289.06876 144.53313 289.06876Q143.86125 289.06876 143.34563 289.69376Q142.83 290.31876 142.83 291.52188ZM148.86125 294.6L148.86125 288.38126L149.81438 288.38126L149.81438 289.31876Q150.17375 288.6625 150.47063 288.45938Q150.78313 288.24063 151.15813 288.24063Q151.68938 288.24063 152.23625 288.56876L151.87688 289.55313Q151.48625 289.31876 151.11125 289.31876Q150.75188 289.31876 150.47063 289.5375Q150.205 289.74063 150.09563 290.11563Q149.90813 290.67813 149.90813 291.33438L149.90813 294.6L148.86125 294.6ZM152.87688 287.225L152.87688 286.00626L153.93938 286.00626L153.93938 287.225L152.87688 287.225ZM152.87688 294.6L152.87688 288.38126L153.93938 288.38126L153.93938 294.6L152.87688 294.6ZM155.87688 294.6L155.87688 288.38126L156.81438 288.38126L156.81438 289.25626Q157.50188 288.24063 158.79875 288.24063Q159.36125 288.24063 159.83 288.44376Q160.31438 288.64688 160.54875 288.975Q160.78313 289.30313 160.87688 289.74063Q160.92375 290.0375 160.92375 290.77188L160.92375 294.6L159.87688 294.6L159.87688 290.81876Q159.87688 290.1625 159.75188 289.85Q159.62688 289.5375 159.31438 289.35Q159.00188 289.14688 158.58 289.14688Q157.90813 289.14688 157.40813 289.58438Q156.92375 290.00626 156.92375 291.19376L156.92375 294.6L155.87688 294.6ZM165.17375 293.6625L165.33 294.58438Q164.87688 294.67813 164.53313 294.67813Q163.955 294.67813 163.6425 294.50626Q163.33 294.31876 163.18938 294.02188Q163.06438 293.725 163.06438 292.77188L163.06438 289.19376L162.29875 289.19376L162.29875 288.38126L163.06438 288.38126L163.06438 286.83438L164.11125 286.20938L164.11125 288.38126L165.17375 288.38126L165.17375 289.19376L164.11125 289.19376L164.11125 292.83438Q164.11125 293.2875 164.15813 293.4125Q164.22063 293.5375 164.34563 293.61563Q164.47063 293.69376 164.705 293.69376Q164.8925 293.69376 165.17375 293.6625Z" fill-rule="nonzero"/><path fill="#000000" d="M151.62688 307.58438L151.62688 308.6L145.93938 308.6Q145.93938 308.225 146.06438 307.86563Q146.28313 307.2875 146.75188 306.725Q147.23625 306.1625 148.1425 305.42813Q149.54875 304.27188 150.03313 303.6Q150.53313 302.92813 150.53313 302.33438Q150.53313 301.70938 150.08 301.2875Q149.62688 300.85 148.90813 300.85Q148.1425 300.85 147.68938 301.30313Q147.23625 301.75626 147.22063 302.56876L146.1425 302.45938Q146.25188 301.24063 146.97063 300.61563Q147.705 299.975 148.93938 299.975Q150.17375 299.975 150.8925 300.6625Q151.61125 301.35 151.61125 302.36563Q151.61125 302.88126 151.3925 303.38126Q151.18938 303.86563 150.68938 304.42813Q150.205 304.975 149.08 305.92813Q148.12688 306.725 147.84563 307.02188Q147.58 307.30313 147.40813 307.58438L151.62688 307.58438Z" fill-rule="nonzero"/><path fill="#000000" d="M176.74687 291.83438L177.80937 291.74063Q177.8875 292.39688 178.16875 292.80313Q178.45 293.20938 179.02812 293.475Q179.62187 293.725 180.35625 293.725Q180.99687 293.725 181.49687 293.5375Q181.99687 293.33438 182.23125 293.00626Q182.48125 292.6625 182.48125 292.27188Q182.48125 291.86563 182.24687 291.56876Q182.0125 291.25626 181.48125 291.05313Q181.12187 290.9125 179.93437 290.63126Q178.7625 290.35 178.29375 290.1Q177.66875 289.77188 177.37187 289.30313Q177.075 288.81876 177.075 288.225Q177.075 287.58438 177.43437 287.02188Q177.80937 286.44376 178.5125 286.1625Q179.23125 285.86563 180.09062 285.86563Q181.04375 285.86563 181.77812 286.17813Q182.5125 286.475 182.90312 287.08438Q183.29375 287.67813 183.325 288.42813L182.23125 288.50626Q182.1375 287.69376 181.62187 287.2875Q181.12187 286.86563 180.1375 286.86563Q179.10625 286.86563 178.6375 287.24063Q178.16875 287.61563 178.16875 288.14688Q178.16875 288.61563 178.49687 288.9125Q178.825 289.20938 180.2 289.52188Q181.59062 289.83438 182.10625 290.06876Q182.85625 290.42813 183.21562 290.95938Q183.575 291.475 183.575 292.17813Q183.575 292.86563 183.18437 293.475Q182.79375 294.06876 182.05937 294.4125Q181.325 294.74063 180.40312 294.74063Q179.23125 294.74063 178.43437 294.4125Q177.65312 294.06876 177.2 293.38126Q176.7625 292.69376 176.74687 291.83438ZM184.99687 296.99063L184.99687 288.38126L185.95 288.38126L185.95 289.17813Q186.29375 288.70938 186.71562 288.475Q187.15312 288.24063 187.7625 288.24063Q188.55937 288.24063 189.16875 288.64688Q189.77812 289.05313 190.075 289.80313Q190.3875 290.55313 190.3875 291.44376Q190.3875 292.39688 190.04375 293.1625Q189.71562 293.92813 189.05937 294.33438Q188.40312 294.74063 187.68437 294.74063Q187.15312 294.74063 186.73125 294.52188Q186.30937 294.2875 186.04375 293.95938L186.04375 296.99063L184.99687 296.99063ZM185.95 291.52188Q185.95 292.725 186.43437 293.30313Q186.91875 293.86563 187.60625 293.86563Q188.30937 293.86563 188.80937 293.27188Q189.30937 292.67813 189.30937 291.42813Q189.30937 290.24063 188.825 289.6625Q188.34062 289.06876 187.65312 289.06876Q186.98125 289.06876 186.46562 289.69376Q185.95 290.31876 185.95 291.52188ZM191.98125 294.6L191.98125 288.38126L192.93437 288.38126L192.93437 289.31876Q193.29375 288.6625 193.59062 288.45938Q193.90312 288.24063 194.27812 288.24063Q194.80937 288.24063 195.35625 288.56876L194.99687 289.55313Q194.60625 289.31876 194.23125 289.31876Q193.87187 289.31876 193.59062 289.5375Q193.325 289.74063 193.21562 290.11563Q193.02812 290.67813 193.02812 291.33438L193.02812 294.6L191.98125 294.6ZM195.99687 287.225L195.99687 286.00626L197.05937 286.00626L197.05937 287.225L195.99687 287.225ZM195.99687 294.6L195.99687 288.38126L197.05937 288.38126L197.05937 294.6L195.99687 294.6ZM198.99687 294.6L198.99687 288.38126L199.93437 288.38126L199.93437 289.25626Q200.62187 288.24063 201.91875 288.24063Q202.48125 288.24063 202.95 288.44376Q203.43437 288.64688 203.66875 288.975Q203.90312 289.30313 203.99687 289.74063Q204.04375 290.0375 204.04375 290.77188L204.04375 294.6L202.99687 294.6L202.99687 290.81876Q202.99687 290.1625 202.87187 289.85Q202.74687 289.5375 202.43437 289.35Q202.12187 289.14688 201.7 289.14688Q201.02812 289.14688 200.52812 289.58438Q200.04375 290.00626 200.04375 291.19376L200.04375 294.6L198.99687 294.6ZM208.29375 293.6625L208.45 294.58438Q207.99687 294.67813 207.65312 294.67813Q207.075 294.67813 206.7625 294.50626Q206.45 294.31876 206.30937 294.02188Q206.18437 293.725 206.18437 292.77188L206.18437 289.19376L205.41875 289.19376L205.41875 288.38126L206.18437 288.38126L206.18437 286.83438L207.23125 286.20938L207.23125 288.38126L208.29375 288.38126L208.29375 289.19376L207.23125 289.19376L207.23125 292.83438Q207.23125 293.2875 207.27812 293.4125Q207.34062 293.5375 207.46562 293.61563Q207.59062 293.69376 207.825 293.69376Q208.0125 293.69376 208.29375 293.6625Z" fill-rule="nonzero"/><path fill="#000000" d="M189.2 306.33438L190.2625 306.19376Q190.43437 307.08438 190.87187 307.49063Q191.30937 307.88126 191.93437 307.88126Q192.68437 307.88126 193.2 307.36563Q193.71562 306.85 193.71562 306.08438Q193.71562 305.36563 193.23125 304.89688Q192.7625 304.4125 192.02812 304.4125Q191.73125 304.4125 191.27812 304.5375L191.40312 303.6Q191.5125 303.61563 191.575 303.61563Q192.24687 303.61563 192.77812 303.27188Q193.325 302.9125 193.325 302.17813Q193.325 301.6 192.93437 301.225Q192.54375 300.83438 191.91875 300.83438Q191.30937 300.83438 190.8875 301.225Q190.48125 301.61563 190.37187 302.38126L189.30937 302.19376Q189.49687 301.14688 190.18437 300.56876Q190.87187 299.975 191.8875 299.975Q192.59062 299.975 193.18437 300.2875Q193.77812 300.58438 194.09062 301.1Q194.40312 301.61563 194.40312 302.20938Q194.40312 302.75626 194.10625 303.225Q193.80937 303.67813 193.23125 303.94376Q193.98125 304.11563 194.40312 304.67813Q194.825 305.225 194.825 306.06876Q194.825 307.19376 193.99687 307.975Q193.18437 308.75626 191.93437 308.75626Q190.80937 308.75626 190.05937 308.08438Q189.30937 307.39688 189.2 306.33438Z" fill-rule="nonzero"/><path fill="#000000" d="M219.86688 291.83438L220.92938 291.74063Q221.0075 292.39688 221.28876 292.80313Q221.57 293.20938 222.14813 293.475Q222.74188 293.725 223.47626 293.725Q224.11688 293.725 224.61688 293.5375Q225.11688 293.33438 225.35126 293.00626Q225.60126 292.6625 225.60126 292.27188Q225.60126 291.86563 225.36688 291.56876Q225.1325 291.25626 224.60126 291.05313Q224.24188 290.9125 223.05438 290.63126Q221.8825 290.35 221.41376 290.1Q220.78876 289.77188 220.49188 289.30313Q220.195 288.81876 220.195 288.225Q220.195 287.58438 220.55438 287.02188Q220.92938 286.44376 221.6325 286.1625Q222.35126 285.86563 223.21063 285.86563Q224.16376 285.86563 224.89813 286.17813Q225.6325 286.475 226.02313 287.08438Q226.41376 287.67813 226.445 288.42813L225.35126 288.50626Q225.2575 287.69376 224.74188 287.2875Q224.24188 286.86563 223.2575 286.86563Q222.22626 286.86563 221.7575 287.24063Q221.28876 287.61563 221.28876 288.14688Q221.28876 288.61563 221.61688 288.9125Q221.945 289.20938 223.32 289.52188Q224.71063 289.83438 225.22626 290.06876Q225.97626 290.42813 226.33563 290.95938Q226.695 291.475 226.695 292.17813Q226.695 292.86563 226.30438 293.475Q225.91376 294.06876 225.17938 294.4125Q224.445 294.74063 223.52313 294.74063Q222.35126 294.74063 221.55438 294.4125Q220.77313 294.06876 220.32 293.38126Q219.8825 292.69376 219.86688 291.83438ZM228.11688 296.99063L228.11688 288.38126L229.07 288.38126L229.07 289.17813Q229.41376 288.70938 229.83563 288.475Q230.27313 288.24063 230.8825 288.24063Q231.67938 288.24063 232.28876 288.64688Q232.89813 289.05313 233.195 289.80313Q233.5075 290.55313 233.5075 291.44376Q233.5075 292.39688 233.16376 293.1625Q232.83563 293.92813 232.17938 294.33438Q231.52313 294.74063 230.80438 294.74063Q230.27313 294.74063 229.85126 294.52188Q229.42938 294.2875 229.16376 293.95938L229.16376 296.99063L228.11688 296.99063ZM229.07 291.52188Q229.07 292.725 229.55438 293.30313Q230.03876 293.86563 230.72626 293.86563Q231.42938 293.86563 231.92938 293.27188Q232.42938 292.67813 232.42938 291.42813Q232.42938 290.24063 231.945 289.6625Q231.46063 289.06876 230.77313 289.06876Q230.10126 289.06876 229.58563 289.69376Q229.07 290.31876 229.07 291.52188ZM235.10126 294.6L235.10126 288.38126L236.05438 288.38126L236.05438 289.31876Q236.41376 288.6625 236.71063 288.45938Q237.02313 288.24063 237.39813 288.24063Q237.92938 288.24063 238.47626 288.56876L238.11688 289.55313Q237.72626 289.31876 237.35126 289.31876Q236.99188 289.31876 236.71063 289.5375Q236.445 289.74063 236.33563 290.11563Q236.14813 290.67813 236.14813 291.33438L236.14813 294.6L235.10126 294.6ZM239.11688 287.225L239.11688 286.00626L240.17938 286.00626L240.17938 287.225L239.11688 287.225ZM239.11688 294.6L239.11688 288.38126L240.17938 288.38126L240.17938 294.6L239.11688 294.6ZM242.11688 294.6L242.11688 288.38126L243.05438 288.38126L243.05438 289.25626Q243.74188 288.24063 245.03876 288.24063Q245.60126 288.24063 246.07 288.44376Q246.55438 288.64688 246.78876 288.975Q247.02313 289.30313 247.11688 289.74063Q247.16376 290.0375 247.16376 290.77188L247.16376 294.6L246.11688 294.6L246.11688 290.81876Q246.11688 290.1625 245.99188 289.85Q245.86688 289.5375 245.55438 289.35Q245.24188 289.14688 244.82 289.14688Q244.14813 289.14688 243.64813 289.58438Q243.16376 290.00626 243.16376 291.19376L243.16376 294.6L242.11688 294.6ZM251.41376 293.6625L251.57 294.58438Q251.11688 294.67813 250.77313 294.67813Q250.195 294.67813 249.8825 294.50626Q249.57 294.31876 249.42938 294.02188Q249.30438 293.725 249.30438 292.77188L249.30438 289.19376L248.53876 289.19376L248.53876 288.38126L249.30438 288.38126L249.30438 286.83438L250.35126 286.20938L250.35126 288.38126L251.41376 288.38126L251.41376 289.19376L250.35126 289.19376L250.35126 292.83438Q250.35126 293.2875 250.39813 293.4125Q250.46063 293.5375 250.58563 293.61563Q250.71063 293.69376 250.945 293.69376Q251.1325 293.69376 251.41376 293.6625Z" fill-rule="nonzero"/><path fill="#000000" d="M235.695 308.6L235.695 306.5375L231.97626 306.5375L231.97626 305.56876L235.89813 300.00626L236.7575 300.00626L236.7575 305.56876L237.91376 305.56876L237.91376 306.5375L236.7575 306.5375L236.7575 308.6L235.695 308.6ZM235.695 305.56876L235.695 301.70938L233.0075 305.56876L235.695 305.56876Z" fill-rule="nonzero"/><path fill="#000000" d="M262.98688 291.83438L264.04938 291.74063Q264.1275 292.39688 264.40875 292.80313Q264.69 293.20938 265.26813 293.475Q265.86188 293.725 266.59625 293.725Q267.23688 293.725 267.73688 293.5375Q268.23688 293.33438 268.47125 293.00626Q268.72125 292.6625 268.72125 292.27188Q268.72125 291.86563 268.48688 291.56876Q268.2525 291.25626 267.72125 291.05313Q267.36188 290.9125 266.17438 290.63126Q265.0025 290.35 264.53375 290.1Q263.90875 289.77188 263.61188 289.30313Q263.315 288.81876 263.315 288.225Q263.315 287.58438 263.67438 287.02188Q264.04938 286.44376 264.7525 286.1625Q265.47125 285.86563 266.33063 285.86563Q267.28375 285.86563 268.01813 286.17813Q268.7525 286.475 269.14313 287.08438Q269.53375 287.67813 269.565 288.42813L268.47125 288.50626Q268.3775 287.69376 267.86188 287.2875Q267.36188 286.86563 266.3775 286.86563Q265.34625 286.86563 264.8775 287.24063Q264.40875 287.61563 264.40875 288.14688Q264.40875 288.61563 264.73688 288.9125Q265.065 289.20938 266.44 289.52188Q267.83063 289.83438 268.34625 290.06876Q269.09625 290.42813 269.45563 290.95938Q269.815 291.475 269.815 292.17813Q269.815 292.86563 269.42438 293.475Q269.03375 294.06876 268.29938 294.4125Q267.565 294.74063 266.64313 294.74063Q265.47125 294.74063 264.67438 294.4125Q263.89313 294.06876 263.44 293.38126Q263.0025 292.69376 262.98688 291.83438ZM271.23688 296.99063L271.23688 288.38126L272.19 288.38126L272.19 289.17813Q272.53375 288.70938 272.95563 288.475Q273.39313 288.24063 274.0025 288.24063Q274.79938 288.24063 275.40875 288.64688Q276.01813 289.05313 276.315 289.80313Q276.6275 290.55313 276.6275 291.44376Q276.6275 292.39688 276.28375 293.1625Q275.95563 293.92813 275.29938 294.33438Q274.64313 294.74063 273.92438 294.74063Q273.39313 294.74063 272.97125 294.52188Q272.54938 294.2875 272.28375 293.95938L272.28375 296.99063L271.23688 296.99063ZM272.19 291.52188Q272.19 292.725 272.67438 293.30313Q273.15875 293.86563 273.84625 293.86563Q274.54938 293.86563 275.04938 293.27188Q275.54938 292.67813 275.54938 291.42813Q275.54938 290.24063 275.065 289.6625Q274.58063 289.06876 273.89313 289.06876Q273.22125 289.06876 272.70563 289.69376Q272.19 290.31876 272.19 291.52188ZM278.22125 294.6L278.22125 288.38126L279.17438 288.38126L279.17438 289.31876Q279.53375 288.6625 279.83063 288.45938Q280.14313 288.24063 280.51813 288.24063Q281.04938 288.24063 281.59625 288.56876L281.23688 289.55313Q280.84625 289.31876 280.47125 289.31876Q280.11188 289.31876 279.83063 289.5375Q279.565 289.74063 279.45563 290.11563Q279.26813 290.67813 279.26813 291.33438L279.26813 294.6L278.22125 294.6ZM282.23688 287.225L282.23688 286.00626L283.29938 286.00626L283.29938 287.225L282.23688 287.225ZM282.23688 294.6L282.23688 288.38126L283.29938 288.38126L283.29938 294.6L282.23688 294.6ZM285.23688 294.6L285.23688 288.38126L286.17438 288.38126L286.17438 289.25626Q286.86188 288.24063 288.15875 288.24063Q288.72125 288.24063 289.19 288.44376Q289.67438 288.64688 289.90875 288.975Q290.14313 289.30313 290.23688 289.74063Q290.28375 290.0375 290.28375 290.77188L290.28375 294.6L289.23688 294.6L289.23688 290.81876Q289.23688 290.1625 289.11188 289.85Q288.98688 289.5375 288.67438 289.35Q288.36188 289.14688 287.94 289.14688Q287.26813 289.14688 286.76813 289.58438Q286.28375 290.00626 286.28375 291.19376L286.28375 294.6L285.23688 294.6ZM294.53375 293.6625L294.69 294.58438Q294.23688 294.67813 293.89313 294.67813Q293.315 294.67813 293.0025 294.50626Q292.69 294.31876 292.54938 294.02188Q292.42438 293.725 292.42438 292.77188L292.42438 289.19376L291.65875 289.19376L291.65875 288.38126L292.42438 288.38126L292.42438 286.83438L293.47125 286.20938L293.47125 288.38126L294.53375 288.38126L294.53375 289.19376L293.47125 289.19376L293.47125 292.83438Q293.47125 293.2875 293.51813 293.4125Q293.58063 293.5375 293.70563 293.61563Q293.83063 293.69376 294.065 293.69376Q294.2525 293.69376 294.53375 293.6625Z" fill-rule="nonzero"/><path fill="#000000" d="M275.44 306.35L276.54938 306.25626Q276.67438 307.06876 277.11188 307.475Q277.565 307.88126 278.20563 307.88126Q278.95563 307.88126 279.48688 307.30313Q280.01813 306.725 280.01813 305.7875Q280.01813 304.88126 279.5025 304.36563Q279.0025 303.83438 278.17438 303.83438Q277.67438 303.83438 277.2525 304.06876Q276.84625 304.30313 276.61188 304.6625L275.6275 304.5375L276.45563 300.13126L280.73688 300.13126L280.73688 301.13126L277.29938 301.13126L276.84625 303.44376Q277.61188 302.89688 278.45563 302.89688Q279.58063 302.89688 280.34625 303.67813Q281.1275 304.45938 281.1275 305.69376Q281.1275 306.85 280.45563 307.70938Q279.6275 308.74063 278.20563 308.74063Q277.03375 308.74063 276.28375 308.08438Q275.54938 307.42813 275.44 306.35Z" fill-rule="nonzero"/><path fill="#000000" d="M306.10687 291.83438L307.16937 291.74063Q307.2475 292.39688 307.52875 292.80313Q307.81 293.20938 308.38812 293.475Q308.98187 293.725 309.71625 293.725Q310.35687 293.725 310.85687 293.5375Q311.35687 293.33438 311.59125 293.00626Q311.84125 292.6625 311.84125 292.27188Q311.84125 291.86563 311.60687 291.56876Q311.3725 291.25626 310.84125 291.05313Q310.48187 290.9125 309.29437 290.63126Q308.1225 290.35 307.65375 290.1Q307.02875 289.77188 306.73187 289.30313Q306.435 288.81876 306.435 288.225Q306.435 287.58438 306.79437 287.02188Q307.16937 286.44376 307.8725 286.1625Q308.59125 285.86563 309.45062 285.86563Q310.40375 285.86563 311.13812 286.17813Q311.8725 286.475 312.26312 287.08438Q312.65375 287.67813 312.685 288.42813L311.59125 288.50626Q311.4975 287.69376 310.98187 287.2875Q310.48187 286.86563 309.4975 286.86563Q308.46625 286.86563 307.9975 287.24063Q307.52875 287.61563 307.52875 288.14688Q307.52875 288.61563 307.85687 288.9125Q308.185 289.20938 309.56 289.52188Q310.95062 289.83438 311.46625 290.06876Q312.21625 290.42813 312.57562 290.95938Q312.935 291.475 312.935 292.17813Q312.935 292.86563 312.54437 293.475Q312.15375 294.06876 311.41937 294.4125Q310.685 294.74063 309.76312 294.74063Q308.59125 294.74063 307.79437 294.4125Q307.01312 294.06876 306.56 293.38126Q306.1225 292.69376 306.10687 291.83438ZM314.35687 296.99063L314.35687 288.38126L315.31 288.38126L315.31 289.17813Q315.65375 288.70938 316.07562 288.475Q316.51312 288.24063 317.1225 288.24063Q317.91937 288.24063 318.52875 288.64688Q319.13812 289.05313 319.435 289.80313Q319.7475 290.55313 319.7475 291.44376Q319.7475 292.39688 319.40375 293.1625Q319.07562 293.92813 318.41937 294.33438Q317.76312 294.74063 317.04437 294.74063Q316.51312 294.74063 316.09125 294.52188Q315.66937 294.2875 315.40375 293.95938L315.40375 296.99063L314.35687 296.99063ZM315.31 291.52188Q315.31 292.725 315.79437 293.30313Q316.27875 293.86563 316.96625 293.86563Q317.66937 293.86563 318.16937 293.27188Q318.66937 292.67813 318.66937 291.42813Q318.66937 290.24063 318.185 289.6625Q317.70062 289.06876 317.01312 289.06876Q316.34125 289.06876 315.82562 289.69376Q315.31 290.31876 315.31 291.52188ZM321.34125 294.6L321.34125 288.38126L322.29437 288.38126L322.29437 289.31876Q322.65375 288.6625 322.95062 288.45938Q323.26312 288.24063 323.63812 288.24063Q324.16937 288.24063 324.71625 288.56876L324.35687 289.55313Q323.96625 289.31876 323.59125 289.31876Q323.23187 289.31876 322.95062 289.5375Q322.685 289.74063 322.57562 290.11563Q322.38812 290.67813 322.38812 291.33438L322.38812 294.6L321.34125 294.6ZM325.35687 287.225L325.35687 286.00626L326.41937 286.00626L326.41937 287.225L325.35687 287.225ZM325.35687 294.6L325.35687 288.38126L326.41937 288.38126L326.41937 294.6L325.35687 294.6ZM328.35687 294.6L328.35687 288.38126L329.29437 288.38126L329.29437 289.25626Q329.98187 288.24063 331.27875 288.24063Q331.84125 288.24063 332.31 288.44376Q332.79437 288.64688 333.02875 288.975Q333.26312 289.30313 333.35687 289.74063Q333.40375 290.0375 333.40375 290.77188L333.40375 294.6L332.35687 294.6L332.35687 290.81876Q332.35687 290.1625 332.23187 289.85Q332.10687 289.5375 331.79437 289.35Q331.48187 289.14688 331.06 289.14688Q330.38812 289.14688 329.88812 289.58438Q329.40375 290.00626 329.40375 291.19376L329.40375 294.6L328.35687 294.6ZM337.65375 293.6625L337.81 294.58438Q337.35687 294.67813 337.01312 294.67813Q336.435 294.67813 336.1225 294.50626Q335.81 294.31876 335.66937 294.02188Q335.54437 293.725 335.54437 292.77188L335.54437 289.19376L334.77875 289.19376L334.77875 288.38126L335.54437 288.38126L335.54437 286.83438L336.59125 286.20938L336.59125 288.38126L337.65375 288.38126L337.65375 289.19376L336.59125 289.19376L336.59125 292.83438Q336.59125 293.2875 336.63812 293.4125Q336.70062 293.5375 336.82562 293.61563Q336.95062 293.69376 337.185 293.69376Q337.3725 293.69376 337.65375 293.6625Z" fill-rule="nonzero"/><path fill="#000000" d="M324.02875 302.11563L322.98187 302.19376Q322.84125 301.56876 322.59125 301.2875Q322.15375 300.83438 321.52875 300.83438Q321.02875 300.83438 320.63812 301.11563Q320.15375 301.49063 319.85687 302.19376Q319.57562 302.88126 319.56 304.1625Q319.935 303.58438 320.48187 303.30313Q321.04437 303.02188 321.65375 303.02188Q322.70062 303.02188 323.435 303.80313Q324.185 304.58438 324.185 305.80313Q324.185 306.61563 323.82562 307.31876Q323.48187 308.00626 322.8725 308.38126Q322.26312 308.74063 321.4975 308.74063Q320.16937 308.74063 319.34125 307.77188Q318.51312 306.80313 318.51312 304.58438Q318.51312 302.08438 319.435 300.95938Q320.23187 299.975 321.59125 299.975Q322.60687 299.975 323.2475 300.55313Q323.90375 301.11563 324.02875 302.11563ZM319.73187 305.81876Q319.73187 306.36563 319.95062 306.86563Q320.185 307.35 320.59125 307.61563Q321.01312 307.88126 321.48187 307.88126Q322.13812 307.88126 322.6225 307.35Q323.10687 306.80313 323.10687 305.88126Q323.10687 304.99063 322.6225 304.475Q322.15375 303.95938 321.435 303.95938Q320.71625 303.95938 320.21625 304.475Q319.73187 304.99063 319.73187 305.81876Z" fill-rule="nonzero"/><path fill="#000000" d="M349.22687 291.83438L350.28937 291.74063Q350.3675 292.39688 350.64874 292.80313Q350.93 293.20938 351.50812 293.475Q352.10187 293.725 352.83624 293.725Q353.47687 293.725 353.97687 293.5375Q354.47687 293.33438 354.71124 293.00626Q354.96124 292.6625 354.96124 292.27188Q354.96124 291.86563 354.72687 291.56876Q354.4925 291.25626 353.96124 291.05313Q353.60187 290.9125 352.41437 290.63126Q351.2425 290.35 350.77374 290.1Q350.14874 289.77188 349.85187 289.30313Q349.555 288.81876 349.555 288.225Q349.555 287.58438 349.91437 287.02188Q350.28937 286.44376 350.9925 286.1625Q351.71124 285.86563 352.57062 285.86563Q353.52374 285.86563 354.25812 286.17813Q354.9925 286.475 355.38312 287.08438Q355.77374 287.67813 355.805 288.42813L354.71124 288.50626Q354.6175 287.69376 354.10187 287.2875Q353.60187 286.86563 352.6175 286.86563Q351.58624 286.86563 351.1175 287.24063Q350.64874 287.61563 350.64874 288.14688Q350.64874 288.61563 350.97687 288.9125Q351.305 289.20938 352.68 289.52188Q354.07062 289.83438 354.58624 290.06876Q355.33624 290.42813 355.69562 290.95938Q356.055 291.475 356.055 292.17813Q356.055 292.86563 355.66437 293.475Q355.27374 294.06876 354.53937 294.4125Q353.805 294.74063 352.88312 294.74063Q351.71124 294.74063 350.91437 294.4125Q350.13312 294.06876 349.68 293.38126Q349.2425 292.69376 349.22687 291.83438ZM357.47687 296.99063L357.47687 288.38126L358.43 288.38126L358.43 289.17813Q358.77374 288.70938 359.19562 288.475Q359.63312 288.24063 360.2425 288.24063Q361.03937 288.24063 361.64874 288.64688Q362.25812 289.05313 362.555 289.80313Q362.8675 290.55313 362.8675 291.44376Q362.8675 292.39688 362.52374 293.1625Q362.19562 293.92813 361.53937 294.33438Q360.88312 294.74063 360.16437 294.74063Q359.63312 294.74063 359.21124 294.52188Q358.78937 294.2875 358.52374 293.95938L358.52374 296.99063L357.47687 296.99063ZM358.43 291.52188Q358.43 292.725 358.91437 293.30313Q359.39874 293.86563 360.08624 293.86563Q360.78937 293.86563 361.28937 293.27188Q361.78937 292.67813 361.78937 291.42813Q361.78937 290.24063 361.305 289.6625Q360.82062 289.06876 360.13312 289.06876Q359.46124 289.06876 358.94562 289.69376Q358.43 290.31876 358.43 291.52188ZM364.46124 294.6L364.46124 288.38126L365.41437 288.38126L365.41437 289.31876Q365.77374 288.6625 366.07062 288.45938Q366.38312 288.24063 366.75812 288.24063Q367.28937 288.24063 367.83624 288.56876L367.47687 289.55313Q367.08624 289.31876 366.71124 289.31876Q366.35187 289.31876 366.07062 289.5375Q365.805 289.74063 365.69562 290.11563Q365.50812 290.67813 365.50812 291.33438L365.50812 294.6L364.46124 294.6ZM368.47687 287.225L368.47687 286.00626L369.53937 286.00626L369.53937 287.225L368.47687 287.225ZM368.47687 294.6L368.47687 288.38126L369.53937 288.38126L369.53937 294.6L368.47687 294.6ZM371.47687 294.6L371.47687 288.38126L372.41437 288.38126L372.41437 289.25626Q373.10187 288.24063 374.39874 288.24063Q374.96124 288.24063 375.43 288.44376Q375.91437 288.64688 376.14874 288.975Q376.38312 289.30313 376.47687 289.74063Q376.52374 290.0375 376.52374 290.77188L376.52374 294.6L375.47687 294.6L375.47687 290.81876Q375.47687 290.1625 375.35187 289.85Q375.22687 289.5375 374.91437 289.35Q374.60187 289.14688 374.18 289.14688Q373.50812 289.14688 373.00812 289.58438Q372.52374 290.00626 372.52374 291.19376L372.52374 294.6L371.47687 294.6ZM380.77374 293.6625L380.93 294.58438Q380.47687 294.67813 380.13312 294.67813Q379.555 294.67813 379.2425 294.50626Q378.93 294.31876 378.78937 294.02188Q378.66437 293.725 378.66437 292.77188L378.66437 289.19376L377.89874 289.19376L377.89874 288.38126L378.66437 288.38126L378.66437 286.83438L379.71124 286.20938L379.71124 288.38126L380.77374 288.38126L380.77374 289.19376L379.71124 289.19376L379.71124 292.83438Q379.71124 293.2875 379.75812 293.4125Q379.82062 293.5375 379.94562 293.61563Q380.07062 293.69376 380.305 293.69376Q380.4925 293.69376 380.77374 293.6625Z" fill-rule="nonzero"/><path fill="#000000" d="M361.7425 301.13126L361.7425 300.11563L367.305 300.11563L367.305 300.94376Q366.4925 301.81876 365.68 303.27188Q364.88312 304.70938 364.44562 306.24063Q364.1175 307.31876 364.03937 308.6L362.94562 308.6Q362.96124 307.58438 363.33624 306.14688Q363.72687 304.70938 364.43 303.38126Q365.14874 302.05313 365.96124 301.13126L361.7425 301.13126Z" fill-rule="nonzero"/><path fill="#000000" d="M392.34686 291.83438L393.40936 291.74063Q393.4875 292.39688 393.76874 292.80313Q394.05 293.20938 394.6281 293.475Q395.22186 293.725 395.95624 293.725Q396.59686 293.725 397.09686 293.5375Q397.59686 293.33438 397.83124 293.00626Q398.08124 292.6625 398.08124 292.27188Q398.08124 291.86563 397.84686 291.56876Q397.6125 291.25626 397.08124 291.05313Q396.72186 290.9125 395.53436 290.63126Q394.3625 290.35 393.89374 290.1Q393.26874 289.77188 392.97186 289.30313Q392.675 288.81876 392.675 288.225Q392.675 287.58438 393.03436 287.02188Q393.40936 286.44376 394.1125 286.1625Q394.83124 285.86563 395.6906 285.86563Q396.64374 285.86563 397.3781 286.17813Q398.1125 286.475 398.5031 287.08438Q398.89374 287.67813 398.925 288.42813L397.83124 288.50626Q397.7375 287.69376 397.22186 287.2875Q396.72186 286.86563 395.7375 286.86563Q394.70624 286.86563 394.2375 287.24063Q393.76874 287.61563 393.76874 288.14688Q393.76874 288.61563 394.09686 288.9125Q394.425 289.20938 395.8 289.52188Q397.1906 289.83438 397.70624 290.06876Q398.45624 290.42813 398.8156 290.95938Q399.175 291.475 399.175 292.17813Q399.175 292.86563 398.78436 293.475Q398.39374 294.06876 397.65936 294.4125Q396.925 294.74063 396.0031 294.74063Q394.83124 294.74063 394.03436 294.4125Q393.2531 294.06876 392.8 293.38126Q392.3625 292.69376 392.34686 291.83438ZM400.59686 296.99063L400.59686 288.38126L401.55 288.38126L401.55 289.17813Q401.89374 288.70938 402.3156 288.475Q402.7531 288.24063 403.3625 288.24063Q404.15936 288.24063 404.76874 288.64688Q405.3781 289.05313 405.675 289.80313Q405.9875 290.55313 405.9875 291.44376Q405.9875 292.39688 405.64374 293.1625Q405.3156 293.92813 404.65936 294.33438Q404.0031 294.74063 403.28436 294.74063Q402.7531 294.74063 402.33124 294.52188Q401.90936 294.2875 401.64374 293.95938L401.64374 296.99063L400.59686 296.99063ZM401.55 291.52188Q401.55 292.725 402.03436 293.30313Q402.51874 293.86563 403.20624 293.86563Q403.90936 293.86563 404.40936 293.27188Q404.90936 292.67813 404.90936 291.42813Q404.90936 290.24063 404.425 289.6625Q403.9406 289.06876 403.2531 289.06876Q402.58124 289.06876 402.0656 289.69376Q401.55 290.31876 401.55 291.52188ZM407.58124 294.6L407.58124 288.38126L408.53436 288.38126L408.53436 289.31876Q408.89374 288.6625 409.1906 288.45938Q409.5031 288.24063 409.8781 288.24063Q410.40936 288.24063 410.95624 288.56876L410.59686 289.55313Q410.20624 289.31876 409.83124 289.31876Q409.47186 289.31876 409.1906 289.5375Q408.925 289.74063 408.8156 290.11563Q408.6281 290.67813 408.6281 291.33438L408.6281 294.6L407.58124 294.6ZM411.59686 287.225L411.59686 286.00626L412.65936 286.00626L412.65936 287.225L411.59686 287.225ZM411.59686 294.6L411.59686 288.38126L412.65936 288.38126L412.65936 294.6L411.59686 294.6ZM414.59686 294.6L414.59686 288.38126L415.53436 288.38126L415.53436 289.25626Q416.22186 288.24063 417.51874 288.24063Q418.08124 288.24063 418.55 288.44376Q419.03436 288.64688 419.26874 288.975Q419.5031 289.30313 419.59686 289.74063Q419.64374 290.0375 419.64374 290.77188L419.64374 294.6L418.59686 294.6L418.59686 290.81876Q418.59686 290.1625 418.47186 289.85Q418.34686 289.5375 418.03436 289.35Q417.72186 289.14688 417.3 289.14688Q416.6281 289.14688 416.1281 289.58438Q415.64374 290.00626 415.64374 291.19376L415.64374 294.6L414.59686 294.6ZM423.89374 293.6625L424.05 294.58438Q423.59686 294.67813 423.2531 294.67813Q422.675 294.67813 422.3625 294.50626Q422.05 294.31876 421.90936 294.02188Q421.78436 293.725 421.78436 292.77188L421.78436 289.19376L421.01874 289.19376L421.01874 288.38126L421.78436 288.38126L421.78436 286.83438L422.83124 286.20938L422.83124 288.38126L423.89374 288.38126L423.89374 289.19376L422.83124 289.19376L422.83124 292.83438Q422.83124 293.2875 422.8781 293.4125Q422.9406 293.5375 423.0656 293.61563Q423.1906 293.69376 423.425 293.69376Q423.6125 293.69376 423.89374 293.6625Z" fill-rule="nonzero"/><path fill="#000000" d="M406.425 303.94376Q405.76874 303.69376 405.4406 303.25626Q405.1281 302.80313 405.1281 302.19376Q405.1281 301.25626 405.8 300.61563Q406.4875 299.975 407.59686 299.975Q408.72186 299.975 409.40936 300.63126Q410.09686 301.2875 410.09686 302.225Q410.09686 302.81876 409.78436 303.25626Q409.47186 303.69376 408.83124 303.94376Q409.6281 304.19376 410.03436 304.77188Q410.4406 305.35 410.4406 306.14688Q410.4406 307.24063 409.65936 307.99063Q408.89374 308.74063 407.6125 308.74063Q406.34686 308.74063 405.5656 307.99063Q404.78436 307.24063 404.78436 306.11563Q404.78436 305.27188 405.20624 304.70938Q405.64374 304.14688 406.425 303.94376ZM406.20624 302.14688Q406.20624 302.75626 406.59686 303.14688Q407.0031 303.5375 407.6281 303.5375Q408.2375 303.5375 408.6281 303.1625Q409.01874 302.77188 409.01874 302.20938Q409.01874 301.63126 408.6125 301.24063Q408.20624 300.83438 407.6125 300.83438Q407.0031 300.83438 406.59686 301.225Q406.20624 301.61563 406.20624 302.14688ZM405.8781 306.11563Q405.8781 306.56876 406.08124 306.99063Q406.3 307.4125 406.72186 307.64688Q407.14374 307.88126 407.6281 307.88126Q408.3781 307.88126 408.8625 307.39688Q409.3625 306.9125 409.3625 306.1625Q409.3625 305.39688 408.8625 304.89688Q408.3625 304.39688 407.59686 304.39688Q406.84686 304.39688 406.3625 304.89688Q405.8781 305.38126 405.8781 306.11563Z" fill-rule="nonzero"/><path fill="#000000" d="M435.4669 291.83438L436.5294 291.74063Q436.6075 292.39688 436.88876 292.80313Q437.17 293.20938 437.74814 293.475Q438.3419 293.725 439.07626 293.725Q439.7169 293.725 440.2169 293.5375Q440.7169 293.33438 440.95126 293.00626Q441.20126 292.6625 441.20126 292.27188Q441.20126 291.86563 440.9669 291.56876Q440.7325 291.25626 440.20126 291.05313Q439.8419 290.9125 438.6544 290.63126Q437.4825 290.35 437.01376 290.1Q436.38876 289.77188 436.0919 289.30313Q435.795 288.81876 435.795 288.225Q435.795 287.58438 436.1544 287.02188Q436.5294 286.44376 437.2325 286.1625Q437.95126 285.86563 438.81064 285.86563Q439.76376 285.86563 440.49814 286.17813Q441.2325 286.475 441.62314 287.08438Q442.01376 287.67813 442.045 288.42813L440.95126 288.50626Q440.8575 287.69376 440.3419 287.2875Q439.8419 286.86563 438.8575 286.86563Q437.82626 286.86563 437.3575 287.24063Q436.88876 287.61563 436.88876 288.14688Q436.88876 288.61563 437.2169 288.9125Q437.545 289.20938 438.92 289.52188Q440.31064 289.83438 440.82626 290.06876Q441.57626 290.42813 441.93564 290.95938Q442.295 291.475 442.295 292.17813Q442.295 292.86563 441.9044 293.475Q441.51376 294.06876 440.7794 294.4125Q440.045 294.74063 439.12314 294.74063Q437.95126 294.74063 437.1544 294.4125Q436.37314 294.06876 435.92 293.38126Q435.4825 292.69376 435.4669 291.83438ZM443.7169 296.99063L443.7169 288.38126L444.67 288.38126L444.67 289.17813Q445.01376 288.70938 445.43564 288.475Q445.87314 288.24063 446.4825 288.24063Q447.2794 288.24063 447.88876 288.64688Q448.49814 289.05313 448.795 289.80313Q449.1075 290.55313 449.1075 291.44376Q449.1075 292.39688 448.76376 293.1625Q448.43564 293.92813 447.7794 294.33438Q447.12314 294.74063 446.4044 294.74063Q445.87314 294.74063 445.45126 294.52188Q445.0294 294.2875 444.76376 293.95938L444.76376 296.99063L443.7169 296.99063ZM444.67 291.52188Q444.67 292.725 445.1544 293.30313Q445.63876 293.86563 446.32626 293.86563Q447.0294 293.86563 447.5294 293.27188Q448.0294 292.67813 448.0294 291.42813Q448.0294 290.24063 447.545 289.6625Q447.06064 289.06876 446.37314 289.06876Q445.70126 289.06876 445.18564 289.69376Q444.67 290.31876 444.67 291.52188ZM450.70126 294.6L450.70126 288.38126L451.6544 288.38126L451.6544 289.31876Q452.01376 288.6625 452.31064 288.45938Q452.62314 288.24063 452.99814 288.24063Q453.5294 288.24063 454.07626 288.56876L453.7169 289.55313Q453.32626 289.31876 452.95126 289.31876Q452.5919 289.31876 452.31064 289.5375Q452.045 289.74063 451.93564 290.11563Q451.74814 290.67813 451.74814 291.33438L451.74814 294.6L450.70126 294.6ZM454.7169 287.225L454.7169 286.00626L455.7794 286.00626L455.7794 287.225L454.7169 287.225ZM454.7169 294.6L454.7169 288.38126L455.7794 288.38126L455.7794 294.6L454.7169 294.6ZM457.7169 294.6L457.7169 288.38126L458.6544 288.38126L458.6544 289.25626Q459.3419 288.24063 460.63876 288.24063Q461.20126 288.24063 461.67 288.44376Q462.1544 288.64688 462.38876 288.975Q462.62314 289.30313 462.7169 289.74063Q462.76376 290.0375 462.76376 290.77188L462.76376 294.6L461.7169 294.6L461.7169 290.81876Q461.7169 290.1625 461.5919 289.85Q461.4669 289.5375 461.1544 289.35Q460.8419 289.14688 460.42 289.14688Q459.74814 289.14688 459.24814 289.58438Q458.76376 290.00626 458.76376 291.19376L458.76376 294.6L457.7169 294.6ZM467.01376 293.6625L467.17 294.58438Q466.7169 294.67813 466.37314 294.67813Q465.795 294.67813 465.4825 294.50626Q465.17 294.31876 465.0294 294.02188Q464.9044 293.725 464.9044 292.77188L464.9044 289.19376L464.13876 289.19376L464.13876 288.38126L464.9044 288.38126L464.9044 286.83438L465.95126 286.20938L465.95126 288.38126L467.01376 288.38126L467.01376 289.19376L465.95126 289.19376L465.95126 292.83438Q465.95126 293.2875 465.99814 293.4125Q466.06064 293.5375 466.18564 293.61563Q466.31064 293.69376 466.545 293.69376Q466.7325 293.69376 467.01376 293.6625Z" fill-rule="nonzero"/><path fill="#000000" d="M448.07626 306.61563L449.0919 306.52188Q449.2169 307.24063 449.57626 307.56876Q449.95126 307.88126 450.51376 307.88126Q450.99814 307.88126 451.3575 307.6625Q451.7325 307.42813 451.9669 307.06876Q452.20126 306.69376 452.3575 306.06876Q452.51376 305.42813 452.51376 304.77188Q452.51376 304.69376 452.51376 304.55313Q452.20126 305.05313 451.6544 305.38126Q451.1075 305.69376 450.4669 305.69376Q449.38876 305.69376 448.6544 304.92813Q447.92 304.14688 447.92 302.88126Q447.92 301.56876 448.68564 300.77188Q449.4669 299.975 450.62314 299.975Q451.45126 299.975 452.13876 300.42813Q452.8419 300.88126 453.20126 301.725Q453.56064 302.55313 453.56064 304.13126Q453.56064 305.77188 453.20126 306.75626Q452.8575 307.725 452.13876 308.24063Q451.43564 308.74063 450.49814 308.74063Q449.4825 308.74063 448.8419 308.19376Q448.20126 307.63126 448.07626 306.61563ZM452.38876 302.81876Q452.38876 301.9125 451.9044 301.38126Q451.43564 300.85 450.74814 300.85Q450.045 300.85 449.51376 301.42813Q448.99814 301.99063 448.99814 302.9125Q448.99814 303.725 449.49814 304.24063Q449.99814 304.75626 450.7169 304.75626Q451.45126 304.75626 451.92 304.24063Q452.38876 303.725 452.38876 302.81876Z" fill-rule="nonzero"/><path fill="#000000" d="M478.58688 291.83438L479.64938 291.74063Q479.7275 292.39688 480.00876 292.80313Q480.29 293.20938 480.86813 293.475Q481.46188 293.725 482.19626 293.725Q482.83688 293.725 483.33688 293.5375Q483.83688 293.33438 484.07126 293.00626Q484.32126 292.6625 484.32126 292.27188Q484.32126 291.86563 484.08688 291.56876Q483.8525 291.25626 483.32126 291.05313Q482.96188 290.9125 481.77438 290.63126Q480.6025 290.35 480.13376 290.1Q479.50876 289.77188 479.21188 289.30313Q478.915 288.81876 478.915 288.225Q478.915 287.58438 479.27438 287.02188Q479.64938 286.44376 480.3525 286.1625Q481.07126 285.86563 481.93063 285.86563Q482.88376 285.86563 483.61813 286.17813Q484.3525 286.475 484.74313 287.08438Q485.13376 287.67813 485.165 288.42813L484.07126 288.50626Q483.9775 287.69376 483.46188 287.2875Q482.96188 286.86563 481.9775 286.86563Q480.94626 286.86563 480.4775 287.24063Q480.00876 287.61563 480.00876 288.14688Q480.00876 288.61563 480.33688 288.9125Q480.665 289.20938 482.04 289.52188Q483.43063 289.83438 483.94626 290.06876Q484.69626 290.42813 485.05563 290.95938Q485.415 291.475 485.415 292.17813Q485.415 292.86563 485.02438 293.475Q484.63376 294.06876 483.89938 294.4125Q483.165 294.74063 482.24313 294.74063Q481.07126 294.74063 480.27438 294.4125Q479.49313 294.06876 479.04 293.38126Q478.6025 292.69376 478.58688 291.83438ZM486.83688 296.99063L486.83688 288.38126L487.79 288.38126L487.79 289.17813Q488.13376 288.70938 488.55563 288.475Q488.99313 288.24063 489.6025 288.24063Q490.39938 288.24063 491.00876 288.64688Q491.61813 289.05313 491.915 289.80313Q492.2275 290.55313 492.2275 291.44376Q492.2275 292.39688 491.88376 293.1625Q491.55563 293.92813 490.89938 294.33438Q490.24313 294.74063 489.52438 294.74063Q488.99313 294.74063 488.57126 294.52188Q488.14938 294.2875 487.88376 293.95938L487.88376 296.99063L486.83688 296.99063ZM487.79 291.52188Q487.79 292.725 488.27438 293.30313Q488.75876 293.86563 489.44626 293.86563Q490.14938 293.86563 490.64938 293.27188Q491.14938 292.67813 491.14938 291.42813Q491.14938 290.24063 490.665 289.6625Q490.18063 289.06876 489.49313 289.06876Q488.82126 289.06876 488.30563 289.69376Q487.79 290.31876 487.79 291.52188ZM493.82126 294.6L493.82126 288.38126L494.77438 288.38126L494.77438 289.31876Q495.13376 288.6625 495.43063 288.45938Q495.74313 288.24063 496.11813 288.24063Q496.64938 288.24063 497.19626 288.56876L496.83688 289.55313Q496.44626 289.31876 496.07126 289.31876Q495.71188 289.31876 495.43063 289.5375Q495.165 289.74063 495.05563 290.11563Q494.86813 290.67813 494.86813 291.33438L494.86813 294.6L493.82126 294.6ZM497.83688 287.225L497.83688 286.00626L498.89938 286.00626L498.89938 287.225L497.83688 287.225ZM497.83688 294.6L497.83688 288.38126L498.89938 288.38126L498.89938 294.6L497.83688 294.6ZM500.83688 294.6L500.83688 288.38126L501.77438 288.38126L501.77438 289.25626Q502.46188 288.24063 503.75876 288.24063Q504.32126 288.24063 504.79 288.44376Q505.27438 288.64688 505.50876 288.975Q505.74313 289.30313 505.83688 289.74063Q505.88376 290.0375 505.88376 290.77188L505.88376 294.6L504.83688 294.6L504.83688 290.81876Q504.83688 290.1625 504.71188 289.85Q504.58688 289.5375 504.27438 289.35Q503.96188 289.14688 503.54 289.14688Q502.86813 289.14688 502.36813 289.58438Q501.88376 290.00626 501.88376 291.19376L501.88376 294.6L500.83688 294.6ZM510.13376 293.6625L510.29 294.58438Q509.83688 294.67813 509.49313 294.67813Q508.915 294.67813 508.6025 294.50626Q508.29 294.31876 508.14938 294.02188Q508.02438 293.725 508.02438 292.77188L508.02438 289.19376L507.25876 289.19376L507.25876 288.38126L508.02438 288.38126L508.02438 286.83438L509.07126 286.20938L509.07126 288.38126L510.13376 288.38126L510.13376 289.19376L509.07126 289.19376L509.07126 292.83438Q509.07126 293.2875 509.11813 293.4125Q509.18063 293.5375 509.30563 293.61563Q509.43063 293.69376 509.665 293.69376Q509.8525 293.69376 510.13376 293.6625Z" fill-rule="nonzero"/><path fill="#000000" d="M491.50876 308.6L490.46188 308.6L490.46188 301.88126Q490.07126 302.24063 489.44626 302.61563Q488.83688 302.975 488.3525 303.14688L488.3525 302.13126Q489.2275 301.70938 489.88376 301.13126Q490.55563 300.5375 490.83688 299.975L491.50876 299.975L491.50876 308.6ZM494.54 304.36563Q494.54 302.83438 494.8525 301.9125Q495.165 300.975 495.77438 300.475Q496.39938 299.975 497.33688 299.975Q498.02438 299.975 498.54 300.25626Q499.07126 300.5375 499.415 301.06876Q499.75876 301.58438 499.94626 302.33438Q500.13376 303.08438 500.13376 304.36563Q500.13376 305.88126 499.82126 306.80313Q499.52438 307.725 498.89938 308.24063Q498.29 308.74063 497.33688 308.74063Q496.1025 308.74063 495.38376 307.85Q494.54 306.7875 494.54 304.36563ZM495.61813 304.36563Q495.61813 306.475 496.11813 307.17813Q496.61813 307.88126 497.33688 307.88126Q498.07126 307.88126 498.55563 307.17813Q499.05563 306.475 499.05563 304.36563Q499.05563 302.24063 498.55563 301.55313Q498.07126 300.85 497.32126 300.85Q496.6025 300.85 496.165 301.45938Q495.61813 302.24063 495.61813 304.36563Z" fill-rule="nonzero"/><path fill="#4285f4" d="M136.0 23.4C136.0 26.713709 133.3137 29.4 130.0 29.4C126.686295 29.4 124.0 26.713709 124.0 23.4C124.0 20.086292 126.686295 17.4 130.0 17.4C133.3137 17.4 136.0 20.086292 136.0 23.4Z" fill-rule="nonzero"/><path fill="#1a1a1a" d="M151.0625 24.384375L152.1875 24.68125Q151.82812 26.071875 150.90625 26.80625Q149.98438 27.540625 148.64062 27.540625Q147.25 27.540625 146.375 26.978125Q145.5 26.415625 145.04688 25.353125Q144.59375 24.275 144.59375 23.040625Q144.59375 21.696875 145.10938 20.696875Q145.625 19.696875 146.5625 19.18125Q147.51562 18.665625 148.65625 18.665625Q149.9375 18.665625 150.8125 19.321875Q151.70312 19.978125 152.04688 21.165625L150.92188 21.43125Q150.625 20.49375 150.04688 20.071875Q149.48438 19.634375 148.625 19.634375Q147.64062 19.634375 146.96875 20.11875Q146.3125 20.5875 146.03125 21.384375Q145.76562 22.18125 145.76562 23.040625Q145.76562 24.134375 146.07812 24.946875Q146.40625 25.759375 147.07812 26.165625Q147.75 26.571875 148.54688 26.571875Q149.5 26.571875 150.15625 26.025Q150.82812 25.478125 151.0625 24.384375ZM153.92188 27.4L153.92188 18.80625L157.17188 18.80625Q158.01562 18.80625 158.46875 18.884375Q159.10938 18.99375 159.53125 19.290625Q159.96875 19.5875 160.21875 20.11875Q160.48438 20.65 160.48438 21.290625Q160.48438 22.384375 159.78125 23.15Q159.09375 23.9 157.26562 23.9L155.0625 23.9L155.0625 27.4L153.92188 27.4ZM155.0625 22.9L157.28125 22.9Q158.39062 22.9 158.84375 22.49375Q159.3125 22.071875 159.3125 21.321875Q159.3125 20.790625 159.03125 20.415625Q158.76562 20.025 158.32812 19.9Q158.03125 19.821875 157.26562 19.821875L155.0625 19.821875L155.0625 22.9ZM162.125 27.4L162.125 18.80625L163.25 18.80625L163.25 27.4L162.125 27.4Z" fill-rule="nonzero"/><path fill="#ea4335" d="M192.0 23.4C192.0 26.713709 189.3137 29.4 186.0 29.4C182.6863 29.4 180.0 26.713709 180.0 23.4C180.0 20.086292 182.6863 17.4 186.0 17.4C189.3137 17.4 192.0 20.086292 192.0 23.4Z" fill-rule="nonzero"/><path fill="#1a1a1a" d="M200.875 27.4L200.875 18.80625L202.01562 18.80625L202.01562 26.384375L206.25 26.384375L206.25 27.4L200.875 27.4ZM207.79688 20.025L207.79688 18.80625L208.85938 18.80625L208.85938 20.025L207.79688 20.025ZM207.79688 27.4L207.79688 21.18125L208.85938 21.18125L208.85938 27.4L207.79688 27.4ZM210.79688 27.4L210.79688 21.18125L211.73438 21.18125L211.73438 22.05625Q212.03125 21.5875 212.51562 21.321875Q213.0 21.040625 213.625 21.040625Q214.3125 21.040625 214.75 21.321875Q215.20312 21.603125 215.375 22.11875Q216.125 21.040625 217.29688 21.040625Q218.23438 21.040625 218.71875 21.55625Q219.21875 22.05625 219.21875 23.134375L219.21875 27.4L218.17188 27.4L218.17188 23.478125Q218.17188 22.853125 218.0625 22.571875Q217.96875 22.290625 217.70312 22.11875Q217.4375 21.946875 217.0625 21.946875Q216.40625 21.946875 215.96875 22.384375Q215.54688 22.821875 215.54688 23.790625L215.54688 27.4L214.48438 27.4L214.48438 23.353125Q214.48438 22.65 214.21875 22.30625Q213.96875 21.946875 213.39062 21.946875Q212.9375 21.946875 212.5625 22.18125Q212.1875 22.415625 212.01562 22.86875Q211.84375 23.321875 211.84375 24.165625L211.84375 27.4L210.79688 27.4ZM221.79688 20.025L221.79688 18.80625L222.85938 18.80625L222.85938 20.025L221.79688 20.025ZM221.79688 27.4L221.79688 21.18125L222.85938 21.18125L222.85938 27.4L221.79688 27.4ZM227.09375 26.4625L227.25 27.384375Q226.79688 27.478125 226.45312 27.478125Q225.875 27.478125 225.5625 27.30625Q225.25 27.11875 225.10938 26.821875Q224.98438 26.525 224.98438 25.571875L224.98438 21.99375L224.21875 21.99375L224.21875 21.18125L224.98438 21.18125L224.98438 19.634375L226.03125 19.009375L226.03125 21.18125L227.09375 21.18125L227.09375 21.99375L226.03125 21.99375L226.03125 25.634375Q226.03125 26.0875 226.07812 26.2125Q226.14062 26.3375 226.26562 26.415625Q226.39062 26.49375 226.625 26.49375Q226.8125 26.49375 227.09375 26.4625ZM232.04688 25.4L233.14062 25.525Q232.89062 26.478125 232.1875 27.009375Q231.48438 27.540625 230.40625 27.540625Q229.04688 27.540625 228.23438 26.696875Q227.4375 25.853125 227.4375 24.3375Q227.4375 22.775 228.25 21.915625Q229.0625 21.040625 230.34375 21.040625Q231.59375 21.040625 232.375 21.884375Q233.17188 22.728125 233.17188 24.275Q233.17188 24.36875 233.17188 24.55625L228.53125 24.55625Q228.59375 25.5875 229.10938 26.134375Q229.625 26.665625 230.40625 26.665625Q230.98438 26.665625 231.39062 26.36875Q231.8125 26.05625 232.04688 25.4ZM228.59375 23.696875L232.0625 23.696875Q232.0 22.9 231.67188 22.509375Q231.15625 21.9 230.35938 21.9Q229.625 21.9 229.125 22.384375Q228.64062 22.86875 228.59375 23.696875ZM237.375 25.540625L238.40625 25.384375Q238.5 26.009375 238.89062 26.3375Q239.29688 26.665625 240.03125 26.665625Q240.75 26.665625 241.09375 26.384375Q241.45312 26.0875 241.45312 25.68125Q241.45312 25.321875 241.14062 25.11875Q240.92188 24.978125 240.0625 24.759375Q238.90625 24.4625 238.45312 24.259375Q238.01562 24.040625 237.78125 23.665625Q237.54688 23.290625 237.54688 22.821875Q237.54688 22.415625 237.73438 22.05625Q237.92188 21.696875 238.25 21.4625Q238.5 21.290625 238.92188 21.165625Q239.34375 21.040625 239.84375 21.040625Q240.5625 21.040625 241.10938 21.259375Q241.67188 21.4625 241.9375 21.821875Q242.20312 22.18125 242.29688 22.775L241.26562 22.915625Q241.20312 22.446875 240.85938 22.18125Q240.53125 21.9 239.90625 21.9Q239.1875 21.9 238.875 22.15Q238.5625 22.384375 238.5625 22.7125Q238.5625 22.915625 238.6875 23.071875Q238.82812 23.24375 239.09375 23.353125Q239.25 23.415625 240.03125 23.61875Q241.15625 23.93125 241.59375 24.11875Q242.03125 24.30625 242.28125 24.665625Q242.53125 25.025 242.53125 25.571875Q242.53125 26.103125 242.21875 26.571875Q241.92188 27.025 241.34375 27.290625Q240.76562 27.540625 240.03125 27.540625Q238.8125 27.540625 238.17188 27.040625Q237.54688 26.525 237.375 25.540625ZM248.875 27.4L248.875 26.478125Q248.14062 27.540625 246.89062 27.540625Q246.34375 27.540625 245.85938 27.3375Q245.39062 27.11875 245.15625 26.80625Q244.92188 26.478125 244.82812 26.009375Q244.76562 25.7125 244.76562 25.025L244.76562 21.18125L245.82812 21.18125L245.82812 24.634375Q245.82812 25.446875 245.89062 25.74375Q245.98438 26.15 246.29688 26.4Q246.625 26.634375 247.10938 26.634375Q247.57812 26.634375 247.98438 26.4Q248.40625 26.15 248.57812 25.728125Q248.76562 25.30625 248.76562 24.509375L248.76562 21.18125L249.8125 21.18125L249.8125 27.4L248.875 27.4ZM251.79688 29.790625L251.79688 21.18125L252.75 21.18125L252.75 21.978125Q253.09375 21.509375 253.51562 21.275Q253.95312 21.040625 254.5625 21.040625Q255.35938 21.040625 255.96875 21.446875Q256.57812 21.853125 256.875 22.603125Q257.1875 23.353125 257.1875 24.24375Q257.1875 25.196875 256.84375 25.9625Q256.51562 26.728125 255.85938 27.134375Q255.20312 27.540625 254.48438 27.540625Q253.95312 27.540625 253.53125 27.321875Q253.10938 27.0875 252.84375 26.759375L252.84375 29.790625L251.79688 29.790625ZM252.75 24.321875Q252.75 25.525 253.23438 26.103125Q253.71875 26.665625 254.40625 26.665625Q255.10938 26.665625 255.60938 26.071875Q256.10938 25.478125 256.10938 24.228125Q256.10938 23.040625 255.625 22.4625Q255.14062 21.86875 254.45312 21.86875Q253.78125 21.86875 253.26562 22.49375Q252.75 23.11875 252.75 24.321875ZM263.04688 25.4L264.14062 25.525Q263.89062 26.478125 263.1875 27.009375Q262.48438 27.540625 261.40625 27.540625Q260.04688 27.540625 259.23438 26.696875Q258.4375 25.853125 258.4375 24.3375Q258.4375 22.775 259.25 21.915625Q260.0625 21.040625 261.34375 21.040625Q262.59375 21.040625 263.375 21.884375Q264.17188 22.728125 264.17188 24.275Q264.17188 24.36875 264.17188 24.55625L259.53125 24.55625Q259.59375 25.5875 260.10938 26.134375Q260.625 26.665625 261.40625 26.665625Q261.98438 26.665625 262.39062 26.36875Q262.8125 26.05625 263.04688 25.4ZM259.59375 23.696875L263.0625 23.696875Q263.0 22.9 262.67188 22.509375Q262.15625 21.9 261.35938 21.9Q260.625 21.9 260.125 22.384375Q259.64062 22.86875 259.59375 23.696875ZM265.78125 27.4L265.78125 21.18125L266.73438 21.18125L266.73438 22.11875Q267.09375 21.4625 267.39062 21.259375Q267.70312 21.040625 268.07812 21.040625Q268.60938 21.040625 269.15625 21.36875L268.79688 22.353125Q268.40625 22.11875 268.03125 22.11875Q267.67188 22.11875 267.39062 22.3375Q267.125 22.540625 267.01562 22.915625Q266.82812 23.478125 266.82812 24.134375L266.82812 27.4L265.78125 27.4ZM269.79688 20.025L269.79688 18.80625L270.85938 18.80625L270.85938 20.025L269.79688 20.025ZM269.79688 27.4L269.79688 21.18125L270.85938 21.18125L270.85938 27.4L269.79688 27.4ZM272.40625 24.290625Q272.40625 22.55625 273.35938 21.728125Q274.15625 21.040625 275.3125 21.040625Q276.59375 21.040625 277.40625 21.884375Q278.23438 22.7125 278.23438 24.196875Q278.23438 25.4 277.875 26.0875Q277.51562 26.775 276.8125 27.165625Q276.125 27.540625 275.3125 27.540625Q274.01562 27.540625 273.20312 26.7125Q272.40625 25.86875 272.40625 24.290625ZM273.48438 24.290625Q273.48438 25.478125 274.0 26.071875Q274.53125 26.665625 275.3125 26.665625Q276.10938 26.665625 276.625 26.071875Q277.14062 25.478125 277.14062 24.259375Q277.14062 23.103125 276.60938 22.509375Q276.09375 21.915625 275.3125 21.915625Q274.53125 21.915625 274.0 22.509375Q273.48438 23.0875 273.48438 24.290625ZM279.78125 27.4L279.78125 21.18125L280.73438 21.18125L280.73438 22.11875Q281.09375 21.4625 281.39062 21.259375Q281.70312 21.040625 282.07812 21.040625Q282.60938 21.040625 283.15625 21.36875L282.79688 22.353125Q282.40625 22.11875 282.03125 22.11875Q281.67188 22.11875 281.39062 22.3375Q281.125 22.540625 281.01562 22.915625Q280.82812 23.478125 280.82812 24.134375L280.82812 27.4L279.78125 27.4ZM288.04688 25.4L289.14062 25.525Q288.89062 26.478125 288.1875 27.009375Q287.48438 27.540625 286.40625 27.540625Q285.04688 27.540625 284.23438 26.696875Q283.4375 25.853125 283.4375 24.3375Q283.4375 22.775 284.25 21.915625Q285.0625 21.040625 286.34375 21.040625Q287.59375 21.040625 288.375 21.884375Q289.17188 22.728125 289.17188 24.275Q289.17188 24.36875 289.17188 24.55625L284.53125 24.55625Q284.59375 25.5875 285.10938 26.134375Q285.625 26.665625 286.40625 26.665625Q286.98438 26.665625 287.39062 26.36875Q287.8125 26.05625 288.04688 25.4ZM284.59375 23.696875L288.0625 23.696875Q288.0 22.9 287.67188 22.509375Q287.15625 21.9 286.35938 21.9Q285.625 21.9 285.125 22.384375Q284.64062 22.86875 284.59375 23.696875Z" fill-rule="nonzero"/><path fill="#fbbc04" fill-opacity="0.7019608" d="M318.0 23.4C318.0 26.713709 315.31372 29.4 312.0 29.4C308.68628 29.4 306.0 26.713709 306.0 23.4C306.0 20.086292 308.68628 17.4 312.0 17.4C315.31372 17.4 318.0 20.086292 318.0 23.4Z" fill-rule="nonzero"/><path fill="#1a1a1a" d="M326.875 27.4L326.875 18.80625L328.01562 18.80625L328.01562 26.384375L332.25 26.384375L332.25 27.4L326.875 27.4ZM333.79688 20.025L333.79688 18.80625L334.85938 18.80625L334.85938 20.025L333.79688 20.025ZM333.79688 27.4L333.79688 21.18125L334.85938 21.18125L334.85938 27.4L333.79688 27.4ZM336.79688 27.4L336.79688 21.18125L337.73438 21.18125L337.73438 22.05625Q338.03125 21.5875 338.51562 21.321875Q339.0 21.040625 339.625 21.040625Q340.3125 21.040625 340.75 21.321875Q341.20312 21.603125 341.375 22.11875Q342.125 21.040625 343.29688 21.040625Q344.23438 21.040625 344.71875 21.55625Q345.21875 22.05625 345.21875 23.134375L345.21875 27.4L344.17188 27.4L344.17188 23.478125Q344.17188 22.853125 344.0625 22.571875Q343.96875 22.290625 343.70312 22.11875Q343.4375 21.946875 343.0625 21.946875Q342.40625 21.946875 341.96875 22.384375Q341.54688 22.821875 341.54688 23.790625L341.54688 27.4L340.48438 27.4L340.48438 23.353125Q340.48438 22.65 340.21875 22.30625Q339.96875 21.946875 339.39062 21.946875Q338.9375 21.946875 338.5625 22.18125Q338.1875 22.415625 338.01562 22.86875Q337.84375 23.321875 337.84375 24.165625L337.84375 27.4L336.79688 27.4ZM347.79688 20.025L347.79688 18.80625L348.85938 18.80625L348.85938 20.025L347.79688 20.025ZM347.79688 27.4L347.79688 21.18125L348.85938 21.18125L348.85938 27.4L347.79688 27.4ZM353.09375 26.4625L353.25 27.384375Q352.79688 27.478125 352.45312 27.478125Q351.875 27.478125 351.5625 27.30625Q351.25 27.11875 351.10938 26.821875Q350.98438 26.525 350.98438 25.571875L350.98438 21.99375L350.21875 21.99375L350.21875 21.18125L350.98438 21.18125L350.98438 19.634375L352.03125 19.009375L352.03125 21.18125L353.09375 21.18125L353.09375 21.99375L352.03125 21.99375L352.03125 25.634375Q352.03125 26.0875 352.07812 26.2125Q352.14062 26.3375 352.26562 26.415625Q352.39062 26.49375 352.625 26.49375Q352.8125 26.49375 353.09375 26.4625ZM358.04688 25.4L359.14062 25.525Q358.89062 26.478125 358.1875 27.009375Q357.48438 27.540625 356.40625 27.540625Q355.04688 27.540625 354.23438 26.696875Q353.4375 25.853125 353.4375 24.3375Q353.4375 22.775 354.25 21.915625Q355.0625 21.040625 356.34375 21.040625Q357.59375 21.040625 358.375 21.884375Q359.17188 22.728125 359.17188 24.275Q359.17188 24.36875 359.17188 24.55625L354.53125 24.55625Q354.59375 25.5875 355.10938 26.134375Q355.625 26.665625 356.40625 26.665625Q356.98438 26.665625 357.39062 26.36875Q357.8125 26.05625 358.04688 25.4ZM354.59375 23.696875L358.0625 23.696875Q358.0 22.9 357.67188 22.509375Q357.15625 21.9 356.35938 21.9Q355.625 21.9 355.125 22.384375Q354.64062 22.86875 354.59375 23.696875ZM363.79688 20.025L363.79688 18.80625L364.85938 18.80625L364.85938 20.025L363.79688 20.025ZM363.79688 27.4L363.79688 21.18125L364.85938 21.18125L364.85938 27.4L363.79688 27.4ZM366.79688 27.4L366.79688 21.18125L367.73438 21.18125L367.73438 22.05625Q368.42188 21.040625 369.71875 21.040625Q370.28125 21.040625 370.75 21.24375Q371.23438 21.446875 371.46875 21.775Q371.70312 22.103125 371.79688 22.540625Q371.84375 22.8375 371.84375 23.571875L371.84375 27.4L370.79688 27.4L370.79688 23.61875Q370.79688 22.9625 370.67188 22.65Q370.54688 22.3375 370.23438 22.15Q369.92188 21.946875 369.5 21.946875Q368.82812 21.946875 368.32812 22.384375Q367.84375 22.80625 367.84375 23.99375L367.84375 27.4L366.79688 27.4ZM374.04688 27.4L374.04688 21.99375L373.10938 21.99375L373.10938 21.18125L374.04688 21.18125L374.04688 20.509375Q374.04688 19.884375 374.15625 19.5875Q374.3125 19.165625 374.6875 18.915625Q375.07812 18.665625 375.76562 18.665625Q376.21875 18.665625 376.75 18.775L376.59375 19.68125Q376.26562 19.634375 375.96875 19.634375Q375.48438 19.634375 375.28125 19.8375Q375.09375 20.040625 375.09375 20.603125L375.09375 21.18125L376.3125 21.18125L376.3125 21.99375L375.09375 21.99375L375.09375 27.4L374.04688 27.4ZM381.04688 25.4L382.14062 25.525Q381.89062 26.478125 381.1875 27.009375Q380.48438 27.540625 379.40625 27.540625Q378.04688 27.540625 377.23438 26.696875Q376.4375 25.853125 376.4375 24.3375Q376.4375 22.775 377.25 21.915625Q378.0625 21.040625 379.34375 21.040625Q380.59375 21.040625 381.375 21.884375Q382.17188 22.728125 382.17188 24.275Q382.17188 24.36875 382.17188 24.55625L377.53125 24.55625Q377.59375 25.5875 378.10938 26.134375Q378.625 26.665625 379.40625 26.665625Q379.98438 26.665625 380.39062 26.36875Q380.8125 26.05625 381.04688 25.4ZM377.59375 23.696875L381.0625 23.696875Q381.0 22.9 380.67188 22.509375Q380.15625 21.9 379.35938 21.9Q378.625 21.9 378.125 22.384375Q377.64062 22.86875 377.59375 23.696875ZM383.78125 27.4L383.78125 21.18125L384.73438 21.18125L384.73438 22.11875Q385.09375 21.4625 385.39062 21.259375Q385.70312 21.040625 386.07812 21.040625Q386.60938 21.040625 387.15625 21.36875L386.79688 22.353125Q386.40625 22.11875 386.03125 22.11875Q385.67188 22.11875 385.39062 22.3375Q385.125 22.540625 385.01562 22.915625Q384.82812 23.478125 384.82812 24.134375L384.82812 27.4L383.78125 27.4ZM387.79688 20.025L387.79688 18.80625L388.85938 18.80625L388.85938 20.025L387.79688 20.025ZM387.79688 27.4L387.79688 21.18125L388.85938 21.18125L388.85938 27.4L387.79688 27.4ZM390.40625 24.290625Q390.40625 22.55625 391.35938 21.728125Q392.15625 21.040625 393.3125 21.040625Q394.59375 21.040625 395.40625 21.884375Q396.23438 22.7125 396.23438 24.196875Q396.23438 25.4 395.875 26.0875Q395.51562 26.775 394.8125 27.165625Q394.125 27.540625 393.3125 27.540625Q392.01562 27.540625 391.20312 26.7125Q390.40625 25.86875 390.40625 24.290625ZM391.48438 24.290625Q391.48438 25.478125 392.0 26.071875Q392.53125 26.665625 393.3125 26.665625Q394.10938 26.665625 394.625 26.071875Q395.14062 25.478125 395.14062 24.259375Q395.14062 23.103125 394.60938 22.509375Q394.09375 21.915625 393.3125 21.915625Q392.53125 21.915625 392.0 22.509375Q391.48438 23.0875 391.48438 24.290625ZM397.78125 27.4L397.78125 21.18125L398.73438 21.18125L398.73438 22.11875Q399.09375 21.4625 399.39062 21.259375Q399.70312 21.040625 400.07812 21.040625Q400.60938 21.040625 401.15625 21.36875L400.79688 22.353125Q400.40625 22.11875 400.03125 22.11875Q399.67188 22.11875 399.39062 22.3375Q399.125 22.540625 399.01562 22.915625Q398.82812 23.478125 398.82812 24.134375L398.82812 27.4L397.78125 27.4ZM406.04688 25.4L407.14062 25.525Q406.89062 26.478125 406.1875 27.009375Q405.48438 27.540625 404.40625 27.540625Q403.04688 27.540625 402.23438 26.696875Q401.4375 25.853125 401.4375 24.3375Q401.4375 22.775 402.25 21.915625Q403.0625 21.040625 404.34375 21.040625Q405.59375 21.040625 406.375 21.884375Q407.17188 22.728125 407.17188 24.275Q407.17188 24.36875 407.17188 24.55625L402.53125 24.55625Q402.59375 25.5875 403.10938 26.134375Q403.625 26.665625 404.40625 26.665625Q404.98438 26.665625 405.39062 26.36875Q405.8125 26.05625 406.04688 25.4ZM402.59375 23.696875L406.0625 23.696875Q406.0 22.9 405.67188 22.509375Q405.15625 21.9 404.35938 21.9Q403.625 21.9 403.125 22.384375Q402.64062 22.86875 402.59375 23.696875Z" fill-rule="nonzero"/></svg>