<svg version="1.1" viewBox="0.0 0.0 532.0 328.0" fill="none" stroke="none" stroke-linecap="square" stroke-miterlimit="10" width="532" height="328" xmlns:xlink="http://www.w3.org/1999/xlink" xmlns="http://www.w3.org/2000/svg"><path fill="#ffffff" d="M0 0L532.0 0L532.0 328.0L0 328.0L0 0Z" fill-rule="nonzero"/><path stroke="#cccccc" stroke-width="1.0" stroke-linecap="butt" d="M85.5 285.5L515.5 285.5" fill-rule="nonzero"/><path stroke="#cccccc" stroke-width="1.0" stroke-linecap="butt" d="M85.5 255.5L515.5 255.5" fill-rule="nonzero"/><path stroke="#cccccc" stroke-width="1.0" stroke-linecap="butt" d="M85.5 226.5L515.5 226.5" fill-rule="nonzero"/><path stroke="#cccccc" stroke-width="1.0" stroke-linecap="butt" d="M85.5 196.5L515.5 196.5" fill-rule="nonzero"/><path stroke="#333333" stroke-width="1.0" stroke-linecap="butt" d="M85.5 166.5L515.5 166.5" fill-rule="nonzero"/><path stroke="#cccccc" stroke-width="1.0" stroke-linecap="butt" d="M85.5 137.5L515.5 137.5" fill-rule="nonzero"/><path stroke="#cccccc" stroke-width="1.0" stroke-linecap="butt" d="M85.5 107.5L515.5 107.5" fill-rule="nonzero"/><path stroke="#cccccc" stroke-width="1.0" stroke-linecap="butt" d="M85.5 77.5L515.5 77.5" fill-rule="nonzero"/><path stroke="#cccccc" stroke-width="1.0" stroke-linecap="butt" d="M85.5 48.5L515.5 48.5" fill-rule="nonzero"/><path stroke="#000000" stroke-width="1.0" stroke-linecap="butt" stroke-opacity="0.0" d="M85.5 275.5L515.5 275.5" fill-rule="nonzero"/><path stroke="#000000" stroke-width="1.0" stroke-linecap="butt" stroke-opacity="0.0" d="M85.5 265.5L515.5 265.5" fill-rule="nonzero"/><path stroke="#000000" stroke-width="1.0" stroke-linecap="butt" stroke-opacity="0.0" d="M85.5 246.5L515.5 246.5" fill-rule="nonzero"/><path stroke="#000000" stroke-width="1.0" stroke-linecap="butt" stroke-opacity="0.0" d="M85.5 236.5L515.5 236.5" fill-rule="nonzero"/><path stroke="#000000" stroke-width="1.0" stroke-linecap="butt" stroke-opacity="0.0" d="M85.5 216.5L515.5 216.5" fill-rule="nonzero"/><path stroke="#000000" stroke-width="1.0" stroke-linecap="butt" stroke-opacity="0.0" d="M85.5 206.5L515.5 206.5" fill-rule="nonzero"/><path stroke="#000000" stroke-width="1.0" stroke-linecap="butt" stroke-opacity="0.0" d="M85.5 186.5L515.5 186.5" fill-rule="nonzero"/><path stroke="#000000" stroke-width="1.0" stroke-linecap="butt" stroke-opacity="0.0" d="M85.5 176.5L515.5 176.5" fill-rule="nonzero"/><path stroke="#000000" stroke-width="1.0" stroke-linecap="butt" stroke-opacity="0.0" d="M85.5 157.5L515.5 157.5" fill-rule="nonzero"/><path stroke="#000000" stroke-width="1.0" stroke-linecap="butt" stroke-opacity="0.0" d="M85.5 147.5L515.5 147.5" fill-rule="nonzero"/><path stroke="#000000" stroke-width="1.0" stroke-linecap="butt" stroke-opacity="0.0" d="M85.5 127.5L515.5 127.5" fill-rule="nonzero"/><path stroke="#000000" stroke-width="1.0" stroke-linecap="butt" stroke-opacity="0.0" d="M85.5 117.5L515.5 117.5" fill-rule="nonzero"/><path stroke="#000000" stroke-width="1.0" stroke-linecap="butt" stroke-opacity="0.0" d="M85.5 97.5L515.5 97.5" fill-rule="nonzero"/><path stroke="#000000" stroke-width="1.0" stroke-linecap="butt" stroke-opacity="0.0" d="M85.5 87.5L515.5 87.5" fill-rule="nonzero"/><path stroke="#000000" stroke-width="1.0" stroke-linecap="butt" stroke-opacity="0.0" d="M85.5 68.5L515.5 68.5" fill-rule="nonzero"/><path stroke="#000000" stroke-width="1.0" stroke-linecap="butt" stroke-opacity="0.0" d="M85.5 58.5L515.5 58.5" fill-rule="nonzero"/><path stroke="#000000" stroke-width="1.0" stroke-linecap="butt" d="M515.5 285.5L85.5 285.5" fill-rule="nonzero"/><path stroke="#000000" stroke-width="1.0" stroke-linecap="butt" d="M85.5 285.5L85.5 48.5" fill-rule="nonzero"/><clipPath id="id_0"><path d="M85.4 48.333332L515.6 48.333332L515.6 285.6L85.4 285.6L85.4 48.333332Z" clip-rule="nonzero"/></clipPath><path stroke="#4285f4" stroke-width="2.0" stroke-linecap="butt" clip-path="url(#id_0)" d="M109.3 176.43005C109.3 176.43005 141.16667 181.5932 157.1 182.3099C173.03334 183.02661 188.96666 180.63893 204.9 180.73027C220.83333 180.82161 236.76666 182.29973 252.7 182.85794C268.63333 183.41614 284.56668 183.8571 300.5 184.0795C316.43332 184.3019 332.36667 185.43788 348.3 184.19234C364.23334 182.94678 380.16666 177.18149 396.1 176.6062C412.03333 176.03091 427.96667 181.6218 443.9 180.74063C459.83334 179.85948 491.7 171.31927 491.7 171.31927" fill-rule="nonzero"/><path stroke="#ea4335" stroke-width="2.0" stroke-linecap="butt" clip-path="url(#id_0)" d="M109.3 168.45706C109.3 168.45706 141.16667 173.42506 157.1 174.41867C173.03334 175.41226 188.96666 174.41867 204.9 174.41867C220.83333 174.41867 236.76666 174.41867 252.7 174.41867C268.63333 174.41867 284.56668 163.98587 300.5 174.41867C316.43332 184.85147 332.36667 224.59547 348.3 237.01549C364.23334 249.43549 380.16666 250.92589 396.1 248.93869C412.03333 246.95148 427.96667 228.07307 443.9 225.09229C459.83334 222.11148 491.7 231.05388 491.7 231.05388" fill-rule="nonzero"/><path stroke="#fbbc04" stroke-width="2.0" stroke-linecap="butt" stroke-opacity="0.7019608" clip-path="url(#id_0)" d="M109.3 70.984886C109.3 70.984886 141.16667 70.984886 157.1 70.984886C173.03334 70.984886 188.96666 70.984886 204.9 70.984886C220.83333 70.984886 236.76666 70.984886 252.7 70.984886C268.63333 70.984886 284.56668 70.984886 300.5 70.984886C316.43332 70.984886 332.36667 70.984886 348.3 70.984886C364.23334 70.984886 380.16666 70.984886 396.1 70.984886C412.03333 70.984886 427.96667 70.984886 443.9 70.984886C459.83334 70.984886 491.7 70.984886 491.7 70.984886" fill-rule="nonzero"/><path stroke="#34a853" stroke-width="2.0" stroke-linecap="butt" clip-path="url(#id_0)" d="M109.3 262.94846C109.3 262.94846 141.16667 262.94846 157.1 262.94846C173.03334 262.94846 188.96666 262.94846 204.9 262.94846C220.83333 262.94846 236.76666 262.94846 252.7 262.94846C268.63333 262.94846 284.56668 262.94846 300.5 262.94846C316.43332 262.94846 332.36667 262.94846 348.3 262.94846C364.23334 262.94846 380.16666 262.94846 396.1 262.94846C412.03333 262.94846 427.96667 262.94846 443.9 262.94846C459.83334 262.94846 491.7 262.94846 491.7 262.94846" fill-rule="nonzero"/><path fill="#4285f4" clip-path="url(#id_0)" d="M112.8 176.43005C112.8 178.36304 111.232994 179.93005 109.3 179.93005C107.367004 179.93005 105.8 178.36304 105.8 176.43005C105.8 174.49706 107.367004 172.93005 109.3 172.93005C111.232994 172.93005 112.8 174.49706 112.8 176.43005Z" fill-rule="nonzero"/><path fill="#4285f4" clip-path="url(#id_0)" d="M160.6 182.3099C160.6 184.2429 159.03299 185.8099 157.1 185.8099C155.167 185.8099 153.6 184.2429 153.6 182.3099C153.6 180.3769 155.167 178.8099 157.1 178.8099C159.03299 178.8099 160.6 180.3769 160.6 182.3099Z" fill-rule="nonzero"/><path fill="#4285f4" clip-path="url(#id_0)" d="M208.4 180.73027C208.4 182.66327 206.833 184.23027 204.9 184.23027C202.96701 184.23027 201.4 182.66327 201.4 180.73027C201.4 178.79727 202.96701 177.23027 204.9 177.23027C206.833 177.23027 208.4 178.79727 208.4 180.73027Z" fill-rule="nonzero"/><path fill="#4285f4" clip-path="url(#id_0)" d="M256.2 182.85794C256.2 184.79094 254.633 186.35794 252.7 186.35794C250.767 186.35794 249.2 184.79094 249.2 182.85794C249.2 180.92494 250.767 179.35794 252.7 179.35794C254.633 179.35794 256.2 180.92494 256.2 182.85794Z" fill-rule="nonzero"/><path fill="#4285f4" clip-path="url(#id_0)" d="M304.0 184.0795C304.0 186.0125 302.43298 187.5795 300.5 187.5795C298.56702 187.5795 297.0 186.0125 297.0 184.0795C297.0 182.1465 298.56702 180.5795 300.5 180.5795C302.43298 180.5795 304.0 182.1465 304.0 184.0795Z" fill-rule="nonzero"/><path fill="#4285f4" clip-path="url(#id_0)" d="M351.8 184.19234C351.8 186.12534 350.233 187.69234 348.3 187.69234C346.367 187.69234 344.8 186.12534 344.8 184.19234C344.8 182.25934 346.367 180.69234 348.3 180.69234C350.233 180.69234 351.8 182.25934 351.8 184.19234Z" fill-rule="nonzero"/><path fill="#4285f4" clip-path="url(#id_0)" d="M399.6 176.6062C399.6 178.5392 398.033 180.1062 396.1 180.1062C394.167 180.1062 392.6 178.5392 392.6 176.6062C392.6 174.6732 394.167 173.1062 396.1 173.1062C398.033 173.1062 399.6 174.6732 399.6 176.6062Z" fill-rule="nonzero"/><path fill="#4285f4" clip-path="url(#id_0)" d="M447.4 180.74063C447.4 182.67363 445.833 184.24063 443.9 184.24063C441.967 184.24063 440.4 182.67363 440.4 180.74063C440.4 178.80765 441.967 177.24063 443.9 177.24063C445.833 177.24063 447.4 178.80765 447.4 180.74063Z" fill-rule="nonzero"/><path fill="#4285f4" clip-path="url(#id_0)" d="M495.2 171.31927C495.2 173.25227 493.633 174.81927 491.7 174.81927C489.767 174.81927 488.2 173.25227 488.2 171.31927C488.2 169.38628 489.767 167.81927 491.7 167.81927C493.633 167.81927 495.2 169.38628 495.2 171.31927Z" fill-rule="nonzero"/><path fill="#ea4335" clip-path="url(#id_0)" d="M112.8 168.45706C112.8 170.39006 111.232994 171.95706 109.3 171.95706C107.367004 171.95706 105.8 170.39006 105.8 168.45706C105.8 166.52406 107.367004 164.95706 109.3 164.95706C111.232994 164.95706 112.8 166.52406 112.8 168.45706Z" fill-rule="nonzero"/><path fill="#ea4335" clip-path="url(#id_0)" d="M160.6 174.41867C160.6 176.35167 159.03299 177.91867 157.1 177.91867C155.167 177.91867 153.6 176.35167 153.6 174.41867C153.6 172.48567 155.167 170.91867 157.1 170.91867C159.03299 170.91867 160.6 172.48567 160.6 174.41867Z" fill-rule="nonzero"/><path fill="#ea4335" clip-path="url(#id_0)" d="M208.4 174.41867C208.4 176.35167 206.833 177.91867 204.9 177.91867C202.96701 177.91867 201.4 176.35167 201.4 174.41867C201.4 172.48567 202.96701 170.91867 204.9 170.91867C206.833 170.91867 208.4 172.48567 208.4 174.41867Z" fill-rule="nonzero"/><path fill="#ea4335" clip-path="url(#id_0)" d="M256.2 174.41867C256.2 176.35167 254.633 177.91867 252.7 177.91867C250.767 177.91867 249.2 176.35167 249.2 174.41867C249.2 172.48567 250.767 170.91867 252.7 170.91867C254.633 170.91867 256.2 172.48567 256.2 174.41867Z" fill-rule="nonzero"/><path fill="#ea4335" clip-path="url(#id_0)" d="M304.0 174.41867C304.0 176.35167 302.43298 177.91867 300.5 177.91867C298.56702 177.91867 297.0 176.35167 297.0 174.41867C297.0 172.48567 298.56702 170.91867 300.5 170.91867C302.43298 170.91867 304.0 172.48567 304.0 174.41867Z" fill-rule="nonzero"/><path fill="#ea4335" clip-path="url(#id_0)" d="M351.8 237.01549C351.8 238.94849 350.233 240.51549 348.3 240.51549C346.367 240.51549 344.8 238.94849 344.8 237.01549C344.8 235.08249 346.367 233.51549 348.3 233.51549C350.233 233.51549 351.8 235.08249 351.8 237.01549Z" fill-rule="nonzero"/><path fill="#ea4335" clip-path="url(#id_0)" d="M399.6 248.93869C399.6 250.87169 398.033 252.43869 396.1 252.43869C394.167 252.43869 392.6 250.87169 392.6 248.93869C392.6 247.00569 394.167 245.43869 396.1 245.43869C398.033 245.43869 399.6 247.00569 399.6 248.93869Z" fill-rule="nonzero"/><path fill="#ea4335" clip-path="url(#id_0)" d="M447.4 225.09229C447.4 227.02527 445.833 228.59229 443.9 228.59229C441.967 228.59229 440.4 227.02527 440.4 225.09229C440.4 223.15929 441.967 221.59229 443.9 221.59229C445.833 221.59229 447.4 223.15929 447.4 225.09229Z" fill-rule="nonzero"/><path fill="#ea4335" clip-path="url(#id_0)" d="M495.2 231.05388C495.2 232.98688 493.633 234.55388 491.7 234.55388C489.767 234.55388 488.2 232.98688 488.2 231.05388C488.2 229.12088 489.767 227.55388 491.7 227.55388C493.633 227.55388 495.2 229.12088 495.2 231.05388Z" fill-rule="nonzero"/><path fill="#fbbc04" fill-opacity="0.7019608" clip-path="url(#id_0)" d="M112.8 70.984886C112.8 72.917885 111.232994 74.484886 109.3 74.484886C107.367004 74.484886 105.8 72.917885 105.8 70.984886C105.8 69.05189 107.367004 67.484886 109.3 67.484886C111.232994 67.484886 112.8 69.05189 112.8 70.984886Z" fill-rule="nonzero"/><path fill="#fbbc04" fill-opacity="0.7019608" clip-path="url(#id_0)" d="M160.6 70.984886C160.6 72.917885 159.03299 74.484886 157.1 74.484886C155.167 74.484886 153.6 72.917885 153.6 70.984886C153.6 69.05189 155.167 67.484886 157.1 67.484886C159.03299 67.484886 160.6 69.05189 160.6 70.984886Z" fill-rule="nonzero"/><path fill="#fbbc04" fill-opacity="0.7019608" clip-path="url(#id_0)" d="M208.4 70.984886C208.4 72.917885 206.833 74.484886 204.9 74.484886C202.96701 74.484886 201.4 72.917885 201.4 70.984886C201.4 69.05189 202.96701 67.484886 204.9 67.484886C206.833 67.484886 208.4 69.05189 208.4 70.984886Z" fill-rule="nonzero"/><path fill="#fbbc04" fill-opacity="0.7019608" clip-path="url(#id_0)" d="M256.2 70.984886C256.2 72.917885 254.633 74.484886 252.7 74.484886C250.767 74.484886 249.2 72.917885 249.2 70.984886C249.2 69.05189 250.767 67.484886 252.7 67.484886C254.633 67.484886 256.2 69.05189 256.2 70.984886Z" fill-rule="nonzero"/><path fill="#fbbc04" fill-opacity="0.7019608" clip-path="url(#id_0)" d="M304.0 70.984886C304.0 72.917885 302.43298 74.484886 300.5 74.484886C298.56702 74.484886 297.0 72.917885 297.0 70.984886C297.0 69.05189 298.56702 67.484886 300.5 67.484886C302.43298 67.484886 304.0 69.05189 304.0 70.984886Z" fill-rule="nonzero"/><path fill="#fbbc04" fill-opacity="0.7019608" clip-path="url(#id_0)" d="M351.8 70.984886C351.8 72.917885 350.233 74.484886 348.3 74.484886C346.367 74.484886 344.8 72.917885 344.8 70.984886C344.8 69.05189 346.367 67.484886 348.3 67.484886C350.233 67.484886 351.8 69.05189 351.8 70.984886Z" fill-rule="nonzero"/><path fill="#fbbc04" fill-opacity="0.7019608" clip-path="url(#id_0)" d="M399.6 70.984886C399.6 72.917885 398.033 74.484886 396.1 74.484886C394.167 74.484886 392.6 72.917885 392.6 70.984886C392.6 69.05189 394.167 67.484886 396.1 67.484886C398.033 67.484886 399.6 69.05189 399.6 70.984886Z" fill-rule="nonzero"/><path fill="#fbbc04" fill-opacity="0.7019608" clip-path="url(#id_0)" d="M447.4 70.984886C447.4 72.917885 445.833 74.484886 443.9 74.484886C441.967 74.484886 440.4 72.917885 440.4 70.984886C440.4 69.05189 441.967 67.484886 443.9 67.484886C445.833 67.484886 447.4 69.05189 447.4 70.984886Z" fill-rule="nonzero"/><path fill="#fbbc04" fill-opacity="0.7019608" clip-path="url(#id_0)" d="M495.2 70.984886C495.2 72.917885 493.633 74.484886 491.7 74.484886C489.767 74.484886 488.2 72.917885 488.2 70.984886C488.2 69.05189 489.767 67.484886 491.7 67.484886C493.633 67.484886 495.2 69.05189 495.2 70.984886Z" fill-rule="nonzero"/><path fill="#34a853" clip-path="url(#id_0)" d="M112.8 262.94846C112.8 264.88144 111.232994 266.44846 109.3 266.44846C107.367004 266.44846 105.8 264.88144 105.8 262.94846C105.8 261.01544 107.367004 259.44846 109.3 259.44846C111.232994 259.44846 112.8 261.01544 112.8 262.94846Z" fill-rule="nonzero"/><path fill="#34a853" clip-path="url(#id_0)" d="M160.6 262.94846C160.6 264.88144 159.03299 266.44846 157.1 266.44846C155.167 266.44846 153.6 264.88144 153.6 262.94846C153.6 261.01544 155.167 259.44846 157.1 259.44846C159.03299 259.44846 160.6 261.01544 160.6 262.94846Z" fill-rule="nonzero"/><path fill="#34a853" clip-path="url(#id_0)" d="M208.4 262.94846C208.4 264.88144 206.833 266.44846 204.9 266.44846C202.96701 266.44846 201.4 264.88144 201.4 262.94846C201.4 261.01544 202.96701 259.44846 204.9 259.44846C206.833 259.44846 208.4 261.01544 208.4 262.94846Z" fill-rule="nonzero"/><path fill="#34a853" clip-path="url(#id_0)" d="M256.2 262.94846C256.2 264.88144 254.633 266.44846 252.7 266.44846C250.767 266.44846 249.2 264.88144 249.2 262.94846C249.2 261.01544 250.767 259.44846 252.7 259.44846C254.633 259.44846 256.2 261.01544 256.2 262.94846Z" fill-rule="nonzero"/><path fill="#34a853" clip-path="url(#id_0)" d="M304.0 262.94846C304.0 264.88144 302.43298 266.44846 300.5 266.44846C298.56702 266.44846 297.0 264.88144 297.0 262.94846C297.0 261.01544 298.56702 259.44846 300.5 259.44846C302.43298 259.44846 304.0 261.01544 304.0 262.94846Z" fill-rule="nonzero"/><path fill="#34a853" clip-path="url(#id_0)" d="M351.8 262.94846C351.8 264.88144 350.233 266.44846 348.3 266.44846C346.367 266.44846 344.8 264.88144 344.8 262.94846C344.8 261.01544 346.367 259.44846 348.3 259.44846C350.233 259.44846 351.8 261.01544 351.8 262.94846Z" fill-rule="nonzero"/><path fill="#34a853" clip-path="url(#id_0)" d="M399.6 262.94846C399.6 264.88144 398.033 266.44846 396.1 266.44846C394.167 266.44846 392.6 264.88144 392.6 262.94846C392.6 261.01544 394.167 259.44846 396.1 259.44846C398.033 259.44846 399.6 261.01544 399.6 262.94846Z" fill-rule="nonzero"/><path fill="#34a853" clip-path="url(#id_0)" d="M447.4 262.94846C447.4 264.88144 445.833 266.44846 443.9 266.44846C441.967 266.44846 440.4 264.88144 440.4 262.94846C440.4 261.01544 441.967 259.44846 443.9 259.44846C445.833 259.44846 447.4 261.01544 447.4 262.94846Z" fill-rule="nonzero"/><path fill="#34a853" clip-path="url(#id_0)" d="M495.2 262.94846C495.2 264.88144 493.633 266.44846 491.7 266.44846C489.767 266.44846 488.2 264.88144 488.2 262.94846C488.2 261.01544 489.767 259.44846 491.7 259.44846C493.633 259.44846 495.2 261.01544 495.2 262.94846Z" fill-rule="nonzero"/><path stroke="#000000" stroke-width="1.0" stroke-linecap="butt" d="M109.5 291.5L109.5 279.5" fill-rule="nonzero"/><path stroke="#000000" stroke-width="1.0" stroke-linecap="butt" d="M157.5 291.5L157.5 279.5" fill-rule="nonzero"/><path stroke="#000000" stroke-width="1.0" stroke-linecap="butt" d="M204.5 291.5L204.5 279.5" fill-rule="nonzero"/><path stroke="#000000" stroke-width="1.0" stroke-linecap="butt" d="M252.5 291.5L252.5 279.5" fill-rule="nonzero"/><path stroke="#000000" stroke-width="1.0" stroke-linecap="butt" d="M300.5 291.5L300.5 279.5" fill-rule="nonzero"/><path stroke="#000000" stroke-width="1.0" stroke-linecap="butt" d="M348.5 291.5L348.5 279.5" fill-rule="nonzero"/><path stroke="#000000" stroke-width="1.0" stroke-linecap="butt" d="M396.5 291.5L396.5 279.5" fill-rule="nonzero"/><path stroke="#000000" stroke-width="1.0" stroke-linecap="butt" d="M443.5 291.5L443.5 279.5" fill-rule="nonzero"/><path stroke="#000000" stroke-width="1.0" stroke-linecap="butt" d="M491.5 291.5L491.5 279.5" fill-rule="nonzero"/><path stroke="#000000" stroke-width="1.0" stroke-linecap="butt" d="M79.5 285.5L91.5 285.5" fill-rule="nonzero"/><path stroke="#000000" stroke-width="1.0" stroke-linecap="butt" d="M79.5 255.5L91.5 255.5" fill-rule="nonzero"/><path stroke="#000000" stroke-width="1.0" stroke-linecap="butt" d="M79.5 226.5L91.5 226.5" fill-rule="nonzero"/><path stroke="#000000" stroke-width="1.0" stroke-linecap="butt" d="M79.5 196.5L91.5 196.5" fill-rule="nonzero"/><path stroke="#000000" stroke-width="1.0" stroke-linecap="butt" d="M79.5 166.5L91.5 166.5" fill-rule="nonzero"/><path stroke="#000000" stroke-width="1.0" stroke-linecap="butt" d="M79.5 137.5L91.5 137.5" fill-rule="nonzero"/><path stroke="#000000" stroke-width="1.0" stroke-linecap="butt" d="M79.5 107.5L91.5 107.5" fill-rule="nonzero"/><path stroke="#000000" stroke-width="1.0" stroke-linecap="butt" d="M79.5 77.5L91.5 77.5" fill-rule="nonzero"/><path stroke="#000000" stroke-width="1.0" stroke-linecap="butt" d="M79.5 48.5L91.5 48.5" fill-rule="nonzero"/><path fill="#000000" d="M48.775 287.02188L48.775 285.95938L52.025 285.95938L52.025 287.02188L48.775 287.02188ZM54.525 284.94376Q53.86875 284.69376 53.540627 284.25626Q53.228127 283.80313 53.228127 283.19376Q53.228127 282.25626 53.9 281.61563Q54.5875 280.975 55.696877 280.975Q56.821877 280.975 57.509377 281.63126Q58.196877 282.2875 58.196877 283.225Q58.196877 283.81876 57.884377 284.25626Q57.571877 284.69376 56.93125 284.94376Q57.728127 285.19376 58.134377 285.77188Q58.540627 286.35 58.540627 287.14688Q58.540627 288.24063 57.759377 288.99063Q56.99375 289.74063 55.7125 289.74063Q54.446877 289.74063 53.665627 288.99063Q52.884377 288.24063 52.884377 287.11563Q52.884377 286.27188 53.30625 285.70938Q53.74375 285.14688 54.525 284.94376ZM54.30625 283.14688Q54.30625 283.75626 54.696877 284.14688Q55.103127 284.5375 55.728127 284.5375Q56.3375 284.5375 56.728127 284.1625Q57.11875 283.77188 57.11875 283.20938Q57.11875 282.63126 56.7125 282.24063Q56.30625 281.83438 55.7125 281.83438Q55.103127 281.83438 54.696877 282.225Q54.30625 282.61563 54.30625 283.14688ZM53.978127 287.11563Q53.978127 287.56876 54.18125 287.99063Q54.4 288.4125 54.821877 288.64688Q55.24375 288.88126 55.728127 288.88126Q56.478127 288.88126 56.9625 288.39688Q57.4625 287.9125 57.4625 287.1625Q57.4625 286.39688 56.9625 285.89688Q56.4625 285.39688 55.696877 285.39688Q54.946877 285.39688 54.4625 285.89688Q53.978127 286.38126 53.978127 287.11563ZM59.9 285.36563Q59.9 283.83438 60.2125 282.9125Q60.525 281.975 61.134377 281.475Q61.759377 280.975 62.696877 280.975Q63.384377 280.975 63.9 281.25626Q64.43125 281.5375 64.775 282.06876Q65.11875 282.58438 65.30625 283.33438Q65.49375 284.08438 65.49375 285.36563Q65.49375 286.88126 65.18125 287.80313Q64.88438 288.725 64.25938 289.24063Q63.65 289.74063 62.696877 289.74063Q61.4625 289.74063 60.74375 288.85Q59.9 287.7875 59.9 285.36563ZM60.978127 285.36563Q60.978127 287.475 61.478127 288.17813Q61.978127 288.88126 62.696877 288.88126Q63.43125 288.88126 63.915627 288.17813Q64.41563 287.475 64.41563 285.36563Q64.41563 283.24063 63.915627 282.55313Q63.43125 281.85 62.68125 281.85Q61.9625 281.85 61.525 282.45938Q60.978127 283.24063 60.978127 285.36563ZM66.9 285.36563Q66.9 283.83438 67.2125 282.9125Q67.525 281.975 68.13438 281.475Q68.75938 280.975 69.69688 280.975Q70.38438 280.975 70.9 281.25626Q71.43125 281.5375 71.775 282.06876Q72.11875 282.58438 72.30625 283.33438Q72.49375 284.08438 72.49375 285.36563Q72.49375 286.88126 72.18125 287.80313Q71.88438 288.725 71.25938 289.24063Q70.65 289.74063 69.69688 289.74063Q68.4625 289.74063 67.74375 288.85Q66.9 287.7875 66.9 285.36563ZM67.97813 285.36563Q67.97813 287.475 68.47813 288.17813Q68.97813 288.88126 69.69688 288.88126Q70.43125 288.88126 70.91563 288.17813Q71.41563 287.475 71.41563 285.36563Q71.41563 283.24063 70.91563 282.55313Q70.43125 281.85 69.68125 281.85Q68.9625 281.85 68.525 282.45938Q67.97813 283.24063 67.97813 285.36563Z" fill-rule="nonzero"/><path fill="#000000" d="M48.775 257.36356L48.775 256.30106L52.025 256.30106L52.025 257.36356L48.775 257.36356ZM58.36875 253.4573L57.321877 253.53543Q57.18125 252.91043 56.93125 252.62918Q56.49375 252.17606 55.86875 252.17606Q55.36875 252.17606 54.978127 252.4573Q54.49375 252.8323 54.196877 253.53543Q53.915627 254.22293 53.9 255.50418Q54.275 254.92606 54.821877 254.6448Q55.384377 254.36356 55.99375 254.36356Q57.040627 254.36356 57.775 255.1448Q58.525 255.92606 58.525 257.1448Q58.525 257.9573 58.165627 258.66043Q57.821877 259.34793 57.2125 259.72293Q56.603127 260.0823 55.8375 260.0823Q54.509377 260.0823 53.68125 259.11356Q52.853127 258.1448 52.853127 255.92606Q52.853127 253.42606 53.775 252.30106Q54.571877 251.31668 55.93125 251.31668Q56.946877 251.31668 57.5875 251.8948Q58.24375 252.4573 58.36875 253.4573ZM54.071877 257.16043Q54.071877 257.7073 54.290627 258.2073Q54.525 258.69168 54.93125 258.9573Q55.353127 259.22293 55.821877 259.22293Q56.478127 259.22293 56.9625 258.69168Q57.446877 258.1448 57.446877 257.22293Q57.446877 256.3323 56.9625 255.81668Q56.49375 255.30106 55.775 255.30106Q55.05625 255.30106 54.55625 255.81668Q54.071877 256.3323 54.071877 257.16043ZM59.9 255.7073Q59.9 254.17606 60.2125 253.25418Q60.525 252.31668 61.134377 251.81668Q61.759377 251.31668 62.696877 251.31668Q63.384377 251.31668 63.9 251.59793Q64.43125 251.87918 64.775 252.41043Q65.11875 252.92606 65.30625 253.67606Q65.49375 254.42606 65.49375 255.7073Q65.49375 257.22293 65.18125 258.1448Q64.88438 259.06668 64.25938 259.5823Q63.65 260.0823 62.696877 260.0823Q61.4625 260.0823 60.74375 259.19168Q59.9 258.12918 59.9 255.7073ZM60.978127 255.7073Q60.978127 257.81668 61.478127 258.5198Q61.978127 259.22293 62.696877 259.22293Q63.43125 259.22293 63.915627 258.5198Q64.41563 257.81668 64.41563 255.7073Q64.41563 253.5823 63.915627 252.8948Q63.43125 252.19168 62.68125 252.19168Q61.9625 252.19168 61.525 252.80106Q60.978127 253.5823 60.978127 255.7073ZM66.9 255.7073Q66.9 254.17606 67.2125 253.25418Q67.525 252.31668 68.13438 251.81668Q68.75938 251.31668 69.69688 251.31668Q70.38438 251.31668 70.9 251.59793Q71.43125 251.87918 71.775 252.41043Q72.11875 252.92606 72.30625 253.67606Q72.49375 254.42606 72.49375 255.7073Q72.49375 257.22293 72.18125 258.1448Q71.88438 259.06668 71.25938 259.5823Q70.65 260.0823 69.69688 260.0823Q68.4625 260.0823 67.74375 259.19168Q66.9 258.12918 66.9 255.7073ZM67.97813 255.7073Q67.97813 257.81668 68.47813 258.5198Q68.97813 259.22293 69.69688 259.22293Q70.43125 259.22293 70.91563 258.5198Q71.41563 257.81668 71.41563 255.7073Q71.41563 253.5823 70.91563 252.8948Q70.43125 252.19168 69.68125 252.19168Q68.9625 252.19168 68.525 252.80106Q67.97813 253.5823 67.97813 255.7073Z" fill-rule="nonzero"/><path fill="#000000" d="M48.775 227.70522L48.775 226.64272L52.025 226.64272L52.025 227.70522L48.775 227.70522ZM56.275 230.28334L56.275 228.22084L52.55625 228.22084L52.55625 227.25209L56.478127 221.68959L57.3375 221.68959L57.3375 227.25209L58.49375 227.25209L58.49375 228.22084L57.3375 228.22084L57.3375 230.28334L56.275 230.28334ZM56.275 227.25209L56.275 223.39272L53.5875 227.25209L56.275 227.25209ZM59.9 226.04897Q59.9 224.51772 60.2125 223.59584Q60.525 222.65834 61.134377 222.15834Q61.759377 221.65834 62.696877 221.65834Q63.384377 221.65834 63.9 221.93959Q64.43125 222.22084 64.775 222.75209Q65.11875 223.26772 65.30625 224.01772Q65.49375 224.76772 65.49375 226.04897Q65.49375 227.56459 65.18125 228.48647Q64.88438 229.40834 64.25938 229.92397Q63.65 230.42397 62.696877 230.42397Q61.4625 230.42397 60.74375 229.53334Q59.9 228.47084 59.9 226.04897ZM60.978127 226.04897Q60.978127 228.15834 61.478127 228.86147Q61.978127 229.56459 62.696877 229.56459Q63.43125 229.56459 63.915627 228.86147Q64.41563 228.15834 64.41563 226.04897Q64.41563 223.92397 63.915627 223.23647Q63.43125 222.53334 62.68125 222.53334Q61.9625 222.53334 61.525 223.14272Q60.978127 223.92397 60.978127 226.04897ZM66.9 226.04897Q66.9 224.51772 67.2125 223.59584Q67.525 222.65834 68.13438 222.15834Q68.75938 221.65834 69.69688 221.65834Q70.38438 221.65834 70.9 221.93959Q71.43125 222.22084 71.775 222.75209Q72.11875 223.26772 72.30625 224.01772Q72.49375 224.76772 72.49375 226.04897Q72.49375 227.56459 72.18125 228.48647Q71.88438 229.40834 71.25938 229.92397Q70.65 230.42397 69.69688 230.42397Q68.4625 230.42397 67.74375 229.53334Q66.9 228.47084 66.9 226.04897ZM67.97813 226.04897Q67.97813 228.15834 68.47813 228.86147Q68.97813 229.56459 69.69688 229.56459Q70.43125 229.56459 70.91563 228.86147Q71.41563 228.15834 71.41563 226.04897Q71.41563 223.92397 70.91563 223.23647Q70.43125 222.53334 69.68125 222.53334Q68.9625 222.53334 68.525 223.14272Q67.97813 223.92397 67.97813 226.04897Z" fill-rule="nonzero"/><path fill="#000000" d="M48.775 198.04688L48.775 196.98438L52.025 196.98438L52.025 198.04688L48.775 198.04688ZM58.446877 199.60938L58.446877 200.625L52.759377 200.625Q52.759377 200.25 52.884377 199.89062Q53.103127 199.3125 53.571877 198.75Q54.05625 198.1875 54.9625 197.45312Q56.36875 196.29688 56.853127 195.625Q57.353127 194.95312 57.353127 194.35938Q57.353127 193.73438 56.9 193.3125Q56.446877 192.875 55.728127 192.875Q54.9625 192.875 54.509377 193.32812Q54.05625 193.78125 54.040627 194.59375L52.9625 194.48438Q53.071877 193.26562 53.790627 192.64062Q54.525 192.0 55.759377 192.0Q56.99375 192.0 57.7125 192.6875Q58.43125 193.375 58.43125 194.39062Q58.43125 194.90625 58.2125 195.40625Q58.009377 195.89062 57.509377 196.45312Q57.025 197.0 55.9 197.95312Q54.946877 198.75 54.665627 199.04688Q54.4 199.32812 54.228127 199.60938L58.446877 199.60938ZM59.9 196.39062Q59.9 194.85938 60.2125 193.9375Q60.525 193.0 61.134377 192.5Q61.759377 192.0 62.696877 192.0Q63.384377 192.0 63.9 192.28125Q64.43125 192.5625 64.775 193.09375Q65.11875 193.60938 65.30625 194.35938Q65.49375 195.10938 65.49375 196.39062Q65.49375 197.90625 65.18125 198.82812Q64.88438 199.75 64.25938 200.26562Q63.65 200.76562 62.696877 200.76562Q61.4625 200.76562 60.74375 199.875Q59.9 198.8125 59.9 196.39062ZM60.978127 196.39062Q60.978127 198.5 61.478127 199.20312Q61.978127 199.90625 62.696877 199.90625Q63.43125 199.90625 63.915627 199.20312Q64.41563 198.5 64.41563 196.39062Q64.41563 194.26562 63.915627 193.57812Q63.43125 192.875 62.68125 192.875Q61.9625 192.875 61.525 193.48438Q60.978127 194.26562 60.978127 196.39062ZM66.9 196.39062Q66.9 194.85938 67.2125 193.9375Q67.525 193.0 68.13438 192.5Q68.75938 192.0 69.69688 192.0Q70.38438 192.0 70.9 192.28125Q71.43125 192.5625 71.775 193.09375Q72.11875 193.60938 72.30625 194.35938Q72.49375 195.10938 72.49375 196.39062Q72.49375 197.90625 72.18125 198.82812Q71.88438 199.75 71.25938 200.26562Q70.65 200.76562 69.69688 200.76562Q68.4625 200.76562 67.74375 199.875Q66.9 198.8125 66.9 196.39062ZM67.97813 196.39062Q67.97813 198.5 68.47813 199.20312Q68.97813 199.90625 69.69688 199.90625Q70.43125 199.90625 70.91563 199.20312Q71.41563 198.5 71.41563 196.39062Q71.41563 194.26562 70.91563 193.57812Q70.43125 192.875 69.68125 192.875Q68.9625 192.875 68.525 193.48438Q67.97813 194.26562 67.97813 196.39062Z" fill-rule="nonzero"/><path fill="#000000" d="M66.9 166.73228Q66.9 165.20103 67.2125 164.27916Q67.525 163.34166 68.13438 162.84166Q68.75938 162.34166 69.69688 162.34166Q70.38438 162.34166 70.9 162.62291Q71.43125 162.90416 71.775 163.43541Q72.11875 163.95103 72.30625 164.70103Q72.49375 165.45103 72.49375 166.73228Q72.49375 168.24791 72.18125 169.16978Q71.88438 170.09166 71.25938 170.60728Q70.65 171.10728 69.69688 171.10728Q68.4625 171.10728 67.74375 170.21666Q66.9 169.15416 66.9 166.73228ZM67.97813 166.73228Q67.97813 168.84166 68.47813 169.54478Q68.97813 170.24791 69.69688 170.24791Q70.43125 170.24791 70.91563 169.54478Q71.41563 168.84166 71.41563 166.73228Q71.41563 164.60728 70.91563 163.91978Q70.43125 163.21666 69.68125 163.21666Q68.9625 163.21666 68.525 163.82603Q67.97813 164.60728 67.97813 166.73228Z" fill-rule="nonzero"/><path fill="#000000" d="M58.446877 140.29271L58.446877 141.30833L52.759377 141.30833Q52.759377 140.93333 52.884377 140.57396Q53.103127 139.99583 53.571877 139.43333Q54.05625 138.87083 54.9625 138.13646Q56.36875 136.98021 56.853127 136.30833Q57.353127 135.63646 57.353127 135.04271Q57.353127 134.41771 56.9 133.99583Q56.446877 133.55833 55.728127 133.55833Q54.9625 133.55833 54.509377 134.01146Q54.05625 134.46458 54.040627 135.27708L52.9625 135.16771Q53.071877 133.94896 53.790627 133.32396Q54.525 132.68333 55.759377 132.68333Q56.99375 132.68333 57.7125 133.37083Q58.43125 134.05833 58.43125 135.07396Q58.43125 135.58958 58.2125 136.08958Q58.009377 136.57396 57.509377 137.13646Q57.025 137.68333 55.9 138.63646Q54.946877 139.43333 54.665627 139.73021Q54.4 140.01146 54.228127 140.29271L58.446877 140.29271ZM59.9 137.07396Q59.9 135.54271 60.2125 134.62083Q60.525 133.68333 61.134377 133.18333Q61.759377 132.68333 62.696877 132.68333Q63.384377 132.68333 63.9 132.96458Q64.43125 133.24583 64.775 133.77708Q65.11875 134.29271 65.30625 135.04271Q65.49375 135.79271 65.49375 137.07396Q65.49375 138.58958 65.18125 139.51146Q64.88438 140.43333 64.25938 140.94896Q63.65 141.44896 62.696877 141.44896Q61.4625 141.44896 60.74375 140.55833Q59.9 139.49583 59.9 137.07396ZM60.978127 137.07396Q60.978127 139.18333 61.478127 139.88646Q61.978127 140.58958 62.696877 140.58958Q63.43125 140.58958 63.915627 139.88646Q64.41563 139.18333 64.41563 137.07396Q64.41563 134.94896 63.915627 134.26146Q63.43125 133.55833 62.68125 133.55833Q61.9625 133.55833 61.525 134.16771Q60.978127 134.94896 60.978127 137.07396ZM66.9 137.07396Q66.9 135.54271 67.2125 134.62083Q67.525 133.68333 68.13438 133.18333Q68.75938 132.68333 69.69688 132.68333Q70.38438 132.68333 70.9 132.96458Q71.43125 133.24583 71.775 133.77708Q72.11875 134.29271 72.30625 135.04271Q72.49375 135.79271 72.49375 137.07396Q72.49375 138.58958 72.18125 139.51146Q71.88438 140.43333 71.25938 140.94896Q70.65 141.44896 69.69688 141.44896Q68.4625 141.44896 67.74375 140.55833Q66.9 139.49583 66.9 137.07396ZM67.97813 137.07396Q67.97813 139.18333 68.47813 139.88646Q68.97813 140.58958 69.69688 140.58958Q70.43125 140.58958 70.91563 139.88646Q71.41563 139.18333 71.41563 137.07396Q71.41563 134.94896 70.91563 134.26146Q70.43125 133.55833 69.68125 133.55833Q68.9625 133.55833 68.525 134.16771Q67.97813 134.94896 67.97813 137.07396Z" fill-rule="nonzero"/><path fill="#000000" d="M56.275 111.65L56.275 109.5875L52.55625 109.5875L52.55625 108.61875L56.478127 103.05625L57.3375 103.05625L57.3375 108.61875L58.49375 108.61875L58.49375 109.5875L57.3375 109.5875L57.3375 111.65L56.275 111.65ZM56.275 108.61875L56.275 104.75938L53.5875 108.61875L56.275 108.61875ZM59.9 107.41563Q59.9 105.88438 60.2125 104.9625Q60.525 104.025 61.134377 103.525Q61.759377 103.025 62.696877 103.025Q63.384377 103.025 63.9 103.30625Q64.43125 103.5875 64.775 104.11875Q65.11875 104.63438 65.30625 105.38438Q65.49375 106.13438 65.49375 107.41563Q65.49375 108.93125 65.18125 109.85313Q64.88438 110.775 64.25938 111.29063Q63.65 111.79063 62.696877 111.79063Q61.4625 111.79063 60.74375 110.9Q59.9 109.8375 59.9 107.41563ZM60.978127 107.41563Q60.978127 109.525 61.478127 110.22813Q61.978127 110.93125 62.696877 110.93125Q63.43125 110.93125 63.915627 110.22813Q64.41563 109.525 64.41563 107.41563Q64.41563 105.29063 63.915627 104.60313Q63.43125 103.9 62.68125 103.9Q61.9625 103.9 61.525 104.50938Q60.978127 105.29063 60.978127 107.41563ZM66.9 107.41563Q66.9 105.88438 67.2125 104.9625Q67.525 104.025 68.13438 103.525Q68.75938 103.025 69.69688 103.025Q70.38438 103.025 70.9 103.30625Q71.43125 103.5875 71.775 104.11875Q72.11875 104.63438 72.30625 105.38438Q72.49375 106.13438 72.49375 107.41563Q72.49375 108.93125 72.18125 109.85313Q71.88438 110.775 71.25938 111.29063Q70.65 111.79063 69.69688 111.79063Q68.4625 111.79063 67.74375 110.9Q66.9 109.8375 66.9 107.41563ZM67.97813 107.41563Q67.97813 109.525 68.47813 110.22813Q68.97813 110.93125 69.69688 110.93125Q70.43125 110.93125 70.91563 110.22813Q71.41563 109.525 71.41563 107.41563Q71.41563 105.29063 70.91563 104.60313Q70.43125 103.9 69.68125 103.9Q68.9625 103.9 68.525 104.50938Q67.97813 105.29063 67.97813 107.41563Z" fill-rule="nonzero"/><path fill="#000000" d="M58.36875 75.50729L57.321877 75.58542Q57.18125 74.96042 56.93125 74.67917Q56.49375 74.22604 55.86875 74.22604Q55.36875 74.22604 54.978127 74.50729Q54.49375 74.88229 54.196877 75.58542Q53.915627 76.27292 53.9 77.55417Q54.275 76.97604 54.821877 76.69479Q55.384377 76.41354 55.99375 76.41354Q57.040627 76.41354 57.775 77.19479Q58.525 77.97604 58.525 79.19479Q58.525 80.00729 58.165627 80.71042Q57.821877 81.39792 57.2125 81.77292Q56.603127 82.13229 55.8375 82.13229Q54.509377 82.13229 53.68125 81.16354Q52.853127 80.19479 52.853127 77.97604Q52.853127 75.47604 53.775 74.35104Q54.571877 73.36667 55.93125 73.36667Q56.946877 73.36667 57.5875 73.94479Q58.24375 74.50729 58.36875 75.50729ZM54.071877 79.21042Q54.071877 79.75729 54.290627 80.25729Q54.525 80.74167 54.93125 81.00729Q55.353127 81.27292 55.821877 81.27292Q56.478127 81.27292 56.9625 80.74167Q57.446877 80.19479 57.446877 79.27292Q57.446877 78.38229 56.9625 77.86667Q56.49375 77.35104 55.775 77.35104Q55.05625 77.35104 54.55625 77.86667Q54.071877 78.38229 54.071877 79.21042ZM59.9 77.75729Q59.9 76.22604 60.2125 75.30417Q60.525 74.36667 61.134377 73.86667Q61.759377 73.36667 62.696877 73.36667Q63.384377 73.36667 63.9 73.64792Q64.43125 73.92917 64.775 74.46042Q65.11875 74.97604 65.30625 75.72604Q65.49375 76.47604 65.49375 77.75729Q65.49375 79.27292 65.18125 80.19479Q64.88438 81.11667 64.25938 81.63229Q63.65 82.13229 62.696877 82.13229Q61.4625 82.13229 60.74375 81.24167Q59.9 80.17917 59.9 77.75729ZM60.978127 77.75729Q60.978127 79.86667 61.478127 80.56979Q61.978127 81.27292 62.696877 81.27292Q63.43125 81.27292 63.915627 80.56979Q64.41563 79.86667 64.41563 77.75729Q64.41563 75.63229 63.915627 74.94479Q63.43125 74.24167 62.68125 74.24167Q61.9625 74.24167 61.525 74.85104Q60.978127 75.63229 60.978127 77.75729ZM66.9 77.75729Q66.9 76.22604 67.2125 75.30417Q67.525 74.36667 68.13438 73.86667Q68.75938 73.36667 69.69688 73.36667Q70.38438 73.36667 70.9 73.64792Q71.43125 73.92917 71.775 74.46042Q72.11875 74.97604 72.30625 75.72604Q72.49375 76.47604 72.49375 77.75729Q72.49375 79.27292 72.18125 80.19479Q71.88438 81.11667 71.25938 81.63229Q70.65 82.13229 69.69688 82.13229Q68.4625 82.13229 67.74375 81.24167Q66.9 80.17917 66.9 77.75729ZM67.97813 77.75729Q67.97813 79.86667 68.47813 80.56979Q68.97813 81.27292 69.69688 81.27292Q70.43125 81.27292 70.91563 80.56979Q71.41563 79.86667 71.41563 77.75729Q71.41563 75.63229 70.91563 74.94479Q70.43125 74.24167 69.68125 74.24167Q68.9625 74.24167 68.525 74.85104Q67.97813 75.63229 67.97813 77.75729Z" fill-rule="nonzero"/><path fill="#000000" d="M54.525 47.677082Q53.86875 47.427082 53.540627 46.989582Q53.228127 46.536457 53.228127 45.927082Q53.228127 44.989582 53.9 44.348957Q54.5875 43.708332 55.696877 43.708332Q56.821877 43.708332 57.509377 44.364582Q58.196877 45.020832 58.196877 45.958332Q58.196877 46.552082 57.884377 46.989582Q57.571877 47.427082 56.93125 47.677082Q57.728127 47.927082 58.134377 48.505207Q58.540627 49.083332 58.540627 49.880207Q58.540627 50.973957 57.759377 51.723957Q56.99375 52.473957 55.7125 52.473957Q54.446877 52.473957 53.665627 51.723957Q52.884377 50.973957 52.884377 49.848957Q52.884377 49.005207 53.30625 48.442707Q53.74375 47.880207 54.525 47.677082ZM54.30625 45.880207Q54.30625 46.489582 54.696877 46.880207Q55.103127 47.270832 55.728127 47.270832Q56.3375 47.270832 56.728127 46.895832Q57.11875 46.505207 57.11875 45.942707Q57.11875 45.364582 56.7125 44.973957Q56.30625 44.567707 55.7125 44.567707Q55.103127 44.567707 54.696877 44.958332Q54.30625 45.348957 54.30625 45.880207ZM53.978127 49.848957Q53.978127 50.302082 54.18125 50.723957Q54.4 51.145832 54.821877 51.380207Q55.24375 51.614582 55.728127 51.614582Q56.478127 51.614582 56.9625 51.130207Q57.4625 50.645832 57.4625 49.895832Q57.4625 49.130207 56.9625 48.630207Q56.4625 48.130207 55.696877 48.130207Q54.946877 48.130207 54.4625 48.630207Q53.978127 49.114582 53.978127 49.848957ZM59.9 48.098957Q59.9 46.567707 60.2125 45.645832Q60.525 44.708332 61.134377 44.208332Q61.759377 43.708332 62.696877 43.708332Q63.384377 43.708332 63.9 43.989582Q64.43125 44.270832 64.775 44.802082Q65.11875 45.317707 65.30625 46.067707Q65.49375 46.817707 65.49375 48.098957Q65.49375 49.614582 65.18125 50.536457Q64.88438 51.458332 64.25938 51.973957Q63.65 52.473957 62.696877 52.473957Q61.4625 52.473957 60.74375 51.583332Q59.9 50.520832 59.9 48.098957ZM60.978127 48.098957Q60.978127 50.208332 61.478127 50.911457Q61.978127 51.614582 62.696877 51.614582Q63.43125 51.614582 63.915627 50.911457Q64.41563 50.208332 64.41563 48.098957Q64.41563 45.973957 63.915627 45.286457Q63.43125 44.583332 62.68125 44.583332Q61.9625 44.583332 61.525 45.192707Q60.978127 45.973957 60.978127 48.098957ZM66.9 48.098957Q66.9 46.567707 67.2125 45.645832Q67.525 44.708332 68.13438 44.208332Q68.75938 43.708332 69.69688 43.708332Q70.38438 43.708332 70.9 43.989582Q71.43125 44.270832 71.775 44.802082Q72.11875 45.317707 72.30625 46.067707Q72.49375 46.817707 72.49375 48.098957Q72.49375 49.614582 72.18125 50.536457Q71.88438 51.458332 71.25938 51.973957Q70.65 52.473957 69.69688 52.473957Q68.4625 52.473957 67.74375 51.583332Q66.9 50.520832 66.9 48.098957ZM67.97813 48.098957Q67.97813 50.208332 68.47813 50.911457Q68.97813 51.614582 69.69688 51.614582Q70.43125 51.614582 70.91563 50.911457Q71.41563 50.208332 71.41563 48.098957Q71.41563 45.973957 70.91563 45.286457Q70.43125 44.583332 69.68125 44.583332Q68.9625 44.583332 68.525 45.192707Q67.97813 45.973957 67.97813 48.098957Z" fill-rule="nonzero"/><path fill="#000000" d="M88.84688 305.83438L89.90938 305.74063Q89.9875 306.39688 90.26875 306.80313Q90.55 307.20938 91.12813 307.475Q91.72188 307.725 92.45625 307.725Q93.09688 307.725 93.59688 307.5375Q94.09688 307.33438 94.33125 307.00626Q94.58125 306.6625 94.58125 306.27188Q94.58125 305.86563 94.34688 305.56876Q94.1125 305.25626 93.58125 305.05313Q93.22188 304.9125 92.03438 304.63126Q90.8625 304.35 90.39375 304.1Q89.76875 303.77188 89.47188 303.30313Q89.175 302.81876 89.175 302.225Q89.175 301.58438 89.53438 301.02188Q89.90938 300.44376 90.6125 300.1625Q91.33125 299.86563 92.19063 299.86563Q93.14375 299.86563 93.87813 300.17813Q94.6125 300.475 95.00313 301.08438Q95.39375 301.67813 95.425 302.42813L94.33125 302.50626Q94.2375 301.69376 93.72188 301.2875Q93.22188 300.86563 92.2375 300.86563Q91.20625 300.86563 90.7375 301.24063Q90.26875 301.61563 90.26875 302.14688Q90.26875 302.61563 90.59688 302.9125Q90.925 303.20938 92.3 303.52188Q93.69063 303.83438 94.20625 304.06876Q94.95625 304.42813 95.31563 304.95938Q95.675 305.475 95.675 306.17813Q95.675 306.86563 95.28438 307.475Q94.89375 308.06876 94.15938 308.4125Q93.425 308.74063 92.50313 308.74063Q91.33125 308.74063 90.53438 308.4125Q89.75313 308.06876 89.3 307.38126Q88.8625 306.69376 88.84688 305.83438ZM97.09688 310.99063L97.09688 302.38126L98.05 302.38126L98.05 303.17813Q98.39375 302.70938 98.81563 302.475Q99.25313 302.24063 99.8625 302.24063Q100.65938 302.24063 101.26875 302.64688Q101.87813 303.05313 102.175 303.80313Q102.4875 304.55313 102.4875 305.44376Q102.4875 306.39688 102.14375 307.1625Q101.81563 307.92813 101.15938 308.33438Q100.50313 308.74063 99.78438 308.74063Q99.25313 308.74063 98.83125 308.52188Q98.40938 308.2875 98.14375 307.95938L98.14375 310.99063L97.09688 310.99063ZM98.05 305.52188Q98.05 306.725 98.53438 307.30313Q99.01875 307.86563 99.70625 307.86563Q100.40938 307.86563 100.90938 307.27188Q101.40938 306.67813 101.40938 305.42813Q101.40938 304.24063 100.925 303.6625Q100.44063 303.06876 99.75313 303.06876Q99.08125 303.06876 98.56563 303.69376Q98.05 304.31876 98.05 305.52188ZM104.08125 308.6L104.08125 302.38126L105.03438 302.38126L105.03438 303.31876Q105.39375 302.6625 105.69063 302.45938Q106.00313 302.24063 106.37813 302.24063Q106.90938 302.24063 107.45625 302.56876L107.09688 303.55313Q106.70625 303.31876 106.33125 303.31876Q105.97188 303.31876 105.69063 303.5375Q105.425 303.74063 105.31563 304.11563Q105.12813 304.67813 105.12813 305.33438L105.12813 308.6L104.08125 308.6ZM108.09688 301.225L108.09688 300.00626L109.15938 300.00626L109.15938 301.225L108.09688 301.225ZM108.09688 308.6L108.09688 302.38126L109.15938 302.38126L109.15938 308.6L108.09688 308.6ZM111.09688 308.6L111.09688 302.38126L112.03438 302.38126L112.03438 303.25626Q112.72188 302.24063 114.01875 302.24063Q114.58125 302.24063 115.05 302.44376Q115.53438 302.64688 115.76875 302.975Q116.00313 303.30313 116.09688 303.74063Q116.14375 304.0375 116.14375 304.77188L116.14375 308.6L115.09688 308.6L115.09688 304.81876Q115.09688 304.1625 114.97188 303.85Q114.84688 303.5375 114.53438 303.35Q114.22188 303.14688 113.8 303.14688Q113.12813 303.14688 112.62813 303.58438Q112.14375 304.00626 112.14375 305.19376L112.14375 308.6L111.09688 308.6ZM120.39375 307.6625L120.55 308.58438Q120.09688 308.67813 119.75313 308.67813Q119.175 308.67813 118.8625 308.50626Q118.55 308.31876 118.40938 308.02188Q118.28438 307.725 118.28438 306.77188L118.28438 303.19376L117.51875 303.19376L117.51875 302.38126L118.28438 302.38126L118.28438 300.83438L119.33125 300.20938L119.33125 302.38126L120.39375 302.38126L120.39375 303.19376L119.33125 303.19376L119.33125 306.83438Q119.33125 307.2875 119.37813 307.4125Q119.44063 307.5375 119.56563 307.61563Q119.69063 307.69376 119.925 307.69376Q120.1125 307.69376 120.39375 307.6625ZM127.76875 308.6L126.72188 308.6L126.72188 301.88126Q126.33125 302.24063 125.70625 302.61563Q125.09688 302.975 124.6125 303.14688L124.6125 302.13126Q125.4875 301.70938 126.14375 301.13126Q126.81563 300.5375 127.09688 299.975L127.76875 299.975L127.76875 308.6Z" fill-rule="nonzero"/><path fill="#000000" d="M136.64688 305.83438L137.70938 305.74063Q137.7875 306.39688 138.06876 306.80313Q138.35 307.20938 138.92813 307.475Q139.52188 307.725 140.25626 307.725Q140.89688 307.725 141.39688 307.5375Q141.89688 307.33438 142.13126 307.00626Q142.38126 306.6625 142.38126 306.27188Q142.38126 305.86563 142.14688 305.56876Q141.9125 305.25626 141.38126 305.05313Q141.02188 304.9125 139.83438 304.63126Q138.6625 304.35 138.19376 304.1Q137.56876 303.77188 137.27188 303.30313Q136.975 302.81876 136.975 302.225Q136.975 301.58438 137.33438 301.02188Q137.70938 300.44376 138.4125 300.1625Q139.13126 299.86563 139.99063 299.86563Q140.94376 299.86563 141.67813 300.17813Q142.4125 300.475 142.80313 301.08438Q143.19376 301.67813 143.225 302.42813L142.13126 302.50626Q142.0375 301.69376 141.52188 301.2875Q141.02188 300.86563 140.0375 300.86563Q139.00626 300.86563 138.5375 301.24063Q138.06876 301.61563 138.06876 302.14688Q138.06876 302.61563 138.39688 302.9125Q138.725 303.20938 140.1 303.52188Q141.49063 303.83438 142.00626 304.06876Q142.75626 304.42813 143.11563 304.95938Q143.475 305.475 143.475 306.17813Q143.475 306.86563 143.08438 307.475Q142.69376 308.06876 141.95938 308.4125Q141.225 308.74063 140.30313 308.74063Q139.13126 308.74063 138.33438 308.4125Q137.55313 308.06876 137.1 307.38126Q136.6625 306.69376 136.64688 305.83438ZM144.89688 310.99063L144.89688 302.38126L145.85 302.38126L145.85 303.17813Q146.19376 302.70938 146.61563 302.475Q147.05313 302.24063 147.6625 302.24063Q148.45938 302.24063 149.06876 302.64688Q149.67813 303.05313 149.975 303.80313Q150.2875 304.55313 150.2875 305.44376Q150.2875 306.39688 149.94376 307.1625Q149.61563 307.92813 148.95938 308.33438Q148.30313 308.74063 147.58438 308.74063Q147.05313 308.74063 146.63126 308.52188Q146.20938 308.2875 145.94376 307.95938L145.94376 310.99063L144.89688 310.99063ZM145.85 305.52188Q145.85 306.725 146.33438 307.30313Q146.81876 307.86563 147.50626 307.86563Q148.20938 307.86563 148.70938 307.27188Q149.20938 306.67813 149.20938 305.42813Q149.20938 304.24063 148.725 303.6625Q148.24063 303.06876 147.55313 303.06876Q146.88126 303.06876 146.36563 303.69376Q145.85 304.31876 145.85 305.52188ZM151.88126 308.6L151.88126 302.38126L152.83438 302.38126L152.83438 303.31876Q153.19376 302.6625 153.49063 302.45938Q153.80313 302.24063 154.17813 302.24063Q154.70938 302.24063 155.25626 302.56876L154.89688 303.55313Q154.50626 303.31876 154.13126 303.31876Q153.77188 303.31876 153.49063 303.5375Q153.225 303.74063 153.11563 304.11563Q152.92813 304.67813 152.92813 305.33438L152.92813 308.6L151.88126 308.6ZM155.89688 301.225L155.89688 300.00626L156.95938 300.00626L156.95938 301.225L155.89688 301.225ZM155.89688 308.6L155.89688 302.38126L156.95938 302.38126L156.95938 308.6L155.89688 308.6ZM158.89688 308.6L158.89688 302.38126L159.83438 302.38126L159.83438 303.25626Q160.52188 302.24063 161.81876 302.24063Q162.38126 302.24063 162.85 302.44376Q163.33438 302.64688 163.56876 302.975Q163.80313 303.30313 163.89688 303.74063Q163.94376 304.0375 163.94376 304.77188L163.94376 308.6L162.89688 308.6L162.89688 304.81876Q162.89688 304.1625 162.77188 303.85Q162.64688 303.5375 162.33438 303.35Q162.02188 303.14688 161.6 303.14688Q160.92813 303.14688 160.42813 303.58438Q159.94376 304.00626 159.94376 305.19376L159.94376 308.6L158.89688 308.6ZM168.19376 307.6625L168.35 308.58438Q167.89688 308.67813 167.55313 308.67813Q166.975 308.67813 166.6625 308.50626Q166.35 308.31876 166.20938 308.02188Q166.08438 307.725 166.08438 306.77188L166.08438 303.19376L165.31876 303.19376L165.31876 302.38126L166.08438 302.38126L166.08438 300.83438L167.13126 300.20938L167.13126 302.38126L168.19376 302.38126L168.19376 303.19376L167.13126 303.19376L167.13126 306.83438Q167.13126 307.2875 167.17813 307.4125Q167.24063 307.5375 167.36563 307.61563Q167.49063 307.69376 167.725 307.69376Q167.9125 307.69376 168.19376 307.6625ZM177.14688 307.58438L177.14688 308.6L171.45938 308.6Q171.45938 308.225 171.58438 307.86563Q171.80313 307.2875 172.27188 306.725Q172.75626 306.1625 173.6625 305.42813Q175.06876 304.27188 175.55313 303.6Q176.05313 302.92813 176.05313 302.33438Q176.05313 301.70938 175.6 301.2875Q175.14688 300.85 174.42813 300.85Q173.6625 300.85 173.20938 301.30313Q172.75626 301.75626 172.74063 302.56876L171.6625 302.45938Q171.77188 301.24063 172.49063 300.61563Q173.225 299.975 174.45938 299.975Q175.69376 299.975 176.4125 300.6625Q177.13126 301.35 177.13126 302.36563Q177.13126 302.88126 176.9125 303.38126Q176.70938 303.86563 176.20938 304.42813Q175.725 304.975 174.6 305.92813Q173.64688 306.725 173.36563 307.02188Q173.1 307.30313 172.92813 307.58438L177.14688 307.58438Z" fill-rule="nonzero"/><path fill="#000000" d="M184.44687 305.83438L185.50937 305.74063Q185.5875 306.39688 185.86874 306.80313Q186.15 307.20938 186.72812 307.475Q187.32187 307.725 188.05624 307.725Q188.69687 307.725 189.19687 307.5375Q189.69687 307.33438 189.93124 307.00626Q190.18124 306.6625 190.18124 306.27188Q190.18124 305.86563 189.94687 305.56876Q189.7125 305.25626 189.18124 305.05313Q188.82187 304.9125 187.63437 304.63126Q186.4625 304.35 185.99374 304.1Q185.36874 303.77188 185.07187 303.30313Q184.775 302.81876 184.775 302.225Q184.775 301.58438 185.13437 301.02188Q185.50937 300.44376 186.2125 300.1625Q186.93124 299.86563 187.79062 299.86563Q188.74374 299.86563 189.47812 300.17813Q190.2125 300.475 190.60312 301.08438Q190.99374 301.67813 191.025 302.42813L189.93124 302.50626Q189.8375 301.69376 189.32187 301.2875Q188.82187 300.86563 187.8375 300.86563Q186.80624 300.86563 186.3375 301.24063Q185.86874 301.61563 185.86874 302.14688Q185.86874 302.61563 186.19687 302.9125Q186.525 303.20938 187.9 303.52188Q189.29062 303.83438 189.80624 304.06876Q190.55624 304.42813 190.91562 304.95938Q191.275 305.475 191.275 306.17813Q191.275 306.86563 190.88437 307.475Q190.49374 308.06876 189.75937 308.4125Q189.025 308.74063 188.10312 308.74063Q186.93124 308.74063 186.13437 308.4125Q185.35312 308.06876 184.9 307.38126Q184.4625 306.69376 184.44687 305.83438ZM192.69687 310.99063L192.69687 302.38126L193.65 302.38126L193.65 303.17813Q193.99374 302.70938 194.41562 302.475Q194.85312 302.24063 195.4625 302.24063Q196.25937 302.24063 196.86874 302.64688Q197.47812 303.05313 197.775 303.80313Q198.0875 304.55313 198.0875 305.44376Q198.0875 306.39688 197.74374 307.1625Q197.41562 307.92813 196.75937 308.33438Q196.10312 308.74063 195.38437 308.74063Q194.85312 308.74063 194.43124 308.52188Q194.00937 308.2875 193.74374 307.95938L193.74374 310.99063L192.69687 310.99063ZM193.65 305.52188Q193.65 306.725 194.13437 307.30313Q194.61874 307.86563 195.30624 307.86563Q196.00937 307.86563 196.50937 307.27188Q197.00937 306.67813 197.00937 305.42813Q197.00937 304.24063 196.525 303.6625Q196.04062 303.06876 195.35312 303.06876Q194.68124 303.06876 194.16562 303.69376Q193.65 304.31876 193.65 305.52188ZM199.68124 308.6L199.68124 302.38126L200.63437 302.38126L200.63437 303.31876Q200.99374 302.6625 201.29062 302.45938Q201.60312 302.24063 201.97812 302.24063Q202.50937 302.24063 203.05624 302.56876L202.69687 303.55313Q202.30624 303.31876 201.93124 303.31876Q201.57187 303.31876 201.29062 303.5375Q201.025 303.74063 200.91562 304.11563Q200.72812 304.67813 200.72812 305.33438L200.72812 308.6L199.68124 308.6ZM203.69687 301.225L203.69687 300.00626L204.75937 300.00626L204.75937 301.225L203.69687 301.225ZM203.69687 308.6L203.69687 302.38126L204.75937 302.38126L204.75937 308.6L203.69687 308.6ZM206.69687 308.6L206.69687 302.38126L207.63437 302.38126L207.63437 303.25626Q208.32187 302.24063 209.61874 302.24063Q210.18124 302.24063 210.65 302.44376Q211.13437 302.64688 211.36874 302.975Q211.60312 303.30313 211.69687 303.74063Q211.74374 304.0375 211.74374 304.77188L211.74374 308.6L210.69687 308.6L210.69687 304.81876Q210.69687 304.1625 210.57187 303.85Q210.44687 303.5375 210.13437 303.35Q209.82187 303.14688 209.4 303.14688Q208.72812 303.14688 208.22812 303.58438Q207.74374 304.00626 207.74374 305.19376L207.74374 308.6L206.69687 308.6ZM215.99374 307.6625L216.15 308.58438Q215.69687 308.67813 215.35312 308.67813Q214.775 308.67813 214.4625 308.50626Q214.15 308.31876 214.00937 308.02188Q213.88437 307.725 213.88437 306.77188L213.88437 303.19376L213.11874 303.19376L213.11874 302.38126L213.88437 302.38126L213.88437 300.83438L214.93124 300.20938L214.93124 302.38126L215.99374 302.38126L215.99374 303.19376L214.93124 303.19376L214.93124 306.83438Q214.93124 307.2875 214.97812 307.4125Q215.04062 307.5375 215.16562 307.61563Q215.29062 307.69376 215.525 307.69376Q215.7125 307.69376 215.99374 307.6625ZM219.4 306.33438L220.4625 306.19376Q220.63437 307.08438 221.07187 307.49063Q221.50937 307.88126 222.13437 307.88126Q222.88437 307.88126 223.4 307.36563Q223.91562 306.85 223.91562 306.08438Q223.91562 305.36563 223.43124 304.89688Q222.9625 304.4125 222.22812 304.4125Q221.93124 304.4125 221.47812 304.5375L221.60312 303.6Q221.7125 303.61563 221.775 303.61563Q222.44687 303.61563 222.97812 303.27188Q223.525 302.9125 223.525 302.17813Q223.525 301.6 223.13437 301.225Q222.74374 300.83438 222.11874 300.83438Q221.50937 300.83438 221.0875 301.225Q220.68124 301.61563 220.57187 302.38126L219.50937 302.19376Q219.69687 301.14688 220.38437 300.56876Q221.07187 299.975 222.0875 299.975Q222.79062 299.975 223.38437 300.2875Q223.97812 300.58438 224.29062 301.1Q224.60312 301.61563 224.60312 302.20938Q224.60312 302.75626 224.30624 303.225Q224.00937 303.67813 223.43124 303.94376Q224.18124 304.11563 224.60312 304.67813Q225.025 305.225 225.025 306.06876Q225.025 307.19376 224.19687 307.975Q223.38437 308.75626 222.13437 308.75626Q221.00937 308.75626 220.25937 308.08438Q219.50937 307.39688 219.4 306.33438Z" fill-rule="nonzero"/><path fill="#000000" d="M232.24687 305.83438L233.30937 305.74063Q233.3875 306.39688 233.66875 306.80313Q233.95 307.20938 234.52812 307.475Q235.12187 307.725 235.85625 307.725Q236.49687 307.725 236.99687 307.5375Q237.49687 307.33438 237.73125 307.00626Q237.98125 306.6625 237.98125 306.27188Q237.98125 305.86563 237.74687 305.56876Q237.5125 305.25626 236.98125 305.05313Q236.62187 304.9125 235.43437 304.63126Q234.2625 304.35 233.79375 304.1Q233.16875 303.77188 232.87187 303.30313Q232.575 302.81876 232.575 302.225Q232.575 301.58438 232.93437 301.02188Q233.30937 300.44376 234.0125 300.1625Q234.73125 299.86563 235.59062 299.86563Q236.54375 299.86563 237.27812 300.17813Q238.0125 300.475 238.40312 301.08438Q238.79375 301.67813 238.825 302.42813L237.73125 302.50626Q237.6375 301.69376 237.12187 301.2875Q236.62187 300.86563 235.6375 300.86563Q234.60625 300.86563 234.1375 301.24063Q233.66875 301.61563 233.66875 302.14688Q233.66875 302.61563 233.99687 302.9125Q234.325 303.20938 235.7 303.52188Q237.09062 303.83438 237.60625 304.06876Q238.35625 304.42813 238.71562 304.95938Q239.075 305.475 239.075 306.17813Q239.075 306.86563 238.68437 307.475Q238.29375 308.06876 237.55937 308.4125Q236.825 308.74063 235.90312 308.74063Q234.73125 308.74063 233.93437 308.4125Q233.15312 308.06876 232.7 307.38126Q232.2625 306.69376 232.24687 305.83438ZM240.49687 310.99063L240.49687 302.38126L241.45 302.38126L241.45 303.17813Q241.79375 302.70938 242.21562 302.475Q242.65312 302.24063 243.2625 302.24063Q244.05937 302.24063 244.66875 302.64688Q245.27812 303.05313 245.575 303.80313Q245.8875 304.55313 245.8875 305.44376Q245.8875 306.39688 245.54375 307.1625Q245.21562 307.92813 244.55937 308.33438Q243.90312 308.74063 243.18437 308.74063Q242.65312 308.74063 242.23125 308.52188Q241.80937 308.2875 241.54375 307.95938L241.54375 310.99063L240.49687 310.99063ZM241.45 305.52188Q241.45 306.725 241.93437 307.30313Q242.41875 307.86563 243.10625 307.86563Q243.80937 307.86563 244.30937 307.27188Q244.80937 306.67813 244.80937 305.42813Q244.80937 304.24063 244.325 303.6625Q243.84062 303.06876 243.15312 303.06876Q242.48125 303.06876 241.96562 303.69376Q241.45 304.31876 241.45 305.52188ZM247.48125 308.6L247.48125 302.38126L248.43437 302.38126L248.43437 303.31876Q248.79375 302.6625 249.09062 302.45938Q249.40312 302.24063 249.77812 302.24063Q250.30937 302.24063 250.85625 302.56876L250.49687 303.55313Q250.10625 303.31876 249.73125 303.31876Q249.37187 303.31876 249.09062 303.5375Q248.825 303.74063 248.71562 304.11563Q248.52812 304.67813 248.52812 305.33438L248.52812 308.6L247.48125 308.6ZM251.49687 301.225L251.49687 300.00626L252.55937 300.00626L252.55937 301.225L251.49687 301.225ZM251.49687 308.6L251.49687 302.38126L252.55937 302.38126L252.55937 308.6L251.49687 308.6ZM254.49687 308.6L254.49687 302.38126L255.43437 302.38126L255.43437 303.25626Q256.1219 302.24063 257.41876 302.24063Q257.98126 302.24063 258.45 302.44376Q258.9344 302.64688 259.16876 302.975Q259.40314 303.30313 259.4969 303.74063Q259.54376 304.0375 259.54376 304.77188L259.54376 308.6L258.4969 308.6L258.4969 304.81876Q258.4969 304.1625 258.3719 303.85Q258.2469 303.5375 257.9344 303.35Q257.6219 303.14688 257.2 303.14688Q256.52814 303.14688 256.02814 303.58438Q255.54375 304.00626 255.54375 305.19376L255.54375 308.6L254.49687 308.6ZM263.79376 307.6625L263.95 308.58438Q263.4969 308.67813 263.15314 308.67813Q262.575 308.67813 262.2625 308.50626Q261.95 308.31876 261.8094 308.02188Q261.6844 307.725 261.6844 306.77188L261.6844 303.19376L260.91876 303.19376L260.91876 302.38126L261.6844 302.38126L261.6844 300.83438L262.73126 300.20938L262.73126 302.38126L263.79376 302.38126L263.79376 303.19376L262.73126 303.19376L262.73126 306.83438Q262.73126 307.2875 262.77814 307.4125Q262.84064 307.5375 262.96564 307.61563Q263.09064 307.69376 263.325 307.69376Q263.5125 307.69376 263.79376 307.6625ZM270.575 308.6L270.575 306.5375L266.85626 306.5375L266.85626 305.56876L270.77814 300.00626L271.6375 300.00626L271.6375 305.56876L272.79376 305.56876L272.79376 306.5375L271.6375 306.5375L271.6375 308.6L270.575 308.6ZM270.575 305.56876L270.575 301.70938L267.8875 305.56876L270.575 305.56876Z" fill-rule="nonzero"/><path fill="#000000" d="M280.04688 305.83438L281.10938 305.74063Q281.1875 306.39688 281.46875 306.80313Q281.75 307.20938 282.32812 307.475Q282.92188 307.725 283.65625 307.725Q284.29688 307.725 284.79688 307.5375Q285.29688 307.33438 285.53125 307.00626Q285.78125 306.6625 285.78125 306.27188Q285.78125 305.86563 285.54688 305.56876Q285.3125 305.25626 284.78125 305.05313Q284.42188 304.9125 283.23438 304.63126Q282.0625 304.35 281.59375 304.1Q280.96875 303.77188 280.67188 303.30313Q280.375 302.81876 280.375 302.225Q280.375 301.58438 280.73438 301.02188Q281.10938 300.44376 281.8125 300.1625Q282.53125 299.86563 283.39062 299.86563Q284.34375 299.86563 285.07812 300.17813Q285.8125 300.475 286.20312 301.08438Q286.59375 301.67813 286.625 302.42813L285.53125 302.50626Q285.4375 301.69376 284.92188 301.2875Q284.42188 300.86563 283.4375 300.86563Q282.40625 300.86563 281.9375 301.24063Q281.46875 301.61563 281.46875 302.14688Q281.46875 302.61563 281.79688 302.9125Q282.125 303.20938 283.5 303.52188Q284.89062 303.83438 285.40625 304.06876Q286.15625 304.42813 286.51562 304.95938Q286.875 305.475 286.875 306.17813Q286.875 306.86563 286.48438 307.475Q286.09375 308.06876 285.35938 308.4125Q284.625 308.74063 283.70312 308.74063Q282.53125 308.74063 281.73438 308.4125Q280.95312 308.06876 280.5 307.38126Q280.0625 306.69376 280.04688 305.83438ZM288.29688 310.99063L288.29688 302.38126L289.25 302.38126L289.25 303.17813Q289.59375 302.70938 290.01562 302.475Q290.45312 302.24063 291.0625 302.24063Q291.85938 302.24063 292.46875 302.64688Q293.07812 303.05313 293.375 303.80313Q293.6875 304.55313 293.6875 305.44376Q293.6875 306.39688 293.34375 307.1625Q293.01562 307.92813 292.35938 308.33438Q291.70312 308.74063 290.98438 308.74063Q290.45312 308.74063 290.03125 308.52188Q289.60938 308.2875 289.34375 307.95938L289.34375 310.99063L288.29688 310.99063ZM289.25 305.52188Q289.25 306.725 289.73438 307.30313Q290.21875 307.86563 290.90625 307.86563Q291.60938 307.86563 292.10938 307.27188Q292.60938 306.67813 292.60938 305.42813Q292.60938 304.24063 292.125 303.6625Q291.64062 303.06876 290.95312 303.06876Q290.28125 303.06876 289.76562 303.69376Q289.25 304.31876 289.25 305.52188ZM295.28125 308.6L295.28125 302.38126L296.23438 302.38126L296.23438 303.31876Q296.59375 302.6625 296.89062 302.45938Q297.20312 302.24063 297.57812 302.24063Q298.10938 302.24063 298.65625 302.56876L298.29688 303.55313Q297.90625 303.31876 297.53125 303.31876Q297.17188 303.31876 296.89062 303.5375Q296.625 303.74063 296.51562 304.11563Q296.32812 304.67813 296.32812 305.33438L296.32812 308.6L295.28125 308.6ZM299.29688 301.225L299.29688 300.00626L300.35938 300.00626L300.35938 301.225L299.29688 301.225ZM299.29688 308.6L299.29688 302.38126L300.35938 302.38126L300.35938 308.6L299.29688 308.6ZM302.29688 308.6L302.29688 302.38126L303.23438 302.38126L303.23438 303.25626Q303.92188 302.24063 305.21875 302.24063Q305.78125 302.24063 306.25 302.44376Q306.73438 302.64688 306.96875 302.975Q307.20312 303.30313 307.29688 303.74063Q307.34375 304.0375 307.34375 304.77188L307.34375 308.6L306.29688 308.6L306.29688 304.81876Q306.29688 304.1625 306.17188 303.85Q306.04688 303.5375 305.73438 303.35Q305.42188 303.14688 305.0 303.14688Q304.32812 303.14688 303.82812 303.58438Q303.34375 304.00626 303.34375 305.19376L303.34375 308.6L302.29688 308.6ZM311.59375 307.6625L311.75 308.58438Q311.29688 308.67813 310.95312 308.67813Q310.375 308.67813 310.0625 308.50626Q309.75 308.31876 309.60938 308.02188Q309.48438 307.725 309.48438 306.77188L309.48438 303.19376L308.71875 303.19376L308.71875 302.38126L309.48438 302.38126L309.48438 300.83438L310.53125 300.20938L310.53125 302.38126L311.59375 302.38126L311.59375 303.19376L310.53125 303.19376L310.53125 306.83438Q310.53125 307.2875 310.57812 307.4125Q310.64062 307.5375 310.76562 307.61563Q310.89062 307.69376 311.125 307.69376Q311.3125 307.69376 311.59375 307.6625ZM315.0 306.35L316.10938 306.25626Q316.23438 307.06876 316.67188 307.475Q317.125 307.88126 317.76562 307.88126Q318.51562 307.88126 319.04688 307.30313Q319.57812 306.725 319.57812 305.7875Q319.57812 304.88126 319.0625 304.36563Q318.5625 303.83438 317.73438 303.83438Q317.23438 303.83438 316.8125 304.06876Q316.40625 304.30313 316.17188 304.6625L315.1875 304.5375L316.01562 300.13126L320.29688 300.13126L320.29688 301.13126L316.85938 301.13126L316.40625 303.44376Q317.17188 302.89688 318.01562 302.89688Q319.14062 302.89688 319.90625 303.67813Q320.6875 304.45938 320.6875 305.69376Q320.6875 306.85 320.01562 307.70938Q319.1875 308.74063 317.76562 308.74063Q316.59375 308.74063 315.84375 308.08438Q315.10938 307.42813 315.0 306.35Z" fill-rule="nonzero"/><path fill="#000000" d="M327.84686 305.83438L328.90936 305.74063Q328.9875 306.39688 329.26874 306.80313Q329.55 307.20938 330.1281 307.475Q330.72186 307.725 331.45624 307.725Q332.09686 307.725 332.59686 307.5375Q333.09686 307.33438 333.33124 307.00626Q333.58124 306.6625 333.58124 306.27188Q333.58124 305.86563 333.34686 305.56876Q333.1125 305.25626 332.58124 305.05313Q332.22186 304.9125 331.03436 304.63126Q329.8625 304.35 329.39374 304.1Q328.76874 303.77188 328.47186 303.30313Q328.175 302.81876 328.175 302.225Q328.175 301.58438 328.53436 301.02188Q328.90936 300.44376 329.6125 300.1625Q330.33124 299.86563 331.1906 299.86563Q332.14374 299.86563 332.8781 300.17813Q333.6125 300.475 334.0031 301.08438Q334.39374 301.67813 334.425 302.42813L333.33124 302.50626Q333.2375 301.69376 332.72186 301.2875Q332.22186 300.86563 331.2375 300.86563Q330.20624 300.86563 329.7375 301.24063Q329.26874 301.61563 329.26874 302.14688Q329.26874 302.61563 329.59686 302.9125Q329.925 303.20938 331.3 303.52188Q332.6906 303.83438 333.20624 304.06876Q333.95624 304.42813 334.3156 304.95938Q334.675 305.475 334.675 306.17813Q334.675 306.86563 334.28436 307.475Q333.89374 308.06876 333.15936 308.4125Q332.425 308.74063 331.5031 308.74063Q330.33124 308.74063 329.53436 308.4125Q328.7531 308.06876 328.3 307.38126Q327.8625 306.69376 327.84686 305.83438ZM336.09686 310.99063L336.09686 302.38126L337.05 302.38126L337.05 303.17813Q337.39374 302.70938 337.8156 302.475Q338.2531 302.24063 338.8625 302.24063Q339.65936 302.24063 340.26874 302.64688Q340.8781 303.05313 341.175 303.80313Q341.4875 304.55313 341.4875 305.44376Q341.4875 306.39688 341.14374 307.1625Q340.8156 307.92813 340.15936 308.33438Q339.5031 308.74063 338.78436 308.74063Q338.2531 308.74063 337.83124 308.52188Q337.40936 308.2875 337.14374 307.95938L337.14374 310.99063L336.09686 310.99063ZM337.05 305.52188Q337.05 306.725 337.53436 307.30313Q338.01874 307.86563 338.70624 307.86563Q339.40936 307.86563 339.90936 307.27188Q340.40936 306.67813 340.40936 305.42813Q340.40936 304.24063 339.925 303.6625Q339.4406 303.06876 338.7531 303.06876Q338.08124 303.06876 337.5656 303.69376Q337.05 304.31876 337.05 305.52188ZM343.08124 308.6L343.08124 302.38126L344.03436 302.38126L344.03436 303.31876Q344.39374 302.6625 344.6906 302.45938Q345.0031 302.24063 345.3781 302.24063Q345.90936 302.24063 346.45624 302.56876L346.09686 303.55313Q345.70624 303.31876 345.33124 303.31876Q344.97186 303.31876 344.6906 303.5375Q344.425 303.74063 344.3156 304.11563Q344.1281 304.67813 344.1281 305.33438L344.1281 308.6L343.08124 308.6ZM347.09686 301.225L347.09686 300.00626L348.15936 300.00626L348.15936 301.225L347.09686 301.225ZM347.09686 308.6L347.09686 302.38126L348.15936 302.38126L348.15936 308.6L347.09686 308.6ZM350.09686 308.6L350.09686 302.38126L351.03436 302.38126L351.03436 303.25626Q351.72186 302.24063 353.01874 302.24063Q353.58124 302.24063 354.05 302.44376Q354.53436 302.64688 354.76874 302.975Q355.0031 303.30313 355.09686 303.74063Q355.14374 304.0375 355.14374 304.77188L355.14374 308.6L354.09686 308.6L354.09686 304.81876Q354.09686 304.1625 353.97186 303.85Q353.84686 303.5375 353.53436 303.35Q353.22186 303.14688 352.8 303.14688Q352.1281 303.14688 351.6281 303.58438Q351.14374 304.00626 351.14374 305.19376L351.14374 308.6L350.09686 308.6ZM359.39374 307.6625L359.55 308.58438Q359.09686 308.67813 358.7531 308.67813Q358.175 308.67813 357.8625 308.50626Q357.55 308.31876 357.40936 308.02188Q357.28436 307.725 357.28436 306.77188L357.28436 303.19376L356.51874 303.19376L356.51874 302.38126L357.28436 302.38126L357.28436 300.83438L358.33124 300.20938L358.33124 302.38126L359.39374 302.38126L359.39374 303.19376L358.33124 303.19376L358.33124 306.83438Q358.33124 307.2875 358.3781 307.4125Q358.4406 307.5375 358.5656 307.61563Q358.6906 307.69376 358.925 307.69376Q359.1125 307.69376 359.39374 307.6625ZM368.26874 302.11563L367.22186 302.19376Q367.08124 301.56876 366.83124 301.2875Q366.39374 300.83438 365.76874 300.83438Q365.26874 300.83438 364.8781 301.11563Q364.39374 301.49063 364.09686 302.19376Q363.8156 302.88126 363.8 304.1625Q364.175 303.58438 364.72186 303.30313Q365.28436 303.02188 365.89374 303.02188Q366.9406 303.02188 367.675 303.80313Q368.425 304.58438 368.425 305.80313Q368.425 306.61563 368.0656 307.31876Q367.72186 308.00626 367.1125 308.38126Q366.5031 308.74063 365.7375 308.74063Q364.40936 308.74063 363.58124 307.77188Q362.7531 306.80313 362.7531 304.58438Q362.7531 302.08438 363.675 300.95938Q364.47186 299.975 365.83124 299.975Q366.84686 299.975 367.4875 300.55313Q368.14374 301.11563 368.26874 302.11563ZM363.97186 305.81876Q363.97186 306.36563 364.1906 306.86563Q364.425 307.35 364.83124 307.61563Q365.2531 307.88126 365.72186 307.88126Q366.3781 307.88126 366.8625 307.35Q367.34686 306.80313 367.34686 305.88126Q367.34686 304.99063 366.8625 304.475Q366.39374 303.95938 365.675 303.95938Q364.95624 303.95938 364.45624 304.475Q363.97186 304.99063 363.97186 305.81876Z" fill-rule="nonzero"/><path fill="#000000" d="M375.64688 305.83438L376.70938 305.74063Q376.7875 306.39688 377.06876 306.80313Q377.35 307.20938 377.92813 307.475Q378.52188 307.725 379.25626 307.725Q379.89688 307.725 380.39688 307.5375Q380.89688 307.33438 381.13126 307.00626Q381.38126 306.6625 381.38126 306.27188Q381.38126 305.86563 381.14688 305.56876Q380.9125 305.25626 380.38126 305.05313Q380.02188 304.9125 378.83438 304.63126Q377.6625 304.35 377.19376 304.1Q376.56876 303.77188 376.27188 303.30313Q375.975 302.81876 375.975 302.225Q375.975 301.58438 376.33438 301.02188Q376.70938 300.44376 377.4125 300.1625Q378.13126 299.86563 378.99063 299.86563Q379.94376 299.86563 380.67813 300.17813Q381.4125 300.475 381.80313 301.08438Q382.19376 301.67813 382.225 302.42813L381.13126 302.50626Q381.0375 301.69376 380.52188 301.2875Q380.02188 300.86563 379.0375 300.86563Q378.00626 300.86563 377.5375 301.24063Q377.06876 301.61563 377.06876 302.14688Q377.06876 302.61563 377.39688 302.9125Q377.725 303.20938 379.1 303.52188Q380.49063 303.83438 381.00626 304.06876Q381.75626 304.42813 382.11563 304.95938Q382.475 305.475 382.475 306.17813Q382.475 306.86563 382.08438 307.475Q381.69376 308.06876 380.95938 308.4125Q380.225 308.74063 379.30313 308.74063Q378.13126 308.74063 377.33438 308.4125Q376.55313 308.06876 376.1 307.38126Q375.6625 306.69376 375.64688 305.83438ZM383.89688 310.99063L383.89688 302.38126L384.85 302.38126L384.85 303.17813Q385.19376 302.70938 385.61563 302.475Q386.05313 302.24063 386.6625 302.24063Q387.45938 302.24063 388.06876 302.64688Q388.67813 303.05313 388.975 303.80313Q389.2875 304.55313 389.2875 305.44376Q389.2875 306.39688 388.94376 307.1625Q388.61563 307.92813 387.95938 308.33438Q387.30313 308.74063 386.58438 308.74063Q386.05313 308.74063 385.63126 308.52188Q385.20938 308.2875 384.94376 307.95938L384.94376 310.99063L383.89688 310.99063ZM384.85 305.52188Q384.85 306.725 385.33438 307.30313Q385.81876 307.86563 386.50626 307.86563Q387.20938 307.86563 387.70938 307.27188Q388.20938 306.67813 388.20938 305.42813Q388.20938 304.24063 387.725 303.6625Q387.24063 303.06876 386.55313 303.06876Q385.88126 303.06876 385.36563 303.69376Q384.85 304.31876 384.85 305.52188ZM390.88126 308.6L390.88126 302.38126L391.83438 302.38126L391.83438 303.31876Q392.19376 302.6625 392.49063 302.45938Q392.80313 302.24063 393.17813 302.24063Q393.70938 302.24063 394.25626 302.56876L393.89688 303.55313Q393.50626 303.31876 393.13126 303.31876Q392.77188 303.31876 392.49063 303.5375Q392.225 303.74063 392.11563 304.11563Q391.92813 304.67813 391.92813 305.33438L391.92813 308.6L390.88126 308.6ZM394.89688 301.225L394.89688 300.00626L395.95938 300.00626L395.95938 301.225L394.89688 301.225ZM394.89688 308.6L394.89688 302.38126L395.95938 302.38126L395.95938 308.6L394.89688 308.6ZM397.89688 308.6L397.89688 302.38126L398.83438 302.38126L398.83438 303.25626Q399.52188 302.24063 400.81876 302.24063Q401.38126 302.24063 401.85 302.44376Q402.33438 302.64688 402.56876 302.975Q402.80313 303.30313 402.89688 303.74063Q402.94376 304.0375 402.94376 304.77188L402.94376 308.6L401.89688 308.6L401.89688 304.81876Q401.89688 304.1625 401.77188 303.85Q401.64688 303.5375 401.33438 303.35Q401.02188 303.14688 400.6 303.14688Q399.92813 303.14688 399.42813 303.58438Q398.94376 304.00626 398.94376 305.19376L398.94376 308.6L397.89688 308.6ZM407.19376 307.6625L407.35 308.58438Q406.89688 308.67813 406.55313 308.67813Q405.975 308.67813 405.6625 308.50626Q405.35 308.31876 405.20938 308.02188Q405.08438 307.725 405.08438 306.77188L405.08438 303.19376L404.31876 303.19376L404.31876 302.38126L405.08438 302.38126L405.08438 300.83438L406.13126 300.20938L406.13126 302.38126L407.19376 302.38126L407.19376 303.19376L406.13126 303.19376L406.13126 306.83438Q406.13126 307.2875 406.17813 307.4125Q406.24063 307.5375 406.36563 307.61563Q406.49063 307.69376 406.725 307.69376Q406.9125 307.69376 407.19376 307.6625ZM410.6625 301.13126L410.6625 300.11563L416.225 300.11563L416.225 300.94376Q415.4125 301.81876 414.6 303.27188Q413.80313 304.70938 413.36563 306.24063Q413.0375 307.31876 412.95938 308.6L411.86563 308.6Q411.88126 307.58438 412.25626 306.14688Q412.64688 304.70938 413.35 303.38126Q414.06876 302.05313 414.88126 301.13126L410.6625 301.13126Z" fill-rule="nonzero"/><path fill="#000000" d="M423.44687 305.83438L424.50937 305.74063Q424.5875 306.39688 424.86874 306.80313Q425.15 307.20938 425.72812 307.475Q426.32187 307.725 427.05624 307.725Q427.69687 307.725 428.19687 307.5375Q428.69687 307.33438 428.93124 307.00626Q429.18124 306.6625 429.18124 306.27188Q429.18124 305.86563 428.94687 305.56876Q428.7125 305.25626 428.18124 305.05313Q427.82187 304.9125 426.63437 304.63126Q425.4625 304.35 424.99374 304.1Q424.36874 303.77188 424.07187 303.30313Q423.775 302.81876 423.775 302.225Q423.775 301.58438 424.13437 301.02188Q424.50937 300.44376 425.2125 300.1625Q425.93124 299.86563 426.79062 299.86563Q427.74374 299.86563 428.47812 300.17813Q429.2125 300.475 429.60312 301.08438Q429.99374 301.67813 430.025 302.42813L428.93124 302.50626Q428.8375 301.69376 428.32187 301.2875Q427.82187 300.86563 426.8375 300.86563Q425.80624 300.86563 425.3375 301.24063Q424.86874 301.61563 424.86874 302.14688Q424.86874 302.61563 425.19687 302.9125Q425.525 303.20938 426.9 303.52188Q428.29062 303.83438 428.80624 304.06876Q429.55624 304.42813 429.91562 304.95938Q430.275 305.475 430.275 306.17813Q430.275 306.86563 429.88437 307.475Q429.49374 308.06876 428.75937 308.4125Q428.025 308.74063 427.10312 308.74063Q425.93124 308.74063 425.13437 308.4125Q424.35312 308.06876 423.9 307.38126Q423.4625 306.69376 423.44687 305.83438ZM431.69687 310.99063L431.69687 302.38126L432.65 302.38126L432.65 303.17813Q432.99374 302.70938 433.41562 302.475Q433.85312 302.24063 434.4625 302.24063Q435.25937 302.24063 435.86874 302.64688Q436.47812 303.05313 436.775 303.80313Q437.0875 304.55313 437.0875 305.44376Q437.0875 306.39688 436.74374 307.1625Q436.41562 307.92813 435.75937 308.33438Q435.10312 308.74063 434.38437 308.74063Q433.85312 308.74063 433.43124 308.52188Q433.00937 308.2875 432.74374 307.95938L432.74374 310.99063L431.69687 310.99063ZM432.65 305.52188Q432.65 306.725 433.13437 307.30313Q433.61874 307.86563 434.30624 307.86563Q435.00937 307.86563 435.50937 307.27188Q436.00937 306.67813 436.00937 305.42813Q436.00937 304.24063 435.525 303.6625Q435.04062 303.06876 434.35312 303.06876Q433.68124 303.06876 433.16562 303.69376Q432.65 304.31876 432.65 305.52188ZM438.68124 308.6L438.68124 302.38126L439.63437 302.38126L439.63437 303.31876Q439.99374 302.6625 440.29062 302.45938Q440.60312 302.24063 440.97812 302.24063Q441.50937 302.24063 442.05624 302.56876L441.69687 303.55313Q441.30624 303.31876 440.93124 303.31876Q440.57187 303.31876 440.29062 303.5375Q440.025 303.74063 439.91562 304.11563Q439.72812 304.67813 439.72812 305.33438L439.72812 308.6L438.68124 308.6ZM442.69687 301.225L442.69687 300.00626L443.75937 300.00626L443.75937 301.225L442.69687 301.225ZM442.69687 308.6L442.69687 302.38126L443.75937 302.38126L443.75937 308.6L442.69687 308.6ZM445.69687 308.6L445.69687 302.38126L446.63437 302.38126L446.63437 303.25626Q447.32187 302.24063 448.61874 302.24063Q449.18124 302.24063 449.65 302.44376Q450.13437 302.64688 450.36874 302.975Q450.60312 303.30313 450.69687 303.74063Q450.74374 304.0375 450.74374 304.77188L450.74374 308.6L449.69687 308.6L449.69687 304.81876Q449.69687 304.1625 449.57187 303.85Q449.44687 303.5375 449.13437 303.35Q448.82187 303.14688 448.4 303.14688Q447.72812 303.14688 447.22812 303.58438Q446.74374 304.00626 446.74374 305.19376L446.74374 308.6L445.69687 308.6ZM454.99374 307.6625L455.15 308.58438Q454.69687 308.67813 454.35312 308.67813Q453.775 308.67813 453.4625 308.50626Q453.15 308.31876 453.00937 308.02188Q452.88437 307.725 452.88437 306.77188L452.88437 303.19376L452.11874 303.19376L452.11874 302.38126L452.88437 302.38126L452.88437 300.83438L453.93124 300.20938L453.93124 302.38126L454.99374 302.38126L454.99374 303.19376L453.93124 303.19376L453.93124 306.83438Q453.93124 307.2875 453.97812 307.4125Q454.04062 307.5375 454.16562 307.61563Q454.29062 307.69376 454.525 307.69376Q454.7125 307.69376 454.99374 307.6625ZM460.025 303.94376Q459.36874 303.69376 459.04062 303.25626Q458.72812 302.80313 458.72812 302.19376Q458.72812 301.25626 459.4 300.61563Q460.0875 299.975 461.19687 299.975Q462.32187 299.975 463.00937 300.63126Q463.69687 301.2875 463.69687 302.225Q463.69687 302.81876 463.38437 303.25626Q463.07187 303.69376 462.43124 303.94376Q463.22812 304.19376 463.63437 304.77188Q464.04062 305.35 464.04062 306.14688Q464.04062 307.24063 463.25937 307.99063Q462.49374 308.74063 461.2125 308.74063Q459.94687 308.74063 459.16562 307.99063Q458.38437 307.24063 458.38437 306.11563Q458.38437 305.27188 458.80624 304.70938Q459.24374 304.14688 460.025 303.94376ZM459.80624 302.14688Q459.80624 302.75626 460.19687 303.14688Q460.60312 303.5375 461.22812 303.5375Q461.8375 303.5375 462.22812 303.1625Q462.61874 302.77188 462.61874 302.20938Q462.61874 301.63126 462.2125 301.24063Q461.80624 300.83438 461.2125 300.83438Q460.60312 300.83438 460.19687 301.225Q459.80624 301.61563 459.80624 302.14688ZM459.47812 306.11563Q459.47812 306.56876 459.68124 306.99063Q459.9 307.4125 460.32187 307.64688Q460.74374 307.88126 461.22812 307.88126Q461.97812 307.88126 462.4625 307.39688Q462.9625 306.9125 462.9625 306.1625Q462.9625 305.39688 462.4625 304.89688Q461.9625 304.39688 461.19687 304.39688Q460.44687 304.39688 459.9625 304.89688Q459.47812 305.38126 459.47812 306.11563Z" fill-rule="nonzero"/><path fill="#000000" d="M471.2469 305.83438L472.3094 305.74063Q472.3875 306.39688 472.66876 306.80313Q472.95 307.20938 473.52814 307.475Q474.1219 307.725 474.85626 307.725Q475.4969 307.725 475.9969 307.5375Q476.4969 307.33438 476.73126 307.00626Q476.98126 306.6625 476.98126 306.27188Q476.98126 305.86563 476.7469 305.56876Q476.5125 305.25626 475.98126 305.05313Q475.6219 304.9125 474.4344 304.63126Q473.2625 304.35 472.79376 304.1Q472.16876 303.77188 471.8719 303.30313Q471.575 302.81876 471.575 302.225Q471.575 301.58438 471.9344 301.02188Q472.3094 300.44376 473.0125 300.1625Q473.73126 299.86563 474.59064 299.86563Q475.54376 299.86563 476.27814 300.17813Q477.0125 300.475 477.40314 301.08438Q477.79376 301.67813 477.825 302.42813L476.73126 302.50626Q476.6375 301.69376 476.1219 301.2875Q475.6219 300.86563 474.6375 300.86563Q473.60626 300.86563 473.1375 301.24063Q472.66876 301.61563 472.66876 302.14688Q472.66876 302.61563 472.9969 302.9125Q473.325 303.20938 474.7 303.52188Q476.09064 303.83438 476.60626 304.06876Q477.35626 304.42813 477.71564 304.95938Q478.075 305.475 478.075 306.17813Q478.075 306.86563 477.6844 307.475Q477.29376 308.06876 476.5594 308.4125Q475.825 308.74063 474.90314 308.74063Q473.73126 308.74063 472.9344 308.4125Q472.15314 308.06876 471.7 307.38126Q471.2625 306.69376 471.2469 305.83438ZM479.4969 310.99063L479.4969 302.38126L480.45 302.38126L480.45 303.17813Q480.79376 302.70938 481.21564 302.475Q481.65314 302.24063 482.2625 302.24063Q483.0594 302.24063 483.66876 302.64688Q484.27814 303.05313 484.575 303.80313Q484.8875 304.55313 484.8875 305.44376Q484.8875 306.39688 484.54376 307.1625Q484.21564 307.92813 483.5594 308.33438Q482.90314 308.74063 482.1844 308.74063Q481.65314 308.74063 481.23126 308.52188Q480.8094 308.2875 480.54376 307.95938L480.54376 310.99063L479.4969 310.99063ZM480.45 305.52188Q480.45 306.725 480.9344 307.30313Q481.41876 307.86563 482.10626 307.86563Q482.8094 307.86563 483.3094 307.27188Q483.8094 306.67813 483.8094 305.42813Q483.8094 304.24063 483.325 303.6625Q482.84064 303.06876 482.15314 303.06876Q481.48126 303.06876 480.96564 303.69376Q480.45 304.31876 480.45 305.52188ZM486.48126 308.6L486.48126 302.38126L487.4344 302.38126L487.4344 303.31876Q487.79376 302.6625 488.09064 302.45938Q488.40314 302.24063 488.77814 302.24063Q489.3094 302.24063 489.85626 302.56876L489.4969 303.55313Q489.10626 303.31876 488.73126 303.31876Q488.3719 303.31876 488.09064 303.5375Q487.825 303.74063 487.71564 304.11563Q487.52814 304.67813 487.52814 305.33438L487.52814 308.6L486.48126 308.6ZM490.4969 301.225L490.4969 300.00626L491.5594 300.00626L491.5594 301.225L490.4969 301.225ZM490.4969 308.6L490.4969 302.38126L491.5594 302.38126L491.5594 308.6L490.4969 308.6ZM493.4969 308.6L493.4969 302.38126L494.4344 302.38126L494.4344 303.25626Q495.1219 302.24063 496.41876 302.24063Q496.98126 302.24063 497.45 302.44376Q497.9344 302.64688 498.16876 302.975Q498.40314 303.30313 498.4969 303.74063Q498.54376 304.0375 498.54376 304.77188L498.54376 308.6L497.4969 308.6L497.4969 304.81876Q497.4969 304.1625 497.3719 303.85Q497.2469 303.5375 496.9344 303.35Q496.6219 303.14688 496.2 303.14688Q495.52814 303.14688 495.02814 303.58438Q494.54376 304.00626 494.54376 305.19376L494.54376 308.6L493.4969 308.6ZM502.79376 307.6625L502.95 308.58438Q502.4969 308.67813 502.15314 308.67813Q501.575 308.67813 501.2625 308.50626Q500.95 308.31876 500.8094 308.02188Q500.6844 307.725 500.6844 306.77188L500.6844 303.19376L499.91876 303.19376L499.91876 302.38126L500.6844 302.38126L500.6844 300.83438L501.73126 300.20938L501.73126 302.38126L502.79376 302.38126L502.79376 303.19376L501.73126 303.19376L501.73126 306.83438Q501.73126 307.2875 501.77814 307.4125Q501.84064 307.5375 501.96564 307.61563Q502.09064 307.69376 502.325 307.69376Q502.5125 307.69376 502.79376 307.6625ZM506.35626 306.61563L507.3719 306.52188Q507.4969 307.24063 507.85626 307.56876Q508.23126 307.88126 508.79376 307.88126Q509.27814 307.88126 509.6375 307.6625Q510.0125 307.42813 510.2469 307.06876Q510.48126 306.69376 510.6375 306.06876Q510.79376 305.42813 510.79376 304.77188Q510.79376 304.69376 510.79376 304.55313Q510.48126 305.05313 509.9344 305.38126Q509.3875 305.69376 508.7469 305.69376Q507.66876 305.69376 506.9344 304.92813Q506.2 304.14688 506.2 302.88126Q506.2 301.56876 506.96564 300.77188Q507.7469 299.975 508.90314 299.975Q509.73126 299.975 510.41876 300.42813Q511.1219 300.88126 511.48126 301.725Q511.84064 302.55313 511.84064 304.13126Q511.84064 305.77188 511.48126 306.75626Q511.1375 307.725 510.41876 308.24063Q509.71564 308.74063 508.77814 308.74063Q507.7625 308.74063 507.1219 308.19376Q506.48126 307.63126 506.35626 306.61563ZM510.66876 302.81876Q510.66876 301.9125 510.1844 301.38126Q509.71564 300.85 509.02814 300.85Q508.325 300.85 507.79376 301.42813Q507.27814 301.99063 507.27814 302.9125Q507.27814 303.725 507.77814 304.24063Q508.27814 304.75626 508.9969 304.75626Q509.73126 304.75626 510.2 304.24063Q510.66876 303.725 510.66876 302.81876Z" fill-rule="nonzero"/><path fill="#4285f4" d="M144.5 23.4C144.5 26.713709 141.8137 29.4 138.5 29.4C135.1863 29.4 132.5 26.713709 132.5 23.4C132.5 20.086292 135.1863 17.4 138.5 17.4C141.8137 17.4 144.5 20.086292 144.5 23.4Z" fill-rule="nonzero"/><path fill="#1a1a1a" d="M159.5625 24.384375L160.6875 24.68125Q160.32812 26.071875 159.40625 26.80625Q158.48438 27.540625 157.14062 27.540625Q155.75 27.540625 154.875 26.978125Q154.0 26.415625 153.54688 25.353125Q153.09375 24.275 153.09375 23.040625Q153.09375 21.696875 153.60938 20.696875Q154.125 19.696875 155.0625 19.18125Q156.01562 18.665625 157.15625 18.665625Q158.4375 18.665625 159.3125 19.321875Q160.20312 19.978125 160.54688 21.165625L159.42188 21.43125Q159.125 20.49375 158.54688 20.071875Q157.98438 19.634375 157.125 19.634375Q156.14062 19.634375 155.46875 20.11875Q154.8125 20.5875 154.53125 21.384375Q154.26562 22.18125 154.26562 23.040625Q154.26562 24.134375 154.57812 24.946875Q154.90625 25.759375 155.57812 26.165625Q156.25 26.571875 157.04688 26.571875Q158.0 26.571875 158.65625 26.025Q159.32812 25.478125 159.5625 24.384375ZM164.875 27.4L161.54688 18.80625L162.78125 18.80625L165.01562 25.05625Q165.28125 25.80625 165.46875 26.4625Q165.67188 25.759375 165.9375 25.05625L168.25 18.80625L169.40625 18.80625L166.04688 27.4L164.875 27.4Z" fill-rule="nonzero"/><path fill="#ea4335" d="M196.5 23.4C196.5 26.713709 193.8137 29.4 190.5 29.4C187.1863 29.4 184.5 26.713709 184.5 23.4C184.5 20.086292 187.1863 17.4 190.5 17.4C193.8137 17.4 196.5 20.086292 196.5 23.4Z" fill-rule="nonzero"/><path fill="#1a1a1a" d="M205.04688 24.634375L206.10938 24.540625Q206.1875 25.196875 206.46875 25.603125Q206.75 26.009375 207.32812 26.275Q207.92188 26.525 208.65625 26.525Q209.29688 26.525 209.79688 26.3375Q210.29688 26.134375 210.53125 25.80625Q210.78125 25.4625 210.78125 25.071875Q210.78125 24.665625 210.54688 24.36875Q210.3125 24.05625 209.78125 23.853125Q209.42188 23.7125 208.23438 23.43125Q207.0625 23.15 206.59375 22.9Q205.96875 22.571875 205.67188 22.103125Q205.375 21.61875 205.375 21.025Q205.375 20.384375 205.73438 19.821875Q206.10938 19.24375 206.8125 18.9625Q207.53125 18.665625 208.39062 18.665625Q209.34375 18.665625 210.07812 18.978125Q210.8125 19.275 211.20312 19.884375Q211.59375 20.478125 211.625 21.228125L210.53125 21.30625Q210.4375 20.49375 209.92188 20.0875Q209.42188 19.665625 208.4375 19.665625Q207.40625 19.665625 206.9375 20.040625Q206.46875 20.415625 206.46875 20.946875Q206.46875 21.415625 206.79688 21.7125Q207.125 22.009375 208.5 22.321875Q209.89062 22.634375 210.40625 22.86875Q211.15625 23.228125 211.51562 23.759375Q211.875 24.275 211.875 24.978125Q211.875 25.665625 211.48438 26.275Q211.09375 26.86875 210.35938 27.2125Q209.625 27.540625 208.70312 27.540625Q207.53125 27.540625 206.73438 27.2125Q205.95312 26.86875 205.5 26.18125Q205.0625 25.49375 205.04688 24.634375ZM215.875 27.4L212.54688 18.80625L213.78125 18.80625L216.01562 25.05625Q216.28125 25.80625 216.46875 26.4625Q216.67188 25.759375 216.9375 25.05625L219.25 18.80625L220.40625 18.80625L217.04688 27.4L215.875 27.4Z" fill-rule="nonzero"/><path fill="#fbbc04" fill-opacity="0.7019608" d="M247.5 23.4C247.5 26.713709 244.8137 29.4 241.5 29.4C238.1863 29.4 235.5 26.713709 235.5 23.4C235.5 20.086292 238.1863 17.4 241.5 17.4C244.8137 17.4 247.5 20.086292 247.5 23.4Z" fill-rule="nonzero"/><path fill="#1a1a1a" d="M256.375 27.4L256.375 18.80625L257.51562 18.80625L257.51562 26.384375L261.75 26.384375L261.75 27.4L256.375 27.4ZM263.29688 20.025L263.29688 18.80625L264.35938 18.80625L264.35938 20.025L263.29688 20.025ZM263.29688 27.4L263.29688 21.18125L264.35938 21.18125L264.35938 27.4L263.29688 27.4ZM266.29688 27.4L266.29688 21.18125L267.23438 21.18125L267.23438 22.05625Q267.53125 21.5875 268.01562 21.321875Q268.5 21.040625 269.125 21.040625Q269.8125 21.040625 270.25 21.321875Q270.70312 21.603125 270.875 22.11875Q271.625 21.040625 272.79688 21.040625Q273.73438 21.040625 274.21875 21.55625Q274.71875 22.05625 274.71875 23.134375L274.71875 27.4L273.67188 27.4L273.67188 23.478125Q273.67188 22.853125 273.5625 22.571875Q273.46875 22.290625 273.20312 22.11875Q272.9375 21.946875 272.5625 21.946875Q271.90625 21.946875 271.46875 22.384375Q271.04688 22.821875 271.04688 23.790625L271.04688 27.4L269.98438 27.4L269.98438 23.353125Q269.98438 22.65 269.71875 22.30625Q269.46875 21.946875 268.89062 21.946875Q268.4375 21.946875 268.0625 22.18125Q267.6875 22.415625 267.51562 22.86875Q267.34375 23.321875 267.34375 24.165625L267.34375 27.4L266.29688 27.4ZM277.29688 20.025L277.29688 18.80625L278.35938 18.80625L278.35938 20.025L277.29688 20.025ZM277.29688 27.4L277.29688 21.18125L278.35938 21.18125L278.35938 27.4L277.29688 27.4ZM282.59375 26.4625L282.75 27.384375Q282.29688 27.478125 281.95312 27.478125Q281.375 27.478125 281.0625 27.30625Q280.75 27.11875 280.60938 26.821875Q280.48438 26.525 280.48438 25.571875L280.48438 21.99375L279.71875 21.99375L279.71875 21.18125L280.48438 21.18125L280.48438 19.634375L281.53125 19.009375L281.53125 21.18125L282.59375 21.18125L282.59375 21.99375L281.53125 21.99375L281.53125 25.634375Q281.53125 26.0875 281.57812 26.2125Q281.64062 26.3375 281.76562 26.415625Q281.89062 26.49375 282.125 26.49375Q282.3125 26.49375 282.59375 26.4625ZM287.54688 25.4L288.64062 25.525Q288.39062 26.478125 287.6875 27.009375Q286.98438 27.540625 285.90625 27.540625Q284.54688 27.540625 283.73438 26.696875Q282.9375 25.853125 282.9375 24.3375Q282.9375 22.775 283.75 21.915625Q284.5625 21.040625 285.84375 21.040625Q287.09375 21.040625 287.875 21.884375Q288.67188 22.728125 288.67188 24.275Q288.67188 24.36875 288.67188 24.55625L284.03125 24.55625Q284.09375 25.5875 284.60938 26.134375Q285.125 26.665625 285.90625 26.665625Q286.48438 26.665625 286.89062 26.36875Q287.3125 26.05625 287.54688 25.4ZM284.09375 23.696875L287.5625 23.696875Q287.5 22.9 287.17188 22.509375Q286.65625 21.9 285.85938 21.9Q285.125 21.9 284.625 22.384375Q284.14062 22.86875 284.09375 23.696875ZM292.875 25.540625L293.90625 25.384375Q294.0 26.009375 294.39062 26.3375Q294.79688 26.665625 295.53125 26.665625Q296.25 26.665625 296.59375 26.384375Q296.95312 26.0875 296.95312 25.68125Q296.95312 25.321875 296.64062 25.11875Q296.42188 24.978125 295.5625 24.759375Q294.40625 24.4625 293.95312 24.259375Q293.51562 24.040625 293.28125 23.665625Q293.04688 23.290625 293.04688 22.821875Q293.04688 22.415625 293.23438 22.05625Q293.42188 21.696875 293.75 21.4625Q294.0 21.290625 294.42188 21.165625Q294.84375 21.040625 295.34375 21.040625Q296.0625 21.040625 296.60938 21.259375Q297.17188 21.4625 297.4375 21.821875Q297.70312 22.18125 297.79688 22.775L296.76562 22.915625Q296.70312 22.446875 296.35938 22.18125Q296.03125 21.9 295.40625 21.9Q294.6875 21.9 294.375 22.15Q294.0625 22.384375 294.0625 22.7125Q294.0625 22.915625 294.1875 23.071875Q294.32812 23.24375 294.59375 23.353125Q294.75 23.415625 295.53125 23.61875Q296.65625 23.93125 297.09375 24.11875Q297.53125 24.30625 297.78125 24.665625Q298.03125 25.025 298.03125 25.571875Q298.03125 26.103125 297.71875 26.571875Q297.42188 27.025 296.84375 27.290625Q296.26562 27.540625 295.53125 27.540625Q294.3125 27.540625 293.67188 27.040625Q293.04688 26.525 292.875 25.540625ZM304.375 27.4L304.375 26.478125Q303.64062 27.540625 302.39062 27.540625Q301.84375 27.540625 301.35938 27.3375Q300.89062 27.11875 300.65625 26.80625Q300.42188 26.478125 300.32812 26.009375Q300.26562 25.7125 300.26562 25.025L300.26562 21.18125L301.32812 21.18125L301.32812 24.634375Q301.32812 25.446875 301.39062 25.74375Q301.48438 26.15 301.79688 26.4Q302.125 26.634375 302.60938 26.634375Q303.07812 26.634375 303.48438 26.4Q303.90625 26.15 304.07812 25.728125Q304.26562 25.30625 304.26562 24.509375L304.26562 21.18125L305.3125 21.18125L305.3125 27.4L304.375 27.4ZM307.29688 29.790625L307.29688 21.18125L308.25 21.18125L308.25 21.978125Q308.59375 21.509375 309.01562 21.275Q309.45312 21.040625 310.0625 21.040625Q310.85938 21.040625 311.46875 21.446875Q312.07812 21.853125 312.375 22.603125Q312.6875 23.353125 312.6875 24.24375Q312.6875 25.196875 312.34375 25.9625Q312.01562 26.728125 311.35938 27.134375Q310.70312 27.540625 309.98438 27.540625Q309.45312 27.540625 309.03125 27.321875Q308.60938 27.0875 308.34375 26.759375L308.34375 29.790625L307.29688 29.790625ZM308.25 24.321875Q308.25 25.525 308.73438 26.103125Q309.21875 26.665625 309.90625 26.665625Q310.60938 26.665625 311.10938 26.071875Q311.60938 25.478125 311.60938 24.228125Q311.60938 23.040625 311.125 22.4625Q310.64062 21.86875 309.95312 21.86875Q309.28125 21.86875 308.76562 22.49375Q308.25 23.11875 308.25 24.321875Z" fill-rule="nonzero"/><path fill="#34a853" d="M341.5 23.4C341.5 26.713709 338.81372 29.4 335.5 29.4C332.18628 29.4 329.5 26.713709 329.5 23.4C329.5 20.086292 332.18628 17.4 335.5 17.4C338.81372 17.4 341.5 20.086292 341.5 23.4Z" fill-rule="nonzero"/><path fill="#1a1a1a" d="M350.375 27.4L350.375 18.80625L351.51562 18.80625L351.51562 26.384375L355.75 26.384375L355.75 27.4L350.375 27.4ZM357.29688 20.025L357.29688 18.80625L358.35938 18.80625L358.35938 20.025L357.29688 20.025ZM357.29688 27.4L357.29688 21.18125L358.35938 21.18125L358.35938 27.4L357.29688 27.4ZM360.29688 27.4L360.29688 21.18125L361.23438 21.18125L361.23438 22.05625Q361.53125 21.5875 362.01562 21.321875Q362.5 21.040625 363.125 21.040625Q363.8125 21.040625 364.25 21.321875Q364.70312 21.603125 364.875 22.11875Q365.625 21.040625 366.79688 21.040625Q367.73438 21.040625 368.21875 21.55625Q368.71875 22.05625 368.71875 23.134375L368.71875 27.4L367.67188 27.4L367.67188 23.478125Q367.67188 22.853125 367.5625 22.571875Q367.46875 22.290625 367.20312 22.11875Q366.9375 21.946875 366.5625 21.946875Q365.90625 21.946875 365.46875 22.384375Q365.04688 22.821875 365.04688 23.790625L365.04688 27.4L363.98438 27.4L363.98438 23.353125Q363.98438 22.65 363.71875 22.30625Q363.46875 21.946875 362.89062 21.946875Q362.4375 21.946875 362.0625 22.18125Q361.6875 22.415625 361.51562 22.86875Q361.34375 23.321875 361.34375 24.165625L361.34375 27.4L360.29688 27.4ZM371.29688 20.025L371.29688 18.80625L372.35938 18.80625L372.35938 20.025L371.29688 20.025ZM371.29688 27.4L371.29688 21.18125L372.35938 21.18125L372.35938 27.4L371.29688 27.4ZM376.59375 26.4625L376.75 27.384375Q376.29688 27.478125 375.95312 27.478125Q375.375 27.478125 375.0625 27.30625Q374.75 27.11875 374.60938 26.821875Q374.48438 26.525 374.48438 25.571875L374.48438 21.99375L373.71875 21.99375L373.71875 21.18125L374.48438 21.18125L374.48438 19.634375L375.53125 19.009375L375.53125 21.18125L376.59375 21.18125L376.59375 21.99375L375.53125 21.99375L375.53125 25.634375Q375.53125 26.0875 375.57812 26.2125Q375.64062 26.3375 375.76562 26.415625Q375.89062 26.49375 376.125 26.49375Q376.3125 26.49375 376.59375 26.4625ZM381.54688 25.4L382.64062 25.525Q382.39062 26.478125 381.6875 27.009375Q380.98438 27.540625 379.90625 27.540625Q378.54688 27.540625 377.73438 26.696875Q376.9375 25.853125 376.9375 24.3375Q376.9375 22.775 377.75 21.915625Q378.5625 21.040625 379.84375 21.040625Q381.09375 21.040625 381.875 21.884375Q382.67188 22.728125 382.67188 24.275Q382.67188 24.36875 382.67188 24.55625L378.03125 24.55625Q378.09375 25.5875 378.60938 26.134375Q379.125 26.665625 379.90625 26.665625Q380.48438 26.665625 380.89062 26.36875Q381.3125 26.05625 381.54688 25.4ZM378.09375 23.696875L381.5625 23.696875Q381.5 22.9 381.17188 22.509375Q380.65625 21.9 379.85938 21.9Q379.125 21.9 378.625 22.384375Q378.14062 22.86875 378.09375 23.696875ZM387.29688 20.025L387.29688 18.80625L388.35938 18.80625L388.35938 20.025L387.29688 20.025ZM387.29688 27.4L387.29688 21.18125L388.35938 21.18125L388.35938 27.4L387.29688 27.4ZM390.29688 27.4L390.29688 21.18125L391.23438 21.18125L391.23438 22.05625Q391.92188 21.040625 393.21875 21.040625Q393.78125 21.040625 394.25 21.24375Q394.73438 21.446875 394.96875 21.775Q395.20312 22.103125 395.29688 22.540625Q395.34375 22.8375 395.34375 23.571875L395.34375 27.4L394.29688 27.4L394.29688 23.61875Q394.29688 22.9625 394.17188 22.65Q394.04688 22.3375 393.73438 22.15Q393.42188 21.946875 393.0 21.946875Q392.32812 21.946875 391.82812 22.384375Q391.34375 22.80625 391.34375 23.99375L391.34375 27.4L390.29688 27.4ZM397.54688 27.4L397.54688 21.99375L396.60938 21.99375L396.60938 21.18125L397.54688 21.18125L397.54688 20.509375Q397.54688 19.884375 397.65625 19.5875Q397.8125 19.165625 398.1875 18.915625Q398.57812 18.665625 399.26562 18.665625Q399.71875 18.665625 400.25 18.775L400.09375 19.68125Q399.76562 19.634375 399.46875 19.634375Q398.98438 19.634375 398.78125 19.8375Q398.59375 20.040625 398.59375 20.603125L398.59375 21.18125L399.8125 21.18125L399.8125 21.99375L398.59375 21.99375L398.59375 27.4L397.54688 27.4Z" fill-rule="nonzero"/></svg>