<svg version="1.1" viewBox="0.0 0.0 532.0 328.0" fill="none" stroke="none" stroke-linecap="square" stroke-miterlimit="10" width="532" height="328" xmlns:xlink="http://www.w3.org/1999/xlink" xmlns="http://www.w3.org/2000/svg"><path fill="#ffffff" d="M0 0L532.0 0L532.0 328.0L0 328.0L0 0Z" fill-rule="nonzero"/><path stroke="#333333" stroke-width="1.0" stroke-linecap="butt" d="M81.5 285.5L515.5 285.5" fill-rule="nonzero"/><path stroke="#cccccc" stroke-width="1.0" stroke-linecap="butt" d="M81.5 261.5L515.5 261.5" fill-rule="nonzero"/><path stroke="#cccccc" stroke-width="1.0" stroke-linecap="butt" d="M81.5 238.5L515.5 238.5" fill-rule="nonzero"/><path stroke="#cccccc" stroke-width="1.0" stroke-linecap="butt" d="M81.5 214.5L515.5 214.5" fill-rule="nonzero"/><path stroke="#cccccc" stroke-width="1.0" stroke-linecap="butt" d="M81.5 190.5L515.5 190.5" fill-rule="nonzero"/><path stroke="#cccccc" stroke-width="1.0" stroke-linecap="butt" d="M81.5 166.5L515.5 166.5" fill-rule="nonzero"/><path stroke="#cccccc" stroke-width="1.0" stroke-linecap="butt" d="M81.5 143.5L515.5 143.5" fill-rule="nonzero"/><path stroke="#cccccc" stroke-width="1.0" stroke-linecap="butt" d="M81.5 119.5L515.5 119.5" fill-rule="nonzero"/><path stroke="#cccccc" stroke-width="1.0" stroke-linecap="butt" d="M81.5 95.5L515.5 95.5" fill-rule="nonzero"/><path stroke="#cccccc" stroke-width="1.0" stroke-linecap="butt" d="M81.5 72.5L515.5 72.5" fill-rule="nonzero"/><path stroke="#cccccc" stroke-width="1.0" stroke-linecap="butt" d="M81.5 48.5L515.5 48.5" fill-rule="nonzero"/><path stroke="#000000" stroke-width="1.0" stroke-linecap="butt" d="M515.5 285.5L81.5 285.5" fill-rule="nonzero"/><path stroke="#000000" stroke-width="1.0" stroke-linecap="butt" d="M81.5 285.5L81.5 48.5" fill-rule="nonzero"/><clipPath id="id_0"><path d="M81.4 48.333332L515.6 48.333332L515.6 285.6L81.4 285.6L81.4 48.333332Z" clip-rule="nonzero"/></clipPath><path stroke="#4285f4" stroke-width="2.0" stroke-linecap="butt" clip-path="url(#id_0)" d="M105.522224 200.36829C105.522224 200.36829 137.68518 165.5005 153.76666 156.39539C169.84814 147.29025 185.92963 149.95331 202.01111 145.73755C218.09259 141.52177 234.17407 134.28514 250.25555 131.10077C266.33704 127.916405 282.41852 128.56258 298.5 126.63133C314.58148 124.700096 330.66296 120.430046 346.74445 119.513336C362.82593 118.59662 378.9074 122.00983 394.9889 121.13106C411.07037 120.2523 427.15186 116.91741 443.23334 114.24074C459.31482 111.564064 491.47778 105.071014 491.47778 105.071014" fill-rule="nonzero"/><path stroke="#ea4335" stroke-width="2.0" stroke-linecap="butt" clip-path="url(#id_0)" d="M105.522224 166.96666C105.522224 166.96666 137.68518 166.96666 153.76666 166.96666C169.84814 166.96666 185.92963 166.96666 202.01111 166.96666C218.09259 166.96666 234.17407 166.96666 250.25555 166.96666C266.33704 166.96666 282.41852 166.96666 298.5 166.96666C314.58148 166.96666 330.66296 166.96666 346.74445 166.96666C362.82593 166.96666 378.9074 166.96666 394.9889 166.96666C411.07037 166.96666 427.15186 166.96666 443.23334 166.96666C459.31482 166.96666 491.47778 166.96666 491.47778 166.96666" fill-rule="nonzero"/><path stroke="#fbbc04" stroke-width="4.0" stroke-linecap="butt" stroke-opacity="0.7019608" clip-path="url(#id_0)" d="M105.522224 48.333332C105.522224 48.333332 137.68518 48.333332 153.76666 48.333332C169.84814 48.333332 185.92963 48.333332 202.01111 48.333332C218.09259 48.333332 234.17407 48.333332 250.25555 48.333332C266.33704 48.333332 282.41852 48.333332 298.5 48.333332C314.58148 48.333332 330.66296 48.333332 346.74445 48.333332C362.82593 48.333332 378.9074 48.333332 394.9889 48.333332C411.07037 48.333332 427.15186 48.333332 443.23334 48.333332C459.31482 48.333332 491.47778 48.333332 491.47778 48.333332" fill-rule="nonzero"/><path fill="#4285f4" clip-path="url(#id_0)" d="M109.022224 200.36829C109.022224 202.30128 107.455215 203.86829 105.522224 203.86829C103.589226 203.86829 102.022224 202.30128 102.022224 200.36829C102.022224 198.43529 103.589226 196.86829 105.522224 196.86829C107.455215 196.86829 109.022224 198.43529 109.022224 200.36829Z" fill-rule="nonzero"/><path fill="#4285f4" clip-path="url(#id_0)" d="M157.26666 156.39539C157.26666 158.32837 155.69966 159.89539 153.76666 159.89539C151.83366 159.89539 150.26666 158.32837 150.26666 156.39539C150.26666 154.46239 151.83366 152.89539 153.76666 152.89539C155.69966 152.89539 157.26666 154.46239 157.26666 156.39539Z" fill-rule="nonzero"/><path fill="#4285f4" clip-path="url(#id_0)" d="M205.51111 145.73755C205.51111 147.67055 203.9441 149.23755 202.01111 149.23755C200.07811 149.23755 198.51111 147.67055 198.51111 145.73755C198.51111 143.80455 200.07811 142.23755 202.01111 142.23755C203.9441 142.23755 205.51111 143.80455 205.51111 145.73755Z" fill-rule="nonzero"/><path fill="#4285f4" clip-path="url(#id_0)" d="M253.75555 131.10077C253.75555 133.03377 252.18855 134.60077 250.25555 134.60077C248.32256 134.60077 246.75555 133.03377 246.75555 131.10077C246.75555 129.16779 248.32256 127.60078 250.25555 127.60078C252.18855 127.60078 253.75555 129.16779 253.75555 131.10077Z" fill-rule="nonzero"/><path fill="#4285f4" clip-path="url(#id_0)" d="M302.0 126.63133C302.0 128.56433 300.43298 130.13133 298.5 130.13133C296.56702 130.13133 295.0 128.56433 295.0 126.63133C295.0 124.69833 296.56702 123.13133 298.5 123.13133C300.43298 123.13133 302.0 124.69833 302.0 126.63133Z" fill-rule="nonzero"/><path fill="#4285f4" clip-path="url(#id_0)" d="M350.24445 119.513336C350.24445 121.44633 348.67743 123.013336 346.74445 123.013336C344.81146 123.013336 343.24445 121.44633 343.24445 119.513336C343.24445 117.58034 344.81146 116.013336 346.74445 116.013336C348.67743 116.013336 350.24445 117.58034 350.24445 119.513336Z" fill-rule="nonzero"/><path fill="#4285f4" clip-path="url(#id_0)" d="M398.4889 121.13106C398.4889 123.06406 396.92188 124.63106 394.9889 124.63106C393.05588 124.63106 391.4889 123.06406 391.4889 121.13106C391.4889 119.19807 393.05588 117.63106 394.9889 117.63106C396.92188 117.63106 398.4889 119.19807 398.4889 121.13106Z" fill-rule="nonzero"/><path fill="#4285f4" clip-path="url(#id_0)" d="M446.73334 114.24074C446.73334 116.17374 445.16632 117.74074 443.23334 117.74074C441.30032 117.74074 439.73334 116.17374 439.73334 114.24074C439.73334 112.30775 441.30032 110.74074 443.23334 110.74074C445.16632 110.74074 446.73334 112.30775 446.73334 114.24074Z" fill-rule="nonzero"/><path fill="#4285f4" clip-path="url(#id_0)" d="M494.97778 105.071014C494.97778 107.00401 493.41077 108.571014 491.47778 108.571014C489.54477 108.571014 487.97778 107.00401 487.97778 105.071014C487.97778 103.138016 489.54477 101.571014 491.47778 101.571014C493.41077 101.571014 494.97778 103.138016 494.97778 105.071014Z" fill-rule="nonzero"/><path fill="#ea4335" clip-path="url(#id_0)" d="M109.022224 166.96666C109.022224 168.89966 107.455215 170.46666 105.522224 170.46666C103.589226 170.46666 102.022224 168.89966 102.022224 166.96666C102.022224 165.03368 103.589226 163.46666 105.522224 163.46666C107.455215 163.46666 109.022224 165.03368 109.022224 166.96666Z" fill-rule="nonzero"/><path fill="#ea4335" clip-path="url(#id_0)" d="M157.26666 166.96666C157.26666 168.89966 155.69966 170.46666 153.76666 170.46666C151.83366 170.46666 150.26666 168.89966 150.26666 166.96666C150.26666 165.03368 151.83366 163.46666 153.76666 163.46666C155.69966 163.46666 157.26666 165.03368 157.26666 166.96666Z" fill-rule="nonzero"/><path fill="#ea4335" clip-path="url(#id_0)" d="M205.51111 166.96666C205.51111 168.89966 203.9441 170.46666 202.01111 170.46666C200.07811 170.46666 198.51111 168.89966 198.51111 166.96666C198.51111 165.03368 200.07811 163.46666 202.01111 163.46666C203.9441 163.46666 205.51111 165.03368 205.51111 166.96666Z" fill-rule="nonzero"/><path fill="#ea4335" clip-path="url(#id_0)" d="M253.75555 166.96666C253.75555 168.89966 252.18855 170.46666 250.25555 170.46666C248.32256 170.46666 246.75555 168.89966 246.75555 166.96666C246.75555 165.03368 248.32256 163.46666 250.25555 163.46666C252.18855 163.46666 253.75555 165.03368 253.75555 166.96666Z" fill-rule="nonzero"/><path fill="#ea4335" clip-path="url(#id_0)" d="M302.0 166.96666C302.0 168.89966 300.43298 170.46666 298.5 170.46666C296.56702 170.46666 295.0 168.89966 295.0 166.96666C295.0 165.03368 296.56702 163.46666 298.5 163.46666C300.43298 163.46666 302.0 165.03368 302.0 166.96666Z" fill-rule="nonzero"/><path fill="#ea4335" clip-path="url(#id_0)" d="M350.24445 166.96666C350.24445 168.89966 348.67743 170.46666 346.74445 170.46666C344.81146 170.46666 343.24445 168.89966 343.24445 166.96666C343.24445 165.03368 344.81146 163.46666 346.74445 163.46666C348.67743 163.46666 350.24445 165.03368 350.24445 166.96666Z" fill-rule="nonzero"/><path fill="#ea4335" clip-path="url(#id_0)" d="M398.4889 166.96666C398.4889 168.89966 396.92188 170.46666 394.9889 170.46666C393.05588 170.46666 391.4889 168.89966 391.4889 166.96666C391.4889 165.03368 393.05588 163.46666 394.9889 163.46666C396.92188 163.46666 398.4889 165.03368 398.4889 166.96666Z" fill-rule="nonzero"/><path fill="#ea4335" clip-path="url(#id_0)" d="M446.73334 166.96666C446.73334 168.89966 445.16632 170.46666 443.23334 170.46666C441.30032 170.46666 439.73334 168.89966 439.73334 166.96666C439.73334 165.03368 441.30032 163.46666 443.23334 163.46666C445.16632 163.46666 446.73334 165.03368 446.73334 166.96666Z" fill-rule="nonzero"/><path fill="#ea4335" clip-path="url(#id_0)" d="M494.97778 166.96666C494.97778 168.89966 493.41077 170.46666 491.47778 170.46666C489.54477 170.46666 487.97778 168.89966 487.97778 166.96666C487.97778 165.03368 489.54477 163.46666 491.47778 163.46666C493.41077 163.46666 494.97778 165.03368 494.97778 166.96666Z" fill-rule="nonzero"/><path fill="#fbbc04" fill-opacity="0.7019608" clip-path="url(#id_0)" d="M109.022224 48.333332C109.022224 50.26633 107.455215 51.833332 105.522224 51.833332C103.589226 51.833332 102.022224 50.26633 102.022224 48.333332C102.022224 46.400337 103.589226 44.833332 105.522224 44.833332C107.455215 44.833332 109.022224 46.400337 109.022224 48.333332Z" fill-rule="nonzero"/><path fill="#fbbc04" fill-opacity="0.7019608" clip-path="url(#id_0)" d="M157.26666 48.333332C157.26666 50.26633 155.69966 51.833332 153.76666 51.833332C151.83366 51.833332 150.26666 50.26633 150.26666 48.333332C150.26666 46.400337 151.83366 44.833332 153.76666 44.833332C155.69966 44.833332 157.26666 46.400337 157.26666 48.333332Z" fill-rule="nonzero"/><path fill="#fbbc04" fill-opacity="0.7019608" clip-path="url(#id_0)" d="M205.51111 48.333332C205.51111 50.26633 203.9441 51.833332 202.01111 51.833332C200.07811 51.833332 198.51111 50.26633 198.51111 48.333332C198.51111 46.400337 200.07811 44.833332 202.01111 44.833332C203.9441 44.833332 205.51111 46.400337 205.51111 48.333332Z" fill-rule="nonzero"/><path fill="#fbbc04" fill-opacity="0.7019608" clip-path="url(#id_0)" d="M253.75555 48.333332C253.75555 50.26633 252.18855 51.833332 250.25555 51.833332C248.32256 51.833332 246.75555 50.26633 246.75555 48.333332C246.75555 46.400337 248.32256 44.833332 250.25555 44.833332C252.18855 44.833332 253.75555 46.400337 253.75555 48.333332Z" fill-rule="nonzero"/><path fill="#fbbc04" fill-opacity="0.7019608" clip-path="url(#id_0)" d="M302.0 48.333332C302.0 50.26633 300.43298 51.833332 298.5 51.833332C296.56702 51.833332 295.0 50.26633 295.0 48.333332C295.0 46.400337 296.56702 44.833332 298.5 44.833332C300.43298 44.833332 302.0 46.400337 302.0 48.333332Z" fill-rule="nonzero"/><path fill="#fbbc04" fill-opacity="0.7019608" clip-path="url(#id_0)" d="M350.24445 48.333332C350.24445 50.26633 348.67743 51.833332 346.74445 51.833332C344.81146 51.833332 343.24445 50.26633 343.24445 48.333332C343.24445 46.400337 344.81146 44.833332 346.74445 44.833332C348.67743 44.833332 350.24445 46.400337 350.24445 48.333332Z" fill-rule="nonzero"/><path fill="#fbbc04" fill-opacity="0.7019608" clip-path="url(#id_0)" d="M398.4889 48.333332C398.4889 50.26633 396.92188 51.833332 394.9889 51.833332C393.05588 51.833332 391.4889 50.26633 391.4889 48.333332C391.4889 46.400337 393.05588 44.833332 394.9889 44.833332C396.92188 44.833332 398.4889 46.400337 398.4889 48.333332Z" fill-rule="nonzero"/><path fill="#fbbc04" fill-opacity="0.7019608" clip-path="url(#id_0)" d="M446.73334 48.333332C446.73334 50.26633 445.16632 51.833332 443.23334 51.833332C441.30032 51.833332 439.73334 50.26633 439.73334 48.333332C439.73334 46.400337 441.30032 44.833332 443.23334 44.833332C445.16632 44.833332 446.73334 46.400337 446.73334 48.333332Z" fill-rule="nonzero"/><path fill="#fbbc04" fill-opacity="0.7019608" clip-path="url(#id_0)" d="M494.97778 48.333332C494.97778 50.26633 493.41077 51.833332 491.47778 51.833332C489.54477 51.833332 487.97778 50.26633 487.97778 48.333332C487.97778 46.400337 489.54477 44.833332 491.47778 44.833332C493.41077 44.833332 494.97778 46.400337 494.97778 48.333332Z" fill-rule="nonzero"/><path stroke="#000000" stroke-width="1.0" stroke-linecap="butt" d="M105.5 291.5L105.5 279.5" fill-rule="nonzero"/><path stroke="#000000" stroke-width="1.0" stroke-linecap="butt" d="M153.5 291.5L153.5 279.5" fill-rule="nonzero"/><path stroke="#000000" stroke-width="1.0" stroke-linecap="butt" d="M202.5 291.5L202.5 279.5" fill-rule="nonzero"/><path stroke="#000000" stroke-width="1.0" stroke-linecap="butt" d="M250.5 291.5L250.5 279.5" fill-rule="nonzero"/><path stroke="#000000" stroke-width="1.0" stroke-linecap="butt" d="M298.5 291.5L298.5 279.5" fill-rule="nonzero"/><path stroke="#000000" stroke-width="1.0" stroke-linecap="butt" d="M346.5 291.5L346.5 279.5" fill-rule="nonzero"/><path stroke="#000000" stroke-width="1.0" stroke-linecap="butt" d="M394.5 291.5L394.5 279.5" fill-rule="nonzero"/><path stroke="#000000" stroke-width="1.0" stroke-linecap="butt" d="M443.5 291.5L443.5 279.5" fill-rule="nonzero"/><path stroke="#000000" stroke-width="1.0" stroke-linecap="butt" d="M491.5 291.5L491.5 279.5" fill-rule="nonzero"/><path stroke="#000000" stroke-width="1.0" stroke-linecap="butt" d="M75.5 285.5L87.5 285.5" fill-rule="nonzero"/><path stroke="#000000" stroke-width="1.0" stroke-linecap="butt" d="M75.5 261.5L87.5 261.5" fill-rule="nonzero"/><path stroke="#000000" stroke-width="1.0" stroke-linecap="butt" d="M75.5 238.5L87.5 238.5" fill-rule="nonzero"/><path stroke="#000000" stroke-width="1.0" stroke-linecap="butt" d="M75.5 214.5L87.5 214.5" fill-rule="nonzero"/><path stroke="#000000" stroke-width="1.0" stroke-linecap="butt" d="M75.5 190.5L87.5 190.5" fill-rule="nonzero"/><path stroke="#000000" stroke-width="1.0" stroke-linecap="butt" d="M75.5 166.5L87.5 166.5" fill-rule="nonzero"/><path stroke="#000000" stroke-width="1.0" stroke-linecap="butt" d="M75.5 143.5L87.5 143.5" fill-rule="nonzero"/><path stroke="#000000" stroke-width="1.0" stroke-linecap="butt" d="M75.5 119.5L87.5 119.5" fill-rule="nonzero"/><path stroke="#000000" stroke-width="1.0" stroke-linecap="butt" d="M75.5 95.5L87.5 95.5" fill-rule="nonzero"/><path stroke="#000000" stroke-width="1.0" stroke-linecap="butt" d="M75.5 72.5L87.5 72.5" fill-rule="nonzero"/><path stroke="#000000" stroke-width="1.0" stroke-linecap="butt" d="M75.5 48.5L87.5 48.5" fill-rule="nonzero"/><path fill="#000000" d="M62.9 285.36563Q62.9 283.83438 63.2125 282.9125Q63.525 281.975 64.13438 281.475Q64.75938 280.975 65.69688 280.975Q66.38438 280.975 66.9 281.25626Q67.43125 281.5375 67.775 282.06876Q68.11875 282.58438 68.30625 283.33438Q68.49375 284.08438 68.49375 285.36563Q68.49375 286.88126 68.18125 287.80313Q67.88438 288.725 67.25938 289.24063Q66.65 289.74063 65.69688 289.74063Q64.4625 289.74063 63.74375 288.85Q62.9 287.7875 62.9 285.36563ZM63.978127 285.36563Q63.978127 287.475 64.47813 288.17813Q64.97813 288.88126 65.69688 288.88126Q66.43125 288.88126 66.91563 288.17813Q67.41563 287.475 67.41563 285.36563Q67.41563 283.24063 66.91563 282.55313Q66.43125 281.85 65.68125 281.85Q64.9625 281.85 64.525 282.45938Q63.978127 283.24063 63.978127 285.36563Z" fill-rule="nonzero"/><path fill="#000000" d="M59.86875 265.87332L58.821877 265.87332L58.821877 259.15457Q58.43125 259.51395 57.80625 259.88895Q57.196877 260.24832 56.7125 260.4202L56.7125 259.40457Q57.5875 258.9827 58.24375 258.40457Q58.915627 257.81082 59.196877 257.24832L59.86875 257.24832L59.86875 265.87332ZM62.9 261.63895Q62.9 260.1077 63.2125 259.18582Q63.525 258.24832 64.13438 257.74832Q64.75938 257.24832 65.69688 257.24832Q66.38438 257.24832 66.9 257.52957Q67.43125 257.81082 67.775 258.34207Q68.11875 258.8577 68.30625 259.6077Q68.49375 260.3577 68.49375 261.63895Q68.49375 263.15457 68.18125 264.07645Q67.88438 264.99832 67.25938 265.51395Q66.65 266.01395 65.69688 266.01395Q64.4625 266.01395 63.74375 265.12332Q62.9 264.06082 62.9 261.63895ZM63.978127 261.63895Q63.978127 263.74832 64.47813 264.45145Q64.97813 265.15457 65.69688 265.15457Q66.43125 265.15457 66.91563 264.45145Q67.41563 263.74832 67.41563 261.63895Q67.41563 259.51395 66.91563 258.82645Q66.43125 258.12332 65.68125 258.12332Q64.9625 258.12332 64.525 258.7327Q63.978127 259.51395 63.978127 261.63895Z" fill-rule="nonzero"/><path fill="#000000" d="M61.446877 241.13104L61.446877 242.14667L55.759377 242.14667Q55.759377 241.77167 55.884377 241.4123Q56.103127 240.83417 56.571877 240.27167Q57.05625 239.70917 57.9625 238.9748Q59.36875 237.81854 59.853127 237.14667Q60.353127 236.4748 60.353127 235.88104Q60.353127 235.25604 59.9 234.83417Q59.446877 234.39667 58.728127 234.39667Q57.9625 234.39667 57.509377 234.8498Q57.05625 235.30292 57.040627 236.11542L55.9625 236.00604Q56.071877 234.7873 56.790627 234.1623Q57.525 233.52167 58.759377 233.52167Q59.99375 233.52167 60.7125 234.20917Q61.43125 234.89667 61.43125 235.9123Q61.43125 236.42792 61.2125 236.92792Q61.009377 237.4123 60.509377 237.9748Q60.025 238.52167 58.9 239.4748Q57.946877 240.27167 57.665627 240.56854Q57.4 240.8498 57.228127 241.13104L61.446877 241.13104ZM62.9 237.9123Q62.9 236.38104 63.2125 235.45917Q63.525 234.52167 64.13438 234.02167Q64.75938 233.52167 65.69688 233.52167Q66.38438 233.52167 66.9 233.80292Q67.43125 234.08417 67.775 234.61542Q68.11875 235.13104 68.30625 235.88104Q68.49375 236.63104 68.49375 237.9123Q68.49375 239.42792 68.18125 240.3498Q67.88438 241.27167 67.25938 241.7873Q66.65 242.2873 65.69688 242.2873Q64.4625 242.2873 63.74375 241.39667Q62.9 240.33417 62.9 237.9123ZM63.978127 237.9123Q63.978127 240.02167 64.47813 240.7248Q64.97813 241.42792 65.69688 241.42792Q66.43125 241.42792 66.91563 240.7248Q67.41563 240.02167 67.41563 237.9123Q67.41563 235.7873 66.91563 235.0998Q66.43125 234.39667 65.68125 234.39667Q64.9625 234.39667 64.525 235.00604Q63.978127 235.7873 63.978127 237.9123Z" fill-rule="nonzero"/><path fill="#000000" d="M55.9 216.15437L56.9625 216.01375Q57.134377 216.90437 57.571877 217.31062Q58.009377 217.70125 58.634377 217.70125Q59.384377 217.70125 59.9 217.18562Q60.415627 216.67 60.415627 215.90437Q60.415627 215.18562 59.93125 214.71687Q59.4625 214.2325 58.728127 214.2325Q58.43125 214.2325 57.978127 214.3575L58.103127 213.42Q58.2125 213.43562 58.275 213.43562Q58.946877 213.43562 59.478127 213.09187Q60.025 212.7325 60.025 211.99812Q60.025 211.42 59.634377 211.045Q59.24375 210.65437 58.61875 210.65437Q58.009377 210.65437 57.5875 211.045Q57.18125 211.43562 57.071877 212.20125L56.009377 212.01375Q56.196877 210.96687 56.884377 210.38875Q57.571877 209.795 58.5875 209.795Q59.290627 209.795 59.884377 210.1075Q60.478127 210.40437 60.790627 210.92Q61.103127 211.43562 61.103127 212.02937Q61.103127 212.57625 60.80625 213.045Q60.509377 213.49812 59.93125 213.76375Q60.68125 213.93562 61.103127 214.49812Q61.525 215.045 61.525 215.88875Q61.525 217.01375 60.696877 217.795Q59.884377 218.57625 58.634377 218.57625Q57.509377 218.57625 56.759377 217.90437Q56.009377 217.21687 55.9 216.15437ZM62.9 214.18562Q62.9 212.65437 63.2125 211.7325Q63.525 210.795 64.13438 210.295Q64.75938 209.795 65.69688 209.795Q66.38438 209.795 66.9 210.07625Q67.43125 210.3575 67.775 210.88875Q68.11875 211.40437 68.30625 212.15437Q68.49375 212.90437 68.49375 214.18562Q68.49375 215.70125 68.18125 216.62312Q67.88438 217.545 67.25938 218.06062Q66.65 218.56062 65.69688 218.56062Q64.4625 218.56062 63.74375 217.67Q62.9 216.6075 62.9 214.18562ZM63.978127 214.18562Q63.978127 216.295 64.47813 216.99812Q64.97813 217.70125 65.69688 217.70125Q66.43125 217.70125 66.91563 216.99812Q67.41563 216.295 67.41563 214.18562Q67.41563 212.06062 66.91563 211.37312Q66.43125 210.67 65.68125 210.67Q64.9625 210.67 64.525 211.27937Q63.978127 212.06062 63.978127 214.18562Z" fill-rule="nonzero"/><path fill="#000000" d="M59.275 194.69333L59.275 192.63083L55.55625 192.63083L55.55625 191.66208L59.478127 186.09958L60.3375 186.09958L60.3375 191.66208L61.49375 191.66208L61.49375 192.63083L60.3375 192.63083L60.3375 194.69333L59.275 194.69333ZM59.275 191.66208L59.275 187.8027L56.5875 191.66208L59.275 191.66208ZM62.9 190.45895Q62.9 188.9277 63.2125 188.00583Q63.525 187.06833 64.13438 186.56833Q64.75938 186.06833 65.69688 186.06833Q66.38438 186.06833 66.9 186.34958Q67.43125 186.63083 67.775 187.16208Q68.11875 187.6777 68.30625 188.4277Q68.49375 189.1777 68.49375 190.45895Q68.49375 191.97458 68.18125 192.89645Q67.88438 193.81833 67.25938 194.33395Q66.65 194.83395 65.69688 194.83395Q64.4625 194.83395 63.74375 193.94333Q62.9 192.88083 62.9 190.45895ZM63.978127 190.45895Q63.978127 192.56833 64.47813 193.27145Q64.97813 193.97458 65.69688 193.97458Q66.43125 193.97458 66.91563 193.27145Q67.41563 192.56833 67.41563 190.45895Q67.41563 188.33395 66.91563 187.64645Q66.43125 186.94333 65.68125 186.94333Q64.9625 186.94333 64.525 187.5527Q63.978127 188.33395 63.978127 190.45895Z" fill-rule="nonzero"/><path fill="#000000" d="M55.9 168.71666L57.009377 168.62291Q57.134377 169.43541 57.571877 169.84166Q58.025 170.24791 58.665627 170.24791Q59.415627 170.24791 59.946877 169.66978Q60.478127 169.09166 60.478127 168.15416Q60.478127 167.24791 59.9625 166.73228Q59.4625 166.20103 58.634377 166.20103Q58.134377 166.20103 57.7125 166.43541Q57.30625 166.66978 57.071877 167.02916L56.0875 166.90416L56.915627 162.49791L61.196877 162.49791L61.196877 163.49791L57.759377 163.49791L57.30625 165.81041Q58.071877 165.26353 58.915627 165.26353Q60.040627 165.26353 60.80625 166.04478Q61.5875 166.82603 61.5875 168.06041Q61.5875 169.21666 60.915627 170.07603Q60.0875 171.10728 58.665627 171.10728Q57.49375 171.10728 56.74375 170.45103Q56.009377 169.79478 55.9 168.71666ZM62.9 166.73228Q62.9 165.20103 63.2125 164.27916Q63.525 163.34166 64.13438 162.84166Q64.75938 162.34166 65.69688 162.34166Q66.38438 162.34166 66.9 162.62291Q67.43125 162.90416 67.775 163.43541Q68.11875 163.95103 68.30625 164.70103Q68.49375 165.45103 68.49375 166.73228Q68.49375 168.24791 68.18125 169.16978Q67.88438 170.09166 67.25938 170.60728Q66.65 171.10728 65.69688 171.10728Q64.4625 171.10728 63.74375 170.21666Q62.9 169.15416 62.9 166.73228ZM63.978127 166.73228Q63.978127 168.84166 64.47813 169.54478Q64.97813 170.24791 65.69688 170.24791Q66.43125 170.24791 66.91563 169.54478Q67.41563 168.84166 67.41563 166.73228Q67.41563 164.60728 66.91563 163.91978Q66.43125 163.21666 65.68125 163.21666Q64.9625 163.21666 64.525 163.82603Q63.978127 164.60728 63.978127 166.73228Z" fill-rule="nonzero"/><path fill="#000000" d="M61.36875 140.75563L60.321877 140.83376Q60.18125 140.20876 59.93125 139.9275Q59.49375 139.47438 58.86875 139.47438Q58.36875 139.47438 57.978127 139.75563Q57.49375 140.13063 57.196877 140.83376Q56.915627 141.52126 56.9 142.8025Q57.275 142.22438 57.821877 141.94313Q58.384377 141.66188 58.99375 141.66188Q60.040627 141.66188 60.775 142.44313Q61.525 143.22438 61.525 144.44313Q61.525 145.25563 61.165627 145.95876Q60.821877 146.64626 60.2125 147.02126Q59.603127 147.38063 58.8375 147.38063Q57.509377 147.38063 56.68125 146.41188Q55.853127 145.44313 55.853127 143.22438Q55.853127 140.72438 56.775 139.59938Q57.571877 138.615 58.93125 138.615Q59.946877 138.615 60.5875 139.19313Q61.24375 139.75563 61.36875 140.75563ZM57.071877 144.45876Q57.071877 145.00563 57.290627 145.50563Q57.525 145.99 57.93125 146.25563Q58.353127 146.52126 58.821877 146.52126Q59.478127 146.52126 59.9625 145.99Q60.446877 145.44313 60.446877 144.52126Q60.446877 143.63063 59.9625 143.115Q59.49375 142.59938 58.775 142.59938Q58.05625 142.59938 57.55625 143.115Q57.071877 143.63063 57.071877 144.45876ZM62.9 143.00563Q62.9 141.47438 63.2125 140.5525Q63.525 139.615 64.13438 139.115Q64.75938 138.615 65.69688 138.615Q66.38438 138.615 66.9 138.89626Q67.43125 139.1775 67.775 139.70876Q68.11875 140.22438 68.30625 140.97438Q68.49375 141.72438 68.49375 143.00563Q68.49375 144.52126 68.18125 145.44313Q67.88438 146.365 67.25938 146.88063Q66.65 147.38063 65.69688 147.38063Q64.4625 147.38063 63.74375 146.49Q62.9 145.4275 62.9 143.00563ZM63.978127 143.00563Q63.978127 145.115 64.47813 145.81813Q64.97813 146.52126 65.69688 146.52126Q66.43125 146.52126 66.91563 145.81813Q67.41563 145.115 67.41563 143.00563Q67.41563 140.88063 66.91563 140.19313Q66.43125 139.49 65.68125 139.49Q64.9625 139.49 64.525 140.09938Q63.978127 140.88063 63.978127 143.00563Z" fill-rule="nonzero"/><path fill="#000000" d="M55.9625 116.044586L55.9625 115.02896L61.525 115.02896L61.525 115.857086Q60.7125 116.732086 59.9 118.18521Q59.103127 119.62271 58.665627 121.15396Q58.3375 122.232086 58.259377 123.513336L57.165627 123.513336Q57.18125 122.49771 57.55625 121.06021Q57.946877 119.62271 58.65 118.294586Q59.36875 116.96646 60.18125 116.044586L55.9625 116.044586ZM62.9 119.27896Q62.9 117.74771 63.2125 116.825836Q63.525 115.888336 64.13438 115.388336Q64.75938 114.888336 65.69688 114.888336Q66.38438 114.888336 66.9 115.169586Q67.43125 115.450836 67.775 115.982086Q68.11875 116.49771 68.30625 117.24771Q68.49375 117.99771 68.49375 119.27896Q68.49375 120.794586 68.18125 121.71646Q67.88438 122.638336 67.25938 123.15396Q66.65 123.65396 65.69688 123.65396Q64.4625 123.65396 63.74375 122.763336Q62.9 121.700836 62.9 119.27896ZM63.978127 119.27896Q63.978127 121.388336 64.47813 122.09146Q64.97813 122.794586 65.69688 122.794586Q66.43125 122.794586 66.91563 122.09146Q67.41563 121.388336 67.41563 119.27896Q67.41563 117.15396 66.91563 116.46646Q66.43125 115.763336 65.68125 115.763336Q64.9625 115.763336 64.525 116.37271Q63.978127 117.15396 63.978127 119.27896Z" fill-rule="nonzero"/><path fill="#000000" d="M57.525 95.13042Q56.86875 94.88042 56.540627 94.44292Q56.228127 93.98979 56.228127 93.38042Q56.228127 92.44292 56.9 91.80229Q57.5875 91.16167 58.696877 91.16167Q59.821877 91.16167 60.509377 91.81792Q61.196877 92.47417 61.196877 93.41167Q61.196877 94.00542 60.884377 94.44292Q60.571877 94.88042 59.93125 95.13042Q60.728127 95.38042 61.134377 95.95854Q61.540627 96.53667 61.540627 97.33354Q61.540627 98.42729 60.759377 99.17729Q59.99375 99.92729 58.7125 99.92729Q57.446877 99.92729 56.665627 99.17729Q55.884377 98.42729 55.884377 97.30229Q55.884377 96.45854 56.30625 95.89604Q56.74375 95.33354 57.525 95.13042ZM57.30625 93.33354Q57.30625 93.94292 57.696877 94.33354Q58.103127 94.72417 58.728127 94.72417Q59.3375 94.72417 59.728127 94.34917Q60.11875 93.95854 60.11875 93.39604Q60.11875 92.81792 59.7125 92.42729Q59.30625 92.02104 58.7125 92.02104Q58.103127 92.02104 57.696877 92.41167Q57.30625 92.80229 57.30625 93.33354ZM56.978127 97.30229Q56.978127 97.75542 57.18125 98.17729Q57.4 98.59917 57.821877 98.83354Q58.24375 99.06792 58.728127 99.06792Q59.478127 99.06792 59.9625 98.58354Q60.4625 98.09917 60.4625 97.34917Q60.4625 96.58354 59.9625 96.08354Q59.4625 95.58354 58.696877 95.58354Q57.946877 95.58354 57.4625 96.08354Q56.978127 96.56792 56.978127 97.30229ZM62.9 95.55229Q62.9 94.02104 63.2125 93.09917Q63.525 92.16167 64.13438 91.66167Q64.75938 91.16167 65.69688 91.16167Q66.38438 91.16167 66.9 91.44292Q67.43125 91.72417 67.775 92.25542Q68.11875 92.77104 68.30625 93.52104Q68.49375 94.27104 68.49375 95.55229Q68.49375 97.06792 68.18125 97.98979Q67.88438 98.91167 67.25938 99.42729Q66.65 99.92729 65.69688 99.92729Q64.4625 99.92729 63.74375 99.03667Q62.9 97.97417 62.9 95.55229ZM63.978127 95.55229Q63.978127 97.66167 64.47813 98.36479Q64.97813 99.06792 65.69688 99.06792Q66.43125 99.06792 66.91563 98.36479Q67.41563 97.66167 67.41563 95.55229Q67.41563 93.42729 66.91563 92.73979Q66.43125 92.03667 65.68125 92.03667Q64.9625 92.03667 64.525 92.64604Q63.978127 93.42729 63.978127 95.55229Z" fill-rule="nonzero"/><path fill="#000000" d="M56.05625 74.07562L57.071877 73.98187Q57.196877 74.70062 57.55625 75.02875Q57.93125 75.34125 58.49375 75.34125Q58.978127 75.34125 59.3375 75.1225Q59.7125 74.88812 59.946877 74.52875Q60.18125 74.15375 60.3375 73.52875Q60.49375 72.88812 60.49375 72.23187Q60.49375 72.15375 60.49375 72.01312Q60.18125 72.51312 59.634377 72.84125Q59.0875 73.15375 58.446877 73.15375Q57.36875 73.15375 56.634377 72.38812Q55.9 71.60687 55.9 70.34125Q55.9 69.02875 56.665627 68.23187Q57.446877 67.435 58.603127 67.435Q59.43125 67.435 60.11875 67.88812Q60.821877 68.34125 61.18125 69.185Q61.540627 70.01312 61.540627 71.59125Q61.540627 73.23187 61.18125 74.21625Q60.8375 75.185 60.11875 75.70062Q59.415627 76.20062 58.478127 76.20062Q57.4625 76.20062 56.821877 75.65375Q56.18125 75.09125 56.05625 74.07562ZM60.36875 70.27875Q60.36875 69.3725 59.884377 68.84125Q59.415627 68.31 58.728127 68.31Q58.025 68.31 57.49375 68.88812Q56.978127 69.45062 56.978127 70.3725Q56.978127 71.185 57.478127 71.70062Q57.978127 72.21625 58.696877 72.21625Q59.43125 72.21625 59.9 71.70062Q60.36875 71.185 60.36875 70.27875ZM62.9 71.82562Q62.9 70.29437 63.2125 69.3725Q63.525 68.435 64.13438 67.935Q64.75938 67.435 65.69688 67.435Q66.38438 67.435 66.9 67.71625Q67.43125 67.9975 67.775 68.52875Q68.11875 69.04437 68.30625 69.79437Q68.49375 70.54437 68.49375 71.82562Q68.49375 73.34125 68.18125 74.26312Q67.88438 75.185 67.25938 75.70062Q66.65 76.20062 65.69688 76.20062Q64.4625 76.20062 63.74375 75.31Q62.9 74.2475 62.9 71.82562ZM63.978127 71.82562Q63.978127 73.935 64.47813 74.63812Q64.97813 75.34125 65.69688 75.34125Q66.43125 75.34125 66.91563 74.63812Q67.41563 73.935 67.41563 71.82562Q67.41563 69.70062 66.91563 69.01312Q66.43125 68.31 65.68125 68.31Q64.9625 68.31 64.525 68.91937Q63.978127 69.70062 63.978127 71.82562Z" fill-rule="nonzero"/><path fill="#000000" d="M52.86875 52.333332L51.821877 52.333332L51.821877 45.614582Q51.43125 45.973957 50.80625 46.348957Q50.196877 46.708332 49.7125 46.880207L49.7125 45.864582Q50.5875 45.442707 51.24375 44.864582Q51.915627 44.270832 52.196877 43.708332L52.86875 43.708332L52.86875 52.333332ZM55.9 48.098957Q55.9 46.567707 56.2125 45.645832Q56.525 44.708332 57.134377 44.208332Q57.759377 43.708332 58.696877 43.708332Q59.384377 43.708332 59.9 43.989582Q60.43125 44.270832 60.775 44.802082Q61.11875 45.317707 61.30625 46.067707Q61.49375 46.817707 61.49375 48.098957Q61.49375 49.614582 61.18125 50.536457Q60.884377 51.458332 60.259377 51.973957Q59.65 52.473957 58.696877 52.473957Q57.4625 52.473957 56.74375 51.583332Q55.9 50.520832 55.9 48.098957ZM56.978127 48.098957Q56.978127 50.208332 57.478127 50.911457Q57.978127 51.614582 58.696877 51.614582Q59.43125 51.614582 59.915627 50.911457Q60.415627 50.208332 60.415627 48.098957Q60.415627 45.973957 59.915627 45.286457Q59.43125 44.583332 58.68125 44.583332Q57.9625 44.583332 57.525 45.192707Q56.978127 45.973957 56.978127 48.098957ZM62.9 48.098957Q62.9 46.567707 63.2125 45.645832Q63.525 44.708332 64.13438 44.208332Q64.75938 43.708332 65.69688 43.708332Q66.38438 43.708332 66.9 43.989582Q67.43125 44.270832 67.775 44.802082Q68.11875 45.317707 68.30625 46.067707Q68.49375 46.817707 68.49375 48.098957Q68.49375 49.614582 68.18125 50.536457Q67.88438 51.458332 67.25938 51.973957Q66.65 52.473957 65.69688 52.473957Q64.4625 52.473957 63.74375 51.583332Q62.9 50.520832 62.9 48.098957ZM63.978127 48.098957Q63.978127 50.208332 64.47813 50.911457Q64.97813 51.614582 65.69688 51.614582Q66.43125 51.614582 66.91563 50.911457Q67.41563 50.208332 67.41563 48.098957Q67.41563 45.973957 66.91563 45.286457Q66.43125 44.583332 65.68125 44.583332Q64.9625 44.583332 64.525 45.192707Q63.978127 45.973957 63.978127 48.098957Z" fill-rule="nonzero"/><path fill="#000000" d="M85.0691 305.83438L86.1316 305.74063Q86.209724 306.39688 86.490974 306.80313Q86.772224 307.20938 87.35035 307.475Q87.9441 307.725 88.678474 307.725Q89.3191 307.725 89.8191 307.5375Q90.3191 307.33438 90.553474 307.00626Q90.803474 306.6625 90.803474 306.27188Q90.803474 305.86563 90.5691 305.56876Q90.334724 305.25626 89.803474 305.05313Q89.4441 304.9125 88.2566 304.63126Q87.084724 304.35 86.615974 304.1Q85.990974 303.77188 85.6941 303.30313Q85.397224 302.81876 85.397224 302.225Q85.397224 301.58438 85.7566 301.02188Q86.1316 300.44376 86.834724 300.1625Q87.553474 299.86563 88.41285 299.86563Q89.365974 299.86563 90.10035 300.17813Q90.834724 300.475 91.22535 301.08438Q91.615974 301.67813 91.647224 302.42813L90.553474 302.50626Q90.459724 301.69376 89.9441 301.2875Q89.4441 300.86563 88.459724 300.86563Q87.428474 300.86563 86.959724 301.24063Q86.490974 301.61563 86.490974 302.14688Q86.490974 302.61563 86.8191 302.9125Q87.147224 303.20938 88.522224 303.52188Q89.91285 303.83438 90.428474 304.06876Q91.178474 304.42813 91.53785 304.95938Q91.897224 305.475 91.897224 306.17813Q91.897224 306.86563 91.5066 307.475Q91.115974 308.06876 90.3816 308.4125Q89.647224 308.74063 88.72535 308.74063Q87.553474 308.74063 86.7566 308.4125Q85.97535 308.06876 85.522224 307.38126Q85.084724 306.69376 85.0691 305.83438ZM93.3191 310.99063L93.3191 302.38126L94.272224 302.38126L94.272224 303.17813Q94.615974 302.70938 95.03785 302.475Q95.47535 302.24063 96.084724 302.24063Q96.8816 302.24063 97.490974 302.64688Q98.10035 303.05313 98.397224 303.80313Q98.709724 304.55313 98.709724 305.44376Q98.709724 306.39688 98.365974 307.1625Q98.03785 307.92813 97.3816 308.33438Q96.72535 308.74063 96.0066 308.74063Q95.47535 308.74063 95.053474 308.52188Q94.6316 308.2875 94.365974 307.95938L94.365974 310.99063L93.3191 310.99063ZM94.272224 305.52188Q94.272224 306.725 94.7566 307.30313Q95.240974 307.86563 95.928474 307.86563Q96.6316 307.86563 97.1316 307.27188Q97.6316 306.67813 97.6316 305.42813Q97.6316 304.24063 97.147224 303.6625Q96.66285 303.06876 95.97535 303.06876Q95.303474 303.06876 94.78785 303.69376Q94.272224 304.31876 94.272224 305.52188ZM100.303474 308.6L100.303474 302.38126L101.2566 302.38126L101.2566 303.31876Q101.615974 302.6625 101.91285 302.45938Q102.22535 302.24063 102.60035 302.24063Q103.1316 302.24063 103.678474 302.56876L103.3191 303.55313Q102.928474 303.31876 102.553474 303.31876Q102.1941 303.31876 101.91285 303.5375Q101.647224 303.74063 101.53785 304.11563Q101.35035 304.67813 101.35035 305.33438L101.35035 308.6L100.303474 308.6ZM104.3191 301.225L104.3191 300.00626L105.3816 300.00626L105.3816 301.225L104.3191 301.225ZM104.3191 308.6L104.3191 302.38126L105.3816 302.38126L105.3816 308.6L104.3191 308.6ZM107.3191 308.6L107.3191 302.38126L108.2566 302.38126L108.2566 303.25626Q108.9441 302.24063 110.240974 302.24063Q110.803474 302.24063 111.272224 302.44376Q111.7566 302.64688 111.990974 302.975Q112.22535 303.30313 112.3191 303.74063Q112.365974 304.0375 112.365974 304.77188L112.365974 308.6L111.3191 308.6L111.3191 304.81876Q111.3191 304.1625 111.1941 303.85Q111.0691 303.5375 110.7566 303.35Q110.4441 303.14688 110.022224 303.14688Q109.35035 303.14688 108.85035 303.58438Q108.365974 304.00626 108.365974 305.19376L108.365974 308.6L107.3191 308.6ZM116.615974 307.6625L116.772224 308.58438Q116.3191 308.67813 115.97535 308.67813Q115.397224 308.67813 115.084724 308.50626Q114.772224 308.31876 114.6316 308.02188Q114.5066 307.725 114.5066 306.77188L114.5066 303.19376L113.740974 303.19376L113.740974 302.38126L114.5066 302.38126L114.5066 300.83438L115.553474 300.20938L115.553474 302.38126L116.615974 302.38126L116.615974 303.19376L115.553474 303.19376L115.553474 306.83438Q115.553474 307.2875 115.60035 307.4125Q115.66285 307.5375 115.78785 307.61563Q115.91285 307.69376 116.147224 307.69376Q116.334724 307.69376 116.615974 307.6625ZM123.990974 308.6L122.9441 308.6L122.9441 301.88126Q122.553474 302.24063 121.928474 302.61563Q121.3191 302.975 120.834724 303.14688L120.834724 302.13126Q121.709724 301.70938 122.365974 301.13126Q123.03785 300.5375 123.3191 299.975L123.990974 299.975L123.990974 308.6Z" fill-rule="nonzero"/><path fill="#000000" d="M133.31354 305.83438L134.37604 305.74063Q134.45416 306.39688 134.73541 306.80313Q135.01666 307.20938 135.59479 307.475Q136.18854 307.725 136.92291 307.725Q137.56354 307.725 138.06354 307.5375Q138.56354 307.33438 138.79791 307.00626Q139.04791 306.6625 139.04791 306.27188Q139.04791 305.86563 138.81354 305.56876Q138.57916 305.25626 138.04791 305.05313Q137.68854 304.9125 136.50104 304.63126Q135.32916 304.35 134.86041 304.1Q134.23541 303.77188 133.93854 303.30313Q133.64166 302.81876 133.64166 302.225Q133.64166 301.58438 134.00104 301.02188Q134.37604 300.44376 135.07916 300.1625Q135.79791 299.86563 136.65729 299.86563Q137.61041 299.86563 138.34479 300.17813Q139.07916 300.475 139.46979 301.08438Q139.86041 301.67813 139.89166 302.42813L138.79791 302.50626Q138.70416 301.69376 138.18854 301.2875Q137.68854 300.86563 136.70416 300.86563Q135.67291 300.86563 135.20416 301.24063Q134.73541 301.61563 134.73541 302.14688Q134.73541 302.61563 135.06354 302.9125Q135.39166 303.20938 136.76666 303.52188Q138.15729 303.83438 138.67291 304.06876Q139.42291 304.42813 139.78229 304.95938Q140.14166 305.475 140.14166 306.17813Q140.14166 306.86563 139.75104 307.475Q139.36041 308.06876 138.62604 308.4125Q137.89166 308.74063 136.96979 308.74063Q135.79791 308.74063 135.00104 308.4125Q134.21979 308.06876 133.76666 307.38126Q133.32916 306.69376 133.31354 305.83438ZM141.56354 310.99063L141.56354 302.38126L142.51666 302.38126L142.51666 303.17813Q142.86041 302.70938 143.28229 302.475Q143.71979 302.24063 144.32916 302.24063Q145.12604 302.24063 145.73541 302.64688Q146.34479 303.05313 146.64166 303.80313Q146.95416 304.55313 146.95416 305.44376Q146.95416 306.39688 146.61041 307.1625Q146.28229 307.92813 145.62604 308.33438Q144.96979 308.74063 144.25104 308.74063Q143.71979 308.74063 143.29791 308.52188Q142.87604 308.2875 142.61041 307.95938L142.61041 310.99063L141.56354 310.99063ZM142.51666 305.52188Q142.51666 306.725 143.00104 307.30313Q143.48541 307.86563 144.17291 307.86563Q144.87604 307.86563 145.37604 307.27188Q145.87604 306.67813 145.87604 305.42813Q145.87604 304.24063 145.39166 303.6625Q144.90729 303.06876 144.21979 303.06876Q143.54791 303.06876 143.03229 303.69376Q142.51666 304.31876 142.51666 305.52188ZM148.54791 308.6L148.54791 302.38126L149.50104 302.38126L149.50104 303.31876Q149.86041 302.6625 150.15729 302.45938Q150.46979 302.24063 150.84479 302.24063Q151.37604 302.24063 151.92291 302.56876L151.56354 303.55313Q151.17291 303.31876 150.79791 303.31876Q150.43854 303.31876 150.15729 303.5375Q149.89166 303.74063 149.78229 304.11563Q149.59479 304.67813 149.59479 305.33438L149.59479 308.6L148.54791 308.6ZM152.56354 301.225L152.56354 300.00626L153.62604 300.00626L153.62604 301.225L152.56354 301.225ZM152.56354 308.6L152.56354 302.38126L153.62604 302.38126L153.62604 308.6L152.56354 308.6ZM155.56354 308.6L155.56354 302.38126L156.50104 302.38126L156.50104 303.25626Q157.18854 302.24063 158.48541 302.24063Q159.04791 302.24063 159.51666 302.44376Q160.00104 302.64688 160.23541 302.975Q160.46979 303.30313 160.56354 303.74063Q160.61041 304.0375 160.61041 304.77188L160.61041 308.6L159.56354 308.6L159.56354 304.81876Q159.56354 304.1625 159.43854 303.85Q159.31354 303.5375 159.00104 303.35Q158.68854 303.14688 158.26666 303.14688Q157.59479 303.14688 157.09479 303.58438Q156.61041 304.00626 156.61041 305.19376L156.61041 308.6L155.56354 308.6ZM164.86041 307.6625L165.01666 308.58438Q164.56354 308.67813 164.21979 308.67813Q163.64166 308.67813 163.32916 308.50626Q163.01666 308.31876 162.87604 308.02188Q162.75104 307.725 162.75104 306.77188L162.75104 303.19376L161.98541 303.19376L161.98541 302.38126L162.75104 302.38126L162.75104 300.83438L163.79791 300.20938L163.79791 302.38126L164.86041 302.38126L164.86041 303.19376L163.79791 303.19376L163.79791 306.83438Q163.79791 307.2875 163.84479 307.4125Q163.90729 307.5375 164.03229 307.61563Q164.15729 307.69376 164.39166 307.69376Q164.57916 307.69376 164.86041 307.6625ZM173.81354 307.58438L173.81354 308.6L168.12604 308.6Q168.12604 308.225 168.25104 307.86563Q168.46979 307.2875 168.93854 306.725Q169.42291 306.1625 170.32916 305.42813Q171.73541 304.27188 172.21979 303.6Q172.71979 302.92813 172.71979 302.33438Q172.71979 301.70938 172.26666 301.2875Q171.81354 300.85 171.09479 300.85Q170.32916 300.85 169.87604 301.30313Q169.42291 301.75626 169.40729 302.56876L168.32916 302.45938Q168.43854 301.24063 169.15729 300.61563Q169.89166 299.975 171.12604 299.975Q172.36041 299.975 173.07916 300.6625Q173.79791 301.35 173.79791 302.36563Q173.79791 302.88126 173.57916 303.38126Q173.37604 303.86563 172.87604 304.42813Q172.39166 304.975 171.26666 305.92813Q170.31354 306.725 170.03229 307.02188Q169.76666 307.30313 169.59479 307.58438L173.81354 307.58438Z" fill-rule="nonzero"/><path fill="#000000" d="M181.55798 305.83438L182.62048 305.74063Q182.69861 306.39688 182.97986 306.80313Q183.26111 307.20938 183.83923 307.475Q184.43298 307.725 185.16736 307.725Q185.80798 307.725 186.30798 307.5375Q186.80798 307.33438 187.04236 307.00626Q187.29236 306.6625 187.29236 306.27188Q187.29236 305.86563 187.05798 305.56876Q186.82361 305.25626 186.29236 305.05313Q185.93298 304.9125 184.74548 304.63126Q183.57361 304.35 183.10486 304.1Q182.47986 303.77188 182.18298 303.30313Q181.88611 302.81876 181.88611 302.225Q181.88611 301.58438 182.24548 301.02188Q182.62048 300.44376 183.32361 300.1625Q184.04236 299.86563 184.90173 299.86563Q185.85486 299.86563 186.58923 300.17813Q187.32361 300.475 187.71423 301.08438Q188.10486 301.67813 188.13611 302.42813L187.04236 302.50626Q186.94861 301.69376 186.43298 301.2875Q185.93298 300.86563 184.94861 300.86563Q183.91736 300.86563 183.44861 301.24063Q182.97986 301.61563 182.97986 302.14688Q182.97986 302.61563 183.30798 302.9125Q183.63611 303.20938 185.01111 303.52188Q186.40173 303.83438 186.91736 304.06876Q187.66736 304.42813 188.02673 304.95938Q188.38611 305.475 188.38611 306.17813Q188.38611 306.86563 187.99548 307.475Q187.60486 308.06876 186.87048 308.4125Q186.13611 308.74063 185.21423 308.74063Q184.04236 308.74063 183.24548 308.4125Q182.46423 308.06876 182.01111 307.38126Q181.57361 306.69376 181.55798 305.83438ZM189.80798 310.99063L189.80798 302.38126L190.76111 302.38126L190.76111 303.17813Q191.10486 302.70938 191.52673 302.475Q191.96423 302.24063 192.57361 302.24063Q193.37048 302.24063 193.97986 302.64688Q194.58923 303.05313 194.88611 303.80313Q195.19861 304.55313 195.19861 305.44376Q195.19861 306.39688 194.85486 307.1625Q194.52673 307.92813 193.87048 308.33438Q193.21423 308.74063 192.49548 308.74063Q191.96423 308.74063 191.54236 308.52188Q191.12048 308.2875 190.85486 307.95938L190.85486 310.99063L189.80798 310.99063ZM190.76111 305.52188Q190.76111 306.725 191.24548 307.30313Q191.72986 307.86563 192.41736 307.86563Q193.12048 307.86563 193.62048 307.27188Q194.12048 306.67813 194.12048 305.42813Q194.12048 304.24063 193.63611 303.6625Q193.15173 303.06876 192.46423 303.06876Q191.79236 303.06876 191.27673 303.69376Q190.76111 304.31876 190.76111 305.52188ZM196.79236 308.6L196.79236 302.38126L197.74548 302.38126L197.74548 303.31876Q198.10486 302.6625 198.40173 302.45938Q198.71423 302.24063 199.08923 302.24063Q199.62048 302.24063 200.16736 302.56876L199.80798 303.55313Q199.41736 303.31876 199.04236 303.31876Q198.68298 303.31876 198.40173 303.5375Q198.13611 303.74063 198.02673 304.11563Q197.83923 304.67813 197.83923 305.33438L197.83923 308.6L196.79236 308.6ZM200.80798 301.225L200.80798 300.00626L201.87048 300.00626L201.87048 301.225L200.80798 301.225ZM200.80798 308.6L200.80798 302.38126L201.87048 302.38126L201.87048 308.6L200.80798 308.6ZM203.80798 308.6L203.80798 302.38126L204.74548 302.38126L204.74548 303.25626Q205.43298 302.24063 206.72986 302.24063Q207.29236 302.24063 207.76111 302.44376Q208.24548 302.64688 208.47986 302.975Q208.71423 303.30313 208.80798 303.74063Q208.85486 304.0375 208.85486 304.77188L208.85486 308.6L207.80798 308.6L207.80798 304.81876Q207.80798 304.1625 207.68298 303.85Q207.55798 303.5375 207.24548 303.35Q206.93298 303.14688 206.51111 303.14688Q205.83923 303.14688 205.33923 303.58438Q204.85486 304.00626 204.85486 305.19376L204.85486 308.6L203.80798 308.6ZM213.10486 307.6625L213.26111 308.58438Q212.80798 308.67813 212.46423 308.67813Q211.88611 308.67813 211.57361 308.50626Q211.26111 308.31876 211.12048 308.02188Q210.99548 307.725 210.99548 306.77188L210.99548 303.19376L210.22986 303.19376L210.22986 302.38126L210.99548 302.38126L210.99548 300.83438L212.04236 300.20938L212.04236 302.38126L213.10486 302.38126L213.10486 303.19376L212.04236 303.19376L212.04236 306.83438Q212.04236 307.2875 212.08923 307.4125Q212.15173 307.5375 212.27673 307.61563Q212.40173 307.69376 212.63611 307.69376Q212.82361 307.69376 213.10486 307.6625ZM216.51111 306.33438L217.57361 306.19376Q217.74548 307.08438 218.18298 307.49063Q218.62048 307.88126 219.24548 307.88126Q219.99548 307.88126 220.51111 307.36563Q221.02673 306.85 221.02673 306.08438Q221.02673 305.36563 220.54236 304.89688Q220.07361 304.4125 219.33923 304.4125Q219.04236 304.4125 218.58923 304.5375L218.71423 303.6Q218.82361 303.61563 218.88611 303.61563Q219.55798 303.61563 220.08923 303.27188Q220.63611 302.9125 220.63611 302.17813Q220.63611 301.6 220.24548 301.225Q219.85486 300.83438 219.22986 300.83438Q218.62048 300.83438 218.19861 301.225Q217.79236 301.61563 217.68298 302.38126L216.62048 302.19376Q216.80798 301.14688 217.49548 300.56876Q218.18298 299.975 219.19861 299.975Q219.90173 299.975 220.49548 300.2875Q221.08923 300.58438 221.40173 301.1Q221.71423 301.61563 221.71423 302.20938Q221.71423 302.75626 221.41736 303.225Q221.12048 303.67813 220.54236 303.94376Q221.29236 304.11563 221.71423 304.67813Q222.13611 305.225 222.13611 306.06876Q222.13611 307.19376 221.30798 307.975Q220.49548 308.75626 219.24548 308.75626Q218.12048 308.75626 217.37048 308.08438Q216.62048 307.39688 216.51111 306.33438Z" fill-rule="nonzero"/><path fill="#000000" d="M229.80243 305.83438L230.86493 305.74063Q230.94305 306.39688 231.2243 306.80313Q231.50555 307.20938 232.08368 307.475Q232.67743 307.725 233.4118 307.725Q234.05243 307.725 234.55243 307.5375Q235.05243 307.33438 235.2868 307.00626Q235.5368 306.6625 235.5368 306.27188Q235.5368 305.86563 235.30243 305.56876Q235.06805 305.25626 234.5368 305.05313Q234.17743 304.9125 232.98993 304.63126Q231.81805 304.35 231.3493 304.1Q230.7243 303.77188 230.42743 303.30313Q230.13055 302.81876 230.13055 302.225Q230.13055 301.58438 230.48993 301.02188Q230.86493 300.44376 231.56805 300.1625Q232.2868 299.86563 233.14618 299.86563Q234.0993 299.86563 234.83368 300.17813Q235.56805 300.475 235.95868 301.08438Q236.3493 301.67813 236.38055 302.42813L235.2868 302.50626Q235.19305 301.69376 234.67743 301.2875Q234.17743 300.86563 233.19305 300.86563Q232.1618 300.86563 231.69305 301.24063Q231.2243 301.61563 231.2243 302.14688Q231.2243 302.61563 231.55243 302.9125Q231.88055 303.20938 233.25555 303.52188Q234.64618 303.83438 235.1618 304.06876Q235.9118 304.42813 236.27118 304.95938Q236.63055 305.475 236.63055 306.17813Q236.63055 306.86563 236.23993 307.475Q235.8493 308.06876 235.11493 308.4125Q234.38055 308.74063 233.45868 308.74063Q232.2868 308.74063 231.48993 308.4125Q230.70868 308.06876 230.25555 307.38126Q229.81805 306.69376 229.80243 305.83438ZM238.05243 310.99063L238.05243 302.38126L239.00555 302.38126L239.00555 303.17813Q239.3493 302.70938 239.77118 302.475Q240.20868 302.24063 240.81805 302.24063Q241.61493 302.24063 242.2243 302.64688Q242.83368 303.05313 243.13055 303.80313Q243.44305 304.55313 243.44305 305.44376Q243.44305 306.39688 243.0993 307.1625Q242.77118 307.92813 242.11493 308.33438Q241.45868 308.74063 240.73993 308.74063Q240.20868 308.74063 239.7868 308.52188Q239.36493 308.2875 239.0993 307.95938L239.0993 310.99063L238.05243 310.99063ZM239.00555 305.52188Q239.00555 306.725 239.48993 307.30313Q239.9743 307.86563 240.6618 307.86563Q241.36493 307.86563 241.86493 307.27188Q242.36493 306.67813 242.36493 305.42813Q242.36493 304.24063 241.88055 303.6625Q241.39618 303.06876 240.70868 303.06876Q240.0368 303.06876 239.52118 303.69376Q239.00555 304.31876 239.00555 305.52188ZM245.0368 308.6L245.0368 302.38126L245.98993 302.38126L245.98993 303.31876Q246.3493 302.6625 246.64618 302.45938Q246.95868 302.24063 247.33368 302.24063Q247.86493 302.24063 248.4118 302.56876L248.05243 303.55313Q247.6618 303.31876 247.2868 303.31876Q246.92743 303.31876 246.64618 303.5375Q246.38055 303.74063 246.27118 304.11563Q246.08368 304.67813 246.08368 305.33438L246.08368 308.6L245.0368 308.6ZM249.05243 301.225L249.05243 300.00626L250.11493 300.00626L250.11493 301.225L249.05243 301.225ZM249.05243 308.6L249.05243 302.38126L250.11493 302.38126L250.11493 308.6L249.05243 308.6ZM252.05243 308.6L252.05243 302.38126L252.98993 302.38126L252.98993 303.25626Q253.67743 302.24063 254.9743 302.24063Q255.5368 302.24063 256.00555 302.44376Q256.48993 302.64688 256.7243 302.975Q256.95868 303.30313 257.05243 303.74063Q257.0993 304.0375 257.0993 304.77188L257.0993 308.6L256.05243 308.6L256.05243 304.81876Q256.05243 304.1625 255.92743 303.85Q255.80243 303.5375 255.48993 303.35Q255.17743 303.14688 254.75555 303.14688Q254.08368 303.14688 253.58368 303.58438Q253.0993 304.00626 253.0993 305.19376L253.0993 308.6L252.05243 308.6ZM261.3493 307.6625L261.50555 308.58438Q261.05243 308.67813 260.70868 308.67813Q260.13055 308.67813 259.81805 308.50626Q259.50555 308.31876 259.36493 308.02188Q259.23993 307.725 259.23993 306.77188L259.23993 303.19376L258.4743 303.19376L258.4743 302.38126L259.23993 302.38126L259.23993 300.83438L260.2868 300.20938L260.2868 302.38126L261.3493 302.38126L261.3493 303.19376L260.2868 303.19376L260.2868 306.83438Q260.2868 307.2875 260.33368 307.4125Q260.39618 307.5375 260.52118 307.61563Q260.64618 307.69376 260.88055 307.69376Q261.06805 307.69376 261.3493 307.6625ZM268.13055 308.6L268.13055 306.5375L264.4118 306.5375L264.4118 305.56876L268.33368 300.00626L269.19305 300.00626L269.19305 305.56876L270.3493 305.56876L270.3493 306.5375L269.19305 306.5375L269.19305 308.6L268.13055 308.6ZM268.13055 305.56876L268.13055 301.70938L265.44305 305.56876L268.13055 305.56876Z" fill-rule="nonzero"/><path fill="#000000" d="M278.04688 305.83438L279.10938 305.74063Q279.1875 306.39688 279.46875 306.80313Q279.75 307.20938 280.32812 307.475Q280.92188 307.725 281.65625 307.725Q282.29688 307.725 282.79688 307.5375Q283.29688 307.33438 283.53125 307.00626Q283.78125 306.6625 283.78125 306.27188Q283.78125 305.86563 283.54688 305.56876Q283.3125 305.25626 282.78125 305.05313Q282.42188 304.9125 281.23438 304.63126Q280.0625 304.35 279.59375 304.1Q278.96875 303.77188 278.67188 303.30313Q278.375 302.81876 278.375 302.225Q278.375 301.58438 278.73438 301.02188Q279.10938 300.44376 279.8125 300.1625Q280.53125 299.86563 281.39062 299.86563Q282.34375 299.86563 283.07812 300.17813Q283.8125 300.475 284.20312 301.08438Q284.59375 301.67813 284.625 302.42813L283.53125 302.50626Q283.4375 301.69376 282.92188 301.2875Q282.42188 300.86563 281.4375 300.86563Q280.40625 300.86563 279.9375 301.24063Q279.46875 301.61563 279.46875 302.14688Q279.46875 302.61563 279.79688 302.9125Q280.125 303.20938 281.5 303.52188Q282.89062 303.83438 283.40625 304.06876Q284.15625 304.42813 284.51562 304.95938Q284.875 305.475 284.875 306.17813Q284.875 306.86563 284.48438 307.475Q284.09375 308.06876 283.35938 308.4125Q282.625 308.74063 281.70312 308.74063Q280.53125 308.74063 279.73438 308.4125Q278.95312 308.06876 278.5 307.38126Q278.0625 306.69376 278.04688 305.83438ZM286.29688 310.99063L286.29688 302.38126L287.25 302.38126L287.25 303.17813Q287.59375 302.70938 288.01562 302.475Q288.45312 302.24063 289.0625 302.24063Q289.85938 302.24063 290.46875 302.64688Q291.07812 303.05313 291.375 303.80313Q291.6875 304.55313 291.6875 305.44376Q291.6875 306.39688 291.34375 307.1625Q291.01562 307.92813 290.35938 308.33438Q289.70312 308.74063 288.98438 308.74063Q288.45312 308.74063 288.03125 308.52188Q287.60938 308.2875 287.34375 307.95938L287.34375 310.99063L286.29688 310.99063ZM287.25 305.52188Q287.25 306.725 287.73438 307.30313Q288.21875 307.86563 288.90625 307.86563Q289.60938 307.86563 290.10938 307.27188Q290.60938 306.67813 290.60938 305.42813Q290.60938 304.24063 290.125 303.6625Q289.64062 303.06876 288.95312 303.06876Q288.28125 303.06876 287.76562 303.69376Q287.25 304.31876 287.25 305.52188ZM293.28125 308.6L293.28125 302.38126L294.23438 302.38126L294.23438 303.31876Q294.59375 302.6625 294.89062 302.45938Q295.20312 302.24063 295.57812 302.24063Q296.10938 302.24063 296.65625 302.56876L296.29688 303.55313Q295.90625 303.31876 295.53125 303.31876Q295.17188 303.31876 294.89062 303.5375Q294.625 303.74063 294.51562 304.11563Q294.32812 304.67813 294.32812 305.33438L294.32812 308.6L293.28125 308.6ZM297.29688 301.225L297.29688 300.00626L298.35938 300.00626L298.35938 301.225L297.29688 301.225ZM297.29688 308.6L297.29688 302.38126L298.35938 302.38126L298.35938 308.6L297.29688 308.6ZM300.29688 308.6L300.29688 302.38126L301.23438 302.38126L301.23438 303.25626Q301.92188 302.24063 303.21875 302.24063Q303.78125 302.24063 304.25 302.44376Q304.73438 302.64688 304.96875 302.975Q305.20312 303.30313 305.29688 303.74063Q305.34375 304.0375 305.34375 304.77188L305.34375 308.6L304.29688 308.6L304.29688 304.81876Q304.29688 304.1625 304.17188 303.85Q304.04688 303.5375 303.73438 303.35Q303.42188 303.14688 303.0 303.14688Q302.32812 303.14688 301.82812 303.58438Q301.34375 304.00626 301.34375 305.19376L301.34375 308.6L300.29688 308.6ZM309.59375 307.6625L309.75 308.58438Q309.29688 308.67813 308.95312 308.67813Q308.375 308.67813 308.0625 308.50626Q307.75 308.31876 307.60938 308.02188Q307.48438 307.725 307.48438 306.77188L307.48438 303.19376L306.71875 303.19376L306.71875 302.38126L307.48438 302.38126L307.48438 300.83438L308.53125 300.20938L308.53125 302.38126L309.59375 302.38126L309.59375 303.19376L308.53125 303.19376L308.53125 306.83438Q308.53125 307.2875 308.57812 307.4125Q308.64062 307.5375 308.76562 307.61563Q308.89062 307.69376 309.125 307.69376Q309.3125 307.69376 309.59375 307.6625ZM313.0 306.35L314.10938 306.25626Q314.23438 307.06876 314.67188 307.475Q315.125 307.88126 315.76562 307.88126Q316.51562 307.88126 317.04688 307.30313Q317.57812 306.725 317.57812 305.7875Q317.57812 304.88126 317.0625 304.36563Q316.5625 303.83438 315.73438 303.83438Q315.23438 303.83438 314.8125 304.06876Q314.40625 304.30313 314.17188 304.6625L313.1875 304.5375L314.01562 300.13126L318.29688 300.13126L318.29688 301.13126L314.85938 301.13126L314.40625 303.44376Q315.17188 302.89688 316.01562 302.89688Q317.14062 302.89688 317.90625 303.67813Q318.6875 304.45938 318.6875 305.69376Q318.6875 306.85 318.01562 307.70938Q317.1875 308.74063 315.76562 308.74063Q314.59375 308.74063 313.84375 308.08438Q313.10938 307.42813 313.0 306.35Z" fill-rule="nonzero"/><path fill="#000000" d="M326.29132 305.83438L327.35382 305.74063Q327.43195 306.39688 327.7132 306.80313Q327.99445 307.20938 328.57257 307.475Q329.16632 307.725 329.9007 307.725Q330.54132 307.725 331.04132 307.5375Q331.54132 307.33438 331.7757 307.00626Q332.0257 306.6625 332.0257 306.27188Q332.0257 305.86563 331.79132 305.56876Q331.55695 305.25626 331.0257 305.05313Q330.66632 304.9125 329.47882 304.63126Q328.30695 304.35 327.8382 304.1Q327.2132 303.77188 326.91632 303.30313Q326.61945 302.81876 326.61945 302.225Q326.61945 301.58438 326.97882 301.02188Q327.35382 300.44376 328.05695 300.1625Q328.7757 299.86563 329.63507 299.86563Q330.5882 299.86563 331.32257 300.17813Q332.05695 300.475 332.44757 301.08438Q332.8382 301.67813 332.86945 302.42813L331.7757 302.50626Q331.68195 301.69376 331.16632 301.2875Q330.66632 300.86563 329.68195 300.86563Q328.6507 300.86563 328.18195 301.24063Q327.7132 301.61563 327.7132 302.14688Q327.7132 302.61563 328.04132 302.9125Q328.36945 303.20938 329.74445 303.52188Q331.13507 303.83438 331.6507 304.06876Q332.4007 304.42813 332.76007 304.95938Q333.11945 305.475 333.11945 306.17813Q333.11945 306.86563 332.72882 307.475Q332.3382 308.06876 331.60382 308.4125Q330.86945 308.74063 329.94757 308.74063Q328.7757 308.74063 327.97882 308.4125Q327.19757 308.06876 326.74445 307.38126Q326.30695 306.69376 326.29132 305.83438ZM334.54132 310.99063L334.54132 302.38126L335.49445 302.38126L335.49445 303.17813Q335.8382 302.70938 336.26007 302.475Q336.69757 302.24063 337.30695 302.24063Q338.10382 302.24063 338.7132 302.64688Q339.32257 303.05313 339.61945 303.80313Q339.93195 304.55313 339.93195 305.44376Q339.93195 306.39688 339.5882 307.1625Q339.26007 307.92813 338.60382 308.33438Q337.94757 308.74063 337.22882 308.74063Q336.69757 308.74063 336.2757 308.52188Q335.85382 308.2875 335.5882 307.95938L335.5882 310.99063L334.54132 310.99063ZM335.49445 305.52188Q335.49445 306.725 335.97882 307.30313Q336.4632 307.86563 337.1507 307.86563Q337.85382 307.86563 338.35382 307.27188Q338.85382 306.67813 338.85382 305.42813Q338.85382 304.24063 338.36945 303.6625Q337.88507 303.06876 337.19757 303.06876Q336.5257 303.06876 336.01007 303.69376Q335.49445 304.31876 335.49445 305.52188ZM341.5257 308.6L341.5257 302.38126L342.47882 302.38126L342.47882 303.31876Q342.8382 302.6625 343.13507 302.45938Q343.44757 302.24063 343.82257 302.24063Q344.35382 302.24063 344.9007 302.56876L344.54132 303.55313Q344.1507 303.31876 343.7757 303.31876Q343.41632 303.31876 343.13507 303.5375Q342.86945 303.74063 342.76007 304.11563Q342.57257 304.67813 342.57257 305.33438L342.57257 308.6L341.5257 308.6ZM345.54132 301.225L345.54132 300.00626L346.60382 300.00626L346.60382 301.225L345.54132 301.225ZM345.54132 308.6L345.54132 302.38126L346.60382 302.38126L346.60382 308.6L345.54132 308.6ZM348.54132 308.6L348.54132 302.38126L349.47882 302.38126L349.47882 303.25626Q350.16632 302.24063 351.4632 302.24063Q352.0257 302.24063 352.49445 302.44376Q352.97882 302.64688 353.2132 302.975Q353.44757 303.30313 353.54132 303.74063Q353.5882 304.0375 353.5882 304.77188L353.5882 308.6L352.54132 308.6L352.54132 304.81876Q352.54132 304.1625 352.41632 303.85Q352.29132 303.5375 351.97882 303.35Q351.66632 303.14688 351.24445 303.14688Q350.57257 303.14688 350.07257 303.58438Q349.5882 304.00626 349.5882 305.19376L349.5882 308.6L348.54132 308.6ZM357.8382 307.6625L357.99445 308.58438Q357.54132 308.67813 357.19757 308.67813Q356.61945 308.67813 356.30695 308.50626Q355.99445 308.31876 355.85382 308.02188Q355.72882 307.725 355.72882 306.77188L355.72882 303.19376L354.9632 303.19376L354.9632 302.38126L355.72882 302.38126L355.72882 300.83438L356.7757 300.20938L356.7757 302.38126L357.8382 302.38126L357.8382 303.19376L356.7757 303.19376L356.7757 306.83438Q356.7757 307.2875 356.82257 307.4125Q356.88507 307.5375 357.01007 307.61563Q357.13507 307.69376 357.36945 307.69376Q357.55695 307.69376 357.8382 307.6625ZM366.7132 302.11563L365.66632 302.19376Q365.5257 301.56876 365.2757 301.2875Q364.8382 300.83438 364.2132 300.83438Q363.7132 300.83438 363.32257 301.11563Q362.8382 301.49063 362.54132 302.19376Q362.26007 302.88126 362.24445 304.1625Q362.61945 303.58438 363.16632 303.30313Q363.72882 303.02188 364.3382 303.02188Q365.38507 303.02188 366.11945 303.80313Q366.86945 304.58438 366.86945 305.80313Q366.86945 306.61563 366.51007 307.31876Q366.16632 308.00626 365.55695 308.38126Q364.94757 308.74063 364.18195 308.74063Q362.85382 308.74063 362.0257 307.77188Q361.19757 306.80313 361.19757 304.58438Q361.19757 302.08438 362.11945 300.95938Q362.91632 299.975 364.2757 299.975Q365.29132 299.975 365.93195 300.55313Q366.5882 301.11563 366.7132 302.11563ZM362.41632 305.81876Q362.41632 306.36563 362.63507 306.86563Q362.86945 307.35 363.2757 307.61563Q363.69757 307.88126 364.16632 307.88126Q364.82257 307.88126 365.30695 307.35Q365.79132 306.80313 365.79132 305.88126Q365.79132 304.99063 365.30695 304.475Q364.8382 303.95938 364.11945 303.95938Q363.4007 303.95938 362.9007 304.475Q362.41632 304.99063 362.41632 305.81876Z" fill-rule="nonzero"/><path fill="#000000" d="M374.53577 305.83438L375.59827 305.74063Q375.6764 306.39688 375.95764 306.80313Q376.2389 307.20938 376.81702 307.475Q377.41077 307.725 378.14514 307.725Q378.78577 307.725 379.28577 307.5375Q379.78577 307.33438 380.02014 307.00626Q380.27014 306.6625 380.27014 306.27188Q380.27014 305.86563 380.03577 305.56876Q379.8014 305.25626 379.27014 305.05313Q378.91077 304.9125 377.72327 304.63126Q376.5514 304.35 376.08264 304.1Q375.45764 303.77188 375.16077 303.30313Q374.8639 302.81876 374.8639 302.225Q374.8639 301.58438 375.22327 301.02188Q375.59827 300.44376 376.3014 300.1625Q377.02014 299.86563 377.87952 299.86563Q378.83264 299.86563 379.56702 300.17813Q380.3014 300.475 380.69202 301.08438Q381.08264 301.67813 381.1139 302.42813L380.02014 302.50626Q379.9264 301.69376 379.41077 301.2875Q378.91077 300.86563 377.9264 300.86563Q376.89514 300.86563 376.4264 301.24063Q375.95764 301.61563 375.95764 302.14688Q375.95764 302.61563 376.28577 302.9125Q376.6139 303.20938 377.9889 303.52188Q379.37952 303.83438 379.89514 304.06876Q380.64514 304.42813 381.00452 304.95938Q381.3639 305.475 381.3639 306.17813Q381.3639 306.86563 380.97327 307.475Q380.58264 308.06876 379.84827 308.4125Q379.1139 308.74063 378.19202 308.74063Q377.02014 308.74063 376.22327 308.4125Q375.44202 308.06876 374.9889 307.38126Q374.5514 306.69376 374.53577 305.83438ZM382.78577 310.99063L382.78577 302.38126L383.7389 302.38126L383.7389 303.17813Q384.08264 302.70938 384.50452 302.475Q384.94202 302.24063 385.5514 302.24063Q386.34827 302.24063 386.95764 302.64688Q387.56702 303.05313 387.8639 303.80313Q388.1764 304.55313 388.1764 305.44376Q388.1764 306.39688 387.83264 307.1625Q387.50452 307.92813 386.84827 308.33438Q386.19202 308.74063 385.47327 308.74063Q384.94202 308.74063 384.52014 308.52188Q384.09827 308.2875 383.83264 307.95938L383.83264 310.99063L382.78577 310.99063ZM383.7389 305.52188Q383.7389 306.725 384.22327 307.30313Q384.70764 307.86563 385.39514 307.86563Q386.09827 307.86563 386.59827 307.27188Q387.09827 306.67813 387.09827 305.42813Q387.09827 304.24063 386.6139 303.6625Q386.12952 303.06876 385.44202 303.06876Q384.77014 303.06876 384.25452 303.69376Q383.7389 304.31876 383.7389 305.52188ZM389.77014 308.6L389.77014 302.38126L390.72327 302.38126L390.72327 303.31876Q391.08264 302.6625 391.37952 302.45938Q391.69202 302.24063 392.06702 302.24063Q392.59827 302.24063 393.14514 302.56876L392.78577 303.55313Q392.39514 303.31876 392.02014 303.31876Q391.66077 303.31876 391.37952 303.5375Q391.1139 303.74063 391.00452 304.11563Q390.81702 304.67813 390.81702 305.33438L390.81702 308.6L389.77014 308.6ZM393.78577 301.225L393.78577 300.00626L394.84827 300.00626L394.84827 301.225L393.78577 301.225ZM393.78577 308.6L393.78577 302.38126L394.84827 302.38126L394.84827 308.6L393.78577 308.6ZM396.78577 308.6L396.78577 302.38126L397.72327 302.38126L397.72327 303.25626Q398.41077 302.24063 399.70764 302.24063Q400.27014 302.24063 400.7389 302.44376Q401.22327 302.64688 401.45764 302.975Q401.69202 303.30313 401.78577 303.74063Q401.83264 304.0375 401.83264 304.77188L401.83264 308.6L400.78577 308.6L400.78577 304.81876Q400.78577 304.1625 400.66077 303.85Q400.53577 303.5375 400.22327 303.35Q399.91077 303.14688 399.4889 303.14688Q398.81702 303.14688 398.31702 303.58438Q397.83264 304.00626 397.83264 305.19376L397.83264 308.6L396.78577 308.6ZM406.08264 307.6625L406.2389 308.58438Q405.78577 308.67813 405.44202 308.67813Q404.8639 308.67813 404.5514 308.50626Q404.2389 308.31876 404.09827 308.02188Q403.97327 307.725 403.97327 306.77188L403.97327 303.19376L403.20764 303.19376L403.20764 302.38126L403.97327 302.38126L403.97327 300.83438L405.02014 300.20938L405.02014 302.38126L406.08264 302.38126L406.08264 303.19376L405.02014 303.19376L405.02014 306.83438Q405.02014 307.2875 405.06702 307.4125Q405.12952 307.5375 405.25452 307.61563Q405.37952 307.69376 405.6139 307.69376Q405.8014 307.69376 406.08264 307.6625ZM409.5514 301.13126L409.5514 300.11563L415.1139 300.11563L415.1139 300.94376Q414.3014 301.81876 413.4889 303.27188Q412.69202 304.70938 412.25452 306.24063Q411.9264 307.31876 411.84827 308.6L410.75452 308.6Q410.77014 307.58438 411.14514 306.14688Q411.53577 304.70938 412.2389 303.38126Q412.95764 302.05313 413.77014 301.13126L409.5514 301.13126Z" fill-rule="nonzero"/><path fill="#000000" d="M422.7802 305.83438L423.8427 305.74063Q423.92084 306.39688 424.2021 306.80313Q424.48334 307.20938 425.06146 307.475Q425.6552 307.725 426.3896 307.725Q427.0302 307.725 427.5302 307.5375Q428.0302 307.33438 428.2646 307.00626Q428.5146 306.6625 428.5146 306.27188Q428.5146 305.86563 428.2802 305.56876Q428.04584 305.25626 427.5146 305.05313Q427.1552 304.9125 425.9677 304.63126Q424.79584 304.35 424.3271 304.1Q423.7021 303.77188 423.4052 303.30313Q423.10834 302.81876 423.10834 302.225Q423.10834 301.58438 423.4677 301.02188Q423.8427 300.44376 424.54584 300.1625Q425.2646 299.86563 426.12396 299.86563Q427.0771 299.86563 427.81146 300.17813Q428.54584 300.475 428.93646 301.08438Q429.3271 301.67813 429.35834 302.42813L428.2646 302.50626Q428.17084 301.69376 427.6552 301.2875Q427.1552 300.86563 426.17084 300.86563Q425.1396 300.86563 424.67084 301.24063Q424.2021 301.61563 424.2021 302.14688Q424.2021 302.61563 424.5302 302.9125Q424.85834 303.20938 426.23334 303.52188Q427.62396 303.83438 428.1396 304.06876Q428.8896 304.42813 429.24896 304.95938Q429.60834 305.475 429.60834 306.17813Q429.60834 306.86563 429.2177 307.475Q428.8271 308.06876 428.0927 308.4125Q427.35834 308.74063 426.43646 308.74063Q425.2646 308.74063 424.4677 308.4125Q423.68646 308.06876 423.23334 307.38126Q422.79584 306.69376 422.7802 305.83438ZM431.0302 310.99063L431.0302 302.38126L431.98334 302.38126L431.98334 303.17813Q432.3271 302.70938 432.74896 302.475Q433.18646 302.24063 433.79584 302.24063Q434.5927 302.24063 435.2021 302.64688Q435.81146 303.05313 436.10834 303.80313Q436.42084 304.55313 436.42084 305.44376Q436.42084 306.39688 436.0771 307.1625Q435.74896 307.92813 435.0927 308.33438Q434.43646 308.74063 433.7177 308.74063Q433.18646 308.74063 432.7646 308.52188Q432.3427 308.2875 432.0771 307.95938L432.0771 310.99063L431.0302 310.99063ZM431.98334 305.52188Q431.98334 306.725 432.4677 307.30313Q432.9521 307.86563 433.6396 307.86563Q434.3427 307.86563 434.8427 307.27188Q435.3427 306.67813 435.3427 305.42813Q435.3427 304.24063 434.85834 303.6625Q434.37396 303.06876 433.68646 303.06876Q433.0146 303.06876 432.49896 303.69376Q431.98334 304.31876 431.98334 305.52188ZM438.0146 308.6L438.0146 302.38126L438.9677 302.38126L438.9677 303.31876Q439.3271 302.6625 439.62396 302.45938Q439.93646 302.24063 440.31146 302.24063Q440.8427 302.24063 441.3896 302.56876L441.0302 303.55313Q440.6396 303.31876 440.2646 303.31876Q439.9052 303.31876 439.62396 303.5375Q439.35834 303.74063 439.24896 304.11563Q439.06146 304.67813 439.06146 305.33438L439.06146 308.6L438.0146 308.6ZM442.0302 301.225L442.0302 300.00626L443.0927 300.00626L443.0927 301.225L442.0302 301.225ZM442.0302 308.6L442.0302 302.38126L443.0927 302.38126L443.0927 308.6L442.0302 308.6ZM445.0302 308.6L445.0302 302.38126L445.9677 302.38126L445.9677 303.25626Q446.6552 302.24063 447.9521 302.24063Q448.5146 302.24063 448.98334 302.44376Q449.4677 302.64688 449.7021 302.975Q449.93646 303.30313 450.0302 303.74063Q450.0771 304.0375 450.0771 304.77188L450.0771 308.6L449.0302 308.6L449.0302 304.81876Q449.0302 304.1625 448.9052 303.85Q448.7802 303.5375 448.4677 303.35Q448.1552 303.14688 447.73334 303.14688Q447.06146 303.14688 446.56146 303.58438Q446.0771 304.00626 446.0771 305.19376L446.0771 308.6L445.0302 308.6ZM454.3271 307.6625L454.48334 308.58438Q454.0302 308.67813 453.68646 308.67813Q453.10834 308.67813 452.79584 308.50626Q452.48334 308.31876 452.3427 308.02188Q452.2177 307.725 452.2177 306.77188L452.2177 303.19376L451.4521 303.19376L451.4521 302.38126L452.2177 302.38126L452.2177 300.83438L453.2646 300.20938L453.2646 302.38126L454.3271 302.38126L454.3271 303.19376L453.2646 303.19376L453.2646 306.83438Q453.2646 307.2875 453.31146 307.4125Q453.37396 307.5375 453.49896 307.61563Q453.62396 307.69376 453.85834 307.69376Q454.04584 307.69376 454.3271 307.6625ZM459.35834 303.94376Q458.7021 303.69376 458.37396 303.25626Q458.06146 302.80313 458.06146 302.19376Q458.06146 301.25626 458.73334 300.61563Q459.42084 299.975 460.5302 299.975Q461.6552 299.975 462.3427 300.63126Q463.0302 301.2875 463.0302 302.225Q463.0302 302.81876 462.7177 303.25626Q462.4052 303.69376 461.7646 303.94376Q462.56146 304.19376 462.9677 304.77188Q463.37396 305.35 463.37396 306.14688Q463.37396 307.24063 462.5927 307.99063Q461.8271 308.74063 460.54584 308.74063Q459.2802 308.74063 458.49896 307.99063Q457.7177 307.24063 457.7177 306.11563Q457.7177 305.27188 458.1396 304.70938Q458.5771 304.14688 459.35834 303.94376ZM459.1396 302.14688Q459.1396 302.75626 459.5302 303.14688Q459.93646 303.5375 460.56146 303.5375Q461.17084 303.5375 461.56146 303.1625Q461.9521 302.77188 461.9521 302.20938Q461.9521 301.63126 461.54584 301.24063Q461.1396 300.83438 460.54584 300.83438Q459.93646 300.83438 459.5302 301.225Q459.1396 301.61563 459.1396 302.14688ZM458.81146 306.11563Q458.81146 306.56876 459.0146 306.99063Q459.23334 307.4125 459.6552 307.64688Q460.0771 307.88126 460.56146 307.88126Q461.31146 307.88126 461.79584 307.39688Q462.29584 306.9125 462.29584 306.1625Q462.29584 305.39688 461.79584 304.89688Q461.29584 304.39688 460.5302 304.39688Q459.7802 304.39688 459.29584 304.89688Q458.81146 305.38126 458.81146 306.11563Z" fill-rule="nonzero"/><path fill="#000000" d="M471.02466 305.83438L472.08716 305.74063Q472.16528 306.39688 472.44653 306.80313Q472.72778 307.20938 473.3059 307.475Q473.89966 307.725 474.63403 307.725Q475.27466 307.725 475.77466 307.5375Q476.27466 307.33438 476.50903 307.00626Q476.75903 306.6625 476.75903 306.27188Q476.75903 305.86563 476.52466 305.56876Q476.29028 305.25626 475.75903 305.05313Q475.39966 304.9125 474.21216 304.63126Q473.04028 304.35 472.57153 304.1Q471.94653 303.77188 471.64966 303.30313Q471.35278 302.81876 471.35278 302.225Q471.35278 301.58438 471.71216 301.02188Q472.08716 300.44376 472.79028 300.1625Q473.50903 299.86563 474.3684 299.86563Q475.32153 299.86563 476.0559 300.17813Q476.79028 300.475 477.1809 301.08438Q477.57153 301.67813 477.60278 302.42813L476.50903 302.50626Q476.41528 301.69376 475.89966 301.2875Q475.39966 300.86563 474.41528 300.86563Q473.38403 300.86563 472.91528 301.24063Q472.44653 301.61563 472.44653 302.14688Q472.44653 302.61563 472.77466 302.9125Q473.10278 303.20938 474.47778 303.52188Q475.8684 303.83438 476.38403 304.06876Q477.13403 304.42813 477.4934 304.95938Q477.85278 305.475 477.85278 306.17813Q477.85278 306.86563 477.46216 307.475Q477.07153 308.06876 476.33716 308.4125Q475.60278 308.74063 474.6809 308.74063Q473.50903 308.74063 472.71216 308.4125Q471.9309 308.06876 471.47778 307.38126Q471.04028 306.69376 471.02466 305.83438ZM479.27466 310.99063L479.27466 302.38126L480.22778 302.38126L480.22778 303.17813Q480.57153 302.70938 480.9934 302.475Q481.4309 302.24063 482.04028 302.24063Q482.83716 302.24063 483.44653 302.64688Q484.0559 303.05313 484.35278 303.80313Q484.66528 304.55313 484.66528 305.44376Q484.66528 306.39688 484.32153 307.1625Q483.9934 307.92813 483.33716 308.33438Q482.6809 308.74063 481.96216 308.74063Q481.4309 308.74063 481.00903 308.52188Q480.58716 308.2875 480.32153 307.95938L480.32153 310.99063L479.27466 310.99063ZM480.22778 305.52188Q480.22778 306.725 480.71216 307.30313Q481.19653 307.86563 481.88403 307.86563Q482.58716 307.86563 483.08716 307.27188Q483.58716 306.67813 483.58716 305.42813Q483.58716 304.24063 483.10278 303.6625Q482.6184 303.06876 481.9309 303.06876Q481.25903 303.06876 480.7434 303.69376Q480.22778 304.31876 480.22778 305.52188ZM486.25903 308.6L486.25903 302.38126L487.21216 302.38126L487.21216 303.31876Q487.57153 302.6625 487.8684 302.45938Q488.1809 302.24063 488.5559 302.24063Q489.08716 302.24063 489.63403 302.56876L489.27466 303.55313Q488.88403 303.31876 488.50903 303.31876Q488.14966 303.31876 487.8684 303.5375Q487.60278 303.74063 487.4934 304.11563Q487.3059 304.67813 487.3059 305.33438L487.3059 308.6L486.25903 308.6ZM490.27466 301.225L490.27466 300.00626L491.33716 300.00626L491.33716 301.225L490.27466 301.225ZM490.27466 308.6L490.27466 302.38126L491.33716 302.38126L491.33716 308.6L490.27466 308.6ZM493.27466 308.6L493.27466 302.38126L494.21216 302.38126L494.21216 303.25626Q494.89966 302.24063 496.19653 302.24063Q496.75903 302.24063 497.22778 302.44376Q497.71216 302.64688 497.94653 302.975Q498.1809 303.30313 498.27466 303.74063Q498.32153 304.0375 498.32153 304.77188L498.32153 308.6L497.27466 308.6L497.27466 304.81876Q497.27466 304.1625 497.14966 303.85Q497.02466 303.5375 496.71216 303.35Q496.39966 303.14688 495.97778 303.14688Q495.3059 303.14688 494.8059 303.58438Q494.32153 304.00626 494.32153 305.19376L494.32153 308.6L493.27466 308.6ZM502.57153 307.6625L502.72778 308.58438Q502.27466 308.67813 501.9309 308.67813Q501.35278 308.67813 501.04028 308.50626Q500.72778 308.31876 500.58716 308.02188Q500.46216 307.725 500.46216 306.77188L500.46216 303.19376L499.69653 303.19376L499.69653 302.38126L500.46216 302.38126L500.46216 300.83438L501.50903 300.20938L501.50903 302.38126L502.57153 302.38126L502.57153 303.19376L501.50903 303.19376L501.50903 306.83438Q501.50903 307.2875 501.5559 307.4125Q501.6184 307.5375 501.7434 307.61563Q501.8684 307.69376 502.10278 307.69376Q502.29028 307.69376 502.57153 307.6625ZM506.13403 306.61563L507.14966 306.52188Q507.27466 307.24063 507.63403 307.56876Q508.00903 307.88126 508.57153 307.88126Q509.0559 307.88126 509.41528 307.6625Q509.79028 307.42813 510.02466 307.06876Q510.25903 306.69376 510.41528 306.06876Q510.57153 305.42813 510.57153 304.77188Q510.57153 304.69376 510.57153 304.55313Q510.25903 305.05313 509.71216 305.38126Q509.16528 305.69376 508.52466 305.69376Q507.44653 305.69376 506.71216 304.92813Q505.97778 304.14688 505.97778 302.88126Q505.97778 301.56876 506.7434 300.77188Q507.52466 299.975 508.6809 299.975Q509.50903 299.975 510.19653 300.42813Q510.89966 300.88126 511.25903 301.725Q511.6184 302.55313 511.6184 304.13126Q511.6184 305.77188 511.25903 306.75626Q510.91528 307.725 510.19653 308.24063Q509.4934 308.74063 508.5559 308.74063Q507.54028 308.74063 506.89966 308.19376Q506.25903 307.63126 506.13403 306.61563ZM510.44653 302.81876Q510.44653 301.9125 509.96216 301.38126Q509.4934 300.85 508.8059 300.85Q508.10278 300.85 507.57153 301.42813Q507.0559 301.99063 507.0559 302.9125Q507.0559 303.725 507.5559 304.24063Q508.0559 304.75626 508.77466 304.75626Q509.50903 304.75626 509.97778 304.24063Q510.44653 303.725 510.44653 302.81876Z" fill-rule="nonzero"/><path fill="#4285f4" d="M139.0 23.4C139.0 26.713709 136.3137 29.4 133.0 29.4C129.6863 29.4 127.0 26.713709 127.0 23.4C127.0 20.086292 129.6863 17.4 133.0 17.4C136.3137 17.4 139.0 20.086292 139.0 23.4Z" fill-rule="nonzero"/><path fill="#1a1a1a" d="M147.95312 27.4L147.95312 18.80625L154.15625 18.80625L154.15625 19.821875L149.09375 19.821875L149.09375 22.446875L153.84375 22.446875L153.84375 23.4625L149.09375 23.4625L149.09375 26.384375L154.35938 26.384375L154.35938 27.4L147.95312 27.4ZM158.10938 27.4L158.10938 19.821875L155.28125 19.821875L155.28125 18.80625L162.09375 18.80625L162.09375 19.821875L159.25 19.821875L159.25 27.4L158.10938 27.4Z" fill-rule="nonzero"/><path fill="#ea4335" d="M190.0 23.4C190.0 26.713709 187.3137 29.4 184.0 29.4C180.6863 29.4 178.0 26.713709 178.0 23.4C178.0 20.086292 180.6863 17.4 184.0 17.4C187.3137 17.4 190.0 20.086292 190.0 23.4Z" fill-rule="nonzero"/><path fill="#1a1a1a" d="M201.375 27.4L198.04688 18.80625L199.28125 18.80625L201.51562 25.05625Q201.78125 25.80625 201.96875 26.4625Q202.17188 25.759375 202.4375 25.05625L204.75 18.80625L205.90625 18.80625L202.54688 27.4L201.375 27.4ZM209.85938 26.634375Q209.26562 27.134375 208.71875 27.3375Q208.1875 27.540625 207.5625 27.540625Q206.53125 27.540625 205.98438 27.040625Q205.4375 26.540625 205.4375 25.759375Q205.4375 25.30625 205.64062 24.93125Q205.84375 24.540625 206.1875 24.321875Q206.53125 24.0875 206.95312 23.978125Q207.25 23.884375 207.89062 23.80625Q209.15625 23.665625 209.76562 23.446875Q209.76562 23.228125 209.76562 23.18125Q209.76562 22.525 209.46875 22.259375Q209.0625 21.915625 208.26562 21.915625Q207.53125 21.915625 207.17188 22.18125Q206.8125 22.43125 206.64062 23.0875L205.60938 22.946875Q205.75 22.290625 206.07812 21.884375Q206.40625 21.478125 207.01562 21.259375Q207.625 21.040625 208.42188 21.040625Q209.21875 21.040625 209.71875 21.228125Q210.21875 21.415625 210.45312 21.696875Q210.6875 21.978125 210.78125 22.415625Q210.82812 22.68125 210.82812 23.384375L210.82812 24.790625Q210.82812 26.259375 210.89062 26.65Q210.96875 27.040625 211.17188 27.4L210.0625 27.4Q209.90625 27.071875 209.85938 26.634375ZM209.76562 24.275Q209.1875 24.509375 208.04688 24.68125Q207.39062 24.775 207.125 24.9Q206.85938 25.009375 206.70312 25.228125Q206.5625 25.446875 206.5625 25.728125Q206.5625 26.15 206.875 26.43125Q207.20312 26.7125 207.8125 26.7125Q208.42188 26.7125 208.89062 26.446875Q209.375 26.18125 209.59375 25.7125Q209.76562 25.353125 209.76562 24.665625L209.76562 24.275ZM212.76562 27.4L212.76562 18.80625L213.82812 18.80625L213.82812 27.4L212.76562 27.4ZM215.40625 24.290625Q215.40625 22.55625 216.35938 21.728125Q217.15625 21.040625 218.3125 21.040625Q219.59375 21.040625 220.40625 21.884375Q221.23438 22.7125 221.23438 24.196875Q221.23438 25.4 220.875 26.0875Q220.51562 26.775 219.8125 27.165625Q219.125 27.540625 218.3125 27.540625Q217.01562 27.540625 216.20312 26.7125Q215.40625 25.86875 215.40625 24.290625ZM216.48438 24.290625Q216.48438 25.478125 217.0 26.071875Q217.53125 26.665625 218.3125 26.665625Q219.10938 26.665625 219.625 26.071875Q220.14062 25.478125 220.14062 24.259375Q220.14062 23.103125 219.60938 22.509375Q219.09375 21.915625 218.3125 21.915625Q217.53125 21.915625 217.0 22.509375Q216.48438 23.0875 216.48438 24.290625ZM222.78125 27.4L222.78125 21.18125L223.73438 21.18125L223.73438 22.11875Q224.09375 21.4625 224.39062 21.259375Q224.70312 21.040625 225.07812 21.040625Q225.60938 21.040625 226.15625 21.36875L225.79688 22.353125Q225.40625 22.11875 225.03125 22.11875Q224.67188 22.11875 224.39062 22.3375Q224.125 22.540625 224.01562 22.915625Q223.82812 23.478125 223.82812 24.134375L223.82812 27.4L222.78125 27.4ZM231.04688 25.4L232.14062 25.525Q231.89062 26.478125 231.1875 27.009375Q230.48438 27.540625 229.40625 27.540625Q228.04688 27.540625 227.23438 26.696875Q226.4375 25.853125 226.4375 24.3375Q226.4375 22.775 227.25 21.915625Q228.0625 21.040625 229.34375 21.040625Q230.59375 21.040625 231.375 21.884375Q232.17188 22.728125 232.17188 24.275Q232.17188 24.36875 232.17188 24.55625L227.53125 24.55625Q227.59375 25.5875 228.10938 26.134375Q228.625 26.665625 229.40625 26.665625Q229.98438 26.665625 230.39062 26.36875Q230.8125 26.05625 231.04688 25.4ZM227.59375 23.696875L231.0625 23.696875Q231.0 22.9 230.67188 22.509375Q230.15625 21.9 229.35938 21.9Q228.625 21.9 228.125 22.384375Q227.64062 22.86875 227.59375 23.696875ZM240.85938 26.634375Q240.26562 27.134375 239.71875 27.3375Q239.1875 27.540625 238.5625 27.540625Q237.53125 27.540625 236.98438 27.040625Q236.4375 26.540625 236.4375 25.759375Q236.4375 25.30625 236.64062 24.93125Q236.84375 24.540625 237.1875 24.321875Q237.53125 24.0875 237.95312 23.978125Q238.25 23.884375 238.89062 23.80625Q240.15625 23.665625 240.76562 23.446875Q240.76562 23.228125 240.76562 23.18125Q240.76562 22.525 240.46875 22.259375Q240.0625 21.915625 239.26562 21.915625Q238.53125 21.915625 238.17188 22.18125Q237.8125 22.43125 237.64062 23.0875L236.60938 22.946875Q236.75 22.290625 237.07812 21.884375Q237.40625 21.478125 238.01562 21.259375Q238.625 21.040625 239.42188 21.040625Q240.21875 21.040625 240.71875 21.228125Q241.21875 21.415625 241.45312 21.696875Q241.6875 21.978125 241.78125 22.415625Q241.82812 22.68125 241.82812 23.384375L241.82812 24.790625Q241.82812 26.259375 241.89062 26.65Q241.96875 27.040625 242.17188 27.4L241.0625 27.4Q240.90625 27.071875 240.85938 26.634375ZM240.76562 24.275Q240.1875 24.509375 239.04688 24.68125Q238.39062 24.775 238.125 24.9Q237.85938 25.009375 237.70312 25.228125Q237.5625 25.446875 237.5625 25.728125Q237.5625 26.15 237.875 26.43125Q238.20312 26.7125 238.8125 26.7125Q239.42188 26.7125 239.89062 26.446875Q240.375 26.18125 240.59375 25.7125Q240.76562 25.353125 240.76562 24.665625L240.76562 24.275ZM247.85938 25.11875L248.89062 25.259375Q248.71875 26.321875 248.01562 26.93125Q247.3125 27.540625 246.29688 27.540625Q245.01562 27.540625 244.23438 26.7125Q243.46875 25.86875 243.46875 24.30625Q243.46875 23.30625 243.79688 22.55625Q244.14062 21.790625 244.8125 21.415625Q245.5 21.040625 246.3125 21.040625Q247.3125 21.040625 247.95312 21.55625Q248.60938 22.05625 248.79688 23.009375L247.76562 23.165625Q247.625 22.540625 247.25 22.228125Q246.875 21.9 246.34375 21.9Q245.54688 21.9 245.04688 22.478125Q244.54688 23.040625 244.54688 24.275Q244.54688 25.540625 245.03125 26.103125Q245.51562 26.665625 246.28125 26.665625Q246.90625 26.665625 247.3125 26.290625Q247.73438 25.915625 247.85938 25.11875ZM253.85938 25.11875L254.89062 25.259375Q254.71875 26.321875 254.01562 26.93125Q253.3125 27.540625 252.29688 27.540625Q251.01562 27.540625 250.23438 26.7125Q249.46875 25.86875 249.46875 24.30625Q249.46875 23.30625 249.79688 22.55625Q250.14062 21.790625 250.8125 21.415625Q251.5 21.040625 252.3125 21.040625Q253.3125 21.040625 253.95312 21.55625Q254.60938 22.05625 254.79688 23.009375L253.76562 23.165625Q253.625 22.540625 253.25 22.228125Q252.875 21.9 252.34375 21.9Q251.54688 21.9 251.04688 22.478125Q250.54688 23.040625 250.54688 24.275Q250.54688 25.540625 251.03125 26.103125Q251.51562 26.665625 252.28125 26.665625Q252.90625 26.665625 253.3125 26.290625Q253.73438 25.915625 253.85938 25.11875ZM260.04688 25.4L261.14062 25.525Q260.89062 26.478125 260.1875 27.009375Q259.48438 27.540625 258.40625 27.540625Q257.04688 27.540625 256.23438 26.696875Q255.4375 25.853125 255.4375 24.3375Q255.4375 22.775 256.25 21.915625Q257.0625 21.040625 258.34375 21.040625Q259.59375 21.040625 260.375 21.884375Q261.17188 22.728125 261.17188 24.275Q261.17188 24.36875 261.17188 24.55625L256.53125 24.55625Q256.59375 25.5875 257.10938 26.134375Q257.625 26.665625 258.40625 26.665625Q258.98438 26.665625 259.39062 26.36875Q259.8125 26.05625 260.04688 25.4ZM256.59375 23.696875L260.0625 23.696875Q260.0 22.9 259.67188 22.509375Q259.15625 21.9 258.35938 21.9Q257.625 21.9 257.125 22.384375Q256.64062 22.86875 256.59375 23.696875ZM265.09375 26.4625L265.25 27.384375Q264.79688 27.478125 264.45312 27.478125Q263.875 27.478125 263.5625 27.30625Q263.25 27.11875 263.10938 26.821875Q262.98438 26.525 262.98438 25.571875L262.98438 21.99375L262.21875 21.99375L262.21875 21.18125L262.98438 21.18125L262.98438 19.634375L264.03125 19.009375L264.03125 21.18125L265.09375 21.18125L265.09375 21.99375L264.03125 21.99375L264.03125 25.634375Q264.03125 26.0875 264.07812 26.2125Q264.14062 26.3375 264.26562 26.415625Q264.39062 26.49375 264.625 26.49375Q264.8125 26.49375 265.09375 26.4625ZM268.09375 26.4625L268.25 27.384375Q267.79688 27.478125 267.45312 27.478125Q266.875 27.478125 266.5625 27.30625Q266.25 27.11875 266.10938 26.821875Q265.98438 26.525 265.98438 25.571875L265.98438 21.99375L265.21875 21.99375L265.21875 21.18125L265.98438 21.18125L265.98438 19.634375L267.03125 19.009375L267.03125 21.18125L268.09375 21.18125L268.09375 21.99375L267.03125 21.99375L267.03125 25.634375Q267.03125 26.0875 267.07812 26.2125Q267.14062 26.3375 267.26562 26.415625Q267.39062 26.49375 267.625 26.49375Q267.8125 26.49375 268.09375 26.4625ZM272.85938 26.634375Q272.26562 27.134375 271.71875 27.3375Q271.1875 27.540625 270.5625 27.540625Q269.53125 27.540625 268.98438 27.040625Q268.4375 26.540625 268.4375 25.759375Q268.4375 25.30625 268.64062 24.93125Q268.84375 24.540625 269.1875 24.321875Q269.53125 24.0875 269.95312 23.978125Q270.25 23.884375 270.89062 23.80625Q272.15625 23.665625 272.76562 23.446875Q272.76562 23.228125 272.76562 23.18125Q272.76562 22.525 272.46875 22.259375Q272.0625 21.915625 271.26562 21.915625Q270.53125 21.915625 270.17188 22.18125Q269.8125 22.43125 269.64062 23.0875L268.60938 22.946875Q268.75 22.290625 269.07812 21.884375Q269.40625 21.478125 270.01562 21.259375Q270.625 21.040625 271.42188 21.040625Q272.21875 21.040625 272.71875 21.228125Q273.21875 21.415625 273.45312 21.696875Q273.6875 21.978125 273.78125 22.415625Q273.82812 22.68125 273.82812 23.384375L273.82812 24.790625Q273.82812 26.259375 273.89062 26.65Q273.96875 27.040625 274.17188 27.4L273.0625 27.4Q272.90625 27.071875 272.85938 26.634375ZM272.76562 24.275Q272.1875 24.509375 271.04688 24.68125Q270.39062 24.775 270.125 24.9Q269.85938 25.009375 269.70312 25.228125Q269.5625 25.446875 269.5625 25.728125Q269.5625 26.15 269.875 26.43125Q270.20312 26.7125 270.8125 26.7125Q271.42188 26.7125 271.89062 26.446875Q272.375 26.18125 272.59375 25.7125Q272.76562 25.353125 272.76562 24.665625L272.76562 24.275ZM276.76562 27.4L275.78125 27.4L275.78125 18.80625L276.84375 18.80625L276.84375 21.86875Q277.51562 21.040625 278.54688 21.040625Q279.125 21.040625 279.625 21.275Q280.14062 21.49375 280.46875 21.915625Q280.8125 22.3375 281.0 22.93125Q281.1875 23.525 281.1875 24.196875Q281.1875 25.790625 280.39062 26.665625Q279.59375 27.540625 278.5 27.540625Q277.39062 27.540625 276.76562 26.61875L276.76562 27.4ZM276.75 24.24375Q276.75 25.353125 277.0625 25.853125Q277.5625 26.665625 278.40625 26.665625Q279.09375 26.665625 279.59375 26.071875Q280.10938 25.478125 280.10938 24.275Q280.10938 23.05625 279.625 22.478125Q279.14062 21.9 278.45312 21.9Q277.76562 21.9 277.25 22.509375Q276.75 23.103125 276.75 24.24375ZM282.79688 20.025L282.79688 18.80625L283.85938 18.80625L283.85938 20.025L282.79688 20.025ZM282.79688 27.4L282.79688 21.18125L283.85938 21.18125L283.85938 27.4L282.79688 27.4ZM285.76562 27.4L285.76562 18.80625L286.82812 18.80625L286.82812 27.4L285.76562 27.4ZM293.04688 25.4L294.14062 25.525Q293.89062 26.478125 293.1875 27.009375Q292.48438 27.540625 291.40625 27.540625Q290.04688 27.540625 289.23438 26.696875Q288.4375 25.853125 288.4375 24.3375Q288.4375 22.775 289.25 21.915625Q290.0625 21.040625 291.34375 21.040625Q292.59375 21.040625 293.375 21.884375Q294.17188 22.728125 294.17188 24.275Q294.17188 24.36875 294.17188 24.55625L289.53125 24.55625Q289.59375 25.5875 290.10938 26.134375Q290.625 26.665625 291.40625 26.665625Q291.98438 26.665625 292.39062 26.36875Q292.8125 26.05625 293.04688 25.4ZM289.59375 23.696875L293.0625 23.696875Q293.0 22.9 292.67188 22.509375Q292.15625 21.9 291.35938 21.9Q290.625 21.9 290.125 22.384375Q289.64062 22.86875 289.59375 23.696875Z" fill-rule="nonzero"/><path fill="#fbbc04" fill-opacity="0.7019608" d="M323.0 23.4C323.0 26.713709 320.31372 29.4 317.0 29.4C313.68628 29.4 311.0 26.713709 311.0 23.4C311.0 20.086292 313.68628 17.4 317.0 17.4C320.31372 17.4 323.0 20.086292 323.0 23.4Z" fill-rule="nonzero"/><path fill="#1a1a1a" d="M334.375 27.4L331.04688 18.80625L332.28125 18.80625L334.51562 25.05625Q334.78125 25.80625 334.96875 26.4625Q335.17188 25.759375 335.4375 25.05625L337.75 18.80625L338.90625 18.80625L335.54688 27.4L334.375 27.4ZM342.85938 26.634375Q342.26562 27.134375 341.71875 27.3375Q341.1875 27.540625 340.5625 27.540625Q339.53125 27.540625 338.98438 27.040625Q338.4375 26.540625 338.4375 25.759375Q338.4375 25.30625 338.64062 24.93125Q338.84375 24.540625 339.1875 24.321875Q339.53125 24.0875 339.95312 23.978125Q340.25 23.884375 340.89062 23.80625Q342.15625 23.665625 342.76562 23.446875Q342.76562 23.228125 342.76562 23.18125Q342.76562 22.525 342.46875 22.259375Q342.0625 21.915625 341.26562 21.915625Q340.53125 21.915625 340.17188 22.18125Q339.8125 22.43125 339.64062 23.0875L338.60938 22.946875Q338.75 22.290625 339.07812 21.884375Q339.40625 21.478125 340.01562 21.259375Q340.625 21.040625 341.42188 21.040625Q342.21875 21.040625 342.71875 21.228125Q343.21875 21.415625 343.45312 21.696875Q343.6875 21.978125 343.78125 22.415625Q343.82812 22.68125 343.82812 23.384375L343.82812 24.790625Q343.82812 26.259375 343.89062 26.65Q343.96875 27.040625 344.17188 27.4L343.0625 27.4Q342.90625 27.071875 342.85938 26.634375ZM342.76562 24.275Q342.1875 24.509375 341.04688 24.68125Q340.39062 24.775 340.125 24.9Q339.85938 25.009375 339.70312 25.228125Q339.5625 25.446875 339.5625 25.728125Q339.5625 26.15 339.875 26.43125Q340.20312 26.7125 340.8125 26.7125Q341.42188 26.7125 341.89062 26.446875Q342.375 26.18125 342.59375 25.7125Q342.76562 25.353125 342.76562 24.665625L342.76562 24.275ZM345.76562 27.4L345.76562 18.80625L346.82812 18.80625L346.82812 27.4L345.76562 27.4ZM348.40625 24.290625Q348.40625 22.55625 349.35938 21.728125Q350.15625 21.040625 351.3125 21.040625Q352.59375 21.040625 353.40625 21.884375Q354.23438 22.7125 354.23438 24.196875Q354.23438 25.4 353.875 26.0875Q353.51562 26.775 352.8125 27.165625Q352.125 27.540625 351.3125 27.540625Q350.01562 27.540625 349.20312 26.7125Q348.40625 25.86875 348.40625 24.290625ZM349.48438 24.290625Q349.48438 25.478125 350.0 26.071875Q350.53125 26.665625 351.3125 26.665625Q352.10938 26.665625 352.625 26.071875Q353.14062 25.478125 353.14062 24.259375Q353.14062 23.103125 352.60938 22.509375Q352.09375 21.915625 351.3125 21.915625Q350.53125 21.915625 350.0 22.509375Q349.48438 23.0875 349.48438 24.290625ZM355.78125 27.4L355.78125 21.18125L356.73438 21.18125L356.73438 22.11875Q357.09375 21.4625 357.39062 21.259375Q357.70312 21.040625 358.07812 21.040625Q358.60938 21.040625 359.15625 21.36875L358.79688 22.353125Q358.40625 22.11875 358.03125 22.11875Q357.67188 22.11875 357.39062 22.3375Q357.125 22.540625 357.01562 22.915625Q356.82812 23.478125 356.82812 24.134375L356.82812 27.4L355.78125 27.4ZM364.04688 25.4L365.14062 25.525Q364.89062 26.478125 364.1875 27.009375Q363.48438 27.540625 362.40625 27.540625Q361.04688 27.540625 360.23438 26.696875Q359.4375 25.853125 359.4375 24.3375Q359.4375 22.775 360.25 21.915625Q361.0625 21.040625 362.34375 21.040625Q363.59375 21.040625 364.375 21.884375Q365.17188 22.728125 365.17188 24.275Q365.17188 24.36875 365.17188 24.55625L360.53125 24.55625Q360.59375 25.5875 361.10938 26.134375Q361.625 26.665625 362.40625 26.665625Q362.98438 26.665625 363.39062 26.36875Q363.8125 26.05625 364.04688 25.4ZM360.59375 23.696875L364.0625 23.696875Q364.0 22.9 363.67188 22.509375Q363.15625 21.9 362.35938 21.9Q361.625 21.9 361.125 22.384375Q360.64062 22.86875 360.59375 23.696875ZM369.57812 23.2125Q369.57812 21.071875 370.71875 19.86875Q371.875 18.65 373.6875 18.65Q374.89062 18.65 375.84375 19.228125Q376.79688 19.790625 377.29688 20.80625Q377.79688 21.821875 377.79688 23.11875Q377.79688 24.415625 377.26562 25.446875Q376.73438 26.478125 375.76562 27.009375Q374.8125 27.540625 373.6875 27.540625Q372.46875 27.540625 371.51562 26.9625Q370.5625 26.36875 370.0625 25.36875Q369.57812 24.353125 369.57812 23.2125ZM370.75 23.228125Q370.75 24.790625 371.57812 25.68125Q372.42188 26.571875 373.6875 26.571875Q374.96875 26.571875 375.79688 25.68125Q376.625 24.775 376.625 23.103125Q376.625 22.05625 376.26562 21.275Q375.92188 20.49375 375.23438 20.071875Q374.54688 19.634375 373.70312 19.634375Q372.5 19.634375 371.625 20.4625Q370.75 21.290625 370.75 23.228125ZM381.09375 26.4625L381.25 27.384375Q380.79688 27.478125 380.45312 27.478125Q379.875 27.478125 379.5625 27.30625Q379.25 27.11875 379.10938 26.821875Q378.98438 26.525 378.98438 25.571875L378.98438 21.99375L378.21875 21.99375L378.21875 21.18125L378.98438 21.18125L378.98438 19.634375L380.03125 19.009375L380.03125 21.18125L381.09375 21.18125L381.09375 21.99375L380.03125 21.99375L380.03125 25.634375Q380.03125 26.0875 380.07812 26.2125Q380.14062 26.3375 380.26562 26.415625Q380.39062 26.49375 380.625 26.49375Q380.8125 26.49375 381.09375 26.4625ZM384.09375 26.4625L384.25 27.384375Q383.79688 27.478125 383.45312 27.478125Q382.875 27.478125 382.5625 27.30625Q382.25 27.11875 382.10938 26.821875Q381.98438 26.525 381.98438 25.571875L381.98438 21.99375L381.21875 21.99375L381.21875 21.18125L381.98438 21.18125L381.98438 19.634375L383.03125 19.009375L383.03125 21.18125L384.09375 21.18125L384.09375 21.99375L383.03125 21.99375L383.03125 25.634375Q383.03125 26.0875 383.07812 26.2125Q383.14062 26.3375 383.26562 26.415625Q383.39062 26.49375 383.625 26.49375Q383.8125 26.49375 384.09375 26.4625ZM384.79688 20.025L384.79688 18.80625L385.85938 18.80625L385.85938 20.025L384.79688 20.025ZM384.79688 27.4L384.79688 21.18125L385.85938 21.18125L385.85938 27.4L384.79688 27.4ZM387.79688 27.4L387.79688 21.18125L388.73438 21.18125L388.73438 22.05625Q389.03125 21.5875 389.51562 21.321875Q390.0 21.040625 390.625 21.040625Q391.3125 21.040625 391.75 21.321875Q392.20312 21.603125 392.375 22.11875Q393.125 21.040625 394.29688 21.040625Q395.23438 21.040625 395.71875 21.55625Q396.21875 22.05625 396.21875 23.134375L396.21875 27.4L395.17188 27.4L395.17188 23.478125Q395.17188 22.853125 395.0625 22.571875Q394.96875 22.290625 394.70312 22.11875Q394.4375 21.946875 394.0625 21.946875Q393.40625 21.946875 392.96875 22.384375Q392.54688 22.821875 392.54688 23.790625L392.54688 27.4L391.48438 27.4L391.48438 23.353125Q391.48438 22.65 391.21875 22.30625Q390.96875 21.946875 390.39062 21.946875Q389.9375 21.946875 389.5625 22.18125Q389.1875 22.415625 389.01562 22.86875Q388.84375 23.321875 388.84375 24.165625L388.84375 27.4L387.79688 27.4ZM398.40625 24.290625Q398.40625 22.55625 399.35938 21.728125Q400.15625 21.040625 401.3125 21.040625Q402.59375 21.040625 403.40625 21.884375Q404.23438 22.7125 404.23438 24.196875Q404.23438 25.4 403.875 26.0875Q403.51562 26.775 402.8125 27.165625Q402.125 27.540625 401.3125 27.540625Q400.01562 27.540625 399.20312 26.7125Q398.40625 25.86875 398.40625 24.290625ZM399.48438 24.290625Q399.48438 25.478125 400.0 26.071875Q400.53125 26.665625 401.3125 26.665625Q402.10938 26.665625 402.625 26.071875Q403.14062 25.478125 403.14062 24.259375Q403.14062 23.103125 402.60938 22.509375Q402.09375 21.915625 401.3125 21.915625Q400.53125 21.915625 400.0 22.509375Q399.48438 23.0875 399.48438 24.290625Z" fill-rule="nonzero"/></svg>