<svg version="1.1" viewBox="0.0 0.0 532.0 328.0" fill="none" stroke="none" stroke-linecap="square" stroke-miterlimit="10" width="532" height="328" xmlns:xlink="http://www.w3.org/1999/xlink" xmlns="http://www.w3.org/2000/svg"><path fill="#ffffff" d="M0 0L532.0 0L532.0 328.0L0 328.0L0 0Z" fill-rule="nonzero"/><path stroke="#333333" stroke-width="1.0" stroke-linecap="butt" d="M81.5 285.5L515.5 285.5" fill-rule="nonzero"/><path stroke="#cccccc" stroke-width="1.0" stroke-linecap="butt" d="M81.5 238.5L515.5 238.5" fill-rule="nonzero"/><path stroke="#cccccc" stroke-width="1.0" stroke-linecap="butt" d="M81.5 190.5L515.5 190.5" fill-rule="nonzero"/><path stroke="#cccccc" stroke-width="1.0" stroke-linecap="butt" d="M81.5 143.5L515.5 143.5" fill-rule="nonzero"/><path stroke="#cccccc" stroke-width="1.0" stroke-linecap="butt" d="M81.5 95.5L515.5 95.5" fill-rule="nonzero"/><path stroke="#cccccc" stroke-width="1.0" stroke-linecap="butt" d="M81.5 48.5L515.5 48.5" fill-rule="nonzero"/><path stroke="#000000" stroke-width="1.0" stroke-linecap="butt" d="M515.5 285.5L81.5 285.5" fill-rule="nonzero"/><path stroke="#000000" stroke-width="1.0" stroke-linecap="butt" d="M81.5 285.5L81.5 48.5" fill-rule="nonzero"/><clipPath id="id_0"><path d="M81.4 48.333332L515.6 48.333332L515.6 285.6L81.4 285.6L81.4 48.333332Z" clip-rule="nonzero"/></clipPath><path stroke="#4285f4" stroke-width="4.0" stroke-linecap="butt" stroke-opacity="0.5019608" clip-path="url(#id_0)" d="M153.76666 48.333332C153.76666 48.333332 250.25555 48.333332 298.5 48.333332C346.74445 48.333332 443.23334 48.333332 443.23334 48.333332" fill-rule="nonzero"/><path stroke="#ea4335" stroke-width="4.0" stroke-linecap="butt" stroke-opacity="0.9019608" clip-path="url(#id_0)" d="M153.76666 285.6C153.76666 285.6 250.25555 87.87778 298.5 48.333332C346.74445 8.788889 443.23334 48.333332 443.23334 48.333332" fill-rule="nonzero"/><path stroke="#fbbc04" stroke-width="4.0" stroke-linecap="butt" stroke-opacity="0.5019608" clip-path="url(#id_0)" d="M153.76666 285.6C153.76666 285.6 250.25555 285.6 298.5 285.6C346.74445 285.6 443.23334 285.6 443.23334 285.6" fill-rule="nonzero"/><path stroke="#34a853" stroke-width="2.0" stroke-linecap="butt" clip-path="url(#id_0)" d="M153.76666 285.6C153.76666 285.6 250.25555 285.6 298.5 285.6C346.74445 285.6 443.23334 285.6 443.23334 285.6" fill-rule="nonzero"/><path fill="#4285f4" fill-opacity="0.5019608" clip-path="url(#id_0)" d="M157.26666 48.333332C157.26666 50.26633 155.69966 51.833332 153.76666 51.833332C151.83366 51.833332 150.26666 50.26633 150.26666 48.333332C150.26666 46.400337 151.83366 44.833332 153.76666 44.833332C155.69966 44.833332 157.26666 46.400337 157.26666 48.333332Z" fill-rule="nonzero"/><path fill="#4285f4" fill-opacity="0.5019608" clip-path="url(#id_0)" d="M302.0 48.333332C302.0 50.26633 300.43298 51.833332 298.5 51.833332C296.56702 51.833332 295.0 50.26633 295.0 48.333332C295.0 46.400337 296.56702 44.833332 298.5 44.833332C300.43298 44.833332 302.0 46.400337 302.0 48.333332Z" fill-rule="nonzero"/><path fill="#4285f4" fill-opacity="0.5019608" clip-path="url(#id_0)" d="M446.73334 48.333332C446.73334 50.26633 445.16632 51.833332 443.23334 51.833332C441.30032 51.833332 439.73334 50.26633 439.73334 48.333332C439.73334 46.400337 441.30032 44.833332 443.23334 44.833332C445.16632 44.833332 446.73334 46.400337 446.73334 48.333332Z" fill-rule="nonzero"/><path fill="#ea4335" fill-opacity="0.9019608" clip-path="url(#id_0)" d="M157.26666 285.6C157.26666 287.533 155.69966 289.1 153.76666 289.1C151.83366 289.1 150.26666 287.533 150.26666 285.6C150.26666 283.667 151.83366 282.1 153.76666 282.1C155.69966 282.1 157.26666 283.667 157.26666 285.6Z" fill-rule="nonzero"/><path fill="#ea4335" fill-opacity="0.9019608" clip-path="url(#id_0)" d="M302.0 48.333332C302.0 50.26633 300.43298 51.833332 298.5 51.833332C296.56702 51.833332 295.0 50.26633 295.0 48.333332C295.0 46.400337 296.56702 44.833332 298.5 44.833332C300.43298 44.833332 302.0 46.400337 302.0 48.333332Z" fill-rule="nonzero"/><path fill="#ea4335" fill-opacity="0.9019608" clip-path="url(#id_0)" d="M446.73334 48.333332C446.73334 50.26633 445.16632 51.833332 443.23334 51.833332C441.30032 51.833332 439.73334 50.26633 439.73334 48.333332C439.73334 46.400337 441.30032 44.833332 443.23334 44.833332C445.16632 44.833332 446.73334 46.400337 446.73334 48.333332Z" fill-rule="nonzero"/><path fill="#fbbc04" fill-opacity="0.5019608" clip-path="url(#id_0)" d="M157.26666 285.6C157.26666 287.533 155.69966 289.1 153.76666 289.1C151.83366 289.1 150.26666 287.533 150.26666 285.6C150.26666 283.667 151.83366 282.1 153.76666 282.1C155.69966 282.1 157.26666 283.667 157.26666 285.6Z" fill-rule="nonzero"/><path fill="#fbbc04" fill-opacity="0.5019608" clip-path="url(#id_0)" d="M302.0 285.6C302.0 287.533 300.43298 289.1 298.5 289.1C296.56702 289.1 295.0 287.533 295.0 285.6C295.0 283.667 296.56702 282.1 298.5 282.1C300.43298 282.1 302.0 283.667 302.0 285.6Z" fill-rule="nonzero"/><path fill="#fbbc04" fill-opacity="0.5019608" clip-path="url(#id_0)" d="M446.73334 285.6C446.73334 287.533 445.16632 289.1 443.23334 289.1C441.30032 289.1 439.73334 287.533 439.73334 285.6C439.73334 283.667 441.30032 282.1 443.23334 282.1C445.16632 282.1 446.73334 283.667 446.73334 285.6Z" fill-rule="nonzero"/><path fill="#34a853" clip-path="url(#id_0)" d="M157.26666 285.6C157.26666 287.533 155.69966 289.1 153.76666 289.1C151.83366 289.1 150.26666 287.533 150.26666 285.6C150.26666 283.667 151.83366 282.1 153.76666 282.1C155.69966 282.1 157.26666 283.667 157.26666 285.6Z" fill-rule="nonzero"/><path fill="#34a853" clip-path="url(#id_0)" d="M302.0 285.6C302.0 287.533 300.43298 289.1 298.5 289.1C296.56702 289.1 295.0 287.533 295.0 285.6C295.0 283.667 296.56702 282.1 298.5 282.1C300.43298 282.1 302.0 283.667 302.0 285.6Z" fill-rule="nonzero"/><path fill="#34a853" clip-path="url(#id_0)" d="M446.73334 285.6C446.73334 287.533 445.16632 289.1 443.23334 289.1C441.30032 289.1 439.73334 287.533 439.73334 285.6C439.73334 283.667 441.30032 282.1 443.23334 282.1C445.16632 282.1 446.73334 283.667 446.73334 285.6Z" fill-rule="nonzero"/><path stroke="#000000" stroke-width="1.0" stroke-linecap="butt" d="M153.5 291.5L153.5 279.5" fill-rule="nonzero"/><path stroke="#000000" stroke-width="1.0" stroke-linecap="butt" d="M298.5 291.5L298.5 279.5" fill-rule="nonzero"/><path stroke="#000000" stroke-width="1.0" stroke-linecap="butt" d="M443.5 291.5L443.5 279.5" fill-rule="nonzero"/><path stroke="#000000" stroke-width="1.0" stroke-linecap="butt" d="M75.5 285.5L87.5 285.5" fill-rule="nonzero"/><path stroke="#000000" stroke-width="1.0" stroke-linecap="butt" d="M75.5 238.5L87.5 238.5" fill-rule="nonzero"/><path stroke="#000000" stroke-width="1.0" stroke-linecap="butt" d="M75.5 190.5L87.5 190.5" fill-rule="nonzero"/><path stroke="#000000" stroke-width="1.0" stroke-linecap="butt" d="M75.5 143.5L87.5 143.5" fill-rule="nonzero"/><path stroke="#000000" stroke-width="1.0" stroke-linecap="butt" d="M75.5 95.5L87.5 95.5" fill-rule="nonzero"/><path stroke="#000000" stroke-width="1.0" stroke-linecap="butt" d="M75.5 48.5L87.5 48.5" fill-rule="nonzero"/><path fill="#000000" d="M62.9 285.36563Q62.9 283.83438 63.2125 282.9125Q63.525 281.975 64.13438 281.475Q64.75938 280.975 65.69688 280.975Q66.38438 280.975 66.9 281.25626Q67.43125 281.5375 67.775 282.06876Q68.11875 282.58438 68.30625 283.33438Q68.49375 284.08438 68.49375 285.36563Q68.49375 286.88126 68.18125 287.80313Q67.88438 288.725 67.25938 289.24063Q66.65 289.74063 65.69688 289.74063Q64.4625 289.74063 63.74375 288.85Q62.9 287.7875 62.9 285.36563ZM63.978127 285.36563Q63.978127 287.475 64.47813 288.17813Q64.97813 288.88126 65.69688 288.88126Q66.43125 288.88126 66.91563 288.17813Q67.41563 287.475 67.41563 285.36563Q67.41563 283.24063 66.91563 282.55313Q66.43125 281.85 65.68125 281.85Q64.9625 281.85 64.525 282.45938Q63.978127 283.24063 63.978127 285.36563Z" fill-rule="nonzero"/><path fill="#000000" d="M61.446877 241.13104L61.446877 242.14667L55.759377 242.14667Q55.759377 241.77167 55.884377 241.4123Q56.103127 240.83417 56.571877 240.27167Q57.05625 239.70917 57.9625 238.9748Q59.36875 237.81854 59.853127 237.14667Q60.353127 236.4748 60.353127 235.88104Q60.353127 235.25604 59.9 234.83417Q59.446877 234.39667 58.728127 234.39667Q57.9625 234.39667 57.509377 234.8498Q57.05625 235.30292 57.040627 236.11542L55.9625 236.00604Q56.071877 234.7873 56.790627 234.1623Q57.525 233.52167 58.759377 233.52167Q59.99375 233.52167 60.7125 234.20917Q61.43125 234.89667 61.43125 235.9123Q61.43125 236.42792 61.2125 236.92792Q61.009377 237.4123 60.509377 237.9748Q60.025 238.52167 58.9 239.4748Q57.946877 240.27167 57.665627 240.56854Q57.4 240.8498 57.228127 241.13104L61.446877 241.13104ZM62.9 237.9123Q62.9 236.38104 63.2125 235.45917Q63.525 234.52167 64.13438 234.02167Q64.75938 233.52167 65.69688 233.52167Q66.38438 233.52167 66.9 233.80292Q67.43125 234.08417 67.775 234.61542Q68.11875 235.13104 68.30625 235.88104Q68.49375 236.63104 68.49375 237.9123Q68.49375 239.42792 68.18125 240.3498Q67.88438 241.27167 67.25938 241.7873Q66.65 242.2873 65.69688 242.2873Q64.4625 242.2873 63.74375 241.39667Q62.9 240.33417 62.9 237.9123ZM63.978127 237.9123Q63.978127 240.02167 64.47813 240.7248Q64.97813 241.42792 65.69688 241.42792Q66.43125 241.42792 66.91563 240.7248Q67.41563 240.02167 67.41563 237.9123Q67.41563 235.7873 66.91563 235.0998Q66.43125 234.39667 65.68125 234.39667Q64.9625 234.39667 64.525 235.00604Q63.978127 235.7873 63.978127 237.9123Z" fill-rule="nonzero"/><path fill="#000000" d="M59.275 194.69333L59.275 192.63083L55.55625 192.63083L55.55625 191.66208L59.478127 186.09958L60.3375 186.09958L60.3375 191.66208L61.49375 191.66208L61.49375 192.63083L60.3375 192.63083L60.3375 194.69333L59.275 194.69333ZM59.275 191.66208L59.275 187.8027L56.5875 191.66208L59.275 191.66208ZM62.9 190.45895Q62.9 188.9277 63.2125 188.00583Q63.525 187.06833 64.13438 186.56833Q64.75938 186.06833 65.69688 186.06833Q66.38438 186.06833 66.9 186.34958Q67.43125 186.63083 67.775 187.16208Q68.11875 187.6777 68.30625 188.4277Q68.49375 189.1777 68.49375 190.45895Q68.49375 191.97458 68.18125 192.89645Q67.88438 193.81833 67.25938 194.33395Q66.65 194.83395 65.69688 194.83395Q64.4625 194.83395 63.74375 193.94333Q62.9 192.88083 62.9 190.45895ZM63.978127 190.45895Q63.978127 192.56833 64.47813 193.27145Q64.97813 193.97458 65.69688 193.97458Q66.43125 193.97458 66.91563 193.27145Q67.41563 192.56833 67.41563 190.45895Q67.41563 188.33395 66.91563 187.64645Q66.43125 186.94333 65.68125 186.94333Q64.9625 186.94333 64.525 187.5527Q63.978127 188.33395 63.978127 190.45895Z" fill-rule="nonzero"/><path fill="#000000" d="M61.36875 140.75563L60.321877 140.83376Q60.18125 140.20876 59.93125 139.9275Q59.49375 139.47438 58.86875 139.47438Q58.36875 139.47438 57.978127 139.75563Q57.49375 140.13063 57.196877 140.83376Q56.915627 141.52126 56.9 142.8025Q57.275 142.22438 57.821877 141.94313Q58.384377 141.66188 58.99375 141.66188Q60.040627 141.66188 60.775 142.44313Q61.525 143.22438 61.525 144.44313Q61.525 145.25563 61.165627 145.95876Q60.821877 146.64626 60.2125 147.02126Q59.603127 147.38063 58.8375 147.38063Q57.509377 147.38063 56.68125 146.41188Q55.853127 145.44313 55.853127 143.22438Q55.853127 140.72438 56.775 139.59938Q57.571877 138.615 58.93125 138.615Q59.946877 138.615 60.5875 139.19313Q61.24375 139.75563 61.36875 140.75563ZM57.071877 144.45876Q57.071877 145.00563 57.290627 145.50563Q57.525 145.99 57.93125 146.25563Q58.353127 146.52126 58.821877 146.52126Q59.478127 146.52126 59.9625 145.99Q60.446877 145.44313 60.446877 144.52126Q60.446877 143.63063 59.9625 143.115Q59.49375 142.59938 58.775 142.59938Q58.05625 142.59938 57.55625 143.115Q57.071877 143.63063 57.071877 144.45876ZM62.9 143.00563Q62.9 141.47438 63.2125 140.5525Q63.525 139.615 64.13438 139.115Q64.75938 138.615 65.69688 138.615Q66.38438 138.615 66.9 138.89626Q67.43125 139.1775 67.775 139.70876Q68.11875 140.22438 68.30625 140.97438Q68.49375 141.72438 68.49375 143.00563Q68.49375 144.52126 68.18125 145.44313Q67.88438 146.365 67.25938 146.88063Q66.65 147.38063 65.69688 147.38063Q64.4625 147.38063 63.74375 146.49Q62.9 145.4275 62.9 143.00563ZM63.978127 143.00563Q63.978127 145.115 64.47813 145.81813Q64.97813 146.52126 65.69688 146.52126Q66.43125 146.52126 66.91563 145.81813Q67.41563 145.115 67.41563 143.00563Q67.41563 140.88063 66.91563 140.19313Q66.43125 139.49 65.68125 139.49Q64.9625 139.49 64.525 140.09938Q63.978127 140.88063 63.978127 143.00563Z" fill-rule="nonzero"/><path fill="#000000" d="M57.525 95.13042Q56.86875 94.88042 56.540627 94.44292Q56.228127 93.98979 56.228127 93.38042Q56.228127 92.44292 56.9 91.80229Q57.5875 91.16167 58.696877 91.16167Q59.821877 91.16167 60.509377 91.81792Q61.196877 92.47417 61.196877 93.41167Q61.196877 94.00542 60.884377 94.44292Q60.571877 94.88042 59.93125 95.13042Q60.728127 95.38042 61.134377 95.95854Q61.540627 96.53667 61.540627 97.33354Q61.540627 98.42729 60.759377 99.17729Q59.99375 99.92729 58.7125 99.92729Q57.446877 99.92729 56.665627 99.17729Q55.884377 98.42729 55.884377 97.30229Q55.884377 96.45854 56.30625 95.89604Q56.74375 95.33354 57.525 95.13042ZM57.30625 93.33354Q57.30625 93.94292 57.696877 94.33354Q58.103127 94.72417 58.728127 94.72417Q59.3375 94.72417 59.728127 94.34917Q60.11875 93.95854 60.11875 93.39604Q60.11875 92.81792 59.7125 92.42729Q59.30625 92.02104 58.7125 92.02104Q58.103127 92.02104 57.696877 92.41167Q57.30625 92.80229 57.30625 93.33354ZM56.978127 97.30229Q56.978127 97.75542 57.18125 98.17729Q57.4 98.59917 57.821877 98.83354Q58.24375 99.06792 58.728127 99.06792Q59.478127 99.06792 59.9625 98.58354Q60.4625 98.09917 60.4625 97.34917Q60.4625 96.58354 59.9625 96.08354Q59.4625 95.58354 58.696877 95.58354Q57.946877 95.58354 57.4625 96.08354Q56.978127 96.56792 56.978127 97.30229ZM62.9 95.55229Q62.9 94.02104 63.2125 93.09917Q63.525 92.16167 64.13438 91.66167Q64.75938 91.16167 65.69688 91.16167Q66.38438 91.16167 66.9 91.44292Q67.43125 91.72417 67.775 92.25542Q68.11875 92.77104 68.30625 93.52104Q68.49375 94.27104 68.49375 95.55229Q68.49375 97.06792 68.18125 97.98979Q67.88438 98.91167 67.25938 99.42729Q66.65 99.92729 65.69688 99.92729Q64.4625 99.92729 63.74375 99.03667Q62.9 97.97417 62.9 95.55229ZM63.978127 95.55229Q63.978127 97.66167 64.47813 98.36479Q64.97813 99.06792 65.69688 99.06792Q66.43125 99.06792 66.91563 98.36479Q67.41563 97.66167 67.41563 95.55229Q67.41563 93.42729 66.91563 92.73979Q66.43125 92.03667 65.68125 92.03667Q64.9625 92.03667 64.525 92.64604Q63.978127 93.42729 63.978127 95.55229Z" fill-rule="nonzero"/><path fill="#000000" d="M52.86875 52.333332L51.821877 52.333332L51.821877 45.614582Q51.43125 45.973957 50.80625 46.348957Q50.196877 46.708332 49.7125 46.880207L49.7125 45.864582Q50.5875 45.442707 51.24375 44.864582Q51.915627 44.270832 52.196877 43.708332L52.86875 43.708332L52.86875 52.333332ZM55.9 48.098957Q55.9 46.567707 56.2125 45.645832Q56.525 44.708332 57.134377 44.208332Q57.759377 43.708332 58.696877 43.708332Q59.384377 43.708332 59.9 43.989582Q60.43125 44.270832 60.775 44.802082Q61.11875 45.317707 61.30625 46.067707Q61.49375 46.817707 61.49375 48.098957Q61.49375 49.614582 61.18125 50.536457Q60.884377 51.458332 60.259377 51.973957Q59.65 52.473957 58.696877 52.473957Q57.4625 52.473957 56.74375 51.583332Q55.9 50.520832 55.9 48.098957ZM56.978127 48.098957Q56.978127 50.208332 57.478127 50.911457Q57.978127 51.614582 58.696877 51.614582Q59.43125 51.614582 59.915627 50.911457Q60.415627 50.208332 60.415627 48.098957Q60.415627 45.973957 59.915627 45.286457Q59.43125 44.583332 58.68125 44.583332Q57.9625 44.583332 57.525 45.192707Q56.978127 45.973957 56.978127 48.098957ZM62.9 48.098957Q62.9 46.567707 63.2125 45.645832Q63.525 44.708332 64.13438 44.208332Q64.75938 43.708332 65.69688 43.708332Q66.38438 43.708332 66.9 43.989582Q67.43125 44.270832 67.775 44.802082Q68.11875 45.317707 68.30625 46.067707Q68.49375 46.817707 68.49375 48.098957Q68.49375 49.614582 68.18125 50.536457Q67.88438 51.458332 67.25938 51.973957Q66.65 52.473957 65.69688 52.473957Q64.4625 52.473957 63.74375 51.583332Q62.9 50.520832 62.9 48.098957ZM63.978127 48.098957Q63.978127 50.208332 64.47813 50.911457Q64.97813 51.614582 65.69688 51.614582Q66.43125 51.614582 66.91563 50.911457Q67.41563 50.208332 67.41563 48.098957Q67.41563 45.973957 66.91563 45.286457Q66.43125 44.583332 65.68125 44.583332Q64.9625 44.583332 64.525 45.192707Q63.978127 45.973957 63.978127 48.098957Z" fill-rule="nonzero"/><path fill="#000000" d="M133.31354 305.83438L134.37604 305.74063Q134.45416 306.39688 134.73541 306.80313Q135.01666 307.20938 135.59479 307.475Q136.18854 307.725 136.92291 307.725Q137.56354 307.725 138.06354 307.5375Q138.56354 307.33438 138.79791 307.00626Q139.04791 306.6625 139.04791 306.27188Q139.04791 305.86563 138.81354 305.56876Q138.57916 305.25626 138.04791 305.05313Q137.68854 304.9125 136.50104 304.63126Q135.32916 304.35 134.86041 304.1Q134.23541 303.77188 133.93854 303.30313Q133.64166 302.81876 133.64166 302.225Q133.64166 301.58438 134.00104 301.02188Q134.37604 300.44376 135.07916 300.1625Q135.79791 299.86563 136.65729 299.86563Q137.61041 299.86563 138.34479 300.17813Q139.07916 300.475 139.46979 301.08438Q139.86041 301.67813 139.89166 302.42813L138.79791 302.50626Q138.70416 301.69376 138.18854 301.2875Q137.68854 300.86563 136.70416 300.86563Q135.67291 300.86563 135.20416 301.24063Q134.73541 301.61563 134.73541 302.14688Q134.73541 302.61563 135.06354 302.9125Q135.39166 303.20938 136.76666 303.52188Q138.15729 303.83438 138.67291 304.06876Q139.42291 304.42813 139.78229 304.95938Q140.14166 305.475 140.14166 306.17813Q140.14166 306.86563 139.75104 307.475Q139.36041 308.06876 138.62604 308.4125Q137.89166 308.74063 136.96979 308.74063Q135.79791 308.74063 135.00104 308.4125Q134.21979 308.06876 133.76666 307.38126Q133.32916 306.69376 133.31354 305.83438ZM141.56354 310.99063L141.56354 302.38126L142.51666 302.38126L142.51666 303.17813Q142.86041 302.70938 143.28229 302.475Q143.71979 302.24063 144.32916 302.24063Q145.12604 302.24063 145.73541 302.64688Q146.34479 303.05313 146.64166 303.80313Q146.95416 304.55313 146.95416 305.44376Q146.95416 306.39688 146.61041 307.1625Q146.28229 307.92813 145.62604 308.33438Q144.96979 308.74063 144.25104 308.74063Q143.71979 308.74063 143.29791 308.52188Q142.87604 308.2875 142.61041 307.95938L142.61041 310.99063L141.56354 310.99063ZM142.51666 305.52188Q142.51666 306.725 143.00104 307.30313Q143.48541 307.86563 144.17291 307.86563Q144.87604 307.86563 145.37604 307.27188Q145.87604 306.67813 145.87604 305.42813Q145.87604 304.24063 145.39166 303.6625Q144.90729 303.06876 144.21979 303.06876Q143.54791 303.06876 143.03229 303.69376Q142.51666 304.31876 142.51666 305.52188ZM148.54791 308.6L148.54791 302.38126L149.50104 302.38126L149.50104 303.31876Q149.86041 302.6625 150.15729 302.45938Q150.46979 302.24063 150.84479 302.24063Q151.37604 302.24063 151.92291 302.56876L151.56354 303.55313Q151.17291 303.31876 150.79791 303.31876Q150.43854 303.31876 150.15729 303.5375Q149.89166 303.74063 149.78229 304.11563Q149.59479 304.67813 149.59479 305.33438L149.59479 308.6L148.54791 308.6ZM152.56354 301.225L152.56354 300.00626L153.62604 300.00626L153.62604 301.225L152.56354 301.225ZM152.56354 308.6L152.56354 302.38126L153.62604 302.38126L153.62604 308.6L152.56354 308.6ZM155.56354 308.6L155.56354 302.38126L156.50104 302.38126L156.50104 303.25626Q157.18854 302.24063 158.48541 302.24063Q159.04791 302.24063 159.51666 302.44376Q160.00104 302.64688 160.23541 302.975Q160.46979 303.30313 160.56354 303.74063Q160.61041 304.0375 160.61041 304.77188L160.61041 308.6L159.56354 308.6L159.56354 304.81876Q159.56354 304.1625 159.43854 303.85Q159.31354 303.5375 159.00104 303.35Q158.68854 303.14688 158.26666 303.14688Q157.59479 303.14688 157.09479 303.58438Q156.61041 304.00626 156.61041 305.19376L156.61041 308.6L155.56354 308.6ZM164.86041 307.6625L165.01666 308.58438Q164.56354 308.67813 164.21979 308.67813Q163.64166 308.67813 163.32916 308.50626Q163.01666 308.31876 162.87604 308.02188Q162.75104 307.725 162.75104 306.77188L162.75104 303.19376L161.98541 303.19376L161.98541 302.38126L162.75104 302.38126L162.75104 300.83438L163.79791 300.20938L163.79791 302.38126L164.86041 302.38126L164.86041 303.19376L163.79791 303.19376L163.79791 306.83438Q163.79791 307.2875 163.84479 307.4125Q163.90729 307.5375 164.03229 307.61563Q164.15729 307.69376 164.39166 307.69376Q164.57916 307.69376 164.86041 307.6625ZM168.42291 306.61563L169.43854 306.52188Q169.56354 307.24063 169.92291 307.56876Q170.29791 307.88126 170.86041 307.88126Q171.34479 307.88126 171.70416 307.6625Q172.07916 307.42813 172.31354 307.06876Q172.54791 306.69376 172.70416 306.06876Q172.86041 305.42813 172.86041 304.77188Q172.86041 304.69376 172.86041 304.55313Q172.54791 305.05313 172.00104 305.38126Q171.45416 305.69376 170.81354 305.69376Q169.73541 305.69376 169.00104 304.92813Q168.26666 304.14688 168.26666 302.88126Q168.26666 301.56876 169.03229 300.77188Q169.81354 299.975 170.96979 299.975Q171.79791 299.975 172.48541 300.42813Q173.18854 300.88126 173.54791 301.725Q173.90729 302.55313 173.90729 304.13126Q173.90729 305.77188 173.54791 306.75626Q173.20416 307.725 172.48541 308.24063Q171.78229 308.74063 170.84479 308.74063Q169.82916 308.74063 169.18854 308.19376Q168.54791 307.63126 168.42291 306.61563ZM172.73541 302.81876Q172.73541 301.9125 172.25104 301.38126Q171.78229 300.85 171.09479 300.85Q170.39166 300.85 169.86041 301.42813Q169.34479 301.99063 169.34479 302.9125Q169.34479 303.725 169.84479 304.24063Q170.34479 304.75626 171.06354 304.75626Q171.79791 304.75626 172.26666 304.24063Q172.73541 303.725 172.73541 302.81876Z" fill-rule="nonzero"/><path fill="#000000" d="M274.54688 305.83438L275.60938 305.74063Q275.6875 306.39688 275.96875 306.80313Q276.25 307.20938 276.82812 307.475Q277.42188 307.725 278.15625 307.725Q278.79688 307.725 279.29688 307.5375Q279.79688 307.33438 280.03125 307.00626Q280.28125 306.6625 280.28125 306.27188Q280.28125 305.86563 280.04688 305.56876Q279.8125 305.25626 279.28125 305.05313Q278.92188 304.9125 277.73438 304.63126Q276.5625 304.35 276.09375 304.1Q275.46875 303.77188 275.17188 303.30313Q274.875 302.81876 274.875 302.225Q274.875 301.58438 275.23438 301.02188Q275.60938 300.44376 276.3125 300.1625Q277.03125 299.86563 277.89062 299.86563Q278.84375 299.86563 279.57812 300.17813Q280.3125 300.475 280.70312 301.08438Q281.09375 301.67813 281.125 302.42813L280.03125 302.50626Q279.9375 301.69376 279.42188 301.2875Q278.92188 300.86563 277.9375 300.86563Q276.90625 300.86563 276.4375 301.24063Q275.96875 301.61563 275.96875 302.14688Q275.96875 302.61563 276.29688 302.9125Q276.625 303.20938 278.0 303.52188Q279.39062 303.83438 279.90625 304.06876Q280.65625 304.42813 281.01562 304.95938Q281.375 305.475 281.375 306.17813Q281.375 306.86563 280.98438 307.475Q280.59375 308.06876 279.85938 308.4125Q279.125 308.74063 278.20312 308.74063Q277.03125 308.74063 276.23438 308.4125Q275.45312 308.06876 275.0 307.38126Q274.5625 306.69376 274.54688 305.83438ZM282.79688 310.99063L282.79688 302.38126L283.75 302.38126L283.75 303.17813Q284.09375 302.70938 284.51562 302.475Q284.95312 302.24063 285.5625 302.24063Q286.35938 302.24063 286.96875 302.64688Q287.57812 303.05313 287.875 303.80313Q288.1875 304.55313 288.1875 305.44376Q288.1875 306.39688 287.84375 307.1625Q287.51562 307.92813 286.85938 308.33438Q286.20312 308.74063 285.48438 308.74063Q284.95312 308.74063 284.53125 308.52188Q284.10938 308.2875 283.84375 307.95938L283.84375 310.99063L282.79688 310.99063ZM283.75 305.52188Q283.75 306.725 284.23438 307.30313Q284.71875 307.86563 285.40625 307.86563Q286.10938 307.86563 286.60938 307.27188Q287.10938 306.67813 287.10938 305.42813Q287.10938 304.24063 286.625 303.6625Q286.14062 303.06876 285.45312 303.06876Q284.78125 303.06876 284.26562 303.69376Q283.75 304.31876 283.75 305.52188ZM289.78125 308.6L289.78125 302.38126L290.73438 302.38126L290.73438 303.31876Q291.09375 302.6625 291.39062 302.45938Q291.70312 302.24063 292.07812 302.24063Q292.60938 302.24063 293.15625 302.56876L292.79688 303.55313Q292.40625 303.31876 292.03125 303.31876Q291.67188 303.31876 291.39062 303.5375Q291.125 303.74063 291.01562 304.11563Q290.82812 304.67813 290.82812 305.33438L290.82812 308.6L289.78125 308.6ZM293.79688 301.225L293.79688 300.00626L294.85938 300.00626L294.85938 301.225L293.79688 301.225ZM293.79688 308.6L293.79688 302.38126L294.85938 302.38126L294.85938 308.6L293.79688 308.6ZM296.79688 308.6L296.79688 302.38126L297.73438 302.38126L297.73438 303.25626Q298.42188 302.24063 299.71875 302.24063Q300.28125 302.24063 300.75 302.44376Q301.23438 302.64688 301.46875 302.975Q301.70312 303.30313 301.79688 303.74063Q301.84375 304.0375 301.84375 304.77188L301.84375 308.6L300.79688 308.6L300.79688 304.81876Q300.79688 304.1625 300.67188 303.85Q300.54688 303.5375 300.23438 303.35Q299.92188 303.14688 299.5 303.14688Q298.82812 303.14688 298.32812 303.58438Q297.84375 304.00626 297.84375 305.19376L297.84375 308.6L296.79688 308.6ZM306.09375 307.6625L306.25 308.58438Q305.79688 308.67813 305.45312 308.67813Q304.875 308.67813 304.5625 308.50626Q304.25 308.31876 304.10938 308.02188Q303.98438 307.725 303.98438 306.77188L303.98438 303.19376L303.21875 303.19376L303.21875 302.38126L303.98438 302.38126L303.98438 300.83438L305.03125 300.20938L305.03125 302.38126L306.09375 302.38126L306.09375 303.19376L305.03125 303.19376L305.03125 306.83438Q305.03125 307.2875 305.07812 307.4125Q305.14062 307.5375 305.26562 307.61563Q305.39062 307.69376 305.625 307.69376Q305.8125 307.69376 306.09375 307.6625ZM313.46875 308.6L312.42188 308.6L312.42188 301.88126Q312.03125 302.24063 311.40625 302.61563Q310.79688 302.975 310.3125 303.14688L310.3125 302.13126Q311.1875 301.70938 311.84375 301.13126Q312.51562 300.5375 312.79688 299.975L313.46875 299.975L313.46875 308.6ZM316.5 304.36563Q316.5 302.83438 316.8125 301.9125Q317.125 300.975 317.73438 300.475Q318.35938 299.975 319.29688 299.975Q319.98438 299.975 320.5 300.25626Q321.03125 300.5375 321.375 301.06876Q321.71875 301.58438 321.90625 302.33438Q322.09375 303.08438 322.09375 304.36563Q322.09375 305.88126 321.78125 306.80313Q321.48438 307.725 320.85938 308.24063Q320.25 308.74063 319.29688 308.74063Q318.0625 308.74063 317.34375 307.85Q316.5 306.7875 316.5 304.36563ZM317.57812 304.36563Q317.57812 306.475 318.07812 307.17813Q318.57812 307.88126 319.29688 307.88126Q320.03125 307.88126 320.51562 307.17813Q321.01562 306.475 321.01562 304.36563Q321.01562 302.24063 320.51562 301.55313Q320.03125 300.85 319.28125 300.85Q318.5625 300.85 318.125 301.45938Q317.57812 302.24063 317.57812 304.36563Z" fill-rule="nonzero"/><path fill="#000000" d="M419.2802 305.83438L420.3427 305.74063Q420.42084 306.39688 420.7021 306.80313Q420.98334 307.20938 421.56146 307.475Q422.1552 307.725 422.8896 307.725Q423.5302 307.725 424.0302 307.5375Q424.5302 307.33438 424.7646 307.00626Q425.0146 306.6625 425.0146 306.27188Q425.0146 305.86563 424.7802 305.56876Q424.54584 305.25626 424.0146 305.05313Q423.6552 304.9125 422.4677 304.63126Q421.29584 304.35 420.8271 304.1Q420.2021 303.77188 419.9052 303.30313Q419.60834 302.81876 419.60834 302.225Q419.60834 301.58438 419.9677 301.02188Q420.3427 300.44376 421.04584 300.1625Q421.7646 299.86563 422.62396 299.86563Q423.5771 299.86563 424.31146 300.17813Q425.04584 300.475 425.43646 301.08438Q425.8271 301.67813 425.85834 302.42813L424.7646 302.50626Q424.67084 301.69376 424.1552 301.2875Q423.6552 300.86563 422.67084 300.86563Q421.6396 300.86563 421.17084 301.24063Q420.7021 301.61563 420.7021 302.14688Q420.7021 302.61563 421.0302 302.9125Q421.35834 303.20938 422.73334 303.52188Q424.12396 303.83438 424.6396 304.06876Q425.3896 304.42813 425.74896 304.95938Q426.10834 305.475 426.10834 306.17813Q426.10834 306.86563 425.7177 307.475Q425.3271 308.06876 424.5927 308.4125Q423.85834 308.74063 422.93646 308.74063Q421.7646 308.74063 420.9677 308.4125Q420.18646 308.06876 419.73334 307.38126Q419.29584 306.69376 419.2802 305.83438ZM427.5302 310.99063L427.5302 302.38126L428.48334 302.38126L428.48334 303.17813Q428.8271 302.70938 429.24896 302.475Q429.68646 302.24063 430.29584 302.24063Q431.0927 302.24063 431.7021 302.64688Q432.31146 303.05313 432.60834 303.80313Q432.92084 304.55313 432.92084 305.44376Q432.92084 306.39688 432.5771 307.1625Q432.24896 307.92813 431.5927 308.33438Q430.93646 308.74063 430.2177 308.74063Q429.68646 308.74063 429.2646 308.52188Q428.8427 308.2875 428.5771 307.95938L428.5771 310.99063L427.5302 310.99063ZM428.48334 305.52188Q428.48334 306.725 428.9677 307.30313Q429.4521 307.86563 430.1396 307.86563Q430.8427 307.86563 431.3427 307.27188Q431.8427 306.67813 431.8427 305.42813Q431.8427 304.24063 431.35834 303.6625Q430.87396 303.06876 430.18646 303.06876Q429.5146 303.06876 428.99896 303.69376Q428.48334 304.31876 428.48334 305.52188ZM434.5146 308.6L434.5146 302.38126L435.4677 302.38126L435.4677 303.31876Q435.8271 302.6625 436.12396 302.45938Q436.43646 302.24063 436.81146 302.24063Q437.3427 302.24063 437.8896 302.56876L437.5302 303.55313Q437.1396 303.31876 436.7646 303.31876Q436.4052 303.31876 436.12396 303.5375Q435.85834 303.74063 435.74896 304.11563Q435.56146 304.67813 435.56146 305.33438L435.56146 308.6L434.5146 308.6ZM438.5302 301.225L438.5302 300.00626L439.5927 300.00626L439.5927 301.225L438.5302 301.225ZM438.5302 308.6L438.5302 302.38126L439.5927 302.38126L439.5927 308.6L438.5302 308.6ZM441.5302 308.6L441.5302 302.38126L442.4677 302.38126L442.4677 303.25626Q443.1552 302.24063 444.4521 302.24063Q445.0146 302.24063 445.48334 302.44376Q445.9677 302.64688 446.2021 302.975Q446.43646 303.30313 446.5302 303.74063Q446.5771 304.0375 446.5771 304.77188L446.5771 308.6L445.5302 308.6L445.5302 304.81876Q445.5302 304.1625 445.4052 303.85Q445.2802 303.5375 444.9677 303.35Q444.6552 303.14688 444.23334 303.14688Q443.56146 303.14688 443.06146 303.58438Q442.5771 304.00626 442.5771 305.19376L442.5771 308.6L441.5302 308.6ZM450.8271 307.6625L450.98334 308.58438Q450.5302 308.67813 450.18646 308.67813Q449.60834 308.67813 449.29584 308.50626Q448.98334 308.31876 448.8427 308.02188Q448.7177 307.725 448.7177 306.77188L448.7177 303.19376L447.9521 303.19376L447.9521 302.38126L448.7177 302.38126L448.7177 300.83438L449.7646 300.20938L449.7646 302.38126L450.8271 302.38126L450.8271 303.19376L449.7646 303.19376L449.7646 306.83438Q449.7646 307.2875 449.81146 307.4125Q449.87396 307.5375 449.99896 307.61563Q450.12396 307.69376 450.35834 307.69376Q450.54584 307.69376 450.8271 307.6625ZM458.2021 308.6L457.1552 308.6L457.1552 301.88126Q456.7646 302.24063 456.1396 302.61563Q455.5302 302.975 455.04584 303.14688L455.04584 302.13126Q455.92084 301.70938 456.5771 301.13126Q457.24896 300.5375 457.5302 299.975L458.2021 299.975L458.2021 308.6ZM465.2021 308.6L464.1552 308.6L464.1552 301.88126Q463.7646 302.24063 463.1396 302.61563Q462.5302 302.975 462.04584 303.14688L462.04584 302.13126Q462.92084 301.70938 463.5771 301.13126Q464.24896 300.5375 464.5302 299.975L465.2021 299.975L465.2021 308.6Z" fill-rule="nonzero"/><path fill="#4285f4" fill-opacity="0.5019608" d="M111.0 23.4C111.0 26.713709 108.313705 29.4 105.0 29.4C101.686295 29.4 99.0 26.713709 99.0 23.4C99.0 20.086292 101.686295 17.4 105.0 17.4C108.313705 17.4 111.0 20.086292 111.0 23.4Z" fill-rule="nonzero"/><path fill="#1a1a1a" d="M122.375 27.4L119.046875 18.80625L120.28125 18.80625L122.515625 25.05625Q122.78125 25.80625 122.96875 26.4625Q123.171875 25.759375 123.4375 25.05625L125.75 18.80625L126.90625 18.80625L123.546875 27.4L122.375 27.4ZM130.85938 26.634375Q130.26562 27.134375 129.71875 27.3375Q129.1875 27.540625 128.5625 27.540625Q127.53125 27.540625 126.984375 27.040625Q126.4375 26.540625 126.4375 25.759375Q126.4375 25.30625 126.640625 24.93125Q126.84375 24.540625 127.1875 24.321875Q127.53125 24.0875 127.953125 23.978125Q128.25 23.884375 128.89062 23.80625Q130.15625 23.665625 130.76562 23.446875Q130.76562 23.228125 130.76562 23.18125Q130.76562 22.525 130.46875 22.259375Q130.0625 21.915625 129.26562 21.915625Q128.53125 21.915625 128.17188 22.18125Q127.8125 22.43125 127.640625 23.0875L126.609375 22.946875Q126.75 22.290625 127.078125 21.884375Q127.40625 21.478125 128.01562 21.259375Q128.625 21.040625 129.42188 21.040625Q130.21875 21.040625 130.71875 21.228125Q131.21875 21.415625 131.45312 21.696875Q131.6875 21.978125 131.78125 22.415625Q131.82812 22.68125 131.82812 23.384375L131.82812 24.790625Q131.82812 26.259375 131.89062 26.65Q131.96875 27.040625 132.17188 27.4L131.0625 27.4Q130.90625 27.071875 130.85938 26.634375ZM130.76562 24.275Q130.1875 24.509375 129.04688 24.68125Q128.39062 24.775 128.125 24.9Q127.859375 25.009375 127.703125 25.228125Q127.5625 25.446875 127.5625 25.728125Q127.5625 26.15 127.875 26.43125Q128.20312 26.7125 128.8125 26.7125Q129.42188 26.7125 129.89062 26.446875Q130.375 26.18125 130.59375 25.7125Q130.76562 25.353125 130.76562 24.665625L130.76562 24.275ZM133.76562 27.4L133.76562 18.80625L134.82812 18.80625L134.82812 27.4L133.76562 27.4ZM136.40625 24.290625Q136.40625 22.55625 137.35938 21.728125Q138.15625 21.040625 139.3125 21.040625Q140.59375 21.040625 141.40625 21.884375Q142.23438 22.7125 142.23438 24.196875Q142.23438 25.4 141.875 26.0875Q141.51562 26.775 140.8125 27.165625Q140.125 27.540625 139.3125 27.540625Q138.01562 27.540625 137.20312 26.7125Q136.40625 25.86875 136.40625 24.290625ZM137.48438 24.290625Q137.48438 25.478125 138.0 26.071875Q138.53125 26.665625 139.3125 26.665625Q140.10938 26.665625 140.625 26.071875Q141.14062 25.478125 141.14062 24.259375Q141.14062 23.103125 140.60938 22.509375Q140.09375 21.915625 139.3125 21.915625Q138.53125 21.915625 138.0 22.509375Q137.48438 23.0875 137.48438 24.290625ZM143.78125 27.4L143.78125 21.18125L144.73438 21.18125L144.73438 22.11875Q145.09375 21.4625 145.39062 21.259375Q145.70312 21.040625 146.07812 21.040625Q146.60938 21.040625 147.15625 21.36875L146.79688 22.353125Q146.40625 22.11875 146.03125 22.11875Q145.67188 22.11875 145.39062 22.3375Q145.125 22.540625 145.01562 22.915625Q144.82812 23.478125 144.82812 24.134375L144.82812 27.4L143.78125 27.4ZM152.04688 25.4L153.14062 25.525Q152.89062 26.478125 152.1875 27.009375Q151.48438 27.540625 150.40625 27.540625Q149.04688 27.540625 148.23438 26.696875Q147.4375 25.853125 147.4375 24.3375Q147.4375 22.775 148.25 21.915625Q149.0625 21.040625 150.34375 21.040625Q151.59375 21.040625 152.375 21.884375Q153.17188 22.728125 153.17188 24.275Q153.17188 24.36875 153.17188 24.55625L148.53125 24.55625Q148.59375 25.5875 149.10938 26.134375Q149.625 26.665625 150.40625 26.665625Q150.98438 26.665625 151.39062 26.36875Q151.8125 26.05625 152.04688 25.4ZM148.59375 23.696875L152.0625 23.696875Q152.0 22.9 151.67188 22.509375Q151.15625 21.9 150.35938 21.9Q149.625 21.9 149.125 22.384375Q148.64062 22.86875 148.59375 23.696875ZM157.40625 24.290625Q157.40625 22.55625 158.35938 21.728125Q159.15625 21.040625 160.3125 21.040625Q161.59375 21.040625 162.40625 21.884375Q163.23438 22.7125 163.23438 24.196875Q163.23438 25.4 162.875 26.0875Q162.51562 26.775 161.8125 27.165625Q161.125 27.540625 160.3125 27.540625Q159.01562 27.540625 158.20312 26.7125Q157.40625 25.86875 157.40625 24.290625ZM158.48438 24.290625Q158.48438 25.478125 159.0 26.071875Q159.53125 26.665625 160.3125 26.665625Q161.10938 26.665625 161.625 26.071875Q162.14062 25.478125 162.14062 24.259375Q162.14062 23.103125 161.60938 22.509375Q161.09375 21.915625 160.3125 21.915625Q159.53125 21.915625 159.0 22.509375Q158.48438 23.0875 158.48438 24.290625ZM167.09375 26.4625L167.25 27.384375Q166.79688 27.478125 166.45312 27.478125Q165.875 27.478125 165.5625 27.30625Q165.25 27.11875 165.10938 26.821875Q164.98438 26.525 164.98438 25.571875L164.98438 21.99375L164.21875 21.99375L164.21875 21.18125L164.98438 21.18125L164.98438 19.634375L166.03125 19.009375L166.03125 21.18125L167.09375 21.18125L167.09375 21.99375L166.03125 21.99375L166.03125 25.634375Q166.03125 26.0875 166.07812 26.2125Q166.14062 26.3375 166.26562 26.415625Q166.39062 26.49375 166.625 26.49375Q166.8125 26.49375 167.09375 26.4625ZM170.09375 26.4625L170.25 27.384375Q169.79688 27.478125 169.45312 27.478125Q168.875 27.478125 168.5625 27.30625Q168.25 27.11875 168.10938 26.821875Q167.98438 26.525 167.98438 25.571875L167.98438 21.99375L167.21875 21.99375L167.21875 21.18125L167.98438 21.18125L167.98438 19.634375L169.03125 19.009375L169.03125 21.18125L170.09375 21.18125L170.09375 21.99375L169.03125 21.99375L169.03125 25.634375Q169.03125 26.0875 169.07812 26.2125Q169.14062 26.3375 169.26562 26.415625Q169.39062 26.49375 169.625 26.49375Q169.8125 26.49375 170.09375 26.4625ZM170.79688 20.025L170.79688 18.80625L171.85938 18.80625L171.85938 20.025L170.79688 20.025ZM170.79688 27.4L170.79688 21.18125L171.85938 21.18125L171.85938 27.4L170.79688 27.4ZM173.79688 27.4L173.79688 21.18125L174.73438 21.18125L174.73438 22.05625Q175.03125 21.5875 175.51562 21.321875Q176.0 21.040625 176.625 21.040625Q177.3125 21.040625 177.75 21.321875Q178.20312 21.603125 178.375 22.11875Q179.125 21.040625 180.29688 21.040625Q181.23438 21.040625 181.71875 21.55625Q182.21875 22.05625 182.21875 23.134375L182.21875 27.4L181.17188 27.4L181.17188 23.478125Q181.17188 22.853125 181.0625 22.571875Q180.96875 22.290625 180.70312 22.11875Q180.4375 21.946875 180.0625 21.946875Q179.40625 21.946875 178.96875 22.384375Q178.54688 22.821875 178.54688 23.790625L178.54688 27.4L177.48438 27.4L177.48438 23.353125Q177.48438 22.65 177.21875 22.30625Q176.96875 21.946875 176.39062 21.946875Q175.9375 21.946875 175.5625 22.18125Q175.1875 22.415625 175.01562 22.86875Q174.84375 23.321875 174.84375 24.165625L174.84375 27.4L173.79688 27.4ZM184.40625 24.290625Q184.40625 22.55625 185.35938 21.728125Q186.15625 21.040625 187.3125 21.040625Q188.59375 21.040625 189.40625 21.884375Q190.23438 22.7125 190.23438 24.196875Q190.23438 25.4 189.875 26.0875Q189.51562 26.775 188.8125 27.165625Q188.125 27.540625 187.3125 27.540625Q186.01562 27.540625 185.20312 26.7125Q184.40625 25.86875 184.40625 24.290625ZM185.48438 24.290625Q185.48438 25.478125 186.0 26.071875Q186.53125 26.665625 187.3125 26.665625Q188.10938 26.665625 188.625 26.071875Q189.14062 25.478125 189.14062 24.259375Q189.14062 23.103125 188.60938 22.509375Q188.09375 21.915625 187.3125 21.915625Q186.53125 21.915625 186.0 22.509375Q185.48438 23.0875 185.48438 24.290625Z" fill-rule="nonzero"/><path fill="#ea4335" fill-opacity="0.9019608" d="M219.0 23.4C219.0 26.713709 216.3137 29.4 213.0 29.4C209.6863 29.4 207.0 26.713709 207.0 23.4C207.0 20.086292 209.6863 17.4 213.0 17.4C216.3137 17.4 219.0 20.086292 219.0 23.4Z" fill-rule="nonzero"/><path fill="#1a1a1a" d="M227.9375 27.4L227.9375 18.80625L231.75 18.80625Q232.90625 18.80625 233.5 19.040625Q234.09375 19.275 234.45312 19.86875Q234.8125 20.446875 234.8125 21.15Q234.8125 22.071875 234.21875 22.696875Q233.625 23.321875 232.39062 23.49375Q232.84375 23.7125 233.07812 23.915625Q233.57812 24.36875 234.01562 25.05625L235.51562 27.4L234.07812 27.4L232.95312 25.61875Q232.45312 24.8375 232.125 24.43125Q231.8125 24.025 231.54688 23.86875Q231.29688 23.696875 231.03125 23.61875Q230.84375 23.5875 230.40625 23.5875L229.07812 23.5875L229.07812 27.4L227.9375 27.4ZM229.07812 22.603125L231.53125 22.603125Q232.29688 22.603125 232.73438 22.446875Q233.1875 22.275 233.40625 21.93125Q233.64062 21.571875 233.64062 21.15Q233.64062 20.540625 233.1875 20.15Q232.75 19.759375 231.79688 19.759375L229.07812 19.759375L229.07812 22.603125ZM236.92188 27.4L236.92188 18.80625L239.89062 18.80625Q240.89062 18.80625 241.42188 18.93125Q242.15625 19.103125 242.67188 19.540625Q243.35938 20.11875 243.6875 21.025Q244.03125 21.915625 244.03125 23.05625Q244.03125 24.040625 243.79688 24.790625Q243.57812 25.540625 243.21875 26.040625Q242.85938 26.540625 242.42188 26.821875Q242.0 27.103125 241.40625 27.259375Q240.8125 27.4 240.03125 27.4L236.92188 27.4ZM238.0625 26.384375L239.89062 26.384375Q240.75 26.384375 241.23438 26.228125Q241.71875 26.071875 242.0 25.775Q242.40625 25.384375 242.625 24.696875Q242.85938 24.009375 242.85938 23.040625Q242.85938 21.696875 242.40625 20.978125Q241.96875 20.24375 241.34375 19.99375Q240.875 19.821875 239.875 19.821875L238.0625 19.821875L238.0625 26.384375Z" fill-rule="nonzero"/><path fill="#fbbc04" fill-opacity="0.5019608" d="M276.0 23.4C276.0 26.713709 273.31372 29.4 270.0 29.4C266.68628 29.4 264.0 26.713709 264.0 23.4C264.0 20.086292 266.68628 17.4 270.0 17.4C273.31372 17.4 276.0 20.086292 276.0 23.4Z" fill-rule="nonzero"/><path fill="#1a1a1a" d="M284.9375 27.4L284.9375 18.80625L288.75 18.80625Q289.90625 18.80625 290.5 19.040625Q291.09375 19.275 291.45312 19.86875Q291.8125 20.446875 291.8125 21.15Q291.8125 22.071875 291.21875 22.696875Q290.625 23.321875 289.39062 23.49375Q289.84375 23.7125 290.07812 23.915625Q290.57812 24.36875 291.01562 25.05625L292.51562 27.4L291.07812 27.4L289.95312 25.61875Q289.45312 24.8375 289.125 24.43125Q288.8125 24.025 288.54688 23.86875Q288.29688 23.696875 288.03125 23.61875Q287.84375 23.5875 287.40625 23.5875L286.07812 23.5875L286.07812 27.4L284.9375 27.4ZM286.07812 22.603125L288.53125 22.603125Q289.29688 22.603125 289.73438 22.446875Q290.1875 22.275 290.40625 21.93125Q290.64062 21.571875 290.64062 21.15Q290.64062 20.540625 290.1875 20.15Q289.75 19.759375 288.79688 19.759375L286.07812 19.759375L286.07812 22.603125ZM293.98438 27.4L293.98438 18.80625L299.78125 18.80625L299.78125 19.821875L295.125 19.821875L295.125 22.478125L299.15625 22.478125L299.15625 23.49375L295.125 23.49375L295.125 27.4L293.98438 27.4Z" fill-rule="nonzero"/><path fill="#34a853" d="M328.0 23.4C328.0 26.713709 325.31372 29.4 322.0 29.4C318.68628 29.4 316.0 26.713709 316.0 23.4C316.0 20.086292 318.68628 17.4 322.0 17.4C325.31372 17.4 328.0 20.086292 328.0 23.4Z" fill-rule="nonzero"/><path fill="#1a1a1a" d="M339.375 27.4L336.04688 18.80625L337.28125 18.80625L339.51562 25.05625Q339.78125 25.80625 339.96875 26.4625Q340.17188 25.759375 340.4375 25.05625L342.75 18.80625L343.90625 18.80625L340.54688 27.4L339.375 27.4ZM347.85938 26.634375Q347.26562 27.134375 346.71875 27.3375Q346.1875 27.540625 345.5625 27.540625Q344.53125 27.540625 343.98438 27.040625Q343.4375 26.540625 343.4375 25.759375Q343.4375 25.30625 343.64062 24.93125Q343.84375 24.540625 344.1875 24.321875Q344.53125 24.0875 344.95312 23.978125Q345.25 23.884375 345.89062 23.80625Q347.15625 23.665625 347.76562 23.446875Q347.76562 23.228125 347.76562 23.18125Q347.76562 22.525 347.46875 22.259375Q347.0625 21.915625 346.26562 21.915625Q345.53125 21.915625 345.17188 22.18125Q344.8125 22.43125 344.64062 23.0875L343.60938 22.946875Q343.75 22.290625 344.07812 21.884375Q344.40625 21.478125 345.01562 21.259375Q345.625 21.040625 346.42188 21.040625Q347.21875 21.040625 347.71875 21.228125Q348.21875 21.415625 348.45312 21.696875Q348.6875 21.978125 348.78125 22.415625Q348.82812 22.68125 348.82812 23.384375L348.82812 24.790625Q348.82812 26.259375 348.89062 26.65Q348.96875 27.040625 349.17188 27.4L348.0625 27.4Q347.90625 27.071875 347.85938 26.634375ZM347.76562 24.275Q347.1875 24.509375 346.04688 24.68125Q345.39062 24.775 345.125 24.9Q344.85938 25.009375 344.70312 25.228125Q344.5625 25.446875 344.5625 25.728125Q344.5625 26.15 344.875 26.43125Q345.20312 26.7125 345.8125 26.7125Q346.42188 26.7125 346.89062 26.446875Q347.375 26.18125 347.59375 25.7125Q347.76562 25.353125 347.76562 24.665625L347.76562 24.275ZM350.76562 27.4L350.76562 18.80625L351.82812 18.80625L351.82812 27.4L350.76562 27.4ZM353.40625 24.290625Q353.40625 22.55625 354.35938 21.728125Q355.15625 21.040625 356.3125 21.040625Q357.59375 21.040625 358.40625 21.884375Q359.23438 22.7125 359.23438 24.196875Q359.23438 25.4 358.875 26.0875Q358.51562 26.775 357.8125 27.165625Q357.125 27.540625 356.3125 27.540625Q355.01562 27.540625 354.20312 26.7125Q353.40625 25.86875 353.40625 24.290625ZM354.48438 24.290625Q354.48438 25.478125 355.0 26.071875Q355.53125 26.665625 356.3125 26.665625Q357.10938 26.665625 357.625 26.071875Q358.14062 25.478125 358.14062 24.259375Q358.14062 23.103125 357.60938 22.509375Q357.09375 21.915625 356.3125 21.915625Q355.53125 21.915625 355.0 22.509375Q354.48438 23.0875 354.48438 24.290625ZM360.78125 27.4L360.78125 21.18125L361.73438 21.18125L361.73438 22.11875Q362.09375 21.4625 362.39062 21.259375Q362.70312 21.040625 363.07812 21.040625Q363.60938 21.040625 364.15625 21.36875L363.79688 22.353125Q363.40625 22.11875 363.03125 22.11875Q362.67188 22.11875 362.39062 22.3375Q362.125 22.540625 362.01562 22.915625Q361.82812 23.478125 361.82812 24.134375L361.82812 27.4L360.78125 27.4ZM369.04688 25.4L370.14062 25.525Q369.89062 26.478125 369.1875 27.009375Q368.48438 27.540625 367.40625 27.540625Q366.04688 27.540625 365.23438 26.696875Q364.4375 25.853125 364.4375 24.3375Q364.4375 22.775 365.25 21.915625Q366.0625 21.040625 367.34375 21.040625Q368.59375 21.040625 369.375 21.884375Q370.17188 22.728125 370.17188 24.275Q370.17188 24.36875 370.17188 24.55625L365.53125 24.55625Q365.59375 25.5875 366.10938 26.134375Q366.625 26.665625 367.40625 26.665625Q367.98438 26.665625 368.39062 26.36875Q368.8125 26.05625 369.04688 25.4ZM365.59375 23.696875L369.0625 23.696875Q369.0 22.9 368.67188 22.509375Q368.15625 21.9 367.35938 21.9Q366.625 21.9 366.125 22.384375Q365.64062 22.86875 365.59375 23.696875ZM378.85938 26.634375Q378.26562 27.134375 377.71875 27.3375Q377.1875 27.540625 376.5625 27.540625Q375.53125 27.540625 374.98438 27.040625Q374.4375 26.540625 374.4375 25.759375Q374.4375 25.30625 374.64062 24.93125Q374.84375 24.540625 375.1875 24.321875Q375.53125 24.0875 375.95312 23.978125Q376.25 23.884375 376.89062 23.80625Q378.15625 23.665625 378.76562 23.446875Q378.76562 23.228125 378.76562 23.18125Q378.76562 22.525 378.46875 22.259375Q378.0625 21.915625 377.26562 21.915625Q376.53125 21.915625 376.17188 22.18125Q375.8125 22.43125 375.64062 23.0875L374.60938 22.946875Q374.75 22.290625 375.07812 21.884375Q375.40625 21.478125 376.01562 21.259375Q376.625 21.040625 377.42188 21.040625Q378.21875 21.040625 378.71875 21.228125Q379.21875 21.415625 379.45312 21.696875Q379.6875 21.978125 379.78125 22.415625Q379.82812 22.68125 379.82812 23.384375L379.82812 24.790625Q379.82812 26.259375 379.89062 26.65Q379.96875 27.040625 380.17188 27.4L379.0625 27.4Q378.90625 27.071875 378.85938 26.634375ZM378.76562 24.275Q378.1875 24.509375 377.04688 24.68125Q376.39062 24.775 376.125 24.9Q375.85938 25.009375 375.70312 25.228125Q375.5625 25.446875 375.5625 25.728125Q375.5625 26.15 375.875 26.43125Q376.20312 26.7125 376.8125 26.7125Q377.42188 26.7125 377.89062 26.446875Q378.375 26.18125 378.59375 25.7125Q378.76562 25.353125 378.76562 24.665625L378.76562 24.275ZM385.85938 25.11875L386.89062 25.259375Q386.71875 26.321875 386.01562 26.93125Q385.3125 27.540625 384.29688 27.540625Q383.01562 27.540625 382.23438 26.7125Q381.46875 25.86875 381.46875 24.30625Q381.46875 23.30625 381.79688 22.55625Q382.14062 21.790625 382.8125 21.415625Q383.5 21.040625 384.3125 21.040625Q385.3125 21.040625 385.95312 21.55625Q386.60938 22.05625 386.79688 23.009375L385.76562 23.165625Q385.625 22.540625 385.25 22.228125Q384.875 21.9 384.34375 21.9Q383.54688 21.9 383.04688 22.478125Q382.54688 23.040625 382.54688 24.275Q382.54688 25.540625 383.03125 26.103125Q383.51562 26.665625 384.28125 26.665625Q384.90625 26.665625 385.3125 26.290625Q385.73438 25.915625 385.85938 25.11875ZM391.85938 25.11875L392.89062 25.259375Q392.71875 26.321875 392.01562 26.93125Q391.3125 27.540625 390.29688 27.540625Q389.01562 27.540625 388.23438 26.7125Q387.46875 25.86875 387.46875 24.30625Q387.46875 23.30625 387.79688 22.55625Q388.14062 21.790625 388.8125 21.415625Q389.5 21.040625 390.3125 21.040625Q391.3125 21.040625 391.95312 21.55625Q392.60938 22.05625 392.79688 23.009375L391.76562 23.165625Q391.625 22.540625 391.25 22.228125Q390.875 21.9 390.34375 21.9Q389.54688 21.9 389.04688 22.478125Q388.54688 23.040625 388.54688 24.275Q388.54688 25.540625 389.03125 26.103125Q389.51562 26.665625 390.28125 26.665625Q390.90625 26.665625 391.3125 26.290625Q391.73438 25.915625 391.85938 25.11875ZM398.04688 25.4L399.14062 25.525Q398.89062 26.478125 398.1875 27.009375Q397.48438 27.540625 396.40625 27.540625Q395.04688 27.540625 394.23438 26.696875Q393.4375 25.853125 393.4375 24.3375Q393.4375 22.775 394.25 21.915625Q395.0625 21.040625 396.34375 21.040625Q397.59375 21.040625 398.375 21.884375Q399.17188 22.728125 399.17188 24.275Q399.17188 24.36875 399.17188 24.55625L394.53125 24.55625Q394.59375 25.5875 395.10938 26.134375Q395.625 26.665625 396.40625 26.665625Q396.98438 26.665625 397.39062 26.36875Q397.8125 26.05625 398.04688 25.4ZM394.59375 23.696875L398.0625 23.696875Q398.0 22.9 397.67188 22.509375Q397.15625 21.9 396.35938 21.9Q395.625 21.9 395.125 22.384375Q394.64062 22.86875 394.59375 23.696875ZM403.09375 26.4625L403.25 27.384375Q402.79688 27.478125 402.45312 27.478125Q401.875 27.478125 401.5625 27.30625Q401.25 27.11875 401.10938 26.821875Q400.98438 26.525 400.98438 25.571875L400.98438 21.99375L400.21875 21.99375L400.21875 21.18125L400.98438 21.18125L400.98438 19.634375L402.03125 19.009375L402.03125 21.18125L403.09375 21.18125L403.09375 21.99375L402.03125 21.99375L402.03125 25.634375Q402.03125 26.0875 402.07812 26.2125Q402.14062 26.3375 402.26562 26.415625Q402.39062 26.49375 402.625 26.49375Q402.8125 26.49375 403.09375 26.4625ZM406.09375 26.4625L406.25 27.384375Q405.79688 27.478125 405.45312 27.478125Q404.875 27.478125 404.5625 27.30625Q404.25 27.11875 404.10938 26.821875Q403.98438 26.525 403.98438 25.571875L403.98438 21.99375L403.21875 21.99375L403.21875 21.18125L403.98438 21.18125L403.98438 19.634375L405.03125 19.009375L405.03125 21.18125L406.09375 21.18125L406.09375 21.99375L405.03125 21.99375L405.03125 25.634375Q405.03125 26.0875 405.07812 26.2125Q405.14062 26.3375 405.26562 26.415625Q405.39062 26.49375 405.625 26.49375Q405.8125 26.49375 406.09375 26.4625ZM410.85938 26.634375Q410.26562 27.134375 409.71875 27.3375Q409.1875 27.540625 408.5625 27.540625Q407.53125 27.540625 406.98438 27.040625Q406.4375 26.540625 406.4375 25.759375Q406.4375 25.30625 406.64062 24.93125Q406.84375 24.540625 407.1875 24.321875Q407.53125 24.0875 407.95312 23.978125Q408.25 23.884375 408.89062 23.80625Q410.15625 23.665625 410.76562 23.446875Q410.76562 23.228125 410.76562 23.18125Q410.76562 22.525 410.46875 22.259375Q410.0625 21.915625 409.26562 21.915625Q408.53125 21.915625 408.17188 22.18125Q407.8125 22.43125 407.64062 23.0875L406.60938 22.946875Q406.75 22.290625 407.07812 21.884375Q407.40625 21.478125 408.01562 21.259375Q408.625 21.040625 409.42188 21.040625Q410.21875 21.040625 410.71875 21.228125Q411.21875 21.415625 411.45312 21.696875Q411.6875 21.978125 411.78125 22.415625Q411.82812 22.68125 411.82812 23.384375L411.82812 24.790625Q411.82812 26.259375 411.89062 26.65Q411.96875 27.040625 412.17188 27.4L411.0625 27.4Q410.90625 27.071875 410.85938 26.634375ZM410.76562 24.275Q410.1875 24.509375 409.04688 24.68125Q408.39062 24.775 408.125 24.9Q407.85938 25.009375 407.70312 25.228125Q407.5625 25.446875 407.5625 25.728125Q407.5625 26.15 407.875 26.43125Q408.20312 26.7125 408.8125 26.7125Q409.42188 26.7125 409.89062 26.446875Q410.375 26.18125 410.59375 25.7125Q410.76562 25.353125 410.76562 24.665625L410.76562 24.275ZM414.76562 27.4L413.78125 27.4L413.78125 18.80625L414.84375 18.80625L414.84375 21.86875Q415.51562 21.040625 416.54688 21.040625Q417.125 21.040625 417.625 21.275Q418.14062 21.49375 418.46875 21.915625Q418.8125 22.3375 419.0 22.93125Q419.1875 23.525 419.1875 24.196875Q419.1875 25.790625 418.39062 26.665625Q417.59375 27.540625 416.5 27.540625Q415.39062 27.540625 414.76562 26.61875L414.76562 27.4ZM414.75 24.24375Q414.75 25.353125 415.0625 25.853125Q415.5625 26.665625 416.40625 26.665625Q417.09375 26.665625 417.59375 26.071875Q418.10938 25.478125 418.10938 24.275Q418.10938 23.05625 417.625 22.478125Q417.14062 21.9 416.45312 21.9Q415.76562 21.9 415.25 22.509375Q414.75 23.103125 414.75 24.24375ZM420.79688 20.025L420.79688 18.80625L421.85938 18.80625L421.85938 20.025L420.79688 20.025ZM420.79688 27.4L420.79688 21.18125L421.85938 21.18125L421.85938 27.4L420.79688 27.4ZM423.76562 27.4L423.76562 18.80625L424.82812 18.80625L424.82812 27.4L423.76562 27.4ZM431.04688 25.4L432.14062 25.525Q431.89062 26.478125 431.1875 27.009375Q430.48438 27.540625 429.40625 27.540625Q428.04688 27.540625 427.23438 26.696875Q426.4375 25.853125 426.4375 24.3375Q426.4375 22.775 427.25 21.915625Q428.0625 21.040625 429.34375 21.040625Q430.59375 21.040625 431.375 21.884375Q432.17188 22.728125 432.17188 24.275Q432.17188 24.36875 432.17188 24.55625L427.53125 24.55625Q427.59375 25.5875 428.10938 26.134375Q428.625 26.665625 429.40625 26.665625Q429.98438 26.665625 430.39062 26.36875Q430.8125 26.05625 431.04688 25.4ZM427.59375 23.696875L431.0625 23.696875Q431.0 22.9 430.67188 22.509375Q430.15625 21.9 429.35938 21.9Q428.625 21.9 428.125 22.384375Q427.64062 22.86875 427.59375 23.696875Z" fill-rule="nonzero"/></svg>