<svg version="1.1" viewBox="0.0 0.0 532.0 328.0" fill="none" stroke="none" stroke-linecap="square" stroke-miterlimit="10" width="532" height="328" xmlns:xlink="http://www.w3.org/1999/xlink" xmlns="http://www.w3.org/2000/svg"><path fill="#ffffff" d="M0 0L532.0 0L532.0 328.0L0 328.0L0 0Z" fill-rule="nonzero"/><path stroke="#333333" stroke-width="1.0" stroke-linecap="butt" d="M81.5 285.5L515.5 285.5" fill-rule="nonzero"/><path stroke="#cccccc" stroke-width="1.0" stroke-linecap="butt" d="M81.5 238.5L515.5 238.5" fill-rule="nonzero"/><path stroke="#cccccc" stroke-width="1.0" stroke-linecap="butt" d="M81.5 190.5L515.5 190.5" fill-rule="nonzero"/><path stroke="#cccccc" stroke-width="1.0" stroke-linecap="butt" d="M81.5 143.5L515.5 143.5" fill-rule="nonzero"/><path stroke="#cccccc" stroke-width="1.0" stroke-linecap="butt" d="M81.5 95.5L515.5 95.5" fill-rule="nonzero"/><path stroke="#cccccc" stroke-width="1.0" stroke-linecap="butt" d="M81.5 48.5L515.5 48.5" fill-rule="nonzero"/><path stroke="#000000" stroke-width="1.0" stroke-linecap="butt" d="M515.5 285.5L81.5 285.5" fill-rule="nonzero"/><path stroke="#000000" stroke-width="1.0" stroke-linecap="butt" d="M81.5 285.5L81.5 48.5" fill-rule="nonzero"/><clipPath id="id_0"><path d="M81.4 48.333332L515.6 48.333332L515.6 285.6L81.4 285.6L81.4 48.333332Z" clip-rule="nonzero"/></clipPath><path stroke="#4285f4" stroke-width="4.0" stroke-linecap="butt" stroke-opacity="0.7019608" clip-path="url(#id_0)" d="M153.76666 48.333332C153.76666 48.333332 250.25555 48.333332 298.5 48.333332C346.74445 48.333332 443.23334 48.333332 443.23334 48.333332" fill-rule="nonzero"/><path stroke="#ea4335" stroke-width="2.0" stroke-linecap="butt" clip-path="url(#id_0)" d="M153.76666 182.44058C153.76666 182.44058 250.25555 132.5802 298.5 110.22899C346.74445 87.87778 443.23334 48.333332 443.23334 48.333332" fill-rule="nonzero"/><path stroke="#fbbc04" stroke-width="4.0" stroke-linecap="butt" stroke-opacity="0.5019608" clip-path="url(#id_0)" d="M153.76666 48.333332C153.76666 48.333332 250.25555 48.333332 298.5 48.333332C346.74445 48.333332 443.23334 48.333332 443.23334 48.333332" fill-rule="nonzero"/><path fill="#4285f4" fill-opacity="0.7019608" clip-path="url(#id_0)" d="M157.26666 48.333332C157.26666 50.26633 155.69966 51.833332 153.76666 51.833332C151.83366 51.833332 150.26666 50.26633 150.26666 48.333332C150.26666 46.400337 151.83366 44.833332 153.76666 44.833332C155.69966 44.833332 157.26666 46.400337 157.26666 48.333332Z" fill-rule="nonzero"/><path fill="#4285f4" fill-opacity="0.7019608" clip-path="url(#id_0)" d="M302.0 48.333332C302.0 50.26633 300.43298 51.833332 298.5 51.833332C296.56702 51.833332 295.0 50.26633 295.0 48.333332C295.0 46.400337 296.56702 44.833332 298.5 44.833332C300.43298 44.833332 302.0 46.400337 302.0 48.333332Z" fill-rule="nonzero"/><path fill="#4285f4" fill-opacity="0.7019608" clip-path="url(#id_0)" d="M446.73334 48.333332C446.73334 50.26633 445.16632 51.833332 443.23334 51.833332C441.30032 51.833332 439.73334 50.26633 439.73334 48.333332C439.73334 46.400337 441.30032 44.833332 443.23334 44.833332C445.16632 44.833332 446.73334 46.400337 446.73334 48.333332Z" fill-rule="nonzero"/><path fill="#ea4335" clip-path="url(#id_0)" d="M157.26666 182.44058C157.26666 184.37358 155.69966 185.94058 153.76666 185.94058C151.83366 185.94058 150.26666 184.37358 150.26666 182.44058C150.26666 180.50758 151.83366 178.94058 153.76666 178.94058C155.69966 178.94058 157.26666 180.50758 157.26666 182.44058Z" fill-rule="nonzero"/><path fill="#ea4335" clip-path="url(#id_0)" d="M302.0 110.22899C302.0 112.16198 300.43298 113.72899 298.5 113.72899C296.56702 113.72899 295.0 112.16198 295.0 110.22899C295.0 108.29599 296.56702 106.72899 298.5 106.72899C300.43298 106.72899 302.0 108.29599 302.0 110.22899Z" fill-rule="nonzero"/><path fill="#ea4335" clip-path="url(#id_0)" d="M446.73334 48.333332C446.73334 50.26633 445.16632 51.833332 443.23334 51.833332C441.30032 51.833332 439.73334 50.26633 439.73334 48.333332C439.73334 46.400337 441.30032 44.833332 443.23334 44.833332C445.16632 44.833332 446.73334 46.400337 446.73334 48.333332Z" fill-rule="nonzero"/><path fill="#fbbc04" fill-opacity="0.5019608" clip-path="url(#id_0)" d="M157.26666 48.333332C157.26666 50.26633 155.69966 51.833332 153.76666 51.833332C151.83366 51.833332 150.26666 50.26633 150.26666 48.333332C150.26666 46.400337 151.83366 44.833332 153.76666 44.833332C155.69966 44.833332 157.26666 46.400337 157.26666 48.333332Z" fill-rule="nonzero"/><path fill="#fbbc04" fill-opacity="0.5019608" clip-path="url(#id_0)" d="M302.0 48.333332C302.0 50.26633 300.43298 51.833332 298.5 51.833332C296.56702 51.833332 295.0 50.26633 295.0 48.333332C295.0 46.400337 296.56702 44.833332 298.5 44.833332C300.43298 44.833332 302.0 46.400337 302.0 48.333332Z" fill-rule="nonzero"/><path fill="#fbbc04" fill-opacity="0.5019608" clip-path="url(#id_0)" d="M446.73334 48.333332C446.73334 50.26633 445.16632 51.833332 443.23334 51.833332C441.30032 51.833332 439.73334 50.26633 439.73334 48.333332C439.73334 46.400337 441.30032 44.833332 443.23334 44.833332C445.16632 44.833332 446.73334 46.400337 446.73334 48.333332Z" fill-rule="nonzero"/><path stroke="#000000" stroke-width="1.0" stroke-linecap="butt" d="M153.5 291.5L153.5 279.5" fill-rule="nonzero"/><path stroke="#000000" stroke-width="1.0" stroke-linecap="butt" d="M298.5 291.5L298.5 279.5" fill-rule="nonzero"/><path stroke="#000000" stroke-width="1.0" stroke-linecap="butt" d="M443.5 291.5L443.5 279.5" fill-rule="nonzero"/><path stroke="#000000" stroke-width="1.0" stroke-linecap="butt" d="M75.5 285.5L87.5 285.5" fill-rule="nonzero"/><path stroke="#000000" stroke-width="1.0" stroke-linecap="butt" d="M75.5 238.5L87.5 238.5" fill-rule="nonzero"/><path stroke="#000000" stroke-width="1.0" stroke-linecap="butt" d="M75.5 190.5L87.5 190.5" fill-rule="nonzero"/><path stroke="#000000" stroke-width="1.0" stroke-linecap="butt" d="M75.5 143.5L87.5 143.5" fill-rule="nonzero"/><path stroke="#000000" stroke-width="1.0" stroke-linecap="butt" d="M75.5 95.5L87.5 95.5" fill-rule="nonzero"/><path stroke="#000000" stroke-width="1.0" stroke-linecap="butt" d="M75.5 48.5L87.5 48.5" fill-rule="nonzero"/><path fill="#000000" d="M62.9 285.36563Q62.9 283.83438 63.2125 282.9125Q63.525 281.975 64.13438 281.475Q64.75938 280.975 65.69688 280.975Q66.38438 280.975 66.9 281.25626Q67.43125 281.5375 67.775 282.06876Q68.11875 282.58438 68.30625 283.33438Q68.49375 284.08438 68.49375 285.36563Q68.49375 286.88126 68.18125 287.80313Q67.88438 288.725 67.25938 289.24063Q66.65 289.74063 65.69688 289.74063Q64.4625 289.74063 63.74375 288.85Q62.9 287.7875 62.9 285.36563ZM63.978127 285.36563Q63.978127 287.475 64.47813 288.17813Q64.97813 288.88126 65.69688 288.88126Q66.43125 288.88126 66.91563 288.17813Q67.41563 287.475 67.41563 285.36563Q67.41563 283.24063 66.91563 282.55313Q66.43125 281.85 65.68125 281.85Q64.9625 281.85 64.525 282.45938Q63.978127 283.24063 63.978127 285.36563Z" fill-rule="nonzero"/><path fill="#000000" d="M61.446877 241.13104L61.446877 242.14667L55.759377 242.14667Q55.759377 241.77167 55.884377 241.4123Q56.103127 240.83417 56.571877 240.27167Q57.05625 239.70917 57.9625 238.9748Q59.36875 237.81854 59.853127 237.14667Q60.353127 236.4748 60.353127 235.88104Q60.353127 235.25604 59.9 234.83417Q59.446877 234.39667 58.728127 234.39667Q57.9625 234.39667 57.509377 234.8498Q57.05625 235.30292 57.040627 236.11542L55.9625 236.00604Q56.071877 234.7873 56.790627 234.1623Q57.525 233.52167 58.759377 233.52167Q59.99375 233.52167 60.7125 234.20917Q61.43125 234.89667 61.43125 235.9123Q61.43125 236.42792 61.2125 236.92792Q61.009377 237.4123 60.509377 237.9748Q60.025 238.52167 58.9 239.4748Q57.946877 240.27167 57.665627 240.56854Q57.4 240.8498 57.228127 241.13104L61.446877 241.13104ZM62.9 237.9123Q62.9 236.38104 63.2125 235.45917Q63.525 234.52167 64.13438 234.02167Q64.75938 233.52167 65.69688 233.52167Q66.38438 233.52167 66.9 233.80292Q67.43125 234.08417 67.775 234.61542Q68.11875 235.13104 68.30625 235.88104Q68.49375 236.63104 68.49375 237.9123Q68.49375 239.42792 68.18125 240.3498Q67.88438 241.27167 67.25938 241.7873Q66.65 242.2873 65.69688 242.2873Q64.4625 242.2873 63.74375 241.39667Q62.9 240.33417 62.9 237.9123ZM63.978127 237.9123Q63.978127 240.02167 64.47813 240.7248Q64.97813 241.42792 65.69688 241.42792Q66.43125 241.42792 66.91563 240.7248Q67.41563 240.02167 67.41563 237.9123Q67.41563 235.7873 66.91563 235.0998Q66.43125 234.39667 65.68125 234.39667Q64.9625 234.39667 64.525 235.00604Q63.978127 235.7873 63.978127 237.9123Z" fill-rule="nonzero"/><path fill="#000000" d="M59.275 194.69333L59.275 192.63083L55.55625 192.63083L55.55625 191.66208L59.478127 186.09958L60.3375 186.09958L60.3375 191.66208L61.49375 191.66208L61.49375 192.63083L60.3375 192.63083L60.3375 194.69333L59.275 194.69333ZM59.275 191.66208L59.275 187.8027L56.5875 191.66208L59.275 191.66208ZM62.9 190.45895Q62.9 188.9277 63.2125 188.00583Q63.525 187.06833 64.13438 186.56833Q64.75938 186.06833 65.69688 186.06833Q66.38438 186.06833 66.9 186.34958Q67.43125 186.63083 67.775 187.16208Q68.11875 187.6777 68.30625 188.4277Q68.49375 189.1777 68.49375 190.45895Q68.49375 191.97458 68.18125 192.89645Q67.88438 193.81833 67.25938 194.33395Q66.65 194.83395 65.69688 194.83395Q64.4625 194.83395 63.74375 193.94333Q62.9 192.88083 62.9 190.45895ZM63.978127 190.45895Q63.978127 192.56833 64.47813 193.27145Q64.97813 193.97458 65.69688 193.97458Q66.43125 193.97458 66.91563 193.27145Q67.41563 192.56833 67.41563 190.45895Q67.41563 188.33395 66.91563 187.64645Q66.43125 186.94333 65.68125 186.94333Q64.9625 186.94333 64.525 187.5527Q63.978127 188.33395 63.978127 190.45895Z" fill-rule="nonzero"/><path fill="#000000" d="M61.36875 140.75563L60.321877 140.83376Q60.18125 140.20876 59.93125 139.9275Q59.49375 139.47438 58.86875 139.47438Q58.36875 139.47438 57.978127 139.75563Q57.49375 140.13063 57.196877 140.83376Q56.915627 141.52126 56.9 142.8025Q57.275 142.22438 57.821877 141.94313Q58.384377 141.66188 58.99375 141.66188Q60.040627 141.66188 60.775 142.44313Q61.525 143.22438 61.525 144.44313Q61.525 145.25563 61.165627 145.95876Q60.821877 146.64626 60.2125 147.02126Q59.603127 147.38063 58.8375 147.38063Q57.509377 147.38063 56.68125 146.41188Q55.853127 145.44313 55.853127 143.22438Q55.853127 140.72438 56.775 139.59938Q57.571877 138.615 58.93125 138.615Q59.946877 138.615 60.5875 139.19313Q61.24375 139.75563 61.36875 140.75563ZM57.071877 144.45876Q57.071877 145.00563 57.290627 145.50563Q57.525 145.99 57.93125 146.25563Q58.353127 146.52126 58.821877 146.52126Q59.478127 146.52126 59.9625 145.99Q60.446877 145.44313 60.446877 144.52126Q60.446877 143.63063 59.9625 143.115Q59.49375 142.59938 58.775 142.59938Q58.05625 142.59938 57.55625 143.115Q57.071877 143.63063 57.071877 144.45876ZM62.9 143.00563Q62.9 141.47438 63.2125 140.5525Q63.525 139.615 64.13438 139.115Q64.75938 138.615 65.69688 138.615Q66.38438 138.615 66.9 138.89626Q67.43125 139.1775 67.775 139.70876Q68.11875 140.22438 68.30625 140.97438Q68.49375 141.72438 68.49375 143.00563Q68.49375 144.52126 68.18125 145.44313Q67.88438 146.365 67.25938 146.88063Q66.65 147.38063 65.69688 147.38063Q64.4625 147.38063 63.74375 146.49Q62.9 145.4275 62.9 143.00563ZM63.978127 143.00563Q63.978127 145.115 64.47813 145.81813Q64.97813 146.52126 65.69688 146.52126Q66.43125 146.52126 66.91563 145.81813Q67.41563 145.115 67.41563 143.00563Q67.41563 140.88063 66.91563 140.19313Q66.43125 139.49 65.68125 139.49Q64.9625 139.49 64.525 140.09938Q63.978127 140.88063 63.978127 143.00563Z" fill-rule="nonzero"/><path fill="#000000" d="M57.525 95.13042Q56.86875 94.88042 56.540627 94.44292Q56.228127 93.98979 56.228127 93.38042Q56.228127 92.44292 56.9 91.80229Q57.5875 91.16167 58.696877 91.16167Q59.821877 91.16167 60.509377 91.81792Q61.196877 92.47417 61.196877 93.41167Q61.196877 94.00542 60.884377 94.44292Q60.571877 94.88042 59.93125 95.13042Q60.728127 95.38042 61.134377 95.95854Q61.540627 96.53667 61.540627 97.33354Q61.540627 98.42729 60.759377 99.17729Q59.99375 99.92729 58.7125 99.92729Q57.446877 99.92729 56.665627 99.17729Q55.884377 98.42729 55.884377 97.30229Q55.884377 96.45854 56.30625 95.89604Q56.74375 95.33354 57.525 95.13042ZM57.30625 93.33354Q57.30625 93.94292 57.696877 94.33354Q58.103127 94.72417 58.728127 94.72417Q59.3375 94.72417 59.728127 94.34917Q60.11875 93.95854 60.11875 93.39604Q60.11875 92.81792 59.7125 92.42729Q59.30625 92.02104 58.7125 92.02104Q58.103127 92.02104 57.696877 92.41167Q57.30625 92.80229 57.30625 93.33354ZM56.978127 97.30229Q56.978127 97.75542 57.18125 98.17729Q57.4 98.59917 57.821877 98.83354Q58.24375 99.06792 58.728127 99.06792Q59.478127 99.06792 59.9625 98.58354Q60.4625 98.09917 60.4625 97.34917Q60.4625 96.58354 59.9625 96.08354Q59.4625 95.58354 58.696877 95.58354Q57.946877 95.58354 57.4625 96.08354Q56.978127 96.56792 56.978127 97.30229ZM62.9 95.55229Q62.9 94.02104 63.2125 93.09917Q63.525 92.16167 64.13438 91.66167Q64.75938 91.16167 65.69688 91.16167Q66.38438 91.16167 66.9 91.44292Q67.43125 91.72417 67.775 92.25542Q68.11875 92.77104 68.30625 93.52104Q68.49375 94.27104 68.49375 95.55229Q68.49375 97.06792 68.18125 97.98979Q67.88438 98.91167 67.25938 99.42729Q66.65 99.92729 65.69688 99.92729Q64.4625 99.92729 63.74375 99.03667Q62.9 97.97417 62.9 95.55229ZM63.978127 95.55229Q63.978127 97.66167 64.47813 98.36479Q64.97813 99.06792 65.69688 99.06792Q66.43125 99.06792 66.91563 98.36479Q67.41563 97.66167 67.41563 95.55229Q67.41563 93.42729 66.91563 92.73979Q66.43125 92.03667 65.68125 92.03667Q64.9625 92.03667 64.525 92.64604Q63.978127 93.42729 63.978127 95.55229Z" fill-rule="nonzero"/><path fill="#000000" d="M52.86875 52.333332L51.821877 52.333332L51.821877 45.614582Q51.43125 45.973957 50.80625 46.348957Q50.196877 46.708332 49.7125 46.880207L49.7125 45.864582Q50.5875 45.442707 51.24375 44.864582Q51.915627 44.270832 52.196877 43.708332L52.86875 43.708332L52.86875 52.333332ZM55.9 48.098957Q55.9 46.567707 56.2125 45.645832Q56.525 44.708332 57.134377 44.208332Q57.759377 43.708332 58.696877 43.708332Q59.384377 43.708332 59.9 43.989582Q60.43125 44.270832 60.775 44.802082Q61.11875 45.317707 61.30625 46.067707Q61.49375 46.817707 61.49375 48.098957Q61.49375 49.614582 61.18125 50.536457Q60.884377 51.458332 60.259377 51.973957Q59.65 52.473957 58.696877 52.473957Q57.4625 52.473957 56.74375 51.583332Q55.9 50.520832 55.9 48.098957ZM56.978127 48.098957Q56.978127 50.208332 57.478127 50.911457Q57.978127 51.614582 58.696877 51.614582Q59.43125 51.614582 59.915627 50.911457Q60.415627 50.208332 60.415627 48.098957Q60.415627 45.973957 59.915627 45.286457Q59.43125 44.583332 58.68125 44.583332Q57.9625 44.583332 57.525 45.192707Q56.978127 45.973957 56.978127 48.098957ZM62.9 48.098957Q62.9 46.567707 63.2125 45.645832Q63.525 44.708332 64.13438 44.208332Q64.75938 43.708332 65.69688 43.708332Q66.38438 43.708332 66.9 43.989582Q67.43125 44.270832 67.775 44.802082Q68.11875 45.317707 68.30625 46.067707Q68.49375 46.817707 68.49375 48.098957Q68.49375 49.614582 68.18125 50.536457Q67.88438 51.458332 67.25938 51.973957Q66.65 52.473957 65.69688 52.473957Q64.4625 52.473957 63.74375 51.583332Q62.9 50.520832 62.9 48.098957ZM63.978127 48.098957Q63.978127 50.208332 64.47813 50.911457Q64.97813 51.614582 65.69688 51.614582Q66.43125 51.614582 66.91563 50.911457Q67.41563 50.208332 67.41563 48.098957Q67.41563 45.973957 66.91563 45.286457Q66.43125 44.583332 65.68125 44.583332Q64.9625 44.583332 64.525 45.192707Q63.978127 45.973957 63.978127 48.098957Z" fill-rule="nonzero"/><path fill="#000000" d="M133.31354 305.83438L134.37604 305.74063Q134.45416 306.39688 134.73541 306.80313Q135.01666 307.20938 135.59479 307.475Q136.18854 307.725 136.92291 307.725Q137.56354 307.725 138.06354 307.5375Q138.56354 307.33438 138.79791 307.00626Q139.04791 306.6625 139.04791 306.27188Q139.04791 305.86563 138.81354 305.56876Q138.57916 305.25626 138.04791 305.05313Q137.68854 304.9125 136.50104 304.63126Q135.32916 304.35 134.86041 304.1Q134.23541 303.77188 133.93854 303.30313Q133.64166 302.81876 133.64166 302.225Q133.64166 301.58438 134.00104 301.02188Q134.37604 300.44376 135.07916 300.1625Q135.79791 299.86563 136.65729 299.86563Q137.61041 299.86563 138.34479 300.17813Q139.07916 300.475 139.46979 301.08438Q139.86041 301.67813 139.89166 302.42813L138.79791 302.50626Q138.70416 301.69376 138.18854 301.2875Q137.68854 300.86563 136.70416 300.86563Q135.67291 300.86563 135.20416 301.24063Q134.73541 301.61563 134.73541 302.14688Q134.73541 302.61563 135.06354 302.9125Q135.39166 303.20938 136.76666 303.52188Q138.15729 303.83438 138.67291 304.06876Q139.42291 304.42813 139.78229 304.95938Q140.14166 305.475 140.14166 306.17813Q140.14166 306.86563 139.75104 307.475Q139.36041 308.06876 138.62604 308.4125Q137.89166 308.74063 136.96979 308.74063Q135.79791 308.74063 135.00104 308.4125Q134.21979 308.06876 133.76666 307.38126Q133.32916 306.69376 133.31354 305.83438ZM141.56354 310.99063L141.56354 302.38126L142.51666 302.38126L142.51666 303.17813Q142.86041 302.70938 143.28229 302.475Q143.71979 302.24063 144.32916 302.24063Q145.12604 302.24063 145.73541 302.64688Q146.34479 303.05313 146.64166 303.80313Q146.95416 304.55313 146.95416 305.44376Q146.95416 306.39688 146.61041 307.1625Q146.28229 307.92813 145.62604 308.33438Q144.96979 308.74063 144.25104 308.74063Q143.71979 308.74063 143.29791 308.52188Q142.87604 308.2875 142.61041 307.95938L142.61041 310.99063L141.56354 310.99063ZM142.51666 305.52188Q142.51666 306.725 143.00104 307.30313Q143.48541 307.86563 144.17291 307.86563Q144.87604 307.86563 145.37604 307.27188Q145.87604 306.67813 145.87604 305.42813Q145.87604 304.24063 145.39166 303.6625Q144.90729 303.06876 144.21979 303.06876Q143.54791 303.06876 143.03229 303.69376Q142.51666 304.31876 142.51666 305.52188ZM148.54791 308.6L148.54791 302.38126L149.50104 302.38126L149.50104 303.31876Q149.86041 302.6625 150.15729 302.45938Q150.46979 302.24063 150.84479 302.24063Q151.37604 302.24063 151.92291 302.56876L151.56354 303.55313Q151.17291 303.31876 150.79791 303.31876Q150.43854 303.31876 150.15729 303.5375Q149.89166 303.74063 149.78229 304.11563Q149.59479 304.67813 149.59479 305.33438L149.59479 308.6L148.54791 308.6ZM152.56354 301.225L152.56354 300.00626L153.62604 300.00626L153.62604 301.225L152.56354 301.225ZM152.56354 308.6L152.56354 302.38126L153.62604 302.38126L153.62604 308.6L152.56354 308.6ZM155.56354 308.6L155.56354 302.38126L156.50104 302.38126L156.50104 303.25626Q157.18854 302.24063 158.48541 302.24063Q159.04791 302.24063 159.51666 302.44376Q160.00104 302.64688 160.23541 302.975Q160.46979 303.30313 160.56354 303.74063Q160.61041 304.0375 160.61041 304.77188L160.61041 308.6L159.56354 308.6L159.56354 304.81876Q159.56354 304.1625 159.43854 303.85Q159.31354 303.5375 159.00104 303.35Q158.68854 303.14688 158.26666 303.14688Q157.59479 303.14688 157.09479 303.58438Q156.61041 304.00626 156.61041 305.19376L156.61041 308.6L155.56354 308.6ZM164.86041 307.6625L165.01666 308.58438Q164.56354 308.67813 164.21979 308.67813Q163.64166 308.67813 163.32916 308.50626Q163.01666 308.31876 162.87604 308.02188Q162.75104 307.725 162.75104 306.77188L162.75104 303.19376L161.98541 303.19376L161.98541 302.38126L162.75104 302.38126L162.75104 300.83438L163.79791 300.20938L163.79791 302.38126L164.86041 302.38126L164.86041 303.19376L163.79791 303.19376L163.79791 306.83438Q163.79791 307.2875 163.84479 307.4125Q163.90729 307.5375 164.03229 307.61563Q164.15729 307.69376 164.39166 307.69376Q164.57916 307.69376 164.86041 307.6625ZM168.42291 306.61563L169.43854 306.52188Q169.56354 307.24063 169.92291 307.56876Q170.29791 307.88126 170.86041 307.88126Q171.34479 307.88126 171.70416 307.6625Q172.07916 307.42813 172.31354 307.06876Q172.54791 306.69376 172.70416 306.06876Q172.86041 305.42813 172.86041 304.77188Q172.86041 304.69376 172.86041 304.55313Q172.54791 305.05313 172.00104 305.38126Q171.45416 305.69376 170.81354 305.69376Q169.73541 305.69376 169.00104 304.92813Q168.26666 304.14688 168.26666 302.88126Q168.26666 301.56876 169.03229 300.77188Q169.81354 299.975 170.96979 299.975Q171.79791 299.975 172.48541 300.42813Q173.18854 300.88126 173.54791 301.725Q173.90729 302.55313 173.90729 304.13126Q173.90729 305.77188 173.54791 306.75626Q173.20416 307.725 172.48541 308.24063Q171.78229 308.74063 170.84479 308.74063Q169.82916 308.74063 169.18854 308.19376Q168.54791 307.63126 168.42291 306.61563ZM172.73541 302.81876Q172.73541 301.9125 172.25104 301.38126Q171.78229 300.85 171.09479 300.85Q170.39166 300.85 169.86041 301.42813Q169.34479 301.99063 169.34479 302.9125Q169.34479 303.725 169.84479 304.24063Q170.34479 304.75626 171.06354 304.75626Q171.79791 304.75626 172.26666 304.24063Q172.73541 303.725 172.73541 302.81876Z" fill-rule="nonzero"/><path fill="#000000" d="M274.54688 305.83438L275.60938 305.74063Q275.6875 306.39688 275.96875 306.80313Q276.25 307.20938 276.82812 307.475Q277.42188 307.725 278.15625 307.725Q278.79688 307.725 279.29688 307.5375Q279.79688 307.33438 280.03125 307.00626Q280.28125 306.6625 280.28125 306.27188Q280.28125 305.86563 280.04688 305.56876Q279.8125 305.25626 279.28125 305.05313Q278.92188 304.9125 277.73438 304.63126Q276.5625 304.35 276.09375 304.1Q275.46875 303.77188 275.17188 303.30313Q274.875 302.81876 274.875 302.225Q274.875 301.58438 275.23438 301.02188Q275.60938 300.44376 276.3125 300.1625Q277.03125 299.86563 277.89062 299.86563Q278.84375 299.86563 279.57812 300.17813Q280.3125 300.475 280.70312 301.08438Q281.09375 301.67813 281.125 302.42813L280.03125 302.50626Q279.9375 301.69376 279.42188 301.2875Q278.92188 300.86563 277.9375 300.86563Q276.90625 300.86563 276.4375 301.24063Q275.96875 301.61563 275.96875 302.14688Q275.96875 302.61563 276.29688 302.9125Q276.625 303.20938 278.0 303.52188Q279.39062 303.83438 279.90625 304.06876Q280.65625 304.42813 281.01562 304.95938Q281.375 305.475 281.375 306.17813Q281.375 306.86563 280.98438 307.475Q280.59375 308.06876 279.85938 308.4125Q279.125 308.74063 278.20312 308.74063Q277.03125 308.74063 276.23438 308.4125Q275.45312 308.06876 275.0 307.38126Q274.5625 306.69376 274.54688 305.83438ZM282.79688 310.99063L282.79688 302.38126L283.75 302.38126L283.75 303.17813Q284.09375 302.70938 284.51562 302.475Q284.95312 302.24063 285.5625 302.24063Q286.35938 302.24063 286.96875 302.64688Q287.57812 303.05313 287.875 303.80313Q288.1875 304.55313 288.1875 305.44376Q288.1875 306.39688 287.84375 307.1625Q287.51562 307.92813 286.85938 308.33438Q286.20312 308.74063 285.48438 308.74063Q284.95312 308.74063 284.53125 308.52188Q284.10938 308.2875 283.84375 307.95938L283.84375 310.99063L282.79688 310.99063ZM283.75 305.52188Q283.75 306.725 284.23438 307.30313Q284.71875 307.86563 285.40625 307.86563Q286.10938 307.86563 286.60938 307.27188Q287.10938 306.67813 287.10938 305.42813Q287.10938 304.24063 286.625 303.6625Q286.14062 303.06876 285.45312 303.06876Q284.78125 303.06876 284.26562 303.69376Q283.75 304.31876 283.75 305.52188ZM289.78125 308.6L289.78125 302.38126L290.73438 302.38126L290.73438 303.31876Q291.09375 302.6625 291.39062 302.45938Q291.70312 302.24063 292.07812 302.24063Q292.60938 302.24063 293.15625 302.56876L292.79688 303.55313Q292.40625 303.31876 292.03125 303.31876Q291.67188 303.31876 291.39062 303.5375Q291.125 303.74063 291.01562 304.11563Q290.82812 304.67813 290.82812 305.33438L290.82812 308.6L289.78125 308.6ZM293.79688 301.225L293.79688 300.00626L294.85938 300.00626L294.85938 301.225L293.79688 301.225ZM293.79688 308.6L293.79688 302.38126L294.85938 302.38126L294.85938 308.6L293.79688 308.6ZM296.79688 308.6L296.79688 302.38126L297.73438 302.38126L297.73438 303.25626Q298.42188 302.24063 299.71875 302.24063Q300.28125 302.24063 300.75 302.44376Q301.23438 302.64688 301.46875 302.975Q301.70312 303.30313 301.79688 303.74063Q301.84375 304.0375 301.84375 304.77188L301.84375 308.6L300.79688 308.6L300.79688 304.81876Q300.79688 304.1625 300.67188 303.85Q300.54688 303.5375 300.23438 303.35Q299.92188 303.14688 299.5 303.14688Q298.82812 303.14688 298.32812 303.58438Q297.84375 304.00626 297.84375 305.19376L297.84375 308.6L296.79688 308.6ZM306.09375 307.6625L306.25 308.58438Q305.79688 308.67813 305.45312 308.67813Q304.875 308.67813 304.5625 308.50626Q304.25 308.31876 304.10938 308.02188Q303.98438 307.725 303.98438 306.77188L303.98438 303.19376L303.21875 303.19376L303.21875 302.38126L303.98438 302.38126L303.98438 300.83438L305.03125 300.20938L305.03125 302.38126L306.09375 302.38126L306.09375 303.19376L305.03125 303.19376L305.03125 306.83438Q305.03125 307.2875 305.07812 307.4125Q305.14062 307.5375 305.26562 307.61563Q305.39062 307.69376 305.625 307.69376Q305.8125 307.69376 306.09375 307.6625ZM313.46875 308.6L312.42188 308.6L312.42188 301.88126Q312.03125 302.24063 311.40625 302.61563Q310.79688 302.975 310.3125 303.14688L310.3125 302.13126Q311.1875 301.70938 311.84375 301.13126Q312.51562 300.5375 312.79688 299.975L313.46875 299.975L313.46875 308.6ZM316.5 304.36563Q316.5 302.83438 316.8125 301.9125Q317.125 300.975 317.73438 300.475Q318.35938 299.975 319.29688 299.975Q319.98438 299.975 320.5 300.25626Q321.03125 300.5375 321.375 301.06876Q321.71875 301.58438 321.90625 302.33438Q322.09375 303.08438 322.09375 304.36563Q322.09375 305.88126 321.78125 306.80313Q321.48438 307.725 320.85938 308.24063Q320.25 308.74063 319.29688 308.74063Q318.0625 308.74063 317.34375 307.85Q316.5 306.7875 316.5 304.36563ZM317.57812 304.36563Q317.57812 306.475 318.07812 307.17813Q318.57812 307.88126 319.29688 307.88126Q320.03125 307.88126 320.51562 307.17813Q321.01562 306.475 321.01562 304.36563Q321.01562 302.24063 320.51562 301.55313Q320.03125 300.85 319.28125 300.85Q318.5625 300.85 318.125 301.45938Q317.57812 302.24063 317.57812 304.36563Z" fill-rule="nonzero"/><path fill="#000000" d="M419.2802 305.83438L420.3427 305.74063Q420.42084 306.39688 420.7021 306.80313Q420.98334 307.20938 421.56146 307.475Q422.1552 307.725 422.8896 307.725Q423.5302 307.725 424.0302 307.5375Q424.5302 307.33438 424.7646 307.00626Q425.0146 306.6625 425.0146 306.27188Q425.0146 305.86563 424.7802 305.56876Q424.54584 305.25626 424.0146 305.05313Q423.6552 304.9125 422.4677 304.63126Q421.29584 304.35 420.8271 304.1Q420.2021 303.77188 419.9052 303.30313Q419.60834 302.81876 419.60834 302.225Q419.60834 301.58438 419.9677 301.02188Q420.3427 300.44376 421.04584 300.1625Q421.7646 299.86563 422.62396 299.86563Q423.5771 299.86563 424.31146 300.17813Q425.04584 300.475 425.43646 301.08438Q425.8271 301.67813 425.85834 302.42813L424.7646 302.50626Q424.67084 301.69376 424.1552 301.2875Q423.6552 300.86563 422.67084 300.86563Q421.6396 300.86563 421.17084 301.24063Q420.7021 301.61563 420.7021 302.14688Q420.7021 302.61563 421.0302 302.9125Q421.35834 303.20938 422.73334 303.52188Q424.12396 303.83438 424.6396 304.06876Q425.3896 304.42813 425.74896 304.95938Q426.10834 305.475 426.10834 306.17813Q426.10834 306.86563 425.7177 307.475Q425.3271 308.06876 424.5927 308.4125Q423.85834 308.74063 422.93646 308.74063Q421.7646 308.74063 420.9677 308.4125Q420.18646 308.06876 419.73334 307.38126Q419.29584 306.69376 419.2802 305.83438ZM427.5302 310.99063L427.5302 302.38126L428.48334 302.38126L428.48334 303.17813Q428.8271 302.70938 429.24896 302.475Q429.68646 302.24063 430.29584 302.24063Q431.0927 302.24063 431.7021 302.64688Q432.31146 303.05313 432.60834 303.80313Q432.92084 304.55313 432.92084 305.44376Q432.92084 306.39688 432.5771 307.1625Q432.24896 307.92813 431.5927 308.33438Q430.93646 308.74063 430.2177 308.74063Q429.68646 308.74063 429.2646 308.52188Q428.8427 308.2875 428.5771 307.95938L428.5771 310.99063L427.5302 310.99063ZM428.48334 305.52188Q428.48334 306.725 428.9677 307.30313Q429.4521 307.86563 430.1396 307.86563Q430.8427 307.86563 431.3427 307.27188Q431.8427 306.67813 431.8427 305.42813Q431.8427 304.24063 431.35834 303.6625Q430.87396 303.06876 430.18646 303.06876Q429.5146 303.06876 428.99896 303.69376Q428.48334 304.31876 428.48334 305.52188ZM434.5146 308.6L434.5146 302.38126L435.4677 302.38126L435.4677 303.31876Q435.8271 302.6625 436.12396 302.45938Q436.43646 302.24063 436.81146 302.24063Q437.3427 302.24063 437.8896 302.56876L437.5302 303.55313Q437.1396 303.31876 436.7646 303.31876Q436.4052 303.31876 436.12396 303.5375Q435.85834 303.74063 435.74896 304.11563Q435.56146 304.67813 435.56146 305.33438L435.56146 308.6L434.5146 308.6ZM438.5302 301.225L438.5302 300.00626L439.5927 300.00626L439.5927 301.225L438.5302 301.225ZM438.5302 308.6L438.5302 302.38126L439.5927 302.38126L439.5927 308.6L438.5302 308.6ZM441.5302 308.6L441.5302 302.38126L442.4677 302.38126L442.4677 303.25626Q443.1552 302.24063 444.4521 302.24063Q445.0146 302.24063 445.48334 302.44376Q445.9677 302.64688 446.2021 302.975Q446.43646 303.30313 446.5302 303.74063Q446.5771 304.0375 446.5771 304.77188L446.5771 308.6L445.5302 308.6L445.5302 304.81876Q445.5302 304.1625 445.4052 303.85Q445.2802 303.5375 444.9677 303.35Q444.6552 303.14688 444.23334 303.14688Q443.56146 303.14688 443.06146 303.58438Q442.5771 304.00626 442.5771 305.19376L442.5771 308.6L441.5302 308.6ZM450.8271 307.6625L450.98334 308.58438Q450.5302 308.67813 450.18646 308.67813Q449.60834 308.67813 449.29584 308.50626Q448.98334 308.31876 448.8427 308.02188Q448.7177 307.725 448.7177 306.77188L448.7177 303.19376L447.9521 303.19376L447.9521 302.38126L448.7177 302.38126L448.7177 300.83438L449.7646 300.20938L449.7646 302.38126L450.8271 302.38126L450.8271 303.19376L449.7646 303.19376L449.7646 306.83438Q449.7646 307.2875 449.81146 307.4125Q449.87396 307.5375 449.99896 307.61563Q450.12396 307.69376 450.35834 307.69376Q450.54584 307.69376 450.8271 307.6625ZM458.2021 308.6L457.1552 308.6L457.1552 301.88126Q456.7646 302.24063 456.1396 302.61563Q455.5302 302.975 455.04584 303.14688L455.04584 302.13126Q455.92084 301.70938 456.5771 301.13126Q457.24896 300.5375 457.5302 299.975L458.2021 299.975L458.2021 308.6ZM465.2021 308.6L464.1552 308.6L464.1552 301.88126Q463.7646 302.24063 463.1396 302.61563Q462.5302 302.975 462.04584 303.14688L462.04584 302.13126Q462.92084 301.70938 463.5771 301.13126Q464.24896 300.5375 464.5302 299.975L465.2021 299.975L465.2021 308.6Z" fill-rule="nonzero"/><path fill="#4285f4" fill-opacity="0.7019608" d="M151.0 23.4C151.0 26.713709 148.3137 29.4 145.0 29.4C141.6863 29.4 139.0 26.713709 139.0 23.4C139.0 20.086292 141.6863 17.4 145.0 17.4C148.3137 17.4 151.0 20.086292 151.0 23.4Z" fill-rule="nonzero"/><path fill="#1a1a1a" d="M162.375 27.4L159.04688 18.80625L160.28125 18.80625L162.51562 25.05625Q162.78125 25.80625 162.96875 26.4625Q163.17188 25.759375 163.4375 25.05625L165.75 18.80625L166.90625 18.80625L163.54688 27.4L162.375 27.4ZM170.85938 26.634375Q170.26562 27.134375 169.71875 27.3375Q169.1875 27.540625 168.5625 27.540625Q167.53125 27.540625 166.98438 27.040625Q166.4375 26.540625 166.4375 25.759375Q166.4375 25.30625 166.64062 24.93125Q166.84375 24.540625 167.1875 24.321875Q167.53125 24.0875 167.95312 23.978125Q168.25 23.884375 168.89062 23.80625Q170.15625 23.665625 170.76562 23.446875Q170.76562 23.228125 170.76562 23.18125Q170.76562 22.525 170.46875 22.259375Q170.0625 21.915625 169.26562 21.915625Q168.53125 21.915625 168.17188 22.18125Q167.8125 22.43125 167.64062 23.0875L166.60938 22.946875Q166.75 22.290625 167.07812 21.884375Q167.40625 21.478125 168.01562 21.259375Q168.625 21.040625 169.42188 21.040625Q170.21875 21.040625 170.71875 21.228125Q171.21875 21.415625 171.45312 21.696875Q171.6875 21.978125 171.78125 22.415625Q171.82812 22.68125 171.82812 23.384375L171.82812 24.790625Q171.82812 26.259375 171.89062 26.65Q171.96875 27.040625 172.17188 27.4L171.0625 27.4Q170.90625 27.071875 170.85938 26.634375ZM170.76562 24.275Q170.1875 24.509375 169.04688 24.68125Q168.39062 24.775 168.125 24.9Q167.85938 25.009375 167.70312 25.228125Q167.5625 25.446875 167.5625 25.728125Q167.5625 26.15 167.875 26.43125Q168.20312 26.7125 168.8125 26.7125Q169.42188 26.7125 169.89062 26.446875Q170.375 26.18125 170.59375 25.7125Q170.76562 25.353125 170.76562 24.665625L170.76562 24.275ZM173.76562 27.4L173.76562 18.80625L174.82812 18.80625L174.82812 27.4L173.76562 27.4ZM176.40625 24.290625Q176.40625 22.55625 177.35938 21.728125Q178.15625 21.040625 179.3125 21.040625Q180.59375 21.040625 181.40625 21.884375Q182.23438 22.7125 182.23438 24.196875Q182.23438 25.4 181.875 26.0875Q181.51562 26.775 180.8125 27.165625Q180.125 27.540625 179.3125 27.540625Q178.01562 27.540625 177.20312 26.7125Q176.40625 25.86875 176.40625 24.290625ZM177.48438 24.290625Q177.48438 25.478125 178.0 26.071875Q178.53125 26.665625 179.3125 26.665625Q180.10938 26.665625 180.625 26.071875Q181.14062 25.478125 181.14062 24.259375Q181.14062 23.103125 180.60938 22.509375Q180.09375 21.915625 179.3125 21.915625Q178.53125 21.915625 178.0 22.509375Q177.48438 23.0875 177.48438 24.290625ZM183.78125 27.4L183.78125 21.18125L184.73438 21.18125L184.73438 22.11875Q185.09375 21.4625 185.39062 21.259375Q185.70312 21.040625 186.07812 21.040625Q186.60938 21.040625 187.15625 21.36875L186.79688 22.353125Q186.40625 22.11875 186.03125 22.11875Q185.67188 22.11875 185.39062 22.3375Q185.125 22.540625 185.01562 22.915625Q184.82812 23.478125 184.82812 24.134375L184.82812 27.4L183.78125 27.4ZM192.04688 25.4L193.14062 25.525Q192.89062 26.478125 192.1875 27.009375Q191.48438 27.540625 190.40625 27.540625Q189.04688 27.540625 188.23438 26.696875Q187.4375 25.853125 187.4375 24.3375Q187.4375 22.775 188.25 21.915625Q189.0625 21.040625 190.34375 21.040625Q191.59375 21.040625 192.375 21.884375Q193.17188 22.728125 193.17188 24.275Q193.17188 24.36875 193.17188 24.55625L188.53125 24.55625Q188.59375 25.5875 189.10938 26.134375Q189.625 26.665625 190.40625 26.665625Q190.98438 26.665625 191.39062 26.36875Q191.8125 26.05625 192.04688 25.4ZM188.59375 23.696875L192.0625 23.696875Q192.0 22.9 191.67188 22.509375Q191.15625 21.9 190.35938 21.9Q189.625 21.9 189.125 22.384375Q188.64062 22.86875 188.59375 23.696875ZM197.40625 24.290625Q197.40625 22.55625 198.35938 21.728125Q199.15625 21.040625 200.3125 21.040625Q201.59375 21.040625 202.40625 21.884375Q203.23438 22.7125 203.23438 24.196875Q203.23438 25.4 202.875 26.0875Q202.51562 26.775 201.8125 27.165625Q201.125 27.540625 200.3125 27.540625Q199.01562 27.540625 198.20312 26.7125Q197.40625 25.86875 197.40625 24.290625ZM198.48438 24.290625Q198.48438 25.478125 199.0 26.071875Q199.53125 26.665625 200.3125 26.665625Q201.10938 26.665625 201.625 26.071875Q202.14062 25.478125 202.14062 24.259375Q202.14062 23.103125 201.60938 22.509375Q201.09375 21.915625 200.3125 21.915625Q199.53125 21.915625 199.0 22.509375Q198.48438 23.0875 198.48438 24.290625ZM207.09375 26.4625L207.25 27.384375Q206.79688 27.478125 206.45312 27.478125Q205.875 27.478125 205.5625 27.30625Q205.25 27.11875 205.10938 26.821875Q204.98438 26.525 204.98438 25.571875L204.98438 21.99375L204.21875 21.99375L204.21875 21.18125L204.98438 21.18125L204.98438 19.634375L206.03125 19.009375L206.03125 21.18125L207.09375 21.18125L207.09375 21.99375L206.03125 21.99375L206.03125 25.634375Q206.03125 26.0875 206.07812 26.2125Q206.14062 26.3375 206.26562 26.415625Q206.39062 26.49375 206.625 26.49375Q206.8125 26.49375 207.09375 26.4625ZM210.09375 26.4625L210.25 27.384375Q209.79688 27.478125 209.45312 27.478125Q208.875 27.478125 208.5625 27.30625Q208.25 27.11875 208.10938 26.821875Q207.98438 26.525 207.98438 25.571875L207.98438 21.99375L207.21875 21.99375L207.21875 21.18125L207.98438 21.18125L207.98438 19.634375L209.03125 19.009375L209.03125 21.18125L210.09375 21.18125L210.09375 21.99375L209.03125 21.99375L209.03125 25.634375Q209.03125 26.0875 209.07812 26.2125Q209.14062 26.3375 209.26562 26.415625Q209.39062 26.49375 209.625 26.49375Q209.8125 26.49375 210.09375 26.4625ZM210.79688 20.025L210.79688 18.80625L211.85938 18.80625L211.85938 20.025L210.79688 20.025ZM210.79688 27.4L210.79688 21.18125L211.85938 21.18125L211.85938 27.4L210.79688 27.4ZM213.79688 27.4L213.79688 21.18125L214.73438 21.18125L214.73438 22.05625Q215.03125 21.5875 215.51562 21.321875Q216.0 21.040625 216.625 21.040625Q217.3125 21.040625 217.75 21.321875Q218.20312 21.603125 218.375 22.11875Q219.125 21.040625 220.29688 21.040625Q221.23438 21.040625 221.71875 21.55625Q222.21875 22.05625 222.21875 23.134375L222.21875 27.4L221.17188 27.4L221.17188 23.478125Q221.17188 22.853125 221.0625 22.571875Q220.96875 22.290625 220.70312 22.11875Q220.4375 21.946875 220.0625 21.946875Q219.40625 21.946875 218.96875 22.384375Q218.54688 22.821875 218.54688 23.790625L218.54688 27.4L217.48438 27.4L217.48438 23.353125Q217.48438 22.65 217.21875 22.30625Q216.96875 21.946875 216.39062 21.946875Q215.9375 21.946875 215.5625 22.18125Q215.1875 22.415625 215.01562 22.86875Q214.84375 23.321875 214.84375 24.165625L214.84375 27.4L213.79688 27.4ZM224.40625 24.290625Q224.40625 22.55625 225.35938 21.728125Q226.15625 21.040625 227.3125 21.040625Q228.59375 21.040625 229.40625 21.884375Q230.23438 22.7125 230.23438 24.196875Q230.23438 25.4 229.875 26.0875Q229.51562 26.775 228.8125 27.165625Q228.125 27.540625 227.3125 27.540625Q226.01562 27.540625 225.20312 26.7125Q224.40625 25.86875 224.40625 24.290625ZM225.48438 24.290625Q225.48438 25.478125 226.0 26.071875Q226.53125 26.665625 227.3125 26.665625Q228.10938 26.665625 228.625 26.071875Q229.14062 25.478125 229.14062 24.259375Q229.14062 23.103125 228.60938 22.509375Q228.09375 21.915625 227.3125 21.915625Q226.53125 21.915625 226.0 22.509375Q225.48438 23.0875 225.48438 24.290625Z" fill-rule="nonzero"/><path fill="#ea4335" d="M259.0 23.4C259.0 26.713709 256.31372 29.4 253.0 29.4C249.6863 29.4 247.0 26.713709 247.0 23.4C247.0 20.086292 249.6863 17.4 253.0 17.4C256.31372 17.4 259.0 20.086292 259.0 23.4Z" fill-rule="nonzero"/><path fill="#1a1a1a" d="M267.9375 27.4L267.9375 18.80625L271.75 18.80625Q272.90625 18.80625 273.5 19.040625Q274.09375 19.275 274.45312 19.86875Q274.8125 20.446875 274.8125 21.15Q274.8125 22.071875 274.21875 22.696875Q273.625 23.321875 272.39062 23.49375Q272.84375 23.7125 273.07812 23.915625Q273.57812 24.36875 274.01562 25.05625L275.51562 27.4L274.07812 27.4L272.95312 25.61875Q272.45312 24.8375 272.125 24.43125Q271.8125 24.025 271.54688 23.86875Q271.29688 23.696875 271.03125 23.61875Q270.84375 23.5875 270.40625 23.5875L269.07812 23.5875L269.07812 27.4L267.9375 27.4ZM269.07812 22.603125L271.53125 22.603125Q272.29688 22.603125 272.73438 22.446875Q273.1875 22.275 273.40625 21.93125Q273.64062 21.571875 273.64062 21.15Q273.64062 20.540625 273.1875 20.15Q272.75 19.759375 271.79688 19.759375L269.07812 19.759375L269.07812 22.603125ZM276.57812 23.2125Q276.57812 21.071875 277.71875 19.86875Q278.875 18.65 280.6875 18.65Q281.89062 18.65 282.84375 19.228125Q283.79688 19.790625 284.29688 20.80625Q284.79688 21.821875 284.79688 23.11875Q284.79688 24.415625 284.26562 25.446875Q283.73438 26.478125 282.76562 27.009375Q281.8125 27.540625 280.6875 27.540625Q279.46875 27.540625 278.51562 26.9625Q277.5625 26.36875 277.0625 25.36875Q276.57812 24.353125 276.57812 23.2125ZM277.75 23.228125Q277.75 24.790625 278.57812 25.68125Q279.42188 26.571875 280.6875 26.571875Q281.96875 26.571875 282.79688 25.68125Q283.625 24.775 283.625 23.103125Q283.625 22.05625 283.26562 21.275Q282.92188 20.49375 282.23438 20.071875Q281.54688 19.634375 280.70312 19.634375Q279.5 19.634375 278.625 20.4625Q277.75 21.290625 277.75 23.228125Z" fill-rule="nonzero"/><path fill="#fbbc04" fill-opacity="0.5019608" d="M313.0 23.4C313.0 26.713709 310.31372 29.4 307.0 29.4C303.68628 29.4 301.0 26.713709 301.0 23.4C301.0 20.086292 303.68628 17.4 307.0 17.4C310.31372 17.4 313.0 20.086292 313.0 23.4Z" fill-rule="nonzero"/><path fill="#1a1a1a" d="M324.375 27.4L321.04688 18.80625L322.28125 18.80625L324.51562 25.05625Q324.78125 25.80625 324.96875 26.4625Q325.17188 25.759375 325.4375 25.05625L327.75 18.80625L328.90625 18.80625L325.54688 27.4L324.375 27.4ZM332.85938 26.634375Q332.26562 27.134375 331.71875 27.3375Q331.1875 27.540625 330.5625 27.540625Q329.53125 27.540625 328.98438 27.040625Q328.4375 26.540625 328.4375 25.759375Q328.4375 25.30625 328.64062 24.93125Q328.84375 24.540625 329.1875 24.321875Q329.53125 24.0875 329.95312 23.978125Q330.25 23.884375 330.89062 23.80625Q332.15625 23.665625 332.76562 23.446875Q332.76562 23.228125 332.76562 23.18125Q332.76562 22.525 332.46875 22.259375Q332.0625 21.915625 331.26562 21.915625Q330.53125 21.915625 330.17188 22.18125Q329.8125 22.43125 329.64062 23.0875L328.60938 22.946875Q328.75 22.290625 329.07812 21.884375Q329.40625 21.478125 330.01562 21.259375Q330.625 21.040625 331.42188 21.040625Q332.21875 21.040625 332.71875 21.228125Q333.21875 21.415625 333.45312 21.696875Q333.6875 21.978125 333.78125 22.415625Q333.82812 22.68125 333.82812 23.384375L333.82812 24.790625Q333.82812 26.259375 333.89062 26.65Q333.96875 27.040625 334.17188 27.4L333.0625 27.4Q332.90625 27.071875 332.85938 26.634375ZM332.76562 24.275Q332.1875 24.509375 331.04688 24.68125Q330.39062 24.775 330.125 24.9Q329.85938 25.009375 329.70312 25.228125Q329.5625 25.446875 329.5625 25.728125Q329.5625 26.15 329.875 26.43125Q330.20312 26.7125 330.8125 26.7125Q331.42188 26.7125 331.89062 26.446875Q332.375 26.18125 332.59375 25.7125Q332.76562 25.353125 332.76562 24.665625L332.76562 24.275ZM335.76562 27.4L335.76562 18.80625L336.82812 18.80625L336.82812 27.4L335.76562 27.4ZM338.40625 24.290625Q338.40625 22.55625 339.35938 21.728125Q340.15625 21.040625 341.3125 21.040625Q342.59375 21.040625 343.40625 21.884375Q344.23438 22.7125 344.23438 24.196875Q344.23438 25.4 343.875 26.0875Q343.51562 26.775 342.8125 27.165625Q342.125 27.540625 341.3125 27.540625Q340.01562 27.540625 339.20312 26.7125Q338.40625 25.86875 338.40625 24.290625ZM339.48438 24.290625Q339.48438 25.478125 340.0 26.071875Q340.53125 26.665625 341.3125 26.665625Q342.10938 26.665625 342.625 26.071875Q343.14062 25.478125 343.14062 24.259375Q343.14062 23.103125 342.60938 22.509375Q342.09375 21.915625 341.3125 21.915625Q340.53125 21.915625 340.0 22.509375Q339.48438 23.0875 339.48438 24.290625ZM345.78125 27.4L345.78125 21.18125L346.73438 21.18125L346.73438 22.11875Q347.09375 21.4625 347.39062 21.259375Q347.70312 21.040625 348.07812 21.040625Q348.60938 21.040625 349.15625 21.36875L348.79688 22.353125Q348.40625 22.11875 348.03125 22.11875Q347.67188 22.11875 347.39062 22.3375Q347.125 22.540625 347.01562 22.915625Q346.82812 23.478125 346.82812 24.134375L346.82812 27.4L345.78125 27.4ZM354.04688 25.4L355.14062 25.525Q354.89062 26.478125 354.1875 27.009375Q353.48438 27.540625 352.40625 27.540625Q351.04688 27.540625 350.23438 26.696875Q349.4375 25.853125 349.4375 24.3375Q349.4375 22.775 350.25 21.915625Q351.0625 21.040625 352.34375 21.040625Q353.59375 21.040625 354.375 21.884375Q355.17188 22.728125 355.17188 24.275Q355.17188 24.36875 355.17188 24.55625L350.53125 24.55625Q350.59375 25.5875 351.10938 26.134375Q351.625 26.665625 352.40625 26.665625Q352.98438 26.665625 353.39062 26.36875Q353.8125 26.05625 354.04688 25.4ZM350.59375 23.696875L354.0625 23.696875Q354.0 22.9 353.67188 22.509375Q353.15625 21.9 352.35938 21.9Q351.625 21.9 351.125 22.384375Q350.64062 22.86875 350.59375 23.696875ZM359.40625 24.290625Q359.40625 22.55625 360.35938 21.728125Q361.15625 21.040625 362.3125 21.040625Q363.59375 21.040625 364.40625 21.884375Q365.23438 22.7125 365.23438 24.196875Q365.23438 25.4 364.875 26.0875Q364.51562 26.775 363.8125 27.165625Q363.125 27.540625 362.3125 27.540625Q361.01562 27.540625 360.20312 26.7125Q359.40625 25.86875 359.40625 24.290625ZM360.48438 24.290625Q360.48438 25.478125 361.0 26.071875Q361.53125 26.665625 362.3125 26.665625Q363.10938 26.665625 363.625 26.071875Q364.14062 25.478125 364.14062 24.259375Q364.14062 23.103125 363.60938 22.509375Q363.09375 21.915625 362.3125 21.915625Q361.53125 21.915625 361.0 22.509375Q360.48438 23.0875 360.48438 24.290625ZM369.09375 26.4625L369.25 27.384375Q368.79688 27.478125 368.45312 27.478125Q367.875 27.478125 367.5625 27.30625Q367.25 27.11875 367.10938 26.821875Q366.98438 26.525 366.98438 25.571875L366.98438 21.99375L366.21875 21.99375L366.21875 21.18125L366.98438 21.18125L366.98438 19.634375L368.03125 19.009375L368.03125 21.18125L369.09375 21.18125L369.09375 21.99375L368.03125 21.99375L368.03125 25.634375Q368.03125 26.0875 368.07812 26.2125Q368.14062 26.3375 368.26562 26.415625Q368.39062 26.49375 368.625 26.49375Q368.8125 26.49375 369.09375 26.4625ZM372.09375 26.4625L372.25 27.384375Q371.79688 27.478125 371.45312 27.478125Q370.875 27.478125 370.5625 27.30625Q370.25 27.11875 370.10938 26.821875Q369.98438 26.525 369.98438 25.571875L369.98438 21.99375L369.21875 21.99375L369.21875 21.18125L369.98438 21.18125L369.98438 19.634375L371.03125 19.009375L371.03125 21.18125L372.09375 21.18125L372.09375 21.99375L371.03125 21.99375L371.03125 25.634375Q371.03125 26.0875 371.07812 26.2125Q371.14062 26.3375 371.26562 26.415625Q371.39062 26.49375 371.625 26.49375Q371.8125 26.49375 372.09375 26.4625ZM372.79688 20.025L372.79688 18.80625L373.85938 18.80625L373.85938 20.025L372.79688 20.025ZM372.79688 27.4L372.79688 21.18125L373.85938 21.18125L373.85938 27.4L372.79688 27.4ZM375.79688 27.4L375.79688 21.18125L376.73438 21.18125L376.73438 22.05625Q377.03125 21.5875 377.51562 21.321875Q378.0 21.040625 378.625 21.040625Q379.3125 21.040625 379.75 21.321875Q380.20312 21.603125 380.375 22.11875Q381.125 21.040625 382.29688 21.040625Q383.23438 21.040625 383.71875 21.55625Q384.21875 22.05625 384.21875 23.134375L384.21875 27.4L383.17188 27.4L383.17188 23.478125Q383.17188 22.853125 383.0625 22.571875Q382.96875 22.290625 382.70312 22.11875Q382.4375 21.946875 382.0625 21.946875Q381.40625 21.946875 380.96875 22.384375Q380.54688 22.821875 380.54688 23.790625L380.54688 27.4L379.48438 27.4L379.48438 23.353125Q379.48438 22.65 379.21875 22.30625Q378.96875 21.946875 378.39062 21.946875Q377.9375 21.946875 377.5625 22.18125Q377.1875 22.415625 377.01562 22.86875Q376.84375 23.321875 376.84375 24.165625L376.84375 27.4L375.79688 27.4ZM386.40625 24.290625Q386.40625 22.55625 387.35938 21.728125Q388.15625 21.040625 389.3125 21.040625Q390.59375 21.040625 391.40625 21.884375Q392.23438 22.7125 392.23438 24.196875Q392.23438 25.4 391.875 26.0875Q391.51562 26.775 390.8125 27.165625Q390.125 27.540625 389.3125 27.540625Q388.01562 27.540625 387.20312 26.7125Q386.40625 25.86875 386.40625 24.290625ZM387.48438 24.290625Q387.48438 25.478125 388.0 26.071875Q388.53125 26.665625 389.3125 26.665625Q390.10938 26.665625 390.625 26.071875Q391.14062 25.478125 391.14062 24.259375Q391.14062 23.103125 390.60938 22.509375Q390.09375 21.915625 389.3125 21.915625Q388.53125 21.915625 388.0 22.509375Q387.48438 23.0875 387.48438 24.290625Z" fill-rule="nonzero"/></svg>