<svg version="1.1" viewBox="0.0 0.0 532.0 328.0" fill="none" stroke="none" stroke-linecap="square" stroke-miterlimit="10" width="532" height="328" xmlns:xlink="http://www.w3.org/1999/xlink" xmlns="http://www.w3.org/2000/svg"><path fill="#ffffff" d="M0 0L532.0 0L532.0 328.0L0 328.0L0 0Z" fill-rule="nonzero"/><path stroke="#333333" stroke-width="1.0" stroke-linecap="butt" d="M81.5 271.5L515.5 271.5" fill-rule="nonzero"/><path stroke="#cccccc" stroke-width="1.0" stroke-linecap="butt" d="M81.5 249.5L515.5 249.5" fill-rule="nonzero"/><path stroke="#cccccc" stroke-width="1.0" stroke-linecap="butt" d="M81.5 226.5L515.5 226.5" fill-rule="nonzero"/><path stroke="#cccccc" stroke-width="1.0" stroke-linecap="butt" d="M81.5 204.5L515.5 204.5" fill-rule="nonzero"/><path stroke="#cccccc" stroke-width="1.0" stroke-linecap="butt" d="M81.5 182.5L515.5 182.5" fill-rule="nonzero"/><path stroke="#cccccc" stroke-width="1.0" stroke-linecap="butt" d="M81.5 159.5L515.5 159.5" fill-rule="nonzero"/><path stroke="#cccccc" stroke-width="1.0" stroke-linecap="butt" d="M81.5 137.5L515.5 137.5" fill-rule="nonzero"/><path stroke="#cccccc" stroke-width="1.0" stroke-linecap="butt" d="M81.5 115.5L515.5 115.5" fill-rule="nonzero"/><path stroke="#cccccc" stroke-width="1.0" stroke-linecap="butt" d="M81.5 92.5L515.5 92.5" fill-rule="nonzero"/><path stroke="#cccccc" stroke-width="1.0" stroke-linecap="butt" d="M81.5 70.5L515.5 70.5" fill-rule="nonzero"/><path stroke="#cccccc" stroke-width="1.0" stroke-linecap="butt" d="M81.5 48.5L515.5 48.5" fill-rule="nonzero"/><path stroke="#000000" stroke-width="1.0" stroke-linecap="butt" d="M515.5 271.5L81.5 271.5" fill-rule="nonzero"/><path stroke="#000000" stroke-width="1.0" stroke-linecap="butt" d="M81.5 271.5L81.5 48.5" fill-rule="nonzero"/><clipPath id="id_0"><path d="M81.4 48.333332L515.6 48.333332L515.6 271.6L81.4 271.6L81.4 48.333332Z" clip-rule="nonzero"/></clipPath><path stroke="#4285f4" stroke-width="2.0" stroke-linecap="butt" clip-path="url(#id_0)" d="M103.11 271.6C103.11 271.6 132.05667 302.3396 146.53 271.6C161.00333 240.86038 175.47667 111.49266 189.95 87.162315C204.42334 62.831978 218.89667 121.82431 233.37 125.61795C247.84334 129.41159 262.31668 121.52177 276.79 109.92414C291.26334 98.32651 305.73666 65.014175 320.21 56.032185C334.68332 47.05019 349.15668 43.200768 363.63 56.032185C378.10333 68.8636 392.57666 130.4544 407.05 133.02069C421.52335 135.58698 435.99667 80.41188 450.47 71.429886C464.94333 62.44789 493.89 79.12874 493.89 79.12874" fill-rule="nonzero"/><path stroke="#ea4335" stroke-width="2.0" stroke-linecap="butt" clip-path="url(#id_0)" d="M103.11 48.333332C103.11 48.333332 132.05667 48.333332 146.53 48.333332C161.00333 48.333332 175.47667 48.333332 189.95 48.333332C204.42334 48.333332 218.89667 48.333332 233.37 48.333332C247.84334 48.333332 262.31668 48.333332 276.79 48.333332C291.26334 48.333332 305.73666 48.333332 320.21 48.333332C334.68332 48.333332 349.15668 48.333332 363.63 48.333332C378.10333 48.333332 392.57666 48.333332 407.05 48.333332C421.52335 48.333332 435.99667 48.333332 450.47 48.333332C464.94333 48.333332 493.89 48.333332 493.89 48.333332" fill-rule="nonzero"/><path stroke="#fbbc04" stroke-width="2.0" stroke-linecap="butt" stroke-opacity="0.7019608" clip-path="url(#id_0)" d="M103.11 104.15C103.11 104.15 132.05667 104.15 146.53 104.15C161.00333 104.15 175.47667 104.15 189.95 104.15C204.42334 104.15 218.89667 104.15 233.37 104.15C247.84334 104.15 262.31668 104.15 276.79 104.15C291.26334 104.15 305.73666 104.15 320.21 104.15C334.68332 104.15 349.15668 104.15 363.63 104.15C378.10333 104.15 392.57666 104.15 407.05 104.15C421.52335 104.15 435.99667 104.15 450.47 104.15C464.94333 104.15 493.89 104.15 493.89 104.15" fill-rule="nonzero"/><path fill="#4285f4" clip-path="url(#id_0)" d="M106.61 271.6C106.61 273.533 105.043 275.1 103.11 275.1C101.177 275.1 99.61 273.533 99.61 271.6C99.61 269.667 101.177 268.1 103.11 268.1C105.043 268.1 106.61 269.667 106.61 271.6Z" fill-rule="nonzero"/><path fill="#4285f4" clip-path="url(#id_0)" d="M150.03 271.6C150.03 273.533 148.463 275.1 146.53 275.1C144.597 275.1 143.03 273.533 143.03 271.6C143.03 269.667 144.597 268.1 146.53 268.1C148.463 268.1 150.03 269.667 150.03 271.6Z" fill-rule="nonzero"/><path fill="#4285f4" clip-path="url(#id_0)" d="M193.45 87.162315C193.45 89.095314 191.883 90.662315 189.95 90.662315C188.017 90.662315 186.45 89.095314 186.45 87.162315C186.45 85.229324 188.017 83.662315 189.95 83.662315C191.883 83.662315 193.45 85.229324 193.45 87.162315Z" fill-rule="nonzero"/><path fill="#4285f4" clip-path="url(#id_0)" d="M236.87 125.61795C236.87 127.55095 235.303 129.11795 233.37 129.11795C231.437 129.11795 229.87 127.55095 229.87 125.61795C229.87 123.68495 231.437 122.11795 233.37 122.11795C235.303 122.11795 236.87 123.68495 236.87 125.61795Z" fill-rule="nonzero"/><path fill="#4285f4" clip-path="url(#id_0)" d="M280.29 109.92414C280.29 111.85713 278.723 113.42414 276.79 113.42414C274.857 113.42414 273.29 111.85713 273.29 109.92414C273.29 107.99114 274.857 106.42414 276.79 106.42414C278.723 106.42414 280.29 107.99114 280.29 109.92414Z" fill-rule="nonzero"/><path fill="#4285f4" clip-path="url(#id_0)" d="M323.71 56.032185C323.71 57.96518 322.143 59.532185 320.21 59.532185C318.277 59.532185 316.71 57.96518 316.71 56.032185C316.71 54.099186 318.277 52.532185 320.21 52.532185C322.143 52.532185 323.71 54.099186 323.71 56.032185Z" fill-rule="nonzero"/><path fill="#4285f4" clip-path="url(#id_0)" d="M367.13 56.032185C367.13 57.96518 365.563 59.532185 363.63 59.532185C361.697 59.532185 360.13 57.96518 360.13 56.032185C360.13 54.099186 361.697 52.532185 363.63 52.532185C365.563 52.532185 367.13 54.099186 367.13 56.032185Z" fill-rule="nonzero"/><path fill="#4285f4" clip-path="url(#id_0)" d="M410.55 133.02069C410.55 134.95369 408.983 136.52069 407.05 136.52069C405.117 136.52069 403.55 134.95369 403.55 133.02069C403.55 131.08769 405.117 129.52069 407.05 129.52069C408.983 129.52069 410.55 131.08769 410.55 133.02069Z" fill-rule="nonzero"/><path fill="#4285f4" clip-path="url(#id_0)" d="M453.97 71.429886C453.97 73.362885 452.40298 74.929886 450.47 74.929886C448.53702 74.929886 446.97 73.362885 446.97 71.429886C446.97 69.49689 448.53702 67.929886 450.47 67.929886C452.40298 67.929886 453.97 69.49689 453.97 71.429886Z" fill-rule="nonzero"/><path fill="#4285f4" clip-path="url(#id_0)" d="M497.39 79.12874C497.39 81.06173 495.823 82.62874 493.89 82.62874C491.957 82.62874 490.39 81.06173 490.39 79.12874C490.39 77.19574 491.957 75.62874 493.89 75.62874C495.823 75.62874 497.39 77.19574 497.39 79.12874Z" fill-rule="nonzero"/><path fill="#ea4335" clip-path="url(#id_0)" d="M106.61 48.333332C106.61 50.26633 105.043 51.833332 103.11 51.833332C101.177 51.833332 99.61 50.26633 99.61 48.333332C99.61 46.400337 101.177 44.833332 103.11 44.833332C105.043 44.833332 106.61 46.400337 106.61 48.333332Z" fill-rule="nonzero"/><path fill="#ea4335" clip-path="url(#id_0)" d="M150.03 48.333332C150.03 50.26633 148.463 51.833332 146.53 51.833332C144.597 51.833332 143.03 50.26633 143.03 48.333332C143.03 46.400337 144.597 44.833332 146.53 44.833332C148.463 44.833332 150.03 46.400337 150.03 48.333332Z" fill-rule="nonzero"/><path fill="#ea4335" clip-path="url(#id_0)" d="M193.45 48.333332C193.45 50.26633 191.883 51.833332 189.95 51.833332C188.017 51.833332 186.45 50.26633 186.45 48.333332C186.45 46.400337 188.017 44.833332 189.95 44.833332C191.883 44.833332 193.45 46.400337 193.45 48.333332Z" fill-rule="nonzero"/><path fill="#ea4335" clip-path="url(#id_0)" d="M236.87 48.333332C236.87 50.26633 235.303 51.833332 233.37 51.833332C231.437 51.833332 229.87 50.26633 229.87 48.333332C229.87 46.400337 231.437 44.833332 233.37 44.833332C235.303 44.833332 236.87 46.400337 236.87 48.333332Z" fill-rule="nonzero"/><path fill="#ea4335" clip-path="url(#id_0)" d="M280.29 48.333332C280.29 50.26633 278.723 51.833332 276.79 51.833332C274.857 51.833332 273.29 50.26633 273.29 48.333332C273.29 46.400337 274.857 44.833332 276.79 44.833332C278.723 44.833332 280.29 46.400337 280.29 48.333332Z" fill-rule="nonzero"/><path fill="#ea4335" clip-path="url(#id_0)" d="M323.71 48.333332C323.71 50.26633 322.143 51.833332 320.21 51.833332C318.277 51.833332 316.71 50.26633 316.71 48.333332C316.71 46.400337 318.277 44.833332 320.21 44.833332C322.143 44.833332 323.71 46.400337 323.71 48.333332Z" fill-rule="nonzero"/><path fill="#ea4335" clip-path="url(#id_0)" d="M367.13 48.333332C367.13 50.26633 365.563 51.833332 363.63 51.833332C361.697 51.833332 360.13 50.26633 360.13 48.333332C360.13 46.400337 361.697 44.833332 363.63 44.833332C365.563 44.833332 367.13 46.400337 367.13 48.333332Z" fill-rule="nonzero"/><path fill="#ea4335" clip-path="url(#id_0)" d="M410.55 48.333332C410.55 50.26633 408.983 51.833332 407.05 51.833332C405.117 51.833332 403.55 50.26633 403.55 48.333332C403.55 46.400337 405.117 44.833332 407.05 44.833332C408.983 44.833332 410.55 46.400337 410.55 48.333332Z" fill-rule="nonzero"/><path fill="#ea4335" clip-path="url(#id_0)" d="M453.97 48.333332C453.97 50.26633 452.40298 51.833332 450.47 51.833332C448.53702 51.833332 446.97 50.26633 446.97 48.333332C446.97 46.400337 448.53702 44.833332 450.47 44.833332C452.40298 44.833332 453.97 46.400337 453.97 48.333332Z" fill-rule="nonzero"/><path fill="#ea4335" clip-path="url(#id_0)" d="M497.39 48.333332C497.39 50.26633 495.823 51.833332 493.89 51.833332C491.957 51.833332 490.39 50.26633 490.39 48.333332C490.39 46.400337 491.957 44.833332 493.89 44.833332C495.823 44.833332 497.39 46.400337 497.39 48.333332Z" fill-rule="nonzero"/><path fill="#fbbc04" fill-opacity="0.7019608" clip-path="url(#id_0)" d="M106.61 104.15C106.61 106.083 105.043 107.65 103.11 107.65C101.177 107.65 99.61 106.083 99.61 104.15C99.61 102.217 101.177 100.65 103.11 100.65C105.043 100.65 106.61 102.217 106.61 104.15Z" fill-rule="nonzero"/><path fill="#fbbc04" fill-opacity="0.7019608" clip-path="url(#id_0)" d="M150.03 104.15C150.03 106.083 148.463 107.65 146.53 107.65C144.597 107.65 143.03 106.083 143.03 104.15C143.03 102.217 144.597 100.65 146.53 100.65C148.463 100.65 150.03 102.217 150.03 104.15Z" fill-rule="nonzero"/><path fill="#fbbc04" fill-opacity="0.7019608" clip-path="url(#id_0)" d="M193.45 104.15C193.45 106.083 191.883 107.65 189.95 107.65C188.017 107.65 186.45 106.083 186.45 104.15C186.45 102.217 188.017 100.65 189.95 100.65C191.883 100.65 193.45 102.217 193.45 104.15Z" fill-rule="nonzero"/><path fill="#fbbc04" fill-opacity="0.7019608" clip-path="url(#id_0)" d="M236.87 104.15C236.87 106.083 235.303 107.65 233.37 107.65C231.437 107.65 229.87 106.083 229.87 104.15C229.87 102.217 231.437 100.65 233.37 100.65C235.303 100.65 236.87 102.217 236.87 104.15Z" fill-rule="nonzero"/><path fill="#fbbc04" fill-opacity="0.7019608" clip-path="url(#id_0)" d="M280.29 104.15C280.29 106.083 278.723 107.65 276.79 107.65C274.857 107.65 273.29 106.083 273.29 104.15C273.29 102.217 274.857 100.65 276.79 100.65C278.723 100.65 280.29 102.217 280.29 104.15Z" fill-rule="nonzero"/><path fill="#fbbc04" fill-opacity="0.7019608" clip-path="url(#id_0)" d="M323.71 104.15C323.71 106.083 322.143 107.65 320.21 107.65C318.277 107.65 316.71 106.083 316.71 104.15C316.71 102.217 318.277 100.65 320.21 100.65C322.143 100.65 323.71 102.217 323.71 104.15Z" fill-rule="nonzero"/><path fill="#fbbc04" fill-opacity="0.7019608" clip-path="url(#id_0)" d="M367.13 104.15C367.13 106.083 365.563 107.65 363.63 107.65C361.697 107.65 360.13 106.083 360.13 104.15C360.13 102.217 361.697 100.65 363.63 100.65C365.563 100.65 367.13 102.217 367.13 104.15Z" fill-rule="nonzero"/><path fill="#fbbc04" fill-opacity="0.7019608" clip-path="url(#id_0)" d="M410.55 104.15C410.55 106.083 408.983 107.65 407.05 107.65C405.117 107.65 403.55 106.083 403.55 104.15C403.55 102.217 405.117 100.65 407.05 100.65C408.983 100.65 410.55 102.217 410.55 104.15Z" fill-rule="nonzero"/><path fill="#fbbc04" fill-opacity="0.7019608" clip-path="url(#id_0)" d="M453.97 104.15C453.97 106.083 452.40298 107.65 450.47 107.65C448.53702 107.65 446.97 106.083 446.97 104.15C446.97 102.217 448.53702 100.65 450.47 100.65C452.40298 100.65 453.97 102.217 453.97 104.15Z" fill-rule="nonzero"/><path fill="#fbbc04" fill-opacity="0.7019608" clip-path="url(#id_0)" d="M497.39 104.15C497.39 106.083 495.823 107.65 493.89 107.65C491.957 107.65 490.39 106.083 490.39 104.15C490.39 102.217 491.957 100.65 493.89 100.65C495.823 100.65 497.39 102.217 497.39 104.15Z" fill-rule="nonzero"/><path stroke="#000000" stroke-width="1.0" stroke-linecap="butt" d="M103.5 277.5L103.5 265.5" fill-rule="nonzero"/><path stroke="#000000" stroke-width="1.0" stroke-linecap="butt" d="M146.5 277.5L146.5 265.5" fill-rule="nonzero"/><path stroke="#000000" stroke-width="1.0" stroke-linecap="butt" d="M189.5 277.5L189.5 265.5" fill-rule="nonzero"/><path stroke="#000000" stroke-width="1.0" stroke-linecap="butt" d="M233.5 277.5L233.5 265.5" fill-rule="nonzero"/><path stroke="#000000" stroke-width="1.0" stroke-linecap="butt" d="M276.5 277.5L276.5 265.5" fill-rule="nonzero"/><path stroke="#000000" stroke-width="1.0" stroke-linecap="butt" d="M320.5 277.5L320.5 265.5" fill-rule="nonzero"/><path stroke="#000000" stroke-width="1.0" stroke-linecap="butt" d="M363.5 277.5L363.5 265.5" fill-rule="nonzero"/><path stroke="#000000" stroke-width="1.0" stroke-linecap="butt" d="M407.5 277.5L407.5 265.5" fill-rule="nonzero"/><path stroke="#000000" stroke-width="1.0" stroke-linecap="butt" d="M450.5 277.5L450.5 265.5" fill-rule="nonzero"/><path stroke="#000000" stroke-width="1.0" stroke-linecap="butt" d="M493.5 277.5L493.5 265.5" fill-rule="nonzero"/><path stroke="#000000" stroke-width="1.0" stroke-linecap="butt" d="M75.5 271.5L87.5 271.5" fill-rule="nonzero"/><path stroke="#000000" stroke-width="1.0" stroke-linecap="butt" d="M75.5 249.5L87.5 249.5" fill-rule="nonzero"/><path stroke="#000000" stroke-width="1.0" stroke-linecap="butt" d="M75.5 226.5L87.5 226.5" fill-rule="nonzero"/><path stroke="#000000" stroke-width="1.0" stroke-linecap="butt" d="M75.5 204.5L87.5 204.5" fill-rule="nonzero"/><path stroke="#000000" stroke-width="1.0" stroke-linecap="butt" d="M75.5 182.5L87.5 182.5" fill-rule="nonzero"/><path stroke="#000000" stroke-width="1.0" stroke-linecap="butt" d="M75.5 159.5L87.5 159.5" fill-rule="nonzero"/><path stroke="#000000" stroke-width="1.0" stroke-linecap="butt" d="M75.5 137.5L87.5 137.5" fill-rule="nonzero"/><path stroke="#000000" stroke-width="1.0" stroke-linecap="butt" d="M75.5 115.5L87.5 115.5" fill-rule="nonzero"/><path stroke="#000000" stroke-width="1.0" stroke-linecap="butt" d="M75.5 92.5L87.5 92.5" fill-rule="nonzero"/><path stroke="#000000" stroke-width="1.0" stroke-linecap="butt" d="M75.5 70.5L87.5 70.5" fill-rule="nonzero"/><path stroke="#000000" stroke-width="1.0" stroke-linecap="butt" d="M75.5 48.5L87.5 48.5" fill-rule="nonzero"/><path fill="#000000" d="M62.9 271.36563Q62.9 269.83438 63.2125 268.9125Q63.525 267.975 64.13438 267.475Q64.75938 266.975 65.69688 266.975Q66.38438 266.975 66.9 267.25626Q67.43125 267.5375 67.775 268.06876Q68.11875 268.58438 68.30625 269.33438Q68.49375 270.08438 68.49375 271.36563Q68.49375 272.88126 68.18125 273.80313Q67.88438 274.725 67.25938 275.24063Q66.65 275.74063 65.69688 275.74063Q64.4625 275.74063 63.74375 274.85Q62.9 273.7875 62.9 271.36563ZM63.978127 271.36563Q63.978127 273.475 64.47813 274.17813Q64.97813 274.88126 65.69688 274.88126Q66.43125 274.88126 66.91563 274.17813Q67.41563 273.475 67.41563 271.36563Q67.41563 269.24063 66.91563 268.55313Q66.43125 267.85 65.68125 267.85Q64.9625 267.85 64.525 268.45938Q63.978127 269.24063 63.978127 271.36563Z" fill-rule="nonzero"/><path fill="#000000" d="M59.86875 253.27333L58.821877 253.27333L58.821877 246.55458Q58.43125 246.91396 57.80625 247.28896Q57.196877 247.64833 56.7125 247.8202L56.7125 246.80458Q57.5875 246.3827 58.24375 245.80458Q58.915627 245.21083 59.196877 244.64833L59.86875 244.64833L59.86875 253.27333ZM62.9 249.03896Q62.9 247.5077 63.2125 246.58583Q63.525 245.64833 64.13438 245.14833Q64.75938 244.64833 65.69688 244.64833Q66.38438 244.64833 66.9 244.92958Q67.43125 245.21083 67.775 245.74208Q68.11875 246.2577 68.30625 247.0077Q68.49375 247.7577 68.49375 249.03896Q68.49375 250.55458 68.18125 251.47646Q67.88438 252.39833 67.25938 252.91396Q66.65 253.41396 65.69688 253.41396Q64.4625 253.41396 63.74375 252.52333Q62.9 251.46083 62.9 249.03896ZM63.978127 249.03896Q63.978127 251.14833 64.47813 251.85146Q64.97813 252.55458 65.69688 252.55458Q66.43125 252.55458 66.91563 251.85146Q67.41563 251.14833 67.41563 249.03896Q67.41563 246.91396 66.91563 246.22646Q66.43125 245.52333 65.68125 245.52333Q64.9625 245.52333 64.525 246.1327Q63.978127 246.91396 63.978127 249.03896Z" fill-rule="nonzero"/><path fill="#000000" d="M61.446877 229.93105L61.446877 230.94667L55.759377 230.94667Q55.759377 230.57167 55.884377 230.2123Q56.103127 229.63417 56.571877 229.07167Q57.05625 228.50917 57.9625 227.7748Q59.36875 226.61855 59.853127 225.94667Q60.353127 225.2748 60.353127 224.68105Q60.353127 224.05605 59.9 223.63417Q59.446877 223.19667 58.728127 223.19667Q57.9625 223.19667 57.509377 223.6498Q57.05625 224.10292 57.040627 224.91542L55.9625 224.80605Q56.071877 223.5873 56.790627 222.9623Q57.525 222.32167 58.759377 222.32167Q59.99375 222.32167 60.7125 223.00917Q61.43125 223.69667 61.43125 224.7123Q61.43125 225.22792 61.2125 225.72792Q61.009377 226.2123 60.509377 226.7748Q60.025 227.32167 58.9 228.2748Q57.946877 229.07167 57.665627 229.36855Q57.4 229.6498 57.228127 229.93105L61.446877 229.93105ZM62.9 226.7123Q62.9 225.18105 63.2125 224.25917Q63.525 223.32167 64.13438 222.82167Q64.75938 222.32167 65.69688 222.32167Q66.38438 222.32167 66.9 222.60292Q67.43125 222.88417 67.775 223.41542Q68.11875 223.93105 68.30625 224.68105Q68.49375 225.43105 68.49375 226.7123Q68.49375 228.22792 68.18125 229.1498Q67.88438 230.07167 67.25938 230.5873Q66.65 231.0873 65.69688 231.0873Q64.4625 231.0873 63.74375 230.19667Q62.9 229.13417 62.9 226.7123ZM63.978127 226.7123Q63.978127 228.82167 64.47813 229.5248Q64.97813 230.22792 65.69688 230.22792Q66.43125 230.22792 66.91563 229.5248Q67.41563 228.82167 67.41563 226.7123Q67.41563 224.5873 66.91563 223.8998Q66.43125 223.19667 65.68125 223.19667Q64.9625 223.19667 64.525 223.80605Q63.978127 224.5873 63.978127 226.7123Z" fill-rule="nonzero"/><path fill="#000000" d="M55.9 206.35437L56.9625 206.21375Q57.134377 207.10437 57.571877 207.51062Q58.009377 207.90125 58.634377 207.90125Q59.384377 207.90125 59.9 207.38562Q60.415627 206.87 60.415627 206.10437Q60.415627 205.38562 59.93125 204.91687Q59.4625 204.4325 58.728127 204.4325Q58.43125 204.4325 57.978127 204.5575L58.103127 203.62Q58.2125 203.63562 58.275 203.63562Q58.946877 203.63562 59.478127 203.29187Q60.025 202.9325 60.025 202.19812Q60.025 201.62 59.634377 201.245Q59.24375 200.85437 58.61875 200.85437Q58.009377 200.85437 57.5875 201.245Q57.18125 201.63562 57.071877 202.40125L56.009377 202.21375Q56.196877 201.16687 56.884377 200.58875Q57.571877 199.995 58.5875 199.995Q59.290627 199.995 59.884377 200.3075Q60.478127 200.60437 60.790627 201.12Q61.103127 201.63562 61.103127 202.22937Q61.103127 202.77625 60.80625 203.245Q60.509377 203.69812 59.93125 203.96375Q60.68125 204.13562 61.103127 204.69812Q61.525 205.245 61.525 206.08875Q61.525 207.21375 60.696877 207.995Q59.884377 208.77625 58.634377 208.77625Q57.509377 208.77625 56.759377 208.10437Q56.009377 207.41687 55.9 206.35437ZM62.9 204.38562Q62.9 202.85437 63.2125 201.9325Q63.525 200.995 64.13438 200.495Q64.75938 199.995 65.69688 199.995Q66.38438 199.995 66.9 200.27625Q67.43125 200.5575 67.775 201.08875Q68.11875 201.60437 68.30625 202.35437Q68.49375 203.10437 68.49375 204.38562Q68.49375 205.90125 68.18125 206.82312Q67.88438 207.745 67.25938 208.26062Q66.65 208.76062 65.69688 208.76062Q64.4625 208.76062 63.74375 207.87Q62.9 206.8075 62.9 204.38562ZM63.978127 204.38562Q63.978127 206.495 64.47813 207.19812Q64.97813 207.90125 65.69688 207.90125Q66.43125 207.90125 66.91563 207.19812Q67.41563 206.495 67.41563 204.38562Q67.41563 202.26062 66.91563 201.57312Q66.43125 200.87 65.68125 200.87Q64.9625 200.87 64.525 201.47937Q63.978127 202.26062 63.978127 204.38562Z" fill-rule="nonzero"/><path fill="#000000" d="M59.275 186.29333L59.275 184.23083L55.55625 184.23083L55.55625 183.26208L59.478127 177.69958L60.3375 177.69958L60.3375 183.26208L61.49375 183.26208L61.49375 184.23083L60.3375 184.23083L60.3375 186.29333L59.275 186.29333ZM59.275 183.26208L59.275 179.40271L56.5875 183.26208L59.275 183.26208ZM62.9 182.05896Q62.9 180.52771 63.2125 179.60583Q63.525 178.66833 64.13438 178.16833Q64.75938 177.66833 65.69688 177.66833Q66.38438 177.66833 66.9 177.94958Q67.43125 178.23083 67.775 178.76208Q68.11875 179.27771 68.30625 180.02771Q68.49375 180.77771 68.49375 182.05896Q68.49375 183.57458 68.18125 184.49646Q67.88438 185.41833 67.25938 185.93396Q66.65 186.43396 65.69688 186.43396Q64.4625 186.43396 63.74375 185.54333Q62.9 184.48083 62.9 182.05896ZM63.978127 182.05896Q63.978127 184.16833 64.47813 184.87146Q64.97813 185.57458 65.69688 185.57458Q66.43125 185.57458 66.91563 184.87146Q67.41563 184.16833 67.41563 182.05896Q67.41563 179.93396 66.91563 179.24646Q66.43125 178.54333 65.68125 178.54333Q64.9625 178.54333 64.525 179.15271Q63.978127 179.93396 63.978127 182.05896Z" fill-rule="nonzero"/><path fill="#000000" d="M55.9 161.71666L57.009377 161.62291Q57.134377 162.43541 57.571877 162.84166Q58.025 163.24791 58.665627 163.24791Q59.415627 163.24791 59.946877 162.66978Q60.478127 162.09166 60.478127 161.15416Q60.478127 160.24791 59.9625 159.73228Q59.4625 159.20103 58.634377 159.20103Q58.134377 159.20103 57.7125 159.43541Q57.30625 159.66978 57.071877 160.02916L56.0875 159.90416L56.915627 155.49791L61.196877 155.49791L61.196877 156.49791L57.759377 156.49791L57.30625 158.81041Q58.071877 158.26353 58.915627 158.26353Q60.040627 158.26353 60.80625 159.04478Q61.5875 159.82603 61.5875 161.06041Q61.5875 162.21666 60.915627 163.07603Q60.0875 164.10728 58.665627 164.10728Q57.49375 164.10728 56.74375 163.45103Q56.009377 162.79478 55.9 161.71666ZM62.9 159.73228Q62.9 158.20103 63.2125 157.27916Q63.525 156.34166 64.13438 155.84166Q64.75938 155.34166 65.69688 155.34166Q66.38438 155.34166 66.9 155.62291Q67.43125 155.90416 67.775 156.43541Q68.11875 156.95103 68.30625 157.70103Q68.49375 158.45103 68.49375 159.73228Q68.49375 161.24791 68.18125 162.16978Q67.88438 163.09166 67.25938 163.60728Q66.65 164.10728 65.69688 164.10728Q64.4625 164.10728 63.74375 163.21666Q62.9 162.15416 62.9 159.73228ZM63.978127 159.73228Q63.978127 161.84166 64.47813 162.54478Q64.97813 163.24791 65.69688 163.24791Q66.43125 163.24791 66.91563 162.54478Q67.41563 161.84166 67.41563 159.73228Q67.41563 157.60728 66.91563 156.91978Q66.43125 156.21666 65.68125 156.21666Q64.9625 156.21666 64.525 156.82603Q63.978127 157.60728 63.978127 159.73228Z" fill-rule="nonzero"/><path fill="#000000" d="M61.36875 135.15562L60.321877 135.23375Q60.18125 134.60875 59.93125 134.3275Q59.49375 133.87437 58.86875 133.87437Q58.36875 133.87437 57.978127 134.15562Q57.49375 134.53062 57.196877 135.23375Q56.915627 135.92125 56.9 137.2025Q57.275 136.62437 57.821877 136.34312Q58.384377 136.06187 58.99375 136.06187Q60.040627 136.06187 60.775 136.84312Q61.525 137.62437 61.525 138.84312Q61.525 139.65562 61.165627 140.35875Q60.821877 141.04625 60.2125 141.42125Q59.603127 141.78062 58.8375 141.78062Q57.509377 141.78062 56.68125 140.81187Q55.853127 139.84312 55.853127 137.62437Q55.853127 135.12437 56.775 133.99937Q57.571877 133.015 58.93125 133.015Q59.946877 133.015 60.5875 133.59312Q61.24375 134.15562 61.36875 135.15562ZM57.071877 138.85875Q57.071877 139.40562 57.290627 139.90562Q57.525 140.39 57.93125 140.65562Q58.353127 140.92125 58.821877 140.92125Q59.478127 140.92125 59.9625 140.39Q60.446877 139.84312 60.446877 138.92125Q60.446877 138.03062 59.9625 137.515Q59.49375 136.99937 58.775 136.99937Q58.05625 136.99937 57.55625 137.515Q57.071877 138.03062 57.071877 138.85875ZM62.9 137.40562Q62.9 135.87437 63.2125 134.9525Q63.525 134.015 64.13438 133.515Q64.75938 133.015 65.69688 133.015Q66.38438 133.015 66.9 133.29625Q67.43125 133.5775 67.775 134.10875Q68.11875 134.62437 68.30625 135.37437Q68.49375 136.12437 68.49375 137.40562Q68.49375 138.92125 68.18125 139.84312Q67.88438 140.765 67.25938 141.28062Q66.65 141.78062 65.69688 141.78062Q64.4625 141.78062 63.74375 140.89Q62.9 139.8275 62.9 137.40562ZM63.978127 137.40562Q63.978127 139.515 64.47813 140.21812Q64.97813 140.92125 65.69688 140.92125Q66.43125 140.92125 66.91563 140.21812Q67.41563 139.515 67.41563 137.40562Q67.41563 135.28062 66.91563 134.59312Q66.43125 133.89 65.68125 133.89Q64.9625 133.89 64.525 134.49937Q63.978127 135.28062 63.978127 137.40562Z" fill-rule="nonzero"/><path fill="#000000" d="M55.9625 111.84458L55.9625 110.82896L61.525 110.82896L61.525 111.65708Q60.7125 112.53208 59.9 113.98521Q59.103127 115.42271 58.665627 116.95396Q58.3375 118.03208 58.259377 119.31333L57.165627 119.31333Q57.18125 118.29771 57.55625 116.86021Q57.946877 115.42271 58.65 114.09458Q59.36875 112.76646 60.18125 111.84458L55.9625 111.84458ZM62.9 115.07896Q62.9 113.54771 63.2125 112.62583Q63.525 111.68833 64.13438 111.18833Q64.75938 110.68833 65.69688 110.68833Q66.38438 110.68833 66.9 110.96958Q67.43125 111.25083 67.775 111.78208Q68.11875 112.29771 68.30625 113.04771Q68.49375 113.79771 68.49375 115.07896Q68.49375 116.59458 68.18125 117.51646Q67.88438 118.43833 67.25938 118.95396Q66.65 119.45396 65.69688 119.45396Q64.4625 119.45396 63.74375 118.56333Q62.9 117.50083 62.9 115.07896ZM63.978127 115.07896Q63.978127 117.18833 64.47813 117.89146Q64.97813 118.59458 65.69688 118.59458Q66.43125 118.59458 66.91563 117.89146Q67.41563 117.18833 67.41563 115.07896Q67.41563 112.95396 66.91563 112.26646Q66.43125 111.56333 65.68125 111.56333Q64.9625 111.56333 64.525 112.17271Q63.978127 112.95396 63.978127 115.07896Z" fill-rule="nonzero"/><path fill="#000000" d="M57.525 92.330414Q56.86875 92.080414 56.540627 91.642914Q56.228127 91.18979 56.228127 90.580414Q56.228127 89.642914 56.9 89.00229Q57.5875 88.361664 58.696877 88.361664Q59.821877 88.361664 60.509377 89.017914Q61.196877 89.674164 61.196877 90.611664Q61.196877 91.205414 60.884377 91.642914Q60.571877 92.080414 59.93125 92.330414Q60.728127 92.580414 61.134377 93.15854Q61.540627 93.736664 61.540627 94.53354Q61.540627 95.62729 60.759377 96.37729Q59.99375 97.12729 58.7125 97.12729Q57.446877 97.12729 56.665627 96.37729Q55.884377 95.62729 55.884377 94.50229Q55.884377 93.65854 56.30625 93.09604Q56.74375 92.53354 57.525 92.330414ZM57.30625 90.53354Q57.30625 91.142914 57.696877 91.53354Q58.103127 91.924164 58.728127 91.924164Q59.3375 91.924164 59.728127 91.549164Q60.11875 91.15854 60.11875 90.59604Q60.11875 90.017914 59.7125 89.62729Q59.30625 89.22104 58.7125 89.22104Q58.103127 89.22104 57.696877 89.611664Q57.30625 90.00229 57.30625 90.53354ZM56.978127 94.50229Q56.978127 94.955414 57.18125 95.37729Q57.4 95.799164 57.821877 96.03354Q58.24375 96.267914 58.728127 96.267914Q59.478127 96.267914 59.9625 95.78354Q60.4625 95.299164 60.4625 94.549164Q60.4625 93.78354 59.9625 93.28354Q59.4625 92.78354 58.696877 92.78354Q57.946877 92.78354 57.4625 93.28354Q56.978127 93.767914 56.978127 94.50229ZM62.9 92.75229Q62.9 91.22104 63.2125 90.299164Q63.525 89.361664 64.13438 88.861664Q64.75938 88.361664 65.69688 88.361664Q66.38438 88.361664 66.9 88.642914Q67.43125 88.924164 67.775 89.455414Q68.11875 89.97104 68.30625 90.72104Q68.49375 91.47104 68.49375 92.75229Q68.49375 94.267914 68.18125 95.18979Q67.88438 96.111664 67.25938 96.62729Q66.65 97.12729 65.69688 97.12729Q64.4625 97.12729 63.74375 96.236664Q62.9 95.174164 62.9 92.75229ZM63.978127 92.75229Q63.978127 94.861664 64.47813 95.56479Q64.97813 96.267914 65.69688 96.267914Q66.43125 96.267914 66.91563 95.56479Q67.41563 94.861664 67.41563 92.75229Q67.41563 90.62729 66.91563 89.93979Q66.43125 89.236664 65.68125 89.236664Q64.9625 89.236664 64.525 89.84604Q63.978127 90.62729 63.978127 92.75229Z" fill-rule="nonzero"/><path fill="#000000" d="M56.05625 72.67563L57.071877 72.58188Q57.196877 73.30063 57.55625 73.62875Q57.93125 73.94125 58.49375 73.94125Q58.978127 73.94125 59.3375 73.7225Q59.7125 73.48813 59.946877 73.12875Q60.18125 72.75375 60.3375 72.12875Q60.49375 71.48813 60.49375 70.83188Q60.49375 70.75375 60.49375 70.61313Q60.18125 71.11313 59.634377 71.44125Q59.0875 71.75375 58.446877 71.75375Q57.36875 71.75375 56.634377 70.98813Q55.9 70.20688 55.9 68.94125Q55.9 67.62875 56.665627 66.83188Q57.446877 66.035 58.603127 66.035Q59.43125 66.035 60.11875 66.48813Q60.821877 66.94125 61.18125 67.785Q61.540627 68.61313 61.540627 70.19125Q61.540627 71.83188 61.18125 72.81625Q60.8375 73.785 60.11875 74.30063Q59.415627 74.80063 58.478127 74.80063Q57.4625 74.80063 56.821877 74.25375Q56.18125 73.69125 56.05625 72.67563ZM60.36875 68.87875Q60.36875 67.9725 59.884377 67.44125Q59.415627 66.91 58.728127 66.91Q58.025 66.91 57.49375 67.48813Q56.978127 68.05063 56.978127 68.9725Q56.978127 69.785 57.478127 70.30063Q57.978127 70.81625 58.696877 70.81625Q59.43125 70.81625 59.9 70.30063Q60.36875 69.785 60.36875 68.87875ZM62.9 70.42563Q62.9 68.89438 63.2125 67.9725Q63.525 67.035 64.13438 66.535Q64.75938 66.035 65.69688 66.035Q66.38438 66.035 66.9 66.31625Q67.43125 66.5975 67.775 67.12875Q68.11875 67.64438 68.30625 68.39438Q68.49375 69.14438 68.49375 70.42563Q68.49375 71.94125 68.18125 72.86313Q67.88438 73.785 67.25938 74.30063Q66.65 74.80063 65.69688 74.80063Q64.4625 74.80063 63.74375 73.91Q62.9 72.8475 62.9 70.42563ZM63.978127 70.42563Q63.978127 72.535 64.47813 73.23813Q64.97813 73.94125 65.69688 73.94125Q66.43125 73.94125 66.91563 73.23813Q67.41563 72.535 67.41563 70.42563Q67.41563 68.30063 66.91563 67.61313Q66.43125 66.91 65.68125 66.91Q64.9625 66.91 64.525 67.51938Q63.978127 68.30063 63.978127 70.42563Z" fill-rule="nonzero"/><path fill="#000000" d="M52.86875 52.333332L51.821877 52.333332L51.821877 45.614582Q51.43125 45.973957 50.80625 46.348957Q50.196877 46.708332 49.7125 46.880207L49.7125 45.864582Q50.5875 45.442707 51.24375 44.864582Q51.915627 44.270832 52.196877 43.708332L52.86875 43.708332L52.86875 52.333332ZM55.9 48.098957Q55.9 46.567707 56.2125 45.645832Q56.525 44.708332 57.134377 44.208332Q57.759377 43.708332 58.696877 43.708332Q59.384377 43.708332 59.9 43.989582Q60.43125 44.270832 60.775 44.802082Q61.11875 45.317707 61.30625 46.067707Q61.49375 46.817707 61.49375 48.098957Q61.49375 49.614582 61.18125 50.536457Q60.884377 51.458332 60.259377 51.973957Q59.65 52.473957 58.696877 52.473957Q57.4625 52.473957 56.74375 51.583332Q55.9 50.520832 55.9 48.098957ZM56.978127 48.098957Q56.978127 50.208332 57.478127 50.911457Q57.978127 51.614582 58.696877 51.614582Q59.43125 51.614582 59.915627 50.911457Q60.415627 50.208332 60.415627 48.098957Q60.415627 45.973957 59.915627 45.286457Q59.43125 44.583332 58.68125 44.583332Q57.9625 44.583332 57.525 45.192707Q56.978127 45.973957 56.978127 48.098957ZM62.9 48.098957Q62.9 46.567707 63.2125 45.645832Q63.525 44.708332 64.13438 44.208332Q64.75938 43.708332 65.69688 43.708332Q66.38438 43.708332 66.9 43.989582Q67.43125 44.270832 67.775 44.802082Q68.11875 45.317707 68.30625 46.067707Q68.49375 46.817707 68.49375 48.098957Q68.49375 49.614582 68.18125 50.536457Q67.88438 51.458332 67.25938 51.973957Q66.65 52.473957 65.69688 52.473957Q64.4625 52.473957 63.74375 51.583332Q62.9 50.520832 62.9 48.098957ZM63.978127 48.098957Q63.978127 50.208332 64.47813 50.911457Q64.97813 51.614582 65.69688 51.614582Q66.43125 51.614582 66.91563 50.911457Q67.41563 50.208332 67.41563 48.098957Q67.41563 45.973957 66.91563 45.286457Q66.43125 44.583332 65.68125 44.583332Q64.9625 44.583332 64.525 45.192707Q63.978127 45.973957 63.978127 48.098957Z" fill-rule="nonzero"/><path fill="#000000" d="M87.656876 291.83438L88.719376 291.74063Q88.7975 292.39688 89.07875 292.80313Q89.36 293.20938 89.938126 293.475Q90.531876 293.725 91.26625 293.725Q91.906876 293.725 92.406876 293.5375Q92.906876 293.33438 93.14125 293.00626Q93.39125 292.6625 93.39125 292.27188Q93.39125 291.86563 93.156876 291.56876Q92.9225 291.25626 92.39125 291.05313Q92.031876 290.9125 90.844376 290.63126Q89.6725 290.35 89.20375 290.1Q88.57875 289.77188 88.281876 289.30313Q87.985 288.81876 87.985 288.225Q87.985 287.58438 88.344376 287.02188Q88.719376 286.44376 89.4225 286.1625Q90.14125 285.86563 91.000626 285.86563Q91.95375 285.86563 92.688126 286.17813Q93.4225 286.475 93.813126 287.08438Q94.20375 287.67813 94.235 288.42813L93.14125 288.50626Q93.0475 287.69376 92.531876 287.2875Q92.031876 286.86563 91.0475 286.86563Q90.01625 286.86563 89.5475 287.24063Q89.07875 287.61563 89.07875 288.14688Q89.07875 288.61563 89.406876 288.9125Q89.735 289.20938 91.11 289.52188Q92.500626 289.83438 93.01625 290.06876Q93.76625 290.42813 94.125626 290.95938Q94.485 291.475 94.485 292.17813Q94.485 292.86563 94.094376 293.475Q93.70375 294.06876 92.969376 294.4125Q92.235 294.74063 91.313126 294.74063Q90.14125 294.74063 89.344376 294.4125Q88.563126 294.06876 88.11 293.38126Q87.6725 292.69376 87.656876 291.83438ZM95.906876 296.99063L95.906876 288.38126L96.86 288.38126L96.86 289.17813Q97.20375 288.70938 97.625626 288.475Q98.063126 288.24063 98.6725 288.24063Q99.469376 288.24063 100.07875 288.64688Q100.688126 289.05313 100.985 289.80313Q101.2975 290.55313 101.2975 291.44376Q101.2975 292.39688 100.95375 293.1625Q100.625626 293.92813 99.969376 294.33438Q99.313126 294.74063 98.594376 294.74063Q98.063126 294.74063 97.64125 294.52188Q97.219376 294.2875 96.95375 293.95938L96.95375 296.99063L95.906876 296.99063ZM96.86 291.52188Q96.86 292.725 97.344376 293.30313Q97.82875 293.86563 98.51625 293.86563Q99.219376 293.86563 99.719376 293.27188Q100.219376 292.67813 100.219376 291.42813Q100.219376 290.24063 99.735 289.6625Q99.250626 289.06876 98.563126 289.06876Q97.89125 289.06876 97.375626 289.69376Q96.86 290.31876 96.86 291.52188ZM102.89125 294.6L102.89125 288.38126L103.844376 288.38126L103.844376 289.31876Q104.20375 288.6625 104.500626 288.45938Q104.813126 288.24063 105.188126 288.24063Q105.719376 288.24063 106.26625 288.56876L105.906876 289.55313Q105.51625 289.31876 105.14125 289.31876Q104.781876 289.31876 104.500626 289.5375Q104.235 289.74063 104.125626 290.11563Q103.938126 290.67813 103.938126 291.33438L103.938126 294.6L102.89125 294.6ZM106.906876 287.225L106.906876 286.00626L107.969376 286.00626L107.969376 287.225L106.906876 287.225ZM106.906876 294.6L106.906876 288.38126L107.969376 288.38126L107.969376 294.6L106.906876 294.6ZM109.906876 294.6L109.906876 288.38126L110.844376 288.38126L110.844376 289.25626Q111.531876 288.24063 112.82875 288.24063Q113.39125 288.24063 113.86 288.44376Q114.344376 288.64688 114.57875 288.975Q114.813126 289.30313 114.906876 289.74063Q114.95375 290.0375 114.95375 290.77188L114.95375 294.6L113.906876 294.6L113.906876 290.81876Q113.906876 290.1625 113.781876 289.85Q113.656876 289.5375 113.344376 289.35Q113.031876 289.14688 112.61 289.14688Q111.938126 289.14688 111.438126 289.58438Q110.95375 290.00626 110.95375 291.19376L110.95375 294.6L109.906876 294.6ZM119.20375 293.6625L119.36 294.58438Q118.906876 294.67813 118.563126 294.67813Q117.985 294.67813 117.6725 294.50626Q117.36 294.31876 117.219376 294.02188Q117.094376 293.725 117.094376 292.77188L117.094376 289.19376L116.32875 289.19376L116.32875 288.38126L117.094376 288.38126L117.094376 286.83438L118.14125 286.20938L118.14125 288.38126L119.20375 288.38126L119.20375 289.19376L118.14125 289.19376L118.14125 292.83438Q118.14125 293.2875 118.188126 293.4125Q118.250626 293.5375 118.375626 293.61563Q118.500626 293.69376 118.735 293.69376Q118.9225 293.69376 119.20375 293.6625Z" fill-rule="nonzero"/><path fill="#000000" d="M104.07875 308.6L103.031876 308.6L103.031876 301.88126Q102.64125 302.24063 102.01625 302.61563Q101.406876 302.975 100.9225 303.14688L100.9225 302.13126Q101.7975 301.70938 102.45375 301.13126Q103.125626 300.5375 103.406876 299.975L104.07875 299.975L104.07875 308.6Z" fill-rule="nonzero"/><path fill="#000000" d="M131.07687 291.83438L132.13937 291.74063Q132.2175 292.39688 132.49875 292.80313Q132.78 293.20938 133.35812 293.475Q133.95187 293.725 134.68625 293.725Q135.32687 293.725 135.82687 293.5375Q136.32687 293.33438 136.56125 293.00626Q136.81125 292.6625 136.81125 292.27188Q136.81125 291.86563 136.57687 291.56876Q136.3425 291.25626 135.81125 291.05313Q135.45187 290.9125 134.26437 290.63126Q133.0925 290.35 132.62375 290.1Q131.99875 289.77188 131.70187 289.30313Q131.405 288.81876 131.405 288.225Q131.405 287.58438 131.76437 287.02188Q132.13937 286.44376 132.8425 286.1625Q133.56125 285.86563 134.42062 285.86563Q135.37375 285.86563 136.10812 286.17813Q136.8425 286.475 137.23312 287.08438Q137.62375 287.67813 137.655 288.42813L136.56125 288.50626Q136.4675 287.69376 135.95187 287.2875Q135.45187 286.86563 134.4675 286.86563Q133.43625 286.86563 132.9675 287.24063Q132.49875 287.61563 132.49875 288.14688Q132.49875 288.61563 132.82687 288.9125Q133.155 289.20938 134.53 289.52188Q135.92062 289.83438 136.43625 290.06876Q137.18625 290.42813 137.54562 290.95938Q137.905 291.475 137.905 292.17813Q137.905 292.86563 137.51437 293.475Q137.12375 294.06876 136.38937 294.4125Q135.655 294.74063 134.73312 294.74063Q133.56125 294.74063 132.76437 294.4125Q131.98312 294.06876 131.53 293.38126Q131.0925 292.69376 131.07687 291.83438ZM139.32687 296.99063L139.32687 288.38126L140.28 288.38126L140.28 289.17813Q140.62375 288.70938 141.04562 288.475Q141.48312 288.24063 142.0925 288.24063Q142.88937 288.24063 143.49875 288.64688Q144.10812 289.05313 144.405 289.80313Q144.7175 290.55313 144.7175 291.44376Q144.7175 292.39688 144.37375 293.1625Q144.04562 293.92813 143.38937 294.33438Q142.73312 294.74063 142.01437 294.74063Q141.48312 294.74063 141.06125 294.52188Q140.63937 294.2875 140.37375 293.95938L140.37375 296.99063L139.32687 296.99063ZM140.28 291.52188Q140.28 292.725 140.76437 293.30313Q141.24875 293.86563 141.93625 293.86563Q142.63937 293.86563 143.13937 293.27188Q143.63937 292.67813 143.63937 291.42813Q143.63937 290.24063 143.155 289.6625Q142.67062 289.06876 141.98312 289.06876Q141.31125 289.06876 140.79562 289.69376Q140.28 290.31876 140.28 291.52188ZM146.31125 294.6L146.31125 288.38126L147.26437 288.38126L147.26437 289.31876Q147.62375 288.6625 147.92062 288.45938Q148.23312 288.24063 148.60812 288.24063Q149.13937 288.24063 149.68625 288.56876L149.32687 289.55313Q148.93625 289.31876 148.56125 289.31876Q148.20187 289.31876 147.92062 289.5375Q147.655 289.74063 147.54562 290.11563Q147.35812 290.67813 147.35812 291.33438L147.35812 294.6L146.31125 294.6ZM150.32687 287.225L150.32687 286.00626L151.38937 286.00626L151.38937 287.225L150.32687 287.225ZM150.32687 294.6L150.32687 288.38126L151.38937 288.38126L151.38937 294.6L150.32687 294.6ZM153.32687 294.6L153.32687 288.38126L154.26437 288.38126L154.26437 289.25626Q154.95187 288.24063 156.24875 288.24063Q156.81125 288.24063 157.28 288.44376Q157.76437 288.64688 157.99875 288.975Q158.23312 289.30313 158.32687 289.74063Q158.37375 290.0375 158.37375 290.77188L158.37375 294.6L157.32687 294.6L157.32687 290.81876Q157.32687 290.1625 157.20187 289.85Q157.07687 289.5375 156.76437 289.35Q156.45187 289.14688 156.03 289.14688Q155.35812 289.14688 154.85812 289.58438Q154.37375 290.00626 154.37375 291.19376L154.37375 294.6L153.32687 294.6ZM162.62375 293.6625L162.78 294.58438Q162.32687 294.67813 161.98312 294.67813Q161.405 294.67813 161.0925 294.50626Q160.78 294.31876 160.63937 294.02188Q160.51437 293.725 160.51437 292.77188L160.51437 289.19376L159.74875 289.19376L159.74875 288.38126L160.51437 288.38126L160.51437 286.83438L161.56125 286.20938L161.56125 288.38126L162.62375 288.38126L162.62375 289.19376L161.56125 289.19376L161.56125 292.83438Q161.56125 293.2875 161.60812 293.4125Q161.67062 293.5375 161.79562 293.61563Q161.92062 293.69376 162.155 293.69376Q162.3425 293.69376 162.62375 293.6625Z" fill-rule="nonzero"/><path fill="#000000" d="M149.07687 307.58438L149.07687 308.6L143.38937 308.6Q143.38937 308.225 143.51437 307.86563Q143.73312 307.2875 144.20187 306.725Q144.68625 306.1625 145.5925 305.42813Q146.99875 304.27188 147.48312 303.6Q147.98312 302.92813 147.98312 302.33438Q147.98312 301.70938 147.53 301.2875Q147.07687 300.85 146.35812 300.85Q145.5925 300.85 145.13937 301.30313Q144.68625 301.75626 144.67062 302.56876L143.5925 302.45938Q143.70187 301.24063 144.42062 300.61563Q145.155 299.975 146.38937 299.975Q147.62375 299.975 148.3425 300.6625Q149.06125 301.35 149.06125 302.36563Q149.06125 302.88126 148.8425 303.38126Q148.63937 303.86563 148.13937 304.42813Q147.655 304.975 146.53 305.92813Q145.57687 306.725 145.29562 307.02188Q145.03 307.30313 144.85812 307.58438L149.07687 307.58438Z" fill-rule="nonzero"/><path fill="#000000" d="M174.49687 291.83438L175.55937 291.74063Q175.6375 292.39688 175.91875 292.80313Q176.2 293.20938 176.77812 293.475Q177.37187 293.725 178.10625 293.725Q178.74687 293.725 179.24687 293.5375Q179.74687 293.33438 179.98125 293.00626Q180.23125 292.6625 180.23125 292.27188Q180.23125 291.86563 179.99687 291.56876Q179.7625 291.25626 179.23125 291.05313Q178.87187 290.9125 177.68437 290.63126Q176.5125 290.35 176.04375 290.1Q175.41875 289.77188 175.12187 289.30313Q174.825 288.81876 174.825 288.225Q174.825 287.58438 175.18437 287.02188Q175.55937 286.44376 176.2625 286.1625Q176.98125 285.86563 177.84062 285.86563Q178.79375 285.86563 179.52812 286.17813Q180.2625 286.475 180.65312 287.08438Q181.04375 287.67813 181.075 288.42813L179.98125 288.50626Q179.8875 287.69376 179.37187 287.2875Q178.87187 286.86563 177.8875 286.86563Q176.85625 286.86563 176.3875 287.24063Q175.91875 287.61563 175.91875 288.14688Q175.91875 288.61563 176.24687 288.9125Q176.575 289.20938 177.95 289.52188Q179.34062 289.83438 179.85625 290.06876Q180.60625 290.42813 180.96562 290.95938Q181.325 291.475 181.325 292.17813Q181.325 292.86563 180.93437 293.475Q180.54375 294.06876 179.80937 294.4125Q179.075 294.74063 178.15312 294.74063Q176.98125 294.74063 176.18437 294.4125Q175.40312 294.06876 174.95 293.38126Q174.5125 292.69376 174.49687 291.83438ZM182.74687 296.99063L182.74687 288.38126L183.7 288.38126L183.7 289.17813Q184.04375 288.70938 184.46562 288.475Q184.90312 288.24063 185.5125 288.24063Q186.30937 288.24063 186.91875 288.64688Q187.52812 289.05313 187.825 289.80313Q188.1375 290.55313 188.1375 291.44376Q188.1375 292.39688 187.79375 293.1625Q187.46562 293.92813 186.80937 294.33438Q186.15312 294.74063 185.43437 294.74063Q184.90312 294.74063 184.48125 294.52188Q184.05937 294.2875 183.79375 293.95938L183.79375 296.99063L182.74687 296.99063ZM183.7 291.52188Q183.7 292.725 184.18437 293.30313Q184.66875 293.86563 185.35625 293.86563Q186.05937 293.86563 186.55937 293.27188Q187.05937 292.67813 187.05937 291.42813Q187.05937 290.24063 186.575 289.6625Q186.09062 289.06876 185.40312 289.06876Q184.73125 289.06876 184.21562 289.69376Q183.7 290.31876 183.7 291.52188ZM189.73125 294.6L189.73125 288.38126L190.68437 288.38126L190.68437 289.31876Q191.04375 288.6625 191.34062 288.45938Q191.65312 288.24063 192.02812 288.24063Q192.55937 288.24063 193.10625 288.56876L192.74687 289.55313Q192.35625 289.31876 191.98125 289.31876Q191.62187 289.31876 191.34062 289.5375Q191.075 289.74063 190.96562 290.11563Q190.77812 290.67813 190.77812 291.33438L190.77812 294.6L189.73125 294.6ZM193.74687 287.225L193.74687 286.00626L194.80937 286.00626L194.80937 287.225L193.74687 287.225ZM193.74687 294.6L193.74687 288.38126L194.80937 288.38126L194.80937 294.6L193.74687 294.6ZM196.74687 294.6L196.74687 288.38126L197.68437 288.38126L197.68437 289.25626Q198.37187 288.24063 199.66875 288.24063Q200.23125 288.24063 200.7 288.44376Q201.18437 288.64688 201.41875 288.975Q201.65312 289.30313 201.74687 289.74063Q201.79375 290.0375 201.79375 290.77188L201.79375 294.6L200.74687 294.6L200.74687 290.81876Q200.74687 290.1625 200.62187 289.85Q200.49687 289.5375 200.18437 289.35Q199.87187 289.14688 199.45 289.14688Q198.77812 289.14688 198.27812 289.58438Q197.79375 290.00626 197.79375 291.19376L197.79375 294.6L196.74687 294.6ZM206.04375 293.6625L206.2 294.58438Q205.74687 294.67813 205.40312 294.67813Q204.825 294.67813 204.5125 294.50626Q204.2 294.31876 204.05937 294.02188Q203.93437 293.725 203.93437 292.77188L203.93437 289.19376L203.16875 289.19376L203.16875 288.38126L203.93437 288.38126L203.93437 286.83438L204.98125 286.20938L204.98125 288.38126L206.04375 288.38126L206.04375 289.19376L204.98125 289.19376L204.98125 292.83438Q204.98125 293.2875 205.02812 293.4125Q205.09062 293.5375 205.21562 293.61563Q205.34062 293.69376 205.575 293.69376Q205.7625 293.69376 206.04375 293.6625Z" fill-rule="nonzero"/><path fill="#000000" d="M186.95 306.33438L188.0125 306.19376Q188.18437 307.08438 188.62187 307.49063Q189.05937 307.88126 189.68437 307.88126Q190.43437 307.88126 190.95 307.36563Q191.46562 306.85 191.46562 306.08438Q191.46562 305.36563 190.98125 304.89688Q190.5125 304.4125 189.77812 304.4125Q189.48125 304.4125 189.02812 304.5375L189.15312 303.6Q189.2625 303.61563 189.325 303.61563Q189.99687 303.61563 190.52812 303.27188Q191.075 302.9125 191.075 302.17813Q191.075 301.6 190.68437 301.225Q190.29375 300.83438 189.66875 300.83438Q189.05937 300.83438 188.6375 301.225Q188.23125 301.61563 188.12187 302.38126L187.05937 302.19376Q187.24687 301.14688 187.93437 300.56876Q188.62187 299.975 189.6375 299.975Q190.34062 299.975 190.93437 300.2875Q191.52812 300.58438 191.84062 301.1Q192.15312 301.61563 192.15312 302.20938Q192.15312 302.75626 191.85625 303.225Q191.55937 303.67813 190.98125 303.94376Q191.73125 304.11563 192.15312 304.67813Q192.575 305.225 192.575 306.06876Q192.575 307.19376 191.74687 307.975Q190.93437 308.75626 189.68437 308.75626Q188.55937 308.75626 187.80937 308.08438Q187.05937 307.39688 186.95 306.33438Z" fill-rule="nonzero"/><path fill="#000000" d="M217.91687 291.83438L218.97937 291.74063Q219.0575 292.39688 219.33875 292.80313Q219.62 293.20938 220.19812 293.475Q220.79187 293.725 221.52625 293.725Q222.16687 293.725 222.66687 293.5375Q223.16687 293.33438 223.40125 293.00626Q223.65125 292.6625 223.65125 292.27188Q223.65125 291.86563 223.41687 291.56876Q223.1825 291.25626 222.65125 291.05313Q222.29187 290.9125 221.10437 290.63126Q219.9325 290.35 219.46375 290.1Q218.83875 289.77188 218.54187 289.30313Q218.245 288.81876 218.245 288.225Q218.245 287.58438 218.60437 287.02188Q218.97937 286.44376 219.6825 286.1625Q220.40125 285.86563 221.26062 285.86563Q222.21375 285.86563 222.94812 286.17813Q223.6825 286.475 224.07312 287.08438Q224.46375 287.67813 224.495 288.42813L223.40125 288.50626Q223.3075 287.69376 222.79187 287.2875Q222.29187 286.86563 221.3075 286.86563Q220.27625 286.86563 219.8075 287.24063Q219.33875 287.61563 219.33875 288.14688Q219.33875 288.61563 219.66687 288.9125Q219.995 289.20938 221.37 289.52188Q222.76062 289.83438 223.27625 290.06876Q224.02625 290.42813 224.38562 290.95938Q224.745 291.475 224.745 292.17813Q224.745 292.86563 224.35437 293.475Q223.96375 294.06876 223.22937 294.4125Q222.495 294.74063 221.57312 294.74063Q220.40125 294.74063 219.60437 294.4125Q218.82312 294.06876 218.37 293.38126Q217.9325 292.69376 217.91687 291.83438ZM226.16687 296.99063L226.16687 288.38126L227.12 288.38126L227.12 289.17813Q227.46375 288.70938 227.88562 288.475Q228.32312 288.24063 228.9325 288.24063Q229.72937 288.24063 230.33875 288.64688Q230.94812 289.05313 231.245 289.80313Q231.5575 290.55313 231.5575 291.44376Q231.5575 292.39688 231.21375 293.1625Q230.88562 293.92813 230.22937 294.33438Q229.57312 294.74063 228.85437 294.74063Q228.32312 294.74063 227.90125 294.52188Q227.47937 294.2875 227.21375 293.95938L227.21375 296.99063L226.16687 296.99063ZM227.12 291.52188Q227.12 292.725 227.60437 293.30313Q228.08875 293.86563 228.77625 293.86563Q229.47937 293.86563 229.97937 293.27188Q230.47937 292.67813 230.47937 291.42813Q230.47937 290.24063 229.995 289.6625Q229.51062 289.06876 228.82312 289.06876Q228.15125 289.06876 227.63562 289.69376Q227.12 290.31876 227.12 291.52188ZM233.15125 294.6L233.15125 288.38126L234.10437 288.38126L234.10437 289.31876Q234.46375 288.6625 234.76062 288.45938Q235.07312 288.24063 235.44812 288.24063Q235.97937 288.24063 236.52625 288.56876L236.16687 289.55313Q235.77625 289.31876 235.40125 289.31876Q235.04187 289.31876 234.76062 289.5375Q234.495 289.74063 234.38562 290.11563Q234.19812 290.67813 234.19812 291.33438L234.19812 294.6L233.15125 294.6ZM237.16687 287.225L237.16687 286.00626L238.22937 286.00626L238.22937 287.225L237.16687 287.225ZM237.16687 294.6L237.16687 288.38126L238.22937 288.38126L238.22937 294.6L237.16687 294.6ZM240.16687 294.6L240.16687 288.38126L241.10437 288.38126L241.10437 289.25626Q241.79187 288.24063 243.08875 288.24063Q243.65125 288.24063 244.12 288.44376Q244.60437 288.64688 244.83875 288.975Q245.07312 289.30313 245.16687 289.74063Q245.21375 290.0375 245.21375 290.77188L245.21375 294.6L244.16687 294.6L244.16687 290.81876Q244.16687 290.1625 244.04187 289.85Q243.91687 289.5375 243.60437 289.35Q243.29187 289.14688 242.87 289.14688Q242.19812 289.14688 241.69812 289.58438Q241.21375 290.00626 241.21375 291.19376L241.21375 294.6L240.16687 294.6ZM249.46375 293.6625L249.62 294.58438Q249.16687 294.67813 248.82312 294.67813Q248.245 294.67813 247.9325 294.50626Q247.62 294.31876 247.47937 294.02188Q247.35437 293.725 247.35437 292.77188L247.35437 289.19376L246.58875 289.19376L246.58875 288.38126L247.35437 288.38126L247.35437 286.83438L248.40125 286.20938L248.40125 288.38126L249.46375 288.38126L249.46375 289.19376L248.40125 289.19376L248.40125 292.83438Q248.40125 293.2875 248.44812 293.4125Q248.51062 293.5375 248.63562 293.61563Q248.76062 293.69376 248.995 293.69376Q249.1825 293.69376 249.46375 293.6625Z" fill-rule="nonzero"/><path fill="#000000" d="M233.745 308.6L233.745 306.5375L230.02625 306.5375L230.02625 305.56876L233.94812 300.00626L234.8075 300.00626L234.8075 305.56876L235.96375 305.56876L235.96375 306.5375L234.8075 306.5375L234.8075 308.6L233.745 308.6ZM233.745 305.56876L233.745 301.70938L231.0575 305.56876L233.745 305.56876Z" fill-rule="nonzero"/><path fill="#000000" d="M261.33688 291.83438L262.39938 291.74063Q262.4775 292.39688 262.75876 292.80313Q263.04 293.20938 263.61813 293.475Q264.21188 293.725 264.94626 293.725Q265.58688 293.725 266.08688 293.5375Q266.58688 293.33438 266.82126 293.00626Q267.07126 292.6625 267.07126 292.27188Q267.07126 291.86563 266.83688 291.56876Q266.6025 291.25626 266.07126 291.05313Q265.71188 290.9125 264.52438 290.63126Q263.3525 290.35 262.88376 290.1Q262.25876 289.77188 261.96188 289.30313Q261.665 288.81876 261.665 288.225Q261.665 287.58438 262.02438 287.02188Q262.39938 286.44376 263.1025 286.1625Q263.82126 285.86563 264.68063 285.86563Q265.63376 285.86563 266.36813 286.17813Q267.1025 286.475 267.49313 287.08438Q267.88376 287.67813 267.915 288.42813L266.82126 288.50626Q266.7275 287.69376 266.21188 287.2875Q265.71188 286.86563 264.7275 286.86563Q263.69626 286.86563 263.2275 287.24063Q262.75876 287.61563 262.75876 288.14688Q262.75876 288.61563 263.08688 288.9125Q263.415 289.20938 264.79 289.52188Q266.18063 289.83438 266.69626 290.06876Q267.44626 290.42813 267.80563 290.95938Q268.165 291.475 268.165 292.17813Q268.165 292.86563 267.77438 293.475Q267.38376 294.06876 266.64938 294.4125Q265.915 294.74063 264.99313 294.74063Q263.82126 294.74063 263.02438 294.4125Q262.24313 294.06876 261.79 293.38126Q261.3525 292.69376 261.33688 291.83438ZM269.58688 296.99063L269.58688 288.38126L270.54 288.38126L270.54 289.17813Q270.88376 288.70938 271.30563 288.475Q271.74313 288.24063 272.3525 288.24063Q273.14938 288.24063 273.75876 288.64688Q274.36813 289.05313 274.665 289.80313Q274.9775 290.55313 274.9775 291.44376Q274.9775 292.39688 274.63376 293.1625Q274.30563 293.92813 273.64938 294.33438Q272.99313 294.74063 272.27438 294.74063Q271.74313 294.74063 271.32126 294.52188Q270.89938 294.2875 270.63376 293.95938L270.63376 296.99063L269.58688 296.99063ZM270.54 291.52188Q270.54 292.725 271.02438 293.30313Q271.50876 293.86563 272.19626 293.86563Q272.89938 293.86563 273.39938 293.27188Q273.89938 292.67813 273.89938 291.42813Q273.89938 290.24063 273.415 289.6625Q272.93063 289.06876 272.24313 289.06876Q271.57126 289.06876 271.05563 289.69376Q270.54 290.31876 270.54 291.52188ZM276.57126 294.6L276.57126 288.38126L277.52438 288.38126L277.52438 289.31876Q277.88376 288.6625 278.18063 288.45938Q278.49313 288.24063 278.86813 288.24063Q279.39938 288.24063 279.94626 288.56876L279.58688 289.55313Q279.19626 289.31876 278.82126 289.31876Q278.46188 289.31876 278.18063 289.5375Q277.915 289.74063 277.80563 290.11563Q277.61813 290.67813 277.61813 291.33438L277.61813 294.6L276.57126 294.6ZM280.58688 287.225L280.58688 286.00626L281.64938 286.00626L281.64938 287.225L280.58688 287.225ZM280.58688 294.6L280.58688 288.38126L281.64938 288.38126L281.64938 294.6L280.58688 294.6ZM283.58688 294.6L283.58688 288.38126L284.52438 288.38126L284.52438 289.25626Q285.21188 288.24063 286.50876 288.24063Q287.07126 288.24063 287.54 288.44376Q288.02438 288.64688 288.25876 288.975Q288.49313 289.30313 288.58688 289.74063Q288.63376 290.0375 288.63376 290.77188L288.63376 294.6L287.58688 294.6L287.58688 290.81876Q287.58688 290.1625 287.46188 289.85Q287.33688 289.5375 287.02438 289.35Q286.71188 289.14688 286.29 289.14688Q285.61813 289.14688 285.11813 289.58438Q284.63376 290.00626 284.63376 291.19376L284.63376 294.6L283.58688 294.6ZM292.88376 293.6625L293.04 294.58438Q292.58688 294.67813 292.24313 294.67813Q291.665 294.67813 291.3525 294.50626Q291.04 294.31876 290.89938 294.02188Q290.77438 293.725 290.77438 292.77188L290.77438 289.19376L290.00876 289.19376L290.00876 288.38126L290.77438 288.38126L290.77438 286.83438L291.82126 286.20938L291.82126 288.38126L292.88376 288.38126L292.88376 289.19376L291.82126 289.19376L291.82126 292.83438Q291.82126 293.2875 291.86813 293.4125Q291.93063 293.5375 292.05563 293.61563Q292.18063 293.69376 292.415 293.69376Q292.6025 293.69376 292.88376 293.6625Z" fill-rule="nonzero"/><path fill="#000000" d="M273.79 306.35L274.89938 306.25626Q275.02438 307.06876 275.46188 307.475Q275.915 307.88126 276.55563 307.88126Q277.30563 307.88126 277.83688 307.30313Q278.36813 306.725 278.36813 305.7875Q278.36813 304.88126 277.8525 304.36563Q277.3525 303.83438 276.52438 303.83438Q276.02438 303.83438 275.6025 304.06876Q275.19626 304.30313 274.96188 304.6625L273.9775 304.5375L274.80563 300.13126L279.08688 300.13126L279.08688 301.13126L275.64938 301.13126L275.19626 303.44376Q275.96188 302.89688 276.80563 302.89688Q277.93063 302.89688 278.69626 303.67813Q279.4775 304.45938 279.4775 305.69376Q279.4775 306.85 278.80563 307.70938Q277.9775 308.74063 276.55563 308.74063Q275.38376 308.74063 274.63376 308.08438Q273.89938 307.42813 273.79 306.35Z" fill-rule="nonzero"/><path fill="#000000" d="M304.75687 291.83438L305.81937 291.74063Q305.8975 292.39688 306.17874 292.80313Q306.46 293.20938 307.03812 293.475Q307.63187 293.725 308.36624 293.725Q309.00687 293.725 309.50687 293.5375Q310.00687 293.33438 310.24124 293.00626Q310.49124 292.6625 310.49124 292.27188Q310.49124 291.86563 310.25687 291.56876Q310.0225 291.25626 309.49124 291.05313Q309.13187 290.9125 307.94437 290.63126Q306.7725 290.35 306.30374 290.1Q305.67874 289.77188 305.38187 289.30313Q305.085 288.81876 305.085 288.225Q305.085 287.58438 305.44437 287.02188Q305.81937 286.44376 306.5225 286.1625Q307.24124 285.86563 308.10062 285.86563Q309.05374 285.86563 309.78812 286.17813Q310.5225 286.475 310.91312 287.08438Q311.30374 287.67813 311.335 288.42813L310.24124 288.50626Q310.1475 287.69376 309.63187 287.2875Q309.13187 286.86563 308.1475 286.86563Q307.11624 286.86563 306.6475 287.24063Q306.17874 287.61563 306.17874 288.14688Q306.17874 288.61563 306.50687 288.9125Q306.835 289.20938 308.21 289.52188Q309.60062 289.83438 310.11624 290.06876Q310.86624 290.42813 311.22562 290.95938Q311.585 291.475 311.585 292.17813Q311.585 292.86563 311.19437 293.475Q310.80374 294.06876 310.06937 294.4125Q309.335 294.74063 308.41312 294.74063Q307.24124 294.74063 306.44437 294.4125Q305.66312 294.06876 305.21 293.38126Q304.7725 292.69376 304.75687 291.83438ZM313.00687 296.99063L313.00687 288.38126L313.96 288.38126L313.96 289.17813Q314.30374 288.70938 314.72562 288.475Q315.16312 288.24063 315.7725 288.24063Q316.56937 288.24063 317.17874 288.64688Q317.78812 289.05313 318.085 289.80313Q318.3975 290.55313 318.3975 291.44376Q318.3975 292.39688 318.05374 293.1625Q317.72562 293.92813 317.06937 294.33438Q316.41312 294.74063 315.69437 294.74063Q315.16312 294.74063 314.74124 294.52188Q314.31937 294.2875 314.05374 293.95938L314.05374 296.99063L313.00687 296.99063ZM313.96 291.52188Q313.96 292.725 314.44437 293.30313Q314.92874 293.86563 315.61624 293.86563Q316.31937 293.86563 316.81937 293.27188Q317.31937 292.67813 317.31937 291.42813Q317.31937 290.24063 316.835 289.6625Q316.35062 289.06876 315.66312 289.06876Q314.99124 289.06876 314.47562 289.69376Q313.96 290.31876 313.96 291.52188ZM319.99124 294.6L319.99124 288.38126L320.94437 288.38126L320.94437 289.31876Q321.30374 288.6625 321.60062 288.45938Q321.91312 288.24063 322.28812 288.24063Q322.81937 288.24063 323.36624 288.56876L323.00687 289.55313Q322.61624 289.31876 322.24124 289.31876Q321.88187 289.31876 321.60062 289.5375Q321.335 289.74063 321.22562 290.11563Q321.03812 290.67813 321.03812 291.33438L321.03812 294.6L319.99124 294.6ZM324.00687 287.225L324.00687 286.00626L325.06937 286.00626L325.06937 287.225L324.00687 287.225ZM324.00687 294.6L324.00687 288.38126L325.06937 288.38126L325.06937 294.6L324.00687 294.6ZM327.00687 294.6L327.00687 288.38126L327.94437 288.38126L327.94437 289.25626Q328.63187 288.24063 329.92874 288.24063Q330.49124 288.24063 330.96 288.44376Q331.44437 288.64688 331.67874 288.975Q331.91312 289.30313 332.00687 289.74063Q332.05374 290.0375 332.05374 290.77188L332.05374 294.6L331.00687 294.6L331.00687 290.81876Q331.00687 290.1625 330.88187 289.85Q330.75687 289.5375 330.44437 289.35Q330.13187 289.14688 329.71 289.14688Q329.03812 289.14688 328.53812 289.58438Q328.05374 290.00626 328.05374 291.19376L328.05374 294.6L327.00687 294.6ZM336.30374 293.6625L336.46 294.58438Q336.00687 294.67813 335.66312 294.67813Q335.085 294.67813 334.7725 294.50626Q334.46 294.31876 334.31937 294.02188Q334.19437 293.725 334.19437 292.77188L334.19437 289.19376L333.42874 289.19376L333.42874 288.38126L334.19437 288.38126L334.19437 286.83438L335.24124 286.20938L335.24124 288.38126L336.30374 288.38126L336.30374 289.19376L335.24124 289.19376L335.24124 292.83438Q335.24124 293.2875 335.28812 293.4125Q335.35062 293.5375 335.47562 293.61563Q335.60062 293.69376 335.835 293.69376Q336.0225 293.69376 336.30374 293.6625Z" fill-rule="nonzero"/><path fill="#000000" d="M322.67874 302.11563L321.63187 302.19376Q321.49124 301.56876 321.24124 301.2875Q320.80374 300.83438 320.17874 300.83438Q319.67874 300.83438 319.28812 301.11563Q318.80374 301.49063 318.50687 302.19376Q318.22562 302.88126 318.21 304.1625Q318.585 303.58438 319.13187 303.30313Q319.69437 303.02188 320.30374 303.02188Q321.35062 303.02188 322.085 303.80313Q322.835 304.58438 322.835 305.80313Q322.835 306.61563 322.47562 307.31876Q322.13187 308.00626 321.5225 308.38126Q320.91312 308.74063 320.1475 308.74063Q318.81937 308.74063 317.99124 307.77188Q317.16312 306.80313 317.16312 304.58438Q317.16312 302.08438 318.085 300.95938Q318.88187 299.975 320.24124 299.975Q321.25687 299.975 321.8975 300.55313Q322.55374 301.11563 322.67874 302.11563ZM318.38187 305.81876Q318.38187 306.36563 318.60062 306.86563Q318.835 307.35 319.24124 307.61563Q319.66312 307.88126 320.13187 307.88126Q320.78812 307.88126 321.2725 307.35Q321.75687 306.80313 321.75687 305.88126Q321.75687 304.99063 321.2725 304.475Q320.80374 303.95938 320.085 303.95938Q319.36624 303.95938 318.86624 304.475Q318.38187 304.99063 318.38187 305.81876Z" fill-rule="nonzero"/><path fill="#000000" d="M348.17688 291.83438L349.23938 291.74063Q349.3175 292.39688 349.59875 292.80313Q349.88 293.20938 350.45813 293.475Q351.05188 293.725 351.78625 293.725Q352.42688 293.725 352.92688 293.5375Q353.42688 293.33438 353.66125 293.00626Q353.91125 292.6625 353.91125 292.27188Q353.91125 291.86563 353.67688 291.56876Q353.4425 291.25626 352.91125 291.05313Q352.55188 290.9125 351.36438 290.63126Q350.1925 290.35 349.72375 290.1Q349.09875 289.77188 348.80188 289.30313Q348.505 288.81876 348.505 288.225Q348.505 287.58438 348.86438 287.02188Q349.23938 286.44376 349.9425 286.1625Q350.66125 285.86563 351.52063 285.86563Q352.47375 285.86563 353.20813 286.17813Q353.9425 286.475 354.33313 287.08438Q354.72375 287.67813 354.755 288.42813L353.66125 288.50626Q353.5675 287.69376 353.05188 287.2875Q352.55188 286.86563 351.5675 286.86563Q350.53625 286.86563 350.0675 287.24063Q349.59875 287.61563 349.59875 288.14688Q349.59875 288.61563 349.92688 288.9125Q350.255 289.20938 351.63 289.52188Q353.02063 289.83438 353.53625 290.06876Q354.28625 290.42813 354.64563 290.95938Q355.005 291.475 355.005 292.17813Q355.005 292.86563 354.61438 293.475Q354.22375 294.06876 353.48938 294.4125Q352.755 294.74063 351.83313 294.74063Q350.66125 294.74063 349.86438 294.4125Q349.08313 294.06876 348.63 293.38126Q348.1925 292.69376 348.17688 291.83438ZM356.42688 296.99063L356.42688 288.38126L357.38 288.38126L357.38 289.17813Q357.72375 288.70938 358.14563 288.475Q358.58313 288.24063 359.1925 288.24063Q359.98938 288.24063 360.59875 288.64688Q361.20813 289.05313 361.505 289.80313Q361.8175 290.55313 361.8175 291.44376Q361.8175 292.39688 361.47375 293.1625Q361.14563 293.92813 360.48938 294.33438Q359.83313 294.74063 359.11438 294.74063Q358.58313 294.74063 358.16125 294.52188Q357.73938 294.2875 357.47375 293.95938L357.47375 296.99063L356.42688 296.99063ZM357.38 291.52188Q357.38 292.725 357.86438 293.30313Q358.34875 293.86563 359.03625 293.86563Q359.73938 293.86563 360.23938 293.27188Q360.73938 292.67813 360.73938 291.42813Q360.73938 290.24063 360.255 289.6625Q359.77063 289.06876 359.08313 289.06876Q358.41125 289.06876 357.89563 289.69376Q357.38 290.31876 357.38 291.52188ZM363.41125 294.6L363.41125 288.38126L364.36438 288.38126L364.36438 289.31876Q364.72375 288.6625 365.02063 288.45938Q365.33313 288.24063 365.70813 288.24063Q366.23938 288.24063 366.78625 288.56876L366.42688 289.55313Q366.03625 289.31876 365.66125 289.31876Q365.30188 289.31876 365.02063 289.5375Q364.755 289.74063 364.64563 290.11563Q364.45813 290.67813 364.45813 291.33438L364.45813 294.6L363.41125 294.6ZM367.42688 287.225L367.42688 286.00626L368.48938 286.00626L368.48938 287.225L367.42688 287.225ZM367.42688 294.6L367.42688 288.38126L368.48938 288.38126L368.48938 294.6L367.42688 294.6ZM370.42688 294.6L370.42688 288.38126L371.36438 288.38126L371.36438 289.25626Q372.05188 288.24063 373.34875 288.24063Q373.91125 288.24063 374.38 288.44376Q374.86438 288.64688 375.09875 288.975Q375.33313 289.30313 375.42688 289.74063Q375.47375 290.0375 375.47375 290.77188L375.47375 294.6L374.42688 294.6L374.42688 290.81876Q374.42688 290.1625 374.30188 289.85Q374.17688 289.5375 373.86438 289.35Q373.55188 289.14688 373.13 289.14688Q372.45813 289.14688 371.95813 289.58438Q371.47375 290.00626 371.47375 291.19376L371.47375 294.6L370.42688 294.6ZM379.72375 293.6625L379.88 294.58438Q379.42688 294.67813 379.08313 294.67813Q378.505 294.67813 378.1925 294.50626Q377.88 294.31876 377.73938 294.02188Q377.61438 293.725 377.61438 292.77188L377.61438 289.19376L376.84875 289.19376L376.84875 288.38126L377.61438 288.38126L377.61438 286.83438L378.66125 286.20938L378.66125 288.38126L379.72375 288.38126L379.72375 289.19376L378.66125 289.19376L378.66125 292.83438Q378.66125 293.2875 378.70813 293.4125Q378.77063 293.5375 378.89563 293.61563Q379.02063 293.69376 379.255 293.69376Q379.4425 293.69376 379.72375 293.6625Z" fill-rule="nonzero"/><path fill="#000000" d="M360.6925 301.13126L360.6925 300.11563L366.255 300.11563L366.255 300.94376Q365.4425 301.81876 364.63 303.27188Q363.83313 304.70938 363.39563 306.24063Q363.0675 307.31876 362.98938 308.6L361.89563 308.6Q361.91125 307.58438 362.28625 306.14688Q362.67688 304.70938 363.38 303.38126Q364.09875 302.05313 364.91125 301.13126L360.6925 301.13126Z" fill-rule="nonzero"/><path fill="#000000" d="M391.59686 291.83438L392.65936 291.74063Q392.7375 292.39688 393.01874 292.80313Q393.3 293.20938 393.8781 293.475Q394.47186 293.725 395.20624 293.725Q395.84686 293.725 396.34686 293.5375Q396.84686 293.33438 397.08124 293.00626Q397.33124 292.6625 397.33124 292.27188Q397.33124 291.86563 397.09686 291.56876Q396.8625 291.25626 396.33124 291.05313Q395.97186 290.9125 394.78436 290.63126Q393.6125 290.35 393.14374 290.1Q392.51874 289.77188 392.22186 289.30313Q391.925 288.81876 391.925 288.225Q391.925 287.58438 392.28436 287.02188Q392.65936 286.44376 393.3625 286.1625Q394.08124 285.86563 394.9406 285.86563Q395.89374 285.86563 396.6281 286.17813Q397.3625 286.475 397.7531 287.08438Q398.14374 287.67813 398.175 288.42813L397.08124 288.50626Q396.9875 287.69376 396.47186 287.2875Q395.97186 286.86563 394.9875 286.86563Q393.95624 286.86563 393.4875 287.24063Q393.01874 287.61563 393.01874 288.14688Q393.01874 288.61563 393.34686 288.9125Q393.675 289.20938 395.05 289.52188Q396.4406 289.83438 396.95624 290.06876Q397.70624 290.42813 398.0656 290.95938Q398.425 291.475 398.425 292.17813Q398.425 292.86563 398.03436 293.475Q397.64374 294.06876 396.90936 294.4125Q396.175 294.74063 395.2531 294.74063Q394.08124 294.74063 393.28436 294.4125Q392.5031 294.06876 392.05 293.38126Q391.6125 292.69376 391.59686 291.83438ZM399.84686 296.99063L399.84686 288.38126L400.8 288.38126L400.8 289.17813Q401.14374 288.70938 401.5656 288.475Q402.0031 288.24063 402.6125 288.24063Q403.40936 288.24063 404.01874 288.64688Q404.6281 289.05313 404.925 289.80313Q405.2375 290.55313 405.2375 291.44376Q405.2375 292.39688 404.89374 293.1625Q404.5656 293.92813 403.90936 294.33438Q403.2531 294.74063 402.53436 294.74063Q402.0031 294.74063 401.58124 294.52188Q401.15936 294.2875 400.89374 293.95938L400.89374 296.99063L399.84686 296.99063ZM400.8 291.52188Q400.8 292.725 401.28436 293.30313Q401.76874 293.86563 402.45624 293.86563Q403.15936 293.86563 403.65936 293.27188Q404.15936 292.67813 404.15936 291.42813Q404.15936 290.24063 403.675 289.6625Q403.1906 289.06876 402.5031 289.06876Q401.83124 289.06876 401.3156 289.69376Q400.8 290.31876 400.8 291.52188ZM406.83124 294.6L406.83124 288.38126L407.78436 288.38126L407.78436 289.31876Q408.14374 288.6625 408.4406 288.45938Q408.7531 288.24063 409.1281 288.24063Q409.65936 288.24063 410.20624 288.56876L409.84686 289.55313Q409.45624 289.31876 409.08124 289.31876Q408.72186 289.31876 408.4406 289.5375Q408.175 289.74063 408.0656 290.11563Q407.8781 290.67813 407.8781 291.33438L407.8781 294.6L406.83124 294.6ZM410.84686 287.225L410.84686 286.00626L411.90936 286.00626L411.90936 287.225L410.84686 287.225ZM410.84686 294.6L410.84686 288.38126L411.90936 288.38126L411.90936 294.6L410.84686 294.6ZM413.84686 294.6L413.84686 288.38126L414.78436 288.38126L414.78436 289.25626Q415.47186 288.24063 416.76874 288.24063Q417.33124 288.24063 417.8 288.44376Q418.28436 288.64688 418.51874 288.975Q418.7531 289.30313 418.84686 289.74063Q418.89374 290.0375 418.89374 290.77188L418.89374 294.6L417.84686 294.6L417.84686 290.81876Q417.84686 290.1625 417.72186 289.85Q417.59686 289.5375 417.28436 289.35Q416.97186 289.14688 416.55 289.14688Q415.8781 289.14688 415.3781 289.58438Q414.89374 290.00626 414.89374 291.19376L414.89374 294.6L413.84686 294.6ZM423.14374 293.6625L423.3 294.58438Q422.84686 294.67813 422.5031 294.67813Q421.925 294.67813 421.6125 294.50626Q421.3 294.31876 421.15936 294.02188Q421.03436 293.725 421.03436 292.77188L421.03436 289.19376L420.26874 289.19376L420.26874 288.38126L421.03436 288.38126L421.03436 286.83438L422.08124 286.20938L422.08124 288.38126L423.14374 288.38126L423.14374 289.19376L422.08124 289.19376L422.08124 292.83438Q422.08124 293.2875 422.1281 293.4125Q422.1906 293.5375 422.3156 293.61563Q422.4406 293.69376 422.675 293.69376Q422.8625 293.69376 423.14374 293.6625Z" fill-rule="nonzero"/><path fill="#000000" d="M405.675 303.94376Q405.01874 303.69376 404.6906 303.25626Q404.3781 302.80313 404.3781 302.19376Q404.3781 301.25626 405.05 300.61563Q405.7375 299.975 406.84686 299.975Q407.97186 299.975 408.65936 300.63126Q409.34686 301.2875 409.34686 302.225Q409.34686 302.81876 409.03436 303.25626Q408.72186 303.69376 408.08124 303.94376Q408.8781 304.19376 409.28436 304.77188Q409.6906 305.35 409.6906 306.14688Q409.6906 307.24063 408.90936 307.99063Q408.14374 308.74063 406.8625 308.74063Q405.59686 308.74063 404.8156 307.99063Q404.03436 307.24063 404.03436 306.11563Q404.03436 305.27188 404.45624 304.70938Q404.89374 304.14688 405.675 303.94376ZM405.45624 302.14688Q405.45624 302.75626 405.84686 303.14688Q406.2531 303.5375 406.8781 303.5375Q407.4875 303.5375 407.8781 303.1625Q408.26874 302.77188 408.26874 302.20938Q408.26874 301.63126 407.8625 301.24063Q407.45624 300.83438 406.8625 300.83438Q406.2531 300.83438 405.84686 301.225Q405.45624 301.61563 405.45624 302.14688ZM405.1281 306.11563Q405.1281 306.56876 405.33124 306.99063Q405.55 307.4125 405.97186 307.64688Q406.39374 307.88126 406.8781 307.88126Q407.6281 307.88126 408.1125 307.39688Q408.6125 306.9125 408.6125 306.1625Q408.6125 305.39688 408.1125 304.89688Q407.6125 304.39688 406.84686 304.39688Q406.09686 304.39688 405.6125 304.89688Q405.1281 305.38126 405.1281 306.11563Z" fill-rule="nonzero"/><path fill="#000000" d="M435.01688 291.83438L436.07938 291.74063Q436.1575 292.39688 436.43875 292.80313Q436.72 293.20938 437.29813 293.475Q437.89188 293.725 438.62625 293.725Q439.26688 293.725 439.76688 293.5375Q440.26688 293.33438 440.50125 293.00626Q440.75125 292.6625 440.75125 292.27188Q440.75125 291.86563 440.51688 291.56876Q440.2825 291.25626 439.75125 291.05313Q439.39188 290.9125 438.20438 290.63126Q437.0325 290.35 436.56375 290.1Q435.93875 289.77188 435.64188 289.30313Q435.345 288.81876 435.345 288.225Q435.345 287.58438 435.70438 287.02188Q436.07938 286.44376 436.7825 286.1625Q437.50125 285.86563 438.36063 285.86563Q439.31375 285.86563 440.04813 286.17813Q440.7825 286.475 441.17313 287.08438Q441.56375 287.67813 441.595 288.42813L440.50125 288.50626Q440.4075 287.69376 439.89188 287.2875Q439.39188 286.86563 438.4075 286.86563Q437.37625 286.86563 436.9075 287.24063Q436.43875 287.61563 436.43875 288.14688Q436.43875 288.61563 436.76688 288.9125Q437.095 289.20938 438.47 289.52188Q439.86063 289.83438 440.37625 290.06876Q441.12625 290.42813 441.48563 290.95938Q441.845 291.475 441.845 292.17813Q441.845 292.86563 441.45438 293.475Q441.06375 294.06876 440.32938 294.4125Q439.595 294.74063 438.67313 294.74063Q437.50125 294.74063 436.70438 294.4125Q435.92313 294.06876 435.47 293.38126Q435.0325 292.69376 435.01688 291.83438ZM443.26688 296.99063L443.26688 288.38126L444.22 288.38126L444.22 289.17813Q444.56375 288.70938 444.98563 288.475Q445.42313 288.24063 446.0325 288.24063Q446.82938 288.24063 447.43875 288.64688Q448.04813 289.05313 448.345 289.80313Q448.6575 290.55313 448.6575 291.44376Q448.6575 292.39688 448.31375 293.1625Q447.98563 293.92813 447.32938 294.33438Q446.67313 294.74063 445.95438 294.74063Q445.42313 294.74063 445.00125 294.52188Q444.57938 294.2875 444.31375 293.95938L444.31375 296.99063L443.26688 296.99063ZM444.22 291.52188Q444.22 292.725 444.70438 293.30313Q445.18875 293.86563 445.87625 293.86563Q446.57938 293.86563 447.07938 293.27188Q447.57938 292.67813 447.57938 291.42813Q447.57938 290.24063 447.095 289.6625Q446.61063 289.06876 445.92313 289.06876Q445.25125 289.06876 444.73563 289.69376Q444.22 290.31876 444.22 291.52188ZM450.25125 294.6L450.25125 288.38126L451.20438 288.38126L451.20438 289.31876Q451.56375 288.6625 451.86063 288.45938Q452.17313 288.24063 452.54813 288.24063Q453.07938 288.24063 453.62625 288.56876L453.26688 289.55313Q452.87625 289.31876 452.50125 289.31876Q452.14188 289.31876 451.86063 289.5375Q451.595 289.74063 451.48563 290.11563Q451.29813 290.67813 451.29813 291.33438L451.29813 294.6L450.25125 294.6ZM454.26688 287.225L454.26688 286.00626L455.32938 286.00626L455.32938 287.225L454.26688 287.225ZM454.26688 294.6L454.26688 288.38126L455.32938 288.38126L455.32938 294.6L454.26688 294.6ZM457.26688 294.6L457.26688 288.38126L458.20438 288.38126L458.20438 289.25626Q458.89188 288.24063 460.18875 288.24063Q460.75125 288.24063 461.22 288.44376Q461.70438 288.64688 461.93875 288.975Q462.17313 289.30313 462.26688 289.74063Q462.31375 290.0375 462.31375 290.77188L462.31375 294.6L461.26688 294.6L461.26688 290.81876Q461.26688 290.1625 461.14188 289.85Q461.01688 289.5375 460.70438 289.35Q460.39188 289.14688 459.97 289.14688Q459.29813 289.14688 458.79813 289.58438Q458.31375 290.00626 458.31375 291.19376L458.31375 294.6L457.26688 294.6ZM466.56375 293.6625L466.72 294.58438Q466.26688 294.67813 465.92313 294.67813Q465.345 294.67813 465.0325 294.50626Q464.72 294.31876 464.57938 294.02188Q464.45438 293.725 464.45438 292.77188L464.45438 289.19376L463.68875 289.19376L463.68875 288.38126L464.45438 288.38126L464.45438 286.83438L465.50125 286.20938L465.50125 288.38126L466.56375 288.38126L466.56375 289.19376L465.50125 289.19376L465.50125 292.83438Q465.50125 293.2875 465.54813 293.4125Q465.61063 293.5375 465.73563 293.61563Q465.86063 293.69376 466.095 293.69376Q466.2825 293.69376 466.56375 293.6625Z" fill-rule="nonzero"/><path fill="#000000" d="M447.62625 306.61563L448.64188 306.52188Q448.76688 307.24063 449.12625 307.56876Q449.50125 307.88126 450.06375 307.88126Q450.54813 307.88126 450.9075 307.6625Q451.2825 307.42813 451.51688 307.06876Q451.75125 306.69376 451.9075 306.06876Q452.06375 305.42813 452.06375 304.77188Q452.06375 304.69376 452.06375 304.55313Q451.75125 305.05313 451.20438 305.38126Q450.6575 305.69376 450.01688 305.69376Q448.93875 305.69376 448.20438 304.92813Q447.47 304.14688 447.47 302.88126Q447.47 301.56876 448.23563 300.77188Q449.01688 299.975 450.17313 299.975Q451.00125 299.975 451.68875 300.42813Q452.39188 300.88126 452.75125 301.725Q453.11063 302.55313 453.11063 304.13126Q453.11063 305.77188 452.75125 306.75626Q452.4075 307.725 451.68875 308.24063Q450.98563 308.74063 450.04813 308.74063Q449.0325 308.74063 448.39188 308.19376Q447.75125 307.63126 447.62625 306.61563ZM451.93875 302.81876Q451.93875 301.9125 451.45438 301.38126Q450.98563 300.85 450.29813 300.85Q449.595 300.85 449.06375 301.42813Q448.54813 301.99063 448.54813 302.9125Q448.54813 303.725 449.04813 304.24063Q449.54813 304.75626 450.26688 304.75626Q451.00125 304.75626 451.47 304.24063Q451.93875 303.725 451.93875 302.81876Z" fill-rule="nonzero"/><path fill="#000000" d="M478.4369 291.83438L479.4994 291.74063Q479.5775 292.39688 479.85876 292.80313Q480.14 293.20938 480.71814 293.475Q481.3119 293.725 482.04626 293.725Q482.6869 293.725 483.1869 293.5375Q483.6869 293.33438 483.92126 293.00626Q484.17126 292.6625 484.17126 292.27188Q484.17126 291.86563 483.9369 291.56876Q483.7025 291.25626 483.17126 291.05313Q482.8119 290.9125 481.6244 290.63126Q480.4525 290.35 479.98376 290.1Q479.35876 289.77188 479.0619 289.30313Q478.765 288.81876 478.765 288.225Q478.765 287.58438 479.1244 287.02188Q479.4994 286.44376 480.2025 286.1625Q480.92126 285.86563 481.78064 285.86563Q482.73376 285.86563 483.46814 286.17813Q484.2025 286.475 484.59314 287.08438Q484.98376 287.67813 485.015 288.42813L483.92126 288.50626Q483.8275 287.69376 483.3119 287.2875Q482.8119 286.86563 481.8275 286.86563Q480.79626 286.86563 480.3275 287.24063Q479.85876 287.61563 479.85876 288.14688Q479.85876 288.61563 480.1869 288.9125Q480.515 289.20938 481.89 289.52188Q483.28064 289.83438 483.79626 290.06876Q484.54626 290.42813 484.90564 290.95938Q485.265 291.475 485.265 292.17813Q485.265 292.86563 484.8744 293.475Q484.48376 294.06876 483.7494 294.4125Q483.015 294.74063 482.09314 294.74063Q480.92126 294.74063 480.1244 294.4125Q479.34314 294.06876 478.89 293.38126Q478.4525 292.69376 478.4369 291.83438ZM486.6869 296.99063L486.6869 288.38126L487.64 288.38126L487.64 289.17813Q487.98376 288.70938 488.40564 288.475Q488.84314 288.24063 489.4525 288.24063Q490.2494 288.24063 490.85876 288.64688Q491.46814 289.05313 491.765 289.80313Q492.0775 290.55313 492.0775 291.44376Q492.0775 292.39688 491.73376 293.1625Q491.40564 293.92813 490.7494 294.33438Q490.09314 294.74063 489.3744 294.74063Q488.84314 294.74063 488.42126 294.52188Q487.9994 294.2875 487.73376 293.95938L487.73376 296.99063L486.6869 296.99063ZM487.64 291.52188Q487.64 292.725 488.1244 293.30313Q488.60876 293.86563 489.29626 293.86563Q489.9994 293.86563 490.4994 293.27188Q490.9994 292.67813 490.9994 291.42813Q490.9994 290.24063 490.515 289.6625Q490.03064 289.06876 489.34314 289.06876Q488.67126 289.06876 488.15564 289.69376Q487.64 290.31876 487.64 291.52188ZM493.67126 294.6L493.67126 288.38126L494.6244 288.38126L494.6244 289.31876Q494.98376 288.6625 495.28064 288.45938Q495.59314 288.24063 495.96814 288.24063Q496.4994 288.24063 497.04626 288.56876L496.6869 289.55313Q496.29626 289.31876 495.92126 289.31876Q495.5619 289.31876 495.28064 289.5375Q495.015 289.74063 494.90564 290.11563Q494.71814 290.67813 494.71814 291.33438L494.71814 294.6L493.67126 294.6ZM497.6869 287.225L497.6869 286.00626L498.7494 286.00626L498.7494 287.225L497.6869 287.225ZM497.6869 294.6L497.6869 288.38126L498.7494 288.38126L498.7494 294.6L497.6869 294.6ZM500.6869 294.6L500.6869 288.38126L501.6244 288.38126L501.6244 289.25626Q502.3119 288.24063 503.60876 288.24063Q504.17126 288.24063 504.64 288.44376Q505.1244 288.64688 505.35876 288.975Q505.59314 289.30313 505.6869 289.74063Q505.73376 290.0375 505.73376 290.77188L505.73376 294.6L504.6869 294.6L504.6869 290.81876Q504.6869 290.1625 504.5619 289.85Q504.4369 289.5375 504.1244 289.35Q503.8119 289.14688 503.39 289.14688Q502.71814 289.14688 502.21814 289.58438Q501.73376 290.00626 501.73376 291.19376L501.73376 294.6L500.6869 294.6ZM509.98376 293.6625L510.14 294.58438Q509.6869 294.67813 509.34314 294.67813Q508.765 294.67813 508.4525 294.50626Q508.14 294.31876 507.9994 294.02188Q507.8744 293.725 507.8744 292.77188L507.8744 289.19376L507.10876 289.19376L507.10876 288.38126L507.8744 288.38126L507.8744 286.83438L508.92126 286.20938L508.92126 288.38126L509.98376 288.38126L509.98376 289.19376L508.92126 289.19376L508.92126 292.83438Q508.92126 293.2875 508.96814 293.4125Q509.03064 293.5375 509.15564 293.61563Q509.28064 293.69376 509.515 293.69376Q509.7025 293.69376 509.98376 293.6625Z" fill-rule="nonzero"/><path fill="#000000" d="M491.35876 308.6L490.3119 308.6L490.3119 301.88126Q489.92126 302.24063 489.29626 302.61563Q488.6869 302.975 488.2025 303.14688L488.2025 302.13126Q489.0775 301.70938 489.73376 301.13126Q490.40564 300.5375 490.6869 299.975L491.35876 299.975L491.35876 308.6ZM494.39 304.36563Q494.39 302.83438 494.7025 301.9125Q495.015 300.975 495.6244 300.475Q496.2494 299.975 497.1869 299.975Q497.8744 299.975 498.39 300.25626Q498.92126 300.5375 499.265 301.06876Q499.60876 301.58438 499.79626 302.33438Q499.98376 303.08438 499.98376 304.36563Q499.98376 305.88126 499.67126 306.80313Q499.3744 307.725 498.7494 308.24063Q498.14 308.74063 497.1869 308.74063Q495.9525 308.74063 495.23376 307.85Q494.39 306.7875 494.39 304.36563ZM495.46814 304.36563Q495.46814 306.475 495.96814 307.17813Q496.46814 307.88126 497.1869 307.88126Q497.92126 307.88126 498.40564 307.17813Q498.90564 306.475 498.90564 304.36563Q498.90564 302.24063 498.40564 301.55313Q497.92126 300.85 497.17126 300.85Q496.4525 300.85 496.015 301.45938Q495.46814 302.24063 495.46814 304.36563Z" fill-rule="nonzero"/><path fill="#4285f4" d="M137.5 23.4C137.5 26.713709 134.8137 29.4 131.5 29.4C128.1863 29.4 125.5 26.713709 125.5 23.4C125.5 20.086292 128.1863 17.4 131.5 17.4C134.8137 17.4 137.5 20.086292 137.5 23.4Z" fill-rule="nonzero"/><path fill="#1a1a1a" d="M146.4375 27.4L146.4375 18.80625L150.25 18.80625Q151.40625 18.80625 152.0 19.040625Q152.59375 19.275 152.95312 19.86875Q153.3125 20.446875 153.3125 21.15Q153.3125 22.071875 152.71875 22.696875Q152.125 23.321875 150.89062 23.49375Q151.34375 23.7125 151.57812 23.915625Q152.07812 24.36875 152.51562 25.05625L154.01562 27.4L152.57812 27.4L151.45312 25.61875Q150.95312 24.8375 150.625 24.43125Q150.3125 24.025 150.04688 23.86875Q149.79688 23.696875 149.53125 23.61875Q149.34375 23.5875 148.90625 23.5875L147.57812 23.5875L147.57812 27.4L146.4375 27.4ZM147.57812 22.603125L150.03125 22.603125Q150.79688 22.603125 151.23438 22.446875Q151.6875 22.275 151.90625 21.93125Q152.14062 21.571875 152.14062 21.15Q152.14062 20.540625 151.6875 20.15Q151.25 19.759375 150.29688 19.759375L147.57812 19.759375L147.57812 22.603125ZM155.04688 24.634375L156.10938 24.540625Q156.1875 25.196875 156.46875 25.603125Q156.75 26.009375 157.32812 26.275Q157.92188 26.525 158.65625 26.525Q159.29688 26.525 159.79688 26.3375Q160.29688 26.134375 160.53125 25.80625Q160.78125 25.4625 160.78125 25.071875Q160.78125 24.665625 160.54688 24.36875Q160.3125 24.05625 159.78125 23.853125Q159.42188 23.7125 158.23438 23.43125Q157.0625 23.15 156.59375 22.9Q155.96875 22.571875 155.67188 22.103125Q155.375 21.61875 155.375 21.025Q155.375 20.384375 155.73438 19.821875Q156.10938 19.24375 156.8125 18.9625Q157.53125 18.665625 158.39062 18.665625Q159.34375 18.665625 160.07812 18.978125Q160.8125 19.275 161.20312 19.884375Q161.59375 20.478125 161.625 21.228125L160.53125 21.30625Q160.4375 20.49375 159.92188 20.0875Q159.42188 19.665625 158.4375 19.665625Q157.40625 19.665625 156.9375 20.040625Q156.46875 20.415625 156.46875 20.946875Q156.46875 21.415625 156.79688 21.7125Q157.125 22.009375 158.5 22.321875Q159.89062 22.634375 160.40625 22.86875Q161.15625 23.228125 161.51562 23.759375Q161.875 24.275 161.875 24.978125Q161.875 25.665625 161.48438 26.275Q161.09375 26.86875 160.35938 27.2125Q159.625 27.540625 158.70312 27.540625Q157.53125 27.540625 156.73438 27.2125Q155.95312 26.86875 155.5 26.18125Q155.0625 25.49375 155.04688 24.634375ZM163.625 27.4L163.625 18.80625L164.75 18.80625L164.75 27.4L163.625 27.4Z" fill-rule="nonzero"/><path fill="#ea4335" d="M193.5 23.4C193.5 26.713709 190.8137 29.4 187.5 29.4C184.1863 29.4 181.5 26.713709 181.5 23.4C181.5 20.086292 184.1863 17.4 187.5 17.4C190.8137 17.4 193.5 20.086292 193.5 23.4Z" fill-rule="nonzero"/><path fill="#1a1a1a" d="M204.875 27.4L201.54688 18.80625L202.78125 18.80625L205.01562 25.05625Q205.28125 25.80625 205.46875 26.4625Q205.67188 25.759375 205.9375 25.05625L208.25 18.80625L209.40625 18.80625L206.04688 27.4L204.875 27.4ZM213.35938 26.634375Q212.76562 27.134375 212.21875 27.3375Q211.6875 27.540625 211.0625 27.540625Q210.03125 27.540625 209.48438 27.040625Q208.9375 26.540625 208.9375 25.759375Q208.9375 25.30625 209.14062 24.93125Q209.34375 24.540625 209.6875 24.321875Q210.03125 24.0875 210.45312 23.978125Q210.75 23.884375 211.39062 23.80625Q212.65625 23.665625 213.26562 23.446875Q213.26562 23.228125 213.26562 23.18125Q213.26562 22.525 212.96875 22.259375Q212.5625 21.915625 211.76562 21.915625Q211.03125 21.915625 210.67188 22.18125Q210.3125 22.43125 210.14062 23.0875L209.10938 22.946875Q209.25 22.290625 209.57812 21.884375Q209.90625 21.478125 210.51562 21.259375Q211.125 21.040625 211.92188 21.040625Q212.71875 21.040625 213.21875 21.228125Q213.71875 21.415625 213.95312 21.696875Q214.1875 21.978125 214.28125 22.415625Q214.32812 22.68125 214.32812 23.384375L214.32812 24.790625Q214.32812 26.259375 214.39062 26.65Q214.46875 27.040625 214.67188 27.4L213.5625 27.4Q213.40625 27.071875 213.35938 26.634375ZM213.26562 24.275Q212.6875 24.509375 211.54688 24.68125Q210.89062 24.775 210.625 24.9Q210.35938 25.009375 210.20312 25.228125Q210.0625 25.446875 210.0625 25.728125Q210.0625 26.15 210.375 26.43125Q210.70312 26.7125 211.3125 26.7125Q211.92188 26.7125 212.39062 26.446875Q212.875 26.18125 213.09375 25.7125Q213.26562 25.353125 213.26562 24.665625L213.26562 24.275ZM216.26562 27.4L216.26562 18.80625L217.32812 18.80625L217.32812 27.4L216.26562 27.4ZM218.90625 24.290625Q218.90625 22.55625 219.85938 21.728125Q220.65625 21.040625 221.8125 21.040625Q223.09375 21.040625 223.90625 21.884375Q224.73438 22.7125 224.73438 24.196875Q224.73438 25.4 224.375 26.0875Q224.01562 26.775 223.3125 27.165625Q222.625 27.540625 221.8125 27.540625Q220.51562 27.540625 219.70312 26.7125Q218.90625 25.86875 218.90625 24.290625ZM219.98438 24.290625Q219.98438 25.478125 220.5 26.071875Q221.03125 26.665625 221.8125 26.665625Q222.60938 26.665625 223.125 26.071875Q223.64062 25.478125 223.64062 24.259375Q223.64062 23.103125 223.10938 22.509375Q222.59375 21.915625 221.8125 21.915625Q221.03125 21.915625 220.5 22.509375Q219.98438 23.0875 219.98438 24.290625ZM226.28125 27.4L226.28125 21.18125L227.23438 21.18125L227.23438 22.11875Q227.59375 21.4625 227.89062 21.259375Q228.20312 21.040625 228.57812 21.040625Q229.10938 21.040625 229.65625 21.36875L229.29688 22.353125Q228.90625 22.11875 228.53125 22.11875Q228.17188 22.11875 227.89062 22.3375Q227.625 22.540625 227.51562 22.915625Q227.32812 23.478125 227.32812 24.134375L227.32812 27.4L226.28125 27.4ZM234.54688 25.4L235.64062 25.525Q235.39062 26.478125 234.6875 27.009375Q233.98438 27.540625 232.90625 27.540625Q231.54688 27.540625 230.73438 26.696875Q229.9375 25.853125 229.9375 24.3375Q229.9375 22.775 230.75 21.915625Q231.5625 21.040625 232.84375 21.040625Q234.09375 21.040625 234.875 21.884375Q235.67188 22.728125 235.67188 24.275Q235.67188 24.36875 235.67188 24.55625L231.03125 24.55625Q231.09375 25.5875 231.60938 26.134375Q232.125 26.665625 232.90625 26.665625Q233.48438 26.665625 233.89062 26.36875Q234.3125 26.05625 234.54688 25.4ZM231.09375 23.696875L234.5625 23.696875Q234.5 22.9 234.17188 22.509375Q233.65625 21.9 232.85938 21.9Q232.125 21.9 231.625 22.384375Q231.14062 22.86875 231.09375 23.696875ZM239.90625 24.290625Q239.90625 22.55625 240.85938 21.728125Q241.65625 21.040625 242.8125 21.040625Q244.09375 21.040625 244.90625 21.884375Q245.73438 22.7125 245.73438 24.196875Q245.73438 25.4 245.375 26.0875Q245.01562 26.775 244.3125 27.165625Q243.625 27.540625 242.8125 27.540625Q241.51562 27.540625 240.70312 26.7125Q239.90625 25.86875 239.90625 24.290625ZM240.98438 24.290625Q240.98438 25.478125 241.5 26.071875Q242.03125 26.665625 242.8125 26.665625Q243.60938 26.665625 244.125 26.071875Q244.64062 25.478125 244.64062 24.259375Q244.64062 23.103125 244.10938 22.509375Q243.59375 21.915625 242.8125 21.915625Q242.03125 21.915625 241.5 22.509375Q240.98438 23.0875 240.98438 24.290625ZM249.59375 26.4625L249.75 27.384375Q249.29688 27.478125 248.95312 27.478125Q248.375 27.478125 248.0625 27.30625Q247.75 27.11875 247.60938 26.821875Q247.48438 26.525 247.48438 25.571875L247.48438 21.99375L246.71875 21.99375L246.71875 21.18125L247.48438 21.18125L247.48438 19.634375L248.53125 19.009375L248.53125 21.18125L249.59375 21.18125L249.59375 21.99375L248.53125 21.99375L248.53125 25.634375Q248.53125 26.0875 248.57812 26.2125Q248.64062 26.3375 248.76562 26.415625Q248.89062 26.49375 249.125 26.49375Q249.3125 26.49375 249.59375 26.4625ZM252.59375 26.4625L252.75 27.384375Q252.29688 27.478125 251.95312 27.478125Q251.375 27.478125 251.0625 27.30625Q250.75 27.11875 250.60938 26.821875Q250.48438 26.525 250.48438 25.571875L250.48438 21.99375L249.71875 21.99375L249.71875 21.18125L250.48438 21.18125L250.48438 19.634375L251.53125 19.009375L251.53125 21.18125L252.59375 21.18125L252.59375 21.99375L251.53125 21.99375L251.53125 25.634375Q251.53125 26.0875 251.57812 26.2125Q251.64062 26.3375 251.76562 26.415625Q251.89062 26.49375 252.125 26.49375Q252.3125 26.49375 252.59375 26.4625ZM253.29688 20.025L253.29688 18.80625L254.35938 18.80625L254.35938 20.025L253.29688 20.025ZM253.29688 27.4L253.29688 21.18125L254.35938 21.18125L254.35938 27.4L253.29688 27.4ZM256.29688 27.4L256.29688 21.18125L257.23438 21.18125L257.23438 22.05625Q257.53125 21.5875 258.01562 21.321875Q258.5 21.040625 259.125 21.040625Q259.8125 21.040625 260.25 21.321875Q260.70312 21.603125 260.875 22.11875Q261.625 21.040625 262.79688 21.040625Q263.73438 21.040625 264.21875 21.55625Q264.71875 22.05625 264.71875 23.134375L264.71875 27.4L263.67188 27.4L263.67188 23.478125Q263.67188 22.853125 263.5625 22.571875Q263.46875 22.290625 263.20312 22.11875Q262.9375 21.946875 262.5625 21.946875Q261.90625 21.946875 261.46875 22.384375Q261.04688 22.821875 261.04688 23.790625L261.04688 27.4L259.98438 27.4L259.98438 23.353125Q259.98438 22.65 259.71875 22.30625Q259.46875 21.946875 258.89062 21.946875Q258.4375 21.946875 258.0625 22.18125Q257.6875 22.415625 257.51562 22.86875Q257.34375 23.321875 257.34375 24.165625L257.34375 27.4L256.29688 27.4ZM266.90625 24.290625Q266.90625 22.55625 267.85938 21.728125Q268.65625 21.040625 269.8125 21.040625Q271.09375 21.040625 271.90625 21.884375Q272.73438 22.7125 272.73438 24.196875Q272.73438 25.4 272.375 26.0875Q272.01562 26.775 271.3125 27.165625Q270.625 27.540625 269.8125 27.540625Q268.51562 27.540625 267.70312 26.7125Q266.90625 25.86875 266.90625 24.290625ZM267.98438 24.290625Q267.98438 25.478125 268.5 26.071875Q269.03125 26.665625 269.8125 26.665625Q270.60938 26.665625 271.125 26.071875Q271.64062 25.478125 271.64062 24.259375Q271.64062 23.103125 271.10938 22.509375Q270.59375 21.915625 269.8125 21.915625Q269.03125 21.915625 268.5 22.509375Q267.98438 23.0875 267.98438 24.290625Z" fill-rule="nonzero"/><path fill="#fbbc04" fill-opacity="0.7019608" d="M301.5 23.4C301.5 26.713709 298.81372 29.4 295.5 29.4C292.18628 29.4 289.5 26.713709 289.5 23.4C289.5 20.086292 292.18628 17.4 295.5 17.4C298.81372 17.4 301.5 20.086292 301.5 23.4Z" fill-rule="nonzero"/><path fill="#1a1a1a" d="M312.875 27.4L309.54688 18.80625L310.78125 18.80625L313.01562 25.05625Q313.28125 25.80625 313.46875 26.4625Q313.67188 25.759375 313.9375 25.05625L316.25 18.80625L317.40625 18.80625L314.04688 27.4L312.875 27.4ZM321.35938 26.634375Q320.76562 27.134375 320.21875 27.3375Q319.6875 27.540625 319.0625 27.540625Q318.03125 27.540625 317.48438 27.040625Q316.9375 26.540625 316.9375 25.759375Q316.9375 25.30625 317.14062 24.93125Q317.34375 24.540625 317.6875 24.321875Q318.03125 24.0875 318.45312 23.978125Q318.75 23.884375 319.39062 23.80625Q320.65625 23.665625 321.26562 23.446875Q321.26562 23.228125 321.26562 23.18125Q321.26562 22.525 320.96875 22.259375Q320.5625 21.915625 319.76562 21.915625Q319.03125 21.915625 318.67188 22.18125Q318.3125 22.43125 318.14062 23.0875L317.10938 22.946875Q317.25 22.290625 317.57812 21.884375Q317.90625 21.478125 318.51562 21.259375Q319.125 21.040625 319.92188 21.040625Q320.71875 21.040625 321.21875 21.228125Q321.71875 21.415625 321.95312 21.696875Q322.1875 21.978125 322.28125 22.415625Q322.32812 22.68125 322.32812 23.384375L322.32812 24.790625Q322.32812 26.259375 322.39062 26.65Q322.46875 27.040625 322.67188 27.4L321.5625 27.4Q321.40625 27.071875 321.35938 26.634375ZM321.26562 24.275Q320.6875 24.509375 319.54688 24.68125Q318.89062 24.775 318.625 24.9Q318.35938 25.009375 318.20312 25.228125Q318.0625 25.446875 318.0625 25.728125Q318.0625 26.15 318.375 26.43125Q318.70312 26.7125 319.3125 26.7125Q319.92188 26.7125 320.39062 26.446875Q320.875 26.18125 321.09375 25.7125Q321.26562 25.353125 321.26562 24.665625L321.26562 24.275ZM324.26562 27.4L324.26562 18.80625L325.32812 18.80625L325.32812 27.4L324.26562 27.4ZM326.90625 24.290625Q326.90625 22.55625 327.85938 21.728125Q328.65625 21.040625 329.8125 21.040625Q331.09375 21.040625 331.90625 21.884375Q332.73438 22.7125 332.73438 24.196875Q332.73438 25.4 332.375 26.0875Q332.01562 26.775 331.3125 27.165625Q330.625 27.540625 329.8125 27.540625Q328.51562 27.540625 327.70312 26.7125Q326.90625 25.86875 326.90625 24.290625ZM327.98438 24.290625Q327.98438 25.478125 328.5 26.071875Q329.03125 26.665625 329.8125 26.665625Q330.60938 26.665625 331.125 26.071875Q331.64062 25.478125 331.64062 24.259375Q331.64062 23.103125 331.10938 22.509375Q330.59375 21.915625 329.8125 21.915625Q329.03125 21.915625 328.5 22.509375Q327.98438 23.0875 327.98438 24.290625ZM334.28125 27.4L334.28125 21.18125L335.23438 21.18125L335.23438 22.11875Q335.59375 21.4625 335.89062 21.259375Q336.20312 21.040625 336.57812 21.040625Q337.10938 21.040625 337.65625 21.36875L337.29688 22.353125Q336.90625 22.11875 336.53125 22.11875Q336.17188 22.11875 335.89062 22.3375Q335.625 22.540625 335.51562 22.915625Q335.32812 23.478125 335.32812 24.134375L335.32812 27.4L334.28125 27.4ZM342.54688 25.4L343.64062 25.525Q343.39062 26.478125 342.6875 27.009375Q341.98438 27.540625 340.90625 27.540625Q339.54688 27.540625 338.73438 26.696875Q337.9375 25.853125 337.9375 24.3375Q337.9375 22.775 338.75 21.915625Q339.5625 21.040625 340.84375 21.040625Q342.09375 21.040625 342.875 21.884375Q343.67188 22.728125 343.67188 24.275Q343.67188 24.36875 343.67188 24.55625L339.03125 24.55625Q339.09375 25.5875 339.60938 26.134375Q340.125 26.665625 340.90625 26.665625Q341.48438 26.665625 341.89062 26.36875Q342.3125 26.05625 342.54688 25.4ZM339.09375 23.696875L342.5625 23.696875Q342.5 22.9 342.17188 22.509375Q341.65625 21.9 340.85938 21.9Q340.125 21.9 339.625 22.384375Q339.14062 22.86875 339.09375 23.696875ZM352.35938 26.634375Q351.76562 27.134375 351.21875 27.3375Q350.6875 27.540625 350.0625 27.540625Q349.03125 27.540625 348.48438 27.040625Q347.9375 26.540625 347.9375 25.759375Q347.9375 25.30625 348.14062 24.93125Q348.34375 24.540625 348.6875 24.321875Q349.03125 24.0875 349.45312 23.978125Q349.75 23.884375 350.39062 23.80625Q351.65625 23.665625 352.26562 23.446875Q352.26562 23.228125 352.26562 23.18125Q352.26562 22.525 351.96875 22.259375Q351.5625 21.915625 350.76562 21.915625Q350.03125 21.915625 349.67188 22.18125Q349.3125 22.43125 349.14062 23.0875L348.10938 22.946875Q348.25 22.290625 348.57812 21.884375Q348.90625 21.478125 349.51562 21.259375Q350.125 21.040625 350.92188 21.040625Q351.71875 21.040625 352.21875 21.228125Q352.71875 21.415625 352.95312 21.696875Q353.1875 21.978125 353.28125 22.415625Q353.32812 22.68125 353.32812 23.384375L353.32812 24.790625Q353.32812 26.259375 353.39062 26.65Q353.46875 27.040625 353.67188 27.4L352.5625 27.4Q352.40625 27.071875 352.35938 26.634375ZM352.26562 24.275Q351.6875 24.509375 350.54688 24.68125Q349.89062 24.775 349.625 24.9Q349.35938 25.009375 349.20312 25.228125Q349.0625 25.446875 349.0625 25.728125Q349.0625 26.15 349.375 26.43125Q349.70312 26.7125 350.3125 26.7125Q350.92188 26.7125 351.39062 26.446875Q351.875 26.18125 352.09375 25.7125Q352.26562 25.353125 352.26562 24.665625L352.26562 24.275ZM359.35938 25.11875L360.39062 25.259375Q360.21875 26.321875 359.51562 26.93125Q358.8125 27.540625 357.79688 27.540625Q356.51562 27.540625 355.73438 26.7125Q354.96875 25.86875 354.96875 24.30625Q354.96875 23.30625 355.29688 22.55625Q355.64062 21.790625 356.3125 21.415625Q357.0 21.040625 357.8125 21.040625Q358.8125 21.040625 359.45312 21.55625Q360.10938 22.05625 360.29688 23.009375L359.26562 23.165625Q359.125 22.540625 358.75 22.228125Q358.375 21.9 357.84375 21.9Q357.04688 21.9 356.54688 22.478125Q356.04688 23.040625 356.04688 24.275Q356.04688 25.540625 356.53125 26.103125Q357.01562 26.665625 357.78125 26.665625Q358.40625 26.665625 358.8125 26.290625Q359.23438 25.915625 359.35938 25.11875ZM365.35938 25.11875L366.39062 25.259375Q366.21875 26.321875 365.51562 26.93125Q364.8125 27.540625 363.79688 27.540625Q362.51562 27.540625 361.73438 26.7125Q360.96875 25.86875 360.96875 24.30625Q360.96875 23.30625 361.29688 22.55625Q361.64062 21.790625 362.3125 21.415625Q363.0 21.040625 363.8125 21.040625Q364.8125 21.040625 365.45312 21.55625Q366.10938 22.05625 366.29688 23.009375L365.26562 23.165625Q365.125 22.540625 364.75 22.228125Q364.375 21.9 363.84375 21.9Q363.04688 21.9 362.54688 22.478125Q362.04688 23.040625 362.04688 24.275Q362.04688 25.540625 362.53125 26.103125Q363.01562 26.665625 363.78125 26.665625Q364.40625 26.665625 364.8125 26.290625Q365.23438 25.915625 365.35938 25.11875ZM371.54688 25.4L372.64062 25.525Q372.39062 26.478125 371.6875 27.009375Q370.98438 27.540625 369.90625 27.540625Q368.54688 27.540625 367.73438 26.696875Q366.9375 25.853125 366.9375 24.3375Q366.9375 22.775 367.75 21.915625Q368.5625 21.040625 369.84375 21.040625Q371.09375 21.040625 371.875 21.884375Q372.67188 22.728125 372.67188 24.275Q372.67188 24.36875 372.67188 24.55625L368.03125 24.55625Q368.09375 25.5875 368.60938 26.134375Q369.125 26.665625 369.90625 26.665625Q370.48438 26.665625 370.89062 26.36875Q371.3125 26.05625 371.54688 25.4ZM368.09375 23.696875L371.5625 23.696875Q371.5 22.9 371.17188 22.509375Q370.65625 21.9 369.85938 21.9Q369.125 21.9 368.625 22.384375Q368.14062 22.86875 368.09375 23.696875ZM376.59375 26.4625L376.75 27.384375Q376.29688 27.478125 375.95312 27.478125Q375.375 27.478125 375.0625 27.30625Q374.75 27.11875 374.60938 26.821875Q374.48438 26.525 374.48438 25.571875L374.48438 21.99375L373.71875 21.99375L373.71875 21.18125L374.48438 21.18125L374.48438 19.634375L375.53125 19.009375L375.53125 21.18125L376.59375 21.18125L376.59375 21.99375L375.53125 21.99375L375.53125 25.634375Q375.53125 26.0875 375.57812 26.2125Q375.64062 26.3375 375.76562 26.415625Q375.89062 26.49375 376.125 26.49375Q376.3125 26.49375 376.59375 26.4625ZM379.59375 26.4625L379.75 27.384375Q379.29688 27.478125 378.95312 27.478125Q378.375 27.478125 378.0625 27.30625Q377.75 27.11875 377.60938 26.821875Q377.48438 26.525 377.48438 25.571875L377.48438 21.99375L376.71875 21.99375L376.71875 21.18125L377.48438 21.18125L377.48438 19.634375L378.53125 19.009375L378.53125 21.18125L379.59375 21.18125L379.59375 21.99375L378.53125 21.99375L378.53125 25.634375Q378.53125 26.0875 378.57812 26.2125Q378.64062 26.3375 378.76562 26.415625Q378.89062 26.49375 379.125 26.49375Q379.3125 26.49375 379.59375 26.4625ZM384.35938 26.634375Q383.76562 27.134375 383.21875 27.3375Q382.6875 27.540625 382.0625 27.540625Q381.03125 27.540625 380.48438 27.040625Q379.9375 26.540625 379.9375 25.759375Q379.9375 25.30625 380.14062 24.93125Q380.34375 24.540625 380.6875 24.321875Q381.03125 24.0875 381.45312 23.978125Q381.75 23.884375 382.39062 23.80625Q383.65625 23.665625 384.26562 23.446875Q384.26562 23.228125 384.26562 23.18125Q384.26562 22.525 383.96875 22.259375Q383.5625 21.915625 382.76562 21.915625Q382.03125 21.915625 381.67188 22.18125Q381.3125 22.43125 381.14062 23.0875L380.10938 22.946875Q380.25 22.290625 380.57812 21.884375Q380.90625 21.478125 381.51562 21.259375Q382.125 21.040625 382.92188 21.040625Q383.71875 21.040625 384.21875 21.228125Q384.71875 21.415625 384.95312 21.696875Q385.1875 21.978125 385.28125 22.415625Q385.32812 22.68125 385.32812 23.384375L385.32812 24.790625Q385.32812 26.259375 385.39062 26.65Q385.46875 27.040625 385.67188 27.4L384.5625 27.4Q384.40625 27.071875 384.35938 26.634375ZM384.26562 24.275Q383.6875 24.509375 382.54688 24.68125Q381.89062 24.775 381.625 24.9Q381.35938 25.009375 381.20312 25.228125Q381.0625 25.446875 381.0625 25.728125Q381.0625 26.15 381.375 26.43125Q381.70312 26.7125 382.3125 26.7125Q382.92188 26.7125 383.39062 26.446875Q383.875 26.18125 384.09375 25.7125Q384.26562 25.353125 384.26562 24.665625L384.26562 24.275ZM388.26562 27.4L387.28125 27.4L387.28125 18.80625L388.34375 18.80625L388.34375 21.86875Q389.01562 21.040625 390.04688 21.040625Q390.625 21.040625 391.125 21.275Q391.64062 21.49375 391.96875 21.915625Q392.3125 22.3375 392.5 22.93125Q392.6875 23.525 392.6875 24.196875Q392.6875 25.790625 391.89062 26.665625Q391.09375 27.540625 390.0 27.540625Q388.89062 27.540625 388.26562 26.61875L388.26562 27.4ZM388.25 24.24375Q388.25 25.353125 388.5625 25.853125Q389.0625 26.665625 389.90625 26.665625Q390.59375 26.665625 391.09375 26.071875Q391.60938 25.478125 391.60938 24.275Q391.60938 23.05625 391.125 22.478125Q390.64062 21.9 389.95312 21.9Q389.26562 21.9 388.75 22.509375Q388.25 23.103125 388.25 24.24375ZM394.29688 20.025L394.29688 18.80625L395.35938 18.80625L395.35938 20.025L394.29688 20.025ZM394.29688 27.4L394.29688 21.18125L395.35938 21.18125L395.35938 27.4L394.29688 27.4ZM397.26562 27.4L397.26562 18.80625L398.32812 18.80625L398.32812 27.4L397.26562 27.4ZM404.54688 25.4L405.64062 25.525Q405.39062 26.478125 404.6875 27.009375Q403.98438 27.540625 402.90625 27.540625Q401.54688 27.540625 400.73438 26.696875Q399.9375 25.853125 399.9375 24.3375Q399.9375 22.775 400.75 21.915625Q401.5625 21.040625 402.84375 21.040625Q404.09375 21.040625 404.875 21.884375Q405.67188 22.728125 405.67188 24.275Q405.67188 24.36875 405.67188 24.55625L401.03125 24.55625Q401.09375 25.5875 401.60938 26.134375Q402.125 26.665625 402.90625 26.665625Q403.48438 26.665625 403.89062 26.36875Q404.3125 26.05625 404.54688 25.4ZM401.09375 23.696875L404.5625 23.696875Q404.5 22.9 404.17188 22.509375Q403.65625 21.9 402.85938 21.9Q402.125 21.9 401.625 22.384375Q401.14062 22.86875 401.09375 23.696875Z" fill-rule="nonzero"/></svg>