<svg version="1.1" viewBox="0.0 0.0 532.0 328.0" fill="none" stroke="none" stroke-linecap="square" stroke-miterlimit="10" width="532" height="328" xmlns:xlink="http://www.w3.org/1999/xlink" xmlns="http://www.w3.org/2000/svg"><path fill="#ffffff" d="M0 0L532.0 0L532.0 328.0L0 328.0L0 0Z" fill-rule="nonzero"/><path stroke="#333333" stroke-width="1.0" stroke-linecap="butt" d="M81.5 285.5L515.5 285.5" fill-rule="nonzero"/><path stroke="#cccccc" stroke-width="1.0" stroke-linecap="butt" d="M81.5 238.5L515.5 238.5" fill-rule="nonzero"/><path stroke="#cccccc" stroke-width="1.0" stroke-linecap="butt" d="M81.5 190.5L515.5 190.5" fill-rule="nonzero"/><path stroke="#cccccc" stroke-width="1.0" stroke-linecap="butt" d="M81.5 143.5L515.5 143.5" fill-rule="nonzero"/><path stroke="#cccccc" stroke-width="1.0" stroke-linecap="butt" d="M81.5 95.5L515.5 95.5" fill-rule="nonzero"/><path stroke="#cccccc" stroke-width="1.0" stroke-linecap="butt" d="M81.5 48.5L515.5 48.5" fill-rule="nonzero"/><path stroke="#000000" stroke-width="1.0" stroke-linecap="butt" d="M515.5 285.5L81.5 285.5" fill-rule="nonzero"/><path stroke="#000000" stroke-width="1.0" stroke-linecap="butt" d="M81.5 285.5L81.5 48.5" fill-rule="nonzero"/><clipPath id="id_0"><path d="M81.4 48.333332L515.6 48.333332L515.6 285.6L81.4 285.6L81.4 48.333332Z" clip-rule="nonzero"/></clipPath><path stroke="#4285f4" stroke-width="2.0" stroke-linecap="butt" clip-path="url(#id_0)" d="M153.76666 83.92333C153.76666 83.92333 250.25555 83.92333 298.5 83.92333C346.74445 83.92333 443.23334 83.92333 443.23334 83.92333" fill-rule="nonzero"/><path stroke="#ea4335" stroke-width="2.0" stroke-linecap="butt" clip-path="url(#id_0)" d="M153.76666 285.6C153.76666 285.6 250.25555 116.34978 298.5 76.805336C346.74445 37.260887 443.23334 48.333332 443.23334 48.333332" fill-rule="nonzero"/><path stroke="#fbbc04" stroke-width="2.0" stroke-linecap="butt" stroke-opacity="0.5019608" clip-path="url(#id_0)" d="M153.76666 48.333332C153.76666 48.333332 250.25555 48.333332 298.5 48.333332C346.74445 48.333332 443.23334 48.333332 443.23334 48.333332" fill-rule="nonzero"/><path fill="#4285f4" clip-path="url(#id_0)" d="M157.26666 83.92333C157.26666 85.85633 155.69966 87.42333 153.76666 87.42333C151.83366 87.42333 150.26666 85.85633 150.26666 83.92333C150.26666 81.99033 151.83366 80.42333 153.76666 80.42333C155.69966 80.42333 157.26666 81.99033 157.26666 83.92333Z" fill-rule="nonzero"/><path fill="#4285f4" clip-path="url(#id_0)" d="M302.0 83.92333C302.0 85.85633 300.43298 87.42333 298.5 87.42333C296.56702 87.42333 295.0 85.85633 295.0 83.92333C295.0 81.99033 296.56702 80.42333 298.5 80.42333C300.43298 80.42333 302.0 81.99033 302.0 83.92333Z" fill-rule="nonzero"/><path fill="#4285f4" clip-path="url(#id_0)" d="M446.73334 83.92333C446.73334 85.85633 445.16632 87.42333 443.23334 87.42333C441.30032 87.42333 439.73334 85.85633 439.73334 83.92333C439.73334 81.99033 441.30032 80.42333 443.23334 80.42333C445.16632 80.42333 446.73334 81.99033 446.73334 83.92333Z" fill-rule="nonzero"/><path fill="#ea4335" clip-path="url(#id_0)" d="M157.26666 285.6C157.26666 287.533 155.69966 289.1 153.76666 289.1C151.83366 289.1 150.26666 287.533 150.26666 285.6C150.26666 283.667 151.83366 282.1 153.76666 282.1C155.69966 282.1 157.26666 283.667 157.26666 285.6Z" fill-rule="nonzero"/><path fill="#ea4335" clip-path="url(#id_0)" d="M302.0 76.805336C302.0 78.73833 300.43298 80.305336 298.5 80.305336C296.56702 80.305336 295.0 78.73833 295.0 76.805336C295.0 74.87234 296.56702 73.305336 298.5 73.305336C300.43298 73.305336 302.0 74.87234 302.0 76.805336Z" fill-rule="nonzero"/><path fill="#ea4335" clip-path="url(#id_0)" d="M446.73334 48.333332C446.73334 50.26633 445.16632 51.833332 443.23334 51.833332C441.30032 51.833332 439.73334 50.26633 439.73334 48.333332C439.73334 46.400337 441.30032 44.833332 443.23334 44.833332C445.16632 44.833332 446.73334 46.400337 446.73334 48.333332Z" fill-rule="nonzero"/><path fill="#fbbc04" fill-opacity="0.5019608" clip-path="url(#id_0)" d="M157.26666 48.333332C157.26666 50.26633 155.69966 51.833332 153.76666 51.833332C151.83366 51.833332 150.26666 50.26633 150.26666 48.333332C150.26666 46.400337 151.83366 44.833332 153.76666 44.833332C155.69966 44.833332 157.26666 46.400337 157.26666 48.333332Z" fill-rule="nonzero"/><path fill="#fbbc04" fill-opacity="0.5019608" clip-path="url(#id_0)" d="M302.0 48.333332C302.0 50.26633 300.43298 51.833332 298.5 51.833332C296.56702 51.833332 295.0 50.26633 295.0 48.333332C295.0 46.400337 296.56702 44.833332 298.5 44.833332C300.43298 44.833332 302.0 46.400337 302.0 48.333332Z" fill-rule="nonzero"/><path fill="#fbbc04" fill-opacity="0.5019608" clip-path="url(#id_0)" d="M446.73334 48.333332C446.73334 50.26633 445.16632 51.833332 443.23334 51.833332C441.30032 51.833332 439.73334 50.26633 439.73334 48.333332C439.73334 46.400337 441.30032 44.833332 443.23334 44.833332C445.16632 44.833332 446.73334 46.400337 446.73334 48.333332Z" fill-rule="nonzero"/><path stroke="#000000" stroke-width="1.0" stroke-linecap="butt" d="M153.5 291.5L153.5 279.5" fill-rule="nonzero"/><path stroke="#000000" stroke-width="1.0" stroke-linecap="butt" d="M298.5 291.5L298.5 279.5" fill-rule="nonzero"/><path stroke="#000000" stroke-width="1.0" stroke-linecap="butt" d="M443.5 291.5L443.5 279.5" fill-rule="nonzero"/><path stroke="#000000" stroke-width="1.0" stroke-linecap="butt" d="M75.5 285.5L87.5 285.5" fill-rule="nonzero"/><path stroke="#000000" stroke-width="1.0" stroke-linecap="butt" d="M75.5 238.5L87.5 238.5" fill-rule="nonzero"/><path stroke="#000000" stroke-width="1.0" stroke-linecap="butt" d="M75.5 190.5L87.5 190.5" fill-rule="nonzero"/><path stroke="#000000" stroke-width="1.0" stroke-linecap="butt" d="M75.5 143.5L87.5 143.5" fill-rule="nonzero"/><path stroke="#000000" stroke-width="1.0" stroke-linecap="butt" d="M75.5 95.5L87.5 95.5" fill-rule="nonzero"/><path stroke="#000000" stroke-width="1.0" stroke-linecap="butt" d="M75.5 48.5L87.5 48.5" fill-rule="nonzero"/><path fill="#000000" d="M62.9 285.36563Q62.9 283.83438 63.2125 282.9125Q63.525 281.975 64.13438 281.475Q64.75938 280.975 65.69688 280.975Q66.38438 280.975 66.9 281.25626Q67.43125 281.5375 67.775 282.06876Q68.11875 282.58438 68.30625 283.33438Q68.49375 284.08438 68.49375 285.36563Q68.49375 286.88126 68.18125 287.80313Q67.88438 288.725 67.25938 289.24063Q66.65 289.74063 65.69688 289.74063Q64.4625 289.74063 63.74375 288.85Q62.9 287.7875 62.9 285.36563ZM63.978127 285.36563Q63.978127 287.475 64.47813 288.17813Q64.97813 288.88126 65.69688 288.88126Q66.43125 288.88126 66.91563 288.17813Q67.41563 287.475 67.41563 285.36563Q67.41563 283.24063 66.91563 282.55313Q66.43125 281.85 65.68125 281.85Q64.9625 281.85 64.525 282.45938Q63.978127 283.24063 63.978127 285.36563Z" fill-rule="nonzero"/><path fill="#000000" d="M61.446877 241.13104L61.446877 242.14667L55.759377 242.14667Q55.759377 241.77167 55.884377 241.4123Q56.103127 240.83417 56.571877 240.27167Q57.05625 239.70917 57.9625 238.9748Q59.36875 237.81854 59.853127 237.14667Q60.353127 236.4748 60.353127 235.88104Q60.353127 235.25604 59.9 234.83417Q59.446877 234.39667 58.728127 234.39667Q57.9625 234.39667 57.509377 234.8498Q57.05625 235.30292 57.040627 236.11542L55.9625 236.00604Q56.071877 234.7873 56.790627 234.1623Q57.525 233.52167 58.759377 233.52167Q59.99375 233.52167 60.7125 234.20917Q61.43125 234.89667 61.43125 235.9123Q61.43125 236.42792 61.2125 236.92792Q61.009377 237.4123 60.509377 237.9748Q60.025 238.52167 58.9 239.4748Q57.946877 240.27167 57.665627 240.56854Q57.4 240.8498 57.228127 241.13104L61.446877 241.13104ZM62.9 237.9123Q62.9 236.38104 63.2125 235.45917Q63.525 234.52167 64.13438 234.02167Q64.75938 233.52167 65.69688 233.52167Q66.38438 233.52167 66.9 233.80292Q67.43125 234.08417 67.775 234.61542Q68.11875 235.13104 68.30625 235.88104Q68.49375 236.63104 68.49375 237.9123Q68.49375 239.42792 68.18125 240.3498Q67.88438 241.27167 67.25938 241.7873Q66.65 242.2873 65.69688 242.2873Q64.4625 242.2873 63.74375 241.39667Q62.9 240.33417 62.9 237.9123ZM63.978127 237.9123Q63.978127 240.02167 64.47813 240.7248Q64.97813 241.42792 65.69688 241.42792Q66.43125 241.42792 66.91563 240.7248Q67.41563 240.02167 67.41563 237.9123Q67.41563 235.7873 66.91563 235.0998Q66.43125 234.39667 65.68125 234.39667Q64.9625 234.39667 64.525 235.00604Q63.978127 235.7873 63.978127 237.9123Z" fill-rule="nonzero"/><path fill="#000000" d="M59.275 194.69333L59.275 192.63083L55.55625 192.63083L55.55625 191.66208L59.478127 186.09958L60.3375 186.09958L60.3375 191.66208L61.49375 191.66208L61.49375 192.63083L60.3375 192.63083L60.3375 194.69333L59.275 194.69333ZM59.275 191.66208L59.275 187.8027L56.5875 191.66208L59.275 191.66208ZM62.9 190.45895Q62.9 188.9277 63.2125 188.00583Q63.525 187.06833 64.13438 186.56833Q64.75938 186.06833 65.69688 186.06833Q66.38438 186.06833 66.9 186.34958Q67.43125 186.63083 67.775 187.16208Q68.11875 187.6777 68.30625 188.4277Q68.49375 189.1777 68.49375 190.45895Q68.49375 191.97458 68.18125 192.89645Q67.88438 193.81833 67.25938 194.33395Q66.65 194.83395 65.69688 194.83395Q64.4625 194.83395 63.74375 193.94333Q62.9 192.88083 62.9 190.45895ZM63.978127 190.45895Q63.978127 192.56833 64.47813 193.27145Q64.97813 193.97458 65.69688 193.97458Q66.43125 193.97458 66.91563 193.27145Q67.41563 192.56833 67.41563 190.45895Q67.41563 188.33395 66.91563 187.64645Q66.43125 186.94333 65.68125 186.94333Q64.9625 186.94333 64.525 187.5527Q63.978127 188.33395 63.978127 190.45895Z" fill-rule="nonzero"/><path fill="#000000" d="M61.36875 140.75563L60.321877 140.83376Q60.18125 140.20876 59.93125 139.9275Q59.49375 139.47438 58.86875 139.47438Q58.36875 139.47438 57.978127 139.75563Q57.49375 140.13063 57.196877 140.83376Q56.915627 141.52126 56.9 142.8025Q57.275 142.22438 57.821877 141.94313Q58.384377 141.66188 58.99375 141.66188Q60.040627 141.66188 60.775 142.44313Q61.525 143.22438 61.525 144.44313Q61.525 145.25563 61.165627 145.95876Q60.821877 146.64626 60.2125 147.02126Q59.603127 147.38063 58.8375 147.38063Q57.509377 147.38063 56.68125 146.41188Q55.853127 145.44313 55.853127 143.22438Q55.853127 140.72438 56.775 139.59938Q57.571877 138.615 58.93125 138.615Q59.946877 138.615 60.5875 139.19313Q61.24375 139.75563 61.36875 140.75563ZM57.071877 144.45876Q57.071877 145.00563 57.290627 145.50563Q57.525 145.99 57.93125 146.25563Q58.353127 146.52126 58.821877 146.52126Q59.478127 146.52126 59.9625 145.99Q60.446877 145.44313 60.446877 144.52126Q60.446877 143.63063 59.9625 143.115Q59.49375 142.59938 58.775 142.59938Q58.05625 142.59938 57.55625 143.115Q57.071877 143.63063 57.071877 144.45876ZM62.9 143.00563Q62.9 141.47438 63.2125 140.5525Q63.525 139.615 64.13438 139.115Q64.75938 138.615 65.69688 138.615Q66.38438 138.615 66.9 138.89626Q67.43125 139.1775 67.775 139.70876Q68.11875 140.22438 68.30625 140.97438Q68.49375 141.72438 68.49375 143.00563Q68.49375 144.52126 68.18125 145.44313Q67.88438 146.365 67.25938 146.88063Q66.65 147.38063 65.69688 147.38063Q64.4625 147.38063 63.74375 146.49Q62.9 145.4275 62.9 143.00563ZM63.978127 143.00563Q63.978127 145.115 64.47813 145.81813Q64.97813 146.52126 65.69688 146.52126Q66.43125 146.52126 66.91563 145.81813Q67.41563 145.115 67.41563 143.00563Q67.41563 140.88063 66.91563 140.19313Q66.43125 139.49 65.68125 139.49Q64.9625 139.49 64.525 140.09938Q63.978127 140.88063 63.978127 143.00563Z" fill-rule="nonzero"/><path fill="#000000" d="M57.525 95.13042Q56.86875 94.88042 56.540627 94.44292Q56.228127 93.98979 56.228127 93.38042Q56.228127 92.44292 56.9 91.80229Q57.5875 91.16167 58.696877 91.16167Q59.821877 91.16167 60.509377 91.81792Q61.196877 92.47417 61.196877 93.41167Q61.196877 94.00542 60.884377 94.44292Q60.571877 94.88042 59.93125 95.13042Q60.728127 95.38042 61.134377 95.95854Q61.540627 96.53667 61.540627 97.33354Q61.540627 98.42729 60.759377 99.17729Q59.99375 99.92729 58.7125 99.92729Q57.446877 99.92729 56.665627 99.17729Q55.884377 98.42729 55.884377 97.30229Q55.884377 96.45854 56.30625 95.89604Q56.74375 95.33354 57.525 95.13042ZM57.30625 93.33354Q57.30625 93.94292 57.696877 94.33354Q58.103127 94.72417 58.728127 94.72417Q59.3375 94.72417 59.728127 94.34917Q60.11875 93.95854 60.11875 93.39604Q60.11875 92.81792 59.7125 92.42729Q59.30625 92.02104 58.7125 92.02104Q58.103127 92.02104 57.696877 92.41167Q57.30625 92.80229 57.30625 93.33354ZM56.978127 97.30229Q56.978127 97.75542 57.18125 98.17729Q57.4 98.59917 57.821877 98.83354Q58.24375 99.06792 58.728127 99.06792Q59.478127 99.06792 59.9625 98.58354Q60.4625 98.09917 60.4625 97.34917Q60.4625 96.58354 59.9625 96.08354Q59.4625 95.58354 58.696877 95.58354Q57.946877 95.58354 57.4625 96.08354Q56.978127 96.56792 56.978127 97.30229ZM62.9 95.55229Q62.9 94.02104 63.2125 93.09917Q63.525 92.16167 64.13438 91.66167Q64.75938 91.16167 65.69688 91.16167Q66.38438 91.16167 66.9 91.44292Q67.43125 91.72417 67.775 92.25542Q68.11875 92.77104 68.30625 93.52104Q68.49375 94.27104 68.49375 95.55229Q68.49375 97.06792 68.18125 97.98979Q67.88438 98.91167 67.25938 99.42729Q66.65 99.92729 65.69688 99.92729Q64.4625 99.92729 63.74375 99.03667Q62.9 97.97417 62.9 95.55229ZM63.978127 95.55229Q63.978127 97.66167 64.47813 98.36479Q64.97813 99.06792 65.69688 99.06792Q66.43125 99.06792 66.91563 98.36479Q67.41563 97.66167 67.41563 95.55229Q67.41563 93.42729 66.91563 92.73979Q66.43125 92.03667 65.68125 92.03667Q64.9625 92.03667 64.525 92.64604Q63.978127 93.42729 63.978127 95.55229Z" fill-rule="nonzero"/><path fill="#000000" d="M52.86875 52.333332L51.821877 52.333332L51.821877 45.614582Q51.43125 45.973957 50.80625 46.348957Q50.196877 46.708332 49.7125 46.880207L49.7125 45.864582Q50.5875 45.442707 51.24375 44.864582Q51.915627 44.270832 52.196877 43.708332L52.86875 43.708332L52.86875 52.333332ZM55.9 48.098957Q55.9 46.567707 56.2125 45.645832Q56.525 44.708332 57.134377 44.208332Q57.759377 43.708332 58.696877 43.708332Q59.384377 43.708332 59.9 43.989582Q60.43125 44.270832 60.775 44.802082Q61.11875 45.317707 61.30625 46.067707Q61.49375 46.817707 61.49375 48.098957Q61.49375 49.614582 61.18125 50.536457Q60.884377 51.458332 60.259377 51.973957Q59.65 52.473957 58.696877 52.473957Q57.4625 52.473957 56.74375 51.583332Q55.9 50.520832 55.9 48.098957ZM56.978127 48.098957Q56.978127 50.208332 57.478127 50.911457Q57.978127 51.614582 58.696877 51.614582Q59.43125 51.614582 59.915627 50.911457Q60.415627 50.208332 60.415627 48.098957Q60.415627 45.973957 59.915627 45.286457Q59.43125 44.583332 58.68125 44.583332Q57.9625 44.583332 57.525 45.192707Q56.978127 45.973957 56.978127 48.098957ZM62.9 48.098957Q62.9 46.567707 63.2125 45.645832Q63.525 44.708332 64.13438 44.208332Q64.75938 43.708332 65.69688 43.708332Q66.38438 43.708332 66.9 43.989582Q67.43125 44.270832 67.775 44.802082Q68.11875 45.317707 68.30625 46.067707Q68.49375 46.817707 68.49375 48.098957Q68.49375 49.614582 68.18125 50.536457Q67.88438 51.458332 67.25938 51.973957Q66.65 52.473957 65.69688 52.473957Q64.4625 52.473957 63.74375 51.583332Q62.9 50.520832 62.9 48.098957ZM63.978127 48.098957Q63.978127 50.208332 64.47813 50.911457Q64.97813 51.614582 65.69688 51.614582Q66.43125 51.614582 66.91563 50.911457Q67.41563 50.208332 67.41563 48.098957Q67.41563 45.973957 66.91563 45.286457Q66.43125 44.583332 65.68125 44.583332Q64.9625 44.583332 64.525 45.192707Q63.978127 45.973957 63.978127 48.098957Z" fill-rule="nonzero"/><path fill="#000000" d="M133.31354 305.83438L134.37604 305.74063Q134.45416 306.39688 134.73541 306.80313Q135.01666 307.20938 135.59479 307.475Q136.18854 307.725 136.92291 307.725Q137.56354 307.725 138.06354 307.5375Q138.56354 307.33438 138.79791 307.00626Q139.04791 306.6625 139.04791 306.27188Q139.04791 305.86563 138.81354 305.56876Q138.57916 305.25626 138.04791 305.05313Q137.68854 304.9125 136.50104 304.63126Q135.32916 304.35 134.86041 304.1Q134.23541 303.77188 133.93854 303.30313Q133.64166 302.81876 133.64166 302.225Q133.64166 301.58438 134.00104 301.02188Q134.37604 300.44376 135.07916 300.1625Q135.79791 299.86563 136.65729 299.86563Q137.61041 299.86563 138.34479 300.17813Q139.07916 300.475 139.46979 301.08438Q139.86041 301.67813 139.89166 302.42813L138.79791 302.50626Q138.70416 301.69376 138.18854 301.2875Q137.68854 300.86563 136.70416 300.86563Q135.67291 300.86563 135.20416 301.24063Q134.73541 301.61563 134.73541 302.14688Q134.73541 302.61563 135.06354 302.9125Q135.39166 303.20938 136.76666 303.52188Q138.15729 303.83438 138.67291 304.06876Q139.42291 304.42813 139.78229 304.95938Q140.14166 305.475 140.14166 306.17813Q140.14166 306.86563 139.75104 307.475Q139.36041 308.06876 138.62604 308.4125Q137.89166 308.74063 136.96979 308.74063Q135.79791 308.74063 135.00104 308.4125Q134.21979 308.06876 133.76666 307.38126Q133.32916 306.69376 133.31354 305.83438ZM141.56354 310.99063L141.56354 302.38126L142.51666 302.38126L142.51666 303.17813Q142.86041 302.70938 143.28229 302.475Q143.71979 302.24063 144.32916 302.24063Q145.12604 302.24063 145.73541 302.64688Q146.34479 303.05313 146.64166 303.80313Q146.95416 304.55313 146.95416 305.44376Q146.95416 306.39688 146.61041 307.1625Q146.28229 307.92813 145.62604 308.33438Q144.96979 308.74063 144.25104 308.74063Q143.71979 308.74063 143.29791 308.52188Q142.87604 308.2875 142.61041 307.95938L142.61041 310.99063L141.56354 310.99063ZM142.51666 305.52188Q142.51666 306.725 143.00104 307.30313Q143.48541 307.86563 144.17291 307.86563Q144.87604 307.86563 145.37604 307.27188Q145.87604 306.67813 145.87604 305.42813Q145.87604 304.24063 145.39166 303.6625Q144.90729 303.06876 144.21979 303.06876Q143.54791 303.06876 143.03229 303.69376Q142.51666 304.31876 142.51666 305.52188ZM148.54791 308.6L148.54791 302.38126L149.50104 302.38126L149.50104 303.31876Q149.86041 302.6625 150.15729 302.45938Q150.46979 302.24063 150.84479 302.24063Q151.37604 302.24063 151.92291 302.56876L151.56354 303.55313Q151.17291 303.31876 150.79791 303.31876Q150.43854 303.31876 150.15729 303.5375Q149.89166 303.74063 149.78229 304.11563Q149.59479 304.67813 149.59479 305.33438L149.59479 308.6L148.54791 308.6ZM152.56354 301.225L152.56354 300.00626L153.62604 300.00626L153.62604 301.225L152.56354 301.225ZM152.56354 308.6L152.56354 302.38126L153.62604 302.38126L153.62604 308.6L152.56354 308.6ZM155.56354 308.6L155.56354 302.38126L156.50104 302.38126L156.50104 303.25626Q157.18854 302.24063 158.48541 302.24063Q159.04791 302.24063 159.51666 302.44376Q160.00104 302.64688 160.23541 302.975Q160.46979 303.30313 160.56354 303.74063Q160.61041 304.0375 160.61041 304.77188L160.61041 308.6L159.56354 308.6L159.56354 304.81876Q159.56354 304.1625 159.43854 303.85Q159.31354 303.5375 159.00104 303.35Q158.68854 303.14688 158.26666 303.14688Q157.59479 303.14688 157.09479 303.58438Q156.61041 304.00626 156.61041 305.19376L156.61041 308.6L155.56354 308.6ZM164.86041 307.6625L165.01666 308.58438Q164.56354 308.67813 164.21979 308.67813Q163.64166 308.67813 163.32916 308.50626Q163.01666 308.31876 162.87604 308.02188Q162.75104 307.725 162.75104 306.77188L162.75104 303.19376L161.98541 303.19376L161.98541 302.38126L162.75104 302.38126L162.75104 300.83438L163.79791 300.20938L163.79791 302.38126L164.86041 302.38126L164.86041 303.19376L163.79791 303.19376L163.79791 306.83438Q163.79791 307.2875 163.84479 307.4125Q163.90729 307.5375 164.03229 307.61563Q164.15729 307.69376 164.39166 307.69376Q164.57916 307.69376 164.86041 307.6625ZM168.42291 306.61563L169.43854 306.52188Q169.56354 307.24063 169.92291 307.56876Q170.29791 307.88126 170.86041 307.88126Q171.34479 307.88126 171.70416 307.6625Q172.07916 307.42813 172.31354 307.06876Q172.54791 306.69376 172.70416 306.06876Q172.86041 305.42813 172.86041 304.77188Q172.86041 304.69376 172.86041 304.55313Q172.54791 305.05313 172.00104 305.38126Q171.45416 305.69376 170.81354 305.69376Q169.73541 305.69376 169.00104 304.92813Q168.26666 304.14688 168.26666 302.88126Q168.26666 301.56876 169.03229 300.77188Q169.81354 299.975 170.96979 299.975Q171.79791 299.975 172.48541 300.42813Q173.18854 300.88126 173.54791 301.725Q173.90729 302.55313 173.90729 304.13126Q173.90729 305.77188 173.54791 306.75626Q173.20416 307.725 172.48541 308.24063Q171.78229 308.74063 170.84479 308.74063Q169.82916 308.74063 169.18854 308.19376Q168.54791 307.63126 168.42291 306.61563ZM172.73541 302.81876Q172.73541 301.9125 172.25104 301.38126Q171.78229 300.85 171.09479 300.85Q170.39166 300.85 169.86041 301.42813Q169.34479 301.99063 169.34479 302.9125Q169.34479 303.725 169.84479 304.24063Q170.34479 304.75626 171.06354 304.75626Q171.79791 304.75626 172.26666 304.24063Q172.73541 303.725 172.73541 302.81876Z" fill-rule="nonzero"/><path fill="#000000" d="M274.54688 305.83438L275.60938 305.74063Q275.6875 306.39688 275.96875 306.80313Q276.25 307.20938 276.82812 307.475Q277.42188 307.725 278.15625 307.725Q278.79688 307.725 279.29688 307.5375Q279.79688 307.33438 280.03125 307.00626Q280.28125 306.6625 280.28125 306.27188Q280.28125 305.86563 280.04688 305.56876Q279.8125 305.25626 279.28125 305.05313Q278.92188 304.9125 277.73438 304.63126Q276.5625 304.35 276.09375 304.1Q275.46875 303.77188 275.17188 303.30313Q274.875 302.81876 274.875 302.225Q274.875 301.58438 275.23438 301.02188Q275.60938 300.44376 276.3125 300.1625Q277.03125 299.86563 277.89062 299.86563Q278.84375 299.86563 279.57812 300.17813Q280.3125 300.475 280.70312 301.08438Q281.09375 301.67813 281.125 302.42813L280.03125 302.50626Q279.9375 301.69376 279.42188 301.2875Q278.92188 300.86563 277.9375 300.86563Q276.90625 300.86563 276.4375 301.24063Q275.96875 301.61563 275.96875 302.14688Q275.96875 302.61563 276.29688 302.9125Q276.625 303.20938 278.0 303.52188Q279.39062 303.83438 279.90625 304.06876Q280.65625 304.42813 281.01562 304.95938Q281.375 305.475 281.375 306.17813Q281.375 306.86563 280.98438 307.475Q280.59375 308.06876 279.85938 308.4125Q279.125 308.74063 278.20312 308.74063Q277.03125 308.74063 276.23438 308.4125Q275.45312 308.06876 275.0 307.38126Q274.5625 306.69376 274.54688 305.83438ZM282.79688 310.99063L282.79688 302.38126L283.75 302.38126L283.75 303.17813Q284.09375 302.70938 284.51562 302.475Q284.95312 302.24063 285.5625 302.24063Q286.35938 302.24063 286.96875 302.64688Q287.57812 303.05313 287.875 303.80313Q288.1875 304.55313 288.1875 305.44376Q288.1875 306.39688 287.84375 307.1625Q287.51562 307.92813 286.85938 308.33438Q286.20312 308.74063 285.48438 308.74063Q284.95312 308.74063 284.53125 308.52188Q284.10938 308.2875 283.84375 307.95938L283.84375 310.99063L282.79688 310.99063ZM283.75 305.52188Q283.75 306.725 284.23438 307.30313Q284.71875 307.86563 285.40625 307.86563Q286.10938 307.86563 286.60938 307.27188Q287.10938 306.67813 287.10938 305.42813Q287.10938 304.24063 286.625 303.6625Q286.14062 303.06876 285.45312 303.06876Q284.78125 303.06876 284.26562 303.69376Q283.75 304.31876 283.75 305.52188ZM289.78125 308.6L289.78125 302.38126L290.73438 302.38126L290.73438 303.31876Q291.09375 302.6625 291.39062 302.45938Q291.70312 302.24063 292.07812 302.24063Q292.60938 302.24063 293.15625 302.56876L292.79688 303.55313Q292.40625 303.31876 292.03125 303.31876Q291.67188 303.31876 291.39062 303.5375Q291.125 303.74063 291.01562 304.11563Q290.82812 304.67813 290.82812 305.33438L290.82812 308.6L289.78125 308.6ZM293.79688 301.225L293.79688 300.00626L294.85938 300.00626L294.85938 301.225L293.79688 301.225ZM293.79688 308.6L293.79688 302.38126L294.85938 302.38126L294.85938 308.6L293.79688 308.6ZM296.79688 308.6L296.79688 302.38126L297.73438 302.38126L297.73438 303.25626Q298.42188 302.24063 299.71875 302.24063Q300.28125 302.24063 300.75 302.44376Q301.23438 302.64688 301.46875 302.975Q301.70312 303.30313 301.79688 303.74063Q301.84375 304.0375 301.84375 304.77188L301.84375 308.6L300.79688 308.6L300.79688 304.81876Q300.79688 304.1625 300.67188 303.85Q300.54688 303.5375 300.23438 303.35Q299.92188 303.14688 299.5 303.14688Q298.82812 303.14688 298.32812 303.58438Q297.84375 304.00626 297.84375 305.19376L297.84375 308.6L296.79688 308.6ZM306.09375 307.6625L306.25 308.58438Q305.79688 308.67813 305.45312 308.67813Q304.875 308.67813 304.5625 308.50626Q304.25 308.31876 304.10938 308.02188Q303.98438 307.725 303.98438 306.77188L303.98438 303.19376L303.21875 303.19376L303.21875 302.38126L303.98438 302.38126L303.98438 300.83438L305.03125 300.20938L305.03125 302.38126L306.09375 302.38126L306.09375 303.19376L305.03125 303.19376L305.03125 306.83438Q305.03125 307.2875 305.07812 307.4125Q305.14062 307.5375 305.26562 307.61563Q305.39062 307.69376 305.625 307.69376Q305.8125 307.69376 306.09375 307.6625ZM313.46875 308.6L312.42188 308.6L312.42188 301.88126Q312.03125 302.24063 311.40625 302.61563Q310.79688 302.975 310.3125 303.14688L310.3125 302.13126Q311.1875 301.70938 311.84375 301.13126Q312.51562 300.5375 312.79688 299.975L313.46875 299.975L313.46875 308.6ZM316.5 304.36563Q316.5 302.83438 316.8125 301.9125Q317.125 300.975 317.73438 300.475Q318.35938 299.975 319.29688 299.975Q319.98438 299.975 320.5 300.25626Q321.03125 300.5375 321.375 301.06876Q321.71875 301.58438 321.90625 302.33438Q322.09375 303.08438 322.09375 304.36563Q322.09375 305.88126 321.78125 306.80313Q321.48438 307.725 320.85938 308.24063Q320.25 308.74063 319.29688 308.74063Q318.0625 308.74063 317.34375 307.85Q316.5 306.7875 316.5 304.36563ZM317.57812 304.36563Q317.57812 306.475 318.07812 307.17813Q318.57812 307.88126 319.29688 307.88126Q320.03125 307.88126 320.51562 307.17813Q321.01562 306.475 321.01562 304.36563Q321.01562 302.24063 320.51562 301.55313Q320.03125 300.85 319.28125 300.85Q318.5625 300.85 318.125 301.45938Q317.57812 302.24063 317.57812 304.36563Z" fill-rule="nonzero"/><path fill="#000000" d="M419.2802 305.83438L420.3427 305.74063Q420.42084 306.39688 420.7021 306.80313Q420.98334 307.20938 421.56146 307.475Q422.1552 307.725 422.8896 307.725Q423.5302 307.725 424.0302 307.5375Q424.5302 307.33438 424.7646 307.00626Q425.0146 306.6625 425.0146 306.27188Q425.0146 305.86563 424.7802 305.56876Q424.54584 305.25626 424.0146 305.05313Q423.6552 304.9125 422.4677 304.63126Q421.29584 304.35 420.8271 304.1Q420.2021 303.77188 419.9052 303.30313Q419.60834 302.81876 419.60834 302.225Q419.60834 301.58438 419.9677 301.02188Q420.3427 300.44376 421.04584 300.1625Q421.7646 299.86563 422.62396 299.86563Q423.5771 299.86563 424.31146 300.17813Q425.04584 300.475 425.43646 301.08438Q425.8271 301.67813 425.85834 302.42813L424.7646 302.50626Q424.67084 301.69376 424.1552 301.2875Q423.6552 300.86563 422.67084 300.86563Q421.6396 300.86563 421.17084 301.24063Q420.7021 301.61563 420.7021 302.14688Q420.7021 302.61563 421.0302 302.9125Q421.35834 303.20938 422.73334 303.52188Q424.12396 303.83438 424.6396 304.06876Q425.3896 304.42813 425.74896 304.95938Q426.10834 305.475 426.10834 306.17813Q426.10834 306.86563 425.7177 307.475Q425.3271 308.06876 424.5927 308.4125Q423.85834 308.74063 422.93646 308.74063Q421.7646 308.74063 420.9677 308.4125Q420.18646 308.06876 419.73334 307.38126Q419.29584 306.69376 419.2802 305.83438ZM427.5302 310.99063L427.5302 302.38126L428.48334 302.38126L428.48334 303.17813Q428.8271 302.70938 429.24896 302.475Q429.68646 302.24063 430.29584 302.24063Q431.0927 302.24063 431.7021 302.64688Q432.31146 303.05313 432.60834 303.80313Q432.92084 304.55313 432.92084 305.44376Q432.92084 306.39688 432.5771 307.1625Q432.24896 307.92813 431.5927 308.33438Q430.93646 308.74063 430.2177 308.74063Q429.68646 308.74063 429.2646 308.52188Q428.8427 308.2875 428.5771 307.95938L428.5771 310.99063L427.5302 310.99063ZM428.48334 305.52188Q428.48334 306.725 428.9677 307.30313Q429.4521 307.86563 430.1396 307.86563Q430.8427 307.86563 431.3427 307.27188Q431.8427 306.67813 431.8427 305.42813Q431.8427 304.24063 431.35834 303.6625Q430.87396 303.06876 430.18646 303.06876Q429.5146 303.06876 428.99896 303.69376Q428.48334 304.31876 428.48334 305.52188ZM434.5146 308.6L434.5146 302.38126L435.4677 302.38126L435.4677 303.31876Q435.8271 302.6625 436.12396 302.45938Q436.43646 302.24063 436.81146 302.24063Q437.3427 302.24063 437.8896 302.56876L437.5302 303.55313Q437.1396 303.31876 436.7646 303.31876Q436.4052 303.31876 436.12396 303.5375Q435.85834 303.74063 435.74896 304.11563Q435.56146 304.67813 435.56146 305.33438L435.56146 308.6L434.5146 308.6ZM438.5302 301.225L438.5302 300.00626L439.5927 300.00626L439.5927 301.225L438.5302 301.225ZM438.5302 308.6L438.5302 302.38126L439.5927 302.38126L439.5927 308.6L438.5302 308.6ZM441.5302 308.6L441.5302 302.38126L442.4677 302.38126L442.4677 303.25626Q443.1552 302.24063 444.4521 302.24063Q445.0146 302.24063 445.48334 302.44376Q445.9677 302.64688 446.2021 302.975Q446.43646 303.30313 446.5302 303.74063Q446.5771 304.0375 446.5771 304.77188L446.5771 308.6L445.5302 308.6L445.5302 304.81876Q445.5302 304.1625 445.4052 303.85Q445.2802 303.5375 444.9677 303.35Q444.6552 303.14688 444.23334 303.14688Q443.56146 303.14688 443.06146 303.58438Q442.5771 304.00626 442.5771 305.19376L442.5771 308.6L441.5302 308.6ZM450.8271 307.6625L450.98334 308.58438Q450.5302 308.67813 450.18646 308.67813Q449.60834 308.67813 449.29584 308.50626Q448.98334 308.31876 448.8427 308.02188Q448.7177 307.725 448.7177 306.77188L448.7177 303.19376L447.9521 303.19376L447.9521 302.38126L448.7177 302.38126L448.7177 300.83438L449.7646 300.20938L449.7646 302.38126L450.8271 302.38126L450.8271 303.19376L449.7646 303.19376L449.7646 306.83438Q449.7646 307.2875 449.81146 307.4125Q449.87396 307.5375 449.99896 307.61563Q450.12396 307.69376 450.35834 307.69376Q450.54584 307.69376 450.8271 307.6625ZM458.2021 308.6L457.1552 308.6L457.1552 301.88126Q456.7646 302.24063 456.1396 302.61563Q455.5302 302.975 455.04584 303.14688L455.04584 302.13126Q455.92084 301.70938 456.5771 301.13126Q457.24896 300.5375 457.5302 299.975L458.2021 299.975L458.2021 308.6ZM465.2021 308.6L464.1552 308.6L464.1552 301.88126Q463.7646 302.24063 463.1396 302.61563Q462.5302 302.975 462.04584 303.14688L462.04584 302.13126Q462.92084 301.70938 463.5771 301.13126Q464.24896 300.5375 464.5302 299.975L465.2021 299.975L465.2021 308.6Z" fill-rule="nonzero"/><path fill="#4285f4" d="M136.0 23.4C136.0 26.713709 133.3137 29.4 130.0 29.4C126.686295 29.4 124.0 26.713709 124.0 23.4C124.0 20.086292 126.686295 17.4 130.0 17.4C133.3137 17.4 136.0 20.086292 136.0 23.4Z" fill-rule="nonzero"/><path fill="#1a1a1a" d="M147.375 27.4L144.04688 18.80625L145.28125 18.80625L147.51562 25.05625Q147.78125 25.80625 147.96875 26.4625Q148.17188 25.759375 148.4375 25.05625L150.75 18.80625L151.90625 18.80625L148.54688 27.4L147.375 27.4ZM155.85938 26.634375Q155.26562 27.134375 154.71875 27.3375Q154.1875 27.540625 153.5625 27.540625Q152.53125 27.540625 151.98438 27.040625Q151.4375 26.540625 151.4375 25.759375Q151.4375 25.30625 151.64062 24.93125Q151.84375 24.540625 152.1875 24.321875Q152.53125 24.0875 152.95312 23.978125Q153.25 23.884375 153.89062 23.80625Q155.15625 23.665625 155.76562 23.446875Q155.76562 23.228125 155.76562 23.18125Q155.76562 22.525 155.46875 22.259375Q155.0625 21.915625 154.26562 21.915625Q153.53125 21.915625 153.17188 22.18125Q152.8125 22.43125 152.64062 23.0875L151.60938 22.946875Q151.75 22.290625 152.07812 21.884375Q152.40625 21.478125 153.01562 21.259375Q153.625 21.040625 154.42188 21.040625Q155.21875 21.040625 155.71875 21.228125Q156.21875 21.415625 156.45312 21.696875Q156.6875 21.978125 156.78125 22.415625Q156.82812 22.68125 156.82812 23.384375L156.82812 24.790625Q156.82812 26.259375 156.89062 26.65Q156.96875 27.040625 157.17188 27.4L156.0625 27.4Q155.90625 27.071875 155.85938 26.634375ZM155.76562 24.275Q155.1875 24.509375 154.04688 24.68125Q153.39062 24.775 153.125 24.9Q152.85938 25.009375 152.70312 25.228125Q152.5625 25.446875 152.5625 25.728125Q152.5625 26.15 152.875 26.43125Q153.20312 26.7125 153.8125 26.7125Q154.42188 26.7125 154.89062 26.446875Q155.375 26.18125 155.59375 25.7125Q155.76562 25.353125 155.76562 24.665625L155.76562 24.275ZM158.76562 27.4L158.76562 18.80625L159.82812 18.80625L159.82812 27.4L158.76562 27.4ZM161.40625 24.290625Q161.40625 22.55625 162.35938 21.728125Q163.15625 21.040625 164.3125 21.040625Q165.59375 21.040625 166.40625 21.884375Q167.23438 22.7125 167.23438 24.196875Q167.23438 25.4 166.875 26.0875Q166.51562 26.775 165.8125 27.165625Q165.125 27.540625 164.3125 27.540625Q163.01562 27.540625 162.20312 26.7125Q161.40625 25.86875 161.40625 24.290625ZM162.48438 24.290625Q162.48438 25.478125 163.0 26.071875Q163.53125 26.665625 164.3125 26.665625Q165.10938 26.665625 165.625 26.071875Q166.14062 25.478125 166.14062 24.259375Q166.14062 23.103125 165.60938 22.509375Q165.09375 21.915625 164.3125 21.915625Q163.53125 21.915625 163.0 22.509375Q162.48438 23.0875 162.48438 24.290625ZM168.78125 27.4L168.78125 21.18125L169.73438 21.18125L169.73438 22.11875Q170.09375 21.4625 170.39062 21.259375Q170.70312 21.040625 171.07812 21.040625Q171.60938 21.040625 172.15625 21.36875L171.79688 22.353125Q171.40625 22.11875 171.03125 22.11875Q170.67188 22.11875 170.39062 22.3375Q170.125 22.540625 170.01562 22.915625Q169.82812 23.478125 169.82812 24.134375L169.82812 27.4L168.78125 27.4ZM177.04688 25.4L178.14062 25.525Q177.89062 26.478125 177.1875 27.009375Q176.48438 27.540625 175.40625 27.540625Q174.04688 27.540625 173.23438 26.696875Q172.4375 25.853125 172.4375 24.3375Q172.4375 22.775 173.25 21.915625Q174.0625 21.040625 175.34375 21.040625Q176.59375 21.040625 177.375 21.884375Q178.17188 22.728125 178.17188 24.275Q178.17188 24.36875 178.17188 24.55625L173.53125 24.55625Q173.59375 25.5875 174.10938 26.134375Q174.625 26.665625 175.40625 26.665625Q175.98438 26.665625 176.39062 26.36875Q176.8125 26.05625 177.04688 25.4ZM173.59375 23.696875L177.0625 23.696875Q177.0 22.9 176.67188 22.509375Q176.15625 21.9 175.35938 21.9Q174.625 21.9 174.125 22.384375Q173.64062 22.86875 173.59375 23.696875ZM182.40625 24.290625Q182.40625 22.55625 183.35938 21.728125Q184.15625 21.040625 185.3125 21.040625Q186.59375 21.040625 187.40625 21.884375Q188.23438 22.7125 188.23438 24.196875Q188.23438 25.4 187.875 26.0875Q187.51562 26.775 186.8125 27.165625Q186.125 27.540625 185.3125 27.540625Q184.01562 27.540625 183.20312 26.7125Q182.40625 25.86875 182.40625 24.290625ZM183.48438 24.290625Q183.48438 25.478125 184.0 26.071875Q184.53125 26.665625 185.3125 26.665625Q186.10938 26.665625 186.625 26.071875Q187.14062 25.478125 187.14062 24.259375Q187.14062 23.103125 186.60938 22.509375Q186.09375 21.915625 185.3125 21.915625Q184.53125 21.915625 184.0 22.509375Q183.48438 23.0875 183.48438 24.290625ZM192.09375 26.4625L192.25 27.384375Q191.79688 27.478125 191.45312 27.478125Q190.875 27.478125 190.5625 27.30625Q190.25 27.11875 190.10938 26.821875Q189.98438 26.525 189.98438 25.571875L189.98438 21.99375L189.21875 21.99375L189.21875 21.18125L189.98438 21.18125L189.98438 19.634375L191.03125 19.009375L191.03125 21.18125L192.09375 21.18125L192.09375 21.99375L191.03125 21.99375L191.03125 25.634375Q191.03125 26.0875 191.07812 26.2125Q191.14062 26.3375 191.26562 26.415625Q191.39062 26.49375 191.625 26.49375Q191.8125 26.49375 192.09375 26.4625ZM195.09375 26.4625L195.25 27.384375Q194.79688 27.478125 194.45312 27.478125Q193.875 27.478125 193.5625 27.30625Q193.25 27.11875 193.10938 26.821875Q192.98438 26.525 192.98438 25.571875L192.98438 21.99375L192.21875 21.99375L192.21875 21.18125L192.98438 21.18125L192.98438 19.634375L194.03125 19.009375L194.03125 21.18125L195.09375 21.18125L195.09375 21.99375L194.03125 21.99375L194.03125 25.634375Q194.03125 26.0875 194.07812 26.2125Q194.14062 26.3375 194.26562 26.415625Q194.39062 26.49375 194.625 26.49375Q194.8125 26.49375 195.09375 26.4625ZM195.79688 20.025L195.79688 18.80625L196.85938 18.80625L196.85938 20.025L195.79688 20.025ZM195.79688 27.4L195.79688 21.18125L196.85938 21.18125L196.85938 27.4L195.79688 27.4ZM198.79688 27.4L198.79688 21.18125L199.73438 21.18125L199.73438 22.05625Q200.03125 21.5875 200.51562 21.321875Q201.0 21.040625 201.625 21.040625Q202.3125 21.040625 202.75 21.321875Q203.20312 21.603125 203.375 22.11875Q204.125 21.040625 205.29688 21.040625Q206.23438 21.040625 206.71875 21.55625Q207.21875 22.05625 207.21875 23.134375L207.21875 27.4L206.17188 27.4L206.17188 23.478125Q206.17188 22.853125 206.0625 22.571875Q205.96875 22.290625 205.70312 22.11875Q205.4375 21.946875 205.0625 21.946875Q204.40625 21.946875 203.96875 22.384375Q203.54688 22.821875 203.54688 23.790625L203.54688 27.4L202.48438 27.4L202.48438 23.353125Q202.48438 22.65 202.21875 22.30625Q201.96875 21.946875 201.39062 21.946875Q200.9375 21.946875 200.5625 22.18125Q200.1875 22.415625 200.01562 22.86875Q199.84375 23.321875 199.84375 24.165625L199.84375 27.4L198.79688 27.4ZM209.40625 24.290625Q209.40625 22.55625 210.35938 21.728125Q211.15625 21.040625 212.3125 21.040625Q213.59375 21.040625 214.40625 21.884375Q215.23438 22.7125 215.23438 24.196875Q215.23438 25.4 214.875 26.0875Q214.51562 26.775 213.8125 27.165625Q213.125 27.540625 212.3125 27.540625Q211.01562 27.540625 210.20312 26.7125Q209.40625 25.86875 209.40625 24.290625ZM210.48438 24.290625Q210.48438 25.478125 211.0 26.071875Q211.53125 26.665625 212.3125 26.665625Q213.10938 26.665625 213.625 26.071875Q214.14062 25.478125 214.14062 24.259375Q214.14062 23.103125 213.60938 22.509375Q213.09375 21.915625 212.3125 21.915625Q211.53125 21.915625 211.0 22.509375Q210.48438 23.0875 210.48438 24.290625Z" fill-rule="nonzero"/><path fill="#ea4335" d="M244.0 23.4C244.0 26.713709 241.3137 29.4 238.0 29.4C234.6863 29.4 232.0 26.713709 232.0 23.4C232.0 20.086292 234.6863 17.4 238.0 17.4C241.3137 17.4 244.0 20.086292 244.0 23.4Z" fill-rule="nonzero"/><path fill="#1a1a1a" d="M255.10938 27.4L255.10938 19.821875L252.28125 19.821875L252.28125 18.80625L259.09375 18.80625L259.09375 19.821875L256.25 19.821875L256.25 27.4L255.10938 27.4ZM259.54688 24.634375L260.60938 24.540625Q260.6875 25.196875 260.96875 25.603125Q261.25 26.009375 261.82812 26.275Q262.42188 26.525 263.15625 26.525Q263.79688 26.525 264.29688 26.3375Q264.79688 26.134375 265.03125 25.80625Q265.28125 25.4625 265.28125 25.071875Q265.28125 24.665625 265.04688 24.36875Q264.8125 24.05625 264.28125 23.853125Q263.92188 23.7125 262.73438 23.43125Q261.5625 23.15 261.09375 22.9Q260.46875 22.571875 260.17188 22.103125Q259.875 21.61875 259.875 21.025Q259.875 20.384375 260.23438 19.821875Q260.60938 19.24375 261.3125 18.9625Q262.03125 18.665625 262.89062 18.665625Q263.84375 18.665625 264.57812 18.978125Q265.3125 19.275 265.70312 19.884375Q266.09375 20.478125 266.125 21.228125L265.03125 21.30625Q264.9375 20.49375 264.42188 20.0875Q263.92188 19.665625 262.9375 19.665625Q261.90625 19.665625 261.4375 20.040625Q260.96875 20.415625 260.96875 20.946875Q260.96875 21.415625 261.29688 21.7125Q261.625 22.009375 263.0 22.321875Q264.39062 22.634375 264.90625 22.86875Q265.65625 23.228125 266.01562 23.759375Q266.375 24.275 266.375 24.978125Q266.375 25.665625 265.98438 26.275Q265.59375 26.86875 264.85938 27.2125Q264.125 27.540625 263.20312 27.540625Q262.03125 27.540625 261.23438 27.2125Q260.45312 26.86875 260.0 26.18125Q259.5625 25.49375 259.54688 24.634375ZM267.92188 27.4L267.92188 18.80625L271.17188 18.80625Q272.01562 18.80625 272.46875 18.884375Q273.10938 18.99375 273.53125 19.290625Q273.96875 19.5875 274.21875 20.11875Q274.48438 20.65 274.48438 21.290625Q274.48438 22.384375 273.78125 23.15Q273.09375 23.9 271.26562 23.9L269.0625 23.9L269.0625 27.4L267.92188 27.4ZM269.0625 22.9L271.28125 22.9Q272.39062 22.9 272.84375 22.49375Q273.3125 22.071875 273.3125 21.321875Q273.3125 20.790625 273.03125 20.415625Q272.76562 20.025 272.32812 19.9Q272.03125 19.821875 271.26562 19.821875L269.0625 19.821875L269.0625 22.9Z" fill-rule="nonzero"/><path fill="#fbbc04" fill-opacity="0.5019608" d="M303.0 23.4C303.0 26.713709 300.31372 29.4 297.0 29.4C293.68628 29.4 291.0 26.713709 291.0 23.4C291.0 20.086292 293.68628 17.4 297.0 17.4C300.31372 17.4 303.0 20.086292 303.0 23.4Z" fill-rule="nonzero"/><path fill="#1a1a1a" d="M314.375 27.4L311.04688 18.80625L312.28125 18.80625L314.51562 25.05625Q314.78125 25.80625 314.96875 26.4625Q315.17188 25.759375 315.4375 25.05625L317.75 18.80625L318.90625 18.80625L315.54688 27.4L314.375 27.4ZM322.85938 26.634375Q322.26562 27.134375 321.71875 27.3375Q321.1875 27.540625 320.5625 27.540625Q319.53125 27.540625 318.98438 27.040625Q318.4375 26.540625 318.4375 25.759375Q318.4375 25.30625 318.64062 24.93125Q318.84375 24.540625 319.1875 24.321875Q319.53125 24.0875 319.95312 23.978125Q320.25 23.884375 320.89062 23.80625Q322.15625 23.665625 322.76562 23.446875Q322.76562 23.228125 322.76562 23.18125Q322.76562 22.525 322.46875 22.259375Q322.0625 21.915625 321.26562 21.915625Q320.53125 21.915625 320.17188 22.18125Q319.8125 22.43125 319.64062 23.0875L318.60938 22.946875Q318.75 22.290625 319.07812 21.884375Q319.40625 21.478125 320.01562 21.259375Q320.625 21.040625 321.42188 21.040625Q322.21875 21.040625 322.71875 21.228125Q323.21875 21.415625 323.45312 21.696875Q323.6875 21.978125 323.78125 22.415625Q323.82812 22.68125 323.82812 23.384375L323.82812 24.790625Q323.82812 26.259375 323.89062 26.65Q323.96875 27.040625 324.17188 27.4L323.0625 27.4Q322.90625 27.071875 322.85938 26.634375ZM322.76562 24.275Q322.1875 24.509375 321.04688 24.68125Q320.39062 24.775 320.125 24.9Q319.85938 25.009375 319.70312 25.228125Q319.5625 25.446875 319.5625 25.728125Q319.5625 26.15 319.875 26.43125Q320.20312 26.7125 320.8125 26.7125Q321.42188 26.7125 321.89062 26.446875Q322.375 26.18125 322.59375 25.7125Q322.76562 25.353125 322.76562 24.665625L322.76562 24.275ZM325.76562 27.4L325.76562 18.80625L326.82812 18.80625L326.82812 27.4L325.76562 27.4ZM328.40625 24.290625Q328.40625 22.55625 329.35938 21.728125Q330.15625 21.040625 331.3125 21.040625Q332.59375 21.040625 333.40625 21.884375Q334.23438 22.7125 334.23438 24.196875Q334.23438 25.4 333.875 26.0875Q333.51562 26.775 332.8125 27.165625Q332.125 27.540625 331.3125 27.540625Q330.01562 27.540625 329.20312 26.7125Q328.40625 25.86875 328.40625 24.290625ZM329.48438 24.290625Q329.48438 25.478125 330.0 26.071875Q330.53125 26.665625 331.3125 26.665625Q332.10938 26.665625 332.625 26.071875Q333.14062 25.478125 333.14062 24.259375Q333.14062 23.103125 332.60938 22.509375Q332.09375 21.915625 331.3125 21.915625Q330.53125 21.915625 330.0 22.509375Q329.48438 23.0875 329.48438 24.290625ZM335.78125 27.4L335.78125 21.18125L336.73438 21.18125L336.73438 22.11875Q337.09375 21.4625 337.39062 21.259375Q337.70312 21.040625 338.07812 21.040625Q338.60938 21.040625 339.15625 21.36875L338.79688 22.353125Q338.40625 22.11875 338.03125 22.11875Q337.67188 22.11875 337.39062 22.3375Q337.125 22.540625 337.01562 22.915625Q336.82812 23.478125 336.82812 24.134375L336.82812 27.4L335.78125 27.4ZM344.04688 25.4L345.14062 25.525Q344.89062 26.478125 344.1875 27.009375Q343.48438 27.540625 342.40625 27.540625Q341.04688 27.540625 340.23438 26.696875Q339.4375 25.853125 339.4375 24.3375Q339.4375 22.775 340.25 21.915625Q341.0625 21.040625 342.34375 21.040625Q343.59375 21.040625 344.375 21.884375Q345.17188 22.728125 345.17188 24.275Q345.17188 24.36875 345.17188 24.55625L340.53125 24.55625Q340.59375 25.5875 341.10938 26.134375Q341.625 26.665625 342.40625 26.665625Q342.98438 26.665625 343.39062 26.36875Q343.8125 26.05625 344.04688 25.4ZM340.59375 23.696875L344.0625 23.696875Q344.0 22.9 343.67188 22.509375Q343.15625 21.9 342.35938 21.9Q341.625 21.9 341.125 22.384375Q340.64062 22.86875 340.59375 23.696875ZM353.85938 26.634375Q353.26562 27.134375 352.71875 27.3375Q352.1875 27.540625 351.5625 27.540625Q350.53125 27.540625 349.98438 27.040625Q349.4375 26.540625 349.4375 25.759375Q349.4375 25.30625 349.64062 24.93125Q349.84375 24.540625 350.1875 24.321875Q350.53125 24.0875 350.95312 23.978125Q351.25 23.884375 351.89062 23.80625Q353.15625 23.665625 353.76562 23.446875Q353.76562 23.228125 353.76562 23.18125Q353.76562 22.525 353.46875 22.259375Q353.0625 21.915625 352.26562 21.915625Q351.53125 21.915625 351.17188 22.18125Q350.8125 22.43125 350.64062 23.0875L349.60938 22.946875Q349.75 22.290625 350.07812 21.884375Q350.40625 21.478125 351.01562 21.259375Q351.625 21.040625 352.42188 21.040625Q353.21875 21.040625 353.71875 21.228125Q354.21875 21.415625 354.45312 21.696875Q354.6875 21.978125 354.78125 22.415625Q354.82812 22.68125 354.82812 23.384375L354.82812 24.790625Q354.82812 26.259375 354.89062 26.65Q354.96875 27.040625 355.17188 27.4L354.0625 27.4Q353.90625 27.071875 353.85938 26.634375ZM353.76562 24.275Q353.1875 24.509375 352.04688 24.68125Q351.39062 24.775 351.125 24.9Q350.85938 25.009375 350.70312 25.228125Q350.5625 25.446875 350.5625 25.728125Q350.5625 26.15 350.875 26.43125Q351.20312 26.7125 351.8125 26.7125Q352.42188 26.7125 352.89062 26.446875Q353.375 26.18125 353.59375 25.7125Q353.76562 25.353125 353.76562 24.665625L353.76562 24.275ZM360.85938 25.11875L361.89062 25.259375Q361.71875 26.321875 361.01562 26.93125Q360.3125 27.540625 359.29688 27.540625Q358.01562 27.540625 357.23438 26.7125Q356.46875 25.86875 356.46875 24.30625Q356.46875 23.30625 356.79688 22.55625Q357.14062 21.790625 357.8125 21.415625Q358.5 21.040625 359.3125 21.040625Q360.3125 21.040625 360.95312 21.55625Q361.60938 22.05625 361.79688 23.009375L360.76562 23.165625Q360.625 22.540625 360.25 22.228125Q359.875 21.9 359.34375 21.9Q358.54688 21.9 358.04688 22.478125Q357.54688 23.040625 357.54688 24.275Q357.54688 25.540625 358.03125 26.103125Q358.51562 26.665625 359.28125 26.665625Q359.90625 26.665625 360.3125 26.290625Q360.73438 25.915625 360.85938 25.11875ZM366.85938 25.11875L367.89062 25.259375Q367.71875 26.321875 367.01562 26.93125Q366.3125 27.540625 365.29688 27.540625Q364.01562 27.540625 363.23438 26.7125Q362.46875 25.86875 362.46875 24.30625Q362.46875 23.30625 362.79688 22.55625Q363.14062 21.790625 363.8125 21.415625Q364.5 21.040625 365.3125 21.040625Q366.3125 21.040625 366.95312 21.55625Q367.60938 22.05625 367.79688 23.009375L366.76562 23.165625Q366.625 22.540625 366.25 22.228125Q365.875 21.9 365.34375 21.9Q364.54688 21.9 364.04688 22.478125Q363.54688 23.040625 363.54688 24.275Q363.54688 25.540625 364.03125 26.103125Q364.51562 26.665625 365.28125 26.665625Q365.90625 26.665625 366.3125 26.290625Q366.73438 25.915625 366.85938 25.11875ZM373.04688 25.4L374.14062 25.525Q373.89062 26.478125 373.1875 27.009375Q372.48438 27.540625 371.40625 27.540625Q370.04688 27.540625 369.23438 26.696875Q368.4375 25.853125 368.4375 24.3375Q368.4375 22.775 369.25 21.915625Q370.0625 21.040625 371.34375 21.040625Q372.59375 21.040625 373.375 21.884375Q374.17188 22.728125 374.17188 24.275Q374.17188 24.36875 374.17188 24.55625L369.53125 24.55625Q369.59375 25.5875 370.10938 26.134375Q370.625 26.665625 371.40625 26.665625Q371.98438 26.665625 372.39062 26.36875Q372.8125 26.05625 373.04688 25.4ZM369.59375 23.696875L373.0625 23.696875Q373.0 22.9 372.67188 22.509375Q372.15625 21.9 371.35938 21.9Q370.625 21.9 370.125 22.384375Q369.64062 22.86875 369.59375 23.696875ZM378.09375 26.4625L378.25 27.384375Q377.79688 27.478125 377.45312 27.478125Q376.875 27.478125 376.5625 27.30625Q376.25 27.11875 376.10938 26.821875Q375.98438 26.525 375.98438 25.571875L375.98438 21.99375L375.21875 21.99375L375.21875 21.18125L375.98438 21.18125L375.98438 19.634375L377.03125 19.009375L377.03125 21.18125L378.09375 21.18125L378.09375 21.99375L377.03125 21.99375L377.03125 25.634375Q377.03125 26.0875 377.07812 26.2125Q377.14062 26.3375 377.26562 26.415625Q377.39062 26.49375 377.625 26.49375Q377.8125 26.49375 378.09375 26.4625ZM381.09375 26.4625L381.25 27.384375Q380.79688 27.478125 380.45312 27.478125Q379.875 27.478125 379.5625 27.30625Q379.25 27.11875 379.10938 26.821875Q378.98438 26.525 378.98438 25.571875L378.98438 21.99375L378.21875 21.99375L378.21875 21.18125L378.98438 21.18125L378.98438 19.634375L380.03125 19.009375L380.03125 21.18125L381.09375 21.18125L381.09375 21.99375L380.03125 21.99375L380.03125 25.634375Q380.03125 26.0875 380.07812 26.2125Q380.14062 26.3375 380.26562 26.415625Q380.39062 26.49375 380.625 26.49375Q380.8125 26.49375 381.09375 26.4625ZM385.85938 26.634375Q385.26562 27.134375 384.71875 27.3375Q384.1875 27.540625 383.5625 27.540625Q382.53125 27.540625 381.98438 27.040625Q381.4375 26.540625 381.4375 25.759375Q381.4375 25.30625 381.64062 24.93125Q381.84375 24.540625 382.1875 24.321875Q382.53125 24.0875 382.95312 23.978125Q383.25 23.884375 383.89062 23.80625Q385.15625 23.665625 385.76562 23.446875Q385.76562 23.228125 385.76562 23.18125Q385.76562 22.525 385.46875 22.259375Q385.0625 21.915625 384.26562 21.915625Q383.53125 21.915625 383.17188 22.18125Q382.8125 22.43125 382.64062 23.0875L381.60938 22.946875Q381.75 22.290625 382.07812 21.884375Q382.40625 21.478125 383.01562 21.259375Q383.625 21.040625 384.42188 21.040625Q385.21875 21.040625 385.71875 21.228125Q386.21875 21.415625 386.45312 21.696875Q386.6875 21.978125 386.78125 22.415625Q386.82812 22.68125 386.82812 23.384375L386.82812 24.790625Q386.82812 26.259375 386.89062 26.65Q386.96875 27.040625 387.17188 27.4L386.0625 27.4Q385.90625 27.071875 385.85938 26.634375ZM385.76562 24.275Q385.1875 24.509375 384.04688 24.68125Q383.39062 24.775 383.125 24.9Q382.85938 25.009375 382.70312 25.228125Q382.5625 25.446875 382.5625 25.728125Q382.5625 26.15 382.875 26.43125Q383.20312 26.7125 383.8125 26.7125Q384.42188 26.7125 384.89062 26.446875Q385.375 26.18125 385.59375 25.7125Q385.76562 25.353125 385.76562 24.665625L385.76562 24.275ZM389.76562 27.4L388.78125 27.4L388.78125 18.80625L389.84375 18.80625L389.84375 21.86875Q390.51562 21.040625 391.54688 21.040625Q392.125 21.040625 392.625 21.275Q393.14062 21.49375 393.46875 21.915625Q393.8125 22.3375 394.0 22.93125Q394.1875 23.525 394.1875 24.196875Q394.1875 25.790625 393.39062 26.665625Q392.59375 27.540625 391.5 27.540625Q390.39062 27.540625 389.76562 26.61875L389.76562 27.4ZM389.75 24.24375Q389.75 25.353125 390.0625 25.853125Q390.5625 26.665625 391.40625 26.665625Q392.09375 26.665625 392.59375 26.071875Q393.10938 25.478125 393.10938 24.275Q393.10938 23.05625 392.625 22.478125Q392.14062 21.9 391.45312 21.9Q390.76562 21.9 390.25 22.509375Q389.75 23.103125 389.75 24.24375ZM395.79688 20.025L395.79688 18.80625L396.85938 18.80625L396.85938 20.025L395.79688 20.025ZM395.79688 27.4L395.79688 21.18125L396.85938 21.18125L396.85938 27.4L395.79688 27.4ZM398.76562 27.4L398.76562 18.80625L399.82812 18.80625L399.82812 27.4L398.76562 27.4ZM406.04688 25.4L407.14062 25.525Q406.89062 26.478125 406.1875 27.009375Q405.48438 27.540625 404.40625 27.540625Q403.04688 27.540625 402.23438 26.696875Q401.4375 25.853125 401.4375 24.3375Q401.4375 22.775 402.25 21.915625Q403.0625 21.040625 404.34375 21.040625Q405.59375 21.040625 406.375 21.884375Q407.17188 22.728125 407.17188 24.275Q407.17188 24.36875 407.17188 24.55625L402.53125 24.55625Q402.59375 25.5875 403.10938 26.134375Q403.625 26.665625 404.40625 26.665625Q404.98438 26.665625 405.39062 26.36875Q405.8125 26.05625 406.04688 25.4ZM402.59375 23.696875L406.0625 23.696875Q406.0 22.9 405.67188 22.509375Q405.15625 21.9 404.35938 21.9Q403.625 21.9 403.125 22.384375Q402.64062 22.86875 402.59375 23.696875Z" fill-rule="nonzero"/></svg>