<svg version="1.1" viewBox="0.0 0.0 297.0 183.0" fill="none" stroke="none" stroke-linecap="square" stroke-miterlimit="10" width="297" height="183" xmlns:xlink="http://www.w3.org/1999/xlink" xmlns="http://www.w3.org/2000/svg"><path fill="rgba(0, 255, 255, 0)" d="M0 0L297.0 0L297.0 183.0L0 183.0L0 0Z" fill-rule="nonzero"/><path fill="#ff0000ff" d="M148.5 9.15C193.98065 9.15 230.85 46.019352 230.85 91.5C230.85 136.98065 193.98065 173.85 148.5 173.85C103.01935 173.85 66.15 136.98065 66.15 91.5C66.15 46.019352 103.01935 9.15 148.5 9.15L148.5 91.5Z" fill-rule="nonzero"/><path fill="#000000ff" d="M129.71875 96.5L128.48438 96.5L128.48438 88.65625Q128.04688 89.078125 127.3125 89.515625Q126.59375 89.9375 126.03125 90.140625L126.03125 88.953125Q127.0625 88.46875 127.828125 87.78125Q128.60938 87.09375 128.92188 86.4375L129.71875 86.4375L129.71875 96.5ZM133.07812 91.5625Q133.07812 89.78125 133.4375 88.703125Q133.8125 87.609375 134.53125 87.03125Q135.25 86.4375 136.34375 86.4375Q137.15625 86.4375 137.76562 86.765625Q138.375 87.09375 138.76562 87.703125Q139.17188 88.3125 139.39062 89.1875Q139.60938 90.0625 139.60938 91.5625Q139.60938 93.328125 139.25 94.40625Q138.89062 95.484375 138.17188 96.078125Q137.45312 96.671875 136.34375 96.671875Q134.90625 96.671875 134.07812 95.625Q133.07812 94.375 133.07812 91.5625ZM134.34375 91.5625Q134.34375 94.03125 134.92188 94.84375Q135.5 95.65625 136.34375 95.65625Q137.20312 95.65625 137.78125 94.84375Q138.35938 94.015625 138.35938 91.5625Q138.35938 89.078125 137.78125 88.265625Q137.20312 87.453125 136.32812 87.453125Q135.48438 87.453125 134.98438 88.171875Q134.34375 89.09375 134.34375 91.5625ZM141.07812 91.5625Q141.07812 89.78125 141.4375 88.703125Q141.8125 87.609375 142.53125 87.03125Q143.25 86.4375 144.34375 86.4375Q145.15625 86.4375 145.76562 86.765625Q146.375 87.09375 146.76562 87.703125Q147.17188 88.3125 147.39062 89.1875Q147.60938 90.0625 147.60938 91.5625Q147.60938 93.328125 147.25 94.40625Q146.89062 95.484375 146.17188 96.078125Q145.45312 96.671875 144.34375 96.671875Q142.90625 96.671875 142.07812 95.625Q141.07812 94.375 141.07812 91.5625ZM142.34375 91.5625Q142.34375 94.03125 142.92188 94.84375Q143.5 95.65625 144.34375 95.65625Q145.20312 95.65625 145.78125 94.84375Q146.35938 94.015625 146.35938 91.5625Q146.35938 89.078125 145.78125 88.265625Q145.20312 87.453125 144.32812 87.453125Q143.48438 87.453125 142.98438 88.171875Q142.34375 89.09375 142.34375 91.5625ZM149.76562 96.5L149.76562 95.09375L151.17188 95.09375L151.17188 96.5L149.76562 96.5ZM153.07812 91.5625Q153.07812 89.78125 153.4375 88.703125Q153.8125 87.609375 154.53125 87.03125Q155.25 86.4375 156.34375 86.4375Q157.15625 86.4375 157.76562 86.765625Q158.375 87.09375 158.76562 87.703125Q159.17188 88.3125 159.39062 89.1875Q159.60938 90.0625 159.60938 91.5625Q159.60938 93.328125 159.25 94.40625Q158.89062 95.484375 158.17188 96.078125Q157.45312 96.671875 156.34375 96.671875Q154.90625 96.671875 154.07812 95.625Q153.07812 94.375 153.07812 91.5625ZM154.34375 91.5625Q154.34375 94.03125 154.92188 94.84375Q155.5 95.65625 156.34375 95.65625Q157.20312 95.65625 157.78125 94.84375Q158.35938 94.015625 158.35938 91.5625Q158.35938 89.078125 157.78125 88.265625Q157.20312 87.453125 156.32812 87.453125Q155.48438 87.453125 154.98438 88.171875Q154.34375 89.09375 154.34375 91.5625ZM161.3125 88.890625Q161.3125 87.8125 161.84375 87.0625Q162.39062 86.3125 163.42188 86.3125Q164.35938 86.3125 164.96875 86.984375Q165.59375 87.65625 165.59375 88.953125Q165.59375 90.234375 164.96875 90.921875Q164.34375 91.609375 163.4375 91.609375Q162.53125 91.609375 161.92188 90.9375Q161.3125 90.25 161.3125 88.890625ZM163.45312 87.15625Q163.0 87.15625 162.6875 87.5625Q162.39062 87.953125 162.39062 89.0Q162.39062 89.96875 162.6875 90.359375Q163.0 90.75 163.45312 90.75Q163.92188 90.75 164.21875 90.359375Q164.53125 89.96875 164.53125 88.90625Q164.53125 87.9375 164.21875 87.546875Q163.90625 87.15625 163.45312 87.15625ZM163.45312 96.875L168.9375 86.3125L169.9375 86.3125L164.48438 96.875L163.45312 96.875ZM167.79688 94.140625Q167.79688 93.0625 168.32812 92.328125Q168.875 91.578125 169.90625 91.578125Q170.84375 91.578125 171.46875 92.25Q172.09375 92.921875 172.09375 94.21875Q172.09375 95.5 171.46875 96.1875Q170.84375 96.875 169.90625 96.875Q169.0 96.875 168.39062 96.203125Q167.79688 95.515625 167.79688 94.140625ZM169.9375 92.421875Q169.46875 92.421875 169.17188 92.828125Q168.875 93.21875 168.875 94.265625Q168.875 95.234375 169.17188 95.625Q169.48438 96.015625 169.9375 96.015625Q170.40625 96.015625 170.70312 95.625Q171.01562 95.234375 171.01562 94.171875Q171.01562 93.203125 170.70312 92.8125Q170.40625 92.421875 169.9375 92.421875Z" fill-rule="nonzero"/></svg>