<svg width="588" height="330" viewBox="0 0 588 330" fill="none" xmlns="http://www.w3.org/2000/svg">
<path d="M382.007 83.3133C382.003 80.5745 384.222 78.3521 386.961 78.3521H560.277C566.015 78.3521 570.789 82.7633 571.242 88.4838L575.144 137.765C575.305 139.797 573.7 141.534 571.662 141.534V141.534C569.826 141.534 568.309 140.112 568.143 138.284C567.155 127.394 565.142 118.966 562.102 113C558.767 106.329 554.197 101.512 548.391 98.548C542.586 95.5837 533.384 94.1016 520.784 94.1016H457.514C448.356 94.1016 443.208 104.639 448.838 111.863L506.026 185.253C509.227 189.36 509.109 195.149 505.743 199.123L439.771 277.024C433.718 284.172 438.798 295.133 448.166 295.133H519.857C537.151 295.133 550.368 292.353 559.508 286.795C568.01 281.625 574.535 271.219 579.083 255.577C579.665 253.578 581.696 252.345 583.722 252.824V252.824C585.645 253.28 586.904 255.125 586.627 257.082L577.708 320.136C576.941 325.562 572.296 329.595 566.817 329.595H386.89C384.195 329.595 382.01 327.41 382.01 324.715V324.715C382.01 323.559 382.42 322.441 383.167 321.56L472.941 215.615C476.312 211.637 476.427 205.839 473.217 201.731L383.058 86.3561C382.379 85.4871 382.009 84.4162 382.007 83.3133V83.3133Z" fill="black"/>
<path d="M442.62 23.785C446.477 23.785 449.358 24.9767 451.265 27.36C453.215 29.7 453.865 32.8417 453.215 36.785L449.64 57H446.325L449.9 36.785C450.42 33.7517 450.008 31.3467 448.665 29.57C447.322 27.7933 445.112 26.905 442.035 26.905C438.698 26.905 435.773 28.01 433.26 30.22C430.79 32.43 429.187 35.6367 428.45 39.84V39.775L425.395 57H422.145L427.865 24.5H431.115L430.14 30.155C433.217 25.9083 437.377 23.785 442.62 23.785ZM462.864 29.31L463.384 26.19H490.034L489.514 29.31H462.864ZM460.524 42.31L461.109 39.19H487.759L487.174 42.31H460.524ZM509.737 11.5H512.662L504.667 57H501.222L508.567 15.4L497.452 18.65L497.127 15.595L509.737 11.5ZM547.764 23.33C546.94 28.0967 544.124 31.52 539.314 33.6C541.567 34.6833 543.257 36.2433 544.384 38.28C545.51 40.3167 545.857 42.6133 545.424 45.17C544.687 49.2 542.737 52.2983 539.574 54.465C536.41 56.6317 532.575 57.715 528.069 57.715C523.822 57.715 520.442 56.5233 517.929 54.14C515.459 51.7133 514.592 48.5067 515.329 44.52C515.762 41.8767 516.867 39.6017 518.644 37.695C520.464 35.7883 522.717 34.3583 525.404 33.405C523.584 32.3217 522.219 30.87 521.309 29.05C520.442 27.1867 520.204 25.085 520.594 22.745C521.287 18.8883 523.107 15.9417 526.054 13.905C529.044 11.825 532.467 10.785 536.324 10.785C539.964 10.785 542.954 11.9333 545.294 14.23C547.634 16.4833 548.457 19.5167 547.764 23.33ZM532.619 31.975C535.609 31.975 538.165 31.1733 540.289 29.57C542.455 27.9667 543.799 25.8 544.319 23.07C544.795 20.2533 544.21 18.065 542.564 16.505C540.96 14.9017 538.707 14.1 535.804 14.1C532.857 14.1 530.279 14.9017 528.069 16.505C525.902 18.065 524.559 20.2533 524.039 23.07C523.562 25.8 524.147 27.9667 525.794 29.57C527.44 31.1733 529.715 31.975 532.619 31.975ZM541.914 44.845C542.434 41.8983 541.762 39.58 539.899 37.89C538.079 36.2 535.457 35.355 532.034 35.355C528.524 35.355 525.555 36.2 523.129 37.89C520.745 39.58 519.294 41.8983 518.774 44.845C518.21 47.835 518.839 50.175 520.659 51.865C522.479 53.555 525.144 54.4 528.654 54.4C532.207 54.4 535.175 53.555 537.559 51.865C539.942 50.175 541.394 47.835 541.914 44.845Z" fill="black"/>
<path d="M33.062 239.384C25.0925 239.384 18.4653 237.581 13.1803 233.973C7.97918 230.282 4.66557 225.165 3.23946 218.622L9.15362 215.602C10.1603 220.971 12.7189 225.207 16.8295 228.311C20.94 231.415 26.4347 232.967 33.3136 232.967C40.1086 232.967 45.6872 231.541 50.0495 228.688C54.4956 225.752 57.222 221.809 58.2286 216.86C58.8158 213.924 58.69 211.365 57.8511 209.184C57.0961 207.003 55.5022 205.116 53.0695 203.522C50.6367 201.844 48.4556 200.586 46.5261 199.747C44.6806 198.824 41.9122 197.691 38.2211 196.349C35.3689 195.342 32.9781 194.462 31.0486 193.707C29.1192 192.868 26.8961 191.693 24.3795 190.183C21.9467 188.589 20.0172 186.954 18.5911 185.276C17.2489 183.514 16.2003 181.291 15.4453 178.607C14.7742 175.922 14.7322 172.986 15.3195 169.798C16.6617 163.003 20.1011 157.76 25.6378 154.069C31.2583 150.378 37.55 148.532 44.5128 148.532C51.6433 148.532 57.4317 150.252 61.8778 153.692C66.3239 157.047 69.3859 161.451 71.0636 166.904L65.1495 169.924C62.0456 159.941 55.0408 154.95 44.1353 154.95C38.7664 154.95 33.9847 156.334 29.7903 159.102C25.6797 161.871 23.1211 165.646 22.1145 170.427C21.5272 173.364 21.6111 175.922 22.3661 178.103C23.205 180.284 24.7989 182.214 27.1478 183.892C29.5806 185.486 31.7617 186.744 33.6911 187.667C35.6206 188.506 38.3889 189.596 41.9961 190.938C45.0161 192.029 47.407 192.952 49.1686 193.707C51.0142 194.462 53.2372 195.636 55.8378 197.23C58.4384 198.824 60.3678 200.46 61.6261 202.137C62.9684 203.815 63.975 206.038 64.6461 208.807C65.4011 211.491 65.485 214.427 64.8978 217.615C63.4717 224.662 59.8645 230.072 54.0761 233.847C48.2878 237.539 41.2831 239.384 33.062 239.384ZM92.7522 149.917H99.4213L83.9438 238H77.2747L92.7522 149.917ZM196.887 196.978L196.258 200.25C194.245 211.407 188.792 220.719 179.9 228.185C171.091 235.651 160.479 239.384 148.064 239.384C134.306 239.384 123.736 234.812 116.354 225.668C108.972 216.524 106.413 205.451 108.678 192.448C110.859 179.949 116.899 169.505 126.798 161.116C136.697 152.727 148.064 148.532 160.899 148.532C169.372 148.532 176.628 150.462 182.668 154.321C188.708 158.096 193.364 163.255 196.635 169.798L190.721 172.944C184.681 160.948 174.657 154.95 160.647 154.95C149.322 154.95 139.381 158.641 130.825 166.023C122.268 173.406 117.067 182.549 115.221 193.455C113.376 204.528 115.473 213.882 121.513 221.516C127.637 229.15 136.571 232.967 148.315 232.967C158.466 232.967 167.19 230.156 174.489 224.536C181.871 218.831 186.695 211.743 188.96 203.27H151.587L152.72 196.978H196.887ZM301.556 149.917L286.078 238H279.409L292.999 160.361L251.348 213.84H250.216L226.937 159.228L213.095 238H206.426L221.903 149.917H229.831L252.229 202.389L292.999 149.917H301.556ZM367.447 238L362.917 215.602H318.75L306.167 238H298.868L348.572 149.917H355.619L374.242 238H367.447ZM322.273 209.31H361.533L351.089 158.096L322.273 209.31Z" fill="black"/>
</svg>
