<svg version="1.1" viewBox="0.0 0.0 532.0 328.0" fill="none" stroke="none" stroke-linecap="square" stroke-miterlimit="10" width="532" height="328" xmlns:xlink="http://www.w3.org/1999/xlink" xmlns="http://www.w3.org/2000/svg"><path fill="#ffffff" d="M0 0L532.0 0L532.0 328.0L0 328.0L0 0Z" fill-rule="nonzero"/><path stroke="#333333" stroke-width="1.0" stroke-linecap="butt" d="M81.5 285.5L515.5 285.5" fill-rule="nonzero"/><path stroke="#cccccc" stroke-width="1.0" stroke-linecap="butt" d="M81.5 246.5L515.5 246.5" fill-rule="nonzero"/><path stroke="#cccccc" stroke-width="1.0" stroke-linecap="butt" d="M81.5 206.5L515.5 206.5" fill-rule="nonzero"/><path stroke="#cccccc" stroke-width="1.0" stroke-linecap="butt" d="M81.5 166.5L515.5 166.5" fill-rule="nonzero"/><path stroke="#cccccc" stroke-width="1.0" stroke-linecap="butt" d="M81.5 127.5L515.5 127.5" fill-rule="nonzero"/><path stroke="#cccccc" stroke-width="1.0" stroke-linecap="butt" d="M81.5 87.5L515.5 87.5" fill-rule="nonzero"/><path stroke="#cccccc" stroke-width="1.0" stroke-linecap="butt" d="M81.5 48.5L515.5 48.5" fill-rule="nonzero"/><path stroke="#000000" stroke-width="1.0" stroke-linecap="butt" d="M515.5 285.5L81.5 285.5" fill-rule="nonzero"/><path stroke="#000000" stroke-width="1.0" stroke-linecap="butt" d="M81.5 285.5L81.5 48.5" fill-rule="nonzero"/><clipPath id="id_0"><path d="M81.4 48.333332L515.6 48.333332L515.6 285.6L81.4 285.6L81.4 48.333332Z" clip-rule="nonzero"/></clipPath><path stroke="#4285f4" stroke-width="4.0" stroke-linecap="butt" stroke-opacity="0.5019608" clip-path="url(#id_0)" d="M108.5375 285.6C108.5375 285.6 144.72084 285.6 162.8125 285.6C180.90416 285.6 198.99583 285.6 217.0875 285.6C235.17917 285.6 253.27083 285.6 271.3625 285.6C289.45416 285.6 307.54584 285.6 325.6375 285.6C343.72916 285.6 361.82083 285.6 379.9125 285.6C398.00418 285.6 416.09583 285.6 434.1875 285.6C452.27917 285.6 488.4625 285.6 488.4625 285.6" fill-rule="nonzero"/><path stroke="#ea4335" stroke-width="2.0" stroke-linecap="butt" clip-path="url(#id_0)" d="M108.5375 127.422226C108.5375 127.422226 144.72084 127.422226 162.8125 127.422226C180.90416 127.422226 198.99583 127.422226 217.0875 127.422226C235.17917 127.422226 253.27083 127.422226 271.3625 127.422226C289.45416 127.422226 307.54584 127.422226 325.6375 127.422226C343.72916 127.422226 361.82083 127.422226 379.9125 127.422226C398.00418 127.422226 416.09583 127.422226 434.1875 127.422226C452.27917 127.422226 488.4625 127.422226 488.4625 127.422226" fill-rule="nonzero"/><path stroke="#fbbc04" stroke-width="2.0" stroke-linecap="butt" stroke-opacity="0.5019608" clip-path="url(#id_0)" d="M108.5375 206.51111C108.5375 206.51111 144.72084 285.6 162.8125 285.6C180.90416 285.6 198.99583 206.51111 217.0875 206.51111C235.17917 206.51111 253.27083 272.41852 271.3625 285.6C289.45416 298.7815 307.54584 285.6 325.6375 285.6C343.72916 285.6 361.82083 285.6 379.9125 285.6C398.00418 285.6 416.09583 285.6 434.1875 285.6C452.27917 285.6 488.4625 285.6 488.4625 285.6" fill-rule="nonzero"/><path stroke="#34a853" stroke-width="2.0" stroke-linecap="butt" stroke-opacity="0.5019608" clip-path="url(#id_0)" d="M108.5375 285.6C108.5375 285.6 144.72084 298.7815 162.8125 285.6C180.90416 272.41852 198.99583 219.6926 217.0875 206.51111C235.17917 193.32964 253.27083 193.32964 271.3625 206.51111C289.45416 219.6926 307.54584 272.41852 325.6375 285.6C343.72916 298.7815 361.82083 285.6 379.9125 285.6C398.00418 285.6 416.09583 285.6 434.1875 285.6C452.27917 285.6 488.4625 285.6 488.4625 285.6" fill-rule="nonzero"/><path stroke="#ff6d01" stroke-width="2.0" stroke-linecap="butt" stroke-opacity="0.5019608" clip-path="url(#id_0)" d="M108.5375 285.6C108.5375 285.6 144.72084 298.7815 162.8125 285.6C180.90416 272.41852 198.99583 206.51111 217.0875 206.51111C235.17917 206.51111 253.27083 272.41852 271.3625 285.6C289.45416 298.7815 307.54584 298.7815 325.6375 285.6C343.72916 272.41852 361.82083 206.51111 379.9125 206.51111C398.00418 206.51111 416.09583 272.41852 434.1875 285.6C452.27917 298.7815 488.4625 285.6 488.4625 285.6" fill-rule="nonzero"/><path stroke="#46bdc6" stroke-width="2.0" stroke-linecap="butt" stroke-opacity="0.5019608" clip-path="url(#id_0)" d="M108.5375 285.6C108.5375 285.6 144.72084 219.6926 162.8125 206.51111C180.90416 193.32964 198.99583 193.32964 217.0875 206.51111C235.17917 219.6926 253.27083 272.41852 271.3625 285.6C289.45416 298.7815 307.54584 285.6 325.6375 285.6C343.72916 285.6 361.82083 285.6 379.9125 285.6C398.00418 285.6 416.09583 285.6 434.1875 285.6C452.27917 285.6 488.4625 285.6 488.4625 285.6" fill-rule="nonzero"/><path fill="#4285f4" fill-opacity="0.5019608" clip-path="url(#id_0)" d="M112.0375 285.6C112.0375 287.533 110.4705 289.1 108.5375 289.1C106.6045 289.1 105.0375 287.533 105.0375 285.6C105.0375 283.667 106.6045 282.1 108.5375 282.1C110.4705 282.1 112.0375 283.667 112.0375 285.6Z" fill-rule="nonzero"/><path fill="#4285f4" fill-opacity="0.5019608" clip-path="url(#id_0)" d="M166.3125 285.6C166.3125 287.533 164.7455 289.1 162.8125 289.1C160.8795 289.1 159.3125 287.533 159.3125 285.6C159.3125 283.667 160.8795 282.1 162.8125 282.1C164.7455 282.1 166.3125 283.667 166.3125 285.6Z" fill-rule="nonzero"/><path fill="#4285f4" fill-opacity="0.5019608" clip-path="url(#id_0)" d="M220.5875 285.6C220.5875 287.533 219.0205 289.1 217.0875 289.1C215.15451 289.1 213.5875 287.533 213.5875 285.6C213.5875 283.667 215.15451 282.1 217.0875 282.1C219.0205 282.1 220.5875 283.667 220.5875 285.6Z" fill-rule="nonzero"/><path fill="#4285f4" fill-opacity="0.5019608" clip-path="url(#id_0)" d="M274.8625 285.6C274.8625 287.533 273.2955 289.1 271.3625 289.1C269.4295 289.1 267.8625 287.533 267.8625 285.6C267.8625 283.667 269.4295 282.1 271.3625 282.1C273.2955 282.1 274.8625 283.667 274.8625 285.6Z" fill-rule="nonzero"/><path fill="#4285f4" fill-opacity="0.5019608" clip-path="url(#id_0)" d="M329.1375 285.6C329.1375 287.533 327.5705 289.1 325.6375 289.1C323.7045 289.1 322.1375 287.533 322.1375 285.6C322.1375 283.667 323.7045 282.1 325.6375 282.1C327.5705 282.1 329.1375 283.667 329.1375 285.6Z" fill-rule="nonzero"/><path fill="#4285f4" fill-opacity="0.5019608" clip-path="url(#id_0)" d="M383.4125 285.6C383.4125 287.533 381.8455 289.1 379.9125 289.1C377.9795 289.1 376.4125 287.533 376.4125 285.6C376.4125 283.667 377.9795 282.1 379.9125 282.1C381.8455 282.1 383.4125 283.667 383.4125 285.6Z" fill-rule="nonzero"/><path fill="#4285f4" fill-opacity="0.5019608" clip-path="url(#id_0)" d="M437.6875 285.6C437.6875 287.533 436.12048 289.1 434.1875 289.1C432.25452 289.1 430.6875 287.533 430.6875 285.6C430.6875 283.667 432.25452 282.1 434.1875 282.1C436.12048 282.1 437.6875 283.667 437.6875 285.6Z" fill-rule="nonzero"/><path fill="#4285f4" fill-opacity="0.5019608" clip-path="url(#id_0)" d="M491.9625 285.6C491.9625 287.533 490.3955 289.1 488.4625 289.1C486.5295 289.1 484.9625 287.533 484.9625 285.6C484.9625 283.667 486.5295 282.1 488.4625 282.1C490.3955 282.1 491.9625 283.667 491.9625 285.6Z" fill-rule="nonzero"/><path fill="#ea4335" clip-path="url(#id_0)" d="M112.0375 127.422226C112.0375 129.35522 110.4705 130.92223 108.5375 130.92223C106.6045 130.92223 105.0375 129.35522 105.0375 127.422226C105.0375 125.48923 106.6045 123.922226 108.5375 123.922226C110.4705 123.922226 112.0375 125.48923 112.0375 127.422226Z" fill-rule="nonzero"/><path fill="#ea4335" clip-path="url(#id_0)" d="M166.3125 127.422226C166.3125 129.35522 164.7455 130.92223 162.8125 130.92223C160.8795 130.92223 159.3125 129.35522 159.3125 127.422226C159.3125 125.48923 160.8795 123.922226 162.8125 123.922226C164.7455 123.922226 166.3125 125.48923 166.3125 127.422226Z" fill-rule="nonzero"/><path fill="#ea4335" clip-path="url(#id_0)" d="M220.5875 127.422226C220.5875 129.35522 219.0205 130.92223 217.0875 130.92223C215.15451 130.92223 213.5875 129.35522 213.5875 127.422226C213.5875 125.48923 215.15451 123.922226 217.0875 123.922226C219.0205 123.922226 220.5875 125.48923 220.5875 127.422226Z" fill-rule="nonzero"/><path fill="#ea4335" clip-path="url(#id_0)" d="M274.8625 127.422226C274.8625 129.35522 273.2955 130.92223 271.3625 130.92223C269.4295 130.92223 267.8625 129.35522 267.8625 127.422226C267.8625 125.48923 269.4295 123.922226 271.3625 123.922226C273.2955 123.922226 274.8625 125.48923 274.8625 127.422226Z" fill-rule="nonzero"/><path fill="#ea4335" clip-path="url(#id_0)" d="M329.1375 127.422226C329.1375 129.35522 327.5705 130.92223 325.6375 130.92223C323.7045 130.92223 322.1375 129.35522 322.1375 127.422226C322.1375 125.48923 323.7045 123.922226 325.6375 123.922226C327.5705 123.922226 329.1375 125.48923 329.1375 127.422226Z" fill-rule="nonzero"/><path fill="#ea4335" clip-path="url(#id_0)" d="M383.4125 127.422226C383.4125 129.35522 381.8455 130.92223 379.9125 130.92223C377.9795 130.92223 376.4125 129.35522 376.4125 127.422226C376.4125 125.48923 377.9795 123.922226 379.9125 123.922226C381.8455 123.922226 383.4125 125.48923 383.4125 127.422226Z" fill-rule="nonzero"/><path fill="#ea4335" clip-path="url(#id_0)" d="M437.6875 127.422226C437.6875 129.35522 436.12048 130.92223 434.1875 130.92223C432.25452 130.92223 430.6875 129.35522 430.6875 127.422226C430.6875 125.48923 432.25452 123.922226 434.1875 123.922226C436.12048 123.922226 437.6875 125.48923 437.6875 127.422226Z" fill-rule="nonzero"/><path fill="#ea4335" clip-path="url(#id_0)" d="M491.9625 127.422226C491.9625 129.35522 490.3955 130.92223 488.4625 130.92223C486.5295 130.92223 484.9625 129.35522 484.9625 127.422226C484.9625 125.48923 486.5295 123.922226 488.4625 123.922226C490.3955 123.922226 491.9625 125.48923 491.9625 127.422226Z" fill-rule="nonzero"/><path fill="#fbbc04" fill-opacity="0.5019608" clip-path="url(#id_0)" d="M112.0375 206.51111C112.0375 208.4441 110.4705 210.01111 108.5375 210.01111C106.6045 210.01111 105.0375 208.4441 105.0375 206.51111C105.0375 204.57811 106.6045 203.01111 108.5375 203.01111C110.4705 203.01111 112.0375 204.57811 112.0375 206.51111Z" fill-rule="nonzero"/><path fill="#fbbc04" fill-opacity="0.5019608" clip-path="url(#id_0)" d="M166.3125 285.6C166.3125 287.533 164.7455 289.1 162.8125 289.1C160.8795 289.1 159.3125 287.533 159.3125 285.6C159.3125 283.667 160.8795 282.1 162.8125 282.1C164.7455 282.1 166.3125 283.667 166.3125 285.6Z" fill-rule="nonzero"/><path fill="#fbbc04" fill-opacity="0.5019608" clip-path="url(#id_0)" d="M220.5875 206.51111C220.5875 208.4441 219.0205 210.01111 217.0875 210.01111C215.15451 210.01111 213.5875 208.4441 213.5875 206.51111C213.5875 204.57811 215.15451 203.01111 217.0875 203.01111C219.0205 203.01111 220.5875 204.57811 220.5875 206.51111Z" fill-rule="nonzero"/><path fill="#fbbc04" fill-opacity="0.5019608" clip-path="url(#id_0)" d="M274.8625 285.6C274.8625 287.533 273.2955 289.1 271.3625 289.1C269.4295 289.1 267.8625 287.533 267.8625 285.6C267.8625 283.667 269.4295 282.1 271.3625 282.1C273.2955 282.1 274.8625 283.667 274.8625 285.6Z" fill-rule="nonzero"/><path fill="#fbbc04" fill-opacity="0.5019608" clip-path="url(#id_0)" d="M329.1375 285.6C329.1375 287.533 327.5705 289.1 325.6375 289.1C323.7045 289.1 322.1375 287.533 322.1375 285.6C322.1375 283.667 323.7045 282.1 325.6375 282.1C327.5705 282.1 329.1375 283.667 329.1375 285.6Z" fill-rule="nonzero"/><path fill="#fbbc04" fill-opacity="0.5019608" clip-path="url(#id_0)" d="M383.4125 285.6C383.4125 287.533 381.8455 289.1 379.9125 289.1C377.9795 289.1 376.4125 287.533 376.4125 285.6C376.4125 283.667 377.9795 282.1 379.9125 282.1C381.8455 282.1 383.4125 283.667 383.4125 285.6Z" fill-rule="nonzero"/><path fill="#fbbc04" fill-opacity="0.5019608" clip-path="url(#id_0)" d="M437.6875 285.6C437.6875 287.533 436.12048 289.1 434.1875 289.1C432.25452 289.1 430.6875 287.533 430.6875 285.6C430.6875 283.667 432.25452 282.1 434.1875 282.1C436.12048 282.1 437.6875 283.667 437.6875 285.6Z" fill-rule="nonzero"/><path fill="#fbbc04" fill-opacity="0.5019608" clip-path="url(#id_0)" d="M491.9625 285.6C491.9625 287.533 490.3955 289.1 488.4625 289.1C486.5295 289.1 484.9625 287.533 484.9625 285.6C484.9625 283.667 486.5295 282.1 488.4625 282.1C490.3955 282.1 491.9625 283.667 491.9625 285.6Z" fill-rule="nonzero"/><path fill="#34a853" fill-opacity="0.5019608" clip-path="url(#id_0)" d="M112.0375 285.6C112.0375 287.533 110.4705 289.1 108.5375 289.1C106.6045 289.1 105.0375 287.533 105.0375 285.6C105.0375 283.667 106.6045 282.1 108.5375 282.1C110.4705 282.1 112.0375 283.667 112.0375 285.6Z" fill-rule="nonzero"/><path fill="#34a853" fill-opacity="0.5019608" clip-path="url(#id_0)" d="M166.3125 285.6C166.3125 287.533 164.7455 289.1 162.8125 289.1C160.8795 289.1 159.3125 287.533 159.3125 285.6C159.3125 283.667 160.8795 282.1 162.8125 282.1C164.7455 282.1 166.3125 283.667 166.3125 285.6Z" fill-rule="nonzero"/><path fill="#34a853" fill-opacity="0.5019608" clip-path="url(#id_0)" d="M220.5875 206.51111C220.5875 208.4441 219.0205 210.01111 217.0875 210.01111C215.15451 210.01111 213.5875 208.4441 213.5875 206.51111C213.5875 204.57811 215.15451 203.01111 217.0875 203.01111C219.0205 203.01111 220.5875 204.57811 220.5875 206.51111Z" fill-rule="nonzero"/><path fill="#34a853" fill-opacity="0.5019608" clip-path="url(#id_0)" d="M274.8625 206.51111C274.8625 208.4441 273.2955 210.01111 271.3625 210.01111C269.4295 210.01111 267.8625 208.4441 267.8625 206.51111C267.8625 204.57811 269.4295 203.01111 271.3625 203.01111C273.2955 203.01111 274.8625 204.57811 274.8625 206.51111Z" fill-rule="nonzero"/><path fill="#34a853" fill-opacity="0.5019608" clip-path="url(#id_0)" d="M329.1375 285.6C329.1375 287.533 327.5705 289.1 325.6375 289.1C323.7045 289.1 322.1375 287.533 322.1375 285.6C322.1375 283.667 323.7045 282.1 325.6375 282.1C327.5705 282.1 329.1375 283.667 329.1375 285.6Z" fill-rule="nonzero"/><path fill="#34a853" fill-opacity="0.5019608" clip-path="url(#id_0)" d="M383.4125 285.6C383.4125 287.533 381.8455 289.1 379.9125 289.1C377.9795 289.1 376.4125 287.533 376.4125 285.6C376.4125 283.667 377.9795 282.1 379.9125 282.1C381.8455 282.1 383.4125 283.667 383.4125 285.6Z" fill-rule="nonzero"/><path fill="#34a853" fill-opacity="0.5019608" clip-path="url(#id_0)" d="M437.6875 285.6C437.6875 287.533 436.12048 289.1 434.1875 289.1C432.25452 289.1 430.6875 287.533 430.6875 285.6C430.6875 283.667 432.25452 282.1 434.1875 282.1C436.12048 282.1 437.6875 283.667 437.6875 285.6Z" fill-rule="nonzero"/><path fill="#34a853" fill-opacity="0.5019608" clip-path="url(#id_0)" d="M491.9625 285.6C491.9625 287.533 490.3955 289.1 488.4625 289.1C486.5295 289.1 484.9625 287.533 484.9625 285.6C484.9625 283.667 486.5295 282.1 488.4625 282.1C490.3955 282.1 491.9625 283.667 491.9625 285.6Z" fill-rule="nonzero"/><path fill="#ff6d01" fill-opacity="0.5019608" clip-path="url(#id_0)" d="M112.0375 285.6C112.0375 287.533 110.4705 289.1 108.5375 289.1C106.6045 289.1 105.0375 287.533 105.0375 285.6C105.0375 283.667 106.6045 282.1 108.5375 282.1C110.4705 282.1 112.0375 283.667 112.0375 285.6Z" fill-rule="nonzero"/><path fill="#ff6d01" fill-opacity="0.5019608" clip-path="url(#id_0)" d="M166.3125 285.6C166.3125 287.533 164.7455 289.1 162.8125 289.1C160.8795 289.1 159.3125 287.533 159.3125 285.6C159.3125 283.667 160.8795 282.1 162.8125 282.1C164.7455 282.1 166.3125 283.667 166.3125 285.6Z" fill-rule="nonzero"/><path fill="#ff6d01" fill-opacity="0.5019608" clip-path="url(#id_0)" d="M220.5875 206.51111C220.5875 208.4441 219.0205 210.01111 217.0875 210.01111C215.15451 210.01111 213.5875 208.4441 213.5875 206.51111C213.5875 204.57811 215.15451 203.01111 217.0875 203.01111C219.0205 203.01111 220.5875 204.57811 220.5875 206.51111Z" fill-rule="nonzero"/><path fill="#ff6d01" fill-opacity="0.5019608" clip-path="url(#id_0)" d="M274.8625 285.6C274.8625 287.533 273.2955 289.1 271.3625 289.1C269.4295 289.1 267.8625 287.533 267.8625 285.6C267.8625 283.667 269.4295 282.1 271.3625 282.1C273.2955 282.1 274.8625 283.667 274.8625 285.6Z" fill-rule="nonzero"/><path fill="#ff6d01" fill-opacity="0.5019608" clip-path="url(#id_0)" d="M329.1375 285.6C329.1375 287.533 327.5705 289.1 325.6375 289.1C323.7045 289.1 322.1375 287.533 322.1375 285.6C322.1375 283.667 323.7045 282.1 325.6375 282.1C327.5705 282.1 329.1375 283.667 329.1375 285.6Z" fill-rule="nonzero"/><path fill="#ff6d01" fill-opacity="0.5019608" clip-path="url(#id_0)" d="M383.4125 206.51111C383.4125 208.4441 381.8455 210.01111 379.9125 210.01111C377.9795 210.01111 376.4125 208.4441 376.4125 206.51111C376.4125 204.57811 377.9795 203.01111 379.9125 203.01111C381.8455 203.01111 383.4125 204.57811 383.4125 206.51111Z" fill-rule="nonzero"/><path fill="#ff6d01" fill-opacity="0.5019608" clip-path="url(#id_0)" d="M437.6875 285.6C437.6875 287.533 436.12048 289.1 434.1875 289.1C432.25452 289.1 430.6875 287.533 430.6875 285.6C430.6875 283.667 432.25452 282.1 434.1875 282.1C436.12048 282.1 437.6875 283.667 437.6875 285.6Z" fill-rule="nonzero"/><path fill="#ff6d01" fill-opacity="0.5019608" clip-path="url(#id_0)" d="M491.9625 285.6C491.9625 287.533 490.3955 289.1 488.4625 289.1C486.5295 289.1 484.9625 287.533 484.9625 285.6C484.9625 283.667 486.5295 282.1 488.4625 282.1C490.3955 282.1 491.9625 283.667 491.9625 285.6Z" fill-rule="nonzero"/><path fill="#46bdc6" fill-opacity="0.5019608" clip-path="url(#id_0)" d="M112.0375 285.6C112.0375 287.533 110.4705 289.1 108.5375 289.1C106.6045 289.1 105.0375 287.533 105.0375 285.6C105.0375 283.667 106.6045 282.1 108.5375 282.1C110.4705 282.1 112.0375 283.667 112.0375 285.6Z" fill-rule="nonzero"/><path fill="#46bdc6" fill-opacity="0.5019608" clip-path="url(#id_0)" d="M166.3125 206.51111C166.3125 208.4441 164.7455 210.01111 162.8125 210.01111C160.8795 210.01111 159.3125 208.4441 159.3125 206.51111C159.3125 204.57811 160.8795 203.01111 162.8125 203.01111C164.7455 203.01111 166.3125 204.57811 166.3125 206.51111Z" fill-rule="nonzero"/><path fill="#46bdc6" fill-opacity="0.5019608" clip-path="url(#id_0)" d="M220.5875 206.51111C220.5875 208.4441 219.0205 210.01111 217.0875 210.01111C215.15451 210.01111 213.5875 208.4441 213.5875 206.51111C213.5875 204.57811 215.15451 203.01111 217.0875 203.01111C219.0205 203.01111 220.5875 204.57811 220.5875 206.51111Z" fill-rule="nonzero"/><path fill="#46bdc6" fill-opacity="0.5019608" clip-path="url(#id_0)" d="M274.8625 285.6C274.8625 287.533 273.2955 289.1 271.3625 289.1C269.4295 289.1 267.8625 287.533 267.8625 285.6C267.8625 283.667 269.4295 282.1 271.3625 282.1C273.2955 282.1 274.8625 283.667 274.8625 285.6Z" fill-rule="nonzero"/><path fill="#46bdc6" fill-opacity="0.5019608" clip-path="url(#id_0)" d="M329.1375 285.6C329.1375 287.533 327.5705 289.1 325.6375 289.1C323.7045 289.1 322.1375 287.533 322.1375 285.6C322.1375 283.667 323.7045 282.1 325.6375 282.1C327.5705 282.1 329.1375 283.667 329.1375 285.6Z" fill-rule="nonzero"/><path fill="#46bdc6" fill-opacity="0.5019608" clip-path="url(#id_0)" d="M383.4125 285.6C383.4125 287.533 381.8455 289.1 379.9125 289.1C377.9795 289.1 376.4125 287.533 376.4125 285.6C376.4125 283.667 377.9795 282.1 379.9125 282.1C381.8455 282.1 383.4125 283.667 383.4125 285.6Z" fill-rule="nonzero"/><path fill="#46bdc6" fill-opacity="0.5019608" clip-path="url(#id_0)" d="M437.6875 285.6C437.6875 287.533 436.12048 289.1 434.1875 289.1C432.25452 289.1 430.6875 287.533 430.6875 285.6C430.6875 283.667 432.25452 282.1 434.1875 282.1C436.12048 282.1 437.6875 283.667 437.6875 285.6Z" fill-rule="nonzero"/><path fill="#46bdc6" fill-opacity="0.5019608" clip-path="url(#id_0)" d="M491.9625 285.6C491.9625 287.533 490.3955 289.1 488.4625 289.1C486.5295 289.1 484.9625 287.533 484.9625 285.6C484.9625 283.667 486.5295 282.1 488.4625 282.1C490.3955 282.1 491.9625 283.667 491.9625 285.6Z" fill-rule="nonzero"/><path stroke="#000000" stroke-width="1.0" stroke-linecap="butt" d="M108.5 291.5L108.5 279.5" fill-rule="nonzero"/><path stroke="#000000" stroke-width="1.0" stroke-linecap="butt" d="M162.5 291.5L162.5 279.5" fill-rule="nonzero"/><path stroke="#000000" stroke-width="1.0" stroke-linecap="butt" d="M217.5 291.5L217.5 279.5" fill-rule="nonzero"/><path stroke="#000000" stroke-width="1.0" stroke-linecap="butt" d="M271.5 291.5L271.5 279.5" fill-rule="nonzero"/><path stroke="#000000" stroke-width="1.0" stroke-linecap="butt" d="M325.5 291.5L325.5 279.5" fill-rule="nonzero"/><path stroke="#000000" stroke-width="1.0" stroke-linecap="butt" d="M379.5 291.5L379.5 279.5" fill-rule="nonzero"/><path stroke="#000000" stroke-width="1.0" stroke-linecap="butt" d="M434.5 291.5L434.5 279.5" fill-rule="nonzero"/><path stroke="#000000" stroke-width="1.0" stroke-linecap="butt" d="M488.5 291.5L488.5 279.5" fill-rule="nonzero"/><path stroke="#000000" stroke-width="1.0" stroke-linecap="butt" d="M75.5 285.5L87.5 285.5" fill-rule="nonzero"/><path stroke="#000000" stroke-width="1.0" stroke-linecap="butt" d="M75.5 246.5L87.5 246.5" fill-rule="nonzero"/><path stroke="#000000" stroke-width="1.0" stroke-linecap="butt" d="M75.5 206.5L87.5 206.5" fill-rule="nonzero"/><path stroke="#000000" stroke-width="1.0" stroke-linecap="butt" d="M75.5 166.5L87.5 166.5" fill-rule="nonzero"/><path stroke="#000000" stroke-width="1.0" stroke-linecap="butt" d="M75.5 127.5L87.5 127.5" fill-rule="nonzero"/><path stroke="#000000" stroke-width="1.0" stroke-linecap="butt" d="M75.5 87.5L87.5 87.5" fill-rule="nonzero"/><path stroke="#000000" stroke-width="1.0" stroke-linecap="butt" d="M75.5 48.5L87.5 48.5" fill-rule="nonzero"/><path fill="#000000" d="M62.9 285.36563Q62.9 283.83438 63.2125 282.9125Q63.525 281.975 64.13438 281.475Q64.75938 280.975 65.69688 280.975Q66.38438 280.975 66.9 281.25626Q67.43125 281.5375 67.775 282.06876Q68.11875 282.58438 68.30625 283.33438Q68.49375 284.08438 68.49375 285.36563Q68.49375 286.88126 68.18125 287.80313Q67.88438 288.725 67.25938 289.24063Q66.65 289.74063 65.69688 289.74063Q64.4625 289.74063 63.74375 288.85Q62.9 287.7875 62.9 285.36563ZM63.978127 285.36563Q63.978127 287.475 64.47813 288.17813Q64.97813 288.88126 65.69688 288.88126Q66.43125 288.88126 66.91563 288.17813Q67.41563 287.475 67.41563 285.36563Q67.41563 283.24063 66.91563 282.55313Q66.43125 281.85 65.68125 281.85Q64.9625 281.85 64.525 282.45938Q63.978127 283.24063 63.978127 285.36563Z" fill-rule="nonzero"/><path fill="#000000" d="M52.9 245.82118Q52.9 244.28993 53.2125 243.36806Q53.525 242.43056 54.134377 241.93056Q54.759377 241.43056 55.696877 241.43056Q56.384377 241.43056 56.9 241.7118Q57.43125 241.99306 57.775 242.5243Q58.11875 243.03993 58.30625 243.78993Q58.49375 244.53993 58.49375 245.82118Q58.49375 247.3368 58.18125 248.25868Q57.884377 249.18056 57.259377 249.69618Q56.65 250.19618 55.696877 250.19618Q54.4625 250.19618 53.74375 249.30556Q52.9 248.24306 52.9 245.82118ZM53.978127 245.82118Q53.978127 247.93056 54.478127 248.63368Q54.978127 249.3368 55.696877 249.3368Q56.43125 249.3368 56.915627 248.63368Q57.415627 247.93056 57.415627 245.82118Q57.415627 243.69618 56.915627 243.00868Q56.43125 242.30556 55.68125 242.30556Q54.9625 242.30556 54.525 242.91493Q53.978127 243.69618 53.978127 245.82118ZM60.49375 250.05556L60.49375 248.85243L61.696877 248.85243L61.696877 250.05556L60.49375 250.05556ZM62.9 247.80556L64.00938 247.7118Q64.13438 248.5243 64.57188 248.93056Q65.025 249.3368 65.66563 249.3368Q66.41563 249.3368 66.94688 248.75868Q67.47813 248.18056 67.47813 247.24306Q67.47813 246.3368 66.9625 245.82118Q66.4625 245.28993 65.63438 245.28993Q65.13438 245.28993 64.7125 245.5243Q64.30625 245.75868 64.07188 246.11806L63.0875 245.99306L63.915627 241.5868L68.19688 241.5868L68.19688 242.5868L64.75938 242.5868L64.30625 244.8993Q65.07188 244.35243 65.91563 244.35243Q67.04063 244.35243 67.80625 245.13368Q68.5875 245.91493 68.5875 247.1493Q68.5875 248.30556 67.91563 249.16493Q67.0875 250.19618 65.66563 250.19618Q64.49375 250.19618 63.74375 249.53993Q63.009377 248.88368 62.9 247.80556Z" fill-rule="nonzero"/><path fill="#000000" d="M66.86875 210.51111L65.82188 210.51111L65.82188 203.79236Q65.43125 204.15173 64.80625 204.52673Q64.19688 204.88611 63.7125 205.05798L63.7125 204.04236Q64.5875 203.62048 65.24375 203.04236Q65.91563 202.44861 66.19688 201.88611L66.86875 201.88611L66.86875 210.51111Z" fill-rule="nonzero"/><path fill="#000000" d="M56.86875 170.96666L55.821877 170.96666L55.821877 164.24791Q55.43125 164.60728 54.80625 164.98228Q54.196877 165.34166 53.7125 165.51353L53.7125 164.49791Q54.5875 164.07603 55.24375 163.49791Q55.915627 162.90416 56.196877 162.34166L56.86875 162.34166L56.86875 170.96666ZM60.49375 170.96666L60.49375 169.76353L61.696877 169.76353L61.696877 170.96666L60.49375 170.96666ZM62.9 168.71666L64.00938 168.62291Q64.13438 169.43541 64.57188 169.84166Q65.025 170.24791 65.66563 170.24791Q66.41563 170.24791 66.94688 169.66978Q67.47813 169.09166 67.47813 168.15416Q67.47813 167.24791 66.9625 166.73228Q66.4625 166.20103 65.63438 166.20103Q65.13438 166.20103 64.7125 166.43541Q64.30625 166.66978 64.07188 167.02916L63.0875 166.90416L63.915627 162.49791L68.19688 162.49791L68.19688 163.49791L64.75938 163.49791L64.30625 165.81041Q65.07188 165.26353 65.91563 165.26353Q67.04063 165.26353 67.80625 166.04478Q68.5875 166.82603 68.5875 168.06041Q68.5875 169.21666 67.91563 170.07603Q67.0875 171.10728 65.66563 171.10728Q64.49375 171.10728 63.74375 170.45103Q63.009377 169.79478 62.9 168.71666Z" fill-rule="nonzero"/><path fill="#000000" d="M68.44688 130.4066L68.44688 131.42223L62.759377 131.42223Q62.759377 131.04723 62.884377 130.68785Q63.103127 130.10973 63.571877 129.54723Q64.05625 128.98473 64.9625 128.25035Q66.36875 127.0941 66.85313 126.422226Q67.35313 125.75035 67.35313 125.1566Q67.35313 124.5316 66.9 124.109726Q66.44688 123.672226 65.72813 123.672226Q64.9625 123.672226 64.50938 124.12535Q64.05625 124.578476 64.04063 125.390976L62.9625 125.2816Q63.071877 124.06285 63.790627 123.43785Q64.525 122.797226 65.75938 122.797226Q66.99375 122.797226 67.7125 123.484726Q68.43125 124.172226 68.43125 125.18785Q68.43125 125.703476 68.2125 126.203476Q68.00938 126.68785 67.50938 127.25035Q67.025 127.797226 65.9 128.75035Q64.94688 129.54723 64.66563 129.8441Q64.4 130.12535 64.22813 130.4066L68.44688 130.4066Z" fill-rule="nonzero"/><path fill="#000000" d="M58.446877 90.86215L58.446877 91.87778L52.759377 91.87778Q52.759377 91.50278 52.884377 91.1434Q53.103127 90.56528 53.571877 90.00278Q54.05625 89.44028 54.9625 88.7059Q56.36875 87.54965 56.853127 86.87778Q57.353127 86.2059 57.353127 85.61215Q57.353127 84.98715 56.9 84.56528Q56.446877 84.12778 55.728127 84.12778Q54.9625 84.12778 54.509377 84.5809Q54.05625 85.03403 54.040627 85.84653L52.9625 85.73715Q53.071877 84.5184 53.790627 83.8934Q54.525 83.25278 55.759377 83.25278Q56.99375 83.25278 57.7125 83.94028Q58.43125 84.62778 58.43125 85.6434Q58.43125 86.15903 58.2125 86.65903Q58.009377 87.1434 57.509377 87.7059Q57.025 88.25278 55.9 89.2059Q54.946877 90.00278 54.665627 90.29965Q54.4 90.5809 54.228127 90.86215L58.446877 90.86215ZM60.49375 91.87778L60.49375 90.67465L61.696877 90.67465L61.696877 91.87778L60.49375 91.87778ZM62.9 89.62778L64.00938 89.53403Q64.13438 90.34653 64.57188 90.75278Q65.025 91.15903 65.66563 91.15903Q66.41563 91.15903 66.94688 90.5809Q67.47813 90.00278 67.47813 89.06528Q67.47813 88.15903 66.9625 87.6434Q66.4625 87.11215 65.63438 87.11215Q65.13438 87.11215 64.7125 87.34653Q64.30625 87.5809 64.07188 87.94028L63.0875 87.81528L63.915627 83.40903L68.19688 83.40903L68.19688 84.40903L64.75938 84.40903L64.30625 86.72153Q65.07188 86.17465 65.91563 86.17465Q67.04063 86.17465 67.80625 86.9559Q68.5875 87.73715 68.5875 88.97153Q68.5875 90.12778 67.91563 90.98715Q67.0875 92.0184 65.66563 92.0184Q64.49375 92.0184 63.74375 91.36215Q63.009377 90.7059 62.9 89.62778Z" fill-rule="nonzero"/><path fill="#000000" d="M62.9 50.067707L63.9625 49.927082Q64.13438 50.817707 64.57188 51.223957Q65.00938 51.614582 65.63438 51.614582Q66.38438 51.614582 66.9 51.098957Q67.41563 50.583332 67.41563 49.817707Q67.41563 49.098957 66.93125 48.630207Q66.4625 48.145832 65.72813 48.145832Q65.43125 48.145832 64.97813 48.270832L65.10313 47.333332Q65.2125 47.348957 65.275 47.348957Q65.94688 47.348957 66.47813 47.005207Q67.025 46.645832 67.025 45.911457Q67.025 45.333332 66.63438 44.958332Q66.24375 44.567707 65.61875 44.567707Q65.00938 44.567707 64.5875 44.958332Q64.18125 45.348957 64.07188 46.114582L63.009377 45.927082Q63.196877 44.880207 63.884377 44.302082Q64.57188 43.708332 65.5875 43.708332Q66.29063 43.708332 66.88438 44.020832Q67.47813 44.317707 67.79063 44.833332Q68.10313 45.348957 68.10313 45.942707Q68.10313 46.489582 67.80625 46.958332Q67.50938 47.411457 66.93125 47.677082Q67.68125 47.848957 68.10313 48.411457Q68.525 48.958332 68.525 49.802082Q68.525 50.927082 67.69688 51.708332Q66.88438 52.489582 65.63438 52.489582Q64.50938 52.489582 63.759377 51.817707Q63.009377 51.130207 62.9 50.067707Z" fill-rule="nonzero"/><path fill="#000000" d="M88.08437 305.83438L89.14687 305.74063Q89.225 306.39688 89.50625 306.80313Q89.7875 307.20938 90.36562 307.475Q90.95937 307.725 91.69375 307.725Q92.33437 307.725 92.83437 307.5375Q93.33437 307.33438 93.56875 307.00626Q93.81875 306.6625 93.81875 306.27188Q93.81875 305.86563 93.58437 305.56876Q93.35 305.25626 92.81875 305.05313Q92.45937 304.9125 91.27187 304.63126Q90.1 304.35 89.63125 304.1Q89.00625 303.77188 88.70937 303.30313Q88.4125 302.81876 88.4125 302.225Q88.4125 301.58438 88.77187 301.02188Q89.14687 300.44376 89.85 300.1625Q90.56875 299.86563 91.42812 299.86563Q92.38125 299.86563 93.11562 300.17813Q93.85 300.475 94.24062 301.08438Q94.63125 301.67813 94.6625 302.42813L93.56875 302.50626Q93.475 301.69376 92.95937 301.2875Q92.45937 300.86563 91.475 300.86563Q90.44375 300.86563 89.975 301.24063Q89.50625 301.61563 89.50625 302.14688Q89.50625 302.61563 89.83437 302.9125Q90.1625 303.20938 91.5375 303.52188Q92.92812 303.83438 93.44375 304.06876Q94.19375 304.42813 94.55312 304.95938Q94.9125 305.475 94.9125 306.17813Q94.9125 306.86563 94.52187 307.475Q94.13125 308.06876 93.39687 308.4125Q92.6625 308.74063 91.74062 308.74063Q90.56875 308.74063 89.77187 308.4125Q88.99062 308.06876 88.5375 307.38126Q88.1 306.69376 88.08437 305.83438ZM96.33437 310.99063L96.33437 302.38126L97.2875 302.38126L97.2875 303.17813Q97.63125 302.70938 98.05312 302.475Q98.49062 302.24063 99.1 302.24063Q99.89687 302.24063 100.50625 302.64688Q101.11562 303.05313 101.4125 303.80313Q101.725 304.55313 101.725 305.44376Q101.725 306.39688 101.38125 307.1625Q101.05312 307.92813 100.39687 308.33438Q99.74062 308.74063 99.02187 308.74063Q98.49062 308.74063 98.06875 308.52188Q97.64687 308.2875 97.38125 307.95938L97.38125 310.99063L96.33437 310.99063ZM97.2875 305.52188Q97.2875 306.725 97.77187 307.30313Q98.25625 307.86563 98.94375 307.86563Q99.64687 307.86563 100.14687 307.27188Q100.64687 306.67813 100.64687 305.42813Q100.64687 304.24063 100.1625 303.6625Q99.67812 303.06876 98.99062 303.06876Q98.31875 303.06876 97.80312 303.69376Q97.2875 304.31876 97.2875 305.52188ZM103.31875 308.6L103.31875 302.38126L104.27187 302.38126L104.27187 303.31876Q104.63125 302.6625 104.92812 302.45938Q105.24062 302.24063 105.61562 302.24063Q106.14687 302.24063 106.69375 302.56876L106.33437 303.55313Q105.94375 303.31876 105.56875 303.31876Q105.20937 303.31876 104.92812 303.5375Q104.6625 303.74063 104.55312 304.11563Q104.36562 304.67813 104.36562 305.33438L104.36562 308.6L103.31875 308.6ZM107.33437 301.225L107.33437 300.00626L108.39687 300.00626L108.39687 301.225L107.33437 301.225ZM107.33437 308.6L107.33437 302.38126L108.39687 302.38126L108.39687 308.6L107.33437 308.6ZM110.33437 308.6L110.33437 302.38126L111.27187 302.38126L111.27187 303.25626Q111.95937 302.24063 113.25625 302.24063Q113.81875 302.24063 114.2875 302.44376Q114.77187 302.64688 115.00625 302.975Q115.24062 303.30313 115.33437 303.74063Q115.38125 304.0375 115.38125 304.77188L115.38125 308.6L114.33437 308.6L114.33437 304.81876Q114.33437 304.1625 114.20937 303.85Q114.08437 303.5375 113.77187 303.35Q113.45937 303.14688 113.0375 303.14688Q112.36562 303.14688 111.86562 303.58438Q111.38125 304.00626 111.38125 305.19376L111.38125 308.6L110.33437 308.6ZM119.63125 307.6625L119.7875 308.58438Q119.33437 308.67813 118.99062 308.67813Q118.4125 308.67813 118.1 308.50626Q117.7875 308.31876 117.64687 308.02188Q117.52187 307.725 117.52187 306.77188L117.52187 303.19376L116.75625 303.19376L116.75625 302.38126L117.52187 302.38126L117.52187 300.83438L118.56875 300.20938L118.56875 302.38126L119.63125 302.38126L119.63125 303.19376L118.56875 303.19376L118.56875 306.83438Q118.56875 307.2875 118.61562 307.4125Q118.67812 307.5375 118.80312 307.61563Q118.92812 307.69376 119.1625 307.69376Q119.35 307.69376 119.63125 307.6625ZM127.00625 308.6L125.95937 308.6L125.95937 301.88126Q125.56875 302.24063 124.94375 302.61563Q124.33437 302.975 123.85 303.14688L123.85 302.13126Q124.725 301.70938 125.38125 301.13126Q126.05312 300.5375 126.33437 299.975L127.00625 299.975L127.00625 308.6Z" fill-rule="nonzero"/><path fill="#000000" d="M142.35938 305.83438L143.42188 305.74063Q143.5 306.39688 143.78125 306.80313Q144.0625 307.20938 144.64062 307.475Q145.23438 307.725 145.96875 307.725Q146.60938 307.725 147.10938 307.5375Q147.60938 307.33438 147.84375 307.00626Q148.09375 306.6625 148.09375 306.27188Q148.09375 305.86563 147.85938 305.56876Q147.625 305.25626 147.09375 305.05313Q146.73438 304.9125 145.54688 304.63126Q144.375 304.35 143.90625 304.1Q143.28125 303.77188 142.98438 303.30313Q142.6875 302.81876 142.6875 302.225Q142.6875 301.58438 143.04688 301.02188Q143.42188 300.44376 144.125 300.1625Q144.84375 299.86563 145.70312 299.86563Q146.65625 299.86563 147.39062 300.17813Q148.125 300.475 148.51562 301.08438Q148.90625 301.67813 148.9375 302.42813L147.84375 302.50626Q147.75 301.69376 147.23438 301.2875Q146.73438 300.86563 145.75 300.86563Q144.71875 300.86563 144.25 301.24063Q143.78125 301.61563 143.78125 302.14688Q143.78125 302.61563 144.10938 302.9125Q144.4375 303.20938 145.8125 303.52188Q147.20312 303.83438 147.71875 304.06876Q148.46875 304.42813 148.82812 304.95938Q149.1875 305.475 149.1875 306.17813Q149.1875 306.86563 148.79688 307.475Q148.40625 308.06876 147.67188 308.4125Q146.9375 308.74063 146.01562 308.74063Q144.84375 308.74063 144.04688 308.4125Q143.26562 308.06876 142.8125 307.38126Q142.375 306.69376 142.35938 305.83438ZM150.60938 310.99063L150.60938 302.38126L151.5625 302.38126L151.5625 303.17813Q151.90625 302.70938 152.32812 302.475Q152.76562 302.24063 153.375 302.24063Q154.17188 302.24063 154.78125 302.64688Q155.39062 303.05313 155.6875 303.80313Q156.0 304.55313 156.0 305.44376Q156.0 306.39688 155.65625 307.1625Q155.32812 307.92813 154.67188 308.33438Q154.01562 308.74063 153.29688 308.74063Q152.76562 308.74063 152.34375 308.52188Q151.92188 308.2875 151.65625 307.95938L151.65625 310.99063L150.60938 310.99063ZM151.5625 305.52188Q151.5625 306.725 152.04688 307.30313Q152.53125 307.86563 153.21875 307.86563Q153.92188 307.86563 154.42188 307.27188Q154.92188 306.67813 154.92188 305.42813Q154.92188 304.24063 154.4375 303.6625Q153.95312 303.06876 153.26562 303.06876Q152.59375 303.06876 152.07812 303.69376Q151.5625 304.31876 151.5625 305.52188ZM157.59375 308.6L157.59375 302.38126L158.54688 302.38126L158.54688 303.31876Q158.90625 302.6625 159.20312 302.45938Q159.51562 302.24063 159.89062 302.24063Q160.42188 302.24063 160.96875 302.56876L160.60938 303.55313Q160.21875 303.31876 159.84375 303.31876Q159.48438 303.31876 159.20312 303.5375Q158.9375 303.74063 158.82812 304.11563Q158.64062 304.67813 158.64062 305.33438L158.64062 308.6L157.59375 308.6ZM161.60938 301.225L161.60938 300.00626L162.67188 300.00626L162.67188 301.225L161.60938 301.225ZM161.60938 308.6L161.60938 302.38126L162.67188 302.38126L162.67188 308.6L161.60938 308.6ZM164.60938 308.6L164.60938 302.38126L165.54688 302.38126L165.54688 303.25626Q166.23438 302.24063 167.53125 302.24063Q168.09375 302.24063 168.5625 302.44376Q169.04688 302.64688 169.28125 302.975Q169.51562 303.30313 169.60938 303.74063Q169.65625 304.0375 169.65625 304.77188L169.65625 308.6L168.60938 308.6L168.60938 304.81876Q168.60938 304.1625 168.48438 303.85Q168.35938 303.5375 168.04688 303.35Q167.73438 303.14688 167.3125 303.14688Q166.64062 303.14688 166.14062 303.58438Q165.65625 304.00626 165.65625 305.19376L165.65625 308.6L164.60938 308.6ZM173.90625 307.6625L174.0625 308.58438Q173.60938 308.67813 173.26562 308.67813Q172.6875 308.67813 172.375 308.50626Q172.0625 308.31876 171.92188 308.02188Q171.79688 307.725 171.79688 306.77188L171.79688 303.19376L171.03125 303.19376L171.03125 302.38126L171.79688 302.38126L171.79688 300.83438L172.84375 300.20938L172.84375 302.38126L173.90625 302.38126L173.90625 303.19376L172.84375 303.19376L172.84375 306.83438Q172.84375 307.2875 172.89062 307.4125Q172.95312 307.5375 173.07812 307.61563Q173.20312 307.69376 173.4375 307.69376Q173.625 307.69376 173.90625 307.6625ZM182.85938 307.58438L182.85938 308.6L177.17188 308.6Q177.17188 308.225 177.29688 307.86563Q177.51562 307.2875 177.98438 306.725Q178.46875 306.1625 179.375 305.42813Q180.78125 304.27188 181.26562 303.6Q181.76562 302.92813 181.76562 302.33438Q181.76562 301.70938 181.3125 301.2875Q180.85938 300.85 180.14062 300.85Q179.375 300.85 178.92188 301.30313Q178.46875 301.75626 178.45312 302.56876L177.375 302.45938Q177.48438 301.24063 178.20312 300.61563Q178.9375 299.975 180.17188 299.975Q181.40625 299.975 182.125 300.6625Q182.84375 301.35 182.84375 302.36563Q182.84375 302.88126 182.625 303.38126Q182.42188 303.86563 181.92188 304.42813Q181.4375 304.975 180.3125 305.92813Q179.35938 306.725 179.07812 307.02188Q178.8125 307.30313 178.64062 307.58438L182.85938 307.58438Z" fill-rule="nonzero"/><path fill="#000000" d="M196.63437 305.83438L197.69687 305.74063Q197.775 306.39688 198.05624 306.80313Q198.3375 307.20938 198.91562 307.475Q199.50937 307.725 200.24374 307.725Q200.88437 307.725 201.38437 307.5375Q201.88437 307.33438 202.11874 307.00626Q202.36874 306.6625 202.36874 306.27188Q202.36874 305.86563 202.13437 305.56876Q201.9 305.25626 201.36874 305.05313Q201.00937 304.9125 199.82187 304.63126Q198.65 304.35 198.18124 304.1Q197.55624 303.77188 197.25937 303.30313Q196.9625 302.81876 196.9625 302.225Q196.9625 301.58438 197.32187 301.02188Q197.69687 300.44376 198.4 300.1625Q199.11874 299.86563 199.97812 299.86563Q200.93124 299.86563 201.66562 300.17813Q202.4 300.475 202.79062 301.08438Q203.18124 301.67813 203.2125 302.42813L202.11874 302.50626Q202.025 301.69376 201.50937 301.2875Q201.00937 300.86563 200.025 300.86563Q198.99374 300.86563 198.525 301.24063Q198.05624 301.61563 198.05624 302.14688Q198.05624 302.61563 198.38437 302.9125Q198.7125 303.20938 200.0875 303.52188Q201.47812 303.83438 201.99374 304.06876Q202.74374 304.42813 203.10312 304.95938Q203.4625 305.475 203.4625 306.17813Q203.4625 306.86563 203.07187 307.475Q202.68124 308.06876 201.94687 308.4125Q201.2125 308.74063 200.29062 308.74063Q199.11874 308.74063 198.32187 308.4125Q197.54062 308.06876 197.0875 307.38126Q196.65 306.69376 196.63437 305.83438ZM204.88437 310.99063L204.88437 302.38126L205.8375 302.38126L205.8375 303.17813Q206.18124 302.70938 206.60312 302.475Q207.04062 302.24063 207.65 302.24063Q208.44687 302.24063 209.05624 302.64688Q209.66562 303.05313 209.9625 303.80313Q210.275 304.55313 210.275 305.44376Q210.275 306.39688 209.93124 307.1625Q209.60312 307.92813 208.94687 308.33438Q208.29062 308.74063 207.57187 308.74063Q207.04062 308.74063 206.61874 308.52188Q206.19687 308.2875 205.93124 307.95938L205.93124 310.99063L204.88437 310.99063ZM205.8375 305.52188Q205.8375 306.725 206.32187 307.30313Q206.80624 307.86563 207.49374 307.86563Q208.19687 307.86563 208.69687 307.27188Q209.19687 306.67813 209.19687 305.42813Q209.19687 304.24063 208.7125 303.6625Q208.22812 303.06876 207.54062 303.06876Q206.86874 303.06876 206.35312 303.69376Q205.8375 304.31876 205.8375 305.52188ZM211.86874 308.6L211.86874 302.38126L212.82187 302.38126L212.82187 303.31876Q213.18124 302.6625 213.47812 302.45938Q213.79062 302.24063 214.16562 302.24063Q214.69687 302.24063 215.24374 302.56876L214.88437 303.55313Q214.49374 303.31876 214.11874 303.31876Q213.75937 303.31876 213.47812 303.5375Q213.2125 303.74063 213.10312 304.11563Q212.91562 304.67813 212.91562 305.33438L212.91562 308.6L211.86874 308.6ZM215.88437 301.225L215.88437 300.00626L216.94687 300.00626L216.94687 301.225L215.88437 301.225ZM215.88437 308.6L215.88437 302.38126L216.94687 302.38126L216.94687 308.6L215.88437 308.6ZM218.88437 308.6L218.88437 302.38126L219.82187 302.38126L219.82187 303.25626Q220.50937 302.24063 221.80624 302.24063Q222.36874 302.24063 222.8375 302.44376Q223.32187 302.64688 223.55624 302.975Q223.79062 303.30313 223.88437 303.74063Q223.93124 304.0375 223.93124 304.77188L223.93124 308.6L222.88437 308.6L222.88437 304.81876Q222.88437 304.1625 222.75937 303.85Q222.63437 303.5375 222.32187 303.35Q222.00937 303.14688 221.5875 303.14688Q220.91562 303.14688 220.41562 303.58438Q219.93124 304.00626 219.93124 305.19376L219.93124 308.6L218.88437 308.6ZM228.18124 307.6625L228.3375 308.58438Q227.88437 308.67813 227.54062 308.67813Q226.9625 308.67813 226.65 308.50626Q226.3375 308.31876 226.19687 308.02188Q226.07187 307.725 226.07187 306.77188L226.07187 303.19376L225.30624 303.19376L225.30624 302.38126L226.07187 302.38126L226.07187 300.83438L227.11874 300.20938L227.11874 302.38126L228.18124 302.38126L228.18124 303.19376L227.11874 303.19376L227.11874 306.83438Q227.11874 307.2875 227.16562 307.4125Q227.22812 307.5375 227.35312 307.61563Q227.47812 307.69376 227.7125 307.69376Q227.9 307.69376 228.18124 307.6625ZM231.5875 306.33438L232.65 306.19376Q232.82187 307.08438 233.25937 307.49063Q233.69687 307.88126 234.32187 307.88126Q235.07187 307.88126 235.5875 307.36563Q236.10312 306.85 236.10312 306.08438Q236.10312 305.36563 235.61874 304.89688Q235.15 304.4125 234.41562 304.4125Q234.11874 304.4125 233.66562 304.5375L233.79062 303.6Q233.9 303.61563 233.9625 303.61563Q234.63437 303.61563 235.16562 303.27188Q235.7125 302.9125 235.7125 302.17813Q235.7125 301.6 235.32187 301.225Q234.93124 300.83438 234.30624 300.83438Q233.69687 300.83438 233.275 301.225Q232.86874 301.61563 232.75937 302.38126L231.69687 302.19376Q231.88437 301.14688 232.57187 300.56876Q233.25937 299.975 234.275 299.975Q234.97812 299.975 235.57187 300.2875Q236.16562 300.58438 236.47812 301.1Q236.79062 301.61563 236.79062 302.20938Q236.79062 302.75626 236.49374 303.225Q236.19687 303.67813 235.61874 303.94376Q236.36874 304.11563 236.79062 304.67813Q237.2125 305.225 237.2125 306.06876Q237.2125 307.19376 236.38437 307.975Q235.57187 308.75626 234.32187 308.75626Q233.19687 308.75626 232.44687 308.08438Q231.69687 307.39688 231.5875 306.33438Z" fill-rule="nonzero"/><path fill="#000000" d="M250.90938 305.83438L251.97188 305.74063Q252.05 306.39688 252.33125 306.80313Q252.6125 307.20938 253.19063 307.475Q253.78438 307.725 254.51875 307.725Q255.15938 307.725 255.65938 307.5375Q256.15936 307.33438 256.39374 307.00626Q256.64374 306.6625 256.64374 306.27188Q256.64374 305.86563 256.40936 305.56876Q256.175 305.25626 255.64375 305.05313Q255.28438 304.9125 254.09688 304.63126Q252.925 304.35 252.45625 304.1Q251.83125 303.77188 251.53438 303.30313Q251.2375 302.81876 251.2375 302.225Q251.2375 301.58438 251.59688 301.02188Q251.97188 300.44376 252.675 300.1625Q253.39375 299.86563 254.25313 299.86563Q255.20625 299.86563 255.94063 300.17813Q256.675 300.475 257.0656 301.08438Q257.45624 301.67813 257.4875 302.42813L256.39374 302.50626Q256.3 301.69376 255.78438 301.2875Q255.28438 300.86563 254.3 300.86563Q253.26875 300.86563 252.8 301.24063Q252.33125 301.61563 252.33125 302.14688Q252.33125 302.61563 252.65938 302.9125Q252.9875 303.20938 254.3625 303.52188Q255.75313 303.83438 256.26874 304.06876Q257.01874 304.42813 257.3781 304.95938Q257.7375 305.475 257.7375 306.17813Q257.7375 306.86563 257.34686 307.475Q256.95624 308.06876 256.22186 308.4125Q255.4875 308.74063 254.56563 308.74063Q253.39375 308.74063 252.59688 308.4125Q251.81563 308.06876 251.3625 307.38126Q250.925 306.69376 250.90938 305.83438ZM259.15936 310.99063L259.15936 302.38126L260.1125 302.38126L260.1125 303.17813Q260.45624 302.70938 260.8781 302.475Q261.3156 302.24063 261.925 302.24063Q262.72186 302.24063 263.33124 302.64688Q263.9406 303.05313 264.2375 303.80313Q264.55 304.55313 264.55 305.44376Q264.55 306.39688 264.20624 307.1625Q263.8781 307.92813 263.22186 308.33438Q262.5656 308.74063 261.84686 308.74063Q261.3156 308.74063 260.89374 308.52188Q260.47186 308.2875 260.20624 307.95938L260.20624 310.99063L259.15936 310.99063ZM260.1125 305.52188Q260.1125 306.725 260.59686 307.30313Q261.08124 307.86563 261.76874 307.86563Q262.47186 307.86563 262.97186 307.27188Q263.47186 306.67813 263.47186 305.42813Q263.47186 304.24063 262.9875 303.6625Q262.5031 303.06876 261.8156 303.06876Q261.14374 303.06876 260.6281 303.69376Q260.1125 304.31876 260.1125 305.52188ZM266.14374 308.6L266.14374 302.38126L267.09686 302.38126L267.09686 303.31876Q267.45624 302.6625 267.7531 302.45938Q268.0656 302.24063 268.4406 302.24063Q268.97186 302.24063 269.51874 302.56876L269.15936 303.55313Q268.76874 303.31876 268.39374 303.31876Q268.03436 303.31876 267.7531 303.5375Q267.4875 303.74063 267.3781 304.11563Q267.1906 304.67813 267.1906 305.33438L267.1906 308.6L266.14374 308.6ZM270.15936 301.225L270.15936 300.00626L271.22186 300.00626L271.22186 301.225L270.15936 301.225ZM270.15936 308.6L270.15936 302.38126L271.22186 302.38126L271.22186 308.6L270.15936 308.6ZM273.15936 308.6L273.15936 302.38126L274.09686 302.38126L274.09686 303.25626Q274.78436 302.24063 276.08124 302.24063Q276.64374 302.24063 277.1125 302.44376Q277.59686 302.64688 277.83124 302.975Q278.0656 303.30313 278.15936 303.74063Q278.20624 304.0375 278.20624 304.77188L278.20624 308.6L277.15936 308.6L277.15936 304.81876Q277.15936 304.1625 277.03436 303.85Q276.90936 303.5375 276.59686 303.35Q276.28436 303.14688 275.8625 303.14688Q275.1906 303.14688 274.6906 303.58438Q274.20624 304.00626 274.20624 305.19376L274.20624 308.6L273.15936 308.6ZM282.45624 307.6625L282.6125 308.58438Q282.15936 308.67813 281.8156 308.67813Q281.2375 308.67813 280.925 308.50626Q280.6125 308.31876 280.47186 308.02188Q280.34686 307.725 280.34686 306.77188L280.34686 303.19376L279.58124 303.19376L279.58124 302.38126L280.34686 302.38126L280.34686 300.83438L281.39374 300.20938L281.39374 302.38126L282.45624 302.38126L282.45624 303.19376L281.39374 303.19376L281.39374 306.83438Q281.39374 307.2875 281.4406 307.4125Q281.5031 307.5375 281.6281 307.61563Q281.7531 307.69376 281.9875 307.69376Q282.175 307.69376 282.45624 307.6625ZM289.2375 308.6L289.2375 306.5375L285.51874 306.5375L285.51874 305.56876L289.4406 300.00626L290.3 300.00626L290.3 305.56876L291.45624 305.56876L291.45624 306.5375L290.3 306.5375L290.3 308.6L289.2375 308.6ZM289.2375 305.56876L289.2375 301.70938L286.55 305.56876L289.2375 305.56876Z" fill-rule="nonzero"/><path fill="#000000" d="M305.1844 305.83438L306.2469 305.74063Q306.325 306.39688 306.60626 306.80313Q306.8875 307.20938 307.46564 307.475Q308.0594 307.725 308.79376 307.725Q309.4344 307.725 309.9344 307.5375Q310.4344 307.33438 310.66876 307.00626Q310.91876 306.6625 310.91876 306.27188Q310.91876 305.86563 310.6844 305.56876Q310.45 305.25626 309.91876 305.05313Q309.5594 304.9125 308.3719 304.63126Q307.2 304.35 306.73126 304.1Q306.10626 303.77188 305.8094 303.30313Q305.5125 302.81876 305.5125 302.225Q305.5125 301.58438 305.8719 301.02188Q306.2469 300.44376 306.95 300.1625Q307.66876 299.86563 308.52814 299.86563Q309.48126 299.86563 310.21564 300.17813Q310.95 300.475 311.34064 301.08438Q311.73126 301.67813 311.7625 302.42813L310.66876 302.50626Q310.575 301.69376 310.0594 301.2875Q309.5594 300.86563 308.575 300.86563Q307.54376 300.86563 307.075 301.24063Q306.60626 301.61563 306.60626 302.14688Q306.60626 302.61563 306.9344 302.9125Q307.2625 303.20938 308.6375 303.52188Q310.02814 303.83438 310.54376 304.06876Q311.29376 304.42813 311.65314 304.95938Q312.0125 305.475 312.0125 306.17813Q312.0125 306.86563 311.6219 307.475Q311.23126 308.06876 310.4969 308.4125Q309.7625 308.74063 308.84064 308.74063Q307.66876 308.74063 306.8719 308.4125Q306.09064 308.06876 305.6375 307.38126Q305.2 306.69376 305.1844 305.83438ZM313.4344 310.99063L313.4344 302.38126L314.3875 302.38126L314.3875 303.17813Q314.73126 302.70938 315.15314 302.475Q315.59064 302.24063 316.2 302.24063Q316.9969 302.24063 317.60626 302.64688Q318.21564 303.05313 318.5125 303.80313Q318.825 304.55313 318.825 305.44376Q318.825 306.39688 318.48126 307.1625Q318.15314 307.92813 317.4969 308.33438Q316.84064 308.74063 316.1219 308.74063Q315.59064 308.74063 315.16876 308.52188Q314.7469 308.2875 314.48126 307.95938L314.48126 310.99063L313.4344 310.99063ZM314.3875 305.52188Q314.3875 306.725 314.8719 307.30313Q315.35626 307.86563 316.04376 307.86563Q316.7469 307.86563 317.2469 307.27188Q317.7469 306.67813 317.7469 305.42813Q317.7469 304.24063 317.2625 303.6625Q316.77814 303.06876 316.09064 303.06876Q315.41876 303.06876 314.90314 303.69376Q314.3875 304.31876 314.3875 305.52188ZM320.41876 308.6L320.41876 302.38126L321.3719 302.38126L321.3719 303.31876Q321.73126 302.6625 322.02814 302.45938Q322.34064 302.24063 322.71564 302.24063Q323.2469 302.24063 323.79376 302.56876L323.4344 303.55313Q323.04376 303.31876 322.66876 303.31876Q322.3094 303.31876 322.02814 303.5375Q321.7625 303.74063 321.65314 304.11563Q321.46564 304.67813 321.46564 305.33438L321.46564 308.6L320.41876 308.6ZM324.4344 301.225L324.4344 300.00626L325.4969 300.00626L325.4969 301.225L324.4344 301.225ZM324.4344 308.6L324.4344 302.38126L325.4969 302.38126L325.4969 308.6L324.4344 308.6ZM327.4344 308.6L327.4344 302.38126L328.3719 302.38126L328.3719 303.25626Q329.0594 302.24063 330.35626 302.24063Q330.91876 302.24063 331.3875 302.44376Q331.8719 302.64688 332.10626 302.975Q332.34064 303.30313 332.4344 303.74063Q332.48126 304.0375 332.48126 304.77188L332.48126 308.6L331.4344 308.6L331.4344 304.81876Q331.4344 304.1625 331.3094 303.85Q331.1844 303.5375 330.8719 303.35Q330.5594 303.14688 330.1375 303.14688Q329.46564 303.14688 328.96564 303.58438Q328.48126 304.00626 328.48126 305.19376L328.48126 308.6L327.4344 308.6ZM336.73126 307.6625L336.8875 308.58438Q336.4344 308.67813 336.09064 308.67813Q335.5125 308.67813 335.2 308.50626Q334.8875 308.31876 334.7469 308.02188Q334.6219 307.725 334.6219 306.77188L334.6219 303.19376L333.85626 303.19376L333.85626 302.38126L334.6219 302.38126L334.6219 300.83438L335.66876 300.20938L335.66876 302.38126L336.73126 302.38126L336.73126 303.19376L335.66876 303.19376L335.66876 306.83438Q335.66876 307.2875 335.71564 307.4125Q335.77814 307.5375 335.90314 307.61563Q336.02814 307.69376 336.2625 307.69376Q336.45 307.69376 336.73126 307.6625ZM340.1375 306.35L341.2469 306.25626Q341.3719 307.06876 341.8094 307.475Q342.2625 307.88126 342.90314 307.88126Q343.65314 307.88126 344.1844 307.30313Q344.71564 306.725 344.71564 305.7875Q344.71564 304.88126 344.2 304.36563Q343.7 303.83438 342.8719 303.83438Q342.3719 303.83438 341.95 304.06876Q341.54376 304.30313 341.3094 304.6625L340.325 304.5375L341.15314 300.13126L345.4344 300.13126L345.4344 301.13126L341.9969 301.13126L341.54376 303.44376Q342.3094 302.89688 343.15314 302.89688Q344.27814 302.89688 345.04376 303.67813Q345.825 304.45938 345.825 305.69376Q345.825 306.85 345.15314 307.70938Q344.325 308.74063 342.90314 308.74063Q341.73126 308.74063 340.98126 308.08438Q340.2469 307.42813 340.1375 306.35Z" fill-rule="nonzero"/><path fill="#000000" d="M359.45938 305.83438L360.52188 305.74063Q360.6 306.39688 360.88126 306.80313Q361.1625 307.20938 361.74063 307.475Q362.33438 307.725 363.06876 307.725Q363.70938 307.725 364.20938 307.5375Q364.70938 307.33438 364.94376 307.00626Q365.19376 306.6625 365.19376 306.27188Q365.19376 305.86563 364.95938 305.56876Q364.725 305.25626 364.19376 305.05313Q363.83438 304.9125 362.64688 304.63126Q361.475 304.35 361.00626 304.1Q360.38126 303.77188 360.08438 303.30313Q359.7875 302.81876 359.7875 302.225Q359.7875 301.58438 360.14688 301.02188Q360.52188 300.44376 361.225 300.1625Q361.94376 299.86563 362.80313 299.86563Q363.75626 299.86563 364.49063 300.17813Q365.225 300.475 365.61563 301.08438Q366.00626 301.67813 366.0375 302.42813L364.94376 302.50626Q364.85 301.69376 364.33438 301.2875Q363.83438 300.86563 362.85 300.86563Q361.81876 300.86563 361.35 301.24063Q360.88126 301.61563 360.88126 302.14688Q360.88126 302.61563 361.20938 302.9125Q361.5375 303.20938 362.9125 303.52188Q364.30313 303.83438 364.81876 304.06876Q365.56876 304.42813 365.92813 304.95938Q366.2875 305.475 366.2875 306.17813Q366.2875 306.86563 365.89688 307.475Q365.50626 308.06876 364.77188 308.4125Q364.0375 308.74063 363.11563 308.74063Q361.94376 308.74063 361.14688 308.4125Q360.36563 308.06876 359.9125 307.38126Q359.475 306.69376 359.45938 305.83438ZM367.70938 310.99063L367.70938 302.38126L368.6625 302.38126L368.6625 303.17813Q369.00626 302.70938 369.42813 302.475Q369.86563 302.24063 370.475 302.24063Q371.27188 302.24063 371.88126 302.64688Q372.49063 303.05313 372.7875 303.80313Q373.1 304.55313 373.1 305.44376Q373.1 306.39688 372.75626 307.1625Q372.42813 307.92813 371.77188 308.33438Q371.11563 308.74063 370.39688 308.74063Q369.86563 308.74063 369.44376 308.52188Q369.02188 308.2875 368.75626 307.95938L368.75626 310.99063L367.70938 310.99063ZM368.6625 305.52188Q368.6625 306.725 369.14688 307.30313Q369.63126 307.86563 370.31876 307.86563Q371.02188 307.86563 371.52188 307.27188Q372.02188 306.67813 372.02188 305.42813Q372.02188 304.24063 371.5375 303.6625Q371.05313 303.06876 370.36563 303.06876Q369.69376 303.06876 369.17813 303.69376Q368.6625 304.31876 368.6625 305.52188ZM374.69376 308.6L374.69376 302.38126L375.64688 302.38126L375.64688 303.31876Q376.00626 302.6625 376.30313 302.45938Q376.61563 302.24063 376.99063 302.24063Q377.52188 302.24063 378.06876 302.56876L377.70938 303.55313Q377.31876 303.31876 376.94376 303.31876Q376.58438 303.31876 376.30313 303.5375Q376.0375 303.74063 375.92813 304.11563Q375.74063 304.67813 375.74063 305.33438L375.74063 308.6L374.69376 308.6ZM378.70938 301.225L378.70938 300.00626L379.77188 300.00626L379.77188 301.225L378.70938 301.225ZM378.70938 308.6L378.70938 302.38126L379.77188 302.38126L379.77188 308.6L378.70938 308.6ZM381.70938 308.6L381.70938 302.38126L382.64688 302.38126L382.64688 303.25626Q383.33438 302.24063 384.63126 302.24063Q385.19376 302.24063 385.6625 302.44376Q386.14688 302.64688 386.38126 302.975Q386.61563 303.30313 386.70938 303.74063Q386.75626 304.0375 386.75626 304.77188L386.75626 308.6L385.70938 308.6L385.70938 304.81876Q385.70938 304.1625 385.58438 303.85Q385.45938 303.5375 385.14688 303.35Q384.83438 303.14688 384.4125 303.14688Q383.74063 303.14688 383.24063 303.58438Q382.75626 304.00626 382.75626 305.19376L382.75626 308.6L381.70938 308.6ZM391.00626 307.6625L391.1625 308.58438Q390.70938 308.67813 390.36563 308.67813Q389.7875 308.67813 389.475 308.50626Q389.1625 308.31876 389.02188 308.02188Q388.89688 307.725 388.89688 306.77188L388.89688 303.19376L388.13126 303.19376L388.13126 302.38126L388.89688 302.38126L388.89688 300.83438L389.94376 300.20938L389.94376 302.38126L391.00626 302.38126L391.00626 303.19376L389.94376 303.19376L389.94376 306.83438Q389.94376 307.2875 389.99063 307.4125Q390.05313 307.5375 390.17813 307.61563Q390.30313 307.69376 390.5375 307.69376Q390.725 307.69376 391.00626 307.6625ZM399.88126 302.11563L398.83438 302.19376Q398.69376 301.56876 398.44376 301.2875Q398.00626 300.83438 397.38126 300.83438Q396.88126 300.83438 396.49063 301.11563Q396.00626 301.49063 395.70938 302.19376Q395.42813 302.88126 395.4125 304.1625Q395.7875 303.58438 396.33438 303.30313Q396.89688 303.02188 397.50626 303.02188Q398.55313 303.02188 399.2875 303.80313Q400.0375 304.58438 400.0375 305.80313Q400.0375 306.61563 399.67813 307.31876Q399.33438 308.00626 398.725 308.38126Q398.11563 308.74063 397.35 308.74063Q396.02188 308.74063 395.19376 307.77188Q394.36563 306.80313 394.36563 304.58438Q394.36563 302.08438 395.2875 300.95938Q396.08438 299.975 397.44376 299.975Q398.45938 299.975 399.1 300.55313Q399.75626 301.11563 399.88126 302.11563ZM395.58438 305.81876Q395.58438 306.36563 395.80313 306.86563Q396.0375 307.35 396.44376 307.61563Q396.86563 307.88126 397.33438 307.88126Q397.99063 307.88126 398.475 307.35Q398.95938 306.80313 398.95938 305.88126Q398.95938 304.99063 398.475 304.475Q398.00626 303.95938 397.2875 303.95938Q396.56876 303.95938 396.06876 304.475Q395.58438 304.99063 395.58438 305.81876Z" fill-rule="nonzero"/><path fill="#000000" d="M413.73438 305.83438L414.79688 305.74063Q414.875 306.39688 415.15625 306.80313Q415.4375 307.20938 416.01562 307.475Q416.60938 307.725 417.34375 307.725Q417.98438 307.725 418.48438 307.5375Q418.98438 307.33438 419.21875 307.00626Q419.46875 306.6625 419.46875 306.27188Q419.46875 305.86563 419.23438 305.56876Q419.0 305.25626 418.46875 305.05313Q418.10938 304.9125 416.92188 304.63126Q415.75 304.35 415.28125 304.1Q414.65625 303.77188 414.35938 303.30313Q414.0625 302.81876 414.0625 302.225Q414.0625 301.58438 414.42188 301.02188Q414.79688 300.44376 415.5 300.1625Q416.21875 299.86563 417.07812 299.86563Q418.03125 299.86563 418.76562 300.17813Q419.5 300.475 419.89062 301.08438Q420.28125 301.67813 420.3125 302.42813L419.21875 302.50626Q419.125 301.69376 418.60938 301.2875Q418.10938 300.86563 417.125 300.86563Q416.09375 300.86563 415.625 301.24063Q415.15625 301.61563 415.15625 302.14688Q415.15625 302.61563 415.48438 302.9125Q415.8125 303.20938 417.1875 303.52188Q418.57812 303.83438 419.09375 304.06876Q419.84375 304.42813 420.20312 304.95938Q420.5625 305.475 420.5625 306.17813Q420.5625 306.86563 420.17188 307.475Q419.78125 308.06876 419.04688 308.4125Q418.3125 308.74063 417.39062 308.74063Q416.21875 308.74063 415.42188 308.4125Q414.64062 308.06876 414.1875 307.38126Q413.75 306.69376 413.73438 305.83438ZM421.98438 310.99063L421.98438 302.38126L422.9375 302.38126L422.9375 303.17813Q423.28125 302.70938 423.70312 302.475Q424.14062 302.24063 424.75 302.24063Q425.54688 302.24063 426.15625 302.64688Q426.76562 303.05313 427.0625 303.80313Q427.375 304.55313 427.375 305.44376Q427.375 306.39688 427.03125 307.1625Q426.70312 307.92813 426.04688 308.33438Q425.39062 308.74063 424.67188 308.74063Q424.14062 308.74063 423.71875 308.52188Q423.29688 308.2875 423.03125 307.95938L423.03125 310.99063L421.98438 310.99063ZM422.9375 305.52188Q422.9375 306.725 423.42188 307.30313Q423.90625 307.86563 424.59375 307.86563Q425.29688 307.86563 425.79688 307.27188Q426.29688 306.67813 426.29688 305.42813Q426.29688 304.24063 425.8125 303.6625Q425.32812 303.06876 424.64062 303.06876Q423.96875 303.06876 423.45312 303.69376Q422.9375 304.31876 422.9375 305.52188ZM428.96875 308.6L428.96875 302.38126L429.92188 302.38126L429.92188 303.31876Q430.28125 302.6625 430.57812 302.45938Q430.89062 302.24063 431.26562 302.24063Q431.79688 302.24063 432.34375 302.56876L431.98438 303.55313Q431.59375 303.31876 431.21875 303.31876Q430.85938 303.31876 430.57812 303.5375Q430.3125 303.74063 430.20312 304.11563Q430.01562 304.67813 430.01562 305.33438L430.01562 308.6L428.96875 308.6ZM432.98438 301.225L432.98438 300.00626L434.04688 300.00626L434.04688 301.225L432.98438 301.225ZM432.98438 308.6L432.98438 302.38126L434.04688 302.38126L434.04688 308.6L432.98438 308.6ZM435.98438 308.6L435.98438 302.38126L436.92188 302.38126L436.92188 303.25626Q437.60938 302.24063 438.90625 302.24063Q439.46875 302.24063 439.9375 302.44376Q440.42188 302.64688 440.65625 302.975Q440.89062 303.30313 440.98438 303.74063Q441.03125 304.0375 441.03125 304.77188L441.03125 308.6L439.98438 308.6L439.98438 304.81876Q439.98438 304.1625 439.85938 303.85Q439.73438 303.5375 439.42188 303.35Q439.10938 303.14688 438.6875 303.14688Q438.01562 303.14688 437.51562 303.58438Q437.03125 304.00626 437.03125 305.19376L437.03125 308.6L435.98438 308.6ZM445.28125 307.6625L445.4375 308.58438Q444.98438 308.67813 444.64062 308.67813Q444.0625 308.67813 443.75 308.50626Q443.4375 308.31876 443.29688 308.02188Q443.17188 307.725 443.17188 306.77188L443.17188 303.19376L442.40625 303.19376L442.40625 302.38126L443.17188 302.38126L443.17188 300.83438L444.21875 300.20938L444.21875 302.38126L445.28125 302.38126L445.28125 303.19376L444.21875 303.19376L444.21875 306.83438Q444.21875 307.2875 444.26562 307.4125Q444.32812 307.5375 444.45312 307.61563Q444.57812 307.69376 444.8125 307.69376Q445.0 307.69376 445.28125 307.6625ZM448.75 301.13126L448.75 300.11563L454.3125 300.11563L454.3125 300.94376Q453.5 301.81876 452.6875 303.27188Q451.89062 304.70938 451.45312 306.24063Q451.125 307.31876 451.04688 308.6L449.95312 308.6Q449.96875 307.58438 450.34375 306.14688Q450.73438 304.70938 451.4375 303.38126Q452.15625 302.05313 452.96875 301.13126L448.75 301.13126Z" fill-rule="nonzero"/><path fill="#000000" d="M468.00937 305.83438L469.07187 305.74063Q469.15 306.39688 469.43124 306.80313Q469.7125 307.20938 470.29062 307.475Q470.88437 307.725 471.61874 307.725Q472.25937 307.725 472.75937 307.5375Q473.25937 307.33438 473.49374 307.00626Q473.74374 306.6625 473.74374 306.27188Q473.74374 305.86563 473.50937 305.56876Q473.275 305.25626 472.74374 305.05313Q472.38437 304.9125 471.19687 304.63126Q470.025 304.35 469.55624 304.1Q468.93124 303.77188 468.63437 303.30313Q468.3375 302.81876 468.3375 302.225Q468.3375 301.58438 468.69687 301.02188Q469.07187 300.44376 469.775 300.1625Q470.49374 299.86563 471.35312 299.86563Q472.30624 299.86563 473.04062 300.17813Q473.775 300.475 474.16562 301.08438Q474.55624 301.67813 474.5875 302.42813L473.49374 302.50626Q473.4 301.69376 472.88437 301.2875Q472.38437 300.86563 471.4 300.86563Q470.36874 300.86563 469.9 301.24063Q469.43124 301.61563 469.43124 302.14688Q469.43124 302.61563 469.75937 302.9125Q470.0875 303.20938 471.4625 303.52188Q472.85312 303.83438 473.36874 304.06876Q474.11874 304.42813 474.47812 304.95938Q474.8375 305.475 474.8375 306.17813Q474.8375 306.86563 474.44687 307.475Q474.05624 308.06876 473.32187 308.4125Q472.5875 308.74063 471.66562 308.74063Q470.49374 308.74063 469.69687 308.4125Q468.91562 308.06876 468.4625 307.38126Q468.025 306.69376 468.00937 305.83438ZM476.25937 310.99063L476.25937 302.38126L477.2125 302.38126L477.2125 303.17813Q477.55624 302.70938 477.97812 302.475Q478.41562 302.24063 479.025 302.24063Q479.82187 302.24063 480.43124 302.64688Q481.04062 303.05313 481.3375 303.80313Q481.65 304.55313 481.65 305.44376Q481.65 306.39688 481.30624 307.1625Q480.97812 307.92813 480.32187 308.33438Q479.66562 308.74063 478.94687 308.74063Q478.41562 308.74063 477.99374 308.52188Q477.57187 308.2875 477.30624 307.95938L477.30624 310.99063L476.25937 310.99063ZM477.2125 305.52188Q477.2125 306.725 477.69687 307.30313Q478.18124 307.86563 478.86874 307.86563Q479.57187 307.86563 480.07187 307.27188Q480.57187 306.67813 480.57187 305.42813Q480.57187 304.24063 480.0875 303.6625Q479.60312 303.06876 478.91562 303.06876Q478.24374 303.06876 477.72812 303.69376Q477.2125 304.31876 477.2125 305.52188ZM483.24374 308.6L483.24374 302.38126L484.19687 302.38126L484.19687 303.31876Q484.55624 302.6625 484.85312 302.45938Q485.16562 302.24063 485.54062 302.24063Q486.07187 302.24063 486.61874 302.56876L486.25937 303.55313Q485.86874 303.31876 485.49374 303.31876Q485.13437 303.31876 484.85312 303.5375Q484.5875 303.74063 484.47812 304.11563Q484.29062 304.67813 484.29062 305.33438L484.29062 308.6L483.24374 308.6ZM487.25937 301.225L487.25937 300.00626L488.32187 300.00626L488.32187 301.225L487.25937 301.225ZM487.25937 308.6L487.25937 302.38126L488.32187 302.38126L488.32187 308.6L487.25937 308.6ZM490.25937 308.6L490.25937 302.38126L491.19687 302.38126L491.19687 303.25626Q491.88437 302.24063 493.18124 302.24063Q493.74374 302.24063 494.2125 302.44376Q494.69687 302.64688 494.93124 302.975Q495.16562 303.30313 495.25937 303.74063Q495.30624 304.0375 495.30624 304.77188L495.30624 308.6L494.25937 308.6L494.25937 304.81876Q494.25937 304.1625 494.13437 303.85Q494.00937 303.5375 493.69687 303.35Q493.38437 303.14688 492.9625 303.14688Q492.29062 303.14688 491.79062 303.58438Q491.30624 304.00626 491.30624 305.19376L491.30624 308.6L490.25937 308.6ZM499.55624 307.6625L499.7125 308.58438Q499.25937 308.67813 498.91562 308.67813Q498.3375 308.67813 498.025 308.50626Q497.7125 308.31876 497.57187 308.02188Q497.44687 307.725 497.44687 306.77188L497.44687 303.19376L496.68124 303.19376L496.68124 302.38126L497.44687 302.38126L497.44687 300.83438L498.49374 300.20938L498.49374 302.38126L499.55624 302.38126L499.55624 303.19376L498.49374 303.19376L498.49374 306.83438Q498.49374 307.2875 498.54062 307.4125Q498.60312 307.5375 498.72812 307.61563Q498.85312 307.69376 499.0875 307.69376Q499.275 307.69376 499.55624 307.6625ZM504.5875 303.94376Q503.93124 303.69376 503.60312 303.25626Q503.29062 302.80313 503.29062 302.19376Q503.29062 301.25626 503.9625 300.61563Q504.65 299.975 505.75937 299.975Q506.88437 299.975 507.57187 300.63126Q508.25937 301.2875 508.25937 302.225Q508.25937 302.81876 507.94687 303.25626Q507.63437 303.69376 506.99374 303.94376Q507.79062 304.19376 508.19687 304.77188Q508.60312 305.35 508.60312 306.14688Q508.60312 307.24063 507.82187 307.99063Q507.05624 308.74063 505.775 308.74063Q504.50937 308.74063 503.72812 307.99063Q502.94687 307.24063 502.94687 306.11563Q502.94687 305.27188 503.36874 304.70938Q503.80624 304.14688 504.5875 303.94376ZM504.36874 302.14688Q504.36874 302.75626 504.75937 303.14688Q505.16562 303.5375 505.79062 303.5375Q506.4 303.5375 506.79062 303.1625Q507.18124 302.77188 507.18124 302.20938Q507.18124 301.63126 506.775 301.24063Q506.36874 300.83438 505.775 300.83438Q505.16562 300.83438 504.75937 301.225Q504.36874 301.61563 504.36874 302.14688ZM504.04062 306.11563Q504.04062 306.56876 504.24374 306.99063Q504.4625 307.4125 504.88437 307.64688Q505.30624 307.88126 505.79062 307.88126Q506.54062 307.88126 507.025 307.39688Q507.525 306.9125 507.525 306.1625Q507.525 305.39688 507.025 304.89688Q506.525 304.39688 505.75937 304.39688Q505.00937 304.39688 504.525 304.89688Q504.04062 305.38126 504.04062 306.11563Z" fill-rule="nonzero"/><path fill="#4285f4" fill-opacity="0.5019608" d="M31.0 23.4C31.0 26.713709 28.31371 29.4 25.0 29.4C21.68629 29.4 19.0 26.713709 19.0 23.4C19.0 20.086292 21.68629 17.4 25.0 17.4C28.31371 17.4 31.0 20.086292 31.0 23.4Z" fill-rule="nonzero"/><path fill="#1a1a1a" d="M42.375 27.4L39.046875 18.80625L40.28125 18.80625L42.515625 25.05625Q42.78125 25.80625 42.96875 26.4625Q43.171875 25.759375 43.4375 25.05625L45.75 18.80625L46.90625 18.80625L43.546875 27.4L42.375 27.4ZM50.859375 26.634375Q50.265625 27.134375 49.71875 27.3375Q49.1875 27.540625 48.5625 27.540625Q47.53125 27.540625 46.984375 27.040625Q46.4375 26.540625 46.4375 25.759375Q46.4375 25.30625 46.640625 24.93125Q46.84375 24.540625 47.1875 24.321875Q47.53125 24.0875 47.953125 23.978125Q48.25 23.884375 48.890625 23.80625Q50.15625 23.665625 50.765625 23.446875Q50.765625 23.228125 50.765625 23.18125Q50.765625 22.525 50.46875 22.259375Q50.0625 21.915625 49.265625 21.915625Q48.53125 21.915625 48.171875 22.18125Q47.8125 22.43125 47.640625 23.0875L46.609375 22.946875Q46.75 22.290625 47.078125 21.884375Q47.40625 21.478125 48.015625 21.259375Q48.625 21.040625 49.421875 21.040625Q50.21875 21.040625 50.71875 21.228125Q51.21875 21.415625 51.453125 21.696875Q51.6875 21.978125 51.78125 22.415625Q51.828125 22.68125 51.828125 23.384375L51.828125 24.790625Q51.828125 26.259375 51.890625 26.65Q51.96875 27.040625 52.171875 27.4L51.0625 27.4Q50.90625 27.071875 50.859375 26.634375ZM50.765625 24.275Q50.1875 24.509375 49.046875 24.68125Q48.390625 24.775 48.125 24.9Q47.859375 25.009375 47.703125 25.228125Q47.5625 25.446875 47.5625 25.728125Q47.5625 26.15 47.875 26.43125Q48.203125 26.7125 48.8125 26.7125Q49.421875 26.7125 49.890625 26.446875Q50.375 26.18125 50.59375 25.7125Q50.765625 25.353125 50.765625 24.665625L50.765625 24.275ZM53.765625 27.4L53.765625 18.80625L54.828125 18.80625L54.828125 27.4L53.765625 27.4ZM56.40625 24.290625Q56.40625 22.55625 57.359375 21.728125Q58.15625 21.040625 59.3125 21.040625Q60.59375 21.040625 61.40625 21.884375Q62.234375 22.7125 62.234375 24.196875Q62.234375 25.4 61.875 26.0875Q61.515625 26.775 60.8125 27.165625Q60.125 27.540625 59.3125 27.540625Q58.015625 27.540625 57.203125 26.7125Q56.40625 25.86875 56.40625 24.290625ZM57.484375 24.290625Q57.484375 25.478125 58.0 26.071875Q58.53125 26.665625 59.3125 26.665625Q60.109375 26.665625 60.625 26.071875Q61.140625 25.478125 61.140625 24.259375Q61.140625 23.103125 60.609375 22.509375Q60.09375 21.915625 59.3125 21.915625Q58.53125 21.915625 58.0 22.509375Q57.484375 23.0875 57.484375 24.290625ZM63.78125 27.4L63.78125 21.18125L64.734375 21.18125L64.734375 22.11875Q65.09375 21.4625 65.390625 21.259375Q65.703125 21.040625 66.078125 21.040625Q66.609375 21.040625 67.15625 21.36875L66.796875 22.353125Q66.40625 22.11875 66.03125 22.11875Q65.671875 22.11875 65.390625 22.3375Q65.125 22.540625 65.015625 22.915625Q64.828125 23.478125 64.828125 24.134375L64.828125 27.4L63.78125 27.4ZM72.046875 25.4L73.140625 25.525Q72.890625 26.478125 72.1875 27.009375Q71.484375 27.540625 70.40625 27.540625Q69.046875 27.540625 68.234375 26.696875Q67.4375 25.853125 67.4375 24.3375Q67.4375 22.775 68.25 21.915625Q69.0625 21.040625 70.34375 21.040625Q71.59375 21.040625 72.375 21.884375Q73.171875 22.728125 73.171875 24.275Q73.171875 24.36875 73.171875 24.55625L68.53125 24.55625Q68.59375 25.5875 69.109375 26.134375Q69.625 26.665625 70.40625 26.665625Q70.984375 26.665625 71.390625 26.36875Q71.8125 26.05625 72.046875 25.4ZM68.59375 23.696875L72.0625 23.696875Q72.0 22.9 71.671875 22.509375Q71.15625 21.9 70.359375 21.9Q69.625 21.9 69.125 22.384375Q68.640625 22.86875 68.59375 23.696875ZM77.40625 24.290625Q77.40625 22.55625 78.359375 21.728125Q79.15625 21.040625 80.3125 21.040625Q81.59375 21.040625 82.40625 21.884375Q83.234375 22.7125 83.234375 24.196875Q83.234375 25.4 82.875 26.0875Q82.515625 26.775 81.8125 27.165625Q81.125 27.540625 80.3125 27.540625Q79.015625 27.540625 78.203125 26.7125Q77.40625 25.86875 77.40625 24.290625ZM78.484375 24.290625Q78.484375 25.478125 79.0 26.071875Q79.53125 26.665625 80.3125 26.665625Q81.109375 26.665625 81.625 26.071875Q82.140625 25.478125 82.140625 24.259375Q82.140625 23.103125 81.609375 22.509375Q81.09375 21.915625 80.3125 21.915625Q79.53125 21.915625 79.0 22.509375Q78.484375 23.0875 78.484375 24.290625ZM87.09375 26.4625L87.25 27.384375Q86.796875 27.478125 86.453125 27.478125Q85.875 27.478125 85.5625 27.30625Q85.25 27.11875 85.109375 26.821875Q84.984375 26.525 84.984375 25.571875L84.984375 21.99375L84.21875 21.99375L84.21875 21.18125L84.984375 21.18125L84.984375 19.634375L86.03125 19.009375L86.03125 21.18125L87.09375 21.18125L87.09375 21.99375L86.03125 21.99375L86.03125 25.634375Q86.03125 26.0875 86.078125 26.2125Q86.140625 26.3375 86.265625 26.415625Q86.390625 26.49375 86.625 26.49375Q86.8125 26.49375 87.09375 26.4625ZM90.09375 26.4625L90.25 27.384375Q89.796875 27.478125 89.453125 27.478125Q88.875 27.478125 88.5625 27.30625Q88.25 27.11875 88.109375 26.821875Q87.984375 26.525 87.984375 25.571875L87.984375 21.99375L87.21875 21.99375L87.21875 21.18125L87.984375 21.18125L87.984375 19.634375L89.03125 19.009375L89.03125 21.18125L90.09375 21.18125L90.09375 21.99375L89.03125 21.99375L89.03125 25.634375Q89.03125 26.0875 89.078125 26.2125Q89.140625 26.3375 89.265625 26.415625Q89.390625 26.49375 89.625 26.49375Q89.8125 26.49375 90.09375 26.4625ZM90.796875 20.025L90.796875 18.80625L91.859375 18.80625L91.859375 20.025L90.796875 20.025ZM90.796875 27.4L90.796875 21.18125L91.859375 21.18125L91.859375 27.4L90.796875 27.4ZM93.796875 27.4L93.796875 21.18125L94.734375 21.18125L94.734375 22.05625Q95.03125 21.5875 95.515625 21.321875Q96.0 21.040625 96.625 21.040625Q97.3125 21.040625 97.75 21.321875Q98.203125 21.603125 98.375 22.11875Q99.125 21.040625 100.296875 21.040625Q101.234375 21.040625 101.71875 21.55625Q102.21875 22.05625 102.21875 23.134375L102.21875 27.4L101.171875 27.4L101.171875 23.478125Q101.171875 22.853125 101.0625 22.571875Q100.96875 22.290625 100.703125 22.11875Q100.4375 21.946875 100.0625 21.946875Q99.40625 21.946875 98.96875 22.384375Q98.546875 22.821875 98.546875 23.790625L98.546875 27.4L97.484375 27.4L97.484375 23.353125Q97.484375 22.65 97.21875 22.30625Q96.96875 21.946875 96.390625 21.946875Q95.9375 21.946875 95.5625 22.18125Q95.1875 22.415625 95.015625 22.86875Q94.84375 23.321875 94.84375 24.165625L94.84375 27.4L93.796875 27.4ZM104.40625 24.290625Q104.40625 22.55625 105.359375 21.728125Q106.15625 21.040625 107.3125 21.040625Q108.59375 21.040625 109.40625 21.884375Q110.234375 22.7125 110.234375 24.196875Q110.234375 25.4 109.875 26.0875Q109.515625 26.775 108.8125 27.165625Q108.125 27.540625 107.3125 27.540625Q106.015625 27.540625 105.203125 26.7125Q104.40625 25.86875 104.40625 24.290625ZM105.484375 24.290625Q105.484375 25.478125 106.0 26.071875Q106.53125 26.665625 107.3125 26.665625Q108.109375 26.665625 108.625 26.071875Q109.140625 25.478125 109.140625 24.259375Q109.140625 23.103125 108.609375 22.509375Q108.09375 21.915625 107.3125 21.915625Q106.53125 21.915625 106.0 22.509375Q105.484375 23.0875 105.484375 24.290625Z" fill-rule="nonzero"/><path fill="#ea4335" d="M139.0 23.4C139.0 26.713709 136.3137 29.4 133.0 29.4C129.6863 29.4 127.0 26.713709 127.0 23.4C127.0 20.086292 129.6863 17.4 133.0 17.4C136.3137 17.4 139.0 20.086292 139.0 23.4Z" fill-rule="nonzero"/><path fill="#1a1a1a" d="M150.375 27.4L147.04688 18.80625L148.28125 18.80625L150.51562 25.05625Q150.78125 25.80625 150.96875 26.4625Q151.17188 25.759375 151.4375 25.05625L153.75 18.80625L154.90625 18.80625L151.54688 27.4L150.375 27.4ZM158.85938 26.634375Q158.26562 27.134375 157.71875 27.3375Q157.1875 27.540625 156.5625 27.540625Q155.53125 27.540625 154.98438 27.040625Q154.4375 26.540625 154.4375 25.759375Q154.4375 25.30625 154.64062 24.93125Q154.84375 24.540625 155.1875 24.321875Q155.53125 24.0875 155.95312 23.978125Q156.25 23.884375 156.89062 23.80625Q158.15625 23.665625 158.76562 23.446875Q158.76562 23.228125 158.76562 23.18125Q158.76562 22.525 158.46875 22.259375Q158.0625 21.915625 157.26562 21.915625Q156.53125 21.915625 156.17188 22.18125Q155.8125 22.43125 155.64062 23.0875L154.60938 22.946875Q154.75 22.290625 155.07812 21.884375Q155.40625 21.478125 156.01562 21.259375Q156.625 21.040625 157.42188 21.040625Q158.21875 21.040625 158.71875 21.228125Q159.21875 21.415625 159.45312 21.696875Q159.6875 21.978125 159.78125 22.415625Q159.82812 22.68125 159.82812 23.384375L159.82812 24.790625Q159.82812 26.259375 159.89062 26.65Q159.96875 27.040625 160.17188 27.4L159.0625 27.4Q158.90625 27.071875 158.85938 26.634375ZM158.76562 24.275Q158.1875 24.509375 157.04688 24.68125Q156.39062 24.775 156.125 24.9Q155.85938 25.009375 155.70312 25.228125Q155.5625 25.446875 155.5625 25.728125Q155.5625 26.15 155.875 26.43125Q156.20312 26.7125 156.8125 26.7125Q157.42188 26.7125 157.89062 26.446875Q158.375 26.18125 158.59375 25.7125Q158.76562 25.353125 158.76562 24.665625L158.76562 24.275ZM161.76562 27.4L161.76562 18.80625L162.82812 18.80625L162.82812 27.4L161.76562 27.4ZM164.40625 24.290625Q164.40625 22.55625 165.35938 21.728125Q166.15625 21.040625 167.3125 21.040625Q168.59375 21.040625 169.40625 21.884375Q170.23438 22.7125 170.23438 24.196875Q170.23438 25.4 169.875 26.0875Q169.51562 26.775 168.8125 27.165625Q168.125 27.540625 167.3125 27.540625Q166.01562 27.540625 165.20312 26.7125Q164.40625 25.86875 164.40625 24.290625ZM165.48438 24.290625Q165.48438 25.478125 166.0 26.071875Q166.53125 26.665625 167.3125 26.665625Q168.10938 26.665625 168.625 26.071875Q169.14062 25.478125 169.14062 24.259375Q169.14062 23.103125 168.60938 22.509375Q168.09375 21.915625 167.3125 21.915625Q166.53125 21.915625 166.0 22.509375Q165.48438 23.0875 165.48438 24.290625ZM171.78125 27.4L171.78125 21.18125L172.73438 21.18125L172.73438 22.11875Q173.09375 21.4625 173.39062 21.259375Q173.70312 21.040625 174.07812 21.040625Q174.60938 21.040625 175.15625 21.36875L174.79688 22.353125Q174.40625 22.11875 174.03125 22.11875Q173.67188 22.11875 173.39062 22.3375Q173.125 22.540625 173.01562 22.915625Q172.82812 23.478125 172.82812 24.134375L172.82812 27.4L171.78125 27.4ZM180.04688 25.4L181.14062 25.525Q180.89062 26.478125 180.1875 27.009375Q179.48438 27.540625 178.40625 27.540625Q177.04688 27.540625 176.23438 26.696875Q175.4375 25.853125 175.4375 24.3375Q175.4375 22.775 176.25 21.915625Q177.0625 21.040625 178.34375 21.040625Q179.59375 21.040625 180.375 21.884375Q181.17188 22.728125 181.17188 24.275Q181.17188 24.36875 181.17188 24.55625L176.53125 24.55625Q176.59375 25.5875 177.10938 26.134375Q177.625 26.665625 178.40625 26.665625Q178.98438 26.665625 179.39062 26.36875Q179.8125 26.05625 180.04688 25.4ZM176.59375 23.696875L180.0625 23.696875Q180.0 22.9 179.67188 22.509375Q179.15625 21.9 178.35938 21.9Q177.625 21.9 177.125 22.384375Q176.64062 22.86875 176.59375 23.696875ZM189.85938 26.634375Q189.26562 27.134375 188.71875 27.3375Q188.1875 27.540625 187.5625 27.540625Q186.53125 27.540625 185.98438 27.040625Q185.4375 26.540625 185.4375 25.759375Q185.4375 25.30625 185.64062 24.93125Q185.84375 24.540625 186.1875 24.321875Q186.53125 24.0875 186.95312 23.978125Q187.25 23.884375 187.89062 23.80625Q189.15625 23.665625 189.76562 23.446875Q189.76562 23.228125 189.76562 23.18125Q189.76562 22.525 189.46875 22.259375Q189.0625 21.915625 188.26562 21.915625Q187.53125 21.915625 187.17188 22.18125Q186.8125 22.43125 186.64062 23.0875L185.60938 22.946875Q185.75 22.290625 186.07812 21.884375Q186.40625 21.478125 187.01562 21.259375Q187.625 21.040625 188.42188 21.040625Q189.21875 21.040625 189.71875 21.228125Q190.21875 21.415625 190.45312 21.696875Q190.6875 21.978125 190.78125 22.415625Q190.82812 22.68125 190.82812 23.384375L190.82812 24.790625Q190.82812 26.259375 190.89062 26.65Q190.96875 27.040625 191.17188 27.4L190.0625 27.4Q189.90625 27.071875 189.85938 26.634375ZM189.76562 24.275Q189.1875 24.509375 188.04688 24.68125Q187.39062 24.775 187.125 24.9Q186.85938 25.009375 186.70312 25.228125Q186.5625 25.446875 186.5625 25.728125Q186.5625 26.15 186.875 26.43125Q187.20312 26.7125 187.8125 26.7125Q188.42188 26.7125 188.89062 26.446875Q189.375 26.18125 189.59375 25.7125Q189.76562 25.353125 189.76562 24.665625L189.76562 24.275ZM196.85938 25.11875L197.89062 25.259375Q197.71875 26.321875 197.01562 26.93125Q196.3125 27.540625 195.29688 27.540625Q194.01562 27.540625 193.23438 26.7125Q192.46875 25.86875 192.46875 24.30625Q192.46875 23.30625 192.79688 22.55625Q193.14062 21.790625 193.8125 21.415625Q194.5 21.040625 195.3125 21.040625Q196.3125 21.040625 196.95312 21.55625Q197.60938 22.05625 197.79688 23.009375L196.76562 23.165625Q196.625 22.540625 196.25 22.228125Q195.875 21.9 195.34375 21.9Q194.54688 21.9 194.04688 22.478125Q193.54688 23.040625 193.54688 24.275Q193.54688 25.540625 194.03125 26.103125Q194.51562 26.665625 195.28125 26.665625Q195.90625 26.665625 196.3125 26.290625Q196.73438 25.915625 196.85938 25.11875ZM202.85938 25.11875L203.89062 25.259375Q203.71875 26.321875 203.01562 26.93125Q202.3125 27.540625 201.29688 27.540625Q200.01562 27.540625 199.23438 26.7125Q198.46875 25.86875 198.46875 24.30625Q198.46875 23.30625 198.79688 22.55625Q199.14062 21.790625 199.8125 21.415625Q200.5 21.040625 201.3125 21.040625Q202.3125 21.040625 202.95312 21.55625Q203.60938 22.05625 203.79688 23.009375L202.76562 23.165625Q202.625 22.540625 202.25 22.228125Q201.875 21.9 201.34375 21.9Q200.54688 21.9 200.04688 22.478125Q199.54688 23.040625 199.54688 24.275Q199.54688 25.540625 200.03125 26.103125Q200.51562 26.665625 201.28125 26.665625Q201.90625 26.665625 202.3125 26.290625Q202.73438 25.915625 202.85938 25.11875ZM209.04688 25.4L210.14062 25.525Q209.89062 26.478125 209.1875 27.009375Q208.48438 27.540625 207.40625 27.540625Q206.04688 27.540625 205.23438 26.696875Q204.4375 25.853125 204.4375 24.3375Q204.4375 22.775 205.25 21.915625Q206.0625 21.040625 207.34375 21.040625Q208.59375 21.040625 209.375 21.884375Q210.17188 22.728125 210.17188 24.275Q210.17188 24.36875 210.17188 24.55625L205.53125 24.55625Q205.59375 25.5875 206.10938 26.134375Q206.625 26.665625 207.40625 26.665625Q207.98438 26.665625 208.39062 26.36875Q208.8125 26.05625 209.04688 25.4ZM205.59375 23.696875L209.0625 23.696875Q209.0 22.9 208.67188 22.509375Q208.15625 21.9 207.35938 21.9Q206.625 21.9 206.125 22.384375Q205.64062 22.86875 205.59375 23.696875ZM214.09375 26.4625L214.25 27.384375Q213.79688 27.478125 213.45312 27.478125Q212.875 27.478125 212.5625 27.30625Q212.25 27.11875 212.10938 26.821875Q211.98438 26.525 211.98438 25.571875L211.98438 21.99375L211.21875 21.99375L211.21875 21.18125L211.98438 21.18125L211.98438 19.634375L213.03125 19.009375L213.03125 21.18125L214.09375 21.18125L214.09375 21.99375L213.03125 21.99375L213.03125 25.634375Q213.03125 26.0875 213.07812 26.2125Q213.14062 26.3375 213.26562 26.415625Q213.39062 26.49375 213.625 26.49375Q213.8125 26.49375 214.09375 26.4625ZM217.09375 26.4625L217.25 27.384375Q216.79688 27.478125 216.45312 27.478125Q215.875 27.478125 215.5625 27.30625Q215.25 27.11875 215.10938 26.821875Q214.98438 26.525 214.98438 25.571875L214.98438 21.99375L214.21875 21.99375L214.21875 21.18125L214.98438 21.18125L214.98438 19.634375L216.03125 19.009375L216.03125 21.18125L217.09375 21.18125L217.09375 21.99375L216.03125 21.99375L216.03125 25.634375Q216.03125 26.0875 216.07812 26.2125Q216.14062 26.3375 216.26562 26.415625Q216.39062 26.49375 216.625 26.49375Q216.8125 26.49375 217.09375 26.4625ZM221.85938 26.634375Q221.26562 27.134375 220.71875 27.3375Q220.1875 27.540625 219.5625 27.540625Q218.53125 27.540625 217.98438 27.040625Q217.4375 26.540625 217.4375 25.759375Q217.4375 25.30625 217.64062 24.93125Q217.84375 24.540625 218.1875 24.321875Q218.53125 24.0875 218.95312 23.978125Q219.25 23.884375 219.89062 23.80625Q221.15625 23.665625 221.76562 23.446875Q221.76562 23.228125 221.76562 23.18125Q221.76562 22.525 221.46875 22.259375Q221.0625 21.915625 220.26562 21.915625Q219.53125 21.915625 219.17188 22.18125Q218.8125 22.43125 218.64062 23.0875L217.60938 22.946875Q217.75 22.290625 218.07812 21.884375Q218.40625 21.478125 219.01562 21.259375Q219.625 21.040625 220.42188 21.040625Q221.21875 21.040625 221.71875 21.228125Q222.21875 21.415625 222.45312 21.696875Q222.6875 21.978125 222.78125 22.415625Q222.82812 22.68125 222.82812 23.384375L222.82812 24.790625Q222.82812 26.259375 222.89062 26.65Q222.96875 27.040625 223.17188 27.4L222.0625 27.4Q221.90625 27.071875 221.85938 26.634375ZM221.76562 24.275Q221.1875 24.509375 220.04688 24.68125Q219.39062 24.775 219.125 24.9Q218.85938 25.009375 218.70312 25.228125Q218.5625 25.446875 218.5625 25.728125Q218.5625 26.15 218.875 26.43125Q219.20312 26.7125 219.8125 26.7125Q220.42188 26.7125 220.89062 26.446875Q221.375 26.18125 221.59375 25.7125Q221.76562 25.353125 221.76562 24.665625L221.76562 24.275ZM225.76562 27.4L224.78125 27.4L224.78125 18.80625L225.84375 18.80625L225.84375 21.86875Q226.51562 21.040625 227.54688 21.040625Q228.125 21.040625 228.625 21.275Q229.14062 21.49375 229.46875 21.915625Q229.8125 22.3375 230.0 22.93125Q230.1875 23.525 230.1875 24.196875Q230.1875 25.790625 229.39062 26.665625Q228.59375 27.540625 227.5 27.540625Q226.39062 27.540625 225.76562 26.61875L225.76562 27.4ZM225.75 24.24375Q225.75 25.353125 226.0625 25.853125Q226.5625 26.665625 227.40625 26.665625Q228.09375 26.665625 228.59375 26.071875Q229.10938 25.478125 229.10938 24.275Q229.10938 23.05625 228.625 22.478125Q228.14062 21.9 227.45312 21.9Q226.76562 21.9 226.25 22.509375Q225.75 23.103125 225.75 24.24375ZM231.79688 20.025L231.79688 18.80625L232.85938 18.80625L232.85938 20.025L231.79688 20.025ZM231.79688 27.4L231.79688 21.18125L232.85938 21.18125L232.85938 27.4L231.79688 27.4ZM234.76562 27.4L234.76562 18.80625L235.82812 18.80625L235.82812 27.4L234.76562 27.4ZM242.04688 25.4L243.14062 25.525Q242.89062 26.478125 242.1875 27.009375Q241.48438 27.540625 240.40625 27.540625Q239.04688 27.540625 238.23438 26.696875Q237.4375 25.853125 237.4375 24.3375Q237.4375 22.775 238.25 21.915625Q239.0625 21.040625 240.34375 21.040625Q241.59375 21.040625 242.375 21.884375Q243.17188 22.728125 243.17188 24.275Q243.17188 24.36875 243.17188 24.55625L238.53125 24.55625Q238.59375 25.5875 239.10938 26.134375Q239.625 26.665625 240.40625 26.665625Q240.98438 26.665625 241.39062 26.36875Q241.8125 26.05625 242.04688 25.4ZM238.59375 23.696875L242.0625 23.696875Q242.0 22.9 241.67188 22.509375Q241.15625 21.9 240.35938 21.9Q239.625 21.9 239.125 22.384375Q238.64062 22.86875 238.59375 23.696875Z" fill-rule="nonzero"/><path fill="#fbbc04" fill-opacity="0.5019608" d="M272.0 23.4C272.0 26.713709 269.31372 29.4 266.0 29.4C262.68628 29.4 260.0 26.713709 260.0 23.4C260.0 20.086292 262.68628 17.4 266.0 17.4C269.31372 17.4 272.0 20.086292 272.0 23.4Z" fill-rule="nonzero"/><path fill="#1a1a1a" d="M284.95312 24.025L284.95312 23.025L288.57812 23.009375L288.57812 26.196875Q287.75 26.86875 286.85938 27.2125Q285.96875 27.540625 285.03125 27.540625Q283.76562 27.540625 282.71875 27.009375Q281.6875 26.4625 281.15625 25.446875Q280.64062 24.415625 280.64062 23.15Q280.64062 21.884375 281.15625 20.80625Q281.6875 19.7125 282.67188 19.196875Q283.65625 18.665625 284.9375 18.665625Q285.875 18.665625 286.625 18.9625Q287.375 19.259375 287.79688 19.80625Q288.23438 20.3375 288.45312 21.2125L287.4375 21.49375Q287.23438 20.8375 286.9375 20.4625Q286.65625 20.0875 286.125 19.86875Q285.59375 19.634375 284.95312 19.634375Q284.17188 19.634375 283.59375 19.86875Q283.03125 20.103125 282.67188 20.49375Q282.32812 20.884375 282.14062 21.353125Q281.8125 22.15 281.8125 23.071875Q281.8125 24.228125 282.20312 25.009375Q282.60938 25.775 283.35938 26.15Q284.10938 26.525 284.96875 26.525Q285.70312 26.525 286.40625 26.24375Q287.10938 25.946875 287.46875 25.634375L287.46875 24.025L284.95312 24.025ZM289.76562 27.4L289.76562 18.80625L290.82812 18.80625L290.82812 27.4L289.76562 27.4ZM292.40625 24.290625Q292.40625 22.55625 293.35938 21.728125Q294.15625 21.040625 295.3125 21.040625Q296.59375 21.040625 297.40625 21.884375Q298.23438 22.7125 298.23438 24.196875Q298.23438 25.4 297.875 26.0875Q297.51562 26.775 296.8125 27.165625Q296.125 27.540625 295.3125 27.540625Q294.01562 27.540625 293.20312 26.7125Q292.40625 25.86875 292.40625 24.290625ZM293.48438 24.290625Q293.48438 25.478125 294.0 26.071875Q294.53125 26.665625 295.3125 26.665625Q296.10938 26.665625 296.625 26.071875Q297.14062 25.478125 297.14062 24.259375Q297.14062 23.103125 296.60938 22.509375Q296.09375 21.915625 295.3125 21.915625Q294.53125 21.915625 294.0 22.509375Q293.48438 23.0875 293.48438 24.290625ZM299.375 25.540625L300.40625 25.384375Q300.5 26.009375 300.89062 26.3375Q301.29688 26.665625 302.03125 26.665625Q302.75 26.665625 303.09375 26.384375Q303.45312 26.0875 303.45312 25.68125Q303.45312 25.321875 303.14062 25.11875Q302.92188 24.978125 302.0625 24.759375Q300.90625 24.4625 300.45312 24.259375Q300.01562 24.040625 299.78125 23.665625Q299.54688 23.290625 299.54688 22.821875Q299.54688 22.415625 299.73438 22.05625Q299.92188 21.696875 300.25 21.4625Q300.5 21.290625 300.92188 21.165625Q301.34375 21.040625 301.84375 21.040625Q302.5625 21.040625 303.10938 21.259375Q303.67188 21.4625 303.9375 21.821875Q304.20312 22.18125 304.29688 22.775L303.26562 22.915625Q303.20312 22.446875 302.85938 22.18125Q302.53125 21.9 301.90625 21.9Q301.1875 21.9 300.875 22.15Q300.5625 22.384375 300.5625 22.7125Q300.5625 22.915625 300.6875 23.071875Q300.82812 23.24375 301.09375 23.353125Q301.25 23.415625 302.03125 23.61875Q303.15625 23.93125 303.59375 24.11875Q304.03125 24.30625 304.28125 24.665625Q304.53125 25.025 304.53125 25.571875Q304.53125 26.103125 304.21875 26.571875Q303.92188 27.025 303.34375 27.290625Q302.76562 27.540625 302.03125 27.540625Q300.8125 27.540625 300.17188 27.040625Q299.54688 26.525 299.375 25.540625ZM306.375 25.540625L307.40625 25.384375Q307.5 26.009375 307.89062 26.3375Q308.29688 26.665625 309.03125 26.665625Q309.75 26.665625 310.09375 26.384375Q310.45312 26.0875 310.45312 25.68125Q310.45312 25.321875 310.14062 25.11875Q309.92188 24.978125 309.0625 24.759375Q307.90625 24.4625 307.45312 24.259375Q307.01562 24.040625 306.78125 23.665625Q306.54688 23.290625 306.54688 22.821875Q306.54688 22.415625 306.73438 22.05625Q306.92188 21.696875 307.25 21.4625Q307.5 21.290625 307.92188 21.165625Q308.34375 21.040625 308.84375 21.040625Q309.5625 21.040625 310.10938 21.259375Q310.67188 21.4625 310.9375 21.821875Q311.20312 22.18125 311.29688 22.775L310.26562 22.915625Q310.20312 22.446875 309.85938 22.18125Q309.53125 21.9 308.90625 21.9Q308.1875 21.9 307.875 22.15Q307.5625 22.384375 307.5625 22.7125Q307.5625 22.915625 307.6875 23.071875Q307.82812 23.24375 308.09375 23.353125Q308.25 23.415625 309.03125 23.61875Q310.15625 23.93125 310.59375 24.11875Q311.03125 24.30625 311.28125 24.665625Q311.53125 25.025 311.53125 25.571875Q311.53125 26.103125 311.21875 26.571875Q310.92188 27.025 310.34375 27.290625Q309.76562 27.540625 309.03125 27.540625Q307.8125 27.540625 307.17188 27.040625Q306.54688 26.525 306.375 25.540625ZM317.85938 26.634375Q317.26562 27.134375 316.71875 27.3375Q316.1875 27.540625 315.5625 27.540625Q314.53125 27.540625 313.98438 27.040625Q313.4375 26.540625 313.4375 25.759375Q313.4375 25.30625 313.64062 24.93125Q313.84375 24.540625 314.1875 24.321875Q314.53125 24.0875 314.95312 23.978125Q315.25 23.884375 315.89062 23.80625Q317.15625 23.665625 317.76562 23.446875Q317.76562 23.228125 317.76562 23.18125Q317.76562 22.525 317.46875 22.259375Q317.0625 21.915625 316.26562 21.915625Q315.53125 21.915625 315.17188 22.18125Q314.8125 22.43125 314.64062 23.0875L313.60938 22.946875Q313.75 22.290625 314.07812 21.884375Q314.40625 21.478125 315.01562 21.259375Q315.625 21.040625 316.42188 21.040625Q317.21875 21.040625 317.71875 21.228125Q318.21875 21.415625 318.45312 21.696875Q318.6875 21.978125 318.78125 22.415625Q318.82812 22.68125 318.82812 23.384375L318.82812 24.790625Q318.82812 26.259375 318.89062 26.65Q318.96875 27.040625 319.17188 27.4L318.0625 27.4Q317.90625 27.071875 317.85938 26.634375ZM317.76562 24.275Q317.1875 24.509375 316.04688 24.68125Q315.39062 24.775 315.125 24.9Q314.85938 25.009375 314.70312 25.228125Q314.5625 25.446875 314.5625 25.728125Q314.5625 26.15 314.875 26.43125Q315.20312 26.7125 315.8125 26.7125Q316.42188 26.7125 316.89062 26.446875Q317.375 26.18125 317.59375 25.7125Q317.76562 25.353125 317.76562 24.665625L317.76562 24.275ZM320.78125 27.4L320.78125 21.18125L321.73438 21.18125L321.73438 22.11875Q322.09375 21.4625 322.39062 21.259375Q322.70312 21.040625 323.07812 21.040625Q323.60938 21.040625 324.15625 21.36875L323.79688 22.353125Q323.40625 22.11875 323.03125 22.11875Q322.67188 22.11875 322.39062 22.3375Q322.125 22.540625 322.01562 22.915625Q321.82812 23.478125 321.82812 24.134375L321.82812 27.4L320.78125 27.4ZM324.79688 20.025L324.79688 18.80625L325.85938 18.80625L325.85938 20.025L324.79688 20.025ZM324.79688 27.4L324.79688 21.18125L325.85938 21.18125L325.85938 27.4L324.79688 27.4ZM327.40625 24.290625Q327.40625 22.55625 328.35938 21.728125Q329.15625 21.040625 330.3125 21.040625Q331.59375 21.040625 332.40625 21.884375Q333.23438 22.7125 333.23438 24.196875Q333.23438 25.4 332.875 26.0875Q332.51562 26.775 331.8125 27.165625Q331.125 27.540625 330.3125 27.540625Q329.01562 27.540625 328.20312 26.7125Q327.40625 25.86875 327.40625 24.290625ZM328.48438 24.290625Q328.48438 25.478125 329.0 26.071875Q329.53125 26.665625 330.3125 26.665625Q331.10938 26.665625 331.625 26.071875Q332.14062 25.478125 332.14062 24.259375Q332.14062 23.103125 331.60938 22.509375Q331.09375 21.915625 330.3125 21.915625Q329.53125 21.915625 329.0 22.509375Q328.48438 23.0875 328.48438 24.290625Z" fill-rule="nonzero"/><path fill="#34a853" fill-opacity="0.5019608" d="M362.0 23.4C362.0 26.713709 359.31372 29.4 356.0 29.4C352.68628 29.4 350.0 26.713709 350.0 23.4C350.0 20.086292 352.68628 17.4 356.0 17.4C359.31372 17.4 362.0 20.086292 362.0 23.4Z" fill-rule="nonzero"/><path fill="#1a1a1a" d="M370.92188 27.4L370.92188 18.80625L372.07812 18.80625L376.59375 25.55625L376.59375 18.80625L377.6875 18.80625L377.6875 27.4L376.51562 27.4L372.0 20.65L372.0 27.4L370.92188 27.4ZM383.82812 27.4L383.82812 26.61875Q383.23438 27.540625 382.09375 27.540625Q381.34375 27.540625 380.71875 27.134375Q380.09375 26.7125 379.75 25.978125Q379.40625 25.24375 379.40625 24.290625Q379.40625 23.36875 379.71875 22.603125Q380.03125 21.8375 380.65625 21.446875Q381.28125 21.040625 382.04688 21.040625Q382.60938 21.040625 383.04688 21.275Q383.48438 21.509375 383.76562 21.884375L383.76562 18.80625L384.8125 18.80625L384.8125 27.4L383.82812 27.4ZM380.5 24.290625Q380.5 25.49375 381.0 26.0875Q381.5 26.665625 382.1875 26.665625Q382.875 26.665625 383.35938 26.103125Q383.84375 25.540625 383.84375 24.384375Q383.84375 23.103125 383.34375 22.509375Q382.85938 21.915625 382.14062 21.915625Q381.4375 21.915625 380.96875 22.49375Q380.5 23.05625 380.5 24.290625ZM386.92188 27.4L386.92188 18.80625L390.17188 18.80625Q391.01562 18.80625 391.46875 18.884375Q392.10938 18.99375 392.53125 19.290625Q392.96875 19.5875 393.21875 20.11875Q393.48438 20.65 393.48438 21.290625Q393.48438 22.384375 392.78125 23.15Q392.09375 23.9 390.26562 23.9L388.0625 23.9L388.0625 27.4L386.92188 27.4ZM388.0625 22.9L390.28125 22.9Q391.39062 22.9 391.84375 22.49375Q392.3125 22.071875 392.3125 21.321875Q392.3125 20.790625 392.03125 20.415625Q391.76562 20.025 391.32812 19.9Q391.03125 19.821875 390.26562 19.821875L388.0625 19.821875L388.0625 22.9Z" fill-rule="nonzero"/><path fill="#ff6d01" fill-opacity="0.5019608" d="M422.0 23.4C422.0 26.713709 419.31372 29.4 416.0 29.4C412.68628 29.4 410.0 26.713709 410.0 23.4C410.0 20.086292 412.68628 17.4 416.0 17.4C419.31372 17.4 422.0 20.086292 422.0 23.4Z" fill-rule="nonzero"/><path fill="#1a1a1a" d="M430.92188 27.4L430.92188 18.80625L434.17188 18.80625Q435.01562 18.80625 435.46875 18.884375Q436.10938 18.99375 436.53125 19.290625Q436.96875 19.5875 437.21875 20.11875Q437.48438 20.65 437.48438 21.290625Q437.48438 22.384375 436.78125 23.15Q436.09375 23.9 434.26562 23.9L432.0625 23.9L432.0625 27.4L430.92188 27.4ZM432.0625 22.9L434.28125 22.9Q435.39062 22.9 435.84375 22.49375Q436.3125 22.071875 436.3125 21.321875Q436.3125 20.790625 436.03125 20.415625Q435.76562 20.025 435.32812 19.9Q435.03125 19.821875 434.26562 19.821875L432.0625 19.821875L432.0625 22.9ZM442.82812 27.4L442.82812 26.61875Q442.23438 27.540625 441.09375 27.540625Q440.34375 27.540625 439.71875 27.134375Q439.09375 26.7125 438.75 25.978125Q438.40625 25.24375 438.40625 24.290625Q438.40625 23.36875 438.71875 22.603125Q439.03125 21.8375 439.65625 21.446875Q440.28125 21.040625 441.04688 21.040625Q441.60938 21.040625 442.04688 21.275Q442.48438 21.509375 442.76562 21.884375L442.76562 18.80625L443.8125 18.80625L443.8125 27.4L442.82812 27.4ZM439.5 24.290625Q439.5 25.49375 440.0 26.0875Q440.5 26.665625 441.1875 26.665625Q441.875 26.665625 442.35938 26.103125Q442.84375 25.540625 442.84375 24.384375Q442.84375 23.103125 442.34375 22.509375Q441.85938 21.915625 441.14062 21.915625Q440.4375 21.915625 439.96875 22.49375Q439.5 23.05625 439.5 24.290625ZM452.4375 26.478125Q453.23438 27.025 453.89062 27.275L453.5625 28.071875Q452.64062 27.728125 451.71875 27.009375Q450.76562 27.540625 449.60938 27.540625Q448.4375 27.540625 447.48438 26.978125Q446.54688 26.415625 446.03125 25.4Q445.51562 24.384375 445.51562 23.103125Q445.51562 21.8375 446.03125 20.790625Q446.54688 19.74375 447.5 19.196875Q448.45312 18.65 449.625 18.65Q450.8125 18.65 451.76562 19.228125Q452.73438 19.790625 453.23438 20.80625Q453.73438 21.821875 453.73438 23.103125Q453.73438 24.165625 453.40625 25.009375Q453.09375 25.853125 452.4375 26.478125ZM449.9375 25.025Q450.92188 25.30625 451.5625 25.853125Q452.5625 24.93125 452.5625 23.103125Q452.5625 22.05625 452.20312 21.275Q451.84375 20.49375 451.15625 20.071875Q450.48438 19.634375 449.64062 19.634375Q448.35938 19.634375 447.51562 20.509375Q446.6875 21.36875 446.6875 23.103125Q446.6875 24.775 447.51562 25.68125Q448.34375 26.571875 449.64062 26.571875Q450.25 26.571875 450.78125 26.3375Q450.25 25.99375 449.65625 25.853125L449.9375 25.025Z" fill-rule="nonzero"/><path fill="#46bdc6" fill-opacity="0.5019608" d="M482.0 23.4C482.0 26.713709 479.31372 29.4 476.0 29.4C472.68628 29.4 470.0 26.713709 470.0 23.4C470.0 20.086292 472.68628 17.4 476.0 17.4C479.31372 17.4 482.0 20.086292 482.0 23.4Z" fill-rule="nonzero"/><path fill="#1a1a1a" d="M489.98438 27.4L493.28125 18.80625L494.5 18.80625L498.01562 27.4L496.73438 27.4L495.71875 24.790625L492.14062 24.790625L491.1875 27.4L489.98438 27.4ZM492.46875 23.86875L495.375 23.86875L494.48438 21.49375Q494.0625 20.415625 493.875 19.7125Q493.70312 20.540625 493.40625 21.353125L492.46875 23.86875ZM501.82812 27.4L501.82812 26.61875Q501.23438 27.540625 500.09375 27.540625Q499.34375 27.540625 498.71875 27.134375Q498.09375 26.7125 497.75 25.978125Q497.40625 25.24375 497.40625 24.290625Q497.40625 23.36875 497.71875 22.603125Q498.03125 21.8375 498.65625 21.446875Q499.28125 21.040625 500.04688 21.040625Q500.60938 21.040625 501.04688 21.275Q501.48438 21.509375 501.76562 21.884375L501.76562 18.80625L502.8125 18.80625L502.8125 27.4L501.82812 27.4ZM498.5 24.290625Q498.5 25.49375 499.0 26.0875Q499.5 26.665625 500.1875 26.665625Q500.875 26.665625 501.35938 26.103125Q501.84375 25.540625 501.84375 24.384375Q501.84375 23.103125 501.34375 22.509375Q500.85938 21.915625 500.14062 21.915625Q499.4375 21.915625 498.96875 22.49375Q498.5 23.05625 498.5 24.290625ZM504.9375 27.4L504.9375 18.80625L508.75 18.80625Q509.90625 18.80625 510.5 19.040625Q511.09375 19.275 511.45312 19.86875Q511.8125 20.446875 511.8125 21.15Q511.8125 22.071875 511.21875 22.696875Q510.625 23.321875 509.39062 23.49375Q509.84375 23.7125 510.07812 23.915625Q510.57812 24.36875 511.01562 25.05625L512.5156 27.4L511.07812 27.4L509.95312 25.61875Q509.45312 24.8375 509.125 24.43125Q508.8125 24.025 508.54688 23.86875Q508.29688 23.696875 508.03125 23.61875Q507.84375 23.5875 507.40625 23.5875L506.07812 23.5875L506.07812 27.4L504.9375 27.4ZM506.07812 22.603125L508.53125 22.603125Q509.29688 22.603125 509.73438 22.446875Q510.1875 22.275 510.40625 21.93125Q510.64062 21.571875 510.64062 21.15Q510.64062 20.540625 510.1875 20.15Q509.75 19.759375 508.79688 19.759375L506.07812 19.759375L506.07812 22.603125Z" fill-rule="nonzero"/></svg>