<svg version="1.1" viewBox="0.0 0.0 532.0 328.0" fill="none" stroke="none" stroke-linecap="square" stroke-miterlimit="10" width="532" height="328" xmlns:xlink="http://www.w3.org/1999/xlink" xmlns="http://www.w3.org/2000/svg"><path fill="#ffffff" d="M0 0L532.0 0L532.0 328.0L0 328.0L0 0Z" fill-rule="nonzero"/><path stroke="#333333" stroke-width="1.0" stroke-linecap="butt" d="M84.5 285.5L515.5 285.5" fill-rule="nonzero"/><path stroke="#cccccc" stroke-width="1.0" stroke-linecap="butt" d="M84.5 255.5L515.5 255.5" fill-rule="nonzero"/><path stroke="#cccccc" stroke-width="1.0" stroke-linecap="butt" d="M84.5 226.5L515.5 226.5" fill-rule="nonzero"/><path stroke="#cccccc" stroke-width="1.0" stroke-linecap="butt" d="M84.5 196.5L515.5 196.5" fill-rule="nonzero"/><path stroke="#cccccc" stroke-width="1.0" stroke-linecap="butt" d="M84.5 166.5L515.5 166.5" fill-rule="nonzero"/><path stroke="#cccccc" stroke-width="1.0" stroke-linecap="butt" d="M84.5 137.5L515.5 137.5" fill-rule="nonzero"/><path stroke="#cccccc" stroke-width="1.0" stroke-linecap="butt" d="M84.5 107.5L515.5 107.5" fill-rule="nonzero"/><path stroke="#cccccc" stroke-width="1.0" stroke-linecap="butt" d="M84.5 77.5L515.5 77.5" fill-rule="nonzero"/><path stroke="#cccccc" stroke-width="1.0" stroke-linecap="butt" d="M84.5 48.5L515.5 48.5" fill-rule="nonzero"/><path stroke="#000000" stroke-width="1.0" stroke-linecap="butt" d="M515.5 285.5L84.5 285.5" fill-rule="nonzero"/><path stroke="#000000" stroke-width="1.0" stroke-linecap="butt" d="M84.5 285.5L84.5 48.5" fill-rule="nonzero"/><clipPath id="id_0"><path d="M84.4 48.333332L515.6 48.333332L515.6 285.6L84.4 285.6L84.4 48.333332Z" clip-rule="nonzero"/></clipPath><path stroke="#4285f4" stroke-width="2.0" stroke-linecap="butt" clip-path="url(#id_0)" d="M111.35 176.45972C111.35 176.45972 147.28334 174.39249 165.25 173.41849C183.21666 172.44449 201.18333 171.18134 219.15 170.61568C237.11667 170.05002 255.08333 170.21877 273.05 170.02452C291.01666 169.83026 308.98334 169.59854 326.95 169.45016C344.91666 169.30179 362.88333 169.37755 380.85 169.13426C398.81668 168.89098 416.78333 168.12164 434.75 167.99045C452.71667 167.85925 488.65 168.34708 488.65 168.34708" fill-rule="nonzero"/><path stroke="#ea4335" stroke-width="2.0" stroke-linecap="butt" clip-path="url(#id_0)" d="M111.35 155.10333C111.35 155.10333 147.28334 155.10333 165.25 155.10333C183.21666 155.10333 201.18333 155.10333 219.15 155.10333C237.11667 155.10333 255.08333 155.10333 273.05 155.10333C291.01666 155.10333 308.98334 155.10333 326.95 155.10333C344.91666 155.10333 362.88333 155.10333 380.85 155.10333C398.81668 155.10333 416.78333 155.10333 434.75 155.10333C452.71667 155.10333 488.65 155.10333 488.65 155.10333" fill-rule="nonzero"/><path stroke="#fbbc04" stroke-width="2.0" stroke-linecap="butt" stroke-opacity="0.7019608" clip-path="url(#id_0)" d="M111.35 178.83C111.35 178.83 147.28334 178.83 165.25 178.83C183.21666 178.83 201.18333 178.83 219.15 178.83C237.11667 178.83 255.08333 178.83 273.05 178.83C291.01666 178.83 308.98334 178.83 326.95 178.83C344.91666 178.83 362.88333 178.83 380.85 178.83C398.81668 178.83 416.78333 178.83 434.75 178.83C452.71667 178.83 488.65 178.83 488.65 178.83" fill-rule="nonzero"/><path fill="#4285f4" clip-path="url(#id_0)" d="M114.85 176.45972C114.85 178.39272 113.283 179.95972 111.35 179.95972C109.417 179.95972 107.85 178.39272 107.85 176.45972C107.85 174.52672 109.417 172.95972 111.35 172.95972C113.283 172.95972 114.85 174.52672 114.85 176.45972Z" fill-rule="nonzero"/><path fill="#4285f4" clip-path="url(#id_0)" d="M168.75 173.41849C168.75 175.35149 167.183 176.91849 165.25 176.91849C163.317 176.91849 161.75 175.35149 161.75 173.41849C161.75 171.48549 163.317 169.91849 165.25 169.91849C167.183 169.91849 168.75 171.48549 168.75 173.41849Z" fill-rule="nonzero"/><path fill="#4285f4" clip-path="url(#id_0)" d="M222.65 170.61568C222.65 172.54868 221.083 174.11568 219.15 174.11568C217.21701 174.11568 215.65 172.54868 215.65 170.61568C215.65 168.68268 217.21701 167.11568 219.15 167.11568C221.083 167.11568 222.65 168.68268 222.65 170.61568Z" fill-rule="nonzero"/><path fill="#4285f4" clip-path="url(#id_0)" d="M276.55 170.02452C276.55 171.95752 274.983 173.52452 273.05 173.52452C271.117 173.52452 269.55 171.95752 269.55 170.02452C269.55 168.09152 271.117 166.52452 273.05 166.52452C274.983 166.52452 276.55 168.09152 276.55 170.02452Z" fill-rule="nonzero"/><path fill="#4285f4" clip-path="url(#id_0)" d="M330.45 169.45016C330.45 171.38316 328.883 172.95016 326.95 172.95016C325.017 172.95016 323.45 171.38316 323.45 169.45016C323.45 167.51717 325.017 165.95016 326.95 165.95016C328.883 165.95016 330.45 167.51717 330.45 169.45016Z" fill-rule="nonzero"/><path fill="#4285f4" clip-path="url(#id_0)" d="M384.35 169.13426C384.35 171.06726 382.783 172.63426 380.85 172.63426C378.917 172.63426 377.35 171.06726 377.35 169.13426C377.35 167.20128 378.917 165.63426 380.85 165.63426C382.783 165.63426 384.35 167.20128 384.35 169.13426Z" fill-rule="nonzero"/><path fill="#4285f4" clip-path="url(#id_0)" d="M438.25 167.99045C438.25 169.92345 436.68298 171.49045 434.75 171.49045C432.81702 171.49045 431.25 169.92345 431.25 167.99045C431.25 166.05745 432.81702 164.49045 434.75 164.49045C436.68298 164.49045 438.25 166.05745 438.25 167.99045Z" fill-rule="nonzero"/><path fill="#4285f4" clip-path="url(#id_0)" d="M492.15 168.34708C492.15 170.28008 490.583 171.84708 488.65 171.84708C486.717 171.84708 485.15 170.28008 485.15 168.34708C485.15 166.4141 486.717 164.84708 488.65 164.84708C490.583 164.84708 492.15 166.4141 492.15 168.34708Z" fill-rule="nonzero"/><path fill="#ea4335" clip-path="url(#id_0)" d="M114.85 155.10333C114.85 157.03633 113.283 158.60333 111.35 158.60333C109.417 158.60333 107.85 157.03633 107.85 155.10333C107.85 153.17033 109.417 151.60333 111.35 151.60333C113.283 151.60333 114.85 153.17033 114.85 155.10333Z" fill-rule="nonzero"/><path fill="#ea4335" clip-path="url(#id_0)" d="M168.75 155.10333C168.75 157.03633 167.183 158.60333 165.25 158.60333C163.317 158.60333 161.75 157.03633 161.75 155.10333C161.75 153.17033 163.317 151.60333 165.25 151.60333C167.183 151.60333 168.75 153.17033 168.75 155.10333Z" fill-rule="nonzero"/><path fill="#ea4335" clip-path="url(#id_0)" d="M222.65 155.10333C222.65 157.03633 221.083 158.60333 219.15 158.60333C217.21701 158.60333 215.65 157.03633 215.65 155.10333C215.65 153.17033 217.21701 151.60333 219.15 151.60333C221.083 151.60333 222.65 153.17033 222.65 155.10333Z" fill-rule="nonzero"/><path fill="#ea4335" clip-path="url(#id_0)" d="M276.55 155.10333C276.55 157.03633 274.983 158.60333 273.05 158.60333C271.117 158.60333 269.55 157.03633 269.55 155.10333C269.55 153.17033 271.117 151.60333 273.05 151.60333C274.983 151.60333 276.55 153.17033 276.55 155.10333Z" fill-rule="nonzero"/><path fill="#ea4335" clip-path="url(#id_0)" d="M330.45 155.10333C330.45 157.03633 328.883 158.60333 326.95 158.60333C325.017 158.60333 323.45 157.03633 323.45 155.10333C323.45 153.17033 325.017 151.60333 326.95 151.60333C328.883 151.60333 330.45 153.17033 330.45 155.10333Z" fill-rule="nonzero"/><path fill="#ea4335" clip-path="url(#id_0)" d="M384.35 155.10333C384.35 157.03633 382.783 158.60333 380.85 158.60333C378.917 158.60333 377.35 157.03633 377.35 155.10333C377.35 153.17033 378.917 151.60333 380.85 151.60333C382.783 151.60333 384.35 153.17033 384.35 155.10333Z" fill-rule="nonzero"/><path fill="#ea4335" clip-path="url(#id_0)" d="M438.25 155.10333C438.25 157.03633 436.68298 158.60333 434.75 158.60333C432.81702 158.60333 431.25 157.03633 431.25 155.10333C431.25 153.17033 432.81702 151.60333 434.75 151.60333C436.68298 151.60333 438.25 153.17033 438.25 155.10333Z" fill-rule="nonzero"/><path fill="#ea4335" clip-path="url(#id_0)" d="M492.15 155.10333C492.15 157.03633 490.583 158.60333 488.65 158.60333C486.717 158.60333 485.15 157.03633 485.15 155.10333C485.15 153.17033 486.717 151.60333 488.65 151.60333C490.583 151.60333 492.15 153.17033 492.15 155.10333Z" fill-rule="nonzero"/><path fill="#fbbc04" fill-opacity="0.7019608" clip-path="url(#id_0)" d="M114.85 178.83C114.85 180.763 113.283 182.33 111.35 182.33C109.417 182.33 107.85 180.763 107.85 178.83C107.85 176.897 109.417 175.33 111.35 175.33C113.283 175.33 114.85 176.897 114.85 178.83Z" fill-rule="nonzero"/><path fill="#fbbc04" fill-opacity="0.7019608" clip-path="url(#id_0)" d="M168.75 178.83C168.75 180.763 167.183 182.33 165.25 182.33C163.317 182.33 161.75 180.763 161.75 178.83C161.75 176.897 163.317 175.33 165.25 175.33C167.183 175.33 168.75 176.897 168.75 178.83Z" fill-rule="nonzero"/><path fill="#fbbc04" fill-opacity="0.7019608" clip-path="url(#id_0)" d="M222.65 178.83C222.65 180.763 221.083 182.33 219.15 182.33C217.21701 182.33 215.65 180.763 215.65 178.83C215.65 176.897 217.21701 175.33 219.15 175.33C221.083 175.33 222.65 176.897 222.65 178.83Z" fill-rule="nonzero"/><path fill="#fbbc04" fill-opacity="0.7019608" clip-path="url(#id_0)" d="M276.55 178.83C276.55 180.763 274.983 182.33 273.05 182.33C271.117 182.33 269.55 180.763 269.55 178.83C269.55 176.897 271.117 175.33 273.05 175.33C274.983 175.33 276.55 176.897 276.55 178.83Z" fill-rule="nonzero"/><path fill="#fbbc04" fill-opacity="0.7019608" clip-path="url(#id_0)" d="M330.45 178.83C330.45 180.763 328.883 182.33 326.95 182.33C325.017 182.33 323.45 180.763 323.45 178.83C323.45 176.897 325.017 175.33 326.95 175.33C328.883 175.33 330.45 176.897 330.45 178.83Z" fill-rule="nonzero"/><path fill="#fbbc04" fill-opacity="0.7019608" clip-path="url(#id_0)" d="M384.35 178.83C384.35 180.763 382.783 182.33 380.85 182.33C378.917 182.33 377.35 180.763 377.35 178.83C377.35 176.897 378.917 175.33 380.85 175.33C382.783 175.33 384.35 176.897 384.35 178.83Z" fill-rule="nonzero"/><path fill="#fbbc04" fill-opacity="0.7019608" clip-path="url(#id_0)" d="M438.25 178.83C438.25 180.763 436.68298 182.33 434.75 182.33C432.81702 182.33 431.25 180.763 431.25 178.83C431.25 176.897 432.81702 175.33 434.75 175.33C436.68298 175.33 438.25 176.897 438.25 178.83Z" fill-rule="nonzero"/><path fill="#fbbc04" fill-opacity="0.7019608" clip-path="url(#id_0)" d="M492.15 178.83C492.15 180.763 490.583 182.33 488.65 182.33C486.717 182.33 485.15 180.763 485.15 178.83C485.15 176.897 486.717 175.33 488.65 175.33C490.583 175.33 492.15 176.897 492.15 178.83Z" fill-rule="nonzero"/><path stroke="#000000" stroke-width="1.0" stroke-linecap="butt" d="M111.5 291.5L111.5 279.5" fill-rule="nonzero"/><path stroke="#000000" stroke-width="1.0" stroke-linecap="butt" d="M165.5 291.5L165.5 279.5" fill-rule="nonzero"/><path stroke="#000000" stroke-width="1.0" stroke-linecap="butt" d="M219.5 291.5L219.5 279.5" fill-rule="nonzero"/><path stroke="#000000" stroke-width="1.0" stroke-linecap="butt" d="M273.5 291.5L273.5 279.5" fill-rule="nonzero"/><path stroke="#000000" stroke-width="1.0" stroke-linecap="butt" d="M326.5 291.5L326.5 279.5" fill-rule="nonzero"/><path stroke="#000000" stroke-width="1.0" stroke-linecap="butt" d="M380.5 291.5L380.5 279.5" fill-rule="nonzero"/><path stroke="#000000" stroke-width="1.0" stroke-linecap="butt" d="M434.5 291.5L434.5 279.5" fill-rule="nonzero"/><path stroke="#000000" stroke-width="1.0" stroke-linecap="butt" d="M488.5 291.5L488.5 279.5" fill-rule="nonzero"/><path stroke="#000000" stroke-width="1.0" stroke-linecap="butt" d="M78.5 285.5L90.5 285.5" fill-rule="nonzero"/><path stroke="#000000" stroke-width="1.0" stroke-linecap="butt" d="M78.5 255.5L90.5 255.5" fill-rule="nonzero"/><path stroke="#000000" stroke-width="1.0" stroke-linecap="butt" d="M78.5 226.5L90.5 226.5" fill-rule="nonzero"/><path stroke="#000000" stroke-width="1.0" stroke-linecap="butt" d="M78.5 196.5L90.5 196.5" fill-rule="nonzero"/><path stroke="#000000" stroke-width="1.0" stroke-linecap="butt" d="M78.5 166.5L90.5 166.5" fill-rule="nonzero"/><path stroke="#000000" stroke-width="1.0" stroke-linecap="butt" d="M78.5 137.5L90.5 137.5" fill-rule="nonzero"/><path stroke="#000000" stroke-width="1.0" stroke-linecap="butt" d="M78.5 107.5L90.5 107.5" fill-rule="nonzero"/><path stroke="#000000" stroke-width="1.0" stroke-linecap="butt" d="M78.5 77.5L90.5 77.5" fill-rule="nonzero"/><path stroke="#000000" stroke-width="1.0" stroke-linecap="butt" d="M78.5 48.5L90.5 48.5" fill-rule="nonzero"/><path fill="#000000" d="M65.9 285.36563Q65.9 283.83438 66.2125 282.9125Q66.525 281.975 67.13438 281.475Q67.75938 280.975 68.69688 280.975Q69.38438 280.975 69.9 281.25626Q70.43125 281.5375 70.775 282.06876Q71.11875 282.58438 71.30625 283.33438Q71.49375 284.08438 71.49375 285.36563Q71.49375 286.88126 71.18125 287.80313Q70.88438 288.725 70.25938 289.24063Q69.65 289.74063 68.69688 289.74063Q67.4625 289.74063 66.74375 288.85Q65.9 287.7875 65.9 285.36563ZM66.97813 285.36563Q66.97813 287.475 67.47813 288.17813Q67.97813 288.88126 68.69688 288.88126Q69.43125 288.88126 69.91563 288.17813Q70.41563 287.475 70.41563 285.36563Q70.41563 283.24063 69.91563 282.55313Q69.43125 281.85 68.68125 281.85Q67.9625 281.85 67.525 282.45938Q66.97813 283.24063 66.97813 285.36563Z" fill-rule="nonzero"/><path fill="#000000" d="M48.9 255.7073Q48.9 254.17606 49.2125 253.25418Q49.525 252.31668 50.134377 251.81668Q50.759377 251.31668 51.696877 251.31668Q52.384377 251.31668 52.9 251.59793Q53.43125 251.87918 53.775 252.41043Q54.11875 252.92606 54.30625 253.67606Q54.49375 254.42606 54.49375 255.7073Q54.49375 257.22293 54.18125 258.1448Q53.884377 259.06668 53.259377 259.5823Q52.65 260.0823 51.696877 260.0823Q50.4625 260.0823 49.74375 259.19168Q48.9 258.12918 48.9 255.7073ZM49.978127 255.7073Q49.978127 257.81668 50.478127 258.5198Q50.978127 259.22293 51.696877 259.22293Q52.43125 259.22293 52.915627 258.5198Q53.415627 257.81668 53.415627 255.7073Q53.415627 253.5823 52.915627 252.8948Q52.43125 252.19168 51.68125 252.19168Q50.9625 252.19168 50.525 252.80106Q49.978127 253.5823 49.978127 255.7073ZM56.49375 259.94168L56.49375 258.73856L57.696877 258.73856L57.696877 259.94168L56.49375 259.94168ZM64.44688 258.92606L64.44688 259.94168L58.759377 259.94168Q58.759377 259.56668 58.884377 259.2073Q59.103127 258.62918 59.571877 258.06668Q60.05625 257.50418 60.9625 256.7698Q62.36875 255.61356 62.853127 254.94168Q63.353127 254.2698 63.353127 253.67606Q63.353127 253.05106 62.9 252.62918Q62.446877 252.19168 61.728127 252.19168Q60.9625 252.19168 60.509377 252.6448Q60.05625 253.09793 60.040627 253.91043L58.9625 253.80106Q59.071877 252.5823 59.790627 251.9573Q60.525 251.31668 61.759377 251.31668Q62.99375 251.31668 63.7125 252.00418Q64.43125 252.69168 64.43125 253.7073Q64.43125 254.22293 64.2125 254.72293Q64.00938 255.2073 63.509377 255.7698Q63.025 256.31668 61.9 257.2698Q60.946877 258.06668 60.665627 258.36356Q60.4 258.6448 60.228127 258.92606L64.44688 258.92606ZM65.9 257.69168L67.00938 257.59793Q67.13438 258.41043 67.57188 258.81668Q68.025 259.22293 68.66563 259.22293Q69.41563 259.22293 69.94688 258.6448Q70.47813 258.06668 70.47813 257.12918Q70.47813 256.22293 69.9625 255.7073Q69.4625 255.17606 68.63438 255.17606Q68.13438 255.17606 67.7125 255.41043Q67.30625 255.6448 67.07188 256.00418L66.0875 255.87918L66.91563 251.47293L71.19688 251.47293L71.19688 252.47293L67.75938 252.47293L67.30625 254.78543Q68.07188 254.23856 68.91563 254.23856Q70.04063 254.23856 70.80625 255.0198Q71.5875 255.80106 71.5875 257.03543Q71.5875 258.19168 70.91563 259.05106Q70.0875 260.0823 68.66563 260.0823Q67.49375 260.0823 66.74375 259.42606Q66.00938 258.7698 65.9 257.69168Z" fill-rule="nonzero"/><path fill="#000000" d="M55.9 226.04897Q55.9 224.51772 56.2125 223.59584Q56.525 222.65834 57.134377 222.15834Q57.759377 221.65834 58.696877 221.65834Q59.384377 221.65834 59.9 221.93959Q60.43125 222.22084 60.775 222.75209Q61.11875 223.26772 61.30625 224.01772Q61.49375 224.76772 61.49375 226.04897Q61.49375 227.56459 61.18125 228.48647Q60.884377 229.40834 60.259377 229.92397Q59.65 230.42397 58.696877 230.42397Q57.4625 230.42397 56.74375 229.53334Q55.9 228.47084 55.9 226.04897ZM56.978127 226.04897Q56.978127 228.15834 57.478127 228.86147Q57.978127 229.56459 58.696877 229.56459Q59.43125 229.56459 59.915627 228.86147Q60.415627 228.15834 60.415627 226.04897Q60.415627 223.92397 59.915627 223.23647Q59.43125 222.53334 58.68125 222.53334Q57.9625 222.53334 57.525 223.14272Q56.978127 223.92397 56.978127 226.04897ZM63.49375 230.28334L63.49375 229.08022L64.69688 229.08022L64.69688 230.28334L63.49375 230.28334ZM65.9 228.03334L67.00938 227.93959Q67.13438 228.75209 67.57188 229.15834Q68.025 229.56459 68.66563 229.56459Q69.41563 229.56459 69.94688 228.98647Q70.47813 228.40834 70.47813 227.47084Q70.47813 226.56459 69.9625 226.04897Q69.4625 225.51772 68.63438 225.51772Q68.13438 225.51772 67.7125 225.75209Q67.30625 225.98647 67.07188 226.34584L66.0875 226.22084L66.91563 221.81459L71.19688 221.81459L71.19688 222.81459L67.75938 222.81459L67.30625 225.12709Q68.07188 224.58022 68.91563 224.58022Q70.04063 224.58022 70.80625 225.36147Q71.5875 226.14272 71.5875 227.37709Q71.5875 228.53334 70.91563 229.39272Q70.0875 230.42397 68.66563 230.42397Q67.49375 230.42397 66.74375 229.76772Q66.00938 229.11147 65.9 228.03334Z" fill-rule="nonzero"/><path fill="#000000" d="M48.9 196.39062Q48.9 194.85938 49.2125 193.9375Q49.525 193.0 50.134377 192.5Q50.759377 192.0 51.696877 192.0Q52.384377 192.0 52.9 192.28125Q53.43125 192.5625 53.775 193.09375Q54.11875 193.60938 54.30625 194.35938Q54.49375 195.10938 54.49375 196.39062Q54.49375 197.90625 54.18125 198.82812Q53.884377 199.75 53.259377 200.26562Q52.65 200.76562 51.696877 200.76562Q50.4625 200.76562 49.74375 199.875Q48.9 198.8125 48.9 196.39062ZM49.978127 196.39062Q49.978127 198.5 50.478127 199.20312Q50.978127 199.90625 51.696877 199.90625Q52.43125 199.90625 52.915627 199.20312Q53.415627 198.5 53.415627 196.39062Q53.415627 194.26562 52.915627 193.57812Q52.43125 192.875 51.68125 192.875Q50.9625 192.875 50.525 193.48438Q49.978127 194.26562 49.978127 196.39062ZM56.49375 200.625L56.49375 199.42188L57.696877 199.42188L57.696877 200.625L56.49375 200.625ZM58.9625 193.15625L58.9625 192.14062L64.525 192.14062L64.525 192.96875Q63.7125 193.84375 62.9 195.29688Q62.103127 196.73438 61.665627 198.26562Q61.3375 199.34375 61.259377 200.625L60.165627 200.625Q60.18125 199.60938 60.55625 198.17188Q60.946877 196.73438 61.65 195.40625Q62.36875 194.07812 63.18125 193.15625L58.9625 193.15625ZM65.9 198.375L67.00938 198.28125Q67.13438 199.09375 67.57188 199.5Q68.025 199.90625 68.66563 199.90625Q69.41563 199.90625 69.94688 199.32812Q70.47813 198.75 70.47813 197.8125Q70.47813 196.90625 69.9625 196.39062Q69.4625 195.85938 68.63438 195.85938Q68.13438 195.85938 67.7125 196.09375Q67.30625 196.32812 67.07188 196.6875L66.0875 196.5625L66.91563 192.15625L71.19688 192.15625L71.19688 193.15625L67.75938 193.15625L67.30625 195.46875Q68.07188 194.92188 68.91563 194.92188Q70.04063 194.92188 70.80625 195.70312Q71.5875 196.48438 71.5875 197.71875Q71.5875 198.875 70.91563 199.73438Q70.0875 200.76562 68.66563 200.76562Q67.49375 200.76562 66.74375 200.10938Q66.00938 199.45312 65.9 198.375Z" fill-rule="nonzero"/><path fill="#000000" d="M69.86875 170.96666L68.82188 170.96666L68.82188 164.24791Q68.43125 164.60728 67.80625 164.98228Q67.19688 165.34166 66.7125 165.51353L66.7125 164.49791Q67.5875 164.07603 68.24375 163.49791Q68.91563 162.90416 69.19688 162.34166L69.86875 162.34166L69.86875 170.96666Z" fill-rule="nonzero"/><path fill="#000000" d="M52.86875 141.30833L51.821877 141.30833L51.821877 134.58958Q51.43125 134.94896 50.80625 135.32396Q50.196877 135.68333 49.7125 135.85521L49.7125 134.83958Q50.5875 134.41771 51.24375 133.83958Q51.915627 133.24583 52.196877 132.68333L52.86875 132.68333L52.86875 141.30833ZM56.49375 141.30833L56.49375 140.10521L57.696877 140.10521L57.696877 141.30833L56.49375 141.30833ZM64.44688 140.29271L64.44688 141.30833L58.759377 141.30833Q58.759377 140.93333 58.884377 140.57396Q59.103127 139.99583 59.571877 139.43333Q60.05625 138.87083 60.9625 138.13646Q62.36875 136.98021 62.853127 136.30833Q63.353127 135.63646 63.353127 135.04271Q63.353127 134.41771 62.9 133.99583Q62.446877 133.55833 61.728127 133.55833Q60.9625 133.55833 60.509377 134.01146Q60.05625 134.46458 60.040627 135.27708L58.9625 135.16771Q59.071877 133.94896 59.790627 133.32396Q60.525 132.68333 61.759377 132.68333Q62.99375 132.68333 63.7125 133.37083Q64.43125 134.05833 64.43125 135.07396Q64.43125 135.58958 64.2125 136.08958Q64.00938 136.57396 63.509377 137.13646Q63.025 137.68333 61.9 138.63646Q60.946877 139.43333 60.665627 139.73021Q60.4 140.01146 60.228127 140.29271L64.44688 140.29271ZM65.9 139.05833L67.00938 138.96458Q67.13438 139.77708 67.57188 140.18333Q68.025 140.58958 68.66563 140.58958Q69.41563 140.58958 69.94688 140.01146Q70.47813 139.43333 70.47813 138.49583Q70.47813 137.58958 69.9625 137.07396Q69.4625 136.54271 68.63438 136.54271Q68.13438 136.54271 67.7125 136.77708Q67.30625 137.01146 67.07188 137.37083L66.0875 137.24583L66.91563 132.83958L71.19688 132.83958L71.19688 133.83958L67.75938 133.83958L67.30625 136.15208Q68.07188 135.60521 68.91563 135.60521Q70.04063 135.60521 70.80625 136.38646Q71.5875 137.16771 71.5875 138.40208Q71.5875 139.55833 70.91563 140.41771Q70.0875 141.44896 68.66563 141.44896Q67.49375 141.44896 66.74375 140.79271Q66.00938 140.13646 65.9 139.05833Z" fill-rule="nonzero"/><path fill="#000000" d="M59.86875 111.65L58.821877 111.65L58.821877 104.93125Q58.43125 105.29063 57.80625 105.66563Q57.196877 106.025 56.7125 106.19688L56.7125 105.18125Q57.5875 104.75938 58.24375 104.18125Q58.915627 103.5875 59.196877 103.025L59.86875 103.025L59.86875 111.65ZM63.49375 111.65L63.49375 110.44688L64.69688 110.44688L64.69688 111.65L63.49375 111.65ZM65.9 109.4L67.00938 109.30625Q67.13438 110.11875 67.57188 110.525Q68.025 110.93125 68.66563 110.93125Q69.41563 110.93125 69.94688 110.35313Q70.47813 109.775 70.47813 108.8375Q70.47813 107.93125 69.9625 107.41563Q69.4625 106.88438 68.63438 106.88438Q68.13438 106.88438 67.7125 107.11875Q67.30625 107.35313 67.07188 107.7125L66.0875 107.5875L66.91563 103.18125L71.19688 103.18125L71.19688 104.18125L67.75938 104.18125L67.30625 106.49375Q68.07188 105.94688 68.91563 105.94688Q70.04063 105.94688 70.80625 106.72813Q71.5875 107.50938 71.5875 108.74375Q71.5875 109.9 70.91563 110.75938Q70.0875 111.79063 68.66563 111.79063Q67.49375 111.79063 66.74375 111.13438Q66.00938 110.47813 65.9 109.4Z" fill-rule="nonzero"/><path fill="#000000" d="M52.86875 81.99167L51.821877 81.99167L51.821877 75.27292Q51.43125 75.63229 50.80625 76.00729Q50.196877 76.36667 49.7125 76.53854L49.7125 75.52292Q50.5875 75.10104 51.24375 74.52292Q51.915627 73.92917 52.196877 73.36667L52.86875 73.36667L52.86875 81.99167ZM56.49375 81.99167L56.49375 80.78854L57.696877 80.78854L57.696877 81.99167L56.49375 81.99167ZM58.9625 74.52292L58.9625 73.50729L64.525 73.50729L64.525 74.33542Q63.7125 75.21042 62.9 76.66354Q62.103127 78.10104 61.665627 79.63229Q61.3375 80.71042 61.259377 81.99167L60.165627 81.99167Q60.18125 80.97604 60.55625 79.53854Q60.946877 78.10104 61.65 76.77292Q62.36875 75.44479 63.18125 74.52292L58.9625 74.52292ZM65.9 79.74167L67.00938 79.64792Q67.13438 80.46042 67.57188 80.86667Q68.025 81.27292 68.66563 81.27292Q69.41563 81.27292 69.94688 80.69479Q70.47813 80.11667 70.47813 79.17917Q70.47813 78.27292 69.9625 77.75729Q69.4625 77.22604 68.63438 77.22604Q68.13438 77.22604 67.7125 77.46042Q67.30625 77.69479 67.07188 78.05417L66.0875 77.92917L66.91563 73.52292L71.19688 73.52292L71.19688 74.52292L67.75938 74.52292L67.30625 76.83542Q68.07188 76.28854 68.91563 76.28854Q70.04063 76.28854 70.80625 77.06979Q71.5875 77.85104 71.5875 79.08542Q71.5875 80.24167 70.91563 81.10104Q70.0875 82.13229 68.66563 82.13229Q67.49375 82.13229 66.74375 81.47604Q66.00938 80.81979 65.9 79.74167Z" fill-rule="nonzero"/><path fill="#000000" d="M71.44688 51.317707L71.44688 52.333332L65.75938 52.333332Q65.75938 51.958332 65.88438 51.598957Q66.10313 51.020832 66.57188 50.458332Q67.05625 49.895832 67.9625 49.161457Q69.36875 48.005207 69.85313 47.333332Q70.35313 46.661457 70.35313 46.067707Q70.35313 45.442707 69.9 45.020832Q69.44688 44.583332 68.72813 44.583332Q67.9625 44.583332 67.50938 45.036457Q67.05625 45.489582 67.04063 46.302082L65.9625 46.192707Q66.07188 44.973957 66.79063 44.348957Q67.525 43.708332 68.75938 43.708332Q69.99375 43.708332 70.7125 44.395832Q71.43125 45.083332 71.43125 46.098957Q71.43125 46.614582 71.2125 47.114582Q71.00938 47.598957 70.50938 48.161457Q70.025 48.708332 68.9 49.661457Q67.94688 50.458332 67.66563 50.755207Q67.4 51.036457 67.22813 51.317707L71.44688 51.317707Z" fill-rule="nonzero"/><path fill="#000000" d="M90.89687 305.83438L91.95937 305.74063Q92.0375 306.39688 92.31875 306.80313Q92.6 307.20938 93.17812 307.475Q93.77187 307.725 94.50625 307.725Q95.14687 307.725 95.64687 307.5375Q96.14687 307.33438 96.38125 307.00626Q96.63125 306.6625 96.63125 306.27188Q96.63125 305.86563 96.39687 305.56876Q96.1625 305.25626 95.63125 305.05313Q95.27187 304.9125 94.08437 304.63126Q92.9125 304.35 92.44375 304.1Q91.81875 303.77188 91.52187 303.30313Q91.225 302.81876 91.225 302.225Q91.225 301.58438 91.58437 301.02188Q91.95937 300.44376 92.6625 300.1625Q93.38125 299.86563 94.24062 299.86563Q95.19375 299.86563 95.92812 300.17813Q96.6625 300.475 97.05312 301.08438Q97.44375 301.67813 97.475 302.42813L96.38125 302.50626Q96.2875 301.69376 95.77187 301.2875Q95.27187 300.86563 94.2875 300.86563Q93.25625 300.86563 92.7875 301.24063Q92.31875 301.61563 92.31875 302.14688Q92.31875 302.61563 92.64687 302.9125Q92.975 303.20938 94.35 303.52188Q95.74062 303.83438 96.25625 304.06876Q97.00625 304.42813 97.36562 304.95938Q97.725 305.475 97.725 306.17813Q97.725 306.86563 97.33437 307.475Q96.94375 308.06876 96.20937 308.4125Q95.475 308.74063 94.55312 308.74063Q93.38125 308.74063 92.58437 308.4125Q91.80312 308.06876 91.35 307.38126Q90.9125 306.69376 90.89687 305.83438ZM99.14687 310.99063L99.14687 302.38126L100.1 302.38126L100.1 303.17813Q100.44375 302.70938 100.86562 302.475Q101.30312 302.24063 101.9125 302.24063Q102.70937 302.24063 103.31875 302.64688Q103.92812 303.05313 104.225 303.80313Q104.5375 304.55313 104.5375 305.44376Q104.5375 306.39688 104.19375 307.1625Q103.86562 307.92813 103.20937 308.33438Q102.55312 308.74063 101.83437 308.74063Q101.30312 308.74063 100.88125 308.52188Q100.45937 308.2875 100.19375 307.95938L100.19375 310.99063L99.14687 310.99063ZM100.1 305.52188Q100.1 306.725 100.58437 307.30313Q101.06875 307.86563 101.75625 307.86563Q102.45937 307.86563 102.95937 307.27188Q103.45937 306.67813 103.45937 305.42813Q103.45937 304.24063 102.975 303.6625Q102.49062 303.06876 101.80312 303.06876Q101.13125 303.06876 100.61562 303.69376Q100.1 304.31876 100.1 305.52188ZM106.13125 308.6L106.13125 302.38126L107.08437 302.38126L107.08437 303.31876Q107.44375 302.6625 107.74062 302.45938Q108.05312 302.24063 108.42812 302.24063Q108.95937 302.24063 109.50625 302.56876L109.14687 303.55313Q108.75625 303.31876 108.38125 303.31876Q108.02187 303.31876 107.74062 303.5375Q107.475 303.74063 107.36562 304.11563Q107.17812 304.67813 107.17812 305.33438L107.17812 308.6L106.13125 308.6ZM110.14687 301.225L110.14687 300.00626L111.20937 300.00626L111.20937 301.225L110.14687 301.225ZM110.14687 308.6L110.14687 302.38126L111.20937 302.38126L111.20937 308.6L110.14687 308.6ZM113.14687 308.6L113.14687 302.38126L114.08437 302.38126L114.08437 303.25626Q114.77187 302.24063 116.06875 302.24063Q116.63125 302.24063 117.1 302.44376Q117.58437 302.64688 117.81875 302.975Q118.05312 303.30313 118.14687 303.74063Q118.19375 304.0375 118.19375 304.77188L118.19375 308.6L117.14687 308.6L117.14687 304.81876Q117.14687 304.1625 117.02187 303.85Q116.89687 303.5375 116.58437 303.35Q116.27187 303.14688 115.85 303.14688Q115.17812 303.14688 114.67812 303.58438Q114.19375 304.00626 114.19375 305.19376L114.19375 308.6L113.14687 308.6ZM122.44375 307.6625L122.6 308.58438Q122.14687 308.67813 121.80312 308.67813Q121.225 308.67813 120.9125 308.50626Q120.6 308.31876 120.45937 308.02188Q120.33437 307.725 120.33437 306.77188L120.33437 303.19376L119.56875 303.19376L119.56875 302.38126L120.33437 302.38126L120.33437 300.83438L121.38125 300.20938L121.38125 302.38126L122.44375 302.38126L122.44375 303.19376L121.38125 303.19376L121.38125 306.83438Q121.38125 307.2875 121.42812 307.4125Q121.49062 307.5375 121.61562 307.61563Q121.74062 307.69376 121.975 307.69376Q122.1625 307.69376 122.44375 307.6625ZM129.81876 308.6L128.77188 308.6L128.77188 301.88126Q128.38126 302.24063 127.75625 302.61563Q127.14687 302.975 126.6625 303.14688L126.6625 302.13126Q127.5375 301.70938 128.19376 301.13126Q128.86563 300.5375 129.14688 299.975L129.81876 299.975L129.81876 308.6Z" fill-rule="nonzero"/><path fill="#000000" d="M144.79688 305.83438L145.85938 305.74063Q145.9375 306.39688 146.21875 306.80313Q146.5 307.20938 147.07812 307.475Q147.67188 307.725 148.40625 307.725Q149.04688 307.725 149.54688 307.5375Q150.04688 307.33438 150.28125 307.00626Q150.53125 306.6625 150.53125 306.27188Q150.53125 305.86563 150.29688 305.56876Q150.0625 305.25626 149.53125 305.05313Q149.17188 304.9125 147.98438 304.63126Q146.8125 304.35 146.34375 304.1Q145.71875 303.77188 145.42188 303.30313Q145.125 302.81876 145.125 302.225Q145.125 301.58438 145.48438 301.02188Q145.85938 300.44376 146.5625 300.1625Q147.28125 299.86563 148.14062 299.86563Q149.09375 299.86563 149.82812 300.17813Q150.5625 300.475 150.95312 301.08438Q151.34375 301.67813 151.375 302.42813L150.28125 302.50626Q150.1875 301.69376 149.67188 301.2875Q149.17188 300.86563 148.1875 300.86563Q147.15625 300.86563 146.6875 301.24063Q146.21875 301.61563 146.21875 302.14688Q146.21875 302.61563 146.54688 302.9125Q146.875 303.20938 148.25 303.52188Q149.64062 303.83438 150.15625 304.06876Q150.90625 304.42813 151.26562 304.95938Q151.625 305.475 151.625 306.17813Q151.625 306.86563 151.23438 307.475Q150.84375 308.06876 150.10938 308.4125Q149.375 308.74063 148.45312 308.74063Q147.28125 308.74063 146.48438 308.4125Q145.70312 308.06876 145.25 307.38126Q144.8125 306.69376 144.79688 305.83438ZM153.04688 310.99063L153.04688 302.38126L154.0 302.38126L154.0 303.17813Q154.34375 302.70938 154.76562 302.475Q155.20312 302.24063 155.8125 302.24063Q156.60938 302.24063 157.21875 302.64688Q157.82812 303.05313 158.125 303.80313Q158.4375 304.55313 158.4375 305.44376Q158.4375 306.39688 158.09375 307.1625Q157.76562 307.92813 157.10938 308.33438Q156.45312 308.74063 155.73438 308.74063Q155.20312 308.74063 154.78125 308.52188Q154.35938 308.2875 154.09375 307.95938L154.09375 310.99063L153.04688 310.99063ZM154.0 305.52188Q154.0 306.725 154.48438 307.30313Q154.96875 307.86563 155.65625 307.86563Q156.35938 307.86563 156.85938 307.27188Q157.35938 306.67813 157.35938 305.42813Q157.35938 304.24063 156.875 303.6625Q156.39062 303.06876 155.70312 303.06876Q155.03125 303.06876 154.51562 303.69376Q154.0 304.31876 154.0 305.52188ZM160.03125 308.6L160.03125 302.38126L160.98438 302.38126L160.98438 303.31876Q161.34375 302.6625 161.64062 302.45938Q161.95312 302.24063 162.32812 302.24063Q162.85938 302.24063 163.40625 302.56876L163.04688 303.55313Q162.65625 303.31876 162.28125 303.31876Q161.92188 303.31876 161.64062 303.5375Q161.375 303.74063 161.26562 304.11563Q161.07812 304.67813 161.07812 305.33438L161.07812 308.6L160.03125 308.6ZM164.04688 301.225L164.04688 300.00626L165.10938 300.00626L165.10938 301.225L164.04688 301.225ZM164.04688 308.6L164.04688 302.38126L165.10938 302.38126L165.10938 308.6L164.04688 308.6ZM167.04688 308.6L167.04688 302.38126L167.98438 302.38126L167.98438 303.25626Q168.67188 302.24063 169.96875 302.24063Q170.53125 302.24063 171.0 302.44376Q171.48438 302.64688 171.71875 302.975Q171.95312 303.30313 172.04688 303.74063Q172.09375 304.0375 172.09375 304.77188L172.09375 308.6L171.04688 308.6L171.04688 304.81876Q171.04688 304.1625 170.92188 303.85Q170.79688 303.5375 170.48438 303.35Q170.17188 303.14688 169.75 303.14688Q169.07812 303.14688 168.57812 303.58438Q168.09375 304.00626 168.09375 305.19376L168.09375 308.6L167.04688 308.6ZM176.34375 307.6625L176.5 308.58438Q176.04688 308.67813 175.70312 308.67813Q175.125 308.67813 174.8125 308.50626Q174.5 308.31876 174.35938 308.02188Q174.23438 307.725 174.23438 306.77188L174.23438 303.19376L173.46875 303.19376L173.46875 302.38126L174.23438 302.38126L174.23438 300.83438L175.28125 300.20938L175.28125 302.38126L176.34375 302.38126L176.34375 303.19376L175.28125 303.19376L175.28125 306.83438Q175.28125 307.2875 175.32812 307.4125Q175.39062 307.5375 175.51562 307.61563Q175.64062 307.69376 175.875 307.69376Q176.0625 307.69376 176.34375 307.6625ZM185.29688 307.58438L185.29688 308.6L179.60938 308.6Q179.60938 308.225 179.73438 307.86563Q179.95312 307.2875 180.42188 306.725Q180.90625 306.1625 181.8125 305.42813Q183.21875 304.27188 183.70312 303.6Q184.20312 302.92813 184.20312 302.33438Q184.20312 301.70938 183.75 301.2875Q183.29688 300.85 182.57812 300.85Q181.8125 300.85 181.35938 301.30313Q180.90625 301.75626 180.89062 302.56876L179.8125 302.45938Q179.92188 301.24063 180.64062 300.61563Q181.375 299.975 182.60938 299.975Q183.84375 299.975 184.5625 300.6625Q185.28125 301.35 185.28125 302.36563Q185.28125 302.88126 185.0625 303.38126Q184.85938 303.86563 184.35938 304.42813Q183.875 304.975 182.75 305.92813Q181.79688 306.725 181.51562 307.02188Q181.25 307.30313 181.07812 307.58438L185.29688 307.58438Z" fill-rule="nonzero"/><path fill="#000000" d="M198.69687 305.83438L199.75937 305.74063Q199.8375 306.39688 200.11874 306.80313Q200.4 307.20938 200.97812 307.475Q201.57187 307.725 202.30624 307.725Q202.94687 307.725 203.44687 307.5375Q203.94687 307.33438 204.18124 307.00626Q204.43124 306.6625 204.43124 306.27188Q204.43124 305.86563 204.19687 305.56876Q203.9625 305.25626 203.43124 305.05313Q203.07187 304.9125 201.88437 304.63126Q200.7125 304.35 200.24374 304.1Q199.61874 303.77188 199.32187 303.30313Q199.025 302.81876 199.025 302.225Q199.025 301.58438 199.38437 301.02188Q199.75937 300.44376 200.4625 300.1625Q201.18124 299.86563 202.04062 299.86563Q202.99374 299.86563 203.72812 300.17813Q204.4625 300.475 204.85312 301.08438Q205.24374 301.67813 205.275 302.42813L204.18124 302.50626Q204.0875 301.69376 203.57187 301.2875Q203.07187 300.86563 202.0875 300.86563Q201.05624 300.86563 200.5875 301.24063Q200.11874 301.61563 200.11874 302.14688Q200.11874 302.61563 200.44687 302.9125Q200.775 303.20938 202.15 303.52188Q203.54062 303.83438 204.05624 304.06876Q204.80624 304.42813 205.16562 304.95938Q205.525 305.475 205.525 306.17813Q205.525 306.86563 205.13437 307.475Q204.74374 308.06876 204.00937 308.4125Q203.275 308.74063 202.35312 308.74063Q201.18124 308.74063 200.38437 308.4125Q199.60312 308.06876 199.15 307.38126Q198.7125 306.69376 198.69687 305.83438ZM206.94687 310.99063L206.94687 302.38126L207.9 302.38126L207.9 303.17813Q208.24374 302.70938 208.66562 302.475Q209.10312 302.24063 209.7125 302.24063Q210.50937 302.24063 211.11874 302.64688Q211.72812 303.05313 212.025 303.80313Q212.3375 304.55313 212.3375 305.44376Q212.3375 306.39688 211.99374 307.1625Q211.66562 307.92813 211.00937 308.33438Q210.35312 308.74063 209.63437 308.74063Q209.10312 308.74063 208.68124 308.52188Q208.25937 308.2875 207.99374 307.95938L207.99374 310.99063L206.94687 310.99063ZM207.9 305.52188Q207.9 306.725 208.38437 307.30313Q208.86874 307.86563 209.55624 307.86563Q210.25937 307.86563 210.75937 307.27188Q211.25937 306.67813 211.25937 305.42813Q211.25937 304.24063 210.775 303.6625Q210.29062 303.06876 209.60312 303.06876Q208.93124 303.06876 208.41562 303.69376Q207.9 304.31876 207.9 305.52188ZM213.93124 308.6L213.93124 302.38126L214.88437 302.38126L214.88437 303.31876Q215.24374 302.6625 215.54062 302.45938Q215.85312 302.24063 216.22812 302.24063Q216.75937 302.24063 217.30624 302.56876L216.94687 303.55313Q216.55624 303.31876 216.18124 303.31876Q215.82187 303.31876 215.54062 303.5375Q215.275 303.74063 215.16562 304.11563Q214.97812 304.67813 214.97812 305.33438L214.97812 308.6L213.93124 308.6ZM217.94687 301.225L217.94687 300.00626L219.00937 300.00626L219.00937 301.225L217.94687 301.225ZM217.94687 308.6L217.94687 302.38126L219.00937 302.38126L219.00937 308.6L217.94687 308.6ZM220.94687 308.6L220.94687 302.38126L221.88437 302.38126L221.88437 303.25626Q222.57187 302.24063 223.86874 302.24063Q224.43124 302.24063 224.9 302.44376Q225.38437 302.64688 225.61874 302.975Q225.85312 303.30313 225.94687 303.74063Q225.99374 304.0375 225.99374 304.77188L225.99374 308.6L224.94687 308.6L224.94687 304.81876Q224.94687 304.1625 224.82187 303.85Q224.69687 303.5375 224.38437 303.35Q224.07187 303.14688 223.65 303.14688Q222.97812 303.14688 222.47812 303.58438Q221.99374 304.00626 221.99374 305.19376L221.99374 308.6L220.94687 308.6ZM230.24374 307.6625L230.4 308.58438Q229.94687 308.67813 229.60312 308.67813Q229.025 308.67813 228.7125 308.50626Q228.4 308.31876 228.25937 308.02188Q228.13437 307.725 228.13437 306.77188L228.13437 303.19376L227.36874 303.19376L227.36874 302.38126L228.13437 302.38126L228.13437 300.83438L229.18124 300.20938L229.18124 302.38126L230.24374 302.38126L230.24374 303.19376L229.18124 303.19376L229.18124 306.83438Q229.18124 307.2875 229.22812 307.4125Q229.29062 307.5375 229.41562 307.61563Q229.54062 307.69376 229.775 307.69376Q229.9625 307.69376 230.24374 307.6625ZM233.65 306.33438L234.7125 306.19376Q234.88437 307.08438 235.32187 307.49063Q235.75937 307.88126 236.38437 307.88126Q237.13437 307.88126 237.65 307.36563Q238.16562 306.85 238.16562 306.08438Q238.16562 305.36563 237.68124 304.89688Q237.2125 304.4125 236.47812 304.4125Q236.18124 304.4125 235.72812 304.5375L235.85312 303.6Q235.9625 303.61563 236.025 303.61563Q236.69687 303.61563 237.22812 303.27188Q237.775 302.9125 237.775 302.17813Q237.775 301.6 237.38437 301.225Q236.99374 300.83438 236.36874 300.83438Q235.75937 300.83438 235.3375 301.225Q234.93124 301.61563 234.82187 302.38126L233.75937 302.19376Q233.94687 301.14688 234.63437 300.56876Q235.32187 299.975 236.3375 299.975Q237.04062 299.975 237.63437 300.2875Q238.22812 300.58438 238.54062 301.1Q238.85312 301.61563 238.85312 302.20938Q238.85312 302.75626 238.55624 303.225Q238.25937 303.67813 237.68124 303.94376Q238.43124 304.11563 238.85312 304.67813Q239.275 305.225 239.275 306.06876Q239.275 307.19376 238.44687 307.975Q237.63437 308.75626 236.38437 308.75626Q235.25937 308.75626 234.50937 308.08438Q233.75937 307.39688 233.65 306.33438Z" fill-rule="nonzero"/><path fill="#000000" d="M252.59688 305.83438L253.65938 305.74063Q253.7375 306.39688 254.01875 306.80313Q254.3 307.20938 254.87813 307.475Q255.47188 307.725 256.20624 307.725Q256.84686 307.725 257.34686 307.5375Q257.84686 307.33438 258.08124 307.00626Q258.33124 306.6625 258.33124 306.27188Q258.33124 305.86563 258.09686 305.56876Q257.8625 305.25626 257.33124 305.05313Q256.97186 304.9125 255.78438 304.63126Q254.6125 304.35 254.14375 304.1Q253.51875 303.77188 253.22188 303.30313Q252.925 302.81876 252.925 302.225Q252.925 301.58438 253.28438 301.02188Q253.65938 300.44376 254.3625 300.1625Q255.08125 299.86563 255.94063 299.86563Q256.89374 299.86563 257.6281 300.17813Q258.3625 300.475 258.7531 301.08438Q259.14374 301.67813 259.175 302.42813L258.08124 302.50626Q257.9875 301.69376 257.47186 301.2875Q256.97186 300.86563 255.9875 300.86563Q254.95625 300.86563 254.4875 301.24063Q254.01875 301.61563 254.01875 302.14688Q254.01875 302.61563 254.34688 302.9125Q254.675 303.20938 256.05 303.52188Q257.4406 303.83438 257.95624 304.06876Q258.70624 304.42813 259.0656 304.95938Q259.425 305.475 259.425 306.17813Q259.425 306.86563 259.03436 307.475Q258.64374 308.06876 257.90936 308.4125Q257.175 308.74063 256.2531 308.74063Q255.08125 308.74063 254.28438 308.4125Q253.50313 308.06876 253.05 307.38126Q252.6125 306.69376 252.59688 305.83438ZM260.84686 310.99063L260.84686 302.38126L261.8 302.38126L261.8 303.17813Q262.14374 302.70938 262.5656 302.475Q263.0031 302.24063 263.6125 302.24063Q264.40936 302.24063 265.01874 302.64688Q265.6281 303.05313 265.925 303.80313Q266.2375 304.55313 266.2375 305.44376Q266.2375 306.39688 265.89374 307.1625Q265.5656 307.92813 264.90936 308.33438Q264.2531 308.74063 263.53436 308.74063Q263.0031 308.74063 262.58124 308.52188Q262.15936 308.2875 261.89374 307.95938L261.89374 310.99063L260.84686 310.99063ZM261.8 305.52188Q261.8 306.725 262.28436 307.30313Q262.76874 307.86563 263.45624 307.86563Q264.15936 307.86563 264.65936 307.27188Q265.15936 306.67813 265.15936 305.42813Q265.15936 304.24063 264.675 303.6625Q264.1906 303.06876 263.5031 303.06876Q262.83124 303.06876 262.3156 303.69376Q261.8 304.31876 261.8 305.52188ZM267.83124 308.6L267.83124 302.38126L268.78436 302.38126L268.78436 303.31876Q269.14374 302.6625 269.4406 302.45938Q269.7531 302.24063 270.1281 302.24063Q270.65936 302.24063 271.20624 302.56876L270.84686 303.55313Q270.45624 303.31876 270.08124 303.31876Q269.72186 303.31876 269.4406 303.5375Q269.175 303.74063 269.0656 304.11563Q268.8781 304.67813 268.8781 305.33438L268.8781 308.6L267.83124 308.6ZM271.84686 301.225L271.84686 300.00626L272.90936 300.00626L272.90936 301.225L271.84686 301.225ZM271.84686 308.6L271.84686 302.38126L272.90936 302.38126L272.90936 308.6L271.84686 308.6ZM274.84686 308.6L274.84686 302.38126L275.78436 302.38126L275.78436 303.25626Q276.47186 302.24063 277.76874 302.24063Q278.33124 302.24063 278.8 302.44376Q279.28436 302.64688 279.51874 302.975Q279.7531 303.30313 279.84686 303.74063Q279.89374 304.0375 279.89374 304.77188L279.89374 308.6L278.84686 308.6L278.84686 304.81876Q278.84686 304.1625 278.72186 303.85Q278.59686 303.5375 278.28436 303.35Q277.97186 303.14688 277.55 303.14688Q276.8781 303.14688 276.3781 303.58438Q275.89374 304.00626 275.89374 305.19376L275.89374 308.6L274.84686 308.6ZM284.14374 307.6625L284.3 308.58438Q283.84686 308.67813 283.5031 308.67813Q282.925 308.67813 282.6125 308.50626Q282.3 308.31876 282.15936 308.02188Q282.03436 307.725 282.03436 306.77188L282.03436 303.19376L281.26874 303.19376L281.26874 302.38126L282.03436 302.38126L282.03436 300.83438L283.08124 300.20938L283.08124 302.38126L284.14374 302.38126L284.14374 303.19376L283.08124 303.19376L283.08124 306.83438Q283.08124 307.2875 283.1281 307.4125Q283.1906 307.5375 283.3156 307.61563Q283.4406 307.69376 283.675 307.69376Q283.8625 307.69376 284.14374 307.6625ZM290.925 308.6L290.925 306.5375L287.20624 306.5375L287.20624 305.56876L291.1281 300.00626L291.9875 300.00626L291.9875 305.56876L293.14374 305.56876L293.14374 306.5375L291.9875 306.5375L291.9875 308.6L290.925 308.6ZM290.925 305.56876L290.925 301.70938L288.2375 305.56876L290.925 305.56876Z" fill-rule="nonzero"/><path fill="#000000" d="M306.4969 305.83438L307.5594 305.74063Q307.6375 306.39688 307.91876 306.80313Q308.2 307.20938 308.77814 307.475Q309.3719 307.725 310.10626 307.725Q310.7469 307.725 311.2469 307.5375Q311.7469 307.33438 311.98126 307.00626Q312.23126 306.6625 312.23126 306.27188Q312.23126 305.86563 311.9969 305.56876Q311.7625 305.25626 311.23126 305.05313Q310.8719 304.9125 309.6844 304.63126Q308.5125 304.35 308.04376 304.1Q307.41876 303.77188 307.1219 303.30313Q306.825 302.81876 306.825 302.225Q306.825 301.58438 307.1844 301.02188Q307.5594 300.44376 308.2625 300.1625Q308.98126 299.86563 309.84064 299.86563Q310.79376 299.86563 311.52814 300.17813Q312.2625 300.475 312.65314 301.08438Q313.04376 301.67813 313.075 302.42813L311.98126 302.50626Q311.8875 301.69376 311.3719 301.2875Q310.8719 300.86563 309.8875 300.86563Q308.85626 300.86563 308.3875 301.24063Q307.91876 301.61563 307.91876 302.14688Q307.91876 302.61563 308.2469 302.9125Q308.575 303.20938 309.95 303.52188Q311.34064 303.83438 311.85626 304.06876Q312.60626 304.42813 312.96564 304.95938Q313.325 305.475 313.325 306.17813Q313.325 306.86563 312.9344 307.475Q312.54376 308.06876 311.8094 308.4125Q311.075 308.74063 310.15314 308.74063Q308.98126 308.74063 308.1844 308.4125Q307.40314 308.06876 306.95 307.38126Q306.5125 306.69376 306.4969 305.83438ZM314.7469 310.99063L314.7469 302.38126L315.7 302.38126L315.7 303.17813Q316.04376 302.70938 316.46564 302.475Q316.90314 302.24063 317.5125 302.24063Q318.3094 302.24063 318.91876 302.64688Q319.52814 303.05313 319.825 303.80313Q320.1375 304.55313 320.1375 305.44376Q320.1375 306.39688 319.79376 307.1625Q319.46564 307.92813 318.8094 308.33438Q318.15314 308.74063 317.4344 308.74063Q316.90314 308.74063 316.48126 308.52188Q316.0594 308.2875 315.79376 307.95938L315.79376 310.99063L314.7469 310.99063ZM315.7 305.52188Q315.7 306.725 316.1844 307.30313Q316.66876 307.86563 317.35626 307.86563Q318.0594 307.86563 318.5594 307.27188Q319.0594 306.67813 319.0594 305.42813Q319.0594 304.24063 318.575 303.6625Q318.09064 303.06876 317.40314 303.06876Q316.73126 303.06876 316.21564 303.69376Q315.7 304.31876 315.7 305.52188ZM321.73126 308.6L321.73126 302.38126L322.6844 302.38126L322.6844 303.31876Q323.04376 302.6625 323.34064 302.45938Q323.65314 302.24063 324.02814 302.24063Q324.5594 302.24063 325.10626 302.56876L324.7469 303.55313Q324.35626 303.31876 323.98126 303.31876Q323.6219 303.31876 323.34064 303.5375Q323.075 303.74063 322.96564 304.11563Q322.77814 304.67813 322.77814 305.33438L322.77814 308.6L321.73126 308.6ZM325.7469 301.225L325.7469 300.00626L326.8094 300.00626L326.8094 301.225L325.7469 301.225ZM325.7469 308.6L325.7469 302.38126L326.8094 302.38126L326.8094 308.6L325.7469 308.6ZM328.7469 308.6L328.7469 302.38126L329.6844 302.38126L329.6844 303.25626Q330.3719 302.24063 331.66876 302.24063Q332.23126 302.24063 332.7 302.44376Q333.1844 302.64688 333.41876 302.975Q333.65314 303.30313 333.7469 303.74063Q333.79376 304.0375 333.79376 304.77188L333.79376 308.6L332.7469 308.6L332.7469 304.81876Q332.7469 304.1625 332.6219 303.85Q332.4969 303.5375 332.1844 303.35Q331.8719 303.14688 331.45 303.14688Q330.77814 303.14688 330.27814 303.58438Q329.79376 304.00626 329.79376 305.19376L329.79376 308.6L328.7469 308.6ZM338.04376 307.6625L338.2 308.58438Q337.7469 308.67813 337.40314 308.67813Q336.825 308.67813 336.5125 308.50626Q336.2 308.31876 336.0594 308.02188Q335.9344 307.725 335.9344 306.77188L335.9344 303.19376L335.16876 303.19376L335.16876 302.38126L335.9344 302.38126L335.9344 300.83438L336.98126 300.20938L336.98126 302.38126L338.04376 302.38126L338.04376 303.19376L336.98126 303.19376L336.98126 306.83438Q336.98126 307.2875 337.02814 307.4125Q337.09064 307.5375 337.21564 307.61563Q337.34064 307.69376 337.575 307.69376Q337.7625 307.69376 338.04376 307.6625ZM341.45 306.35L342.5594 306.25626Q342.6844 307.06876 343.1219 307.475Q343.575 307.88126 344.21564 307.88126Q344.96564 307.88126 345.4969 307.30313Q346.02814 306.725 346.02814 305.7875Q346.02814 304.88126 345.5125 304.36563Q345.0125 303.83438 344.1844 303.83438Q343.6844 303.83438 343.2625 304.06876Q342.85626 304.30313 342.6219 304.6625L341.6375 304.5375L342.46564 300.13126L346.7469 300.13126L346.7469 301.13126L343.3094 301.13126L342.85626 303.44376Q343.6219 302.89688 344.46564 302.89688Q345.59064 302.89688 346.35626 303.67813Q347.1375 304.45938 347.1375 305.69376Q347.1375 306.85 346.46564 307.70938Q345.6375 308.74063 344.21564 308.74063Q343.04376 308.74063 342.29376 308.08438Q341.5594 307.42813 341.45 306.35Z" fill-rule="nonzero"/><path fill="#000000" d="M360.39688 305.83438L361.45938 305.74063Q361.5375 306.39688 361.81876 306.80313Q362.1 307.20938 362.67813 307.475Q363.27188 307.725 364.00626 307.725Q364.64688 307.725 365.14688 307.5375Q365.64688 307.33438 365.88126 307.00626Q366.13126 306.6625 366.13126 306.27188Q366.13126 305.86563 365.89688 305.56876Q365.6625 305.25626 365.13126 305.05313Q364.77188 304.9125 363.58438 304.63126Q362.4125 304.35 361.94376 304.1Q361.31876 303.77188 361.02188 303.30313Q360.725 302.81876 360.725 302.225Q360.725 301.58438 361.08438 301.02188Q361.45938 300.44376 362.1625 300.1625Q362.88126 299.86563 363.74063 299.86563Q364.69376 299.86563 365.42813 300.17813Q366.1625 300.475 366.55313 301.08438Q366.94376 301.67813 366.975 302.42813L365.88126 302.50626Q365.7875 301.69376 365.27188 301.2875Q364.77188 300.86563 363.7875 300.86563Q362.75626 300.86563 362.2875 301.24063Q361.81876 301.61563 361.81876 302.14688Q361.81876 302.61563 362.14688 302.9125Q362.475 303.20938 363.85 303.52188Q365.24063 303.83438 365.75626 304.06876Q366.50626 304.42813 366.86563 304.95938Q367.225 305.475 367.225 306.17813Q367.225 306.86563 366.83438 307.475Q366.44376 308.06876 365.70938 308.4125Q364.975 308.74063 364.05313 308.74063Q362.88126 308.74063 362.08438 308.4125Q361.30313 308.06876 360.85 307.38126Q360.4125 306.69376 360.39688 305.83438ZM368.64688 310.99063L368.64688 302.38126L369.6 302.38126L369.6 303.17813Q369.94376 302.70938 370.36563 302.475Q370.80313 302.24063 371.4125 302.24063Q372.20938 302.24063 372.81876 302.64688Q373.42813 303.05313 373.725 303.80313Q374.0375 304.55313 374.0375 305.44376Q374.0375 306.39688 373.69376 307.1625Q373.36563 307.92813 372.70938 308.33438Q372.05313 308.74063 371.33438 308.74063Q370.80313 308.74063 370.38126 308.52188Q369.95938 308.2875 369.69376 307.95938L369.69376 310.99063L368.64688 310.99063ZM369.6 305.52188Q369.6 306.725 370.08438 307.30313Q370.56876 307.86563 371.25626 307.86563Q371.95938 307.86563 372.45938 307.27188Q372.95938 306.67813 372.95938 305.42813Q372.95938 304.24063 372.475 303.6625Q371.99063 303.06876 371.30313 303.06876Q370.63126 303.06876 370.11563 303.69376Q369.6 304.31876 369.6 305.52188ZM375.63126 308.6L375.63126 302.38126L376.58438 302.38126L376.58438 303.31876Q376.94376 302.6625 377.24063 302.45938Q377.55313 302.24063 377.92813 302.24063Q378.45938 302.24063 379.00626 302.56876L378.64688 303.55313Q378.25626 303.31876 377.88126 303.31876Q377.52188 303.31876 377.24063 303.5375Q376.975 303.74063 376.86563 304.11563Q376.67813 304.67813 376.67813 305.33438L376.67813 308.6L375.63126 308.6ZM379.64688 301.225L379.64688 300.00626L380.70938 300.00626L380.70938 301.225L379.64688 301.225ZM379.64688 308.6L379.64688 302.38126L380.70938 302.38126L380.70938 308.6L379.64688 308.6ZM382.64688 308.6L382.64688 302.38126L383.58438 302.38126L383.58438 303.25626Q384.27188 302.24063 385.56876 302.24063Q386.13126 302.24063 386.6 302.44376Q387.08438 302.64688 387.31876 302.975Q387.55313 303.30313 387.64688 303.74063Q387.69376 304.0375 387.69376 304.77188L387.69376 308.6L386.64688 308.6L386.64688 304.81876Q386.64688 304.1625 386.52188 303.85Q386.39688 303.5375 386.08438 303.35Q385.77188 303.14688 385.35 303.14688Q384.67813 303.14688 384.17813 303.58438Q383.69376 304.00626 383.69376 305.19376L383.69376 308.6L382.64688 308.6ZM391.94376 307.6625L392.1 308.58438Q391.64688 308.67813 391.30313 308.67813Q390.725 308.67813 390.4125 308.50626Q390.1 308.31876 389.95938 308.02188Q389.83438 307.725 389.83438 306.77188L389.83438 303.19376L389.06876 303.19376L389.06876 302.38126L389.83438 302.38126L389.83438 300.83438L390.88126 300.20938L390.88126 302.38126L391.94376 302.38126L391.94376 303.19376L390.88126 303.19376L390.88126 306.83438Q390.88126 307.2875 390.92813 307.4125Q390.99063 307.5375 391.11563 307.61563Q391.24063 307.69376 391.475 307.69376Q391.6625 307.69376 391.94376 307.6625ZM400.81876 302.11563L399.77188 302.19376Q399.63126 301.56876 399.38126 301.2875Q398.94376 300.83438 398.31876 300.83438Q397.81876 300.83438 397.42813 301.11563Q396.94376 301.49063 396.64688 302.19376Q396.36563 302.88126 396.35 304.1625Q396.725 303.58438 397.27188 303.30313Q397.83438 303.02188 398.44376 303.02188Q399.49063 303.02188 400.225 303.80313Q400.975 304.58438 400.975 305.80313Q400.975 306.61563 400.61563 307.31876Q400.27188 308.00626 399.6625 308.38126Q399.05313 308.74063 398.2875 308.74063Q396.95938 308.74063 396.13126 307.77188Q395.30313 306.80313 395.30313 304.58438Q395.30313 302.08438 396.225 300.95938Q397.02188 299.975 398.38126 299.975Q399.39688 299.975 400.0375 300.55313Q400.69376 301.11563 400.81876 302.11563ZM396.52188 305.81876Q396.52188 306.36563 396.74063 306.86563Q396.975 307.35 397.38126 307.61563Q397.80313 307.88126 398.27188 307.88126Q398.92813 307.88126 399.4125 307.35Q399.89688 306.80313 399.89688 305.88126Q399.89688 304.99063 399.4125 304.475Q398.94376 303.95938 398.225 303.95938Q397.50626 303.95938 397.00626 304.475Q396.52188 304.99063 396.52188 305.81876Z" fill-rule="nonzero"/><path fill="#000000" d="M414.29688 305.83438L415.35938 305.74063Q415.4375 306.39688 415.71875 306.80313Q416.0 307.20938 416.57812 307.475Q417.17188 307.725 417.90625 307.725Q418.54688 307.725 419.04688 307.5375Q419.54688 307.33438 419.78125 307.00626Q420.03125 306.6625 420.03125 306.27188Q420.03125 305.86563 419.79688 305.56876Q419.5625 305.25626 419.03125 305.05313Q418.67188 304.9125 417.48438 304.63126Q416.3125 304.35 415.84375 304.1Q415.21875 303.77188 414.92188 303.30313Q414.625 302.81876 414.625 302.225Q414.625 301.58438 414.98438 301.02188Q415.35938 300.44376 416.0625 300.1625Q416.78125 299.86563 417.64062 299.86563Q418.59375 299.86563 419.32812 300.17813Q420.0625 300.475 420.45312 301.08438Q420.84375 301.67813 420.875 302.42813L419.78125 302.50626Q419.6875 301.69376 419.17188 301.2875Q418.67188 300.86563 417.6875 300.86563Q416.65625 300.86563 416.1875 301.24063Q415.71875 301.61563 415.71875 302.14688Q415.71875 302.61563 416.04688 302.9125Q416.375 303.20938 417.75 303.52188Q419.14062 303.83438 419.65625 304.06876Q420.40625 304.42813 420.76562 304.95938Q421.125 305.475 421.125 306.17813Q421.125 306.86563 420.73438 307.475Q420.34375 308.06876 419.60938 308.4125Q418.875 308.74063 417.95312 308.74063Q416.78125 308.74063 415.98438 308.4125Q415.20312 308.06876 414.75 307.38126Q414.3125 306.69376 414.29688 305.83438ZM422.54688 310.99063L422.54688 302.38126L423.5 302.38126L423.5 303.17813Q423.84375 302.70938 424.26562 302.475Q424.70312 302.24063 425.3125 302.24063Q426.10938 302.24063 426.71875 302.64688Q427.32812 303.05313 427.625 303.80313Q427.9375 304.55313 427.9375 305.44376Q427.9375 306.39688 427.59375 307.1625Q427.26562 307.92813 426.60938 308.33438Q425.95312 308.74063 425.23438 308.74063Q424.70312 308.74063 424.28125 308.52188Q423.85938 308.2875 423.59375 307.95938L423.59375 310.99063L422.54688 310.99063ZM423.5 305.52188Q423.5 306.725 423.98438 307.30313Q424.46875 307.86563 425.15625 307.86563Q425.85938 307.86563 426.35938 307.27188Q426.85938 306.67813 426.85938 305.42813Q426.85938 304.24063 426.375 303.6625Q425.89062 303.06876 425.20312 303.06876Q424.53125 303.06876 424.01562 303.69376Q423.5 304.31876 423.5 305.52188ZM429.53125 308.6L429.53125 302.38126L430.48438 302.38126L430.48438 303.31876Q430.84375 302.6625 431.14062 302.45938Q431.45312 302.24063 431.82812 302.24063Q432.35938 302.24063 432.90625 302.56876L432.54688 303.55313Q432.15625 303.31876 431.78125 303.31876Q431.42188 303.31876 431.14062 303.5375Q430.875 303.74063 430.76562 304.11563Q430.57812 304.67813 430.57812 305.33438L430.57812 308.6L429.53125 308.6ZM433.54688 301.225L433.54688 300.00626L434.60938 300.00626L434.60938 301.225L433.54688 301.225ZM433.54688 308.6L433.54688 302.38126L434.60938 302.38126L434.60938 308.6L433.54688 308.6ZM436.54688 308.6L436.54688 302.38126L437.48438 302.38126L437.48438 303.25626Q438.17188 302.24063 439.46875 302.24063Q440.03125 302.24063 440.5 302.44376Q440.98438 302.64688 441.21875 302.975Q441.45312 303.30313 441.54688 303.74063Q441.59375 304.0375 441.59375 304.77188L441.59375 308.6L440.54688 308.6L440.54688 304.81876Q440.54688 304.1625 440.42188 303.85Q440.29688 303.5375 439.98438 303.35Q439.67188 303.14688 439.25 303.14688Q438.57812 303.14688 438.07812 303.58438Q437.59375 304.00626 437.59375 305.19376L437.59375 308.6L436.54688 308.6ZM445.84375 307.6625L446.0 308.58438Q445.54688 308.67813 445.20312 308.67813Q444.625 308.67813 444.3125 308.50626Q444.0 308.31876 443.85938 308.02188Q443.73438 307.725 443.73438 306.77188L443.73438 303.19376L442.96875 303.19376L442.96875 302.38126L443.73438 302.38126L443.73438 300.83438L444.78125 300.20938L444.78125 302.38126L445.84375 302.38126L445.84375 303.19376L444.78125 303.19376L444.78125 306.83438Q444.78125 307.2875 444.82812 307.4125Q444.89062 307.5375 445.01562 307.61563Q445.14062 307.69376 445.375 307.69376Q445.5625 307.69376 445.84375 307.6625ZM449.3125 301.13126L449.3125 300.11563L454.875 300.11563L454.875 300.94376Q454.0625 301.81876 453.25 303.27188Q452.45312 304.70938 452.01562 306.24063Q451.6875 307.31876 451.60938 308.6L450.51562 308.6Q450.53125 307.58438 450.90625 306.14688Q451.29688 304.70938 452.0 303.38126Q452.71875 302.05313 453.53125 301.13126L449.3125 301.13126Z" fill-rule="nonzero"/><path fill="#000000" d="M468.19687 305.83438L469.25937 305.74063Q469.3375 306.39688 469.61874 306.80313Q469.9 307.20938 470.47812 307.475Q471.07187 307.725 471.80624 307.725Q472.44687 307.725 472.94687 307.5375Q473.44687 307.33438 473.68124 307.00626Q473.93124 306.6625 473.93124 306.27188Q473.93124 305.86563 473.69687 305.56876Q473.4625 305.25626 472.93124 305.05313Q472.57187 304.9125 471.38437 304.63126Q470.2125 304.35 469.74374 304.1Q469.11874 303.77188 468.82187 303.30313Q468.525 302.81876 468.525 302.225Q468.525 301.58438 468.88437 301.02188Q469.25937 300.44376 469.9625 300.1625Q470.68124 299.86563 471.54062 299.86563Q472.49374 299.86563 473.22812 300.17813Q473.9625 300.475 474.35312 301.08438Q474.74374 301.67813 474.775 302.42813L473.68124 302.50626Q473.5875 301.69376 473.07187 301.2875Q472.57187 300.86563 471.5875 300.86563Q470.55624 300.86563 470.0875 301.24063Q469.61874 301.61563 469.61874 302.14688Q469.61874 302.61563 469.94687 302.9125Q470.275 303.20938 471.65 303.52188Q473.04062 303.83438 473.55624 304.06876Q474.30624 304.42813 474.66562 304.95938Q475.025 305.475 475.025 306.17813Q475.025 306.86563 474.63437 307.475Q474.24374 308.06876 473.50937 308.4125Q472.775 308.74063 471.85312 308.74063Q470.68124 308.74063 469.88437 308.4125Q469.10312 308.06876 468.65 307.38126Q468.2125 306.69376 468.19687 305.83438ZM476.44687 310.99063L476.44687 302.38126L477.4 302.38126L477.4 303.17813Q477.74374 302.70938 478.16562 302.475Q478.60312 302.24063 479.2125 302.24063Q480.00937 302.24063 480.61874 302.64688Q481.22812 303.05313 481.525 303.80313Q481.8375 304.55313 481.8375 305.44376Q481.8375 306.39688 481.49374 307.1625Q481.16562 307.92813 480.50937 308.33438Q479.85312 308.74063 479.13437 308.74063Q478.60312 308.74063 478.18124 308.52188Q477.75937 308.2875 477.49374 307.95938L477.49374 310.99063L476.44687 310.99063ZM477.4 305.52188Q477.4 306.725 477.88437 307.30313Q478.36874 307.86563 479.05624 307.86563Q479.75937 307.86563 480.25937 307.27188Q480.75937 306.67813 480.75937 305.42813Q480.75937 304.24063 480.275 303.6625Q479.79062 303.06876 479.10312 303.06876Q478.43124 303.06876 477.91562 303.69376Q477.4 304.31876 477.4 305.52188ZM483.43124 308.6L483.43124 302.38126L484.38437 302.38126L484.38437 303.31876Q484.74374 302.6625 485.04062 302.45938Q485.35312 302.24063 485.72812 302.24063Q486.25937 302.24063 486.80624 302.56876L486.44687 303.55313Q486.05624 303.31876 485.68124 303.31876Q485.32187 303.31876 485.04062 303.5375Q484.775 303.74063 484.66562 304.11563Q484.47812 304.67813 484.47812 305.33438L484.47812 308.6L483.43124 308.6ZM487.44687 301.225L487.44687 300.00626L488.50937 300.00626L488.50937 301.225L487.44687 301.225ZM487.44687 308.6L487.44687 302.38126L488.50937 302.38126L488.50937 308.6L487.44687 308.6ZM490.44687 308.6L490.44687 302.38126L491.38437 302.38126L491.38437 303.25626Q492.07187 302.24063 493.36874 302.24063Q493.93124 302.24063 494.4 302.44376Q494.88437 302.64688 495.11874 302.975Q495.35312 303.30313 495.44687 303.74063Q495.49374 304.0375 495.49374 304.77188L495.49374 308.6L494.44687 308.6L494.44687 304.81876Q494.44687 304.1625 494.32187 303.85Q494.19687 303.5375 493.88437 303.35Q493.57187 303.14688 493.15 303.14688Q492.47812 303.14688 491.97812 303.58438Q491.49374 304.00626 491.49374 305.19376L491.49374 308.6L490.44687 308.6ZM499.74374 307.6625L499.9 308.58438Q499.44687 308.67813 499.10312 308.67813Q498.525 308.67813 498.2125 308.50626Q497.9 308.31876 497.75937 308.02188Q497.63437 307.725 497.63437 306.77188L497.63437 303.19376L496.86874 303.19376L496.86874 302.38126L497.63437 302.38126L497.63437 300.83438L498.68124 300.20938L498.68124 302.38126L499.74374 302.38126L499.74374 303.19376L498.68124 303.19376L498.68124 306.83438Q498.68124 307.2875 498.72812 307.4125Q498.79062 307.5375 498.91562 307.61563Q499.04062 307.69376 499.275 307.69376Q499.4625 307.69376 499.74374 307.6625ZM504.775 303.94376Q504.11874 303.69376 503.79062 303.25626Q503.47812 302.80313 503.47812 302.19376Q503.47812 301.25626 504.15 300.61563Q504.8375 299.975 505.94687 299.975Q507.07187 299.975 507.75937 300.63126Q508.44687 301.2875 508.44687 302.225Q508.44687 302.81876 508.13437 303.25626Q507.82187 303.69376 507.18124 303.94376Q507.97812 304.19376 508.38437 304.77188Q508.79062 305.35 508.79062 306.14688Q508.79062 307.24063 508.00937 307.99063Q507.24374 308.74063 505.9625 308.74063Q504.69687 308.74063 503.91562 307.99063Q503.13437 307.24063 503.13437 306.11563Q503.13437 305.27188 503.55624 304.70938Q503.99374 304.14688 504.775 303.94376ZM504.55624 302.14688Q504.55624 302.75626 504.94687 303.14688Q505.35312 303.5375 505.97812 303.5375Q506.5875 303.5375 506.97812 303.1625Q507.36874 302.77188 507.36874 302.20938Q507.36874 301.63126 506.9625 301.24063Q506.55624 300.83438 505.9625 300.83438Q505.35312 300.83438 504.94687 301.225Q504.55624 301.61563 504.55624 302.14688ZM504.22812 306.11563Q504.22812 306.56876 504.43124 306.99063Q504.65 307.4125 505.07187 307.64688Q505.49374 307.88126 505.97812 307.88126Q506.72812 307.88126 507.2125 307.39688Q507.7125 306.9125 507.7125 306.1625Q507.7125 305.39688 507.2125 304.89688Q506.7125 304.39688 505.94687 304.39688Q505.19687 304.39688 504.7125 304.89688Q504.22812 305.38126 504.22812 306.11563Z" fill-rule="nonzero"/><path fill="#4285f4" d="M136.0 23.4C136.0 26.713709 133.3137 29.4 130.0 29.4C126.686295 29.4 124.0 26.713709 124.0 23.4C124.0 20.086292 126.686295 17.4 130.0 17.4C133.3137 17.4 136.0 20.086292 136.0 23.4Z" fill-rule="nonzero"/><path fill="#1a1a1a" d="M151.0625 24.384375L152.1875 24.68125Q151.82812 26.071875 150.90625 26.80625Q149.98438 27.540625 148.64062 27.540625Q147.25 27.540625 146.375 26.978125Q145.5 26.415625 145.04688 25.353125Q144.59375 24.275 144.59375 23.040625Q144.59375 21.696875 145.10938 20.696875Q145.625 19.696875 146.5625 19.18125Q147.51562 18.665625 148.65625 18.665625Q149.9375 18.665625 150.8125 19.321875Q151.70312 19.978125 152.04688 21.165625L150.92188 21.43125Q150.625 20.49375 150.04688 20.071875Q149.48438 19.634375 148.625 19.634375Q147.64062 19.634375 146.96875 20.11875Q146.3125 20.5875 146.03125 21.384375Q145.76562 22.18125 145.76562 23.040625Q145.76562 24.134375 146.07812 24.946875Q146.40625 25.759375 147.07812 26.165625Q147.75 26.571875 148.54688 26.571875Q149.5 26.571875 150.15625 26.025Q150.82812 25.478125 151.0625 24.384375ZM153.92188 27.4L153.92188 18.80625L157.17188 18.80625Q158.01562 18.80625 158.46875 18.884375Q159.10938 18.99375 159.53125 19.290625Q159.96875 19.5875 160.21875 20.11875Q160.48438 20.65 160.48438 21.290625Q160.48438 22.384375 159.78125 23.15Q159.09375 23.9 157.26562 23.9L155.0625 23.9L155.0625 27.4L153.92188 27.4ZM155.0625 22.9L157.28125 22.9Q158.39062 22.9 158.84375 22.49375Q159.3125 22.071875 159.3125 21.321875Q159.3125 20.790625 159.03125 20.415625Q158.76562 20.025 158.32812 19.9Q158.03125 19.821875 157.26562 19.821875L155.0625 19.821875L155.0625 22.9ZM162.125 27.4L162.125 18.80625L163.25 18.80625L163.25 27.4L162.125 27.4Z" fill-rule="nonzero"/><path fill="#ea4335" d="M192.0 23.4C192.0 26.713709 189.3137 29.4 186.0 29.4C182.6863 29.4 180.0 26.713709 180.0 23.4C180.0 20.086292 182.6863 17.4 186.0 17.4C189.3137 17.4 192.0 20.086292 192.0 23.4Z" fill-rule="nonzero"/><path fill="#1a1a1a" d="M200.875 27.4L200.875 18.80625L202.01562 18.80625L202.01562 26.384375L206.25 26.384375L206.25 27.4L200.875 27.4ZM207.79688 20.025L207.79688 18.80625L208.85938 18.80625L208.85938 20.025L207.79688 20.025ZM207.79688 27.4L207.79688 21.18125L208.85938 21.18125L208.85938 27.4L207.79688 27.4ZM210.79688 27.4L210.79688 21.18125L211.73438 21.18125L211.73438 22.05625Q212.03125 21.5875 212.51562 21.321875Q213.0 21.040625 213.625 21.040625Q214.3125 21.040625 214.75 21.321875Q215.20312 21.603125 215.375 22.11875Q216.125 21.040625 217.29688 21.040625Q218.23438 21.040625 218.71875 21.55625Q219.21875 22.05625 219.21875 23.134375L219.21875 27.4L218.17188 27.4L218.17188 23.478125Q218.17188 22.853125 218.0625 22.571875Q217.96875 22.290625 217.70312 22.11875Q217.4375 21.946875 217.0625 21.946875Q216.40625 21.946875 215.96875 22.384375Q215.54688 22.821875 215.54688 23.790625L215.54688 27.4L214.48438 27.4L214.48438 23.353125Q214.48438 22.65 214.21875 22.30625Q213.96875 21.946875 213.39062 21.946875Q212.9375 21.946875 212.5625 22.18125Q212.1875 22.415625 212.01562 22.86875Q211.84375 23.321875 211.84375 24.165625L211.84375 27.4L210.79688 27.4ZM221.79688 20.025L221.79688 18.80625L222.85938 18.80625L222.85938 20.025L221.79688 20.025ZM221.79688 27.4L221.79688 21.18125L222.85938 21.18125L222.85938 27.4L221.79688 27.4ZM227.09375 26.4625L227.25 27.384375Q226.79688 27.478125 226.45312 27.478125Q225.875 27.478125 225.5625 27.30625Q225.25 27.11875 225.10938 26.821875Q224.98438 26.525 224.98438 25.571875L224.98438 21.99375L224.21875 21.99375L224.21875 21.18125L224.98438 21.18125L224.98438 19.634375L226.03125 19.009375L226.03125 21.18125L227.09375 21.18125L227.09375 21.99375L226.03125 21.99375L226.03125 25.634375Q226.03125 26.0875 226.07812 26.2125Q226.14062 26.3375 226.26562 26.415625Q226.39062 26.49375 226.625 26.49375Q226.8125 26.49375 227.09375 26.4625ZM232.04688 25.4L233.14062 25.525Q232.89062 26.478125 232.1875 27.009375Q231.48438 27.540625 230.40625 27.540625Q229.04688 27.540625 228.23438 26.696875Q227.4375 25.853125 227.4375 24.3375Q227.4375 22.775 228.25 21.915625Q229.0625 21.040625 230.34375 21.040625Q231.59375 21.040625 232.375 21.884375Q233.17188 22.728125 233.17188 24.275Q233.17188 24.36875 233.17188 24.55625L228.53125 24.55625Q228.59375 25.5875 229.10938 26.134375Q229.625 26.665625 230.40625 26.665625Q230.98438 26.665625 231.39062 26.36875Q231.8125 26.05625 232.04688 25.4ZM228.59375 23.696875L232.0625 23.696875Q232.0 22.9 231.67188 22.509375Q231.15625 21.9 230.35938 21.9Q229.625 21.9 229.125 22.384375Q228.64062 22.86875 228.59375 23.696875ZM237.375 25.540625L238.40625 25.384375Q238.5 26.009375 238.89062 26.3375Q239.29688 26.665625 240.03125 26.665625Q240.75 26.665625 241.09375 26.384375Q241.45312 26.0875 241.45312 25.68125Q241.45312 25.321875 241.14062 25.11875Q240.92188 24.978125 240.0625 24.759375Q238.90625 24.4625 238.45312 24.259375Q238.01562 24.040625 237.78125 23.665625Q237.54688 23.290625 237.54688 22.821875Q237.54688 22.415625 237.73438 22.05625Q237.92188 21.696875 238.25 21.4625Q238.5 21.290625 238.92188 21.165625Q239.34375 21.040625 239.84375 21.040625Q240.5625 21.040625 241.10938 21.259375Q241.67188 21.4625 241.9375 21.821875Q242.20312 22.18125 242.29688 22.775L241.26562 22.915625Q241.20312 22.446875 240.85938 22.18125Q240.53125 21.9 239.90625 21.9Q239.1875 21.9 238.875 22.15Q238.5625 22.384375 238.5625 22.7125Q238.5625 22.915625 238.6875 23.071875Q238.82812 23.24375 239.09375 23.353125Q239.25 23.415625 240.03125 23.61875Q241.15625 23.93125 241.59375 24.11875Q242.03125 24.30625 242.28125 24.665625Q242.53125 25.025 242.53125 25.571875Q242.53125 26.103125 242.21875 26.571875Q241.92188 27.025 241.34375 27.290625Q240.76562 27.540625 240.03125 27.540625Q238.8125 27.540625 238.17188 27.040625Q237.54688 26.525 237.375 25.540625ZM248.875 27.4L248.875 26.478125Q248.14062 27.540625 246.89062 27.540625Q246.34375 27.540625 245.85938 27.3375Q245.39062 27.11875 245.15625 26.80625Q244.92188 26.478125 244.82812 26.009375Q244.76562 25.7125 244.76562 25.025L244.76562 21.18125L245.82812 21.18125L245.82812 24.634375Q245.82812 25.446875 245.89062 25.74375Q245.98438 26.15 246.29688 26.4Q246.625 26.634375 247.10938 26.634375Q247.57812 26.634375 247.98438 26.4Q248.40625 26.15 248.57812 25.728125Q248.76562 25.30625 248.76562 24.509375L248.76562 21.18125L249.8125 21.18125L249.8125 27.4L248.875 27.4ZM251.79688 29.790625L251.79688 21.18125L252.75 21.18125L252.75 21.978125Q253.09375 21.509375 253.51562 21.275Q253.95312 21.040625 254.5625 21.040625Q255.35938 21.040625 255.96875 21.446875Q256.57812 21.853125 256.875 22.603125Q257.1875 23.353125 257.1875 24.24375Q257.1875 25.196875 256.84375 25.9625Q256.51562 26.728125 255.85938 27.134375Q255.20312 27.540625 254.48438 27.540625Q253.95312 27.540625 253.53125 27.321875Q253.10938 27.0875 252.84375 26.759375L252.84375 29.790625L251.79688 29.790625ZM252.75 24.321875Q252.75 25.525 253.23438 26.103125Q253.71875 26.665625 254.40625 26.665625Q255.10938 26.665625 255.60938 26.071875Q256.10938 25.478125 256.10938 24.228125Q256.10938 23.040625 255.625 22.4625Q255.14062 21.86875 254.45312 21.86875Q253.78125 21.86875 253.26562 22.49375Q252.75 23.11875 252.75 24.321875ZM263.04688 25.4L264.14062 25.525Q263.89062 26.478125 263.1875 27.009375Q262.48438 27.540625 261.40625 27.540625Q260.04688 27.540625 259.23438 26.696875Q258.4375 25.853125 258.4375 24.3375Q258.4375 22.775 259.25 21.915625Q260.0625 21.040625 261.34375 21.040625Q262.59375 21.040625 263.375 21.884375Q264.17188 22.728125 264.17188 24.275Q264.17188 24.36875 264.17188 24.55625L259.53125 24.55625Q259.59375 25.5875 260.10938 26.134375Q260.625 26.665625 261.40625 26.665625Q261.98438 26.665625 262.39062 26.36875Q262.8125 26.05625 263.04688 25.4ZM259.59375 23.696875L263.0625 23.696875Q263.0 22.9 262.67188 22.509375Q262.15625 21.9 261.35938 21.9Q260.625 21.9 260.125 22.384375Q259.64062 22.86875 259.59375 23.696875ZM265.78125 27.4L265.78125 21.18125L266.73438 21.18125L266.73438 22.11875Q267.09375 21.4625 267.39062 21.259375Q267.70312 21.040625 268.07812 21.040625Q268.60938 21.040625 269.15625 21.36875L268.79688 22.353125Q268.40625 22.11875 268.03125 22.11875Q267.67188 22.11875 267.39062 22.3375Q267.125 22.540625 267.01562 22.915625Q266.82812 23.478125 266.82812 24.134375L266.82812 27.4L265.78125 27.4ZM269.79688 20.025L269.79688 18.80625L270.85938 18.80625L270.85938 20.025L269.79688 20.025ZM269.79688 27.4L269.79688 21.18125L270.85938 21.18125L270.85938 27.4L269.79688 27.4ZM272.40625 24.290625Q272.40625 22.55625 273.35938 21.728125Q274.15625 21.040625 275.3125 21.040625Q276.59375 21.040625 277.40625 21.884375Q278.23438 22.7125 278.23438 24.196875Q278.23438 25.4 277.875 26.0875Q277.51562 26.775 276.8125 27.165625Q276.125 27.540625 275.3125 27.540625Q274.01562 27.540625 273.20312 26.7125Q272.40625 25.86875 272.40625 24.290625ZM273.48438 24.290625Q273.48438 25.478125 274.0 26.071875Q274.53125 26.665625 275.3125 26.665625Q276.10938 26.665625 276.625 26.071875Q277.14062 25.478125 277.14062 24.259375Q277.14062 23.103125 276.60938 22.509375Q276.09375 21.915625 275.3125 21.915625Q274.53125 21.915625 274.0 22.509375Q273.48438 23.0875 273.48438 24.290625ZM279.78125 27.4L279.78125 21.18125L280.73438 21.18125L280.73438 22.11875Q281.09375 21.4625 281.39062 21.259375Q281.70312 21.040625 282.07812 21.040625Q282.60938 21.040625 283.15625 21.36875L282.79688 22.353125Q282.40625 22.11875 282.03125 22.11875Q281.67188 22.11875 281.39062 22.3375Q281.125 22.540625 281.01562 22.915625Q280.82812 23.478125 280.82812 24.134375L280.82812 27.4L279.78125 27.4ZM288.04688 25.4L289.14062 25.525Q288.89062 26.478125 288.1875 27.009375Q287.48438 27.540625 286.40625 27.540625Q285.04688 27.540625 284.23438 26.696875Q283.4375 25.853125 283.4375 24.3375Q283.4375 22.775 284.25 21.915625Q285.0625 21.040625 286.34375 21.040625Q287.59375 21.040625 288.375 21.884375Q289.17188 22.728125 289.17188 24.275Q289.17188 24.36875 289.17188 24.55625L284.53125 24.55625Q284.59375 25.5875 285.10938 26.134375Q285.625 26.665625 286.40625 26.665625Q286.98438 26.665625 287.39062 26.36875Q287.8125 26.05625 288.04688 25.4ZM284.59375 23.696875L288.0625 23.696875Q288.0 22.9 287.67188 22.509375Q287.15625 21.9 286.35938 21.9Q285.625 21.9 285.125 22.384375Q284.64062 22.86875 284.59375 23.696875Z" fill-rule="nonzero"/><path fill="#fbbc04" fill-opacity="0.7019608" d="M318.0 23.4C318.0 26.713709 315.31372 29.4 312.0 29.4C308.68628 29.4 306.0 26.713709 306.0 23.4C306.0 20.086292 308.68628 17.4 312.0 17.4C315.31372 17.4 318.0 20.086292 318.0 23.4Z" fill-rule="nonzero"/><path fill="#1a1a1a" d="M326.875 27.4L326.875 18.80625L328.01562 18.80625L328.01562 26.384375L332.25 26.384375L332.25 27.4L326.875 27.4ZM333.79688 20.025L333.79688 18.80625L334.85938 18.80625L334.85938 20.025L333.79688 20.025ZM333.79688 27.4L333.79688 21.18125L334.85938 21.18125L334.85938 27.4L333.79688 27.4ZM336.79688 27.4L336.79688 21.18125L337.73438 21.18125L337.73438 22.05625Q338.03125 21.5875 338.51562 21.321875Q339.0 21.040625 339.625 21.040625Q340.3125 21.040625 340.75 21.321875Q341.20312 21.603125 341.375 22.11875Q342.125 21.040625 343.29688 21.040625Q344.23438 21.040625 344.71875 21.55625Q345.21875 22.05625 345.21875 23.134375L345.21875 27.4L344.17188 27.4L344.17188 23.478125Q344.17188 22.853125 344.0625 22.571875Q343.96875 22.290625 343.70312 22.11875Q343.4375 21.946875 343.0625 21.946875Q342.40625 21.946875 341.96875 22.384375Q341.54688 22.821875 341.54688 23.790625L341.54688 27.4L340.48438 27.4L340.48438 23.353125Q340.48438 22.65 340.21875 22.30625Q339.96875 21.946875 339.39062 21.946875Q338.9375 21.946875 338.5625 22.18125Q338.1875 22.415625 338.01562 22.86875Q337.84375 23.321875 337.84375 24.165625L337.84375 27.4L336.79688 27.4ZM347.79688 20.025L347.79688 18.80625L348.85938 18.80625L348.85938 20.025L347.79688 20.025ZM347.79688 27.4L347.79688 21.18125L348.85938 21.18125L348.85938 27.4L347.79688 27.4ZM353.09375 26.4625L353.25 27.384375Q352.79688 27.478125 352.45312 27.478125Q351.875 27.478125 351.5625 27.30625Q351.25 27.11875 351.10938 26.821875Q350.98438 26.525 350.98438 25.571875L350.98438 21.99375L350.21875 21.99375L350.21875 21.18125L350.98438 21.18125L350.98438 19.634375L352.03125 19.009375L352.03125 21.18125L353.09375 21.18125L353.09375 21.99375L352.03125 21.99375L352.03125 25.634375Q352.03125 26.0875 352.07812 26.2125Q352.14062 26.3375 352.26562 26.415625Q352.39062 26.49375 352.625 26.49375Q352.8125 26.49375 353.09375 26.4625ZM358.04688 25.4L359.14062 25.525Q358.89062 26.478125 358.1875 27.009375Q357.48438 27.540625 356.40625 27.540625Q355.04688 27.540625 354.23438 26.696875Q353.4375 25.853125 353.4375 24.3375Q353.4375 22.775 354.25 21.915625Q355.0625 21.040625 356.34375 21.040625Q357.59375 21.040625 358.375 21.884375Q359.17188 22.728125 359.17188 24.275Q359.17188 24.36875 359.17188 24.55625L354.53125 24.55625Q354.59375 25.5875 355.10938 26.134375Q355.625 26.665625 356.40625 26.665625Q356.98438 26.665625 357.39062 26.36875Q357.8125 26.05625 358.04688 25.4ZM354.59375 23.696875L358.0625 23.696875Q358.0 22.9 357.67188 22.509375Q357.15625 21.9 356.35938 21.9Q355.625 21.9 355.125 22.384375Q354.64062 22.86875 354.59375 23.696875ZM363.79688 20.025L363.79688 18.80625L364.85938 18.80625L364.85938 20.025L363.79688 20.025ZM363.79688 27.4L363.79688 21.18125L364.85938 21.18125L364.85938 27.4L363.79688 27.4ZM366.79688 27.4L366.79688 21.18125L367.73438 21.18125L367.73438 22.05625Q368.42188 21.040625 369.71875 21.040625Q370.28125 21.040625 370.75 21.24375Q371.23438 21.446875 371.46875 21.775Q371.70312 22.103125 371.79688 22.540625Q371.84375 22.8375 371.84375 23.571875L371.84375 27.4L370.79688 27.4L370.79688 23.61875Q370.79688 22.9625 370.67188 22.65Q370.54688 22.3375 370.23438 22.15Q369.92188 21.946875 369.5 21.946875Q368.82812 21.946875 368.32812 22.384375Q367.84375 22.80625 367.84375 23.99375L367.84375 27.4L366.79688 27.4ZM374.04688 27.4L374.04688 21.99375L373.10938 21.99375L373.10938 21.18125L374.04688 21.18125L374.04688 20.509375Q374.04688 19.884375 374.15625 19.5875Q374.3125 19.165625 374.6875 18.915625Q375.07812 18.665625 375.76562 18.665625Q376.21875 18.665625 376.75 18.775L376.59375 19.68125Q376.26562 19.634375 375.96875 19.634375Q375.48438 19.634375 375.28125 19.8375Q375.09375 20.040625 375.09375 20.603125L375.09375 21.18125L376.3125 21.18125L376.3125 21.99375L375.09375 21.99375L375.09375 27.4L374.04688 27.4ZM381.04688 25.4L382.14062 25.525Q381.89062 26.478125 381.1875 27.009375Q380.48438 27.540625 379.40625 27.540625Q378.04688 27.540625 377.23438 26.696875Q376.4375 25.853125 376.4375 24.3375Q376.4375 22.775 377.25 21.915625Q378.0625 21.040625 379.34375 21.040625Q380.59375 21.040625 381.375 21.884375Q382.17188 22.728125 382.17188 24.275Q382.17188 24.36875 382.17188 24.55625L377.53125 24.55625Q377.59375 25.5875 378.10938 26.134375Q378.625 26.665625 379.40625 26.665625Q379.98438 26.665625 380.39062 26.36875Q380.8125 26.05625 381.04688 25.4ZM377.59375 23.696875L381.0625 23.696875Q381.0 22.9 380.67188 22.509375Q380.15625 21.9 379.35938 21.9Q378.625 21.9 378.125 22.384375Q377.64062 22.86875 377.59375 23.696875ZM383.78125 27.4L383.78125 21.18125L384.73438 21.18125L384.73438 22.11875Q385.09375 21.4625 385.39062 21.259375Q385.70312 21.040625 386.07812 21.040625Q386.60938 21.040625 387.15625 21.36875L386.79688 22.353125Q386.40625 22.11875 386.03125 22.11875Q385.67188 22.11875 385.39062 22.3375Q385.125 22.540625 385.01562 22.915625Q384.82812 23.478125 384.82812 24.134375L384.82812 27.4L383.78125 27.4ZM387.79688 20.025L387.79688 18.80625L388.85938 18.80625L388.85938 20.025L387.79688 20.025ZM387.79688 27.4L387.79688 21.18125L388.85938 21.18125L388.85938 27.4L387.79688 27.4ZM390.40625 24.290625Q390.40625 22.55625 391.35938 21.728125Q392.15625 21.040625 393.3125 21.040625Q394.59375 21.040625 395.40625 21.884375Q396.23438 22.7125 396.23438 24.196875Q396.23438 25.4 395.875 26.0875Q395.51562 26.775 394.8125 27.165625Q394.125 27.540625 393.3125 27.540625Q392.01562 27.540625 391.20312 26.7125Q390.40625 25.86875 390.40625 24.290625ZM391.48438 24.290625Q391.48438 25.478125 392.0 26.071875Q392.53125 26.665625 393.3125 26.665625Q394.10938 26.665625 394.625 26.071875Q395.14062 25.478125 395.14062 24.259375Q395.14062 23.103125 394.60938 22.509375Q394.09375 21.915625 393.3125 21.915625Q392.53125 21.915625 392.0 22.509375Q391.48438 23.0875 391.48438 24.290625ZM397.78125 27.4L397.78125 21.18125L398.73438 21.18125L398.73438 22.11875Q399.09375 21.4625 399.39062 21.259375Q399.70312 21.040625 400.07812 21.040625Q400.60938 21.040625 401.15625 21.36875L400.79688 22.353125Q400.40625 22.11875 400.03125 22.11875Q399.67188 22.11875 399.39062 22.3375Q399.125 22.540625 399.01562 22.915625Q398.82812 23.478125 398.82812 24.134375L398.82812 27.4L397.78125 27.4ZM406.04688 25.4L407.14062 25.525Q406.89062 26.478125 406.1875 27.009375Q405.48438 27.540625 404.40625 27.540625Q403.04688 27.540625 402.23438 26.696875Q401.4375 25.853125 401.4375 24.3375Q401.4375 22.775 402.25 21.915625Q403.0625 21.040625 404.34375 21.040625Q405.59375 21.040625 406.375 21.884375Q407.17188 22.728125 407.17188 24.275Q407.17188 24.36875 407.17188 24.55625L402.53125 24.55625Q402.59375 25.5875 403.10938 26.134375Q403.625 26.665625 404.40625 26.665625Q404.98438 26.665625 405.39062 26.36875Q405.8125 26.05625 406.04688 25.4ZM402.59375 23.696875L406.0625 23.696875Q406.0 22.9 405.67188 22.509375Q405.15625 21.9 404.35938 21.9Q403.625 21.9 403.125 22.384375Q402.64062 22.86875 402.59375 23.696875Z" fill-rule="nonzero"/></svg>