<svg version="1.1" viewBox="0.0 0.0 532.0 328.0" fill="none" stroke="none" stroke-linecap="square" stroke-miterlimit="10" width="532" height="328" xmlns:xlink="http://www.w3.org/1999/xlink" xmlns="http://www.w3.org/2000/svg"><path fill="#ffffff" d="M0 0L532.0 0L532.0 328.0L0 328.0L0 0Z" fill-rule="nonzero"/><path stroke="#333333" stroke-width="1.0" stroke-linecap="butt" d="M81.5 285.5L515.5 285.5" fill-rule="nonzero"/><path stroke="#cccccc" stroke-width="1.0" stroke-linecap="butt" d="M81.5 261.5L515.5 261.5" fill-rule="nonzero"/><path stroke="#cccccc" stroke-width="1.0" stroke-linecap="butt" d="M81.5 238.5L515.5 238.5" fill-rule="nonzero"/><path stroke="#cccccc" stroke-width="1.0" stroke-linecap="butt" d="M81.5 214.5L515.5 214.5" fill-rule="nonzero"/><path stroke="#cccccc" stroke-width="1.0" stroke-linecap="butt" d="M81.5 190.5L515.5 190.5" fill-rule="nonzero"/><path stroke="#cccccc" stroke-width="1.0" stroke-linecap="butt" d="M81.5 166.5L515.5 166.5" fill-rule="nonzero"/><path stroke="#cccccc" stroke-width="1.0" stroke-linecap="butt" d="M81.5 143.5L515.5 143.5" fill-rule="nonzero"/><path stroke="#cccccc" stroke-width="1.0" stroke-linecap="butt" d="M81.5 119.5L515.5 119.5" fill-rule="nonzero"/><path stroke="#cccccc" stroke-width="1.0" stroke-linecap="butt" d="M81.5 95.5L515.5 95.5" fill-rule="nonzero"/><path stroke="#cccccc" stroke-width="1.0" stroke-linecap="butt" d="M81.5 72.5L515.5 72.5" fill-rule="nonzero"/><path stroke="#cccccc" stroke-width="1.0" stroke-linecap="butt" d="M81.5 48.5L515.5 48.5" fill-rule="nonzero"/><path stroke="#000000" stroke-width="1.0" stroke-linecap="butt" d="M515.5 285.5L81.5 285.5" fill-rule="nonzero"/><path stroke="#000000" stroke-width="1.0" stroke-linecap="butt" d="M81.5 285.5L81.5 48.5" fill-rule="nonzero"/><clipPath id="id_0"><path d="M81.4 48.333332L515.6 48.333332L515.6 285.6L81.4 285.6L81.4 48.333332Z" clip-rule="nonzero"/></clipPath><path stroke="#4285f4" stroke-width="2.0" stroke-linecap="butt" clip-path="url(#id_0)" d="M108.5375 200.36829C108.5375 200.36829 144.72084 165.5005 162.8125 156.39539C180.90416 147.29025 198.99583 149.95331 217.0875 145.73755C235.17917 141.52177 253.27083 134.28514 271.3625 131.10077C289.45416 127.916405 307.54584 128.56258 325.6375 126.63133C343.72916 124.700096 361.82083 120.430046 379.9125 119.513336C398.00418 118.59662 416.09583 122.00983 434.1875 121.13106C452.27917 120.2523 488.4625 114.24074 488.4625 114.24074" fill-rule="nonzero"/><path stroke="#ea4335" stroke-width="2.0" stroke-linecap="butt" clip-path="url(#id_0)" d="M108.5375 166.96666C108.5375 166.96666 144.72084 166.96666 162.8125 166.96666C180.90416 166.96666 198.99583 166.96666 217.0875 166.96666C235.17917 166.96666 253.27083 166.96666 271.3625 166.96666C289.45416 166.96666 307.54584 166.96666 325.6375 166.96666C343.72916 166.96666 361.82083 166.96666 379.9125 166.96666C398.00418 166.96666 416.09583 166.96666 434.1875 166.96666C452.27917 166.96666 488.4625 166.96666 488.4625 166.96666" fill-rule="nonzero"/><path stroke="#fbbc04" stroke-width="4.0" stroke-linecap="butt" stroke-opacity="0.7019608" clip-path="url(#id_0)" d="M108.5375 48.333332C108.5375 48.333332 144.72084 48.333332 162.8125 48.333332C180.90416 48.333332 198.99583 48.333332 217.0875 48.333332C235.17917 48.333332 253.27083 48.333332 271.3625 48.333332C289.45416 48.333332 307.54584 48.333332 325.6375 48.333332C343.72916 48.333332 361.82083 48.333332 379.9125 48.333332C398.00418 48.333332 416.09583 48.333332 434.1875 48.333332C452.27917 48.333332 488.4625 48.333332 488.4625 48.333332" fill-rule="nonzero"/><path fill="#4285f4" clip-path="url(#id_0)" d="M112.0375 200.36829C112.0375 202.30128 110.4705 203.86829 108.5375 203.86829C106.6045 203.86829 105.0375 202.30128 105.0375 200.36829C105.0375 198.43529 106.6045 196.86829 108.5375 196.86829C110.4705 196.86829 112.0375 198.43529 112.0375 200.36829Z" fill-rule="nonzero"/><path fill="#4285f4" clip-path="url(#id_0)" d="M166.3125 156.39539C166.3125 158.32837 164.7455 159.89539 162.8125 159.89539C160.8795 159.89539 159.3125 158.32837 159.3125 156.39539C159.3125 154.46239 160.8795 152.89539 162.8125 152.89539C164.7455 152.89539 166.3125 154.46239 166.3125 156.39539Z" fill-rule="nonzero"/><path fill="#4285f4" clip-path="url(#id_0)" d="M220.5875 145.73755C220.5875 147.67055 219.0205 149.23755 217.0875 149.23755C215.15451 149.23755 213.5875 147.67055 213.5875 145.73755C213.5875 143.80455 215.15451 142.23755 217.0875 142.23755C219.0205 142.23755 220.5875 143.80455 220.5875 145.73755Z" fill-rule="nonzero"/><path fill="#4285f4" clip-path="url(#id_0)" d="M274.8625 131.10077C274.8625 133.03377 273.2955 134.60077 271.3625 134.60077C269.4295 134.60077 267.8625 133.03377 267.8625 131.10077C267.8625 129.16779 269.4295 127.60078 271.3625 127.60078C273.2955 127.60078 274.8625 129.16779 274.8625 131.10077Z" fill-rule="nonzero"/><path fill="#4285f4" clip-path="url(#id_0)" d="M329.1375 126.63133C329.1375 128.56433 327.5705 130.13133 325.6375 130.13133C323.7045 130.13133 322.1375 128.56433 322.1375 126.63133C322.1375 124.69833 323.7045 123.13133 325.6375 123.13133C327.5705 123.13133 329.1375 124.69833 329.1375 126.63133Z" fill-rule="nonzero"/><path fill="#4285f4" clip-path="url(#id_0)" d="M383.4125 119.513336C383.4125 121.44633 381.8455 123.013336 379.9125 123.013336C377.9795 123.013336 376.4125 121.44633 376.4125 119.513336C376.4125 117.58034 377.9795 116.013336 379.9125 116.013336C381.8455 116.013336 383.4125 117.58034 383.4125 119.513336Z" fill-rule="nonzero"/><path fill="#4285f4" clip-path="url(#id_0)" d="M437.6875 121.13106C437.6875 123.06406 436.12048 124.63106 434.1875 124.63106C432.25452 124.63106 430.6875 123.06406 430.6875 121.13106C430.6875 119.19807 432.25452 117.63106 434.1875 117.63106C436.12048 117.63106 437.6875 119.19807 437.6875 121.13106Z" fill-rule="nonzero"/><path fill="#4285f4" clip-path="url(#id_0)" d="M491.9625 114.24074C491.9625 116.17374 490.3955 117.74074 488.4625 117.74074C486.5295 117.74074 484.9625 116.17374 484.9625 114.24074C484.9625 112.30775 486.5295 110.74074 488.4625 110.74074C490.3955 110.74074 491.9625 112.30775 491.9625 114.24074Z" fill-rule="nonzero"/><path fill="#ea4335" clip-path="url(#id_0)" d="M112.0375 166.96666C112.0375 168.89966 110.4705 170.46666 108.5375 170.46666C106.6045 170.46666 105.0375 168.89966 105.0375 166.96666C105.0375 165.03368 106.6045 163.46666 108.5375 163.46666C110.4705 163.46666 112.0375 165.03368 112.0375 166.96666Z" fill-rule="nonzero"/><path fill="#ea4335" clip-path="url(#id_0)" d="M166.3125 166.96666C166.3125 168.89966 164.7455 170.46666 162.8125 170.46666C160.8795 170.46666 159.3125 168.89966 159.3125 166.96666C159.3125 165.03368 160.8795 163.46666 162.8125 163.46666C164.7455 163.46666 166.3125 165.03368 166.3125 166.96666Z" fill-rule="nonzero"/><path fill="#ea4335" clip-path="url(#id_0)" d="M220.5875 166.96666C220.5875 168.89966 219.0205 170.46666 217.0875 170.46666C215.15451 170.46666 213.5875 168.89966 213.5875 166.96666C213.5875 165.03368 215.15451 163.46666 217.0875 163.46666C219.0205 163.46666 220.5875 165.03368 220.5875 166.96666Z" fill-rule="nonzero"/><path fill="#ea4335" clip-path="url(#id_0)" d="M274.8625 166.96666C274.8625 168.89966 273.2955 170.46666 271.3625 170.46666C269.4295 170.46666 267.8625 168.89966 267.8625 166.96666C267.8625 165.03368 269.4295 163.46666 271.3625 163.46666C273.2955 163.46666 274.8625 165.03368 274.8625 166.96666Z" fill-rule="nonzero"/><path fill="#ea4335" clip-path="url(#id_0)" d="M329.1375 166.96666C329.1375 168.89966 327.5705 170.46666 325.6375 170.46666C323.7045 170.46666 322.1375 168.89966 322.1375 166.96666C322.1375 165.03368 323.7045 163.46666 325.6375 163.46666C327.5705 163.46666 329.1375 165.03368 329.1375 166.96666Z" fill-rule="nonzero"/><path fill="#ea4335" clip-path="url(#id_0)" d="M383.4125 166.96666C383.4125 168.89966 381.8455 170.46666 379.9125 170.46666C377.9795 170.46666 376.4125 168.89966 376.4125 166.96666C376.4125 165.03368 377.9795 163.46666 379.9125 163.46666C381.8455 163.46666 383.4125 165.03368 383.4125 166.96666Z" fill-rule="nonzero"/><path fill="#ea4335" clip-path="url(#id_0)" d="M437.6875 166.96666C437.6875 168.89966 436.12048 170.46666 434.1875 170.46666C432.25452 170.46666 430.6875 168.89966 430.6875 166.96666C430.6875 165.03368 432.25452 163.46666 434.1875 163.46666C436.12048 163.46666 437.6875 165.03368 437.6875 166.96666Z" fill-rule="nonzero"/><path fill="#ea4335" clip-path="url(#id_0)" d="M491.9625 166.96666C491.9625 168.89966 490.3955 170.46666 488.4625 170.46666C486.5295 170.46666 484.9625 168.89966 484.9625 166.96666C484.9625 165.03368 486.5295 163.46666 488.4625 163.46666C490.3955 163.46666 491.9625 165.03368 491.9625 166.96666Z" fill-rule="nonzero"/><path fill="#fbbc04" fill-opacity="0.7019608" clip-path="url(#id_0)" d="M112.0375 48.333332C112.0375 50.26633 110.4705 51.833332 108.5375 51.833332C106.6045 51.833332 105.0375 50.26633 105.0375 48.333332C105.0375 46.400337 106.6045 44.833332 108.5375 44.833332C110.4705 44.833332 112.0375 46.400337 112.0375 48.333332Z" fill-rule="nonzero"/><path fill="#fbbc04" fill-opacity="0.7019608" clip-path="url(#id_0)" d="M166.3125 48.333332C166.3125 50.26633 164.7455 51.833332 162.8125 51.833332C160.8795 51.833332 159.3125 50.26633 159.3125 48.333332C159.3125 46.400337 160.8795 44.833332 162.8125 44.833332C164.7455 44.833332 166.3125 46.400337 166.3125 48.333332Z" fill-rule="nonzero"/><path fill="#fbbc04" fill-opacity="0.7019608" clip-path="url(#id_0)" d="M220.5875 48.333332C220.5875 50.26633 219.0205 51.833332 217.0875 51.833332C215.15451 51.833332 213.5875 50.26633 213.5875 48.333332C213.5875 46.400337 215.15451 44.833332 217.0875 44.833332C219.0205 44.833332 220.5875 46.400337 220.5875 48.333332Z" fill-rule="nonzero"/><path fill="#fbbc04" fill-opacity="0.7019608" clip-path="url(#id_0)" d="M274.8625 48.333332C274.8625 50.26633 273.2955 51.833332 271.3625 51.833332C269.4295 51.833332 267.8625 50.26633 267.8625 48.333332C267.8625 46.400337 269.4295 44.833332 271.3625 44.833332C273.2955 44.833332 274.8625 46.400337 274.8625 48.333332Z" fill-rule="nonzero"/><path fill="#fbbc04" fill-opacity="0.7019608" clip-path="url(#id_0)" d="M329.1375 48.333332C329.1375 50.26633 327.5705 51.833332 325.6375 51.833332C323.7045 51.833332 322.1375 50.26633 322.1375 48.333332C322.1375 46.400337 323.7045 44.833332 325.6375 44.833332C327.5705 44.833332 329.1375 46.400337 329.1375 48.333332Z" fill-rule="nonzero"/><path fill="#fbbc04" fill-opacity="0.7019608" clip-path="url(#id_0)" d="M383.4125 48.333332C383.4125 50.26633 381.8455 51.833332 379.9125 51.833332C377.9795 51.833332 376.4125 50.26633 376.4125 48.333332C376.4125 46.400337 377.9795 44.833332 379.9125 44.833332C381.8455 44.833332 383.4125 46.400337 383.4125 48.333332Z" fill-rule="nonzero"/><path fill="#fbbc04" fill-opacity="0.7019608" clip-path="url(#id_0)" d="M437.6875 48.333332C437.6875 50.26633 436.12048 51.833332 434.1875 51.833332C432.25452 51.833332 430.6875 50.26633 430.6875 48.333332C430.6875 46.400337 432.25452 44.833332 434.1875 44.833332C436.12048 44.833332 437.6875 46.400337 437.6875 48.333332Z" fill-rule="nonzero"/><path fill="#fbbc04" fill-opacity="0.7019608" clip-path="url(#id_0)" d="M491.9625 48.333332C491.9625 50.26633 490.3955 51.833332 488.4625 51.833332C486.5295 51.833332 484.9625 50.26633 484.9625 48.333332C484.9625 46.400337 486.5295 44.833332 488.4625 44.833332C490.3955 44.833332 491.9625 46.400337 491.9625 48.333332Z" fill-rule="nonzero"/><path stroke="#000000" stroke-width="1.0" stroke-linecap="butt" d="M108.5 291.5L108.5 279.5" fill-rule="nonzero"/><path stroke="#000000" stroke-width="1.0" stroke-linecap="butt" d="M162.5 291.5L162.5 279.5" fill-rule="nonzero"/><path stroke="#000000" stroke-width="1.0" stroke-linecap="butt" d="M217.5 291.5L217.5 279.5" fill-rule="nonzero"/><path stroke="#000000" stroke-width="1.0" stroke-linecap="butt" d="M271.5 291.5L271.5 279.5" fill-rule="nonzero"/><path stroke="#000000" stroke-width="1.0" stroke-linecap="butt" d="M325.5 291.5L325.5 279.5" fill-rule="nonzero"/><path stroke="#000000" stroke-width="1.0" stroke-linecap="butt" d="M379.5 291.5L379.5 279.5" fill-rule="nonzero"/><path stroke="#000000" stroke-width="1.0" stroke-linecap="butt" d="M434.5 291.5L434.5 279.5" fill-rule="nonzero"/><path stroke="#000000" stroke-width="1.0" stroke-linecap="butt" d="M488.5 291.5L488.5 279.5" fill-rule="nonzero"/><path stroke="#000000" stroke-width="1.0" stroke-linecap="butt" d="M75.5 285.5L87.5 285.5" fill-rule="nonzero"/><path stroke="#000000" stroke-width="1.0" stroke-linecap="butt" d="M75.5 261.5L87.5 261.5" fill-rule="nonzero"/><path stroke="#000000" stroke-width="1.0" stroke-linecap="butt" d="M75.5 238.5L87.5 238.5" fill-rule="nonzero"/><path stroke="#000000" stroke-width="1.0" stroke-linecap="butt" d="M75.5 214.5L87.5 214.5" fill-rule="nonzero"/><path stroke="#000000" stroke-width="1.0" stroke-linecap="butt" d="M75.5 190.5L87.5 190.5" fill-rule="nonzero"/><path stroke="#000000" stroke-width="1.0" stroke-linecap="butt" d="M75.5 166.5L87.5 166.5" fill-rule="nonzero"/><path stroke="#000000" stroke-width="1.0" stroke-linecap="butt" d="M75.5 143.5L87.5 143.5" fill-rule="nonzero"/><path stroke="#000000" stroke-width="1.0" stroke-linecap="butt" d="M75.5 119.5L87.5 119.5" fill-rule="nonzero"/><path stroke="#000000" stroke-width="1.0" stroke-linecap="butt" d="M75.5 95.5L87.5 95.5" fill-rule="nonzero"/><path stroke="#000000" stroke-width="1.0" stroke-linecap="butt" d="M75.5 72.5L87.5 72.5" fill-rule="nonzero"/><path stroke="#000000" stroke-width="1.0" stroke-linecap="butt" d="M75.5 48.5L87.5 48.5" fill-rule="nonzero"/><path fill="#000000" d="M62.9 285.36563Q62.9 283.83438 63.2125 282.9125Q63.525 281.975 64.13438 281.475Q64.75938 280.975 65.69688 280.975Q66.38438 280.975 66.9 281.25626Q67.43125 281.5375 67.775 282.06876Q68.11875 282.58438 68.30625 283.33438Q68.49375 284.08438 68.49375 285.36563Q68.49375 286.88126 68.18125 287.80313Q67.88438 288.725 67.25938 289.24063Q66.65 289.74063 65.69688 289.74063Q64.4625 289.74063 63.74375 288.85Q62.9 287.7875 62.9 285.36563ZM63.978127 285.36563Q63.978127 287.475 64.47813 288.17813Q64.97813 288.88126 65.69688 288.88126Q66.43125 288.88126 66.91563 288.17813Q67.41563 287.475 67.41563 285.36563Q67.41563 283.24063 66.91563 282.55313Q66.43125 281.85 65.68125 281.85Q64.9625 281.85 64.525 282.45938Q63.978127 283.24063 63.978127 285.36563Z" fill-rule="nonzero"/><path fill="#000000" d="M59.86875 265.87332L58.821877 265.87332L58.821877 259.15457Q58.43125 259.51395 57.80625 259.88895Q57.196877 260.24832 56.7125 260.4202L56.7125 259.40457Q57.5875 258.9827 58.24375 258.40457Q58.915627 257.81082 59.196877 257.24832L59.86875 257.24832L59.86875 265.87332ZM62.9 261.63895Q62.9 260.1077 63.2125 259.18582Q63.525 258.24832 64.13438 257.74832Q64.75938 257.24832 65.69688 257.24832Q66.38438 257.24832 66.9 257.52957Q67.43125 257.81082 67.775 258.34207Q68.11875 258.8577 68.30625 259.6077Q68.49375 260.3577 68.49375 261.63895Q68.49375 263.15457 68.18125 264.07645Q67.88438 264.99832 67.25938 265.51395Q66.65 266.01395 65.69688 266.01395Q64.4625 266.01395 63.74375 265.12332Q62.9 264.06082 62.9 261.63895ZM63.978127 261.63895Q63.978127 263.74832 64.47813 264.45145Q64.97813 265.15457 65.69688 265.15457Q66.43125 265.15457 66.91563 264.45145Q67.41563 263.74832 67.41563 261.63895Q67.41563 259.51395 66.91563 258.82645Q66.43125 258.12332 65.68125 258.12332Q64.9625 258.12332 64.525 258.7327Q63.978127 259.51395 63.978127 261.63895Z" fill-rule="nonzero"/><path fill="#000000" d="M61.446877 241.13104L61.446877 242.14667L55.759377 242.14667Q55.759377 241.77167 55.884377 241.4123Q56.103127 240.83417 56.571877 240.27167Q57.05625 239.70917 57.9625 238.9748Q59.36875 237.81854 59.853127 237.14667Q60.353127 236.4748 60.353127 235.88104Q60.353127 235.25604 59.9 234.83417Q59.446877 234.39667 58.728127 234.39667Q57.9625 234.39667 57.509377 234.8498Q57.05625 235.30292 57.040627 236.11542L55.9625 236.00604Q56.071877 234.7873 56.790627 234.1623Q57.525 233.52167 58.759377 233.52167Q59.99375 233.52167 60.7125 234.20917Q61.43125 234.89667 61.43125 235.9123Q61.43125 236.42792 61.2125 236.92792Q61.009377 237.4123 60.509377 237.9748Q60.025 238.52167 58.9 239.4748Q57.946877 240.27167 57.665627 240.56854Q57.4 240.8498 57.228127 241.13104L61.446877 241.13104ZM62.9 237.9123Q62.9 236.38104 63.2125 235.45917Q63.525 234.52167 64.13438 234.02167Q64.75938 233.52167 65.69688 233.52167Q66.38438 233.52167 66.9 233.80292Q67.43125 234.08417 67.775 234.61542Q68.11875 235.13104 68.30625 235.88104Q68.49375 236.63104 68.49375 237.9123Q68.49375 239.42792 68.18125 240.3498Q67.88438 241.27167 67.25938 241.7873Q66.65 242.2873 65.69688 242.2873Q64.4625 242.2873 63.74375 241.39667Q62.9 240.33417 62.9 237.9123ZM63.978127 237.9123Q63.978127 240.02167 64.47813 240.7248Q64.97813 241.42792 65.69688 241.42792Q66.43125 241.42792 66.91563 240.7248Q67.41563 240.02167 67.41563 237.9123Q67.41563 235.7873 66.91563 235.0998Q66.43125 234.39667 65.68125 234.39667Q64.9625 234.39667 64.525 235.00604Q63.978127 235.7873 63.978127 237.9123Z" fill-rule="nonzero"/><path fill="#000000" d="M55.9 216.15437L56.9625 216.01375Q57.134377 216.90437 57.571877 217.31062Q58.009377 217.70125 58.634377 217.70125Q59.384377 217.70125 59.9 217.18562Q60.415627 216.67 60.415627 215.90437Q60.415627 215.18562 59.93125 214.71687Q59.4625 214.2325 58.728127 214.2325Q58.43125 214.2325 57.978127 214.3575L58.103127 213.42Q58.2125 213.43562 58.275 213.43562Q58.946877 213.43562 59.478127 213.09187Q60.025 212.7325 60.025 211.99812Q60.025 211.42 59.634377 211.045Q59.24375 210.65437 58.61875 210.65437Q58.009377 210.65437 57.5875 211.045Q57.18125 211.43562 57.071877 212.20125L56.009377 212.01375Q56.196877 210.96687 56.884377 210.38875Q57.571877 209.795 58.5875 209.795Q59.290627 209.795 59.884377 210.1075Q60.478127 210.40437 60.790627 210.92Q61.103127 211.43562 61.103127 212.02937Q61.103127 212.57625 60.80625 213.045Q60.509377 213.49812 59.93125 213.76375Q60.68125 213.93562 61.103127 214.49812Q61.525 215.045 61.525 215.88875Q61.525 217.01375 60.696877 217.795Q59.884377 218.57625 58.634377 218.57625Q57.509377 218.57625 56.759377 217.90437Q56.009377 217.21687 55.9 216.15437ZM62.9 214.18562Q62.9 212.65437 63.2125 211.7325Q63.525 210.795 64.13438 210.295Q64.75938 209.795 65.69688 209.795Q66.38438 209.795 66.9 210.07625Q67.43125 210.3575 67.775 210.88875Q68.11875 211.40437 68.30625 212.15437Q68.49375 212.90437 68.49375 214.18562Q68.49375 215.70125 68.18125 216.62312Q67.88438 217.545 67.25938 218.06062Q66.65 218.56062 65.69688 218.56062Q64.4625 218.56062 63.74375 217.67Q62.9 216.6075 62.9 214.18562ZM63.978127 214.18562Q63.978127 216.295 64.47813 216.99812Q64.97813 217.70125 65.69688 217.70125Q66.43125 217.70125 66.91563 216.99812Q67.41563 216.295 67.41563 214.18562Q67.41563 212.06062 66.91563 211.37312Q66.43125 210.67 65.68125 210.67Q64.9625 210.67 64.525 211.27937Q63.978127 212.06062 63.978127 214.18562Z" fill-rule="nonzero"/><path fill="#000000" d="M59.275 194.69333L59.275 192.63083L55.55625 192.63083L55.55625 191.66208L59.478127 186.09958L60.3375 186.09958L60.3375 191.66208L61.49375 191.66208L61.49375 192.63083L60.3375 192.63083L60.3375 194.69333L59.275 194.69333ZM59.275 191.66208L59.275 187.8027L56.5875 191.66208L59.275 191.66208ZM62.9 190.45895Q62.9 188.9277 63.2125 188.00583Q63.525 187.06833 64.13438 186.56833Q64.75938 186.06833 65.69688 186.06833Q66.38438 186.06833 66.9 186.34958Q67.43125 186.63083 67.775 187.16208Q68.11875 187.6777 68.30625 188.4277Q68.49375 189.1777 68.49375 190.45895Q68.49375 191.97458 68.18125 192.89645Q67.88438 193.81833 67.25938 194.33395Q66.65 194.83395 65.69688 194.83395Q64.4625 194.83395 63.74375 193.94333Q62.9 192.88083 62.9 190.45895ZM63.978127 190.45895Q63.978127 192.56833 64.47813 193.27145Q64.97813 193.97458 65.69688 193.97458Q66.43125 193.97458 66.91563 193.27145Q67.41563 192.56833 67.41563 190.45895Q67.41563 188.33395 66.91563 187.64645Q66.43125 186.94333 65.68125 186.94333Q64.9625 186.94333 64.525 187.5527Q63.978127 188.33395 63.978127 190.45895Z" fill-rule="nonzero"/><path fill="#000000" d="M55.9 168.71666L57.009377 168.62291Q57.134377 169.43541 57.571877 169.84166Q58.025 170.24791 58.665627 170.24791Q59.415627 170.24791 59.946877 169.66978Q60.478127 169.09166 60.478127 168.15416Q60.478127 167.24791 59.9625 166.73228Q59.4625 166.20103 58.634377 166.20103Q58.134377 166.20103 57.7125 166.43541Q57.30625 166.66978 57.071877 167.02916L56.0875 166.90416L56.915627 162.49791L61.196877 162.49791L61.196877 163.49791L57.759377 163.49791L57.30625 165.81041Q58.071877 165.26353 58.915627 165.26353Q60.040627 165.26353 60.80625 166.04478Q61.5875 166.82603 61.5875 168.06041Q61.5875 169.21666 60.915627 170.07603Q60.0875 171.10728 58.665627 171.10728Q57.49375 171.10728 56.74375 170.45103Q56.009377 169.79478 55.9 168.71666ZM62.9 166.73228Q62.9 165.20103 63.2125 164.27916Q63.525 163.34166 64.13438 162.84166Q64.75938 162.34166 65.69688 162.34166Q66.38438 162.34166 66.9 162.62291Q67.43125 162.90416 67.775 163.43541Q68.11875 163.95103 68.30625 164.70103Q68.49375 165.45103 68.49375 166.73228Q68.49375 168.24791 68.18125 169.16978Q67.88438 170.09166 67.25938 170.60728Q66.65 171.10728 65.69688 171.10728Q64.4625 171.10728 63.74375 170.21666Q62.9 169.15416 62.9 166.73228ZM63.978127 166.73228Q63.978127 168.84166 64.47813 169.54478Q64.97813 170.24791 65.69688 170.24791Q66.43125 170.24791 66.91563 169.54478Q67.41563 168.84166 67.41563 166.73228Q67.41563 164.60728 66.91563 163.91978Q66.43125 163.21666 65.68125 163.21666Q64.9625 163.21666 64.525 163.82603Q63.978127 164.60728 63.978127 166.73228Z" fill-rule="nonzero"/><path fill="#000000" d="M61.36875 140.75563L60.321877 140.83376Q60.18125 140.20876 59.93125 139.9275Q59.49375 139.47438 58.86875 139.47438Q58.36875 139.47438 57.978127 139.75563Q57.49375 140.13063 57.196877 140.83376Q56.915627 141.52126 56.9 142.8025Q57.275 142.22438 57.821877 141.94313Q58.384377 141.66188 58.99375 141.66188Q60.040627 141.66188 60.775 142.44313Q61.525 143.22438 61.525 144.44313Q61.525 145.25563 61.165627 145.95876Q60.821877 146.64626 60.2125 147.02126Q59.603127 147.38063 58.8375 147.38063Q57.509377 147.38063 56.68125 146.41188Q55.853127 145.44313 55.853127 143.22438Q55.853127 140.72438 56.775 139.59938Q57.571877 138.615 58.93125 138.615Q59.946877 138.615 60.5875 139.19313Q61.24375 139.75563 61.36875 140.75563ZM57.071877 144.45876Q57.071877 145.00563 57.290627 145.50563Q57.525 145.99 57.93125 146.25563Q58.353127 146.52126 58.821877 146.52126Q59.478127 146.52126 59.9625 145.99Q60.446877 145.44313 60.446877 144.52126Q60.446877 143.63063 59.9625 143.115Q59.49375 142.59938 58.775 142.59938Q58.05625 142.59938 57.55625 143.115Q57.071877 143.63063 57.071877 144.45876ZM62.9 143.00563Q62.9 141.47438 63.2125 140.5525Q63.525 139.615 64.13438 139.115Q64.75938 138.615 65.69688 138.615Q66.38438 138.615 66.9 138.89626Q67.43125 139.1775 67.775 139.70876Q68.11875 140.22438 68.30625 140.97438Q68.49375 141.72438 68.49375 143.00563Q68.49375 144.52126 68.18125 145.44313Q67.88438 146.365 67.25938 146.88063Q66.65 147.38063 65.69688 147.38063Q64.4625 147.38063 63.74375 146.49Q62.9 145.4275 62.9 143.00563ZM63.978127 143.00563Q63.978127 145.115 64.47813 145.81813Q64.97813 146.52126 65.69688 146.52126Q66.43125 146.52126 66.91563 145.81813Q67.41563 145.115 67.41563 143.00563Q67.41563 140.88063 66.91563 140.19313Q66.43125 139.49 65.68125 139.49Q64.9625 139.49 64.525 140.09938Q63.978127 140.88063 63.978127 143.00563Z" fill-rule="nonzero"/><path fill="#000000" d="M55.9625 116.044586L55.9625 115.02896L61.525 115.02896L61.525 115.857086Q60.7125 116.732086 59.9 118.18521Q59.103127 119.62271 58.665627 121.15396Q58.3375 122.232086 58.259377 123.513336L57.165627 123.513336Q57.18125 122.49771 57.55625 121.06021Q57.946877 119.62271 58.65 118.294586Q59.36875 116.96646 60.18125 116.044586L55.9625 116.044586ZM62.9 119.27896Q62.9 117.74771 63.2125 116.825836Q63.525 115.888336 64.13438 115.388336Q64.75938 114.888336 65.69688 114.888336Q66.38438 114.888336 66.9 115.169586Q67.43125 115.450836 67.775 115.982086Q68.11875 116.49771 68.30625 117.24771Q68.49375 117.99771 68.49375 119.27896Q68.49375 120.794586 68.18125 121.71646Q67.88438 122.638336 67.25938 123.15396Q66.65 123.65396 65.69688 123.65396Q64.4625 123.65396 63.74375 122.763336Q62.9 121.700836 62.9 119.27896ZM63.978127 119.27896Q63.978127 121.388336 64.47813 122.09146Q64.97813 122.794586 65.69688 122.794586Q66.43125 122.794586 66.91563 122.09146Q67.41563 121.388336 67.41563 119.27896Q67.41563 117.15396 66.91563 116.46646Q66.43125 115.763336 65.68125 115.763336Q64.9625 115.763336 64.525 116.37271Q63.978127 117.15396 63.978127 119.27896Z" fill-rule="nonzero"/><path fill="#000000" d="M57.525 95.13042Q56.86875 94.88042 56.540627 94.44292Q56.228127 93.98979 56.228127 93.38042Q56.228127 92.44292 56.9 91.80229Q57.5875 91.16167 58.696877 91.16167Q59.821877 91.16167 60.509377 91.81792Q61.196877 92.47417 61.196877 93.41167Q61.196877 94.00542 60.884377 94.44292Q60.571877 94.88042 59.93125 95.13042Q60.728127 95.38042 61.134377 95.95854Q61.540627 96.53667 61.540627 97.33354Q61.540627 98.42729 60.759377 99.17729Q59.99375 99.92729 58.7125 99.92729Q57.446877 99.92729 56.665627 99.17729Q55.884377 98.42729 55.884377 97.30229Q55.884377 96.45854 56.30625 95.89604Q56.74375 95.33354 57.525 95.13042ZM57.30625 93.33354Q57.30625 93.94292 57.696877 94.33354Q58.103127 94.72417 58.728127 94.72417Q59.3375 94.72417 59.728127 94.34917Q60.11875 93.95854 60.11875 93.39604Q60.11875 92.81792 59.7125 92.42729Q59.30625 92.02104 58.7125 92.02104Q58.103127 92.02104 57.696877 92.41167Q57.30625 92.80229 57.30625 93.33354ZM56.978127 97.30229Q56.978127 97.75542 57.18125 98.17729Q57.4 98.59917 57.821877 98.83354Q58.24375 99.06792 58.728127 99.06792Q59.478127 99.06792 59.9625 98.58354Q60.4625 98.09917 60.4625 97.34917Q60.4625 96.58354 59.9625 96.08354Q59.4625 95.58354 58.696877 95.58354Q57.946877 95.58354 57.4625 96.08354Q56.978127 96.56792 56.978127 97.30229ZM62.9 95.55229Q62.9 94.02104 63.2125 93.09917Q63.525 92.16167 64.13438 91.66167Q64.75938 91.16167 65.69688 91.16167Q66.38438 91.16167 66.9 91.44292Q67.43125 91.72417 67.775 92.25542Q68.11875 92.77104 68.30625 93.52104Q68.49375 94.27104 68.49375 95.55229Q68.49375 97.06792 68.18125 97.98979Q67.88438 98.91167 67.25938 99.42729Q66.65 99.92729 65.69688 99.92729Q64.4625 99.92729 63.74375 99.03667Q62.9 97.97417 62.9 95.55229ZM63.978127 95.55229Q63.978127 97.66167 64.47813 98.36479Q64.97813 99.06792 65.69688 99.06792Q66.43125 99.06792 66.91563 98.36479Q67.41563 97.66167 67.41563 95.55229Q67.41563 93.42729 66.91563 92.73979Q66.43125 92.03667 65.68125 92.03667Q64.9625 92.03667 64.525 92.64604Q63.978127 93.42729 63.978127 95.55229Z" fill-rule="nonzero"/><path fill="#000000" d="M56.05625 74.07562L57.071877 73.98187Q57.196877 74.70062 57.55625 75.02875Q57.93125 75.34125 58.49375 75.34125Q58.978127 75.34125 59.3375 75.1225Q59.7125 74.88812 59.946877 74.52875Q60.18125 74.15375 60.3375 73.52875Q60.49375 72.88812 60.49375 72.23187Q60.49375 72.15375 60.49375 72.01312Q60.18125 72.51312 59.634377 72.84125Q59.0875 73.15375 58.446877 73.15375Q57.36875 73.15375 56.634377 72.38812Q55.9 71.60687 55.9 70.34125Q55.9 69.02875 56.665627 68.23187Q57.446877 67.435 58.603127 67.435Q59.43125 67.435 60.11875 67.88812Q60.821877 68.34125 61.18125 69.185Q61.540627 70.01312 61.540627 71.59125Q61.540627 73.23187 61.18125 74.21625Q60.8375 75.185 60.11875 75.70062Q59.415627 76.20062 58.478127 76.20062Q57.4625 76.20062 56.821877 75.65375Q56.18125 75.09125 56.05625 74.07562ZM60.36875 70.27875Q60.36875 69.3725 59.884377 68.84125Q59.415627 68.31 58.728127 68.31Q58.025 68.31 57.49375 68.88812Q56.978127 69.45062 56.978127 70.3725Q56.978127 71.185 57.478127 71.70062Q57.978127 72.21625 58.696877 72.21625Q59.43125 72.21625 59.9 71.70062Q60.36875 71.185 60.36875 70.27875ZM62.9 71.82562Q62.9 70.29437 63.2125 69.3725Q63.525 68.435 64.13438 67.935Q64.75938 67.435 65.69688 67.435Q66.38438 67.435 66.9 67.71625Q67.43125 67.9975 67.775 68.52875Q68.11875 69.04437 68.30625 69.79437Q68.49375 70.54437 68.49375 71.82562Q68.49375 73.34125 68.18125 74.26312Q67.88438 75.185 67.25938 75.70062Q66.65 76.20062 65.69688 76.20062Q64.4625 76.20062 63.74375 75.31Q62.9 74.2475 62.9 71.82562ZM63.978127 71.82562Q63.978127 73.935 64.47813 74.63812Q64.97813 75.34125 65.69688 75.34125Q66.43125 75.34125 66.91563 74.63812Q67.41563 73.935 67.41563 71.82562Q67.41563 69.70062 66.91563 69.01312Q66.43125 68.31 65.68125 68.31Q64.9625 68.31 64.525 68.91937Q63.978127 69.70062 63.978127 71.82562Z" fill-rule="nonzero"/><path fill="#000000" d="M52.86875 52.333332L51.821877 52.333332L51.821877 45.614582Q51.43125 45.973957 50.80625 46.348957Q50.196877 46.708332 49.7125 46.880207L49.7125 45.864582Q50.5875 45.442707 51.24375 44.864582Q51.915627 44.270832 52.196877 43.708332L52.86875 43.708332L52.86875 52.333332ZM55.9 48.098957Q55.9 46.567707 56.2125 45.645832Q56.525 44.708332 57.134377 44.208332Q57.759377 43.708332 58.696877 43.708332Q59.384377 43.708332 59.9 43.989582Q60.43125 44.270832 60.775 44.802082Q61.11875 45.317707 61.30625 46.067707Q61.49375 46.817707 61.49375 48.098957Q61.49375 49.614582 61.18125 50.536457Q60.884377 51.458332 60.259377 51.973957Q59.65 52.473957 58.696877 52.473957Q57.4625 52.473957 56.74375 51.583332Q55.9 50.520832 55.9 48.098957ZM56.978127 48.098957Q56.978127 50.208332 57.478127 50.911457Q57.978127 51.614582 58.696877 51.614582Q59.43125 51.614582 59.915627 50.911457Q60.415627 50.208332 60.415627 48.098957Q60.415627 45.973957 59.915627 45.286457Q59.43125 44.583332 58.68125 44.583332Q57.9625 44.583332 57.525 45.192707Q56.978127 45.973957 56.978127 48.098957ZM62.9 48.098957Q62.9 46.567707 63.2125 45.645832Q63.525 44.708332 64.13438 44.208332Q64.75938 43.708332 65.69688 43.708332Q66.38438 43.708332 66.9 43.989582Q67.43125 44.270832 67.775 44.802082Q68.11875 45.317707 68.30625 46.067707Q68.49375 46.817707 68.49375 48.098957Q68.49375 49.614582 68.18125 50.536457Q67.88438 51.458332 67.25938 51.973957Q66.65 52.473957 65.69688 52.473957Q64.4625 52.473957 63.74375 51.583332Q62.9 50.520832 62.9 48.098957ZM63.978127 48.098957Q63.978127 50.208332 64.47813 50.911457Q64.97813 51.614582 65.69688 51.614582Q66.43125 51.614582 66.91563 50.911457Q67.41563 50.208332 67.41563 48.098957Q67.41563 45.973957 66.91563 45.286457Q66.43125 44.583332 65.68125 44.583332Q64.9625 44.583332 64.525 45.192707Q63.978127 45.973957 63.978127 48.098957Z" fill-rule="nonzero"/><path fill="#000000" d="M88.08437 305.83438L89.14687 305.74063Q89.225 306.39688 89.50625 306.80313Q89.7875 307.20938 90.36562 307.475Q90.95937 307.725 91.69375 307.725Q92.33437 307.725 92.83437 307.5375Q93.33437 307.33438 93.56875 307.00626Q93.81875 306.6625 93.81875 306.27188Q93.81875 305.86563 93.58437 305.56876Q93.35 305.25626 92.81875 305.05313Q92.45937 304.9125 91.27187 304.63126Q90.1 304.35 89.63125 304.1Q89.00625 303.77188 88.70937 303.30313Q88.4125 302.81876 88.4125 302.225Q88.4125 301.58438 88.77187 301.02188Q89.14687 300.44376 89.85 300.1625Q90.56875 299.86563 91.42812 299.86563Q92.38125 299.86563 93.11562 300.17813Q93.85 300.475 94.24062 301.08438Q94.63125 301.67813 94.6625 302.42813L93.56875 302.50626Q93.475 301.69376 92.95937 301.2875Q92.45937 300.86563 91.475 300.86563Q90.44375 300.86563 89.975 301.24063Q89.50625 301.61563 89.50625 302.14688Q89.50625 302.61563 89.83437 302.9125Q90.1625 303.20938 91.5375 303.52188Q92.92812 303.83438 93.44375 304.06876Q94.19375 304.42813 94.55312 304.95938Q94.9125 305.475 94.9125 306.17813Q94.9125 306.86563 94.52187 307.475Q94.13125 308.06876 93.39687 308.4125Q92.6625 308.74063 91.74062 308.74063Q90.56875 308.74063 89.77187 308.4125Q88.99062 308.06876 88.5375 307.38126Q88.1 306.69376 88.08437 305.83438ZM96.33437 310.99063L96.33437 302.38126L97.2875 302.38126L97.2875 303.17813Q97.63125 302.70938 98.05312 302.475Q98.49062 302.24063 99.1 302.24063Q99.89687 302.24063 100.50625 302.64688Q101.11562 303.05313 101.4125 303.80313Q101.725 304.55313 101.725 305.44376Q101.725 306.39688 101.38125 307.1625Q101.05312 307.92813 100.39687 308.33438Q99.74062 308.74063 99.02187 308.74063Q98.49062 308.74063 98.06875 308.52188Q97.64687 308.2875 97.38125 307.95938L97.38125 310.99063L96.33437 310.99063ZM97.2875 305.52188Q97.2875 306.725 97.77187 307.30313Q98.25625 307.86563 98.94375 307.86563Q99.64687 307.86563 100.14687 307.27188Q100.64687 306.67813 100.64687 305.42813Q100.64687 304.24063 100.1625 303.6625Q99.67812 303.06876 98.99062 303.06876Q98.31875 303.06876 97.80312 303.69376Q97.2875 304.31876 97.2875 305.52188ZM103.31875 308.6L103.31875 302.38126L104.27187 302.38126L104.27187 303.31876Q104.63125 302.6625 104.92812 302.45938Q105.24062 302.24063 105.61562 302.24063Q106.14687 302.24063 106.69375 302.56876L106.33437 303.55313Q105.94375 303.31876 105.56875 303.31876Q105.20937 303.31876 104.92812 303.5375Q104.6625 303.74063 104.55312 304.11563Q104.36562 304.67813 104.36562 305.33438L104.36562 308.6L103.31875 308.6ZM107.33437 301.225L107.33437 300.00626L108.39687 300.00626L108.39687 301.225L107.33437 301.225ZM107.33437 308.6L107.33437 302.38126L108.39687 302.38126L108.39687 308.6L107.33437 308.6ZM110.33437 308.6L110.33437 302.38126L111.27187 302.38126L111.27187 303.25626Q111.95937 302.24063 113.25625 302.24063Q113.81875 302.24063 114.2875 302.44376Q114.77187 302.64688 115.00625 302.975Q115.24062 303.30313 115.33437 303.74063Q115.38125 304.0375 115.38125 304.77188L115.38125 308.6L114.33437 308.6L114.33437 304.81876Q114.33437 304.1625 114.20937 303.85Q114.08437 303.5375 113.77187 303.35Q113.45937 303.14688 113.0375 303.14688Q112.36562 303.14688 111.86562 303.58438Q111.38125 304.00626 111.38125 305.19376L111.38125 308.6L110.33437 308.6ZM119.63125 307.6625L119.7875 308.58438Q119.33437 308.67813 118.99062 308.67813Q118.4125 308.67813 118.1 308.50626Q117.7875 308.31876 117.64687 308.02188Q117.52187 307.725 117.52187 306.77188L117.52187 303.19376L116.75625 303.19376L116.75625 302.38126L117.52187 302.38126L117.52187 300.83438L118.56875 300.20938L118.56875 302.38126L119.63125 302.38126L119.63125 303.19376L118.56875 303.19376L118.56875 306.83438Q118.56875 307.2875 118.61562 307.4125Q118.67812 307.5375 118.80312 307.61563Q118.92812 307.69376 119.1625 307.69376Q119.35 307.69376 119.63125 307.6625ZM127.00625 308.6L125.95937 308.6L125.95937 301.88126Q125.56875 302.24063 124.94375 302.61563Q124.33437 302.975 123.85 303.14688L123.85 302.13126Q124.725 301.70938 125.38125 301.13126Q126.05312 300.5375 126.33437 299.975L127.00625 299.975L127.00625 308.6Z" fill-rule="nonzero"/><path fill="#000000" d="M142.35938 305.83438L143.42188 305.74063Q143.5 306.39688 143.78125 306.80313Q144.0625 307.20938 144.64062 307.475Q145.23438 307.725 145.96875 307.725Q146.60938 307.725 147.10938 307.5375Q147.60938 307.33438 147.84375 307.00626Q148.09375 306.6625 148.09375 306.27188Q148.09375 305.86563 147.85938 305.56876Q147.625 305.25626 147.09375 305.05313Q146.73438 304.9125 145.54688 304.63126Q144.375 304.35 143.90625 304.1Q143.28125 303.77188 142.98438 303.30313Q142.6875 302.81876 142.6875 302.225Q142.6875 301.58438 143.04688 301.02188Q143.42188 300.44376 144.125 300.1625Q144.84375 299.86563 145.70312 299.86563Q146.65625 299.86563 147.39062 300.17813Q148.125 300.475 148.51562 301.08438Q148.90625 301.67813 148.9375 302.42813L147.84375 302.50626Q147.75 301.69376 147.23438 301.2875Q146.73438 300.86563 145.75 300.86563Q144.71875 300.86563 144.25 301.24063Q143.78125 301.61563 143.78125 302.14688Q143.78125 302.61563 144.10938 302.9125Q144.4375 303.20938 145.8125 303.52188Q147.20312 303.83438 147.71875 304.06876Q148.46875 304.42813 148.82812 304.95938Q149.1875 305.475 149.1875 306.17813Q149.1875 306.86563 148.79688 307.475Q148.40625 308.06876 147.67188 308.4125Q146.9375 308.74063 146.01562 308.74063Q144.84375 308.74063 144.04688 308.4125Q143.26562 308.06876 142.8125 307.38126Q142.375 306.69376 142.35938 305.83438ZM150.60938 310.99063L150.60938 302.38126L151.5625 302.38126L151.5625 303.17813Q151.90625 302.70938 152.32812 302.475Q152.76562 302.24063 153.375 302.24063Q154.17188 302.24063 154.78125 302.64688Q155.39062 303.05313 155.6875 303.80313Q156.0 304.55313 156.0 305.44376Q156.0 306.39688 155.65625 307.1625Q155.32812 307.92813 154.67188 308.33438Q154.01562 308.74063 153.29688 308.74063Q152.76562 308.74063 152.34375 308.52188Q151.92188 308.2875 151.65625 307.95938L151.65625 310.99063L150.60938 310.99063ZM151.5625 305.52188Q151.5625 306.725 152.04688 307.30313Q152.53125 307.86563 153.21875 307.86563Q153.92188 307.86563 154.42188 307.27188Q154.92188 306.67813 154.92188 305.42813Q154.92188 304.24063 154.4375 303.6625Q153.95312 303.06876 153.26562 303.06876Q152.59375 303.06876 152.07812 303.69376Q151.5625 304.31876 151.5625 305.52188ZM157.59375 308.6L157.59375 302.38126L158.54688 302.38126L158.54688 303.31876Q158.90625 302.6625 159.20312 302.45938Q159.51562 302.24063 159.89062 302.24063Q160.42188 302.24063 160.96875 302.56876L160.60938 303.55313Q160.21875 303.31876 159.84375 303.31876Q159.48438 303.31876 159.20312 303.5375Q158.9375 303.74063 158.82812 304.11563Q158.64062 304.67813 158.64062 305.33438L158.64062 308.6L157.59375 308.6ZM161.60938 301.225L161.60938 300.00626L162.67188 300.00626L162.67188 301.225L161.60938 301.225ZM161.60938 308.6L161.60938 302.38126L162.67188 302.38126L162.67188 308.6L161.60938 308.6ZM164.60938 308.6L164.60938 302.38126L165.54688 302.38126L165.54688 303.25626Q166.23438 302.24063 167.53125 302.24063Q168.09375 302.24063 168.5625 302.44376Q169.04688 302.64688 169.28125 302.975Q169.51562 303.30313 169.60938 303.74063Q169.65625 304.0375 169.65625 304.77188L169.65625 308.6L168.60938 308.6L168.60938 304.81876Q168.60938 304.1625 168.48438 303.85Q168.35938 303.5375 168.04688 303.35Q167.73438 303.14688 167.3125 303.14688Q166.64062 303.14688 166.14062 303.58438Q165.65625 304.00626 165.65625 305.19376L165.65625 308.6L164.60938 308.6ZM173.90625 307.6625L174.0625 308.58438Q173.60938 308.67813 173.26562 308.67813Q172.6875 308.67813 172.375 308.50626Q172.0625 308.31876 171.92188 308.02188Q171.79688 307.725 171.79688 306.77188L171.79688 303.19376L171.03125 303.19376L171.03125 302.38126L171.79688 302.38126L171.79688 300.83438L172.84375 300.20938L172.84375 302.38126L173.90625 302.38126L173.90625 303.19376L172.84375 303.19376L172.84375 306.83438Q172.84375 307.2875 172.89062 307.4125Q172.95312 307.5375 173.07812 307.61563Q173.20312 307.69376 173.4375 307.69376Q173.625 307.69376 173.90625 307.6625ZM182.85938 307.58438L182.85938 308.6L177.17188 308.6Q177.17188 308.225 177.29688 307.86563Q177.51562 307.2875 177.98438 306.725Q178.46875 306.1625 179.375 305.42813Q180.78125 304.27188 181.26562 303.6Q181.76562 302.92813 181.76562 302.33438Q181.76562 301.70938 181.3125 301.2875Q180.85938 300.85 180.14062 300.85Q179.375 300.85 178.92188 301.30313Q178.46875 301.75626 178.45312 302.56876L177.375 302.45938Q177.48438 301.24063 178.20312 300.61563Q178.9375 299.975 180.17188 299.975Q181.40625 299.975 182.125 300.6625Q182.84375 301.35 182.84375 302.36563Q182.84375 302.88126 182.625 303.38126Q182.42188 303.86563 181.92188 304.42813Q181.4375 304.975 180.3125 305.92813Q179.35938 306.725 179.07812 307.02188Q178.8125 307.30313 178.64062 307.58438L182.85938 307.58438Z" fill-rule="nonzero"/><path fill="#000000" d="M196.63437 305.83438L197.69687 305.74063Q197.775 306.39688 198.05624 306.80313Q198.3375 307.20938 198.91562 307.475Q199.50937 307.725 200.24374 307.725Q200.88437 307.725 201.38437 307.5375Q201.88437 307.33438 202.11874 307.00626Q202.36874 306.6625 202.36874 306.27188Q202.36874 305.86563 202.13437 305.56876Q201.9 305.25626 201.36874 305.05313Q201.00937 304.9125 199.82187 304.63126Q198.65 304.35 198.18124 304.1Q197.55624 303.77188 197.25937 303.30313Q196.9625 302.81876 196.9625 302.225Q196.9625 301.58438 197.32187 301.02188Q197.69687 300.44376 198.4 300.1625Q199.11874 299.86563 199.97812 299.86563Q200.93124 299.86563 201.66562 300.17813Q202.4 300.475 202.79062 301.08438Q203.18124 301.67813 203.2125 302.42813L202.11874 302.50626Q202.025 301.69376 201.50937 301.2875Q201.00937 300.86563 200.025 300.86563Q198.99374 300.86563 198.525 301.24063Q198.05624 301.61563 198.05624 302.14688Q198.05624 302.61563 198.38437 302.9125Q198.7125 303.20938 200.0875 303.52188Q201.47812 303.83438 201.99374 304.06876Q202.74374 304.42813 203.10312 304.95938Q203.4625 305.475 203.4625 306.17813Q203.4625 306.86563 203.07187 307.475Q202.68124 308.06876 201.94687 308.4125Q201.2125 308.74063 200.29062 308.74063Q199.11874 308.74063 198.32187 308.4125Q197.54062 308.06876 197.0875 307.38126Q196.65 306.69376 196.63437 305.83438ZM204.88437 310.99063L204.88437 302.38126L205.8375 302.38126L205.8375 303.17813Q206.18124 302.70938 206.60312 302.475Q207.04062 302.24063 207.65 302.24063Q208.44687 302.24063 209.05624 302.64688Q209.66562 303.05313 209.9625 303.80313Q210.275 304.55313 210.275 305.44376Q210.275 306.39688 209.93124 307.1625Q209.60312 307.92813 208.94687 308.33438Q208.29062 308.74063 207.57187 308.74063Q207.04062 308.74063 206.61874 308.52188Q206.19687 308.2875 205.93124 307.95938L205.93124 310.99063L204.88437 310.99063ZM205.8375 305.52188Q205.8375 306.725 206.32187 307.30313Q206.80624 307.86563 207.49374 307.86563Q208.19687 307.86563 208.69687 307.27188Q209.19687 306.67813 209.19687 305.42813Q209.19687 304.24063 208.7125 303.6625Q208.22812 303.06876 207.54062 303.06876Q206.86874 303.06876 206.35312 303.69376Q205.8375 304.31876 205.8375 305.52188ZM211.86874 308.6L211.86874 302.38126L212.82187 302.38126L212.82187 303.31876Q213.18124 302.6625 213.47812 302.45938Q213.79062 302.24063 214.16562 302.24063Q214.69687 302.24063 215.24374 302.56876L214.88437 303.55313Q214.49374 303.31876 214.11874 303.31876Q213.75937 303.31876 213.47812 303.5375Q213.2125 303.74063 213.10312 304.11563Q212.91562 304.67813 212.91562 305.33438L212.91562 308.6L211.86874 308.6ZM215.88437 301.225L215.88437 300.00626L216.94687 300.00626L216.94687 301.225L215.88437 301.225ZM215.88437 308.6L215.88437 302.38126L216.94687 302.38126L216.94687 308.6L215.88437 308.6ZM218.88437 308.6L218.88437 302.38126L219.82187 302.38126L219.82187 303.25626Q220.50937 302.24063 221.80624 302.24063Q222.36874 302.24063 222.8375 302.44376Q223.32187 302.64688 223.55624 302.975Q223.79062 303.30313 223.88437 303.74063Q223.93124 304.0375 223.93124 304.77188L223.93124 308.6L222.88437 308.6L222.88437 304.81876Q222.88437 304.1625 222.75937 303.85Q222.63437 303.5375 222.32187 303.35Q222.00937 303.14688 221.5875 303.14688Q220.91562 303.14688 220.41562 303.58438Q219.93124 304.00626 219.93124 305.19376L219.93124 308.6L218.88437 308.6ZM228.18124 307.6625L228.3375 308.58438Q227.88437 308.67813 227.54062 308.67813Q226.9625 308.67813 226.65 308.50626Q226.3375 308.31876 226.19687 308.02188Q226.07187 307.725 226.07187 306.77188L226.07187 303.19376L225.30624 303.19376L225.30624 302.38126L226.07187 302.38126L226.07187 300.83438L227.11874 300.20938L227.11874 302.38126L228.18124 302.38126L228.18124 303.19376L227.11874 303.19376L227.11874 306.83438Q227.11874 307.2875 227.16562 307.4125Q227.22812 307.5375 227.35312 307.61563Q227.47812 307.69376 227.7125 307.69376Q227.9 307.69376 228.18124 307.6625ZM231.5875 306.33438L232.65 306.19376Q232.82187 307.08438 233.25937 307.49063Q233.69687 307.88126 234.32187 307.88126Q235.07187 307.88126 235.5875 307.36563Q236.10312 306.85 236.10312 306.08438Q236.10312 305.36563 235.61874 304.89688Q235.15 304.4125 234.41562 304.4125Q234.11874 304.4125 233.66562 304.5375L233.79062 303.6Q233.9 303.61563 233.9625 303.61563Q234.63437 303.61563 235.16562 303.27188Q235.7125 302.9125 235.7125 302.17813Q235.7125 301.6 235.32187 301.225Q234.93124 300.83438 234.30624 300.83438Q233.69687 300.83438 233.275 301.225Q232.86874 301.61563 232.75937 302.38126L231.69687 302.19376Q231.88437 301.14688 232.57187 300.56876Q233.25937 299.975 234.275 299.975Q234.97812 299.975 235.57187 300.2875Q236.16562 300.58438 236.47812 301.1Q236.79062 301.61563 236.79062 302.20938Q236.79062 302.75626 236.49374 303.225Q236.19687 303.67813 235.61874 303.94376Q236.36874 304.11563 236.79062 304.67813Q237.2125 305.225 237.2125 306.06876Q237.2125 307.19376 236.38437 307.975Q235.57187 308.75626 234.32187 308.75626Q233.19687 308.75626 232.44687 308.08438Q231.69687 307.39688 231.5875 306.33438Z" fill-rule="nonzero"/><path fill="#000000" d="M250.90938 305.83438L251.97188 305.74063Q252.05 306.39688 252.33125 306.80313Q252.6125 307.20938 253.19063 307.475Q253.78438 307.725 254.51875 307.725Q255.15938 307.725 255.65938 307.5375Q256.15936 307.33438 256.39374 307.00626Q256.64374 306.6625 256.64374 306.27188Q256.64374 305.86563 256.40936 305.56876Q256.175 305.25626 255.64375 305.05313Q255.28438 304.9125 254.09688 304.63126Q252.925 304.35 252.45625 304.1Q251.83125 303.77188 251.53438 303.30313Q251.2375 302.81876 251.2375 302.225Q251.2375 301.58438 251.59688 301.02188Q251.97188 300.44376 252.675 300.1625Q253.39375 299.86563 254.25313 299.86563Q255.20625 299.86563 255.94063 300.17813Q256.675 300.475 257.0656 301.08438Q257.45624 301.67813 257.4875 302.42813L256.39374 302.50626Q256.3 301.69376 255.78438 301.2875Q255.28438 300.86563 254.3 300.86563Q253.26875 300.86563 252.8 301.24063Q252.33125 301.61563 252.33125 302.14688Q252.33125 302.61563 252.65938 302.9125Q252.9875 303.20938 254.3625 303.52188Q255.75313 303.83438 256.26874 304.06876Q257.01874 304.42813 257.3781 304.95938Q257.7375 305.475 257.7375 306.17813Q257.7375 306.86563 257.34686 307.475Q256.95624 308.06876 256.22186 308.4125Q255.4875 308.74063 254.56563 308.74063Q253.39375 308.74063 252.59688 308.4125Q251.81563 308.06876 251.3625 307.38126Q250.925 306.69376 250.90938 305.83438ZM259.15936 310.99063L259.15936 302.38126L260.1125 302.38126L260.1125 303.17813Q260.45624 302.70938 260.8781 302.475Q261.3156 302.24063 261.925 302.24063Q262.72186 302.24063 263.33124 302.64688Q263.9406 303.05313 264.2375 303.80313Q264.55 304.55313 264.55 305.44376Q264.55 306.39688 264.20624 307.1625Q263.8781 307.92813 263.22186 308.33438Q262.5656 308.74063 261.84686 308.74063Q261.3156 308.74063 260.89374 308.52188Q260.47186 308.2875 260.20624 307.95938L260.20624 310.99063L259.15936 310.99063ZM260.1125 305.52188Q260.1125 306.725 260.59686 307.30313Q261.08124 307.86563 261.76874 307.86563Q262.47186 307.86563 262.97186 307.27188Q263.47186 306.67813 263.47186 305.42813Q263.47186 304.24063 262.9875 303.6625Q262.5031 303.06876 261.8156 303.06876Q261.14374 303.06876 260.6281 303.69376Q260.1125 304.31876 260.1125 305.52188ZM266.14374 308.6L266.14374 302.38126L267.09686 302.38126L267.09686 303.31876Q267.45624 302.6625 267.7531 302.45938Q268.0656 302.24063 268.4406 302.24063Q268.97186 302.24063 269.51874 302.56876L269.15936 303.55313Q268.76874 303.31876 268.39374 303.31876Q268.03436 303.31876 267.7531 303.5375Q267.4875 303.74063 267.3781 304.11563Q267.1906 304.67813 267.1906 305.33438L267.1906 308.6L266.14374 308.6ZM270.15936 301.225L270.15936 300.00626L271.22186 300.00626L271.22186 301.225L270.15936 301.225ZM270.15936 308.6L270.15936 302.38126L271.22186 302.38126L271.22186 308.6L270.15936 308.6ZM273.15936 308.6L273.15936 302.38126L274.09686 302.38126L274.09686 303.25626Q274.78436 302.24063 276.08124 302.24063Q276.64374 302.24063 277.1125 302.44376Q277.59686 302.64688 277.83124 302.975Q278.0656 303.30313 278.15936 303.74063Q278.20624 304.0375 278.20624 304.77188L278.20624 308.6L277.15936 308.6L277.15936 304.81876Q277.15936 304.1625 277.03436 303.85Q276.90936 303.5375 276.59686 303.35Q276.28436 303.14688 275.8625 303.14688Q275.1906 303.14688 274.6906 303.58438Q274.20624 304.00626 274.20624 305.19376L274.20624 308.6L273.15936 308.6ZM282.45624 307.6625L282.6125 308.58438Q282.15936 308.67813 281.8156 308.67813Q281.2375 308.67813 280.925 308.50626Q280.6125 308.31876 280.47186 308.02188Q280.34686 307.725 280.34686 306.77188L280.34686 303.19376L279.58124 303.19376L279.58124 302.38126L280.34686 302.38126L280.34686 300.83438L281.39374 300.20938L281.39374 302.38126L282.45624 302.38126L282.45624 303.19376L281.39374 303.19376L281.39374 306.83438Q281.39374 307.2875 281.4406 307.4125Q281.5031 307.5375 281.6281 307.61563Q281.7531 307.69376 281.9875 307.69376Q282.175 307.69376 282.45624 307.6625ZM289.2375 308.6L289.2375 306.5375L285.51874 306.5375L285.51874 305.56876L289.4406 300.00626L290.3 300.00626L290.3 305.56876L291.45624 305.56876L291.45624 306.5375L290.3 306.5375L290.3 308.6L289.2375 308.6ZM289.2375 305.56876L289.2375 301.70938L286.55 305.56876L289.2375 305.56876Z" fill-rule="nonzero"/><path fill="#000000" d="M305.1844 305.83438L306.2469 305.74063Q306.325 306.39688 306.60626 306.80313Q306.8875 307.20938 307.46564 307.475Q308.0594 307.725 308.79376 307.725Q309.4344 307.725 309.9344 307.5375Q310.4344 307.33438 310.66876 307.00626Q310.91876 306.6625 310.91876 306.27188Q310.91876 305.86563 310.6844 305.56876Q310.45 305.25626 309.91876 305.05313Q309.5594 304.9125 308.3719 304.63126Q307.2 304.35 306.73126 304.1Q306.10626 303.77188 305.8094 303.30313Q305.5125 302.81876 305.5125 302.225Q305.5125 301.58438 305.8719 301.02188Q306.2469 300.44376 306.95 300.1625Q307.66876 299.86563 308.52814 299.86563Q309.48126 299.86563 310.21564 300.17813Q310.95 300.475 311.34064 301.08438Q311.73126 301.67813 311.7625 302.42813L310.66876 302.50626Q310.575 301.69376 310.0594 301.2875Q309.5594 300.86563 308.575 300.86563Q307.54376 300.86563 307.075 301.24063Q306.60626 301.61563 306.60626 302.14688Q306.60626 302.61563 306.9344 302.9125Q307.2625 303.20938 308.6375 303.52188Q310.02814 303.83438 310.54376 304.06876Q311.29376 304.42813 311.65314 304.95938Q312.0125 305.475 312.0125 306.17813Q312.0125 306.86563 311.6219 307.475Q311.23126 308.06876 310.4969 308.4125Q309.7625 308.74063 308.84064 308.74063Q307.66876 308.74063 306.8719 308.4125Q306.09064 308.06876 305.6375 307.38126Q305.2 306.69376 305.1844 305.83438ZM313.4344 310.99063L313.4344 302.38126L314.3875 302.38126L314.3875 303.17813Q314.73126 302.70938 315.15314 302.475Q315.59064 302.24063 316.2 302.24063Q316.9969 302.24063 317.60626 302.64688Q318.21564 303.05313 318.5125 303.80313Q318.825 304.55313 318.825 305.44376Q318.825 306.39688 318.48126 307.1625Q318.15314 307.92813 317.4969 308.33438Q316.84064 308.74063 316.1219 308.74063Q315.59064 308.74063 315.16876 308.52188Q314.7469 308.2875 314.48126 307.95938L314.48126 310.99063L313.4344 310.99063ZM314.3875 305.52188Q314.3875 306.725 314.8719 307.30313Q315.35626 307.86563 316.04376 307.86563Q316.7469 307.86563 317.2469 307.27188Q317.7469 306.67813 317.7469 305.42813Q317.7469 304.24063 317.2625 303.6625Q316.77814 303.06876 316.09064 303.06876Q315.41876 303.06876 314.90314 303.69376Q314.3875 304.31876 314.3875 305.52188ZM320.41876 308.6L320.41876 302.38126L321.3719 302.38126L321.3719 303.31876Q321.73126 302.6625 322.02814 302.45938Q322.34064 302.24063 322.71564 302.24063Q323.2469 302.24063 323.79376 302.56876L323.4344 303.55313Q323.04376 303.31876 322.66876 303.31876Q322.3094 303.31876 322.02814 303.5375Q321.7625 303.74063 321.65314 304.11563Q321.46564 304.67813 321.46564 305.33438L321.46564 308.6L320.41876 308.6ZM324.4344 301.225L324.4344 300.00626L325.4969 300.00626L325.4969 301.225L324.4344 301.225ZM324.4344 308.6L324.4344 302.38126L325.4969 302.38126L325.4969 308.6L324.4344 308.6ZM327.4344 308.6L327.4344 302.38126L328.3719 302.38126L328.3719 303.25626Q329.0594 302.24063 330.35626 302.24063Q330.91876 302.24063 331.3875 302.44376Q331.8719 302.64688 332.10626 302.975Q332.34064 303.30313 332.4344 303.74063Q332.48126 304.0375 332.48126 304.77188L332.48126 308.6L331.4344 308.6L331.4344 304.81876Q331.4344 304.1625 331.3094 303.85Q331.1844 303.5375 330.8719 303.35Q330.5594 303.14688 330.1375 303.14688Q329.46564 303.14688 328.96564 303.58438Q328.48126 304.00626 328.48126 305.19376L328.48126 308.6L327.4344 308.6ZM336.73126 307.6625L336.8875 308.58438Q336.4344 308.67813 336.09064 308.67813Q335.5125 308.67813 335.2 308.50626Q334.8875 308.31876 334.7469 308.02188Q334.6219 307.725 334.6219 306.77188L334.6219 303.19376L333.85626 303.19376L333.85626 302.38126L334.6219 302.38126L334.6219 300.83438L335.66876 300.20938L335.66876 302.38126L336.73126 302.38126L336.73126 303.19376L335.66876 303.19376L335.66876 306.83438Q335.66876 307.2875 335.71564 307.4125Q335.77814 307.5375 335.90314 307.61563Q336.02814 307.69376 336.2625 307.69376Q336.45 307.69376 336.73126 307.6625ZM340.1375 306.35L341.2469 306.25626Q341.3719 307.06876 341.8094 307.475Q342.2625 307.88126 342.90314 307.88126Q343.65314 307.88126 344.1844 307.30313Q344.71564 306.725 344.71564 305.7875Q344.71564 304.88126 344.2 304.36563Q343.7 303.83438 342.8719 303.83438Q342.3719 303.83438 341.95 304.06876Q341.54376 304.30313 341.3094 304.6625L340.325 304.5375L341.15314 300.13126L345.4344 300.13126L345.4344 301.13126L341.9969 301.13126L341.54376 303.44376Q342.3094 302.89688 343.15314 302.89688Q344.27814 302.89688 345.04376 303.67813Q345.825 304.45938 345.825 305.69376Q345.825 306.85 345.15314 307.70938Q344.325 308.74063 342.90314 308.74063Q341.73126 308.74063 340.98126 308.08438Q340.2469 307.42813 340.1375 306.35Z" fill-rule="nonzero"/><path fill="#000000" d="M359.45938 305.83438L360.52188 305.74063Q360.6 306.39688 360.88126 306.80313Q361.1625 307.20938 361.74063 307.475Q362.33438 307.725 363.06876 307.725Q363.70938 307.725 364.20938 307.5375Q364.70938 307.33438 364.94376 307.00626Q365.19376 306.6625 365.19376 306.27188Q365.19376 305.86563 364.95938 305.56876Q364.725 305.25626 364.19376 305.05313Q363.83438 304.9125 362.64688 304.63126Q361.475 304.35 361.00626 304.1Q360.38126 303.77188 360.08438 303.30313Q359.7875 302.81876 359.7875 302.225Q359.7875 301.58438 360.14688 301.02188Q360.52188 300.44376 361.225 300.1625Q361.94376 299.86563 362.80313 299.86563Q363.75626 299.86563 364.49063 300.17813Q365.225 300.475 365.61563 301.08438Q366.00626 301.67813 366.0375 302.42813L364.94376 302.50626Q364.85 301.69376 364.33438 301.2875Q363.83438 300.86563 362.85 300.86563Q361.81876 300.86563 361.35 301.24063Q360.88126 301.61563 360.88126 302.14688Q360.88126 302.61563 361.20938 302.9125Q361.5375 303.20938 362.9125 303.52188Q364.30313 303.83438 364.81876 304.06876Q365.56876 304.42813 365.92813 304.95938Q366.2875 305.475 366.2875 306.17813Q366.2875 306.86563 365.89688 307.475Q365.50626 308.06876 364.77188 308.4125Q364.0375 308.74063 363.11563 308.74063Q361.94376 308.74063 361.14688 308.4125Q360.36563 308.06876 359.9125 307.38126Q359.475 306.69376 359.45938 305.83438ZM367.70938 310.99063L367.70938 302.38126L368.6625 302.38126L368.6625 303.17813Q369.00626 302.70938 369.42813 302.475Q369.86563 302.24063 370.475 302.24063Q371.27188 302.24063 371.88126 302.64688Q372.49063 303.05313 372.7875 303.80313Q373.1 304.55313 373.1 305.44376Q373.1 306.39688 372.75626 307.1625Q372.42813 307.92813 371.77188 308.33438Q371.11563 308.74063 370.39688 308.74063Q369.86563 308.74063 369.44376 308.52188Q369.02188 308.2875 368.75626 307.95938L368.75626 310.99063L367.70938 310.99063ZM368.6625 305.52188Q368.6625 306.725 369.14688 307.30313Q369.63126 307.86563 370.31876 307.86563Q371.02188 307.86563 371.52188 307.27188Q372.02188 306.67813 372.02188 305.42813Q372.02188 304.24063 371.5375 303.6625Q371.05313 303.06876 370.36563 303.06876Q369.69376 303.06876 369.17813 303.69376Q368.6625 304.31876 368.6625 305.52188ZM374.69376 308.6L374.69376 302.38126L375.64688 302.38126L375.64688 303.31876Q376.00626 302.6625 376.30313 302.45938Q376.61563 302.24063 376.99063 302.24063Q377.52188 302.24063 378.06876 302.56876L377.70938 303.55313Q377.31876 303.31876 376.94376 303.31876Q376.58438 303.31876 376.30313 303.5375Q376.0375 303.74063 375.92813 304.11563Q375.74063 304.67813 375.74063 305.33438L375.74063 308.6L374.69376 308.6ZM378.70938 301.225L378.70938 300.00626L379.77188 300.00626L379.77188 301.225L378.70938 301.225ZM378.70938 308.6L378.70938 302.38126L379.77188 302.38126L379.77188 308.6L378.70938 308.6ZM381.70938 308.6L381.70938 302.38126L382.64688 302.38126L382.64688 303.25626Q383.33438 302.24063 384.63126 302.24063Q385.19376 302.24063 385.6625 302.44376Q386.14688 302.64688 386.38126 302.975Q386.61563 303.30313 386.70938 303.74063Q386.75626 304.0375 386.75626 304.77188L386.75626 308.6L385.70938 308.6L385.70938 304.81876Q385.70938 304.1625 385.58438 303.85Q385.45938 303.5375 385.14688 303.35Q384.83438 303.14688 384.4125 303.14688Q383.74063 303.14688 383.24063 303.58438Q382.75626 304.00626 382.75626 305.19376L382.75626 308.6L381.70938 308.6ZM391.00626 307.6625L391.1625 308.58438Q390.70938 308.67813 390.36563 308.67813Q389.7875 308.67813 389.475 308.50626Q389.1625 308.31876 389.02188 308.02188Q388.89688 307.725 388.89688 306.77188L388.89688 303.19376L388.13126 303.19376L388.13126 302.38126L388.89688 302.38126L388.89688 300.83438L389.94376 300.20938L389.94376 302.38126L391.00626 302.38126L391.00626 303.19376L389.94376 303.19376L389.94376 306.83438Q389.94376 307.2875 389.99063 307.4125Q390.05313 307.5375 390.17813 307.61563Q390.30313 307.69376 390.5375 307.69376Q390.725 307.69376 391.00626 307.6625ZM399.88126 302.11563L398.83438 302.19376Q398.69376 301.56876 398.44376 301.2875Q398.00626 300.83438 397.38126 300.83438Q396.88126 300.83438 396.49063 301.11563Q396.00626 301.49063 395.70938 302.19376Q395.42813 302.88126 395.4125 304.1625Q395.7875 303.58438 396.33438 303.30313Q396.89688 303.02188 397.50626 303.02188Q398.55313 303.02188 399.2875 303.80313Q400.0375 304.58438 400.0375 305.80313Q400.0375 306.61563 399.67813 307.31876Q399.33438 308.00626 398.725 308.38126Q398.11563 308.74063 397.35 308.74063Q396.02188 308.74063 395.19376 307.77188Q394.36563 306.80313 394.36563 304.58438Q394.36563 302.08438 395.2875 300.95938Q396.08438 299.975 397.44376 299.975Q398.45938 299.975 399.1 300.55313Q399.75626 301.11563 399.88126 302.11563ZM395.58438 305.81876Q395.58438 306.36563 395.80313 306.86563Q396.0375 307.35 396.44376 307.61563Q396.86563 307.88126 397.33438 307.88126Q397.99063 307.88126 398.475 307.35Q398.95938 306.80313 398.95938 305.88126Q398.95938 304.99063 398.475 304.475Q398.00626 303.95938 397.2875 303.95938Q396.56876 303.95938 396.06876 304.475Q395.58438 304.99063 395.58438 305.81876Z" fill-rule="nonzero"/><path fill="#000000" d="M413.73438 305.83438L414.79688 305.74063Q414.875 306.39688 415.15625 306.80313Q415.4375 307.20938 416.01562 307.475Q416.60938 307.725 417.34375 307.725Q417.98438 307.725 418.48438 307.5375Q418.98438 307.33438 419.21875 307.00626Q419.46875 306.6625 419.46875 306.27188Q419.46875 305.86563 419.23438 305.56876Q419.0 305.25626 418.46875 305.05313Q418.10938 304.9125 416.92188 304.63126Q415.75 304.35 415.28125 304.1Q414.65625 303.77188 414.35938 303.30313Q414.0625 302.81876 414.0625 302.225Q414.0625 301.58438 414.42188 301.02188Q414.79688 300.44376 415.5 300.1625Q416.21875 299.86563 417.07812 299.86563Q418.03125 299.86563 418.76562 300.17813Q419.5 300.475 419.89062 301.08438Q420.28125 301.67813 420.3125 302.42813L419.21875 302.50626Q419.125 301.69376 418.60938 301.2875Q418.10938 300.86563 417.125 300.86563Q416.09375 300.86563 415.625 301.24063Q415.15625 301.61563 415.15625 302.14688Q415.15625 302.61563 415.48438 302.9125Q415.8125 303.20938 417.1875 303.52188Q418.57812 303.83438 419.09375 304.06876Q419.84375 304.42813 420.20312 304.95938Q420.5625 305.475 420.5625 306.17813Q420.5625 306.86563 420.17188 307.475Q419.78125 308.06876 419.04688 308.4125Q418.3125 308.74063 417.39062 308.74063Q416.21875 308.74063 415.42188 308.4125Q414.64062 308.06876 414.1875 307.38126Q413.75 306.69376 413.73438 305.83438ZM421.98438 310.99063L421.98438 302.38126L422.9375 302.38126L422.9375 303.17813Q423.28125 302.70938 423.70312 302.475Q424.14062 302.24063 424.75 302.24063Q425.54688 302.24063 426.15625 302.64688Q426.76562 303.05313 427.0625 303.80313Q427.375 304.55313 427.375 305.44376Q427.375 306.39688 427.03125 307.1625Q426.70312 307.92813 426.04688 308.33438Q425.39062 308.74063 424.67188 308.74063Q424.14062 308.74063 423.71875 308.52188Q423.29688 308.2875 423.03125 307.95938L423.03125 310.99063L421.98438 310.99063ZM422.9375 305.52188Q422.9375 306.725 423.42188 307.30313Q423.90625 307.86563 424.59375 307.86563Q425.29688 307.86563 425.79688 307.27188Q426.29688 306.67813 426.29688 305.42813Q426.29688 304.24063 425.8125 303.6625Q425.32812 303.06876 424.64062 303.06876Q423.96875 303.06876 423.45312 303.69376Q422.9375 304.31876 422.9375 305.52188ZM428.96875 308.6L428.96875 302.38126L429.92188 302.38126L429.92188 303.31876Q430.28125 302.6625 430.57812 302.45938Q430.89062 302.24063 431.26562 302.24063Q431.79688 302.24063 432.34375 302.56876L431.98438 303.55313Q431.59375 303.31876 431.21875 303.31876Q430.85938 303.31876 430.57812 303.5375Q430.3125 303.74063 430.20312 304.11563Q430.01562 304.67813 430.01562 305.33438L430.01562 308.6L428.96875 308.6ZM432.98438 301.225L432.98438 300.00626L434.04688 300.00626L434.04688 301.225L432.98438 301.225ZM432.98438 308.6L432.98438 302.38126L434.04688 302.38126L434.04688 308.6L432.98438 308.6ZM435.98438 308.6L435.98438 302.38126L436.92188 302.38126L436.92188 303.25626Q437.60938 302.24063 438.90625 302.24063Q439.46875 302.24063 439.9375 302.44376Q440.42188 302.64688 440.65625 302.975Q440.89062 303.30313 440.98438 303.74063Q441.03125 304.0375 441.03125 304.77188L441.03125 308.6L439.98438 308.6L439.98438 304.81876Q439.98438 304.1625 439.85938 303.85Q439.73438 303.5375 439.42188 303.35Q439.10938 303.14688 438.6875 303.14688Q438.01562 303.14688 437.51562 303.58438Q437.03125 304.00626 437.03125 305.19376L437.03125 308.6L435.98438 308.6ZM445.28125 307.6625L445.4375 308.58438Q444.98438 308.67813 444.64062 308.67813Q444.0625 308.67813 443.75 308.50626Q443.4375 308.31876 443.29688 308.02188Q443.17188 307.725 443.17188 306.77188L443.17188 303.19376L442.40625 303.19376L442.40625 302.38126L443.17188 302.38126L443.17188 300.83438L444.21875 300.20938L444.21875 302.38126L445.28125 302.38126L445.28125 303.19376L444.21875 303.19376L444.21875 306.83438Q444.21875 307.2875 444.26562 307.4125Q444.32812 307.5375 444.45312 307.61563Q444.57812 307.69376 444.8125 307.69376Q445.0 307.69376 445.28125 307.6625ZM448.75 301.13126L448.75 300.11563L454.3125 300.11563L454.3125 300.94376Q453.5 301.81876 452.6875 303.27188Q451.89062 304.70938 451.45312 306.24063Q451.125 307.31876 451.04688 308.6L449.95312 308.6Q449.96875 307.58438 450.34375 306.14688Q450.73438 304.70938 451.4375 303.38126Q452.15625 302.05313 452.96875 301.13126L448.75 301.13126Z" fill-rule="nonzero"/><path fill="#000000" d="M468.00937 305.83438L469.07187 305.74063Q469.15 306.39688 469.43124 306.80313Q469.7125 307.20938 470.29062 307.475Q470.88437 307.725 471.61874 307.725Q472.25937 307.725 472.75937 307.5375Q473.25937 307.33438 473.49374 307.00626Q473.74374 306.6625 473.74374 306.27188Q473.74374 305.86563 473.50937 305.56876Q473.275 305.25626 472.74374 305.05313Q472.38437 304.9125 471.19687 304.63126Q470.025 304.35 469.55624 304.1Q468.93124 303.77188 468.63437 303.30313Q468.3375 302.81876 468.3375 302.225Q468.3375 301.58438 468.69687 301.02188Q469.07187 300.44376 469.775 300.1625Q470.49374 299.86563 471.35312 299.86563Q472.30624 299.86563 473.04062 300.17813Q473.775 300.475 474.16562 301.08438Q474.55624 301.67813 474.5875 302.42813L473.49374 302.50626Q473.4 301.69376 472.88437 301.2875Q472.38437 300.86563 471.4 300.86563Q470.36874 300.86563 469.9 301.24063Q469.43124 301.61563 469.43124 302.14688Q469.43124 302.61563 469.75937 302.9125Q470.0875 303.20938 471.4625 303.52188Q472.85312 303.83438 473.36874 304.06876Q474.11874 304.42813 474.47812 304.95938Q474.8375 305.475 474.8375 306.17813Q474.8375 306.86563 474.44687 307.475Q474.05624 308.06876 473.32187 308.4125Q472.5875 308.74063 471.66562 308.74063Q470.49374 308.74063 469.69687 308.4125Q468.91562 308.06876 468.4625 307.38126Q468.025 306.69376 468.00937 305.83438ZM476.25937 310.99063L476.25937 302.38126L477.2125 302.38126L477.2125 303.17813Q477.55624 302.70938 477.97812 302.475Q478.41562 302.24063 479.025 302.24063Q479.82187 302.24063 480.43124 302.64688Q481.04062 303.05313 481.3375 303.80313Q481.65 304.55313 481.65 305.44376Q481.65 306.39688 481.30624 307.1625Q480.97812 307.92813 480.32187 308.33438Q479.66562 308.74063 478.94687 308.74063Q478.41562 308.74063 477.99374 308.52188Q477.57187 308.2875 477.30624 307.95938L477.30624 310.99063L476.25937 310.99063ZM477.2125 305.52188Q477.2125 306.725 477.69687 307.30313Q478.18124 307.86563 478.86874 307.86563Q479.57187 307.86563 480.07187 307.27188Q480.57187 306.67813 480.57187 305.42813Q480.57187 304.24063 480.0875 303.6625Q479.60312 303.06876 478.91562 303.06876Q478.24374 303.06876 477.72812 303.69376Q477.2125 304.31876 477.2125 305.52188ZM483.24374 308.6L483.24374 302.38126L484.19687 302.38126L484.19687 303.31876Q484.55624 302.6625 484.85312 302.45938Q485.16562 302.24063 485.54062 302.24063Q486.07187 302.24063 486.61874 302.56876L486.25937 303.55313Q485.86874 303.31876 485.49374 303.31876Q485.13437 303.31876 484.85312 303.5375Q484.5875 303.74063 484.47812 304.11563Q484.29062 304.67813 484.29062 305.33438L484.29062 308.6L483.24374 308.6ZM487.25937 301.225L487.25937 300.00626L488.32187 300.00626L488.32187 301.225L487.25937 301.225ZM487.25937 308.6L487.25937 302.38126L488.32187 302.38126L488.32187 308.6L487.25937 308.6ZM490.25937 308.6L490.25937 302.38126L491.19687 302.38126L491.19687 303.25626Q491.88437 302.24063 493.18124 302.24063Q493.74374 302.24063 494.2125 302.44376Q494.69687 302.64688 494.93124 302.975Q495.16562 303.30313 495.25937 303.74063Q495.30624 304.0375 495.30624 304.77188L495.30624 308.6L494.25937 308.6L494.25937 304.81876Q494.25937 304.1625 494.13437 303.85Q494.00937 303.5375 493.69687 303.35Q493.38437 303.14688 492.9625 303.14688Q492.29062 303.14688 491.79062 303.58438Q491.30624 304.00626 491.30624 305.19376L491.30624 308.6L490.25937 308.6ZM499.55624 307.6625L499.7125 308.58438Q499.25937 308.67813 498.91562 308.67813Q498.3375 308.67813 498.025 308.50626Q497.7125 308.31876 497.57187 308.02188Q497.44687 307.725 497.44687 306.77188L497.44687 303.19376L496.68124 303.19376L496.68124 302.38126L497.44687 302.38126L497.44687 300.83438L498.49374 300.20938L498.49374 302.38126L499.55624 302.38126L499.55624 303.19376L498.49374 303.19376L498.49374 306.83438Q498.49374 307.2875 498.54062 307.4125Q498.60312 307.5375 498.72812 307.61563Q498.85312 307.69376 499.0875 307.69376Q499.275 307.69376 499.55624 307.6625ZM504.5875 303.94376Q503.93124 303.69376 503.60312 303.25626Q503.29062 302.80313 503.29062 302.19376Q503.29062 301.25626 503.9625 300.61563Q504.65 299.975 505.75937 299.975Q506.88437 299.975 507.57187 300.63126Q508.25937 301.2875 508.25937 302.225Q508.25937 302.81876 507.94687 303.25626Q507.63437 303.69376 506.99374 303.94376Q507.79062 304.19376 508.19687 304.77188Q508.60312 305.35 508.60312 306.14688Q508.60312 307.24063 507.82187 307.99063Q507.05624 308.74063 505.775 308.74063Q504.50937 308.74063 503.72812 307.99063Q502.94687 307.24063 502.94687 306.11563Q502.94687 305.27188 503.36874 304.70938Q503.80624 304.14688 504.5875 303.94376ZM504.36874 302.14688Q504.36874 302.75626 504.75937 303.14688Q505.16562 303.5375 505.79062 303.5375Q506.4 303.5375 506.79062 303.1625Q507.18124 302.77188 507.18124 302.20938Q507.18124 301.63126 506.775 301.24063Q506.36874 300.83438 505.775 300.83438Q505.16562 300.83438 504.75937 301.225Q504.36874 301.61563 504.36874 302.14688ZM504.04062 306.11563Q504.04062 306.56876 504.24374 306.99063Q504.4625 307.4125 504.88437 307.64688Q505.30624 307.88126 505.79062 307.88126Q506.54062 307.88126 507.025 307.39688Q507.525 306.9125 507.525 306.1625Q507.525 305.39688 507.025 304.89688Q506.525 304.39688 505.75937 304.39688Q505.00937 304.39688 504.525 304.89688Q504.04062 305.38126 504.04062 306.11563Z" fill-rule="nonzero"/><path fill="#4285f4" d="M139.0 23.4C139.0 26.713709 136.3137 29.4 133.0 29.4C129.6863 29.4 127.0 26.713709 127.0 23.4C127.0 20.086292 129.6863 17.4 133.0 17.4C136.3137 17.4 139.0 20.086292 139.0 23.4Z" fill-rule="nonzero"/><path fill="#1a1a1a" d="M147.95312 27.4L147.95312 18.80625L154.15625 18.80625L154.15625 19.821875L149.09375 19.821875L149.09375 22.446875L153.84375 22.446875L153.84375 23.4625L149.09375 23.4625L149.09375 26.384375L154.35938 26.384375L154.35938 27.4L147.95312 27.4ZM158.10938 27.4L158.10938 19.821875L155.28125 19.821875L155.28125 18.80625L162.09375 18.80625L162.09375 19.821875L159.25 19.821875L159.25 27.4L158.10938 27.4Z" fill-rule="nonzero"/><path fill="#ea4335" d="M190.0 23.4C190.0 26.713709 187.3137 29.4 184.0 29.4C180.6863 29.4 178.0 26.713709 178.0 23.4C178.0 20.086292 180.6863 17.4 184.0 17.4C187.3137 17.4 190.0 20.086292 190.0 23.4Z" fill-rule="nonzero"/><path fill="#1a1a1a" d="M201.375 27.4L198.04688 18.80625L199.28125 18.80625L201.51562 25.05625Q201.78125 25.80625 201.96875 26.4625Q202.17188 25.759375 202.4375 25.05625L204.75 18.80625L205.90625 18.80625L202.54688 27.4L201.375 27.4ZM209.85938 26.634375Q209.26562 27.134375 208.71875 27.3375Q208.1875 27.540625 207.5625 27.540625Q206.53125 27.540625 205.98438 27.040625Q205.4375 26.540625 205.4375 25.759375Q205.4375 25.30625 205.64062 24.93125Q205.84375 24.540625 206.1875 24.321875Q206.53125 24.0875 206.95312 23.978125Q207.25 23.884375 207.89062 23.80625Q209.15625 23.665625 209.76562 23.446875Q209.76562 23.228125 209.76562 23.18125Q209.76562 22.525 209.46875 22.259375Q209.0625 21.915625 208.26562 21.915625Q207.53125 21.915625 207.17188 22.18125Q206.8125 22.43125 206.64062 23.0875L205.60938 22.946875Q205.75 22.290625 206.07812 21.884375Q206.40625 21.478125 207.01562 21.259375Q207.625 21.040625 208.42188 21.040625Q209.21875 21.040625 209.71875 21.228125Q210.21875 21.415625 210.45312 21.696875Q210.6875 21.978125 210.78125 22.415625Q210.82812 22.68125 210.82812 23.384375L210.82812 24.790625Q210.82812 26.259375 210.89062 26.65Q210.96875 27.040625 211.17188 27.4L210.0625 27.4Q209.90625 27.071875 209.85938 26.634375ZM209.76562 24.275Q209.1875 24.509375 208.04688 24.68125Q207.39062 24.775 207.125 24.9Q206.85938 25.009375 206.70312 25.228125Q206.5625 25.446875 206.5625 25.728125Q206.5625 26.15 206.875 26.43125Q207.20312 26.7125 207.8125 26.7125Q208.42188 26.7125 208.89062 26.446875Q209.375 26.18125 209.59375 25.7125Q209.76562 25.353125 209.76562 24.665625L209.76562 24.275ZM212.76562 27.4L212.76562 18.80625L213.82812 18.80625L213.82812 27.4L212.76562 27.4ZM215.40625 24.290625Q215.40625 22.55625 216.35938 21.728125Q217.15625 21.040625 218.3125 21.040625Q219.59375 21.040625 220.40625 21.884375Q221.23438 22.7125 221.23438 24.196875Q221.23438 25.4 220.875 26.0875Q220.51562 26.775 219.8125 27.165625Q219.125 27.540625 218.3125 27.540625Q217.01562 27.540625 216.20312 26.7125Q215.40625 25.86875 215.40625 24.290625ZM216.48438 24.290625Q216.48438 25.478125 217.0 26.071875Q217.53125 26.665625 218.3125 26.665625Q219.10938 26.665625 219.625 26.071875Q220.14062 25.478125 220.14062 24.259375Q220.14062 23.103125 219.60938 22.509375Q219.09375 21.915625 218.3125 21.915625Q217.53125 21.915625 217.0 22.509375Q216.48438 23.0875 216.48438 24.290625ZM222.78125 27.4L222.78125 21.18125L223.73438 21.18125L223.73438 22.11875Q224.09375 21.4625 224.39062 21.259375Q224.70312 21.040625 225.07812 21.040625Q225.60938 21.040625 226.15625 21.36875L225.79688 22.353125Q225.40625 22.11875 225.03125 22.11875Q224.67188 22.11875 224.39062 22.3375Q224.125 22.540625 224.01562 22.915625Q223.82812 23.478125 223.82812 24.134375L223.82812 27.4L222.78125 27.4ZM231.04688 25.4L232.14062 25.525Q231.89062 26.478125 231.1875 27.009375Q230.48438 27.540625 229.40625 27.540625Q228.04688 27.540625 227.23438 26.696875Q226.4375 25.853125 226.4375 24.3375Q226.4375 22.775 227.25 21.915625Q228.0625 21.040625 229.34375 21.040625Q230.59375 21.040625 231.375 21.884375Q232.17188 22.728125 232.17188 24.275Q232.17188 24.36875 232.17188 24.55625L227.53125 24.55625Q227.59375 25.5875 228.10938 26.134375Q228.625 26.665625 229.40625 26.665625Q229.98438 26.665625 230.39062 26.36875Q230.8125 26.05625 231.04688 25.4ZM227.59375 23.696875L231.0625 23.696875Q231.0 22.9 230.67188 22.509375Q230.15625 21.9 229.35938 21.9Q228.625 21.9 228.125 22.384375Q227.64062 22.86875 227.59375 23.696875ZM240.85938 26.634375Q240.26562 27.134375 239.71875 27.3375Q239.1875 27.540625 238.5625 27.540625Q237.53125 27.540625 236.98438 27.040625Q236.4375 26.540625 236.4375 25.759375Q236.4375 25.30625 236.64062 24.93125Q236.84375 24.540625 237.1875 24.321875Q237.53125 24.0875 237.95312 23.978125Q238.25 23.884375 238.89062 23.80625Q240.15625 23.665625 240.76562 23.446875Q240.76562 23.228125 240.76562 23.18125Q240.76562 22.525 240.46875 22.259375Q240.0625 21.915625 239.26562 21.915625Q238.53125 21.915625 238.17188 22.18125Q237.8125 22.43125 237.64062 23.0875L236.60938 22.946875Q236.75 22.290625 237.07812 21.884375Q237.40625 21.478125 238.01562 21.259375Q238.625 21.040625 239.42188 21.040625Q240.21875 21.040625 240.71875 21.228125Q241.21875 21.415625 241.45312 21.696875Q241.6875 21.978125 241.78125 22.415625Q241.82812 22.68125 241.82812 23.384375L241.82812 24.790625Q241.82812 26.259375 241.89062 26.65Q241.96875 27.040625 242.17188 27.4L241.0625 27.4Q240.90625 27.071875 240.85938 26.634375ZM240.76562 24.275Q240.1875 24.509375 239.04688 24.68125Q238.39062 24.775 238.125 24.9Q237.85938 25.009375 237.70312 25.228125Q237.5625 25.446875 237.5625 25.728125Q237.5625 26.15 237.875 26.43125Q238.20312 26.7125 238.8125 26.7125Q239.42188 26.7125 239.89062 26.446875Q240.375 26.18125 240.59375 25.7125Q240.76562 25.353125 240.76562 24.665625L240.76562 24.275ZM247.85938 25.11875L248.89062 25.259375Q248.71875 26.321875 248.01562 26.93125Q247.3125 27.540625 246.29688 27.540625Q245.01562 27.540625 244.23438 26.7125Q243.46875 25.86875 243.46875 24.30625Q243.46875 23.30625 243.79688 22.55625Q244.14062 21.790625 244.8125 21.415625Q245.5 21.040625 246.3125 21.040625Q247.3125 21.040625 247.95312 21.55625Q248.60938 22.05625 248.79688 23.009375L247.76562 23.165625Q247.625 22.540625 247.25 22.228125Q246.875 21.9 246.34375 21.9Q245.54688 21.9 245.04688 22.478125Q244.54688 23.040625 244.54688 24.275Q244.54688 25.540625 245.03125 26.103125Q245.51562 26.665625 246.28125 26.665625Q246.90625 26.665625 247.3125 26.290625Q247.73438 25.915625 247.85938 25.11875ZM253.85938 25.11875L254.89062 25.259375Q254.71875 26.321875 254.01562 26.93125Q253.3125 27.540625 252.29688 27.540625Q251.01562 27.540625 250.23438 26.7125Q249.46875 25.86875 249.46875 24.30625Q249.46875 23.30625 249.79688 22.55625Q250.14062 21.790625 250.8125 21.415625Q251.5 21.040625 252.3125 21.040625Q253.3125 21.040625 253.95312 21.55625Q254.60938 22.05625 254.79688 23.009375L253.76562 23.165625Q253.625 22.540625 253.25 22.228125Q252.875 21.9 252.34375 21.9Q251.54688 21.9 251.04688 22.478125Q250.54688 23.040625 250.54688 24.275Q250.54688 25.540625 251.03125 26.103125Q251.51562 26.665625 252.28125 26.665625Q252.90625 26.665625 253.3125 26.290625Q253.73438 25.915625 253.85938 25.11875ZM260.04688 25.4L261.14062 25.525Q260.89062 26.478125 260.1875 27.009375Q259.48438 27.540625 258.40625 27.540625Q257.04688 27.540625 256.23438 26.696875Q255.4375 25.853125 255.4375 24.3375Q255.4375 22.775 256.25 21.915625Q257.0625 21.040625 258.34375 21.040625Q259.59375 21.040625 260.375 21.884375Q261.17188 22.728125 261.17188 24.275Q261.17188 24.36875 261.17188 24.55625L256.53125 24.55625Q256.59375 25.5875 257.10938 26.134375Q257.625 26.665625 258.40625 26.665625Q258.98438 26.665625 259.39062 26.36875Q259.8125 26.05625 260.04688 25.4ZM256.59375 23.696875L260.0625 23.696875Q260.0 22.9 259.67188 22.509375Q259.15625 21.9 258.35938 21.9Q257.625 21.9 257.125 22.384375Q256.64062 22.86875 256.59375 23.696875ZM265.09375 26.4625L265.25 27.384375Q264.79688 27.478125 264.45312 27.478125Q263.875 27.478125 263.5625 27.30625Q263.25 27.11875 263.10938 26.821875Q262.98438 26.525 262.98438 25.571875L262.98438 21.99375L262.21875 21.99375L262.21875 21.18125L262.98438 21.18125L262.98438 19.634375L264.03125 19.009375L264.03125 21.18125L265.09375 21.18125L265.09375 21.99375L264.03125 21.99375L264.03125 25.634375Q264.03125 26.0875 264.07812 26.2125Q264.14062 26.3375 264.26562 26.415625Q264.39062 26.49375 264.625 26.49375Q264.8125 26.49375 265.09375 26.4625ZM268.09375 26.4625L268.25 27.384375Q267.79688 27.478125 267.45312 27.478125Q266.875 27.478125 266.5625 27.30625Q266.25 27.11875 266.10938 26.821875Q265.98438 26.525 265.98438 25.571875L265.98438 21.99375L265.21875 21.99375L265.21875 21.18125L265.98438 21.18125L265.98438 19.634375L267.03125 19.009375L267.03125 21.18125L268.09375 21.18125L268.09375 21.99375L267.03125 21.99375L267.03125 25.634375Q267.03125 26.0875 267.07812 26.2125Q267.14062 26.3375 267.26562 26.415625Q267.39062 26.49375 267.625 26.49375Q267.8125 26.49375 268.09375 26.4625ZM272.85938 26.634375Q272.26562 27.134375 271.71875 27.3375Q271.1875 27.540625 270.5625 27.540625Q269.53125 27.540625 268.98438 27.040625Q268.4375 26.540625 268.4375 25.759375Q268.4375 25.30625 268.64062 24.93125Q268.84375 24.540625 269.1875 24.321875Q269.53125 24.0875 269.95312 23.978125Q270.25 23.884375 270.89062 23.80625Q272.15625 23.665625 272.76562 23.446875Q272.76562 23.228125 272.76562 23.18125Q272.76562 22.525 272.46875 22.259375Q272.0625 21.915625 271.26562 21.915625Q270.53125 21.915625 270.17188 22.18125Q269.8125 22.43125 269.64062 23.0875L268.60938 22.946875Q268.75 22.290625 269.07812 21.884375Q269.40625 21.478125 270.01562 21.259375Q270.625 21.040625 271.42188 21.040625Q272.21875 21.040625 272.71875 21.228125Q273.21875 21.415625 273.45312 21.696875Q273.6875 21.978125 273.78125 22.415625Q273.82812 22.68125 273.82812 23.384375L273.82812 24.790625Q273.82812 26.259375 273.89062 26.65Q273.96875 27.040625 274.17188 27.4L273.0625 27.4Q272.90625 27.071875 272.85938 26.634375ZM272.76562 24.275Q272.1875 24.509375 271.04688 24.68125Q270.39062 24.775 270.125 24.9Q269.85938 25.009375 269.70312 25.228125Q269.5625 25.446875 269.5625 25.728125Q269.5625 26.15 269.875 26.43125Q270.20312 26.7125 270.8125 26.7125Q271.42188 26.7125 271.89062 26.446875Q272.375 26.18125 272.59375 25.7125Q272.76562 25.353125 272.76562 24.665625L272.76562 24.275ZM276.76562 27.4L275.78125 27.4L275.78125 18.80625L276.84375 18.80625L276.84375 21.86875Q277.51562 21.040625 278.54688 21.040625Q279.125 21.040625 279.625 21.275Q280.14062 21.49375 280.46875 21.915625Q280.8125 22.3375 281.0 22.93125Q281.1875 23.525 281.1875 24.196875Q281.1875 25.790625 280.39062 26.665625Q279.59375 27.540625 278.5 27.540625Q277.39062 27.540625 276.76562 26.61875L276.76562 27.4ZM276.75 24.24375Q276.75 25.353125 277.0625 25.853125Q277.5625 26.665625 278.40625 26.665625Q279.09375 26.665625 279.59375 26.071875Q280.10938 25.478125 280.10938 24.275Q280.10938 23.05625 279.625 22.478125Q279.14062 21.9 278.45312 21.9Q277.76562 21.9 277.25 22.509375Q276.75 23.103125 276.75 24.24375ZM282.79688 20.025L282.79688 18.80625L283.85938 18.80625L283.85938 20.025L282.79688 20.025ZM282.79688 27.4L282.79688 21.18125L283.85938 21.18125L283.85938 27.4L282.79688 27.4ZM285.76562 27.4L285.76562 18.80625L286.82812 18.80625L286.82812 27.4L285.76562 27.4ZM293.04688 25.4L294.14062 25.525Q293.89062 26.478125 293.1875 27.009375Q292.48438 27.540625 291.40625 27.540625Q290.04688 27.540625 289.23438 26.696875Q288.4375 25.853125 288.4375 24.3375Q288.4375 22.775 289.25 21.915625Q290.0625 21.040625 291.34375 21.040625Q292.59375 21.040625 293.375 21.884375Q294.17188 22.728125 294.17188 24.275Q294.17188 24.36875 294.17188 24.55625L289.53125 24.55625Q289.59375 25.5875 290.10938 26.134375Q290.625 26.665625 291.40625 26.665625Q291.98438 26.665625 292.39062 26.36875Q292.8125 26.05625 293.04688 25.4ZM289.59375 23.696875L293.0625 23.696875Q293.0 22.9 292.67188 22.509375Q292.15625 21.9 291.35938 21.9Q290.625 21.9 290.125 22.384375Q289.64062 22.86875 289.59375 23.696875Z" fill-rule="nonzero"/><path fill="#fbbc04" fill-opacity="0.7019608" d="M323.0 23.4C323.0 26.713709 320.31372 29.4 317.0 29.4C313.68628 29.4 311.0 26.713709 311.0 23.4C311.0 20.086292 313.68628 17.4 317.0 17.4C320.31372 17.4 323.0 20.086292 323.0 23.4Z" fill-rule="nonzero"/><path fill="#1a1a1a" d="M334.375 27.4L331.04688 18.80625L332.28125 18.80625L334.51562 25.05625Q334.78125 25.80625 334.96875 26.4625Q335.17188 25.759375 335.4375 25.05625L337.75 18.80625L338.90625 18.80625L335.54688 27.4L334.375 27.4ZM342.85938 26.634375Q342.26562 27.134375 341.71875 27.3375Q341.1875 27.540625 340.5625 27.540625Q339.53125 27.540625 338.98438 27.040625Q338.4375 26.540625 338.4375 25.759375Q338.4375 25.30625 338.64062 24.93125Q338.84375 24.540625 339.1875 24.321875Q339.53125 24.0875 339.95312 23.978125Q340.25 23.884375 340.89062 23.80625Q342.15625 23.665625 342.76562 23.446875Q342.76562 23.228125 342.76562 23.18125Q342.76562 22.525 342.46875 22.259375Q342.0625 21.915625 341.26562 21.915625Q340.53125 21.915625 340.17188 22.18125Q339.8125 22.43125 339.64062 23.0875L338.60938 22.946875Q338.75 22.290625 339.07812 21.884375Q339.40625 21.478125 340.01562 21.259375Q340.625 21.040625 341.42188 21.040625Q342.21875 21.040625 342.71875 21.228125Q343.21875 21.415625 343.45312 21.696875Q343.6875 21.978125 343.78125 22.415625Q343.82812 22.68125 343.82812 23.384375L343.82812 24.790625Q343.82812 26.259375 343.89062 26.65Q343.96875 27.040625 344.17188 27.4L343.0625 27.4Q342.90625 27.071875 342.85938 26.634375ZM342.76562 24.275Q342.1875 24.509375 341.04688 24.68125Q340.39062 24.775 340.125 24.9Q339.85938 25.009375 339.70312 25.228125Q339.5625 25.446875 339.5625 25.728125Q339.5625 26.15 339.875 26.43125Q340.20312 26.7125 340.8125 26.7125Q341.42188 26.7125 341.89062 26.446875Q342.375 26.18125 342.59375 25.7125Q342.76562 25.353125 342.76562 24.665625L342.76562 24.275ZM345.76562 27.4L345.76562 18.80625L346.82812 18.80625L346.82812 27.4L345.76562 27.4ZM348.40625 24.290625Q348.40625 22.55625 349.35938 21.728125Q350.15625 21.040625 351.3125 21.040625Q352.59375 21.040625 353.40625 21.884375Q354.23438 22.7125 354.23438 24.196875Q354.23438 25.4 353.875 26.0875Q353.51562 26.775 352.8125 27.165625Q352.125 27.540625 351.3125 27.540625Q350.01562 27.540625 349.20312 26.7125Q348.40625 25.86875 348.40625 24.290625ZM349.48438 24.290625Q349.48438 25.478125 350.0 26.071875Q350.53125 26.665625 351.3125 26.665625Q352.10938 26.665625 352.625 26.071875Q353.14062 25.478125 353.14062 24.259375Q353.14062 23.103125 352.60938 22.509375Q352.09375 21.915625 351.3125 21.915625Q350.53125 21.915625 350.0 22.509375Q349.48438 23.0875 349.48438 24.290625ZM355.78125 27.4L355.78125 21.18125L356.73438 21.18125L356.73438 22.11875Q357.09375 21.4625 357.39062 21.259375Q357.70312 21.040625 358.07812 21.040625Q358.60938 21.040625 359.15625 21.36875L358.79688 22.353125Q358.40625 22.11875 358.03125 22.11875Q357.67188 22.11875 357.39062 22.3375Q357.125 22.540625 357.01562 22.915625Q356.82812 23.478125 356.82812 24.134375L356.82812 27.4L355.78125 27.4ZM364.04688 25.4L365.14062 25.525Q364.89062 26.478125 364.1875 27.009375Q363.48438 27.540625 362.40625 27.540625Q361.04688 27.540625 360.23438 26.696875Q359.4375 25.853125 359.4375 24.3375Q359.4375 22.775 360.25 21.915625Q361.0625 21.040625 362.34375 21.040625Q363.59375 21.040625 364.375 21.884375Q365.17188 22.728125 365.17188 24.275Q365.17188 24.36875 365.17188 24.55625L360.53125 24.55625Q360.59375 25.5875 361.10938 26.134375Q361.625 26.665625 362.40625 26.665625Q362.98438 26.665625 363.39062 26.36875Q363.8125 26.05625 364.04688 25.4ZM360.59375 23.696875L364.0625 23.696875Q364.0 22.9 363.67188 22.509375Q363.15625 21.9 362.35938 21.9Q361.625 21.9 361.125 22.384375Q360.64062 22.86875 360.59375 23.696875ZM369.57812 23.2125Q369.57812 21.071875 370.71875 19.86875Q371.875 18.65 373.6875 18.65Q374.89062 18.65 375.84375 19.228125Q376.79688 19.790625 377.29688 20.80625Q377.79688 21.821875 377.79688 23.11875Q377.79688 24.415625 377.26562 25.446875Q376.73438 26.478125 375.76562 27.009375Q374.8125 27.540625 373.6875 27.540625Q372.46875 27.540625 371.51562 26.9625Q370.5625 26.36875 370.0625 25.36875Q369.57812 24.353125 369.57812 23.2125ZM370.75 23.228125Q370.75 24.790625 371.57812 25.68125Q372.42188 26.571875 373.6875 26.571875Q374.96875 26.571875 375.79688 25.68125Q376.625 24.775 376.625 23.103125Q376.625 22.05625 376.26562 21.275Q375.92188 20.49375 375.23438 20.071875Q374.54688 19.634375 373.70312 19.634375Q372.5 19.634375 371.625 20.4625Q370.75 21.290625 370.75 23.228125ZM381.09375 26.4625L381.25 27.384375Q380.79688 27.478125 380.45312 27.478125Q379.875 27.478125 379.5625 27.30625Q379.25 27.11875 379.10938 26.821875Q378.98438 26.525 378.98438 25.571875L378.98438 21.99375L378.21875 21.99375L378.21875 21.18125L378.98438 21.18125L378.98438 19.634375L380.03125 19.009375L380.03125 21.18125L381.09375 21.18125L381.09375 21.99375L380.03125 21.99375L380.03125 25.634375Q380.03125 26.0875 380.07812 26.2125Q380.14062 26.3375 380.26562 26.415625Q380.39062 26.49375 380.625 26.49375Q380.8125 26.49375 381.09375 26.4625ZM384.09375 26.4625L384.25 27.384375Q383.79688 27.478125 383.45312 27.478125Q382.875 27.478125 382.5625 27.30625Q382.25 27.11875 382.10938 26.821875Q381.98438 26.525 381.98438 25.571875L381.98438 21.99375L381.21875 21.99375L381.21875 21.18125L381.98438 21.18125L381.98438 19.634375L383.03125 19.009375L383.03125 21.18125L384.09375 21.18125L384.09375 21.99375L383.03125 21.99375L383.03125 25.634375Q383.03125 26.0875 383.07812 26.2125Q383.14062 26.3375 383.26562 26.415625Q383.39062 26.49375 383.625 26.49375Q383.8125 26.49375 384.09375 26.4625ZM384.79688 20.025L384.79688 18.80625L385.85938 18.80625L385.85938 20.025L384.79688 20.025ZM384.79688 27.4L384.79688 21.18125L385.85938 21.18125L385.85938 27.4L384.79688 27.4ZM387.79688 27.4L387.79688 21.18125L388.73438 21.18125L388.73438 22.05625Q389.03125 21.5875 389.51562 21.321875Q390.0 21.040625 390.625 21.040625Q391.3125 21.040625 391.75 21.321875Q392.20312 21.603125 392.375 22.11875Q393.125 21.040625 394.29688 21.040625Q395.23438 21.040625 395.71875 21.55625Q396.21875 22.05625 396.21875 23.134375L396.21875 27.4L395.17188 27.4L395.17188 23.478125Q395.17188 22.853125 395.0625 22.571875Q394.96875 22.290625 394.70312 22.11875Q394.4375 21.946875 394.0625 21.946875Q393.40625 21.946875 392.96875 22.384375Q392.54688 22.821875 392.54688 23.790625L392.54688 27.4L391.48438 27.4L391.48438 23.353125Q391.48438 22.65 391.21875 22.30625Q390.96875 21.946875 390.39062 21.946875Q389.9375 21.946875 389.5625 22.18125Q389.1875 22.415625 389.01562 22.86875Q388.84375 23.321875 388.84375 24.165625L388.84375 27.4L387.79688 27.4ZM398.40625 24.290625Q398.40625 22.55625 399.35938 21.728125Q400.15625 21.040625 401.3125 21.040625Q402.59375 21.040625 403.40625 21.884375Q404.23438 22.7125 404.23438 24.196875Q404.23438 25.4 403.875 26.0875Q403.51562 26.775 402.8125 27.165625Q402.125 27.540625 401.3125 27.540625Q400.01562 27.540625 399.20312 26.7125Q398.40625 25.86875 398.40625 24.290625ZM399.48438 24.290625Q399.48438 25.478125 400.0 26.071875Q400.53125 26.665625 401.3125 26.665625Q402.10938 26.665625 402.625 26.071875Q403.14062 25.478125 403.14062 24.259375Q403.14062 23.103125 402.60938 22.509375Q402.09375 21.915625 401.3125 21.915625Q400.53125 21.915625 400.0 22.509375Q399.48438 23.0875 399.48438 24.290625Z" fill-rule="nonzero"/></svg>