<svg version="1.1" viewBox="0.0 0.0 532.0 328.0" fill="none" stroke="none" stroke-linecap="square" stroke-miterlimit="10" width="532" height="328" xmlns:xlink="http://www.w3.org/1999/xlink" xmlns="http://www.w3.org/2000/svg"><path fill="#ffffff" d="M0 0L532.0 0L532.0 328.0L0 328.0L0 0Z" fill-rule="nonzero"/><path stroke="#333333" stroke-width="1.0" stroke-linecap="butt" d="M81.5 285.5L515.5 285.5" fill-rule="nonzero"/><path stroke="#cccccc" stroke-width="1.0" stroke-linecap="butt" d="M81.5 246.5L515.5 246.5" fill-rule="nonzero"/><path stroke="#cccccc" stroke-width="1.0" stroke-linecap="butt" d="M81.5 206.5L515.5 206.5" fill-rule="nonzero"/><path stroke="#cccccc" stroke-width="1.0" stroke-linecap="butt" d="M81.5 166.5L515.5 166.5" fill-rule="nonzero"/><path stroke="#cccccc" stroke-width="1.0" stroke-linecap="butt" d="M81.5 127.5L515.5 127.5" fill-rule="nonzero"/><path stroke="#cccccc" stroke-width="1.0" stroke-linecap="butt" d="M81.5 87.5L515.5 87.5" fill-rule="nonzero"/><path stroke="#cccccc" stroke-width="1.0" stroke-linecap="butt" d="M81.5 48.5L515.5 48.5" fill-rule="nonzero"/><path stroke="#000000" stroke-width="1.0" stroke-linecap="butt" d="M515.5 285.5L81.5 285.5" fill-rule="nonzero"/><path stroke="#000000" stroke-width="1.0" stroke-linecap="butt" d="M81.5 285.5L81.5 48.5" fill-rule="nonzero"/><clipPath id="id_0"><path d="M81.4 48.333332L515.6 48.333332L515.6 285.6L81.4 285.6L81.4 48.333332Z" clip-rule="nonzero"/></clipPath><path stroke="#4285f4" stroke-width="4.0" stroke-linecap="butt" stroke-opacity="0.5019608" clip-path="url(#id_0)" d="M112.41428 285.6C112.41428 285.6 153.76666 285.6 174.44286 285.6C195.11905 285.6 215.79524 285.6 236.47144 285.6C257.1476 285.6 277.82382 285.6 298.5 285.6C319.17618 285.6 339.8524 285.6 360.52856 285.6C381.20477 285.6 401.88095 285.6 422.55713 285.6C443.23334 285.6 484.58572 285.6 484.58572 285.6" fill-rule="nonzero"/><path stroke="#ea4335" stroke-width="2.0" stroke-linecap="butt" clip-path="url(#id_0)" d="M112.41428 127.422226C112.41428 127.422226 153.76666 127.422226 174.44286 127.422226C195.11905 127.422226 215.79524 127.422226 236.47144 127.422226C257.1476 127.422226 277.82382 127.422226 298.5 127.422226C319.17618 127.422226 339.8524 127.422226 360.52856 127.422226C381.20477 127.422226 401.88095 127.422226 422.55713 127.422226C443.23334 127.422226 484.58572 127.422226 484.58572 127.422226" fill-rule="nonzero"/><path stroke="#fbbc04" stroke-width="2.0" stroke-linecap="butt" stroke-opacity="0.5019608" clip-path="url(#id_0)" d="M112.41428 206.51111C112.41428 206.51111 153.76666 285.6 174.44286 285.6C195.11905 285.6 215.79524 206.51111 236.47144 206.51111C257.1476 206.51111 277.82382 272.41852 298.5 285.6C319.17618 298.7815 339.8524 285.6 360.52856 285.6C381.20477 285.6 401.88095 285.6 422.55713 285.6C443.23334 285.6 484.58572 285.6 484.58572 285.6" fill-rule="nonzero"/><path stroke="#34a853" stroke-width="2.0" stroke-linecap="butt" stroke-opacity="0.5019608" clip-path="url(#id_0)" d="M112.41428 285.6C112.41428 285.6 153.76666 298.7815 174.44286 285.6C195.11905 272.41852 215.79524 219.6926 236.47144 206.51111C257.1476 193.32964 277.82382 193.32964 298.5 206.51111C319.17618 219.6926 339.8524 272.41852 360.52856 285.6C381.20477 298.7815 401.88095 285.6 422.55713 285.6C443.23334 285.6 484.58572 285.6 484.58572 285.6" fill-rule="nonzero"/><path stroke="#ff6d01" stroke-width="2.0" stroke-linecap="butt" stroke-opacity="0.5019608" clip-path="url(#id_0)" d="M112.41428 285.6C112.41428 285.6 153.76666 298.7815 174.44286 285.6C195.11905 272.41852 215.79524 206.51111 236.47144 206.51111C257.1476 206.51111 277.82382 272.41852 298.5 285.6C319.17618 298.7815 339.8524 298.7815 360.52856 285.6C381.20477 272.41852 401.88095 206.51111 422.55713 206.51111C443.23334 206.51111 484.58572 285.6 484.58572 285.6" fill-rule="nonzero"/><path stroke="#46bdc6" stroke-width="2.0" stroke-linecap="butt" stroke-opacity="0.5019608" clip-path="url(#id_0)" d="M112.41428 285.6C112.41428 285.6 153.76666 219.6926 174.44286 206.51111C195.11905 193.32964 215.79524 193.32964 236.47144 206.51111C257.1476 219.6926 277.82382 272.41852 298.5 285.6C319.17618 298.7815 339.8524 285.6 360.52856 285.6C381.20477 285.6 401.88095 285.6 422.55713 285.6C443.23334 285.6 484.58572 285.6 484.58572 285.6" fill-rule="nonzero"/><path fill="#4285f4" fill-opacity="0.5019608" clip-path="url(#id_0)" d="M115.91428 285.6C115.91428 287.533 114.34728 289.1 112.41428 289.1C110.48129 289.1 108.91428 287.533 108.91428 285.6C108.91428 283.667 110.48129 282.1 112.41428 282.1C114.34728 282.1 115.91428 283.667 115.91428 285.6Z" fill-rule="nonzero"/><path fill="#4285f4" fill-opacity="0.5019608" clip-path="url(#id_0)" d="M177.94286 285.6C177.94286 287.533 176.37585 289.1 174.44286 289.1C172.50986 289.1 170.94286 287.533 170.94286 285.6C170.94286 283.667 172.50986 282.1 174.44286 282.1C176.37585 282.1 177.94286 283.667 177.94286 285.6Z" fill-rule="nonzero"/><path fill="#4285f4" fill-opacity="0.5019608" clip-path="url(#id_0)" d="M239.97144 285.6C239.97144 287.533 238.40442 289.1 236.47144 289.1C234.53844 289.1 232.97144 287.533 232.97144 285.6C232.97144 283.667 234.53844 282.1 236.47144 282.1C238.40442 282.1 239.97144 283.667 239.97144 285.6Z" fill-rule="nonzero"/><path fill="#4285f4" fill-opacity="0.5019608" clip-path="url(#id_0)" d="M302.0 285.6C302.0 287.533 300.43298 289.1 298.5 289.1C296.56702 289.1 295.0 287.533 295.0 285.6C295.0 283.667 296.56702 282.1 298.5 282.1C300.43298 282.1 302.0 283.667 302.0 285.6Z" fill-rule="nonzero"/><path fill="#4285f4" fill-opacity="0.5019608" clip-path="url(#id_0)" d="M364.02856 285.6C364.02856 287.533 362.46158 289.1 360.52856 289.1C358.59558 289.1 357.02856 287.533 357.02856 285.6C357.02856 283.667 358.59558 282.1 360.52856 282.1C362.46158 282.1 364.02856 283.667 364.02856 285.6Z" fill-rule="nonzero"/><path fill="#4285f4" fill-opacity="0.5019608" clip-path="url(#id_0)" d="M426.05713 285.6C426.05713 287.533 424.49014 289.1 422.55713 289.1C420.62415 289.1 419.05713 287.533 419.05713 285.6C419.05713 283.667 420.62415 282.1 422.55713 282.1C424.49014 282.1 426.05713 283.667 426.05713 285.6Z" fill-rule="nonzero"/><path fill="#4285f4" fill-opacity="0.5019608" clip-path="url(#id_0)" d="M488.08572 285.6C488.08572 287.533 486.5187 289.1 484.58572 289.1C482.6527 289.1 481.08572 287.533 481.08572 285.6C481.08572 283.667 482.6527 282.1 484.58572 282.1C486.5187 282.1 488.08572 283.667 488.08572 285.6Z" fill-rule="nonzero"/><path fill="#ea4335" clip-path="url(#id_0)" d="M115.91428 127.422226C115.91428 129.35522 114.34728 130.92223 112.41428 130.92223C110.48129 130.92223 108.91428 129.35522 108.91428 127.422226C108.91428 125.48923 110.48129 123.922226 112.41428 123.922226C114.34728 123.922226 115.91428 125.48923 115.91428 127.422226Z" fill-rule="nonzero"/><path fill="#ea4335" clip-path="url(#id_0)" d="M177.94286 127.422226C177.94286 129.35522 176.37585 130.92223 174.44286 130.92223C172.50986 130.92223 170.94286 129.35522 170.94286 127.422226C170.94286 125.48923 172.50986 123.922226 174.44286 123.922226C176.37585 123.922226 177.94286 125.48923 177.94286 127.422226Z" fill-rule="nonzero"/><path fill="#ea4335" clip-path="url(#id_0)" d="M239.97144 127.422226C239.97144 129.35522 238.40442 130.92223 236.47144 130.92223C234.53844 130.92223 232.97144 129.35522 232.97144 127.422226C232.97144 125.48923 234.53844 123.922226 236.47144 123.922226C238.40442 123.922226 239.97144 125.48923 239.97144 127.422226Z" fill-rule="nonzero"/><path fill="#ea4335" clip-path="url(#id_0)" d="M302.0 127.422226C302.0 129.35522 300.43298 130.92223 298.5 130.92223C296.56702 130.92223 295.0 129.35522 295.0 127.422226C295.0 125.48923 296.56702 123.922226 298.5 123.922226C300.43298 123.922226 302.0 125.48923 302.0 127.422226Z" fill-rule="nonzero"/><path fill="#ea4335" clip-path="url(#id_0)" d="M364.02856 127.422226C364.02856 129.35522 362.46158 130.92223 360.52856 130.92223C358.59558 130.92223 357.02856 129.35522 357.02856 127.422226C357.02856 125.48923 358.59558 123.922226 360.52856 123.922226C362.46158 123.922226 364.02856 125.48923 364.02856 127.422226Z" fill-rule="nonzero"/><path fill="#ea4335" clip-path="url(#id_0)" d="M426.05713 127.422226C426.05713 129.35522 424.49014 130.92223 422.55713 130.92223C420.62415 130.92223 419.05713 129.35522 419.05713 127.422226C419.05713 125.48923 420.62415 123.922226 422.55713 123.922226C424.49014 123.922226 426.05713 125.48923 426.05713 127.422226Z" fill-rule="nonzero"/><path fill="#ea4335" clip-path="url(#id_0)" d="M488.08572 127.422226C488.08572 129.35522 486.5187 130.92223 484.58572 130.92223C482.6527 130.92223 481.08572 129.35522 481.08572 127.422226C481.08572 125.48923 482.6527 123.922226 484.58572 123.922226C486.5187 123.922226 488.08572 125.48923 488.08572 127.422226Z" fill-rule="nonzero"/><path fill="#fbbc04" fill-opacity="0.5019608" clip-path="url(#id_0)" d="M115.91428 206.51111C115.91428 208.4441 114.34728 210.01111 112.41428 210.01111C110.48129 210.01111 108.91428 208.4441 108.91428 206.51111C108.91428 204.57811 110.48129 203.01111 112.41428 203.01111C114.34728 203.01111 115.91428 204.57811 115.91428 206.51111Z" fill-rule="nonzero"/><path fill="#fbbc04" fill-opacity="0.5019608" clip-path="url(#id_0)" d="M177.94286 285.6C177.94286 287.533 176.37585 289.1 174.44286 289.1C172.50986 289.1 170.94286 287.533 170.94286 285.6C170.94286 283.667 172.50986 282.1 174.44286 282.1C176.37585 282.1 177.94286 283.667 177.94286 285.6Z" fill-rule="nonzero"/><path fill="#fbbc04" fill-opacity="0.5019608" clip-path="url(#id_0)" d="M239.97144 206.51111C239.97144 208.4441 238.40442 210.01111 236.47144 210.01111C234.53844 210.01111 232.97144 208.4441 232.97144 206.51111C232.97144 204.57811 234.53844 203.01111 236.47144 203.01111C238.40442 203.01111 239.97144 204.57811 239.97144 206.51111Z" fill-rule="nonzero"/><path fill="#fbbc04" fill-opacity="0.5019608" clip-path="url(#id_0)" d="M302.0 285.6C302.0 287.533 300.43298 289.1 298.5 289.1C296.56702 289.1 295.0 287.533 295.0 285.6C295.0 283.667 296.56702 282.1 298.5 282.1C300.43298 282.1 302.0 283.667 302.0 285.6Z" fill-rule="nonzero"/><path fill="#fbbc04" fill-opacity="0.5019608" clip-path="url(#id_0)" d="M364.02856 285.6C364.02856 287.533 362.46158 289.1 360.52856 289.1C358.59558 289.1 357.02856 287.533 357.02856 285.6C357.02856 283.667 358.59558 282.1 360.52856 282.1C362.46158 282.1 364.02856 283.667 364.02856 285.6Z" fill-rule="nonzero"/><path fill="#fbbc04" fill-opacity="0.5019608" clip-path="url(#id_0)" d="M426.05713 285.6C426.05713 287.533 424.49014 289.1 422.55713 289.1C420.62415 289.1 419.05713 287.533 419.05713 285.6C419.05713 283.667 420.62415 282.1 422.55713 282.1C424.49014 282.1 426.05713 283.667 426.05713 285.6Z" fill-rule="nonzero"/><path fill="#fbbc04" fill-opacity="0.5019608" clip-path="url(#id_0)" d="M488.08572 285.6C488.08572 287.533 486.5187 289.1 484.58572 289.1C482.6527 289.1 481.08572 287.533 481.08572 285.6C481.08572 283.667 482.6527 282.1 484.58572 282.1C486.5187 282.1 488.08572 283.667 488.08572 285.6Z" fill-rule="nonzero"/><path fill="#34a853" fill-opacity="0.5019608" clip-path="url(#id_0)" d="M115.91428 285.6C115.91428 287.533 114.34728 289.1 112.41428 289.1C110.48129 289.1 108.91428 287.533 108.91428 285.6C108.91428 283.667 110.48129 282.1 112.41428 282.1C114.34728 282.1 115.91428 283.667 115.91428 285.6Z" fill-rule="nonzero"/><path fill="#34a853" fill-opacity="0.5019608" clip-path="url(#id_0)" d="M177.94286 285.6C177.94286 287.533 176.37585 289.1 174.44286 289.1C172.50986 289.1 170.94286 287.533 170.94286 285.6C170.94286 283.667 172.50986 282.1 174.44286 282.1C176.37585 282.1 177.94286 283.667 177.94286 285.6Z" fill-rule="nonzero"/><path fill="#34a853" fill-opacity="0.5019608" clip-path="url(#id_0)" d="M239.97144 206.51111C239.97144 208.4441 238.40442 210.01111 236.47144 210.01111C234.53844 210.01111 232.97144 208.4441 232.97144 206.51111C232.97144 204.57811 234.53844 203.01111 236.47144 203.01111C238.40442 203.01111 239.97144 204.57811 239.97144 206.51111Z" fill-rule="nonzero"/><path fill="#34a853" fill-opacity="0.5019608" clip-path="url(#id_0)" d="M302.0 206.51111C302.0 208.4441 300.43298 210.01111 298.5 210.01111C296.56702 210.01111 295.0 208.4441 295.0 206.51111C295.0 204.57811 296.56702 203.01111 298.5 203.01111C300.43298 203.01111 302.0 204.57811 302.0 206.51111Z" fill-rule="nonzero"/><path fill="#34a853" fill-opacity="0.5019608" clip-path="url(#id_0)" d="M364.02856 285.6C364.02856 287.533 362.46158 289.1 360.52856 289.1C358.59558 289.1 357.02856 287.533 357.02856 285.6C357.02856 283.667 358.59558 282.1 360.52856 282.1C362.46158 282.1 364.02856 283.667 364.02856 285.6Z" fill-rule="nonzero"/><path fill="#34a853" fill-opacity="0.5019608" clip-path="url(#id_0)" d="M426.05713 285.6C426.05713 287.533 424.49014 289.1 422.55713 289.1C420.62415 289.1 419.05713 287.533 419.05713 285.6C419.05713 283.667 420.62415 282.1 422.55713 282.1C424.49014 282.1 426.05713 283.667 426.05713 285.6Z" fill-rule="nonzero"/><path fill="#34a853" fill-opacity="0.5019608" clip-path="url(#id_0)" d="M488.08572 285.6C488.08572 287.533 486.5187 289.1 484.58572 289.1C482.6527 289.1 481.08572 287.533 481.08572 285.6C481.08572 283.667 482.6527 282.1 484.58572 282.1C486.5187 282.1 488.08572 283.667 488.08572 285.6Z" fill-rule="nonzero"/><path fill="#ff6d01" fill-opacity="0.5019608" clip-path="url(#id_0)" d="M115.91428 285.6C115.91428 287.533 114.34728 289.1 112.41428 289.1C110.48129 289.1 108.91428 287.533 108.91428 285.6C108.91428 283.667 110.48129 282.1 112.41428 282.1C114.34728 282.1 115.91428 283.667 115.91428 285.6Z" fill-rule="nonzero"/><path fill="#ff6d01" fill-opacity="0.5019608" clip-path="url(#id_0)" d="M177.94286 285.6C177.94286 287.533 176.37585 289.1 174.44286 289.1C172.50986 289.1 170.94286 287.533 170.94286 285.6C170.94286 283.667 172.50986 282.1 174.44286 282.1C176.37585 282.1 177.94286 283.667 177.94286 285.6Z" fill-rule="nonzero"/><path fill="#ff6d01" fill-opacity="0.5019608" clip-path="url(#id_0)" d="M239.97144 206.51111C239.97144 208.4441 238.40442 210.01111 236.47144 210.01111C234.53844 210.01111 232.97144 208.4441 232.97144 206.51111C232.97144 204.57811 234.53844 203.01111 236.47144 203.01111C238.40442 203.01111 239.97144 204.57811 239.97144 206.51111Z" fill-rule="nonzero"/><path fill="#ff6d01" fill-opacity="0.5019608" clip-path="url(#id_0)" d="M302.0 285.6C302.0 287.533 300.43298 289.1 298.5 289.1C296.56702 289.1 295.0 287.533 295.0 285.6C295.0 283.667 296.56702 282.1 298.5 282.1C300.43298 282.1 302.0 283.667 302.0 285.6Z" fill-rule="nonzero"/><path fill="#ff6d01" fill-opacity="0.5019608" clip-path="url(#id_0)" d="M364.02856 285.6C364.02856 287.533 362.46158 289.1 360.52856 289.1C358.59558 289.1 357.02856 287.533 357.02856 285.6C357.02856 283.667 358.59558 282.1 360.52856 282.1C362.46158 282.1 364.02856 283.667 364.02856 285.6Z" fill-rule="nonzero"/><path fill="#ff6d01" fill-opacity="0.5019608" clip-path="url(#id_0)" d="M426.05713 206.51111C426.05713 208.4441 424.49014 210.01111 422.55713 210.01111C420.62415 210.01111 419.05713 208.4441 419.05713 206.51111C419.05713 204.57811 420.62415 203.01111 422.55713 203.01111C424.49014 203.01111 426.05713 204.57811 426.05713 206.51111Z" fill-rule="nonzero"/><path fill="#ff6d01" fill-opacity="0.5019608" clip-path="url(#id_0)" d="M488.08572 285.6C488.08572 287.533 486.5187 289.1 484.58572 289.1C482.6527 289.1 481.08572 287.533 481.08572 285.6C481.08572 283.667 482.6527 282.1 484.58572 282.1C486.5187 282.1 488.08572 283.667 488.08572 285.6Z" fill-rule="nonzero"/><path fill="#46bdc6" fill-opacity="0.5019608" clip-path="url(#id_0)" d="M115.91428 285.6C115.91428 287.533 114.34728 289.1 112.41428 289.1C110.48129 289.1 108.91428 287.533 108.91428 285.6C108.91428 283.667 110.48129 282.1 112.41428 282.1C114.34728 282.1 115.91428 283.667 115.91428 285.6Z" fill-rule="nonzero"/><path fill="#46bdc6" fill-opacity="0.5019608" clip-path="url(#id_0)" d="M177.94286 206.51111C177.94286 208.4441 176.37585 210.01111 174.44286 210.01111C172.50986 210.01111 170.94286 208.4441 170.94286 206.51111C170.94286 204.57811 172.50986 203.01111 174.44286 203.01111C176.37585 203.01111 177.94286 204.57811 177.94286 206.51111Z" fill-rule="nonzero"/><path fill="#46bdc6" fill-opacity="0.5019608" clip-path="url(#id_0)" d="M239.97144 206.51111C239.97144 208.4441 238.40442 210.01111 236.47144 210.01111C234.53844 210.01111 232.97144 208.4441 232.97144 206.51111C232.97144 204.57811 234.53844 203.01111 236.47144 203.01111C238.40442 203.01111 239.97144 204.57811 239.97144 206.51111Z" fill-rule="nonzero"/><path fill="#46bdc6" fill-opacity="0.5019608" clip-path="url(#id_0)" d="M302.0 285.6C302.0 287.533 300.43298 289.1 298.5 289.1C296.56702 289.1 295.0 287.533 295.0 285.6C295.0 283.667 296.56702 282.1 298.5 282.1C300.43298 282.1 302.0 283.667 302.0 285.6Z" fill-rule="nonzero"/><path fill="#46bdc6" fill-opacity="0.5019608" clip-path="url(#id_0)" d="M364.02856 285.6C364.02856 287.533 362.46158 289.1 360.52856 289.1C358.59558 289.1 357.02856 287.533 357.02856 285.6C357.02856 283.667 358.59558 282.1 360.52856 282.1C362.46158 282.1 364.02856 283.667 364.02856 285.6Z" fill-rule="nonzero"/><path fill="#46bdc6" fill-opacity="0.5019608" clip-path="url(#id_0)" d="M426.05713 285.6C426.05713 287.533 424.49014 289.1 422.55713 289.1C420.62415 289.1 419.05713 287.533 419.05713 285.6C419.05713 283.667 420.62415 282.1 422.55713 282.1C424.49014 282.1 426.05713 283.667 426.05713 285.6Z" fill-rule="nonzero"/><path fill="#46bdc6" fill-opacity="0.5019608" clip-path="url(#id_0)" d="M488.08572 285.6C488.08572 287.533 486.5187 289.1 484.58572 289.1C482.6527 289.1 481.08572 287.533 481.08572 285.6C481.08572 283.667 482.6527 282.1 484.58572 282.1C486.5187 282.1 488.08572 283.667 488.08572 285.6Z" fill-rule="nonzero"/><path stroke="#000000" stroke-width="1.0" stroke-linecap="butt" d="M112.5 291.5L112.5 279.5" fill-rule="nonzero"/><path stroke="#000000" stroke-width="1.0" stroke-linecap="butt" d="M174.5 291.5L174.5 279.5" fill-rule="nonzero"/><path stroke="#000000" stroke-width="1.0" stroke-linecap="butt" d="M236.5 291.5L236.5 279.5" fill-rule="nonzero"/><path stroke="#000000" stroke-width="1.0" stroke-linecap="butt" d="M298.5 291.5L298.5 279.5" fill-rule="nonzero"/><path stroke="#000000" stroke-width="1.0" stroke-linecap="butt" d="M360.5 291.5L360.5 279.5" fill-rule="nonzero"/><path stroke="#000000" stroke-width="1.0" stroke-linecap="butt" d="M422.5 291.5L422.5 279.5" fill-rule="nonzero"/><path stroke="#000000" stroke-width="1.0" stroke-linecap="butt" d="M484.5 291.5L484.5 279.5" fill-rule="nonzero"/><path stroke="#000000" stroke-width="1.0" stroke-linecap="butt" d="M75.5 285.5L87.5 285.5" fill-rule="nonzero"/><path stroke="#000000" stroke-width="1.0" stroke-linecap="butt" d="M75.5 246.5L87.5 246.5" fill-rule="nonzero"/><path stroke="#000000" stroke-width="1.0" stroke-linecap="butt" d="M75.5 206.5L87.5 206.5" fill-rule="nonzero"/><path stroke="#000000" stroke-width="1.0" stroke-linecap="butt" d="M75.5 166.5L87.5 166.5" fill-rule="nonzero"/><path stroke="#000000" stroke-width="1.0" stroke-linecap="butt" d="M75.5 127.5L87.5 127.5" fill-rule="nonzero"/><path stroke="#000000" stroke-width="1.0" stroke-linecap="butt" d="M75.5 87.5L87.5 87.5" fill-rule="nonzero"/><path stroke="#000000" stroke-width="1.0" stroke-linecap="butt" d="M75.5 48.5L87.5 48.5" fill-rule="nonzero"/><path fill="#000000" d="M62.9 285.36563Q62.9 283.83438 63.2125 282.9125Q63.525 281.975 64.13438 281.475Q64.75938 280.975 65.69688 280.975Q66.38438 280.975 66.9 281.25626Q67.43125 281.5375 67.775 282.06876Q68.11875 282.58438 68.30625 283.33438Q68.49375 284.08438 68.49375 285.36563Q68.49375 286.88126 68.18125 287.80313Q67.88438 288.725 67.25938 289.24063Q66.65 289.74063 65.69688 289.74063Q64.4625 289.74063 63.74375 288.85Q62.9 287.7875 62.9 285.36563ZM63.978127 285.36563Q63.978127 287.475 64.47813 288.17813Q64.97813 288.88126 65.69688 288.88126Q66.43125 288.88126 66.91563 288.17813Q67.41563 287.475 67.41563 285.36563Q67.41563 283.24063 66.91563 282.55313Q66.43125 281.85 65.68125 281.85Q64.9625 281.85 64.525 282.45938Q63.978127 283.24063 63.978127 285.36563Z" fill-rule="nonzero"/><path fill="#000000" d="M52.9 245.82118Q52.9 244.28993 53.2125 243.36806Q53.525 242.43056 54.134377 241.93056Q54.759377 241.43056 55.696877 241.43056Q56.384377 241.43056 56.9 241.7118Q57.43125 241.99306 57.775 242.5243Q58.11875 243.03993 58.30625 243.78993Q58.49375 244.53993 58.49375 245.82118Q58.49375 247.3368 58.18125 248.25868Q57.884377 249.18056 57.259377 249.69618Q56.65 250.19618 55.696877 250.19618Q54.4625 250.19618 53.74375 249.30556Q52.9 248.24306 52.9 245.82118ZM53.978127 245.82118Q53.978127 247.93056 54.478127 248.63368Q54.978127 249.3368 55.696877 249.3368Q56.43125 249.3368 56.915627 248.63368Q57.415627 247.93056 57.415627 245.82118Q57.415627 243.69618 56.915627 243.00868Q56.43125 242.30556 55.68125 242.30556Q54.9625 242.30556 54.525 242.91493Q53.978127 243.69618 53.978127 245.82118ZM60.49375 250.05556L60.49375 248.85243L61.696877 248.85243L61.696877 250.05556L60.49375 250.05556ZM62.9 247.80556L64.00938 247.7118Q64.13438 248.5243 64.57188 248.93056Q65.025 249.3368 65.66563 249.3368Q66.41563 249.3368 66.94688 248.75868Q67.47813 248.18056 67.47813 247.24306Q67.47813 246.3368 66.9625 245.82118Q66.4625 245.28993 65.63438 245.28993Q65.13438 245.28993 64.7125 245.5243Q64.30625 245.75868 64.07188 246.11806L63.0875 245.99306L63.915627 241.5868L68.19688 241.5868L68.19688 242.5868L64.75938 242.5868L64.30625 244.8993Q65.07188 244.35243 65.91563 244.35243Q67.04063 244.35243 67.80625 245.13368Q68.5875 245.91493 68.5875 247.1493Q68.5875 248.30556 67.91563 249.16493Q67.0875 250.19618 65.66563 250.19618Q64.49375 250.19618 63.74375 249.53993Q63.009377 248.88368 62.9 247.80556Z" fill-rule="nonzero"/><path fill="#000000" d="M66.86875 210.51111L65.82188 210.51111L65.82188 203.79236Q65.43125 204.15173 64.80625 204.52673Q64.19688 204.88611 63.7125 205.05798L63.7125 204.04236Q64.5875 203.62048 65.24375 203.04236Q65.91563 202.44861 66.19688 201.88611L66.86875 201.88611L66.86875 210.51111Z" fill-rule="nonzero"/><path fill="#000000" d="M56.86875 170.96666L55.821877 170.96666L55.821877 164.24791Q55.43125 164.60728 54.80625 164.98228Q54.196877 165.34166 53.7125 165.51353L53.7125 164.49791Q54.5875 164.07603 55.24375 163.49791Q55.915627 162.90416 56.196877 162.34166L56.86875 162.34166L56.86875 170.96666ZM60.49375 170.96666L60.49375 169.76353L61.696877 169.76353L61.696877 170.96666L60.49375 170.96666ZM62.9 168.71666L64.00938 168.62291Q64.13438 169.43541 64.57188 169.84166Q65.025 170.24791 65.66563 170.24791Q66.41563 170.24791 66.94688 169.66978Q67.47813 169.09166 67.47813 168.15416Q67.47813 167.24791 66.9625 166.73228Q66.4625 166.20103 65.63438 166.20103Q65.13438 166.20103 64.7125 166.43541Q64.30625 166.66978 64.07188 167.02916L63.0875 166.90416L63.915627 162.49791L68.19688 162.49791L68.19688 163.49791L64.75938 163.49791L64.30625 165.81041Q65.07188 165.26353 65.91563 165.26353Q67.04063 165.26353 67.80625 166.04478Q68.5875 166.82603 68.5875 168.06041Q68.5875 169.21666 67.91563 170.07603Q67.0875 171.10728 65.66563 171.10728Q64.49375 171.10728 63.74375 170.45103Q63.009377 169.79478 62.9 168.71666Z" fill-rule="nonzero"/><path fill="#000000" d="M68.44688 130.4066L68.44688 131.42223L62.759377 131.42223Q62.759377 131.04723 62.884377 130.68785Q63.103127 130.10973 63.571877 129.54723Q64.05625 128.98473 64.9625 128.25035Q66.36875 127.0941 66.85313 126.422226Q67.35313 125.75035 67.35313 125.1566Q67.35313 124.5316 66.9 124.109726Q66.44688 123.672226 65.72813 123.672226Q64.9625 123.672226 64.50938 124.12535Q64.05625 124.578476 64.04063 125.390976L62.9625 125.2816Q63.071877 124.06285 63.790627 123.43785Q64.525 122.797226 65.75938 122.797226Q66.99375 122.797226 67.7125 123.484726Q68.43125 124.172226 68.43125 125.18785Q68.43125 125.703476 68.2125 126.203476Q68.00938 126.68785 67.50938 127.25035Q67.025 127.797226 65.9 128.75035Q64.94688 129.54723 64.66563 129.8441Q64.4 130.12535 64.22813 130.4066L68.44688 130.4066Z" fill-rule="nonzero"/><path fill="#000000" d="M58.446877 90.86215L58.446877 91.87778L52.759377 91.87778Q52.759377 91.50278 52.884377 91.1434Q53.103127 90.56528 53.571877 90.00278Q54.05625 89.44028 54.9625 88.7059Q56.36875 87.54965 56.853127 86.87778Q57.353127 86.2059 57.353127 85.61215Q57.353127 84.98715 56.9 84.56528Q56.446877 84.12778 55.728127 84.12778Q54.9625 84.12778 54.509377 84.5809Q54.05625 85.03403 54.040627 85.84653L52.9625 85.73715Q53.071877 84.5184 53.790627 83.8934Q54.525 83.25278 55.759377 83.25278Q56.99375 83.25278 57.7125 83.94028Q58.43125 84.62778 58.43125 85.6434Q58.43125 86.15903 58.2125 86.65903Q58.009377 87.1434 57.509377 87.7059Q57.025 88.25278 55.9 89.2059Q54.946877 90.00278 54.665627 90.29965Q54.4 90.5809 54.228127 90.86215L58.446877 90.86215ZM60.49375 91.87778L60.49375 90.67465L61.696877 90.67465L61.696877 91.87778L60.49375 91.87778ZM62.9 89.62778L64.00938 89.53403Q64.13438 90.34653 64.57188 90.75278Q65.025 91.15903 65.66563 91.15903Q66.41563 91.15903 66.94688 90.5809Q67.47813 90.00278 67.47813 89.06528Q67.47813 88.15903 66.9625 87.6434Q66.4625 87.11215 65.63438 87.11215Q65.13438 87.11215 64.7125 87.34653Q64.30625 87.5809 64.07188 87.94028L63.0875 87.81528L63.915627 83.40903L68.19688 83.40903L68.19688 84.40903L64.75938 84.40903L64.30625 86.72153Q65.07188 86.17465 65.91563 86.17465Q67.04063 86.17465 67.80625 86.9559Q68.5875 87.73715 68.5875 88.97153Q68.5875 90.12778 67.91563 90.98715Q67.0875 92.0184 65.66563 92.0184Q64.49375 92.0184 63.74375 91.36215Q63.009377 90.7059 62.9 89.62778Z" fill-rule="nonzero"/><path fill="#000000" d="M62.9 50.067707L63.9625 49.927082Q64.13438 50.817707 64.57188 51.223957Q65.00938 51.614582 65.63438 51.614582Q66.38438 51.614582 66.9 51.098957Q67.41563 50.583332 67.41563 49.817707Q67.41563 49.098957 66.93125 48.630207Q66.4625 48.145832 65.72813 48.145832Q65.43125 48.145832 64.97813 48.270832L65.10313 47.333332Q65.2125 47.348957 65.275 47.348957Q65.94688 47.348957 66.47813 47.005207Q67.025 46.645832 67.025 45.911457Q67.025 45.333332 66.63438 44.958332Q66.24375 44.567707 65.61875 44.567707Q65.00938 44.567707 64.5875 44.958332Q64.18125 45.348957 64.07188 46.114582L63.009377 45.927082Q63.196877 44.880207 63.884377 44.302082Q64.57188 43.708332 65.5875 43.708332Q66.29063 43.708332 66.88438 44.020832Q67.47813 44.317707 67.79063 44.833332Q68.10313 45.348957 68.10313 45.942707Q68.10313 46.489582 67.80625 46.958332Q67.50938 47.411457 66.93125 47.677082Q67.68125 47.848957 68.10313 48.411457Q68.525 48.958332 68.525 49.802082Q68.525 50.927082 67.69688 51.708332Q66.88438 52.489582 65.63438 52.489582Q64.50938 52.489582 63.759377 51.817707Q63.009377 51.130207 62.9 50.067707Z" fill-rule="nonzero"/><path fill="#000000" d="M91.96116 305.83438L93.02366 305.74063Q93.10178 306.39688 93.38303 306.80313Q93.66428 307.20938 94.24241 307.475Q94.83616 307.725 95.57053 307.725Q96.21116 307.725 96.71116 307.5375Q97.21116 307.33438 97.44553 307.00626Q97.69553 306.6625 97.69553 306.27188Q97.69553 305.86563 97.46116 305.56876Q97.22678 305.25626 96.69553 305.05313Q96.33616 304.9125 95.14866 304.63126Q93.97678 304.35 93.50803 304.1Q92.88303 303.77188 92.58616 303.30313Q92.28928 302.81876 92.28928 302.225Q92.28928 301.58438 92.64866 301.02188Q93.02366 300.44376 93.72678 300.1625Q94.44553 299.86563 95.30491 299.86563Q96.25803 299.86563 96.99241 300.17813Q97.72678 300.475 98.11741 301.08438Q98.50803 301.67813 98.53928 302.42813L97.44553 302.50626Q97.35178 301.69376 96.83616 301.2875Q96.33616 300.86563 95.35178 300.86563Q94.32053 300.86563 93.85178 301.24063Q93.38303 301.61563 93.38303 302.14688Q93.38303 302.61563 93.71116 302.9125Q94.03928 303.20938 95.41428 303.52188Q96.80491 303.83438 97.32053 304.06876Q98.07053 304.42813 98.42991 304.95938Q98.78928 305.475 98.78928 306.17813Q98.78928 306.86563 98.39866 307.475Q98.00803 308.06876 97.27366 308.4125Q96.53928 308.74063 95.61741 308.74063Q94.44553 308.74063 93.64866 308.4125Q92.86741 308.06876 92.41428 307.38126Q91.97678 306.69376 91.96116 305.83438ZM100.21116 310.99063L100.21116 302.38126L101.16428 302.38126L101.16428 303.17813Q101.50803 302.70938 101.92991 302.475Q102.36741 302.24063 102.97678 302.24063Q103.77366 302.24063 104.38303 302.64688Q104.99241 303.05313 105.28928 303.80313Q105.60178 304.55313 105.60178 305.44376Q105.60178 306.39688 105.25803 307.1625Q104.92991 307.92813 104.27366 308.33438Q103.61741 308.74063 102.89866 308.74063Q102.36741 308.74063 101.94553 308.52188Q101.52366 308.2875 101.25803 307.95938L101.25803 310.99063L100.21116 310.99063ZM101.16428 305.52188Q101.16428 306.725 101.64866 307.30313Q102.13303 307.86563 102.82053 307.86563Q103.52366 307.86563 104.02366 307.27188Q104.52366 306.67813 104.52366 305.42813Q104.52366 304.24063 104.03928 303.6625Q103.55491 303.06876 102.86741 303.06876Q102.19553 303.06876 101.67991 303.69376Q101.16428 304.31876 101.16428 305.52188ZM107.19553 308.6L107.19553 302.38126L108.14866 302.38126L108.14866 303.31876Q108.50803 302.6625 108.80491 302.45938Q109.11741 302.24063 109.49241 302.24063Q110.02366 302.24063 110.57053 302.56876L110.21116 303.55313Q109.82053 303.31876 109.44553 303.31876Q109.08616 303.31876 108.80491 303.5375Q108.53928 303.74063 108.42991 304.11563Q108.24241 304.67813 108.24241 305.33438L108.24241 308.6L107.19553 308.6ZM111.21116 301.225L111.21116 300.00626L112.27366 300.00626L112.27366 301.225L111.21116 301.225ZM111.21116 308.6L111.21116 302.38126L112.27366 302.38126L112.27366 308.6L111.21116 308.6ZM114.21116 308.6L114.21116 302.38126L115.14866 302.38126L115.14866 303.25626Q115.83616 302.24063 117.13303 302.24063Q117.69553 302.24063 118.16428 302.44376Q118.64866 302.64688 118.88303 302.975Q119.11741 303.30313 119.21116 303.74063Q119.25803 304.0375 119.25803 304.77188L119.25803 308.6L118.21116 308.6L118.21116 304.81876Q118.21116 304.1625 118.08616 303.85Q117.96116 303.5375 117.64866 303.35Q117.33616 303.14688 116.91428 303.14688Q116.24241 303.14688 115.74241 303.58438Q115.25803 304.00626 115.25803 305.19376L115.25803 308.6L114.21116 308.6ZM123.50803 307.6625L123.66428 308.58438Q123.21116 308.67813 122.86741 308.67813Q122.28928 308.67813 121.97678 308.50626Q121.66428 308.31876 121.52366 308.02188Q121.39866 307.725 121.39866 306.77188L121.39866 303.19376L120.63303 303.19376L120.63303 302.38126L121.39866 302.38126L121.39866 300.83438L122.44553 300.20938L122.44553 302.38126L123.50803 302.38126L123.50803 303.19376L122.44553 303.19376L122.44553 306.83438Q122.44553 307.2875 122.49241 307.4125Q122.55491 307.5375 122.67991 307.61563Q122.80491 307.69376 123.03928 307.69376Q123.22678 307.69376 123.50803 307.6625ZM130.88303 308.6L129.83615 308.6L129.83615 301.88126Q129.44553 302.24063 128.82053 302.61563Q128.21115 302.975 127.72678 303.14688L127.72678 302.13126Q128.60178 301.70938 129.25803 301.13126Q129.9299 300.5375 130.21115 299.975L130.88303 299.975L130.88303 308.6Z" fill-rule="nonzero"/><path fill="#000000" d="M153.98973 305.83438L155.05223 305.74063Q155.13036 306.39688 155.4116 306.80313Q155.69286 307.20938 156.27098 307.475Q156.86473 307.725 157.5991 307.725Q158.23973 307.725 158.73973 307.5375Q159.23973 307.33438 159.4741 307.00626Q159.7241 306.6625 159.7241 306.27188Q159.7241 305.86563 159.48973 305.56876Q159.25536 305.25626 158.7241 305.05313Q158.36473 304.9125 157.17723 304.63126Q156.00536 304.35 155.5366 304.1Q154.9116 303.77188 154.61473 303.30313Q154.31786 302.81876 154.31786 302.225Q154.31786 301.58438 154.67723 301.02188Q155.05223 300.44376 155.75536 300.1625Q156.4741 299.86563 157.33348 299.86563Q158.2866 299.86563 159.02098 300.17813Q159.75536 300.475 160.14598 301.08438Q160.5366 301.67813 160.56786 302.42813L159.4741 302.50626Q159.38036 301.69376 158.86473 301.2875Q158.36473 300.86563 157.38036 300.86563Q156.3491 300.86563 155.88036 301.24063Q155.4116 301.61563 155.4116 302.14688Q155.4116 302.61563 155.73973 302.9125Q156.06786 303.20938 157.44286 303.52188Q158.83348 303.83438 159.3491 304.06876Q160.0991 304.42813 160.45848 304.95938Q160.81786 305.475 160.81786 306.17813Q160.81786 306.86563 160.42723 307.475Q160.0366 308.06876 159.30223 308.4125Q158.56786 308.74063 157.64598 308.74063Q156.4741 308.74063 155.67723 308.4125Q154.89598 308.06876 154.44286 307.38126Q154.00536 306.69376 153.98973 305.83438ZM162.23973 310.99063L162.23973 302.38126L163.19286 302.38126L163.19286 303.17813Q163.5366 302.70938 163.95848 302.475Q164.39598 302.24063 165.00536 302.24063Q165.80223 302.24063 166.4116 302.64688Q167.02098 303.05313 167.31786 303.80313Q167.63036 304.55313 167.63036 305.44376Q167.63036 306.39688 167.2866 307.1625Q166.95848 307.92813 166.30223 308.33438Q165.64598 308.74063 164.92723 308.74063Q164.39598 308.74063 163.9741 308.52188Q163.55223 308.2875 163.2866 307.95938L163.2866 310.99063L162.23973 310.99063ZM163.19286 305.52188Q163.19286 306.725 163.67723 307.30313Q164.1616 307.86563 164.8491 307.86563Q165.55223 307.86563 166.05223 307.27188Q166.55223 306.67813 166.55223 305.42813Q166.55223 304.24063 166.06786 303.6625Q165.58348 303.06876 164.89598 303.06876Q164.2241 303.06876 163.70848 303.69376Q163.19286 304.31876 163.19286 305.52188ZM169.2241 308.6L169.2241 302.38126L170.17723 302.38126L170.17723 303.31876Q170.5366 302.6625 170.83348 302.45938Q171.14598 302.24063 171.52098 302.24063Q172.05223 302.24063 172.5991 302.56876L172.23973 303.55313Q171.8491 303.31876 171.4741 303.31876Q171.11473 303.31876 170.83348 303.5375Q170.56786 303.74063 170.45848 304.11563Q170.27098 304.67813 170.27098 305.33438L170.27098 308.6L169.2241 308.6ZM173.23973 301.225L173.23973 300.00626L174.30223 300.00626L174.30223 301.225L173.23973 301.225ZM173.23973 308.6L173.23973 302.38126L174.30223 302.38126L174.30223 308.6L173.23973 308.6ZM176.23973 308.6L176.23973 302.38126L177.17723 302.38126L177.17723 303.25626Q177.86473 302.24063 179.1616 302.24063Q179.7241 302.24063 180.19286 302.44376Q180.67723 302.64688 180.9116 302.975Q181.14598 303.30313 181.23973 303.74063Q181.2866 304.0375 181.2866 304.77188L181.2866 308.6L180.23973 308.6L180.23973 304.81876Q180.23973 304.1625 180.11473 303.85Q179.98973 303.5375 179.67723 303.35Q179.36473 303.14688 178.94286 303.14688Q178.27098 303.14688 177.77098 303.58438Q177.2866 304.00626 177.2866 305.19376L177.2866 308.6L176.23973 308.6ZM185.5366 307.6625L185.69286 308.58438Q185.23973 308.67813 184.89598 308.67813Q184.31786 308.67813 184.00536 308.50626Q183.69286 308.31876 183.55223 308.02188Q183.42723 307.725 183.42723 306.77188L183.42723 303.19376L182.6616 303.19376L182.6616 302.38126L183.42723 302.38126L183.42723 300.83438L184.4741 300.20938L184.4741 302.38126L185.5366 302.38126L185.5366 303.19376L184.4741 303.19376L184.4741 306.83438Q184.4741 307.2875 184.52098 307.4125Q184.58348 307.5375 184.70848 307.61563Q184.83348 307.69376 185.06786 307.69376Q185.25536 307.69376 185.5366 307.6625ZM194.48973 307.58438L194.48973 308.6L188.80223 308.6Q188.80223 308.225 188.92723 307.86563Q189.14598 307.2875 189.61473 306.725Q190.0991 306.1625 191.00536 305.42813Q192.4116 304.27188 192.89598 303.6Q193.39598 302.92813 193.39598 302.33438Q193.39598 301.70938 192.94286 301.2875Q192.48973 300.85 191.77098 300.85Q191.00536 300.85 190.55223 301.30313Q190.0991 301.75626 190.08348 302.56876L189.00536 302.45938Q189.11473 301.24063 189.83348 300.61563Q190.56786 299.975 191.80223 299.975Q193.0366 299.975 193.75536 300.6625Q194.4741 301.35 194.4741 302.36563Q194.4741 302.88126 194.25536 303.38126Q194.05223 303.86563 193.55223 304.42813Q193.06786 304.975 191.94286 305.92813Q190.98973 306.725 190.70848 307.02188Q190.44286 307.30313 190.27098 307.58438L194.48973 307.58438Z" fill-rule="nonzero"/><path fill="#000000" d="M216.01831 305.83438L217.08081 305.74063Q217.15894 306.39688 217.44019 306.80313Q217.72144 307.20938 218.29956 307.475Q218.89331 307.725 219.62769 307.725Q220.26831 307.725 220.76831 307.5375Q221.26831 307.33438 221.50269 307.00626Q221.75269 306.6625 221.75269 306.27188Q221.75269 305.86563 221.51831 305.56876Q221.28394 305.25626 220.75269 305.05313Q220.39331 304.9125 219.20581 304.63126Q218.03394 304.35 217.56519 304.1Q216.94019 303.77188 216.64331 303.30313Q216.34644 302.81876 216.34644 302.225Q216.34644 301.58438 216.70581 301.02188Q217.08081 300.44376 217.78394 300.1625Q218.50269 299.86563 219.36206 299.86563Q220.31519 299.86563 221.04956 300.17813Q221.78394 300.475 222.17456 301.08438Q222.56519 301.67813 222.59644 302.42813L221.50269 302.50626Q221.40894 301.69376 220.89331 301.2875Q220.39331 300.86563 219.40894 300.86563Q218.37769 300.86563 217.90894 301.24063Q217.44019 301.61563 217.44019 302.14688Q217.44019 302.61563 217.76831 302.9125Q218.09644 303.20938 219.47144 303.52188Q220.86206 303.83438 221.37769 304.06876Q222.12769 304.42813 222.48706 304.95938Q222.84644 305.475 222.84644 306.17813Q222.84644 306.86563 222.45581 307.475Q222.06519 308.06876 221.33081 308.4125Q220.59644 308.74063 219.67456 308.74063Q218.50269 308.74063 217.70581 308.4125Q216.92456 308.06876 216.47144 307.38126Q216.03394 306.69376 216.01831 305.83438ZM224.26831 310.99063L224.26831 302.38126L225.22144 302.38126L225.22144 303.17813Q225.56519 302.70938 225.98706 302.475Q226.42456 302.24063 227.03394 302.24063Q227.83081 302.24063 228.44019 302.64688Q229.04956 303.05313 229.34644 303.80313Q229.65894 304.55313 229.65894 305.44376Q229.65894 306.39688 229.31519 307.1625Q228.98706 307.92813 228.33081 308.33438Q227.67456 308.74063 226.95581 308.74063Q226.42456 308.74063 226.00269 308.52188Q225.58081 308.2875 225.31519 307.95938L225.31519 310.99063L224.26831 310.99063ZM225.22144 305.52188Q225.22144 306.725 225.70581 307.30313Q226.19019 307.86563 226.87769 307.86563Q227.58081 307.86563 228.08081 307.27188Q228.58081 306.67813 228.58081 305.42813Q228.58081 304.24063 228.09644 303.6625Q227.61206 303.06876 226.92456 303.06876Q226.25269 303.06876 225.73706 303.69376Q225.22144 304.31876 225.22144 305.52188ZM231.25269 308.6L231.25269 302.38126L232.20581 302.38126L232.20581 303.31876Q232.56519 302.6625 232.86206 302.45938Q233.17456 302.24063 233.54956 302.24063Q234.08081 302.24063 234.62769 302.56876L234.26831 303.55313Q233.87769 303.31876 233.50269 303.31876Q233.14331 303.31876 232.86206 303.5375Q232.59644 303.74063 232.48706 304.11563Q232.29956 304.67813 232.29956 305.33438L232.29956 308.6L231.25269 308.6ZM235.26831 301.225L235.26831 300.00626L236.33081 300.00626L236.33081 301.225L235.26831 301.225ZM235.26831 308.6L235.26831 302.38126L236.33081 302.38126L236.33081 308.6L235.26831 308.6ZM238.26831 308.6L238.26831 302.38126L239.20581 302.38126L239.20581 303.25626Q239.89331 302.24063 241.19019 302.24063Q241.75269 302.24063 242.22144 302.44376Q242.70581 302.64688 242.94019 302.975Q243.17456 303.30313 243.26831 303.74063Q243.31519 304.0375 243.31519 304.77188L243.31519 308.6L242.26831 308.6L242.26831 304.81876Q242.26831 304.1625 242.14331 303.85Q242.01831 303.5375 241.70581 303.35Q241.39331 303.14688 240.97144 303.14688Q240.29956 303.14688 239.79956 303.58438Q239.31519 304.00626 239.31519 305.19376L239.31519 308.6L238.26831 308.6ZM247.56519 307.6625L247.72144 308.58438Q247.26831 308.67813 246.92456 308.67813Q246.34644 308.67813 246.03394 308.50626Q245.72144 308.31876 245.58081 308.02188Q245.45581 307.725 245.45581 306.77188L245.45581 303.19376L244.69019 303.19376L244.69019 302.38126L245.45581 302.38126L245.45581 300.83438L246.50269 300.20938L246.50269 302.38126L247.56519 302.38126L247.56519 303.19376L246.50269 303.19376L246.50269 306.83438Q246.50269 307.2875 246.54956 307.4125Q246.61206 307.5375 246.73706 307.61563Q246.86206 307.69376 247.09644 307.69376Q247.28394 307.69376 247.56519 307.6625ZM250.97144 306.33438L252.03394 306.19376Q252.20581 307.08438 252.64331 307.49063Q253.08081 307.88126 253.70581 307.88126Q254.45581 307.88126 254.97144 307.36563Q255.48706 306.85 255.48706 306.08438Q255.48706 305.36563 255.00269 304.89688Q254.53394 304.4125 253.79956 304.4125Q253.50269 304.4125 253.04956 304.5375L253.17456 303.6Q253.28394 303.61563 253.34644 303.61563Q254.01831 303.61563 254.54956 303.27188Q255.09644 302.9125 255.09644 302.17813Q255.09644 301.6 254.70581 301.225Q254.31519 300.83438 253.69019 300.83438Q253.08081 300.83438 252.65894 301.225Q252.25269 301.61563 252.14331 302.38126L251.08081 302.19376Q251.26831 301.14688 251.95581 300.56876Q252.64331 299.975 253.65894 299.975Q254.36206 299.975 254.95581 300.2875Q255.54956 300.58438 255.86206 301.1Q256.17456 301.61563 256.17456 302.20938Q256.17456 302.75626 255.87769 303.225Q255.58081 303.67813 255.00269 303.94376Q255.75269 304.11563 256.17456 304.67813Q256.59644 305.225 256.59644 306.06876Q256.59644 307.19376 255.76831 307.975Q254.95581 308.75626 253.70581 308.75626Q252.58081 308.75626 251.83081 308.08438Q251.08081 307.39688 250.97144 306.33438Z" fill-rule="nonzero"/><path fill="#000000" d="M278.04688 305.83438L279.10938 305.74063Q279.1875 306.39688 279.46875 306.80313Q279.75 307.20938 280.32812 307.475Q280.92188 307.725 281.65625 307.725Q282.29688 307.725 282.79688 307.5375Q283.29688 307.33438 283.53125 307.00626Q283.78125 306.6625 283.78125 306.27188Q283.78125 305.86563 283.54688 305.56876Q283.3125 305.25626 282.78125 305.05313Q282.42188 304.9125 281.23438 304.63126Q280.0625 304.35 279.59375 304.1Q278.96875 303.77188 278.67188 303.30313Q278.375 302.81876 278.375 302.225Q278.375 301.58438 278.73438 301.02188Q279.10938 300.44376 279.8125 300.1625Q280.53125 299.86563 281.39062 299.86563Q282.34375 299.86563 283.07812 300.17813Q283.8125 300.475 284.20312 301.08438Q284.59375 301.67813 284.625 302.42813L283.53125 302.50626Q283.4375 301.69376 282.92188 301.2875Q282.42188 300.86563 281.4375 300.86563Q280.40625 300.86563 279.9375 301.24063Q279.46875 301.61563 279.46875 302.14688Q279.46875 302.61563 279.79688 302.9125Q280.125 303.20938 281.5 303.52188Q282.89062 303.83438 283.40625 304.06876Q284.15625 304.42813 284.51562 304.95938Q284.875 305.475 284.875 306.17813Q284.875 306.86563 284.48438 307.475Q284.09375 308.06876 283.35938 308.4125Q282.625 308.74063 281.70312 308.74063Q280.53125 308.74063 279.73438 308.4125Q278.95312 308.06876 278.5 307.38126Q278.0625 306.69376 278.04688 305.83438ZM286.29688 310.99063L286.29688 302.38126L287.25 302.38126L287.25 303.17813Q287.59375 302.70938 288.01562 302.475Q288.45312 302.24063 289.0625 302.24063Q289.85938 302.24063 290.46875 302.64688Q291.07812 303.05313 291.375 303.80313Q291.6875 304.55313 291.6875 305.44376Q291.6875 306.39688 291.34375 307.1625Q291.01562 307.92813 290.35938 308.33438Q289.70312 308.74063 288.98438 308.74063Q288.45312 308.74063 288.03125 308.52188Q287.60938 308.2875 287.34375 307.95938L287.34375 310.99063L286.29688 310.99063ZM287.25 305.52188Q287.25 306.725 287.73438 307.30313Q288.21875 307.86563 288.90625 307.86563Q289.60938 307.86563 290.10938 307.27188Q290.60938 306.67813 290.60938 305.42813Q290.60938 304.24063 290.125 303.6625Q289.64062 303.06876 288.95312 303.06876Q288.28125 303.06876 287.76562 303.69376Q287.25 304.31876 287.25 305.52188ZM293.28125 308.6L293.28125 302.38126L294.23438 302.38126L294.23438 303.31876Q294.59375 302.6625 294.89062 302.45938Q295.20312 302.24063 295.57812 302.24063Q296.10938 302.24063 296.65625 302.56876L296.29688 303.55313Q295.90625 303.31876 295.53125 303.31876Q295.17188 303.31876 294.89062 303.5375Q294.625 303.74063 294.51562 304.11563Q294.32812 304.67813 294.32812 305.33438L294.32812 308.6L293.28125 308.6ZM297.29688 301.225L297.29688 300.00626L298.35938 300.00626L298.35938 301.225L297.29688 301.225ZM297.29688 308.6L297.29688 302.38126L298.35938 302.38126L298.35938 308.6L297.29688 308.6ZM300.29688 308.6L300.29688 302.38126L301.23438 302.38126L301.23438 303.25626Q301.92188 302.24063 303.21875 302.24063Q303.78125 302.24063 304.25 302.44376Q304.73438 302.64688 304.96875 302.975Q305.20312 303.30313 305.29688 303.74063Q305.34375 304.0375 305.34375 304.77188L305.34375 308.6L304.29688 308.6L304.29688 304.81876Q304.29688 304.1625 304.17188 303.85Q304.04688 303.5375 303.73438 303.35Q303.42188 303.14688 303.0 303.14688Q302.32812 303.14688 301.82812 303.58438Q301.34375 304.00626 301.34375 305.19376L301.34375 308.6L300.29688 308.6ZM309.59375 307.6625L309.75 308.58438Q309.29688 308.67813 308.95312 308.67813Q308.375 308.67813 308.0625 308.50626Q307.75 308.31876 307.60938 308.02188Q307.48438 307.725 307.48438 306.77188L307.48438 303.19376L306.71875 303.19376L306.71875 302.38126L307.48438 302.38126L307.48438 300.83438L308.53125 300.20938L308.53125 302.38126L309.59375 302.38126L309.59375 303.19376L308.53125 303.19376L308.53125 306.83438Q308.53125 307.2875 308.57812 307.4125Q308.64062 307.5375 308.76562 307.61563Q308.89062 307.69376 309.125 307.69376Q309.3125 307.69376 309.59375 307.6625ZM316.375 308.6L316.375 306.5375L312.65625 306.5375L312.65625 305.56876L316.57812 300.00626L317.4375 300.00626L317.4375 305.56876L318.59375 305.56876L318.59375 306.5375L317.4375 306.5375L317.4375 308.6L316.375 308.6ZM316.375 305.56876L316.375 301.70938L313.6875 305.56876L316.375 305.56876Z" fill-rule="nonzero"/><path fill="#000000" d="M340.07544 305.83438L341.13794 305.74063Q341.21606 306.39688 341.4973 306.80313Q341.77856 307.20938 342.3567 307.475Q342.95044 307.725 343.6848 307.725Q344.32544 307.725 344.82544 307.5375Q345.32544 307.33438 345.5598 307.00626Q345.8098 306.6625 345.8098 306.27188Q345.8098 305.86563 345.57544 305.56876Q345.34106 305.25626 344.8098 305.05313Q344.45044 304.9125 343.26294 304.63126Q342.09106 304.35 341.6223 304.1Q340.9973 303.77188 340.70044 303.30313Q340.40356 302.81876 340.40356 302.225Q340.40356 301.58438 340.76294 301.02188Q341.13794 300.44376 341.84106 300.1625Q342.5598 299.86563 343.4192 299.86563Q344.3723 299.86563 345.1067 300.17813Q345.84106 300.475 346.2317 301.08438Q346.6223 301.67813 346.65356 302.42813L345.5598 302.50626Q345.46606 301.69376 344.95044 301.2875Q344.45044 300.86563 343.46606 300.86563Q342.4348 300.86563 341.96606 301.24063Q341.4973 301.61563 341.4973 302.14688Q341.4973 302.61563 341.82544 302.9125Q342.15356 303.20938 343.52856 303.52188Q344.9192 303.83438 345.4348 304.06876Q346.1848 304.42813 346.5442 304.95938Q346.90356 305.475 346.90356 306.17813Q346.90356 306.86563 346.51294 307.475Q346.1223 308.06876 345.38794 308.4125Q344.65356 308.74063 343.7317 308.74063Q342.5598 308.74063 341.76294 308.4125Q340.9817 308.06876 340.52856 307.38126Q340.09106 306.69376 340.07544 305.83438ZM348.32544 310.99063L348.32544 302.38126L349.27856 302.38126L349.27856 303.17813Q349.6223 302.70938 350.0442 302.475Q350.4817 302.24063 351.09106 302.24063Q351.88794 302.24063 352.4973 302.64688Q353.1067 303.05313 353.40356 303.80313Q353.71606 304.55313 353.71606 305.44376Q353.71606 306.39688 353.3723 307.1625Q353.0442 307.92813 352.38794 308.33438Q351.7317 308.74063 351.01294 308.74063Q350.4817 308.74063 350.0598 308.52188Q349.63794 308.2875 349.3723 307.95938L349.3723 310.99063L348.32544 310.99063ZM349.27856 305.52188Q349.27856 306.725 349.76294 307.30313Q350.2473 307.86563 350.9348 307.86563Q351.63794 307.86563 352.13794 307.27188Q352.63794 306.67813 352.63794 305.42813Q352.63794 304.24063 352.15356 303.6625Q351.6692 303.06876 350.9817 303.06876Q350.3098 303.06876 349.7942 303.69376Q349.27856 304.31876 349.27856 305.52188ZM355.3098 308.6L355.3098 302.38126L356.26294 302.38126L356.26294 303.31876Q356.6223 302.6625 356.9192 302.45938Q357.2317 302.24063 357.6067 302.24063Q358.13794 302.24063 358.6848 302.56876L358.32544 303.55313Q357.9348 303.31876 357.5598 303.31876Q357.20044 303.31876 356.9192 303.5375Q356.65356 303.74063 356.5442 304.11563Q356.3567 304.67813 356.3567 305.33438L356.3567 308.6L355.3098 308.6ZM359.32544 301.225L359.32544 300.00626L360.38794 300.00626L360.38794 301.225L359.32544 301.225ZM359.32544 308.6L359.32544 302.38126L360.38794 302.38126L360.38794 308.6L359.32544 308.6ZM362.32544 308.6L362.32544 302.38126L363.26294 302.38126L363.26294 303.25626Q363.95044 302.24063 365.2473 302.24063Q365.8098 302.24063 366.27856 302.44376Q366.76294 302.64688 366.9973 302.975Q367.2317 303.30313 367.32544 303.74063Q367.3723 304.0375 367.3723 304.77188L367.3723 308.6L366.32544 308.6L366.32544 304.81876Q366.32544 304.1625 366.20044 303.85Q366.07544 303.5375 365.76294 303.35Q365.45044 303.14688 365.02856 303.14688Q364.3567 303.14688 363.8567 303.58438Q363.3723 304.00626 363.3723 305.19376L363.3723 308.6L362.32544 308.6ZM371.6223 307.6625L371.77856 308.58438Q371.32544 308.67813 370.9817 308.67813Q370.40356 308.67813 370.09106 308.50626Q369.77856 308.31876 369.63794 308.02188Q369.51294 307.725 369.51294 306.77188L369.51294 303.19376L368.7473 303.19376L368.7473 302.38126L369.51294 302.38126L369.51294 300.83438L370.5598 300.20938L370.5598 302.38126L371.6223 302.38126L371.6223 303.19376L370.5598 303.19376L370.5598 306.83438Q370.5598 307.2875 370.6067 307.4125Q370.6692 307.5375 370.7942 307.61563Q370.9192 307.69376 371.15356 307.69376Q371.34106 307.69376 371.6223 307.6625ZM375.02856 306.35L376.13794 306.25626Q376.26294 307.06876 376.70044 307.475Q377.15356 307.88126 377.7942 307.88126Q378.5442 307.88126 379.07544 307.30313Q379.6067 306.725 379.6067 305.7875Q379.6067 304.88126 379.09106 304.36563Q378.59106 303.83438 377.76294 303.83438Q377.26294 303.83438 376.84106 304.06876Q376.4348 304.30313 376.20044 304.6625L375.21606 304.5375L376.0442 300.13126L380.32544 300.13126L380.32544 301.13126L376.88794 301.13126L376.4348 303.44376Q377.20044 302.89688 378.0442 302.89688Q379.1692 302.89688 379.9348 303.67813Q380.71606 304.45938 380.71606 305.69376Q380.71606 306.85 380.0442 307.70938Q379.21606 308.74063 377.7942 308.74063Q376.6223 308.74063 375.8723 308.08438Q375.13794 307.42813 375.02856 306.35Z" fill-rule="nonzero"/><path fill="#000000" d="M402.104 305.83438L403.1665 305.74063Q403.24463 306.39688 403.52588 306.80313Q403.80713 307.20938 404.38525 307.475Q404.979 307.725 405.71338 307.725Q406.354 307.725 406.854 307.5375Q407.354 307.33438 407.58838 307.00626Q407.83838 306.6625 407.83838 306.27188Q407.83838 305.86563 407.604 305.56876Q407.36963 305.25626 406.83838 305.05313Q406.479 304.9125 405.2915 304.63126Q404.11963 304.35 403.65088 304.1Q403.02588 303.77188 402.729 303.30313Q402.43213 302.81876 402.43213 302.225Q402.43213 301.58438 402.7915 301.02188Q403.1665 300.44376 403.86963 300.1625Q404.58838 299.86563 405.44775 299.86563Q406.40088 299.86563 407.13525 300.17813Q407.86963 300.475 408.26025 301.08438Q408.65088 301.67813 408.68213 302.42813L407.58838 302.50626Q407.49463 301.69376 406.979 301.2875Q406.479 300.86563 405.49463 300.86563Q404.46338 300.86563 403.99463 301.24063Q403.52588 301.61563 403.52588 302.14688Q403.52588 302.61563 403.854 302.9125Q404.18213 303.20938 405.55713 303.52188Q406.94775 303.83438 407.46338 304.06876Q408.21338 304.42813 408.57275 304.95938Q408.93213 305.475 408.93213 306.17813Q408.93213 306.86563 408.5415 307.475Q408.15088 308.06876 407.4165 308.4125Q406.68213 308.74063 405.76025 308.74063Q404.58838 308.74063 403.7915 308.4125Q403.01025 308.06876 402.55713 307.38126Q402.11963 306.69376 402.104 305.83438ZM410.354 310.99063L410.354 302.38126L411.30713 302.38126L411.30713 303.17813Q411.65088 302.70938 412.07275 302.475Q412.51025 302.24063 413.11963 302.24063Q413.9165 302.24063 414.52588 302.64688Q415.13525 303.05313 415.43213 303.80313Q415.74463 304.55313 415.74463 305.44376Q415.74463 306.39688 415.40088 307.1625Q415.07275 307.92813 414.4165 308.33438Q413.76025 308.74063 413.0415 308.74063Q412.51025 308.74063 412.08838 308.52188Q411.6665 308.2875 411.40088 307.95938L411.40088 310.99063L410.354 310.99063ZM411.30713 305.52188Q411.30713 306.725 411.7915 307.30313Q412.27588 307.86563 412.96338 307.86563Q413.6665 307.86563 414.1665 307.27188Q414.6665 306.67813 414.6665 305.42813Q414.6665 304.24063 414.18213 303.6625Q413.69775 303.06876 413.01025 303.06876Q412.33838 303.06876 411.82275 303.69376Q411.30713 304.31876 411.30713 305.52188ZM417.33838 308.6L417.33838 302.38126L418.2915 302.38126L418.2915 303.31876Q418.65088 302.6625 418.94775 302.45938Q419.26025 302.24063 419.63525 302.24063Q420.1665 302.24063 420.71338 302.56876L420.354 303.55313Q419.96338 303.31876 419.58838 303.31876Q419.229 303.31876 418.94775 303.5375Q418.68213 303.74063 418.57275 304.11563Q418.38525 304.67813 418.38525 305.33438L418.38525 308.6L417.33838 308.6ZM421.354 301.225L421.354 300.00626L422.4165 300.00626L422.4165 301.225L421.354 301.225ZM421.354 308.6L421.354 302.38126L422.4165 302.38126L422.4165 308.6L421.354 308.6ZM424.354 308.6L424.354 302.38126L425.2915 302.38126L425.2915 303.25626Q425.979 302.24063 427.27588 302.24063Q427.83838 302.24063 428.30713 302.44376Q428.7915 302.64688 429.02588 302.975Q429.26025 303.30313 429.354 303.74063Q429.40088 304.0375 429.40088 304.77188L429.40088 308.6L428.354 308.6L428.354 304.81876Q428.354 304.1625 428.229 303.85Q428.104 303.5375 427.7915 303.35Q427.479 303.14688 427.05713 303.14688Q426.38525 303.14688 425.88525 303.58438Q425.40088 304.00626 425.40088 305.19376L425.40088 308.6L424.354 308.6ZM433.65088 307.6625L433.80713 308.58438Q433.354 308.67813 433.01025 308.67813Q432.43213 308.67813 432.11963 308.50626Q431.80713 308.31876 431.6665 308.02188Q431.5415 307.725 431.5415 306.77188L431.5415 303.19376L430.77588 303.19376L430.77588 302.38126L431.5415 302.38126L431.5415 300.83438L432.58838 300.20938L432.58838 302.38126L433.65088 302.38126L433.65088 303.19376L432.58838 303.19376L432.58838 306.83438Q432.58838 307.2875 432.63525 307.4125Q432.69775 307.5375 432.82275 307.61563Q432.94775 307.69376 433.18213 307.69376Q433.36963 307.69376 433.65088 307.6625ZM442.52588 302.11563L441.479 302.19376Q441.33838 301.56876 441.08838 301.2875Q440.65088 300.83438 440.02588 300.83438Q439.52588 300.83438 439.13525 301.11563Q438.65088 301.49063 438.354 302.19376Q438.07275 302.88126 438.05713 304.1625Q438.43213 303.58438 438.979 303.30313Q439.5415 303.02188 440.15088 303.02188Q441.19775 303.02188 441.93213 303.80313Q442.68213 304.58438 442.68213 305.80313Q442.68213 306.61563 442.32275 307.31876Q441.979 308.00626 441.36963 308.38126Q440.76025 308.74063 439.99463 308.74063Q438.6665 308.74063 437.83838 307.77188Q437.01025 306.80313 437.01025 304.58438Q437.01025 302.08438 437.93213 300.95938Q438.729 299.975 440.08838 299.975Q441.104 299.975 441.74463 300.55313Q442.40088 301.11563 442.52588 302.11563ZM438.229 305.81876Q438.229 306.36563 438.44775 306.86563Q438.68213 307.35 439.08838 307.61563Q439.51025 307.88126 439.979 307.88126Q440.63525 307.88126 441.11963 307.35Q441.604 306.80313 441.604 305.88126Q441.604 304.99063 441.11963 304.475Q440.65088 303.95938 439.93213 303.95938Q439.21338 303.95938 438.71338 304.475Q438.229 304.99063 438.229 305.81876Z" fill-rule="nonzero"/><path fill="#000000" d="M464.1326 305.83438L465.1951 305.74063Q465.27322 306.39688 465.55447 306.80313Q465.83572 307.20938 466.41385 307.475Q467.0076 307.725 467.74197 307.725Q468.3826 307.725 468.8826 307.5375Q469.3826 307.33438 469.61697 307.00626Q469.86697 306.6625 469.86697 306.27188Q469.86697 305.86563 469.6326 305.56876Q469.39822 305.25626 468.86697 305.05313Q468.5076 304.9125 467.3201 304.63126Q466.14822 304.35 465.67947 304.1Q465.05447 303.77188 464.7576 303.30313Q464.46072 302.81876 464.46072 302.225Q464.46072 301.58438 464.8201 301.02188Q465.1951 300.44376 465.89822 300.1625Q466.61697 299.86563 467.47635 299.86563Q468.42947 299.86563 469.16385 300.17813Q469.89822 300.475 470.28885 301.08438Q470.67947 301.67813 470.71072 302.42813L469.61697 302.50626Q469.52322 301.69376 469.0076 301.2875Q468.5076 300.86563 467.52322 300.86563Q466.49197 300.86563 466.02322 301.24063Q465.55447 301.61563 465.55447 302.14688Q465.55447 302.61563 465.8826 302.9125Q466.21072 303.20938 467.58572 303.52188Q468.97635 303.83438 469.49197 304.06876Q470.24197 304.42813 470.60135 304.95938Q470.96072 305.475 470.96072 306.17813Q470.96072 306.86563 470.5701 307.475Q470.17947 308.06876 469.4451 308.4125Q468.71072 308.74063 467.78885 308.74063Q466.61697 308.74063 465.8201 308.4125Q465.03885 308.06876 464.58572 307.38126Q464.14822 306.69376 464.1326 305.83438ZM472.3826 310.99063L472.3826 302.38126L473.33572 302.38126L473.33572 303.17813Q473.67947 302.70938 474.10135 302.475Q474.53885 302.24063 475.14822 302.24063Q475.9451 302.24063 476.55447 302.64688Q477.16385 303.05313 477.46072 303.80313Q477.77322 304.55313 477.77322 305.44376Q477.77322 306.39688 477.42947 307.1625Q477.10135 307.92813 476.4451 308.33438Q475.78885 308.74063 475.0701 308.74063Q474.53885 308.74063 474.11697 308.52188Q473.6951 308.2875 473.42947 307.95938L473.42947 310.99063L472.3826 310.99063ZM473.33572 305.52188Q473.33572 306.725 473.8201 307.30313Q474.30447 307.86563 474.99197 307.86563Q475.6951 307.86563 476.1951 307.27188Q476.6951 306.67813 476.6951 305.42813Q476.6951 304.24063 476.21072 303.6625Q475.72635 303.06876 475.03885 303.06876Q474.36697 303.06876 473.85135 303.69376Q473.33572 304.31876 473.33572 305.52188ZM479.36697 308.6L479.36697 302.38126L480.3201 302.38126L480.3201 303.31876Q480.67947 302.6625 480.97635 302.45938Q481.28885 302.24063 481.66385 302.24063Q482.1951 302.24063 482.74197 302.56876L482.3826 303.55313Q481.99197 303.31876 481.61697 303.31876Q481.2576 303.31876 480.97635 303.5375Q480.71072 303.74063 480.60135 304.11563Q480.41385 304.67813 480.41385 305.33438L480.41385 308.6L479.36697 308.6ZM483.3826 301.225L483.3826 300.00626L484.4451 300.00626L484.4451 301.225L483.3826 301.225ZM483.3826 308.6L483.3826 302.38126L484.4451 302.38126L484.4451 308.6L483.3826 308.6ZM486.3826 308.6L486.3826 302.38126L487.3201 302.38126L487.3201 303.25626Q488.0076 302.24063 489.30447 302.24063Q489.86697 302.24063 490.33572 302.44376Q490.8201 302.64688 491.05447 302.975Q491.28885 303.30313 491.3826 303.74063Q491.42947 304.0375 491.42947 304.77188L491.42947 308.6L490.3826 308.6L490.3826 304.81876Q490.3826 304.1625 490.2576 303.85Q490.1326 303.5375 489.8201 303.35Q489.5076 303.14688 489.08572 303.14688Q488.41385 303.14688 487.91385 303.58438Q487.42947 304.00626 487.42947 305.19376L487.42947 308.6L486.3826 308.6ZM495.67947 307.6625L495.83572 308.58438Q495.3826 308.67813 495.03885 308.67813Q494.46072 308.67813 494.14822 308.50626Q493.83572 308.31876 493.6951 308.02188Q493.5701 307.725 493.5701 306.77188L493.5701 303.19376L492.80447 303.19376L492.80447 302.38126L493.5701 302.38126L493.5701 300.83438L494.61697 300.20938L494.61697 302.38126L495.67947 302.38126L495.67947 303.19376L494.61697 303.19376L494.61697 306.83438Q494.61697 307.2875 494.66385 307.4125Q494.72635 307.5375 494.85135 307.61563Q494.97635 307.69376 495.21072 307.69376Q495.39822 307.69376 495.67947 307.6625ZM499.14822 301.13126L499.14822 300.11563L504.71072 300.11563L504.71072 300.94376Q503.89822 301.81876 503.08572 303.27188Q502.28885 304.70938 501.85135 306.24063Q501.52322 307.31876 501.4451 308.6L500.35135 308.6Q500.36697 307.58438 500.74197 306.14688Q501.1326 304.70938 501.83572 303.38126Q502.55447 302.05313 503.36697 301.13126L499.14822 301.13126Z" fill-rule="nonzero"/><path fill="#4285f4" fill-opacity="0.5019608" d="M31.0 23.4C31.0 26.713709 28.31371 29.4 25.0 29.4C21.68629 29.4 19.0 26.713709 19.0 23.4C19.0 20.086292 21.68629 17.4 25.0 17.4C28.31371 17.4 31.0 20.086292 31.0 23.4Z" fill-rule="nonzero"/><path fill="#1a1a1a" d="M42.375 27.4L39.046875 18.80625L40.28125 18.80625L42.515625 25.05625Q42.78125 25.80625 42.96875 26.4625Q43.171875 25.759375 43.4375 25.05625L45.75 18.80625L46.90625 18.80625L43.546875 27.4L42.375 27.4ZM50.859375 26.634375Q50.265625 27.134375 49.71875 27.3375Q49.1875 27.540625 48.5625 27.540625Q47.53125 27.540625 46.984375 27.040625Q46.4375 26.540625 46.4375 25.759375Q46.4375 25.30625 46.640625 24.93125Q46.84375 24.540625 47.1875 24.321875Q47.53125 24.0875 47.953125 23.978125Q48.25 23.884375 48.890625 23.80625Q50.15625 23.665625 50.765625 23.446875Q50.765625 23.228125 50.765625 23.18125Q50.765625 22.525 50.46875 22.259375Q50.0625 21.915625 49.265625 21.915625Q48.53125 21.915625 48.171875 22.18125Q47.8125 22.43125 47.640625 23.0875L46.609375 22.946875Q46.75 22.290625 47.078125 21.884375Q47.40625 21.478125 48.015625 21.259375Q48.625 21.040625 49.421875 21.040625Q50.21875 21.040625 50.71875 21.228125Q51.21875 21.415625 51.453125 21.696875Q51.6875 21.978125 51.78125 22.415625Q51.828125 22.68125 51.828125 23.384375L51.828125 24.790625Q51.828125 26.259375 51.890625 26.65Q51.96875 27.040625 52.171875 27.4L51.0625 27.4Q50.90625 27.071875 50.859375 26.634375ZM50.765625 24.275Q50.1875 24.509375 49.046875 24.68125Q48.390625 24.775 48.125 24.9Q47.859375 25.009375 47.703125 25.228125Q47.5625 25.446875 47.5625 25.728125Q47.5625 26.15 47.875 26.43125Q48.203125 26.7125 48.8125 26.7125Q49.421875 26.7125 49.890625 26.446875Q50.375 26.18125 50.59375 25.7125Q50.765625 25.353125 50.765625 24.665625L50.765625 24.275ZM53.765625 27.4L53.765625 18.80625L54.828125 18.80625L54.828125 27.4L53.765625 27.4ZM56.40625 24.290625Q56.40625 22.55625 57.359375 21.728125Q58.15625 21.040625 59.3125 21.040625Q60.59375 21.040625 61.40625 21.884375Q62.234375 22.7125 62.234375 24.196875Q62.234375 25.4 61.875 26.0875Q61.515625 26.775 60.8125 27.165625Q60.125 27.540625 59.3125 27.540625Q58.015625 27.540625 57.203125 26.7125Q56.40625 25.86875 56.40625 24.290625ZM57.484375 24.290625Q57.484375 25.478125 58.0 26.071875Q58.53125 26.665625 59.3125 26.665625Q60.109375 26.665625 60.625 26.071875Q61.140625 25.478125 61.140625 24.259375Q61.140625 23.103125 60.609375 22.509375Q60.09375 21.915625 59.3125 21.915625Q58.53125 21.915625 58.0 22.509375Q57.484375 23.0875 57.484375 24.290625ZM63.78125 27.4L63.78125 21.18125L64.734375 21.18125L64.734375 22.11875Q65.09375 21.4625 65.390625 21.259375Q65.703125 21.040625 66.078125 21.040625Q66.609375 21.040625 67.15625 21.36875L66.796875 22.353125Q66.40625 22.11875 66.03125 22.11875Q65.671875 22.11875 65.390625 22.3375Q65.125 22.540625 65.015625 22.915625Q64.828125 23.478125 64.828125 24.134375L64.828125 27.4L63.78125 27.4ZM72.046875 25.4L73.140625 25.525Q72.890625 26.478125 72.1875 27.009375Q71.484375 27.540625 70.40625 27.540625Q69.046875 27.540625 68.234375 26.696875Q67.4375 25.853125 67.4375 24.3375Q67.4375 22.775 68.25 21.915625Q69.0625 21.040625 70.34375 21.040625Q71.59375 21.040625 72.375 21.884375Q73.171875 22.728125 73.171875 24.275Q73.171875 24.36875 73.171875 24.55625L68.53125 24.55625Q68.59375 25.5875 69.109375 26.134375Q69.625 26.665625 70.40625 26.665625Q70.984375 26.665625 71.390625 26.36875Q71.8125 26.05625 72.046875 25.4ZM68.59375 23.696875L72.0625 23.696875Q72.0 22.9 71.671875 22.509375Q71.15625 21.9 70.359375 21.9Q69.625 21.9 69.125 22.384375Q68.640625 22.86875 68.59375 23.696875ZM77.40625 24.290625Q77.40625 22.55625 78.359375 21.728125Q79.15625 21.040625 80.3125 21.040625Q81.59375 21.040625 82.40625 21.884375Q83.234375 22.7125 83.234375 24.196875Q83.234375 25.4 82.875 26.0875Q82.515625 26.775 81.8125 27.165625Q81.125 27.540625 80.3125 27.540625Q79.015625 27.540625 78.203125 26.7125Q77.40625 25.86875 77.40625 24.290625ZM78.484375 24.290625Q78.484375 25.478125 79.0 26.071875Q79.53125 26.665625 80.3125 26.665625Q81.109375 26.665625 81.625 26.071875Q82.140625 25.478125 82.140625 24.259375Q82.140625 23.103125 81.609375 22.509375Q81.09375 21.915625 80.3125 21.915625Q79.53125 21.915625 79.0 22.509375Q78.484375 23.0875 78.484375 24.290625ZM87.09375 26.4625L87.25 27.384375Q86.796875 27.478125 86.453125 27.478125Q85.875 27.478125 85.5625 27.30625Q85.25 27.11875 85.109375 26.821875Q84.984375 26.525 84.984375 25.571875L84.984375 21.99375L84.21875 21.99375L84.21875 21.18125L84.984375 21.18125L84.984375 19.634375L86.03125 19.009375L86.03125 21.18125L87.09375 21.18125L87.09375 21.99375L86.03125 21.99375L86.03125 25.634375Q86.03125 26.0875 86.078125 26.2125Q86.140625 26.3375 86.265625 26.415625Q86.390625 26.49375 86.625 26.49375Q86.8125 26.49375 87.09375 26.4625ZM90.09375 26.4625L90.25 27.384375Q89.796875 27.478125 89.453125 27.478125Q88.875 27.478125 88.5625 27.30625Q88.25 27.11875 88.109375 26.821875Q87.984375 26.525 87.984375 25.571875L87.984375 21.99375L87.21875 21.99375L87.21875 21.18125L87.984375 21.18125L87.984375 19.634375L89.03125 19.009375L89.03125 21.18125L90.09375 21.18125L90.09375 21.99375L89.03125 21.99375L89.03125 25.634375Q89.03125 26.0875 89.078125 26.2125Q89.140625 26.3375 89.265625 26.415625Q89.390625 26.49375 89.625 26.49375Q89.8125 26.49375 90.09375 26.4625ZM90.796875 20.025L90.796875 18.80625L91.859375 18.80625L91.859375 20.025L90.796875 20.025ZM90.796875 27.4L90.796875 21.18125L91.859375 21.18125L91.859375 27.4L90.796875 27.4ZM93.796875 27.4L93.796875 21.18125L94.734375 21.18125L94.734375 22.05625Q95.03125 21.5875 95.515625 21.321875Q96.0 21.040625 96.625 21.040625Q97.3125 21.040625 97.75 21.321875Q98.203125 21.603125 98.375 22.11875Q99.125 21.040625 100.296875 21.040625Q101.234375 21.040625 101.71875 21.55625Q102.21875 22.05625 102.21875 23.134375L102.21875 27.4L101.171875 27.4L101.171875 23.478125Q101.171875 22.853125 101.0625 22.571875Q100.96875 22.290625 100.703125 22.11875Q100.4375 21.946875 100.0625 21.946875Q99.40625 21.946875 98.96875 22.384375Q98.546875 22.821875 98.546875 23.790625L98.546875 27.4L97.484375 27.4L97.484375 23.353125Q97.484375 22.65 97.21875 22.30625Q96.96875 21.946875 96.390625 21.946875Q95.9375 21.946875 95.5625 22.18125Q95.1875 22.415625 95.015625 22.86875Q94.84375 23.321875 94.84375 24.165625L94.84375 27.4L93.796875 27.4ZM104.40625 24.290625Q104.40625 22.55625 105.359375 21.728125Q106.15625 21.040625 107.3125 21.040625Q108.59375 21.040625 109.40625 21.884375Q110.234375 22.7125 110.234375 24.196875Q110.234375 25.4 109.875 26.0875Q109.515625 26.775 108.8125 27.165625Q108.125 27.540625 107.3125 27.540625Q106.015625 27.540625 105.203125 26.7125Q104.40625 25.86875 104.40625 24.290625ZM105.484375 24.290625Q105.484375 25.478125 106.0 26.071875Q106.53125 26.665625 107.3125 26.665625Q108.109375 26.665625 108.625 26.071875Q109.140625 25.478125 109.140625 24.259375Q109.140625 23.103125 108.609375 22.509375Q108.09375 21.915625 107.3125 21.915625Q106.53125 21.915625 106.0 22.509375Q105.484375 23.0875 105.484375 24.290625Z" fill-rule="nonzero"/><path fill="#ea4335" d="M139.0 23.4C139.0 26.713709 136.3137 29.4 133.0 29.4C129.6863 29.4 127.0 26.713709 127.0 23.4C127.0 20.086292 129.6863 17.4 133.0 17.4C136.3137 17.4 139.0 20.086292 139.0 23.4Z" fill-rule="nonzero"/><path fill="#1a1a1a" d="M150.375 27.4L147.04688 18.80625L148.28125 18.80625L150.51562 25.05625Q150.78125 25.80625 150.96875 26.4625Q151.17188 25.759375 151.4375 25.05625L153.75 18.80625L154.90625 18.80625L151.54688 27.4L150.375 27.4ZM158.85938 26.634375Q158.26562 27.134375 157.71875 27.3375Q157.1875 27.540625 156.5625 27.540625Q155.53125 27.540625 154.98438 27.040625Q154.4375 26.540625 154.4375 25.759375Q154.4375 25.30625 154.64062 24.93125Q154.84375 24.540625 155.1875 24.321875Q155.53125 24.0875 155.95312 23.978125Q156.25 23.884375 156.89062 23.80625Q158.15625 23.665625 158.76562 23.446875Q158.76562 23.228125 158.76562 23.18125Q158.76562 22.525 158.46875 22.259375Q158.0625 21.915625 157.26562 21.915625Q156.53125 21.915625 156.17188 22.18125Q155.8125 22.43125 155.64062 23.0875L154.60938 22.946875Q154.75 22.290625 155.07812 21.884375Q155.40625 21.478125 156.01562 21.259375Q156.625 21.040625 157.42188 21.040625Q158.21875 21.040625 158.71875 21.228125Q159.21875 21.415625 159.45312 21.696875Q159.6875 21.978125 159.78125 22.415625Q159.82812 22.68125 159.82812 23.384375L159.82812 24.790625Q159.82812 26.259375 159.89062 26.65Q159.96875 27.040625 160.17188 27.4L159.0625 27.4Q158.90625 27.071875 158.85938 26.634375ZM158.76562 24.275Q158.1875 24.509375 157.04688 24.68125Q156.39062 24.775 156.125 24.9Q155.85938 25.009375 155.70312 25.228125Q155.5625 25.446875 155.5625 25.728125Q155.5625 26.15 155.875 26.43125Q156.20312 26.7125 156.8125 26.7125Q157.42188 26.7125 157.89062 26.446875Q158.375 26.18125 158.59375 25.7125Q158.76562 25.353125 158.76562 24.665625L158.76562 24.275ZM161.76562 27.4L161.76562 18.80625L162.82812 18.80625L162.82812 27.4L161.76562 27.4ZM164.40625 24.290625Q164.40625 22.55625 165.35938 21.728125Q166.15625 21.040625 167.3125 21.040625Q168.59375 21.040625 169.40625 21.884375Q170.23438 22.7125 170.23438 24.196875Q170.23438 25.4 169.875 26.0875Q169.51562 26.775 168.8125 27.165625Q168.125 27.540625 167.3125 27.540625Q166.01562 27.540625 165.20312 26.7125Q164.40625 25.86875 164.40625 24.290625ZM165.48438 24.290625Q165.48438 25.478125 166.0 26.071875Q166.53125 26.665625 167.3125 26.665625Q168.10938 26.665625 168.625 26.071875Q169.14062 25.478125 169.14062 24.259375Q169.14062 23.103125 168.60938 22.509375Q168.09375 21.915625 167.3125 21.915625Q166.53125 21.915625 166.0 22.509375Q165.48438 23.0875 165.48438 24.290625ZM171.78125 27.4L171.78125 21.18125L172.73438 21.18125L172.73438 22.11875Q173.09375 21.4625 173.39062 21.259375Q173.70312 21.040625 174.07812 21.040625Q174.60938 21.040625 175.15625 21.36875L174.79688 22.353125Q174.40625 22.11875 174.03125 22.11875Q173.67188 22.11875 173.39062 22.3375Q173.125 22.540625 173.01562 22.915625Q172.82812 23.478125 172.82812 24.134375L172.82812 27.4L171.78125 27.4ZM180.04688 25.4L181.14062 25.525Q180.89062 26.478125 180.1875 27.009375Q179.48438 27.540625 178.40625 27.540625Q177.04688 27.540625 176.23438 26.696875Q175.4375 25.853125 175.4375 24.3375Q175.4375 22.775 176.25 21.915625Q177.0625 21.040625 178.34375 21.040625Q179.59375 21.040625 180.375 21.884375Q181.17188 22.728125 181.17188 24.275Q181.17188 24.36875 181.17188 24.55625L176.53125 24.55625Q176.59375 25.5875 177.10938 26.134375Q177.625 26.665625 178.40625 26.665625Q178.98438 26.665625 179.39062 26.36875Q179.8125 26.05625 180.04688 25.4ZM176.59375 23.696875L180.0625 23.696875Q180.0 22.9 179.67188 22.509375Q179.15625 21.9 178.35938 21.9Q177.625 21.9 177.125 22.384375Q176.64062 22.86875 176.59375 23.696875ZM189.85938 26.634375Q189.26562 27.134375 188.71875 27.3375Q188.1875 27.540625 187.5625 27.540625Q186.53125 27.540625 185.98438 27.040625Q185.4375 26.540625 185.4375 25.759375Q185.4375 25.30625 185.64062 24.93125Q185.84375 24.540625 186.1875 24.321875Q186.53125 24.0875 186.95312 23.978125Q187.25 23.884375 187.89062 23.80625Q189.15625 23.665625 189.76562 23.446875Q189.76562 23.228125 189.76562 23.18125Q189.76562 22.525 189.46875 22.259375Q189.0625 21.915625 188.26562 21.915625Q187.53125 21.915625 187.17188 22.18125Q186.8125 22.43125 186.64062 23.0875L185.60938 22.946875Q185.75 22.290625 186.07812 21.884375Q186.40625 21.478125 187.01562 21.259375Q187.625 21.040625 188.42188 21.040625Q189.21875 21.040625 189.71875 21.228125Q190.21875 21.415625 190.45312 21.696875Q190.6875 21.978125 190.78125 22.415625Q190.82812 22.68125 190.82812 23.384375L190.82812 24.790625Q190.82812 26.259375 190.89062 26.65Q190.96875 27.040625 191.17188 27.4L190.0625 27.4Q189.90625 27.071875 189.85938 26.634375ZM189.76562 24.275Q189.1875 24.509375 188.04688 24.68125Q187.39062 24.775 187.125 24.9Q186.85938 25.009375 186.70312 25.228125Q186.5625 25.446875 186.5625 25.728125Q186.5625 26.15 186.875 26.43125Q187.20312 26.7125 187.8125 26.7125Q188.42188 26.7125 188.89062 26.446875Q189.375 26.18125 189.59375 25.7125Q189.76562 25.353125 189.76562 24.665625L189.76562 24.275ZM196.85938 25.11875L197.89062 25.259375Q197.71875 26.321875 197.01562 26.93125Q196.3125 27.540625 195.29688 27.540625Q194.01562 27.540625 193.23438 26.7125Q192.46875 25.86875 192.46875 24.30625Q192.46875 23.30625 192.79688 22.55625Q193.14062 21.790625 193.8125 21.415625Q194.5 21.040625 195.3125 21.040625Q196.3125 21.040625 196.95312 21.55625Q197.60938 22.05625 197.79688 23.009375L196.76562 23.165625Q196.625 22.540625 196.25 22.228125Q195.875 21.9 195.34375 21.9Q194.54688 21.9 194.04688 22.478125Q193.54688 23.040625 193.54688 24.275Q193.54688 25.540625 194.03125 26.103125Q194.51562 26.665625 195.28125 26.665625Q195.90625 26.665625 196.3125 26.290625Q196.73438 25.915625 196.85938 25.11875ZM202.85938 25.11875L203.89062 25.259375Q203.71875 26.321875 203.01562 26.93125Q202.3125 27.540625 201.29688 27.540625Q200.01562 27.540625 199.23438 26.7125Q198.46875 25.86875 198.46875 24.30625Q198.46875 23.30625 198.79688 22.55625Q199.14062 21.790625 199.8125 21.415625Q200.5 21.040625 201.3125 21.040625Q202.3125 21.040625 202.95312 21.55625Q203.60938 22.05625 203.79688 23.009375L202.76562 23.165625Q202.625 22.540625 202.25 22.228125Q201.875 21.9 201.34375 21.9Q200.54688 21.9 200.04688 22.478125Q199.54688 23.040625 199.54688 24.275Q199.54688 25.540625 200.03125 26.103125Q200.51562 26.665625 201.28125 26.665625Q201.90625 26.665625 202.3125 26.290625Q202.73438 25.915625 202.85938 25.11875ZM209.04688 25.4L210.14062 25.525Q209.89062 26.478125 209.1875 27.009375Q208.48438 27.540625 207.40625 27.540625Q206.04688 27.540625 205.23438 26.696875Q204.4375 25.853125 204.4375 24.3375Q204.4375 22.775 205.25 21.915625Q206.0625 21.040625 207.34375 21.040625Q208.59375 21.040625 209.375 21.884375Q210.17188 22.728125 210.17188 24.275Q210.17188 24.36875 210.17188 24.55625L205.53125 24.55625Q205.59375 25.5875 206.10938 26.134375Q206.625 26.665625 207.40625 26.665625Q207.98438 26.665625 208.39062 26.36875Q208.8125 26.05625 209.04688 25.4ZM205.59375 23.696875L209.0625 23.696875Q209.0 22.9 208.67188 22.509375Q208.15625 21.9 207.35938 21.9Q206.625 21.9 206.125 22.384375Q205.64062 22.86875 205.59375 23.696875ZM214.09375 26.4625L214.25 27.384375Q213.79688 27.478125 213.45312 27.478125Q212.875 27.478125 212.5625 27.30625Q212.25 27.11875 212.10938 26.821875Q211.98438 26.525 211.98438 25.571875L211.98438 21.99375L211.21875 21.99375L211.21875 21.18125L211.98438 21.18125L211.98438 19.634375L213.03125 19.009375L213.03125 21.18125L214.09375 21.18125L214.09375 21.99375L213.03125 21.99375L213.03125 25.634375Q213.03125 26.0875 213.07812 26.2125Q213.14062 26.3375 213.26562 26.415625Q213.39062 26.49375 213.625 26.49375Q213.8125 26.49375 214.09375 26.4625ZM217.09375 26.4625L217.25 27.384375Q216.79688 27.478125 216.45312 27.478125Q215.875 27.478125 215.5625 27.30625Q215.25 27.11875 215.10938 26.821875Q214.98438 26.525 214.98438 25.571875L214.98438 21.99375L214.21875 21.99375L214.21875 21.18125L214.98438 21.18125L214.98438 19.634375L216.03125 19.009375L216.03125 21.18125L217.09375 21.18125L217.09375 21.99375L216.03125 21.99375L216.03125 25.634375Q216.03125 26.0875 216.07812 26.2125Q216.14062 26.3375 216.26562 26.415625Q216.39062 26.49375 216.625 26.49375Q216.8125 26.49375 217.09375 26.4625ZM221.85938 26.634375Q221.26562 27.134375 220.71875 27.3375Q220.1875 27.540625 219.5625 27.540625Q218.53125 27.540625 217.98438 27.040625Q217.4375 26.540625 217.4375 25.759375Q217.4375 25.30625 217.64062 24.93125Q217.84375 24.540625 218.1875 24.321875Q218.53125 24.0875 218.95312 23.978125Q219.25 23.884375 219.89062 23.80625Q221.15625 23.665625 221.76562 23.446875Q221.76562 23.228125 221.76562 23.18125Q221.76562 22.525 221.46875 22.259375Q221.0625 21.915625 220.26562 21.915625Q219.53125 21.915625 219.17188 22.18125Q218.8125 22.43125 218.64062 23.0875L217.60938 22.946875Q217.75 22.290625 218.07812 21.884375Q218.40625 21.478125 219.01562 21.259375Q219.625 21.040625 220.42188 21.040625Q221.21875 21.040625 221.71875 21.228125Q222.21875 21.415625 222.45312 21.696875Q222.6875 21.978125 222.78125 22.415625Q222.82812 22.68125 222.82812 23.384375L222.82812 24.790625Q222.82812 26.259375 222.89062 26.65Q222.96875 27.040625 223.17188 27.4L222.0625 27.4Q221.90625 27.071875 221.85938 26.634375ZM221.76562 24.275Q221.1875 24.509375 220.04688 24.68125Q219.39062 24.775 219.125 24.9Q218.85938 25.009375 218.70312 25.228125Q218.5625 25.446875 218.5625 25.728125Q218.5625 26.15 218.875 26.43125Q219.20312 26.7125 219.8125 26.7125Q220.42188 26.7125 220.89062 26.446875Q221.375 26.18125 221.59375 25.7125Q221.76562 25.353125 221.76562 24.665625L221.76562 24.275ZM225.76562 27.4L224.78125 27.4L224.78125 18.80625L225.84375 18.80625L225.84375 21.86875Q226.51562 21.040625 227.54688 21.040625Q228.125 21.040625 228.625 21.275Q229.14062 21.49375 229.46875 21.915625Q229.8125 22.3375 230.0 22.93125Q230.1875 23.525 230.1875 24.196875Q230.1875 25.790625 229.39062 26.665625Q228.59375 27.540625 227.5 27.540625Q226.39062 27.540625 225.76562 26.61875L225.76562 27.4ZM225.75 24.24375Q225.75 25.353125 226.0625 25.853125Q226.5625 26.665625 227.40625 26.665625Q228.09375 26.665625 228.59375 26.071875Q229.10938 25.478125 229.10938 24.275Q229.10938 23.05625 228.625 22.478125Q228.14062 21.9 227.45312 21.9Q226.76562 21.9 226.25 22.509375Q225.75 23.103125 225.75 24.24375ZM231.79688 20.025L231.79688 18.80625L232.85938 18.80625L232.85938 20.025L231.79688 20.025ZM231.79688 27.4L231.79688 21.18125L232.85938 21.18125L232.85938 27.4L231.79688 27.4ZM234.76562 27.4L234.76562 18.80625L235.82812 18.80625L235.82812 27.4L234.76562 27.4ZM242.04688 25.4L243.14062 25.525Q242.89062 26.478125 242.1875 27.009375Q241.48438 27.540625 240.40625 27.540625Q239.04688 27.540625 238.23438 26.696875Q237.4375 25.853125 237.4375 24.3375Q237.4375 22.775 238.25 21.915625Q239.0625 21.040625 240.34375 21.040625Q241.59375 21.040625 242.375 21.884375Q243.17188 22.728125 243.17188 24.275Q243.17188 24.36875 243.17188 24.55625L238.53125 24.55625Q238.59375 25.5875 239.10938 26.134375Q239.625 26.665625 240.40625 26.665625Q240.98438 26.665625 241.39062 26.36875Q241.8125 26.05625 242.04688 25.4ZM238.59375 23.696875L242.0625 23.696875Q242.0 22.9 241.67188 22.509375Q241.15625 21.9 240.35938 21.9Q239.625 21.9 239.125 22.384375Q238.64062 22.86875 238.59375 23.696875Z" fill-rule="nonzero"/><path fill="#fbbc04" fill-opacity="0.5019608" d="M272.0 23.4C272.0 26.713709 269.31372 29.4 266.0 29.4C262.68628 29.4 260.0 26.713709 260.0 23.4C260.0 20.086292 262.68628 17.4 266.0 17.4C269.31372 17.4 272.0 20.086292 272.0 23.4Z" fill-rule="nonzero"/><path fill="#1a1a1a" d="M284.95312 24.025L284.95312 23.025L288.57812 23.009375L288.57812 26.196875Q287.75 26.86875 286.85938 27.2125Q285.96875 27.540625 285.03125 27.540625Q283.76562 27.540625 282.71875 27.009375Q281.6875 26.4625 281.15625 25.446875Q280.64062 24.415625 280.64062 23.15Q280.64062 21.884375 281.15625 20.80625Q281.6875 19.7125 282.67188 19.196875Q283.65625 18.665625 284.9375 18.665625Q285.875 18.665625 286.625 18.9625Q287.375 19.259375 287.79688 19.80625Q288.23438 20.3375 288.45312 21.2125L287.4375 21.49375Q287.23438 20.8375 286.9375 20.4625Q286.65625 20.0875 286.125 19.86875Q285.59375 19.634375 284.95312 19.634375Q284.17188 19.634375 283.59375 19.86875Q283.03125 20.103125 282.67188 20.49375Q282.32812 20.884375 282.14062 21.353125Q281.8125 22.15 281.8125 23.071875Q281.8125 24.228125 282.20312 25.009375Q282.60938 25.775 283.35938 26.15Q284.10938 26.525 284.96875 26.525Q285.70312 26.525 286.40625 26.24375Q287.10938 25.946875 287.46875 25.634375L287.46875 24.025L284.95312 24.025ZM289.76562 27.4L289.76562 18.80625L290.82812 18.80625L290.82812 27.4L289.76562 27.4ZM292.40625 24.290625Q292.40625 22.55625 293.35938 21.728125Q294.15625 21.040625 295.3125 21.040625Q296.59375 21.040625 297.40625 21.884375Q298.23438 22.7125 298.23438 24.196875Q298.23438 25.4 297.875 26.0875Q297.51562 26.775 296.8125 27.165625Q296.125 27.540625 295.3125 27.540625Q294.01562 27.540625 293.20312 26.7125Q292.40625 25.86875 292.40625 24.290625ZM293.48438 24.290625Q293.48438 25.478125 294.0 26.071875Q294.53125 26.665625 295.3125 26.665625Q296.10938 26.665625 296.625 26.071875Q297.14062 25.478125 297.14062 24.259375Q297.14062 23.103125 296.60938 22.509375Q296.09375 21.915625 295.3125 21.915625Q294.53125 21.915625 294.0 22.509375Q293.48438 23.0875 293.48438 24.290625ZM299.375 25.540625L300.40625 25.384375Q300.5 26.009375 300.89062 26.3375Q301.29688 26.665625 302.03125 26.665625Q302.75 26.665625 303.09375 26.384375Q303.45312 26.0875 303.45312 25.68125Q303.45312 25.321875 303.14062 25.11875Q302.92188 24.978125 302.0625 24.759375Q300.90625 24.4625 300.45312 24.259375Q300.01562 24.040625 299.78125 23.665625Q299.54688 23.290625 299.54688 22.821875Q299.54688 22.415625 299.73438 22.05625Q299.92188 21.696875 300.25 21.4625Q300.5 21.290625 300.92188 21.165625Q301.34375 21.040625 301.84375 21.040625Q302.5625 21.040625 303.10938 21.259375Q303.67188 21.4625 303.9375 21.821875Q304.20312 22.18125 304.29688 22.775L303.26562 22.915625Q303.20312 22.446875 302.85938 22.18125Q302.53125 21.9 301.90625 21.9Q301.1875 21.9 300.875 22.15Q300.5625 22.384375 300.5625 22.7125Q300.5625 22.915625 300.6875 23.071875Q300.82812 23.24375 301.09375 23.353125Q301.25 23.415625 302.03125 23.61875Q303.15625 23.93125 303.59375 24.11875Q304.03125 24.30625 304.28125 24.665625Q304.53125 25.025 304.53125 25.571875Q304.53125 26.103125 304.21875 26.571875Q303.92188 27.025 303.34375 27.290625Q302.76562 27.540625 302.03125 27.540625Q300.8125 27.540625 300.17188 27.040625Q299.54688 26.525 299.375 25.540625ZM306.375 25.540625L307.40625 25.384375Q307.5 26.009375 307.89062 26.3375Q308.29688 26.665625 309.03125 26.665625Q309.75 26.665625 310.09375 26.384375Q310.45312 26.0875 310.45312 25.68125Q310.45312 25.321875 310.14062 25.11875Q309.92188 24.978125 309.0625 24.759375Q307.90625 24.4625 307.45312 24.259375Q307.01562 24.040625 306.78125 23.665625Q306.54688 23.290625 306.54688 22.821875Q306.54688 22.415625 306.73438 22.05625Q306.92188 21.696875 307.25 21.4625Q307.5 21.290625 307.92188 21.165625Q308.34375 21.040625 308.84375 21.040625Q309.5625 21.040625 310.10938 21.259375Q310.67188 21.4625 310.9375 21.821875Q311.20312 22.18125 311.29688 22.775L310.26562 22.915625Q310.20312 22.446875 309.85938 22.18125Q309.53125 21.9 308.90625 21.9Q308.1875 21.9 307.875 22.15Q307.5625 22.384375 307.5625 22.7125Q307.5625 22.915625 307.6875 23.071875Q307.82812 23.24375 308.09375 23.353125Q308.25 23.415625 309.03125 23.61875Q310.15625 23.93125 310.59375 24.11875Q311.03125 24.30625 311.28125 24.665625Q311.53125 25.025 311.53125 25.571875Q311.53125 26.103125 311.21875 26.571875Q310.92188 27.025 310.34375 27.290625Q309.76562 27.540625 309.03125 27.540625Q307.8125 27.540625 307.17188 27.040625Q306.54688 26.525 306.375 25.540625ZM317.85938 26.634375Q317.26562 27.134375 316.71875 27.3375Q316.1875 27.540625 315.5625 27.540625Q314.53125 27.540625 313.98438 27.040625Q313.4375 26.540625 313.4375 25.759375Q313.4375 25.30625 313.64062 24.93125Q313.84375 24.540625 314.1875 24.321875Q314.53125 24.0875 314.95312 23.978125Q315.25 23.884375 315.89062 23.80625Q317.15625 23.665625 317.76562 23.446875Q317.76562 23.228125 317.76562 23.18125Q317.76562 22.525 317.46875 22.259375Q317.0625 21.915625 316.26562 21.915625Q315.53125 21.915625 315.17188 22.18125Q314.8125 22.43125 314.64062 23.0875L313.60938 22.946875Q313.75 22.290625 314.07812 21.884375Q314.40625 21.478125 315.01562 21.259375Q315.625 21.040625 316.42188 21.040625Q317.21875 21.040625 317.71875 21.228125Q318.21875 21.415625 318.45312 21.696875Q318.6875 21.978125 318.78125 22.415625Q318.82812 22.68125 318.82812 23.384375L318.82812 24.790625Q318.82812 26.259375 318.89062 26.65Q318.96875 27.040625 319.17188 27.4L318.0625 27.4Q317.90625 27.071875 317.85938 26.634375ZM317.76562 24.275Q317.1875 24.509375 316.04688 24.68125Q315.39062 24.775 315.125 24.9Q314.85938 25.009375 314.70312 25.228125Q314.5625 25.446875 314.5625 25.728125Q314.5625 26.15 314.875 26.43125Q315.20312 26.7125 315.8125 26.7125Q316.42188 26.7125 316.89062 26.446875Q317.375 26.18125 317.59375 25.7125Q317.76562 25.353125 317.76562 24.665625L317.76562 24.275ZM320.78125 27.4L320.78125 21.18125L321.73438 21.18125L321.73438 22.11875Q322.09375 21.4625 322.39062 21.259375Q322.70312 21.040625 323.07812 21.040625Q323.60938 21.040625 324.15625 21.36875L323.79688 22.353125Q323.40625 22.11875 323.03125 22.11875Q322.67188 22.11875 322.39062 22.3375Q322.125 22.540625 322.01562 22.915625Q321.82812 23.478125 321.82812 24.134375L321.82812 27.4L320.78125 27.4ZM324.79688 20.025L324.79688 18.80625L325.85938 18.80625L325.85938 20.025L324.79688 20.025ZM324.79688 27.4L324.79688 21.18125L325.85938 21.18125L325.85938 27.4L324.79688 27.4ZM327.40625 24.290625Q327.40625 22.55625 328.35938 21.728125Q329.15625 21.040625 330.3125 21.040625Q331.59375 21.040625 332.40625 21.884375Q333.23438 22.7125 333.23438 24.196875Q333.23438 25.4 332.875 26.0875Q332.51562 26.775 331.8125 27.165625Q331.125 27.540625 330.3125 27.540625Q329.01562 27.540625 328.20312 26.7125Q327.40625 25.86875 327.40625 24.290625ZM328.48438 24.290625Q328.48438 25.478125 329.0 26.071875Q329.53125 26.665625 330.3125 26.665625Q331.10938 26.665625 331.625 26.071875Q332.14062 25.478125 332.14062 24.259375Q332.14062 23.103125 331.60938 22.509375Q331.09375 21.915625 330.3125 21.915625Q329.53125 21.915625 329.0 22.509375Q328.48438 23.0875 328.48438 24.290625Z" fill-rule="nonzero"/><path fill="#34a853" fill-opacity="0.5019608" d="M362.0 23.4C362.0 26.713709 359.31372 29.4 356.0 29.4C352.68628 29.4 350.0 26.713709 350.0 23.4C350.0 20.086292 352.68628 17.4 356.0 17.4C359.31372 17.4 362.0 20.086292 362.0 23.4Z" fill-rule="nonzero"/><path fill="#1a1a1a" d="M370.92188 27.4L370.92188 18.80625L372.07812 18.80625L376.59375 25.55625L376.59375 18.80625L377.6875 18.80625L377.6875 27.4L376.51562 27.4L372.0 20.65L372.0 27.4L370.92188 27.4ZM383.82812 27.4L383.82812 26.61875Q383.23438 27.540625 382.09375 27.540625Q381.34375 27.540625 380.71875 27.134375Q380.09375 26.7125 379.75 25.978125Q379.40625 25.24375 379.40625 24.290625Q379.40625 23.36875 379.71875 22.603125Q380.03125 21.8375 380.65625 21.446875Q381.28125 21.040625 382.04688 21.040625Q382.60938 21.040625 383.04688 21.275Q383.48438 21.509375 383.76562 21.884375L383.76562 18.80625L384.8125 18.80625L384.8125 27.4L383.82812 27.4ZM380.5 24.290625Q380.5 25.49375 381.0 26.0875Q381.5 26.665625 382.1875 26.665625Q382.875 26.665625 383.35938 26.103125Q383.84375 25.540625 383.84375 24.384375Q383.84375 23.103125 383.34375 22.509375Q382.85938 21.915625 382.14062 21.915625Q381.4375 21.915625 380.96875 22.49375Q380.5 23.05625 380.5 24.290625ZM386.92188 27.4L386.92188 18.80625L390.17188 18.80625Q391.01562 18.80625 391.46875 18.884375Q392.10938 18.99375 392.53125 19.290625Q392.96875 19.5875 393.21875 20.11875Q393.48438 20.65 393.48438 21.290625Q393.48438 22.384375 392.78125 23.15Q392.09375 23.9 390.26562 23.9L388.0625 23.9L388.0625 27.4L386.92188 27.4ZM388.0625 22.9L390.28125 22.9Q391.39062 22.9 391.84375 22.49375Q392.3125 22.071875 392.3125 21.321875Q392.3125 20.790625 392.03125 20.415625Q391.76562 20.025 391.32812 19.9Q391.03125 19.821875 390.26562 19.821875L388.0625 19.821875L388.0625 22.9Z" fill-rule="nonzero"/><path fill="#ff6d01" fill-opacity="0.5019608" d="M422.0 23.4C422.0 26.713709 419.31372 29.4 416.0 29.4C412.68628 29.4 410.0 26.713709 410.0 23.4C410.0 20.086292 412.68628 17.4 416.0 17.4C419.31372 17.4 422.0 20.086292 422.0 23.4Z" fill-rule="nonzero"/><path fill="#1a1a1a" d="M430.92188 27.4L430.92188 18.80625L434.17188 18.80625Q435.01562 18.80625 435.46875 18.884375Q436.10938 18.99375 436.53125 19.290625Q436.96875 19.5875 437.21875 20.11875Q437.48438 20.65 437.48438 21.290625Q437.48438 22.384375 436.78125 23.15Q436.09375 23.9 434.26562 23.9L432.0625 23.9L432.0625 27.4L430.92188 27.4ZM432.0625 22.9L434.28125 22.9Q435.39062 22.9 435.84375 22.49375Q436.3125 22.071875 436.3125 21.321875Q436.3125 20.790625 436.03125 20.415625Q435.76562 20.025 435.32812 19.9Q435.03125 19.821875 434.26562 19.821875L432.0625 19.821875L432.0625 22.9ZM442.82812 27.4L442.82812 26.61875Q442.23438 27.540625 441.09375 27.540625Q440.34375 27.540625 439.71875 27.134375Q439.09375 26.7125 438.75 25.978125Q438.40625 25.24375 438.40625 24.290625Q438.40625 23.36875 438.71875 22.603125Q439.03125 21.8375 439.65625 21.446875Q440.28125 21.040625 441.04688 21.040625Q441.60938 21.040625 442.04688 21.275Q442.48438 21.509375 442.76562 21.884375L442.76562 18.80625L443.8125 18.80625L443.8125 27.4L442.82812 27.4ZM439.5 24.290625Q439.5 25.49375 440.0 26.0875Q440.5 26.665625 441.1875 26.665625Q441.875 26.665625 442.35938 26.103125Q442.84375 25.540625 442.84375 24.384375Q442.84375 23.103125 442.34375 22.509375Q441.85938 21.915625 441.14062 21.915625Q440.4375 21.915625 439.96875 22.49375Q439.5 23.05625 439.5 24.290625ZM452.4375 26.478125Q453.23438 27.025 453.89062 27.275L453.5625 28.071875Q452.64062 27.728125 451.71875 27.009375Q450.76562 27.540625 449.60938 27.540625Q448.4375 27.540625 447.48438 26.978125Q446.54688 26.415625 446.03125 25.4Q445.51562 24.384375 445.51562 23.103125Q445.51562 21.8375 446.03125 20.790625Q446.54688 19.74375 447.5 19.196875Q448.45312 18.65 449.625 18.65Q450.8125 18.65 451.76562 19.228125Q452.73438 19.790625 453.23438 20.80625Q453.73438 21.821875 453.73438 23.103125Q453.73438 24.165625 453.40625 25.009375Q453.09375 25.853125 452.4375 26.478125ZM449.9375 25.025Q450.92188 25.30625 451.5625 25.853125Q452.5625 24.93125 452.5625 23.103125Q452.5625 22.05625 452.20312 21.275Q451.84375 20.49375 451.15625 20.071875Q450.48438 19.634375 449.64062 19.634375Q448.35938 19.634375 447.51562 20.509375Q446.6875 21.36875 446.6875 23.103125Q446.6875 24.775 447.51562 25.68125Q448.34375 26.571875 449.64062 26.571875Q450.25 26.571875 450.78125 26.3375Q450.25 25.99375 449.65625 25.853125L449.9375 25.025Z" fill-rule="nonzero"/><path fill="#46bdc6" fill-opacity="0.5019608" d="M482.0 23.4C482.0 26.713709 479.31372 29.4 476.0 29.4C472.68628 29.4 470.0 26.713709 470.0 23.4C470.0 20.086292 472.68628 17.4 476.0 17.4C479.31372 17.4 482.0 20.086292 482.0 23.4Z" fill-rule="nonzero"/><path fill="#1a1a1a" d="M489.98438 27.4L493.28125 18.80625L494.5 18.80625L498.01562 27.4L496.73438 27.4L495.71875 24.790625L492.14062 24.790625L491.1875 27.4L489.98438 27.4ZM492.46875 23.86875L495.375 23.86875L494.48438 21.49375Q494.0625 20.415625 493.875 19.7125Q493.70312 20.540625 493.40625 21.353125L492.46875 23.86875ZM501.82812 27.4L501.82812 26.61875Q501.23438 27.540625 500.09375 27.540625Q499.34375 27.540625 498.71875 27.134375Q498.09375 26.7125 497.75 25.978125Q497.40625 25.24375 497.40625 24.290625Q497.40625 23.36875 497.71875 22.603125Q498.03125 21.8375 498.65625 21.446875Q499.28125 21.040625 500.04688 21.040625Q500.60938 21.040625 501.04688 21.275Q501.48438 21.509375 501.76562 21.884375L501.76562 18.80625L502.8125 18.80625L502.8125 27.4L501.82812 27.4ZM498.5 24.290625Q498.5 25.49375 499.0 26.0875Q499.5 26.665625 500.1875 26.665625Q500.875 26.665625 501.35938 26.103125Q501.84375 25.540625 501.84375 24.384375Q501.84375 23.103125 501.34375 22.509375Q500.85938 21.915625 500.14062 21.915625Q499.4375 21.915625 498.96875 22.49375Q498.5 23.05625 498.5 24.290625ZM504.9375 27.4L504.9375 18.80625L508.75 18.80625Q509.90625 18.80625 510.5 19.040625Q511.09375 19.275 511.45312 19.86875Q511.8125 20.446875 511.8125 21.15Q511.8125 22.071875 511.21875 22.696875Q510.625 23.321875 509.39062 23.49375Q509.84375 23.7125 510.07812 23.915625Q510.57812 24.36875 511.01562 25.05625L512.5156 27.4L511.07812 27.4L509.95312 25.61875Q509.45312 24.8375 509.125 24.43125Q508.8125 24.025 508.54688 23.86875Q508.29688 23.696875 508.03125 23.61875Q507.84375 23.5875 507.40625 23.5875L506.07812 23.5875L506.07812 27.4L504.9375 27.4ZM506.07812 22.603125L508.53125 22.603125Q509.29688 22.603125 509.73438 22.446875Q510.1875 22.275 510.40625 21.93125Q510.64062 21.571875 510.64062 21.15Q510.64062 20.540625 510.1875 20.15Q509.75 19.759375 508.79688 19.759375L506.07812 19.759375L506.07812 22.603125Z" fill-rule="nonzero"/></svg>