<svg version="1.1" viewBox="0.0 0.0 532.0 328.0" fill="none" stroke="none" stroke-linecap="square" stroke-miterlimit="10" width="532" height="328" xmlns:xlink="http://www.w3.org/1999/xlink" xmlns="http://www.w3.org/2000/svg"><path fill="#ffffff" d="M0 0L532.0 0L532.0 328.0L0 328.0L0 0Z" fill-rule="nonzero"/><path stroke="#333333" stroke-width="1.0" stroke-linecap="butt" d="M81.5 285.5L515.5 285.5" fill-rule="nonzero"/><path stroke="#cccccc" stroke-width="1.0" stroke-linecap="butt" d="M81.5 246.5L515.5 246.5" fill-rule="nonzero"/><path stroke="#cccccc" stroke-width="1.0" stroke-linecap="butt" d="M81.5 206.5L515.5 206.5" fill-rule="nonzero"/><path stroke="#cccccc" stroke-width="1.0" stroke-linecap="butt" d="M81.5 166.5L515.5 166.5" fill-rule="nonzero"/><path stroke="#cccccc" stroke-width="1.0" stroke-linecap="butt" d="M81.5 127.5L515.5 127.5" fill-rule="nonzero"/><path stroke="#cccccc" stroke-width="1.0" stroke-linecap="butt" d="M81.5 87.5L515.5 87.5" fill-rule="nonzero"/><path stroke="#cccccc" stroke-width="1.0" stroke-linecap="butt" d="M81.5 48.5L515.5 48.5" fill-rule="nonzero"/><path stroke="#000000" stroke-width="1.0" stroke-linecap="butt" d="M515.5 285.5L81.5 285.5" fill-rule="nonzero"/><path stroke="#000000" stroke-width="1.0" stroke-linecap="butt" d="M81.5 285.5L81.5 48.5" fill-rule="nonzero"/><clipPath id="id_0"><path d="M81.4 48.333332L515.6 48.333332L515.6 285.6L81.4 285.6L81.4 48.333332Z" clip-rule="nonzero"/></clipPath><path stroke="#4285f4" stroke-width="4.0" stroke-linecap="butt" clip-path="url(#id_0)" d="M124.82 285.6C124.82 285.6 182.71333 285.6 211.66 285.6C240.60667 285.6 269.55334 285.6 298.5 285.6C327.44666 285.6 356.39334 285.6 385.34 285.6C414.28665 285.6 472.18 285.6 472.18 285.6" fill-rule="nonzero"/><path stroke="#ea4335" stroke-width="2.0" stroke-linecap="butt" clip-path="url(#id_0)" d="M124.82 127.422226C124.82 127.422226 182.71333 127.422226 211.66 127.422226C240.60667 127.422226 269.55334 127.422226 298.5 127.422226C327.44666 127.422226 356.39334 127.422226 385.34 127.422226C414.28665 127.422226 472.18 127.422226 472.18 127.422226" fill-rule="nonzero"/><path stroke="#fbbc04" stroke-width="2.0" stroke-linecap="butt" stroke-opacity="0.7019608" clip-path="url(#id_0)" d="M124.82 206.51111C124.82 206.51111 182.71333 285.6 211.66 285.6C240.60667 285.6 269.55334 206.51111 298.5 206.51111C327.44666 206.51111 356.39334 272.41852 385.34 285.6C414.28665 298.7815 472.18 285.6 472.18 285.6" fill-rule="nonzero"/><path stroke="#34a853" stroke-width="2.0" stroke-linecap="butt" clip-path="url(#id_0)" d="M124.82 285.6C124.82 285.6 182.71333 298.7815 211.66 285.6C240.60667 272.41852 269.55334 219.6926 298.5 206.51111C327.44666 193.32964 356.39334 193.32964 385.34 206.51111C414.28665 219.6926 472.18 285.6 472.18 285.6" fill-rule="nonzero"/><path stroke="#ff6d01" stroke-width="2.0" stroke-linecap="butt" clip-path="url(#id_0)" d="M124.82 285.6C124.82 285.6 182.71333 298.7815 211.66 285.6C240.60667 272.41852 269.55334 206.51111 298.5 206.51111C327.44666 206.51111 356.39334 272.41852 385.34 285.6C414.28665 298.7815 472.18 285.6 472.18 285.6" fill-rule="nonzero"/><path stroke="#46bdc6" stroke-width="2.0" stroke-linecap="butt" clip-path="url(#id_0)" d="M124.82 285.6C124.82 285.6 182.71333 219.6926 211.66 206.51111C240.60667 193.32964 269.55334 193.32964 298.5 206.51111C327.44666 219.6926 356.39334 272.41852 385.34 285.6C414.28665 298.7815 472.18 285.6 472.18 285.6" fill-rule="nonzero"/><path fill="#4285f4" clip-path="url(#id_0)" d="M128.32 285.6C128.32 287.533 126.753 289.1 124.82 289.1C122.887 289.1 121.32 287.533 121.32 285.6C121.32 283.667 122.887 282.1 124.82 282.1C126.753 282.1 128.32 283.667 128.32 285.6Z" fill-rule="nonzero"/><path fill="#4285f4" clip-path="url(#id_0)" d="M215.16 285.6C215.16 287.533 213.593 289.1 211.66 289.1C209.727 289.1 208.16 287.533 208.16 285.6C208.16 283.667 209.727 282.1 211.66 282.1C213.593 282.1 215.16 283.667 215.16 285.6Z" fill-rule="nonzero"/><path fill="#4285f4" clip-path="url(#id_0)" d="M302.0 285.6C302.0 287.533 300.43298 289.1 298.5 289.1C296.56702 289.1 295.0 287.533 295.0 285.6C295.0 283.667 296.56702 282.1 298.5 282.1C300.43298 282.1 302.0 283.667 302.0 285.6Z" fill-rule="nonzero"/><path fill="#4285f4" clip-path="url(#id_0)" d="M388.84 285.6C388.84 287.533 387.273 289.1 385.34 289.1C383.407 289.1 381.84 287.533 381.84 285.6C381.84 283.667 383.407 282.1 385.34 282.1C387.273 282.1 388.84 283.667 388.84 285.6Z" fill-rule="nonzero"/><path fill="#4285f4" clip-path="url(#id_0)" d="M475.68 285.6C475.68 287.533 474.113 289.1 472.18 289.1C470.247 289.1 468.68 287.533 468.68 285.6C468.68 283.667 470.247 282.1 472.18 282.1C474.113 282.1 475.68 283.667 475.68 285.6Z" fill-rule="nonzero"/><path fill="#ea4335" clip-path="url(#id_0)" d="M128.32 127.422226C128.32 129.35522 126.753 130.92223 124.82 130.92223C122.887 130.92223 121.32 129.35522 121.32 127.422226C121.32 125.48923 122.887 123.922226 124.82 123.922226C126.753 123.922226 128.32 125.48923 128.32 127.422226Z" fill-rule="nonzero"/><path fill="#ea4335" clip-path="url(#id_0)" d="M215.16 127.422226C215.16 129.35522 213.593 130.92223 211.66 130.92223C209.727 130.92223 208.16 129.35522 208.16 127.422226C208.16 125.48923 209.727 123.922226 211.66 123.922226C213.593 123.922226 215.16 125.48923 215.16 127.422226Z" fill-rule="nonzero"/><path fill="#ea4335" clip-path="url(#id_0)" d="M302.0 127.422226C302.0 129.35522 300.43298 130.92223 298.5 130.92223C296.56702 130.92223 295.0 129.35522 295.0 127.422226C295.0 125.48923 296.56702 123.922226 298.5 123.922226C300.43298 123.922226 302.0 125.48923 302.0 127.422226Z" fill-rule="nonzero"/><path fill="#ea4335" clip-path="url(#id_0)" d="M388.84 127.422226C388.84 129.35522 387.273 130.92223 385.34 130.92223C383.407 130.92223 381.84 129.35522 381.84 127.422226C381.84 125.48923 383.407 123.922226 385.34 123.922226C387.273 123.922226 388.84 125.48923 388.84 127.422226Z" fill-rule="nonzero"/><path fill="#ea4335" clip-path="url(#id_0)" d="M475.68 127.422226C475.68 129.35522 474.113 130.92223 472.18 130.92223C470.247 130.92223 468.68 129.35522 468.68 127.422226C468.68 125.48923 470.247 123.922226 472.18 123.922226C474.113 123.922226 475.68 125.48923 475.68 127.422226Z" fill-rule="nonzero"/><path fill="#fbbc04" fill-opacity="0.7019608" clip-path="url(#id_0)" d="M128.32 206.51111C128.32 208.4441 126.753 210.01111 124.82 210.01111C122.887 210.01111 121.32 208.4441 121.32 206.51111C121.32 204.57811 122.887 203.01111 124.82 203.01111C126.753 203.01111 128.32 204.57811 128.32 206.51111Z" fill-rule="nonzero"/><path fill="#fbbc04" fill-opacity="0.7019608" clip-path="url(#id_0)" d="M215.16 285.6C215.16 287.533 213.593 289.1 211.66 289.1C209.727 289.1 208.16 287.533 208.16 285.6C208.16 283.667 209.727 282.1 211.66 282.1C213.593 282.1 215.16 283.667 215.16 285.6Z" fill-rule="nonzero"/><path fill="#fbbc04" fill-opacity="0.7019608" clip-path="url(#id_0)" d="M302.0 206.51111C302.0 208.4441 300.43298 210.01111 298.5 210.01111C296.56702 210.01111 295.0 208.4441 295.0 206.51111C295.0 204.57811 296.56702 203.01111 298.5 203.01111C300.43298 203.01111 302.0 204.57811 302.0 206.51111Z" fill-rule="nonzero"/><path fill="#fbbc04" fill-opacity="0.7019608" clip-path="url(#id_0)" d="M388.84 285.6C388.84 287.533 387.273 289.1 385.34 289.1C383.407 289.1 381.84 287.533 381.84 285.6C381.84 283.667 383.407 282.1 385.34 282.1C387.273 282.1 388.84 283.667 388.84 285.6Z" fill-rule="nonzero"/><path fill="#fbbc04" fill-opacity="0.7019608" clip-path="url(#id_0)" d="M475.68 285.6C475.68 287.533 474.113 289.1 472.18 289.1C470.247 289.1 468.68 287.533 468.68 285.6C468.68 283.667 470.247 282.1 472.18 282.1C474.113 282.1 475.68 283.667 475.68 285.6Z" fill-rule="nonzero"/><path fill="#34a853" clip-path="url(#id_0)" d="M128.32 285.6C128.32 287.533 126.753 289.1 124.82 289.1C122.887 289.1 121.32 287.533 121.32 285.6C121.32 283.667 122.887 282.1 124.82 282.1C126.753 282.1 128.32 283.667 128.32 285.6Z" fill-rule="nonzero"/><path fill="#34a853" clip-path="url(#id_0)" d="M215.16 285.6C215.16 287.533 213.593 289.1 211.66 289.1C209.727 289.1 208.16 287.533 208.16 285.6C208.16 283.667 209.727 282.1 211.66 282.1C213.593 282.1 215.16 283.667 215.16 285.6Z" fill-rule="nonzero"/><path fill="#34a853" clip-path="url(#id_0)" d="M302.0 206.51111C302.0 208.4441 300.43298 210.01111 298.5 210.01111C296.56702 210.01111 295.0 208.4441 295.0 206.51111C295.0 204.57811 296.56702 203.01111 298.5 203.01111C300.43298 203.01111 302.0 204.57811 302.0 206.51111Z" fill-rule="nonzero"/><path fill="#34a853" clip-path="url(#id_0)" d="M388.84 206.51111C388.84 208.4441 387.273 210.01111 385.34 210.01111C383.407 210.01111 381.84 208.4441 381.84 206.51111C381.84 204.57811 383.407 203.01111 385.34 203.01111C387.273 203.01111 388.84 204.57811 388.84 206.51111Z" fill-rule="nonzero"/><path fill="#34a853" clip-path="url(#id_0)" d="M475.68 285.6C475.68 287.533 474.113 289.1 472.18 289.1C470.247 289.1 468.68 287.533 468.68 285.6C468.68 283.667 470.247 282.1 472.18 282.1C474.113 282.1 475.68 283.667 475.68 285.6Z" fill-rule="nonzero"/><path fill="#ff6d01" clip-path="url(#id_0)" d="M128.32 285.6C128.32 287.533 126.753 289.1 124.82 289.1C122.887 289.1 121.32 287.533 121.32 285.6C121.32 283.667 122.887 282.1 124.82 282.1C126.753 282.1 128.32 283.667 128.32 285.6Z" fill-rule="nonzero"/><path fill="#ff6d01" clip-path="url(#id_0)" d="M215.16 285.6C215.16 287.533 213.593 289.1 211.66 289.1C209.727 289.1 208.16 287.533 208.16 285.6C208.16 283.667 209.727 282.1 211.66 282.1C213.593 282.1 215.16 283.667 215.16 285.6Z" fill-rule="nonzero"/><path fill="#ff6d01" clip-path="url(#id_0)" d="M302.0 206.51111C302.0 208.4441 300.43298 210.01111 298.5 210.01111C296.56702 210.01111 295.0 208.4441 295.0 206.51111C295.0 204.57811 296.56702 203.01111 298.5 203.01111C300.43298 203.01111 302.0 204.57811 302.0 206.51111Z" fill-rule="nonzero"/><path fill="#ff6d01" clip-path="url(#id_0)" d="M388.84 285.6C388.84 287.533 387.273 289.1 385.34 289.1C383.407 289.1 381.84 287.533 381.84 285.6C381.84 283.667 383.407 282.1 385.34 282.1C387.273 282.1 388.84 283.667 388.84 285.6Z" fill-rule="nonzero"/><path fill="#ff6d01" clip-path="url(#id_0)" d="M475.68 285.6C475.68 287.533 474.113 289.1 472.18 289.1C470.247 289.1 468.68 287.533 468.68 285.6C468.68 283.667 470.247 282.1 472.18 282.1C474.113 282.1 475.68 283.667 475.68 285.6Z" fill-rule="nonzero"/><path fill="#46bdc6" clip-path="url(#id_0)" d="M128.32 285.6C128.32 287.533 126.753 289.1 124.82 289.1C122.887 289.1 121.32 287.533 121.32 285.6C121.32 283.667 122.887 282.1 124.82 282.1C126.753 282.1 128.32 283.667 128.32 285.6Z" fill-rule="nonzero"/><path fill="#46bdc6" clip-path="url(#id_0)" d="M215.16 206.51111C215.16 208.4441 213.593 210.01111 211.66 210.01111C209.727 210.01111 208.16 208.4441 208.16 206.51111C208.16 204.57811 209.727 203.01111 211.66 203.01111C213.593 203.01111 215.16 204.57811 215.16 206.51111Z" fill-rule="nonzero"/><path fill="#46bdc6" clip-path="url(#id_0)" d="M302.0 206.51111C302.0 208.4441 300.43298 210.01111 298.5 210.01111C296.56702 210.01111 295.0 208.4441 295.0 206.51111C295.0 204.57811 296.56702 203.01111 298.5 203.01111C300.43298 203.01111 302.0 204.57811 302.0 206.51111Z" fill-rule="nonzero"/><path fill="#46bdc6" clip-path="url(#id_0)" d="M388.84 285.6C388.84 287.533 387.273 289.1 385.34 289.1C383.407 289.1 381.84 287.533 381.84 285.6C381.84 283.667 383.407 282.1 385.34 282.1C387.273 282.1 388.84 283.667 388.84 285.6Z" fill-rule="nonzero"/><path fill="#46bdc6" clip-path="url(#id_0)" d="M475.68 285.6C475.68 287.533 474.113 289.1 472.18 289.1C470.247 289.1 468.68 287.533 468.68 285.6C468.68 283.667 470.247 282.1 472.18 282.1C474.113 282.1 475.68 283.667 475.68 285.6Z" fill-rule="nonzero"/><path stroke="#000000" stroke-width="1.0" stroke-linecap="butt" d="M124.5 291.5L124.5 279.5" fill-rule="nonzero"/><path stroke="#000000" stroke-width="1.0" stroke-linecap="butt" d="M211.5 291.5L211.5 279.5" fill-rule="nonzero"/><path stroke="#000000" stroke-width="1.0" stroke-linecap="butt" d="M298.5 291.5L298.5 279.5" fill-rule="nonzero"/><path stroke="#000000" stroke-width="1.0" stroke-linecap="butt" d="M385.5 291.5L385.5 279.5" fill-rule="nonzero"/><path stroke="#000000" stroke-width="1.0" stroke-linecap="butt" d="M472.5 291.5L472.5 279.5" fill-rule="nonzero"/><path stroke="#000000" stroke-width="1.0" stroke-linecap="butt" d="M75.5 285.5L87.5 285.5" fill-rule="nonzero"/><path stroke="#000000" stroke-width="1.0" stroke-linecap="butt" d="M75.5 246.5L87.5 246.5" fill-rule="nonzero"/><path stroke="#000000" stroke-width="1.0" stroke-linecap="butt" d="M75.5 206.5L87.5 206.5" fill-rule="nonzero"/><path stroke="#000000" stroke-width="1.0" stroke-linecap="butt" d="M75.5 166.5L87.5 166.5" fill-rule="nonzero"/><path stroke="#000000" stroke-width="1.0" stroke-linecap="butt" d="M75.5 127.5L87.5 127.5" fill-rule="nonzero"/><path stroke="#000000" stroke-width="1.0" stroke-linecap="butt" d="M75.5 87.5L87.5 87.5" fill-rule="nonzero"/><path stroke="#000000" stroke-width="1.0" stroke-linecap="butt" d="M75.5 48.5L87.5 48.5" fill-rule="nonzero"/><path fill="#000000" d="M62.9 285.36563Q62.9 283.83438 63.2125 282.9125Q63.525 281.975 64.13438 281.475Q64.75938 280.975 65.69688 280.975Q66.38438 280.975 66.9 281.25626Q67.43125 281.5375 67.775 282.06876Q68.11875 282.58438 68.30625 283.33438Q68.49375 284.08438 68.49375 285.36563Q68.49375 286.88126 68.18125 287.80313Q67.88438 288.725 67.25938 289.24063Q66.65 289.74063 65.69688 289.74063Q64.4625 289.74063 63.74375 288.85Q62.9 287.7875 62.9 285.36563ZM63.978127 285.36563Q63.978127 287.475 64.47813 288.17813Q64.97813 288.88126 65.69688 288.88126Q66.43125 288.88126 66.91563 288.17813Q67.41563 287.475 67.41563 285.36563Q67.41563 283.24063 66.91563 282.55313Q66.43125 281.85 65.68125 281.85Q64.9625 281.85 64.525 282.45938Q63.978127 283.24063 63.978127 285.36563Z" fill-rule="nonzero"/><path fill="#000000" d="M52.9 245.82118Q52.9 244.28993 53.2125 243.36806Q53.525 242.43056 54.134377 241.93056Q54.759377 241.43056 55.696877 241.43056Q56.384377 241.43056 56.9 241.7118Q57.43125 241.99306 57.775 242.5243Q58.11875 243.03993 58.30625 243.78993Q58.49375 244.53993 58.49375 245.82118Q58.49375 247.3368 58.18125 248.25868Q57.884377 249.18056 57.259377 249.69618Q56.65 250.19618 55.696877 250.19618Q54.4625 250.19618 53.74375 249.30556Q52.9 248.24306 52.9 245.82118ZM53.978127 245.82118Q53.978127 247.93056 54.478127 248.63368Q54.978127 249.3368 55.696877 249.3368Q56.43125 249.3368 56.915627 248.63368Q57.415627 247.93056 57.415627 245.82118Q57.415627 243.69618 56.915627 243.00868Q56.43125 242.30556 55.68125 242.30556Q54.9625 242.30556 54.525 242.91493Q53.978127 243.69618 53.978127 245.82118ZM60.49375 250.05556L60.49375 248.85243L61.696877 248.85243L61.696877 250.05556L60.49375 250.05556ZM62.9 247.80556L64.00938 247.7118Q64.13438 248.5243 64.57188 248.93056Q65.025 249.3368 65.66563 249.3368Q66.41563 249.3368 66.94688 248.75868Q67.47813 248.18056 67.47813 247.24306Q67.47813 246.3368 66.9625 245.82118Q66.4625 245.28993 65.63438 245.28993Q65.13438 245.28993 64.7125 245.5243Q64.30625 245.75868 64.07188 246.11806L63.0875 245.99306L63.915627 241.5868L68.19688 241.5868L68.19688 242.5868L64.75938 242.5868L64.30625 244.8993Q65.07188 244.35243 65.91563 244.35243Q67.04063 244.35243 67.80625 245.13368Q68.5875 245.91493 68.5875 247.1493Q68.5875 248.30556 67.91563 249.16493Q67.0875 250.19618 65.66563 250.19618Q64.49375 250.19618 63.74375 249.53993Q63.009377 248.88368 62.9 247.80556Z" fill-rule="nonzero"/><path fill="#000000" d="M66.86875 210.51111L65.82188 210.51111L65.82188 203.79236Q65.43125 204.15173 64.80625 204.52673Q64.19688 204.88611 63.7125 205.05798L63.7125 204.04236Q64.5875 203.62048 65.24375 203.04236Q65.91563 202.44861 66.19688 201.88611L66.86875 201.88611L66.86875 210.51111Z" fill-rule="nonzero"/><path fill="#000000" d="M56.86875 170.96666L55.821877 170.96666L55.821877 164.24791Q55.43125 164.60728 54.80625 164.98228Q54.196877 165.34166 53.7125 165.51353L53.7125 164.49791Q54.5875 164.07603 55.24375 163.49791Q55.915627 162.90416 56.196877 162.34166L56.86875 162.34166L56.86875 170.96666ZM60.49375 170.96666L60.49375 169.76353L61.696877 169.76353L61.696877 170.96666L60.49375 170.96666ZM62.9 168.71666L64.00938 168.62291Q64.13438 169.43541 64.57188 169.84166Q65.025 170.24791 65.66563 170.24791Q66.41563 170.24791 66.94688 169.66978Q67.47813 169.09166 67.47813 168.15416Q67.47813 167.24791 66.9625 166.73228Q66.4625 166.20103 65.63438 166.20103Q65.13438 166.20103 64.7125 166.43541Q64.30625 166.66978 64.07188 167.02916L63.0875 166.90416L63.915627 162.49791L68.19688 162.49791L68.19688 163.49791L64.75938 163.49791L64.30625 165.81041Q65.07188 165.26353 65.91563 165.26353Q67.04063 165.26353 67.80625 166.04478Q68.5875 166.82603 68.5875 168.06041Q68.5875 169.21666 67.91563 170.07603Q67.0875 171.10728 65.66563 171.10728Q64.49375 171.10728 63.74375 170.45103Q63.009377 169.79478 62.9 168.71666Z" fill-rule="nonzero"/><path fill="#000000" d="M68.44688 130.4066L68.44688 131.42223L62.759377 131.42223Q62.759377 131.04723 62.884377 130.68785Q63.103127 130.10973 63.571877 129.54723Q64.05625 128.98473 64.9625 128.25035Q66.36875 127.0941 66.85313 126.422226Q67.35313 125.75035 67.35313 125.1566Q67.35313 124.5316 66.9 124.109726Q66.44688 123.672226 65.72813 123.672226Q64.9625 123.672226 64.50938 124.12535Q64.05625 124.578476 64.04063 125.390976L62.9625 125.2816Q63.071877 124.06285 63.790627 123.43785Q64.525 122.797226 65.75938 122.797226Q66.99375 122.797226 67.7125 123.484726Q68.43125 124.172226 68.43125 125.18785Q68.43125 125.703476 68.2125 126.203476Q68.00938 126.68785 67.50938 127.25035Q67.025 127.797226 65.9 128.75035Q64.94688 129.54723 64.66563 129.8441Q64.4 130.12535 64.22813 130.4066L68.44688 130.4066Z" fill-rule="nonzero"/><path fill="#000000" d="M58.446877 90.86215L58.446877 91.87778L52.759377 91.87778Q52.759377 91.50278 52.884377 91.1434Q53.103127 90.56528 53.571877 90.00278Q54.05625 89.44028 54.9625 88.7059Q56.36875 87.54965 56.853127 86.87778Q57.353127 86.2059 57.353127 85.61215Q57.353127 84.98715 56.9 84.56528Q56.446877 84.12778 55.728127 84.12778Q54.9625 84.12778 54.509377 84.5809Q54.05625 85.03403 54.040627 85.84653L52.9625 85.73715Q53.071877 84.5184 53.790627 83.8934Q54.525 83.25278 55.759377 83.25278Q56.99375 83.25278 57.7125 83.94028Q58.43125 84.62778 58.43125 85.6434Q58.43125 86.15903 58.2125 86.65903Q58.009377 87.1434 57.509377 87.7059Q57.025 88.25278 55.9 89.2059Q54.946877 90.00278 54.665627 90.29965Q54.4 90.5809 54.228127 90.86215L58.446877 90.86215ZM60.49375 91.87778L60.49375 90.67465L61.696877 90.67465L61.696877 91.87778L60.49375 91.87778ZM62.9 89.62778L64.00938 89.53403Q64.13438 90.34653 64.57188 90.75278Q65.025 91.15903 65.66563 91.15903Q66.41563 91.15903 66.94688 90.5809Q67.47813 90.00278 67.47813 89.06528Q67.47813 88.15903 66.9625 87.6434Q66.4625 87.11215 65.63438 87.11215Q65.13438 87.11215 64.7125 87.34653Q64.30625 87.5809 64.07188 87.94028L63.0875 87.81528L63.915627 83.40903L68.19688 83.40903L68.19688 84.40903L64.75938 84.40903L64.30625 86.72153Q65.07188 86.17465 65.91563 86.17465Q67.04063 86.17465 67.80625 86.9559Q68.5875 87.73715 68.5875 88.97153Q68.5875 90.12778 67.91563 90.98715Q67.0875 92.0184 65.66563 92.0184Q64.49375 92.0184 63.74375 91.36215Q63.009377 90.7059 62.9 89.62778Z" fill-rule="nonzero"/><path fill="#000000" d="M62.9 50.067707L63.9625 49.927082Q64.13438 50.817707 64.57188 51.223957Q65.00938 51.614582 65.63438 51.614582Q66.38438 51.614582 66.9 51.098957Q67.41563 50.583332 67.41563 49.817707Q67.41563 49.098957 66.93125 48.630207Q66.4625 48.145832 65.72813 48.145832Q65.43125 48.145832 64.97813 48.270832L65.10313 47.333332Q65.2125 47.348957 65.275 47.348957Q65.94688 47.348957 66.47813 47.005207Q67.025 46.645832 67.025 45.911457Q67.025 45.333332 66.63438 44.958332Q66.24375 44.567707 65.61875 44.567707Q65.00938 44.567707 64.5875 44.958332Q64.18125 45.348957 64.07188 46.114582L63.009377 45.927082Q63.196877 44.880207 63.884377 44.302082Q64.57188 43.708332 65.5875 43.708332Q66.29063 43.708332 66.88438 44.020832Q67.47813 44.317707 67.79063 44.833332Q68.10313 45.348957 68.10313 45.942707Q68.10313 46.489582 67.80625 46.958332Q67.50938 47.411457 66.93125 47.677082Q67.68125 47.848957 68.10313 48.411457Q68.525 48.958332 68.525 49.802082Q68.525 50.927082 67.69688 51.708332Q66.88438 52.489582 65.63438 52.489582Q64.50938 52.489582 63.759377 51.817707Q63.009377 51.130207 62.9 50.067707Z" fill-rule="nonzero"/><path fill="#000000" d="M104.366875 305.83438L105.429375 305.74063Q105.5075 306.39688 105.78875 306.80313Q106.07 307.20938 106.648125 307.475Q107.241875 307.725 107.97625 307.725Q108.616875 307.725 109.116875 307.5375Q109.616875 307.33438 109.85125 307.00626Q110.10125 306.6625 110.10125 306.27188Q110.10125 305.86563 109.866875 305.56876Q109.6325 305.25626 109.10125 305.05313Q108.741875 304.9125 107.554375 304.63126Q106.3825 304.35 105.91375 304.1Q105.28875 303.77188 104.991875 303.30313Q104.695 302.81876 104.695 302.225Q104.695 301.58438 105.054375 301.02188Q105.429375 300.44376 106.1325 300.1625Q106.85125 299.86563 107.710625 299.86563Q108.66375 299.86563 109.398125 300.17813Q110.1325 300.475 110.523125 301.08438Q110.91375 301.67813 110.945 302.42813L109.85125 302.50626Q109.7575 301.69376 109.241875 301.2875Q108.741875 300.86563 107.7575 300.86563Q106.72625 300.86563 106.2575 301.24063Q105.78875 301.61563 105.78875 302.14688Q105.78875 302.61563 106.116875 302.9125Q106.445 303.20938 107.82 303.52188Q109.210625 303.83438 109.72625 304.06876Q110.47625 304.42813 110.835625 304.95938Q111.195 305.475 111.195 306.17813Q111.195 306.86563 110.804375 307.475Q110.41375 308.06876 109.679375 308.4125Q108.945 308.74063 108.023125 308.74063Q106.85125 308.74063 106.054375 308.4125Q105.273125 308.06876 104.82 307.38126Q104.3825 306.69376 104.366875 305.83438ZM112.616875 310.99063L112.616875 302.38126L113.57 302.38126L113.57 303.17813Q113.91375 302.70938 114.335625 302.475Q114.773125 302.24063 115.3825 302.24063Q116.179375 302.24063 116.78875 302.64688Q117.398125 303.05313 117.695 303.80313Q118.0075 304.55313 118.0075 305.44376Q118.0075 306.39688 117.66375 307.1625Q117.335625 307.92813 116.679375 308.33438Q116.023125 308.74063 115.304375 308.74063Q114.773125 308.74063 114.35125 308.52188Q113.929375 308.2875 113.66375 307.95938L113.66375 310.99063L112.616875 310.99063ZM113.57 305.52188Q113.57 306.725 114.054375 307.30313Q114.53875 307.86563 115.22625 307.86563Q115.929375 307.86563 116.429375 307.27188Q116.929375 306.67813 116.929375 305.42813Q116.929375 304.24063 116.445 303.6625Q115.960625 303.06876 115.273125 303.06876Q114.60125 303.06876 114.085625 303.69376Q113.57 304.31876 113.57 305.52188ZM119.60125 308.6L119.60125 302.38126L120.554375 302.38126L120.554375 303.31876Q120.91375 302.6625 121.210625 302.45938Q121.523125 302.24063 121.898125 302.24063Q122.429375 302.24063 122.97625 302.56876L122.616875 303.55313Q122.22625 303.31876 121.85125 303.31876Q121.491875 303.31876 121.210625 303.5375Q120.945 303.74063 120.835625 304.11563Q120.648125 304.67813 120.648125 305.33438L120.648125 308.6L119.60125 308.6ZM123.616875 301.225L123.616875 300.00626L124.679375 300.00626L124.679375 301.225L123.616875 301.225ZM123.616875 308.6L123.616875 302.38126L124.679375 302.38126L124.679375 308.6L123.616875 308.6ZM126.616875 308.6L126.616875 302.38126L127.554375 302.38126L127.554375 303.25626Q128.24188 302.24063 129.53876 302.24063Q130.10126 302.24063 130.57 302.44376Q131.05438 302.64688 131.28876 302.975Q131.52313 303.30313 131.61688 303.74063Q131.66376 304.0375 131.66376 304.77188L131.66376 308.6L130.61688 308.6L130.61688 304.81876Q130.61688 304.1625 130.49188 303.85Q130.36688 303.5375 130.05438 303.35Q129.74188 303.14688 129.32 303.14688Q128.64813 303.14688 128.14813 303.58438Q127.66375 304.00626 127.66375 305.19376L127.66375 308.6L126.616875 308.6ZM135.91376 307.6625L136.07 308.58438Q135.61688 308.67813 135.27313 308.67813Q134.695 308.67813 134.3825 308.50626Q134.07 308.31876 133.92938 308.02188Q133.80438 307.725 133.80438 306.77188L133.80438 303.19376L133.03876 303.19376L133.03876 302.38126L133.80438 302.38126L133.80438 300.83438L134.85126 300.20938L134.85126 302.38126L135.91376 302.38126L135.91376 303.19376L134.85126 303.19376L134.85126 306.83438Q134.85126 307.2875 134.89813 307.4125Q134.96063 307.5375 135.08563 307.61563Q135.21063 307.69376 135.445 307.69376Q135.6325 307.69376 135.91376 307.6625ZM143.28876 308.6L142.24188 308.6L142.24188 301.88126Q141.85126 302.24063 141.22626 302.61563Q140.61688 302.975 140.1325 303.14688L140.1325 302.13126Q141.0075 301.70938 141.66376 301.13126Q142.33563 300.5375 142.61688 299.975L143.28876 299.975L143.28876 308.6Z" fill-rule="nonzero"/><path fill="#000000" d="M191.20688 305.83438L192.26938 305.74063Q192.3475 306.39688 192.62875 306.80313Q192.91 307.20938 193.48813 307.475Q194.08188 307.725 194.81625 307.725Q195.45688 307.725 195.95688 307.5375Q196.45688 307.33438 196.69125 307.00626Q196.94125 306.6625 196.94125 306.27188Q196.94125 305.86563 196.70688 305.56876Q196.4725 305.25626 195.94125 305.05313Q195.58188 304.9125 194.39438 304.63126Q193.2225 304.35 192.75375 304.1Q192.12875 303.77188 191.83188 303.30313Q191.535 302.81876 191.535 302.225Q191.535 301.58438 191.89438 301.02188Q192.26938 300.44376 192.9725 300.1625Q193.69125 299.86563 194.55063 299.86563Q195.50375 299.86563 196.23813 300.17813Q196.9725 300.475 197.36313 301.08438Q197.75375 301.67813 197.785 302.42813L196.69125 302.50626Q196.5975 301.69376 196.08188 301.2875Q195.58188 300.86563 194.5975 300.86563Q193.56625 300.86563 193.0975 301.24063Q192.62875 301.61563 192.62875 302.14688Q192.62875 302.61563 192.95688 302.9125Q193.285 303.20938 194.66 303.52188Q196.05063 303.83438 196.56625 304.06876Q197.31625 304.42813 197.67563 304.95938Q198.035 305.475 198.035 306.17813Q198.035 306.86563 197.64438 307.475Q197.25375 308.06876 196.51938 308.4125Q195.785 308.74063 194.86313 308.74063Q193.69125 308.74063 192.89438 308.4125Q192.11313 308.06876 191.66 307.38126Q191.2225 306.69376 191.20688 305.83438ZM199.45688 310.99063L199.45688 302.38126L200.41 302.38126L200.41 303.17813Q200.75375 302.70938 201.17563 302.475Q201.61313 302.24063 202.2225 302.24063Q203.01938 302.24063 203.62875 302.64688Q204.23813 303.05313 204.535 303.80313Q204.8475 304.55313 204.8475 305.44376Q204.8475 306.39688 204.50375 307.1625Q204.17563 307.92813 203.51938 308.33438Q202.86313 308.74063 202.14438 308.74063Q201.61313 308.74063 201.19125 308.52188Q200.76938 308.2875 200.50375 307.95938L200.50375 310.99063L199.45688 310.99063ZM200.41 305.52188Q200.41 306.725 200.89438 307.30313Q201.37875 307.86563 202.06625 307.86563Q202.76938 307.86563 203.26938 307.27188Q203.76938 306.67813 203.76938 305.42813Q203.76938 304.24063 203.285 303.6625Q202.80063 303.06876 202.11313 303.06876Q201.44125 303.06876 200.92563 303.69376Q200.41 304.31876 200.41 305.52188ZM206.44125 308.6L206.44125 302.38126L207.39438 302.38126L207.39438 303.31876Q207.75375 302.6625 208.05063 302.45938Q208.36313 302.24063 208.73813 302.24063Q209.26938 302.24063 209.81625 302.56876L209.45688 303.55313Q209.06625 303.31876 208.69125 303.31876Q208.33188 303.31876 208.05063 303.5375Q207.785 303.74063 207.67563 304.11563Q207.48813 304.67813 207.48813 305.33438L207.48813 308.6L206.44125 308.6ZM210.45688 301.225L210.45688 300.00626L211.51938 300.00626L211.51938 301.225L210.45688 301.225ZM210.45688 308.6L210.45688 302.38126L211.51938 302.38126L211.51938 308.6L210.45688 308.6ZM213.45688 308.6L213.45688 302.38126L214.39438 302.38126L214.39438 303.25626Q215.08188 302.24063 216.37875 302.24063Q216.94125 302.24063 217.41 302.44376Q217.89438 302.64688 218.12875 302.975Q218.36313 303.30313 218.45688 303.74063Q218.50375 304.0375 218.50375 304.77188L218.50375 308.6L217.45688 308.6L217.45688 304.81876Q217.45688 304.1625 217.33188 303.85Q217.20688 303.5375 216.89438 303.35Q216.58188 303.14688 216.16 303.14688Q215.48813 303.14688 214.98813 303.58438Q214.50375 304.00626 214.50375 305.19376L214.50375 308.6L213.45688 308.6ZM222.75375 307.6625L222.91 308.58438Q222.45688 308.67813 222.11313 308.67813Q221.535 308.67813 221.2225 308.50626Q220.91 308.31876 220.76938 308.02188Q220.64438 307.725 220.64438 306.77188L220.64438 303.19376L219.87875 303.19376L219.87875 302.38126L220.64438 302.38126L220.64438 300.83438L221.69125 300.20938L221.69125 302.38126L222.75375 302.38126L222.75375 303.19376L221.69125 303.19376L221.69125 306.83438Q221.69125 307.2875 221.73813 307.4125Q221.80063 307.5375 221.92563 307.61563Q222.05063 307.69376 222.285 307.69376Q222.4725 307.69376 222.75375 307.6625ZM231.70688 307.58438L231.70688 308.6L226.01938 308.6Q226.01938 308.225 226.14438 307.86563Q226.36313 307.2875 226.83188 306.725Q227.31625 306.1625 228.2225 305.42813Q229.62875 304.27188 230.11313 303.6Q230.61313 302.92813 230.61313 302.33438Q230.61313 301.70938 230.16 301.2875Q229.70688 300.85 228.98813 300.85Q228.2225 300.85 227.76938 301.30313Q227.31625 301.75626 227.30063 302.56876L226.2225 302.45938Q226.33188 301.24063 227.05063 300.61563Q227.785 299.975 229.01938 299.975Q230.25375 299.975 230.9725 300.6625Q231.69125 301.35 231.69125 302.36563Q231.69125 302.88126 231.4725 303.38126Q231.26938 303.86563 230.76938 304.42813Q230.285 304.975 229.16 305.92813Q228.20688 306.725 227.92563 307.02188Q227.66 307.30313 227.48813 307.58438L231.70688 307.58438Z" fill-rule="nonzero"/><path fill="#000000" d="M278.04688 305.83438L279.10938 305.74063Q279.1875 306.39688 279.46875 306.80313Q279.75 307.20938 280.32812 307.475Q280.92188 307.725 281.65625 307.725Q282.29688 307.725 282.79688 307.5375Q283.29688 307.33438 283.53125 307.00626Q283.78125 306.6625 283.78125 306.27188Q283.78125 305.86563 283.54688 305.56876Q283.3125 305.25626 282.78125 305.05313Q282.42188 304.9125 281.23438 304.63126Q280.0625 304.35 279.59375 304.1Q278.96875 303.77188 278.67188 303.30313Q278.375 302.81876 278.375 302.225Q278.375 301.58438 278.73438 301.02188Q279.10938 300.44376 279.8125 300.1625Q280.53125 299.86563 281.39062 299.86563Q282.34375 299.86563 283.07812 300.17813Q283.8125 300.475 284.20312 301.08438Q284.59375 301.67813 284.625 302.42813L283.53125 302.50626Q283.4375 301.69376 282.92188 301.2875Q282.42188 300.86563 281.4375 300.86563Q280.40625 300.86563 279.9375 301.24063Q279.46875 301.61563 279.46875 302.14688Q279.46875 302.61563 279.79688 302.9125Q280.125 303.20938 281.5 303.52188Q282.89062 303.83438 283.40625 304.06876Q284.15625 304.42813 284.51562 304.95938Q284.875 305.475 284.875 306.17813Q284.875 306.86563 284.48438 307.475Q284.09375 308.06876 283.35938 308.4125Q282.625 308.74063 281.70312 308.74063Q280.53125 308.74063 279.73438 308.4125Q278.95312 308.06876 278.5 307.38126Q278.0625 306.69376 278.04688 305.83438ZM286.29688 310.99063L286.29688 302.38126L287.25 302.38126L287.25 303.17813Q287.59375 302.70938 288.01562 302.475Q288.45312 302.24063 289.0625 302.24063Q289.85938 302.24063 290.46875 302.64688Q291.07812 303.05313 291.375 303.80313Q291.6875 304.55313 291.6875 305.44376Q291.6875 306.39688 291.34375 307.1625Q291.01562 307.92813 290.35938 308.33438Q289.70312 308.74063 288.98438 308.74063Q288.45312 308.74063 288.03125 308.52188Q287.60938 308.2875 287.34375 307.95938L287.34375 310.99063L286.29688 310.99063ZM287.25 305.52188Q287.25 306.725 287.73438 307.30313Q288.21875 307.86563 288.90625 307.86563Q289.60938 307.86563 290.10938 307.27188Q290.60938 306.67813 290.60938 305.42813Q290.60938 304.24063 290.125 303.6625Q289.64062 303.06876 288.95312 303.06876Q288.28125 303.06876 287.76562 303.69376Q287.25 304.31876 287.25 305.52188ZM293.28125 308.6L293.28125 302.38126L294.23438 302.38126L294.23438 303.31876Q294.59375 302.6625 294.89062 302.45938Q295.20312 302.24063 295.57812 302.24063Q296.10938 302.24063 296.65625 302.56876L296.29688 303.55313Q295.90625 303.31876 295.53125 303.31876Q295.17188 303.31876 294.89062 303.5375Q294.625 303.74063 294.51562 304.11563Q294.32812 304.67813 294.32812 305.33438L294.32812 308.6L293.28125 308.6ZM297.29688 301.225L297.29688 300.00626L298.35938 300.00626L298.35938 301.225L297.29688 301.225ZM297.29688 308.6L297.29688 302.38126L298.35938 302.38126L298.35938 308.6L297.29688 308.6ZM300.29688 308.6L300.29688 302.38126L301.23438 302.38126L301.23438 303.25626Q301.92188 302.24063 303.21875 302.24063Q303.78125 302.24063 304.25 302.44376Q304.73438 302.64688 304.96875 302.975Q305.20312 303.30313 305.29688 303.74063Q305.34375 304.0375 305.34375 304.77188L305.34375 308.6L304.29688 308.6L304.29688 304.81876Q304.29688 304.1625 304.17188 303.85Q304.04688 303.5375 303.73438 303.35Q303.42188 303.14688 303.0 303.14688Q302.32812 303.14688 301.82812 303.58438Q301.34375 304.00626 301.34375 305.19376L301.34375 308.6L300.29688 308.6ZM309.59375 307.6625L309.75 308.58438Q309.29688 308.67813 308.95312 308.67813Q308.375 308.67813 308.0625 308.50626Q307.75 308.31876 307.60938 308.02188Q307.48438 307.725 307.48438 306.77188L307.48438 303.19376L306.71875 303.19376L306.71875 302.38126L307.48438 302.38126L307.48438 300.83438L308.53125 300.20938L308.53125 302.38126L309.59375 302.38126L309.59375 303.19376L308.53125 303.19376L308.53125 306.83438Q308.53125 307.2875 308.57812 307.4125Q308.64062 307.5375 308.76562 307.61563Q308.89062 307.69376 309.125 307.69376Q309.3125 307.69376 309.59375 307.6625ZM313.0 306.33438L314.0625 306.19376Q314.23438 307.08438 314.67188 307.49063Q315.10938 307.88126 315.73438 307.88126Q316.48438 307.88126 317.0 307.36563Q317.51562 306.85 317.51562 306.08438Q317.51562 305.36563 317.03125 304.89688Q316.5625 304.4125 315.82812 304.4125Q315.53125 304.4125 315.07812 304.5375L315.20312 303.6Q315.3125 303.61563 315.375 303.61563Q316.04688 303.61563 316.57812 303.27188Q317.125 302.9125 317.125 302.17813Q317.125 301.6 316.73438 301.225Q316.34375 300.83438 315.71875 300.83438Q315.10938 300.83438 314.6875 301.225Q314.28125 301.61563 314.17188 302.38126L313.10938 302.19376Q313.29688 301.14688 313.98438 300.56876Q314.67188 299.975 315.6875 299.975Q316.39062 299.975 316.98438 300.2875Q317.57812 300.58438 317.89062 301.1Q318.20312 301.61563 318.20312 302.20938Q318.20312 302.75626 317.90625 303.225Q317.60938 303.67813 317.03125 303.94376Q317.78125 304.11563 318.20312 304.67813Q318.625 305.225 318.625 306.06876Q318.625 307.19376 317.79688 307.975Q316.98438 308.75626 315.73438 308.75626Q314.60938 308.75626 313.85938 308.08438Q313.10938 307.39688 313.0 306.33438Z" fill-rule="nonzero"/><path fill="#000000" d="M364.88687 305.83438L365.94937 305.74063Q366.0275 306.39688 366.30875 306.80313Q366.59 307.20938 367.16812 307.475Q367.76187 307.725 368.49625 307.725Q369.13687 307.725 369.63687 307.5375Q370.13687 307.33438 370.37125 307.00626Q370.62125 306.6625 370.62125 306.27188Q370.62125 305.86563 370.38687 305.56876Q370.1525 305.25626 369.62125 305.05313Q369.26187 304.9125 368.07437 304.63126Q366.9025 304.35 366.43375 304.1Q365.80875 303.77188 365.51187 303.30313Q365.215 302.81876 365.215 302.225Q365.215 301.58438 365.57437 301.02188Q365.94937 300.44376 366.6525 300.1625Q367.37125 299.86563 368.23062 299.86563Q369.18375 299.86563 369.91812 300.17813Q370.6525 300.475 371.04312 301.08438Q371.43375 301.67813 371.465 302.42813L370.37125 302.50626Q370.2775 301.69376 369.76187 301.2875Q369.26187 300.86563 368.2775 300.86563Q367.24625 300.86563 366.7775 301.24063Q366.30875 301.61563 366.30875 302.14688Q366.30875 302.61563 366.63687 302.9125Q366.965 303.20938 368.34 303.52188Q369.73062 303.83438 370.24625 304.06876Q370.99625 304.42813 371.35562 304.95938Q371.715 305.475 371.715 306.17813Q371.715 306.86563 371.32437 307.475Q370.93375 308.06876 370.19937 308.4125Q369.465 308.74063 368.54312 308.74063Q367.37125 308.74063 366.57437 308.4125Q365.79312 308.06876 365.34 307.38126Q364.9025 306.69376 364.88687 305.83438ZM373.13687 310.99063L373.13687 302.38126L374.09 302.38126L374.09 303.17813Q374.43375 302.70938 374.85562 302.475Q375.29312 302.24063 375.9025 302.24063Q376.69937 302.24063 377.30875 302.64688Q377.91812 303.05313 378.215 303.80313Q378.5275 304.55313 378.5275 305.44376Q378.5275 306.39688 378.18375 307.1625Q377.85562 307.92813 377.19937 308.33438Q376.54312 308.74063 375.82437 308.74063Q375.29312 308.74063 374.87125 308.52188Q374.44937 308.2875 374.18375 307.95938L374.18375 310.99063L373.13687 310.99063ZM374.09 305.52188Q374.09 306.725 374.57437 307.30313Q375.05875 307.86563 375.74625 307.86563Q376.44937 307.86563 376.94937 307.27188Q377.44937 306.67813 377.44937 305.42813Q377.44937 304.24063 376.965 303.6625Q376.48062 303.06876 375.79312 303.06876Q375.12125 303.06876 374.60562 303.69376Q374.09 304.31876 374.09 305.52188ZM380.12125 308.6L380.12125 302.38126L381.07437 302.38126L381.07437 303.31876Q381.43375 302.6625 381.73062 302.45938Q382.04312 302.24063 382.41812 302.24063Q382.94937 302.24063 383.49625 302.56876L383.13687 303.55313Q382.74625 303.31876 382.37125 303.31876Q382.01187 303.31876 381.73062 303.5375Q381.465 303.74063 381.35562 304.11563Q381.16812 304.67813 381.16812 305.33438L381.16812 308.6L380.12125 308.6ZM384.13687 301.225L384.13687 300.00626L385.19937 300.00626L385.19937 301.225L384.13687 301.225ZM384.13687 308.6L384.13687 302.38126L385.19937 302.38126L385.19937 308.6L384.13687 308.6ZM387.13687 308.6L387.13687 302.38126L388.07437 302.38126L388.07437 303.25626Q388.76187 302.24063 390.05875 302.24063Q390.62125 302.24063 391.09 302.44376Q391.57437 302.64688 391.80875 302.975Q392.04312 303.30313 392.13687 303.74063Q392.18375 304.0375 392.18375 304.77188L392.18375 308.6L391.13687 308.6L391.13687 304.81876Q391.13687 304.1625 391.01187 303.85Q390.88687 303.5375 390.57437 303.35Q390.26187 303.14688 389.84 303.14688Q389.16812 303.14688 388.66812 303.58438Q388.18375 304.00626 388.18375 305.19376L388.18375 308.6L387.13687 308.6ZM396.43375 307.6625L396.59 308.58438Q396.13687 308.67813 395.79312 308.67813Q395.215 308.67813 394.9025 308.50626Q394.59 308.31876 394.44937 308.02188Q394.32437 307.725 394.32437 306.77188L394.32437 303.19376L393.55875 303.19376L393.55875 302.38126L394.32437 302.38126L394.32437 300.83438L395.37125 300.20938L395.37125 302.38126L396.43375 302.38126L396.43375 303.19376L395.37125 303.19376L395.37125 306.83438Q395.37125 307.2875 395.41812 307.4125Q395.48062 307.5375 395.60562 307.61563Q395.73062 307.69376 395.965 307.69376Q396.1525 307.69376 396.43375 307.6625ZM403.215 308.6L403.215 306.5375L399.49625 306.5375L399.49625 305.56876L403.41812 300.00626L404.2775 300.00626L404.2775 305.56876L405.43375 305.56876L405.43375 306.5375L404.2775 306.5375L404.2775 308.6L403.215 308.6ZM403.215 305.56876L403.215 301.70938L400.5275 305.56876L403.215 305.56876Z" fill-rule="nonzero"/><path fill="#000000" d="M451.72687 305.83438L452.78937 305.74063Q452.8675 306.39688 453.14874 306.80313Q453.43 307.20938 454.00812 307.475Q454.60187 307.725 455.33624 307.725Q455.97687 307.725 456.47687 307.5375Q456.97687 307.33438 457.21124 307.00626Q457.46124 306.6625 457.46124 306.27188Q457.46124 305.86563 457.22687 305.56876Q456.9925 305.25626 456.46124 305.05313Q456.10187 304.9125 454.91437 304.63126Q453.7425 304.35 453.27374 304.1Q452.64874 303.77188 452.35187 303.30313Q452.055 302.81876 452.055 302.225Q452.055 301.58438 452.41437 301.02188Q452.78937 300.44376 453.4925 300.1625Q454.21124 299.86563 455.07062 299.86563Q456.02374 299.86563 456.75812 300.17813Q457.4925 300.475 457.88312 301.08438Q458.27374 301.67813 458.305 302.42813L457.21124 302.50626Q457.1175 301.69376 456.60187 301.2875Q456.10187 300.86563 455.1175 300.86563Q454.08624 300.86563 453.6175 301.24063Q453.14874 301.61563 453.14874 302.14688Q453.14874 302.61563 453.47687 302.9125Q453.805 303.20938 455.18 303.52188Q456.57062 303.83438 457.08624 304.06876Q457.83624 304.42813 458.19562 304.95938Q458.555 305.475 458.555 306.17813Q458.555 306.86563 458.16437 307.475Q457.77374 308.06876 457.03937 308.4125Q456.305 308.74063 455.38312 308.74063Q454.21124 308.74063 453.41437 308.4125Q452.63312 308.06876 452.18 307.38126Q451.7425 306.69376 451.72687 305.83438ZM459.97687 310.99063L459.97687 302.38126L460.93 302.38126L460.93 303.17813Q461.27374 302.70938 461.69562 302.475Q462.13312 302.24063 462.7425 302.24063Q463.53937 302.24063 464.14874 302.64688Q464.75812 303.05313 465.055 303.80313Q465.3675 304.55313 465.3675 305.44376Q465.3675 306.39688 465.02374 307.1625Q464.69562 307.92813 464.03937 308.33438Q463.38312 308.74063 462.66437 308.74063Q462.13312 308.74063 461.71124 308.52188Q461.28937 308.2875 461.02374 307.95938L461.02374 310.99063L459.97687 310.99063ZM460.93 305.52188Q460.93 306.725 461.41437 307.30313Q461.89874 307.86563 462.58624 307.86563Q463.28937 307.86563 463.78937 307.27188Q464.28937 306.67813 464.28937 305.42813Q464.28937 304.24063 463.805 303.6625Q463.32062 303.06876 462.63312 303.06876Q461.96124 303.06876 461.44562 303.69376Q460.93 304.31876 460.93 305.52188ZM466.96124 308.6L466.96124 302.38126L467.91437 302.38126L467.91437 303.31876Q468.27374 302.6625 468.57062 302.45938Q468.88312 302.24063 469.25812 302.24063Q469.78937 302.24063 470.33624 302.56876L469.97687 303.55313Q469.58624 303.31876 469.21124 303.31876Q468.85187 303.31876 468.57062 303.5375Q468.305 303.74063 468.19562 304.11563Q468.00812 304.67813 468.00812 305.33438L468.00812 308.6L466.96124 308.6ZM470.97687 301.225L470.97687 300.00626L472.03937 300.00626L472.03937 301.225L470.97687 301.225ZM470.97687 308.6L470.97687 302.38126L472.03937 302.38126L472.03937 308.6L470.97687 308.6ZM473.97687 308.6L473.97687 302.38126L474.91437 302.38126L474.91437 303.25626Q475.60187 302.24063 476.89874 302.24063Q477.46124 302.24063 477.93 302.44376Q478.41437 302.64688 478.64874 302.975Q478.88312 303.30313 478.97687 303.74063Q479.02374 304.0375 479.02374 304.77188L479.02374 308.6L477.97687 308.6L477.97687 304.81876Q477.97687 304.1625 477.85187 303.85Q477.72687 303.5375 477.41437 303.35Q477.10187 303.14688 476.68 303.14688Q476.00812 303.14688 475.50812 303.58438Q475.02374 304.00626 475.02374 305.19376L475.02374 308.6L473.97687 308.6ZM483.27374 307.6625L483.43 308.58438Q482.97687 308.67813 482.63312 308.67813Q482.055 308.67813 481.7425 308.50626Q481.43 308.31876 481.28937 308.02188Q481.16437 307.725 481.16437 306.77188L481.16437 303.19376L480.39874 303.19376L480.39874 302.38126L481.16437 302.38126L481.16437 300.83438L482.21124 300.20938L482.21124 302.38126L483.27374 302.38126L483.27374 303.19376L482.21124 303.19376L482.21124 306.83438Q482.21124 307.2875 482.25812 307.4125Q482.32062 307.5375 482.44562 307.61563Q482.57062 307.69376 482.805 307.69376Q482.9925 307.69376 483.27374 307.6625ZM486.68 306.35L487.78937 306.25626Q487.91437 307.06876 488.35187 307.475Q488.805 307.88126 489.44562 307.88126Q490.19562 307.88126 490.72687 307.30313Q491.25812 306.725 491.25812 305.7875Q491.25812 304.88126 490.7425 304.36563Q490.2425 303.83438 489.41437 303.83438Q488.91437 303.83438 488.4925 304.06876Q488.08624 304.30313 487.85187 304.6625L486.8675 304.5375L487.69562 300.13126L491.97687 300.13126L491.97687 301.13126L488.53937 301.13126L488.08624 303.44376Q488.85187 302.89688 489.69562 302.89688Q490.82062 302.89688 491.58624 303.67813Q492.3675 304.45938 492.3675 305.69376Q492.3675 306.85 491.69562 307.70938Q490.8675 308.74063 489.44562 308.74063Q488.27374 308.74063 487.52374 308.08438Q486.78937 307.42813 486.68 306.35Z" fill-rule="nonzero"/><path fill="#4285f4" d="M31.0 23.4C31.0 26.713709 28.31371 29.4 25.0 29.4C21.68629 29.4 19.0 26.713709 19.0 23.4C19.0 20.086292 21.68629 17.4 25.0 17.4C28.31371 17.4 31.0 20.086292 31.0 23.4Z" fill-rule="nonzero"/><path fill="#1a1a1a" d="M42.375 27.4L39.046875 18.80625L40.28125 18.80625L42.515625 25.05625Q42.78125 25.80625 42.96875 26.4625Q43.171875 25.759375 43.4375 25.05625L45.75 18.80625L46.90625 18.80625L43.546875 27.4L42.375 27.4ZM50.859375 26.634375Q50.265625 27.134375 49.71875 27.3375Q49.1875 27.540625 48.5625 27.540625Q47.53125 27.540625 46.984375 27.040625Q46.4375 26.540625 46.4375 25.759375Q46.4375 25.30625 46.640625 24.93125Q46.84375 24.540625 47.1875 24.321875Q47.53125 24.0875 47.953125 23.978125Q48.25 23.884375 48.890625 23.80625Q50.15625 23.665625 50.765625 23.446875Q50.765625 23.228125 50.765625 23.18125Q50.765625 22.525 50.46875 22.259375Q50.0625 21.915625 49.265625 21.915625Q48.53125 21.915625 48.171875 22.18125Q47.8125 22.43125 47.640625 23.0875L46.609375 22.946875Q46.75 22.290625 47.078125 21.884375Q47.40625 21.478125 48.015625 21.259375Q48.625 21.040625 49.421875 21.040625Q50.21875 21.040625 50.71875 21.228125Q51.21875 21.415625 51.453125 21.696875Q51.6875 21.978125 51.78125 22.415625Q51.828125 22.68125 51.828125 23.384375L51.828125 24.790625Q51.828125 26.259375 51.890625 26.65Q51.96875 27.040625 52.171875 27.4L51.0625 27.4Q50.90625 27.071875 50.859375 26.634375ZM50.765625 24.275Q50.1875 24.509375 49.046875 24.68125Q48.390625 24.775 48.125 24.9Q47.859375 25.009375 47.703125 25.228125Q47.5625 25.446875 47.5625 25.728125Q47.5625 26.15 47.875 26.43125Q48.203125 26.7125 48.8125 26.7125Q49.421875 26.7125 49.890625 26.446875Q50.375 26.18125 50.59375 25.7125Q50.765625 25.353125 50.765625 24.665625L50.765625 24.275ZM53.765625 27.4L53.765625 18.80625L54.828125 18.80625L54.828125 27.4L53.765625 27.4ZM56.40625 24.290625Q56.40625 22.55625 57.359375 21.728125Q58.15625 21.040625 59.3125 21.040625Q60.59375 21.040625 61.40625 21.884375Q62.234375 22.7125 62.234375 24.196875Q62.234375 25.4 61.875 26.0875Q61.515625 26.775 60.8125 27.165625Q60.125 27.540625 59.3125 27.540625Q58.015625 27.540625 57.203125 26.7125Q56.40625 25.86875 56.40625 24.290625ZM57.484375 24.290625Q57.484375 25.478125 58.0 26.071875Q58.53125 26.665625 59.3125 26.665625Q60.109375 26.665625 60.625 26.071875Q61.140625 25.478125 61.140625 24.259375Q61.140625 23.103125 60.609375 22.509375Q60.09375 21.915625 59.3125 21.915625Q58.53125 21.915625 58.0 22.509375Q57.484375 23.0875 57.484375 24.290625ZM63.78125 27.4L63.78125 21.18125L64.734375 21.18125L64.734375 22.11875Q65.09375 21.4625 65.390625 21.259375Q65.703125 21.040625 66.078125 21.040625Q66.609375 21.040625 67.15625 21.36875L66.796875 22.353125Q66.40625 22.11875 66.03125 22.11875Q65.671875 22.11875 65.390625 22.3375Q65.125 22.540625 65.015625 22.915625Q64.828125 23.478125 64.828125 24.134375L64.828125 27.4L63.78125 27.4ZM72.046875 25.4L73.140625 25.525Q72.890625 26.478125 72.1875 27.009375Q71.484375 27.540625 70.40625 27.540625Q69.046875 27.540625 68.234375 26.696875Q67.4375 25.853125 67.4375 24.3375Q67.4375 22.775 68.25 21.915625Q69.0625 21.040625 70.34375 21.040625Q71.59375 21.040625 72.375 21.884375Q73.171875 22.728125 73.171875 24.275Q73.171875 24.36875 73.171875 24.55625L68.53125 24.55625Q68.59375 25.5875 69.109375 26.134375Q69.625 26.665625 70.40625 26.665625Q70.984375 26.665625 71.390625 26.36875Q71.8125 26.05625 72.046875 25.4ZM68.59375 23.696875L72.0625 23.696875Q72.0 22.9 71.671875 22.509375Q71.15625 21.9 70.359375 21.9Q69.625 21.9 69.125 22.384375Q68.640625 22.86875 68.59375 23.696875ZM77.40625 24.290625Q77.40625 22.55625 78.359375 21.728125Q79.15625 21.040625 80.3125 21.040625Q81.59375 21.040625 82.40625 21.884375Q83.234375 22.7125 83.234375 24.196875Q83.234375 25.4 82.875 26.0875Q82.515625 26.775 81.8125 27.165625Q81.125 27.540625 80.3125 27.540625Q79.015625 27.540625 78.203125 26.7125Q77.40625 25.86875 77.40625 24.290625ZM78.484375 24.290625Q78.484375 25.478125 79.0 26.071875Q79.53125 26.665625 80.3125 26.665625Q81.109375 26.665625 81.625 26.071875Q82.140625 25.478125 82.140625 24.259375Q82.140625 23.103125 81.609375 22.509375Q81.09375 21.915625 80.3125 21.915625Q79.53125 21.915625 79.0 22.509375Q78.484375 23.0875 78.484375 24.290625ZM87.09375 26.4625L87.25 27.384375Q86.796875 27.478125 86.453125 27.478125Q85.875 27.478125 85.5625 27.30625Q85.25 27.11875 85.109375 26.821875Q84.984375 26.525 84.984375 25.571875L84.984375 21.99375L84.21875 21.99375L84.21875 21.18125L84.984375 21.18125L84.984375 19.634375L86.03125 19.009375L86.03125 21.18125L87.09375 21.18125L87.09375 21.99375L86.03125 21.99375L86.03125 25.634375Q86.03125 26.0875 86.078125 26.2125Q86.140625 26.3375 86.265625 26.415625Q86.390625 26.49375 86.625 26.49375Q86.8125 26.49375 87.09375 26.4625ZM90.09375 26.4625L90.25 27.384375Q89.796875 27.478125 89.453125 27.478125Q88.875 27.478125 88.5625 27.30625Q88.25 27.11875 88.109375 26.821875Q87.984375 26.525 87.984375 25.571875L87.984375 21.99375L87.21875 21.99375L87.21875 21.18125L87.984375 21.18125L87.984375 19.634375L89.03125 19.009375L89.03125 21.18125L90.09375 21.18125L90.09375 21.99375L89.03125 21.99375L89.03125 25.634375Q89.03125 26.0875 89.078125 26.2125Q89.140625 26.3375 89.265625 26.415625Q89.390625 26.49375 89.625 26.49375Q89.8125 26.49375 90.09375 26.4625ZM90.796875 20.025L90.796875 18.80625L91.859375 18.80625L91.859375 20.025L90.796875 20.025ZM90.796875 27.4L90.796875 21.18125L91.859375 21.18125L91.859375 27.4L90.796875 27.4ZM93.796875 27.4L93.796875 21.18125L94.734375 21.18125L94.734375 22.05625Q95.03125 21.5875 95.515625 21.321875Q96.0 21.040625 96.625 21.040625Q97.3125 21.040625 97.75 21.321875Q98.203125 21.603125 98.375 22.11875Q99.125 21.040625 100.296875 21.040625Q101.234375 21.040625 101.71875 21.55625Q102.21875 22.05625 102.21875 23.134375L102.21875 27.4L101.171875 27.4L101.171875 23.478125Q101.171875 22.853125 101.0625 22.571875Q100.96875 22.290625 100.703125 22.11875Q100.4375 21.946875 100.0625 21.946875Q99.40625 21.946875 98.96875 22.384375Q98.546875 22.821875 98.546875 23.790625L98.546875 27.4L97.484375 27.4L97.484375 23.353125Q97.484375 22.65 97.21875 22.30625Q96.96875 21.946875 96.390625 21.946875Q95.9375 21.946875 95.5625 22.18125Q95.1875 22.415625 95.015625 22.86875Q94.84375 23.321875 94.84375 24.165625L94.84375 27.4L93.796875 27.4ZM104.40625 24.290625Q104.40625 22.55625 105.359375 21.728125Q106.15625 21.040625 107.3125 21.040625Q108.59375 21.040625 109.40625 21.884375Q110.234375 22.7125 110.234375 24.196875Q110.234375 25.4 109.875 26.0875Q109.515625 26.775 108.8125 27.165625Q108.125 27.540625 107.3125 27.540625Q106.015625 27.540625 105.203125 26.7125Q104.40625 25.86875 104.40625 24.290625ZM105.484375 24.290625Q105.484375 25.478125 106.0 26.071875Q106.53125 26.665625 107.3125 26.665625Q108.109375 26.665625 108.625 26.071875Q109.140625 25.478125 109.140625 24.259375Q109.140625 23.103125 108.609375 22.509375Q108.09375 21.915625 107.3125 21.915625Q106.53125 21.915625 106.0 22.509375Q105.484375 23.0875 105.484375 24.290625Z" fill-rule="nonzero"/><path fill="#ea4335" d="M139.0 23.4C139.0 26.713709 136.3137 29.4 133.0 29.4C129.6863 29.4 127.0 26.713709 127.0 23.4C127.0 20.086292 129.6863 17.4 133.0 17.4C136.3137 17.4 139.0 20.086292 139.0 23.4Z" fill-rule="nonzero"/><path fill="#1a1a1a" d="M150.375 27.4L147.04688 18.80625L148.28125 18.80625L150.51562 25.05625Q150.78125 25.80625 150.96875 26.4625Q151.17188 25.759375 151.4375 25.05625L153.75 18.80625L154.90625 18.80625L151.54688 27.4L150.375 27.4ZM158.85938 26.634375Q158.26562 27.134375 157.71875 27.3375Q157.1875 27.540625 156.5625 27.540625Q155.53125 27.540625 154.98438 27.040625Q154.4375 26.540625 154.4375 25.759375Q154.4375 25.30625 154.64062 24.93125Q154.84375 24.540625 155.1875 24.321875Q155.53125 24.0875 155.95312 23.978125Q156.25 23.884375 156.89062 23.80625Q158.15625 23.665625 158.76562 23.446875Q158.76562 23.228125 158.76562 23.18125Q158.76562 22.525 158.46875 22.259375Q158.0625 21.915625 157.26562 21.915625Q156.53125 21.915625 156.17188 22.18125Q155.8125 22.43125 155.64062 23.0875L154.60938 22.946875Q154.75 22.290625 155.07812 21.884375Q155.40625 21.478125 156.01562 21.259375Q156.625 21.040625 157.42188 21.040625Q158.21875 21.040625 158.71875 21.228125Q159.21875 21.415625 159.45312 21.696875Q159.6875 21.978125 159.78125 22.415625Q159.82812 22.68125 159.82812 23.384375L159.82812 24.790625Q159.82812 26.259375 159.89062 26.65Q159.96875 27.040625 160.17188 27.4L159.0625 27.4Q158.90625 27.071875 158.85938 26.634375ZM158.76562 24.275Q158.1875 24.509375 157.04688 24.68125Q156.39062 24.775 156.125 24.9Q155.85938 25.009375 155.70312 25.228125Q155.5625 25.446875 155.5625 25.728125Q155.5625 26.15 155.875 26.43125Q156.20312 26.7125 156.8125 26.7125Q157.42188 26.7125 157.89062 26.446875Q158.375 26.18125 158.59375 25.7125Q158.76562 25.353125 158.76562 24.665625L158.76562 24.275ZM161.76562 27.4L161.76562 18.80625L162.82812 18.80625L162.82812 27.4L161.76562 27.4ZM164.40625 24.290625Q164.40625 22.55625 165.35938 21.728125Q166.15625 21.040625 167.3125 21.040625Q168.59375 21.040625 169.40625 21.884375Q170.23438 22.7125 170.23438 24.196875Q170.23438 25.4 169.875 26.0875Q169.51562 26.775 168.8125 27.165625Q168.125 27.540625 167.3125 27.540625Q166.01562 27.540625 165.20312 26.7125Q164.40625 25.86875 164.40625 24.290625ZM165.48438 24.290625Q165.48438 25.478125 166.0 26.071875Q166.53125 26.665625 167.3125 26.665625Q168.10938 26.665625 168.625 26.071875Q169.14062 25.478125 169.14062 24.259375Q169.14062 23.103125 168.60938 22.509375Q168.09375 21.915625 167.3125 21.915625Q166.53125 21.915625 166.0 22.509375Q165.48438 23.0875 165.48438 24.290625ZM171.78125 27.4L171.78125 21.18125L172.73438 21.18125L172.73438 22.11875Q173.09375 21.4625 173.39062 21.259375Q173.70312 21.040625 174.07812 21.040625Q174.60938 21.040625 175.15625 21.36875L174.79688 22.353125Q174.40625 22.11875 174.03125 22.11875Q173.67188 22.11875 173.39062 22.3375Q173.125 22.540625 173.01562 22.915625Q172.82812 23.478125 172.82812 24.134375L172.82812 27.4L171.78125 27.4ZM180.04688 25.4L181.14062 25.525Q180.89062 26.478125 180.1875 27.009375Q179.48438 27.540625 178.40625 27.540625Q177.04688 27.540625 176.23438 26.696875Q175.4375 25.853125 175.4375 24.3375Q175.4375 22.775 176.25 21.915625Q177.0625 21.040625 178.34375 21.040625Q179.59375 21.040625 180.375 21.884375Q181.17188 22.728125 181.17188 24.275Q181.17188 24.36875 181.17188 24.55625L176.53125 24.55625Q176.59375 25.5875 177.10938 26.134375Q177.625 26.665625 178.40625 26.665625Q178.98438 26.665625 179.39062 26.36875Q179.8125 26.05625 180.04688 25.4ZM176.59375 23.696875L180.0625 23.696875Q180.0 22.9 179.67188 22.509375Q179.15625 21.9 178.35938 21.9Q177.625 21.9 177.125 22.384375Q176.64062 22.86875 176.59375 23.696875ZM189.85938 26.634375Q189.26562 27.134375 188.71875 27.3375Q188.1875 27.540625 187.5625 27.540625Q186.53125 27.540625 185.98438 27.040625Q185.4375 26.540625 185.4375 25.759375Q185.4375 25.30625 185.64062 24.93125Q185.84375 24.540625 186.1875 24.321875Q186.53125 24.0875 186.95312 23.978125Q187.25 23.884375 187.89062 23.80625Q189.15625 23.665625 189.76562 23.446875Q189.76562 23.228125 189.76562 23.18125Q189.76562 22.525 189.46875 22.259375Q189.0625 21.915625 188.26562 21.915625Q187.53125 21.915625 187.17188 22.18125Q186.8125 22.43125 186.64062 23.0875L185.60938 22.946875Q185.75 22.290625 186.07812 21.884375Q186.40625 21.478125 187.01562 21.259375Q187.625 21.040625 188.42188 21.040625Q189.21875 21.040625 189.71875 21.228125Q190.21875 21.415625 190.45312 21.696875Q190.6875 21.978125 190.78125 22.415625Q190.82812 22.68125 190.82812 23.384375L190.82812 24.790625Q190.82812 26.259375 190.89062 26.65Q190.96875 27.040625 191.17188 27.4L190.0625 27.4Q189.90625 27.071875 189.85938 26.634375ZM189.76562 24.275Q189.1875 24.509375 188.04688 24.68125Q187.39062 24.775 187.125 24.9Q186.85938 25.009375 186.70312 25.228125Q186.5625 25.446875 186.5625 25.728125Q186.5625 26.15 186.875 26.43125Q187.20312 26.7125 187.8125 26.7125Q188.42188 26.7125 188.89062 26.446875Q189.375 26.18125 189.59375 25.7125Q189.76562 25.353125 189.76562 24.665625L189.76562 24.275ZM196.85938 25.11875L197.89062 25.259375Q197.71875 26.321875 197.01562 26.93125Q196.3125 27.540625 195.29688 27.540625Q194.01562 27.540625 193.23438 26.7125Q192.46875 25.86875 192.46875 24.30625Q192.46875 23.30625 192.79688 22.55625Q193.14062 21.790625 193.8125 21.415625Q194.5 21.040625 195.3125 21.040625Q196.3125 21.040625 196.95312 21.55625Q197.60938 22.05625 197.79688 23.009375L196.76562 23.165625Q196.625 22.540625 196.25 22.228125Q195.875 21.9 195.34375 21.9Q194.54688 21.9 194.04688 22.478125Q193.54688 23.040625 193.54688 24.275Q193.54688 25.540625 194.03125 26.103125Q194.51562 26.665625 195.28125 26.665625Q195.90625 26.665625 196.3125 26.290625Q196.73438 25.915625 196.85938 25.11875ZM202.85938 25.11875L203.89062 25.259375Q203.71875 26.321875 203.01562 26.93125Q202.3125 27.540625 201.29688 27.540625Q200.01562 27.540625 199.23438 26.7125Q198.46875 25.86875 198.46875 24.30625Q198.46875 23.30625 198.79688 22.55625Q199.14062 21.790625 199.8125 21.415625Q200.5 21.040625 201.3125 21.040625Q202.3125 21.040625 202.95312 21.55625Q203.60938 22.05625 203.79688 23.009375L202.76562 23.165625Q202.625 22.540625 202.25 22.228125Q201.875 21.9 201.34375 21.9Q200.54688 21.9 200.04688 22.478125Q199.54688 23.040625 199.54688 24.275Q199.54688 25.540625 200.03125 26.103125Q200.51562 26.665625 201.28125 26.665625Q201.90625 26.665625 202.3125 26.290625Q202.73438 25.915625 202.85938 25.11875ZM209.04688 25.4L210.14062 25.525Q209.89062 26.478125 209.1875 27.009375Q208.48438 27.540625 207.40625 27.540625Q206.04688 27.540625 205.23438 26.696875Q204.4375 25.853125 204.4375 24.3375Q204.4375 22.775 205.25 21.915625Q206.0625 21.040625 207.34375 21.040625Q208.59375 21.040625 209.375 21.884375Q210.17188 22.728125 210.17188 24.275Q210.17188 24.36875 210.17188 24.55625L205.53125 24.55625Q205.59375 25.5875 206.10938 26.134375Q206.625 26.665625 207.40625 26.665625Q207.98438 26.665625 208.39062 26.36875Q208.8125 26.05625 209.04688 25.4ZM205.59375 23.696875L209.0625 23.696875Q209.0 22.9 208.67188 22.509375Q208.15625 21.9 207.35938 21.9Q206.625 21.9 206.125 22.384375Q205.64062 22.86875 205.59375 23.696875ZM214.09375 26.4625L214.25 27.384375Q213.79688 27.478125 213.45312 27.478125Q212.875 27.478125 212.5625 27.30625Q212.25 27.11875 212.10938 26.821875Q211.98438 26.525 211.98438 25.571875L211.98438 21.99375L211.21875 21.99375L211.21875 21.18125L211.98438 21.18125L211.98438 19.634375L213.03125 19.009375L213.03125 21.18125L214.09375 21.18125L214.09375 21.99375L213.03125 21.99375L213.03125 25.634375Q213.03125 26.0875 213.07812 26.2125Q213.14062 26.3375 213.26562 26.415625Q213.39062 26.49375 213.625 26.49375Q213.8125 26.49375 214.09375 26.4625ZM217.09375 26.4625L217.25 27.384375Q216.79688 27.478125 216.45312 27.478125Q215.875 27.478125 215.5625 27.30625Q215.25 27.11875 215.10938 26.821875Q214.98438 26.525 214.98438 25.571875L214.98438 21.99375L214.21875 21.99375L214.21875 21.18125L214.98438 21.18125L214.98438 19.634375L216.03125 19.009375L216.03125 21.18125L217.09375 21.18125L217.09375 21.99375L216.03125 21.99375L216.03125 25.634375Q216.03125 26.0875 216.07812 26.2125Q216.14062 26.3375 216.26562 26.415625Q216.39062 26.49375 216.625 26.49375Q216.8125 26.49375 217.09375 26.4625ZM221.85938 26.634375Q221.26562 27.134375 220.71875 27.3375Q220.1875 27.540625 219.5625 27.540625Q218.53125 27.540625 217.98438 27.040625Q217.4375 26.540625 217.4375 25.759375Q217.4375 25.30625 217.64062 24.93125Q217.84375 24.540625 218.1875 24.321875Q218.53125 24.0875 218.95312 23.978125Q219.25 23.884375 219.89062 23.80625Q221.15625 23.665625 221.76562 23.446875Q221.76562 23.228125 221.76562 23.18125Q221.76562 22.525 221.46875 22.259375Q221.0625 21.915625 220.26562 21.915625Q219.53125 21.915625 219.17188 22.18125Q218.8125 22.43125 218.64062 23.0875L217.60938 22.946875Q217.75 22.290625 218.07812 21.884375Q218.40625 21.478125 219.01562 21.259375Q219.625 21.040625 220.42188 21.040625Q221.21875 21.040625 221.71875 21.228125Q222.21875 21.415625 222.45312 21.696875Q222.6875 21.978125 222.78125 22.415625Q222.82812 22.68125 222.82812 23.384375L222.82812 24.790625Q222.82812 26.259375 222.89062 26.65Q222.96875 27.040625 223.17188 27.4L222.0625 27.4Q221.90625 27.071875 221.85938 26.634375ZM221.76562 24.275Q221.1875 24.509375 220.04688 24.68125Q219.39062 24.775 219.125 24.9Q218.85938 25.009375 218.70312 25.228125Q218.5625 25.446875 218.5625 25.728125Q218.5625 26.15 218.875 26.43125Q219.20312 26.7125 219.8125 26.7125Q220.42188 26.7125 220.89062 26.446875Q221.375 26.18125 221.59375 25.7125Q221.76562 25.353125 221.76562 24.665625L221.76562 24.275ZM225.76562 27.4L224.78125 27.4L224.78125 18.80625L225.84375 18.80625L225.84375 21.86875Q226.51562 21.040625 227.54688 21.040625Q228.125 21.040625 228.625 21.275Q229.14062 21.49375 229.46875 21.915625Q229.8125 22.3375 230.0 22.93125Q230.1875 23.525 230.1875 24.196875Q230.1875 25.790625 229.39062 26.665625Q228.59375 27.540625 227.5 27.540625Q226.39062 27.540625 225.76562 26.61875L225.76562 27.4ZM225.75 24.24375Q225.75 25.353125 226.0625 25.853125Q226.5625 26.665625 227.40625 26.665625Q228.09375 26.665625 228.59375 26.071875Q229.10938 25.478125 229.10938 24.275Q229.10938 23.05625 228.625 22.478125Q228.14062 21.9 227.45312 21.9Q226.76562 21.9 226.25 22.509375Q225.75 23.103125 225.75 24.24375ZM231.79688 20.025L231.79688 18.80625L232.85938 18.80625L232.85938 20.025L231.79688 20.025ZM231.79688 27.4L231.79688 21.18125L232.85938 21.18125L232.85938 27.4L231.79688 27.4ZM234.76562 27.4L234.76562 18.80625L235.82812 18.80625L235.82812 27.4L234.76562 27.4ZM242.04688 25.4L243.14062 25.525Q242.89062 26.478125 242.1875 27.009375Q241.48438 27.540625 240.40625 27.540625Q239.04688 27.540625 238.23438 26.696875Q237.4375 25.853125 237.4375 24.3375Q237.4375 22.775 238.25 21.915625Q239.0625 21.040625 240.34375 21.040625Q241.59375 21.040625 242.375 21.884375Q243.17188 22.728125 243.17188 24.275Q243.17188 24.36875 243.17188 24.55625L238.53125 24.55625Q238.59375 25.5875 239.10938 26.134375Q239.625 26.665625 240.40625 26.665625Q240.98438 26.665625 241.39062 26.36875Q241.8125 26.05625 242.04688 25.4ZM238.59375 23.696875L242.0625 23.696875Q242.0 22.9 241.67188 22.509375Q241.15625 21.9 240.35938 21.9Q239.625 21.9 239.125 22.384375Q238.64062 22.86875 238.59375 23.696875Z" fill-rule="nonzero"/><path fill="#fbbc04" fill-opacity="0.7019608" d="M272.0 23.4C272.0 26.713709 269.31372 29.4 266.0 29.4C262.68628 29.4 260.0 26.713709 260.0 23.4C260.0 20.086292 262.68628 17.4 266.0 17.4C269.31372 17.4 272.0 20.086292 272.0 23.4Z" fill-rule="nonzero"/><path fill="#1a1a1a" d="M284.95312 24.025L284.95312 23.025L288.57812 23.009375L288.57812 26.196875Q287.75 26.86875 286.85938 27.2125Q285.96875 27.540625 285.03125 27.540625Q283.76562 27.540625 282.71875 27.009375Q281.6875 26.4625 281.15625 25.446875Q280.64062 24.415625 280.64062 23.15Q280.64062 21.884375 281.15625 20.80625Q281.6875 19.7125 282.67188 19.196875Q283.65625 18.665625 284.9375 18.665625Q285.875 18.665625 286.625 18.9625Q287.375 19.259375 287.79688 19.80625Q288.23438 20.3375 288.45312 21.2125L287.4375 21.49375Q287.23438 20.8375 286.9375 20.4625Q286.65625 20.0875 286.125 19.86875Q285.59375 19.634375 284.95312 19.634375Q284.17188 19.634375 283.59375 19.86875Q283.03125 20.103125 282.67188 20.49375Q282.32812 20.884375 282.14062 21.353125Q281.8125 22.15 281.8125 23.071875Q281.8125 24.228125 282.20312 25.009375Q282.60938 25.775 283.35938 26.15Q284.10938 26.525 284.96875 26.525Q285.70312 26.525 286.40625 26.24375Q287.10938 25.946875 287.46875 25.634375L287.46875 24.025L284.95312 24.025ZM289.76562 27.4L289.76562 18.80625L290.82812 18.80625L290.82812 27.4L289.76562 27.4ZM292.40625 24.290625Q292.40625 22.55625 293.35938 21.728125Q294.15625 21.040625 295.3125 21.040625Q296.59375 21.040625 297.40625 21.884375Q298.23438 22.7125 298.23438 24.196875Q298.23438 25.4 297.875 26.0875Q297.51562 26.775 296.8125 27.165625Q296.125 27.540625 295.3125 27.540625Q294.01562 27.540625 293.20312 26.7125Q292.40625 25.86875 292.40625 24.290625ZM293.48438 24.290625Q293.48438 25.478125 294.0 26.071875Q294.53125 26.665625 295.3125 26.665625Q296.10938 26.665625 296.625 26.071875Q297.14062 25.478125 297.14062 24.259375Q297.14062 23.103125 296.60938 22.509375Q296.09375 21.915625 295.3125 21.915625Q294.53125 21.915625 294.0 22.509375Q293.48438 23.0875 293.48438 24.290625ZM299.375 25.540625L300.40625 25.384375Q300.5 26.009375 300.89062 26.3375Q301.29688 26.665625 302.03125 26.665625Q302.75 26.665625 303.09375 26.384375Q303.45312 26.0875 303.45312 25.68125Q303.45312 25.321875 303.14062 25.11875Q302.92188 24.978125 302.0625 24.759375Q300.90625 24.4625 300.45312 24.259375Q300.01562 24.040625 299.78125 23.665625Q299.54688 23.290625 299.54688 22.821875Q299.54688 22.415625 299.73438 22.05625Q299.92188 21.696875 300.25 21.4625Q300.5 21.290625 300.92188 21.165625Q301.34375 21.040625 301.84375 21.040625Q302.5625 21.040625 303.10938 21.259375Q303.67188 21.4625 303.9375 21.821875Q304.20312 22.18125 304.29688 22.775L303.26562 22.915625Q303.20312 22.446875 302.85938 22.18125Q302.53125 21.9 301.90625 21.9Q301.1875 21.9 300.875 22.15Q300.5625 22.384375 300.5625 22.7125Q300.5625 22.915625 300.6875 23.071875Q300.82812 23.24375 301.09375 23.353125Q301.25 23.415625 302.03125 23.61875Q303.15625 23.93125 303.59375 24.11875Q304.03125 24.30625 304.28125 24.665625Q304.53125 25.025 304.53125 25.571875Q304.53125 26.103125 304.21875 26.571875Q303.92188 27.025 303.34375 27.290625Q302.76562 27.540625 302.03125 27.540625Q300.8125 27.540625 300.17188 27.040625Q299.54688 26.525 299.375 25.540625ZM306.375 25.540625L307.40625 25.384375Q307.5 26.009375 307.89062 26.3375Q308.29688 26.665625 309.03125 26.665625Q309.75 26.665625 310.09375 26.384375Q310.45312 26.0875 310.45312 25.68125Q310.45312 25.321875 310.14062 25.11875Q309.92188 24.978125 309.0625 24.759375Q307.90625 24.4625 307.45312 24.259375Q307.01562 24.040625 306.78125 23.665625Q306.54688 23.290625 306.54688 22.821875Q306.54688 22.415625 306.73438 22.05625Q306.92188 21.696875 307.25 21.4625Q307.5 21.290625 307.92188 21.165625Q308.34375 21.040625 308.84375 21.040625Q309.5625 21.040625 310.10938 21.259375Q310.67188 21.4625 310.9375 21.821875Q311.20312 22.18125 311.29688 22.775L310.26562 22.915625Q310.20312 22.446875 309.85938 22.18125Q309.53125 21.9 308.90625 21.9Q308.1875 21.9 307.875 22.15Q307.5625 22.384375 307.5625 22.7125Q307.5625 22.915625 307.6875 23.071875Q307.82812 23.24375 308.09375 23.353125Q308.25 23.415625 309.03125 23.61875Q310.15625 23.93125 310.59375 24.11875Q311.03125 24.30625 311.28125 24.665625Q311.53125 25.025 311.53125 25.571875Q311.53125 26.103125 311.21875 26.571875Q310.92188 27.025 310.34375 27.290625Q309.76562 27.540625 309.03125 27.540625Q307.8125 27.540625 307.17188 27.040625Q306.54688 26.525 306.375 25.540625ZM317.85938 26.634375Q317.26562 27.134375 316.71875 27.3375Q316.1875 27.540625 315.5625 27.540625Q314.53125 27.540625 313.98438 27.040625Q313.4375 26.540625 313.4375 25.759375Q313.4375 25.30625 313.64062 24.93125Q313.84375 24.540625 314.1875 24.321875Q314.53125 24.0875 314.95312 23.978125Q315.25 23.884375 315.89062 23.80625Q317.15625 23.665625 317.76562 23.446875Q317.76562 23.228125 317.76562 23.18125Q317.76562 22.525 317.46875 22.259375Q317.0625 21.915625 316.26562 21.915625Q315.53125 21.915625 315.17188 22.18125Q314.8125 22.43125 314.64062 23.0875L313.60938 22.946875Q313.75 22.290625 314.07812 21.884375Q314.40625 21.478125 315.01562 21.259375Q315.625 21.040625 316.42188 21.040625Q317.21875 21.040625 317.71875 21.228125Q318.21875 21.415625 318.45312 21.696875Q318.6875 21.978125 318.78125 22.415625Q318.82812 22.68125 318.82812 23.384375L318.82812 24.790625Q318.82812 26.259375 318.89062 26.65Q318.96875 27.040625 319.17188 27.4L318.0625 27.4Q317.90625 27.071875 317.85938 26.634375ZM317.76562 24.275Q317.1875 24.509375 316.04688 24.68125Q315.39062 24.775 315.125 24.9Q314.85938 25.009375 314.70312 25.228125Q314.5625 25.446875 314.5625 25.728125Q314.5625 26.15 314.875 26.43125Q315.20312 26.7125 315.8125 26.7125Q316.42188 26.7125 316.89062 26.446875Q317.375 26.18125 317.59375 25.7125Q317.76562 25.353125 317.76562 24.665625L317.76562 24.275ZM320.78125 27.4L320.78125 21.18125L321.73438 21.18125L321.73438 22.11875Q322.09375 21.4625 322.39062 21.259375Q322.70312 21.040625 323.07812 21.040625Q323.60938 21.040625 324.15625 21.36875L323.79688 22.353125Q323.40625 22.11875 323.03125 22.11875Q322.67188 22.11875 322.39062 22.3375Q322.125 22.540625 322.01562 22.915625Q321.82812 23.478125 321.82812 24.134375L321.82812 27.4L320.78125 27.4ZM324.79688 20.025L324.79688 18.80625L325.85938 18.80625L325.85938 20.025L324.79688 20.025ZM324.79688 27.4L324.79688 21.18125L325.85938 21.18125L325.85938 27.4L324.79688 27.4ZM327.40625 24.290625Q327.40625 22.55625 328.35938 21.728125Q329.15625 21.040625 330.3125 21.040625Q331.59375 21.040625 332.40625 21.884375Q333.23438 22.7125 333.23438 24.196875Q333.23438 25.4 332.875 26.0875Q332.51562 26.775 331.8125 27.165625Q331.125 27.540625 330.3125 27.540625Q329.01562 27.540625 328.20312 26.7125Q327.40625 25.86875 327.40625 24.290625ZM328.48438 24.290625Q328.48438 25.478125 329.0 26.071875Q329.53125 26.665625 330.3125 26.665625Q331.10938 26.665625 331.625 26.071875Q332.14062 25.478125 332.14062 24.259375Q332.14062 23.103125 331.60938 22.509375Q331.09375 21.915625 330.3125 21.915625Q329.53125 21.915625 329.0 22.509375Q328.48438 23.0875 328.48438 24.290625Z" fill-rule="nonzero"/><path fill="#34a853" d="M362.0 23.4C362.0 26.713709 359.31372 29.4 356.0 29.4C352.68628 29.4 350.0 26.713709 350.0 23.4C350.0 20.086292 352.68628 17.4 356.0 17.4C359.31372 17.4 362.0 20.086292 362.0 23.4Z" fill-rule="nonzero"/><path fill="#1a1a1a" d="M370.92188 27.4L370.92188 18.80625L372.07812 18.80625L376.59375 25.55625L376.59375 18.80625L377.6875 18.80625L377.6875 27.4L376.51562 27.4L372.0 20.65L372.0 27.4L370.92188 27.4ZM383.82812 27.4L383.82812 26.61875Q383.23438 27.540625 382.09375 27.540625Q381.34375 27.540625 380.71875 27.134375Q380.09375 26.7125 379.75 25.978125Q379.40625 25.24375 379.40625 24.290625Q379.40625 23.36875 379.71875 22.603125Q380.03125 21.8375 380.65625 21.446875Q381.28125 21.040625 382.04688 21.040625Q382.60938 21.040625 383.04688 21.275Q383.48438 21.509375 383.76562 21.884375L383.76562 18.80625L384.8125 18.80625L384.8125 27.4L383.82812 27.4ZM380.5 24.290625Q380.5 25.49375 381.0 26.0875Q381.5 26.665625 382.1875 26.665625Q382.875 26.665625 383.35938 26.103125Q383.84375 25.540625 383.84375 24.384375Q383.84375 23.103125 383.34375 22.509375Q382.85938 21.915625 382.14062 21.915625Q381.4375 21.915625 380.96875 22.49375Q380.5 23.05625 380.5 24.290625ZM386.92188 27.4L386.92188 18.80625L390.17188 18.80625Q391.01562 18.80625 391.46875 18.884375Q392.10938 18.99375 392.53125 19.290625Q392.96875 19.5875 393.21875 20.11875Q393.48438 20.65 393.48438 21.290625Q393.48438 22.384375 392.78125 23.15Q392.09375 23.9 390.26562 23.9L388.0625 23.9L388.0625 27.4L386.92188 27.4ZM388.0625 22.9L390.28125 22.9Q391.39062 22.9 391.84375 22.49375Q392.3125 22.071875 392.3125 21.321875Q392.3125 20.790625 392.03125 20.415625Q391.76562 20.025 391.32812 19.9Q391.03125 19.821875 390.26562 19.821875L388.0625 19.821875L388.0625 22.9Z" fill-rule="nonzero"/><path fill="#ff6d01" d="M422.0 23.4C422.0 26.713709 419.31372 29.4 416.0 29.4C412.68628 29.4 410.0 26.713709 410.0 23.4C410.0 20.086292 412.68628 17.4 416.0 17.4C419.31372 17.4 422.0 20.086292 422.0 23.4Z" fill-rule="nonzero"/><path fill="#1a1a1a" d="M430.92188 27.4L430.92188 18.80625L434.17188 18.80625Q435.01562 18.80625 435.46875 18.884375Q436.10938 18.99375 436.53125 19.290625Q436.96875 19.5875 437.21875 20.11875Q437.48438 20.65 437.48438 21.290625Q437.48438 22.384375 436.78125 23.15Q436.09375 23.9 434.26562 23.9L432.0625 23.9L432.0625 27.4L430.92188 27.4ZM432.0625 22.9L434.28125 22.9Q435.39062 22.9 435.84375 22.49375Q436.3125 22.071875 436.3125 21.321875Q436.3125 20.790625 436.03125 20.415625Q435.76562 20.025 435.32812 19.9Q435.03125 19.821875 434.26562 19.821875L432.0625 19.821875L432.0625 22.9ZM442.82812 27.4L442.82812 26.61875Q442.23438 27.540625 441.09375 27.540625Q440.34375 27.540625 439.71875 27.134375Q439.09375 26.7125 438.75 25.978125Q438.40625 25.24375 438.40625 24.290625Q438.40625 23.36875 438.71875 22.603125Q439.03125 21.8375 439.65625 21.446875Q440.28125 21.040625 441.04688 21.040625Q441.60938 21.040625 442.04688 21.275Q442.48438 21.509375 442.76562 21.884375L442.76562 18.80625L443.8125 18.80625L443.8125 27.4L442.82812 27.4ZM439.5 24.290625Q439.5 25.49375 440.0 26.0875Q440.5 26.665625 441.1875 26.665625Q441.875 26.665625 442.35938 26.103125Q442.84375 25.540625 442.84375 24.384375Q442.84375 23.103125 442.34375 22.509375Q441.85938 21.915625 441.14062 21.915625Q440.4375 21.915625 439.96875 22.49375Q439.5 23.05625 439.5 24.290625ZM452.4375 26.478125Q453.23438 27.025 453.89062 27.275L453.5625 28.071875Q452.64062 27.728125 451.71875 27.009375Q450.76562 27.540625 449.60938 27.540625Q448.4375 27.540625 447.48438 26.978125Q446.54688 26.415625 446.03125 25.4Q445.51562 24.384375 445.51562 23.103125Q445.51562 21.8375 446.03125 20.790625Q446.54688 19.74375 447.5 19.196875Q448.45312 18.65 449.625 18.65Q450.8125 18.65 451.76562 19.228125Q452.73438 19.790625 453.23438 20.80625Q453.73438 21.821875 453.73438 23.103125Q453.73438 24.165625 453.40625 25.009375Q453.09375 25.853125 452.4375 26.478125ZM449.9375 25.025Q450.92188 25.30625 451.5625 25.853125Q452.5625 24.93125 452.5625 23.103125Q452.5625 22.05625 452.20312 21.275Q451.84375 20.49375 451.15625 20.071875Q450.48438 19.634375 449.64062 19.634375Q448.35938 19.634375 447.51562 20.509375Q446.6875 21.36875 446.6875 23.103125Q446.6875 24.775 447.51562 25.68125Q448.34375 26.571875 449.64062 26.571875Q450.25 26.571875 450.78125 26.3375Q450.25 25.99375 449.65625 25.853125L449.9375 25.025Z" fill-rule="nonzero"/><path fill="#46bdc6" d="M482.0 23.4C482.0 26.713709 479.31372 29.4 476.0 29.4C472.68628 29.4 470.0 26.713709 470.0 23.4C470.0 20.086292 472.68628 17.4 476.0 17.4C479.31372 17.4 482.0 20.086292 482.0 23.4Z" fill-rule="nonzero"/><path fill="#1a1a1a" d="M489.98438 27.4L493.28125 18.80625L494.5 18.80625L498.01562 27.4L496.73438 27.4L495.71875 24.790625L492.14062 24.790625L491.1875 27.4L489.98438 27.4ZM492.46875 23.86875L495.375 23.86875L494.48438 21.49375Q494.0625 20.415625 493.875 19.7125Q493.70312 20.540625 493.40625 21.353125L492.46875 23.86875ZM501.82812 27.4L501.82812 26.61875Q501.23438 27.540625 500.09375 27.540625Q499.34375 27.540625 498.71875 27.134375Q498.09375 26.7125 497.75 25.978125Q497.40625 25.24375 497.40625 24.290625Q497.40625 23.36875 497.71875 22.603125Q498.03125 21.8375 498.65625 21.446875Q499.28125 21.040625 500.04688 21.040625Q500.60938 21.040625 501.04688 21.275Q501.48438 21.509375 501.76562 21.884375L501.76562 18.80625L502.8125 18.80625L502.8125 27.4L501.82812 27.4ZM498.5 24.290625Q498.5 25.49375 499.0 26.0875Q499.5 26.665625 500.1875 26.665625Q500.875 26.665625 501.35938 26.103125Q501.84375 25.540625 501.84375 24.384375Q501.84375 23.103125 501.34375 22.509375Q500.85938 21.915625 500.14062 21.915625Q499.4375 21.915625 498.96875 22.49375Q498.5 23.05625 498.5 24.290625ZM504.9375 27.4L504.9375 18.80625L508.75 18.80625Q509.90625 18.80625 510.5 19.040625Q511.09375 19.275 511.45312 19.86875Q511.8125 20.446875 511.8125 21.15Q511.8125 22.071875 511.21875 22.696875Q510.625 23.321875 509.39062 23.49375Q509.84375 23.7125 510.07812 23.915625Q510.57812 24.36875 511.01562 25.05625L512.5156 27.4L511.07812 27.4L509.95312 25.61875Q509.45312 24.8375 509.125 24.43125Q508.8125 24.025 508.54688 23.86875Q508.29688 23.696875 508.03125 23.61875Q507.84375 23.5875 507.40625 23.5875L506.07812 23.5875L506.07812 27.4L504.9375 27.4ZM506.07812 22.603125L508.53125 22.603125Q509.29688 22.603125 509.73438 22.446875Q510.1875 22.275 510.40625 21.93125Q510.64062 21.571875 510.64062 21.15Q510.64062 20.540625 510.1875 20.15Q509.75 19.759375 508.79688 19.759375L506.07812 19.759375L506.07812 22.603125Z" fill-rule="nonzero"/></svg>