<svg version="1.1" viewBox="0.0 0.0 532.0 328.0" fill="none" stroke="none" stroke-linecap="square" stroke-miterlimit="10" width="532" height="328" xmlns:xlink="http://www.w3.org/1999/xlink" xmlns="http://www.w3.org/2000/svg"><path fill="#ffffff" d="M0 0L532.0 0L532.0 328.0L0 328.0L0 0Z" fill-rule="nonzero"/><path stroke="#333333" stroke-width="1.0" stroke-linecap="butt" d="M81.5 285.5L515.5 285.5" fill-rule="nonzero"/><path stroke="#cccccc" stroke-width="1.0" stroke-linecap="butt" d="M81.5 246.5L515.5 246.5" fill-rule="nonzero"/><path stroke="#cccccc" stroke-width="1.0" stroke-linecap="butt" d="M81.5 206.5L515.5 206.5" fill-rule="nonzero"/><path stroke="#cccccc" stroke-width="1.0" stroke-linecap="butt" d="M81.5 166.5L515.5 166.5" fill-rule="nonzero"/><path stroke="#cccccc" stroke-width="1.0" stroke-linecap="butt" d="M81.5 127.5L515.5 127.5" fill-rule="nonzero"/><path stroke="#cccccc" stroke-width="1.0" stroke-linecap="butt" d="M81.5 87.5L515.5 87.5" fill-rule="nonzero"/><path stroke="#cccccc" stroke-width="1.0" stroke-linecap="butt" d="M81.5 48.5L515.5 48.5" fill-rule="nonzero"/><path stroke="#000000" stroke-width="1.0" stroke-linecap="butt" d="M515.5 285.5L81.5 285.5" fill-rule="nonzero"/><path stroke="#000000" stroke-width="1.0" stroke-linecap="butt" d="M81.5 285.5L81.5 48.5" fill-rule="nonzero"/><clipPath id="id_0"><path d="M81.4 48.333332L515.6 48.333332L515.6 285.6L81.4 285.6L81.4 48.333332Z" clip-rule="nonzero"/></clipPath><path stroke="#4285f4" stroke-width="4.0" stroke-linecap="butt" stroke-opacity="0.5019608" clip-path="url(#id_0)" d="M117.583336 285.6C117.583336 285.6 165.82777 285.6 189.95 285.6C214.07222 285.6 238.19444 285.6 262.31668 285.6C286.4389 285.6 310.5611 285.6 334.68332 285.6C358.80554 285.6 382.92776 285.6 407.05 285.6C431.1722 285.6 479.41666 285.6 479.41666 285.6" fill-rule="nonzero"/><path stroke="#ea4335" stroke-width="2.0" stroke-linecap="butt" clip-path="url(#id_0)" d="M117.583336 127.422226C117.583336 127.422226 165.82777 127.422226 189.95 127.422226C214.07222 127.422226 238.19444 127.422226 262.31668 127.422226C286.4389 127.422226 310.5611 127.422226 334.68332 127.422226C358.80554 127.422226 382.92776 127.422226 407.05 127.422226C431.1722 127.422226 479.41666 127.422226 479.41666 127.422226" fill-rule="nonzero"/><path stroke="#fbbc04" stroke-width="2.0" stroke-linecap="butt" stroke-opacity="0.5019608" clip-path="url(#id_0)" d="M117.583336 206.51111C117.583336 206.51111 165.82777 285.6 189.95 285.6C214.07222 285.6 238.19444 206.51111 262.31668 206.51111C286.4389 206.51111 310.5611 272.41852 334.68332 285.6C358.80554 298.7815 382.92776 285.6 407.05 285.6C431.1722 285.6 479.41666 285.6 479.41666 285.6" fill-rule="nonzero"/><path stroke="#34a853" stroke-width="2.0" stroke-linecap="butt" stroke-opacity="0.5019608" clip-path="url(#id_0)" d="M117.583336 285.6C117.583336 285.6 165.82777 298.7815 189.95 285.6C214.07222 272.41852 238.19444 219.6926 262.31668 206.51111C286.4389 193.32964 310.5611 193.32964 334.68332 206.51111C358.80554 219.6926 382.92776 272.41852 407.05 285.6C431.1722 298.7815 479.41666 285.6 479.41666 285.6" fill-rule="nonzero"/><path stroke="#ff6d01" stroke-width="2.0" stroke-linecap="butt" stroke-opacity="0.5019608" clip-path="url(#id_0)" d="M117.583336 285.6C117.583336 285.6 165.82777 298.7815 189.95 285.6C214.07222 272.41852 238.19444 206.51111 262.31668 206.51111C286.4389 206.51111 310.5611 272.41852 334.68332 285.6C358.80554 298.7815 382.92776 298.7815 407.05 285.6C431.1722 272.41852 479.41666 206.51111 479.41666 206.51111" fill-rule="nonzero"/><path stroke="#46bdc6" stroke-width="2.0" stroke-linecap="butt" stroke-opacity="0.5019608" clip-path="url(#id_0)" d="M117.583336 285.6C117.583336 285.6 165.82777 219.6926 189.95 206.51111C214.07222 193.32964 238.19444 193.32964 262.31668 206.51111C286.4389 219.6926 310.5611 272.41852 334.68332 285.6C358.80554 298.7815 382.92776 285.6 407.05 285.6C431.1722 285.6 479.41666 285.6 479.41666 285.6" fill-rule="nonzero"/><path fill="#4285f4" fill-opacity="0.5019608" clip-path="url(#id_0)" d="M121.083336 285.6C121.083336 287.533 119.51633 289.1 117.583336 289.1C115.65034 289.1 114.083336 287.533 114.083336 285.6C114.083336 283.667 115.65034 282.1 117.583336 282.1C119.51633 282.1 121.083336 283.667 121.083336 285.6Z" fill-rule="nonzero"/><path fill="#4285f4" fill-opacity="0.5019608" clip-path="url(#id_0)" d="M193.45 285.6C193.45 287.533 191.883 289.1 189.95 289.1C188.017 289.1 186.45 287.533 186.45 285.6C186.45 283.667 188.017 282.1 189.95 282.1C191.883 282.1 193.45 283.667 193.45 285.6Z" fill-rule="nonzero"/><path fill="#4285f4" fill-opacity="0.5019608" clip-path="url(#id_0)" d="M265.81668 285.6C265.81668 287.533 264.24966 289.1 262.31668 289.1C260.38367 289.1 258.81668 287.533 258.81668 285.6C258.81668 283.667 260.38367 282.1 262.31668 282.1C264.24966 282.1 265.81668 283.667 265.81668 285.6Z" fill-rule="nonzero"/><path fill="#4285f4" fill-opacity="0.5019608" clip-path="url(#id_0)" d="M338.18332 285.6C338.18332 287.533 336.61633 289.1 334.68332 289.1C332.75034 289.1 331.18332 287.533 331.18332 285.6C331.18332 283.667 332.75034 282.1 334.68332 282.1C336.61633 282.1 338.18332 283.667 338.18332 285.6Z" fill-rule="nonzero"/><path fill="#4285f4" fill-opacity="0.5019608" clip-path="url(#id_0)" d="M410.55 285.6C410.55 287.533 408.983 289.1 407.05 289.1C405.117 289.1 403.55 287.533 403.55 285.6C403.55 283.667 405.117 282.1 407.05 282.1C408.983 282.1 410.55 283.667 410.55 285.6Z" fill-rule="nonzero"/><path fill="#4285f4" fill-opacity="0.5019608" clip-path="url(#id_0)" d="M482.91666 285.6C482.91666 287.533 481.34967 289.1 479.41666 289.1C477.48367 289.1 475.91666 287.533 475.91666 285.6C475.91666 283.667 477.48367 282.1 479.41666 282.1C481.34967 282.1 482.91666 283.667 482.91666 285.6Z" fill-rule="nonzero"/><path fill="#ea4335" clip-path="url(#id_0)" d="M121.083336 127.422226C121.083336 129.35522 119.51633 130.92223 117.583336 130.92223C115.65034 130.92223 114.083336 129.35522 114.083336 127.422226C114.083336 125.48923 115.65034 123.922226 117.583336 123.922226C119.51633 123.922226 121.083336 125.48923 121.083336 127.422226Z" fill-rule="nonzero"/><path fill="#ea4335" clip-path="url(#id_0)" d="M193.45 127.422226C193.45 129.35522 191.883 130.92223 189.95 130.92223C188.017 130.92223 186.45 129.35522 186.45 127.422226C186.45 125.48923 188.017 123.922226 189.95 123.922226C191.883 123.922226 193.45 125.48923 193.45 127.422226Z" fill-rule="nonzero"/><path fill="#ea4335" clip-path="url(#id_0)" d="M265.81668 127.422226C265.81668 129.35522 264.24966 130.92223 262.31668 130.92223C260.38367 130.92223 258.81668 129.35522 258.81668 127.422226C258.81668 125.48923 260.38367 123.922226 262.31668 123.922226C264.24966 123.922226 265.81668 125.48923 265.81668 127.422226Z" fill-rule="nonzero"/><path fill="#ea4335" clip-path="url(#id_0)" d="M338.18332 127.422226C338.18332 129.35522 336.61633 130.92223 334.68332 130.92223C332.75034 130.92223 331.18332 129.35522 331.18332 127.422226C331.18332 125.48923 332.75034 123.922226 334.68332 123.922226C336.61633 123.922226 338.18332 125.48923 338.18332 127.422226Z" fill-rule="nonzero"/><path fill="#ea4335" clip-path="url(#id_0)" d="M410.55 127.422226C410.55 129.35522 408.983 130.92223 407.05 130.92223C405.117 130.92223 403.55 129.35522 403.55 127.422226C403.55 125.48923 405.117 123.922226 407.05 123.922226C408.983 123.922226 410.55 125.48923 410.55 127.422226Z" fill-rule="nonzero"/><path fill="#ea4335" clip-path="url(#id_0)" d="M482.91666 127.422226C482.91666 129.35522 481.34967 130.92223 479.41666 130.92223C477.48367 130.92223 475.91666 129.35522 475.91666 127.422226C475.91666 125.48923 477.48367 123.922226 479.41666 123.922226C481.34967 123.922226 482.91666 125.48923 482.91666 127.422226Z" fill-rule="nonzero"/><path fill="#fbbc04" fill-opacity="0.5019608" clip-path="url(#id_0)" d="M121.083336 206.51111C121.083336 208.4441 119.51633 210.01111 117.583336 210.01111C115.65034 210.01111 114.083336 208.4441 114.083336 206.51111C114.083336 204.57811 115.65034 203.01111 117.583336 203.01111C119.51633 203.01111 121.083336 204.57811 121.083336 206.51111Z" fill-rule="nonzero"/><path fill="#fbbc04" fill-opacity="0.5019608" clip-path="url(#id_0)" d="M193.45 285.6C193.45 287.533 191.883 289.1 189.95 289.1C188.017 289.1 186.45 287.533 186.45 285.6C186.45 283.667 188.017 282.1 189.95 282.1C191.883 282.1 193.45 283.667 193.45 285.6Z" fill-rule="nonzero"/><path fill="#fbbc04" fill-opacity="0.5019608" clip-path="url(#id_0)" d="M265.81668 206.51111C265.81668 208.4441 264.24966 210.01111 262.31668 210.01111C260.38367 210.01111 258.81668 208.4441 258.81668 206.51111C258.81668 204.57811 260.38367 203.01111 262.31668 203.01111C264.24966 203.01111 265.81668 204.57811 265.81668 206.51111Z" fill-rule="nonzero"/><path fill="#fbbc04" fill-opacity="0.5019608" clip-path="url(#id_0)" d="M338.18332 285.6C338.18332 287.533 336.61633 289.1 334.68332 289.1C332.75034 289.1 331.18332 287.533 331.18332 285.6C331.18332 283.667 332.75034 282.1 334.68332 282.1C336.61633 282.1 338.18332 283.667 338.18332 285.6Z" fill-rule="nonzero"/><path fill="#fbbc04" fill-opacity="0.5019608" clip-path="url(#id_0)" d="M410.55 285.6C410.55 287.533 408.983 289.1 407.05 289.1C405.117 289.1 403.55 287.533 403.55 285.6C403.55 283.667 405.117 282.1 407.05 282.1C408.983 282.1 410.55 283.667 410.55 285.6Z" fill-rule="nonzero"/><path fill="#fbbc04" fill-opacity="0.5019608" clip-path="url(#id_0)" d="M482.91666 285.6C482.91666 287.533 481.34967 289.1 479.41666 289.1C477.48367 289.1 475.91666 287.533 475.91666 285.6C475.91666 283.667 477.48367 282.1 479.41666 282.1C481.34967 282.1 482.91666 283.667 482.91666 285.6Z" fill-rule="nonzero"/><path fill="#34a853" fill-opacity="0.5019608" clip-path="url(#id_0)" d="M121.083336 285.6C121.083336 287.533 119.51633 289.1 117.583336 289.1C115.65034 289.1 114.083336 287.533 114.083336 285.6C114.083336 283.667 115.65034 282.1 117.583336 282.1C119.51633 282.1 121.083336 283.667 121.083336 285.6Z" fill-rule="nonzero"/><path fill="#34a853" fill-opacity="0.5019608" clip-path="url(#id_0)" d="M193.45 285.6C193.45 287.533 191.883 289.1 189.95 289.1C188.017 289.1 186.45 287.533 186.45 285.6C186.45 283.667 188.017 282.1 189.95 282.1C191.883 282.1 193.45 283.667 193.45 285.6Z" fill-rule="nonzero"/><path fill="#34a853" fill-opacity="0.5019608" clip-path="url(#id_0)" d="M265.81668 206.51111C265.81668 208.4441 264.24966 210.01111 262.31668 210.01111C260.38367 210.01111 258.81668 208.4441 258.81668 206.51111C258.81668 204.57811 260.38367 203.01111 262.31668 203.01111C264.24966 203.01111 265.81668 204.57811 265.81668 206.51111Z" fill-rule="nonzero"/><path fill="#34a853" fill-opacity="0.5019608" clip-path="url(#id_0)" d="M338.18332 206.51111C338.18332 208.4441 336.61633 210.01111 334.68332 210.01111C332.75034 210.01111 331.18332 208.4441 331.18332 206.51111C331.18332 204.57811 332.75034 203.01111 334.68332 203.01111C336.61633 203.01111 338.18332 204.57811 338.18332 206.51111Z" fill-rule="nonzero"/><path fill="#34a853" fill-opacity="0.5019608" clip-path="url(#id_0)" d="M410.55 285.6C410.55 287.533 408.983 289.1 407.05 289.1C405.117 289.1 403.55 287.533 403.55 285.6C403.55 283.667 405.117 282.1 407.05 282.1C408.983 282.1 410.55 283.667 410.55 285.6Z" fill-rule="nonzero"/><path fill="#34a853" fill-opacity="0.5019608" clip-path="url(#id_0)" d="M482.91666 285.6C482.91666 287.533 481.34967 289.1 479.41666 289.1C477.48367 289.1 475.91666 287.533 475.91666 285.6C475.91666 283.667 477.48367 282.1 479.41666 282.1C481.34967 282.1 482.91666 283.667 482.91666 285.6Z" fill-rule="nonzero"/><path fill="#ff6d01" fill-opacity="0.5019608" clip-path="url(#id_0)" d="M121.083336 285.6C121.083336 287.533 119.51633 289.1 117.583336 289.1C115.65034 289.1 114.083336 287.533 114.083336 285.6C114.083336 283.667 115.65034 282.1 117.583336 282.1C119.51633 282.1 121.083336 283.667 121.083336 285.6Z" fill-rule="nonzero"/><path fill="#ff6d01" fill-opacity="0.5019608" clip-path="url(#id_0)" d="M193.45 285.6C193.45 287.533 191.883 289.1 189.95 289.1C188.017 289.1 186.45 287.533 186.45 285.6C186.45 283.667 188.017 282.1 189.95 282.1C191.883 282.1 193.45 283.667 193.45 285.6Z" fill-rule="nonzero"/><path fill="#ff6d01" fill-opacity="0.5019608" clip-path="url(#id_0)" d="M265.81668 206.51111C265.81668 208.4441 264.24966 210.01111 262.31668 210.01111C260.38367 210.01111 258.81668 208.4441 258.81668 206.51111C258.81668 204.57811 260.38367 203.01111 262.31668 203.01111C264.24966 203.01111 265.81668 204.57811 265.81668 206.51111Z" fill-rule="nonzero"/><path fill="#ff6d01" fill-opacity="0.5019608" clip-path="url(#id_0)" d="M338.18332 285.6C338.18332 287.533 336.61633 289.1 334.68332 289.1C332.75034 289.1 331.18332 287.533 331.18332 285.6C331.18332 283.667 332.75034 282.1 334.68332 282.1C336.61633 282.1 338.18332 283.667 338.18332 285.6Z" fill-rule="nonzero"/><path fill="#ff6d01" fill-opacity="0.5019608" clip-path="url(#id_0)" d="M410.55 285.6C410.55 287.533 408.983 289.1 407.05 289.1C405.117 289.1 403.55 287.533 403.55 285.6C403.55 283.667 405.117 282.1 407.05 282.1C408.983 282.1 410.55 283.667 410.55 285.6Z" fill-rule="nonzero"/><path fill="#ff6d01" fill-opacity="0.5019608" clip-path="url(#id_0)" d="M482.91666 206.51111C482.91666 208.4441 481.34967 210.01111 479.41666 210.01111C477.48367 210.01111 475.91666 208.4441 475.91666 206.51111C475.91666 204.57811 477.48367 203.01111 479.41666 203.01111C481.34967 203.01111 482.91666 204.57811 482.91666 206.51111Z" fill-rule="nonzero"/><path fill="#46bdc6" fill-opacity="0.5019608" clip-path="url(#id_0)" d="M121.083336 285.6C121.083336 287.533 119.51633 289.1 117.583336 289.1C115.65034 289.1 114.083336 287.533 114.083336 285.6C114.083336 283.667 115.65034 282.1 117.583336 282.1C119.51633 282.1 121.083336 283.667 121.083336 285.6Z" fill-rule="nonzero"/><path fill="#46bdc6" fill-opacity="0.5019608" clip-path="url(#id_0)" d="M193.45 206.51111C193.45 208.4441 191.883 210.01111 189.95 210.01111C188.017 210.01111 186.45 208.4441 186.45 206.51111C186.45 204.57811 188.017 203.01111 189.95 203.01111C191.883 203.01111 193.45 204.57811 193.45 206.51111Z" fill-rule="nonzero"/><path fill="#46bdc6" fill-opacity="0.5019608" clip-path="url(#id_0)" d="M265.81668 206.51111C265.81668 208.4441 264.24966 210.01111 262.31668 210.01111C260.38367 210.01111 258.81668 208.4441 258.81668 206.51111C258.81668 204.57811 260.38367 203.01111 262.31668 203.01111C264.24966 203.01111 265.81668 204.57811 265.81668 206.51111Z" fill-rule="nonzero"/><path fill="#46bdc6" fill-opacity="0.5019608" clip-path="url(#id_0)" d="M338.18332 285.6C338.18332 287.533 336.61633 289.1 334.68332 289.1C332.75034 289.1 331.18332 287.533 331.18332 285.6C331.18332 283.667 332.75034 282.1 334.68332 282.1C336.61633 282.1 338.18332 283.667 338.18332 285.6Z" fill-rule="nonzero"/><path fill="#46bdc6" fill-opacity="0.5019608" clip-path="url(#id_0)" d="M410.55 285.6C410.55 287.533 408.983 289.1 407.05 289.1C405.117 289.1 403.55 287.533 403.55 285.6C403.55 283.667 405.117 282.1 407.05 282.1C408.983 282.1 410.55 283.667 410.55 285.6Z" fill-rule="nonzero"/><path fill="#46bdc6" fill-opacity="0.5019608" clip-path="url(#id_0)" d="M482.91666 285.6C482.91666 287.533 481.34967 289.1 479.41666 289.1C477.48367 289.1 475.91666 287.533 475.91666 285.6C475.91666 283.667 477.48367 282.1 479.41666 282.1C481.34967 282.1 482.91666 283.667 482.91666 285.6Z" fill-rule="nonzero"/><path stroke="#000000" stroke-width="1.0" stroke-linecap="butt" d="M117.5 291.5L117.5 279.5" fill-rule="nonzero"/><path stroke="#000000" stroke-width="1.0" stroke-linecap="butt" d="M189.5 291.5L189.5 279.5" fill-rule="nonzero"/><path stroke="#000000" stroke-width="1.0" stroke-linecap="butt" d="M262.5 291.5L262.5 279.5" fill-rule="nonzero"/><path stroke="#000000" stroke-width="1.0" stroke-linecap="butt" d="M334.5 291.5L334.5 279.5" fill-rule="nonzero"/><path stroke="#000000" stroke-width="1.0" stroke-linecap="butt" d="M407.5 291.5L407.5 279.5" fill-rule="nonzero"/><path stroke="#000000" stroke-width="1.0" stroke-linecap="butt" d="M479.5 291.5L479.5 279.5" fill-rule="nonzero"/><path stroke="#000000" stroke-width="1.0" stroke-linecap="butt" d="M75.5 285.5L87.5 285.5" fill-rule="nonzero"/><path stroke="#000000" stroke-width="1.0" stroke-linecap="butt" d="M75.5 246.5L87.5 246.5" fill-rule="nonzero"/><path stroke="#000000" stroke-width="1.0" stroke-linecap="butt" d="M75.5 206.5L87.5 206.5" fill-rule="nonzero"/><path stroke="#000000" stroke-width="1.0" stroke-linecap="butt" d="M75.5 166.5L87.5 166.5" fill-rule="nonzero"/><path stroke="#000000" stroke-width="1.0" stroke-linecap="butt" d="M75.5 127.5L87.5 127.5" fill-rule="nonzero"/><path stroke="#000000" stroke-width="1.0" stroke-linecap="butt" d="M75.5 87.5L87.5 87.5" fill-rule="nonzero"/><path stroke="#000000" stroke-width="1.0" stroke-linecap="butt" d="M75.5 48.5L87.5 48.5" fill-rule="nonzero"/><path fill="#000000" d="M62.9 285.36563Q62.9 283.83438 63.2125 282.9125Q63.525 281.975 64.13438 281.475Q64.75938 280.975 65.69688 280.975Q66.38438 280.975 66.9 281.25626Q67.43125 281.5375 67.775 282.06876Q68.11875 282.58438 68.30625 283.33438Q68.49375 284.08438 68.49375 285.36563Q68.49375 286.88126 68.18125 287.80313Q67.88438 288.725 67.25938 289.24063Q66.65 289.74063 65.69688 289.74063Q64.4625 289.74063 63.74375 288.85Q62.9 287.7875 62.9 285.36563ZM63.978127 285.36563Q63.978127 287.475 64.47813 288.17813Q64.97813 288.88126 65.69688 288.88126Q66.43125 288.88126 66.91563 288.17813Q67.41563 287.475 67.41563 285.36563Q67.41563 283.24063 66.91563 282.55313Q66.43125 281.85 65.68125 281.85Q64.9625 281.85 64.525 282.45938Q63.978127 283.24063 63.978127 285.36563Z" fill-rule="nonzero"/><path fill="#000000" d="M52.9 245.82118Q52.9 244.28993 53.2125 243.36806Q53.525 242.43056 54.134377 241.93056Q54.759377 241.43056 55.696877 241.43056Q56.384377 241.43056 56.9 241.7118Q57.43125 241.99306 57.775 242.5243Q58.11875 243.03993 58.30625 243.78993Q58.49375 244.53993 58.49375 245.82118Q58.49375 247.3368 58.18125 248.25868Q57.884377 249.18056 57.259377 249.69618Q56.65 250.19618 55.696877 250.19618Q54.4625 250.19618 53.74375 249.30556Q52.9 248.24306 52.9 245.82118ZM53.978127 245.82118Q53.978127 247.93056 54.478127 248.63368Q54.978127 249.3368 55.696877 249.3368Q56.43125 249.3368 56.915627 248.63368Q57.415627 247.93056 57.415627 245.82118Q57.415627 243.69618 56.915627 243.00868Q56.43125 242.30556 55.68125 242.30556Q54.9625 242.30556 54.525 242.91493Q53.978127 243.69618 53.978127 245.82118ZM60.49375 250.05556L60.49375 248.85243L61.696877 248.85243L61.696877 250.05556L60.49375 250.05556ZM62.9 247.80556L64.00938 247.7118Q64.13438 248.5243 64.57188 248.93056Q65.025 249.3368 65.66563 249.3368Q66.41563 249.3368 66.94688 248.75868Q67.47813 248.18056 67.47813 247.24306Q67.47813 246.3368 66.9625 245.82118Q66.4625 245.28993 65.63438 245.28993Q65.13438 245.28993 64.7125 245.5243Q64.30625 245.75868 64.07188 246.11806L63.0875 245.99306L63.915627 241.5868L68.19688 241.5868L68.19688 242.5868L64.75938 242.5868L64.30625 244.8993Q65.07188 244.35243 65.91563 244.35243Q67.04063 244.35243 67.80625 245.13368Q68.5875 245.91493 68.5875 247.1493Q68.5875 248.30556 67.91563 249.16493Q67.0875 250.19618 65.66563 250.19618Q64.49375 250.19618 63.74375 249.53993Q63.009377 248.88368 62.9 247.80556Z" fill-rule="nonzero"/><path fill="#000000" d="M66.86875 210.51111L65.82188 210.51111L65.82188 203.79236Q65.43125 204.15173 64.80625 204.52673Q64.19688 204.88611 63.7125 205.05798L63.7125 204.04236Q64.5875 203.62048 65.24375 203.04236Q65.91563 202.44861 66.19688 201.88611L66.86875 201.88611L66.86875 210.51111Z" fill-rule="nonzero"/><path fill="#000000" d="M56.86875 170.96666L55.821877 170.96666L55.821877 164.24791Q55.43125 164.60728 54.80625 164.98228Q54.196877 165.34166 53.7125 165.51353L53.7125 164.49791Q54.5875 164.07603 55.24375 163.49791Q55.915627 162.90416 56.196877 162.34166L56.86875 162.34166L56.86875 170.96666ZM60.49375 170.96666L60.49375 169.76353L61.696877 169.76353L61.696877 170.96666L60.49375 170.96666ZM62.9 168.71666L64.00938 168.62291Q64.13438 169.43541 64.57188 169.84166Q65.025 170.24791 65.66563 170.24791Q66.41563 170.24791 66.94688 169.66978Q67.47813 169.09166 67.47813 168.15416Q67.47813 167.24791 66.9625 166.73228Q66.4625 166.20103 65.63438 166.20103Q65.13438 166.20103 64.7125 166.43541Q64.30625 166.66978 64.07188 167.02916L63.0875 166.90416L63.915627 162.49791L68.19688 162.49791L68.19688 163.49791L64.75938 163.49791L64.30625 165.81041Q65.07188 165.26353 65.91563 165.26353Q67.04063 165.26353 67.80625 166.04478Q68.5875 166.82603 68.5875 168.06041Q68.5875 169.21666 67.91563 170.07603Q67.0875 171.10728 65.66563 171.10728Q64.49375 171.10728 63.74375 170.45103Q63.009377 169.79478 62.9 168.71666Z" fill-rule="nonzero"/><path fill="#000000" d="M68.44688 130.4066L68.44688 131.42223L62.759377 131.42223Q62.759377 131.04723 62.884377 130.68785Q63.103127 130.10973 63.571877 129.54723Q64.05625 128.98473 64.9625 128.25035Q66.36875 127.0941 66.85313 126.422226Q67.35313 125.75035 67.35313 125.1566Q67.35313 124.5316 66.9 124.109726Q66.44688 123.672226 65.72813 123.672226Q64.9625 123.672226 64.50938 124.12535Q64.05625 124.578476 64.04063 125.390976L62.9625 125.2816Q63.071877 124.06285 63.790627 123.43785Q64.525 122.797226 65.75938 122.797226Q66.99375 122.797226 67.7125 123.484726Q68.43125 124.172226 68.43125 125.18785Q68.43125 125.703476 68.2125 126.203476Q68.00938 126.68785 67.50938 127.25035Q67.025 127.797226 65.9 128.75035Q64.94688 129.54723 64.66563 129.8441Q64.4 130.12535 64.22813 130.4066L68.44688 130.4066Z" fill-rule="nonzero"/><path fill="#000000" d="M58.446877 90.86215L58.446877 91.87778L52.759377 91.87778Q52.759377 91.50278 52.884377 91.1434Q53.103127 90.56528 53.571877 90.00278Q54.05625 89.44028 54.9625 88.7059Q56.36875 87.54965 56.853127 86.87778Q57.353127 86.2059 57.353127 85.61215Q57.353127 84.98715 56.9 84.56528Q56.446877 84.12778 55.728127 84.12778Q54.9625 84.12778 54.509377 84.5809Q54.05625 85.03403 54.040627 85.84653L52.9625 85.73715Q53.071877 84.5184 53.790627 83.8934Q54.525 83.25278 55.759377 83.25278Q56.99375 83.25278 57.7125 83.94028Q58.43125 84.62778 58.43125 85.6434Q58.43125 86.15903 58.2125 86.65903Q58.009377 87.1434 57.509377 87.7059Q57.025 88.25278 55.9 89.2059Q54.946877 90.00278 54.665627 90.29965Q54.4 90.5809 54.228127 90.86215L58.446877 90.86215ZM60.49375 91.87778L60.49375 90.67465L61.696877 90.67465L61.696877 91.87778L60.49375 91.87778ZM62.9 89.62778L64.00938 89.53403Q64.13438 90.34653 64.57188 90.75278Q65.025 91.15903 65.66563 91.15903Q66.41563 91.15903 66.94688 90.5809Q67.47813 90.00278 67.47813 89.06528Q67.47813 88.15903 66.9625 87.6434Q66.4625 87.11215 65.63438 87.11215Q65.13438 87.11215 64.7125 87.34653Q64.30625 87.5809 64.07188 87.94028L63.0875 87.81528L63.915627 83.40903L68.19688 83.40903L68.19688 84.40903L64.75938 84.40903L64.30625 86.72153Q65.07188 86.17465 65.91563 86.17465Q67.04063 86.17465 67.80625 86.9559Q68.5875 87.73715 68.5875 88.97153Q68.5875 90.12778 67.91563 90.98715Q67.0875 92.0184 65.66563 92.0184Q64.49375 92.0184 63.74375 91.36215Q63.009377 90.7059 62.9 89.62778Z" fill-rule="nonzero"/><path fill="#000000" d="M62.9 50.067707L63.9625 49.927082Q64.13438 50.817707 64.57188 51.223957Q65.00938 51.614582 65.63438 51.614582Q66.38438 51.614582 66.9 51.098957Q67.41563 50.583332 67.41563 49.817707Q67.41563 49.098957 66.93125 48.630207Q66.4625 48.145832 65.72813 48.145832Q65.43125 48.145832 64.97813 48.270832L65.10313 47.333332Q65.2125 47.348957 65.275 47.348957Q65.94688 47.348957 66.47813 47.005207Q67.025 46.645832 67.025 45.911457Q67.025 45.333332 66.63438 44.958332Q66.24375 44.567707 65.61875 44.567707Q65.00938 44.567707 64.5875 44.958332Q64.18125 45.348957 64.07188 46.114582L63.009377 45.927082Q63.196877 44.880207 63.884377 44.302082Q64.57188 43.708332 65.5875 43.708332Q66.29063 43.708332 66.88438 44.020832Q67.47813 44.317707 67.79063 44.833332Q68.10313 45.348957 68.10313 45.942707Q68.10313 46.489582 67.80625 46.958332Q67.50938 47.411457 66.93125 47.677082Q67.68125 47.848957 68.10313 48.411457Q68.525 48.958332 68.525 49.802082Q68.525 50.927082 67.69688 51.708332Q66.88438 52.489582 65.63438 52.489582Q64.50938 52.489582 63.759377 51.817707Q63.009377 51.130207 62.9 50.067707Z" fill-rule="nonzero"/><path fill="#000000" d="M97.13021 305.83438L98.19271 305.74063Q98.270836 306.39688 98.552086 306.80313Q98.833336 307.20938 99.41146 307.475Q100.00521 307.725 100.739586 307.725Q101.38021 307.725 101.88021 307.5375Q102.38021 307.33438 102.614586 307.00626Q102.864586 306.6625 102.864586 306.27188Q102.864586 305.86563 102.63021 305.56876Q102.395836 305.25626 101.864586 305.05313Q101.50521 304.9125 100.31771 304.63126Q99.145836 304.35 98.677086 304.1Q98.052086 303.77188 97.75521 303.30313Q97.458336 302.81876 97.458336 302.225Q97.458336 301.58438 97.81771 301.02188Q98.19271 300.44376 98.895836 300.1625Q99.614586 299.86563 100.47396 299.86563Q101.427086 299.86563 102.16146 300.17813Q102.895836 300.475 103.28646 301.08438Q103.677086 301.67813 103.708336 302.42813L102.614586 302.50626Q102.520836 301.69376 102.00521 301.2875Q101.50521 300.86563 100.520836 300.86563Q99.489586 300.86563 99.020836 301.24063Q98.552086 301.61563 98.552086 302.14688Q98.552086 302.61563 98.88021 302.9125Q99.208336 303.20938 100.583336 303.52188Q101.97396 303.83438 102.489586 304.06876Q103.239586 304.42813 103.59896 304.95938Q103.958336 305.475 103.958336 306.17813Q103.958336 306.86563 103.56771 307.475Q103.177086 308.06876 102.44271 308.4125Q101.708336 308.74063 100.78646 308.74063Q99.614586 308.74063 98.81771 308.4125Q98.03646 308.06876 97.583336 307.38126Q97.145836 306.69376 97.13021 305.83438ZM105.38021 310.99063L105.38021 302.38126L106.333336 302.38126L106.333336 303.17813Q106.677086 302.70938 107.09896 302.475Q107.53646 302.24063 108.145836 302.24063Q108.94271 302.24063 109.552086 302.64688Q110.16146 303.05313 110.458336 303.80313Q110.770836 304.55313 110.770836 305.44376Q110.770836 306.39688 110.427086 307.1625Q110.09896 307.92813 109.44271 308.33438Q108.78646 308.74063 108.06771 308.74063Q107.53646 308.74063 107.114586 308.52188Q106.69271 308.2875 106.427086 307.95938L106.427086 310.99063L105.38021 310.99063ZM106.333336 305.52188Q106.333336 306.725 106.81771 307.30313Q107.302086 307.86563 107.989586 307.86563Q108.69271 307.86563 109.19271 307.27188Q109.69271 306.67813 109.69271 305.42813Q109.69271 304.24063 109.208336 303.6625Q108.72396 303.06876 108.03646 303.06876Q107.364586 303.06876 106.84896 303.69376Q106.333336 304.31876 106.333336 305.52188ZM112.364586 308.6L112.364586 302.38126L113.31771 302.38126L113.31771 303.31876Q113.677086 302.6625 113.97396 302.45938Q114.28646 302.24063 114.66146 302.24063Q115.19271 302.24063 115.739586 302.56876L115.38021 303.55313Q114.989586 303.31876 114.614586 303.31876Q114.25521 303.31876 113.97396 303.5375Q113.708336 303.74063 113.59896 304.11563Q113.41146 304.67813 113.41146 305.33438L113.41146 308.6L112.364586 308.6ZM116.38021 301.225L116.38021 300.00626L117.44271 300.00626L117.44271 301.225L116.38021 301.225ZM116.38021 308.6L116.38021 302.38126L117.44271 302.38126L117.44271 308.6L116.38021 308.6ZM119.38021 308.6L119.38021 302.38126L120.31771 302.38126L120.31771 303.25626Q121.00521 302.24063 122.302086 302.24063Q122.864586 302.24063 123.333336 302.44376Q123.81771 302.64688 124.052086 302.975Q124.28646 303.30313 124.38021 303.74063Q124.427086 304.0375 124.427086 304.77188L124.427086 308.6L123.38021 308.6L123.38021 304.81876Q123.38021 304.1625 123.25521 303.85Q123.13021 303.5375 122.81771 303.35Q122.50521 303.14688 122.083336 303.14688Q121.41146 303.14688 120.91146 303.58438Q120.427086 304.00626 120.427086 305.19376L120.427086 308.6L119.38021 308.6ZM128.6771 307.6625L128.83334 308.58438Q128.38022 308.67813 128.03647 308.67813Q127.458336 308.67813 127.145836 308.50626Q126.833336 308.31876 126.69271 308.02188Q126.56771 307.725 126.56771 306.77188L126.56771 303.19376L125.802086 303.19376L125.802086 302.38126L126.56771 302.38126L126.56771 300.83438L127.614586 300.20938L127.614586 302.38126L128.6771 302.38126L128.6771 303.19376L127.614586 303.19376L127.614586 306.83438Q127.614586 307.2875 127.66146 307.4125Q127.72396 307.5375 127.84896 307.61563Q127.97396 307.69376 128.20834 307.69376Q128.39584 307.69376 128.6771 307.6625ZM136.0521 308.6L135.00522 308.6L135.00522 301.88126Q134.6146 302.24063 133.9896 302.61563Q133.38022 302.975 132.89584 303.14688L132.89584 302.13126Q133.77084 301.70938 134.4271 301.13126Q135.09897 300.5375 135.38022 299.975L136.0521 299.975L136.0521 308.6Z" fill-rule="nonzero"/><path fill="#000000" d="M169.49687 305.83438L170.55937 305.74063Q170.6375 306.39688 170.91875 306.80313Q171.2 307.20938 171.77812 307.475Q172.37187 307.725 173.10625 307.725Q173.74687 307.725 174.24687 307.5375Q174.74687 307.33438 174.98125 307.00626Q175.23125 306.6625 175.23125 306.27188Q175.23125 305.86563 174.99687 305.56876Q174.7625 305.25626 174.23125 305.05313Q173.87187 304.9125 172.68437 304.63126Q171.5125 304.35 171.04375 304.1Q170.41875 303.77188 170.12187 303.30313Q169.825 302.81876 169.825 302.225Q169.825 301.58438 170.18437 301.02188Q170.55937 300.44376 171.2625 300.1625Q171.98125 299.86563 172.84062 299.86563Q173.79375 299.86563 174.52812 300.17813Q175.2625 300.475 175.65312 301.08438Q176.04375 301.67813 176.075 302.42813L174.98125 302.50626Q174.8875 301.69376 174.37187 301.2875Q173.87187 300.86563 172.8875 300.86563Q171.85625 300.86563 171.3875 301.24063Q170.91875 301.61563 170.91875 302.14688Q170.91875 302.61563 171.24687 302.9125Q171.575 303.20938 172.95 303.52188Q174.34062 303.83438 174.85625 304.06876Q175.60625 304.42813 175.96562 304.95938Q176.325 305.475 176.325 306.17813Q176.325 306.86563 175.93437 307.475Q175.54375 308.06876 174.80937 308.4125Q174.075 308.74063 173.15312 308.74063Q171.98125 308.74063 171.18437 308.4125Q170.40312 308.06876 169.95 307.38126Q169.5125 306.69376 169.49687 305.83438ZM177.74687 310.99063L177.74687 302.38126L178.7 302.38126L178.7 303.17813Q179.04375 302.70938 179.46562 302.475Q179.90312 302.24063 180.5125 302.24063Q181.30937 302.24063 181.91875 302.64688Q182.52812 303.05313 182.825 303.80313Q183.1375 304.55313 183.1375 305.44376Q183.1375 306.39688 182.79375 307.1625Q182.46562 307.92813 181.80937 308.33438Q181.15312 308.74063 180.43437 308.74063Q179.90312 308.74063 179.48125 308.52188Q179.05937 308.2875 178.79375 307.95938L178.79375 310.99063L177.74687 310.99063ZM178.7 305.52188Q178.7 306.725 179.18437 307.30313Q179.66875 307.86563 180.35625 307.86563Q181.05937 307.86563 181.55937 307.27188Q182.05937 306.67813 182.05937 305.42813Q182.05937 304.24063 181.575 303.6625Q181.09062 303.06876 180.40312 303.06876Q179.73125 303.06876 179.21562 303.69376Q178.7 304.31876 178.7 305.52188ZM184.73125 308.6L184.73125 302.38126L185.68437 302.38126L185.68437 303.31876Q186.04375 302.6625 186.34062 302.45938Q186.65312 302.24063 187.02812 302.24063Q187.55937 302.24063 188.10625 302.56876L187.74687 303.55313Q187.35625 303.31876 186.98125 303.31876Q186.62187 303.31876 186.34062 303.5375Q186.075 303.74063 185.96562 304.11563Q185.77812 304.67813 185.77812 305.33438L185.77812 308.6L184.73125 308.6ZM188.74687 301.225L188.74687 300.00626L189.80937 300.00626L189.80937 301.225L188.74687 301.225ZM188.74687 308.6L188.74687 302.38126L189.80937 302.38126L189.80937 308.6L188.74687 308.6ZM191.74687 308.6L191.74687 302.38126L192.68437 302.38126L192.68437 303.25626Q193.37187 302.24063 194.66875 302.24063Q195.23125 302.24063 195.7 302.44376Q196.18437 302.64688 196.41875 302.975Q196.65312 303.30313 196.74687 303.74063Q196.79375 304.0375 196.79375 304.77188L196.79375 308.6L195.74687 308.6L195.74687 304.81876Q195.74687 304.1625 195.62187 303.85Q195.49687 303.5375 195.18437 303.35Q194.87187 303.14688 194.45 303.14688Q193.77812 303.14688 193.27812 303.58438Q192.79375 304.00626 192.79375 305.19376L192.79375 308.6L191.74687 308.6ZM201.04375 307.6625L201.2 308.58438Q200.74687 308.67813 200.40312 308.67813Q199.825 308.67813 199.5125 308.50626Q199.2 308.31876 199.05937 308.02188Q198.93437 307.725 198.93437 306.77188L198.93437 303.19376L198.16875 303.19376L198.16875 302.38126L198.93437 302.38126L198.93437 300.83438L199.98125 300.20938L199.98125 302.38126L201.04375 302.38126L201.04375 303.19376L199.98125 303.19376L199.98125 306.83438Q199.98125 307.2875 200.02812 307.4125Q200.09062 307.5375 200.21562 307.61563Q200.34062 307.69376 200.575 307.69376Q200.7625 307.69376 201.04375 307.6625ZM209.99687 307.58438L209.99687 308.6L204.30937 308.6Q204.30937 308.225 204.43437 307.86563Q204.65312 307.2875 205.12187 306.725Q205.60625 306.1625 206.5125 305.42813Q207.91875 304.27188 208.40312 303.6Q208.90312 302.92813 208.90312 302.33438Q208.90312 301.70938 208.45 301.2875Q207.99687 300.85 207.27812 300.85Q206.5125 300.85 206.05937 301.30313Q205.60625 301.75626 205.59062 302.56876L204.5125 302.45938Q204.62187 301.24063 205.34062 300.61563Q206.075 299.975 207.30937 299.975Q208.54375 299.975 209.2625 300.6625Q209.98125 301.35 209.98125 302.36563Q209.98125 302.88126 209.7625 303.38126Q209.55937 303.86563 209.05937 304.42813Q208.575 304.975 207.45 305.92813Q206.49687 306.725 206.21562 307.02188Q205.95 307.30313 205.77812 307.58438L209.99687 307.58438Z" fill-rule="nonzero"/><path fill="#000000" d="M241.86354 305.83438L242.92604 305.74063Q243.00417 306.39688 243.28542 306.80313Q243.56667 307.20938 244.14479 307.475Q244.73854 307.725 245.47292 307.725Q246.11354 307.725 246.61354 307.5375Q247.11354 307.33438 247.34792 307.00626Q247.59792 306.6625 247.59792 306.27188Q247.59792 305.86563 247.36354 305.56876Q247.12917 305.25626 246.59792 305.05313Q246.23854 304.9125 245.05104 304.63126Q243.87917 304.35 243.41042 304.1Q242.78542 303.77188 242.48854 303.30313Q242.19167 302.81876 242.19167 302.225Q242.19167 301.58438 242.55104 301.02188Q242.92604 300.44376 243.62917 300.1625Q244.34792 299.86563 245.20729 299.86563Q246.16042 299.86563 246.89479 300.17813Q247.62917 300.475 248.01979 301.08438Q248.41042 301.67813 248.44167 302.42813L247.34792 302.50626Q247.25417 301.69376 246.73854 301.2875Q246.23854 300.86563 245.25417 300.86563Q244.22292 300.86563 243.75417 301.24063Q243.28542 301.61563 243.28542 302.14688Q243.28542 302.61563 243.61354 302.9125Q243.94167 303.20938 245.31667 303.52188Q246.70729 303.83438 247.22292 304.06876Q247.97292 304.42813 248.33229 304.95938Q248.69167 305.475 248.69167 306.17813Q248.69167 306.86563 248.30104 307.475Q247.91042 308.06876 247.17604 308.4125Q246.44167 308.74063 245.51979 308.74063Q244.34792 308.74063 243.55104 308.4125Q242.76979 308.06876 242.31667 307.38126Q241.87917 306.69376 241.86354 305.83438ZM250.11354 310.99063L250.11354 302.38126L251.06667 302.38126L251.06667 303.17813Q251.41042 302.70938 251.83229 302.475Q252.26979 302.24063 252.87917 302.24063Q253.67604 302.24063 254.28542 302.64688Q254.89479 303.05313 255.19167 303.80313Q255.50417 304.55313 255.50417 305.44376Q255.50417 306.39688 255.16042 307.1625Q254.83229 307.92813 254.17604 308.33438Q253.51979 308.74063 252.80104 308.74063Q252.26979 308.74063 251.84792 308.52188Q251.42604 308.2875 251.16042 307.95938L251.16042 310.99063L250.11354 310.99063ZM251.06667 305.52188Q251.06667 306.725 251.55104 307.30313Q252.03542 307.86563 252.72292 307.86563Q253.42604 307.86563 253.92604 307.27188Q254.42604 306.67813 254.42604 305.42813Q254.42604 304.24063 253.94167 303.6625Q253.45729 303.06876 252.76979 303.06876Q252.09792 303.06876 251.58229 303.69376Q251.06667 304.31876 251.06667 305.52188ZM257.0979 308.6L257.0979 302.38126L258.05103 302.38126L258.05103 303.31876Q258.4104 302.6625 258.70728 302.45938Q259.01978 302.24063 259.39478 302.24063Q259.92603 302.24063 260.4729 302.56876L260.11353 303.55313Q259.7229 303.31876 259.3479 303.31876Q258.98853 303.31876 258.70728 303.5375Q258.44165 303.74063 258.33228 304.11563Q258.14478 304.67813 258.14478 305.33438L258.14478 308.6L257.0979 308.6ZM261.11353 301.225L261.11353 300.00626L262.17603 300.00626L262.17603 301.225L261.11353 301.225ZM261.11353 308.6L261.11353 302.38126L262.17603 302.38126L262.17603 308.6L261.11353 308.6ZM264.11353 308.6L264.11353 302.38126L265.05103 302.38126L265.05103 303.25626Q265.73853 302.24063 267.0354 302.24063Q267.5979 302.24063 268.06665 302.44376Q268.55103 302.64688 268.7854 302.975Q269.01978 303.30313 269.11353 303.74063Q269.1604 304.0375 269.1604 304.77188L269.1604 308.6L268.11353 308.6L268.11353 304.81876Q268.11353 304.1625 267.98853 303.85Q267.86353 303.5375 267.55103 303.35Q267.23853 303.14688 266.81665 303.14688Q266.14478 303.14688 265.64478 303.58438Q265.1604 304.00626 265.1604 305.19376L265.1604 308.6L264.11353 308.6ZM273.4104 307.6625L273.56665 308.58438Q273.11353 308.67813 272.76978 308.67813Q272.19165 308.67813 271.87915 308.50626Q271.56665 308.31876 271.42603 308.02188Q271.30103 307.725 271.30103 306.77188L271.30103 303.19376L270.5354 303.19376L270.5354 302.38126L271.30103 302.38126L271.30103 300.83438L272.3479 300.20938L272.3479 302.38126L273.4104 302.38126L273.4104 303.19376L272.3479 303.19376L272.3479 306.83438Q272.3479 307.2875 272.39478 307.4125Q272.45728 307.5375 272.58228 307.61563Q272.70728 307.69376 272.94165 307.69376Q273.12915 307.69376 273.4104 307.6625ZM276.81665 306.33438L277.87915 306.19376Q278.05103 307.08438 278.48853 307.49063Q278.92603 307.88126 279.55103 307.88126Q280.30103 307.88126 280.81665 307.36563Q281.33228 306.85 281.33228 306.08438Q281.33228 305.36563 280.8479 304.89688Q280.37915 304.4125 279.64478 304.4125Q279.3479 304.4125 278.89478 304.5375L279.01978 303.6Q279.12915 303.61563 279.19165 303.61563Q279.86353 303.61563 280.39478 303.27188Q280.94165 302.9125 280.94165 302.17813Q280.94165 301.6 280.55103 301.225Q280.1604 300.83438 279.5354 300.83438Q278.92603 300.83438 278.50415 301.225Q278.0979 301.61563 277.98853 302.38126L276.92603 302.19376Q277.11353 301.14688 277.80103 300.56876Q278.48853 299.975 279.50415 299.975Q280.20728 299.975 280.80103 300.2875Q281.39478 300.58438 281.70728 301.1Q282.01978 301.61563 282.01978 302.20938Q282.01978 302.75626 281.7229 303.225Q281.42603 303.67813 280.8479 303.94376Q281.5979 304.11563 282.01978 304.67813Q282.44165 305.225 282.44165 306.06876Q282.44165 307.19376 281.61353 307.975Q280.80103 308.75626 279.55103 308.75626Q278.42603 308.75626 277.67603 308.08438Q276.92603 307.39688 276.81665 306.33438Z" fill-rule="nonzero"/><path fill="#000000" d="M314.2302 305.83438L315.2927 305.74063Q315.37082 306.39688 315.65207 306.80313Q315.93332 307.20938 316.51144 307.475Q317.1052 307.725 317.83957 307.725Q318.4802 307.725 318.9802 307.5375Q319.4802 307.33438 319.71457 307.00626Q319.96457 306.6625 319.96457 306.27188Q319.96457 305.86563 319.7302 305.56876Q319.49582 305.25626 318.96457 305.05313Q318.6052 304.9125 317.4177 304.63126Q316.24582 304.35 315.77707 304.1Q315.15207 303.77188 314.8552 303.30313Q314.55832 302.81876 314.55832 302.225Q314.55832 301.58438 314.9177 301.02188Q315.2927 300.44376 315.99582 300.1625Q316.71457 299.86563 317.57394 299.86563Q318.52707 299.86563 319.26144 300.17813Q319.99582 300.475 320.38644 301.08438Q320.77707 301.67813 320.80832 302.42813L319.71457 302.50626Q319.62082 301.69376 319.1052 301.2875Q318.6052 300.86563 317.62082 300.86563Q316.58957 300.86563 316.12082 301.24063Q315.65207 301.61563 315.65207 302.14688Q315.65207 302.61563 315.9802 302.9125Q316.30832 303.20938 317.68332 303.52188Q319.07394 303.83438 319.58957 304.06876Q320.33957 304.42813 320.69894 304.95938Q321.05832 305.475 321.05832 306.17813Q321.05832 306.86563 320.6677 307.475Q320.27707 308.06876 319.5427 308.4125Q318.80832 308.74063 317.88644 308.74063Q316.71457 308.74063 315.9177 308.4125Q315.13644 308.06876 314.68332 307.38126Q314.24582 306.69376 314.2302 305.83438ZM322.4802 310.99063L322.4802 302.38126L323.43332 302.38126L323.43332 303.17813Q323.77707 302.70938 324.19894 302.475Q324.63644 302.24063 325.24582 302.24063Q326.0427 302.24063 326.65207 302.64688Q327.26144 303.05313 327.55832 303.80313Q327.87082 304.55313 327.87082 305.44376Q327.87082 306.39688 327.52707 307.1625Q327.19894 307.92813 326.5427 308.33438Q325.88644 308.74063 325.1677 308.74063Q324.63644 308.74063 324.21457 308.52188Q323.7927 308.2875 323.52707 307.95938L323.52707 310.99063L322.4802 310.99063ZM323.43332 305.52188Q323.43332 306.725 323.9177 307.30313Q324.40207 307.86563 325.08957 307.86563Q325.7927 307.86563 326.2927 307.27188Q326.7927 306.67813 326.7927 305.42813Q326.7927 304.24063 326.30832 303.6625Q325.82394 303.06876 325.13644 303.06876Q324.46457 303.06876 323.94894 303.69376Q323.43332 304.31876 323.43332 305.52188ZM329.46457 308.6L329.46457 302.38126L330.4177 302.38126L330.4177 303.31876Q330.77707 302.6625 331.07394 302.45938Q331.38644 302.24063 331.76144 302.24063Q332.2927 302.24063 332.83957 302.56876L332.4802 303.55313Q332.08957 303.31876 331.71457 303.31876Q331.3552 303.31876 331.07394 303.5375Q330.80832 303.74063 330.69894 304.11563Q330.51144 304.67813 330.51144 305.33438L330.51144 308.6L329.46457 308.6ZM333.4802 301.225L333.4802 300.00626L334.5427 300.00626L334.5427 301.225L333.4802 301.225ZM333.4802 308.6L333.4802 302.38126L334.5427 302.38126L334.5427 308.6L333.4802 308.6ZM336.4802 308.6L336.4802 302.38126L337.4177 302.38126L337.4177 303.25626Q338.1052 302.24063 339.40207 302.24063Q339.96457 302.24063 340.43332 302.44376Q340.9177 302.64688 341.15207 302.975Q341.38644 303.30313 341.4802 303.74063Q341.52707 304.0375 341.52707 304.77188L341.52707 308.6L340.4802 308.6L340.4802 304.81876Q340.4802 304.1625 340.3552 303.85Q340.2302 303.5375 339.9177 303.35Q339.6052 303.14688 339.18332 303.14688Q338.51144 303.14688 338.01144 303.58438Q337.52707 304.00626 337.52707 305.19376L337.52707 308.6L336.4802 308.6ZM345.77707 307.6625L345.93332 308.58438Q345.4802 308.67813 345.13644 308.67813Q344.55832 308.67813 344.24582 308.50626Q343.93332 308.31876 343.7927 308.02188Q343.6677 307.725 343.6677 306.77188L343.6677 303.19376L342.90207 303.19376L342.90207 302.38126L343.6677 302.38126L343.6677 300.83438L344.71457 300.20938L344.71457 302.38126L345.77707 302.38126L345.77707 303.19376L344.71457 303.19376L344.71457 306.83438Q344.71457 307.2875 344.76144 307.4125Q344.82394 307.5375 344.94894 307.61563Q345.07394 307.69376 345.30832 307.69376Q345.49582 307.69376 345.77707 307.6625ZM352.55832 308.6L352.55832 306.5375L348.83957 306.5375L348.83957 305.56876L352.76144 300.00626L353.62082 300.00626L353.62082 305.56876L354.77707 305.56876L354.77707 306.5375L353.62082 306.5375L353.62082 308.6L352.55832 308.6ZM352.55832 305.56876L352.55832 301.70938L349.87082 305.56876L352.55832 305.56876Z" fill-rule="nonzero"/><path fill="#000000" d="M386.59686 305.83438L387.65936 305.74063Q387.7375 306.39688 388.01874 306.80313Q388.3 307.20938 388.8781 307.475Q389.47186 307.725 390.20624 307.725Q390.84686 307.725 391.34686 307.5375Q391.84686 307.33438 392.08124 307.00626Q392.33124 306.6625 392.33124 306.27188Q392.33124 305.86563 392.09686 305.56876Q391.8625 305.25626 391.33124 305.05313Q390.97186 304.9125 389.78436 304.63126Q388.6125 304.35 388.14374 304.1Q387.51874 303.77188 387.22186 303.30313Q386.925 302.81876 386.925 302.225Q386.925 301.58438 387.28436 301.02188Q387.65936 300.44376 388.3625 300.1625Q389.08124 299.86563 389.9406 299.86563Q390.89374 299.86563 391.6281 300.17813Q392.3625 300.475 392.7531 301.08438Q393.14374 301.67813 393.175 302.42813L392.08124 302.50626Q391.9875 301.69376 391.47186 301.2875Q390.97186 300.86563 389.9875 300.86563Q388.95624 300.86563 388.4875 301.24063Q388.01874 301.61563 388.01874 302.14688Q388.01874 302.61563 388.34686 302.9125Q388.675 303.20938 390.05 303.52188Q391.4406 303.83438 391.95624 304.06876Q392.70624 304.42813 393.0656 304.95938Q393.425 305.475 393.425 306.17813Q393.425 306.86563 393.03436 307.475Q392.64374 308.06876 391.90936 308.4125Q391.175 308.74063 390.2531 308.74063Q389.08124 308.74063 388.28436 308.4125Q387.5031 308.06876 387.05 307.38126Q386.6125 306.69376 386.59686 305.83438ZM394.84686 310.99063L394.84686 302.38126L395.8 302.38126L395.8 303.17813Q396.14374 302.70938 396.5656 302.475Q397.0031 302.24063 397.6125 302.24063Q398.40936 302.24063 399.01874 302.64688Q399.6281 303.05313 399.925 303.80313Q400.2375 304.55313 400.2375 305.44376Q400.2375 306.39688 399.89374 307.1625Q399.5656 307.92813 398.90936 308.33438Q398.2531 308.74063 397.53436 308.74063Q397.0031 308.74063 396.58124 308.52188Q396.15936 308.2875 395.89374 307.95938L395.89374 310.99063L394.84686 310.99063ZM395.8 305.52188Q395.8 306.725 396.28436 307.30313Q396.76874 307.86563 397.45624 307.86563Q398.15936 307.86563 398.65936 307.27188Q399.15936 306.67813 399.15936 305.42813Q399.15936 304.24063 398.675 303.6625Q398.1906 303.06876 397.5031 303.06876Q396.83124 303.06876 396.3156 303.69376Q395.8 304.31876 395.8 305.52188ZM401.83124 308.6L401.83124 302.38126L402.78436 302.38126L402.78436 303.31876Q403.14374 302.6625 403.4406 302.45938Q403.7531 302.24063 404.1281 302.24063Q404.65936 302.24063 405.20624 302.56876L404.84686 303.55313Q404.45624 303.31876 404.08124 303.31876Q403.72186 303.31876 403.4406 303.5375Q403.175 303.74063 403.0656 304.11563Q402.8781 304.67813 402.8781 305.33438L402.8781 308.6L401.83124 308.6ZM405.84686 301.225L405.84686 300.00626L406.90936 300.00626L406.90936 301.225L405.84686 301.225ZM405.84686 308.6L405.84686 302.38126L406.90936 302.38126L406.90936 308.6L405.84686 308.6ZM408.84686 308.6L408.84686 302.38126L409.78436 302.38126L409.78436 303.25626Q410.47186 302.24063 411.76874 302.24063Q412.33124 302.24063 412.8 302.44376Q413.28436 302.64688 413.51874 302.975Q413.7531 303.30313 413.84686 303.74063Q413.89374 304.0375 413.89374 304.77188L413.89374 308.6L412.84686 308.6L412.84686 304.81876Q412.84686 304.1625 412.72186 303.85Q412.59686 303.5375 412.28436 303.35Q411.97186 303.14688 411.55 303.14688Q410.8781 303.14688 410.3781 303.58438Q409.89374 304.00626 409.89374 305.19376L409.89374 308.6L408.84686 308.6ZM418.14374 307.6625L418.3 308.58438Q417.84686 308.67813 417.5031 308.67813Q416.925 308.67813 416.6125 308.50626Q416.3 308.31876 416.15936 308.02188Q416.03436 307.725 416.03436 306.77188L416.03436 303.19376L415.26874 303.19376L415.26874 302.38126L416.03436 302.38126L416.03436 300.83438L417.08124 300.20938L417.08124 302.38126L418.14374 302.38126L418.14374 303.19376L417.08124 303.19376L417.08124 306.83438Q417.08124 307.2875 417.1281 307.4125Q417.1906 307.5375 417.3156 307.61563Q417.4406 307.69376 417.675 307.69376Q417.8625 307.69376 418.14374 307.6625ZM421.55 306.35L422.65936 306.25626Q422.78436 307.06876 423.22186 307.475Q423.675 307.88126 424.3156 307.88126Q425.0656 307.88126 425.59686 307.30313Q426.1281 306.725 426.1281 305.7875Q426.1281 304.88126 425.6125 304.36563Q425.1125 303.83438 424.28436 303.83438Q423.78436 303.83438 423.3625 304.06876Q422.95624 304.30313 422.72186 304.6625L421.7375 304.5375L422.5656 300.13126L426.84686 300.13126L426.84686 301.13126L423.40936 301.13126L422.95624 303.44376Q423.72186 302.89688 424.5656 302.89688Q425.6906 302.89688 426.45624 303.67813Q427.2375 304.45938 427.2375 305.69376Q427.2375 306.85 426.5656 307.70938Q425.7375 308.74063 424.3156 308.74063Q423.14374 308.74063 422.39374 308.08438Q421.65936 307.42813 421.55 306.35Z" fill-rule="nonzero"/><path fill="#000000" d="M458.96353 305.83438L460.02603 305.74063Q460.10416 306.39688 460.3854 306.80313Q460.66666 307.20938 461.24478 307.475Q461.83853 307.725 462.5729 307.725Q463.21353 307.725 463.71353 307.5375Q464.21353 307.33438 464.4479 307.00626Q464.6979 306.6625 464.6979 306.27188Q464.6979 305.86563 464.46353 305.56876Q464.22916 305.25626 463.6979 305.05313Q463.33853 304.9125 462.15103 304.63126Q460.97916 304.35 460.5104 304.1Q459.8854 303.77188 459.58853 303.30313Q459.29166 302.81876 459.29166 302.225Q459.29166 301.58438 459.65103 301.02188Q460.02603 300.44376 460.72916 300.1625Q461.4479 299.86563 462.30728 299.86563Q463.2604 299.86563 463.99478 300.17813Q464.72916 300.475 465.11978 301.08438Q465.5104 301.67813 465.54166 302.42813L464.4479 302.50626Q464.35416 301.69376 463.83853 301.2875Q463.33853 300.86563 462.35416 300.86563Q461.3229 300.86563 460.85416 301.24063Q460.3854 301.61563 460.3854 302.14688Q460.3854 302.61563 460.71353 302.9125Q461.04166 303.20938 462.41666 303.52188Q463.80728 303.83438 464.3229 304.06876Q465.0729 304.42813 465.43228 304.95938Q465.79166 305.475 465.79166 306.17813Q465.79166 306.86563 465.40103 307.475Q465.0104 308.06876 464.27603 308.4125Q463.54166 308.74063 462.61978 308.74063Q461.4479 308.74063 460.65103 308.4125Q459.86978 308.06876 459.41666 307.38126Q458.97916 306.69376 458.96353 305.83438ZM467.21353 310.99063L467.21353 302.38126L468.16666 302.38126L468.16666 303.17813Q468.5104 302.70938 468.93228 302.475Q469.36978 302.24063 469.97916 302.24063Q470.77603 302.24063 471.3854 302.64688Q471.99478 303.05313 472.29166 303.80313Q472.60416 304.55313 472.60416 305.44376Q472.60416 306.39688 472.2604 307.1625Q471.93228 307.92813 471.27603 308.33438Q470.61978 308.74063 469.90103 308.74063Q469.36978 308.74063 468.9479 308.52188Q468.52603 308.2875 468.2604 307.95938L468.2604 310.99063L467.21353 310.99063ZM468.16666 305.52188Q468.16666 306.725 468.65103 307.30313Q469.1354 307.86563 469.8229 307.86563Q470.52603 307.86563 471.02603 307.27188Q471.52603 306.67813 471.52603 305.42813Q471.52603 304.24063 471.04166 303.6625Q470.55728 303.06876 469.86978 303.06876Q469.1979 303.06876 468.68228 303.69376Q468.16666 304.31876 468.16666 305.52188ZM474.1979 308.6L474.1979 302.38126L475.15103 302.38126L475.15103 303.31876Q475.5104 302.6625 475.80728 302.45938Q476.11978 302.24063 476.49478 302.24063Q477.02603 302.24063 477.5729 302.56876L477.21353 303.55313Q476.8229 303.31876 476.4479 303.31876Q476.08853 303.31876 475.80728 303.5375Q475.54166 303.74063 475.43228 304.11563Q475.24478 304.67813 475.24478 305.33438L475.24478 308.6L474.1979 308.6ZM478.21353 301.225L478.21353 300.00626L479.27603 300.00626L479.27603 301.225L478.21353 301.225ZM478.21353 308.6L478.21353 302.38126L479.27603 302.38126L479.27603 308.6L478.21353 308.6ZM481.21353 308.6L481.21353 302.38126L482.15103 302.38126L482.15103 303.25626Q482.83853 302.24063 484.1354 302.24063Q484.6979 302.24063 485.16666 302.44376Q485.65103 302.64688 485.8854 302.975Q486.11978 303.30313 486.21353 303.74063Q486.2604 304.0375 486.2604 304.77188L486.2604 308.6L485.21353 308.6L485.21353 304.81876Q485.21353 304.1625 485.08853 303.85Q484.96353 303.5375 484.65103 303.35Q484.33853 303.14688 483.91666 303.14688Q483.24478 303.14688 482.74478 303.58438Q482.2604 304.00626 482.2604 305.19376L482.2604 308.6L481.21353 308.6ZM490.5104 307.6625L490.66666 308.58438Q490.21353 308.67813 489.86978 308.67813Q489.29166 308.67813 488.97916 308.50626Q488.66666 308.31876 488.52603 308.02188Q488.40103 307.725 488.40103 306.77188L488.40103 303.19376L487.6354 303.19376L487.6354 302.38126L488.40103 302.38126L488.40103 300.83438L489.4479 300.20938L489.4479 302.38126L490.5104 302.38126L490.5104 303.19376L489.4479 303.19376L489.4479 306.83438Q489.4479 307.2875 489.49478 307.4125Q489.55728 307.5375 489.68228 307.61563Q489.80728 307.69376 490.04166 307.69376Q490.22916 307.69376 490.5104 307.6625ZM499.3854 302.11563L498.33853 302.19376Q498.1979 301.56876 497.9479 301.2875Q497.5104 300.83438 496.8854 300.83438Q496.3854 300.83438 495.99478 301.11563Q495.5104 301.49063 495.21353 302.19376Q494.93228 302.88126 494.91666 304.1625Q495.29166 303.58438 495.83853 303.30313Q496.40103 303.02188 497.0104 303.02188Q498.05728 303.02188 498.79166 303.80313Q499.54166 304.58438 499.54166 305.80313Q499.54166 306.61563 499.18228 307.31876Q498.83853 308.00626 498.22916 308.38126Q497.61978 308.74063 496.85416 308.74063Q495.52603 308.74063 494.6979 307.77188Q493.86978 306.80313 493.86978 304.58438Q493.86978 302.08438 494.79166 300.95938Q495.58853 299.975 496.9479 299.975Q497.96353 299.975 498.60416 300.55313Q499.2604 301.11563 499.3854 302.11563ZM495.08853 305.81876Q495.08853 306.36563 495.30728 306.86563Q495.54166 307.35 495.9479 307.61563Q496.36978 307.88126 496.83853 307.88126Q497.49478 307.88126 497.97916 307.35Q498.46353 306.80313 498.46353 305.88126Q498.46353 304.99063 497.97916 304.475Q497.5104 303.95938 496.79166 303.95938Q496.0729 303.95938 495.5729 304.475Q495.08853 304.99063 495.08853 305.81876Z" fill-rule="nonzero"/><path fill="#4285f4" fill-opacity="0.5019608" d="M31.0 23.4C31.0 26.713709 28.31371 29.4 25.0 29.4C21.68629 29.4 19.0 26.713709 19.0 23.4C19.0 20.086292 21.68629 17.4 25.0 17.4C28.31371 17.4 31.0 20.086292 31.0 23.4Z" fill-rule="nonzero"/><path fill="#1a1a1a" d="M42.375 27.4L39.046875 18.80625L40.28125 18.80625L42.515625 25.05625Q42.78125 25.80625 42.96875 26.4625Q43.171875 25.759375 43.4375 25.05625L45.75 18.80625L46.90625 18.80625L43.546875 27.4L42.375 27.4ZM50.859375 26.634375Q50.265625 27.134375 49.71875 27.3375Q49.1875 27.540625 48.5625 27.540625Q47.53125 27.540625 46.984375 27.040625Q46.4375 26.540625 46.4375 25.759375Q46.4375 25.30625 46.640625 24.93125Q46.84375 24.540625 47.1875 24.321875Q47.53125 24.0875 47.953125 23.978125Q48.25 23.884375 48.890625 23.80625Q50.15625 23.665625 50.765625 23.446875Q50.765625 23.228125 50.765625 23.18125Q50.765625 22.525 50.46875 22.259375Q50.0625 21.915625 49.265625 21.915625Q48.53125 21.915625 48.171875 22.18125Q47.8125 22.43125 47.640625 23.0875L46.609375 22.946875Q46.75 22.290625 47.078125 21.884375Q47.40625 21.478125 48.015625 21.259375Q48.625 21.040625 49.421875 21.040625Q50.21875 21.040625 50.71875 21.228125Q51.21875 21.415625 51.453125 21.696875Q51.6875 21.978125 51.78125 22.415625Q51.828125 22.68125 51.828125 23.384375L51.828125 24.790625Q51.828125 26.259375 51.890625 26.65Q51.96875 27.040625 52.171875 27.4L51.0625 27.4Q50.90625 27.071875 50.859375 26.634375ZM50.765625 24.275Q50.1875 24.509375 49.046875 24.68125Q48.390625 24.775 48.125 24.9Q47.859375 25.009375 47.703125 25.228125Q47.5625 25.446875 47.5625 25.728125Q47.5625 26.15 47.875 26.43125Q48.203125 26.7125 48.8125 26.7125Q49.421875 26.7125 49.890625 26.446875Q50.375 26.18125 50.59375 25.7125Q50.765625 25.353125 50.765625 24.665625L50.765625 24.275ZM53.765625 27.4L53.765625 18.80625L54.828125 18.80625L54.828125 27.4L53.765625 27.4ZM56.40625 24.290625Q56.40625 22.55625 57.359375 21.728125Q58.15625 21.040625 59.3125 21.040625Q60.59375 21.040625 61.40625 21.884375Q62.234375 22.7125 62.234375 24.196875Q62.234375 25.4 61.875 26.0875Q61.515625 26.775 60.8125 27.165625Q60.125 27.540625 59.3125 27.540625Q58.015625 27.540625 57.203125 26.7125Q56.40625 25.86875 56.40625 24.290625ZM57.484375 24.290625Q57.484375 25.478125 58.0 26.071875Q58.53125 26.665625 59.3125 26.665625Q60.109375 26.665625 60.625 26.071875Q61.140625 25.478125 61.140625 24.259375Q61.140625 23.103125 60.609375 22.509375Q60.09375 21.915625 59.3125 21.915625Q58.53125 21.915625 58.0 22.509375Q57.484375 23.0875 57.484375 24.290625ZM63.78125 27.4L63.78125 21.18125L64.734375 21.18125L64.734375 22.11875Q65.09375 21.4625 65.390625 21.259375Q65.703125 21.040625 66.078125 21.040625Q66.609375 21.040625 67.15625 21.36875L66.796875 22.353125Q66.40625 22.11875 66.03125 22.11875Q65.671875 22.11875 65.390625 22.3375Q65.125 22.540625 65.015625 22.915625Q64.828125 23.478125 64.828125 24.134375L64.828125 27.4L63.78125 27.4ZM72.046875 25.4L73.140625 25.525Q72.890625 26.478125 72.1875 27.009375Q71.484375 27.540625 70.40625 27.540625Q69.046875 27.540625 68.234375 26.696875Q67.4375 25.853125 67.4375 24.3375Q67.4375 22.775 68.25 21.915625Q69.0625 21.040625 70.34375 21.040625Q71.59375 21.040625 72.375 21.884375Q73.171875 22.728125 73.171875 24.275Q73.171875 24.36875 73.171875 24.55625L68.53125 24.55625Q68.59375 25.5875 69.109375 26.134375Q69.625 26.665625 70.40625 26.665625Q70.984375 26.665625 71.390625 26.36875Q71.8125 26.05625 72.046875 25.4ZM68.59375 23.696875L72.0625 23.696875Q72.0 22.9 71.671875 22.509375Q71.15625 21.9 70.359375 21.9Q69.625 21.9 69.125 22.384375Q68.640625 22.86875 68.59375 23.696875ZM77.40625 24.290625Q77.40625 22.55625 78.359375 21.728125Q79.15625 21.040625 80.3125 21.040625Q81.59375 21.040625 82.40625 21.884375Q83.234375 22.7125 83.234375 24.196875Q83.234375 25.4 82.875 26.0875Q82.515625 26.775 81.8125 27.165625Q81.125 27.540625 80.3125 27.540625Q79.015625 27.540625 78.203125 26.7125Q77.40625 25.86875 77.40625 24.290625ZM78.484375 24.290625Q78.484375 25.478125 79.0 26.071875Q79.53125 26.665625 80.3125 26.665625Q81.109375 26.665625 81.625 26.071875Q82.140625 25.478125 82.140625 24.259375Q82.140625 23.103125 81.609375 22.509375Q81.09375 21.915625 80.3125 21.915625Q79.53125 21.915625 79.0 22.509375Q78.484375 23.0875 78.484375 24.290625ZM87.09375 26.4625L87.25 27.384375Q86.796875 27.478125 86.453125 27.478125Q85.875 27.478125 85.5625 27.30625Q85.25 27.11875 85.109375 26.821875Q84.984375 26.525 84.984375 25.571875L84.984375 21.99375L84.21875 21.99375L84.21875 21.18125L84.984375 21.18125L84.984375 19.634375L86.03125 19.009375L86.03125 21.18125L87.09375 21.18125L87.09375 21.99375L86.03125 21.99375L86.03125 25.634375Q86.03125 26.0875 86.078125 26.2125Q86.140625 26.3375 86.265625 26.415625Q86.390625 26.49375 86.625 26.49375Q86.8125 26.49375 87.09375 26.4625ZM90.09375 26.4625L90.25 27.384375Q89.796875 27.478125 89.453125 27.478125Q88.875 27.478125 88.5625 27.30625Q88.25 27.11875 88.109375 26.821875Q87.984375 26.525 87.984375 25.571875L87.984375 21.99375L87.21875 21.99375L87.21875 21.18125L87.984375 21.18125L87.984375 19.634375L89.03125 19.009375L89.03125 21.18125L90.09375 21.18125L90.09375 21.99375L89.03125 21.99375L89.03125 25.634375Q89.03125 26.0875 89.078125 26.2125Q89.140625 26.3375 89.265625 26.415625Q89.390625 26.49375 89.625 26.49375Q89.8125 26.49375 90.09375 26.4625ZM90.796875 20.025L90.796875 18.80625L91.859375 18.80625L91.859375 20.025L90.796875 20.025ZM90.796875 27.4L90.796875 21.18125L91.859375 21.18125L91.859375 27.4L90.796875 27.4ZM93.796875 27.4L93.796875 21.18125L94.734375 21.18125L94.734375 22.05625Q95.03125 21.5875 95.515625 21.321875Q96.0 21.040625 96.625 21.040625Q97.3125 21.040625 97.75 21.321875Q98.203125 21.603125 98.375 22.11875Q99.125 21.040625 100.296875 21.040625Q101.234375 21.040625 101.71875 21.55625Q102.21875 22.05625 102.21875 23.134375L102.21875 27.4L101.171875 27.4L101.171875 23.478125Q101.171875 22.853125 101.0625 22.571875Q100.96875 22.290625 100.703125 22.11875Q100.4375 21.946875 100.0625 21.946875Q99.40625 21.946875 98.96875 22.384375Q98.546875 22.821875 98.546875 23.790625L98.546875 27.4L97.484375 27.4L97.484375 23.353125Q97.484375 22.65 97.21875 22.30625Q96.96875 21.946875 96.390625 21.946875Q95.9375 21.946875 95.5625 22.18125Q95.1875 22.415625 95.015625 22.86875Q94.84375 23.321875 94.84375 24.165625L94.84375 27.4L93.796875 27.4ZM104.40625 24.290625Q104.40625 22.55625 105.359375 21.728125Q106.15625 21.040625 107.3125 21.040625Q108.59375 21.040625 109.40625 21.884375Q110.234375 22.7125 110.234375 24.196875Q110.234375 25.4 109.875 26.0875Q109.515625 26.775 108.8125 27.165625Q108.125 27.540625 107.3125 27.540625Q106.015625 27.540625 105.203125 26.7125Q104.40625 25.86875 104.40625 24.290625ZM105.484375 24.290625Q105.484375 25.478125 106.0 26.071875Q106.53125 26.665625 107.3125 26.665625Q108.109375 26.665625 108.625 26.071875Q109.140625 25.478125 109.140625 24.259375Q109.140625 23.103125 108.609375 22.509375Q108.09375 21.915625 107.3125 21.915625Q106.53125 21.915625 106.0 22.509375Q105.484375 23.0875 105.484375 24.290625Z" fill-rule="nonzero"/><path fill="#ea4335" d="M139.0 23.4C139.0 26.713709 136.3137 29.4 133.0 29.4C129.6863 29.4 127.0 26.713709 127.0 23.4C127.0 20.086292 129.6863 17.4 133.0 17.4C136.3137 17.4 139.0 20.086292 139.0 23.4Z" fill-rule="nonzero"/><path fill="#1a1a1a" d="M150.375 27.4L147.04688 18.80625L148.28125 18.80625L150.51562 25.05625Q150.78125 25.80625 150.96875 26.4625Q151.17188 25.759375 151.4375 25.05625L153.75 18.80625L154.90625 18.80625L151.54688 27.4L150.375 27.4ZM158.85938 26.634375Q158.26562 27.134375 157.71875 27.3375Q157.1875 27.540625 156.5625 27.540625Q155.53125 27.540625 154.98438 27.040625Q154.4375 26.540625 154.4375 25.759375Q154.4375 25.30625 154.64062 24.93125Q154.84375 24.540625 155.1875 24.321875Q155.53125 24.0875 155.95312 23.978125Q156.25 23.884375 156.89062 23.80625Q158.15625 23.665625 158.76562 23.446875Q158.76562 23.228125 158.76562 23.18125Q158.76562 22.525 158.46875 22.259375Q158.0625 21.915625 157.26562 21.915625Q156.53125 21.915625 156.17188 22.18125Q155.8125 22.43125 155.64062 23.0875L154.60938 22.946875Q154.75 22.290625 155.07812 21.884375Q155.40625 21.478125 156.01562 21.259375Q156.625 21.040625 157.42188 21.040625Q158.21875 21.040625 158.71875 21.228125Q159.21875 21.415625 159.45312 21.696875Q159.6875 21.978125 159.78125 22.415625Q159.82812 22.68125 159.82812 23.384375L159.82812 24.790625Q159.82812 26.259375 159.89062 26.65Q159.96875 27.040625 160.17188 27.4L159.0625 27.4Q158.90625 27.071875 158.85938 26.634375ZM158.76562 24.275Q158.1875 24.509375 157.04688 24.68125Q156.39062 24.775 156.125 24.9Q155.85938 25.009375 155.70312 25.228125Q155.5625 25.446875 155.5625 25.728125Q155.5625 26.15 155.875 26.43125Q156.20312 26.7125 156.8125 26.7125Q157.42188 26.7125 157.89062 26.446875Q158.375 26.18125 158.59375 25.7125Q158.76562 25.353125 158.76562 24.665625L158.76562 24.275ZM161.76562 27.4L161.76562 18.80625L162.82812 18.80625L162.82812 27.4L161.76562 27.4ZM164.40625 24.290625Q164.40625 22.55625 165.35938 21.728125Q166.15625 21.040625 167.3125 21.040625Q168.59375 21.040625 169.40625 21.884375Q170.23438 22.7125 170.23438 24.196875Q170.23438 25.4 169.875 26.0875Q169.51562 26.775 168.8125 27.165625Q168.125 27.540625 167.3125 27.540625Q166.01562 27.540625 165.20312 26.7125Q164.40625 25.86875 164.40625 24.290625ZM165.48438 24.290625Q165.48438 25.478125 166.0 26.071875Q166.53125 26.665625 167.3125 26.665625Q168.10938 26.665625 168.625 26.071875Q169.14062 25.478125 169.14062 24.259375Q169.14062 23.103125 168.60938 22.509375Q168.09375 21.915625 167.3125 21.915625Q166.53125 21.915625 166.0 22.509375Q165.48438 23.0875 165.48438 24.290625ZM171.78125 27.4L171.78125 21.18125L172.73438 21.18125L172.73438 22.11875Q173.09375 21.4625 173.39062 21.259375Q173.70312 21.040625 174.07812 21.040625Q174.60938 21.040625 175.15625 21.36875L174.79688 22.353125Q174.40625 22.11875 174.03125 22.11875Q173.67188 22.11875 173.39062 22.3375Q173.125 22.540625 173.01562 22.915625Q172.82812 23.478125 172.82812 24.134375L172.82812 27.4L171.78125 27.4ZM180.04688 25.4L181.14062 25.525Q180.89062 26.478125 180.1875 27.009375Q179.48438 27.540625 178.40625 27.540625Q177.04688 27.540625 176.23438 26.696875Q175.4375 25.853125 175.4375 24.3375Q175.4375 22.775 176.25 21.915625Q177.0625 21.040625 178.34375 21.040625Q179.59375 21.040625 180.375 21.884375Q181.17188 22.728125 181.17188 24.275Q181.17188 24.36875 181.17188 24.55625L176.53125 24.55625Q176.59375 25.5875 177.10938 26.134375Q177.625 26.665625 178.40625 26.665625Q178.98438 26.665625 179.39062 26.36875Q179.8125 26.05625 180.04688 25.4ZM176.59375 23.696875L180.0625 23.696875Q180.0 22.9 179.67188 22.509375Q179.15625 21.9 178.35938 21.9Q177.625 21.9 177.125 22.384375Q176.64062 22.86875 176.59375 23.696875ZM189.85938 26.634375Q189.26562 27.134375 188.71875 27.3375Q188.1875 27.540625 187.5625 27.540625Q186.53125 27.540625 185.98438 27.040625Q185.4375 26.540625 185.4375 25.759375Q185.4375 25.30625 185.64062 24.93125Q185.84375 24.540625 186.1875 24.321875Q186.53125 24.0875 186.95312 23.978125Q187.25 23.884375 187.89062 23.80625Q189.15625 23.665625 189.76562 23.446875Q189.76562 23.228125 189.76562 23.18125Q189.76562 22.525 189.46875 22.259375Q189.0625 21.915625 188.26562 21.915625Q187.53125 21.915625 187.17188 22.18125Q186.8125 22.43125 186.64062 23.0875L185.60938 22.946875Q185.75 22.290625 186.07812 21.884375Q186.40625 21.478125 187.01562 21.259375Q187.625 21.040625 188.42188 21.040625Q189.21875 21.040625 189.71875 21.228125Q190.21875 21.415625 190.45312 21.696875Q190.6875 21.978125 190.78125 22.415625Q190.82812 22.68125 190.82812 23.384375L190.82812 24.790625Q190.82812 26.259375 190.89062 26.65Q190.96875 27.040625 191.17188 27.4L190.0625 27.4Q189.90625 27.071875 189.85938 26.634375ZM189.76562 24.275Q189.1875 24.509375 188.04688 24.68125Q187.39062 24.775 187.125 24.9Q186.85938 25.009375 186.70312 25.228125Q186.5625 25.446875 186.5625 25.728125Q186.5625 26.15 186.875 26.43125Q187.20312 26.7125 187.8125 26.7125Q188.42188 26.7125 188.89062 26.446875Q189.375 26.18125 189.59375 25.7125Q189.76562 25.353125 189.76562 24.665625L189.76562 24.275ZM196.85938 25.11875L197.89062 25.259375Q197.71875 26.321875 197.01562 26.93125Q196.3125 27.540625 195.29688 27.540625Q194.01562 27.540625 193.23438 26.7125Q192.46875 25.86875 192.46875 24.30625Q192.46875 23.30625 192.79688 22.55625Q193.14062 21.790625 193.8125 21.415625Q194.5 21.040625 195.3125 21.040625Q196.3125 21.040625 196.95312 21.55625Q197.60938 22.05625 197.79688 23.009375L196.76562 23.165625Q196.625 22.540625 196.25 22.228125Q195.875 21.9 195.34375 21.9Q194.54688 21.9 194.04688 22.478125Q193.54688 23.040625 193.54688 24.275Q193.54688 25.540625 194.03125 26.103125Q194.51562 26.665625 195.28125 26.665625Q195.90625 26.665625 196.3125 26.290625Q196.73438 25.915625 196.85938 25.11875ZM202.85938 25.11875L203.89062 25.259375Q203.71875 26.321875 203.01562 26.93125Q202.3125 27.540625 201.29688 27.540625Q200.01562 27.540625 199.23438 26.7125Q198.46875 25.86875 198.46875 24.30625Q198.46875 23.30625 198.79688 22.55625Q199.14062 21.790625 199.8125 21.415625Q200.5 21.040625 201.3125 21.040625Q202.3125 21.040625 202.95312 21.55625Q203.60938 22.05625 203.79688 23.009375L202.76562 23.165625Q202.625 22.540625 202.25 22.228125Q201.875 21.9 201.34375 21.9Q200.54688 21.9 200.04688 22.478125Q199.54688 23.040625 199.54688 24.275Q199.54688 25.540625 200.03125 26.103125Q200.51562 26.665625 201.28125 26.665625Q201.90625 26.665625 202.3125 26.290625Q202.73438 25.915625 202.85938 25.11875ZM209.04688 25.4L210.14062 25.525Q209.89062 26.478125 209.1875 27.009375Q208.48438 27.540625 207.40625 27.540625Q206.04688 27.540625 205.23438 26.696875Q204.4375 25.853125 204.4375 24.3375Q204.4375 22.775 205.25 21.915625Q206.0625 21.040625 207.34375 21.040625Q208.59375 21.040625 209.375 21.884375Q210.17188 22.728125 210.17188 24.275Q210.17188 24.36875 210.17188 24.55625L205.53125 24.55625Q205.59375 25.5875 206.10938 26.134375Q206.625 26.665625 207.40625 26.665625Q207.98438 26.665625 208.39062 26.36875Q208.8125 26.05625 209.04688 25.4ZM205.59375 23.696875L209.0625 23.696875Q209.0 22.9 208.67188 22.509375Q208.15625 21.9 207.35938 21.9Q206.625 21.9 206.125 22.384375Q205.64062 22.86875 205.59375 23.696875ZM214.09375 26.4625L214.25 27.384375Q213.79688 27.478125 213.45312 27.478125Q212.875 27.478125 212.5625 27.30625Q212.25 27.11875 212.10938 26.821875Q211.98438 26.525 211.98438 25.571875L211.98438 21.99375L211.21875 21.99375L211.21875 21.18125L211.98438 21.18125L211.98438 19.634375L213.03125 19.009375L213.03125 21.18125L214.09375 21.18125L214.09375 21.99375L213.03125 21.99375L213.03125 25.634375Q213.03125 26.0875 213.07812 26.2125Q213.14062 26.3375 213.26562 26.415625Q213.39062 26.49375 213.625 26.49375Q213.8125 26.49375 214.09375 26.4625ZM217.09375 26.4625L217.25 27.384375Q216.79688 27.478125 216.45312 27.478125Q215.875 27.478125 215.5625 27.30625Q215.25 27.11875 215.10938 26.821875Q214.98438 26.525 214.98438 25.571875L214.98438 21.99375L214.21875 21.99375L214.21875 21.18125L214.98438 21.18125L214.98438 19.634375L216.03125 19.009375L216.03125 21.18125L217.09375 21.18125L217.09375 21.99375L216.03125 21.99375L216.03125 25.634375Q216.03125 26.0875 216.07812 26.2125Q216.14062 26.3375 216.26562 26.415625Q216.39062 26.49375 216.625 26.49375Q216.8125 26.49375 217.09375 26.4625ZM221.85938 26.634375Q221.26562 27.134375 220.71875 27.3375Q220.1875 27.540625 219.5625 27.540625Q218.53125 27.540625 217.98438 27.040625Q217.4375 26.540625 217.4375 25.759375Q217.4375 25.30625 217.64062 24.93125Q217.84375 24.540625 218.1875 24.321875Q218.53125 24.0875 218.95312 23.978125Q219.25 23.884375 219.89062 23.80625Q221.15625 23.665625 221.76562 23.446875Q221.76562 23.228125 221.76562 23.18125Q221.76562 22.525 221.46875 22.259375Q221.0625 21.915625 220.26562 21.915625Q219.53125 21.915625 219.17188 22.18125Q218.8125 22.43125 218.64062 23.0875L217.60938 22.946875Q217.75 22.290625 218.07812 21.884375Q218.40625 21.478125 219.01562 21.259375Q219.625 21.040625 220.42188 21.040625Q221.21875 21.040625 221.71875 21.228125Q222.21875 21.415625 222.45312 21.696875Q222.6875 21.978125 222.78125 22.415625Q222.82812 22.68125 222.82812 23.384375L222.82812 24.790625Q222.82812 26.259375 222.89062 26.65Q222.96875 27.040625 223.17188 27.4L222.0625 27.4Q221.90625 27.071875 221.85938 26.634375ZM221.76562 24.275Q221.1875 24.509375 220.04688 24.68125Q219.39062 24.775 219.125 24.9Q218.85938 25.009375 218.70312 25.228125Q218.5625 25.446875 218.5625 25.728125Q218.5625 26.15 218.875 26.43125Q219.20312 26.7125 219.8125 26.7125Q220.42188 26.7125 220.89062 26.446875Q221.375 26.18125 221.59375 25.7125Q221.76562 25.353125 221.76562 24.665625L221.76562 24.275ZM225.76562 27.4L224.78125 27.4L224.78125 18.80625L225.84375 18.80625L225.84375 21.86875Q226.51562 21.040625 227.54688 21.040625Q228.125 21.040625 228.625 21.275Q229.14062 21.49375 229.46875 21.915625Q229.8125 22.3375 230.0 22.93125Q230.1875 23.525 230.1875 24.196875Q230.1875 25.790625 229.39062 26.665625Q228.59375 27.540625 227.5 27.540625Q226.39062 27.540625 225.76562 26.61875L225.76562 27.4ZM225.75 24.24375Q225.75 25.353125 226.0625 25.853125Q226.5625 26.665625 227.40625 26.665625Q228.09375 26.665625 228.59375 26.071875Q229.10938 25.478125 229.10938 24.275Q229.10938 23.05625 228.625 22.478125Q228.14062 21.9 227.45312 21.9Q226.76562 21.9 226.25 22.509375Q225.75 23.103125 225.75 24.24375ZM231.79688 20.025L231.79688 18.80625L232.85938 18.80625L232.85938 20.025L231.79688 20.025ZM231.79688 27.4L231.79688 21.18125L232.85938 21.18125L232.85938 27.4L231.79688 27.4ZM234.76562 27.4L234.76562 18.80625L235.82812 18.80625L235.82812 27.4L234.76562 27.4ZM242.04688 25.4L243.14062 25.525Q242.89062 26.478125 242.1875 27.009375Q241.48438 27.540625 240.40625 27.540625Q239.04688 27.540625 238.23438 26.696875Q237.4375 25.853125 237.4375 24.3375Q237.4375 22.775 238.25 21.915625Q239.0625 21.040625 240.34375 21.040625Q241.59375 21.040625 242.375 21.884375Q243.17188 22.728125 243.17188 24.275Q243.17188 24.36875 243.17188 24.55625L238.53125 24.55625Q238.59375 25.5875 239.10938 26.134375Q239.625 26.665625 240.40625 26.665625Q240.98438 26.665625 241.39062 26.36875Q241.8125 26.05625 242.04688 25.4ZM238.59375 23.696875L242.0625 23.696875Q242.0 22.9 241.67188 22.509375Q241.15625 21.9 240.35938 21.9Q239.625 21.9 239.125 22.384375Q238.64062 22.86875 238.59375 23.696875Z" fill-rule="nonzero"/><path fill="#fbbc04" fill-opacity="0.5019608" d="M272.0 23.4C272.0 26.713709 269.31372 29.4 266.0 29.4C262.68628 29.4 260.0 26.713709 260.0 23.4C260.0 20.086292 262.68628 17.4 266.0 17.4C269.31372 17.4 272.0 20.086292 272.0 23.4Z" fill-rule="nonzero"/><path fill="#1a1a1a" d="M284.95312 24.025L284.95312 23.025L288.57812 23.009375L288.57812 26.196875Q287.75 26.86875 286.85938 27.2125Q285.96875 27.540625 285.03125 27.540625Q283.76562 27.540625 282.71875 27.009375Q281.6875 26.4625 281.15625 25.446875Q280.64062 24.415625 280.64062 23.15Q280.64062 21.884375 281.15625 20.80625Q281.6875 19.7125 282.67188 19.196875Q283.65625 18.665625 284.9375 18.665625Q285.875 18.665625 286.625 18.9625Q287.375 19.259375 287.79688 19.80625Q288.23438 20.3375 288.45312 21.2125L287.4375 21.49375Q287.23438 20.8375 286.9375 20.4625Q286.65625 20.0875 286.125 19.86875Q285.59375 19.634375 284.95312 19.634375Q284.17188 19.634375 283.59375 19.86875Q283.03125 20.103125 282.67188 20.49375Q282.32812 20.884375 282.14062 21.353125Q281.8125 22.15 281.8125 23.071875Q281.8125 24.228125 282.20312 25.009375Q282.60938 25.775 283.35938 26.15Q284.10938 26.525 284.96875 26.525Q285.70312 26.525 286.40625 26.24375Q287.10938 25.946875 287.46875 25.634375L287.46875 24.025L284.95312 24.025ZM289.76562 27.4L289.76562 18.80625L290.82812 18.80625L290.82812 27.4L289.76562 27.4ZM292.40625 24.290625Q292.40625 22.55625 293.35938 21.728125Q294.15625 21.040625 295.3125 21.040625Q296.59375 21.040625 297.40625 21.884375Q298.23438 22.7125 298.23438 24.196875Q298.23438 25.4 297.875 26.0875Q297.51562 26.775 296.8125 27.165625Q296.125 27.540625 295.3125 27.540625Q294.01562 27.540625 293.20312 26.7125Q292.40625 25.86875 292.40625 24.290625ZM293.48438 24.290625Q293.48438 25.478125 294.0 26.071875Q294.53125 26.665625 295.3125 26.665625Q296.10938 26.665625 296.625 26.071875Q297.14062 25.478125 297.14062 24.259375Q297.14062 23.103125 296.60938 22.509375Q296.09375 21.915625 295.3125 21.915625Q294.53125 21.915625 294.0 22.509375Q293.48438 23.0875 293.48438 24.290625ZM299.375 25.540625L300.40625 25.384375Q300.5 26.009375 300.89062 26.3375Q301.29688 26.665625 302.03125 26.665625Q302.75 26.665625 303.09375 26.384375Q303.45312 26.0875 303.45312 25.68125Q303.45312 25.321875 303.14062 25.11875Q302.92188 24.978125 302.0625 24.759375Q300.90625 24.4625 300.45312 24.259375Q300.01562 24.040625 299.78125 23.665625Q299.54688 23.290625 299.54688 22.821875Q299.54688 22.415625 299.73438 22.05625Q299.92188 21.696875 300.25 21.4625Q300.5 21.290625 300.92188 21.165625Q301.34375 21.040625 301.84375 21.040625Q302.5625 21.040625 303.10938 21.259375Q303.67188 21.4625 303.9375 21.821875Q304.20312 22.18125 304.29688 22.775L303.26562 22.915625Q303.20312 22.446875 302.85938 22.18125Q302.53125 21.9 301.90625 21.9Q301.1875 21.9 300.875 22.15Q300.5625 22.384375 300.5625 22.7125Q300.5625 22.915625 300.6875 23.071875Q300.82812 23.24375 301.09375 23.353125Q301.25 23.415625 302.03125 23.61875Q303.15625 23.93125 303.59375 24.11875Q304.03125 24.30625 304.28125 24.665625Q304.53125 25.025 304.53125 25.571875Q304.53125 26.103125 304.21875 26.571875Q303.92188 27.025 303.34375 27.290625Q302.76562 27.540625 302.03125 27.540625Q300.8125 27.540625 300.17188 27.040625Q299.54688 26.525 299.375 25.540625ZM306.375 25.540625L307.40625 25.384375Q307.5 26.009375 307.89062 26.3375Q308.29688 26.665625 309.03125 26.665625Q309.75 26.665625 310.09375 26.384375Q310.45312 26.0875 310.45312 25.68125Q310.45312 25.321875 310.14062 25.11875Q309.92188 24.978125 309.0625 24.759375Q307.90625 24.4625 307.45312 24.259375Q307.01562 24.040625 306.78125 23.665625Q306.54688 23.290625 306.54688 22.821875Q306.54688 22.415625 306.73438 22.05625Q306.92188 21.696875 307.25 21.4625Q307.5 21.290625 307.92188 21.165625Q308.34375 21.040625 308.84375 21.040625Q309.5625 21.040625 310.10938 21.259375Q310.67188 21.4625 310.9375 21.821875Q311.20312 22.18125 311.29688 22.775L310.26562 22.915625Q310.20312 22.446875 309.85938 22.18125Q309.53125 21.9 308.90625 21.9Q308.1875 21.9 307.875 22.15Q307.5625 22.384375 307.5625 22.7125Q307.5625 22.915625 307.6875 23.071875Q307.82812 23.24375 308.09375 23.353125Q308.25 23.415625 309.03125 23.61875Q310.15625 23.93125 310.59375 24.11875Q311.03125 24.30625 311.28125 24.665625Q311.53125 25.025 311.53125 25.571875Q311.53125 26.103125 311.21875 26.571875Q310.92188 27.025 310.34375 27.290625Q309.76562 27.540625 309.03125 27.540625Q307.8125 27.540625 307.17188 27.040625Q306.54688 26.525 306.375 25.540625ZM317.85938 26.634375Q317.26562 27.134375 316.71875 27.3375Q316.1875 27.540625 315.5625 27.540625Q314.53125 27.540625 313.98438 27.040625Q313.4375 26.540625 313.4375 25.759375Q313.4375 25.30625 313.64062 24.93125Q313.84375 24.540625 314.1875 24.321875Q314.53125 24.0875 314.95312 23.978125Q315.25 23.884375 315.89062 23.80625Q317.15625 23.665625 317.76562 23.446875Q317.76562 23.228125 317.76562 23.18125Q317.76562 22.525 317.46875 22.259375Q317.0625 21.915625 316.26562 21.915625Q315.53125 21.915625 315.17188 22.18125Q314.8125 22.43125 314.64062 23.0875L313.60938 22.946875Q313.75 22.290625 314.07812 21.884375Q314.40625 21.478125 315.01562 21.259375Q315.625 21.040625 316.42188 21.040625Q317.21875 21.040625 317.71875 21.228125Q318.21875 21.415625 318.45312 21.696875Q318.6875 21.978125 318.78125 22.415625Q318.82812 22.68125 318.82812 23.384375L318.82812 24.790625Q318.82812 26.259375 318.89062 26.65Q318.96875 27.040625 319.17188 27.4L318.0625 27.4Q317.90625 27.071875 317.85938 26.634375ZM317.76562 24.275Q317.1875 24.509375 316.04688 24.68125Q315.39062 24.775 315.125 24.9Q314.85938 25.009375 314.70312 25.228125Q314.5625 25.446875 314.5625 25.728125Q314.5625 26.15 314.875 26.43125Q315.20312 26.7125 315.8125 26.7125Q316.42188 26.7125 316.89062 26.446875Q317.375 26.18125 317.59375 25.7125Q317.76562 25.353125 317.76562 24.665625L317.76562 24.275ZM320.78125 27.4L320.78125 21.18125L321.73438 21.18125L321.73438 22.11875Q322.09375 21.4625 322.39062 21.259375Q322.70312 21.040625 323.07812 21.040625Q323.60938 21.040625 324.15625 21.36875L323.79688 22.353125Q323.40625 22.11875 323.03125 22.11875Q322.67188 22.11875 322.39062 22.3375Q322.125 22.540625 322.01562 22.915625Q321.82812 23.478125 321.82812 24.134375L321.82812 27.4L320.78125 27.4ZM324.79688 20.025L324.79688 18.80625L325.85938 18.80625L325.85938 20.025L324.79688 20.025ZM324.79688 27.4L324.79688 21.18125L325.85938 21.18125L325.85938 27.4L324.79688 27.4ZM327.40625 24.290625Q327.40625 22.55625 328.35938 21.728125Q329.15625 21.040625 330.3125 21.040625Q331.59375 21.040625 332.40625 21.884375Q333.23438 22.7125 333.23438 24.196875Q333.23438 25.4 332.875 26.0875Q332.51562 26.775 331.8125 27.165625Q331.125 27.540625 330.3125 27.540625Q329.01562 27.540625 328.20312 26.7125Q327.40625 25.86875 327.40625 24.290625ZM328.48438 24.290625Q328.48438 25.478125 329.0 26.071875Q329.53125 26.665625 330.3125 26.665625Q331.10938 26.665625 331.625 26.071875Q332.14062 25.478125 332.14062 24.259375Q332.14062 23.103125 331.60938 22.509375Q331.09375 21.915625 330.3125 21.915625Q329.53125 21.915625 329.0 22.509375Q328.48438 23.0875 328.48438 24.290625Z" fill-rule="nonzero"/><path fill="#34a853" fill-opacity="0.5019608" d="M362.0 23.4C362.0 26.713709 359.31372 29.4 356.0 29.4C352.68628 29.4 350.0 26.713709 350.0 23.4C350.0 20.086292 352.68628 17.4 356.0 17.4C359.31372 17.4 362.0 20.086292 362.0 23.4Z" fill-rule="nonzero"/><path fill="#1a1a1a" d="M370.92188 27.4L370.92188 18.80625L372.07812 18.80625L376.59375 25.55625L376.59375 18.80625L377.6875 18.80625L377.6875 27.4L376.51562 27.4L372.0 20.65L372.0 27.4L370.92188 27.4ZM383.82812 27.4L383.82812 26.61875Q383.23438 27.540625 382.09375 27.540625Q381.34375 27.540625 380.71875 27.134375Q380.09375 26.7125 379.75 25.978125Q379.40625 25.24375 379.40625 24.290625Q379.40625 23.36875 379.71875 22.603125Q380.03125 21.8375 380.65625 21.446875Q381.28125 21.040625 382.04688 21.040625Q382.60938 21.040625 383.04688 21.275Q383.48438 21.509375 383.76562 21.884375L383.76562 18.80625L384.8125 18.80625L384.8125 27.4L383.82812 27.4ZM380.5 24.290625Q380.5 25.49375 381.0 26.0875Q381.5 26.665625 382.1875 26.665625Q382.875 26.665625 383.35938 26.103125Q383.84375 25.540625 383.84375 24.384375Q383.84375 23.103125 383.34375 22.509375Q382.85938 21.915625 382.14062 21.915625Q381.4375 21.915625 380.96875 22.49375Q380.5 23.05625 380.5 24.290625ZM386.92188 27.4L386.92188 18.80625L390.17188 18.80625Q391.01562 18.80625 391.46875 18.884375Q392.10938 18.99375 392.53125 19.290625Q392.96875 19.5875 393.21875 20.11875Q393.48438 20.65 393.48438 21.290625Q393.48438 22.384375 392.78125 23.15Q392.09375 23.9 390.26562 23.9L388.0625 23.9L388.0625 27.4L386.92188 27.4ZM388.0625 22.9L390.28125 22.9Q391.39062 22.9 391.84375 22.49375Q392.3125 22.071875 392.3125 21.321875Q392.3125 20.790625 392.03125 20.415625Q391.76562 20.025 391.32812 19.9Q391.03125 19.821875 390.26562 19.821875L388.0625 19.821875L388.0625 22.9Z" fill-rule="nonzero"/><path fill="#ff6d01" fill-opacity="0.5019608" d="M422.0 23.4C422.0 26.713709 419.31372 29.4 416.0 29.4C412.68628 29.4 410.0 26.713709 410.0 23.4C410.0 20.086292 412.68628 17.4 416.0 17.4C419.31372 17.4 422.0 20.086292 422.0 23.4Z" fill-rule="nonzero"/><path fill="#1a1a1a" d="M430.92188 27.4L430.92188 18.80625L434.17188 18.80625Q435.01562 18.80625 435.46875 18.884375Q436.10938 18.99375 436.53125 19.290625Q436.96875 19.5875 437.21875 20.11875Q437.48438 20.65 437.48438 21.290625Q437.48438 22.384375 436.78125 23.15Q436.09375 23.9 434.26562 23.9L432.0625 23.9L432.0625 27.4L430.92188 27.4ZM432.0625 22.9L434.28125 22.9Q435.39062 22.9 435.84375 22.49375Q436.3125 22.071875 436.3125 21.321875Q436.3125 20.790625 436.03125 20.415625Q435.76562 20.025 435.32812 19.9Q435.03125 19.821875 434.26562 19.821875L432.0625 19.821875L432.0625 22.9ZM442.82812 27.4L442.82812 26.61875Q442.23438 27.540625 441.09375 27.540625Q440.34375 27.540625 439.71875 27.134375Q439.09375 26.7125 438.75 25.978125Q438.40625 25.24375 438.40625 24.290625Q438.40625 23.36875 438.71875 22.603125Q439.03125 21.8375 439.65625 21.446875Q440.28125 21.040625 441.04688 21.040625Q441.60938 21.040625 442.04688 21.275Q442.48438 21.509375 442.76562 21.884375L442.76562 18.80625L443.8125 18.80625L443.8125 27.4L442.82812 27.4ZM439.5 24.290625Q439.5 25.49375 440.0 26.0875Q440.5 26.665625 441.1875 26.665625Q441.875 26.665625 442.35938 26.103125Q442.84375 25.540625 442.84375 24.384375Q442.84375 23.103125 442.34375 22.509375Q441.85938 21.915625 441.14062 21.915625Q440.4375 21.915625 439.96875 22.49375Q439.5 23.05625 439.5 24.290625ZM452.4375 26.478125Q453.23438 27.025 453.89062 27.275L453.5625 28.071875Q452.64062 27.728125 451.71875 27.009375Q450.76562 27.540625 449.60938 27.540625Q448.4375 27.540625 447.48438 26.978125Q446.54688 26.415625 446.03125 25.4Q445.51562 24.384375 445.51562 23.103125Q445.51562 21.8375 446.03125 20.790625Q446.54688 19.74375 447.5 19.196875Q448.45312 18.65 449.625 18.65Q450.8125 18.65 451.76562 19.228125Q452.73438 19.790625 453.23438 20.80625Q453.73438 21.821875 453.73438 23.103125Q453.73438 24.165625 453.40625 25.009375Q453.09375 25.853125 452.4375 26.478125ZM449.9375 25.025Q450.92188 25.30625 451.5625 25.853125Q452.5625 24.93125 452.5625 23.103125Q452.5625 22.05625 452.20312 21.275Q451.84375 20.49375 451.15625 20.071875Q450.48438 19.634375 449.64062 19.634375Q448.35938 19.634375 447.51562 20.509375Q446.6875 21.36875 446.6875 23.103125Q446.6875 24.775 447.51562 25.68125Q448.34375 26.571875 449.64062 26.571875Q450.25 26.571875 450.78125 26.3375Q450.25 25.99375 449.65625 25.853125L449.9375 25.025Z" fill-rule="nonzero"/><path fill="#46bdc6" fill-opacity="0.5019608" d="M482.0 23.4C482.0 26.713709 479.31372 29.4 476.0 29.4C472.68628 29.4 470.0 26.713709 470.0 23.4C470.0 20.086292 472.68628 17.4 476.0 17.4C479.31372 17.4 482.0 20.086292 482.0 23.4Z" fill-rule="nonzero"/><path fill="#1a1a1a" d="M489.98438 27.4L493.28125 18.80625L494.5 18.80625L498.01562 27.4L496.73438 27.4L495.71875 24.790625L492.14062 24.790625L491.1875 27.4L489.98438 27.4ZM492.46875 23.86875L495.375 23.86875L494.48438 21.49375Q494.0625 20.415625 493.875 19.7125Q493.70312 20.540625 493.40625 21.353125L492.46875 23.86875ZM501.82812 27.4L501.82812 26.61875Q501.23438 27.540625 500.09375 27.540625Q499.34375 27.540625 498.71875 27.134375Q498.09375 26.7125 497.75 25.978125Q497.40625 25.24375 497.40625 24.290625Q497.40625 23.36875 497.71875 22.603125Q498.03125 21.8375 498.65625 21.446875Q499.28125 21.040625 500.04688 21.040625Q500.60938 21.040625 501.04688 21.275Q501.48438 21.509375 501.76562 21.884375L501.76562 18.80625L502.8125 18.80625L502.8125 27.4L501.82812 27.4ZM498.5 24.290625Q498.5 25.49375 499.0 26.0875Q499.5 26.665625 500.1875 26.665625Q500.875 26.665625 501.35938 26.103125Q501.84375 25.540625 501.84375 24.384375Q501.84375 23.103125 501.34375 22.509375Q500.85938 21.915625 500.14062 21.915625Q499.4375 21.915625 498.96875 22.49375Q498.5 23.05625 498.5 24.290625ZM504.9375 27.4L504.9375 18.80625L508.75 18.80625Q509.90625 18.80625 510.5 19.040625Q511.09375 19.275 511.45312 19.86875Q511.8125 20.446875 511.8125 21.15Q511.8125 22.071875 511.21875 22.696875Q510.625 23.321875 509.39062 23.49375Q509.84375 23.7125 510.07812 23.915625Q510.57812 24.36875 511.01562 25.05625L512.5156 27.4L511.07812 27.4L509.95312 25.61875Q509.45312 24.8375 509.125 24.43125Q508.8125 24.025 508.54688 23.86875Q508.29688 23.696875 508.03125 23.61875Q507.84375 23.5875 507.40625 23.5875L506.07812 23.5875L506.07812 27.4L504.9375 27.4ZM506.07812 22.603125L508.53125 22.603125Q509.29688 22.603125 509.73438 22.446875Q510.1875 22.275 510.40625 21.93125Q510.64062 21.571875 510.64062 21.15Q510.64062 20.540625 510.1875 20.15Q509.75 19.759375 508.79688 19.759375L506.07812 19.759375L506.07812 22.603125Z" fill-rule="nonzero"/></svg>