<svg version="1.1" viewBox="0.0 0.0 532.0 328.0" fill="none" stroke="none" stroke-linecap="square" stroke-miterlimit="10" width="532" height="328" xmlns:xlink="http://www.w3.org/1999/xlink" xmlns="http://www.w3.org/2000/svg"><path fill="#ffffff" d="M0 0L532.0 0L532.0 328.0L0 328.0L0 0Z" fill-rule="nonzero"/><path stroke="#333333" stroke-width="1.0" stroke-linecap="butt" d="M81.5 285.5L515.5 285.5" fill-rule="nonzero"/><path stroke="#cccccc" stroke-width="1.0" stroke-linecap="butt" d="M81.5 246.5L515.5 246.5" fill-rule="nonzero"/><path stroke="#cccccc" stroke-width="1.0" stroke-linecap="butt" d="M81.5 206.5L515.5 206.5" fill-rule="nonzero"/><path stroke="#cccccc" stroke-width="1.0" stroke-linecap="butt" d="M81.5 166.5L515.5 166.5" fill-rule="nonzero"/><path stroke="#cccccc" stroke-width="1.0" stroke-linecap="butt" d="M81.5 127.5L515.5 127.5" fill-rule="nonzero"/><path stroke="#cccccc" stroke-width="1.0" stroke-linecap="butt" d="M81.5 87.5L515.5 87.5" fill-rule="nonzero"/><path stroke="#cccccc" stroke-width="1.0" stroke-linecap="butt" d="M81.5 48.5L515.5 48.5" fill-rule="nonzero"/><path stroke="#000000" stroke-width="1.0" stroke-linecap="butt" d="M515.5 285.5L81.5 285.5" fill-rule="nonzero"/><path stroke="#000000" stroke-width="1.0" stroke-linecap="butt" d="M81.5 285.5L81.5 48.5" fill-rule="nonzero"/><clipPath id="id_0"><path d="M81.4 48.333332L515.6 48.333332L515.6 285.6L81.4 285.6L81.4 48.333332Z" clip-rule="nonzero"/></clipPath><path stroke="#4285f4" stroke-width="4.0" stroke-linecap="butt" clip-path="url(#id_0)" d="M135.675 285.6C135.675 285.6 208.04167 285.6 244.225 285.6C280.40833 285.6 316.59167 285.6 352.775 285.6C388.95834 285.6 461.325 285.6 461.325 285.6" fill-rule="nonzero"/><path stroke="#ea4335" stroke-width="2.0" stroke-linecap="butt" clip-path="url(#id_0)" d="M135.675 127.422226C135.675 127.422226 208.04167 127.422226 244.225 127.422226C280.40833 127.422226 316.59167 127.422226 352.775 127.422226C388.95834 127.422226 461.325 127.422226 461.325 127.422226" fill-rule="nonzero"/><path stroke="#fbbc04" stroke-width="2.0" stroke-linecap="butt" stroke-opacity="0.7019608" clip-path="url(#id_0)" d="M135.675 206.51111C135.675 206.51111 208.04167 285.6 244.225 285.6C280.40833 285.6 316.59167 206.51111 352.775 206.51111C388.95834 206.51111 461.325 285.6 461.325 285.6" fill-rule="nonzero"/><path stroke="#34a853" stroke-width="2.0" stroke-linecap="butt" clip-path="url(#id_0)" d="M135.675 285.6C135.675 285.6 208.04167 298.7815 244.225 285.6C280.40833 272.41852 316.59167 219.6926 352.775 206.51111C388.95834 193.32964 461.325 206.51111 461.325 206.51111" fill-rule="nonzero"/><path stroke="#ff6d01" stroke-width="2.0" stroke-linecap="butt" clip-path="url(#id_0)" d="M135.675 285.6C135.675 285.6 208.04167 298.7815 244.225 285.6C280.40833 272.41852 316.59167 206.51111 352.775 206.51111C388.95834 206.51111 461.325 285.6 461.325 285.6" fill-rule="nonzero"/><path stroke="#46bdc6" stroke-width="2.0" stroke-linecap="butt" clip-path="url(#id_0)" d="M135.675 285.6C135.675 285.6 208.04167 219.6926 244.225 206.51111C280.40833 193.32964 316.59167 193.32964 352.775 206.51111C388.95834 219.6926 461.325 285.6 461.325 285.6" fill-rule="nonzero"/><path fill="#4285f4" clip-path="url(#id_0)" d="M139.175 285.6C139.175 287.533 137.608 289.1 135.675 289.1C133.742 289.1 132.175 287.533 132.175 285.6C132.175 283.667 133.742 282.1 135.675 282.1C137.608 282.1 139.175 283.667 139.175 285.6Z" fill-rule="nonzero"/><path fill="#4285f4" clip-path="url(#id_0)" d="M247.725 285.6C247.725 287.533 246.15799 289.1 244.225 289.1C242.292 289.1 240.725 287.533 240.725 285.6C240.725 283.667 242.292 282.1 244.225 282.1C246.15799 282.1 247.725 283.667 247.725 285.6Z" fill-rule="nonzero"/><path fill="#4285f4" clip-path="url(#id_0)" d="M356.275 285.6C356.275 287.533 354.708 289.1 352.775 289.1C350.842 289.1 349.275 287.533 349.275 285.6C349.275 283.667 350.842 282.1 352.775 282.1C354.708 282.1 356.275 283.667 356.275 285.6Z" fill-rule="nonzero"/><path fill="#4285f4" clip-path="url(#id_0)" d="M464.825 285.6C464.825 287.533 463.258 289.1 461.325 289.1C459.392 289.1 457.825 287.533 457.825 285.6C457.825 283.667 459.392 282.1 461.325 282.1C463.258 282.1 464.825 283.667 464.825 285.6Z" fill-rule="nonzero"/><path fill="#ea4335" clip-path="url(#id_0)" d="M139.175 127.422226C139.175 129.35522 137.608 130.92223 135.675 130.92223C133.742 130.92223 132.175 129.35522 132.175 127.422226C132.175 125.48923 133.742 123.922226 135.675 123.922226C137.608 123.922226 139.175 125.48923 139.175 127.422226Z" fill-rule="nonzero"/><path fill="#ea4335" clip-path="url(#id_0)" d="M247.725 127.422226C247.725 129.35522 246.15799 130.92223 244.225 130.92223C242.292 130.92223 240.725 129.35522 240.725 127.422226C240.725 125.48923 242.292 123.922226 244.225 123.922226C246.15799 123.922226 247.725 125.48923 247.725 127.422226Z" fill-rule="nonzero"/><path fill="#ea4335" clip-path="url(#id_0)" d="M356.275 127.422226C356.275 129.35522 354.708 130.92223 352.775 130.92223C350.842 130.92223 349.275 129.35522 349.275 127.422226C349.275 125.48923 350.842 123.922226 352.775 123.922226C354.708 123.922226 356.275 125.48923 356.275 127.422226Z" fill-rule="nonzero"/><path fill="#ea4335" clip-path="url(#id_0)" d="M464.825 127.422226C464.825 129.35522 463.258 130.92223 461.325 130.92223C459.392 130.92223 457.825 129.35522 457.825 127.422226C457.825 125.48923 459.392 123.922226 461.325 123.922226C463.258 123.922226 464.825 125.48923 464.825 127.422226Z" fill-rule="nonzero"/><path fill="#fbbc04" fill-opacity="0.7019608" clip-path="url(#id_0)" d="M139.175 206.51111C139.175 208.4441 137.608 210.01111 135.675 210.01111C133.742 210.01111 132.175 208.4441 132.175 206.51111C132.175 204.57811 133.742 203.01111 135.675 203.01111C137.608 203.01111 139.175 204.57811 139.175 206.51111Z" fill-rule="nonzero"/><path fill="#fbbc04" fill-opacity="0.7019608" clip-path="url(#id_0)" d="M247.725 285.6C247.725 287.533 246.15799 289.1 244.225 289.1C242.292 289.1 240.725 287.533 240.725 285.6C240.725 283.667 242.292 282.1 244.225 282.1C246.15799 282.1 247.725 283.667 247.725 285.6Z" fill-rule="nonzero"/><path fill="#fbbc04" fill-opacity="0.7019608" clip-path="url(#id_0)" d="M356.275 206.51111C356.275 208.4441 354.708 210.01111 352.775 210.01111C350.842 210.01111 349.275 208.4441 349.275 206.51111C349.275 204.57811 350.842 203.01111 352.775 203.01111C354.708 203.01111 356.275 204.57811 356.275 206.51111Z" fill-rule="nonzero"/><path fill="#fbbc04" fill-opacity="0.7019608" clip-path="url(#id_0)" d="M464.825 285.6C464.825 287.533 463.258 289.1 461.325 289.1C459.392 289.1 457.825 287.533 457.825 285.6C457.825 283.667 459.392 282.1 461.325 282.1C463.258 282.1 464.825 283.667 464.825 285.6Z" fill-rule="nonzero"/><path fill="#34a853" clip-path="url(#id_0)" d="M139.175 285.6C139.175 287.533 137.608 289.1 135.675 289.1C133.742 289.1 132.175 287.533 132.175 285.6C132.175 283.667 133.742 282.1 135.675 282.1C137.608 282.1 139.175 283.667 139.175 285.6Z" fill-rule="nonzero"/><path fill="#34a853" clip-path="url(#id_0)" d="M247.725 285.6C247.725 287.533 246.15799 289.1 244.225 289.1C242.292 289.1 240.725 287.533 240.725 285.6C240.725 283.667 242.292 282.1 244.225 282.1C246.15799 282.1 247.725 283.667 247.725 285.6Z" fill-rule="nonzero"/><path fill="#34a853" clip-path="url(#id_0)" d="M356.275 206.51111C356.275 208.4441 354.708 210.01111 352.775 210.01111C350.842 210.01111 349.275 208.4441 349.275 206.51111C349.275 204.57811 350.842 203.01111 352.775 203.01111C354.708 203.01111 356.275 204.57811 356.275 206.51111Z" fill-rule="nonzero"/><path fill="#34a853" clip-path="url(#id_0)" d="M464.825 206.51111C464.825 208.4441 463.258 210.01111 461.325 210.01111C459.392 210.01111 457.825 208.4441 457.825 206.51111C457.825 204.57811 459.392 203.01111 461.325 203.01111C463.258 203.01111 464.825 204.57811 464.825 206.51111Z" fill-rule="nonzero"/><path fill="#ff6d01" clip-path="url(#id_0)" d="M139.175 285.6C139.175 287.533 137.608 289.1 135.675 289.1C133.742 289.1 132.175 287.533 132.175 285.6C132.175 283.667 133.742 282.1 135.675 282.1C137.608 282.1 139.175 283.667 139.175 285.6Z" fill-rule="nonzero"/><path fill="#ff6d01" clip-path="url(#id_0)" d="M247.725 285.6C247.725 287.533 246.15799 289.1 244.225 289.1C242.292 289.1 240.725 287.533 240.725 285.6C240.725 283.667 242.292 282.1 244.225 282.1C246.15799 282.1 247.725 283.667 247.725 285.6Z" fill-rule="nonzero"/><path fill="#ff6d01" clip-path="url(#id_0)" d="M356.275 206.51111C356.275 208.4441 354.708 210.01111 352.775 210.01111C350.842 210.01111 349.275 208.4441 349.275 206.51111C349.275 204.57811 350.842 203.01111 352.775 203.01111C354.708 203.01111 356.275 204.57811 356.275 206.51111Z" fill-rule="nonzero"/><path fill="#ff6d01" clip-path="url(#id_0)" d="M464.825 285.6C464.825 287.533 463.258 289.1 461.325 289.1C459.392 289.1 457.825 287.533 457.825 285.6C457.825 283.667 459.392 282.1 461.325 282.1C463.258 282.1 464.825 283.667 464.825 285.6Z" fill-rule="nonzero"/><path fill="#46bdc6" clip-path="url(#id_0)" d="M139.175 285.6C139.175 287.533 137.608 289.1 135.675 289.1C133.742 289.1 132.175 287.533 132.175 285.6C132.175 283.667 133.742 282.1 135.675 282.1C137.608 282.1 139.175 283.667 139.175 285.6Z" fill-rule="nonzero"/><path fill="#46bdc6" clip-path="url(#id_0)" d="M247.725 206.51111C247.725 208.4441 246.15799 210.01111 244.225 210.01111C242.292 210.01111 240.725 208.4441 240.725 206.51111C240.725 204.57811 242.292 203.01111 244.225 203.01111C246.15799 203.01111 247.725 204.57811 247.725 206.51111Z" fill-rule="nonzero"/><path fill="#46bdc6" clip-path="url(#id_0)" d="M356.275 206.51111C356.275 208.4441 354.708 210.01111 352.775 210.01111C350.842 210.01111 349.275 208.4441 349.275 206.51111C349.275 204.57811 350.842 203.01111 352.775 203.01111C354.708 203.01111 356.275 204.57811 356.275 206.51111Z" fill-rule="nonzero"/><path fill="#46bdc6" clip-path="url(#id_0)" d="M464.825 285.6C464.825 287.533 463.258 289.1 461.325 289.1C459.392 289.1 457.825 287.533 457.825 285.6C457.825 283.667 459.392 282.1 461.325 282.1C463.258 282.1 464.825 283.667 464.825 285.6Z" fill-rule="nonzero"/><path stroke="#000000" stroke-width="1.0" stroke-linecap="butt" d="M135.5 291.5L135.5 279.5" fill-rule="nonzero"/><path stroke="#000000" stroke-width="1.0" stroke-linecap="butt" d="M244.5 291.5L244.5 279.5" fill-rule="nonzero"/><path stroke="#000000" stroke-width="1.0" stroke-linecap="butt" d="M352.5 291.5L352.5 279.5" fill-rule="nonzero"/><path stroke="#000000" stroke-width="1.0" stroke-linecap="butt" d="M461.5 291.5L461.5 279.5" fill-rule="nonzero"/><path stroke="#000000" stroke-width="1.0" stroke-linecap="butt" d="M75.5 285.5L87.5 285.5" fill-rule="nonzero"/><path stroke="#000000" stroke-width="1.0" stroke-linecap="butt" d="M75.5 246.5L87.5 246.5" fill-rule="nonzero"/><path stroke="#000000" stroke-width="1.0" stroke-linecap="butt" d="M75.5 206.5L87.5 206.5" fill-rule="nonzero"/><path stroke="#000000" stroke-width="1.0" stroke-linecap="butt" d="M75.5 166.5L87.5 166.5" fill-rule="nonzero"/><path stroke="#000000" stroke-width="1.0" stroke-linecap="butt" d="M75.5 127.5L87.5 127.5" fill-rule="nonzero"/><path stroke="#000000" stroke-width="1.0" stroke-linecap="butt" d="M75.5 87.5L87.5 87.5" fill-rule="nonzero"/><path stroke="#000000" stroke-width="1.0" stroke-linecap="butt" d="M75.5 48.5L87.5 48.5" fill-rule="nonzero"/><path fill="#000000" d="M62.9 285.36563Q62.9 283.83438 63.2125 282.9125Q63.525 281.975 64.13438 281.475Q64.75938 280.975 65.69688 280.975Q66.38438 280.975 66.9 281.25626Q67.43125 281.5375 67.775 282.06876Q68.11875 282.58438 68.30625 283.33438Q68.49375 284.08438 68.49375 285.36563Q68.49375 286.88126 68.18125 287.80313Q67.88438 288.725 67.25938 289.24063Q66.65 289.74063 65.69688 289.74063Q64.4625 289.74063 63.74375 288.85Q62.9 287.7875 62.9 285.36563ZM63.978127 285.36563Q63.978127 287.475 64.47813 288.17813Q64.97813 288.88126 65.69688 288.88126Q66.43125 288.88126 66.91563 288.17813Q67.41563 287.475 67.41563 285.36563Q67.41563 283.24063 66.91563 282.55313Q66.43125 281.85 65.68125 281.85Q64.9625 281.85 64.525 282.45938Q63.978127 283.24063 63.978127 285.36563Z" fill-rule="nonzero"/><path fill="#000000" d="M52.9 245.82118Q52.9 244.28993 53.2125 243.36806Q53.525 242.43056 54.134377 241.93056Q54.759377 241.43056 55.696877 241.43056Q56.384377 241.43056 56.9 241.7118Q57.43125 241.99306 57.775 242.5243Q58.11875 243.03993 58.30625 243.78993Q58.49375 244.53993 58.49375 245.82118Q58.49375 247.3368 58.18125 248.25868Q57.884377 249.18056 57.259377 249.69618Q56.65 250.19618 55.696877 250.19618Q54.4625 250.19618 53.74375 249.30556Q52.9 248.24306 52.9 245.82118ZM53.978127 245.82118Q53.978127 247.93056 54.478127 248.63368Q54.978127 249.3368 55.696877 249.3368Q56.43125 249.3368 56.915627 248.63368Q57.415627 247.93056 57.415627 245.82118Q57.415627 243.69618 56.915627 243.00868Q56.43125 242.30556 55.68125 242.30556Q54.9625 242.30556 54.525 242.91493Q53.978127 243.69618 53.978127 245.82118ZM60.49375 250.05556L60.49375 248.85243L61.696877 248.85243L61.696877 250.05556L60.49375 250.05556ZM62.9 247.80556L64.00938 247.7118Q64.13438 248.5243 64.57188 248.93056Q65.025 249.3368 65.66563 249.3368Q66.41563 249.3368 66.94688 248.75868Q67.47813 248.18056 67.47813 247.24306Q67.47813 246.3368 66.9625 245.82118Q66.4625 245.28993 65.63438 245.28993Q65.13438 245.28993 64.7125 245.5243Q64.30625 245.75868 64.07188 246.11806L63.0875 245.99306L63.915627 241.5868L68.19688 241.5868L68.19688 242.5868L64.75938 242.5868L64.30625 244.8993Q65.07188 244.35243 65.91563 244.35243Q67.04063 244.35243 67.80625 245.13368Q68.5875 245.91493 68.5875 247.1493Q68.5875 248.30556 67.91563 249.16493Q67.0875 250.19618 65.66563 250.19618Q64.49375 250.19618 63.74375 249.53993Q63.009377 248.88368 62.9 247.80556Z" fill-rule="nonzero"/><path fill="#000000" d="M66.86875 210.51111L65.82188 210.51111L65.82188 203.79236Q65.43125 204.15173 64.80625 204.52673Q64.19688 204.88611 63.7125 205.05798L63.7125 204.04236Q64.5875 203.62048 65.24375 203.04236Q65.91563 202.44861 66.19688 201.88611L66.86875 201.88611L66.86875 210.51111Z" fill-rule="nonzero"/><path fill="#000000" d="M56.86875 170.96666L55.821877 170.96666L55.821877 164.24791Q55.43125 164.60728 54.80625 164.98228Q54.196877 165.34166 53.7125 165.51353L53.7125 164.49791Q54.5875 164.07603 55.24375 163.49791Q55.915627 162.90416 56.196877 162.34166L56.86875 162.34166L56.86875 170.96666ZM60.49375 170.96666L60.49375 169.76353L61.696877 169.76353L61.696877 170.96666L60.49375 170.96666ZM62.9 168.71666L64.00938 168.62291Q64.13438 169.43541 64.57188 169.84166Q65.025 170.24791 65.66563 170.24791Q66.41563 170.24791 66.94688 169.66978Q67.47813 169.09166 67.47813 168.15416Q67.47813 167.24791 66.9625 166.73228Q66.4625 166.20103 65.63438 166.20103Q65.13438 166.20103 64.7125 166.43541Q64.30625 166.66978 64.07188 167.02916L63.0875 166.90416L63.915627 162.49791L68.19688 162.49791L68.19688 163.49791L64.75938 163.49791L64.30625 165.81041Q65.07188 165.26353 65.91563 165.26353Q67.04063 165.26353 67.80625 166.04478Q68.5875 166.82603 68.5875 168.06041Q68.5875 169.21666 67.91563 170.07603Q67.0875 171.10728 65.66563 171.10728Q64.49375 171.10728 63.74375 170.45103Q63.009377 169.79478 62.9 168.71666Z" fill-rule="nonzero"/><path fill="#000000" d="M68.44688 130.4066L68.44688 131.42223L62.759377 131.42223Q62.759377 131.04723 62.884377 130.68785Q63.103127 130.10973 63.571877 129.54723Q64.05625 128.98473 64.9625 128.25035Q66.36875 127.0941 66.85313 126.422226Q67.35313 125.75035 67.35313 125.1566Q67.35313 124.5316 66.9 124.109726Q66.44688 123.672226 65.72813 123.672226Q64.9625 123.672226 64.50938 124.12535Q64.05625 124.578476 64.04063 125.390976L62.9625 125.2816Q63.071877 124.06285 63.790627 123.43785Q64.525 122.797226 65.75938 122.797226Q66.99375 122.797226 67.7125 123.484726Q68.43125 124.172226 68.43125 125.18785Q68.43125 125.703476 68.2125 126.203476Q68.00938 126.68785 67.50938 127.25035Q67.025 127.797226 65.9 128.75035Q64.94688 129.54723 64.66563 129.8441Q64.4 130.12535 64.22813 130.4066L68.44688 130.4066Z" fill-rule="nonzero"/><path fill="#000000" d="M58.446877 90.86215L58.446877 91.87778L52.759377 91.87778Q52.759377 91.50278 52.884377 91.1434Q53.103127 90.56528 53.571877 90.00278Q54.05625 89.44028 54.9625 88.7059Q56.36875 87.54965 56.853127 86.87778Q57.353127 86.2059 57.353127 85.61215Q57.353127 84.98715 56.9 84.56528Q56.446877 84.12778 55.728127 84.12778Q54.9625 84.12778 54.509377 84.5809Q54.05625 85.03403 54.040627 85.84653L52.9625 85.73715Q53.071877 84.5184 53.790627 83.8934Q54.525 83.25278 55.759377 83.25278Q56.99375 83.25278 57.7125 83.94028Q58.43125 84.62778 58.43125 85.6434Q58.43125 86.15903 58.2125 86.65903Q58.009377 87.1434 57.509377 87.7059Q57.025 88.25278 55.9 89.2059Q54.946877 90.00278 54.665627 90.29965Q54.4 90.5809 54.228127 90.86215L58.446877 90.86215ZM60.49375 91.87778L60.49375 90.67465L61.696877 90.67465L61.696877 91.87778L60.49375 91.87778ZM62.9 89.62778L64.00938 89.53403Q64.13438 90.34653 64.57188 90.75278Q65.025 91.15903 65.66563 91.15903Q66.41563 91.15903 66.94688 90.5809Q67.47813 90.00278 67.47813 89.06528Q67.47813 88.15903 66.9625 87.6434Q66.4625 87.11215 65.63438 87.11215Q65.13438 87.11215 64.7125 87.34653Q64.30625 87.5809 64.07188 87.94028L63.0875 87.81528L63.915627 83.40903L68.19688 83.40903L68.19688 84.40903L64.75938 84.40903L64.30625 86.72153Q65.07188 86.17465 65.91563 86.17465Q67.04063 86.17465 67.80625 86.9559Q68.5875 87.73715 68.5875 88.97153Q68.5875 90.12778 67.91563 90.98715Q67.0875 92.0184 65.66563 92.0184Q64.49375 92.0184 63.74375 91.36215Q63.009377 90.7059 62.9 89.62778Z" fill-rule="nonzero"/><path fill="#000000" d="M62.9 50.067707L63.9625 49.927082Q64.13438 50.817707 64.57188 51.223957Q65.00938 51.614582 65.63438 51.614582Q66.38438 51.614582 66.9 51.098957Q67.41563 50.583332 67.41563 49.817707Q67.41563 49.098957 66.93125 48.630207Q66.4625 48.145832 65.72813 48.145832Q65.43125 48.145832 64.97813 48.270832L65.10313 47.333332Q65.2125 47.348957 65.275 47.348957Q65.94688 47.348957 66.47813 47.005207Q67.025 46.645832 67.025 45.911457Q67.025 45.333332 66.63438 44.958332Q66.24375 44.567707 65.61875 44.567707Q65.00938 44.567707 64.5875 44.958332Q64.18125 45.348957 64.07188 46.114582L63.009377 45.927082Q63.196877 44.880207 63.884377 44.302082Q64.57188 43.708332 65.5875 43.708332Q66.29063 43.708332 66.88438 44.020832Q67.47813 44.317707 67.79063 44.833332Q68.10313 45.348957 68.10313 45.942707Q68.10313 46.489582 67.80625 46.958332Q67.50938 47.411457 66.93125 47.677082Q67.68125 47.848957 68.10313 48.411457Q68.525 48.958332 68.525 49.802082Q68.525 50.927082 67.69688 51.708332Q66.88438 52.489582 65.63438 52.489582Q64.50938 52.489582 63.759377 51.817707Q63.009377 51.130207 62.9 50.067707Z" fill-rule="nonzero"/><path fill="#000000" d="M115.22188 305.83438L116.28438 305.74063Q116.3625 306.39688 116.64375 306.80313Q116.925 307.20938 117.50313 307.475Q118.09688 307.725 118.83125 307.725Q119.47188 307.725 119.97188 307.5375Q120.47188 307.33438 120.70625 307.00626Q120.95625 306.6625 120.95625 306.27188Q120.95625 305.86563 120.72188 305.56876Q120.4875 305.25626 119.95625 305.05313Q119.59688 304.9125 118.40938 304.63126Q117.2375 304.35 116.76875 304.1Q116.14375 303.77188 115.84688 303.30313Q115.55 302.81876 115.55 302.225Q115.55 301.58438 115.90938 301.02188Q116.28438 300.44376 116.9875 300.1625Q117.70625 299.86563 118.56563 299.86563Q119.51875 299.86563 120.25313 300.17813Q120.9875 300.475 121.37813 301.08438Q121.76875 301.67813 121.8 302.42813L120.70625 302.50626Q120.6125 301.69376 120.09688 301.2875Q119.59688 300.86563 118.6125 300.86563Q117.58125 300.86563 117.1125 301.24063Q116.64375 301.61563 116.64375 302.14688Q116.64375 302.61563 116.97188 302.9125Q117.3 303.20938 118.675 303.52188Q120.06563 303.83438 120.58125 304.06876Q121.33125 304.42813 121.69063 304.95938Q122.05 305.475 122.05 306.17813Q122.05 306.86563 121.65938 307.475Q121.26875 308.06876 120.53438 308.4125Q119.8 308.74063 118.87813 308.74063Q117.70625 308.74063 116.90938 308.4125Q116.12813 308.06876 115.675 307.38126Q115.2375 306.69376 115.22188 305.83438ZM123.47188 310.99063L123.47188 302.38126L124.425 302.38126L124.425 303.17813Q124.76875 302.70938 125.19063 302.475Q125.62813 302.24063 126.2375 302.24063Q127.03438 302.24063 127.64375 302.64688Q128.25313 303.05313 128.55 303.80313Q128.8625 304.55313 128.8625 305.44376Q128.8625 306.39688 128.51875 307.1625Q128.19063 307.92813 127.53438 308.33438Q126.87813 308.74063 126.15938 308.74063Q125.62813 308.74063 125.20625 308.52188Q124.78438 308.2875 124.51875 307.95938L124.51875 310.99063L123.47188 310.99063ZM124.425 305.52188Q124.425 306.725 124.90938 307.30313Q125.39375 307.86563 126.08125 307.86563Q126.78438 307.86563 127.28438 307.27188Q127.78438 306.67813 127.78438 305.42813Q127.78438 304.24063 127.3 303.6625Q126.81563 303.06876 126.12813 303.06876Q125.45625 303.06876 124.94063 303.69376Q124.425 304.31876 124.425 305.52188ZM130.45625 308.6L130.45625 302.38126L131.40938 302.38126L131.40938 303.31876Q131.76875 302.6625 132.06563 302.45938Q132.37813 302.24063 132.75313 302.24063Q133.28438 302.24063 133.83125 302.56876L133.47188 303.55313Q133.08125 303.31876 132.70625 303.31876Q132.34688 303.31876 132.06563 303.5375Q131.8 303.74063 131.69063 304.11563Q131.50313 304.67813 131.50313 305.33438L131.50313 308.6L130.45625 308.6ZM134.47188 301.225L134.47188 300.00626L135.53438 300.00626L135.53438 301.225L134.47188 301.225ZM134.47188 308.6L134.47188 302.38126L135.53438 302.38126L135.53438 308.6L134.47188 308.6ZM137.47188 308.6L137.47188 302.38126L138.40938 302.38126L138.40938 303.25626Q139.09688 302.24063 140.39375 302.24063Q140.95625 302.24063 141.425 302.44376Q141.90938 302.64688 142.14375 302.975Q142.37813 303.30313 142.47188 303.74063Q142.51875 304.0375 142.51875 304.77188L142.51875 308.6L141.47188 308.6L141.47188 304.81876Q141.47188 304.1625 141.34688 303.85Q141.22188 303.5375 140.90938 303.35Q140.59688 303.14688 140.175 303.14688Q139.50313 303.14688 139.00313 303.58438Q138.51875 304.00626 138.51875 305.19376L138.51875 308.6L137.47188 308.6ZM146.76875 307.6625L146.925 308.58438Q146.47188 308.67813 146.12813 308.67813Q145.55 308.67813 145.2375 308.50626Q144.925 308.31876 144.78438 308.02188Q144.65938 307.725 144.65938 306.77188L144.65938 303.19376L143.89375 303.19376L143.89375 302.38126L144.65938 302.38126L144.65938 300.83438L145.70625 300.20938L145.70625 302.38126L146.76875 302.38126L146.76875 303.19376L145.70625 303.19376L145.70625 306.83438Q145.70625 307.2875 145.75313 307.4125Q145.81563 307.5375 145.94063 307.61563Q146.06563 307.69376 146.3 307.69376Q146.4875 307.69376 146.76875 307.6625ZM154.14375 308.6L153.09688 308.6L153.09688 301.88126Q152.70625 302.24063 152.08125 302.61563Q151.47188 302.975 150.9875 303.14688L150.9875 302.13126Q151.8625 301.70938 152.51875 301.13126Q153.19063 300.5375 153.47188 299.975L154.14375 299.975L154.14375 308.6Z" fill-rule="nonzero"/><path fill="#000000" d="M223.77188 305.83438L224.83438 305.74063Q224.9125 306.39688 225.19376 306.80313Q225.475 307.20938 226.05313 307.475Q226.64688 307.725 227.38126 307.725Q228.02188 307.725 228.52188 307.5375Q229.02188 307.33438 229.25626 307.00626Q229.50626 306.6625 229.50626 306.27188Q229.50626 305.86563 229.27188 305.56876Q229.0375 305.25626 228.50626 305.05313Q228.14688 304.9125 226.95938 304.63126Q225.7875 304.35 225.31876 304.1Q224.69376 303.77188 224.39688 303.30313Q224.1 302.81876 224.1 302.225Q224.1 301.58438 224.45938 301.02188Q224.83438 300.44376 225.5375 300.1625Q226.25626 299.86563 227.11563 299.86563Q228.06876 299.86563 228.80313 300.17813Q229.5375 300.475 229.92813 301.08438Q230.31876 301.67813 230.35 302.42813L229.25626 302.50626Q229.1625 301.69376 228.64688 301.2875Q228.14688 300.86563 227.1625 300.86563Q226.13126 300.86563 225.6625 301.24063Q225.19376 301.61563 225.19376 302.14688Q225.19376 302.61563 225.52188 302.9125Q225.85 303.20938 227.225 303.52188Q228.61563 303.83438 229.13126 304.06876Q229.88126 304.42813 230.24063 304.95938Q230.6 305.475 230.6 306.17813Q230.6 306.86563 230.20938 307.475Q229.81876 308.06876 229.08438 308.4125Q228.35 308.74063 227.42813 308.74063Q226.25626 308.74063 225.45938 308.4125Q224.67813 308.06876 224.225 307.38126Q223.7875 306.69376 223.77188 305.83438ZM232.02188 310.99063L232.02188 302.38126L232.975 302.38126L232.975 303.17813Q233.31876 302.70938 233.74063 302.475Q234.17813 302.24063 234.7875 302.24063Q235.58438 302.24063 236.19376 302.64688Q236.80313 303.05313 237.1 303.80313Q237.4125 304.55313 237.4125 305.44376Q237.4125 306.39688 237.06876 307.1625Q236.74063 307.92813 236.08438 308.33438Q235.42813 308.74063 234.70938 308.74063Q234.17813 308.74063 233.75626 308.52188Q233.33438 308.2875 233.06876 307.95938L233.06876 310.99063L232.02188 310.99063ZM232.975 305.52188Q232.975 306.725 233.45938 307.30313Q233.94376 307.86563 234.63126 307.86563Q235.33438 307.86563 235.83438 307.27188Q236.33438 306.67813 236.33438 305.42813Q236.33438 304.24063 235.85 303.6625Q235.36563 303.06876 234.67813 303.06876Q234.00626 303.06876 233.49063 303.69376Q232.975 304.31876 232.975 305.52188ZM239.00626 308.6L239.00626 302.38126L239.95938 302.38126L239.95938 303.31876Q240.31876 302.6625 240.61563 302.45938Q240.92813 302.24063 241.30313 302.24063Q241.83438 302.24063 242.38126 302.56876L242.02188 303.55313Q241.63126 303.31876 241.25626 303.31876Q240.89688 303.31876 240.61563 303.5375Q240.35 303.74063 240.24063 304.11563Q240.05313 304.67813 240.05313 305.33438L240.05313 308.6L239.00626 308.6ZM243.02188 301.225L243.02188 300.00626L244.08438 300.00626L244.08438 301.225L243.02188 301.225ZM243.02188 308.6L243.02188 302.38126L244.08438 302.38126L244.08438 308.6L243.02188 308.6ZM246.02188 308.6L246.02188 302.38126L246.95938 302.38126L246.95938 303.25626Q247.64688 302.24063 248.94376 302.24063Q249.50626 302.24063 249.975 302.44376Q250.45938 302.64688 250.69376 302.975Q250.92813 303.30313 251.02188 303.74063Q251.06876 304.0375 251.06876 304.77188L251.06876 308.6L250.02188 308.6L250.02188 304.81876Q250.02188 304.1625 249.89688 303.85Q249.77188 303.5375 249.45938 303.35Q249.14688 303.14688 248.725 303.14688Q248.05313 303.14688 247.55313 303.58438Q247.06876 304.00626 247.06876 305.19376L247.06876 308.6L246.02188 308.6ZM255.31876 307.6625L255.475 308.58438Q255.02188 308.67813 254.67813 308.67813Q254.1 308.67813 253.7875 308.50626Q253.475 308.31876 253.33438 308.02188Q253.20938 307.725 253.20938 306.77188L253.20938 303.19376L252.44376 303.19376L252.44376 302.38126L253.20938 302.38126L253.20938 300.83438L254.25626 300.20938L254.25626 302.38126L255.31876 302.38126L255.31876 303.19376L254.25626 303.19376L254.25626 306.83438Q254.25626 307.2875 254.30313 307.4125Q254.36563 307.5375 254.49063 307.61563Q254.61563 307.69376 254.85 307.69376Q255.0375 307.69376 255.31876 307.6625ZM264.27188 307.58438L264.27188 308.6L258.58438 308.6Q258.58438 308.225 258.70938 307.86563Q258.92813 307.2875 259.39688 306.725Q259.88126 306.1625 260.7875 305.42813Q262.19376 304.27188 262.67813 303.6Q263.17813 302.92813 263.17813 302.33438Q263.17813 301.70938 262.725 301.2875Q262.27188 300.85 261.55313 300.85Q260.7875 300.85 260.33438 301.30313Q259.88126 301.75626 259.86563 302.56876L258.7875 302.45938Q258.89688 301.24063 259.61563 300.61563Q260.35 299.975 261.58438 299.975Q262.81876 299.975 263.5375 300.6625Q264.25626 301.35 264.25626 302.36563Q264.25626 302.88126 264.0375 303.38126Q263.83438 303.86563 263.33438 304.42813Q262.85 304.975 261.725 305.92813Q260.77188 306.725 260.49063 307.02188Q260.225 307.30313 260.05313 307.58438L264.27188 307.58438Z" fill-rule="nonzero"/><path fill="#000000" d="M332.32187 305.83438L333.38437 305.74063Q333.4625 306.39688 333.74374 306.80313Q334.025 307.20938 334.60312 307.475Q335.19687 307.725 335.93124 307.725Q336.57187 307.725 337.07187 307.5375Q337.57187 307.33438 337.80624 307.00626Q338.05624 306.6625 338.05624 306.27188Q338.05624 305.86563 337.82187 305.56876Q337.5875 305.25626 337.05624 305.05313Q336.69687 304.9125 335.50937 304.63126Q334.3375 304.35 333.86874 304.1Q333.24374 303.77188 332.94687 303.30313Q332.65 302.81876 332.65 302.225Q332.65 301.58438 333.00937 301.02188Q333.38437 300.44376 334.0875 300.1625Q334.80624 299.86563 335.66562 299.86563Q336.61874 299.86563 337.35312 300.17813Q338.0875 300.475 338.47812 301.08438Q338.86874 301.67813 338.9 302.42813L337.80624 302.50626Q337.7125 301.69376 337.19687 301.2875Q336.69687 300.86563 335.7125 300.86563Q334.68124 300.86563 334.2125 301.24063Q333.74374 301.61563 333.74374 302.14688Q333.74374 302.61563 334.07187 302.9125Q334.4 303.20938 335.775 303.52188Q337.16562 303.83438 337.68124 304.06876Q338.43124 304.42813 338.79062 304.95938Q339.15 305.475 339.15 306.17813Q339.15 306.86563 338.75937 307.475Q338.36874 308.06876 337.63437 308.4125Q336.9 308.74063 335.97812 308.74063Q334.80624 308.74063 334.00937 308.4125Q333.22812 308.06876 332.775 307.38126Q332.3375 306.69376 332.32187 305.83438ZM340.57187 310.99063L340.57187 302.38126L341.525 302.38126L341.525 303.17813Q341.86874 302.70938 342.29062 302.475Q342.72812 302.24063 343.3375 302.24063Q344.13437 302.24063 344.74374 302.64688Q345.35312 303.05313 345.65 303.80313Q345.9625 304.55313 345.9625 305.44376Q345.9625 306.39688 345.61874 307.1625Q345.29062 307.92813 344.63437 308.33438Q343.97812 308.74063 343.25937 308.74063Q342.72812 308.74063 342.30624 308.52188Q341.88437 308.2875 341.61874 307.95938L341.61874 310.99063L340.57187 310.99063ZM341.525 305.52188Q341.525 306.725 342.00937 307.30313Q342.49374 307.86563 343.18124 307.86563Q343.88437 307.86563 344.38437 307.27188Q344.88437 306.67813 344.88437 305.42813Q344.88437 304.24063 344.4 303.6625Q343.91562 303.06876 343.22812 303.06876Q342.55624 303.06876 342.04062 303.69376Q341.525 304.31876 341.525 305.52188ZM347.55624 308.6L347.55624 302.38126L348.50937 302.38126L348.50937 303.31876Q348.86874 302.6625 349.16562 302.45938Q349.47812 302.24063 349.85312 302.24063Q350.38437 302.24063 350.93124 302.56876L350.57187 303.55313Q350.18124 303.31876 349.80624 303.31876Q349.44687 303.31876 349.16562 303.5375Q348.9 303.74063 348.79062 304.11563Q348.60312 304.67813 348.60312 305.33438L348.60312 308.6L347.55624 308.6ZM351.57187 301.225L351.57187 300.00626L352.63437 300.00626L352.63437 301.225L351.57187 301.225ZM351.57187 308.6L351.57187 302.38126L352.63437 302.38126L352.63437 308.6L351.57187 308.6ZM354.57187 308.6L354.57187 302.38126L355.50937 302.38126L355.50937 303.25626Q356.19687 302.24063 357.49374 302.24063Q358.05624 302.24063 358.525 302.44376Q359.00937 302.64688 359.24374 302.975Q359.47812 303.30313 359.57187 303.74063Q359.61874 304.0375 359.61874 304.77188L359.61874 308.6L358.57187 308.6L358.57187 304.81876Q358.57187 304.1625 358.44687 303.85Q358.32187 303.5375 358.00937 303.35Q357.69687 303.14688 357.275 303.14688Q356.60312 303.14688 356.10312 303.58438Q355.61874 304.00626 355.61874 305.19376L355.61874 308.6L354.57187 308.6ZM363.86874 307.6625L364.025 308.58438Q363.57187 308.67813 363.22812 308.67813Q362.65 308.67813 362.3375 308.50626Q362.025 308.31876 361.88437 308.02188Q361.75937 307.725 361.75937 306.77188L361.75937 303.19376L360.99374 303.19376L360.99374 302.38126L361.75937 302.38126L361.75937 300.83438L362.80624 300.20938L362.80624 302.38126L363.86874 302.38126L363.86874 303.19376L362.80624 303.19376L362.80624 306.83438Q362.80624 307.2875 362.85312 307.4125Q362.91562 307.5375 363.04062 307.61563Q363.16562 307.69376 363.4 307.69376Q363.5875 307.69376 363.86874 307.6625ZM367.275 306.33438L368.3375 306.19376Q368.50937 307.08438 368.94687 307.49063Q369.38437 307.88126 370.00937 307.88126Q370.75937 307.88126 371.275 307.36563Q371.79062 306.85 371.79062 306.08438Q371.79062 305.36563 371.30624 304.89688Q370.8375 304.4125 370.10312 304.4125Q369.80624 304.4125 369.35312 304.5375L369.47812 303.6Q369.5875 303.61563 369.65 303.61563Q370.32187 303.61563 370.85312 303.27188Q371.4 302.9125 371.4 302.17813Q371.4 301.6 371.00937 301.225Q370.61874 300.83438 369.99374 300.83438Q369.38437 300.83438 368.9625 301.225Q368.55624 301.61563 368.44687 302.38126L367.38437 302.19376Q367.57187 301.14688 368.25937 300.56876Q368.94687 299.975 369.9625 299.975Q370.66562 299.975 371.25937 300.2875Q371.85312 300.58438 372.16562 301.1Q372.47812 301.61563 372.47812 302.20938Q372.47812 302.75626 372.18124 303.225Q371.88437 303.67813 371.30624 303.94376Q372.05624 304.11563 372.47812 304.67813Q372.9 305.225 372.9 306.06876Q372.9 307.19376 372.07187 307.975Q371.25937 308.75626 370.00937 308.75626Q368.88437 308.75626 368.13437 308.08438Q367.38437 307.39688 367.275 306.33438Z" fill-rule="nonzero"/><path fill="#000000" d="M440.8719 305.83438L441.9344 305.74063Q442.0125 306.39688 442.29376 306.80313Q442.575 307.20938 443.15314 307.475Q443.7469 307.725 444.48126 307.725Q445.1219 307.725 445.6219 307.5375Q446.1219 307.33438 446.35626 307.00626Q446.60626 306.6625 446.60626 306.27188Q446.60626 305.86563 446.3719 305.56876Q446.1375 305.25626 445.60626 305.05313Q445.2469 304.9125 444.0594 304.63126Q442.8875 304.35 442.41876 304.1Q441.79376 303.77188 441.4969 303.30313Q441.2 302.81876 441.2 302.225Q441.2 301.58438 441.5594 301.02188Q441.9344 300.44376 442.6375 300.1625Q443.35626 299.86563 444.21564 299.86563Q445.16876 299.86563 445.90314 300.17813Q446.6375 300.475 447.02814 301.08438Q447.41876 301.67813 447.45 302.42813L446.35626 302.50626Q446.2625 301.69376 445.7469 301.2875Q445.2469 300.86563 444.2625 300.86563Q443.23126 300.86563 442.7625 301.24063Q442.29376 301.61563 442.29376 302.14688Q442.29376 302.61563 442.6219 302.9125Q442.95 303.20938 444.325 303.52188Q445.71564 303.83438 446.23126 304.06876Q446.98126 304.42813 447.34064 304.95938Q447.7 305.475 447.7 306.17813Q447.7 306.86563 447.3094 307.475Q446.91876 308.06876 446.1844 308.4125Q445.45 308.74063 444.52814 308.74063Q443.35626 308.74063 442.5594 308.4125Q441.77814 308.06876 441.325 307.38126Q440.8875 306.69376 440.8719 305.83438ZM449.1219 310.99063L449.1219 302.38126L450.075 302.38126L450.075 303.17813Q450.41876 302.70938 450.84064 302.475Q451.27814 302.24063 451.8875 302.24063Q452.6844 302.24063 453.29376 302.64688Q453.90314 303.05313 454.2 303.80313Q454.5125 304.55313 454.5125 305.44376Q454.5125 306.39688 454.16876 307.1625Q453.84064 307.92813 453.1844 308.33438Q452.52814 308.74063 451.8094 308.74063Q451.27814 308.74063 450.85626 308.52188Q450.4344 308.2875 450.16876 307.95938L450.16876 310.99063L449.1219 310.99063ZM450.075 305.52188Q450.075 306.725 450.5594 307.30313Q451.04376 307.86563 451.73126 307.86563Q452.4344 307.86563 452.9344 307.27188Q453.4344 306.67813 453.4344 305.42813Q453.4344 304.24063 452.95 303.6625Q452.46564 303.06876 451.77814 303.06876Q451.10626 303.06876 450.59064 303.69376Q450.075 304.31876 450.075 305.52188ZM456.10626 308.6L456.10626 302.38126L457.0594 302.38126L457.0594 303.31876Q457.41876 302.6625 457.71564 302.45938Q458.02814 302.24063 458.40314 302.24063Q458.9344 302.24063 459.48126 302.56876L459.1219 303.55313Q458.73126 303.31876 458.35626 303.31876Q457.9969 303.31876 457.71564 303.5375Q457.45 303.74063 457.34064 304.11563Q457.15314 304.67813 457.15314 305.33438L457.15314 308.6L456.10626 308.6ZM460.1219 301.225L460.1219 300.00626L461.1844 300.00626L461.1844 301.225L460.1219 301.225ZM460.1219 308.6L460.1219 302.38126L461.1844 302.38126L461.1844 308.6L460.1219 308.6ZM463.1219 308.6L463.1219 302.38126L464.0594 302.38126L464.0594 303.25626Q464.7469 302.24063 466.04376 302.24063Q466.60626 302.24063 467.075 302.44376Q467.5594 302.64688 467.79376 302.975Q468.02814 303.30313 468.1219 303.74063Q468.16876 304.0375 468.16876 304.77188L468.16876 308.6L467.1219 308.6L467.1219 304.81876Q467.1219 304.1625 466.9969 303.85Q466.8719 303.5375 466.5594 303.35Q466.2469 303.14688 465.825 303.14688Q465.15314 303.14688 464.65314 303.58438Q464.16876 304.00626 464.16876 305.19376L464.16876 308.6L463.1219 308.6ZM472.41876 307.6625L472.575 308.58438Q472.1219 308.67813 471.77814 308.67813Q471.2 308.67813 470.8875 308.50626Q470.575 308.31876 470.4344 308.02188Q470.3094 307.725 470.3094 306.77188L470.3094 303.19376L469.54376 303.19376L469.54376 302.38126L470.3094 302.38126L470.3094 300.83438L471.35626 300.20938L471.35626 302.38126L472.41876 302.38126L472.41876 303.19376L471.35626 303.19376L471.35626 306.83438Q471.35626 307.2875 471.40314 307.4125Q471.46564 307.5375 471.59064 307.61563Q471.71564 307.69376 471.95 307.69376Q472.1375 307.69376 472.41876 307.6625ZM479.2 308.6L479.2 306.5375L475.48126 306.5375L475.48126 305.56876L479.40314 300.00626L480.2625 300.00626L480.2625 305.56876L481.41876 305.56876L481.41876 306.5375L480.2625 306.5375L480.2625 308.6L479.2 308.6ZM479.2 305.56876L479.2 301.70938L476.5125 305.56876L479.2 305.56876Z" fill-rule="nonzero"/><path fill="#4285f4" d="M31.0 23.4C31.0 26.713709 28.31371 29.4 25.0 29.4C21.68629 29.4 19.0 26.713709 19.0 23.4C19.0 20.086292 21.68629 17.4 25.0 17.4C28.31371 17.4 31.0 20.086292 31.0 23.4Z" fill-rule="nonzero"/><path fill="#1a1a1a" d="M42.375 27.4L39.046875 18.80625L40.28125 18.80625L42.515625 25.05625Q42.78125 25.80625 42.96875 26.4625Q43.171875 25.759375 43.4375 25.05625L45.75 18.80625L46.90625 18.80625L43.546875 27.4L42.375 27.4ZM50.859375 26.634375Q50.265625 27.134375 49.71875 27.3375Q49.1875 27.540625 48.5625 27.540625Q47.53125 27.540625 46.984375 27.040625Q46.4375 26.540625 46.4375 25.759375Q46.4375 25.30625 46.640625 24.93125Q46.84375 24.540625 47.1875 24.321875Q47.53125 24.0875 47.953125 23.978125Q48.25 23.884375 48.890625 23.80625Q50.15625 23.665625 50.765625 23.446875Q50.765625 23.228125 50.765625 23.18125Q50.765625 22.525 50.46875 22.259375Q50.0625 21.915625 49.265625 21.915625Q48.53125 21.915625 48.171875 22.18125Q47.8125 22.43125 47.640625 23.0875L46.609375 22.946875Q46.75 22.290625 47.078125 21.884375Q47.40625 21.478125 48.015625 21.259375Q48.625 21.040625 49.421875 21.040625Q50.21875 21.040625 50.71875 21.228125Q51.21875 21.415625 51.453125 21.696875Q51.6875 21.978125 51.78125 22.415625Q51.828125 22.68125 51.828125 23.384375L51.828125 24.790625Q51.828125 26.259375 51.890625 26.65Q51.96875 27.040625 52.171875 27.4L51.0625 27.4Q50.90625 27.071875 50.859375 26.634375ZM50.765625 24.275Q50.1875 24.509375 49.046875 24.68125Q48.390625 24.775 48.125 24.9Q47.859375 25.009375 47.703125 25.228125Q47.5625 25.446875 47.5625 25.728125Q47.5625 26.15 47.875 26.43125Q48.203125 26.7125 48.8125 26.7125Q49.421875 26.7125 49.890625 26.446875Q50.375 26.18125 50.59375 25.7125Q50.765625 25.353125 50.765625 24.665625L50.765625 24.275ZM53.765625 27.4L53.765625 18.80625L54.828125 18.80625L54.828125 27.4L53.765625 27.4ZM56.40625 24.290625Q56.40625 22.55625 57.359375 21.728125Q58.15625 21.040625 59.3125 21.040625Q60.59375 21.040625 61.40625 21.884375Q62.234375 22.7125 62.234375 24.196875Q62.234375 25.4 61.875 26.0875Q61.515625 26.775 60.8125 27.165625Q60.125 27.540625 59.3125 27.540625Q58.015625 27.540625 57.203125 26.7125Q56.40625 25.86875 56.40625 24.290625ZM57.484375 24.290625Q57.484375 25.478125 58.0 26.071875Q58.53125 26.665625 59.3125 26.665625Q60.109375 26.665625 60.625 26.071875Q61.140625 25.478125 61.140625 24.259375Q61.140625 23.103125 60.609375 22.509375Q60.09375 21.915625 59.3125 21.915625Q58.53125 21.915625 58.0 22.509375Q57.484375 23.0875 57.484375 24.290625ZM63.78125 27.4L63.78125 21.18125L64.734375 21.18125L64.734375 22.11875Q65.09375 21.4625 65.390625 21.259375Q65.703125 21.040625 66.078125 21.040625Q66.609375 21.040625 67.15625 21.36875L66.796875 22.353125Q66.40625 22.11875 66.03125 22.11875Q65.671875 22.11875 65.390625 22.3375Q65.125 22.540625 65.015625 22.915625Q64.828125 23.478125 64.828125 24.134375L64.828125 27.4L63.78125 27.4ZM72.046875 25.4L73.140625 25.525Q72.890625 26.478125 72.1875 27.009375Q71.484375 27.540625 70.40625 27.540625Q69.046875 27.540625 68.234375 26.696875Q67.4375 25.853125 67.4375 24.3375Q67.4375 22.775 68.25 21.915625Q69.0625 21.040625 70.34375 21.040625Q71.59375 21.040625 72.375 21.884375Q73.171875 22.728125 73.171875 24.275Q73.171875 24.36875 73.171875 24.55625L68.53125 24.55625Q68.59375 25.5875 69.109375 26.134375Q69.625 26.665625 70.40625 26.665625Q70.984375 26.665625 71.390625 26.36875Q71.8125 26.05625 72.046875 25.4ZM68.59375 23.696875L72.0625 23.696875Q72.0 22.9 71.671875 22.509375Q71.15625 21.9 70.359375 21.9Q69.625 21.9 69.125 22.384375Q68.640625 22.86875 68.59375 23.696875ZM77.40625 24.290625Q77.40625 22.55625 78.359375 21.728125Q79.15625 21.040625 80.3125 21.040625Q81.59375 21.040625 82.40625 21.884375Q83.234375 22.7125 83.234375 24.196875Q83.234375 25.4 82.875 26.0875Q82.515625 26.775 81.8125 27.165625Q81.125 27.540625 80.3125 27.540625Q79.015625 27.540625 78.203125 26.7125Q77.40625 25.86875 77.40625 24.290625ZM78.484375 24.290625Q78.484375 25.478125 79.0 26.071875Q79.53125 26.665625 80.3125 26.665625Q81.109375 26.665625 81.625 26.071875Q82.140625 25.478125 82.140625 24.259375Q82.140625 23.103125 81.609375 22.509375Q81.09375 21.915625 80.3125 21.915625Q79.53125 21.915625 79.0 22.509375Q78.484375 23.0875 78.484375 24.290625ZM87.09375 26.4625L87.25 27.384375Q86.796875 27.478125 86.453125 27.478125Q85.875 27.478125 85.5625 27.30625Q85.25 27.11875 85.109375 26.821875Q84.984375 26.525 84.984375 25.571875L84.984375 21.99375L84.21875 21.99375L84.21875 21.18125L84.984375 21.18125L84.984375 19.634375L86.03125 19.009375L86.03125 21.18125L87.09375 21.18125L87.09375 21.99375L86.03125 21.99375L86.03125 25.634375Q86.03125 26.0875 86.078125 26.2125Q86.140625 26.3375 86.265625 26.415625Q86.390625 26.49375 86.625 26.49375Q86.8125 26.49375 87.09375 26.4625ZM90.09375 26.4625L90.25 27.384375Q89.796875 27.478125 89.453125 27.478125Q88.875 27.478125 88.5625 27.30625Q88.25 27.11875 88.109375 26.821875Q87.984375 26.525 87.984375 25.571875L87.984375 21.99375L87.21875 21.99375L87.21875 21.18125L87.984375 21.18125L87.984375 19.634375L89.03125 19.009375L89.03125 21.18125L90.09375 21.18125L90.09375 21.99375L89.03125 21.99375L89.03125 25.634375Q89.03125 26.0875 89.078125 26.2125Q89.140625 26.3375 89.265625 26.415625Q89.390625 26.49375 89.625 26.49375Q89.8125 26.49375 90.09375 26.4625ZM90.796875 20.025L90.796875 18.80625L91.859375 18.80625L91.859375 20.025L90.796875 20.025ZM90.796875 27.4L90.796875 21.18125L91.859375 21.18125L91.859375 27.4L90.796875 27.4ZM93.796875 27.4L93.796875 21.18125L94.734375 21.18125L94.734375 22.05625Q95.03125 21.5875 95.515625 21.321875Q96.0 21.040625 96.625 21.040625Q97.3125 21.040625 97.75 21.321875Q98.203125 21.603125 98.375 22.11875Q99.125 21.040625 100.296875 21.040625Q101.234375 21.040625 101.71875 21.55625Q102.21875 22.05625 102.21875 23.134375L102.21875 27.4L101.171875 27.4L101.171875 23.478125Q101.171875 22.853125 101.0625 22.571875Q100.96875 22.290625 100.703125 22.11875Q100.4375 21.946875 100.0625 21.946875Q99.40625 21.946875 98.96875 22.384375Q98.546875 22.821875 98.546875 23.790625L98.546875 27.4L97.484375 27.4L97.484375 23.353125Q97.484375 22.65 97.21875 22.30625Q96.96875 21.946875 96.390625 21.946875Q95.9375 21.946875 95.5625 22.18125Q95.1875 22.415625 95.015625 22.86875Q94.84375 23.321875 94.84375 24.165625L94.84375 27.4L93.796875 27.4ZM104.40625 24.290625Q104.40625 22.55625 105.359375 21.728125Q106.15625 21.040625 107.3125 21.040625Q108.59375 21.040625 109.40625 21.884375Q110.234375 22.7125 110.234375 24.196875Q110.234375 25.4 109.875 26.0875Q109.515625 26.775 108.8125 27.165625Q108.125 27.540625 107.3125 27.540625Q106.015625 27.540625 105.203125 26.7125Q104.40625 25.86875 104.40625 24.290625ZM105.484375 24.290625Q105.484375 25.478125 106.0 26.071875Q106.53125 26.665625 107.3125 26.665625Q108.109375 26.665625 108.625 26.071875Q109.140625 25.478125 109.140625 24.259375Q109.140625 23.103125 108.609375 22.509375Q108.09375 21.915625 107.3125 21.915625Q106.53125 21.915625 106.0 22.509375Q105.484375 23.0875 105.484375 24.290625Z" fill-rule="nonzero"/><path fill="#ea4335" d="M139.0 23.4C139.0 26.713709 136.3137 29.4 133.0 29.4C129.6863 29.4 127.0 26.713709 127.0 23.4C127.0 20.086292 129.6863 17.4 133.0 17.4C136.3137 17.4 139.0 20.086292 139.0 23.4Z" fill-rule="nonzero"/><path fill="#1a1a1a" d="M150.375 27.4L147.04688 18.80625L148.28125 18.80625L150.51562 25.05625Q150.78125 25.80625 150.96875 26.4625Q151.17188 25.759375 151.4375 25.05625L153.75 18.80625L154.90625 18.80625L151.54688 27.4L150.375 27.4ZM158.85938 26.634375Q158.26562 27.134375 157.71875 27.3375Q157.1875 27.540625 156.5625 27.540625Q155.53125 27.540625 154.98438 27.040625Q154.4375 26.540625 154.4375 25.759375Q154.4375 25.30625 154.64062 24.93125Q154.84375 24.540625 155.1875 24.321875Q155.53125 24.0875 155.95312 23.978125Q156.25 23.884375 156.89062 23.80625Q158.15625 23.665625 158.76562 23.446875Q158.76562 23.228125 158.76562 23.18125Q158.76562 22.525 158.46875 22.259375Q158.0625 21.915625 157.26562 21.915625Q156.53125 21.915625 156.17188 22.18125Q155.8125 22.43125 155.64062 23.0875L154.60938 22.946875Q154.75 22.290625 155.07812 21.884375Q155.40625 21.478125 156.01562 21.259375Q156.625 21.040625 157.42188 21.040625Q158.21875 21.040625 158.71875 21.228125Q159.21875 21.415625 159.45312 21.696875Q159.6875 21.978125 159.78125 22.415625Q159.82812 22.68125 159.82812 23.384375L159.82812 24.790625Q159.82812 26.259375 159.89062 26.65Q159.96875 27.040625 160.17188 27.4L159.0625 27.4Q158.90625 27.071875 158.85938 26.634375ZM158.76562 24.275Q158.1875 24.509375 157.04688 24.68125Q156.39062 24.775 156.125 24.9Q155.85938 25.009375 155.70312 25.228125Q155.5625 25.446875 155.5625 25.728125Q155.5625 26.15 155.875 26.43125Q156.20312 26.7125 156.8125 26.7125Q157.42188 26.7125 157.89062 26.446875Q158.375 26.18125 158.59375 25.7125Q158.76562 25.353125 158.76562 24.665625L158.76562 24.275ZM161.76562 27.4L161.76562 18.80625L162.82812 18.80625L162.82812 27.4L161.76562 27.4ZM164.40625 24.290625Q164.40625 22.55625 165.35938 21.728125Q166.15625 21.040625 167.3125 21.040625Q168.59375 21.040625 169.40625 21.884375Q170.23438 22.7125 170.23438 24.196875Q170.23438 25.4 169.875 26.0875Q169.51562 26.775 168.8125 27.165625Q168.125 27.540625 167.3125 27.540625Q166.01562 27.540625 165.20312 26.7125Q164.40625 25.86875 164.40625 24.290625ZM165.48438 24.290625Q165.48438 25.478125 166.0 26.071875Q166.53125 26.665625 167.3125 26.665625Q168.10938 26.665625 168.625 26.071875Q169.14062 25.478125 169.14062 24.259375Q169.14062 23.103125 168.60938 22.509375Q168.09375 21.915625 167.3125 21.915625Q166.53125 21.915625 166.0 22.509375Q165.48438 23.0875 165.48438 24.290625ZM171.78125 27.4L171.78125 21.18125L172.73438 21.18125L172.73438 22.11875Q173.09375 21.4625 173.39062 21.259375Q173.70312 21.040625 174.07812 21.040625Q174.60938 21.040625 175.15625 21.36875L174.79688 22.353125Q174.40625 22.11875 174.03125 22.11875Q173.67188 22.11875 173.39062 22.3375Q173.125 22.540625 173.01562 22.915625Q172.82812 23.478125 172.82812 24.134375L172.82812 27.4L171.78125 27.4ZM180.04688 25.4L181.14062 25.525Q180.89062 26.478125 180.1875 27.009375Q179.48438 27.540625 178.40625 27.540625Q177.04688 27.540625 176.23438 26.696875Q175.4375 25.853125 175.4375 24.3375Q175.4375 22.775 176.25 21.915625Q177.0625 21.040625 178.34375 21.040625Q179.59375 21.040625 180.375 21.884375Q181.17188 22.728125 181.17188 24.275Q181.17188 24.36875 181.17188 24.55625L176.53125 24.55625Q176.59375 25.5875 177.10938 26.134375Q177.625 26.665625 178.40625 26.665625Q178.98438 26.665625 179.39062 26.36875Q179.8125 26.05625 180.04688 25.4ZM176.59375 23.696875L180.0625 23.696875Q180.0 22.9 179.67188 22.509375Q179.15625 21.9 178.35938 21.9Q177.625 21.9 177.125 22.384375Q176.64062 22.86875 176.59375 23.696875ZM189.85938 26.634375Q189.26562 27.134375 188.71875 27.3375Q188.1875 27.540625 187.5625 27.540625Q186.53125 27.540625 185.98438 27.040625Q185.4375 26.540625 185.4375 25.759375Q185.4375 25.30625 185.64062 24.93125Q185.84375 24.540625 186.1875 24.321875Q186.53125 24.0875 186.95312 23.978125Q187.25 23.884375 187.89062 23.80625Q189.15625 23.665625 189.76562 23.446875Q189.76562 23.228125 189.76562 23.18125Q189.76562 22.525 189.46875 22.259375Q189.0625 21.915625 188.26562 21.915625Q187.53125 21.915625 187.17188 22.18125Q186.8125 22.43125 186.64062 23.0875L185.60938 22.946875Q185.75 22.290625 186.07812 21.884375Q186.40625 21.478125 187.01562 21.259375Q187.625 21.040625 188.42188 21.040625Q189.21875 21.040625 189.71875 21.228125Q190.21875 21.415625 190.45312 21.696875Q190.6875 21.978125 190.78125 22.415625Q190.82812 22.68125 190.82812 23.384375L190.82812 24.790625Q190.82812 26.259375 190.89062 26.65Q190.96875 27.040625 191.17188 27.4L190.0625 27.4Q189.90625 27.071875 189.85938 26.634375ZM189.76562 24.275Q189.1875 24.509375 188.04688 24.68125Q187.39062 24.775 187.125 24.9Q186.85938 25.009375 186.70312 25.228125Q186.5625 25.446875 186.5625 25.728125Q186.5625 26.15 186.875 26.43125Q187.20312 26.7125 187.8125 26.7125Q188.42188 26.7125 188.89062 26.446875Q189.375 26.18125 189.59375 25.7125Q189.76562 25.353125 189.76562 24.665625L189.76562 24.275ZM196.85938 25.11875L197.89062 25.259375Q197.71875 26.321875 197.01562 26.93125Q196.3125 27.540625 195.29688 27.540625Q194.01562 27.540625 193.23438 26.7125Q192.46875 25.86875 192.46875 24.30625Q192.46875 23.30625 192.79688 22.55625Q193.14062 21.790625 193.8125 21.415625Q194.5 21.040625 195.3125 21.040625Q196.3125 21.040625 196.95312 21.55625Q197.60938 22.05625 197.79688 23.009375L196.76562 23.165625Q196.625 22.540625 196.25 22.228125Q195.875 21.9 195.34375 21.9Q194.54688 21.9 194.04688 22.478125Q193.54688 23.040625 193.54688 24.275Q193.54688 25.540625 194.03125 26.103125Q194.51562 26.665625 195.28125 26.665625Q195.90625 26.665625 196.3125 26.290625Q196.73438 25.915625 196.85938 25.11875ZM202.85938 25.11875L203.89062 25.259375Q203.71875 26.321875 203.01562 26.93125Q202.3125 27.540625 201.29688 27.540625Q200.01562 27.540625 199.23438 26.7125Q198.46875 25.86875 198.46875 24.30625Q198.46875 23.30625 198.79688 22.55625Q199.14062 21.790625 199.8125 21.415625Q200.5 21.040625 201.3125 21.040625Q202.3125 21.040625 202.95312 21.55625Q203.60938 22.05625 203.79688 23.009375L202.76562 23.165625Q202.625 22.540625 202.25 22.228125Q201.875 21.9 201.34375 21.9Q200.54688 21.9 200.04688 22.478125Q199.54688 23.040625 199.54688 24.275Q199.54688 25.540625 200.03125 26.103125Q200.51562 26.665625 201.28125 26.665625Q201.90625 26.665625 202.3125 26.290625Q202.73438 25.915625 202.85938 25.11875ZM209.04688 25.4L210.14062 25.525Q209.89062 26.478125 209.1875 27.009375Q208.48438 27.540625 207.40625 27.540625Q206.04688 27.540625 205.23438 26.696875Q204.4375 25.853125 204.4375 24.3375Q204.4375 22.775 205.25 21.915625Q206.0625 21.040625 207.34375 21.040625Q208.59375 21.040625 209.375 21.884375Q210.17188 22.728125 210.17188 24.275Q210.17188 24.36875 210.17188 24.55625L205.53125 24.55625Q205.59375 25.5875 206.10938 26.134375Q206.625 26.665625 207.40625 26.665625Q207.98438 26.665625 208.39062 26.36875Q208.8125 26.05625 209.04688 25.4ZM205.59375 23.696875L209.0625 23.696875Q209.0 22.9 208.67188 22.509375Q208.15625 21.9 207.35938 21.9Q206.625 21.9 206.125 22.384375Q205.64062 22.86875 205.59375 23.696875ZM214.09375 26.4625L214.25 27.384375Q213.79688 27.478125 213.45312 27.478125Q212.875 27.478125 212.5625 27.30625Q212.25 27.11875 212.10938 26.821875Q211.98438 26.525 211.98438 25.571875L211.98438 21.99375L211.21875 21.99375L211.21875 21.18125L211.98438 21.18125L211.98438 19.634375L213.03125 19.009375L213.03125 21.18125L214.09375 21.18125L214.09375 21.99375L213.03125 21.99375L213.03125 25.634375Q213.03125 26.0875 213.07812 26.2125Q213.14062 26.3375 213.26562 26.415625Q213.39062 26.49375 213.625 26.49375Q213.8125 26.49375 214.09375 26.4625ZM217.09375 26.4625L217.25 27.384375Q216.79688 27.478125 216.45312 27.478125Q215.875 27.478125 215.5625 27.30625Q215.25 27.11875 215.10938 26.821875Q214.98438 26.525 214.98438 25.571875L214.98438 21.99375L214.21875 21.99375L214.21875 21.18125L214.98438 21.18125L214.98438 19.634375L216.03125 19.009375L216.03125 21.18125L217.09375 21.18125L217.09375 21.99375L216.03125 21.99375L216.03125 25.634375Q216.03125 26.0875 216.07812 26.2125Q216.14062 26.3375 216.26562 26.415625Q216.39062 26.49375 216.625 26.49375Q216.8125 26.49375 217.09375 26.4625ZM221.85938 26.634375Q221.26562 27.134375 220.71875 27.3375Q220.1875 27.540625 219.5625 27.540625Q218.53125 27.540625 217.98438 27.040625Q217.4375 26.540625 217.4375 25.759375Q217.4375 25.30625 217.64062 24.93125Q217.84375 24.540625 218.1875 24.321875Q218.53125 24.0875 218.95312 23.978125Q219.25 23.884375 219.89062 23.80625Q221.15625 23.665625 221.76562 23.446875Q221.76562 23.228125 221.76562 23.18125Q221.76562 22.525 221.46875 22.259375Q221.0625 21.915625 220.26562 21.915625Q219.53125 21.915625 219.17188 22.18125Q218.8125 22.43125 218.64062 23.0875L217.60938 22.946875Q217.75 22.290625 218.07812 21.884375Q218.40625 21.478125 219.01562 21.259375Q219.625 21.040625 220.42188 21.040625Q221.21875 21.040625 221.71875 21.228125Q222.21875 21.415625 222.45312 21.696875Q222.6875 21.978125 222.78125 22.415625Q222.82812 22.68125 222.82812 23.384375L222.82812 24.790625Q222.82812 26.259375 222.89062 26.65Q222.96875 27.040625 223.17188 27.4L222.0625 27.4Q221.90625 27.071875 221.85938 26.634375ZM221.76562 24.275Q221.1875 24.509375 220.04688 24.68125Q219.39062 24.775 219.125 24.9Q218.85938 25.009375 218.70312 25.228125Q218.5625 25.446875 218.5625 25.728125Q218.5625 26.15 218.875 26.43125Q219.20312 26.7125 219.8125 26.7125Q220.42188 26.7125 220.89062 26.446875Q221.375 26.18125 221.59375 25.7125Q221.76562 25.353125 221.76562 24.665625L221.76562 24.275ZM225.76562 27.4L224.78125 27.4L224.78125 18.80625L225.84375 18.80625L225.84375 21.86875Q226.51562 21.040625 227.54688 21.040625Q228.125 21.040625 228.625 21.275Q229.14062 21.49375 229.46875 21.915625Q229.8125 22.3375 230.0 22.93125Q230.1875 23.525 230.1875 24.196875Q230.1875 25.790625 229.39062 26.665625Q228.59375 27.540625 227.5 27.540625Q226.39062 27.540625 225.76562 26.61875L225.76562 27.4ZM225.75 24.24375Q225.75 25.353125 226.0625 25.853125Q226.5625 26.665625 227.40625 26.665625Q228.09375 26.665625 228.59375 26.071875Q229.10938 25.478125 229.10938 24.275Q229.10938 23.05625 228.625 22.478125Q228.14062 21.9 227.45312 21.9Q226.76562 21.9 226.25 22.509375Q225.75 23.103125 225.75 24.24375ZM231.79688 20.025L231.79688 18.80625L232.85938 18.80625L232.85938 20.025L231.79688 20.025ZM231.79688 27.4L231.79688 21.18125L232.85938 21.18125L232.85938 27.4L231.79688 27.4ZM234.76562 27.4L234.76562 18.80625L235.82812 18.80625L235.82812 27.4L234.76562 27.4ZM242.04688 25.4L243.14062 25.525Q242.89062 26.478125 242.1875 27.009375Q241.48438 27.540625 240.40625 27.540625Q239.04688 27.540625 238.23438 26.696875Q237.4375 25.853125 237.4375 24.3375Q237.4375 22.775 238.25 21.915625Q239.0625 21.040625 240.34375 21.040625Q241.59375 21.040625 242.375 21.884375Q243.17188 22.728125 243.17188 24.275Q243.17188 24.36875 243.17188 24.55625L238.53125 24.55625Q238.59375 25.5875 239.10938 26.134375Q239.625 26.665625 240.40625 26.665625Q240.98438 26.665625 241.39062 26.36875Q241.8125 26.05625 242.04688 25.4ZM238.59375 23.696875L242.0625 23.696875Q242.0 22.9 241.67188 22.509375Q241.15625 21.9 240.35938 21.9Q239.625 21.9 239.125 22.384375Q238.64062 22.86875 238.59375 23.696875Z" fill-rule="nonzero"/><path fill="#fbbc04" fill-opacity="0.7019608" d="M272.0 23.4C272.0 26.713709 269.31372 29.4 266.0 29.4C262.68628 29.4 260.0 26.713709 260.0 23.4C260.0 20.086292 262.68628 17.4 266.0 17.4C269.31372 17.4 272.0 20.086292 272.0 23.4Z" fill-rule="nonzero"/><path fill="#1a1a1a" d="M284.95312 24.025L284.95312 23.025L288.57812 23.009375L288.57812 26.196875Q287.75 26.86875 286.85938 27.2125Q285.96875 27.540625 285.03125 27.540625Q283.76562 27.540625 282.71875 27.009375Q281.6875 26.4625 281.15625 25.446875Q280.64062 24.415625 280.64062 23.15Q280.64062 21.884375 281.15625 20.80625Q281.6875 19.7125 282.67188 19.196875Q283.65625 18.665625 284.9375 18.665625Q285.875 18.665625 286.625 18.9625Q287.375 19.259375 287.79688 19.80625Q288.23438 20.3375 288.45312 21.2125L287.4375 21.49375Q287.23438 20.8375 286.9375 20.4625Q286.65625 20.0875 286.125 19.86875Q285.59375 19.634375 284.95312 19.634375Q284.17188 19.634375 283.59375 19.86875Q283.03125 20.103125 282.67188 20.49375Q282.32812 20.884375 282.14062 21.353125Q281.8125 22.15 281.8125 23.071875Q281.8125 24.228125 282.20312 25.009375Q282.60938 25.775 283.35938 26.15Q284.10938 26.525 284.96875 26.525Q285.70312 26.525 286.40625 26.24375Q287.10938 25.946875 287.46875 25.634375L287.46875 24.025L284.95312 24.025ZM289.76562 27.4L289.76562 18.80625L290.82812 18.80625L290.82812 27.4L289.76562 27.4ZM292.40625 24.290625Q292.40625 22.55625 293.35938 21.728125Q294.15625 21.040625 295.3125 21.040625Q296.59375 21.040625 297.40625 21.884375Q298.23438 22.7125 298.23438 24.196875Q298.23438 25.4 297.875 26.0875Q297.51562 26.775 296.8125 27.165625Q296.125 27.540625 295.3125 27.540625Q294.01562 27.540625 293.20312 26.7125Q292.40625 25.86875 292.40625 24.290625ZM293.48438 24.290625Q293.48438 25.478125 294.0 26.071875Q294.53125 26.665625 295.3125 26.665625Q296.10938 26.665625 296.625 26.071875Q297.14062 25.478125 297.14062 24.259375Q297.14062 23.103125 296.60938 22.509375Q296.09375 21.915625 295.3125 21.915625Q294.53125 21.915625 294.0 22.509375Q293.48438 23.0875 293.48438 24.290625ZM299.375 25.540625L300.40625 25.384375Q300.5 26.009375 300.89062 26.3375Q301.29688 26.665625 302.03125 26.665625Q302.75 26.665625 303.09375 26.384375Q303.45312 26.0875 303.45312 25.68125Q303.45312 25.321875 303.14062 25.11875Q302.92188 24.978125 302.0625 24.759375Q300.90625 24.4625 300.45312 24.259375Q300.01562 24.040625 299.78125 23.665625Q299.54688 23.290625 299.54688 22.821875Q299.54688 22.415625 299.73438 22.05625Q299.92188 21.696875 300.25 21.4625Q300.5 21.290625 300.92188 21.165625Q301.34375 21.040625 301.84375 21.040625Q302.5625 21.040625 303.10938 21.259375Q303.67188 21.4625 303.9375 21.821875Q304.20312 22.18125 304.29688 22.775L303.26562 22.915625Q303.20312 22.446875 302.85938 22.18125Q302.53125 21.9 301.90625 21.9Q301.1875 21.9 300.875 22.15Q300.5625 22.384375 300.5625 22.7125Q300.5625 22.915625 300.6875 23.071875Q300.82812 23.24375 301.09375 23.353125Q301.25 23.415625 302.03125 23.61875Q303.15625 23.93125 303.59375 24.11875Q304.03125 24.30625 304.28125 24.665625Q304.53125 25.025 304.53125 25.571875Q304.53125 26.103125 304.21875 26.571875Q303.92188 27.025 303.34375 27.290625Q302.76562 27.540625 302.03125 27.540625Q300.8125 27.540625 300.17188 27.040625Q299.54688 26.525 299.375 25.540625ZM306.375 25.540625L307.40625 25.384375Q307.5 26.009375 307.89062 26.3375Q308.29688 26.665625 309.03125 26.665625Q309.75 26.665625 310.09375 26.384375Q310.45312 26.0875 310.45312 25.68125Q310.45312 25.321875 310.14062 25.11875Q309.92188 24.978125 309.0625 24.759375Q307.90625 24.4625 307.45312 24.259375Q307.01562 24.040625 306.78125 23.665625Q306.54688 23.290625 306.54688 22.821875Q306.54688 22.415625 306.73438 22.05625Q306.92188 21.696875 307.25 21.4625Q307.5 21.290625 307.92188 21.165625Q308.34375 21.040625 308.84375 21.040625Q309.5625 21.040625 310.10938 21.259375Q310.67188 21.4625 310.9375 21.821875Q311.20312 22.18125 311.29688 22.775L310.26562 22.915625Q310.20312 22.446875 309.85938 22.18125Q309.53125 21.9 308.90625 21.9Q308.1875 21.9 307.875 22.15Q307.5625 22.384375 307.5625 22.7125Q307.5625 22.915625 307.6875 23.071875Q307.82812 23.24375 308.09375 23.353125Q308.25 23.415625 309.03125 23.61875Q310.15625 23.93125 310.59375 24.11875Q311.03125 24.30625 311.28125 24.665625Q311.53125 25.025 311.53125 25.571875Q311.53125 26.103125 311.21875 26.571875Q310.92188 27.025 310.34375 27.290625Q309.76562 27.540625 309.03125 27.540625Q307.8125 27.540625 307.17188 27.040625Q306.54688 26.525 306.375 25.540625ZM317.85938 26.634375Q317.26562 27.134375 316.71875 27.3375Q316.1875 27.540625 315.5625 27.540625Q314.53125 27.540625 313.98438 27.040625Q313.4375 26.540625 313.4375 25.759375Q313.4375 25.30625 313.64062 24.93125Q313.84375 24.540625 314.1875 24.321875Q314.53125 24.0875 314.95312 23.978125Q315.25 23.884375 315.89062 23.80625Q317.15625 23.665625 317.76562 23.446875Q317.76562 23.228125 317.76562 23.18125Q317.76562 22.525 317.46875 22.259375Q317.0625 21.915625 316.26562 21.915625Q315.53125 21.915625 315.17188 22.18125Q314.8125 22.43125 314.64062 23.0875L313.60938 22.946875Q313.75 22.290625 314.07812 21.884375Q314.40625 21.478125 315.01562 21.259375Q315.625 21.040625 316.42188 21.040625Q317.21875 21.040625 317.71875 21.228125Q318.21875 21.415625 318.45312 21.696875Q318.6875 21.978125 318.78125 22.415625Q318.82812 22.68125 318.82812 23.384375L318.82812 24.790625Q318.82812 26.259375 318.89062 26.65Q318.96875 27.040625 319.17188 27.4L318.0625 27.4Q317.90625 27.071875 317.85938 26.634375ZM317.76562 24.275Q317.1875 24.509375 316.04688 24.68125Q315.39062 24.775 315.125 24.9Q314.85938 25.009375 314.70312 25.228125Q314.5625 25.446875 314.5625 25.728125Q314.5625 26.15 314.875 26.43125Q315.20312 26.7125 315.8125 26.7125Q316.42188 26.7125 316.89062 26.446875Q317.375 26.18125 317.59375 25.7125Q317.76562 25.353125 317.76562 24.665625L317.76562 24.275ZM320.78125 27.4L320.78125 21.18125L321.73438 21.18125L321.73438 22.11875Q322.09375 21.4625 322.39062 21.259375Q322.70312 21.040625 323.07812 21.040625Q323.60938 21.040625 324.15625 21.36875L323.79688 22.353125Q323.40625 22.11875 323.03125 22.11875Q322.67188 22.11875 322.39062 22.3375Q322.125 22.540625 322.01562 22.915625Q321.82812 23.478125 321.82812 24.134375L321.82812 27.4L320.78125 27.4ZM324.79688 20.025L324.79688 18.80625L325.85938 18.80625L325.85938 20.025L324.79688 20.025ZM324.79688 27.4L324.79688 21.18125L325.85938 21.18125L325.85938 27.4L324.79688 27.4ZM327.40625 24.290625Q327.40625 22.55625 328.35938 21.728125Q329.15625 21.040625 330.3125 21.040625Q331.59375 21.040625 332.40625 21.884375Q333.23438 22.7125 333.23438 24.196875Q333.23438 25.4 332.875 26.0875Q332.51562 26.775 331.8125 27.165625Q331.125 27.540625 330.3125 27.540625Q329.01562 27.540625 328.20312 26.7125Q327.40625 25.86875 327.40625 24.290625ZM328.48438 24.290625Q328.48438 25.478125 329.0 26.071875Q329.53125 26.665625 330.3125 26.665625Q331.10938 26.665625 331.625 26.071875Q332.14062 25.478125 332.14062 24.259375Q332.14062 23.103125 331.60938 22.509375Q331.09375 21.915625 330.3125 21.915625Q329.53125 21.915625 329.0 22.509375Q328.48438 23.0875 328.48438 24.290625Z" fill-rule="nonzero"/><path fill="#34a853" d="M362.0 23.4C362.0 26.713709 359.31372 29.4 356.0 29.4C352.68628 29.4 350.0 26.713709 350.0 23.4C350.0 20.086292 352.68628 17.4 356.0 17.4C359.31372 17.4 362.0 20.086292 362.0 23.4Z" fill-rule="nonzero"/><path fill="#1a1a1a" d="M370.92188 27.4L370.92188 18.80625L372.07812 18.80625L376.59375 25.55625L376.59375 18.80625L377.6875 18.80625L377.6875 27.4L376.51562 27.4L372.0 20.65L372.0 27.4L370.92188 27.4ZM383.82812 27.4L383.82812 26.61875Q383.23438 27.540625 382.09375 27.540625Q381.34375 27.540625 380.71875 27.134375Q380.09375 26.7125 379.75 25.978125Q379.40625 25.24375 379.40625 24.290625Q379.40625 23.36875 379.71875 22.603125Q380.03125 21.8375 380.65625 21.446875Q381.28125 21.040625 382.04688 21.040625Q382.60938 21.040625 383.04688 21.275Q383.48438 21.509375 383.76562 21.884375L383.76562 18.80625L384.8125 18.80625L384.8125 27.4L383.82812 27.4ZM380.5 24.290625Q380.5 25.49375 381.0 26.0875Q381.5 26.665625 382.1875 26.665625Q382.875 26.665625 383.35938 26.103125Q383.84375 25.540625 383.84375 24.384375Q383.84375 23.103125 383.34375 22.509375Q382.85938 21.915625 382.14062 21.915625Q381.4375 21.915625 380.96875 22.49375Q380.5 23.05625 380.5 24.290625ZM386.92188 27.4L386.92188 18.80625L390.17188 18.80625Q391.01562 18.80625 391.46875 18.884375Q392.10938 18.99375 392.53125 19.290625Q392.96875 19.5875 393.21875 20.11875Q393.48438 20.65 393.48438 21.290625Q393.48438 22.384375 392.78125 23.15Q392.09375 23.9 390.26562 23.9L388.0625 23.9L388.0625 27.4L386.92188 27.4ZM388.0625 22.9L390.28125 22.9Q391.39062 22.9 391.84375 22.49375Q392.3125 22.071875 392.3125 21.321875Q392.3125 20.790625 392.03125 20.415625Q391.76562 20.025 391.32812 19.9Q391.03125 19.821875 390.26562 19.821875L388.0625 19.821875L388.0625 22.9Z" fill-rule="nonzero"/><path fill="#ff6d01" d="M422.0 23.4C422.0 26.713709 419.31372 29.4 416.0 29.4C412.68628 29.4 410.0 26.713709 410.0 23.4C410.0 20.086292 412.68628 17.4 416.0 17.4C419.31372 17.4 422.0 20.086292 422.0 23.4Z" fill-rule="nonzero"/><path fill="#1a1a1a" d="M430.92188 27.4L430.92188 18.80625L434.17188 18.80625Q435.01562 18.80625 435.46875 18.884375Q436.10938 18.99375 436.53125 19.290625Q436.96875 19.5875 437.21875 20.11875Q437.48438 20.65 437.48438 21.290625Q437.48438 22.384375 436.78125 23.15Q436.09375 23.9 434.26562 23.9L432.0625 23.9L432.0625 27.4L430.92188 27.4ZM432.0625 22.9L434.28125 22.9Q435.39062 22.9 435.84375 22.49375Q436.3125 22.071875 436.3125 21.321875Q436.3125 20.790625 436.03125 20.415625Q435.76562 20.025 435.32812 19.9Q435.03125 19.821875 434.26562 19.821875L432.0625 19.821875L432.0625 22.9ZM442.82812 27.4L442.82812 26.61875Q442.23438 27.540625 441.09375 27.540625Q440.34375 27.540625 439.71875 27.134375Q439.09375 26.7125 438.75 25.978125Q438.40625 25.24375 438.40625 24.290625Q438.40625 23.36875 438.71875 22.603125Q439.03125 21.8375 439.65625 21.446875Q440.28125 21.040625 441.04688 21.040625Q441.60938 21.040625 442.04688 21.275Q442.48438 21.509375 442.76562 21.884375L442.76562 18.80625L443.8125 18.80625L443.8125 27.4L442.82812 27.4ZM439.5 24.290625Q439.5 25.49375 440.0 26.0875Q440.5 26.665625 441.1875 26.665625Q441.875 26.665625 442.35938 26.103125Q442.84375 25.540625 442.84375 24.384375Q442.84375 23.103125 442.34375 22.509375Q441.85938 21.915625 441.14062 21.915625Q440.4375 21.915625 439.96875 22.49375Q439.5 23.05625 439.5 24.290625ZM452.4375 26.478125Q453.23438 27.025 453.89062 27.275L453.5625 28.071875Q452.64062 27.728125 451.71875 27.009375Q450.76562 27.540625 449.60938 27.540625Q448.4375 27.540625 447.48438 26.978125Q446.54688 26.415625 446.03125 25.4Q445.51562 24.384375 445.51562 23.103125Q445.51562 21.8375 446.03125 20.790625Q446.54688 19.74375 447.5 19.196875Q448.45312 18.65 449.625 18.65Q450.8125 18.65 451.76562 19.228125Q452.73438 19.790625 453.23438 20.80625Q453.73438 21.821875 453.73438 23.103125Q453.73438 24.165625 453.40625 25.009375Q453.09375 25.853125 452.4375 26.478125ZM449.9375 25.025Q450.92188 25.30625 451.5625 25.853125Q452.5625 24.93125 452.5625 23.103125Q452.5625 22.05625 452.20312 21.275Q451.84375 20.49375 451.15625 20.071875Q450.48438 19.634375 449.64062 19.634375Q448.35938 19.634375 447.51562 20.509375Q446.6875 21.36875 446.6875 23.103125Q446.6875 24.775 447.51562 25.68125Q448.34375 26.571875 449.64062 26.571875Q450.25 26.571875 450.78125 26.3375Q450.25 25.99375 449.65625 25.853125L449.9375 25.025Z" fill-rule="nonzero"/><path fill="#46bdc6" d="M482.0 23.4C482.0 26.713709 479.31372 29.4 476.0 29.4C472.68628 29.4 470.0 26.713709 470.0 23.4C470.0 20.086292 472.68628 17.4 476.0 17.4C479.31372 17.4 482.0 20.086292 482.0 23.4Z" fill-rule="nonzero"/><path fill="#1a1a1a" d="M489.98438 27.4L493.28125 18.80625L494.5 18.80625L498.01562 27.4L496.73438 27.4L495.71875 24.790625L492.14062 24.790625L491.1875 27.4L489.98438 27.4ZM492.46875 23.86875L495.375 23.86875L494.48438 21.49375Q494.0625 20.415625 493.875 19.7125Q493.70312 20.540625 493.40625 21.353125L492.46875 23.86875ZM501.82812 27.4L501.82812 26.61875Q501.23438 27.540625 500.09375 27.540625Q499.34375 27.540625 498.71875 27.134375Q498.09375 26.7125 497.75 25.978125Q497.40625 25.24375 497.40625 24.290625Q497.40625 23.36875 497.71875 22.603125Q498.03125 21.8375 498.65625 21.446875Q499.28125 21.040625 500.04688 21.040625Q500.60938 21.040625 501.04688 21.275Q501.48438 21.509375 501.76562 21.884375L501.76562 18.80625L502.8125 18.80625L502.8125 27.4L501.82812 27.4ZM498.5 24.290625Q498.5 25.49375 499.0 26.0875Q499.5 26.665625 500.1875 26.665625Q500.875 26.665625 501.35938 26.103125Q501.84375 25.540625 501.84375 24.384375Q501.84375 23.103125 501.34375 22.509375Q500.85938 21.915625 500.14062 21.915625Q499.4375 21.915625 498.96875 22.49375Q498.5 23.05625 498.5 24.290625ZM504.9375 27.4L504.9375 18.80625L508.75 18.80625Q509.90625 18.80625 510.5 19.040625Q511.09375 19.275 511.45312 19.86875Q511.8125 20.446875 511.8125 21.15Q511.8125 22.071875 511.21875 22.696875Q510.625 23.321875 509.39062 23.49375Q509.84375 23.7125 510.07812 23.915625Q510.57812 24.36875 511.01562 25.05625L512.5156 27.4L511.07812 27.4L509.95312 25.61875Q509.45312 24.8375 509.125 24.43125Q508.8125 24.025 508.54688 23.86875Q508.29688 23.696875 508.03125 23.61875Q507.84375 23.5875 507.40625 23.5875L506.07812 23.5875L506.07812 27.4L504.9375 27.4ZM506.07812 22.603125L508.53125 22.603125Q509.29688 22.603125 509.73438 22.446875Q510.1875 22.275 510.40625 21.93125Q510.64062 21.571875 510.64062 21.15Q510.64062 20.540625 510.1875 20.15Q509.75 19.759375 508.79688 19.759375L506.07812 19.759375L506.07812 22.603125Z" fill-rule="nonzero"/></svg>