<svg version="1.1" viewBox="0.0 0.0 532.0 328.0" fill="none" stroke="none" stroke-linecap="square" stroke-miterlimit="10" width="532" height="328" xmlns:xlink="http://www.w3.org/1999/xlink" xmlns="http://www.w3.org/2000/svg"><path fill="#ffffff" d="M0 0L532.0 0L532.0 328.0L0 328.0L0 0Z" fill-rule="nonzero"/><path stroke="#333333" stroke-width="1.0" stroke-linecap="butt" d="M84.5 285.5L515.5 285.5" fill-rule="nonzero"/><path stroke="#cccccc" stroke-width="1.0" stroke-linecap="butt" d="M84.5 255.5L515.5 255.5" fill-rule="nonzero"/><path stroke="#cccccc" stroke-width="1.0" stroke-linecap="butt" d="M84.5 226.5L515.5 226.5" fill-rule="nonzero"/><path stroke="#cccccc" stroke-width="1.0" stroke-linecap="butt" d="M84.5 196.5L515.5 196.5" fill-rule="nonzero"/><path stroke="#cccccc" stroke-width="1.0" stroke-linecap="butt" d="M84.5 166.5L515.5 166.5" fill-rule="nonzero"/><path stroke="#cccccc" stroke-width="1.0" stroke-linecap="butt" d="M84.5 137.5L515.5 137.5" fill-rule="nonzero"/><path stroke="#cccccc" stroke-width="1.0" stroke-linecap="butt" d="M84.5 107.5L515.5 107.5" fill-rule="nonzero"/><path stroke="#cccccc" stroke-width="1.0" stroke-linecap="butt" d="M84.5 77.5L515.5 77.5" fill-rule="nonzero"/><path stroke="#cccccc" stroke-width="1.0" stroke-linecap="butt" d="M84.5 48.5L515.5 48.5" fill-rule="nonzero"/><path stroke="#000000" stroke-width="1.0" stroke-linecap="butt" d="M515.5 285.5L84.5 285.5" fill-rule="nonzero"/><path stroke="#000000" stroke-width="1.0" stroke-linecap="butt" d="M84.5 285.5L84.5 48.5" fill-rule="nonzero"/><clipPath id="id_0"><path d="M84.4 48.333332L515.6 48.333332L515.6 285.6L84.4 285.6L84.4 48.333332Z" clip-rule="nonzero"/></clipPath><path stroke="#4285f4" stroke-width="2.0" stroke-linecap="butt" clip-path="url(#id_0)" d="M138.3 176.45972C138.3 176.45972 210.16667 174.39249 246.1 173.41849C282.03333 172.44449 317.96667 171.18134 353.9 170.61568C389.83334 170.05002 461.7 170.02452 461.7 170.02452" fill-rule="nonzero"/><path fill="#4285f4" clip-path="url(#id_0)" d="M141.8 176.45972C141.8 178.39272 140.233 179.95972 138.3 179.95972C136.367 179.95972 134.8 178.39272 134.8 176.45972C134.8 174.52672 136.367 172.95972 138.3 172.95972C140.233 172.95972 141.8 174.52672 141.8 176.45972Z" fill-rule="nonzero"/><path fill="#4285f4" clip-path="url(#id_0)" d="M249.6 173.41849C249.6 175.35149 248.03299 176.91849 246.1 176.91849C244.167 176.91849 242.6 175.35149 242.6 173.41849C242.6 171.48549 244.167 169.91849 246.1 169.91849C248.03299 169.91849 249.6 171.48549 249.6 173.41849Z" fill-rule="nonzero"/><path fill="#4285f4" clip-path="url(#id_0)" d="M357.4 170.61568C357.4 172.54868 355.833 174.11568 353.9 174.11568C351.967 174.11568 350.4 172.54868 350.4 170.61568C350.4 168.68268 351.967 167.11568 353.9 167.11568C355.833 167.11568 357.4 168.68268 357.4 170.61568Z" fill-rule="nonzero"/><path fill="#4285f4" clip-path="url(#id_0)" d="M465.2 170.02452C465.2 171.95752 463.633 173.52452 461.7 173.52452C459.767 173.52452 458.2 171.95752 458.2 170.02452C458.2 168.09152 459.767 166.52452 461.7 166.52452C463.633 166.52452 465.2 168.09152 465.2 170.02452Z" fill-rule="nonzero"/><path stroke="#000000" stroke-width="1.0" stroke-linecap="butt" d="M138.5 291.5L138.5 279.5" fill-rule="nonzero"/><path stroke="#000000" stroke-width="1.0" stroke-linecap="butt" d="M246.5 291.5L246.5 279.5" fill-rule="nonzero"/><path stroke="#000000" stroke-width="1.0" stroke-linecap="butt" d="M353.5 291.5L353.5 279.5" fill-rule="nonzero"/><path stroke="#000000" stroke-width="1.0" stroke-linecap="butt" d="M461.5 291.5L461.5 279.5" fill-rule="nonzero"/><path stroke="#000000" stroke-width="1.0" stroke-linecap="butt" d="M78.5 285.5L90.5 285.5" fill-rule="nonzero"/><path stroke="#000000" stroke-width="1.0" stroke-linecap="butt" d="M78.5 255.5L90.5 255.5" fill-rule="nonzero"/><path stroke="#000000" stroke-width="1.0" stroke-linecap="butt" d="M78.5 226.5L90.5 226.5" fill-rule="nonzero"/><path stroke="#000000" stroke-width="1.0" stroke-linecap="butt" d="M78.5 196.5L90.5 196.5" fill-rule="nonzero"/><path stroke="#000000" stroke-width="1.0" stroke-linecap="butt" d="M78.5 166.5L90.5 166.5" fill-rule="nonzero"/><path stroke="#000000" stroke-width="1.0" stroke-linecap="butt" d="M78.5 137.5L90.5 137.5" fill-rule="nonzero"/><path stroke="#000000" stroke-width="1.0" stroke-linecap="butt" d="M78.5 107.5L90.5 107.5" fill-rule="nonzero"/><path stroke="#000000" stroke-width="1.0" stroke-linecap="butt" d="M78.5 77.5L90.5 77.5" fill-rule="nonzero"/><path stroke="#000000" stroke-width="1.0" stroke-linecap="butt" d="M78.5 48.5L90.5 48.5" fill-rule="nonzero"/><path fill="#000000" d="M65.9 285.36563Q65.9 283.83438 66.2125 282.9125Q66.525 281.975 67.13438 281.475Q67.75938 280.975 68.69688 280.975Q69.38438 280.975 69.9 281.25626Q70.43125 281.5375 70.775 282.06876Q71.11875 282.58438 71.30625 283.33438Q71.49375 284.08438 71.49375 285.36563Q71.49375 286.88126 71.18125 287.80313Q70.88438 288.725 70.25938 289.24063Q69.65 289.74063 68.69688 289.74063Q67.4625 289.74063 66.74375 288.85Q65.9 287.7875 65.9 285.36563ZM66.97813 285.36563Q66.97813 287.475 67.47813 288.17813Q67.97813 288.88126 68.69688 288.88126Q69.43125 288.88126 69.91563 288.17813Q70.41563 287.475 70.41563 285.36563Q70.41563 283.24063 69.91563 282.55313Q69.43125 281.85 68.68125 281.85Q67.9625 281.85 67.525 282.45938Q66.97813 283.24063 66.97813 285.36563Z" fill-rule="nonzero"/><path fill="#000000" d="M48.9 255.7073Q48.9 254.17606 49.2125 253.25418Q49.525 252.31668 50.134377 251.81668Q50.759377 251.31668 51.696877 251.31668Q52.384377 251.31668 52.9 251.59793Q53.43125 251.87918 53.775 252.41043Q54.11875 252.92606 54.30625 253.67606Q54.49375 254.42606 54.49375 255.7073Q54.49375 257.22293 54.18125 258.1448Q53.884377 259.06668 53.259377 259.5823Q52.65 260.0823 51.696877 260.0823Q50.4625 260.0823 49.74375 259.19168Q48.9 258.12918 48.9 255.7073ZM49.978127 255.7073Q49.978127 257.81668 50.478127 258.5198Q50.978127 259.22293 51.696877 259.22293Q52.43125 259.22293 52.915627 258.5198Q53.415627 257.81668 53.415627 255.7073Q53.415627 253.5823 52.915627 252.8948Q52.43125 252.19168 51.68125 252.19168Q50.9625 252.19168 50.525 252.80106Q49.978127 253.5823 49.978127 255.7073ZM56.49375 259.94168L56.49375 258.73856L57.696877 258.73856L57.696877 259.94168L56.49375 259.94168ZM64.44688 258.92606L64.44688 259.94168L58.759377 259.94168Q58.759377 259.56668 58.884377 259.2073Q59.103127 258.62918 59.571877 258.06668Q60.05625 257.50418 60.9625 256.7698Q62.36875 255.61356 62.853127 254.94168Q63.353127 254.2698 63.353127 253.67606Q63.353127 253.05106 62.9 252.62918Q62.446877 252.19168 61.728127 252.19168Q60.9625 252.19168 60.509377 252.6448Q60.05625 253.09793 60.040627 253.91043L58.9625 253.80106Q59.071877 252.5823 59.790627 251.9573Q60.525 251.31668 61.759377 251.31668Q62.99375 251.31668 63.7125 252.00418Q64.43125 252.69168 64.43125 253.7073Q64.43125 254.22293 64.2125 254.72293Q64.00938 255.2073 63.509377 255.7698Q63.025 256.31668 61.9 257.2698Q60.946877 258.06668 60.665627 258.36356Q60.4 258.6448 60.228127 258.92606L64.44688 258.92606ZM65.9 257.69168L67.00938 257.59793Q67.13438 258.41043 67.57188 258.81668Q68.025 259.22293 68.66563 259.22293Q69.41563 259.22293 69.94688 258.6448Q70.47813 258.06668 70.47813 257.12918Q70.47813 256.22293 69.9625 255.7073Q69.4625 255.17606 68.63438 255.17606Q68.13438 255.17606 67.7125 255.41043Q67.30625 255.6448 67.07188 256.00418L66.0875 255.87918L66.91563 251.47293L71.19688 251.47293L71.19688 252.47293L67.75938 252.47293L67.30625 254.78543Q68.07188 254.23856 68.91563 254.23856Q70.04063 254.23856 70.80625 255.0198Q71.5875 255.80106 71.5875 257.03543Q71.5875 258.19168 70.91563 259.05106Q70.0875 260.0823 68.66563 260.0823Q67.49375 260.0823 66.74375 259.42606Q66.00938 258.7698 65.9 257.69168Z" fill-rule="nonzero"/><path fill="#000000" d="M55.9 226.04897Q55.9 224.51772 56.2125 223.59584Q56.525 222.65834 57.134377 222.15834Q57.759377 221.65834 58.696877 221.65834Q59.384377 221.65834 59.9 221.93959Q60.43125 222.22084 60.775 222.75209Q61.11875 223.26772 61.30625 224.01772Q61.49375 224.76772 61.49375 226.04897Q61.49375 227.56459 61.18125 228.48647Q60.884377 229.40834 60.259377 229.92397Q59.65 230.42397 58.696877 230.42397Q57.4625 230.42397 56.74375 229.53334Q55.9 228.47084 55.9 226.04897ZM56.978127 226.04897Q56.978127 228.15834 57.478127 228.86147Q57.978127 229.56459 58.696877 229.56459Q59.43125 229.56459 59.915627 228.86147Q60.415627 228.15834 60.415627 226.04897Q60.415627 223.92397 59.915627 223.23647Q59.43125 222.53334 58.68125 222.53334Q57.9625 222.53334 57.525 223.14272Q56.978127 223.92397 56.978127 226.04897ZM63.49375 230.28334L63.49375 229.08022L64.69688 229.08022L64.69688 230.28334L63.49375 230.28334ZM65.9 228.03334L67.00938 227.93959Q67.13438 228.75209 67.57188 229.15834Q68.025 229.56459 68.66563 229.56459Q69.41563 229.56459 69.94688 228.98647Q70.47813 228.40834 70.47813 227.47084Q70.47813 226.56459 69.9625 226.04897Q69.4625 225.51772 68.63438 225.51772Q68.13438 225.51772 67.7125 225.75209Q67.30625 225.98647 67.07188 226.34584L66.0875 226.22084L66.91563 221.81459L71.19688 221.81459L71.19688 222.81459L67.75938 222.81459L67.30625 225.12709Q68.07188 224.58022 68.91563 224.58022Q70.04063 224.58022 70.80625 225.36147Q71.5875 226.14272 71.5875 227.37709Q71.5875 228.53334 70.91563 229.39272Q70.0875 230.42397 68.66563 230.42397Q67.49375 230.42397 66.74375 229.76772Q66.00938 229.11147 65.9 228.03334Z" fill-rule="nonzero"/><path fill="#000000" d="M48.9 196.39062Q48.9 194.85938 49.2125 193.9375Q49.525 193.0 50.134377 192.5Q50.759377 192.0 51.696877 192.0Q52.384377 192.0 52.9 192.28125Q53.43125 192.5625 53.775 193.09375Q54.11875 193.60938 54.30625 194.35938Q54.49375 195.10938 54.49375 196.39062Q54.49375 197.90625 54.18125 198.82812Q53.884377 199.75 53.259377 200.26562Q52.65 200.76562 51.696877 200.76562Q50.4625 200.76562 49.74375 199.875Q48.9 198.8125 48.9 196.39062ZM49.978127 196.39062Q49.978127 198.5 50.478127 199.20312Q50.978127 199.90625 51.696877 199.90625Q52.43125 199.90625 52.915627 199.20312Q53.415627 198.5 53.415627 196.39062Q53.415627 194.26562 52.915627 193.57812Q52.43125 192.875 51.68125 192.875Q50.9625 192.875 50.525 193.48438Q49.978127 194.26562 49.978127 196.39062ZM56.49375 200.625L56.49375 199.42188L57.696877 199.42188L57.696877 200.625L56.49375 200.625ZM58.9625 193.15625L58.9625 192.14062L64.525 192.14062L64.525 192.96875Q63.7125 193.84375 62.9 195.29688Q62.103127 196.73438 61.665627 198.26562Q61.3375 199.34375 61.259377 200.625L60.165627 200.625Q60.18125 199.60938 60.55625 198.17188Q60.946877 196.73438 61.65 195.40625Q62.36875 194.07812 63.18125 193.15625L58.9625 193.15625ZM65.9 198.375L67.00938 198.28125Q67.13438 199.09375 67.57188 199.5Q68.025 199.90625 68.66563 199.90625Q69.41563 199.90625 69.94688 199.32812Q70.47813 198.75 70.47813 197.8125Q70.47813 196.90625 69.9625 196.39062Q69.4625 195.85938 68.63438 195.85938Q68.13438 195.85938 67.7125 196.09375Q67.30625 196.32812 67.07188 196.6875L66.0875 196.5625L66.91563 192.15625L71.19688 192.15625L71.19688 193.15625L67.75938 193.15625L67.30625 195.46875Q68.07188 194.92188 68.91563 194.92188Q70.04063 194.92188 70.80625 195.70312Q71.5875 196.48438 71.5875 197.71875Q71.5875 198.875 70.91563 199.73438Q70.0875 200.76562 68.66563 200.76562Q67.49375 200.76562 66.74375 200.10938Q66.00938 199.45312 65.9 198.375Z" fill-rule="nonzero"/><path fill="#000000" d="M69.86875 170.96666L68.82188 170.96666L68.82188 164.24791Q68.43125 164.60728 67.80625 164.98228Q67.19688 165.34166 66.7125 165.51353L66.7125 164.49791Q67.5875 164.07603 68.24375 163.49791Q68.91563 162.90416 69.19688 162.34166L69.86875 162.34166L69.86875 170.96666Z" fill-rule="nonzero"/><path fill="#000000" d="M52.86875 141.30833L51.821877 141.30833L51.821877 134.58958Q51.43125 134.94896 50.80625 135.32396Q50.196877 135.68333 49.7125 135.85521L49.7125 134.83958Q50.5875 134.41771 51.24375 133.83958Q51.915627 133.24583 52.196877 132.68333L52.86875 132.68333L52.86875 141.30833ZM56.49375 141.30833L56.49375 140.10521L57.696877 140.10521L57.696877 141.30833L56.49375 141.30833ZM64.44688 140.29271L64.44688 141.30833L58.759377 141.30833Q58.759377 140.93333 58.884377 140.57396Q59.103127 139.99583 59.571877 139.43333Q60.05625 138.87083 60.9625 138.13646Q62.36875 136.98021 62.853127 136.30833Q63.353127 135.63646 63.353127 135.04271Q63.353127 134.41771 62.9 133.99583Q62.446877 133.55833 61.728127 133.55833Q60.9625 133.55833 60.509377 134.01146Q60.05625 134.46458 60.040627 135.27708L58.9625 135.16771Q59.071877 133.94896 59.790627 133.32396Q60.525 132.68333 61.759377 132.68333Q62.99375 132.68333 63.7125 133.37083Q64.43125 134.05833 64.43125 135.07396Q64.43125 135.58958 64.2125 136.08958Q64.00938 136.57396 63.509377 137.13646Q63.025 137.68333 61.9 138.63646Q60.946877 139.43333 60.665627 139.73021Q60.4 140.01146 60.228127 140.29271L64.44688 140.29271ZM65.9 139.05833L67.00938 138.96458Q67.13438 139.77708 67.57188 140.18333Q68.025 140.58958 68.66563 140.58958Q69.41563 140.58958 69.94688 140.01146Q70.47813 139.43333 70.47813 138.49583Q70.47813 137.58958 69.9625 137.07396Q69.4625 136.54271 68.63438 136.54271Q68.13438 136.54271 67.7125 136.77708Q67.30625 137.01146 67.07188 137.37083L66.0875 137.24583L66.91563 132.83958L71.19688 132.83958L71.19688 133.83958L67.75938 133.83958L67.30625 136.15208Q68.07188 135.60521 68.91563 135.60521Q70.04063 135.60521 70.80625 136.38646Q71.5875 137.16771 71.5875 138.40208Q71.5875 139.55833 70.91563 140.41771Q70.0875 141.44896 68.66563 141.44896Q67.49375 141.44896 66.74375 140.79271Q66.00938 140.13646 65.9 139.05833Z" fill-rule="nonzero"/><path fill="#000000" d="M59.86875 111.65L58.821877 111.65L58.821877 104.93125Q58.43125 105.29063 57.80625 105.66563Q57.196877 106.025 56.7125 106.19688L56.7125 105.18125Q57.5875 104.75938 58.24375 104.18125Q58.915627 103.5875 59.196877 103.025L59.86875 103.025L59.86875 111.65ZM63.49375 111.65L63.49375 110.44688L64.69688 110.44688L64.69688 111.65L63.49375 111.65ZM65.9 109.4L67.00938 109.30625Q67.13438 110.11875 67.57188 110.525Q68.025 110.93125 68.66563 110.93125Q69.41563 110.93125 69.94688 110.35313Q70.47813 109.775 70.47813 108.8375Q70.47813 107.93125 69.9625 107.41563Q69.4625 106.88438 68.63438 106.88438Q68.13438 106.88438 67.7125 107.11875Q67.30625 107.35313 67.07188 107.7125L66.0875 107.5875L66.91563 103.18125L71.19688 103.18125L71.19688 104.18125L67.75938 104.18125L67.30625 106.49375Q68.07188 105.94688 68.91563 105.94688Q70.04063 105.94688 70.80625 106.72813Q71.5875 107.50938 71.5875 108.74375Q71.5875 109.9 70.91563 110.75938Q70.0875 111.79063 68.66563 111.79063Q67.49375 111.79063 66.74375 111.13438Q66.00938 110.47813 65.9 109.4Z" fill-rule="nonzero"/><path fill="#000000" d="M52.86875 81.99167L51.821877 81.99167L51.821877 75.27292Q51.43125 75.63229 50.80625 76.00729Q50.196877 76.36667 49.7125 76.53854L49.7125 75.52292Q50.5875 75.10104 51.24375 74.52292Q51.915627 73.92917 52.196877 73.36667L52.86875 73.36667L52.86875 81.99167ZM56.49375 81.99167L56.49375 80.78854L57.696877 80.78854L57.696877 81.99167L56.49375 81.99167ZM58.9625 74.52292L58.9625 73.50729L64.525 73.50729L64.525 74.33542Q63.7125 75.21042 62.9 76.66354Q62.103127 78.10104 61.665627 79.63229Q61.3375 80.71042 61.259377 81.99167L60.165627 81.99167Q60.18125 80.97604 60.55625 79.53854Q60.946877 78.10104 61.65 76.77292Q62.36875 75.44479 63.18125 74.52292L58.9625 74.52292ZM65.9 79.74167L67.00938 79.64792Q67.13438 80.46042 67.57188 80.86667Q68.025 81.27292 68.66563 81.27292Q69.41563 81.27292 69.94688 80.69479Q70.47813 80.11667 70.47813 79.17917Q70.47813 78.27292 69.9625 77.75729Q69.4625 77.22604 68.63438 77.22604Q68.13438 77.22604 67.7125 77.46042Q67.30625 77.69479 67.07188 78.05417L66.0875 77.92917L66.91563 73.52292L71.19688 73.52292L71.19688 74.52292L67.75938 74.52292L67.30625 76.83542Q68.07188 76.28854 68.91563 76.28854Q70.04063 76.28854 70.80625 77.06979Q71.5875 77.85104 71.5875 79.08542Q71.5875 80.24167 70.91563 81.10104Q70.0875 82.13229 68.66563 82.13229Q67.49375 82.13229 66.74375 81.47604Q66.00938 80.81979 65.9 79.74167Z" fill-rule="nonzero"/><path fill="#000000" d="M71.44688 51.317707L71.44688 52.333332L65.75938 52.333332Q65.75938 51.958332 65.88438 51.598957Q66.10313 51.020832 66.57188 50.458332Q67.05625 49.895832 67.9625 49.161457Q69.36875 48.005207 69.85313 47.333332Q70.35313 46.661457 70.35313 46.067707Q70.35313 45.442707 69.9 45.020832Q69.44688 44.583332 68.72813 44.583332Q67.9625 44.583332 67.50938 45.036457Q67.05625 45.489582 67.04063 46.302082L65.9625 46.192707Q66.07188 44.973957 66.79063 44.348957Q67.525 43.708332 68.75938 43.708332Q69.99375 43.708332 70.7125 44.395832Q71.43125 45.083332 71.43125 46.098957Q71.43125 46.614582 71.2125 47.114582Q71.00938 47.598957 70.50938 48.161457Q70.025 48.708332 68.9 49.661457Q67.94688 50.458332 67.66563 50.755207Q67.4 51.036457 67.22813 51.317707L71.44688 51.317707Z" fill-rule="nonzero"/><path fill="#000000" d="M117.84688 305.83438L118.90938 305.74063Q118.9875 306.39688 119.26875 306.80313Q119.55 307.20938 120.12813 307.475Q120.72188 307.725 121.45625 307.725Q122.09688 307.725 122.59688 307.5375Q123.09688 307.33438 123.33125 307.00626Q123.58125 306.6625 123.58125 306.27188Q123.58125 305.86563 123.34688 305.56876Q123.1125 305.25626 122.58125 305.05313Q122.22188 304.9125 121.03438 304.63126Q119.8625 304.35 119.39375 304.1Q118.76875 303.77188 118.47188 303.30313Q118.175 302.81876 118.175 302.225Q118.175 301.58438 118.53438 301.02188Q118.90938 300.44376 119.6125 300.1625Q120.33125 299.86563 121.19063 299.86563Q122.14375 299.86563 122.87813 300.17813Q123.6125 300.475 124.00313 301.08438Q124.39375 301.67813 124.425 302.42813L123.33125 302.50626Q123.2375 301.69376 122.72188 301.2875Q122.22188 300.86563 121.2375 300.86563Q120.20625 300.86563 119.7375 301.24063Q119.26875 301.61563 119.26875 302.14688Q119.26875 302.61563 119.59688 302.9125Q119.925 303.20938 121.3 303.52188Q122.69063 303.83438 123.20625 304.06876Q123.95625 304.42813 124.31563 304.95938Q124.675 305.475 124.675 306.17813Q124.675 306.86563 124.28438 307.475Q123.89375 308.06876 123.15938 308.4125Q122.425 308.74063 121.50313 308.74063Q120.33125 308.74063 119.53438 308.4125Q118.75313 308.06876 118.3 307.38126Q117.8625 306.69376 117.84688 305.83438ZM126.09688 310.99063L126.09688 302.38126L127.05 302.38126L127.05 303.17813Q127.39375 302.70938 127.81563 302.475Q128.25313 302.24063 128.8625 302.24063Q129.65938 302.24063 130.26875 302.64688Q130.87813 303.05313 131.175 303.80313Q131.4875 304.55313 131.4875 305.44376Q131.4875 306.39688 131.14375 307.1625Q130.81563 307.92813 130.15938 308.33438Q129.50313 308.74063 128.78438 308.74063Q128.25313 308.74063 127.83125 308.52188Q127.40938 308.2875 127.14375 307.95938L127.14375 310.99063L126.09688 310.99063ZM127.05 305.52188Q127.05 306.725 127.53438 307.30313Q128.01875 307.86563 128.70625 307.86563Q129.40938 307.86563 129.90938 307.27188Q130.40938 306.67813 130.40938 305.42813Q130.40938 304.24063 129.925 303.6625Q129.44063 303.06876 128.75313 303.06876Q128.08125 303.06876 127.56563 303.69376Q127.05 304.31876 127.05 305.52188ZM133.08125 308.6L133.08125 302.38126L134.03438 302.38126L134.03438 303.31876Q134.39375 302.6625 134.69063 302.45938Q135.00313 302.24063 135.37813 302.24063Q135.90938 302.24063 136.45625 302.56876L136.09688 303.55313Q135.70625 303.31876 135.33125 303.31876Q134.97188 303.31876 134.69063 303.5375Q134.425 303.74063 134.31563 304.11563Q134.12813 304.67813 134.12813 305.33438L134.12813 308.6L133.08125 308.6ZM137.09688 301.225L137.09688 300.00626L138.15938 300.00626L138.15938 301.225L137.09688 301.225ZM137.09688 308.6L137.09688 302.38126L138.15938 302.38126L138.15938 308.6L137.09688 308.6ZM140.09688 308.6L140.09688 302.38126L141.03438 302.38126L141.03438 303.25626Q141.72188 302.24063 143.01875 302.24063Q143.58125 302.24063 144.05 302.44376Q144.53438 302.64688 144.76875 302.975Q145.00313 303.30313 145.09688 303.74063Q145.14375 304.0375 145.14375 304.77188L145.14375 308.6L144.09688 308.6L144.09688 304.81876Q144.09688 304.1625 143.97188 303.85Q143.84688 303.5375 143.53438 303.35Q143.22188 303.14688 142.8 303.14688Q142.12813 303.14688 141.62813 303.58438Q141.14375 304.00626 141.14375 305.19376L141.14375 308.6L140.09688 308.6ZM149.39375 307.6625L149.55 308.58438Q149.09688 308.67813 148.75313 308.67813Q148.175 308.67813 147.8625 308.50626Q147.55 308.31876 147.40938 308.02188Q147.28438 307.725 147.28438 306.77188L147.28438 303.19376L146.51875 303.19376L146.51875 302.38126L147.28438 302.38126L147.28438 300.83438L148.33125 300.20938L148.33125 302.38126L149.39375 302.38126L149.39375 303.19376L148.33125 303.19376L148.33125 306.83438Q148.33125 307.2875 148.37813 307.4125Q148.44063 307.5375 148.56563 307.61563Q148.69063 307.69376 148.925 307.69376Q149.1125 307.69376 149.39375 307.6625ZM156.76875 308.6L155.72188 308.6L155.72188 301.88126Q155.33125 302.24063 154.70625 302.61563Q154.09688 302.975 153.6125 303.14688L153.6125 302.13126Q154.4875 301.70938 155.14375 301.13126Q155.81563 300.5375 156.09688 299.975L156.76875 299.975L156.76875 308.6Z" fill-rule="nonzero"/><path fill="#000000" d="M225.64688 305.83438L226.70938 305.74063Q226.7875 306.39688 227.06876 306.80313Q227.35 307.20938 227.92813 307.475Q228.52188 307.725 229.25626 307.725Q229.89688 307.725 230.39688 307.5375Q230.89688 307.33438 231.13126 307.00626Q231.38126 306.6625 231.38126 306.27188Q231.38126 305.86563 231.14688 305.56876Q230.9125 305.25626 230.38126 305.05313Q230.02188 304.9125 228.83438 304.63126Q227.6625 304.35 227.19376 304.1Q226.56876 303.77188 226.27188 303.30313Q225.975 302.81876 225.975 302.225Q225.975 301.58438 226.33438 301.02188Q226.70938 300.44376 227.4125 300.1625Q228.13126 299.86563 228.99063 299.86563Q229.94376 299.86563 230.67813 300.17813Q231.4125 300.475 231.80313 301.08438Q232.19376 301.67813 232.225 302.42813L231.13126 302.50626Q231.0375 301.69376 230.52188 301.2875Q230.02188 300.86563 229.0375 300.86563Q228.00626 300.86563 227.5375 301.24063Q227.06876 301.61563 227.06876 302.14688Q227.06876 302.61563 227.39688 302.9125Q227.725 303.20938 229.1 303.52188Q230.49063 303.83438 231.00626 304.06876Q231.75626 304.42813 232.11563 304.95938Q232.475 305.475 232.475 306.17813Q232.475 306.86563 232.08438 307.475Q231.69376 308.06876 230.95938 308.4125Q230.225 308.74063 229.30313 308.74063Q228.13126 308.74063 227.33438 308.4125Q226.55313 308.06876 226.1 307.38126Q225.6625 306.69376 225.64688 305.83438ZM233.89688 310.99063L233.89688 302.38126L234.85 302.38126L234.85 303.17813Q235.19376 302.70938 235.61563 302.475Q236.05313 302.24063 236.6625 302.24063Q237.45938 302.24063 238.06876 302.64688Q238.67813 303.05313 238.975 303.80313Q239.2875 304.55313 239.2875 305.44376Q239.2875 306.39688 238.94376 307.1625Q238.61563 307.92813 237.95938 308.33438Q237.30313 308.74063 236.58438 308.74063Q236.05313 308.74063 235.63126 308.52188Q235.20938 308.2875 234.94376 307.95938L234.94376 310.99063L233.89688 310.99063ZM234.85 305.52188Q234.85 306.725 235.33438 307.30313Q235.81876 307.86563 236.50626 307.86563Q237.20938 307.86563 237.70938 307.27188Q238.20938 306.67813 238.20938 305.42813Q238.20938 304.24063 237.725 303.6625Q237.24063 303.06876 236.55313 303.06876Q235.88126 303.06876 235.36563 303.69376Q234.85 304.31876 234.85 305.52188ZM240.88126 308.6L240.88126 302.38126L241.83438 302.38126L241.83438 303.31876Q242.19376 302.6625 242.49063 302.45938Q242.80313 302.24063 243.17813 302.24063Q243.70938 302.24063 244.25626 302.56876L243.89688 303.55313Q243.50626 303.31876 243.13126 303.31876Q242.77188 303.31876 242.49063 303.5375Q242.225 303.74063 242.11563 304.11563Q241.92813 304.67813 241.92813 305.33438L241.92813 308.6L240.88126 308.6ZM244.89688 301.225L244.89688 300.00626L245.95938 300.00626L245.95938 301.225L244.89688 301.225ZM244.89688 308.6L244.89688 302.38126L245.95938 302.38126L245.95938 308.6L244.89688 308.6ZM247.89688 308.6L247.89688 302.38126L248.83438 302.38126L248.83438 303.25626Q249.52188 302.24063 250.81876 302.24063Q251.38126 302.24063 251.85 302.44376Q252.33438 302.64688 252.56876 302.975Q252.80313 303.30313 252.89688 303.74063Q252.94376 304.0375 252.94376 304.77188L252.94376 308.6L251.89688 308.6L251.89688 304.81876Q251.89688 304.1625 251.77188 303.85Q251.64688 303.5375 251.33438 303.35Q251.02188 303.14688 250.6 303.14688Q249.92813 303.14688 249.42813 303.58438Q248.94376 304.00626 248.94376 305.19376L248.94376 308.6L247.89688 308.6ZM257.19376 307.6625L257.35 308.58438Q256.89688 308.67813 256.55313 308.67813Q255.975 308.67813 255.6625 308.50626Q255.35 308.31876 255.20938 308.02188Q255.08438 307.725 255.08438 306.77188L255.08438 303.19376L254.31876 303.19376L254.31876 302.38126L255.08438 302.38126L255.08438 300.83438L256.13126 300.20938L256.13126 302.38126L257.19376 302.38126L257.19376 303.19376L256.13126 303.19376L256.13126 306.83438Q256.13126 307.2875 256.17813 307.4125Q256.24063 307.5375 256.36563 307.61563Q256.49063 307.69376 256.725 307.69376Q256.9125 307.69376 257.19376 307.6625ZM266.14688 307.58438L266.14688 308.6L260.45938 308.6Q260.45938 308.225 260.58438 307.86563Q260.80313 307.2875 261.27188 306.725Q261.75626 306.1625 262.6625 305.42813Q264.06876 304.27188 264.55313 303.6Q265.05313 302.92813 265.05313 302.33438Q265.05313 301.70938 264.6 301.2875Q264.14688 300.85 263.42813 300.85Q262.6625 300.85 262.20938 301.30313Q261.75626 301.75626 261.74063 302.56876L260.6625 302.45938Q260.77188 301.24063 261.49063 300.61563Q262.225 299.975 263.45938 299.975Q264.69376 299.975 265.4125 300.6625Q266.13126 301.35 266.13126 302.36563Q266.13126 302.88126 265.9125 303.38126Q265.70938 303.86563 265.20938 304.42813Q264.725 304.975 263.6 305.92813Q262.64688 306.725 262.36563 307.02188Q262.1 307.30313 261.92813 307.58438L266.14688 307.58438Z" fill-rule="nonzero"/><path fill="#000000" d="M333.44687 305.83438L334.50937 305.74063Q334.5875 306.39688 334.86874 306.80313Q335.15 307.20938 335.72812 307.475Q336.32187 307.725 337.05624 307.725Q337.69687 307.725 338.19687 307.5375Q338.69687 307.33438 338.93124 307.00626Q339.18124 306.6625 339.18124 306.27188Q339.18124 305.86563 338.94687 305.56876Q338.7125 305.25626 338.18124 305.05313Q337.82187 304.9125 336.63437 304.63126Q335.4625 304.35 334.99374 304.1Q334.36874 303.77188 334.07187 303.30313Q333.775 302.81876 333.775 302.225Q333.775 301.58438 334.13437 301.02188Q334.50937 300.44376 335.2125 300.1625Q335.93124 299.86563 336.79062 299.86563Q337.74374 299.86563 338.47812 300.17813Q339.2125 300.475 339.60312 301.08438Q339.99374 301.67813 340.025 302.42813L338.93124 302.50626Q338.8375 301.69376 338.32187 301.2875Q337.82187 300.86563 336.8375 300.86563Q335.80624 300.86563 335.3375 301.24063Q334.86874 301.61563 334.86874 302.14688Q334.86874 302.61563 335.19687 302.9125Q335.525 303.20938 336.9 303.52188Q338.29062 303.83438 338.80624 304.06876Q339.55624 304.42813 339.91562 304.95938Q340.275 305.475 340.275 306.17813Q340.275 306.86563 339.88437 307.475Q339.49374 308.06876 338.75937 308.4125Q338.025 308.74063 337.10312 308.74063Q335.93124 308.74063 335.13437 308.4125Q334.35312 308.06876 333.9 307.38126Q333.4625 306.69376 333.44687 305.83438ZM341.69687 310.99063L341.69687 302.38126L342.65 302.38126L342.65 303.17813Q342.99374 302.70938 343.41562 302.475Q343.85312 302.24063 344.4625 302.24063Q345.25937 302.24063 345.86874 302.64688Q346.47812 303.05313 346.775 303.80313Q347.0875 304.55313 347.0875 305.44376Q347.0875 306.39688 346.74374 307.1625Q346.41562 307.92813 345.75937 308.33438Q345.10312 308.74063 344.38437 308.74063Q343.85312 308.74063 343.43124 308.52188Q343.00937 308.2875 342.74374 307.95938L342.74374 310.99063L341.69687 310.99063ZM342.65 305.52188Q342.65 306.725 343.13437 307.30313Q343.61874 307.86563 344.30624 307.86563Q345.00937 307.86563 345.50937 307.27188Q346.00937 306.67813 346.00937 305.42813Q346.00937 304.24063 345.525 303.6625Q345.04062 303.06876 344.35312 303.06876Q343.68124 303.06876 343.16562 303.69376Q342.65 304.31876 342.65 305.52188ZM348.68124 308.6L348.68124 302.38126L349.63437 302.38126L349.63437 303.31876Q349.99374 302.6625 350.29062 302.45938Q350.60312 302.24063 350.97812 302.24063Q351.50937 302.24063 352.05624 302.56876L351.69687 303.55313Q351.30624 303.31876 350.93124 303.31876Q350.57187 303.31876 350.29062 303.5375Q350.025 303.74063 349.91562 304.11563Q349.72812 304.67813 349.72812 305.33438L349.72812 308.6L348.68124 308.6ZM352.69687 301.225L352.69687 300.00626L353.75937 300.00626L353.75937 301.225L352.69687 301.225ZM352.69687 308.6L352.69687 302.38126L353.75937 302.38126L353.75937 308.6L352.69687 308.6ZM355.69687 308.6L355.69687 302.38126L356.63437 302.38126L356.63437 303.25626Q357.32187 302.24063 358.61874 302.24063Q359.18124 302.24063 359.65 302.44376Q360.13437 302.64688 360.36874 302.975Q360.60312 303.30313 360.69687 303.74063Q360.74374 304.0375 360.74374 304.77188L360.74374 308.6L359.69687 308.6L359.69687 304.81876Q359.69687 304.1625 359.57187 303.85Q359.44687 303.5375 359.13437 303.35Q358.82187 303.14688 358.4 303.14688Q357.72812 303.14688 357.22812 303.58438Q356.74374 304.00626 356.74374 305.19376L356.74374 308.6L355.69687 308.6ZM364.99374 307.6625L365.15 308.58438Q364.69687 308.67813 364.35312 308.67813Q363.775 308.67813 363.4625 308.50626Q363.15 308.31876 363.00937 308.02188Q362.88437 307.725 362.88437 306.77188L362.88437 303.19376L362.11874 303.19376L362.11874 302.38126L362.88437 302.38126L362.88437 300.83438L363.93124 300.20938L363.93124 302.38126L364.99374 302.38126L364.99374 303.19376L363.93124 303.19376L363.93124 306.83438Q363.93124 307.2875 363.97812 307.4125Q364.04062 307.5375 364.16562 307.61563Q364.29062 307.69376 364.525 307.69376Q364.7125 307.69376 364.99374 307.6625ZM368.4 306.33438L369.4625 306.19376Q369.63437 307.08438 370.07187 307.49063Q370.50937 307.88126 371.13437 307.88126Q371.88437 307.88126 372.4 307.36563Q372.91562 306.85 372.91562 306.08438Q372.91562 305.36563 372.43124 304.89688Q371.9625 304.4125 371.22812 304.4125Q370.93124 304.4125 370.47812 304.5375L370.60312 303.6Q370.7125 303.61563 370.775 303.61563Q371.44687 303.61563 371.97812 303.27188Q372.525 302.9125 372.525 302.17813Q372.525 301.6 372.13437 301.225Q371.74374 300.83438 371.11874 300.83438Q370.50937 300.83438 370.0875 301.225Q369.68124 301.61563 369.57187 302.38126L368.50937 302.19376Q368.69687 301.14688 369.38437 300.56876Q370.07187 299.975 371.0875 299.975Q371.79062 299.975 372.38437 300.2875Q372.97812 300.58438 373.29062 301.1Q373.60312 301.61563 373.60312 302.20938Q373.60312 302.75626 373.30624 303.225Q373.00937 303.67813 372.43124 303.94376Q373.18124 304.11563 373.60312 304.67813Q374.025 305.225 374.025 306.06876Q374.025 307.19376 373.19687 307.975Q372.38437 308.75626 371.13437 308.75626Q370.00937 308.75626 369.25937 308.08438Q368.50937 307.39688 368.4 306.33438Z" fill-rule="nonzero"/><path fill="#000000" d="M441.2469 305.83438L442.3094 305.74063Q442.3875 306.39688 442.66876 306.80313Q442.95 307.20938 443.52814 307.475Q444.1219 307.725 444.85626 307.725Q445.4969 307.725 445.9969 307.5375Q446.4969 307.33438 446.73126 307.00626Q446.98126 306.6625 446.98126 306.27188Q446.98126 305.86563 446.7469 305.56876Q446.5125 305.25626 445.98126 305.05313Q445.6219 304.9125 444.4344 304.63126Q443.2625 304.35 442.79376 304.1Q442.16876 303.77188 441.8719 303.30313Q441.575 302.81876 441.575 302.225Q441.575 301.58438 441.9344 301.02188Q442.3094 300.44376 443.0125 300.1625Q443.73126 299.86563 444.59064 299.86563Q445.54376 299.86563 446.27814 300.17813Q447.0125 300.475 447.40314 301.08438Q447.79376 301.67813 447.825 302.42813L446.73126 302.50626Q446.6375 301.69376 446.1219 301.2875Q445.6219 300.86563 444.6375 300.86563Q443.60626 300.86563 443.1375 301.24063Q442.66876 301.61563 442.66876 302.14688Q442.66876 302.61563 442.9969 302.9125Q443.325 303.20938 444.7 303.52188Q446.09064 303.83438 446.60626 304.06876Q447.35626 304.42813 447.71564 304.95938Q448.075 305.475 448.075 306.17813Q448.075 306.86563 447.6844 307.475Q447.29376 308.06876 446.5594 308.4125Q445.825 308.74063 444.90314 308.74063Q443.73126 308.74063 442.9344 308.4125Q442.15314 308.06876 441.7 307.38126Q441.2625 306.69376 441.2469 305.83438ZM449.4969 310.99063L449.4969 302.38126L450.45 302.38126L450.45 303.17813Q450.79376 302.70938 451.21564 302.475Q451.65314 302.24063 452.2625 302.24063Q453.0594 302.24063 453.66876 302.64688Q454.27814 303.05313 454.575 303.80313Q454.8875 304.55313 454.8875 305.44376Q454.8875 306.39688 454.54376 307.1625Q454.21564 307.92813 453.5594 308.33438Q452.90314 308.74063 452.1844 308.74063Q451.65314 308.74063 451.23126 308.52188Q450.8094 308.2875 450.54376 307.95938L450.54376 310.99063L449.4969 310.99063ZM450.45 305.52188Q450.45 306.725 450.9344 307.30313Q451.41876 307.86563 452.10626 307.86563Q452.8094 307.86563 453.3094 307.27188Q453.8094 306.67813 453.8094 305.42813Q453.8094 304.24063 453.325 303.6625Q452.84064 303.06876 452.15314 303.06876Q451.48126 303.06876 450.96564 303.69376Q450.45 304.31876 450.45 305.52188ZM456.48126 308.6L456.48126 302.38126L457.4344 302.38126L457.4344 303.31876Q457.79376 302.6625 458.09064 302.45938Q458.40314 302.24063 458.77814 302.24063Q459.3094 302.24063 459.85626 302.56876L459.4969 303.55313Q459.10626 303.31876 458.73126 303.31876Q458.3719 303.31876 458.09064 303.5375Q457.825 303.74063 457.71564 304.11563Q457.52814 304.67813 457.52814 305.33438L457.52814 308.6L456.48126 308.6ZM460.4969 301.225L460.4969 300.00626L461.5594 300.00626L461.5594 301.225L460.4969 301.225ZM460.4969 308.6L460.4969 302.38126L461.5594 302.38126L461.5594 308.6L460.4969 308.6ZM463.4969 308.6L463.4969 302.38126L464.4344 302.38126L464.4344 303.25626Q465.1219 302.24063 466.41876 302.24063Q466.98126 302.24063 467.45 302.44376Q467.9344 302.64688 468.16876 302.975Q468.40314 303.30313 468.4969 303.74063Q468.54376 304.0375 468.54376 304.77188L468.54376 308.6L467.4969 308.6L467.4969 304.81876Q467.4969 304.1625 467.3719 303.85Q467.2469 303.5375 466.9344 303.35Q466.6219 303.14688 466.2 303.14688Q465.52814 303.14688 465.02814 303.58438Q464.54376 304.00626 464.54376 305.19376L464.54376 308.6L463.4969 308.6ZM472.79376 307.6625L472.95 308.58438Q472.4969 308.67813 472.15314 308.67813Q471.575 308.67813 471.2625 308.50626Q470.95 308.31876 470.8094 308.02188Q470.6844 307.725 470.6844 306.77188L470.6844 303.19376L469.91876 303.19376L469.91876 302.38126L470.6844 302.38126L470.6844 300.83438L471.73126 300.20938L471.73126 302.38126L472.79376 302.38126L472.79376 303.19376L471.73126 303.19376L471.73126 306.83438Q471.73126 307.2875 471.77814 307.4125Q471.84064 307.5375 471.96564 307.61563Q472.09064 307.69376 472.325 307.69376Q472.5125 307.69376 472.79376 307.6625ZM479.575 308.6L479.575 306.5375L475.85626 306.5375L475.85626 305.56876L479.77814 300.00626L480.6375 300.00626L480.6375 305.56876L481.79376 305.56876L481.79376 306.5375L480.6375 306.5375L480.6375 308.6L479.575 308.6ZM479.575 305.56876L479.575 301.70938L476.8875 305.56876L479.575 305.56876Z" fill-rule="nonzero"/><path fill="#4285f4" d="M258.0 23.4C258.0 26.713709 255.3137 29.4 252.0 29.4C248.6863 29.4 246.0 26.713709 246.0 23.4C246.0 20.086292 248.6863 17.4 252.0 17.4C255.3137 17.4 258.0 20.086292 258.0 23.4Z" fill-rule="nonzero"/><path fill="#1a1a1a" d="M273.0625 24.384375L274.1875 24.68125Q273.82812 26.071875 272.90625 26.80625Q271.98438 27.540625 270.64062 27.540625Q269.25 27.540625 268.375 26.978125Q267.5 26.415625 267.04688 25.353125Q266.59375 24.275 266.59375 23.040625Q266.59375 21.696875 267.10938 20.696875Q267.625 19.696875 268.5625 19.18125Q269.51562 18.665625 270.65625 18.665625Q271.9375 18.665625 272.8125 19.321875Q273.70312 19.978125 274.04688 21.165625L272.92188 21.43125Q272.625 20.49375 272.04688 20.071875Q271.48438 19.634375 270.625 19.634375Q269.64062 19.634375 268.96875 20.11875Q268.3125 20.5875 268.03125 21.384375Q267.76562 22.18125 267.76562 23.040625Q267.76562 24.134375 268.07812 24.946875Q268.40625 25.759375 269.07812 26.165625Q269.75 26.571875 270.54688 26.571875Q271.5 26.571875 272.15625 26.025Q272.82812 25.478125 273.0625 24.384375ZM275.92188 27.4L275.92188 18.80625L279.17188 18.80625Q280.01562 18.80625 280.46875 18.884375Q281.10938 18.99375 281.53125 19.290625Q281.96875 19.5875 282.21875 20.11875Q282.48438 20.65 282.48438 21.290625Q282.48438 22.384375 281.78125 23.15Q281.09375 23.9 279.26562 23.9L277.0625 23.9L277.0625 27.4L275.92188 27.4ZM277.0625 22.9L279.28125 22.9Q280.39062 22.9 280.84375 22.49375Q281.3125 22.071875 281.3125 21.321875Q281.3125 20.790625 281.03125 20.415625Q280.76562 20.025 280.32812 19.9Q280.03125 19.821875 279.26562 19.821875L277.0625 19.821875L277.0625 22.9ZM284.125 27.4L284.125 18.80625L285.25 18.80625L285.25 27.4L284.125 27.4Z" fill-rule="nonzero"/></svg>