<svg version="1.1" viewBox="0.0 0.0 532.0 328.0" fill="none" stroke="none" stroke-linecap="square" stroke-miterlimit="10" width="532" height="328" xmlns:xlink="http://www.w3.org/1999/xlink" xmlns="http://www.w3.org/2000/svg"><path fill="#ffffff" d="M0 0L532.0 0L532.0 328.0L0 328.0L0 0Z" fill-rule="nonzero"/><path stroke="#333333" stroke-width="1.0" stroke-linecap="butt" d="M84.5 285.5L515.5 285.5" fill-rule="nonzero"/><path stroke="#cccccc" stroke-width="1.0" stroke-linecap="butt" d="M84.5 255.5L515.5 255.5" fill-rule="nonzero"/><path stroke="#cccccc" stroke-width="1.0" stroke-linecap="butt" d="M84.5 226.5L515.5 226.5" fill-rule="nonzero"/><path stroke="#cccccc" stroke-width="1.0" stroke-linecap="butt" d="M84.5 196.5L515.5 196.5" fill-rule="nonzero"/><path stroke="#cccccc" stroke-width="1.0" stroke-linecap="butt" d="M84.5 166.5L515.5 166.5" fill-rule="nonzero"/><path stroke="#cccccc" stroke-width="1.0" stroke-linecap="butt" d="M84.5 137.5L515.5 137.5" fill-rule="nonzero"/><path stroke="#cccccc" stroke-width="1.0" stroke-linecap="butt" d="M84.5 107.5L515.5 107.5" fill-rule="nonzero"/><path stroke="#cccccc" stroke-width="1.0" stroke-linecap="butt" d="M84.5 77.5L515.5 77.5" fill-rule="nonzero"/><path stroke="#cccccc" stroke-width="1.0" stroke-linecap="butt" d="M84.5 48.5L515.5 48.5" fill-rule="nonzero"/><path stroke="#000000" stroke-width="1.0" stroke-linecap="butt" d="M515.5 285.5L84.5 285.5" fill-rule="nonzero"/><path stroke="#000000" stroke-width="1.0" stroke-linecap="butt" d="M84.5 285.5L84.5 48.5" fill-rule="nonzero"/><clipPath id="id_0"><path d="M84.4 48.333332L515.6 48.333332L515.6 285.6L84.4 285.6L84.4 48.333332Z" clip-rule="nonzero"/></clipPath><path stroke="#4285f4" stroke-width="2.0" stroke-linecap="butt" clip-path="url(#id_0)" d="M127.52 176.45972C127.52 176.45972 185.01334 174.39249 213.76 173.41849C242.50667 172.44449 271.25333 171.18134 300.0 170.61568C328.74667 170.05002 357.49335 170.21877 386.24 170.02452C414.98666 169.83026 472.48 169.45016 472.48 169.45016" fill-rule="nonzero"/><path fill="#4285f4" clip-path="url(#id_0)" d="M131.02 176.45972C131.02 178.39272 129.453 179.95972 127.52 179.95972C125.587006 179.95972 124.02 178.39272 124.02 176.45972C124.02 174.52672 125.587006 172.95972 127.52 172.95972C129.453 172.95972 131.02 174.52672 131.02 176.45972Z" fill-rule="nonzero"/><path fill="#4285f4" clip-path="url(#id_0)" d="M217.26 173.41849C217.26 175.35149 215.693 176.91849 213.76 176.91849C211.827 176.91849 210.26 175.35149 210.26 173.41849C210.26 171.48549 211.827 169.91849 213.76 169.91849C215.693 169.91849 217.26 171.48549 217.26 173.41849Z" fill-rule="nonzero"/><path fill="#4285f4" clip-path="url(#id_0)" d="M303.5 170.61568C303.5 172.54868 301.93298 174.11568 300.0 174.11568C298.06702 174.11568 296.5 172.54868 296.5 170.61568C296.5 168.68268 298.06702 167.11568 300.0 167.11568C301.93298 167.11568 303.5 168.68268 303.5 170.61568Z" fill-rule="nonzero"/><path fill="#4285f4" clip-path="url(#id_0)" d="M389.74 170.02452C389.74 171.95752 388.173 173.52452 386.24 173.52452C384.307 173.52452 382.74 171.95752 382.74 170.02452C382.74 168.09152 384.307 166.52452 386.24 166.52452C388.173 166.52452 389.74 168.09152 389.74 170.02452Z" fill-rule="nonzero"/><path fill="#4285f4" clip-path="url(#id_0)" d="M475.98 169.45016C475.98 171.38316 474.413 172.95016 472.48 172.95016C470.547 172.95016 468.98 171.38316 468.98 169.45016C468.98 167.51717 470.547 165.95016 472.48 165.95016C474.413 165.95016 475.98 167.51717 475.98 169.45016Z" fill-rule="nonzero"/><path stroke="#000000" stroke-width="1.0" stroke-linecap="butt" d="M127.5 291.5L127.5 279.5" fill-rule="nonzero"/><path stroke="#000000" stroke-width="1.0" stroke-linecap="butt" d="M213.5 291.5L213.5 279.5" fill-rule="nonzero"/><path stroke="#000000" stroke-width="1.0" stroke-linecap="butt" d="M300.5 291.5L300.5 279.5" fill-rule="nonzero"/><path stroke="#000000" stroke-width="1.0" stroke-linecap="butt" d="M386.5 291.5L386.5 279.5" fill-rule="nonzero"/><path stroke="#000000" stroke-width="1.0" stroke-linecap="butt" d="M472.5 291.5L472.5 279.5" fill-rule="nonzero"/><path stroke="#000000" stroke-width="1.0" stroke-linecap="butt" d="M78.5 285.5L90.5 285.5" fill-rule="nonzero"/><path stroke="#000000" stroke-width="1.0" stroke-linecap="butt" d="M78.5 255.5L90.5 255.5" fill-rule="nonzero"/><path stroke="#000000" stroke-width="1.0" stroke-linecap="butt" d="M78.5 226.5L90.5 226.5" fill-rule="nonzero"/><path stroke="#000000" stroke-width="1.0" stroke-linecap="butt" d="M78.5 196.5L90.5 196.5" fill-rule="nonzero"/><path stroke="#000000" stroke-width="1.0" stroke-linecap="butt" d="M78.5 166.5L90.5 166.5" fill-rule="nonzero"/><path stroke="#000000" stroke-width="1.0" stroke-linecap="butt" d="M78.5 137.5L90.5 137.5" fill-rule="nonzero"/><path stroke="#000000" stroke-width="1.0" stroke-linecap="butt" d="M78.5 107.5L90.5 107.5" fill-rule="nonzero"/><path stroke="#000000" stroke-width="1.0" stroke-linecap="butt" d="M78.5 77.5L90.5 77.5" fill-rule="nonzero"/><path stroke="#000000" stroke-width="1.0" stroke-linecap="butt" d="M78.5 48.5L90.5 48.5" fill-rule="nonzero"/><path fill="#000000" d="M65.9 285.36563Q65.9 283.83438 66.2125 282.9125Q66.525 281.975 67.13438 281.475Q67.75938 280.975 68.69688 280.975Q69.38438 280.975 69.9 281.25626Q70.43125 281.5375 70.775 282.06876Q71.11875 282.58438 71.30625 283.33438Q71.49375 284.08438 71.49375 285.36563Q71.49375 286.88126 71.18125 287.80313Q70.88438 288.725 70.25938 289.24063Q69.65 289.74063 68.69688 289.74063Q67.4625 289.74063 66.74375 288.85Q65.9 287.7875 65.9 285.36563ZM66.97813 285.36563Q66.97813 287.475 67.47813 288.17813Q67.97813 288.88126 68.69688 288.88126Q69.43125 288.88126 69.91563 288.17813Q70.41563 287.475 70.41563 285.36563Q70.41563 283.24063 69.91563 282.55313Q69.43125 281.85 68.68125 281.85Q67.9625 281.85 67.525 282.45938Q66.97813 283.24063 66.97813 285.36563Z" fill-rule="nonzero"/><path fill="#000000" d="M48.9 255.7073Q48.9 254.17606 49.2125 253.25418Q49.525 252.31668 50.134377 251.81668Q50.759377 251.31668 51.696877 251.31668Q52.384377 251.31668 52.9 251.59793Q53.43125 251.87918 53.775 252.41043Q54.11875 252.92606 54.30625 253.67606Q54.49375 254.42606 54.49375 255.7073Q54.49375 257.22293 54.18125 258.1448Q53.884377 259.06668 53.259377 259.5823Q52.65 260.0823 51.696877 260.0823Q50.4625 260.0823 49.74375 259.19168Q48.9 258.12918 48.9 255.7073ZM49.978127 255.7073Q49.978127 257.81668 50.478127 258.5198Q50.978127 259.22293 51.696877 259.22293Q52.43125 259.22293 52.915627 258.5198Q53.415627 257.81668 53.415627 255.7073Q53.415627 253.5823 52.915627 252.8948Q52.43125 252.19168 51.68125 252.19168Q50.9625 252.19168 50.525 252.80106Q49.978127 253.5823 49.978127 255.7073ZM56.49375 259.94168L56.49375 258.73856L57.696877 258.73856L57.696877 259.94168L56.49375 259.94168ZM64.44688 258.92606L64.44688 259.94168L58.759377 259.94168Q58.759377 259.56668 58.884377 259.2073Q59.103127 258.62918 59.571877 258.06668Q60.05625 257.50418 60.9625 256.7698Q62.36875 255.61356 62.853127 254.94168Q63.353127 254.2698 63.353127 253.67606Q63.353127 253.05106 62.9 252.62918Q62.446877 252.19168 61.728127 252.19168Q60.9625 252.19168 60.509377 252.6448Q60.05625 253.09793 60.040627 253.91043L58.9625 253.80106Q59.071877 252.5823 59.790627 251.9573Q60.525 251.31668 61.759377 251.31668Q62.99375 251.31668 63.7125 252.00418Q64.43125 252.69168 64.43125 253.7073Q64.43125 254.22293 64.2125 254.72293Q64.00938 255.2073 63.509377 255.7698Q63.025 256.31668 61.9 257.2698Q60.946877 258.06668 60.665627 258.36356Q60.4 258.6448 60.228127 258.92606L64.44688 258.92606ZM65.9 257.69168L67.00938 257.59793Q67.13438 258.41043 67.57188 258.81668Q68.025 259.22293 68.66563 259.22293Q69.41563 259.22293 69.94688 258.6448Q70.47813 258.06668 70.47813 257.12918Q70.47813 256.22293 69.9625 255.7073Q69.4625 255.17606 68.63438 255.17606Q68.13438 255.17606 67.7125 255.41043Q67.30625 255.6448 67.07188 256.00418L66.0875 255.87918L66.91563 251.47293L71.19688 251.47293L71.19688 252.47293L67.75938 252.47293L67.30625 254.78543Q68.07188 254.23856 68.91563 254.23856Q70.04063 254.23856 70.80625 255.0198Q71.5875 255.80106 71.5875 257.03543Q71.5875 258.19168 70.91563 259.05106Q70.0875 260.0823 68.66563 260.0823Q67.49375 260.0823 66.74375 259.42606Q66.00938 258.7698 65.9 257.69168Z" fill-rule="nonzero"/><path fill="#000000" d="M55.9 226.04897Q55.9 224.51772 56.2125 223.59584Q56.525 222.65834 57.134377 222.15834Q57.759377 221.65834 58.696877 221.65834Q59.384377 221.65834 59.9 221.93959Q60.43125 222.22084 60.775 222.75209Q61.11875 223.26772 61.30625 224.01772Q61.49375 224.76772 61.49375 226.04897Q61.49375 227.56459 61.18125 228.48647Q60.884377 229.40834 60.259377 229.92397Q59.65 230.42397 58.696877 230.42397Q57.4625 230.42397 56.74375 229.53334Q55.9 228.47084 55.9 226.04897ZM56.978127 226.04897Q56.978127 228.15834 57.478127 228.86147Q57.978127 229.56459 58.696877 229.56459Q59.43125 229.56459 59.915627 228.86147Q60.415627 228.15834 60.415627 226.04897Q60.415627 223.92397 59.915627 223.23647Q59.43125 222.53334 58.68125 222.53334Q57.9625 222.53334 57.525 223.14272Q56.978127 223.92397 56.978127 226.04897ZM63.49375 230.28334L63.49375 229.08022L64.69688 229.08022L64.69688 230.28334L63.49375 230.28334ZM65.9 228.03334L67.00938 227.93959Q67.13438 228.75209 67.57188 229.15834Q68.025 229.56459 68.66563 229.56459Q69.41563 229.56459 69.94688 228.98647Q70.47813 228.40834 70.47813 227.47084Q70.47813 226.56459 69.9625 226.04897Q69.4625 225.51772 68.63438 225.51772Q68.13438 225.51772 67.7125 225.75209Q67.30625 225.98647 67.07188 226.34584L66.0875 226.22084L66.91563 221.81459L71.19688 221.81459L71.19688 222.81459L67.75938 222.81459L67.30625 225.12709Q68.07188 224.58022 68.91563 224.58022Q70.04063 224.58022 70.80625 225.36147Q71.5875 226.14272 71.5875 227.37709Q71.5875 228.53334 70.91563 229.39272Q70.0875 230.42397 68.66563 230.42397Q67.49375 230.42397 66.74375 229.76772Q66.00938 229.11147 65.9 228.03334Z" fill-rule="nonzero"/><path fill="#000000" d="M48.9 196.39062Q48.9 194.85938 49.2125 193.9375Q49.525 193.0 50.134377 192.5Q50.759377 192.0 51.696877 192.0Q52.384377 192.0 52.9 192.28125Q53.43125 192.5625 53.775 193.09375Q54.11875 193.60938 54.30625 194.35938Q54.49375 195.10938 54.49375 196.39062Q54.49375 197.90625 54.18125 198.82812Q53.884377 199.75 53.259377 200.26562Q52.65 200.76562 51.696877 200.76562Q50.4625 200.76562 49.74375 199.875Q48.9 198.8125 48.9 196.39062ZM49.978127 196.39062Q49.978127 198.5 50.478127 199.20312Q50.978127 199.90625 51.696877 199.90625Q52.43125 199.90625 52.915627 199.20312Q53.415627 198.5 53.415627 196.39062Q53.415627 194.26562 52.915627 193.57812Q52.43125 192.875 51.68125 192.875Q50.9625 192.875 50.525 193.48438Q49.978127 194.26562 49.978127 196.39062ZM56.49375 200.625L56.49375 199.42188L57.696877 199.42188L57.696877 200.625L56.49375 200.625ZM58.9625 193.15625L58.9625 192.14062L64.525 192.14062L64.525 192.96875Q63.7125 193.84375 62.9 195.29688Q62.103127 196.73438 61.665627 198.26562Q61.3375 199.34375 61.259377 200.625L60.165627 200.625Q60.18125 199.60938 60.55625 198.17188Q60.946877 196.73438 61.65 195.40625Q62.36875 194.07812 63.18125 193.15625L58.9625 193.15625ZM65.9 198.375L67.00938 198.28125Q67.13438 199.09375 67.57188 199.5Q68.025 199.90625 68.66563 199.90625Q69.41563 199.90625 69.94688 199.32812Q70.47813 198.75 70.47813 197.8125Q70.47813 196.90625 69.9625 196.39062Q69.4625 195.85938 68.63438 195.85938Q68.13438 195.85938 67.7125 196.09375Q67.30625 196.32812 67.07188 196.6875L66.0875 196.5625L66.91563 192.15625L71.19688 192.15625L71.19688 193.15625L67.75938 193.15625L67.30625 195.46875Q68.07188 194.92188 68.91563 194.92188Q70.04063 194.92188 70.80625 195.70312Q71.5875 196.48438 71.5875 197.71875Q71.5875 198.875 70.91563 199.73438Q70.0875 200.76562 68.66563 200.76562Q67.49375 200.76562 66.74375 200.10938Q66.00938 199.45312 65.9 198.375Z" fill-rule="nonzero"/><path fill="#000000" d="M69.86875 170.96666L68.82188 170.96666L68.82188 164.24791Q68.43125 164.60728 67.80625 164.98228Q67.19688 165.34166 66.7125 165.51353L66.7125 164.49791Q67.5875 164.07603 68.24375 163.49791Q68.91563 162.90416 69.19688 162.34166L69.86875 162.34166L69.86875 170.96666Z" fill-rule="nonzero"/><path fill="#000000" d="M52.86875 141.30833L51.821877 141.30833L51.821877 134.58958Q51.43125 134.94896 50.80625 135.32396Q50.196877 135.68333 49.7125 135.85521L49.7125 134.83958Q50.5875 134.41771 51.24375 133.83958Q51.915627 133.24583 52.196877 132.68333L52.86875 132.68333L52.86875 141.30833ZM56.49375 141.30833L56.49375 140.10521L57.696877 140.10521L57.696877 141.30833L56.49375 141.30833ZM64.44688 140.29271L64.44688 141.30833L58.759377 141.30833Q58.759377 140.93333 58.884377 140.57396Q59.103127 139.99583 59.571877 139.43333Q60.05625 138.87083 60.9625 138.13646Q62.36875 136.98021 62.853127 136.30833Q63.353127 135.63646 63.353127 135.04271Q63.353127 134.41771 62.9 133.99583Q62.446877 133.55833 61.728127 133.55833Q60.9625 133.55833 60.509377 134.01146Q60.05625 134.46458 60.040627 135.27708L58.9625 135.16771Q59.071877 133.94896 59.790627 133.32396Q60.525 132.68333 61.759377 132.68333Q62.99375 132.68333 63.7125 133.37083Q64.43125 134.05833 64.43125 135.07396Q64.43125 135.58958 64.2125 136.08958Q64.00938 136.57396 63.509377 137.13646Q63.025 137.68333 61.9 138.63646Q60.946877 139.43333 60.665627 139.73021Q60.4 140.01146 60.228127 140.29271L64.44688 140.29271ZM65.9 139.05833L67.00938 138.96458Q67.13438 139.77708 67.57188 140.18333Q68.025 140.58958 68.66563 140.58958Q69.41563 140.58958 69.94688 140.01146Q70.47813 139.43333 70.47813 138.49583Q70.47813 137.58958 69.9625 137.07396Q69.4625 136.54271 68.63438 136.54271Q68.13438 136.54271 67.7125 136.77708Q67.30625 137.01146 67.07188 137.37083L66.0875 137.24583L66.91563 132.83958L71.19688 132.83958L71.19688 133.83958L67.75938 133.83958L67.30625 136.15208Q68.07188 135.60521 68.91563 135.60521Q70.04063 135.60521 70.80625 136.38646Q71.5875 137.16771 71.5875 138.40208Q71.5875 139.55833 70.91563 140.41771Q70.0875 141.44896 68.66563 141.44896Q67.49375 141.44896 66.74375 140.79271Q66.00938 140.13646 65.9 139.05833Z" fill-rule="nonzero"/><path fill="#000000" d="M59.86875 111.65L58.821877 111.65L58.821877 104.93125Q58.43125 105.29063 57.80625 105.66563Q57.196877 106.025 56.7125 106.19688L56.7125 105.18125Q57.5875 104.75938 58.24375 104.18125Q58.915627 103.5875 59.196877 103.025L59.86875 103.025L59.86875 111.65ZM63.49375 111.65L63.49375 110.44688L64.69688 110.44688L64.69688 111.65L63.49375 111.65ZM65.9 109.4L67.00938 109.30625Q67.13438 110.11875 67.57188 110.525Q68.025 110.93125 68.66563 110.93125Q69.41563 110.93125 69.94688 110.35313Q70.47813 109.775 70.47813 108.8375Q70.47813 107.93125 69.9625 107.41563Q69.4625 106.88438 68.63438 106.88438Q68.13438 106.88438 67.7125 107.11875Q67.30625 107.35313 67.07188 107.7125L66.0875 107.5875L66.91563 103.18125L71.19688 103.18125L71.19688 104.18125L67.75938 104.18125L67.30625 106.49375Q68.07188 105.94688 68.91563 105.94688Q70.04063 105.94688 70.80625 106.72813Q71.5875 107.50938 71.5875 108.74375Q71.5875 109.9 70.91563 110.75938Q70.0875 111.79063 68.66563 111.79063Q67.49375 111.79063 66.74375 111.13438Q66.00938 110.47813 65.9 109.4Z" fill-rule="nonzero"/><path fill="#000000" d="M52.86875 81.99167L51.821877 81.99167L51.821877 75.27292Q51.43125 75.63229 50.80625 76.00729Q50.196877 76.36667 49.7125 76.53854L49.7125 75.52292Q50.5875 75.10104 51.24375 74.52292Q51.915627 73.92917 52.196877 73.36667L52.86875 73.36667L52.86875 81.99167ZM56.49375 81.99167L56.49375 80.78854L57.696877 80.78854L57.696877 81.99167L56.49375 81.99167ZM58.9625 74.52292L58.9625 73.50729L64.525 73.50729L64.525 74.33542Q63.7125 75.21042 62.9 76.66354Q62.103127 78.10104 61.665627 79.63229Q61.3375 80.71042 61.259377 81.99167L60.165627 81.99167Q60.18125 80.97604 60.55625 79.53854Q60.946877 78.10104 61.65 76.77292Q62.36875 75.44479 63.18125 74.52292L58.9625 74.52292ZM65.9 79.74167L67.00938 79.64792Q67.13438 80.46042 67.57188 80.86667Q68.025 81.27292 68.66563 81.27292Q69.41563 81.27292 69.94688 80.69479Q70.47813 80.11667 70.47813 79.17917Q70.47813 78.27292 69.9625 77.75729Q69.4625 77.22604 68.63438 77.22604Q68.13438 77.22604 67.7125 77.46042Q67.30625 77.69479 67.07188 78.05417L66.0875 77.92917L66.91563 73.52292L71.19688 73.52292L71.19688 74.52292L67.75938 74.52292L67.30625 76.83542Q68.07188 76.28854 68.91563 76.28854Q70.04063 76.28854 70.80625 77.06979Q71.5875 77.85104 71.5875 79.08542Q71.5875 80.24167 70.91563 81.10104Q70.0875 82.13229 68.66563 82.13229Q67.49375 82.13229 66.74375 81.47604Q66.00938 80.81979 65.9 79.74167Z" fill-rule="nonzero"/><path fill="#000000" d="M71.44688 51.317707L71.44688 52.333332L65.75938 52.333332Q65.75938 51.958332 65.88438 51.598957Q66.10313 51.020832 66.57188 50.458332Q67.05625 49.895832 67.9625 49.161457Q69.36875 48.005207 69.85313 47.333332Q70.35313 46.661457 70.35313 46.067707Q70.35313 45.442707 69.9 45.020832Q69.44688 44.583332 68.72813 44.583332Q67.9625 44.583332 67.50938 45.036457Q67.05625 45.489582 67.04063 46.302082L65.9625 46.192707Q66.07188 44.973957 66.79063 44.348957Q67.525 43.708332 68.75938 43.708332Q69.99375 43.708332 70.7125 44.395832Q71.43125 45.083332 71.43125 46.098957Q71.43125 46.614582 71.2125 47.114582Q71.00938 47.598957 70.50938 48.161457Q70.025 48.708332 68.9 49.661457Q67.94688 50.458332 67.66563 50.755207Q67.4 51.036457 67.22813 51.317707L71.44688 51.317707Z" fill-rule="nonzero"/><path fill="#000000" d="M107.06687 305.83438L108.12937 305.74063Q108.2075 306.39688 108.48875 306.80313Q108.77 307.20938 109.34812 307.475Q109.94187 307.725 110.67625 307.725Q111.31687 307.725 111.81687 307.5375Q112.31687 307.33438 112.55125 307.00626Q112.80125 306.6625 112.80125 306.27188Q112.80125 305.86563 112.56687 305.56876Q112.3325 305.25626 111.80125 305.05313Q111.44187 304.9125 110.25437 304.63126Q109.0825 304.35 108.61375 304.1Q107.98875 303.77188 107.69187 303.30313Q107.395 302.81876 107.395 302.225Q107.395 301.58438 107.75437 301.02188Q108.12937 300.44376 108.8325 300.1625Q109.55125 299.86563 110.41062 299.86563Q111.36375 299.86563 112.09812 300.17813Q112.8325 300.475 113.22312 301.08438Q113.61375 301.67813 113.645 302.42813L112.55125 302.50626Q112.4575 301.69376 111.94187 301.2875Q111.44187 300.86563 110.4575 300.86563Q109.42625 300.86563 108.9575 301.24063Q108.48875 301.61563 108.48875 302.14688Q108.48875 302.61563 108.81687 302.9125Q109.145 303.20938 110.52 303.52188Q111.91062 303.83438 112.42625 304.06876Q113.17625 304.42813 113.53562 304.95938Q113.895 305.475 113.895 306.17813Q113.895 306.86563 113.50437 307.475Q113.11375 308.06876 112.37937 308.4125Q111.645 308.74063 110.72312 308.74063Q109.55125 308.74063 108.75437 308.4125Q107.97312 308.06876 107.52 307.38126Q107.0825 306.69376 107.06687 305.83438ZM115.31687 310.99063L115.31687 302.38126L116.27 302.38126L116.27 303.17813Q116.61375 302.70938 117.03562 302.475Q117.47312 302.24063 118.0825 302.24063Q118.87937 302.24063 119.48875 302.64688Q120.09812 303.05313 120.395 303.80313Q120.7075 304.55313 120.7075 305.44376Q120.7075 306.39688 120.36375 307.1625Q120.03562 307.92813 119.37937 308.33438Q118.72312 308.74063 118.00437 308.74063Q117.47312 308.74063 117.05125 308.52188Q116.62937 308.2875 116.36375 307.95938L116.36375 310.99063L115.31687 310.99063ZM116.27 305.52188Q116.27 306.725 116.75437 307.30313Q117.23875 307.86563 117.92625 307.86563Q118.62937 307.86563 119.12937 307.27188Q119.62937 306.67813 119.62937 305.42813Q119.62937 304.24063 119.145 303.6625Q118.66062 303.06876 117.97312 303.06876Q117.30125 303.06876 116.78562 303.69376Q116.27 304.31876 116.27 305.52188ZM122.30125 308.6L122.30125 302.38126L123.25437 302.38126L123.25437 303.31876Q123.61375 302.6625 123.91062 302.45938Q124.22312 302.24063 124.59812 302.24063Q125.12937 302.24063 125.67625 302.56876L125.31687 303.55313Q124.92625 303.31876 124.55125 303.31876Q124.19187 303.31876 123.91062 303.5375Q123.645 303.74063 123.53562 304.11563Q123.34812 304.67813 123.34812 305.33438L123.34812 308.6L122.30125 308.6ZM126.31687 301.225L126.31687 300.00626L127.37937 300.00626L127.37937 301.225L126.31687 301.225ZM126.31687 308.6L126.31687 302.38126L127.37937 302.38126L127.37937 308.6L126.31687 308.6ZM129.31686 308.6L129.31686 302.38126L130.25436 302.38126L130.25436 303.25626Q130.94186 302.24063 132.23874 302.24063Q132.80124 302.24063 133.26999 302.44376Q133.75436 302.64688 133.98874 302.975Q134.22311 303.30313 134.31686 303.74063Q134.36374 304.0375 134.36374 304.77188L134.36374 308.6L133.31686 308.6L133.31686 304.81876Q133.31686 304.1625 133.19186 303.85Q133.06686 303.5375 132.75436 303.35Q132.44186 303.14688 132.01999 303.14688Q131.34811 303.14688 130.84811 303.58438Q130.36374 304.00626 130.36374 305.19376L130.36374 308.6L129.31686 308.6ZM138.61374 307.6625L138.76999 308.58438Q138.31686 308.67813 137.97311 308.67813Q137.39499 308.67813 137.08249 308.50626Q136.76999 308.31876 136.62936 308.02188Q136.50436 307.725 136.50436 306.77188L136.50436 303.19376L135.73874 303.19376L135.73874 302.38126L136.50436 302.38126L136.50436 300.83438L137.55124 300.20938L137.55124 302.38126L138.61374 302.38126L138.61374 303.19376L137.55124 303.19376L137.55124 306.83438Q137.55124 307.2875 137.59811 307.4125Q137.66061 307.5375 137.78561 307.61563Q137.91061 307.69376 138.14499 307.69376Q138.33249 307.69376 138.61374 307.6625ZM145.98874 308.6L144.94186 308.6L144.94186 301.88126Q144.55124 302.24063 143.92624 302.61563Q143.31686 302.975 142.83249 303.14688L142.83249 302.13126Q143.70749 301.70938 144.36374 301.13126Q145.03561 300.5375 145.31686 299.975L145.98874 299.975L145.98874 308.6Z" fill-rule="nonzero"/><path fill="#000000" d="M193.30687 305.83438L194.36937 305.74063Q194.4475 306.39688 194.72874 306.80313Q195.01 307.20938 195.58812 307.475Q196.18187 307.725 196.91624 307.725Q197.55687 307.725 198.05687 307.5375Q198.55687 307.33438 198.79124 307.00626Q199.04124 306.6625 199.04124 306.27188Q199.04124 305.86563 198.80687 305.56876Q198.5725 305.25626 198.04124 305.05313Q197.68187 304.9125 196.49437 304.63126Q195.3225 304.35 194.85374 304.1Q194.22874 303.77188 193.93187 303.30313Q193.635 302.81876 193.635 302.225Q193.635 301.58438 193.99437 301.02188Q194.36937 300.44376 195.0725 300.1625Q195.79124 299.86563 196.65062 299.86563Q197.60374 299.86563 198.33812 300.17813Q199.0725 300.475 199.46312 301.08438Q199.85374 301.67813 199.885 302.42813L198.79124 302.50626Q198.6975 301.69376 198.18187 301.2875Q197.68187 300.86563 196.6975 300.86563Q195.66624 300.86563 195.1975 301.24063Q194.72874 301.61563 194.72874 302.14688Q194.72874 302.61563 195.05687 302.9125Q195.385 303.20938 196.76 303.52188Q198.15062 303.83438 198.66624 304.06876Q199.41624 304.42813 199.77562 304.95938Q200.135 305.475 200.135 306.17813Q200.135 306.86563 199.74437 307.475Q199.35374 308.06876 198.61937 308.4125Q197.885 308.74063 196.96312 308.74063Q195.79124 308.74063 194.99437 308.4125Q194.21312 308.06876 193.76 307.38126Q193.3225 306.69376 193.30687 305.83438ZM201.55687 310.99063L201.55687 302.38126L202.51 302.38126L202.51 303.17813Q202.85374 302.70938 203.27562 302.475Q203.71312 302.24063 204.3225 302.24063Q205.11937 302.24063 205.72874 302.64688Q206.33812 303.05313 206.635 303.80313Q206.9475 304.55313 206.9475 305.44376Q206.9475 306.39688 206.60374 307.1625Q206.27562 307.92813 205.61937 308.33438Q204.96312 308.74063 204.24437 308.74063Q203.71312 308.74063 203.29124 308.52188Q202.86937 308.2875 202.60374 307.95938L202.60374 310.99063L201.55687 310.99063ZM202.51 305.52188Q202.51 306.725 202.99437 307.30313Q203.47874 307.86563 204.16624 307.86563Q204.86937 307.86563 205.36937 307.27188Q205.86937 306.67813 205.86937 305.42813Q205.86937 304.24063 205.385 303.6625Q204.90062 303.06876 204.21312 303.06876Q203.54124 303.06876 203.02562 303.69376Q202.51 304.31876 202.51 305.52188ZM208.54124 308.6L208.54124 302.38126L209.49437 302.38126L209.49437 303.31876Q209.85374 302.6625 210.15062 302.45938Q210.46312 302.24063 210.83812 302.24063Q211.36937 302.24063 211.91624 302.56876L211.55687 303.55313Q211.16624 303.31876 210.79124 303.31876Q210.43187 303.31876 210.15062 303.5375Q209.885 303.74063 209.77562 304.11563Q209.58812 304.67813 209.58812 305.33438L209.58812 308.6L208.54124 308.6ZM212.55687 301.225L212.55687 300.00626L213.61937 300.00626L213.61937 301.225L212.55687 301.225ZM212.55687 308.6L212.55687 302.38126L213.61937 302.38126L213.61937 308.6L212.55687 308.6ZM215.55687 308.6L215.55687 302.38126L216.49437 302.38126L216.49437 303.25626Q217.18187 302.24063 218.47874 302.24063Q219.04124 302.24063 219.51 302.44376Q219.99437 302.64688 220.22874 302.975Q220.46312 303.30313 220.55687 303.74063Q220.60374 304.0375 220.60374 304.77188L220.60374 308.6L219.55687 308.6L219.55687 304.81876Q219.55687 304.1625 219.43187 303.85Q219.30687 303.5375 218.99437 303.35Q218.68187 303.14688 218.26 303.14688Q217.58812 303.14688 217.08812 303.58438Q216.60374 304.00626 216.60374 305.19376L216.60374 308.6L215.55687 308.6ZM224.85374 307.6625L225.01 308.58438Q224.55687 308.67813 224.21312 308.67813Q223.635 308.67813 223.3225 308.50626Q223.01 308.31876 222.86937 308.02188Q222.74437 307.725 222.74437 306.77188L222.74437 303.19376L221.97874 303.19376L221.97874 302.38126L222.74437 302.38126L222.74437 300.83438L223.79124 300.20938L223.79124 302.38126L224.85374 302.38126L224.85374 303.19376L223.79124 303.19376L223.79124 306.83438Q223.79124 307.2875 223.83812 307.4125Q223.90062 307.5375 224.02562 307.61563Q224.15062 307.69376 224.385 307.69376Q224.5725 307.69376 224.85374 307.6625ZM233.80687 307.58438L233.80687 308.6L228.11937 308.6Q228.11937 308.225 228.24437 307.86563Q228.46312 307.2875 228.93187 306.725Q229.41624 306.1625 230.3225 305.42813Q231.72874 304.27188 232.21312 303.6Q232.71312 302.92813 232.71312 302.33438Q232.71312 301.70938 232.26 301.2875Q231.80687 300.85 231.08812 300.85Q230.3225 300.85 229.86937 301.30313Q229.41624 301.75626 229.40062 302.56876L228.3225 302.45938Q228.43187 301.24063 229.15062 300.61563Q229.885 299.975 231.11937 299.975Q232.35374 299.975 233.0725 300.6625Q233.79124 301.35 233.79124 302.36563Q233.79124 302.88126 233.5725 303.38126Q233.36937 303.86563 232.86937 304.42813Q232.385 304.975 231.26 305.92813Q230.30687 306.725 230.02562 307.02188Q229.76 307.30313 229.58812 307.58438L233.80687 307.58438Z" fill-rule="nonzero"/><path fill="#000000" d="M279.54688 305.83438L280.60938 305.74063Q280.6875 306.39688 280.96875 306.80313Q281.25 307.20938 281.82812 307.475Q282.42188 307.725 283.15625 307.725Q283.79688 307.725 284.29688 307.5375Q284.79688 307.33438 285.03125 307.00626Q285.28125 306.6625 285.28125 306.27188Q285.28125 305.86563 285.04688 305.56876Q284.8125 305.25626 284.28125 305.05313Q283.92188 304.9125 282.73438 304.63126Q281.5625 304.35 281.09375 304.1Q280.46875 303.77188 280.17188 303.30313Q279.875 302.81876 279.875 302.225Q279.875 301.58438 280.23438 301.02188Q280.60938 300.44376 281.3125 300.1625Q282.03125 299.86563 282.89062 299.86563Q283.84375 299.86563 284.57812 300.17813Q285.3125 300.475 285.70312 301.08438Q286.09375 301.67813 286.125 302.42813L285.03125 302.50626Q284.9375 301.69376 284.42188 301.2875Q283.92188 300.86563 282.9375 300.86563Q281.90625 300.86563 281.4375 301.24063Q280.96875 301.61563 280.96875 302.14688Q280.96875 302.61563 281.29688 302.9125Q281.625 303.20938 283.0 303.52188Q284.39062 303.83438 284.90625 304.06876Q285.65625 304.42813 286.01562 304.95938Q286.375 305.475 286.375 306.17813Q286.375 306.86563 285.98438 307.475Q285.59375 308.06876 284.85938 308.4125Q284.125 308.74063 283.20312 308.74063Q282.03125 308.74063 281.23438 308.4125Q280.45312 308.06876 280.0 307.38126Q279.5625 306.69376 279.54688 305.83438ZM287.79688 310.99063L287.79688 302.38126L288.75 302.38126L288.75 303.17813Q289.09375 302.70938 289.51562 302.475Q289.95312 302.24063 290.5625 302.24063Q291.35938 302.24063 291.96875 302.64688Q292.57812 303.05313 292.875 303.80313Q293.1875 304.55313 293.1875 305.44376Q293.1875 306.39688 292.84375 307.1625Q292.51562 307.92813 291.85938 308.33438Q291.20312 308.74063 290.48438 308.74063Q289.95312 308.74063 289.53125 308.52188Q289.10938 308.2875 288.84375 307.95938L288.84375 310.99063L287.79688 310.99063ZM288.75 305.52188Q288.75 306.725 289.23438 307.30313Q289.71875 307.86563 290.40625 307.86563Q291.10938 307.86563 291.60938 307.27188Q292.10938 306.67813 292.10938 305.42813Q292.10938 304.24063 291.625 303.6625Q291.14062 303.06876 290.45312 303.06876Q289.78125 303.06876 289.26562 303.69376Q288.75 304.31876 288.75 305.52188ZM294.78125 308.6L294.78125 302.38126L295.73438 302.38126L295.73438 303.31876Q296.09375 302.6625 296.39062 302.45938Q296.70312 302.24063 297.07812 302.24063Q297.60938 302.24063 298.15625 302.56876L297.79688 303.55313Q297.40625 303.31876 297.03125 303.31876Q296.67188 303.31876 296.39062 303.5375Q296.125 303.74063 296.01562 304.11563Q295.82812 304.67813 295.82812 305.33438L295.82812 308.6L294.78125 308.6ZM298.79688 301.225L298.79688 300.00626L299.85938 300.00626L299.85938 301.225L298.79688 301.225ZM298.79688 308.6L298.79688 302.38126L299.85938 302.38126L299.85938 308.6L298.79688 308.6ZM301.79688 308.6L301.79688 302.38126L302.73438 302.38126L302.73438 303.25626Q303.42188 302.24063 304.71875 302.24063Q305.28125 302.24063 305.75 302.44376Q306.23438 302.64688 306.46875 302.975Q306.70312 303.30313 306.79688 303.74063Q306.84375 304.0375 306.84375 304.77188L306.84375 308.6L305.79688 308.6L305.79688 304.81876Q305.79688 304.1625 305.67188 303.85Q305.54688 303.5375 305.23438 303.35Q304.92188 303.14688 304.5 303.14688Q303.82812 303.14688 303.32812 303.58438Q302.84375 304.00626 302.84375 305.19376L302.84375 308.6L301.79688 308.6ZM311.09375 307.6625L311.25 308.58438Q310.79688 308.67813 310.45312 308.67813Q309.875 308.67813 309.5625 308.50626Q309.25 308.31876 309.10938 308.02188Q308.98438 307.725 308.98438 306.77188L308.98438 303.19376L308.21875 303.19376L308.21875 302.38126L308.98438 302.38126L308.98438 300.83438L310.03125 300.20938L310.03125 302.38126L311.09375 302.38126L311.09375 303.19376L310.03125 303.19376L310.03125 306.83438Q310.03125 307.2875 310.07812 307.4125Q310.14062 307.5375 310.26562 307.61563Q310.39062 307.69376 310.625 307.69376Q310.8125 307.69376 311.09375 307.6625ZM314.5 306.33438L315.5625 306.19376Q315.73438 307.08438 316.17188 307.49063Q316.60938 307.88126 317.23438 307.88126Q317.98438 307.88126 318.5 307.36563Q319.01562 306.85 319.01562 306.08438Q319.01562 305.36563 318.53125 304.89688Q318.0625 304.4125 317.32812 304.4125Q317.03125 304.4125 316.57812 304.5375L316.70312 303.6Q316.8125 303.61563 316.875 303.61563Q317.54688 303.61563 318.07812 303.27188Q318.625 302.9125 318.625 302.17813Q318.625 301.6 318.23438 301.225Q317.84375 300.83438 317.21875 300.83438Q316.60938 300.83438 316.1875 301.225Q315.78125 301.61563 315.67188 302.38126L314.60938 302.19376Q314.79688 301.14688 315.48438 300.56876Q316.17188 299.975 317.1875 299.975Q317.89062 299.975 318.48438 300.2875Q319.07812 300.58438 319.39062 301.1Q319.70312 301.61563 319.70312 302.20938Q319.70312 302.75626 319.40625 303.225Q319.10938 303.67813 318.53125 303.94376Q319.28125 304.11563 319.70312 304.67813Q320.125 305.225 320.125 306.06876Q320.125 307.19376 319.29688 307.975Q318.48438 308.75626 317.23438 308.75626Q316.10938 308.75626 315.35938 308.08438Q314.60938 307.39688 314.5 306.33438Z" fill-rule="nonzero"/><path fill="#000000" d="M365.78687 305.83438L366.84937 305.74063Q366.9275 306.39688 367.20874 306.80313Q367.49 307.20938 368.0681 307.475Q368.66187 307.725 369.39624 307.725Q370.03687 307.725 370.53687 307.5375Q371.03687 307.33438 371.27124 307.00626Q371.52124 306.6625 371.52124 306.27188Q371.52124 305.86563 371.28687 305.56876Q371.0525 305.25626 370.52124 305.05313Q370.16187 304.9125 368.97437 304.63126Q367.8025 304.35 367.33374 304.1Q366.70874 303.77188 366.41187 303.30313Q366.115 302.81876 366.115 302.225Q366.115 301.58438 366.47437 301.02188Q366.84937 300.44376 367.5525 300.1625Q368.27124 299.86563 369.1306 299.86563Q370.08374 299.86563 370.8181 300.17813Q371.5525 300.475 371.9431 301.08438Q372.33374 301.67813 372.365 302.42813L371.27124 302.50626Q371.1775 301.69376 370.66187 301.2875Q370.16187 300.86563 369.1775 300.86563Q368.14624 300.86563 367.6775 301.24063Q367.20874 301.61563 367.20874 302.14688Q367.20874 302.61563 367.53687 302.9125Q367.865 303.20938 369.24 303.52188Q370.6306 303.83438 371.14624 304.06876Q371.89624 304.42813 372.2556 304.95938Q372.615 305.475 372.615 306.17813Q372.615 306.86563 372.22437 307.475Q371.83374 308.06876 371.09937 308.4125Q370.365 308.74063 369.4431 308.74063Q368.27124 308.74063 367.47437 308.4125Q366.6931 308.06876 366.24 307.38126Q365.8025 306.69376 365.78687 305.83438ZM374.03687 310.99063L374.03687 302.38126L374.99 302.38126L374.99 303.17813Q375.33374 302.70938 375.7556 302.475Q376.1931 302.24063 376.8025 302.24063Q377.59937 302.24063 378.20874 302.64688Q378.8181 303.05313 379.115 303.80313Q379.4275 304.55313 379.4275 305.44376Q379.4275 306.39688 379.08374 307.1625Q378.7556 307.92813 378.09937 308.33438Q377.4431 308.74063 376.72437 308.74063Q376.1931 308.74063 375.77124 308.52188Q375.34937 308.2875 375.08374 307.95938L375.08374 310.99063L374.03687 310.99063ZM374.99 305.52188Q374.99 306.725 375.47437 307.30313Q375.95874 307.86563 376.64624 307.86563Q377.34937 307.86563 377.84937 307.27188Q378.34937 306.67813 378.34937 305.42813Q378.34937 304.24063 377.865 303.6625Q377.3806 303.06876 376.6931 303.06876Q376.02124 303.06876 375.5056 303.69376Q374.99 304.31876 374.99 305.52188ZM381.02124 308.6L381.02124 302.38126L381.97437 302.38126L381.97437 303.31876Q382.33374 302.6625 382.6306 302.45938Q382.9431 302.24063 383.3181 302.24063Q383.84937 302.24063 384.39624 302.56876L384.03687 303.55313Q383.64624 303.31876 383.27124 303.31876Q382.91187 303.31876 382.6306 303.5375Q382.365 303.74063 382.2556 304.11563Q382.0681 304.67813 382.0681 305.33438L382.0681 308.6L381.02124 308.6ZM385.03687 301.225L385.03687 300.00626L386.09937 300.00626L386.09937 301.225L385.03687 301.225ZM385.03687 308.6L385.03687 302.38126L386.09937 302.38126L386.09937 308.6L385.03687 308.6ZM388.03687 308.6L388.03687 302.38126L388.97437 302.38126L388.97437 303.25626Q389.66187 302.24063 390.95874 302.24063Q391.52124 302.24063 391.99 302.44376Q392.47437 302.64688 392.70874 302.975Q392.9431 303.30313 393.03687 303.74063Q393.08374 304.0375 393.08374 304.77188L393.08374 308.6L392.03687 308.6L392.03687 304.81876Q392.03687 304.1625 391.91187 303.85Q391.78687 303.5375 391.47437 303.35Q391.16187 303.14688 390.74 303.14688Q390.0681 303.14688 389.5681 303.58438Q389.08374 304.00626 389.08374 305.19376L389.08374 308.6L388.03687 308.6ZM397.33374 307.6625L397.49 308.58438Q397.03687 308.67813 396.6931 308.67813Q396.115 308.67813 395.8025 308.50626Q395.49 308.31876 395.34937 308.02188Q395.22437 307.725 395.22437 306.77188L395.22437 303.19376L394.45874 303.19376L394.45874 302.38126L395.22437 302.38126L395.22437 300.83438L396.27124 300.20938L396.27124 302.38126L397.33374 302.38126L397.33374 303.19376L396.27124 303.19376L396.27124 306.83438Q396.27124 307.2875 396.3181 307.4125Q396.3806 307.5375 396.5056 307.61563Q396.6306 307.69376 396.865 307.69376Q397.0525 307.69376 397.33374 307.6625ZM404.115 308.6L404.115 306.5375L400.39624 306.5375L400.39624 305.56876L404.3181 300.00626L405.1775 300.00626L405.1775 305.56876L406.33374 305.56876L406.33374 306.5375L405.1775 306.5375L405.1775 308.6L404.115 308.6ZM404.115 305.56876L404.115 301.70938L401.4275 305.56876L404.115 305.56876Z" fill-rule="nonzero"/><path fill="#000000" d="M452.0269 305.83438L453.0894 305.74063Q453.1675 306.39688 453.44876 306.80313Q453.73 307.20938 454.30814 307.475Q454.9019 307.725 455.63626 307.725Q456.2769 307.725 456.7769 307.5375Q457.2769 307.33438 457.51126 307.00626Q457.76126 306.6625 457.76126 306.27188Q457.76126 305.86563 457.5269 305.56876Q457.2925 305.25626 456.76126 305.05313Q456.4019 304.9125 455.2144 304.63126Q454.0425 304.35 453.57376 304.1Q452.94876 303.77188 452.6519 303.30313Q452.355 302.81876 452.355 302.225Q452.355 301.58438 452.7144 301.02188Q453.0894 300.44376 453.7925 300.1625Q454.51126 299.86563 455.37064 299.86563Q456.32376 299.86563 457.05814 300.17813Q457.7925 300.475 458.18314 301.08438Q458.57376 301.67813 458.605 302.42813L457.51126 302.50626Q457.4175 301.69376 456.9019 301.2875Q456.4019 300.86563 455.4175 300.86563Q454.38626 300.86563 453.9175 301.24063Q453.44876 301.61563 453.44876 302.14688Q453.44876 302.61563 453.7769 302.9125Q454.105 303.20938 455.48 303.52188Q456.87064 303.83438 457.38626 304.06876Q458.13626 304.42813 458.49564 304.95938Q458.855 305.475 458.855 306.17813Q458.855 306.86563 458.4644 307.475Q458.07376 308.06876 457.3394 308.4125Q456.605 308.74063 455.68314 308.74063Q454.51126 308.74063 453.7144 308.4125Q452.93314 308.06876 452.48 307.38126Q452.0425 306.69376 452.0269 305.83438ZM460.2769 310.99063L460.2769 302.38126L461.23 302.38126L461.23 303.17813Q461.57376 302.70938 461.99564 302.475Q462.43314 302.24063 463.0425 302.24063Q463.8394 302.24063 464.44876 302.64688Q465.05814 303.05313 465.355 303.80313Q465.6675 304.55313 465.6675 305.44376Q465.6675 306.39688 465.32376 307.1625Q464.99564 307.92813 464.3394 308.33438Q463.68314 308.74063 462.9644 308.74063Q462.43314 308.74063 462.01126 308.52188Q461.5894 308.2875 461.32376 307.95938L461.32376 310.99063L460.2769 310.99063ZM461.23 305.52188Q461.23 306.725 461.7144 307.30313Q462.19876 307.86563 462.88626 307.86563Q463.5894 307.86563 464.0894 307.27188Q464.5894 306.67813 464.5894 305.42813Q464.5894 304.24063 464.105 303.6625Q463.62064 303.06876 462.93314 303.06876Q462.26126 303.06876 461.74564 303.69376Q461.23 304.31876 461.23 305.52188ZM467.26126 308.6L467.26126 302.38126L468.2144 302.38126L468.2144 303.31876Q468.57376 302.6625 468.87064 302.45938Q469.18314 302.24063 469.55814 302.24063Q470.0894 302.24063 470.63626 302.56876L470.2769 303.55313Q469.88626 303.31876 469.51126 303.31876Q469.1519 303.31876 468.87064 303.5375Q468.605 303.74063 468.49564 304.11563Q468.30814 304.67813 468.30814 305.33438L468.30814 308.6L467.26126 308.6ZM471.2769 301.225L471.2769 300.00626L472.3394 300.00626L472.3394 301.225L471.2769 301.225ZM471.2769 308.6L471.2769 302.38126L472.3394 302.38126L472.3394 308.6L471.2769 308.6ZM474.2769 308.6L474.2769 302.38126L475.2144 302.38126L475.2144 303.25626Q475.9019 302.24063 477.19876 302.24063Q477.76126 302.24063 478.23 302.44376Q478.7144 302.64688 478.94876 302.975Q479.18314 303.30313 479.2769 303.74063Q479.32376 304.0375 479.32376 304.77188L479.32376 308.6L478.2769 308.6L478.2769 304.81876Q478.2769 304.1625 478.1519 303.85Q478.0269 303.5375 477.7144 303.35Q477.4019 303.14688 476.98 303.14688Q476.30814 303.14688 475.80814 303.58438Q475.32376 304.00626 475.32376 305.19376L475.32376 308.6L474.2769 308.6ZM483.57376 307.6625L483.73 308.58438Q483.2769 308.67813 482.93314 308.67813Q482.355 308.67813 482.0425 308.50626Q481.73 308.31876 481.5894 308.02188Q481.4644 307.725 481.4644 306.77188L481.4644 303.19376L480.69876 303.19376L480.69876 302.38126L481.4644 302.38126L481.4644 300.83438L482.51126 300.20938L482.51126 302.38126L483.57376 302.38126L483.57376 303.19376L482.51126 303.19376L482.51126 306.83438Q482.51126 307.2875 482.55814 307.4125Q482.62064 307.5375 482.74564 307.61563Q482.87064 307.69376 483.105 307.69376Q483.2925 307.69376 483.57376 307.6625ZM486.98 306.35L488.0894 306.25626Q488.2144 307.06876 488.6519 307.475Q489.105 307.88126 489.74564 307.88126Q490.49564 307.88126 491.0269 307.30313Q491.55814 306.725 491.55814 305.7875Q491.55814 304.88126 491.0425 304.36563Q490.5425 303.83438 489.7144 303.83438Q489.2144 303.83438 488.7925 304.06876Q488.38626 304.30313 488.1519 304.6625L487.1675 304.5375L487.99564 300.13126L492.2769 300.13126L492.2769 301.13126L488.8394 301.13126L488.38626 303.44376Q489.1519 302.89688 489.99564 302.89688Q491.12064 302.89688 491.88626 303.67813Q492.6675 304.45938 492.6675 305.69376Q492.6675 306.85 491.99564 307.70938Q491.1675 308.74063 489.74564 308.74063Q488.57376 308.74063 487.82376 308.08438Q487.0894 307.42813 486.98 306.35Z" fill-rule="nonzero"/><path fill="#4285f4" d="M258.0 23.4C258.0 26.713709 255.3137 29.4 252.0 29.4C248.6863 29.4 246.0 26.713709 246.0 23.4C246.0 20.086292 248.6863 17.4 252.0 17.4C255.3137 17.4 258.0 20.086292 258.0 23.4Z" fill-rule="nonzero"/><path fill="#1a1a1a" d="M273.0625 24.384375L274.1875 24.68125Q273.82812 26.071875 272.90625 26.80625Q271.98438 27.540625 270.64062 27.540625Q269.25 27.540625 268.375 26.978125Q267.5 26.415625 267.04688 25.353125Q266.59375 24.275 266.59375 23.040625Q266.59375 21.696875 267.10938 20.696875Q267.625 19.696875 268.5625 19.18125Q269.51562 18.665625 270.65625 18.665625Q271.9375 18.665625 272.8125 19.321875Q273.70312 19.978125 274.04688 21.165625L272.92188 21.43125Q272.625 20.49375 272.04688 20.071875Q271.48438 19.634375 270.625 19.634375Q269.64062 19.634375 268.96875 20.11875Q268.3125 20.5875 268.03125 21.384375Q267.76562 22.18125 267.76562 23.040625Q267.76562 24.134375 268.07812 24.946875Q268.40625 25.759375 269.07812 26.165625Q269.75 26.571875 270.54688 26.571875Q271.5 26.571875 272.15625 26.025Q272.82812 25.478125 273.0625 24.384375ZM275.92188 27.4L275.92188 18.80625L279.17188 18.80625Q280.01562 18.80625 280.46875 18.884375Q281.10938 18.99375 281.53125 19.290625Q281.96875 19.5875 282.21875 20.11875Q282.48438 20.65 282.48438 21.290625Q282.48438 22.384375 281.78125 23.15Q281.09375 23.9 279.26562 23.9L277.0625 23.9L277.0625 27.4L275.92188 27.4ZM277.0625 22.9L279.28125 22.9Q280.39062 22.9 280.84375 22.49375Q281.3125 22.071875 281.3125 21.321875Q281.3125 20.790625 281.03125 20.415625Q280.76562 20.025 280.32812 19.9Q280.03125 19.821875 279.26562 19.821875L277.0625 19.821875L277.0625 22.9ZM284.125 27.4L284.125 18.80625L285.25 18.80625L285.25 27.4L284.125 27.4Z" fill-rule="nonzero"/></svg>