<svg version="1.1" viewBox="0.0 0.0 532.0 328.0" fill="none" stroke="none" stroke-linecap="square" stroke-miterlimit="10" width="532" height="328" xmlns:xlink="http://www.w3.org/1999/xlink" xmlns="http://www.w3.org/2000/svg"><path fill="#ffffff" d="M0 0L532.0 0L532.0 328.0L0 328.0L0 0Z" fill-rule="nonzero"/><path stroke="#333333" stroke-width="1.0" stroke-linecap="butt" d="M84.5 285.5L515.5 285.5" fill-rule="nonzero"/><path stroke="#cccccc" stroke-width="1.0" stroke-linecap="butt" d="M84.5 255.5L515.5 255.5" fill-rule="nonzero"/><path stroke="#cccccc" stroke-width="1.0" stroke-linecap="butt" d="M84.5 226.5L515.5 226.5" fill-rule="nonzero"/><path stroke="#cccccc" stroke-width="1.0" stroke-linecap="butt" d="M84.5 196.5L515.5 196.5" fill-rule="nonzero"/><path stroke="#cccccc" stroke-width="1.0" stroke-linecap="butt" d="M84.5 166.5L515.5 166.5" fill-rule="nonzero"/><path stroke="#cccccc" stroke-width="1.0" stroke-linecap="butt" d="M84.5 137.5L515.5 137.5" fill-rule="nonzero"/><path stroke="#cccccc" stroke-width="1.0" stroke-linecap="butt" d="M84.5 107.5L515.5 107.5" fill-rule="nonzero"/><path stroke="#cccccc" stroke-width="1.0" stroke-linecap="butt" d="M84.5 77.5L515.5 77.5" fill-rule="nonzero"/><path stroke="#cccccc" stroke-width="1.0" stroke-linecap="butt" d="M84.5 48.5L515.5 48.5" fill-rule="nonzero"/><path stroke="#000000" stroke-width="1.0" stroke-linecap="butt" d="M515.5 285.5L84.5 285.5" fill-rule="nonzero"/><path stroke="#000000" stroke-width="1.0" stroke-linecap="butt" d="M84.5 285.5L84.5 48.5" fill-rule="nonzero"/><clipPath id="id_0"><path d="M84.4 48.333332L515.6 48.333332L515.6 285.6L84.4 285.6L84.4 48.333332Z" clip-rule="nonzero"/></clipPath><path stroke="#4285f4" stroke-width="2.0" stroke-linecap="butt" clip-path="url(#id_0)" d="M115.2 176.45972C115.2 176.45972 156.26666 174.39249 176.8 173.41849C197.33333 172.44449 217.86667 171.18134 238.4 170.61568C258.93332 170.05002 279.46667 170.21877 300.0 170.02452C320.53333 169.83026 341.06668 169.59854 361.6 169.45016C382.13333 169.30179 402.66666 169.37755 423.2 169.13426C443.73334 168.89098 484.8 167.99045 484.8 167.99045" fill-rule="nonzero"/><path stroke="#ea4335" stroke-width="2.0" stroke-linecap="butt" clip-path="url(#id_0)" d="M115.2 155.10333C115.2 155.10333 156.26666 155.10333 176.8 155.10333C197.33333 155.10333 217.86667 155.10333 238.4 155.10333C258.93332 155.10333 279.46667 155.10333 300.0 155.10333C320.53333 155.10333 341.06668 155.10333 361.6 155.10333C382.13333 155.10333 402.66666 155.10333 423.2 155.10333C443.73334 155.10333 484.8 155.10333 484.8 155.10333" fill-rule="nonzero"/><path stroke="#fbbc04" stroke-width="2.0" stroke-linecap="butt" stroke-opacity="0.7019608" clip-path="url(#id_0)" d="M115.2 178.83C115.2 178.83 156.26666 178.83 176.8 178.83C197.33333 178.83 217.86667 178.83 238.4 178.83C258.93332 178.83 279.46667 178.83 300.0 178.83C320.53333 178.83 341.06668 178.83 361.6 178.83C382.13333 178.83 402.66666 178.83 423.2 178.83C443.73334 178.83 484.8 178.83 484.8 178.83" fill-rule="nonzero"/><path fill="#4285f4" clip-path="url(#id_0)" d="M118.7 176.45972C118.7 178.39272 117.132996 179.95972 115.2 179.95972C113.267006 179.95972 111.7 178.39272 111.7 176.45972C111.7 174.52672 113.267006 172.95972 115.2 172.95972C117.132996 172.95972 118.7 174.52672 118.7 176.45972Z" fill-rule="nonzero"/><path fill="#4285f4" clip-path="url(#id_0)" d="M180.3 173.41849C180.3 175.35149 178.733 176.91849 176.8 176.91849C174.867 176.91849 173.3 175.35149 173.3 173.41849C173.3 171.48549 174.867 169.91849 176.8 169.91849C178.733 169.91849 180.3 171.48549 180.3 173.41849Z" fill-rule="nonzero"/><path fill="#4285f4" clip-path="url(#id_0)" d="M241.9 170.61568C241.9 172.54868 240.333 174.11568 238.4 174.11568C236.46701 174.11568 234.9 172.54868 234.9 170.61568C234.9 168.68268 236.46701 167.11568 238.4 167.11568C240.333 167.11568 241.9 168.68268 241.9 170.61568Z" fill-rule="nonzero"/><path fill="#4285f4" clip-path="url(#id_0)" d="M303.5 170.02452C303.5 171.95752 301.93298 173.52452 300.0 173.52452C298.06702 173.52452 296.5 171.95752 296.5 170.02452C296.5 168.09152 298.06702 166.52452 300.0 166.52452C301.93298 166.52452 303.5 168.09152 303.5 170.02452Z" fill-rule="nonzero"/><path fill="#4285f4" clip-path="url(#id_0)" d="M365.1 169.45016C365.1 171.38316 363.533 172.95016 361.6 172.95016C359.667 172.95016 358.1 171.38316 358.1 169.45016C358.1 167.51717 359.667 165.95016 361.6 165.95016C363.533 165.95016 365.1 167.51717 365.1 169.45016Z" fill-rule="nonzero"/><path fill="#4285f4" clip-path="url(#id_0)" d="M426.7 169.13426C426.7 171.06726 425.133 172.63426 423.2 172.63426C421.267 172.63426 419.7 171.06726 419.7 169.13426C419.7 167.20128 421.267 165.63426 423.2 165.63426C425.133 165.63426 426.7 167.20128 426.7 169.13426Z" fill-rule="nonzero"/><path fill="#4285f4" clip-path="url(#id_0)" d="M488.3 167.99045C488.3 169.92345 486.733 171.49045 484.8 171.49045C482.867 171.49045 481.3 169.92345 481.3 167.99045C481.3 166.05745 482.867 164.49045 484.8 164.49045C486.733 164.49045 488.3 166.05745 488.3 167.99045Z" fill-rule="nonzero"/><path fill="#ea4335" clip-path="url(#id_0)" d="M118.7 155.10333C118.7 157.03633 117.132996 158.60333 115.2 158.60333C113.267006 158.60333 111.7 157.03633 111.7 155.10333C111.7 153.17033 113.267006 151.60333 115.2 151.60333C117.132996 151.60333 118.7 153.17033 118.7 155.10333Z" fill-rule="nonzero"/><path fill="#ea4335" clip-path="url(#id_0)" d="M180.3 155.10333C180.3 157.03633 178.733 158.60333 176.8 158.60333C174.867 158.60333 173.3 157.03633 173.3 155.10333C173.3 153.17033 174.867 151.60333 176.8 151.60333C178.733 151.60333 180.3 153.17033 180.3 155.10333Z" fill-rule="nonzero"/><path fill="#ea4335" clip-path="url(#id_0)" d="M241.9 155.10333C241.9 157.03633 240.333 158.60333 238.4 158.60333C236.46701 158.60333 234.9 157.03633 234.9 155.10333C234.9 153.17033 236.46701 151.60333 238.4 151.60333C240.333 151.60333 241.9 153.17033 241.9 155.10333Z" fill-rule="nonzero"/><path fill="#ea4335" clip-path="url(#id_0)" d="M303.5 155.10333C303.5 157.03633 301.93298 158.60333 300.0 158.60333C298.06702 158.60333 296.5 157.03633 296.5 155.10333C296.5 153.17033 298.06702 151.60333 300.0 151.60333C301.93298 151.60333 303.5 153.17033 303.5 155.10333Z" fill-rule="nonzero"/><path fill="#ea4335" clip-path="url(#id_0)" d="M365.1 155.10333C365.1 157.03633 363.533 158.60333 361.6 158.60333C359.667 158.60333 358.1 157.03633 358.1 155.10333C358.1 153.17033 359.667 151.60333 361.6 151.60333C363.533 151.60333 365.1 153.17033 365.1 155.10333Z" fill-rule="nonzero"/><path fill="#ea4335" clip-path="url(#id_0)" d="M426.7 155.10333C426.7 157.03633 425.133 158.60333 423.2 158.60333C421.267 158.60333 419.7 157.03633 419.7 155.10333C419.7 153.17033 421.267 151.60333 423.2 151.60333C425.133 151.60333 426.7 153.17033 426.7 155.10333Z" fill-rule="nonzero"/><path fill="#ea4335" clip-path="url(#id_0)" d="M488.3 155.10333C488.3 157.03633 486.733 158.60333 484.8 158.60333C482.867 158.60333 481.3 157.03633 481.3 155.10333C481.3 153.17033 482.867 151.60333 484.8 151.60333C486.733 151.60333 488.3 153.17033 488.3 155.10333Z" fill-rule="nonzero"/><path fill="#fbbc04" fill-opacity="0.7019608" clip-path="url(#id_0)" d="M118.7 178.83C118.7 180.763 117.132996 182.33 115.2 182.33C113.267006 182.33 111.7 180.763 111.7 178.83C111.7 176.897 113.267006 175.33 115.2 175.33C117.132996 175.33 118.7 176.897 118.7 178.83Z" fill-rule="nonzero"/><path fill="#fbbc04" fill-opacity="0.7019608" clip-path="url(#id_0)" d="M180.3 178.83C180.3 180.763 178.733 182.33 176.8 182.33C174.867 182.33 173.3 180.763 173.3 178.83C173.3 176.897 174.867 175.33 176.8 175.33C178.733 175.33 180.3 176.897 180.3 178.83Z" fill-rule="nonzero"/><path fill="#fbbc04" fill-opacity="0.7019608" clip-path="url(#id_0)" d="M241.9 178.83C241.9 180.763 240.333 182.33 238.4 182.33C236.46701 182.33 234.9 180.763 234.9 178.83C234.9 176.897 236.46701 175.33 238.4 175.33C240.333 175.33 241.9 176.897 241.9 178.83Z" fill-rule="nonzero"/><path fill="#fbbc04" fill-opacity="0.7019608" clip-path="url(#id_0)" d="M303.5 178.83C303.5 180.763 301.93298 182.33 300.0 182.33C298.06702 182.33 296.5 180.763 296.5 178.83C296.5 176.897 298.06702 175.33 300.0 175.33C301.93298 175.33 303.5 176.897 303.5 178.83Z" fill-rule="nonzero"/><path fill="#fbbc04" fill-opacity="0.7019608" clip-path="url(#id_0)" d="M365.1 178.83C365.1 180.763 363.533 182.33 361.6 182.33C359.667 182.33 358.1 180.763 358.1 178.83C358.1 176.897 359.667 175.33 361.6 175.33C363.533 175.33 365.1 176.897 365.1 178.83Z" fill-rule="nonzero"/><path fill="#fbbc04" fill-opacity="0.7019608" clip-path="url(#id_0)" d="M426.7 178.83C426.7 180.763 425.133 182.33 423.2 182.33C421.267 182.33 419.7 180.763 419.7 178.83C419.7 176.897 421.267 175.33 423.2 175.33C425.133 175.33 426.7 176.897 426.7 178.83Z" fill-rule="nonzero"/><path fill="#fbbc04" fill-opacity="0.7019608" clip-path="url(#id_0)" d="M488.3 178.83C488.3 180.763 486.733 182.33 484.8 182.33C482.867 182.33 481.3 180.763 481.3 178.83C481.3 176.897 482.867 175.33 484.8 175.33C486.733 175.33 488.3 176.897 488.3 178.83Z" fill-rule="nonzero"/><path stroke="#000000" stroke-width="1.0" stroke-linecap="butt" d="M115.5 291.5L115.5 279.5" fill-rule="nonzero"/><path stroke="#000000" stroke-width="1.0" stroke-linecap="butt" d="M176.5 291.5L176.5 279.5" fill-rule="nonzero"/><path stroke="#000000" stroke-width="1.0" stroke-linecap="butt" d="M238.5 291.5L238.5 279.5" fill-rule="nonzero"/><path stroke="#000000" stroke-width="1.0" stroke-linecap="butt" d="M300.5 291.5L300.5 279.5" fill-rule="nonzero"/><path stroke="#000000" stroke-width="1.0" stroke-linecap="butt" d="M361.5 291.5L361.5 279.5" fill-rule="nonzero"/><path stroke="#000000" stroke-width="1.0" stroke-linecap="butt" d="M423.5 291.5L423.5 279.5" fill-rule="nonzero"/><path stroke="#000000" stroke-width="1.0" stroke-linecap="butt" d="M484.5 291.5L484.5 279.5" fill-rule="nonzero"/><path stroke="#000000" stroke-width="1.0" stroke-linecap="butt" d="M78.5 285.5L90.5 285.5" fill-rule="nonzero"/><path stroke="#000000" stroke-width="1.0" stroke-linecap="butt" d="M78.5 255.5L90.5 255.5" fill-rule="nonzero"/><path stroke="#000000" stroke-width="1.0" stroke-linecap="butt" d="M78.5 226.5L90.5 226.5" fill-rule="nonzero"/><path stroke="#000000" stroke-width="1.0" stroke-linecap="butt" d="M78.5 196.5L90.5 196.5" fill-rule="nonzero"/><path stroke="#000000" stroke-width="1.0" stroke-linecap="butt" d="M78.5 166.5L90.5 166.5" fill-rule="nonzero"/><path stroke="#000000" stroke-width="1.0" stroke-linecap="butt" d="M78.5 137.5L90.5 137.5" fill-rule="nonzero"/><path stroke="#000000" stroke-width="1.0" stroke-linecap="butt" d="M78.5 107.5L90.5 107.5" fill-rule="nonzero"/><path stroke="#000000" stroke-width="1.0" stroke-linecap="butt" d="M78.5 77.5L90.5 77.5" fill-rule="nonzero"/><path stroke="#000000" stroke-width="1.0" stroke-linecap="butt" d="M78.5 48.5L90.5 48.5" fill-rule="nonzero"/><path fill="#000000" d="M65.9 285.36563Q65.9 283.83438 66.2125 282.9125Q66.525 281.975 67.13438 281.475Q67.75938 280.975 68.69688 280.975Q69.38438 280.975 69.9 281.25626Q70.43125 281.5375 70.775 282.06876Q71.11875 282.58438 71.30625 283.33438Q71.49375 284.08438 71.49375 285.36563Q71.49375 286.88126 71.18125 287.80313Q70.88438 288.725 70.25938 289.24063Q69.65 289.74063 68.69688 289.74063Q67.4625 289.74063 66.74375 288.85Q65.9 287.7875 65.9 285.36563ZM66.97813 285.36563Q66.97813 287.475 67.47813 288.17813Q67.97813 288.88126 68.69688 288.88126Q69.43125 288.88126 69.91563 288.17813Q70.41563 287.475 70.41563 285.36563Q70.41563 283.24063 69.91563 282.55313Q69.43125 281.85 68.68125 281.85Q67.9625 281.85 67.525 282.45938Q66.97813 283.24063 66.97813 285.36563Z" fill-rule="nonzero"/><path fill="#000000" d="M48.9 255.7073Q48.9 254.17606 49.2125 253.25418Q49.525 252.31668 50.134377 251.81668Q50.759377 251.31668 51.696877 251.31668Q52.384377 251.31668 52.9 251.59793Q53.43125 251.87918 53.775 252.41043Q54.11875 252.92606 54.30625 253.67606Q54.49375 254.42606 54.49375 255.7073Q54.49375 257.22293 54.18125 258.1448Q53.884377 259.06668 53.259377 259.5823Q52.65 260.0823 51.696877 260.0823Q50.4625 260.0823 49.74375 259.19168Q48.9 258.12918 48.9 255.7073ZM49.978127 255.7073Q49.978127 257.81668 50.478127 258.5198Q50.978127 259.22293 51.696877 259.22293Q52.43125 259.22293 52.915627 258.5198Q53.415627 257.81668 53.415627 255.7073Q53.415627 253.5823 52.915627 252.8948Q52.43125 252.19168 51.68125 252.19168Q50.9625 252.19168 50.525 252.80106Q49.978127 253.5823 49.978127 255.7073ZM56.49375 259.94168L56.49375 258.73856L57.696877 258.73856L57.696877 259.94168L56.49375 259.94168ZM64.44688 258.92606L64.44688 259.94168L58.759377 259.94168Q58.759377 259.56668 58.884377 259.2073Q59.103127 258.62918 59.571877 258.06668Q60.05625 257.50418 60.9625 256.7698Q62.36875 255.61356 62.853127 254.94168Q63.353127 254.2698 63.353127 253.67606Q63.353127 253.05106 62.9 252.62918Q62.446877 252.19168 61.728127 252.19168Q60.9625 252.19168 60.509377 252.6448Q60.05625 253.09793 60.040627 253.91043L58.9625 253.80106Q59.071877 252.5823 59.790627 251.9573Q60.525 251.31668 61.759377 251.31668Q62.99375 251.31668 63.7125 252.00418Q64.43125 252.69168 64.43125 253.7073Q64.43125 254.22293 64.2125 254.72293Q64.00938 255.2073 63.509377 255.7698Q63.025 256.31668 61.9 257.2698Q60.946877 258.06668 60.665627 258.36356Q60.4 258.6448 60.228127 258.92606L64.44688 258.92606ZM65.9 257.69168L67.00938 257.59793Q67.13438 258.41043 67.57188 258.81668Q68.025 259.22293 68.66563 259.22293Q69.41563 259.22293 69.94688 258.6448Q70.47813 258.06668 70.47813 257.12918Q70.47813 256.22293 69.9625 255.7073Q69.4625 255.17606 68.63438 255.17606Q68.13438 255.17606 67.7125 255.41043Q67.30625 255.6448 67.07188 256.00418L66.0875 255.87918L66.91563 251.47293L71.19688 251.47293L71.19688 252.47293L67.75938 252.47293L67.30625 254.78543Q68.07188 254.23856 68.91563 254.23856Q70.04063 254.23856 70.80625 255.0198Q71.5875 255.80106 71.5875 257.03543Q71.5875 258.19168 70.91563 259.05106Q70.0875 260.0823 68.66563 260.0823Q67.49375 260.0823 66.74375 259.42606Q66.00938 258.7698 65.9 257.69168Z" fill-rule="nonzero"/><path fill="#000000" d="M55.9 226.04897Q55.9 224.51772 56.2125 223.59584Q56.525 222.65834 57.134377 222.15834Q57.759377 221.65834 58.696877 221.65834Q59.384377 221.65834 59.9 221.93959Q60.43125 222.22084 60.775 222.75209Q61.11875 223.26772 61.30625 224.01772Q61.49375 224.76772 61.49375 226.04897Q61.49375 227.56459 61.18125 228.48647Q60.884377 229.40834 60.259377 229.92397Q59.65 230.42397 58.696877 230.42397Q57.4625 230.42397 56.74375 229.53334Q55.9 228.47084 55.9 226.04897ZM56.978127 226.04897Q56.978127 228.15834 57.478127 228.86147Q57.978127 229.56459 58.696877 229.56459Q59.43125 229.56459 59.915627 228.86147Q60.415627 228.15834 60.415627 226.04897Q60.415627 223.92397 59.915627 223.23647Q59.43125 222.53334 58.68125 222.53334Q57.9625 222.53334 57.525 223.14272Q56.978127 223.92397 56.978127 226.04897ZM63.49375 230.28334L63.49375 229.08022L64.69688 229.08022L64.69688 230.28334L63.49375 230.28334ZM65.9 228.03334L67.00938 227.93959Q67.13438 228.75209 67.57188 229.15834Q68.025 229.56459 68.66563 229.56459Q69.41563 229.56459 69.94688 228.98647Q70.47813 228.40834 70.47813 227.47084Q70.47813 226.56459 69.9625 226.04897Q69.4625 225.51772 68.63438 225.51772Q68.13438 225.51772 67.7125 225.75209Q67.30625 225.98647 67.07188 226.34584L66.0875 226.22084L66.91563 221.81459L71.19688 221.81459L71.19688 222.81459L67.75938 222.81459L67.30625 225.12709Q68.07188 224.58022 68.91563 224.58022Q70.04063 224.58022 70.80625 225.36147Q71.5875 226.14272 71.5875 227.37709Q71.5875 228.53334 70.91563 229.39272Q70.0875 230.42397 68.66563 230.42397Q67.49375 230.42397 66.74375 229.76772Q66.00938 229.11147 65.9 228.03334Z" fill-rule="nonzero"/><path fill="#000000" d="M48.9 196.39062Q48.9 194.85938 49.2125 193.9375Q49.525 193.0 50.134377 192.5Q50.759377 192.0 51.696877 192.0Q52.384377 192.0 52.9 192.28125Q53.43125 192.5625 53.775 193.09375Q54.11875 193.60938 54.30625 194.35938Q54.49375 195.10938 54.49375 196.39062Q54.49375 197.90625 54.18125 198.82812Q53.884377 199.75 53.259377 200.26562Q52.65 200.76562 51.696877 200.76562Q50.4625 200.76562 49.74375 199.875Q48.9 198.8125 48.9 196.39062ZM49.978127 196.39062Q49.978127 198.5 50.478127 199.20312Q50.978127 199.90625 51.696877 199.90625Q52.43125 199.90625 52.915627 199.20312Q53.415627 198.5 53.415627 196.39062Q53.415627 194.26562 52.915627 193.57812Q52.43125 192.875 51.68125 192.875Q50.9625 192.875 50.525 193.48438Q49.978127 194.26562 49.978127 196.39062ZM56.49375 200.625L56.49375 199.42188L57.696877 199.42188L57.696877 200.625L56.49375 200.625ZM58.9625 193.15625L58.9625 192.14062L64.525 192.14062L64.525 192.96875Q63.7125 193.84375 62.9 195.29688Q62.103127 196.73438 61.665627 198.26562Q61.3375 199.34375 61.259377 200.625L60.165627 200.625Q60.18125 199.60938 60.55625 198.17188Q60.946877 196.73438 61.65 195.40625Q62.36875 194.07812 63.18125 193.15625L58.9625 193.15625ZM65.9 198.375L67.00938 198.28125Q67.13438 199.09375 67.57188 199.5Q68.025 199.90625 68.66563 199.90625Q69.41563 199.90625 69.94688 199.32812Q70.47813 198.75 70.47813 197.8125Q70.47813 196.90625 69.9625 196.39062Q69.4625 195.85938 68.63438 195.85938Q68.13438 195.85938 67.7125 196.09375Q67.30625 196.32812 67.07188 196.6875L66.0875 196.5625L66.91563 192.15625L71.19688 192.15625L71.19688 193.15625L67.75938 193.15625L67.30625 195.46875Q68.07188 194.92188 68.91563 194.92188Q70.04063 194.92188 70.80625 195.70312Q71.5875 196.48438 71.5875 197.71875Q71.5875 198.875 70.91563 199.73438Q70.0875 200.76562 68.66563 200.76562Q67.49375 200.76562 66.74375 200.10938Q66.00938 199.45312 65.9 198.375Z" fill-rule="nonzero"/><path fill="#000000" d="M69.86875 170.96666L68.82188 170.96666L68.82188 164.24791Q68.43125 164.60728 67.80625 164.98228Q67.19688 165.34166 66.7125 165.51353L66.7125 164.49791Q67.5875 164.07603 68.24375 163.49791Q68.91563 162.90416 69.19688 162.34166L69.86875 162.34166L69.86875 170.96666Z" fill-rule="nonzero"/><path fill="#000000" d="M52.86875 141.30833L51.821877 141.30833L51.821877 134.58958Q51.43125 134.94896 50.80625 135.32396Q50.196877 135.68333 49.7125 135.85521L49.7125 134.83958Q50.5875 134.41771 51.24375 133.83958Q51.915627 133.24583 52.196877 132.68333L52.86875 132.68333L52.86875 141.30833ZM56.49375 141.30833L56.49375 140.10521L57.696877 140.10521L57.696877 141.30833L56.49375 141.30833ZM64.44688 140.29271L64.44688 141.30833L58.759377 141.30833Q58.759377 140.93333 58.884377 140.57396Q59.103127 139.99583 59.571877 139.43333Q60.05625 138.87083 60.9625 138.13646Q62.36875 136.98021 62.853127 136.30833Q63.353127 135.63646 63.353127 135.04271Q63.353127 134.41771 62.9 133.99583Q62.446877 133.55833 61.728127 133.55833Q60.9625 133.55833 60.509377 134.01146Q60.05625 134.46458 60.040627 135.27708L58.9625 135.16771Q59.071877 133.94896 59.790627 133.32396Q60.525 132.68333 61.759377 132.68333Q62.99375 132.68333 63.7125 133.37083Q64.43125 134.05833 64.43125 135.07396Q64.43125 135.58958 64.2125 136.08958Q64.00938 136.57396 63.509377 137.13646Q63.025 137.68333 61.9 138.63646Q60.946877 139.43333 60.665627 139.73021Q60.4 140.01146 60.228127 140.29271L64.44688 140.29271ZM65.9 139.05833L67.00938 138.96458Q67.13438 139.77708 67.57188 140.18333Q68.025 140.58958 68.66563 140.58958Q69.41563 140.58958 69.94688 140.01146Q70.47813 139.43333 70.47813 138.49583Q70.47813 137.58958 69.9625 137.07396Q69.4625 136.54271 68.63438 136.54271Q68.13438 136.54271 67.7125 136.77708Q67.30625 137.01146 67.07188 137.37083L66.0875 137.24583L66.91563 132.83958L71.19688 132.83958L71.19688 133.83958L67.75938 133.83958L67.30625 136.15208Q68.07188 135.60521 68.91563 135.60521Q70.04063 135.60521 70.80625 136.38646Q71.5875 137.16771 71.5875 138.40208Q71.5875 139.55833 70.91563 140.41771Q70.0875 141.44896 68.66563 141.44896Q67.49375 141.44896 66.74375 140.79271Q66.00938 140.13646 65.9 139.05833Z" fill-rule="nonzero"/><path fill="#000000" d="M59.86875 111.65L58.821877 111.65L58.821877 104.93125Q58.43125 105.29063 57.80625 105.66563Q57.196877 106.025 56.7125 106.19688L56.7125 105.18125Q57.5875 104.75938 58.24375 104.18125Q58.915627 103.5875 59.196877 103.025L59.86875 103.025L59.86875 111.65ZM63.49375 111.65L63.49375 110.44688L64.69688 110.44688L64.69688 111.65L63.49375 111.65ZM65.9 109.4L67.00938 109.30625Q67.13438 110.11875 67.57188 110.525Q68.025 110.93125 68.66563 110.93125Q69.41563 110.93125 69.94688 110.35313Q70.47813 109.775 70.47813 108.8375Q70.47813 107.93125 69.9625 107.41563Q69.4625 106.88438 68.63438 106.88438Q68.13438 106.88438 67.7125 107.11875Q67.30625 107.35313 67.07188 107.7125L66.0875 107.5875L66.91563 103.18125L71.19688 103.18125L71.19688 104.18125L67.75938 104.18125L67.30625 106.49375Q68.07188 105.94688 68.91563 105.94688Q70.04063 105.94688 70.80625 106.72813Q71.5875 107.50938 71.5875 108.74375Q71.5875 109.9 70.91563 110.75938Q70.0875 111.79063 68.66563 111.79063Q67.49375 111.79063 66.74375 111.13438Q66.00938 110.47813 65.9 109.4Z" fill-rule="nonzero"/><path fill="#000000" d="M52.86875 81.99167L51.821877 81.99167L51.821877 75.27292Q51.43125 75.63229 50.80625 76.00729Q50.196877 76.36667 49.7125 76.53854L49.7125 75.52292Q50.5875 75.10104 51.24375 74.52292Q51.915627 73.92917 52.196877 73.36667L52.86875 73.36667L52.86875 81.99167ZM56.49375 81.99167L56.49375 80.78854L57.696877 80.78854L57.696877 81.99167L56.49375 81.99167ZM58.9625 74.52292L58.9625 73.50729L64.525 73.50729L64.525 74.33542Q63.7125 75.21042 62.9 76.66354Q62.103127 78.10104 61.665627 79.63229Q61.3375 80.71042 61.259377 81.99167L60.165627 81.99167Q60.18125 80.97604 60.55625 79.53854Q60.946877 78.10104 61.65 76.77292Q62.36875 75.44479 63.18125 74.52292L58.9625 74.52292ZM65.9 79.74167L67.00938 79.64792Q67.13438 80.46042 67.57188 80.86667Q68.025 81.27292 68.66563 81.27292Q69.41563 81.27292 69.94688 80.69479Q70.47813 80.11667 70.47813 79.17917Q70.47813 78.27292 69.9625 77.75729Q69.4625 77.22604 68.63438 77.22604Q68.13438 77.22604 67.7125 77.46042Q67.30625 77.69479 67.07188 78.05417L66.0875 77.92917L66.91563 73.52292L71.19688 73.52292L71.19688 74.52292L67.75938 74.52292L67.30625 76.83542Q68.07188 76.28854 68.91563 76.28854Q70.04063 76.28854 70.80625 77.06979Q71.5875 77.85104 71.5875 79.08542Q71.5875 80.24167 70.91563 81.10104Q70.0875 82.13229 68.66563 82.13229Q67.49375 82.13229 66.74375 81.47604Q66.00938 80.81979 65.9 79.74167Z" fill-rule="nonzero"/><path fill="#000000" d="M71.44688 51.317707L71.44688 52.333332L65.75938 52.333332Q65.75938 51.958332 65.88438 51.598957Q66.10313 51.020832 66.57188 50.458332Q67.05625 49.895832 67.9625 49.161457Q69.36875 48.005207 69.85313 47.333332Q70.35313 46.661457 70.35313 46.067707Q70.35313 45.442707 69.9 45.020832Q69.44688 44.583332 68.72813 44.583332Q67.9625 44.583332 67.50938 45.036457Q67.05625 45.489582 67.04063 46.302082L65.9625 46.192707Q66.07188 44.973957 66.79063 44.348957Q67.525 43.708332 68.75938 43.708332Q69.99375 43.708332 70.7125 44.395832Q71.43125 45.083332 71.43125 46.098957Q71.43125 46.614582 71.2125 47.114582Q71.00938 47.598957 70.50938 48.161457Q70.025 48.708332 68.9 49.661457Q67.94688 50.458332 67.66563 50.755207Q67.4 51.036457 67.22813 51.317707L71.44688 51.317707Z" fill-rule="nonzero"/><path fill="#000000" d="M94.74687 305.83438L95.80937 305.74063Q95.8875 306.39688 96.16875 306.80313Q96.45 307.20938 97.02812 307.475Q97.62187 307.725 98.35625 307.725Q98.99687 307.725 99.49687 307.5375Q99.99687 307.33438 100.23125 307.00626Q100.48125 306.6625 100.48125 306.27188Q100.48125 305.86563 100.24687 305.56876Q100.0125 305.25626 99.48125 305.05313Q99.12187 304.9125 97.93437 304.63126Q96.7625 304.35 96.29375 304.1Q95.66875 303.77188 95.37187 303.30313Q95.075 302.81876 95.075 302.225Q95.075 301.58438 95.43437 301.02188Q95.80937 300.44376 96.5125 300.1625Q97.23125 299.86563 98.09062 299.86563Q99.04375 299.86563 99.77812 300.17813Q100.5125 300.475 100.90312 301.08438Q101.29375 301.67813 101.325 302.42813L100.23125 302.50626Q100.1375 301.69376 99.62187 301.2875Q99.12187 300.86563 98.1375 300.86563Q97.10625 300.86563 96.6375 301.24063Q96.16875 301.61563 96.16875 302.14688Q96.16875 302.61563 96.49687 302.9125Q96.825 303.20938 98.2 303.52188Q99.59062 303.83438 100.10625 304.06876Q100.85625 304.42813 101.21562 304.95938Q101.575 305.475 101.575 306.17813Q101.575 306.86563 101.18437 307.475Q100.79375 308.06876 100.05937 308.4125Q99.325 308.74063 98.40312 308.74063Q97.23125 308.74063 96.43437 308.4125Q95.65312 308.06876 95.2 307.38126Q94.7625 306.69376 94.74687 305.83438ZM102.99687 310.99063L102.99687 302.38126L103.95 302.38126L103.95 303.17813Q104.29375 302.70938 104.71562 302.475Q105.15312 302.24063 105.7625 302.24063Q106.55937 302.24063 107.16875 302.64688Q107.77812 303.05313 108.075 303.80313Q108.3875 304.55313 108.3875 305.44376Q108.3875 306.39688 108.04375 307.1625Q107.71562 307.92813 107.05937 308.33438Q106.40312 308.74063 105.68437 308.74063Q105.15312 308.74063 104.73125 308.52188Q104.30937 308.2875 104.04375 307.95938L104.04375 310.99063L102.99687 310.99063ZM103.95 305.52188Q103.95 306.725 104.43437 307.30313Q104.91875 307.86563 105.60625 307.86563Q106.30937 307.86563 106.80937 307.27188Q107.30937 306.67813 107.30937 305.42813Q107.30937 304.24063 106.825 303.6625Q106.34062 303.06876 105.65312 303.06876Q104.98125 303.06876 104.46562 303.69376Q103.95 304.31876 103.95 305.52188ZM109.98125 308.6L109.98125 302.38126L110.93437 302.38126L110.93437 303.31876Q111.29375 302.6625 111.59062 302.45938Q111.90312 302.24063 112.27812 302.24063Q112.80937 302.24063 113.35625 302.56876L112.99687 303.55313Q112.60625 303.31876 112.23125 303.31876Q111.87187 303.31876 111.59062 303.5375Q111.325 303.74063 111.21562 304.11563Q111.02812 304.67813 111.02812 305.33438L111.02812 308.6L109.98125 308.6ZM113.99687 301.225L113.99687 300.00626L115.05937 300.00626L115.05937 301.225L113.99687 301.225ZM113.99687 308.6L113.99687 302.38126L115.05937 302.38126L115.05937 308.6L113.99687 308.6ZM116.99687 308.6L116.99687 302.38126L117.93437 302.38126L117.93437 303.25626Q118.62187 302.24063 119.91875 302.24063Q120.48125 302.24063 120.95 302.44376Q121.43437 302.64688 121.66875 302.975Q121.90312 303.30313 121.99687 303.74063Q122.04375 304.0375 122.04375 304.77188L122.04375 308.6L120.99687 308.6L120.99687 304.81876Q120.99687 304.1625 120.87187 303.85Q120.74687 303.5375 120.43437 303.35Q120.12187 303.14688 119.7 303.14688Q119.02812 303.14688 118.52812 303.58438Q118.04375 304.00626 118.04375 305.19376L118.04375 308.6L116.99687 308.6ZM126.29375 307.6625L126.45 308.58438Q125.99687 308.67813 125.65312 308.67813Q125.075 308.67813 124.7625 308.50626Q124.45 308.31876 124.30937 308.02188Q124.18437 307.725 124.18437 306.77188L124.18437 303.19376L123.41875 303.19376L123.41875 302.38126L124.18437 302.38126L124.18437 300.83438L125.23125 300.20938L125.23125 302.38126L126.29375 302.38126L126.29375 303.19376L125.23125 303.19376L125.23125 306.83438Q125.23125 307.2875 125.27812 307.4125Q125.34062 307.5375 125.46562 307.61563Q125.59062 307.69376 125.825 307.69376Q126.0125 307.69376 126.29375 307.6625ZM133.66875 308.6L132.62187 308.6L132.62187 301.88126Q132.23125 302.24063 131.60625 302.61563Q130.99687 302.975 130.5125 303.14688L130.5125 302.13126Q131.3875 301.70938 132.04375 301.13126Q132.71562 300.5375 132.99687 299.975L133.66875 299.975L133.66875 308.6Z" fill-rule="nonzero"/><path fill="#000000" d="M156.34688 305.83438L157.40938 305.74063Q157.4875 306.39688 157.76875 306.80313Q158.05 307.20938 158.62813 307.475Q159.22188 307.725 159.95625 307.725Q160.59688 307.725 161.09688 307.5375Q161.59688 307.33438 161.83125 307.00626Q162.08125 306.6625 162.08125 306.27188Q162.08125 305.86563 161.84688 305.56876Q161.6125 305.25626 161.08125 305.05313Q160.72188 304.9125 159.53438 304.63126Q158.3625 304.35 157.89375 304.1Q157.26875 303.77188 156.97188 303.30313Q156.675 302.81876 156.675 302.225Q156.675 301.58438 157.03438 301.02188Q157.40938 300.44376 158.1125 300.1625Q158.83125 299.86563 159.69063 299.86563Q160.64375 299.86563 161.37813 300.17813Q162.1125 300.475 162.50313 301.08438Q162.89375 301.67813 162.925 302.42813L161.83125 302.50626Q161.7375 301.69376 161.22188 301.2875Q160.72188 300.86563 159.7375 300.86563Q158.70625 300.86563 158.2375 301.24063Q157.76875 301.61563 157.76875 302.14688Q157.76875 302.61563 158.09688 302.9125Q158.425 303.20938 159.8 303.52188Q161.19063 303.83438 161.70625 304.06876Q162.45625 304.42813 162.81563 304.95938Q163.175 305.475 163.175 306.17813Q163.175 306.86563 162.78438 307.475Q162.39375 308.06876 161.65938 308.4125Q160.925 308.74063 160.00313 308.74063Q158.83125 308.74063 158.03438 308.4125Q157.25313 308.06876 156.8 307.38126Q156.3625 306.69376 156.34688 305.83438ZM164.59688 310.99063L164.59688 302.38126L165.55 302.38126L165.55 303.17813Q165.89375 302.70938 166.31563 302.475Q166.75313 302.24063 167.3625 302.24063Q168.15938 302.24063 168.76875 302.64688Q169.37813 303.05313 169.675 303.80313Q169.9875 304.55313 169.9875 305.44376Q169.9875 306.39688 169.64375 307.1625Q169.31563 307.92813 168.65938 308.33438Q168.00313 308.74063 167.28438 308.74063Q166.75313 308.74063 166.33125 308.52188Q165.90938 308.2875 165.64375 307.95938L165.64375 310.99063L164.59688 310.99063ZM165.55 305.52188Q165.55 306.725 166.03438 307.30313Q166.51875 307.86563 167.20625 307.86563Q167.90938 307.86563 168.40938 307.27188Q168.90938 306.67813 168.90938 305.42813Q168.90938 304.24063 168.425 303.6625Q167.94063 303.06876 167.25313 303.06876Q166.58125 303.06876 166.06563 303.69376Q165.55 304.31876 165.55 305.52188ZM171.58125 308.6L171.58125 302.38126L172.53438 302.38126L172.53438 303.31876Q172.89375 302.6625 173.19063 302.45938Q173.50313 302.24063 173.87813 302.24063Q174.40938 302.24063 174.95625 302.56876L174.59688 303.55313Q174.20625 303.31876 173.83125 303.31876Q173.47188 303.31876 173.19063 303.5375Q172.925 303.74063 172.81563 304.11563Q172.62813 304.67813 172.62813 305.33438L172.62813 308.6L171.58125 308.6ZM175.59688 301.225L175.59688 300.00626L176.65938 300.00626L176.65938 301.225L175.59688 301.225ZM175.59688 308.6L175.59688 302.38126L176.65938 302.38126L176.65938 308.6L175.59688 308.6ZM178.59688 308.6L178.59688 302.38126L179.53438 302.38126L179.53438 303.25626Q180.22188 302.24063 181.51875 302.24063Q182.08125 302.24063 182.55 302.44376Q183.03438 302.64688 183.26875 302.975Q183.50313 303.30313 183.59688 303.74063Q183.64375 304.0375 183.64375 304.77188L183.64375 308.6L182.59688 308.6L182.59688 304.81876Q182.59688 304.1625 182.47188 303.85Q182.34688 303.5375 182.03438 303.35Q181.72188 303.14688 181.3 303.14688Q180.62813 303.14688 180.12813 303.58438Q179.64375 304.00626 179.64375 305.19376L179.64375 308.6L178.59688 308.6ZM187.89375 307.6625L188.05 308.58438Q187.59688 308.67813 187.25313 308.67813Q186.675 308.67813 186.3625 308.50626Q186.05 308.31876 185.90938 308.02188Q185.78438 307.725 185.78438 306.77188L185.78438 303.19376L185.01875 303.19376L185.01875 302.38126L185.78438 302.38126L185.78438 300.83438L186.83125 300.20938L186.83125 302.38126L187.89375 302.38126L187.89375 303.19376L186.83125 303.19376L186.83125 306.83438Q186.83125 307.2875 186.87813 307.4125Q186.94063 307.5375 187.06563 307.61563Q187.19063 307.69376 187.425 307.69376Q187.6125 307.69376 187.89375 307.6625ZM196.84688 307.58438L196.84688 308.6L191.15938 308.6Q191.15938 308.225 191.28438 307.86563Q191.50313 307.2875 191.97188 306.725Q192.45625 306.1625 193.3625 305.42813Q194.76875 304.27188 195.25313 303.6Q195.75313 302.92813 195.75313 302.33438Q195.75313 301.70938 195.3 301.2875Q194.84688 300.85 194.12813 300.85Q193.3625 300.85 192.90938 301.30313Q192.45625 301.75626 192.44063 302.56876L191.3625 302.45938Q191.47188 301.24063 192.19063 300.61563Q192.925 299.975 194.15938 299.975Q195.39375 299.975 196.1125 300.6625Q196.83125 301.35 196.83125 302.36563Q196.83125 302.88126 196.6125 303.38126Q196.40938 303.86563 195.90938 304.42813Q195.425 304.975 194.3 305.92813Q193.34688 306.725 193.06563 307.02188Q192.8 307.30313 192.62813 307.58438L196.84688 307.58438Z" fill-rule="nonzero"/><path fill="#000000" d="M217.94687 305.83438L219.00937 305.74063Q219.0875 306.39688 219.36874 306.80313Q219.65 307.20938 220.22812 307.475Q220.82187 307.725 221.55624 307.725Q222.19687 307.725 222.69687 307.5375Q223.19687 307.33438 223.43124 307.00626Q223.68124 306.6625 223.68124 306.27188Q223.68124 305.86563 223.44687 305.56876Q223.2125 305.25626 222.68124 305.05313Q222.32187 304.9125 221.13437 304.63126Q219.9625 304.35 219.49374 304.1Q218.86874 303.77188 218.57187 303.30313Q218.275 302.81876 218.275 302.225Q218.275 301.58438 218.63437 301.02188Q219.00937 300.44376 219.7125 300.1625Q220.43124 299.86563 221.29062 299.86563Q222.24374 299.86563 222.97812 300.17813Q223.7125 300.475 224.10312 301.08438Q224.49374 301.67813 224.525 302.42813L223.43124 302.50626Q223.3375 301.69376 222.82187 301.2875Q222.32187 300.86563 221.3375 300.86563Q220.30624 300.86563 219.8375 301.24063Q219.36874 301.61563 219.36874 302.14688Q219.36874 302.61563 219.69687 302.9125Q220.025 303.20938 221.4 303.52188Q222.79062 303.83438 223.30624 304.06876Q224.05624 304.42813 224.41562 304.95938Q224.775 305.475 224.775 306.17813Q224.775 306.86563 224.38437 307.475Q223.99374 308.06876 223.25937 308.4125Q222.525 308.74063 221.60312 308.74063Q220.43124 308.74063 219.63437 308.4125Q218.85312 308.06876 218.4 307.38126Q217.9625 306.69376 217.94687 305.83438ZM226.19687 310.99063L226.19687 302.38126L227.15 302.38126L227.15 303.17813Q227.49374 302.70938 227.91562 302.475Q228.35312 302.24063 228.9625 302.24063Q229.75937 302.24063 230.36874 302.64688Q230.97812 303.05313 231.275 303.80313Q231.5875 304.55313 231.5875 305.44376Q231.5875 306.39688 231.24374 307.1625Q230.91562 307.92813 230.25937 308.33438Q229.60312 308.74063 228.88437 308.74063Q228.35312 308.74063 227.93124 308.52188Q227.50937 308.2875 227.24374 307.95938L227.24374 310.99063L226.19687 310.99063ZM227.15 305.52188Q227.15 306.725 227.63437 307.30313Q228.11874 307.86563 228.80624 307.86563Q229.50937 307.86563 230.00937 307.27188Q230.50937 306.67813 230.50937 305.42813Q230.50937 304.24063 230.025 303.6625Q229.54062 303.06876 228.85312 303.06876Q228.18124 303.06876 227.66562 303.69376Q227.15 304.31876 227.15 305.52188ZM233.18124 308.6L233.18124 302.38126L234.13437 302.38126L234.13437 303.31876Q234.49374 302.6625 234.79062 302.45938Q235.10312 302.24063 235.47812 302.24063Q236.00937 302.24063 236.55624 302.56876L236.19687 303.55313Q235.80624 303.31876 235.43124 303.31876Q235.07187 303.31876 234.79062 303.5375Q234.525 303.74063 234.41562 304.11563Q234.22812 304.67813 234.22812 305.33438L234.22812 308.6L233.18124 308.6ZM237.19687 301.225L237.19687 300.00626L238.25937 300.00626L238.25937 301.225L237.19687 301.225ZM237.19687 308.6L237.19687 302.38126L238.25937 302.38126L238.25937 308.6L237.19687 308.6ZM240.19687 308.6L240.19687 302.38126L241.13437 302.38126L241.13437 303.25626Q241.82187 302.24063 243.11874 302.24063Q243.68124 302.24063 244.15 302.44376Q244.63437 302.64688 244.86874 302.975Q245.10312 303.30313 245.19687 303.74063Q245.24374 304.0375 245.24374 304.77188L245.24374 308.6L244.19687 308.6L244.19687 304.81876Q244.19687 304.1625 244.07187 303.85Q243.94687 303.5375 243.63437 303.35Q243.32187 303.14688 242.9 303.14688Q242.22812 303.14688 241.72812 303.58438Q241.24374 304.00626 241.24374 305.19376L241.24374 308.6L240.19687 308.6ZM249.49374 307.6625L249.65 308.58438Q249.19687 308.67813 248.85312 308.67813Q248.275 308.67813 247.9625 308.50626Q247.65 308.31876 247.50937 308.02188Q247.38437 307.725 247.38437 306.77188L247.38437 303.19376L246.61874 303.19376L246.61874 302.38126L247.38437 302.38126L247.38437 300.83438L248.43124 300.20938L248.43124 302.38126L249.49374 302.38126L249.49374 303.19376L248.43124 303.19376L248.43124 306.83438Q248.43124 307.2875 248.47812 307.4125Q248.54062 307.5375 248.66562 307.61563Q248.79062 307.69376 249.025 307.69376Q249.2125 307.69376 249.49374 307.6625ZM252.9 306.33438L253.9625 306.19376Q254.13437 307.08438 254.57187 307.49063Q255.00937 307.88126 255.63437 307.88126Q256.38437 307.88126 256.9 307.36563Q257.41562 306.85 257.41562 306.08438Q257.41562 305.36563 256.93124 304.89688Q256.4625 304.4125 255.72812 304.4125Q255.43124 304.4125 254.97812 304.5375L255.10312 303.6Q255.2125 303.61563 255.275 303.61563Q255.94687 303.61563 256.47812 303.27188Q257.025 302.9125 257.025 302.17813Q257.025 301.6 256.63437 301.225Q256.24374 300.83438 255.61874 300.83438Q255.00937 300.83438 254.5875 301.225Q254.18124 301.61563 254.07187 302.38126L253.00937 302.19376Q253.19687 301.14688 253.88437 300.56876Q254.57187 299.975 255.5875 299.975Q256.29062 299.975 256.88437 300.2875Q257.47812 300.58438 257.79062 301.1Q258.10312 301.61563 258.10312 302.20938Q258.10312 302.75626 257.80624 303.225Q257.50937 303.67813 256.93124 303.94376Q257.68124 304.11563 258.10312 304.67813Q258.525 305.225 258.525 306.06876Q258.525 307.19376 257.69687 307.975Q256.88437 308.75626 255.63437 308.75626Q254.50937 308.75626 253.75937 308.08438Q253.00937 307.39688 252.9 306.33438Z" fill-rule="nonzero"/><path fill="#000000" d="M279.54688 305.83438L280.60938 305.74063Q280.6875 306.39688 280.96875 306.80313Q281.25 307.20938 281.82812 307.475Q282.42188 307.725 283.15625 307.725Q283.79688 307.725 284.29688 307.5375Q284.79688 307.33438 285.03125 307.00626Q285.28125 306.6625 285.28125 306.27188Q285.28125 305.86563 285.04688 305.56876Q284.8125 305.25626 284.28125 305.05313Q283.92188 304.9125 282.73438 304.63126Q281.5625 304.35 281.09375 304.1Q280.46875 303.77188 280.17188 303.30313Q279.875 302.81876 279.875 302.225Q279.875 301.58438 280.23438 301.02188Q280.60938 300.44376 281.3125 300.1625Q282.03125 299.86563 282.89062 299.86563Q283.84375 299.86563 284.57812 300.17813Q285.3125 300.475 285.70312 301.08438Q286.09375 301.67813 286.125 302.42813L285.03125 302.50626Q284.9375 301.69376 284.42188 301.2875Q283.92188 300.86563 282.9375 300.86563Q281.90625 300.86563 281.4375 301.24063Q280.96875 301.61563 280.96875 302.14688Q280.96875 302.61563 281.29688 302.9125Q281.625 303.20938 283.0 303.52188Q284.39062 303.83438 284.90625 304.06876Q285.65625 304.42813 286.01562 304.95938Q286.375 305.475 286.375 306.17813Q286.375 306.86563 285.98438 307.475Q285.59375 308.06876 284.85938 308.4125Q284.125 308.74063 283.20312 308.74063Q282.03125 308.74063 281.23438 308.4125Q280.45312 308.06876 280.0 307.38126Q279.5625 306.69376 279.54688 305.83438ZM287.79688 310.99063L287.79688 302.38126L288.75 302.38126L288.75 303.17813Q289.09375 302.70938 289.51562 302.475Q289.95312 302.24063 290.5625 302.24063Q291.35938 302.24063 291.96875 302.64688Q292.57812 303.05313 292.875 303.80313Q293.1875 304.55313 293.1875 305.44376Q293.1875 306.39688 292.84375 307.1625Q292.51562 307.92813 291.85938 308.33438Q291.20312 308.74063 290.48438 308.74063Q289.95312 308.74063 289.53125 308.52188Q289.10938 308.2875 288.84375 307.95938L288.84375 310.99063L287.79688 310.99063ZM288.75 305.52188Q288.75 306.725 289.23438 307.30313Q289.71875 307.86563 290.40625 307.86563Q291.10938 307.86563 291.60938 307.27188Q292.10938 306.67813 292.10938 305.42813Q292.10938 304.24063 291.625 303.6625Q291.14062 303.06876 290.45312 303.06876Q289.78125 303.06876 289.26562 303.69376Q288.75 304.31876 288.75 305.52188ZM294.78125 308.6L294.78125 302.38126L295.73438 302.38126L295.73438 303.31876Q296.09375 302.6625 296.39062 302.45938Q296.70312 302.24063 297.07812 302.24063Q297.60938 302.24063 298.15625 302.56876L297.79688 303.55313Q297.40625 303.31876 297.03125 303.31876Q296.67188 303.31876 296.39062 303.5375Q296.125 303.74063 296.01562 304.11563Q295.82812 304.67813 295.82812 305.33438L295.82812 308.6L294.78125 308.6ZM298.79688 301.225L298.79688 300.00626L299.85938 300.00626L299.85938 301.225L298.79688 301.225ZM298.79688 308.6L298.79688 302.38126L299.85938 302.38126L299.85938 308.6L298.79688 308.6ZM301.79688 308.6L301.79688 302.38126L302.73438 302.38126L302.73438 303.25626Q303.42188 302.24063 304.71875 302.24063Q305.28125 302.24063 305.75 302.44376Q306.23438 302.64688 306.46875 302.975Q306.70312 303.30313 306.79688 303.74063Q306.84375 304.0375 306.84375 304.77188L306.84375 308.6L305.79688 308.6L305.79688 304.81876Q305.79688 304.1625 305.67188 303.85Q305.54688 303.5375 305.23438 303.35Q304.92188 303.14688 304.5 303.14688Q303.82812 303.14688 303.32812 303.58438Q302.84375 304.00626 302.84375 305.19376L302.84375 308.6L301.79688 308.6ZM311.09375 307.6625L311.25 308.58438Q310.79688 308.67813 310.45312 308.67813Q309.875 308.67813 309.5625 308.50626Q309.25 308.31876 309.10938 308.02188Q308.98438 307.725 308.98438 306.77188L308.98438 303.19376L308.21875 303.19376L308.21875 302.38126L308.98438 302.38126L308.98438 300.83438L310.03125 300.20938L310.03125 302.38126L311.09375 302.38126L311.09375 303.19376L310.03125 303.19376L310.03125 306.83438Q310.03125 307.2875 310.07812 307.4125Q310.14062 307.5375 310.26562 307.61563Q310.39062 307.69376 310.625 307.69376Q310.8125 307.69376 311.09375 307.6625ZM317.875 308.6L317.875 306.5375L314.15625 306.5375L314.15625 305.56876L318.07812 300.00626L318.9375 300.00626L318.9375 305.56876L320.09375 305.56876L320.09375 306.5375L318.9375 306.5375L318.9375 308.6L317.875 308.6ZM317.875 305.56876L317.875 301.70938L315.1875 305.56876L317.875 305.56876Z" fill-rule="nonzero"/><path fill="#000000" d="M341.14688 305.83438L342.20938 305.74063Q342.2875 306.39688 342.56876 306.80313Q342.85 307.20938 343.42813 307.475Q344.02188 307.725 344.75626 307.725Q345.39688 307.725 345.89688 307.5375Q346.39688 307.33438 346.63126 307.00626Q346.88126 306.6625 346.88126 306.27188Q346.88126 305.86563 346.64688 305.56876Q346.4125 305.25626 345.88126 305.05313Q345.52188 304.9125 344.33438 304.63126Q343.1625 304.35 342.69376 304.1Q342.06876 303.77188 341.77188 303.30313Q341.475 302.81876 341.475 302.225Q341.475 301.58438 341.83438 301.02188Q342.20938 300.44376 342.9125 300.1625Q343.63126 299.86563 344.49063 299.86563Q345.44376 299.86563 346.17813 300.17813Q346.9125 300.475 347.30313 301.08438Q347.69376 301.67813 347.725 302.42813L346.63126 302.50626Q346.5375 301.69376 346.02188 301.2875Q345.52188 300.86563 344.5375 300.86563Q343.50626 300.86563 343.0375 301.24063Q342.56876 301.61563 342.56876 302.14688Q342.56876 302.61563 342.89688 302.9125Q343.225 303.20938 344.6 303.52188Q345.99063 303.83438 346.50626 304.06876Q347.25626 304.42813 347.61563 304.95938Q347.975 305.475 347.975 306.17813Q347.975 306.86563 347.58438 307.475Q347.19376 308.06876 346.45938 308.4125Q345.725 308.74063 344.80313 308.74063Q343.63126 308.74063 342.83438 308.4125Q342.05313 308.06876 341.6 307.38126Q341.1625 306.69376 341.14688 305.83438ZM349.39688 310.99063L349.39688 302.38126L350.35 302.38126L350.35 303.17813Q350.69376 302.70938 351.11563 302.475Q351.55313 302.24063 352.1625 302.24063Q352.95938 302.24063 353.56876 302.64688Q354.17813 303.05313 354.475 303.80313Q354.7875 304.55313 354.7875 305.44376Q354.7875 306.39688 354.44376 307.1625Q354.11563 307.92813 353.45938 308.33438Q352.80313 308.74063 352.08438 308.74063Q351.55313 308.74063 351.13126 308.52188Q350.70938 308.2875 350.44376 307.95938L350.44376 310.99063L349.39688 310.99063ZM350.35 305.52188Q350.35 306.725 350.83438 307.30313Q351.31876 307.86563 352.00626 307.86563Q352.70938 307.86563 353.20938 307.27188Q353.70938 306.67813 353.70938 305.42813Q353.70938 304.24063 353.225 303.6625Q352.74063 303.06876 352.05313 303.06876Q351.38126 303.06876 350.86563 303.69376Q350.35 304.31876 350.35 305.52188ZM356.38126 308.6L356.38126 302.38126L357.33438 302.38126L357.33438 303.31876Q357.69376 302.6625 357.99063 302.45938Q358.30313 302.24063 358.67813 302.24063Q359.20938 302.24063 359.75626 302.56876L359.39688 303.55313Q359.00626 303.31876 358.63126 303.31876Q358.27188 303.31876 357.99063 303.5375Q357.725 303.74063 357.61563 304.11563Q357.42813 304.67813 357.42813 305.33438L357.42813 308.6L356.38126 308.6ZM360.39688 301.225L360.39688 300.00626L361.45938 300.00626L361.45938 301.225L360.39688 301.225ZM360.39688 308.6L360.39688 302.38126L361.45938 302.38126L361.45938 308.6L360.39688 308.6ZM363.39688 308.6L363.39688 302.38126L364.33438 302.38126L364.33438 303.25626Q365.02188 302.24063 366.31876 302.24063Q366.88126 302.24063 367.35 302.44376Q367.83438 302.64688 368.06876 302.975Q368.30313 303.30313 368.39688 303.74063Q368.44376 304.0375 368.44376 304.77188L368.44376 308.6L367.39688 308.6L367.39688 304.81876Q367.39688 304.1625 367.27188 303.85Q367.14688 303.5375 366.83438 303.35Q366.52188 303.14688 366.1 303.14688Q365.42813 303.14688 364.92813 303.58438Q364.44376 304.00626 364.44376 305.19376L364.44376 308.6L363.39688 308.6ZM372.69376 307.6625L372.85 308.58438Q372.39688 308.67813 372.05313 308.67813Q371.475 308.67813 371.1625 308.50626Q370.85 308.31876 370.70938 308.02188Q370.58438 307.725 370.58438 306.77188L370.58438 303.19376L369.81876 303.19376L369.81876 302.38126L370.58438 302.38126L370.58438 300.83438L371.63126 300.20938L371.63126 302.38126L372.69376 302.38126L372.69376 303.19376L371.63126 303.19376L371.63126 306.83438Q371.63126 307.2875 371.67813 307.4125Q371.74063 307.5375 371.86563 307.61563Q371.99063 307.69376 372.225 307.69376Q372.4125 307.69376 372.69376 307.6625ZM376.1 306.35L377.20938 306.25626Q377.33438 307.06876 377.77188 307.475Q378.225 307.88126 378.86563 307.88126Q379.61563 307.88126 380.14688 307.30313Q380.67813 306.725 380.67813 305.7875Q380.67813 304.88126 380.1625 304.36563Q379.6625 303.83438 378.83438 303.83438Q378.33438 303.83438 377.9125 304.06876Q377.50626 304.30313 377.27188 304.6625L376.2875 304.5375L377.11563 300.13126L381.39688 300.13126L381.39688 301.13126L377.95938 301.13126L377.50626 303.44376Q378.27188 302.89688 379.11563 302.89688Q380.24063 302.89688 381.00626 303.67813Q381.7875 304.45938 381.7875 305.69376Q381.7875 306.85 381.11563 307.70938Q380.2875 308.74063 378.86563 308.74063Q377.69376 308.74063 376.94376 308.08438Q376.20938 307.42813 376.1 306.35Z" fill-rule="nonzero"/><path fill="#000000" d="M402.7469 305.83438L403.8094 305.74063Q403.8875 306.39688 404.16876 306.80313Q404.45 307.20938 405.02814 307.475Q405.6219 307.725 406.35626 307.725Q406.9969 307.725 407.4969 307.5375Q407.9969 307.33438 408.23126 307.00626Q408.48126 306.6625 408.48126 306.27188Q408.48126 305.86563 408.2469 305.56876Q408.0125 305.25626 407.48126 305.05313Q407.1219 304.9125 405.9344 304.63126Q404.7625 304.35 404.29376 304.1Q403.66876 303.77188 403.3719 303.30313Q403.075 302.81876 403.075 302.225Q403.075 301.58438 403.4344 301.02188Q403.8094 300.44376 404.5125 300.1625Q405.23126 299.86563 406.09064 299.86563Q407.04376 299.86563 407.77814 300.17813Q408.5125 300.475 408.90314 301.08438Q409.29376 301.67813 409.325 302.42813L408.23126 302.50626Q408.1375 301.69376 407.6219 301.2875Q407.1219 300.86563 406.1375 300.86563Q405.10626 300.86563 404.6375 301.24063Q404.16876 301.61563 404.16876 302.14688Q404.16876 302.61563 404.4969 302.9125Q404.825 303.20938 406.2 303.52188Q407.59064 303.83438 408.10626 304.06876Q408.85626 304.42813 409.21564 304.95938Q409.575 305.475 409.575 306.17813Q409.575 306.86563 409.1844 307.475Q408.79376 308.06876 408.0594 308.4125Q407.325 308.74063 406.40314 308.74063Q405.23126 308.74063 404.4344 308.4125Q403.65314 308.06876 403.2 307.38126Q402.7625 306.69376 402.7469 305.83438ZM410.9969 310.99063L410.9969 302.38126L411.95 302.38126L411.95 303.17813Q412.29376 302.70938 412.71564 302.475Q413.15314 302.24063 413.7625 302.24063Q414.5594 302.24063 415.16876 302.64688Q415.77814 303.05313 416.075 303.80313Q416.3875 304.55313 416.3875 305.44376Q416.3875 306.39688 416.04376 307.1625Q415.71564 307.92813 415.0594 308.33438Q414.40314 308.74063 413.6844 308.74063Q413.15314 308.74063 412.73126 308.52188Q412.3094 308.2875 412.04376 307.95938L412.04376 310.99063L410.9969 310.99063ZM411.95 305.52188Q411.95 306.725 412.4344 307.30313Q412.91876 307.86563 413.60626 307.86563Q414.3094 307.86563 414.8094 307.27188Q415.3094 306.67813 415.3094 305.42813Q415.3094 304.24063 414.825 303.6625Q414.34064 303.06876 413.65314 303.06876Q412.98126 303.06876 412.46564 303.69376Q411.95 304.31876 411.95 305.52188ZM417.98126 308.6L417.98126 302.38126L418.9344 302.38126L418.9344 303.31876Q419.29376 302.6625 419.59064 302.45938Q419.90314 302.24063 420.27814 302.24063Q420.8094 302.24063 421.35626 302.56876L420.9969 303.55313Q420.60626 303.31876 420.23126 303.31876Q419.8719 303.31876 419.59064 303.5375Q419.325 303.74063 419.21564 304.11563Q419.02814 304.67813 419.02814 305.33438L419.02814 308.6L417.98126 308.6ZM421.9969 301.225L421.9969 300.00626L423.0594 300.00626L423.0594 301.225L421.9969 301.225ZM421.9969 308.6L421.9969 302.38126L423.0594 302.38126L423.0594 308.6L421.9969 308.6ZM424.9969 308.6L424.9969 302.38126L425.9344 302.38126L425.9344 303.25626Q426.6219 302.24063 427.91876 302.24063Q428.48126 302.24063 428.95 302.44376Q429.4344 302.64688 429.66876 302.975Q429.90314 303.30313 429.9969 303.74063Q430.04376 304.0375 430.04376 304.77188L430.04376 308.6L428.9969 308.6L428.9969 304.81876Q428.9969 304.1625 428.8719 303.85Q428.7469 303.5375 428.4344 303.35Q428.1219 303.14688 427.7 303.14688Q427.02814 303.14688 426.52814 303.58438Q426.04376 304.00626 426.04376 305.19376L426.04376 308.6L424.9969 308.6ZM434.29376 307.6625L434.45 308.58438Q433.9969 308.67813 433.65314 308.67813Q433.075 308.67813 432.7625 308.50626Q432.45 308.31876 432.3094 308.02188Q432.1844 307.725 432.1844 306.77188L432.1844 303.19376L431.41876 303.19376L431.41876 302.38126L432.1844 302.38126L432.1844 300.83438L433.23126 300.20938L433.23126 302.38126L434.29376 302.38126L434.29376 303.19376L433.23126 303.19376L433.23126 306.83438Q433.23126 307.2875 433.27814 307.4125Q433.34064 307.5375 433.46564 307.61563Q433.59064 307.69376 433.825 307.69376Q434.0125 307.69376 434.29376 307.6625ZM443.16876 302.11563L442.1219 302.19376Q441.98126 301.56876 441.73126 301.2875Q441.29376 300.83438 440.66876 300.83438Q440.16876 300.83438 439.77814 301.11563Q439.29376 301.49063 438.9969 302.19376Q438.71564 302.88126 438.7 304.1625Q439.075 303.58438 439.6219 303.30313Q440.1844 303.02188 440.79376 303.02188Q441.84064 303.02188 442.575 303.80313Q443.325 304.58438 443.325 305.80313Q443.325 306.61563 442.96564 307.31876Q442.6219 308.00626 442.0125 308.38126Q441.40314 308.74063 440.6375 308.74063Q439.3094 308.74063 438.48126 307.77188Q437.65314 306.80313 437.65314 304.58438Q437.65314 302.08438 438.575 300.95938Q439.3719 299.975 440.73126 299.975Q441.7469 299.975 442.3875 300.55313Q443.04376 301.11563 443.16876 302.11563ZM438.8719 305.81876Q438.8719 306.36563 439.09064 306.86563Q439.325 307.35 439.73126 307.61563Q440.15314 307.88126 440.6219 307.88126Q441.27814 307.88126 441.7625 307.35Q442.2469 306.80313 442.2469 305.88126Q442.2469 304.99063 441.7625 304.475Q441.29376 303.95938 440.575 303.95938Q439.85626 303.95938 439.35626 304.475Q438.8719 304.99063 438.8719 305.81876Z" fill-rule="nonzero"/><path fill="#000000" d="M464.34686 305.83438L465.40936 305.74063Q465.4875 306.39688 465.76874 306.80313Q466.05 307.20938 466.6281 307.475Q467.22186 307.725 467.95624 307.725Q468.59686 307.725 469.09686 307.5375Q469.59686 307.33438 469.83124 307.00626Q470.08124 306.6625 470.08124 306.27188Q470.08124 305.86563 469.84686 305.56876Q469.6125 305.25626 469.08124 305.05313Q468.72186 304.9125 467.53436 304.63126Q466.3625 304.35 465.89374 304.1Q465.26874 303.77188 464.97186 303.30313Q464.675 302.81876 464.675 302.225Q464.675 301.58438 465.03436 301.02188Q465.40936 300.44376 466.1125 300.1625Q466.83124 299.86563 467.6906 299.86563Q468.64374 299.86563 469.3781 300.17813Q470.1125 300.475 470.5031 301.08438Q470.89374 301.67813 470.925 302.42813L469.83124 302.50626Q469.7375 301.69376 469.22186 301.2875Q468.72186 300.86563 467.7375 300.86563Q466.70624 300.86563 466.2375 301.24063Q465.76874 301.61563 465.76874 302.14688Q465.76874 302.61563 466.09686 302.9125Q466.425 303.20938 467.8 303.52188Q469.1906 303.83438 469.70624 304.06876Q470.45624 304.42813 470.8156 304.95938Q471.175 305.475 471.175 306.17813Q471.175 306.86563 470.78436 307.475Q470.39374 308.06876 469.65936 308.4125Q468.925 308.74063 468.0031 308.74063Q466.83124 308.74063 466.03436 308.4125Q465.2531 308.06876 464.8 307.38126Q464.3625 306.69376 464.34686 305.83438ZM472.59686 310.99063L472.59686 302.38126L473.55 302.38126L473.55 303.17813Q473.89374 302.70938 474.3156 302.475Q474.7531 302.24063 475.3625 302.24063Q476.15936 302.24063 476.76874 302.64688Q477.3781 303.05313 477.675 303.80313Q477.9875 304.55313 477.9875 305.44376Q477.9875 306.39688 477.64374 307.1625Q477.3156 307.92813 476.65936 308.33438Q476.0031 308.74063 475.28436 308.74063Q474.7531 308.74063 474.33124 308.52188Q473.90936 308.2875 473.64374 307.95938L473.64374 310.99063L472.59686 310.99063ZM473.55 305.52188Q473.55 306.725 474.03436 307.30313Q474.51874 307.86563 475.20624 307.86563Q475.90936 307.86563 476.40936 307.27188Q476.90936 306.67813 476.90936 305.42813Q476.90936 304.24063 476.425 303.6625Q475.9406 303.06876 475.2531 303.06876Q474.58124 303.06876 474.0656 303.69376Q473.55 304.31876 473.55 305.52188ZM479.58124 308.6L479.58124 302.38126L480.53436 302.38126L480.53436 303.31876Q480.89374 302.6625 481.1906 302.45938Q481.5031 302.24063 481.8781 302.24063Q482.40936 302.24063 482.95624 302.56876L482.59686 303.55313Q482.20624 303.31876 481.83124 303.31876Q481.47186 303.31876 481.1906 303.5375Q480.925 303.74063 480.8156 304.11563Q480.6281 304.67813 480.6281 305.33438L480.6281 308.6L479.58124 308.6ZM483.59686 301.225L483.59686 300.00626L484.65936 300.00626L484.65936 301.225L483.59686 301.225ZM483.59686 308.6L483.59686 302.38126L484.65936 302.38126L484.65936 308.6L483.59686 308.6ZM486.59686 308.6L486.59686 302.38126L487.53436 302.38126L487.53436 303.25626Q488.22186 302.24063 489.51874 302.24063Q490.08124 302.24063 490.55 302.44376Q491.03436 302.64688 491.26874 302.975Q491.5031 303.30313 491.59686 303.74063Q491.64374 304.0375 491.64374 304.77188L491.64374 308.6L490.59686 308.6L490.59686 304.81876Q490.59686 304.1625 490.47186 303.85Q490.34686 303.5375 490.03436 303.35Q489.72186 303.14688 489.3 303.14688Q488.6281 303.14688 488.1281 303.58438Q487.64374 304.00626 487.64374 305.19376L487.64374 308.6L486.59686 308.6ZM495.89374 307.6625L496.05 308.58438Q495.59686 308.67813 495.2531 308.67813Q494.675 308.67813 494.3625 308.50626Q494.05 308.31876 493.90936 308.02188Q493.78436 307.725 493.78436 306.77188L493.78436 303.19376L493.01874 303.19376L493.01874 302.38126L493.78436 302.38126L493.78436 300.83438L494.83124 300.20938L494.83124 302.38126L495.89374 302.38126L495.89374 303.19376L494.83124 303.19376L494.83124 306.83438Q494.83124 307.2875 494.8781 307.4125Q494.9406 307.5375 495.0656 307.61563Q495.1906 307.69376 495.425 307.69376Q495.6125 307.69376 495.89374 307.6625ZM499.3625 301.13126L499.3625 300.11563L504.925 300.11563L504.925 300.94376Q504.1125 301.81876 503.3 303.27188Q502.5031 304.70938 502.0656 306.24063Q501.7375 307.31876 501.65936 308.6L500.5656 308.6Q500.58124 307.58438 500.95624 306.14688Q501.34686 304.70938 502.05 303.38126Q502.76874 302.05313 503.58124 301.13126L499.3625 301.13126Z" fill-rule="nonzero"/><path fill="#4285f4" d="M136.0 23.4C136.0 26.713709 133.3137 29.4 130.0 29.4C126.686295 29.4 124.0 26.713709 124.0 23.4C124.0 20.086292 126.686295 17.4 130.0 17.4C133.3137 17.4 136.0 20.086292 136.0 23.4Z" fill-rule="nonzero"/><path fill="#1a1a1a" d="M151.0625 24.384375L152.1875 24.68125Q151.82812 26.071875 150.90625 26.80625Q149.98438 27.540625 148.64062 27.540625Q147.25 27.540625 146.375 26.978125Q145.5 26.415625 145.04688 25.353125Q144.59375 24.275 144.59375 23.040625Q144.59375 21.696875 145.10938 20.696875Q145.625 19.696875 146.5625 19.18125Q147.51562 18.665625 148.65625 18.665625Q149.9375 18.665625 150.8125 19.321875Q151.70312 19.978125 152.04688 21.165625L150.92188 21.43125Q150.625 20.49375 150.04688 20.071875Q149.48438 19.634375 148.625 19.634375Q147.64062 19.634375 146.96875 20.11875Q146.3125 20.5875 146.03125 21.384375Q145.76562 22.18125 145.76562 23.040625Q145.76562 24.134375 146.07812 24.946875Q146.40625 25.759375 147.07812 26.165625Q147.75 26.571875 148.54688 26.571875Q149.5 26.571875 150.15625 26.025Q150.82812 25.478125 151.0625 24.384375ZM153.92188 27.4L153.92188 18.80625L157.17188 18.80625Q158.01562 18.80625 158.46875 18.884375Q159.10938 18.99375 159.53125 19.290625Q159.96875 19.5875 160.21875 20.11875Q160.48438 20.65 160.48438 21.290625Q160.48438 22.384375 159.78125 23.15Q159.09375 23.9 157.26562 23.9L155.0625 23.9L155.0625 27.4L153.92188 27.4ZM155.0625 22.9L157.28125 22.9Q158.39062 22.9 158.84375 22.49375Q159.3125 22.071875 159.3125 21.321875Q159.3125 20.790625 159.03125 20.415625Q158.76562 20.025 158.32812 19.9Q158.03125 19.821875 157.26562 19.821875L155.0625 19.821875L155.0625 22.9ZM162.125 27.4L162.125 18.80625L163.25 18.80625L163.25 27.4L162.125 27.4Z" fill-rule="nonzero"/><path fill="#ea4335" d="M192.0 23.4C192.0 26.713709 189.3137 29.4 186.0 29.4C182.6863 29.4 180.0 26.713709 180.0 23.4C180.0 20.086292 182.6863 17.4 186.0 17.4C189.3137 17.4 192.0 20.086292 192.0 23.4Z" fill-rule="nonzero"/><path fill="#1a1a1a" d="M200.875 27.4L200.875 18.80625L202.01562 18.80625L202.01562 26.384375L206.25 26.384375L206.25 27.4L200.875 27.4ZM207.79688 20.025L207.79688 18.80625L208.85938 18.80625L208.85938 20.025L207.79688 20.025ZM207.79688 27.4L207.79688 21.18125L208.85938 21.18125L208.85938 27.4L207.79688 27.4ZM210.79688 27.4L210.79688 21.18125L211.73438 21.18125L211.73438 22.05625Q212.03125 21.5875 212.51562 21.321875Q213.0 21.040625 213.625 21.040625Q214.3125 21.040625 214.75 21.321875Q215.20312 21.603125 215.375 22.11875Q216.125 21.040625 217.29688 21.040625Q218.23438 21.040625 218.71875 21.55625Q219.21875 22.05625 219.21875 23.134375L219.21875 27.4L218.17188 27.4L218.17188 23.478125Q218.17188 22.853125 218.0625 22.571875Q217.96875 22.290625 217.70312 22.11875Q217.4375 21.946875 217.0625 21.946875Q216.40625 21.946875 215.96875 22.384375Q215.54688 22.821875 215.54688 23.790625L215.54688 27.4L214.48438 27.4L214.48438 23.353125Q214.48438 22.65 214.21875 22.30625Q213.96875 21.946875 213.39062 21.946875Q212.9375 21.946875 212.5625 22.18125Q212.1875 22.415625 212.01562 22.86875Q211.84375 23.321875 211.84375 24.165625L211.84375 27.4L210.79688 27.4ZM221.79688 20.025L221.79688 18.80625L222.85938 18.80625L222.85938 20.025L221.79688 20.025ZM221.79688 27.4L221.79688 21.18125L222.85938 21.18125L222.85938 27.4L221.79688 27.4ZM227.09375 26.4625L227.25 27.384375Q226.79688 27.478125 226.45312 27.478125Q225.875 27.478125 225.5625 27.30625Q225.25 27.11875 225.10938 26.821875Q224.98438 26.525 224.98438 25.571875L224.98438 21.99375L224.21875 21.99375L224.21875 21.18125L224.98438 21.18125L224.98438 19.634375L226.03125 19.009375L226.03125 21.18125L227.09375 21.18125L227.09375 21.99375L226.03125 21.99375L226.03125 25.634375Q226.03125 26.0875 226.07812 26.2125Q226.14062 26.3375 226.26562 26.415625Q226.39062 26.49375 226.625 26.49375Q226.8125 26.49375 227.09375 26.4625ZM232.04688 25.4L233.14062 25.525Q232.89062 26.478125 232.1875 27.009375Q231.48438 27.540625 230.40625 27.540625Q229.04688 27.540625 228.23438 26.696875Q227.4375 25.853125 227.4375 24.3375Q227.4375 22.775 228.25 21.915625Q229.0625 21.040625 230.34375 21.040625Q231.59375 21.040625 232.375 21.884375Q233.17188 22.728125 233.17188 24.275Q233.17188 24.36875 233.17188 24.55625L228.53125 24.55625Q228.59375 25.5875 229.10938 26.134375Q229.625 26.665625 230.40625 26.665625Q230.98438 26.665625 231.39062 26.36875Q231.8125 26.05625 232.04688 25.4ZM228.59375 23.696875L232.0625 23.696875Q232.0 22.9 231.67188 22.509375Q231.15625 21.9 230.35938 21.9Q229.625 21.9 229.125 22.384375Q228.64062 22.86875 228.59375 23.696875ZM237.375 25.540625L238.40625 25.384375Q238.5 26.009375 238.89062 26.3375Q239.29688 26.665625 240.03125 26.665625Q240.75 26.665625 241.09375 26.384375Q241.45312 26.0875 241.45312 25.68125Q241.45312 25.321875 241.14062 25.11875Q240.92188 24.978125 240.0625 24.759375Q238.90625 24.4625 238.45312 24.259375Q238.01562 24.040625 237.78125 23.665625Q237.54688 23.290625 237.54688 22.821875Q237.54688 22.415625 237.73438 22.05625Q237.92188 21.696875 238.25 21.4625Q238.5 21.290625 238.92188 21.165625Q239.34375 21.040625 239.84375 21.040625Q240.5625 21.040625 241.10938 21.259375Q241.67188 21.4625 241.9375 21.821875Q242.20312 22.18125 242.29688 22.775L241.26562 22.915625Q241.20312 22.446875 240.85938 22.18125Q240.53125 21.9 239.90625 21.9Q239.1875 21.9 238.875 22.15Q238.5625 22.384375 238.5625 22.7125Q238.5625 22.915625 238.6875 23.071875Q238.82812 23.24375 239.09375 23.353125Q239.25 23.415625 240.03125 23.61875Q241.15625 23.93125 241.59375 24.11875Q242.03125 24.30625 242.28125 24.665625Q242.53125 25.025 242.53125 25.571875Q242.53125 26.103125 242.21875 26.571875Q241.92188 27.025 241.34375 27.290625Q240.76562 27.540625 240.03125 27.540625Q238.8125 27.540625 238.17188 27.040625Q237.54688 26.525 237.375 25.540625ZM248.875 27.4L248.875 26.478125Q248.14062 27.540625 246.89062 27.540625Q246.34375 27.540625 245.85938 27.3375Q245.39062 27.11875 245.15625 26.80625Q244.92188 26.478125 244.82812 26.009375Q244.76562 25.7125 244.76562 25.025L244.76562 21.18125L245.82812 21.18125L245.82812 24.634375Q245.82812 25.446875 245.89062 25.74375Q245.98438 26.15 246.29688 26.4Q246.625 26.634375 247.10938 26.634375Q247.57812 26.634375 247.98438 26.4Q248.40625 26.15 248.57812 25.728125Q248.76562 25.30625 248.76562 24.509375L248.76562 21.18125L249.8125 21.18125L249.8125 27.4L248.875 27.4ZM251.79688 29.790625L251.79688 21.18125L252.75 21.18125L252.75 21.978125Q253.09375 21.509375 253.51562 21.275Q253.95312 21.040625 254.5625 21.040625Q255.35938 21.040625 255.96875 21.446875Q256.57812 21.853125 256.875 22.603125Q257.1875 23.353125 257.1875 24.24375Q257.1875 25.196875 256.84375 25.9625Q256.51562 26.728125 255.85938 27.134375Q255.20312 27.540625 254.48438 27.540625Q253.95312 27.540625 253.53125 27.321875Q253.10938 27.0875 252.84375 26.759375L252.84375 29.790625L251.79688 29.790625ZM252.75 24.321875Q252.75 25.525 253.23438 26.103125Q253.71875 26.665625 254.40625 26.665625Q255.10938 26.665625 255.60938 26.071875Q256.10938 25.478125 256.10938 24.228125Q256.10938 23.040625 255.625 22.4625Q255.14062 21.86875 254.45312 21.86875Q253.78125 21.86875 253.26562 22.49375Q252.75 23.11875 252.75 24.321875ZM263.04688 25.4L264.14062 25.525Q263.89062 26.478125 263.1875 27.009375Q262.48438 27.540625 261.40625 27.540625Q260.04688 27.540625 259.23438 26.696875Q258.4375 25.853125 258.4375 24.3375Q258.4375 22.775 259.25 21.915625Q260.0625 21.040625 261.34375 21.040625Q262.59375 21.040625 263.375 21.884375Q264.17188 22.728125 264.17188 24.275Q264.17188 24.36875 264.17188 24.55625L259.53125 24.55625Q259.59375 25.5875 260.10938 26.134375Q260.625 26.665625 261.40625 26.665625Q261.98438 26.665625 262.39062 26.36875Q262.8125 26.05625 263.04688 25.4ZM259.59375 23.696875L263.0625 23.696875Q263.0 22.9 262.67188 22.509375Q262.15625 21.9 261.35938 21.9Q260.625 21.9 260.125 22.384375Q259.64062 22.86875 259.59375 23.696875ZM265.78125 27.4L265.78125 21.18125L266.73438 21.18125L266.73438 22.11875Q267.09375 21.4625 267.39062 21.259375Q267.70312 21.040625 268.07812 21.040625Q268.60938 21.040625 269.15625 21.36875L268.79688 22.353125Q268.40625 22.11875 268.03125 22.11875Q267.67188 22.11875 267.39062 22.3375Q267.125 22.540625 267.01562 22.915625Q266.82812 23.478125 266.82812 24.134375L266.82812 27.4L265.78125 27.4ZM269.79688 20.025L269.79688 18.80625L270.85938 18.80625L270.85938 20.025L269.79688 20.025ZM269.79688 27.4L269.79688 21.18125L270.85938 21.18125L270.85938 27.4L269.79688 27.4ZM272.40625 24.290625Q272.40625 22.55625 273.35938 21.728125Q274.15625 21.040625 275.3125 21.040625Q276.59375 21.040625 277.40625 21.884375Q278.23438 22.7125 278.23438 24.196875Q278.23438 25.4 277.875 26.0875Q277.51562 26.775 276.8125 27.165625Q276.125 27.540625 275.3125 27.540625Q274.01562 27.540625 273.20312 26.7125Q272.40625 25.86875 272.40625 24.290625ZM273.48438 24.290625Q273.48438 25.478125 274.0 26.071875Q274.53125 26.665625 275.3125 26.665625Q276.10938 26.665625 276.625 26.071875Q277.14062 25.478125 277.14062 24.259375Q277.14062 23.103125 276.60938 22.509375Q276.09375 21.915625 275.3125 21.915625Q274.53125 21.915625 274.0 22.509375Q273.48438 23.0875 273.48438 24.290625ZM279.78125 27.4L279.78125 21.18125L280.73438 21.18125L280.73438 22.11875Q281.09375 21.4625 281.39062 21.259375Q281.70312 21.040625 282.07812 21.040625Q282.60938 21.040625 283.15625 21.36875L282.79688 22.353125Q282.40625 22.11875 282.03125 22.11875Q281.67188 22.11875 281.39062 22.3375Q281.125 22.540625 281.01562 22.915625Q280.82812 23.478125 280.82812 24.134375L280.82812 27.4L279.78125 27.4ZM288.04688 25.4L289.14062 25.525Q288.89062 26.478125 288.1875 27.009375Q287.48438 27.540625 286.40625 27.540625Q285.04688 27.540625 284.23438 26.696875Q283.4375 25.853125 283.4375 24.3375Q283.4375 22.775 284.25 21.915625Q285.0625 21.040625 286.34375 21.040625Q287.59375 21.040625 288.375 21.884375Q289.17188 22.728125 289.17188 24.275Q289.17188 24.36875 289.17188 24.55625L284.53125 24.55625Q284.59375 25.5875 285.10938 26.134375Q285.625 26.665625 286.40625 26.665625Q286.98438 26.665625 287.39062 26.36875Q287.8125 26.05625 288.04688 25.4ZM284.59375 23.696875L288.0625 23.696875Q288.0 22.9 287.67188 22.509375Q287.15625 21.9 286.35938 21.9Q285.625 21.9 285.125 22.384375Q284.64062 22.86875 284.59375 23.696875Z" fill-rule="nonzero"/><path fill="#fbbc04" fill-opacity="0.7019608" d="M318.0 23.4C318.0 26.713709 315.31372 29.4 312.0 29.4C308.68628 29.4 306.0 26.713709 306.0 23.4C306.0 20.086292 308.68628 17.4 312.0 17.4C315.31372 17.4 318.0 20.086292 318.0 23.4Z" fill-rule="nonzero"/><path fill="#1a1a1a" d="M326.875 27.4L326.875 18.80625L328.01562 18.80625L328.01562 26.384375L332.25 26.384375L332.25 27.4L326.875 27.4ZM333.79688 20.025L333.79688 18.80625L334.85938 18.80625L334.85938 20.025L333.79688 20.025ZM333.79688 27.4L333.79688 21.18125L334.85938 21.18125L334.85938 27.4L333.79688 27.4ZM336.79688 27.4L336.79688 21.18125L337.73438 21.18125L337.73438 22.05625Q338.03125 21.5875 338.51562 21.321875Q339.0 21.040625 339.625 21.040625Q340.3125 21.040625 340.75 21.321875Q341.20312 21.603125 341.375 22.11875Q342.125 21.040625 343.29688 21.040625Q344.23438 21.040625 344.71875 21.55625Q345.21875 22.05625 345.21875 23.134375L345.21875 27.4L344.17188 27.4L344.17188 23.478125Q344.17188 22.853125 344.0625 22.571875Q343.96875 22.290625 343.70312 22.11875Q343.4375 21.946875 343.0625 21.946875Q342.40625 21.946875 341.96875 22.384375Q341.54688 22.821875 341.54688 23.790625L341.54688 27.4L340.48438 27.4L340.48438 23.353125Q340.48438 22.65 340.21875 22.30625Q339.96875 21.946875 339.39062 21.946875Q338.9375 21.946875 338.5625 22.18125Q338.1875 22.415625 338.01562 22.86875Q337.84375 23.321875 337.84375 24.165625L337.84375 27.4L336.79688 27.4ZM347.79688 20.025L347.79688 18.80625L348.85938 18.80625L348.85938 20.025L347.79688 20.025ZM347.79688 27.4L347.79688 21.18125L348.85938 21.18125L348.85938 27.4L347.79688 27.4ZM353.09375 26.4625L353.25 27.384375Q352.79688 27.478125 352.45312 27.478125Q351.875 27.478125 351.5625 27.30625Q351.25 27.11875 351.10938 26.821875Q350.98438 26.525 350.98438 25.571875L350.98438 21.99375L350.21875 21.99375L350.21875 21.18125L350.98438 21.18125L350.98438 19.634375L352.03125 19.009375L352.03125 21.18125L353.09375 21.18125L353.09375 21.99375L352.03125 21.99375L352.03125 25.634375Q352.03125 26.0875 352.07812 26.2125Q352.14062 26.3375 352.26562 26.415625Q352.39062 26.49375 352.625 26.49375Q352.8125 26.49375 353.09375 26.4625ZM358.04688 25.4L359.14062 25.525Q358.89062 26.478125 358.1875 27.009375Q357.48438 27.540625 356.40625 27.540625Q355.04688 27.540625 354.23438 26.696875Q353.4375 25.853125 353.4375 24.3375Q353.4375 22.775 354.25 21.915625Q355.0625 21.040625 356.34375 21.040625Q357.59375 21.040625 358.375 21.884375Q359.17188 22.728125 359.17188 24.275Q359.17188 24.36875 359.17188 24.55625L354.53125 24.55625Q354.59375 25.5875 355.10938 26.134375Q355.625 26.665625 356.40625 26.665625Q356.98438 26.665625 357.39062 26.36875Q357.8125 26.05625 358.04688 25.4ZM354.59375 23.696875L358.0625 23.696875Q358.0 22.9 357.67188 22.509375Q357.15625 21.9 356.35938 21.9Q355.625 21.9 355.125 22.384375Q354.64062 22.86875 354.59375 23.696875ZM363.79688 20.025L363.79688 18.80625L364.85938 18.80625L364.85938 20.025L363.79688 20.025ZM363.79688 27.4L363.79688 21.18125L364.85938 21.18125L364.85938 27.4L363.79688 27.4ZM366.79688 27.4L366.79688 21.18125L367.73438 21.18125L367.73438 22.05625Q368.42188 21.040625 369.71875 21.040625Q370.28125 21.040625 370.75 21.24375Q371.23438 21.446875 371.46875 21.775Q371.70312 22.103125 371.79688 22.540625Q371.84375 22.8375 371.84375 23.571875L371.84375 27.4L370.79688 27.4L370.79688 23.61875Q370.79688 22.9625 370.67188 22.65Q370.54688 22.3375 370.23438 22.15Q369.92188 21.946875 369.5 21.946875Q368.82812 21.946875 368.32812 22.384375Q367.84375 22.80625 367.84375 23.99375L367.84375 27.4L366.79688 27.4ZM374.04688 27.4L374.04688 21.99375L373.10938 21.99375L373.10938 21.18125L374.04688 21.18125L374.04688 20.509375Q374.04688 19.884375 374.15625 19.5875Q374.3125 19.165625 374.6875 18.915625Q375.07812 18.665625 375.76562 18.665625Q376.21875 18.665625 376.75 18.775L376.59375 19.68125Q376.26562 19.634375 375.96875 19.634375Q375.48438 19.634375 375.28125 19.8375Q375.09375 20.040625 375.09375 20.603125L375.09375 21.18125L376.3125 21.18125L376.3125 21.99375L375.09375 21.99375L375.09375 27.4L374.04688 27.4ZM381.04688 25.4L382.14062 25.525Q381.89062 26.478125 381.1875 27.009375Q380.48438 27.540625 379.40625 27.540625Q378.04688 27.540625 377.23438 26.696875Q376.4375 25.853125 376.4375 24.3375Q376.4375 22.775 377.25 21.915625Q378.0625 21.040625 379.34375 21.040625Q380.59375 21.040625 381.375 21.884375Q382.17188 22.728125 382.17188 24.275Q382.17188 24.36875 382.17188 24.55625L377.53125 24.55625Q377.59375 25.5875 378.10938 26.134375Q378.625 26.665625 379.40625 26.665625Q379.98438 26.665625 380.39062 26.36875Q380.8125 26.05625 381.04688 25.4ZM377.59375 23.696875L381.0625 23.696875Q381.0 22.9 380.67188 22.509375Q380.15625 21.9 379.35938 21.9Q378.625 21.9 378.125 22.384375Q377.64062 22.86875 377.59375 23.696875ZM383.78125 27.4L383.78125 21.18125L384.73438 21.18125L384.73438 22.11875Q385.09375 21.4625 385.39062 21.259375Q385.70312 21.040625 386.07812 21.040625Q386.60938 21.040625 387.15625 21.36875L386.79688 22.353125Q386.40625 22.11875 386.03125 22.11875Q385.67188 22.11875 385.39062 22.3375Q385.125 22.540625 385.01562 22.915625Q384.82812 23.478125 384.82812 24.134375L384.82812 27.4L383.78125 27.4ZM387.79688 20.025L387.79688 18.80625L388.85938 18.80625L388.85938 20.025L387.79688 20.025ZM387.79688 27.4L387.79688 21.18125L388.85938 21.18125L388.85938 27.4L387.79688 27.4ZM390.40625 24.290625Q390.40625 22.55625 391.35938 21.728125Q392.15625 21.040625 393.3125 21.040625Q394.59375 21.040625 395.40625 21.884375Q396.23438 22.7125 396.23438 24.196875Q396.23438 25.4 395.875 26.0875Q395.51562 26.775 394.8125 27.165625Q394.125 27.540625 393.3125 27.540625Q392.01562 27.540625 391.20312 26.7125Q390.40625 25.86875 390.40625 24.290625ZM391.48438 24.290625Q391.48438 25.478125 392.0 26.071875Q392.53125 26.665625 393.3125 26.665625Q394.10938 26.665625 394.625 26.071875Q395.14062 25.478125 395.14062 24.259375Q395.14062 23.103125 394.60938 22.509375Q394.09375 21.915625 393.3125 21.915625Q392.53125 21.915625 392.0 22.509375Q391.48438 23.0875 391.48438 24.290625ZM397.78125 27.4L397.78125 21.18125L398.73438 21.18125L398.73438 22.11875Q399.09375 21.4625 399.39062 21.259375Q399.70312 21.040625 400.07812 21.040625Q400.60938 21.040625 401.15625 21.36875L400.79688 22.353125Q400.40625 22.11875 400.03125 22.11875Q399.67188 22.11875 399.39062 22.3375Q399.125 22.540625 399.01562 22.915625Q398.82812 23.478125 398.82812 24.134375L398.82812 27.4L397.78125 27.4ZM406.04688 25.4L407.14062 25.525Q406.89062 26.478125 406.1875 27.009375Q405.48438 27.540625 404.40625 27.540625Q403.04688 27.540625 402.23438 26.696875Q401.4375 25.853125 401.4375 24.3375Q401.4375 22.775 402.25 21.915625Q403.0625 21.040625 404.34375 21.040625Q405.59375 21.040625 406.375 21.884375Q407.17188 22.728125 407.17188 24.275Q407.17188 24.36875 407.17188 24.55625L402.53125 24.55625Q402.59375 25.5875 403.10938 26.134375Q403.625 26.665625 404.40625 26.665625Q404.98438 26.665625 405.39062 26.36875Q405.8125 26.05625 406.04688 25.4ZM402.59375 23.696875L406.0625 23.696875Q406.0 22.9 405.67188 22.509375Q405.15625 21.9 404.35938 21.9Q403.625 21.9 403.125 22.384375Q402.64062 22.86875 402.59375 23.696875Z" fill-rule="nonzero"/></svg>