<svg version="1.1" viewBox="0.0 0.0 532.0 328.0" fill="none" stroke="none" stroke-linecap="square" stroke-miterlimit="10" width="532" height="328" xmlns:xlink="http://www.w3.org/1999/xlink" xmlns="http://www.w3.org/2000/svg"><path fill="#ffffff" d="M0 0L532.0 0L532.0 328.0L0 328.0L0 0Z" fill-rule="nonzero"/><path stroke="#333333" stroke-width="1.0" stroke-linecap="butt" d="M84.5 285.5L515.5 285.5" fill-rule="nonzero"/><path stroke="#cccccc" stroke-width="1.0" stroke-linecap="butt" d="M84.5 255.5L515.5 255.5" fill-rule="nonzero"/><path stroke="#cccccc" stroke-width="1.0" stroke-linecap="butt" d="M84.5 226.5L515.5 226.5" fill-rule="nonzero"/><path stroke="#cccccc" stroke-width="1.0" stroke-linecap="butt" d="M84.5 196.5L515.5 196.5" fill-rule="nonzero"/><path stroke="#cccccc" stroke-width="1.0" stroke-linecap="butt" d="M84.5 166.5L515.5 166.5" fill-rule="nonzero"/><path stroke="#cccccc" stroke-width="1.0" stroke-linecap="butt" d="M84.5 137.5L515.5 137.5" fill-rule="nonzero"/><path stroke="#cccccc" stroke-width="1.0" stroke-linecap="butt" d="M84.5 107.5L515.5 107.5" fill-rule="nonzero"/><path stroke="#cccccc" stroke-width="1.0" stroke-linecap="butt" d="M84.5 77.5L515.5 77.5" fill-rule="nonzero"/><path stroke="#cccccc" stroke-width="1.0" stroke-linecap="butt" d="M84.5 48.5L515.5 48.5" fill-rule="nonzero"/><path stroke="#000000" stroke-width="1.0" stroke-linecap="butt" d="M515.5 285.5L84.5 285.5" fill-rule="nonzero"/><path stroke="#000000" stroke-width="1.0" stroke-linecap="butt" d="M84.5 285.5L84.5 48.5" fill-rule="nonzero"/><clipPath id="id_0"><path d="M84.4 48.333332L515.6 48.333332L515.6 285.6L84.4 285.6L84.4 48.333332Z" clip-rule="nonzero"/></clipPath><path stroke="#4285f4" stroke-width="2.0" stroke-linecap="butt" clip-path="url(#id_0)" d="M120.333336 176.45972C120.333336 176.45972 168.24445 174.39249 192.2 173.41849C216.15555 172.44449 240.11111 171.18134 264.06668 170.61568C288.02222 170.05002 311.97778 170.21877 335.93332 170.02452C359.8889 169.83026 383.84445 169.59854 407.8 169.45016C431.75555 169.30179 479.66666 169.13426 479.66666 169.13426" fill-rule="nonzero"/><path fill="#4285f4" clip-path="url(#id_0)" d="M123.833336 176.45972C123.833336 178.39272 122.26633 179.95972 120.333336 179.95972C118.40034 179.95972 116.833336 178.39272 116.833336 176.45972C116.833336 174.52672 118.40034 172.95972 120.333336 172.95972C122.26633 172.95972 123.833336 174.52672 123.833336 176.45972Z" fill-rule="nonzero"/><path fill="#4285f4" clip-path="url(#id_0)" d="M195.7 173.41849C195.7 175.35149 194.133 176.91849 192.2 176.91849C190.267 176.91849 188.7 175.35149 188.7 173.41849C188.7 171.48549 190.267 169.91849 192.2 169.91849C194.133 169.91849 195.7 171.48549 195.7 173.41849Z" fill-rule="nonzero"/><path fill="#4285f4" clip-path="url(#id_0)" d="M267.56668 170.61568C267.56668 172.54868 265.99966 174.11568 264.06668 174.11568C262.13367 174.11568 260.56668 172.54868 260.56668 170.61568C260.56668 168.68268 262.13367 167.11568 264.06668 167.11568C265.99966 167.11568 267.56668 168.68268 267.56668 170.61568Z" fill-rule="nonzero"/><path fill="#4285f4" clip-path="url(#id_0)" d="M339.43332 170.02452C339.43332 171.95752 337.86633 173.52452 335.93332 173.52452C334.00034 173.52452 332.43332 171.95752 332.43332 170.02452C332.43332 168.09152 334.00034 166.52452 335.93332 166.52452C337.86633 166.52452 339.43332 168.09152 339.43332 170.02452Z" fill-rule="nonzero"/><path fill="#4285f4" clip-path="url(#id_0)" d="M411.3 169.45016C411.3 171.38316 409.733 172.95016 407.8 172.95016C405.867 172.95016 404.3 171.38316 404.3 169.45016C404.3 167.51717 405.867 165.95016 407.8 165.95016C409.733 165.95016 411.3 167.51717 411.3 169.45016Z" fill-rule="nonzero"/><path fill="#4285f4" clip-path="url(#id_0)" d="M483.16666 169.13426C483.16666 171.06726 481.59967 172.63426 479.66666 172.63426C477.73367 172.63426 476.16666 171.06726 476.16666 169.13426C476.16666 167.20128 477.73367 165.63426 479.66666 165.63426C481.59967 165.63426 483.16666 167.20128 483.16666 169.13426Z" fill-rule="nonzero"/><path stroke="#000000" stroke-width="1.0" stroke-linecap="butt" d="M120.5 291.5L120.5 279.5" fill-rule="nonzero"/><path stroke="#000000" stroke-width="1.0" stroke-linecap="butt" d="M192.5 291.5L192.5 279.5" fill-rule="nonzero"/><path stroke="#000000" stroke-width="1.0" stroke-linecap="butt" d="M264.5 291.5L264.5 279.5" fill-rule="nonzero"/><path stroke="#000000" stroke-width="1.0" stroke-linecap="butt" d="M335.5 291.5L335.5 279.5" fill-rule="nonzero"/><path stroke="#000000" stroke-width="1.0" stroke-linecap="butt" d="M407.5 291.5L407.5 279.5" fill-rule="nonzero"/><path stroke="#000000" stroke-width="1.0" stroke-linecap="butt" d="M479.5 291.5L479.5 279.5" fill-rule="nonzero"/><path stroke="#000000" stroke-width="1.0" stroke-linecap="butt" d="M78.5 285.5L90.5 285.5" fill-rule="nonzero"/><path stroke="#000000" stroke-width="1.0" stroke-linecap="butt" d="M78.5 255.5L90.5 255.5" fill-rule="nonzero"/><path stroke="#000000" stroke-width="1.0" stroke-linecap="butt" d="M78.5 226.5L90.5 226.5" fill-rule="nonzero"/><path stroke="#000000" stroke-width="1.0" stroke-linecap="butt" d="M78.5 196.5L90.5 196.5" fill-rule="nonzero"/><path stroke="#000000" stroke-width="1.0" stroke-linecap="butt" d="M78.5 166.5L90.5 166.5" fill-rule="nonzero"/><path stroke="#000000" stroke-width="1.0" stroke-linecap="butt" d="M78.5 137.5L90.5 137.5" fill-rule="nonzero"/><path stroke="#000000" stroke-width="1.0" stroke-linecap="butt" d="M78.5 107.5L90.5 107.5" fill-rule="nonzero"/><path stroke="#000000" stroke-width="1.0" stroke-linecap="butt" d="M78.5 77.5L90.5 77.5" fill-rule="nonzero"/><path stroke="#000000" stroke-width="1.0" stroke-linecap="butt" d="M78.5 48.5L90.5 48.5" fill-rule="nonzero"/><path fill="#000000" d="M65.9 285.36563Q65.9 283.83438 66.2125 282.9125Q66.525 281.975 67.13438 281.475Q67.75938 280.975 68.69688 280.975Q69.38438 280.975 69.9 281.25626Q70.43125 281.5375 70.775 282.06876Q71.11875 282.58438 71.30625 283.33438Q71.49375 284.08438 71.49375 285.36563Q71.49375 286.88126 71.18125 287.80313Q70.88438 288.725 70.25938 289.24063Q69.65 289.74063 68.69688 289.74063Q67.4625 289.74063 66.74375 288.85Q65.9 287.7875 65.9 285.36563ZM66.97813 285.36563Q66.97813 287.475 67.47813 288.17813Q67.97813 288.88126 68.69688 288.88126Q69.43125 288.88126 69.91563 288.17813Q70.41563 287.475 70.41563 285.36563Q70.41563 283.24063 69.91563 282.55313Q69.43125 281.85 68.68125 281.85Q67.9625 281.85 67.525 282.45938Q66.97813 283.24063 66.97813 285.36563Z" fill-rule="nonzero"/><path fill="#000000" d="M48.9 255.7073Q48.9 254.17606 49.2125 253.25418Q49.525 252.31668 50.134377 251.81668Q50.759377 251.31668 51.696877 251.31668Q52.384377 251.31668 52.9 251.59793Q53.43125 251.87918 53.775 252.41043Q54.11875 252.92606 54.30625 253.67606Q54.49375 254.42606 54.49375 255.7073Q54.49375 257.22293 54.18125 258.1448Q53.884377 259.06668 53.259377 259.5823Q52.65 260.0823 51.696877 260.0823Q50.4625 260.0823 49.74375 259.19168Q48.9 258.12918 48.9 255.7073ZM49.978127 255.7073Q49.978127 257.81668 50.478127 258.5198Q50.978127 259.22293 51.696877 259.22293Q52.43125 259.22293 52.915627 258.5198Q53.415627 257.81668 53.415627 255.7073Q53.415627 253.5823 52.915627 252.8948Q52.43125 252.19168 51.68125 252.19168Q50.9625 252.19168 50.525 252.80106Q49.978127 253.5823 49.978127 255.7073ZM56.49375 259.94168L56.49375 258.73856L57.696877 258.73856L57.696877 259.94168L56.49375 259.94168ZM64.44688 258.92606L64.44688 259.94168L58.759377 259.94168Q58.759377 259.56668 58.884377 259.2073Q59.103127 258.62918 59.571877 258.06668Q60.05625 257.50418 60.9625 256.7698Q62.36875 255.61356 62.853127 254.94168Q63.353127 254.2698 63.353127 253.67606Q63.353127 253.05106 62.9 252.62918Q62.446877 252.19168 61.728127 252.19168Q60.9625 252.19168 60.509377 252.6448Q60.05625 253.09793 60.040627 253.91043L58.9625 253.80106Q59.071877 252.5823 59.790627 251.9573Q60.525 251.31668 61.759377 251.31668Q62.99375 251.31668 63.7125 252.00418Q64.43125 252.69168 64.43125 253.7073Q64.43125 254.22293 64.2125 254.72293Q64.00938 255.2073 63.509377 255.7698Q63.025 256.31668 61.9 257.2698Q60.946877 258.06668 60.665627 258.36356Q60.4 258.6448 60.228127 258.92606L64.44688 258.92606ZM65.9 257.69168L67.00938 257.59793Q67.13438 258.41043 67.57188 258.81668Q68.025 259.22293 68.66563 259.22293Q69.41563 259.22293 69.94688 258.6448Q70.47813 258.06668 70.47813 257.12918Q70.47813 256.22293 69.9625 255.7073Q69.4625 255.17606 68.63438 255.17606Q68.13438 255.17606 67.7125 255.41043Q67.30625 255.6448 67.07188 256.00418L66.0875 255.87918L66.91563 251.47293L71.19688 251.47293L71.19688 252.47293L67.75938 252.47293L67.30625 254.78543Q68.07188 254.23856 68.91563 254.23856Q70.04063 254.23856 70.80625 255.0198Q71.5875 255.80106 71.5875 257.03543Q71.5875 258.19168 70.91563 259.05106Q70.0875 260.0823 68.66563 260.0823Q67.49375 260.0823 66.74375 259.42606Q66.00938 258.7698 65.9 257.69168Z" fill-rule="nonzero"/><path fill="#000000" d="M55.9 226.04897Q55.9 224.51772 56.2125 223.59584Q56.525 222.65834 57.134377 222.15834Q57.759377 221.65834 58.696877 221.65834Q59.384377 221.65834 59.9 221.93959Q60.43125 222.22084 60.775 222.75209Q61.11875 223.26772 61.30625 224.01772Q61.49375 224.76772 61.49375 226.04897Q61.49375 227.56459 61.18125 228.48647Q60.884377 229.40834 60.259377 229.92397Q59.65 230.42397 58.696877 230.42397Q57.4625 230.42397 56.74375 229.53334Q55.9 228.47084 55.9 226.04897ZM56.978127 226.04897Q56.978127 228.15834 57.478127 228.86147Q57.978127 229.56459 58.696877 229.56459Q59.43125 229.56459 59.915627 228.86147Q60.415627 228.15834 60.415627 226.04897Q60.415627 223.92397 59.915627 223.23647Q59.43125 222.53334 58.68125 222.53334Q57.9625 222.53334 57.525 223.14272Q56.978127 223.92397 56.978127 226.04897ZM63.49375 230.28334L63.49375 229.08022L64.69688 229.08022L64.69688 230.28334L63.49375 230.28334ZM65.9 228.03334L67.00938 227.93959Q67.13438 228.75209 67.57188 229.15834Q68.025 229.56459 68.66563 229.56459Q69.41563 229.56459 69.94688 228.98647Q70.47813 228.40834 70.47813 227.47084Q70.47813 226.56459 69.9625 226.04897Q69.4625 225.51772 68.63438 225.51772Q68.13438 225.51772 67.7125 225.75209Q67.30625 225.98647 67.07188 226.34584L66.0875 226.22084L66.91563 221.81459L71.19688 221.81459L71.19688 222.81459L67.75938 222.81459L67.30625 225.12709Q68.07188 224.58022 68.91563 224.58022Q70.04063 224.58022 70.80625 225.36147Q71.5875 226.14272 71.5875 227.37709Q71.5875 228.53334 70.91563 229.39272Q70.0875 230.42397 68.66563 230.42397Q67.49375 230.42397 66.74375 229.76772Q66.00938 229.11147 65.9 228.03334Z" fill-rule="nonzero"/><path fill="#000000" d="M48.9 196.39062Q48.9 194.85938 49.2125 193.9375Q49.525 193.0 50.134377 192.5Q50.759377 192.0 51.696877 192.0Q52.384377 192.0 52.9 192.28125Q53.43125 192.5625 53.775 193.09375Q54.11875 193.60938 54.30625 194.35938Q54.49375 195.10938 54.49375 196.39062Q54.49375 197.90625 54.18125 198.82812Q53.884377 199.75 53.259377 200.26562Q52.65 200.76562 51.696877 200.76562Q50.4625 200.76562 49.74375 199.875Q48.9 198.8125 48.9 196.39062ZM49.978127 196.39062Q49.978127 198.5 50.478127 199.20312Q50.978127 199.90625 51.696877 199.90625Q52.43125 199.90625 52.915627 199.20312Q53.415627 198.5 53.415627 196.39062Q53.415627 194.26562 52.915627 193.57812Q52.43125 192.875 51.68125 192.875Q50.9625 192.875 50.525 193.48438Q49.978127 194.26562 49.978127 196.39062ZM56.49375 200.625L56.49375 199.42188L57.696877 199.42188L57.696877 200.625L56.49375 200.625ZM58.9625 193.15625L58.9625 192.14062L64.525 192.14062L64.525 192.96875Q63.7125 193.84375 62.9 195.29688Q62.103127 196.73438 61.665627 198.26562Q61.3375 199.34375 61.259377 200.625L60.165627 200.625Q60.18125 199.60938 60.55625 198.17188Q60.946877 196.73438 61.65 195.40625Q62.36875 194.07812 63.18125 193.15625L58.9625 193.15625ZM65.9 198.375L67.00938 198.28125Q67.13438 199.09375 67.57188 199.5Q68.025 199.90625 68.66563 199.90625Q69.41563 199.90625 69.94688 199.32812Q70.47813 198.75 70.47813 197.8125Q70.47813 196.90625 69.9625 196.39062Q69.4625 195.85938 68.63438 195.85938Q68.13438 195.85938 67.7125 196.09375Q67.30625 196.32812 67.07188 196.6875L66.0875 196.5625L66.91563 192.15625L71.19688 192.15625L71.19688 193.15625L67.75938 193.15625L67.30625 195.46875Q68.07188 194.92188 68.91563 194.92188Q70.04063 194.92188 70.80625 195.70312Q71.5875 196.48438 71.5875 197.71875Q71.5875 198.875 70.91563 199.73438Q70.0875 200.76562 68.66563 200.76562Q67.49375 200.76562 66.74375 200.10938Q66.00938 199.45312 65.9 198.375Z" fill-rule="nonzero"/><path fill="#000000" d="M69.86875 170.96666L68.82188 170.96666L68.82188 164.24791Q68.43125 164.60728 67.80625 164.98228Q67.19688 165.34166 66.7125 165.51353L66.7125 164.49791Q67.5875 164.07603 68.24375 163.49791Q68.91563 162.90416 69.19688 162.34166L69.86875 162.34166L69.86875 170.96666Z" fill-rule="nonzero"/><path fill="#000000" d="M52.86875 141.30833L51.821877 141.30833L51.821877 134.58958Q51.43125 134.94896 50.80625 135.32396Q50.196877 135.68333 49.7125 135.85521L49.7125 134.83958Q50.5875 134.41771 51.24375 133.83958Q51.915627 133.24583 52.196877 132.68333L52.86875 132.68333L52.86875 141.30833ZM56.49375 141.30833L56.49375 140.10521L57.696877 140.10521L57.696877 141.30833L56.49375 141.30833ZM64.44688 140.29271L64.44688 141.30833L58.759377 141.30833Q58.759377 140.93333 58.884377 140.57396Q59.103127 139.99583 59.571877 139.43333Q60.05625 138.87083 60.9625 138.13646Q62.36875 136.98021 62.853127 136.30833Q63.353127 135.63646 63.353127 135.04271Q63.353127 134.41771 62.9 133.99583Q62.446877 133.55833 61.728127 133.55833Q60.9625 133.55833 60.509377 134.01146Q60.05625 134.46458 60.040627 135.27708L58.9625 135.16771Q59.071877 133.94896 59.790627 133.32396Q60.525 132.68333 61.759377 132.68333Q62.99375 132.68333 63.7125 133.37083Q64.43125 134.05833 64.43125 135.07396Q64.43125 135.58958 64.2125 136.08958Q64.00938 136.57396 63.509377 137.13646Q63.025 137.68333 61.9 138.63646Q60.946877 139.43333 60.665627 139.73021Q60.4 140.01146 60.228127 140.29271L64.44688 140.29271ZM65.9 139.05833L67.00938 138.96458Q67.13438 139.77708 67.57188 140.18333Q68.025 140.58958 68.66563 140.58958Q69.41563 140.58958 69.94688 140.01146Q70.47813 139.43333 70.47813 138.49583Q70.47813 137.58958 69.9625 137.07396Q69.4625 136.54271 68.63438 136.54271Q68.13438 136.54271 67.7125 136.77708Q67.30625 137.01146 67.07188 137.37083L66.0875 137.24583L66.91563 132.83958L71.19688 132.83958L71.19688 133.83958L67.75938 133.83958L67.30625 136.15208Q68.07188 135.60521 68.91563 135.60521Q70.04063 135.60521 70.80625 136.38646Q71.5875 137.16771 71.5875 138.40208Q71.5875 139.55833 70.91563 140.41771Q70.0875 141.44896 68.66563 141.44896Q67.49375 141.44896 66.74375 140.79271Q66.00938 140.13646 65.9 139.05833Z" fill-rule="nonzero"/><path fill="#000000" d="M59.86875 111.65L58.821877 111.65L58.821877 104.93125Q58.43125 105.29063 57.80625 105.66563Q57.196877 106.025 56.7125 106.19688L56.7125 105.18125Q57.5875 104.75938 58.24375 104.18125Q58.915627 103.5875 59.196877 103.025L59.86875 103.025L59.86875 111.65ZM63.49375 111.65L63.49375 110.44688L64.69688 110.44688L64.69688 111.65L63.49375 111.65ZM65.9 109.4L67.00938 109.30625Q67.13438 110.11875 67.57188 110.525Q68.025 110.93125 68.66563 110.93125Q69.41563 110.93125 69.94688 110.35313Q70.47813 109.775 70.47813 108.8375Q70.47813 107.93125 69.9625 107.41563Q69.4625 106.88438 68.63438 106.88438Q68.13438 106.88438 67.7125 107.11875Q67.30625 107.35313 67.07188 107.7125L66.0875 107.5875L66.91563 103.18125L71.19688 103.18125L71.19688 104.18125L67.75938 104.18125L67.30625 106.49375Q68.07188 105.94688 68.91563 105.94688Q70.04063 105.94688 70.80625 106.72813Q71.5875 107.50938 71.5875 108.74375Q71.5875 109.9 70.91563 110.75938Q70.0875 111.79063 68.66563 111.79063Q67.49375 111.79063 66.74375 111.13438Q66.00938 110.47813 65.9 109.4Z" fill-rule="nonzero"/><path fill="#000000" d="M52.86875 81.99167L51.821877 81.99167L51.821877 75.27292Q51.43125 75.63229 50.80625 76.00729Q50.196877 76.36667 49.7125 76.53854L49.7125 75.52292Q50.5875 75.10104 51.24375 74.52292Q51.915627 73.92917 52.196877 73.36667L52.86875 73.36667L52.86875 81.99167ZM56.49375 81.99167L56.49375 80.78854L57.696877 80.78854L57.696877 81.99167L56.49375 81.99167ZM58.9625 74.52292L58.9625 73.50729L64.525 73.50729L64.525 74.33542Q63.7125 75.21042 62.9 76.66354Q62.103127 78.10104 61.665627 79.63229Q61.3375 80.71042 61.259377 81.99167L60.165627 81.99167Q60.18125 80.97604 60.55625 79.53854Q60.946877 78.10104 61.65 76.77292Q62.36875 75.44479 63.18125 74.52292L58.9625 74.52292ZM65.9 79.74167L67.00938 79.64792Q67.13438 80.46042 67.57188 80.86667Q68.025 81.27292 68.66563 81.27292Q69.41563 81.27292 69.94688 80.69479Q70.47813 80.11667 70.47813 79.17917Q70.47813 78.27292 69.9625 77.75729Q69.4625 77.22604 68.63438 77.22604Q68.13438 77.22604 67.7125 77.46042Q67.30625 77.69479 67.07188 78.05417L66.0875 77.92917L66.91563 73.52292L71.19688 73.52292L71.19688 74.52292L67.75938 74.52292L67.30625 76.83542Q68.07188 76.28854 68.91563 76.28854Q70.04063 76.28854 70.80625 77.06979Q71.5875 77.85104 71.5875 79.08542Q71.5875 80.24167 70.91563 81.10104Q70.0875 82.13229 68.66563 82.13229Q67.49375 82.13229 66.74375 81.47604Q66.00938 80.81979 65.9 79.74167Z" fill-rule="nonzero"/><path fill="#000000" d="M71.44688 51.317707L71.44688 52.333332L65.75938 52.333332Q65.75938 51.958332 65.88438 51.598957Q66.10313 51.020832 66.57188 50.458332Q67.05625 49.895832 67.9625 49.161457Q69.36875 48.005207 69.85313 47.333332Q70.35313 46.661457 70.35313 46.067707Q70.35313 45.442707 69.9 45.020832Q69.44688 44.583332 68.72813 44.583332Q67.9625 44.583332 67.50938 45.036457Q67.05625 45.489582 67.04063 46.302082L65.9625 46.192707Q66.07188 44.973957 66.79063 44.348957Q67.525 43.708332 68.75938 43.708332Q69.99375 43.708332 70.7125 44.395832Q71.43125 45.083332 71.43125 46.098957Q71.43125 46.614582 71.2125 47.114582Q71.00938 47.598957 70.50938 48.161457Q70.025 48.708332 68.9 49.661457Q67.94688 50.458332 67.66563 50.755207Q67.4 51.036457 67.22813 51.317707L71.44688 51.317707Z" fill-rule="nonzero"/><path fill="#000000" d="M99.88021 305.83438L100.94271 305.74063Q101.020836 306.39688 101.302086 306.80313Q101.583336 307.20938 102.16146 307.475Q102.75521 307.725 103.489586 307.725Q104.13021 307.725 104.63021 307.5375Q105.13021 307.33438 105.364586 307.00626Q105.614586 306.6625 105.614586 306.27188Q105.614586 305.86563 105.38021 305.56876Q105.145836 305.25626 104.614586 305.05313Q104.25521 304.9125 103.06771 304.63126Q101.895836 304.35 101.427086 304.1Q100.802086 303.77188 100.50521 303.30313Q100.208336 302.81876 100.208336 302.225Q100.208336 301.58438 100.56771 301.02188Q100.94271 300.44376 101.645836 300.1625Q102.364586 299.86563 103.22396 299.86563Q104.177086 299.86563 104.91146 300.17813Q105.645836 300.475 106.03646 301.08438Q106.427086 301.67813 106.458336 302.42813L105.364586 302.50626Q105.270836 301.69376 104.75521 301.2875Q104.25521 300.86563 103.270836 300.86563Q102.239586 300.86563 101.770836 301.24063Q101.302086 301.61563 101.302086 302.14688Q101.302086 302.61563 101.63021 302.9125Q101.958336 303.20938 103.333336 303.52188Q104.72396 303.83438 105.239586 304.06876Q105.989586 304.42813 106.34896 304.95938Q106.708336 305.475 106.708336 306.17813Q106.708336 306.86563 106.31771 307.475Q105.927086 308.06876 105.19271 308.4125Q104.458336 308.74063 103.53646 308.74063Q102.364586 308.74063 101.56771 308.4125Q100.78646 308.06876 100.333336 307.38126Q99.895836 306.69376 99.88021 305.83438ZM108.13021 310.99063L108.13021 302.38126L109.083336 302.38126L109.083336 303.17813Q109.427086 302.70938 109.84896 302.475Q110.28646 302.24063 110.895836 302.24063Q111.69271 302.24063 112.302086 302.64688Q112.91146 303.05313 113.208336 303.80313Q113.520836 304.55313 113.520836 305.44376Q113.520836 306.39688 113.177086 307.1625Q112.84896 307.92813 112.19271 308.33438Q111.53646 308.74063 110.81771 308.74063Q110.28646 308.74063 109.864586 308.52188Q109.44271 308.2875 109.177086 307.95938L109.177086 310.99063L108.13021 310.99063ZM109.083336 305.52188Q109.083336 306.725 109.56771 307.30313Q110.052086 307.86563 110.739586 307.86563Q111.44271 307.86563 111.94271 307.27188Q112.44271 306.67813 112.44271 305.42813Q112.44271 304.24063 111.958336 303.6625Q111.47396 303.06876 110.78646 303.06876Q110.114586 303.06876 109.59896 303.69376Q109.083336 304.31876 109.083336 305.52188ZM115.114586 308.6L115.114586 302.38126L116.06771 302.38126L116.06771 303.31876Q116.427086 302.6625 116.72396 302.45938Q117.03646 302.24063 117.41146 302.24063Q117.94271 302.24063 118.489586 302.56876L118.13021 303.55313Q117.739586 303.31876 117.364586 303.31876Q117.00521 303.31876 116.72396 303.5375Q116.458336 303.74063 116.34896 304.11563Q116.16146 304.67813 116.16146 305.33438L116.16146 308.6L115.114586 308.6ZM119.13021 301.225L119.13021 300.00626L120.19271 300.00626L120.19271 301.225L119.13021 301.225ZM119.13021 308.6L119.13021 302.38126L120.19271 302.38126L120.19271 308.6L119.13021 308.6ZM122.13021 308.6L122.13021 302.38126L123.06771 302.38126L123.06771 303.25626Q123.75521 302.24063 125.052086 302.24063Q125.614586 302.24063 126.083336 302.44376Q126.56771 302.64688 126.802086 302.975Q127.03646 303.30313 127.13021 303.74063Q127.177086 304.0375 127.177086 304.77188L127.177086 308.6L126.13021 308.6L126.13021 304.81876Q126.13021 304.1625 126.00521 303.85Q125.88021 303.5375 125.56771 303.35Q125.25521 303.14688 124.833336 303.14688Q124.16146 303.14688 123.66146 303.58438Q123.177086 304.00626 123.177086 305.19376L123.177086 308.6L122.13021 308.6ZM131.4271 307.6625L131.58334 308.58438Q131.13022 308.67813 130.78647 308.67813Q130.20834 308.67813 129.89584 308.50626Q129.58334 308.31876 129.44272 308.02188Q129.31772 307.725 129.31772 306.77188L129.31772 303.19376L128.5521 303.19376L128.5521 302.38126L129.31772 302.38126L129.31772 300.83438L130.3646 300.20938L130.3646 302.38126L131.4271 302.38126L131.4271 303.19376L130.3646 303.19376L130.3646 306.83438Q130.3646 307.2875 130.41147 307.4125Q130.47397 307.5375 130.59897 307.61563Q130.72397 307.69376 130.95834 307.69376Q131.14584 307.69376 131.4271 307.6625ZM138.8021 308.6L137.75522 308.6L137.75522 301.88126Q137.3646 302.24063 136.7396 302.61563Q136.13022 302.975 135.64584 303.14688L135.64584 302.13126Q136.52084 301.70938 137.1771 301.13126Q137.84897 300.5375 138.13022 299.975L138.8021 299.975L138.8021 308.6Z" fill-rule="nonzero"/><path fill="#000000" d="M171.74687 305.83438L172.80937 305.74063Q172.8875 306.39688 173.16875 306.80313Q173.45 307.20938 174.02812 307.475Q174.62187 307.725 175.35625 307.725Q175.99687 307.725 176.49687 307.5375Q176.99687 307.33438 177.23125 307.00626Q177.48125 306.6625 177.48125 306.27188Q177.48125 305.86563 177.24687 305.56876Q177.0125 305.25626 176.48125 305.05313Q176.12187 304.9125 174.93437 304.63126Q173.7625 304.35 173.29375 304.1Q172.66875 303.77188 172.37187 303.30313Q172.075 302.81876 172.075 302.225Q172.075 301.58438 172.43437 301.02188Q172.80937 300.44376 173.5125 300.1625Q174.23125 299.86563 175.09062 299.86563Q176.04375 299.86563 176.77812 300.17813Q177.5125 300.475 177.90312 301.08438Q178.29375 301.67813 178.325 302.42813L177.23125 302.50626Q177.1375 301.69376 176.62187 301.2875Q176.12187 300.86563 175.1375 300.86563Q174.10625 300.86563 173.6375 301.24063Q173.16875 301.61563 173.16875 302.14688Q173.16875 302.61563 173.49687 302.9125Q173.825 303.20938 175.2 303.52188Q176.59062 303.83438 177.10625 304.06876Q177.85625 304.42813 178.21562 304.95938Q178.575 305.475 178.575 306.17813Q178.575 306.86563 178.18437 307.475Q177.79375 308.06876 177.05937 308.4125Q176.325 308.74063 175.40312 308.74063Q174.23125 308.74063 173.43437 308.4125Q172.65312 308.06876 172.2 307.38126Q171.7625 306.69376 171.74687 305.83438ZM179.99687 310.99063L179.99687 302.38126L180.95 302.38126L180.95 303.17813Q181.29375 302.70938 181.71562 302.475Q182.15312 302.24063 182.7625 302.24063Q183.55937 302.24063 184.16875 302.64688Q184.77812 303.05313 185.075 303.80313Q185.3875 304.55313 185.3875 305.44376Q185.3875 306.39688 185.04375 307.1625Q184.71562 307.92813 184.05937 308.33438Q183.40312 308.74063 182.68437 308.74063Q182.15312 308.74063 181.73125 308.52188Q181.30937 308.2875 181.04375 307.95938L181.04375 310.99063L179.99687 310.99063ZM180.95 305.52188Q180.95 306.725 181.43437 307.30313Q181.91875 307.86563 182.60625 307.86563Q183.30937 307.86563 183.80937 307.27188Q184.30937 306.67813 184.30937 305.42813Q184.30937 304.24063 183.825 303.6625Q183.34062 303.06876 182.65312 303.06876Q181.98125 303.06876 181.46562 303.69376Q180.95 304.31876 180.95 305.52188ZM186.98125 308.6L186.98125 302.38126L187.93437 302.38126L187.93437 303.31876Q188.29375 302.6625 188.59062 302.45938Q188.90312 302.24063 189.27812 302.24063Q189.80937 302.24063 190.35625 302.56876L189.99687 303.55313Q189.60625 303.31876 189.23125 303.31876Q188.87187 303.31876 188.59062 303.5375Q188.325 303.74063 188.21562 304.11563Q188.02812 304.67813 188.02812 305.33438L188.02812 308.6L186.98125 308.6ZM190.99687 301.225L190.99687 300.00626L192.05937 300.00626L192.05937 301.225L190.99687 301.225ZM190.99687 308.6L190.99687 302.38126L192.05937 302.38126L192.05937 308.6L190.99687 308.6ZM193.99687 308.6L193.99687 302.38126L194.93437 302.38126L194.93437 303.25626Q195.62187 302.24063 196.91875 302.24063Q197.48125 302.24063 197.95 302.44376Q198.43437 302.64688 198.66875 302.975Q198.90312 303.30313 198.99687 303.74063Q199.04375 304.0375 199.04375 304.77188L199.04375 308.6L197.99687 308.6L197.99687 304.81876Q197.99687 304.1625 197.87187 303.85Q197.74687 303.5375 197.43437 303.35Q197.12187 303.14688 196.7 303.14688Q196.02812 303.14688 195.52812 303.58438Q195.04375 304.00626 195.04375 305.19376L195.04375 308.6L193.99687 308.6ZM203.29375 307.6625L203.45 308.58438Q202.99687 308.67813 202.65312 308.67813Q202.075 308.67813 201.7625 308.50626Q201.45 308.31876 201.30937 308.02188Q201.18437 307.725 201.18437 306.77188L201.18437 303.19376L200.41875 303.19376L200.41875 302.38126L201.18437 302.38126L201.18437 300.83438L202.23125 300.20938L202.23125 302.38126L203.29375 302.38126L203.29375 303.19376L202.23125 303.19376L202.23125 306.83438Q202.23125 307.2875 202.27812 307.4125Q202.34062 307.5375 202.46562 307.61563Q202.59062 307.69376 202.825 307.69376Q203.0125 307.69376 203.29375 307.6625ZM212.24687 307.58438L212.24687 308.6L206.55937 308.6Q206.55937 308.225 206.68437 307.86563Q206.90312 307.2875 207.37187 306.725Q207.85625 306.1625 208.7625 305.42813Q210.16875 304.27188 210.65312 303.6Q211.15312 302.92813 211.15312 302.33438Q211.15312 301.70938 210.7 301.2875Q210.24687 300.85 209.52812 300.85Q208.7625 300.85 208.30937 301.30313Q207.85625 301.75626 207.84062 302.56876L206.7625 302.45938Q206.87187 301.24063 207.59062 300.61563Q208.325 299.975 209.55937 299.975Q210.79375 299.975 211.5125 300.6625Q212.23125 301.35 212.23125 302.36563Q212.23125 302.88126 212.0125 303.38126Q211.80937 303.86563 211.30937 304.42813Q210.825 304.975 209.7 305.92813Q208.74687 306.725 208.46562 307.02188Q208.2 307.30313 208.02812 307.58438L212.24687 307.58438Z" fill-rule="nonzero"/><path fill="#000000" d="M243.61354 305.83438L244.67604 305.74063Q244.75417 306.39688 245.03542 306.80313Q245.31667 307.20938 245.89479 307.475Q246.48854 307.725 247.22292 307.725Q247.86354 307.725 248.36354 307.5375Q248.86354 307.33438 249.09792 307.00626Q249.34792 306.6625 249.34792 306.27188Q249.34792 305.86563 249.11354 305.56876Q248.87917 305.25626 248.34792 305.05313Q247.98854 304.9125 246.80104 304.63126Q245.62917 304.35 245.16042 304.1Q244.53542 303.77188 244.23854 303.30313Q243.94167 302.81876 243.94167 302.225Q243.94167 301.58438 244.30104 301.02188Q244.67604 300.44376 245.37917 300.1625Q246.09792 299.86563 246.95729 299.86563Q247.91042 299.86563 248.64479 300.17813Q249.37917 300.475 249.76979 301.08438Q250.16042 301.67813 250.19167 302.42813L249.09792 302.50626Q249.00417 301.69376 248.48854 301.2875Q247.98854 300.86563 247.00417 300.86563Q245.97292 300.86563 245.50417 301.24063Q245.03542 301.61563 245.03542 302.14688Q245.03542 302.61563 245.36354 302.9125Q245.69167 303.20938 247.06667 303.52188Q248.45729 303.83438 248.97292 304.06876Q249.72292 304.42813 250.08229 304.95938Q250.44167 305.475 250.44167 306.17813Q250.44167 306.86563 250.05104 307.475Q249.66042 308.06876 248.92604 308.4125Q248.19167 308.74063 247.26979 308.74063Q246.09792 308.74063 245.30104 308.4125Q244.51979 308.06876 244.06667 307.38126Q243.62917 306.69376 243.61354 305.83438ZM251.86354 310.99063L251.86354 302.38126L252.81667 302.38126L252.81667 303.17813Q253.16042 302.70938 253.58229 302.475Q254.01979 302.24063 254.62917 302.24063Q255.42604 302.24063 256.0354 302.64688Q256.64478 303.05313 256.94165 303.80313Q257.25415 304.55313 257.25415 305.44376Q257.25415 306.39688 256.9104 307.1625Q256.58228 307.92813 255.92604 308.33438Q255.26979 308.74063 254.55104 308.74063Q254.01979 308.74063 253.59792 308.52188Q253.17604 308.2875 252.91042 307.95938L252.91042 310.99063L251.86354 310.99063ZM252.81667 305.52188Q252.81667 306.725 253.30104 307.30313Q253.78542 307.86563 254.47292 307.86563Q255.17604 307.86563 255.67604 307.27188Q256.17603 306.67813 256.17603 305.42813Q256.17603 304.24063 255.69167 303.6625Q255.20729 303.06876 254.51979 303.06876Q253.84792 303.06876 253.33229 303.69376Q252.81667 304.31876 252.81667 305.52188ZM258.8479 308.6L258.8479 302.38126L259.80103 302.38126L259.80103 303.31876Q260.1604 302.6625 260.45728 302.45938Q260.76978 302.24063 261.14478 302.24063Q261.67603 302.24063 262.2229 302.56876L261.86353 303.55313Q261.4729 303.31876 261.0979 303.31876Q260.73853 303.31876 260.45728 303.5375Q260.19165 303.74063 260.08228 304.11563Q259.89478 304.67813 259.89478 305.33438L259.89478 308.6L258.8479 308.6ZM262.86353 301.225L262.86353 300.00626L263.92603 300.00626L263.92603 301.225L262.86353 301.225ZM262.86353 308.6L262.86353 302.38126L263.92603 302.38126L263.92603 308.6L262.86353 308.6ZM265.86353 308.6L265.86353 302.38126L266.80103 302.38126L266.80103 303.25626Q267.48853 302.24063 268.7854 302.24063Q269.3479 302.24063 269.81665 302.44376Q270.30103 302.64688 270.5354 302.975Q270.76978 303.30313 270.86353 303.74063Q270.9104 304.0375 270.9104 304.77188L270.9104 308.6L269.86353 308.6L269.86353 304.81876Q269.86353 304.1625 269.73853 303.85Q269.61353 303.5375 269.30103 303.35Q268.98853 303.14688 268.56665 303.14688Q267.89478 303.14688 267.39478 303.58438Q266.9104 304.00626 266.9104 305.19376L266.9104 308.6L265.86353 308.6ZM275.1604 307.6625L275.31665 308.58438Q274.86353 308.67813 274.51978 308.67813Q273.94165 308.67813 273.62915 308.50626Q273.31665 308.31876 273.17603 308.02188Q273.05103 307.725 273.05103 306.77188L273.05103 303.19376L272.2854 303.19376L272.2854 302.38126L273.05103 302.38126L273.05103 300.83438L274.0979 300.20938L274.0979 302.38126L275.1604 302.38126L275.1604 303.19376L274.0979 303.19376L274.0979 306.83438Q274.0979 307.2875 274.14478 307.4125Q274.20728 307.5375 274.33228 307.61563Q274.45728 307.69376 274.69165 307.69376Q274.87915 307.69376 275.1604 307.6625ZM278.56665 306.33438L279.62915 306.19376Q279.80103 307.08438 280.23853 307.49063Q280.67603 307.88126 281.30103 307.88126Q282.05103 307.88126 282.56665 307.36563Q283.08228 306.85 283.08228 306.08438Q283.08228 305.36563 282.5979 304.89688Q282.12915 304.4125 281.39478 304.4125Q281.0979 304.4125 280.64478 304.5375L280.76978 303.6Q280.87915 303.61563 280.94165 303.61563Q281.61353 303.61563 282.14478 303.27188Q282.69165 302.9125 282.69165 302.17813Q282.69165 301.6 282.30103 301.225Q281.9104 300.83438 281.2854 300.83438Q280.67603 300.83438 280.25415 301.225Q279.8479 301.61563 279.73853 302.38126L278.67603 302.19376Q278.86353 301.14688 279.55103 300.56876Q280.23853 299.975 281.25415 299.975Q281.95728 299.975 282.55103 300.2875Q283.14478 300.58438 283.45728 301.1Q283.76978 301.61563 283.76978 302.20938Q283.76978 302.75626 283.4729 303.225Q283.17603 303.67813 282.5979 303.94376Q283.3479 304.11563 283.76978 304.67813Q284.19165 305.225 284.19165 306.06876Q284.19165 307.19376 283.36353 307.975Q282.55103 308.75626 281.30103 308.75626Q280.17603 308.75626 279.42603 308.08438Q278.67603 307.39688 278.56665 306.33438Z" fill-rule="nonzero"/><path fill="#000000" d="M315.4802 305.83438L316.5427 305.74063Q316.62082 306.39688 316.90207 306.80313Q317.18332 307.20938 317.76144 307.475Q318.3552 307.725 319.08957 307.725Q319.7302 307.725 320.2302 307.5375Q320.7302 307.33438 320.96457 307.00626Q321.21457 306.6625 321.21457 306.27188Q321.21457 305.86563 320.9802 305.56876Q320.74582 305.25626 320.21457 305.05313Q319.8552 304.9125 318.6677 304.63126Q317.49582 304.35 317.02707 304.1Q316.40207 303.77188 316.1052 303.30313Q315.80832 302.81876 315.80832 302.225Q315.80832 301.58438 316.1677 301.02188Q316.5427 300.44376 317.24582 300.1625Q317.96457 299.86563 318.82394 299.86563Q319.77707 299.86563 320.51144 300.17813Q321.24582 300.475 321.63644 301.08438Q322.02707 301.67813 322.05832 302.42813L320.96457 302.50626Q320.87082 301.69376 320.3552 301.2875Q319.8552 300.86563 318.87082 300.86563Q317.83957 300.86563 317.37082 301.24063Q316.90207 301.61563 316.90207 302.14688Q316.90207 302.61563 317.2302 302.9125Q317.55832 303.20938 318.93332 303.52188Q320.32394 303.83438 320.83957 304.06876Q321.58957 304.42813 321.94894 304.95938Q322.30832 305.475 322.30832 306.17813Q322.30832 306.86563 321.9177 307.475Q321.52707 308.06876 320.7927 308.4125Q320.05832 308.74063 319.13644 308.74063Q317.96457 308.74063 317.1677 308.4125Q316.38644 308.06876 315.93332 307.38126Q315.49582 306.69376 315.4802 305.83438ZM323.7302 310.99063L323.7302 302.38126L324.68332 302.38126L324.68332 303.17813Q325.02707 302.70938 325.44894 302.475Q325.88644 302.24063 326.49582 302.24063Q327.2927 302.24063 327.90207 302.64688Q328.51144 303.05313 328.80832 303.80313Q329.12082 304.55313 329.12082 305.44376Q329.12082 306.39688 328.77707 307.1625Q328.44894 307.92813 327.7927 308.33438Q327.13644 308.74063 326.4177 308.74063Q325.88644 308.74063 325.46457 308.52188Q325.0427 308.2875 324.77707 307.95938L324.77707 310.99063L323.7302 310.99063ZM324.68332 305.52188Q324.68332 306.725 325.1677 307.30313Q325.65207 307.86563 326.33957 307.86563Q327.0427 307.86563 327.5427 307.27188Q328.0427 306.67813 328.0427 305.42813Q328.0427 304.24063 327.55832 303.6625Q327.07394 303.06876 326.38644 303.06876Q325.71457 303.06876 325.19894 303.69376Q324.68332 304.31876 324.68332 305.52188ZM330.71457 308.6L330.71457 302.38126L331.6677 302.38126L331.6677 303.31876Q332.02707 302.6625 332.32394 302.45938Q332.63644 302.24063 333.01144 302.24063Q333.5427 302.24063 334.08957 302.56876L333.7302 303.55313Q333.33957 303.31876 332.96457 303.31876Q332.6052 303.31876 332.32394 303.5375Q332.05832 303.74063 331.94894 304.11563Q331.76144 304.67813 331.76144 305.33438L331.76144 308.6L330.71457 308.6ZM334.7302 301.225L334.7302 300.00626L335.7927 300.00626L335.7927 301.225L334.7302 301.225ZM334.7302 308.6L334.7302 302.38126L335.7927 302.38126L335.7927 308.6L334.7302 308.6ZM337.7302 308.6L337.7302 302.38126L338.6677 302.38126L338.6677 303.25626Q339.3552 302.24063 340.65207 302.24063Q341.21457 302.24063 341.68332 302.44376Q342.1677 302.64688 342.40207 302.975Q342.63644 303.30313 342.7302 303.74063Q342.77707 304.0375 342.77707 304.77188L342.77707 308.6L341.7302 308.6L341.7302 304.81876Q341.7302 304.1625 341.6052 303.85Q341.4802 303.5375 341.1677 303.35Q340.8552 303.14688 340.43332 303.14688Q339.76144 303.14688 339.26144 303.58438Q338.77707 304.00626 338.77707 305.19376L338.77707 308.6L337.7302 308.6ZM347.02707 307.6625L347.18332 308.58438Q346.7302 308.67813 346.38644 308.67813Q345.80832 308.67813 345.49582 308.50626Q345.18332 308.31876 345.0427 308.02188Q344.9177 307.725 344.9177 306.77188L344.9177 303.19376L344.15207 303.19376L344.15207 302.38126L344.9177 302.38126L344.9177 300.83438L345.96457 300.20938L345.96457 302.38126L347.02707 302.38126L347.02707 303.19376L345.96457 303.19376L345.96457 306.83438Q345.96457 307.2875 346.01144 307.4125Q346.07394 307.5375 346.19894 307.61563Q346.32394 307.69376 346.55832 307.69376Q346.74582 307.69376 347.02707 307.6625ZM353.80832 308.6L353.80832 306.5375L350.08957 306.5375L350.08957 305.56876L354.01144 300.00626L354.87082 300.00626L354.87082 305.56876L356.02707 305.56876L356.02707 306.5375L354.87082 306.5375L354.87082 308.6L353.80832 308.6ZM353.80832 305.56876L353.80832 301.70938L351.12082 305.56876L353.80832 305.56876Z" fill-rule="nonzero"/><path fill="#000000" d="M387.34686 305.83438L388.40936 305.74063Q388.4875 306.39688 388.76874 306.80313Q389.05 307.20938 389.6281 307.475Q390.22186 307.725 390.95624 307.725Q391.59686 307.725 392.09686 307.5375Q392.59686 307.33438 392.83124 307.00626Q393.08124 306.6625 393.08124 306.27188Q393.08124 305.86563 392.84686 305.56876Q392.6125 305.25626 392.08124 305.05313Q391.72186 304.9125 390.53436 304.63126Q389.3625 304.35 388.89374 304.1Q388.26874 303.77188 387.97186 303.30313Q387.675 302.81876 387.675 302.225Q387.675 301.58438 388.03436 301.02188Q388.40936 300.44376 389.1125 300.1625Q389.83124 299.86563 390.6906 299.86563Q391.64374 299.86563 392.3781 300.17813Q393.1125 300.475 393.5031 301.08438Q393.89374 301.67813 393.925 302.42813L392.83124 302.50626Q392.7375 301.69376 392.22186 301.2875Q391.72186 300.86563 390.7375 300.86563Q389.70624 300.86563 389.2375 301.24063Q388.76874 301.61563 388.76874 302.14688Q388.76874 302.61563 389.09686 302.9125Q389.425 303.20938 390.8 303.52188Q392.1906 303.83438 392.70624 304.06876Q393.45624 304.42813 393.8156 304.95938Q394.175 305.475 394.175 306.17813Q394.175 306.86563 393.78436 307.475Q393.39374 308.06876 392.65936 308.4125Q391.925 308.74063 391.0031 308.74063Q389.83124 308.74063 389.03436 308.4125Q388.2531 308.06876 387.8 307.38126Q387.3625 306.69376 387.34686 305.83438ZM395.59686 310.99063L395.59686 302.38126L396.55 302.38126L396.55 303.17813Q396.89374 302.70938 397.3156 302.475Q397.7531 302.24063 398.3625 302.24063Q399.15936 302.24063 399.76874 302.64688Q400.3781 303.05313 400.675 303.80313Q400.9875 304.55313 400.9875 305.44376Q400.9875 306.39688 400.64374 307.1625Q400.3156 307.92813 399.65936 308.33438Q399.0031 308.74063 398.28436 308.74063Q397.7531 308.74063 397.33124 308.52188Q396.90936 308.2875 396.64374 307.95938L396.64374 310.99063L395.59686 310.99063ZM396.55 305.52188Q396.55 306.725 397.03436 307.30313Q397.51874 307.86563 398.20624 307.86563Q398.90936 307.86563 399.40936 307.27188Q399.90936 306.67813 399.90936 305.42813Q399.90936 304.24063 399.425 303.6625Q398.9406 303.06876 398.2531 303.06876Q397.58124 303.06876 397.0656 303.69376Q396.55 304.31876 396.55 305.52188ZM402.58124 308.6L402.58124 302.38126L403.53436 302.38126L403.53436 303.31876Q403.89374 302.6625 404.1906 302.45938Q404.5031 302.24063 404.8781 302.24063Q405.40936 302.24063 405.95624 302.56876L405.59686 303.55313Q405.20624 303.31876 404.83124 303.31876Q404.47186 303.31876 404.1906 303.5375Q403.925 303.74063 403.8156 304.11563Q403.6281 304.67813 403.6281 305.33438L403.6281 308.6L402.58124 308.6ZM406.59686 301.225L406.59686 300.00626L407.65936 300.00626L407.65936 301.225L406.59686 301.225ZM406.59686 308.6L406.59686 302.38126L407.65936 302.38126L407.65936 308.6L406.59686 308.6ZM409.59686 308.6L409.59686 302.38126L410.53436 302.38126L410.53436 303.25626Q411.22186 302.24063 412.51874 302.24063Q413.08124 302.24063 413.55 302.44376Q414.03436 302.64688 414.26874 302.975Q414.5031 303.30313 414.59686 303.74063Q414.64374 304.0375 414.64374 304.77188L414.64374 308.6L413.59686 308.6L413.59686 304.81876Q413.59686 304.1625 413.47186 303.85Q413.34686 303.5375 413.03436 303.35Q412.72186 303.14688 412.3 303.14688Q411.6281 303.14688 411.1281 303.58438Q410.64374 304.00626 410.64374 305.19376L410.64374 308.6L409.59686 308.6ZM418.89374 307.6625L419.05 308.58438Q418.59686 308.67813 418.2531 308.67813Q417.675 308.67813 417.3625 308.50626Q417.05 308.31876 416.90936 308.02188Q416.78436 307.725 416.78436 306.77188L416.78436 303.19376L416.01874 303.19376L416.01874 302.38126L416.78436 302.38126L416.78436 300.83438L417.83124 300.20938L417.83124 302.38126L418.89374 302.38126L418.89374 303.19376L417.83124 303.19376L417.83124 306.83438Q417.83124 307.2875 417.8781 307.4125Q417.9406 307.5375 418.0656 307.61563Q418.1906 307.69376 418.425 307.69376Q418.6125 307.69376 418.89374 307.6625ZM422.3 306.35L423.40936 306.25626Q423.53436 307.06876 423.97186 307.475Q424.425 307.88126 425.0656 307.88126Q425.8156 307.88126 426.34686 307.30313Q426.8781 306.725 426.8781 305.7875Q426.8781 304.88126 426.3625 304.36563Q425.8625 303.83438 425.03436 303.83438Q424.53436 303.83438 424.1125 304.06876Q423.70624 304.30313 423.47186 304.6625L422.4875 304.5375L423.3156 300.13126L427.59686 300.13126L427.59686 301.13126L424.15936 301.13126L423.70624 303.44376Q424.47186 302.89688 425.3156 302.89688Q426.4406 302.89688 427.20624 303.67813Q427.9875 304.45938 427.9875 305.69376Q427.9875 306.85 427.3156 307.70938Q426.4875 308.74063 425.0656 308.74063Q423.89374 308.74063 423.14374 308.08438Q422.40936 307.42813 422.3 306.35Z" fill-rule="nonzero"/><path fill="#000000" d="M459.21353 305.83438L460.27603 305.74063Q460.35416 306.39688 460.6354 306.80313Q460.91666 307.20938 461.49478 307.475Q462.08853 307.725 462.8229 307.725Q463.46353 307.725 463.96353 307.5375Q464.46353 307.33438 464.6979 307.00626Q464.9479 306.6625 464.9479 306.27188Q464.9479 305.86563 464.71353 305.56876Q464.47916 305.25626 463.9479 305.05313Q463.58853 304.9125 462.40103 304.63126Q461.22916 304.35 460.7604 304.1Q460.1354 303.77188 459.83853 303.30313Q459.54166 302.81876 459.54166 302.225Q459.54166 301.58438 459.90103 301.02188Q460.27603 300.44376 460.97916 300.1625Q461.6979 299.86563 462.55728 299.86563Q463.5104 299.86563 464.24478 300.17813Q464.97916 300.475 465.36978 301.08438Q465.7604 301.67813 465.79166 302.42813L464.6979 302.50626Q464.60416 301.69376 464.08853 301.2875Q463.58853 300.86563 462.60416 300.86563Q461.5729 300.86563 461.10416 301.24063Q460.6354 301.61563 460.6354 302.14688Q460.6354 302.61563 460.96353 302.9125Q461.29166 303.20938 462.66666 303.52188Q464.05728 303.83438 464.5729 304.06876Q465.3229 304.42813 465.68228 304.95938Q466.04166 305.475 466.04166 306.17813Q466.04166 306.86563 465.65103 307.475Q465.2604 308.06876 464.52603 308.4125Q463.79166 308.74063 462.86978 308.74063Q461.6979 308.74063 460.90103 308.4125Q460.11978 308.06876 459.66666 307.38126Q459.22916 306.69376 459.21353 305.83438ZM467.46353 310.99063L467.46353 302.38126L468.41666 302.38126L468.41666 303.17813Q468.7604 302.70938 469.18228 302.475Q469.61978 302.24063 470.22916 302.24063Q471.02603 302.24063 471.6354 302.64688Q472.24478 303.05313 472.54166 303.80313Q472.85416 304.55313 472.85416 305.44376Q472.85416 306.39688 472.5104 307.1625Q472.18228 307.92813 471.52603 308.33438Q470.86978 308.74063 470.15103 308.74063Q469.61978 308.74063 469.1979 308.52188Q468.77603 308.2875 468.5104 307.95938L468.5104 310.99063L467.46353 310.99063ZM468.41666 305.52188Q468.41666 306.725 468.90103 307.30313Q469.3854 307.86563 470.0729 307.86563Q470.77603 307.86563 471.27603 307.27188Q471.77603 306.67813 471.77603 305.42813Q471.77603 304.24063 471.29166 303.6625Q470.80728 303.06876 470.11978 303.06876Q469.4479 303.06876 468.93228 303.69376Q468.41666 304.31876 468.41666 305.52188ZM474.4479 308.6L474.4479 302.38126L475.40103 302.38126L475.40103 303.31876Q475.7604 302.6625 476.05728 302.45938Q476.36978 302.24063 476.74478 302.24063Q477.27603 302.24063 477.8229 302.56876L477.46353 303.55313Q477.0729 303.31876 476.6979 303.31876Q476.33853 303.31876 476.05728 303.5375Q475.79166 303.74063 475.68228 304.11563Q475.49478 304.67813 475.49478 305.33438L475.49478 308.6L474.4479 308.6ZM478.46353 301.225L478.46353 300.00626L479.52603 300.00626L479.52603 301.225L478.46353 301.225ZM478.46353 308.6L478.46353 302.38126L479.52603 302.38126L479.52603 308.6L478.46353 308.6ZM481.46353 308.6L481.46353 302.38126L482.40103 302.38126L482.40103 303.25626Q483.08853 302.24063 484.3854 302.24063Q484.9479 302.24063 485.41666 302.44376Q485.90103 302.64688 486.1354 302.975Q486.36978 303.30313 486.46353 303.74063Q486.5104 304.0375 486.5104 304.77188L486.5104 308.6L485.46353 308.6L485.46353 304.81876Q485.46353 304.1625 485.33853 303.85Q485.21353 303.5375 484.90103 303.35Q484.58853 303.14688 484.16666 303.14688Q483.49478 303.14688 482.99478 303.58438Q482.5104 304.00626 482.5104 305.19376L482.5104 308.6L481.46353 308.6ZM490.7604 307.6625L490.91666 308.58438Q490.46353 308.67813 490.11978 308.67813Q489.54166 308.67813 489.22916 308.50626Q488.91666 308.31876 488.77603 308.02188Q488.65103 307.725 488.65103 306.77188L488.65103 303.19376L487.8854 303.19376L487.8854 302.38126L488.65103 302.38126L488.65103 300.83438L489.6979 300.20938L489.6979 302.38126L490.7604 302.38126L490.7604 303.19376L489.6979 303.19376L489.6979 306.83438Q489.6979 307.2875 489.74478 307.4125Q489.80728 307.5375 489.93228 307.61563Q490.05728 307.69376 490.29166 307.69376Q490.47916 307.69376 490.7604 307.6625ZM499.6354 302.11563L498.58853 302.19376Q498.4479 301.56876 498.1979 301.2875Q497.7604 300.83438 497.1354 300.83438Q496.6354 300.83438 496.24478 301.11563Q495.7604 301.49063 495.46353 302.19376Q495.18228 302.88126 495.16666 304.1625Q495.54166 303.58438 496.08853 303.30313Q496.65103 303.02188 497.2604 303.02188Q498.30728 303.02188 499.04166 303.80313Q499.79166 304.58438 499.79166 305.80313Q499.79166 306.61563 499.43228 307.31876Q499.08853 308.00626 498.47916 308.38126Q497.86978 308.74063 497.10416 308.74063Q495.77603 308.74063 494.9479 307.77188Q494.11978 306.80313 494.11978 304.58438Q494.11978 302.08438 495.04166 300.95938Q495.83853 299.975 497.1979 299.975Q498.21353 299.975 498.85416 300.55313Q499.5104 301.11563 499.6354 302.11563ZM495.33853 305.81876Q495.33853 306.36563 495.55728 306.86563Q495.79166 307.35 496.1979 307.61563Q496.61978 307.88126 497.08853 307.88126Q497.74478 307.88126 498.22916 307.35Q498.71353 306.80313 498.71353 305.88126Q498.71353 304.99063 498.22916 304.475Q497.7604 303.95938 497.04166 303.95938Q496.3229 303.95938 495.8229 304.475Q495.33853 304.99063 495.33853 305.81876Z" fill-rule="nonzero"/><path fill="#4285f4" d="M258.0 23.4C258.0 26.713709 255.3137 29.4 252.0 29.4C248.6863 29.4 246.0 26.713709 246.0 23.4C246.0 20.086292 248.6863 17.4 252.0 17.4C255.3137 17.4 258.0 20.086292 258.0 23.4Z" fill-rule="nonzero"/><path fill="#1a1a1a" d="M273.0625 24.384375L274.1875 24.68125Q273.82812 26.071875 272.90625 26.80625Q271.98438 27.540625 270.64062 27.540625Q269.25 27.540625 268.375 26.978125Q267.5 26.415625 267.04688 25.353125Q266.59375 24.275 266.59375 23.040625Q266.59375 21.696875 267.10938 20.696875Q267.625 19.696875 268.5625 19.18125Q269.51562 18.665625 270.65625 18.665625Q271.9375 18.665625 272.8125 19.321875Q273.70312 19.978125 274.04688 21.165625L272.92188 21.43125Q272.625 20.49375 272.04688 20.071875Q271.48438 19.634375 270.625 19.634375Q269.64062 19.634375 268.96875 20.11875Q268.3125 20.5875 268.03125 21.384375Q267.76562 22.18125 267.76562 23.040625Q267.76562 24.134375 268.07812 24.946875Q268.40625 25.759375 269.07812 26.165625Q269.75 26.571875 270.54688 26.571875Q271.5 26.571875 272.15625 26.025Q272.82812 25.478125 273.0625 24.384375ZM275.92188 27.4L275.92188 18.80625L279.17188 18.80625Q280.01562 18.80625 280.46875 18.884375Q281.10938 18.99375 281.53125 19.290625Q281.96875 19.5875 282.21875 20.11875Q282.48438 20.65 282.48438 21.290625Q282.48438 22.384375 281.78125 23.15Q281.09375 23.9 279.26562 23.9L277.0625 23.9L277.0625 27.4L275.92188 27.4ZM277.0625 22.9L279.28125 22.9Q280.39062 22.9 280.84375 22.49375Q281.3125 22.071875 281.3125 21.321875Q281.3125 20.790625 281.03125 20.415625Q280.76562 20.025 280.32812 19.9Q280.03125 19.821875 279.26562 19.821875L277.0625 19.821875L277.0625 22.9ZM284.125 27.4L284.125 18.80625L285.25 18.80625L285.25 27.4L284.125 27.4Z" fill-rule="nonzero"/></svg>