<svg version="1.1" viewBox="0.0 0.0 532.0 328.0" fill="none" stroke="none" stroke-linecap="square" stroke-miterlimit="10" width="532" height="328" xmlns:xlink="http://www.w3.org/1999/xlink" xmlns="http://www.w3.org/2000/svg"><path fill="#ffffff" d="M0 0L532.0 0L532.0 328.0L0 328.0L0 0Z" fill-rule="nonzero"/><path stroke="#cccccc" stroke-width="1.0" stroke-linecap="butt" d="M85.5 285.5L515.5 285.5" fill-rule="nonzero"/><path stroke="#cccccc" stroke-width="1.0" stroke-linecap="butt" d="M85.5 255.5L515.5 255.5" fill-rule="nonzero"/><path stroke="#cccccc" stroke-width="1.0" stroke-linecap="butt" d="M85.5 226.5L515.5 226.5" fill-rule="nonzero"/><path stroke="#cccccc" stroke-width="1.0" stroke-linecap="butt" d="M85.5 196.5L515.5 196.5" fill-rule="nonzero"/><path stroke="#333333" stroke-width="1.0" stroke-linecap="butt" d="M85.5 166.5L515.5 166.5" fill-rule="nonzero"/><path stroke="#cccccc" stroke-width="1.0" stroke-linecap="butt" d="M85.5 137.5L515.5 137.5" fill-rule="nonzero"/><path stroke="#cccccc" stroke-width="1.0" stroke-linecap="butt" d="M85.5 107.5L515.5 107.5" fill-rule="nonzero"/><path stroke="#cccccc" stroke-width="1.0" stroke-linecap="butt" d="M85.5 77.5L515.5 77.5" fill-rule="nonzero"/><path stroke="#cccccc" stroke-width="1.0" stroke-linecap="butt" d="M85.5 48.5L515.5 48.5" fill-rule="nonzero"/><path stroke="#000000" stroke-width="1.0" stroke-linecap="butt" stroke-opacity="0.0" d="M85.5 275.5L515.5 275.5" fill-rule="nonzero"/><path stroke="#000000" stroke-width="1.0" stroke-linecap="butt" stroke-opacity="0.0" d="M85.5 265.5L515.5 265.5" fill-rule="nonzero"/><path stroke="#000000" stroke-width="1.0" stroke-linecap="butt" stroke-opacity="0.0" d="M85.5 246.5L515.5 246.5" fill-rule="nonzero"/><path stroke="#000000" stroke-width="1.0" stroke-linecap="butt" stroke-opacity="0.0" d="M85.5 236.5L515.5 236.5" fill-rule="nonzero"/><path stroke="#000000" stroke-width="1.0" stroke-linecap="butt" stroke-opacity="0.0" d="M85.5 216.5L515.5 216.5" fill-rule="nonzero"/><path stroke="#000000" stroke-width="1.0" stroke-linecap="butt" stroke-opacity="0.0" d="M85.5 206.5L515.5 206.5" fill-rule="nonzero"/><path stroke="#000000" stroke-width="1.0" stroke-linecap="butt" stroke-opacity="0.0" d="M85.5 186.5L515.5 186.5" fill-rule="nonzero"/><path stroke="#000000" stroke-width="1.0" stroke-linecap="butt" stroke-opacity="0.0" d="M85.5 176.5L515.5 176.5" fill-rule="nonzero"/><path stroke="#000000" stroke-width="1.0" stroke-linecap="butt" stroke-opacity="0.0" d="M85.5 157.5L515.5 157.5" fill-rule="nonzero"/><path stroke="#000000" stroke-width="1.0" stroke-linecap="butt" stroke-opacity="0.0" d="M85.5 147.5L515.5 147.5" fill-rule="nonzero"/><path stroke="#000000" stroke-width="1.0" stroke-linecap="butt" stroke-opacity="0.0" d="M85.5 127.5L515.5 127.5" fill-rule="nonzero"/><path stroke="#000000" stroke-width="1.0" stroke-linecap="butt" stroke-opacity="0.0" d="M85.5 117.5L515.5 117.5" fill-rule="nonzero"/><path stroke="#000000" stroke-width="1.0" stroke-linecap="butt" stroke-opacity="0.0" d="M85.5 97.5L515.5 97.5" fill-rule="nonzero"/><path stroke="#000000" stroke-width="1.0" stroke-linecap="butt" stroke-opacity="0.0" d="M85.5 87.5L515.5 87.5" fill-rule="nonzero"/><path stroke="#000000" stroke-width="1.0" stroke-linecap="butt" stroke-opacity="0.0" d="M85.5 68.5L515.5 68.5" fill-rule="nonzero"/><path stroke="#000000" stroke-width="1.0" stroke-linecap="butt" stroke-opacity="0.0" d="M85.5 58.5L515.5 58.5" fill-rule="nonzero"/><path stroke="#000000" stroke-width="1.0" stroke-linecap="butt" d="M515.5 285.5L85.5 285.5" fill-rule="nonzero"/><path stroke="#000000" stroke-width="1.0" stroke-linecap="butt" d="M85.5 285.5L85.5 48.5" fill-rule="nonzero"/><clipPath id="id_0"><path d="M85.4 48.333332L515.6 48.333332L515.6 285.6L85.4 285.6L85.4 48.333332Z" clip-rule="nonzero"/></clipPath><path stroke="#4285f4" stroke-width="2.0" stroke-linecap="butt" clip-path="url(#id_0)" d="M139.175 176.43005C139.175 176.43005 210.875 181.5932 246.725 182.3099C282.575 183.02661 318.425 180.63893 354.275 180.73027C390.125 180.82161 461.825 182.85794 461.825 182.85794" fill-rule="nonzero"/><path stroke="#ea4335" stroke-width="2.0" stroke-linecap="butt" clip-path="url(#id_0)" d="M139.175 168.45706C139.175 168.45706 210.875 173.42506 246.725 174.41867C282.575 175.41226 318.425 174.41867 354.275 174.41867C390.125 174.41867 461.825 174.41867 461.825 174.41867" fill-rule="nonzero"/><path stroke="#fbbc04" stroke-width="2.0" stroke-linecap="butt" stroke-opacity="0.7019608" clip-path="url(#id_0)" d="M139.175 70.984886C139.175 70.984886 210.875 70.984886 246.725 70.984886C282.575 70.984886 318.425 70.984886 354.275 70.984886C390.125 70.984886 461.825 70.984886 461.825 70.984886" fill-rule="nonzero"/><path stroke="#34a853" stroke-width="2.0" stroke-linecap="butt" clip-path="url(#id_0)" d="M139.175 262.94846C139.175 262.94846 210.875 262.94846 246.725 262.94846C282.575 262.94846 318.425 262.94846 354.275 262.94846C390.125 262.94846 461.825 262.94846 461.825 262.94846" fill-rule="nonzero"/><path fill="#4285f4" clip-path="url(#id_0)" d="M142.675 176.43005C142.675 178.36304 141.108 179.93005 139.175 179.93005C137.242 179.93005 135.675 178.36304 135.675 176.43005C135.675 174.49706 137.242 172.93005 139.175 172.93005C141.108 172.93005 142.675 174.49706 142.675 176.43005Z" fill-rule="nonzero"/><path fill="#4285f4" clip-path="url(#id_0)" d="M250.225 182.3099C250.225 184.2429 248.65799 185.8099 246.725 185.8099C244.792 185.8099 243.225 184.2429 243.225 182.3099C243.225 180.3769 244.792 178.8099 246.725 178.8099C248.65799 178.8099 250.225 180.3769 250.225 182.3099Z" fill-rule="nonzero"/><path fill="#4285f4" clip-path="url(#id_0)" d="M357.775 180.73027C357.775 182.66327 356.208 184.23027 354.275 184.23027C352.342 184.23027 350.775 182.66327 350.775 180.73027C350.775 178.79727 352.342 177.23027 354.275 177.23027C356.208 177.23027 357.775 178.79727 357.775 180.73027Z" fill-rule="nonzero"/><path fill="#4285f4" clip-path="url(#id_0)" d="M465.325 182.85794C465.325 184.79094 463.758 186.35794 461.825 186.35794C459.892 186.35794 458.325 184.79094 458.325 182.85794C458.325 180.92494 459.892 179.35794 461.825 179.35794C463.758 179.35794 465.325 180.92494 465.325 182.85794Z" fill-rule="nonzero"/><path fill="#ea4335" clip-path="url(#id_0)" d="M142.675 168.45706C142.675 170.39006 141.108 171.95706 139.175 171.95706C137.242 171.95706 135.675 170.39006 135.675 168.45706C135.675 166.52406 137.242 164.95706 139.175 164.95706C141.108 164.95706 142.675 166.52406 142.675 168.45706Z" fill-rule="nonzero"/><path fill="#ea4335" clip-path="url(#id_0)" d="M250.225 174.41867C250.225 176.35167 248.65799 177.91867 246.725 177.91867C244.792 177.91867 243.225 176.35167 243.225 174.41867C243.225 172.48567 244.792 170.91867 246.725 170.91867C248.65799 170.91867 250.225 172.48567 250.225 174.41867Z" fill-rule="nonzero"/><path fill="#ea4335" clip-path="url(#id_0)" d="M357.775 174.41867C357.775 176.35167 356.208 177.91867 354.275 177.91867C352.342 177.91867 350.775 176.35167 350.775 174.41867C350.775 172.48567 352.342 170.91867 354.275 170.91867C356.208 170.91867 357.775 172.48567 357.775 174.41867Z" fill-rule="nonzero"/><path fill="#ea4335" clip-path="url(#id_0)" d="M465.325 174.41867C465.325 176.35167 463.758 177.91867 461.825 177.91867C459.892 177.91867 458.325 176.35167 458.325 174.41867C458.325 172.48567 459.892 170.91867 461.825 170.91867C463.758 170.91867 465.325 172.48567 465.325 174.41867Z" fill-rule="nonzero"/><path fill="#fbbc04" fill-opacity="0.7019608" clip-path="url(#id_0)" d="M142.675 70.984886C142.675 72.917885 141.108 74.484886 139.175 74.484886C137.242 74.484886 135.675 72.917885 135.675 70.984886C135.675 69.05189 137.242 67.484886 139.175 67.484886C141.108 67.484886 142.675 69.05189 142.675 70.984886Z" fill-rule="nonzero"/><path fill="#fbbc04" fill-opacity="0.7019608" clip-path="url(#id_0)" d="M250.225 70.984886C250.225 72.917885 248.65799 74.484886 246.725 74.484886C244.792 74.484886 243.225 72.917885 243.225 70.984886C243.225 69.05189 244.792 67.484886 246.725 67.484886C248.65799 67.484886 250.225 69.05189 250.225 70.984886Z" fill-rule="nonzero"/><path fill="#fbbc04" fill-opacity="0.7019608" clip-path="url(#id_0)" d="M357.775 70.984886C357.775 72.917885 356.208 74.484886 354.275 74.484886C352.342 74.484886 350.775 72.917885 350.775 70.984886C350.775 69.05189 352.342 67.484886 354.275 67.484886C356.208 67.484886 357.775 69.05189 357.775 70.984886Z" fill-rule="nonzero"/><path fill="#fbbc04" fill-opacity="0.7019608" clip-path="url(#id_0)" d="M465.325 70.984886C465.325 72.917885 463.758 74.484886 461.825 74.484886C459.892 74.484886 458.325 72.917885 458.325 70.984886C458.325 69.05189 459.892 67.484886 461.825 67.484886C463.758 67.484886 465.325 69.05189 465.325 70.984886Z" fill-rule="nonzero"/><path fill="#34a853" clip-path="url(#id_0)" d="M142.675 262.94846C142.675 264.88144 141.108 266.44846 139.175 266.44846C137.242 266.44846 135.675 264.88144 135.675 262.94846C135.675 261.01544 137.242 259.44846 139.175 259.44846C141.108 259.44846 142.675 261.01544 142.675 262.94846Z" fill-rule="nonzero"/><path fill="#34a853" clip-path="url(#id_0)" d="M250.225 262.94846C250.225 264.88144 248.65799 266.44846 246.725 266.44846C244.792 266.44846 243.225 264.88144 243.225 262.94846C243.225 261.01544 244.792 259.44846 246.725 259.44846C248.65799 259.44846 250.225 261.01544 250.225 262.94846Z" fill-rule="nonzero"/><path fill="#34a853" clip-path="url(#id_0)" d="M357.775 262.94846C357.775 264.88144 356.208 266.44846 354.275 266.44846C352.342 266.44846 350.775 264.88144 350.775 262.94846C350.775 261.01544 352.342 259.44846 354.275 259.44846C356.208 259.44846 357.775 261.01544 357.775 262.94846Z" fill-rule="nonzero"/><path fill="#34a853" clip-path="url(#id_0)" d="M465.325 262.94846C465.325 264.88144 463.758 266.44846 461.825 266.44846C459.892 266.44846 458.325 264.88144 458.325 262.94846C458.325 261.01544 459.892 259.44846 461.825 259.44846C463.758 259.44846 465.325 261.01544 465.325 262.94846Z" fill-rule="nonzero"/><path stroke="#000000" stroke-width="1.0" stroke-linecap="butt" d="M139.5 291.5L139.5 279.5" fill-rule="nonzero"/><path stroke="#000000" stroke-width="1.0" stroke-linecap="butt" d="M246.5 291.5L246.5 279.5" fill-rule="nonzero"/><path stroke="#000000" stroke-width="1.0" stroke-linecap="butt" d="M354.5 291.5L354.5 279.5" fill-rule="nonzero"/><path stroke="#000000" stroke-width="1.0" stroke-linecap="butt" d="M461.5 291.5L461.5 279.5" fill-rule="nonzero"/><path stroke="#000000" stroke-width="1.0" stroke-linecap="butt" d="M79.5 285.5L91.5 285.5" fill-rule="nonzero"/><path stroke="#000000" stroke-width="1.0" stroke-linecap="butt" d="M79.5 255.5L91.5 255.5" fill-rule="nonzero"/><path stroke="#000000" stroke-width="1.0" stroke-linecap="butt" d="M79.5 226.5L91.5 226.5" fill-rule="nonzero"/><path stroke="#000000" stroke-width="1.0" stroke-linecap="butt" d="M79.5 196.5L91.5 196.5" fill-rule="nonzero"/><path stroke="#000000" stroke-width="1.0" stroke-linecap="butt" d="M79.5 166.5L91.5 166.5" fill-rule="nonzero"/><path stroke="#000000" stroke-width="1.0" stroke-linecap="butt" d="M79.5 137.5L91.5 137.5" fill-rule="nonzero"/><path stroke="#000000" stroke-width="1.0" stroke-linecap="butt" d="M79.5 107.5L91.5 107.5" fill-rule="nonzero"/><path stroke="#000000" stroke-width="1.0" stroke-linecap="butt" d="M79.5 77.5L91.5 77.5" fill-rule="nonzero"/><path stroke="#000000" stroke-width="1.0" stroke-linecap="butt" d="M79.5 48.5L91.5 48.5" fill-rule="nonzero"/><path fill="#000000" d="M48.775 287.02188L48.775 285.95938L52.025 285.95938L52.025 287.02188L48.775 287.02188ZM54.525 284.94376Q53.86875 284.69376 53.540627 284.25626Q53.228127 283.80313 53.228127 283.19376Q53.228127 282.25626 53.9 281.61563Q54.5875 280.975 55.696877 280.975Q56.821877 280.975 57.509377 281.63126Q58.196877 282.2875 58.196877 283.225Q58.196877 283.81876 57.884377 284.25626Q57.571877 284.69376 56.93125 284.94376Q57.728127 285.19376 58.134377 285.77188Q58.540627 286.35 58.540627 287.14688Q58.540627 288.24063 57.759377 288.99063Q56.99375 289.74063 55.7125 289.74063Q54.446877 289.74063 53.665627 288.99063Q52.884377 288.24063 52.884377 287.11563Q52.884377 286.27188 53.30625 285.70938Q53.74375 285.14688 54.525 284.94376ZM54.30625 283.14688Q54.30625 283.75626 54.696877 284.14688Q55.103127 284.5375 55.728127 284.5375Q56.3375 284.5375 56.728127 284.1625Q57.11875 283.77188 57.11875 283.20938Q57.11875 282.63126 56.7125 282.24063Q56.30625 281.83438 55.7125 281.83438Q55.103127 281.83438 54.696877 282.225Q54.30625 282.61563 54.30625 283.14688ZM53.978127 287.11563Q53.978127 287.56876 54.18125 287.99063Q54.4 288.4125 54.821877 288.64688Q55.24375 288.88126 55.728127 288.88126Q56.478127 288.88126 56.9625 288.39688Q57.4625 287.9125 57.4625 287.1625Q57.4625 286.39688 56.9625 285.89688Q56.4625 285.39688 55.696877 285.39688Q54.946877 285.39688 54.4625 285.89688Q53.978127 286.38126 53.978127 287.11563ZM59.9 285.36563Q59.9 283.83438 60.2125 282.9125Q60.525 281.975 61.134377 281.475Q61.759377 280.975 62.696877 280.975Q63.384377 280.975 63.9 281.25626Q64.43125 281.5375 64.775 282.06876Q65.11875 282.58438 65.30625 283.33438Q65.49375 284.08438 65.49375 285.36563Q65.49375 286.88126 65.18125 287.80313Q64.88438 288.725 64.25938 289.24063Q63.65 289.74063 62.696877 289.74063Q61.4625 289.74063 60.74375 288.85Q59.9 287.7875 59.9 285.36563ZM60.978127 285.36563Q60.978127 287.475 61.478127 288.17813Q61.978127 288.88126 62.696877 288.88126Q63.43125 288.88126 63.915627 288.17813Q64.41563 287.475 64.41563 285.36563Q64.41563 283.24063 63.915627 282.55313Q63.43125 281.85 62.68125 281.85Q61.9625 281.85 61.525 282.45938Q60.978127 283.24063 60.978127 285.36563ZM66.9 285.36563Q66.9 283.83438 67.2125 282.9125Q67.525 281.975 68.13438 281.475Q68.75938 280.975 69.69688 280.975Q70.38438 280.975 70.9 281.25626Q71.43125 281.5375 71.775 282.06876Q72.11875 282.58438 72.30625 283.33438Q72.49375 284.08438 72.49375 285.36563Q72.49375 286.88126 72.18125 287.80313Q71.88438 288.725 71.25938 289.24063Q70.65 289.74063 69.69688 289.74063Q68.4625 289.74063 67.74375 288.85Q66.9 287.7875 66.9 285.36563ZM67.97813 285.36563Q67.97813 287.475 68.47813 288.17813Q68.97813 288.88126 69.69688 288.88126Q70.43125 288.88126 70.91563 288.17813Q71.41563 287.475 71.41563 285.36563Q71.41563 283.24063 70.91563 282.55313Q70.43125 281.85 69.68125 281.85Q68.9625 281.85 68.525 282.45938Q67.97813 283.24063 67.97813 285.36563Z" fill-rule="nonzero"/><path fill="#000000" d="M48.775 257.36356L48.775 256.30106L52.025 256.30106L52.025 257.36356L48.775 257.36356ZM58.36875 253.4573L57.321877 253.53543Q57.18125 252.91043 56.93125 252.62918Q56.49375 252.17606 55.86875 252.17606Q55.36875 252.17606 54.978127 252.4573Q54.49375 252.8323 54.196877 253.53543Q53.915627 254.22293 53.9 255.50418Q54.275 254.92606 54.821877 254.6448Q55.384377 254.36356 55.99375 254.36356Q57.040627 254.36356 57.775 255.1448Q58.525 255.92606 58.525 257.1448Q58.525 257.9573 58.165627 258.66043Q57.821877 259.34793 57.2125 259.72293Q56.603127 260.0823 55.8375 260.0823Q54.509377 260.0823 53.68125 259.11356Q52.853127 258.1448 52.853127 255.92606Q52.853127 253.42606 53.775 252.30106Q54.571877 251.31668 55.93125 251.31668Q56.946877 251.31668 57.5875 251.8948Q58.24375 252.4573 58.36875 253.4573ZM54.071877 257.16043Q54.071877 257.7073 54.290627 258.2073Q54.525 258.69168 54.93125 258.9573Q55.353127 259.22293 55.821877 259.22293Q56.478127 259.22293 56.9625 258.69168Q57.446877 258.1448 57.446877 257.22293Q57.446877 256.3323 56.9625 255.81668Q56.49375 255.30106 55.775 255.30106Q55.05625 255.30106 54.55625 255.81668Q54.071877 256.3323 54.071877 257.16043ZM59.9 255.7073Q59.9 254.17606 60.2125 253.25418Q60.525 252.31668 61.134377 251.81668Q61.759377 251.31668 62.696877 251.31668Q63.384377 251.31668 63.9 251.59793Q64.43125 251.87918 64.775 252.41043Q65.11875 252.92606 65.30625 253.67606Q65.49375 254.42606 65.49375 255.7073Q65.49375 257.22293 65.18125 258.1448Q64.88438 259.06668 64.25938 259.5823Q63.65 260.0823 62.696877 260.0823Q61.4625 260.0823 60.74375 259.19168Q59.9 258.12918 59.9 255.7073ZM60.978127 255.7073Q60.978127 257.81668 61.478127 258.5198Q61.978127 259.22293 62.696877 259.22293Q63.43125 259.22293 63.915627 258.5198Q64.41563 257.81668 64.41563 255.7073Q64.41563 253.5823 63.915627 252.8948Q63.43125 252.19168 62.68125 252.19168Q61.9625 252.19168 61.525 252.80106Q60.978127 253.5823 60.978127 255.7073ZM66.9 255.7073Q66.9 254.17606 67.2125 253.25418Q67.525 252.31668 68.13438 251.81668Q68.75938 251.31668 69.69688 251.31668Q70.38438 251.31668 70.9 251.59793Q71.43125 251.87918 71.775 252.41043Q72.11875 252.92606 72.30625 253.67606Q72.49375 254.42606 72.49375 255.7073Q72.49375 257.22293 72.18125 258.1448Q71.88438 259.06668 71.25938 259.5823Q70.65 260.0823 69.69688 260.0823Q68.4625 260.0823 67.74375 259.19168Q66.9 258.12918 66.9 255.7073ZM67.97813 255.7073Q67.97813 257.81668 68.47813 258.5198Q68.97813 259.22293 69.69688 259.22293Q70.43125 259.22293 70.91563 258.5198Q71.41563 257.81668 71.41563 255.7073Q71.41563 253.5823 70.91563 252.8948Q70.43125 252.19168 69.68125 252.19168Q68.9625 252.19168 68.525 252.80106Q67.97813 253.5823 67.97813 255.7073Z" fill-rule="nonzero"/><path fill="#000000" d="M48.775 227.70522L48.775 226.64272L52.025 226.64272L52.025 227.70522L48.775 227.70522ZM56.275 230.28334L56.275 228.22084L52.55625 228.22084L52.55625 227.25209L56.478127 221.68959L57.3375 221.68959L57.3375 227.25209L58.49375 227.25209L58.49375 228.22084L57.3375 228.22084L57.3375 230.28334L56.275 230.28334ZM56.275 227.25209L56.275 223.39272L53.5875 227.25209L56.275 227.25209ZM59.9 226.04897Q59.9 224.51772 60.2125 223.59584Q60.525 222.65834 61.134377 222.15834Q61.759377 221.65834 62.696877 221.65834Q63.384377 221.65834 63.9 221.93959Q64.43125 222.22084 64.775 222.75209Q65.11875 223.26772 65.30625 224.01772Q65.49375 224.76772 65.49375 226.04897Q65.49375 227.56459 65.18125 228.48647Q64.88438 229.40834 64.25938 229.92397Q63.65 230.42397 62.696877 230.42397Q61.4625 230.42397 60.74375 229.53334Q59.9 228.47084 59.9 226.04897ZM60.978127 226.04897Q60.978127 228.15834 61.478127 228.86147Q61.978127 229.56459 62.696877 229.56459Q63.43125 229.56459 63.915627 228.86147Q64.41563 228.15834 64.41563 226.04897Q64.41563 223.92397 63.915627 223.23647Q63.43125 222.53334 62.68125 222.53334Q61.9625 222.53334 61.525 223.14272Q60.978127 223.92397 60.978127 226.04897ZM66.9 226.04897Q66.9 224.51772 67.2125 223.59584Q67.525 222.65834 68.13438 222.15834Q68.75938 221.65834 69.69688 221.65834Q70.38438 221.65834 70.9 221.93959Q71.43125 222.22084 71.775 222.75209Q72.11875 223.26772 72.30625 224.01772Q72.49375 224.76772 72.49375 226.04897Q72.49375 227.56459 72.18125 228.48647Q71.88438 229.40834 71.25938 229.92397Q70.65 230.42397 69.69688 230.42397Q68.4625 230.42397 67.74375 229.53334Q66.9 228.47084 66.9 226.04897ZM67.97813 226.04897Q67.97813 228.15834 68.47813 228.86147Q68.97813 229.56459 69.69688 229.56459Q70.43125 229.56459 70.91563 228.86147Q71.41563 228.15834 71.41563 226.04897Q71.41563 223.92397 70.91563 223.23647Q70.43125 222.53334 69.68125 222.53334Q68.9625 222.53334 68.525 223.14272Q67.97813 223.92397 67.97813 226.04897Z" fill-rule="nonzero"/><path fill="#000000" d="M48.775 198.04688L48.775 196.98438L52.025 196.98438L52.025 198.04688L48.775 198.04688ZM58.446877 199.60938L58.446877 200.625L52.759377 200.625Q52.759377 200.25 52.884377 199.89062Q53.103127 199.3125 53.571877 198.75Q54.05625 198.1875 54.9625 197.45312Q56.36875 196.29688 56.853127 195.625Q57.353127 194.95312 57.353127 194.35938Q57.353127 193.73438 56.9 193.3125Q56.446877 192.875 55.728127 192.875Q54.9625 192.875 54.509377 193.32812Q54.05625 193.78125 54.040627 194.59375L52.9625 194.48438Q53.071877 193.26562 53.790627 192.64062Q54.525 192.0 55.759377 192.0Q56.99375 192.0 57.7125 192.6875Q58.43125 193.375 58.43125 194.39062Q58.43125 194.90625 58.2125 195.40625Q58.009377 195.89062 57.509377 196.45312Q57.025 197.0 55.9 197.95312Q54.946877 198.75 54.665627 199.04688Q54.4 199.32812 54.228127 199.60938L58.446877 199.60938ZM59.9 196.39062Q59.9 194.85938 60.2125 193.9375Q60.525 193.0 61.134377 192.5Q61.759377 192.0 62.696877 192.0Q63.384377 192.0 63.9 192.28125Q64.43125 192.5625 64.775 193.09375Q65.11875 193.60938 65.30625 194.35938Q65.49375 195.10938 65.49375 196.39062Q65.49375 197.90625 65.18125 198.82812Q64.88438 199.75 64.25938 200.26562Q63.65 200.76562 62.696877 200.76562Q61.4625 200.76562 60.74375 199.875Q59.9 198.8125 59.9 196.39062ZM60.978127 196.39062Q60.978127 198.5 61.478127 199.20312Q61.978127 199.90625 62.696877 199.90625Q63.43125 199.90625 63.915627 199.20312Q64.41563 198.5 64.41563 196.39062Q64.41563 194.26562 63.915627 193.57812Q63.43125 192.875 62.68125 192.875Q61.9625 192.875 61.525 193.48438Q60.978127 194.26562 60.978127 196.39062ZM66.9 196.39062Q66.9 194.85938 67.2125 193.9375Q67.525 193.0 68.13438 192.5Q68.75938 192.0 69.69688 192.0Q70.38438 192.0 70.9 192.28125Q71.43125 192.5625 71.775 193.09375Q72.11875 193.60938 72.30625 194.35938Q72.49375 195.10938 72.49375 196.39062Q72.49375 197.90625 72.18125 198.82812Q71.88438 199.75 71.25938 200.26562Q70.65 200.76562 69.69688 200.76562Q68.4625 200.76562 67.74375 199.875Q66.9 198.8125 66.9 196.39062ZM67.97813 196.39062Q67.97813 198.5 68.47813 199.20312Q68.97813 199.90625 69.69688 199.90625Q70.43125 199.90625 70.91563 199.20312Q71.41563 198.5 71.41563 196.39062Q71.41563 194.26562 70.91563 193.57812Q70.43125 192.875 69.68125 192.875Q68.9625 192.875 68.525 193.48438Q67.97813 194.26562 67.97813 196.39062Z" fill-rule="nonzero"/><path fill="#000000" d="M66.9 166.73228Q66.9 165.20103 67.2125 164.27916Q67.525 163.34166 68.13438 162.84166Q68.75938 162.34166 69.69688 162.34166Q70.38438 162.34166 70.9 162.62291Q71.43125 162.90416 71.775 163.43541Q72.11875 163.95103 72.30625 164.70103Q72.49375 165.45103 72.49375 166.73228Q72.49375 168.24791 72.18125 169.16978Q71.88438 170.09166 71.25938 170.60728Q70.65 171.10728 69.69688 171.10728Q68.4625 171.10728 67.74375 170.21666Q66.9 169.15416 66.9 166.73228ZM67.97813 166.73228Q67.97813 168.84166 68.47813 169.54478Q68.97813 170.24791 69.69688 170.24791Q70.43125 170.24791 70.91563 169.54478Q71.41563 168.84166 71.41563 166.73228Q71.41563 164.60728 70.91563 163.91978Q70.43125 163.21666 69.68125 163.21666Q68.9625 163.21666 68.525 163.82603Q67.97813 164.60728 67.97813 166.73228Z" fill-rule="nonzero"/><path fill="#000000" d="M58.446877 140.29271L58.446877 141.30833L52.759377 141.30833Q52.759377 140.93333 52.884377 140.57396Q53.103127 139.99583 53.571877 139.43333Q54.05625 138.87083 54.9625 138.13646Q56.36875 136.98021 56.853127 136.30833Q57.353127 135.63646 57.353127 135.04271Q57.353127 134.41771 56.9 133.99583Q56.446877 133.55833 55.728127 133.55833Q54.9625 133.55833 54.509377 134.01146Q54.05625 134.46458 54.040627 135.27708L52.9625 135.16771Q53.071877 133.94896 53.790627 133.32396Q54.525 132.68333 55.759377 132.68333Q56.99375 132.68333 57.7125 133.37083Q58.43125 134.05833 58.43125 135.07396Q58.43125 135.58958 58.2125 136.08958Q58.009377 136.57396 57.509377 137.13646Q57.025 137.68333 55.9 138.63646Q54.946877 139.43333 54.665627 139.73021Q54.4 140.01146 54.228127 140.29271L58.446877 140.29271ZM59.9 137.07396Q59.9 135.54271 60.2125 134.62083Q60.525 133.68333 61.134377 133.18333Q61.759377 132.68333 62.696877 132.68333Q63.384377 132.68333 63.9 132.96458Q64.43125 133.24583 64.775 133.77708Q65.11875 134.29271 65.30625 135.04271Q65.49375 135.79271 65.49375 137.07396Q65.49375 138.58958 65.18125 139.51146Q64.88438 140.43333 64.25938 140.94896Q63.65 141.44896 62.696877 141.44896Q61.4625 141.44896 60.74375 140.55833Q59.9 139.49583 59.9 137.07396ZM60.978127 137.07396Q60.978127 139.18333 61.478127 139.88646Q61.978127 140.58958 62.696877 140.58958Q63.43125 140.58958 63.915627 139.88646Q64.41563 139.18333 64.41563 137.07396Q64.41563 134.94896 63.915627 134.26146Q63.43125 133.55833 62.68125 133.55833Q61.9625 133.55833 61.525 134.16771Q60.978127 134.94896 60.978127 137.07396ZM66.9 137.07396Q66.9 135.54271 67.2125 134.62083Q67.525 133.68333 68.13438 133.18333Q68.75938 132.68333 69.69688 132.68333Q70.38438 132.68333 70.9 132.96458Q71.43125 133.24583 71.775 133.77708Q72.11875 134.29271 72.30625 135.04271Q72.49375 135.79271 72.49375 137.07396Q72.49375 138.58958 72.18125 139.51146Q71.88438 140.43333 71.25938 140.94896Q70.65 141.44896 69.69688 141.44896Q68.4625 141.44896 67.74375 140.55833Q66.9 139.49583 66.9 137.07396ZM67.97813 137.07396Q67.97813 139.18333 68.47813 139.88646Q68.97813 140.58958 69.69688 140.58958Q70.43125 140.58958 70.91563 139.88646Q71.41563 139.18333 71.41563 137.07396Q71.41563 134.94896 70.91563 134.26146Q70.43125 133.55833 69.68125 133.55833Q68.9625 133.55833 68.525 134.16771Q67.97813 134.94896 67.97813 137.07396Z" fill-rule="nonzero"/><path fill="#000000" d="M56.275 111.65L56.275 109.5875L52.55625 109.5875L52.55625 108.61875L56.478127 103.05625L57.3375 103.05625L57.3375 108.61875L58.49375 108.61875L58.49375 109.5875L57.3375 109.5875L57.3375 111.65L56.275 111.65ZM56.275 108.61875L56.275 104.75938L53.5875 108.61875L56.275 108.61875ZM59.9 107.41563Q59.9 105.88438 60.2125 104.9625Q60.525 104.025 61.134377 103.525Q61.759377 103.025 62.696877 103.025Q63.384377 103.025 63.9 103.30625Q64.43125 103.5875 64.775 104.11875Q65.11875 104.63438 65.30625 105.38438Q65.49375 106.13438 65.49375 107.41563Q65.49375 108.93125 65.18125 109.85313Q64.88438 110.775 64.25938 111.29063Q63.65 111.79063 62.696877 111.79063Q61.4625 111.79063 60.74375 110.9Q59.9 109.8375 59.9 107.41563ZM60.978127 107.41563Q60.978127 109.525 61.478127 110.22813Q61.978127 110.93125 62.696877 110.93125Q63.43125 110.93125 63.915627 110.22813Q64.41563 109.525 64.41563 107.41563Q64.41563 105.29063 63.915627 104.60313Q63.43125 103.9 62.68125 103.9Q61.9625 103.9 61.525 104.50938Q60.978127 105.29063 60.978127 107.41563ZM66.9 107.41563Q66.9 105.88438 67.2125 104.9625Q67.525 104.025 68.13438 103.525Q68.75938 103.025 69.69688 103.025Q70.38438 103.025 70.9 103.30625Q71.43125 103.5875 71.775 104.11875Q72.11875 104.63438 72.30625 105.38438Q72.49375 106.13438 72.49375 107.41563Q72.49375 108.93125 72.18125 109.85313Q71.88438 110.775 71.25938 111.29063Q70.65 111.79063 69.69688 111.79063Q68.4625 111.79063 67.74375 110.9Q66.9 109.8375 66.9 107.41563ZM67.97813 107.41563Q67.97813 109.525 68.47813 110.22813Q68.97813 110.93125 69.69688 110.93125Q70.43125 110.93125 70.91563 110.22813Q71.41563 109.525 71.41563 107.41563Q71.41563 105.29063 70.91563 104.60313Q70.43125 103.9 69.68125 103.9Q68.9625 103.9 68.525 104.50938Q67.97813 105.29063 67.97813 107.41563Z" fill-rule="nonzero"/><path fill="#000000" d="M58.36875 75.50729L57.321877 75.58542Q57.18125 74.96042 56.93125 74.67917Q56.49375 74.22604 55.86875 74.22604Q55.36875 74.22604 54.978127 74.50729Q54.49375 74.88229 54.196877 75.58542Q53.915627 76.27292 53.9 77.55417Q54.275 76.97604 54.821877 76.69479Q55.384377 76.41354 55.99375 76.41354Q57.040627 76.41354 57.775 77.19479Q58.525 77.97604 58.525 79.19479Q58.525 80.00729 58.165627 80.71042Q57.821877 81.39792 57.2125 81.77292Q56.603127 82.13229 55.8375 82.13229Q54.509377 82.13229 53.68125 81.16354Q52.853127 80.19479 52.853127 77.97604Q52.853127 75.47604 53.775 74.35104Q54.571877 73.36667 55.93125 73.36667Q56.946877 73.36667 57.5875 73.94479Q58.24375 74.50729 58.36875 75.50729ZM54.071877 79.21042Q54.071877 79.75729 54.290627 80.25729Q54.525 80.74167 54.93125 81.00729Q55.353127 81.27292 55.821877 81.27292Q56.478127 81.27292 56.9625 80.74167Q57.446877 80.19479 57.446877 79.27292Q57.446877 78.38229 56.9625 77.86667Q56.49375 77.35104 55.775 77.35104Q55.05625 77.35104 54.55625 77.86667Q54.071877 78.38229 54.071877 79.21042ZM59.9 77.75729Q59.9 76.22604 60.2125 75.30417Q60.525 74.36667 61.134377 73.86667Q61.759377 73.36667 62.696877 73.36667Q63.384377 73.36667 63.9 73.64792Q64.43125 73.92917 64.775 74.46042Q65.11875 74.97604 65.30625 75.72604Q65.49375 76.47604 65.49375 77.75729Q65.49375 79.27292 65.18125 80.19479Q64.88438 81.11667 64.25938 81.63229Q63.65 82.13229 62.696877 82.13229Q61.4625 82.13229 60.74375 81.24167Q59.9 80.17917 59.9 77.75729ZM60.978127 77.75729Q60.978127 79.86667 61.478127 80.56979Q61.978127 81.27292 62.696877 81.27292Q63.43125 81.27292 63.915627 80.56979Q64.41563 79.86667 64.41563 77.75729Q64.41563 75.63229 63.915627 74.94479Q63.43125 74.24167 62.68125 74.24167Q61.9625 74.24167 61.525 74.85104Q60.978127 75.63229 60.978127 77.75729ZM66.9 77.75729Q66.9 76.22604 67.2125 75.30417Q67.525 74.36667 68.13438 73.86667Q68.75938 73.36667 69.69688 73.36667Q70.38438 73.36667 70.9 73.64792Q71.43125 73.92917 71.775 74.46042Q72.11875 74.97604 72.30625 75.72604Q72.49375 76.47604 72.49375 77.75729Q72.49375 79.27292 72.18125 80.19479Q71.88438 81.11667 71.25938 81.63229Q70.65 82.13229 69.69688 82.13229Q68.4625 82.13229 67.74375 81.24167Q66.9 80.17917 66.9 77.75729ZM67.97813 77.75729Q67.97813 79.86667 68.47813 80.56979Q68.97813 81.27292 69.69688 81.27292Q70.43125 81.27292 70.91563 80.56979Q71.41563 79.86667 71.41563 77.75729Q71.41563 75.63229 70.91563 74.94479Q70.43125 74.24167 69.68125 74.24167Q68.9625 74.24167 68.525 74.85104Q67.97813 75.63229 67.97813 77.75729Z" fill-rule="nonzero"/><path fill="#000000" d="M54.525 47.677082Q53.86875 47.427082 53.540627 46.989582Q53.228127 46.536457 53.228127 45.927082Q53.228127 44.989582 53.9 44.348957Q54.5875 43.708332 55.696877 43.708332Q56.821877 43.708332 57.509377 44.364582Q58.196877 45.020832 58.196877 45.958332Q58.196877 46.552082 57.884377 46.989582Q57.571877 47.427082 56.93125 47.677082Q57.728127 47.927082 58.134377 48.505207Q58.540627 49.083332 58.540627 49.880207Q58.540627 50.973957 57.759377 51.723957Q56.99375 52.473957 55.7125 52.473957Q54.446877 52.473957 53.665627 51.723957Q52.884377 50.973957 52.884377 49.848957Q52.884377 49.005207 53.30625 48.442707Q53.74375 47.880207 54.525 47.677082ZM54.30625 45.880207Q54.30625 46.489582 54.696877 46.880207Q55.103127 47.270832 55.728127 47.270832Q56.3375 47.270832 56.728127 46.895832Q57.11875 46.505207 57.11875 45.942707Q57.11875 45.364582 56.7125 44.973957Q56.30625 44.567707 55.7125 44.567707Q55.103127 44.567707 54.696877 44.958332Q54.30625 45.348957 54.30625 45.880207ZM53.978127 49.848957Q53.978127 50.302082 54.18125 50.723957Q54.4 51.145832 54.821877 51.380207Q55.24375 51.614582 55.728127 51.614582Q56.478127 51.614582 56.9625 51.130207Q57.4625 50.645832 57.4625 49.895832Q57.4625 49.130207 56.9625 48.630207Q56.4625 48.130207 55.696877 48.130207Q54.946877 48.130207 54.4625 48.630207Q53.978127 49.114582 53.978127 49.848957ZM59.9 48.098957Q59.9 46.567707 60.2125 45.645832Q60.525 44.708332 61.134377 44.208332Q61.759377 43.708332 62.696877 43.708332Q63.384377 43.708332 63.9 43.989582Q64.43125 44.270832 64.775 44.802082Q65.11875 45.317707 65.30625 46.067707Q65.49375 46.817707 65.49375 48.098957Q65.49375 49.614582 65.18125 50.536457Q64.88438 51.458332 64.25938 51.973957Q63.65 52.473957 62.696877 52.473957Q61.4625 52.473957 60.74375 51.583332Q59.9 50.520832 59.9 48.098957ZM60.978127 48.098957Q60.978127 50.208332 61.478127 50.911457Q61.978127 51.614582 62.696877 51.614582Q63.43125 51.614582 63.915627 50.911457Q64.41563 50.208332 64.41563 48.098957Q64.41563 45.973957 63.915627 45.286457Q63.43125 44.583332 62.68125 44.583332Q61.9625 44.583332 61.525 45.192707Q60.978127 45.973957 60.978127 48.098957ZM66.9 48.098957Q66.9 46.567707 67.2125 45.645832Q67.525 44.708332 68.13438 44.208332Q68.75938 43.708332 69.69688 43.708332Q70.38438 43.708332 70.9 43.989582Q71.43125 44.270832 71.775 44.802082Q72.11875 45.317707 72.30625 46.067707Q72.49375 46.817707 72.49375 48.098957Q72.49375 49.614582 72.18125 50.536457Q71.88438 51.458332 71.25938 51.973957Q70.65 52.473957 69.69688 52.473957Q68.4625 52.473957 67.74375 51.583332Q66.9 50.520832 66.9 48.098957ZM67.97813 48.098957Q67.97813 50.208332 68.47813 50.911457Q68.97813 51.614582 69.69688 51.614582Q70.43125 51.614582 70.91563 50.911457Q71.41563 50.208332 71.41563 48.098957Q71.41563 45.973957 70.91563 45.286457Q70.43125 44.583332 69.68125 44.583332Q68.9625 44.583332 68.525 45.192707Q67.97813 45.973957 67.97813 48.098957Z" fill-rule="nonzero"/><path fill="#000000" d="M118.72188 305.83438L119.78438 305.74063Q119.8625 306.39688 120.14375 306.80313Q120.425 307.20938 121.00313 307.475Q121.59688 307.725 122.33125 307.725Q122.97188 307.725 123.47188 307.5375Q123.97188 307.33438 124.20625 307.00626Q124.45625 306.6625 124.45625 306.27188Q124.45625 305.86563 124.22188 305.56876Q123.9875 305.25626 123.45625 305.05313Q123.09688 304.9125 121.90938 304.63126Q120.7375 304.35 120.26875 304.1Q119.64375 303.77188 119.34688 303.30313Q119.05 302.81876 119.05 302.225Q119.05 301.58438 119.40938 301.02188Q119.78438 300.44376 120.4875 300.1625Q121.20625 299.86563 122.06563 299.86563Q123.01875 299.86563 123.75313 300.17813Q124.4875 300.475 124.87813 301.08438Q125.26875 301.67813 125.3 302.42813L124.20625 302.50626Q124.1125 301.69376 123.59688 301.2875Q123.09688 300.86563 122.1125 300.86563Q121.08125 300.86563 120.6125 301.24063Q120.14375 301.61563 120.14375 302.14688Q120.14375 302.61563 120.47188 302.9125Q120.8 303.20938 122.175 303.52188Q123.56563 303.83438 124.08125 304.06876Q124.83125 304.42813 125.19063 304.95938Q125.55 305.475 125.55 306.17813Q125.55 306.86563 125.15938 307.475Q124.76875 308.06876 124.03438 308.4125Q123.3 308.74063 122.37813 308.74063Q121.20625 308.74063 120.40938 308.4125Q119.62813 308.06876 119.175 307.38126Q118.7375 306.69376 118.72188 305.83438ZM126.97188 310.99063L126.97188 302.38126L127.925 302.38126L127.925 303.17813Q128.26875 302.70938 128.69063 302.475Q129.12813 302.24063 129.7375 302.24063Q130.53438 302.24063 131.14375 302.64688Q131.75313 303.05313 132.05 303.80313Q132.3625 304.55313 132.3625 305.44376Q132.3625 306.39688 132.01875 307.1625Q131.69063 307.92813 131.03438 308.33438Q130.37813 308.74063 129.65938 308.74063Q129.12813 308.74063 128.70625 308.52188Q128.28438 308.2875 128.01875 307.95938L128.01875 310.99063L126.97188 310.99063ZM127.925 305.52188Q127.925 306.725 128.40938 307.30313Q128.89375 307.86563 129.58125 307.86563Q130.28438 307.86563 130.78438 307.27188Q131.28438 306.67813 131.28438 305.42813Q131.28438 304.24063 130.8 303.6625Q130.31563 303.06876 129.62813 303.06876Q128.95625 303.06876 128.44063 303.69376Q127.925 304.31876 127.925 305.52188ZM133.95625 308.6L133.95625 302.38126L134.90938 302.38126L134.90938 303.31876Q135.26875 302.6625 135.56563 302.45938Q135.87813 302.24063 136.25313 302.24063Q136.78438 302.24063 137.33125 302.56876L136.97188 303.55313Q136.58125 303.31876 136.20625 303.31876Q135.84688 303.31876 135.56563 303.5375Q135.3 303.74063 135.19063 304.11563Q135.00313 304.67813 135.00313 305.33438L135.00313 308.6L133.95625 308.6ZM137.97188 301.225L137.97188 300.00626L139.03438 300.00626L139.03438 301.225L137.97188 301.225ZM137.97188 308.6L137.97188 302.38126L139.03438 302.38126L139.03438 308.6L137.97188 308.6ZM140.97188 308.6L140.97188 302.38126L141.90938 302.38126L141.90938 303.25626Q142.59688 302.24063 143.89375 302.24063Q144.45625 302.24063 144.925 302.44376Q145.40938 302.64688 145.64375 302.975Q145.87813 303.30313 145.97188 303.74063Q146.01875 304.0375 146.01875 304.77188L146.01875 308.6L144.97188 308.6L144.97188 304.81876Q144.97188 304.1625 144.84688 303.85Q144.72188 303.5375 144.40938 303.35Q144.09688 303.14688 143.675 303.14688Q143.00313 303.14688 142.50313 303.58438Q142.01875 304.00626 142.01875 305.19376L142.01875 308.6L140.97188 308.6ZM150.26875 307.6625L150.425 308.58438Q149.97188 308.67813 149.62813 308.67813Q149.05 308.67813 148.7375 308.50626Q148.425 308.31876 148.28438 308.02188Q148.15938 307.725 148.15938 306.77188L148.15938 303.19376L147.39375 303.19376L147.39375 302.38126L148.15938 302.38126L148.15938 300.83438L149.20625 300.20938L149.20625 302.38126L150.26875 302.38126L150.26875 303.19376L149.20625 303.19376L149.20625 306.83438Q149.20625 307.2875 149.25313 307.4125Q149.31563 307.5375 149.44063 307.61563Q149.56563 307.69376 149.8 307.69376Q149.9875 307.69376 150.26875 307.6625ZM157.64375 308.6L156.59688 308.6L156.59688 301.88126Q156.20625 302.24063 155.58125 302.61563Q154.97188 302.975 154.4875 303.14688L154.4875 302.13126Q155.3625 301.70938 156.01875 301.13126Q156.69063 300.5375 156.97188 299.975L157.64375 299.975L157.64375 308.6Z" fill-rule="nonzero"/><path fill="#000000" d="M226.27188 305.83438L227.33438 305.74063Q227.4125 306.39688 227.69376 306.80313Q227.975 307.20938 228.55313 307.475Q229.14688 307.725 229.88126 307.725Q230.52188 307.725 231.02188 307.5375Q231.52188 307.33438 231.75626 307.00626Q232.00626 306.6625 232.00626 306.27188Q232.00626 305.86563 231.77188 305.56876Q231.5375 305.25626 231.00626 305.05313Q230.64688 304.9125 229.45938 304.63126Q228.2875 304.35 227.81876 304.1Q227.19376 303.77188 226.89688 303.30313Q226.6 302.81876 226.6 302.225Q226.6 301.58438 226.95938 301.02188Q227.33438 300.44376 228.0375 300.1625Q228.75626 299.86563 229.61563 299.86563Q230.56876 299.86563 231.30313 300.17813Q232.0375 300.475 232.42813 301.08438Q232.81876 301.67813 232.85 302.42813L231.75626 302.50626Q231.6625 301.69376 231.14688 301.2875Q230.64688 300.86563 229.6625 300.86563Q228.63126 300.86563 228.1625 301.24063Q227.69376 301.61563 227.69376 302.14688Q227.69376 302.61563 228.02188 302.9125Q228.35 303.20938 229.725 303.52188Q231.11563 303.83438 231.63126 304.06876Q232.38126 304.42813 232.74063 304.95938Q233.1 305.475 233.1 306.17813Q233.1 306.86563 232.70938 307.475Q232.31876 308.06876 231.58438 308.4125Q230.85 308.74063 229.92813 308.74063Q228.75626 308.74063 227.95938 308.4125Q227.17813 308.06876 226.725 307.38126Q226.2875 306.69376 226.27188 305.83438ZM234.52188 310.99063L234.52188 302.38126L235.475 302.38126L235.475 303.17813Q235.81876 302.70938 236.24063 302.475Q236.67813 302.24063 237.2875 302.24063Q238.08438 302.24063 238.69376 302.64688Q239.30313 303.05313 239.6 303.80313Q239.9125 304.55313 239.9125 305.44376Q239.9125 306.39688 239.56876 307.1625Q239.24063 307.92813 238.58438 308.33438Q237.92813 308.74063 237.20938 308.74063Q236.67813 308.74063 236.25626 308.52188Q235.83438 308.2875 235.56876 307.95938L235.56876 310.99063L234.52188 310.99063ZM235.475 305.52188Q235.475 306.725 235.95938 307.30313Q236.44376 307.86563 237.13126 307.86563Q237.83438 307.86563 238.33438 307.27188Q238.83438 306.67813 238.83438 305.42813Q238.83438 304.24063 238.35 303.6625Q237.86563 303.06876 237.17813 303.06876Q236.50626 303.06876 235.99063 303.69376Q235.475 304.31876 235.475 305.52188ZM241.50626 308.6L241.50626 302.38126L242.45938 302.38126L242.45938 303.31876Q242.81876 302.6625 243.11563 302.45938Q243.42813 302.24063 243.80313 302.24063Q244.33438 302.24063 244.88126 302.56876L244.52188 303.55313Q244.13126 303.31876 243.75626 303.31876Q243.39688 303.31876 243.11563 303.5375Q242.85 303.74063 242.74063 304.11563Q242.55313 304.67813 242.55313 305.33438L242.55313 308.6L241.50626 308.6ZM245.52188 301.225L245.52188 300.00626L246.58438 300.00626L246.58438 301.225L245.52188 301.225ZM245.52188 308.6L245.52188 302.38126L246.58438 302.38126L246.58438 308.6L245.52188 308.6ZM248.52188 308.6L248.52188 302.38126L249.45938 302.38126L249.45938 303.25626Q250.14688 302.24063 251.44376 302.24063Q252.00626 302.24063 252.475 302.44376Q252.95938 302.64688 253.19376 302.975Q253.42813 303.30313 253.52188 303.74063Q253.56876 304.0375 253.56876 304.77188L253.56876 308.6L252.52188 308.6L252.52188 304.81876Q252.52188 304.1625 252.39688 303.85Q252.27188 303.5375 251.95938 303.35Q251.64688 303.14688 251.225 303.14688Q250.55313 303.14688 250.05313 303.58438Q249.56876 304.00626 249.56876 305.19376L249.56876 308.6L248.52188 308.6ZM257.81876 307.6625L257.975 308.58438Q257.52188 308.67813 257.17813 308.67813Q256.6 308.67813 256.2875 308.50626Q255.975 308.31876 255.83438 308.02188Q255.70938 307.725 255.70938 306.77188L255.70938 303.19376L254.94376 303.19376L254.94376 302.38126L255.70938 302.38126L255.70938 300.83438L256.75626 300.20938L256.75626 302.38126L257.81876 302.38126L257.81876 303.19376L256.75626 303.19376L256.75626 306.83438Q256.75626 307.2875 256.80313 307.4125Q256.86563 307.5375 256.99063 307.61563Q257.11563 307.69376 257.35 307.69376Q257.5375 307.69376 257.81876 307.6625ZM266.77188 307.58438L266.77188 308.6L261.08438 308.6Q261.08438 308.225 261.20938 307.86563Q261.42813 307.2875 261.89688 306.725Q262.38126 306.1625 263.2875 305.42813Q264.69376 304.27188 265.17813 303.6Q265.67813 302.92813 265.67813 302.33438Q265.67813 301.70938 265.225 301.2875Q264.77188 300.85 264.05313 300.85Q263.2875 300.85 262.83438 301.30313Q262.38126 301.75626 262.36563 302.56876L261.2875 302.45938Q261.39688 301.24063 262.11563 300.61563Q262.85 299.975 264.08438 299.975Q265.31876 299.975 266.0375 300.6625Q266.75626 301.35 266.75626 302.36563Q266.75626 302.88126 266.5375 303.38126Q266.33438 303.86563 265.83438 304.42813Q265.35 304.975 264.225 305.92813Q263.27188 306.725 262.99063 307.02188Q262.725 307.30313 262.55313 307.58438L266.77188 307.58438Z" fill-rule="nonzero"/><path fill="#000000" d="M333.82187 305.83438L334.88437 305.74063Q334.9625 306.39688 335.24374 306.80313Q335.525 307.20938 336.10312 307.475Q336.69687 307.725 337.43124 307.725Q338.07187 307.725 338.57187 307.5375Q339.07187 307.33438 339.30624 307.00626Q339.55624 306.6625 339.55624 306.27188Q339.55624 305.86563 339.32187 305.56876Q339.0875 305.25626 338.55624 305.05313Q338.19687 304.9125 337.00937 304.63126Q335.8375 304.35 335.36874 304.1Q334.74374 303.77188 334.44687 303.30313Q334.15 302.81876 334.15 302.225Q334.15 301.58438 334.50937 301.02188Q334.88437 300.44376 335.5875 300.1625Q336.30624 299.86563 337.16562 299.86563Q338.11874 299.86563 338.85312 300.17813Q339.5875 300.475 339.97812 301.08438Q340.36874 301.67813 340.4 302.42813L339.30624 302.50626Q339.2125 301.69376 338.69687 301.2875Q338.19687 300.86563 337.2125 300.86563Q336.18124 300.86563 335.7125 301.24063Q335.24374 301.61563 335.24374 302.14688Q335.24374 302.61563 335.57187 302.9125Q335.9 303.20938 337.275 303.52188Q338.66562 303.83438 339.18124 304.06876Q339.93124 304.42813 340.29062 304.95938Q340.65 305.475 340.65 306.17813Q340.65 306.86563 340.25937 307.475Q339.86874 308.06876 339.13437 308.4125Q338.4 308.74063 337.47812 308.74063Q336.30624 308.74063 335.50937 308.4125Q334.72812 308.06876 334.275 307.38126Q333.8375 306.69376 333.82187 305.83438ZM342.07187 310.99063L342.07187 302.38126L343.025 302.38126L343.025 303.17813Q343.36874 302.70938 343.79062 302.475Q344.22812 302.24063 344.8375 302.24063Q345.63437 302.24063 346.24374 302.64688Q346.85312 303.05313 347.15 303.80313Q347.4625 304.55313 347.4625 305.44376Q347.4625 306.39688 347.11874 307.1625Q346.79062 307.92813 346.13437 308.33438Q345.47812 308.74063 344.75937 308.74063Q344.22812 308.74063 343.80624 308.52188Q343.38437 308.2875 343.11874 307.95938L343.11874 310.99063L342.07187 310.99063ZM343.025 305.52188Q343.025 306.725 343.50937 307.30313Q343.99374 307.86563 344.68124 307.86563Q345.38437 307.86563 345.88437 307.27188Q346.38437 306.67813 346.38437 305.42813Q346.38437 304.24063 345.9 303.6625Q345.41562 303.06876 344.72812 303.06876Q344.05624 303.06876 343.54062 303.69376Q343.025 304.31876 343.025 305.52188ZM349.05624 308.6L349.05624 302.38126L350.00937 302.38126L350.00937 303.31876Q350.36874 302.6625 350.66562 302.45938Q350.97812 302.24063 351.35312 302.24063Q351.88437 302.24063 352.43124 302.56876L352.07187 303.55313Q351.68124 303.31876 351.30624 303.31876Q350.94687 303.31876 350.66562 303.5375Q350.4 303.74063 350.29062 304.11563Q350.10312 304.67813 350.10312 305.33438L350.10312 308.6L349.05624 308.6ZM353.07187 301.225L353.07187 300.00626L354.13437 300.00626L354.13437 301.225L353.07187 301.225ZM353.07187 308.6L353.07187 302.38126L354.13437 302.38126L354.13437 308.6L353.07187 308.6ZM356.07187 308.6L356.07187 302.38126L357.00937 302.38126L357.00937 303.25626Q357.69687 302.24063 358.99374 302.24063Q359.55624 302.24063 360.025 302.44376Q360.50937 302.64688 360.74374 302.975Q360.97812 303.30313 361.07187 303.74063Q361.11874 304.0375 361.11874 304.77188L361.11874 308.6L360.07187 308.6L360.07187 304.81876Q360.07187 304.1625 359.94687 303.85Q359.82187 303.5375 359.50937 303.35Q359.19687 303.14688 358.775 303.14688Q358.10312 303.14688 357.60312 303.58438Q357.11874 304.00626 357.11874 305.19376L357.11874 308.6L356.07187 308.6ZM365.36874 307.6625L365.525 308.58438Q365.07187 308.67813 364.72812 308.67813Q364.15 308.67813 363.8375 308.50626Q363.525 308.31876 363.38437 308.02188Q363.25937 307.725 363.25937 306.77188L363.25937 303.19376L362.49374 303.19376L362.49374 302.38126L363.25937 302.38126L363.25937 300.83438L364.30624 300.20938L364.30624 302.38126L365.36874 302.38126L365.36874 303.19376L364.30624 303.19376L364.30624 306.83438Q364.30624 307.2875 364.35312 307.4125Q364.41562 307.5375 364.54062 307.61563Q364.66562 307.69376 364.9 307.69376Q365.0875 307.69376 365.36874 307.6625ZM368.775 306.33438L369.8375 306.19376Q370.00937 307.08438 370.44687 307.49063Q370.88437 307.88126 371.50937 307.88126Q372.25937 307.88126 372.775 307.36563Q373.29062 306.85 373.29062 306.08438Q373.29062 305.36563 372.80624 304.89688Q372.3375 304.4125 371.60312 304.4125Q371.30624 304.4125 370.85312 304.5375L370.97812 303.6Q371.0875 303.61563 371.15 303.61563Q371.82187 303.61563 372.35312 303.27188Q372.9 302.9125 372.9 302.17813Q372.9 301.6 372.50937 301.225Q372.11874 300.83438 371.49374 300.83438Q370.88437 300.83438 370.4625 301.225Q370.05624 301.61563 369.94687 302.38126L368.88437 302.19376Q369.07187 301.14688 369.75937 300.56876Q370.44687 299.975 371.4625 299.975Q372.16562 299.975 372.75937 300.2875Q373.35312 300.58438 373.66562 301.1Q373.97812 301.61563 373.97812 302.20938Q373.97812 302.75626 373.68124 303.225Q373.38437 303.67813 372.80624 303.94376Q373.55624 304.11563 373.97812 304.67813Q374.4 305.225 374.4 306.06876Q374.4 307.19376 373.57187 307.975Q372.75937 308.75626 371.50937 308.75626Q370.38437 308.75626 369.63437 308.08438Q368.88437 307.39688 368.775 306.33438Z" fill-rule="nonzero"/><path fill="#000000" d="M441.3719 305.83438L442.4344 305.74063Q442.5125 306.39688 442.79376 306.80313Q443.075 307.20938 443.65314 307.475Q444.2469 307.725 444.98126 307.725Q445.6219 307.725 446.1219 307.5375Q446.6219 307.33438 446.85626 307.00626Q447.10626 306.6625 447.10626 306.27188Q447.10626 305.86563 446.8719 305.56876Q446.6375 305.25626 446.10626 305.05313Q445.7469 304.9125 444.5594 304.63126Q443.3875 304.35 442.91876 304.1Q442.29376 303.77188 441.9969 303.30313Q441.7 302.81876 441.7 302.225Q441.7 301.58438 442.0594 301.02188Q442.4344 300.44376 443.1375 300.1625Q443.85626 299.86563 444.71564 299.86563Q445.66876 299.86563 446.40314 300.17813Q447.1375 300.475 447.52814 301.08438Q447.91876 301.67813 447.95 302.42813L446.85626 302.50626Q446.7625 301.69376 446.2469 301.2875Q445.7469 300.86563 444.7625 300.86563Q443.73126 300.86563 443.2625 301.24063Q442.79376 301.61563 442.79376 302.14688Q442.79376 302.61563 443.1219 302.9125Q443.45 303.20938 444.825 303.52188Q446.21564 303.83438 446.73126 304.06876Q447.48126 304.42813 447.84064 304.95938Q448.2 305.475 448.2 306.17813Q448.2 306.86563 447.8094 307.475Q447.41876 308.06876 446.6844 308.4125Q445.95 308.74063 445.02814 308.74063Q443.85626 308.74063 443.0594 308.4125Q442.27814 308.06876 441.825 307.38126Q441.3875 306.69376 441.3719 305.83438ZM449.6219 310.99063L449.6219 302.38126L450.575 302.38126L450.575 303.17813Q450.91876 302.70938 451.34064 302.475Q451.77814 302.24063 452.3875 302.24063Q453.1844 302.24063 453.79376 302.64688Q454.40314 303.05313 454.7 303.80313Q455.0125 304.55313 455.0125 305.44376Q455.0125 306.39688 454.66876 307.1625Q454.34064 307.92813 453.6844 308.33438Q453.02814 308.74063 452.3094 308.74063Q451.77814 308.74063 451.35626 308.52188Q450.9344 308.2875 450.66876 307.95938L450.66876 310.99063L449.6219 310.99063ZM450.575 305.52188Q450.575 306.725 451.0594 307.30313Q451.54376 307.86563 452.23126 307.86563Q452.9344 307.86563 453.4344 307.27188Q453.9344 306.67813 453.9344 305.42813Q453.9344 304.24063 453.45 303.6625Q452.96564 303.06876 452.27814 303.06876Q451.60626 303.06876 451.09064 303.69376Q450.575 304.31876 450.575 305.52188ZM456.60626 308.6L456.60626 302.38126L457.5594 302.38126L457.5594 303.31876Q457.91876 302.6625 458.21564 302.45938Q458.52814 302.24063 458.90314 302.24063Q459.4344 302.24063 459.98126 302.56876L459.6219 303.55313Q459.23126 303.31876 458.85626 303.31876Q458.4969 303.31876 458.21564 303.5375Q457.95 303.74063 457.84064 304.11563Q457.65314 304.67813 457.65314 305.33438L457.65314 308.6L456.60626 308.6ZM460.6219 301.225L460.6219 300.00626L461.6844 300.00626L461.6844 301.225L460.6219 301.225ZM460.6219 308.6L460.6219 302.38126L461.6844 302.38126L461.6844 308.6L460.6219 308.6ZM463.6219 308.6L463.6219 302.38126L464.5594 302.38126L464.5594 303.25626Q465.2469 302.24063 466.54376 302.24063Q467.10626 302.24063 467.575 302.44376Q468.0594 302.64688 468.29376 302.975Q468.52814 303.30313 468.6219 303.74063Q468.66876 304.0375 468.66876 304.77188L468.66876 308.6L467.6219 308.6L467.6219 304.81876Q467.6219 304.1625 467.4969 303.85Q467.3719 303.5375 467.0594 303.35Q466.7469 303.14688 466.325 303.14688Q465.65314 303.14688 465.15314 303.58438Q464.66876 304.00626 464.66876 305.19376L464.66876 308.6L463.6219 308.6ZM472.91876 307.6625L473.075 308.58438Q472.6219 308.67813 472.27814 308.67813Q471.7 308.67813 471.3875 308.50626Q471.075 308.31876 470.9344 308.02188Q470.8094 307.725 470.8094 306.77188L470.8094 303.19376L470.04376 303.19376L470.04376 302.38126L470.8094 302.38126L470.8094 300.83438L471.85626 300.20938L471.85626 302.38126L472.91876 302.38126L472.91876 303.19376L471.85626 303.19376L471.85626 306.83438Q471.85626 307.2875 471.90314 307.4125Q471.96564 307.5375 472.09064 307.61563Q472.21564 307.69376 472.45 307.69376Q472.6375 307.69376 472.91876 307.6625ZM479.7 308.6L479.7 306.5375L475.98126 306.5375L475.98126 305.56876L479.90314 300.00626L480.7625 300.00626L480.7625 305.56876L481.91876 305.56876L481.91876 306.5375L480.7625 306.5375L480.7625 308.6L479.7 308.6ZM479.7 305.56876L479.7 301.70938L477.0125 305.56876L479.7 305.56876Z" fill-rule="nonzero"/><path fill="#4285f4" d="M144.5 23.4C144.5 26.713709 141.8137 29.4 138.5 29.4C135.1863 29.4 132.5 26.713709 132.5 23.4C132.5 20.086292 135.1863 17.4 138.5 17.4C141.8137 17.4 144.5 20.086292 144.5 23.4Z" fill-rule="nonzero"/><path fill="#1a1a1a" d="M159.5625 24.384375L160.6875 24.68125Q160.32812 26.071875 159.40625 26.80625Q158.48438 27.540625 157.14062 27.540625Q155.75 27.540625 154.875 26.978125Q154.0 26.415625 153.54688 25.353125Q153.09375 24.275 153.09375 23.040625Q153.09375 21.696875 153.60938 20.696875Q154.125 19.696875 155.0625 19.18125Q156.01562 18.665625 157.15625 18.665625Q158.4375 18.665625 159.3125 19.321875Q160.20312 19.978125 160.54688 21.165625L159.42188 21.43125Q159.125 20.49375 158.54688 20.071875Q157.98438 19.634375 157.125 19.634375Q156.14062 19.634375 155.46875 20.11875Q154.8125 20.5875 154.53125 21.384375Q154.26562 22.18125 154.26562 23.040625Q154.26562 24.134375 154.57812 24.946875Q154.90625 25.759375 155.57812 26.165625Q156.25 26.571875 157.04688 26.571875Q158.0 26.571875 158.65625 26.025Q159.32812 25.478125 159.5625 24.384375ZM164.875 27.4L161.54688 18.80625L162.78125 18.80625L165.01562 25.05625Q165.28125 25.80625 165.46875 26.4625Q165.67188 25.759375 165.9375 25.05625L168.25 18.80625L169.40625 18.80625L166.04688 27.4L164.875 27.4Z" fill-rule="nonzero"/><path fill="#ea4335" d="M196.5 23.4C196.5 26.713709 193.8137 29.4 190.5 29.4C187.1863 29.4 184.5 26.713709 184.5 23.4C184.5 20.086292 187.1863 17.4 190.5 17.4C193.8137 17.4 196.5 20.086292 196.5 23.4Z" fill-rule="nonzero"/><path fill="#1a1a1a" d="M205.04688 24.634375L206.10938 24.540625Q206.1875 25.196875 206.46875 25.603125Q206.75 26.009375 207.32812 26.275Q207.92188 26.525 208.65625 26.525Q209.29688 26.525 209.79688 26.3375Q210.29688 26.134375 210.53125 25.80625Q210.78125 25.4625 210.78125 25.071875Q210.78125 24.665625 210.54688 24.36875Q210.3125 24.05625 209.78125 23.853125Q209.42188 23.7125 208.23438 23.43125Q207.0625 23.15 206.59375 22.9Q205.96875 22.571875 205.67188 22.103125Q205.375 21.61875 205.375 21.025Q205.375 20.384375 205.73438 19.821875Q206.10938 19.24375 206.8125 18.9625Q207.53125 18.665625 208.39062 18.665625Q209.34375 18.665625 210.07812 18.978125Q210.8125 19.275 211.20312 19.884375Q211.59375 20.478125 211.625 21.228125L210.53125 21.30625Q210.4375 20.49375 209.92188 20.0875Q209.42188 19.665625 208.4375 19.665625Q207.40625 19.665625 206.9375 20.040625Q206.46875 20.415625 206.46875 20.946875Q206.46875 21.415625 206.79688 21.7125Q207.125 22.009375 208.5 22.321875Q209.89062 22.634375 210.40625 22.86875Q211.15625 23.228125 211.51562 23.759375Q211.875 24.275 211.875 24.978125Q211.875 25.665625 211.48438 26.275Q211.09375 26.86875 210.35938 27.2125Q209.625 27.540625 208.70312 27.540625Q207.53125 27.540625 206.73438 27.2125Q205.95312 26.86875 205.5 26.18125Q205.0625 25.49375 205.04688 24.634375ZM215.875 27.4L212.54688 18.80625L213.78125 18.80625L216.01562 25.05625Q216.28125 25.80625 216.46875 26.4625Q216.67188 25.759375 216.9375 25.05625L219.25 18.80625L220.40625 18.80625L217.04688 27.4L215.875 27.4Z" fill-rule="nonzero"/><path fill="#fbbc04" fill-opacity="0.7019608" d="M247.5 23.4C247.5 26.713709 244.8137 29.4 241.5 29.4C238.1863 29.4 235.5 26.713709 235.5 23.4C235.5 20.086292 238.1863 17.4 241.5 17.4C244.8137 17.4 247.5 20.086292 247.5 23.4Z" fill-rule="nonzero"/><path fill="#1a1a1a" d="M256.375 27.4L256.375 18.80625L257.51562 18.80625L257.51562 26.384375L261.75 26.384375L261.75 27.4L256.375 27.4ZM263.29688 20.025L263.29688 18.80625L264.35938 18.80625L264.35938 20.025L263.29688 20.025ZM263.29688 27.4L263.29688 21.18125L264.35938 21.18125L264.35938 27.4L263.29688 27.4ZM266.29688 27.4L266.29688 21.18125L267.23438 21.18125L267.23438 22.05625Q267.53125 21.5875 268.01562 21.321875Q268.5 21.040625 269.125 21.040625Q269.8125 21.040625 270.25 21.321875Q270.70312 21.603125 270.875 22.11875Q271.625 21.040625 272.79688 21.040625Q273.73438 21.040625 274.21875 21.55625Q274.71875 22.05625 274.71875 23.134375L274.71875 27.4L273.67188 27.4L273.67188 23.478125Q273.67188 22.853125 273.5625 22.571875Q273.46875 22.290625 273.20312 22.11875Q272.9375 21.946875 272.5625 21.946875Q271.90625 21.946875 271.46875 22.384375Q271.04688 22.821875 271.04688 23.790625L271.04688 27.4L269.98438 27.4L269.98438 23.353125Q269.98438 22.65 269.71875 22.30625Q269.46875 21.946875 268.89062 21.946875Q268.4375 21.946875 268.0625 22.18125Q267.6875 22.415625 267.51562 22.86875Q267.34375 23.321875 267.34375 24.165625L267.34375 27.4L266.29688 27.4ZM277.29688 20.025L277.29688 18.80625L278.35938 18.80625L278.35938 20.025L277.29688 20.025ZM277.29688 27.4L277.29688 21.18125L278.35938 21.18125L278.35938 27.4L277.29688 27.4ZM282.59375 26.4625L282.75 27.384375Q282.29688 27.478125 281.95312 27.478125Q281.375 27.478125 281.0625 27.30625Q280.75 27.11875 280.60938 26.821875Q280.48438 26.525 280.48438 25.571875L280.48438 21.99375L279.71875 21.99375L279.71875 21.18125L280.48438 21.18125L280.48438 19.634375L281.53125 19.009375L281.53125 21.18125L282.59375 21.18125L282.59375 21.99375L281.53125 21.99375L281.53125 25.634375Q281.53125 26.0875 281.57812 26.2125Q281.64062 26.3375 281.76562 26.415625Q281.89062 26.49375 282.125 26.49375Q282.3125 26.49375 282.59375 26.4625ZM287.54688 25.4L288.64062 25.525Q288.39062 26.478125 287.6875 27.009375Q286.98438 27.540625 285.90625 27.540625Q284.54688 27.540625 283.73438 26.696875Q282.9375 25.853125 282.9375 24.3375Q282.9375 22.775 283.75 21.915625Q284.5625 21.040625 285.84375 21.040625Q287.09375 21.040625 287.875 21.884375Q288.67188 22.728125 288.67188 24.275Q288.67188 24.36875 288.67188 24.55625L284.03125 24.55625Q284.09375 25.5875 284.60938 26.134375Q285.125 26.665625 285.90625 26.665625Q286.48438 26.665625 286.89062 26.36875Q287.3125 26.05625 287.54688 25.4ZM284.09375 23.696875L287.5625 23.696875Q287.5 22.9 287.17188 22.509375Q286.65625 21.9 285.85938 21.9Q285.125 21.9 284.625 22.384375Q284.14062 22.86875 284.09375 23.696875ZM292.875 25.540625L293.90625 25.384375Q294.0 26.009375 294.39062 26.3375Q294.79688 26.665625 295.53125 26.665625Q296.25 26.665625 296.59375 26.384375Q296.95312 26.0875 296.95312 25.68125Q296.95312 25.321875 296.64062 25.11875Q296.42188 24.978125 295.5625 24.759375Q294.40625 24.4625 293.95312 24.259375Q293.51562 24.040625 293.28125 23.665625Q293.04688 23.290625 293.04688 22.821875Q293.04688 22.415625 293.23438 22.05625Q293.42188 21.696875 293.75 21.4625Q294.0 21.290625 294.42188 21.165625Q294.84375 21.040625 295.34375 21.040625Q296.0625 21.040625 296.60938 21.259375Q297.17188 21.4625 297.4375 21.821875Q297.70312 22.18125 297.79688 22.775L296.76562 22.915625Q296.70312 22.446875 296.35938 22.18125Q296.03125 21.9 295.40625 21.9Q294.6875 21.9 294.375 22.15Q294.0625 22.384375 294.0625 22.7125Q294.0625 22.915625 294.1875 23.071875Q294.32812 23.24375 294.59375 23.353125Q294.75 23.415625 295.53125 23.61875Q296.65625 23.93125 297.09375 24.11875Q297.53125 24.30625 297.78125 24.665625Q298.03125 25.025 298.03125 25.571875Q298.03125 26.103125 297.71875 26.571875Q297.42188 27.025 296.84375 27.290625Q296.26562 27.540625 295.53125 27.540625Q294.3125 27.540625 293.67188 27.040625Q293.04688 26.525 292.875 25.540625ZM304.375 27.4L304.375 26.478125Q303.64062 27.540625 302.39062 27.540625Q301.84375 27.540625 301.35938 27.3375Q300.89062 27.11875 300.65625 26.80625Q300.42188 26.478125 300.32812 26.009375Q300.26562 25.7125 300.26562 25.025L300.26562 21.18125L301.32812 21.18125L301.32812 24.634375Q301.32812 25.446875 301.39062 25.74375Q301.48438 26.15 301.79688 26.4Q302.125 26.634375 302.60938 26.634375Q303.07812 26.634375 303.48438 26.4Q303.90625 26.15 304.07812 25.728125Q304.26562 25.30625 304.26562 24.509375L304.26562 21.18125L305.3125 21.18125L305.3125 27.4L304.375 27.4ZM307.29688 29.790625L307.29688 21.18125L308.25 21.18125L308.25 21.978125Q308.59375 21.509375 309.01562 21.275Q309.45312 21.040625 310.0625 21.040625Q310.85938 21.040625 311.46875 21.446875Q312.07812 21.853125 312.375 22.603125Q312.6875 23.353125 312.6875 24.24375Q312.6875 25.196875 312.34375 25.9625Q312.01562 26.728125 311.35938 27.134375Q310.70312 27.540625 309.98438 27.540625Q309.45312 27.540625 309.03125 27.321875Q308.60938 27.0875 308.34375 26.759375L308.34375 29.790625L307.29688 29.790625ZM308.25 24.321875Q308.25 25.525 308.73438 26.103125Q309.21875 26.665625 309.90625 26.665625Q310.60938 26.665625 311.10938 26.071875Q311.60938 25.478125 311.60938 24.228125Q311.60938 23.040625 311.125 22.4625Q310.64062 21.86875 309.95312 21.86875Q309.28125 21.86875 308.76562 22.49375Q308.25 23.11875 308.25 24.321875Z" fill-rule="nonzero"/><path fill="#34a853" d="M341.5 23.4C341.5 26.713709 338.81372 29.4 335.5 29.4C332.18628 29.4 329.5 26.713709 329.5 23.4C329.5 20.086292 332.18628 17.4 335.5 17.4C338.81372 17.4 341.5 20.086292 341.5 23.4Z" fill-rule="nonzero"/><path fill="#1a1a1a" d="M350.375 27.4L350.375 18.80625L351.51562 18.80625L351.51562 26.384375L355.75 26.384375L355.75 27.4L350.375 27.4ZM357.29688 20.025L357.29688 18.80625L358.35938 18.80625L358.35938 20.025L357.29688 20.025ZM357.29688 27.4L357.29688 21.18125L358.35938 21.18125L358.35938 27.4L357.29688 27.4ZM360.29688 27.4L360.29688 21.18125L361.23438 21.18125L361.23438 22.05625Q361.53125 21.5875 362.01562 21.321875Q362.5 21.040625 363.125 21.040625Q363.8125 21.040625 364.25 21.321875Q364.70312 21.603125 364.875 22.11875Q365.625 21.040625 366.79688 21.040625Q367.73438 21.040625 368.21875 21.55625Q368.71875 22.05625 368.71875 23.134375L368.71875 27.4L367.67188 27.4L367.67188 23.478125Q367.67188 22.853125 367.5625 22.571875Q367.46875 22.290625 367.20312 22.11875Q366.9375 21.946875 366.5625 21.946875Q365.90625 21.946875 365.46875 22.384375Q365.04688 22.821875 365.04688 23.790625L365.04688 27.4L363.98438 27.4L363.98438 23.353125Q363.98438 22.65 363.71875 22.30625Q363.46875 21.946875 362.89062 21.946875Q362.4375 21.946875 362.0625 22.18125Q361.6875 22.415625 361.51562 22.86875Q361.34375 23.321875 361.34375 24.165625L361.34375 27.4L360.29688 27.4ZM371.29688 20.025L371.29688 18.80625L372.35938 18.80625L372.35938 20.025L371.29688 20.025ZM371.29688 27.4L371.29688 21.18125L372.35938 21.18125L372.35938 27.4L371.29688 27.4ZM376.59375 26.4625L376.75 27.384375Q376.29688 27.478125 375.95312 27.478125Q375.375 27.478125 375.0625 27.30625Q374.75 27.11875 374.60938 26.821875Q374.48438 26.525 374.48438 25.571875L374.48438 21.99375L373.71875 21.99375L373.71875 21.18125L374.48438 21.18125L374.48438 19.634375L375.53125 19.009375L375.53125 21.18125L376.59375 21.18125L376.59375 21.99375L375.53125 21.99375L375.53125 25.634375Q375.53125 26.0875 375.57812 26.2125Q375.64062 26.3375 375.76562 26.415625Q375.89062 26.49375 376.125 26.49375Q376.3125 26.49375 376.59375 26.4625ZM381.54688 25.4L382.64062 25.525Q382.39062 26.478125 381.6875 27.009375Q380.98438 27.540625 379.90625 27.540625Q378.54688 27.540625 377.73438 26.696875Q376.9375 25.853125 376.9375 24.3375Q376.9375 22.775 377.75 21.915625Q378.5625 21.040625 379.84375 21.040625Q381.09375 21.040625 381.875 21.884375Q382.67188 22.728125 382.67188 24.275Q382.67188 24.36875 382.67188 24.55625L378.03125 24.55625Q378.09375 25.5875 378.60938 26.134375Q379.125 26.665625 379.90625 26.665625Q380.48438 26.665625 380.89062 26.36875Q381.3125 26.05625 381.54688 25.4ZM378.09375 23.696875L381.5625 23.696875Q381.5 22.9 381.17188 22.509375Q380.65625 21.9 379.85938 21.9Q379.125 21.9 378.625 22.384375Q378.14062 22.86875 378.09375 23.696875ZM387.29688 20.025L387.29688 18.80625L388.35938 18.80625L388.35938 20.025L387.29688 20.025ZM387.29688 27.4L387.29688 21.18125L388.35938 21.18125L388.35938 27.4L387.29688 27.4ZM390.29688 27.4L390.29688 21.18125L391.23438 21.18125L391.23438 22.05625Q391.92188 21.040625 393.21875 21.040625Q393.78125 21.040625 394.25 21.24375Q394.73438 21.446875 394.96875 21.775Q395.20312 22.103125 395.29688 22.540625Q395.34375 22.8375 395.34375 23.571875L395.34375 27.4L394.29688 27.4L394.29688 23.61875Q394.29688 22.9625 394.17188 22.65Q394.04688 22.3375 393.73438 22.15Q393.42188 21.946875 393.0 21.946875Q392.32812 21.946875 391.82812 22.384375Q391.34375 22.80625 391.34375 23.99375L391.34375 27.4L390.29688 27.4ZM397.54688 27.4L397.54688 21.99375L396.60938 21.99375L396.60938 21.18125L397.54688 21.18125L397.54688 20.509375Q397.54688 19.884375 397.65625 19.5875Q397.8125 19.165625 398.1875 18.915625Q398.57812 18.665625 399.26562 18.665625Q399.71875 18.665625 400.25 18.775L400.09375 19.68125Q399.76562 19.634375 399.46875 19.634375Q398.98438 19.634375 398.78125 19.8375Q398.59375 20.040625 398.59375 20.603125L398.59375 21.18125L399.8125 21.18125L399.8125 21.99375L398.59375 21.99375L398.59375 27.4L397.54688 27.4Z" fill-rule="nonzero"/></svg>