<svg version="1.1" viewBox="0.0 0.0 532.0 328.0" fill="none" stroke="none" stroke-linecap="square" stroke-miterlimit="10" width="532" height="328" xmlns:xlink="http://www.w3.org/1999/xlink" xmlns="http://www.w3.org/2000/svg"><path fill="#ffffff" d="M0 0L532.0 0L532.0 328.0L0 328.0L0 0Z" fill-rule="nonzero"/><path stroke="#cccccc" stroke-width="1.0" stroke-linecap="butt" d="M85.5 285.5L515.5 285.5" fill-rule="nonzero"/><path stroke="#cccccc" stroke-width="1.0" stroke-linecap="butt" d="M85.5 255.5L515.5 255.5" fill-rule="nonzero"/><path stroke="#cccccc" stroke-width="1.0" stroke-linecap="butt" d="M85.5 226.5L515.5 226.5" fill-rule="nonzero"/><path stroke="#cccccc" stroke-width="1.0" stroke-linecap="butt" d="M85.5 196.5L515.5 196.5" fill-rule="nonzero"/><path stroke="#333333" stroke-width="1.0" stroke-linecap="butt" d="M85.5 166.5L515.5 166.5" fill-rule="nonzero"/><path stroke="#cccccc" stroke-width="1.0" stroke-linecap="butt" d="M85.5 137.5L515.5 137.5" fill-rule="nonzero"/><path stroke="#cccccc" stroke-width="1.0" stroke-linecap="butt" d="M85.5 107.5L515.5 107.5" fill-rule="nonzero"/><path stroke="#cccccc" stroke-width="1.0" stroke-linecap="butt" d="M85.5 77.5L515.5 77.5" fill-rule="nonzero"/><path stroke="#cccccc" stroke-width="1.0" stroke-linecap="butt" d="M85.5 48.5L515.5 48.5" fill-rule="nonzero"/><path stroke="#000000" stroke-width="1.0" stroke-linecap="butt" stroke-opacity="0.0" d="M85.5 275.5L515.5 275.5" fill-rule="nonzero"/><path stroke="#000000" stroke-width="1.0" stroke-linecap="butt" stroke-opacity="0.0" d="M85.5 265.5L515.5 265.5" fill-rule="nonzero"/><path stroke="#000000" stroke-width="1.0" stroke-linecap="butt" stroke-opacity="0.0" d="M85.5 246.5L515.5 246.5" fill-rule="nonzero"/><path stroke="#000000" stroke-width="1.0" stroke-linecap="butt" stroke-opacity="0.0" d="M85.5 236.5L515.5 236.5" fill-rule="nonzero"/><path stroke="#000000" stroke-width="1.0" stroke-linecap="butt" stroke-opacity="0.0" d="M85.5 216.5L515.5 216.5" fill-rule="nonzero"/><path stroke="#000000" stroke-width="1.0" stroke-linecap="butt" stroke-opacity="0.0" d="M85.5 206.5L515.5 206.5" fill-rule="nonzero"/><path stroke="#000000" stroke-width="1.0" stroke-linecap="butt" stroke-opacity="0.0" d="M85.5 186.5L515.5 186.5" fill-rule="nonzero"/><path stroke="#000000" stroke-width="1.0" stroke-linecap="butt" stroke-opacity="0.0" d="M85.5 176.5L515.5 176.5" fill-rule="nonzero"/><path stroke="#000000" stroke-width="1.0" stroke-linecap="butt" stroke-opacity="0.0" d="M85.5 157.5L515.5 157.5" fill-rule="nonzero"/><path stroke="#000000" stroke-width="1.0" stroke-linecap="butt" stroke-opacity="0.0" d="M85.5 147.5L515.5 147.5" fill-rule="nonzero"/><path stroke="#000000" stroke-width="1.0" stroke-linecap="butt" stroke-opacity="0.0" d="M85.5 127.5L515.5 127.5" fill-rule="nonzero"/><path stroke="#000000" stroke-width="1.0" stroke-linecap="butt" stroke-opacity="0.0" d="M85.5 117.5L515.5 117.5" fill-rule="nonzero"/><path stroke="#000000" stroke-width="1.0" stroke-linecap="butt" stroke-opacity="0.0" d="M85.5 97.5L515.5 97.5" fill-rule="nonzero"/><path stroke="#000000" stroke-width="1.0" stroke-linecap="butt" stroke-opacity="0.0" d="M85.5 87.5L515.5 87.5" fill-rule="nonzero"/><path stroke="#000000" stroke-width="1.0" stroke-linecap="butt" stroke-opacity="0.0" d="M85.5 68.5L515.5 68.5" fill-rule="nonzero"/><path stroke="#000000" stroke-width="1.0" stroke-linecap="butt" stroke-opacity="0.0" d="M85.5 58.5L515.5 58.5" fill-rule="nonzero"/><path stroke="#000000" stroke-width="1.0" stroke-linecap="butt" d="M515.5 285.5L85.5 285.5" fill-rule="nonzero"/><path stroke="#000000" stroke-width="1.0" stroke-linecap="butt" d="M85.5 285.5L85.5 48.5" fill-rule="nonzero"/><clipPath id="id_0"><path d="M85.4 48.333332L515.6 48.333332L515.6 285.6L85.4 285.6L85.4 48.333332Z" clip-rule="nonzero"/></clipPath><path stroke="#4285f4" stroke-width="2.0" stroke-linecap="butt" clip-path="url(#id_0)" d="M121.25 176.43005C121.25 176.43005 169.05 181.5932 192.95 182.3099C216.85 183.02661 240.75 180.63893 264.65 180.73027C288.55 180.82161 312.45 182.29973 336.35 182.85794C360.25 183.41614 384.15 183.8571 408.05 184.0795C431.95 184.3019 479.75 184.19234 479.75 184.19234" fill-rule="nonzero"/><path stroke="#ea4335" stroke-width="2.0" stroke-linecap="butt" clip-path="url(#id_0)" d="M121.25 168.45706C121.25 168.45706 169.05 173.42506 192.95 174.41867C216.85 175.41226 240.75 174.41867 264.65 174.41867C288.55 174.41867 312.45 174.41867 336.35 174.41867C360.25 174.41867 384.15 163.98587 408.05 174.41867C431.95 184.85147 479.75 237.01549 479.75 237.01549" fill-rule="nonzero"/><path stroke="#fbbc04" stroke-width="2.0" stroke-linecap="butt" stroke-opacity="0.7019608" clip-path="url(#id_0)" d="M121.25 70.984886C121.25 70.984886 169.05 70.984886 192.95 70.984886C216.85 70.984886 240.75 70.984886 264.65 70.984886C288.55 70.984886 312.45 70.984886 336.35 70.984886C360.25 70.984886 384.15 70.984886 408.05 70.984886C431.95 70.984886 479.75 70.984886 479.75 70.984886" fill-rule="nonzero"/><path stroke="#34a853" stroke-width="2.0" stroke-linecap="butt" clip-path="url(#id_0)" d="M121.25 262.94846C121.25 262.94846 169.05 262.94846 192.95 262.94846C216.85 262.94846 240.75 262.94846 264.65 262.94846C288.55 262.94846 312.45 262.94846 336.35 262.94846C360.25 262.94846 384.15 262.94846 408.05 262.94846C431.95 262.94846 479.75 262.94846 479.75 262.94846" fill-rule="nonzero"/><path fill="#4285f4" clip-path="url(#id_0)" d="M124.75 176.43005C124.75 178.36304 123.183 179.93005 121.25 179.93005C119.317 179.93005 117.75 178.36304 117.75 176.43005C117.75 174.49706 119.317 172.93005 121.25 172.93005C123.183 172.93005 124.75 174.49706 124.75 176.43005Z" fill-rule="nonzero"/><path fill="#4285f4" clip-path="url(#id_0)" d="M196.45 182.3099C196.45 184.2429 194.883 185.8099 192.95 185.8099C191.017 185.8099 189.45 184.2429 189.45 182.3099C189.45 180.3769 191.017 178.8099 192.95 178.8099C194.883 178.8099 196.45 180.3769 196.45 182.3099Z" fill-rule="nonzero"/><path fill="#4285f4" clip-path="url(#id_0)" d="M268.15 180.73027C268.15 182.66327 266.583 184.23027 264.65 184.23027C262.717 184.23027 261.15 182.66327 261.15 180.73027C261.15 178.79727 262.717 177.23027 264.65 177.23027C266.583 177.23027 268.15 178.79727 268.15 180.73027Z" fill-rule="nonzero"/><path fill="#4285f4" clip-path="url(#id_0)" d="M339.85 182.85794C339.85 184.79094 338.283 186.35794 336.35 186.35794C334.417 186.35794 332.85 184.79094 332.85 182.85794C332.85 180.92494 334.417 179.35794 336.35 179.35794C338.283 179.35794 339.85 180.92494 339.85 182.85794Z" fill-rule="nonzero"/><path fill="#4285f4" clip-path="url(#id_0)" d="M411.55 184.0795C411.55 186.0125 409.983 187.5795 408.05 187.5795C406.117 187.5795 404.55 186.0125 404.55 184.0795C404.55 182.1465 406.117 180.5795 408.05 180.5795C409.983 180.5795 411.55 182.1465 411.55 184.0795Z" fill-rule="nonzero"/><path fill="#4285f4" clip-path="url(#id_0)" d="M483.25 184.19234C483.25 186.12534 481.68298 187.69234 479.75 187.69234C477.81702 187.69234 476.25 186.12534 476.25 184.19234C476.25 182.25934 477.81702 180.69234 479.75 180.69234C481.68298 180.69234 483.25 182.25934 483.25 184.19234Z" fill-rule="nonzero"/><path fill="#ea4335" clip-path="url(#id_0)" d="M124.75 168.45706C124.75 170.39006 123.183 171.95706 121.25 171.95706C119.317 171.95706 117.75 170.39006 117.75 168.45706C117.75 166.52406 119.317 164.95706 121.25 164.95706C123.183 164.95706 124.75 166.52406 124.75 168.45706Z" fill-rule="nonzero"/><path fill="#ea4335" clip-path="url(#id_0)" d="M196.45 174.41867C196.45 176.35167 194.883 177.91867 192.95 177.91867C191.017 177.91867 189.45 176.35167 189.45 174.41867C189.45 172.48567 191.017 170.91867 192.95 170.91867C194.883 170.91867 196.45 172.48567 196.45 174.41867Z" fill-rule="nonzero"/><path fill="#ea4335" clip-path="url(#id_0)" d="M268.15 174.41867C268.15 176.35167 266.583 177.91867 264.65 177.91867C262.717 177.91867 261.15 176.35167 261.15 174.41867C261.15 172.48567 262.717 170.91867 264.65 170.91867C266.583 170.91867 268.15 172.48567 268.15 174.41867Z" fill-rule="nonzero"/><path fill="#ea4335" clip-path="url(#id_0)" d="M339.85 174.41867C339.85 176.35167 338.283 177.91867 336.35 177.91867C334.417 177.91867 332.85 176.35167 332.85 174.41867C332.85 172.48567 334.417 170.91867 336.35 170.91867C338.283 170.91867 339.85 172.48567 339.85 174.41867Z" fill-rule="nonzero"/><path fill="#ea4335" clip-path="url(#id_0)" d="M411.55 174.41867C411.55 176.35167 409.983 177.91867 408.05 177.91867C406.117 177.91867 404.55 176.35167 404.55 174.41867C404.55 172.48567 406.117 170.91867 408.05 170.91867C409.983 170.91867 411.55 172.48567 411.55 174.41867Z" fill-rule="nonzero"/><path fill="#ea4335" clip-path="url(#id_0)" d="M483.25 237.01549C483.25 238.94849 481.68298 240.51549 479.75 240.51549C477.81702 240.51549 476.25 238.94849 476.25 237.01549C476.25 235.08249 477.81702 233.51549 479.75 233.51549C481.68298 233.51549 483.25 235.08249 483.25 237.01549Z" fill-rule="nonzero"/><path fill="#fbbc04" fill-opacity="0.7019608" clip-path="url(#id_0)" d="M124.75 70.984886C124.75 72.917885 123.183 74.484886 121.25 74.484886C119.317 74.484886 117.75 72.917885 117.75 70.984886C117.75 69.05189 119.317 67.484886 121.25 67.484886C123.183 67.484886 124.75 69.05189 124.75 70.984886Z" fill-rule="nonzero"/><path fill="#fbbc04" fill-opacity="0.7019608" clip-path="url(#id_0)" d="M196.45 70.984886C196.45 72.917885 194.883 74.484886 192.95 74.484886C191.017 74.484886 189.45 72.917885 189.45 70.984886C189.45 69.05189 191.017 67.484886 192.95 67.484886C194.883 67.484886 196.45 69.05189 196.45 70.984886Z" fill-rule="nonzero"/><path fill="#fbbc04" fill-opacity="0.7019608" clip-path="url(#id_0)" d="M268.15 70.984886C268.15 72.917885 266.583 74.484886 264.65 74.484886C262.717 74.484886 261.15 72.917885 261.15 70.984886C261.15 69.05189 262.717 67.484886 264.65 67.484886C266.583 67.484886 268.15 69.05189 268.15 70.984886Z" fill-rule="nonzero"/><path fill="#fbbc04" fill-opacity="0.7019608" clip-path="url(#id_0)" d="M339.85 70.984886C339.85 72.917885 338.283 74.484886 336.35 74.484886C334.417 74.484886 332.85 72.917885 332.85 70.984886C332.85 69.05189 334.417 67.484886 336.35 67.484886C338.283 67.484886 339.85 69.05189 339.85 70.984886Z" fill-rule="nonzero"/><path fill="#fbbc04" fill-opacity="0.7019608" clip-path="url(#id_0)" d="M411.55 70.984886C411.55 72.917885 409.983 74.484886 408.05 74.484886C406.117 74.484886 404.55 72.917885 404.55 70.984886C404.55 69.05189 406.117 67.484886 408.05 67.484886C409.983 67.484886 411.55 69.05189 411.55 70.984886Z" fill-rule="nonzero"/><path fill="#fbbc04" fill-opacity="0.7019608" clip-path="url(#id_0)" d="M483.25 70.984886C483.25 72.917885 481.68298 74.484886 479.75 74.484886C477.81702 74.484886 476.25 72.917885 476.25 70.984886C476.25 69.05189 477.81702 67.484886 479.75 67.484886C481.68298 67.484886 483.25 69.05189 483.25 70.984886Z" fill-rule="nonzero"/><path fill="#34a853" clip-path="url(#id_0)" d="M124.75 262.94846C124.75 264.88144 123.183 266.44846 121.25 266.44846C119.317 266.44846 117.75 264.88144 117.75 262.94846C117.75 261.01544 119.317 259.44846 121.25 259.44846C123.183 259.44846 124.75 261.01544 124.75 262.94846Z" fill-rule="nonzero"/><path fill="#34a853" clip-path="url(#id_0)" d="M196.45 262.94846C196.45 264.88144 194.883 266.44846 192.95 266.44846C191.017 266.44846 189.45 264.88144 189.45 262.94846C189.45 261.01544 191.017 259.44846 192.95 259.44846C194.883 259.44846 196.45 261.01544 196.45 262.94846Z" fill-rule="nonzero"/><path fill="#34a853" clip-path="url(#id_0)" d="M268.15 262.94846C268.15 264.88144 266.583 266.44846 264.65 266.44846C262.717 266.44846 261.15 264.88144 261.15 262.94846C261.15 261.01544 262.717 259.44846 264.65 259.44846C266.583 259.44846 268.15 261.01544 268.15 262.94846Z" fill-rule="nonzero"/><path fill="#34a853" clip-path="url(#id_0)" d="M339.85 262.94846C339.85 264.88144 338.283 266.44846 336.35 266.44846C334.417 266.44846 332.85 264.88144 332.85 262.94846C332.85 261.01544 334.417 259.44846 336.35 259.44846C338.283 259.44846 339.85 261.01544 339.85 262.94846Z" fill-rule="nonzero"/><path fill="#34a853" clip-path="url(#id_0)" d="M411.55 262.94846C411.55 264.88144 409.983 266.44846 408.05 266.44846C406.117 266.44846 404.55 264.88144 404.55 262.94846C404.55 261.01544 406.117 259.44846 408.05 259.44846C409.983 259.44846 411.55 261.01544 411.55 262.94846Z" fill-rule="nonzero"/><path fill="#34a853" clip-path="url(#id_0)" d="M483.25 262.94846C483.25 264.88144 481.68298 266.44846 479.75 266.44846C477.81702 266.44846 476.25 264.88144 476.25 262.94846C476.25 261.01544 477.81702 259.44846 479.75 259.44846C481.68298 259.44846 483.25 261.01544 483.25 262.94846Z" fill-rule="nonzero"/><path stroke="#000000" stroke-width="1.0" stroke-linecap="butt" d="M121.5 291.5L121.5 279.5" fill-rule="nonzero"/><path stroke="#000000" stroke-width="1.0" stroke-linecap="butt" d="M192.5 291.5L192.5 279.5" fill-rule="nonzero"/><path stroke="#000000" stroke-width="1.0" stroke-linecap="butt" d="M264.5 291.5L264.5 279.5" fill-rule="nonzero"/><path stroke="#000000" stroke-width="1.0" stroke-linecap="butt" d="M336.5 291.5L336.5 279.5" fill-rule="nonzero"/><path stroke="#000000" stroke-width="1.0" stroke-linecap="butt" d="M408.5 291.5L408.5 279.5" fill-rule="nonzero"/><path stroke="#000000" stroke-width="1.0" stroke-linecap="butt" d="M479.5 291.5L479.5 279.5" fill-rule="nonzero"/><path stroke="#000000" stroke-width="1.0" stroke-linecap="butt" d="M79.5 285.5L91.5 285.5" fill-rule="nonzero"/><path stroke="#000000" stroke-width="1.0" stroke-linecap="butt" d="M79.5 255.5L91.5 255.5" fill-rule="nonzero"/><path stroke="#000000" stroke-width="1.0" stroke-linecap="butt" d="M79.5 226.5L91.5 226.5" fill-rule="nonzero"/><path stroke="#000000" stroke-width="1.0" stroke-linecap="butt" d="M79.5 196.5L91.5 196.5" fill-rule="nonzero"/><path stroke="#000000" stroke-width="1.0" stroke-linecap="butt" d="M79.5 166.5L91.5 166.5" fill-rule="nonzero"/><path stroke="#000000" stroke-width="1.0" stroke-linecap="butt" d="M79.5 137.5L91.5 137.5" fill-rule="nonzero"/><path stroke="#000000" stroke-width="1.0" stroke-linecap="butt" d="M79.5 107.5L91.5 107.5" fill-rule="nonzero"/><path stroke="#000000" stroke-width="1.0" stroke-linecap="butt" d="M79.5 77.5L91.5 77.5" fill-rule="nonzero"/><path stroke="#000000" stroke-width="1.0" stroke-linecap="butt" d="M79.5 48.5L91.5 48.5" fill-rule="nonzero"/><path fill="#000000" d="M48.775 287.02188L48.775 285.95938L52.025 285.95938L52.025 287.02188L48.775 287.02188ZM54.525 284.94376Q53.86875 284.69376 53.540627 284.25626Q53.228127 283.80313 53.228127 283.19376Q53.228127 282.25626 53.9 281.61563Q54.5875 280.975 55.696877 280.975Q56.821877 280.975 57.509377 281.63126Q58.196877 282.2875 58.196877 283.225Q58.196877 283.81876 57.884377 284.25626Q57.571877 284.69376 56.93125 284.94376Q57.728127 285.19376 58.134377 285.77188Q58.540627 286.35 58.540627 287.14688Q58.540627 288.24063 57.759377 288.99063Q56.99375 289.74063 55.7125 289.74063Q54.446877 289.74063 53.665627 288.99063Q52.884377 288.24063 52.884377 287.11563Q52.884377 286.27188 53.30625 285.70938Q53.74375 285.14688 54.525 284.94376ZM54.30625 283.14688Q54.30625 283.75626 54.696877 284.14688Q55.103127 284.5375 55.728127 284.5375Q56.3375 284.5375 56.728127 284.1625Q57.11875 283.77188 57.11875 283.20938Q57.11875 282.63126 56.7125 282.24063Q56.30625 281.83438 55.7125 281.83438Q55.103127 281.83438 54.696877 282.225Q54.30625 282.61563 54.30625 283.14688ZM53.978127 287.11563Q53.978127 287.56876 54.18125 287.99063Q54.4 288.4125 54.821877 288.64688Q55.24375 288.88126 55.728127 288.88126Q56.478127 288.88126 56.9625 288.39688Q57.4625 287.9125 57.4625 287.1625Q57.4625 286.39688 56.9625 285.89688Q56.4625 285.39688 55.696877 285.39688Q54.946877 285.39688 54.4625 285.89688Q53.978127 286.38126 53.978127 287.11563ZM59.9 285.36563Q59.9 283.83438 60.2125 282.9125Q60.525 281.975 61.134377 281.475Q61.759377 280.975 62.696877 280.975Q63.384377 280.975 63.9 281.25626Q64.43125 281.5375 64.775 282.06876Q65.11875 282.58438 65.30625 283.33438Q65.49375 284.08438 65.49375 285.36563Q65.49375 286.88126 65.18125 287.80313Q64.88438 288.725 64.25938 289.24063Q63.65 289.74063 62.696877 289.74063Q61.4625 289.74063 60.74375 288.85Q59.9 287.7875 59.9 285.36563ZM60.978127 285.36563Q60.978127 287.475 61.478127 288.17813Q61.978127 288.88126 62.696877 288.88126Q63.43125 288.88126 63.915627 288.17813Q64.41563 287.475 64.41563 285.36563Q64.41563 283.24063 63.915627 282.55313Q63.43125 281.85 62.68125 281.85Q61.9625 281.85 61.525 282.45938Q60.978127 283.24063 60.978127 285.36563ZM66.9 285.36563Q66.9 283.83438 67.2125 282.9125Q67.525 281.975 68.13438 281.475Q68.75938 280.975 69.69688 280.975Q70.38438 280.975 70.9 281.25626Q71.43125 281.5375 71.775 282.06876Q72.11875 282.58438 72.30625 283.33438Q72.49375 284.08438 72.49375 285.36563Q72.49375 286.88126 72.18125 287.80313Q71.88438 288.725 71.25938 289.24063Q70.65 289.74063 69.69688 289.74063Q68.4625 289.74063 67.74375 288.85Q66.9 287.7875 66.9 285.36563ZM67.97813 285.36563Q67.97813 287.475 68.47813 288.17813Q68.97813 288.88126 69.69688 288.88126Q70.43125 288.88126 70.91563 288.17813Q71.41563 287.475 71.41563 285.36563Q71.41563 283.24063 70.91563 282.55313Q70.43125 281.85 69.68125 281.85Q68.9625 281.85 68.525 282.45938Q67.97813 283.24063 67.97813 285.36563Z" fill-rule="nonzero"/><path fill="#000000" d="M48.775 257.36356L48.775 256.30106L52.025 256.30106L52.025 257.36356L48.775 257.36356ZM58.36875 253.4573L57.321877 253.53543Q57.18125 252.91043 56.93125 252.62918Q56.49375 252.17606 55.86875 252.17606Q55.36875 252.17606 54.978127 252.4573Q54.49375 252.8323 54.196877 253.53543Q53.915627 254.22293 53.9 255.50418Q54.275 254.92606 54.821877 254.6448Q55.384377 254.36356 55.99375 254.36356Q57.040627 254.36356 57.775 255.1448Q58.525 255.92606 58.525 257.1448Q58.525 257.9573 58.165627 258.66043Q57.821877 259.34793 57.2125 259.72293Q56.603127 260.0823 55.8375 260.0823Q54.509377 260.0823 53.68125 259.11356Q52.853127 258.1448 52.853127 255.92606Q52.853127 253.42606 53.775 252.30106Q54.571877 251.31668 55.93125 251.31668Q56.946877 251.31668 57.5875 251.8948Q58.24375 252.4573 58.36875 253.4573ZM54.071877 257.16043Q54.071877 257.7073 54.290627 258.2073Q54.525 258.69168 54.93125 258.9573Q55.353127 259.22293 55.821877 259.22293Q56.478127 259.22293 56.9625 258.69168Q57.446877 258.1448 57.446877 257.22293Q57.446877 256.3323 56.9625 255.81668Q56.49375 255.30106 55.775 255.30106Q55.05625 255.30106 54.55625 255.81668Q54.071877 256.3323 54.071877 257.16043ZM59.9 255.7073Q59.9 254.17606 60.2125 253.25418Q60.525 252.31668 61.134377 251.81668Q61.759377 251.31668 62.696877 251.31668Q63.384377 251.31668 63.9 251.59793Q64.43125 251.87918 64.775 252.41043Q65.11875 252.92606 65.30625 253.67606Q65.49375 254.42606 65.49375 255.7073Q65.49375 257.22293 65.18125 258.1448Q64.88438 259.06668 64.25938 259.5823Q63.65 260.0823 62.696877 260.0823Q61.4625 260.0823 60.74375 259.19168Q59.9 258.12918 59.9 255.7073ZM60.978127 255.7073Q60.978127 257.81668 61.478127 258.5198Q61.978127 259.22293 62.696877 259.22293Q63.43125 259.22293 63.915627 258.5198Q64.41563 257.81668 64.41563 255.7073Q64.41563 253.5823 63.915627 252.8948Q63.43125 252.19168 62.68125 252.19168Q61.9625 252.19168 61.525 252.80106Q60.978127 253.5823 60.978127 255.7073ZM66.9 255.7073Q66.9 254.17606 67.2125 253.25418Q67.525 252.31668 68.13438 251.81668Q68.75938 251.31668 69.69688 251.31668Q70.38438 251.31668 70.9 251.59793Q71.43125 251.87918 71.775 252.41043Q72.11875 252.92606 72.30625 253.67606Q72.49375 254.42606 72.49375 255.7073Q72.49375 257.22293 72.18125 258.1448Q71.88438 259.06668 71.25938 259.5823Q70.65 260.0823 69.69688 260.0823Q68.4625 260.0823 67.74375 259.19168Q66.9 258.12918 66.9 255.7073ZM67.97813 255.7073Q67.97813 257.81668 68.47813 258.5198Q68.97813 259.22293 69.69688 259.22293Q70.43125 259.22293 70.91563 258.5198Q71.41563 257.81668 71.41563 255.7073Q71.41563 253.5823 70.91563 252.8948Q70.43125 252.19168 69.68125 252.19168Q68.9625 252.19168 68.525 252.80106Q67.97813 253.5823 67.97813 255.7073Z" fill-rule="nonzero"/><path fill="#000000" d="M48.775 227.70522L48.775 226.64272L52.025 226.64272L52.025 227.70522L48.775 227.70522ZM56.275 230.28334L56.275 228.22084L52.55625 228.22084L52.55625 227.25209L56.478127 221.68959L57.3375 221.68959L57.3375 227.25209L58.49375 227.25209L58.49375 228.22084L57.3375 228.22084L57.3375 230.28334L56.275 230.28334ZM56.275 227.25209L56.275 223.39272L53.5875 227.25209L56.275 227.25209ZM59.9 226.04897Q59.9 224.51772 60.2125 223.59584Q60.525 222.65834 61.134377 222.15834Q61.759377 221.65834 62.696877 221.65834Q63.384377 221.65834 63.9 221.93959Q64.43125 222.22084 64.775 222.75209Q65.11875 223.26772 65.30625 224.01772Q65.49375 224.76772 65.49375 226.04897Q65.49375 227.56459 65.18125 228.48647Q64.88438 229.40834 64.25938 229.92397Q63.65 230.42397 62.696877 230.42397Q61.4625 230.42397 60.74375 229.53334Q59.9 228.47084 59.9 226.04897ZM60.978127 226.04897Q60.978127 228.15834 61.478127 228.86147Q61.978127 229.56459 62.696877 229.56459Q63.43125 229.56459 63.915627 228.86147Q64.41563 228.15834 64.41563 226.04897Q64.41563 223.92397 63.915627 223.23647Q63.43125 222.53334 62.68125 222.53334Q61.9625 222.53334 61.525 223.14272Q60.978127 223.92397 60.978127 226.04897ZM66.9 226.04897Q66.9 224.51772 67.2125 223.59584Q67.525 222.65834 68.13438 222.15834Q68.75938 221.65834 69.69688 221.65834Q70.38438 221.65834 70.9 221.93959Q71.43125 222.22084 71.775 222.75209Q72.11875 223.26772 72.30625 224.01772Q72.49375 224.76772 72.49375 226.04897Q72.49375 227.56459 72.18125 228.48647Q71.88438 229.40834 71.25938 229.92397Q70.65 230.42397 69.69688 230.42397Q68.4625 230.42397 67.74375 229.53334Q66.9 228.47084 66.9 226.04897ZM67.97813 226.04897Q67.97813 228.15834 68.47813 228.86147Q68.97813 229.56459 69.69688 229.56459Q70.43125 229.56459 70.91563 228.86147Q71.41563 228.15834 71.41563 226.04897Q71.41563 223.92397 70.91563 223.23647Q70.43125 222.53334 69.68125 222.53334Q68.9625 222.53334 68.525 223.14272Q67.97813 223.92397 67.97813 226.04897Z" fill-rule="nonzero"/><path fill="#000000" d="M48.775 198.04688L48.775 196.98438L52.025 196.98438L52.025 198.04688L48.775 198.04688ZM58.446877 199.60938L58.446877 200.625L52.759377 200.625Q52.759377 200.25 52.884377 199.89062Q53.103127 199.3125 53.571877 198.75Q54.05625 198.1875 54.9625 197.45312Q56.36875 196.29688 56.853127 195.625Q57.353127 194.95312 57.353127 194.35938Q57.353127 193.73438 56.9 193.3125Q56.446877 192.875 55.728127 192.875Q54.9625 192.875 54.509377 193.32812Q54.05625 193.78125 54.040627 194.59375L52.9625 194.48438Q53.071877 193.26562 53.790627 192.64062Q54.525 192.0 55.759377 192.0Q56.99375 192.0 57.7125 192.6875Q58.43125 193.375 58.43125 194.39062Q58.43125 194.90625 58.2125 195.40625Q58.009377 195.89062 57.509377 196.45312Q57.025 197.0 55.9 197.95312Q54.946877 198.75 54.665627 199.04688Q54.4 199.32812 54.228127 199.60938L58.446877 199.60938ZM59.9 196.39062Q59.9 194.85938 60.2125 193.9375Q60.525 193.0 61.134377 192.5Q61.759377 192.0 62.696877 192.0Q63.384377 192.0 63.9 192.28125Q64.43125 192.5625 64.775 193.09375Q65.11875 193.60938 65.30625 194.35938Q65.49375 195.10938 65.49375 196.39062Q65.49375 197.90625 65.18125 198.82812Q64.88438 199.75 64.25938 200.26562Q63.65 200.76562 62.696877 200.76562Q61.4625 200.76562 60.74375 199.875Q59.9 198.8125 59.9 196.39062ZM60.978127 196.39062Q60.978127 198.5 61.478127 199.20312Q61.978127 199.90625 62.696877 199.90625Q63.43125 199.90625 63.915627 199.20312Q64.41563 198.5 64.41563 196.39062Q64.41563 194.26562 63.915627 193.57812Q63.43125 192.875 62.68125 192.875Q61.9625 192.875 61.525 193.48438Q60.978127 194.26562 60.978127 196.39062ZM66.9 196.39062Q66.9 194.85938 67.2125 193.9375Q67.525 193.0 68.13438 192.5Q68.75938 192.0 69.69688 192.0Q70.38438 192.0 70.9 192.28125Q71.43125 192.5625 71.775 193.09375Q72.11875 193.60938 72.30625 194.35938Q72.49375 195.10938 72.49375 196.39062Q72.49375 197.90625 72.18125 198.82812Q71.88438 199.75 71.25938 200.26562Q70.65 200.76562 69.69688 200.76562Q68.4625 200.76562 67.74375 199.875Q66.9 198.8125 66.9 196.39062ZM67.97813 196.39062Q67.97813 198.5 68.47813 199.20312Q68.97813 199.90625 69.69688 199.90625Q70.43125 199.90625 70.91563 199.20312Q71.41563 198.5 71.41563 196.39062Q71.41563 194.26562 70.91563 193.57812Q70.43125 192.875 69.68125 192.875Q68.9625 192.875 68.525 193.48438Q67.97813 194.26562 67.97813 196.39062Z" fill-rule="nonzero"/><path fill="#000000" d="M66.9 166.73228Q66.9 165.20103 67.2125 164.27916Q67.525 163.34166 68.13438 162.84166Q68.75938 162.34166 69.69688 162.34166Q70.38438 162.34166 70.9 162.62291Q71.43125 162.90416 71.775 163.43541Q72.11875 163.95103 72.30625 164.70103Q72.49375 165.45103 72.49375 166.73228Q72.49375 168.24791 72.18125 169.16978Q71.88438 170.09166 71.25938 170.60728Q70.65 171.10728 69.69688 171.10728Q68.4625 171.10728 67.74375 170.21666Q66.9 169.15416 66.9 166.73228ZM67.97813 166.73228Q67.97813 168.84166 68.47813 169.54478Q68.97813 170.24791 69.69688 170.24791Q70.43125 170.24791 70.91563 169.54478Q71.41563 168.84166 71.41563 166.73228Q71.41563 164.60728 70.91563 163.91978Q70.43125 163.21666 69.68125 163.21666Q68.9625 163.21666 68.525 163.82603Q67.97813 164.60728 67.97813 166.73228Z" fill-rule="nonzero"/><path fill="#000000" d="M58.446877 140.29271L58.446877 141.30833L52.759377 141.30833Q52.759377 140.93333 52.884377 140.57396Q53.103127 139.99583 53.571877 139.43333Q54.05625 138.87083 54.9625 138.13646Q56.36875 136.98021 56.853127 136.30833Q57.353127 135.63646 57.353127 135.04271Q57.353127 134.41771 56.9 133.99583Q56.446877 133.55833 55.728127 133.55833Q54.9625 133.55833 54.509377 134.01146Q54.05625 134.46458 54.040627 135.27708L52.9625 135.16771Q53.071877 133.94896 53.790627 133.32396Q54.525 132.68333 55.759377 132.68333Q56.99375 132.68333 57.7125 133.37083Q58.43125 134.05833 58.43125 135.07396Q58.43125 135.58958 58.2125 136.08958Q58.009377 136.57396 57.509377 137.13646Q57.025 137.68333 55.9 138.63646Q54.946877 139.43333 54.665627 139.73021Q54.4 140.01146 54.228127 140.29271L58.446877 140.29271ZM59.9 137.07396Q59.9 135.54271 60.2125 134.62083Q60.525 133.68333 61.134377 133.18333Q61.759377 132.68333 62.696877 132.68333Q63.384377 132.68333 63.9 132.96458Q64.43125 133.24583 64.775 133.77708Q65.11875 134.29271 65.30625 135.04271Q65.49375 135.79271 65.49375 137.07396Q65.49375 138.58958 65.18125 139.51146Q64.88438 140.43333 64.25938 140.94896Q63.65 141.44896 62.696877 141.44896Q61.4625 141.44896 60.74375 140.55833Q59.9 139.49583 59.9 137.07396ZM60.978127 137.07396Q60.978127 139.18333 61.478127 139.88646Q61.978127 140.58958 62.696877 140.58958Q63.43125 140.58958 63.915627 139.88646Q64.41563 139.18333 64.41563 137.07396Q64.41563 134.94896 63.915627 134.26146Q63.43125 133.55833 62.68125 133.55833Q61.9625 133.55833 61.525 134.16771Q60.978127 134.94896 60.978127 137.07396ZM66.9 137.07396Q66.9 135.54271 67.2125 134.62083Q67.525 133.68333 68.13438 133.18333Q68.75938 132.68333 69.69688 132.68333Q70.38438 132.68333 70.9 132.96458Q71.43125 133.24583 71.775 133.77708Q72.11875 134.29271 72.30625 135.04271Q72.49375 135.79271 72.49375 137.07396Q72.49375 138.58958 72.18125 139.51146Q71.88438 140.43333 71.25938 140.94896Q70.65 141.44896 69.69688 141.44896Q68.4625 141.44896 67.74375 140.55833Q66.9 139.49583 66.9 137.07396ZM67.97813 137.07396Q67.97813 139.18333 68.47813 139.88646Q68.97813 140.58958 69.69688 140.58958Q70.43125 140.58958 70.91563 139.88646Q71.41563 139.18333 71.41563 137.07396Q71.41563 134.94896 70.91563 134.26146Q70.43125 133.55833 69.68125 133.55833Q68.9625 133.55833 68.525 134.16771Q67.97813 134.94896 67.97813 137.07396Z" fill-rule="nonzero"/><path fill="#000000" d="M56.275 111.65L56.275 109.5875L52.55625 109.5875L52.55625 108.61875L56.478127 103.05625L57.3375 103.05625L57.3375 108.61875L58.49375 108.61875L58.49375 109.5875L57.3375 109.5875L57.3375 111.65L56.275 111.65ZM56.275 108.61875L56.275 104.75938L53.5875 108.61875L56.275 108.61875ZM59.9 107.41563Q59.9 105.88438 60.2125 104.9625Q60.525 104.025 61.134377 103.525Q61.759377 103.025 62.696877 103.025Q63.384377 103.025 63.9 103.30625Q64.43125 103.5875 64.775 104.11875Q65.11875 104.63438 65.30625 105.38438Q65.49375 106.13438 65.49375 107.41563Q65.49375 108.93125 65.18125 109.85313Q64.88438 110.775 64.25938 111.29063Q63.65 111.79063 62.696877 111.79063Q61.4625 111.79063 60.74375 110.9Q59.9 109.8375 59.9 107.41563ZM60.978127 107.41563Q60.978127 109.525 61.478127 110.22813Q61.978127 110.93125 62.696877 110.93125Q63.43125 110.93125 63.915627 110.22813Q64.41563 109.525 64.41563 107.41563Q64.41563 105.29063 63.915627 104.60313Q63.43125 103.9 62.68125 103.9Q61.9625 103.9 61.525 104.50938Q60.978127 105.29063 60.978127 107.41563ZM66.9 107.41563Q66.9 105.88438 67.2125 104.9625Q67.525 104.025 68.13438 103.525Q68.75938 103.025 69.69688 103.025Q70.38438 103.025 70.9 103.30625Q71.43125 103.5875 71.775 104.11875Q72.11875 104.63438 72.30625 105.38438Q72.49375 106.13438 72.49375 107.41563Q72.49375 108.93125 72.18125 109.85313Q71.88438 110.775 71.25938 111.29063Q70.65 111.79063 69.69688 111.79063Q68.4625 111.79063 67.74375 110.9Q66.9 109.8375 66.9 107.41563ZM67.97813 107.41563Q67.97813 109.525 68.47813 110.22813Q68.97813 110.93125 69.69688 110.93125Q70.43125 110.93125 70.91563 110.22813Q71.41563 109.525 71.41563 107.41563Q71.41563 105.29063 70.91563 104.60313Q70.43125 103.9 69.68125 103.9Q68.9625 103.9 68.525 104.50938Q67.97813 105.29063 67.97813 107.41563Z" fill-rule="nonzero"/><path fill="#000000" d="M58.36875 75.50729L57.321877 75.58542Q57.18125 74.96042 56.93125 74.67917Q56.49375 74.22604 55.86875 74.22604Q55.36875 74.22604 54.978127 74.50729Q54.49375 74.88229 54.196877 75.58542Q53.915627 76.27292 53.9 77.55417Q54.275 76.97604 54.821877 76.69479Q55.384377 76.41354 55.99375 76.41354Q57.040627 76.41354 57.775 77.19479Q58.525 77.97604 58.525 79.19479Q58.525 80.00729 58.165627 80.71042Q57.821877 81.39792 57.2125 81.77292Q56.603127 82.13229 55.8375 82.13229Q54.509377 82.13229 53.68125 81.16354Q52.853127 80.19479 52.853127 77.97604Q52.853127 75.47604 53.775 74.35104Q54.571877 73.36667 55.93125 73.36667Q56.946877 73.36667 57.5875 73.94479Q58.24375 74.50729 58.36875 75.50729ZM54.071877 79.21042Q54.071877 79.75729 54.290627 80.25729Q54.525 80.74167 54.93125 81.00729Q55.353127 81.27292 55.821877 81.27292Q56.478127 81.27292 56.9625 80.74167Q57.446877 80.19479 57.446877 79.27292Q57.446877 78.38229 56.9625 77.86667Q56.49375 77.35104 55.775 77.35104Q55.05625 77.35104 54.55625 77.86667Q54.071877 78.38229 54.071877 79.21042ZM59.9 77.75729Q59.9 76.22604 60.2125 75.30417Q60.525 74.36667 61.134377 73.86667Q61.759377 73.36667 62.696877 73.36667Q63.384377 73.36667 63.9 73.64792Q64.43125 73.92917 64.775 74.46042Q65.11875 74.97604 65.30625 75.72604Q65.49375 76.47604 65.49375 77.75729Q65.49375 79.27292 65.18125 80.19479Q64.88438 81.11667 64.25938 81.63229Q63.65 82.13229 62.696877 82.13229Q61.4625 82.13229 60.74375 81.24167Q59.9 80.17917 59.9 77.75729ZM60.978127 77.75729Q60.978127 79.86667 61.478127 80.56979Q61.978127 81.27292 62.696877 81.27292Q63.43125 81.27292 63.915627 80.56979Q64.41563 79.86667 64.41563 77.75729Q64.41563 75.63229 63.915627 74.94479Q63.43125 74.24167 62.68125 74.24167Q61.9625 74.24167 61.525 74.85104Q60.978127 75.63229 60.978127 77.75729ZM66.9 77.75729Q66.9 76.22604 67.2125 75.30417Q67.525 74.36667 68.13438 73.86667Q68.75938 73.36667 69.69688 73.36667Q70.38438 73.36667 70.9 73.64792Q71.43125 73.92917 71.775 74.46042Q72.11875 74.97604 72.30625 75.72604Q72.49375 76.47604 72.49375 77.75729Q72.49375 79.27292 72.18125 80.19479Q71.88438 81.11667 71.25938 81.63229Q70.65 82.13229 69.69688 82.13229Q68.4625 82.13229 67.74375 81.24167Q66.9 80.17917 66.9 77.75729ZM67.97813 77.75729Q67.97813 79.86667 68.47813 80.56979Q68.97813 81.27292 69.69688 81.27292Q70.43125 81.27292 70.91563 80.56979Q71.41563 79.86667 71.41563 77.75729Q71.41563 75.63229 70.91563 74.94479Q70.43125 74.24167 69.68125 74.24167Q68.9625 74.24167 68.525 74.85104Q67.97813 75.63229 67.97813 77.75729Z" fill-rule="nonzero"/><path fill="#000000" d="M54.525 47.677082Q53.86875 47.427082 53.540627 46.989582Q53.228127 46.536457 53.228127 45.927082Q53.228127 44.989582 53.9 44.348957Q54.5875 43.708332 55.696877 43.708332Q56.821877 43.708332 57.509377 44.364582Q58.196877 45.020832 58.196877 45.958332Q58.196877 46.552082 57.884377 46.989582Q57.571877 47.427082 56.93125 47.677082Q57.728127 47.927082 58.134377 48.505207Q58.540627 49.083332 58.540627 49.880207Q58.540627 50.973957 57.759377 51.723957Q56.99375 52.473957 55.7125 52.473957Q54.446877 52.473957 53.665627 51.723957Q52.884377 50.973957 52.884377 49.848957Q52.884377 49.005207 53.30625 48.442707Q53.74375 47.880207 54.525 47.677082ZM54.30625 45.880207Q54.30625 46.489582 54.696877 46.880207Q55.103127 47.270832 55.728127 47.270832Q56.3375 47.270832 56.728127 46.895832Q57.11875 46.505207 57.11875 45.942707Q57.11875 45.364582 56.7125 44.973957Q56.30625 44.567707 55.7125 44.567707Q55.103127 44.567707 54.696877 44.958332Q54.30625 45.348957 54.30625 45.880207ZM53.978127 49.848957Q53.978127 50.302082 54.18125 50.723957Q54.4 51.145832 54.821877 51.380207Q55.24375 51.614582 55.728127 51.614582Q56.478127 51.614582 56.9625 51.130207Q57.4625 50.645832 57.4625 49.895832Q57.4625 49.130207 56.9625 48.630207Q56.4625 48.130207 55.696877 48.130207Q54.946877 48.130207 54.4625 48.630207Q53.978127 49.114582 53.978127 49.848957ZM59.9 48.098957Q59.9 46.567707 60.2125 45.645832Q60.525 44.708332 61.134377 44.208332Q61.759377 43.708332 62.696877 43.708332Q63.384377 43.708332 63.9 43.989582Q64.43125 44.270832 64.775 44.802082Q65.11875 45.317707 65.30625 46.067707Q65.49375 46.817707 65.49375 48.098957Q65.49375 49.614582 65.18125 50.536457Q64.88438 51.458332 64.25938 51.973957Q63.65 52.473957 62.696877 52.473957Q61.4625 52.473957 60.74375 51.583332Q59.9 50.520832 59.9 48.098957ZM60.978127 48.098957Q60.978127 50.208332 61.478127 50.911457Q61.978127 51.614582 62.696877 51.614582Q63.43125 51.614582 63.915627 50.911457Q64.41563 50.208332 64.41563 48.098957Q64.41563 45.973957 63.915627 45.286457Q63.43125 44.583332 62.68125 44.583332Q61.9625 44.583332 61.525 45.192707Q60.978127 45.973957 60.978127 48.098957ZM66.9 48.098957Q66.9 46.567707 67.2125 45.645832Q67.525 44.708332 68.13438 44.208332Q68.75938 43.708332 69.69688 43.708332Q70.38438 43.708332 70.9 43.989582Q71.43125 44.270832 71.775 44.802082Q72.11875 45.317707 72.30625 46.067707Q72.49375 46.817707 72.49375 48.098957Q72.49375 49.614582 72.18125 50.536457Q71.88438 51.458332 71.25938 51.973957Q70.65 52.473957 69.69688 52.473957Q68.4625 52.473957 67.74375 51.583332Q66.9 50.520832 66.9 48.098957ZM67.97813 48.098957Q67.97813 50.208332 68.47813 50.911457Q68.97813 51.614582 69.69688 51.614582Q70.43125 51.614582 70.91563 50.911457Q71.41563 50.208332 71.41563 48.098957Q71.41563 45.973957 70.91563 45.286457Q70.43125 44.583332 69.68125 44.583332Q68.9625 44.583332 68.525 45.192707Q67.97813 45.973957 67.97813 48.098957Z" fill-rule="nonzero"/><path fill="#000000" d="M100.796875 305.83438L101.859375 305.74063Q101.9375 306.39688 102.21875 306.80313Q102.5 307.20938 103.078125 307.475Q103.671875 307.725 104.40625 307.725Q105.046875 307.725 105.546875 307.5375Q106.046875 307.33438 106.28125 307.00626Q106.53125 306.6625 106.53125 306.27188Q106.53125 305.86563 106.296875 305.56876Q106.0625 305.25626 105.53125 305.05313Q105.171875 304.9125 103.984375 304.63126Q102.8125 304.35 102.34375 304.1Q101.71875 303.77188 101.421875 303.30313Q101.125 302.81876 101.125 302.225Q101.125 301.58438 101.484375 301.02188Q101.859375 300.44376 102.5625 300.1625Q103.28125 299.86563 104.140625 299.86563Q105.09375 299.86563 105.828125 300.17813Q106.5625 300.475 106.953125 301.08438Q107.34375 301.67813 107.375 302.42813L106.28125 302.50626Q106.1875 301.69376 105.671875 301.2875Q105.171875 300.86563 104.1875 300.86563Q103.15625 300.86563 102.6875 301.24063Q102.21875 301.61563 102.21875 302.14688Q102.21875 302.61563 102.546875 302.9125Q102.875 303.20938 104.25 303.52188Q105.640625 303.83438 106.15625 304.06876Q106.90625 304.42813 107.265625 304.95938Q107.625 305.475 107.625 306.17813Q107.625 306.86563 107.234375 307.475Q106.84375 308.06876 106.109375 308.4125Q105.375 308.74063 104.453125 308.74063Q103.28125 308.74063 102.484375 308.4125Q101.703125 308.06876 101.25 307.38126Q100.8125 306.69376 100.796875 305.83438ZM109.046875 310.99063L109.046875 302.38126L110.0 302.38126L110.0 303.17813Q110.34375 302.70938 110.765625 302.475Q111.203125 302.24063 111.8125 302.24063Q112.609375 302.24063 113.21875 302.64688Q113.828125 303.05313 114.125 303.80313Q114.4375 304.55313 114.4375 305.44376Q114.4375 306.39688 114.09375 307.1625Q113.765625 307.92813 113.109375 308.33438Q112.453125 308.74063 111.734375 308.74063Q111.203125 308.74063 110.78125 308.52188Q110.359375 308.2875 110.09375 307.95938L110.09375 310.99063L109.046875 310.99063ZM110.0 305.52188Q110.0 306.725 110.484375 307.30313Q110.96875 307.86563 111.65625 307.86563Q112.359375 307.86563 112.859375 307.27188Q113.359375 306.67813 113.359375 305.42813Q113.359375 304.24063 112.875 303.6625Q112.390625 303.06876 111.703125 303.06876Q111.03125 303.06876 110.515625 303.69376Q110.0 304.31876 110.0 305.52188ZM116.03125 308.6L116.03125 302.38126L116.984375 302.38126L116.984375 303.31876Q117.34375 302.6625 117.640625 302.45938Q117.953125 302.24063 118.328125 302.24063Q118.859375 302.24063 119.40625 302.56876L119.046875 303.55313Q118.65625 303.31876 118.28125 303.31876Q117.921875 303.31876 117.640625 303.5375Q117.375 303.74063 117.265625 304.11563Q117.078125 304.67813 117.078125 305.33438L117.078125 308.6L116.03125 308.6ZM120.046875 301.225L120.046875 300.00626L121.109375 300.00626L121.109375 301.225L120.046875 301.225ZM120.046875 308.6L120.046875 302.38126L121.109375 302.38126L121.109375 308.6L120.046875 308.6ZM123.046875 308.6L123.046875 302.38126L123.984375 302.38126L123.984375 303.25626Q124.671875 302.24063 125.96875 302.24063Q126.53125 302.24063 127.0 302.44376Q127.484375 302.64688 127.71875 302.975Q127.953125 303.30313 128.04688 303.74063Q128.09375 304.0375 128.09375 304.77188L128.09375 308.6L127.046875 308.6L127.046875 304.81876Q127.046875 304.1625 126.921875 303.85Q126.796875 303.5375 126.484375 303.35Q126.171875 303.14688 125.75 303.14688Q125.078125 303.14688 124.578125 303.58438Q124.09375 304.00626 124.09375 305.19376L124.09375 308.6L123.046875 308.6ZM132.34375 307.6625L132.5 308.58438Q132.04688 308.67813 131.70312 308.67813Q131.125 308.67813 130.8125 308.50626Q130.5 308.31876 130.35938 308.02188Q130.23438 307.725 130.23438 306.77188L130.23438 303.19376L129.46875 303.19376L129.46875 302.38126L130.23438 302.38126L130.23438 300.83438L131.28125 300.20938L131.28125 302.38126L132.34375 302.38126L132.34375 303.19376L131.28125 303.19376L131.28125 306.83438Q131.28125 307.2875 131.32812 307.4125Q131.39062 307.5375 131.51562 307.61563Q131.64062 307.69376 131.875 307.69376Q132.0625 307.69376 132.34375 307.6625ZM139.71875 308.6L138.67188 308.6L138.67188 301.88126Q138.28125 302.24063 137.65625 302.61563Q137.04688 302.975 136.5625 303.14688L136.5625 302.13126Q137.4375 301.70938 138.09375 301.13126Q138.76562 300.5375 139.04688 299.975L139.71875 299.975L139.71875 308.6Z" fill-rule="nonzero"/><path fill="#000000" d="M172.49687 305.83438L173.55937 305.74063Q173.6375 306.39688 173.91875 306.80313Q174.2 307.20938 174.77812 307.475Q175.37187 307.725 176.10625 307.725Q176.74687 307.725 177.24687 307.5375Q177.74687 307.33438 177.98125 307.00626Q178.23125 306.6625 178.23125 306.27188Q178.23125 305.86563 177.99687 305.56876Q177.7625 305.25626 177.23125 305.05313Q176.87187 304.9125 175.68437 304.63126Q174.5125 304.35 174.04375 304.1Q173.41875 303.77188 173.12187 303.30313Q172.825 302.81876 172.825 302.225Q172.825 301.58438 173.18437 301.02188Q173.55937 300.44376 174.2625 300.1625Q174.98125 299.86563 175.84062 299.86563Q176.79375 299.86563 177.52812 300.17813Q178.2625 300.475 178.65312 301.08438Q179.04375 301.67813 179.075 302.42813L177.98125 302.50626Q177.8875 301.69376 177.37187 301.2875Q176.87187 300.86563 175.8875 300.86563Q174.85625 300.86563 174.3875 301.24063Q173.91875 301.61563 173.91875 302.14688Q173.91875 302.61563 174.24687 302.9125Q174.575 303.20938 175.95 303.52188Q177.34062 303.83438 177.85625 304.06876Q178.60625 304.42813 178.96562 304.95938Q179.325 305.475 179.325 306.17813Q179.325 306.86563 178.93437 307.475Q178.54375 308.06876 177.80937 308.4125Q177.075 308.74063 176.15312 308.74063Q174.98125 308.74063 174.18437 308.4125Q173.40312 308.06876 172.95 307.38126Q172.5125 306.69376 172.49687 305.83438ZM180.74687 310.99063L180.74687 302.38126L181.7 302.38126L181.7 303.17813Q182.04375 302.70938 182.46562 302.475Q182.90312 302.24063 183.5125 302.24063Q184.30937 302.24063 184.91875 302.64688Q185.52812 303.05313 185.825 303.80313Q186.1375 304.55313 186.1375 305.44376Q186.1375 306.39688 185.79375 307.1625Q185.46562 307.92813 184.80937 308.33438Q184.15312 308.74063 183.43437 308.74063Q182.90312 308.74063 182.48125 308.52188Q182.05937 308.2875 181.79375 307.95938L181.79375 310.99063L180.74687 310.99063ZM181.7 305.52188Q181.7 306.725 182.18437 307.30313Q182.66875 307.86563 183.35625 307.86563Q184.05937 307.86563 184.55937 307.27188Q185.05937 306.67813 185.05937 305.42813Q185.05937 304.24063 184.575 303.6625Q184.09062 303.06876 183.40312 303.06876Q182.73125 303.06876 182.21562 303.69376Q181.7 304.31876 181.7 305.52188ZM187.73125 308.6L187.73125 302.38126L188.68437 302.38126L188.68437 303.31876Q189.04375 302.6625 189.34062 302.45938Q189.65312 302.24063 190.02812 302.24063Q190.55937 302.24063 191.10625 302.56876L190.74687 303.55313Q190.35625 303.31876 189.98125 303.31876Q189.62187 303.31876 189.34062 303.5375Q189.075 303.74063 188.96562 304.11563Q188.77812 304.67813 188.77812 305.33438L188.77812 308.6L187.73125 308.6ZM191.74687 301.225L191.74687 300.00626L192.80937 300.00626L192.80937 301.225L191.74687 301.225ZM191.74687 308.6L191.74687 302.38126L192.80937 302.38126L192.80937 308.6L191.74687 308.6ZM194.74687 308.6L194.74687 302.38126L195.68437 302.38126L195.68437 303.25626Q196.37187 302.24063 197.66875 302.24063Q198.23125 302.24063 198.7 302.44376Q199.18437 302.64688 199.41875 302.975Q199.65312 303.30313 199.74687 303.74063Q199.79375 304.0375 199.79375 304.77188L199.79375 308.6L198.74687 308.6L198.74687 304.81876Q198.74687 304.1625 198.62187 303.85Q198.49687 303.5375 198.18437 303.35Q197.87187 303.14688 197.45 303.14688Q196.77812 303.14688 196.27812 303.58438Q195.79375 304.00626 195.79375 305.19376L195.79375 308.6L194.74687 308.6ZM204.04375 307.6625L204.2 308.58438Q203.74687 308.67813 203.40312 308.67813Q202.825 308.67813 202.5125 308.50626Q202.2 308.31876 202.05937 308.02188Q201.93437 307.725 201.93437 306.77188L201.93437 303.19376L201.16875 303.19376L201.16875 302.38126L201.93437 302.38126L201.93437 300.83438L202.98125 300.20938L202.98125 302.38126L204.04375 302.38126L204.04375 303.19376L202.98125 303.19376L202.98125 306.83438Q202.98125 307.2875 203.02812 307.4125Q203.09062 307.5375 203.21562 307.61563Q203.34062 307.69376 203.575 307.69376Q203.7625 307.69376 204.04375 307.6625ZM212.99687 307.58438L212.99687 308.6L207.30937 308.6Q207.30937 308.225 207.43437 307.86563Q207.65312 307.2875 208.12187 306.725Q208.60625 306.1625 209.5125 305.42813Q210.91875 304.27188 211.40312 303.6Q211.90312 302.92813 211.90312 302.33438Q211.90312 301.70938 211.45 301.2875Q210.99687 300.85 210.27812 300.85Q209.5125 300.85 209.05937 301.30313Q208.60625 301.75626 208.59062 302.56876L207.5125 302.45938Q207.62187 301.24063 208.34062 300.61563Q209.075 299.975 210.30937 299.975Q211.54375 299.975 212.2625 300.6625Q212.98125 301.35 212.98125 302.36563Q212.98125 302.88126 212.7625 303.38126Q212.55937 303.86563 212.05937 304.42813Q211.575 304.975 210.45 305.92813Q209.49687 306.725 209.21562 307.02188Q208.95 307.30313 208.77812 307.58438L212.99687 307.58438Z" fill-rule="nonzero"/><path fill="#000000" d="M244.19687 305.83438L245.25937 305.74063Q245.3375 306.39688 245.61874 306.80313Q245.9 307.20938 246.47812 307.475Q247.07187 307.725 247.80624 307.725Q248.44687 307.725 248.94687 307.5375Q249.44687 307.33438 249.68124 307.00626Q249.93124 306.6625 249.93124 306.27188Q249.93124 305.86563 249.69687 305.56876Q249.4625 305.25626 248.93124 305.05313Q248.57187 304.9125 247.38437 304.63126Q246.2125 304.35 245.74374 304.1Q245.11874 303.77188 244.82187 303.30313Q244.525 302.81876 244.525 302.225Q244.525 301.58438 244.88437 301.02188Q245.25937 300.44376 245.9625 300.1625Q246.68124 299.86563 247.54062 299.86563Q248.49374 299.86563 249.22812 300.17813Q249.9625 300.475 250.35312 301.08438Q250.74374 301.67813 250.775 302.42813L249.68124 302.50626Q249.5875 301.69376 249.07187 301.2875Q248.57187 300.86563 247.5875 300.86563Q246.55624 300.86563 246.0875 301.24063Q245.61874 301.61563 245.61874 302.14688Q245.61874 302.61563 245.94687 302.9125Q246.275 303.20938 247.65 303.52188Q249.04062 303.83438 249.55624 304.06876Q250.30624 304.42813 250.66562 304.95938Q251.025 305.475 251.025 306.17813Q251.025 306.86563 250.63437 307.475Q250.24374 308.06876 249.50937 308.4125Q248.775 308.74063 247.85312 308.74063Q246.68124 308.74063 245.88437 308.4125Q245.10312 308.06876 244.65 307.38126Q244.2125 306.69376 244.19687 305.83438ZM252.44687 310.99063L252.44687 302.38126L253.4 302.38126L253.4 303.17813Q253.74374 302.70938 254.16562 302.475Q254.60312 302.24063 255.2125 302.24063Q256.00937 302.24063 256.61874 302.64688Q257.22812 303.05313 257.525 303.80313Q257.8375 304.55313 257.8375 305.44376Q257.8375 306.39688 257.49374 307.1625Q257.16562 307.92813 256.50937 308.33438Q255.85312 308.74063 255.13437 308.74063Q254.60312 308.74063 254.18124 308.52188Q253.75937 308.2875 253.49374 307.95938L253.49374 310.99063L252.44687 310.99063ZM253.4 305.52188Q253.4 306.725 253.88437 307.30313Q254.36874 307.86563 255.05624 307.86563Q255.75937 307.86563 256.25937 307.27188Q256.75937 306.67813 256.75937 305.42813Q256.75937 304.24063 256.275 303.6625Q255.79062 303.06876 255.10312 303.06876Q254.43124 303.06876 253.91562 303.69376Q253.4 304.31876 253.4 305.52188ZM259.43124 308.6L259.43124 302.38126L260.38437 302.38126L260.38437 303.31876Q260.74374 302.6625 261.04062 302.45938Q261.35312 302.24063 261.72812 302.24063Q262.25937 302.24063 262.80624 302.56876L262.44687 303.55313Q262.05624 303.31876 261.68124 303.31876Q261.32187 303.31876 261.04062 303.5375Q260.775 303.74063 260.66562 304.11563Q260.47812 304.67813 260.47812 305.33438L260.47812 308.6L259.43124 308.6ZM263.44687 301.225L263.44687 300.00626L264.50937 300.00626L264.50937 301.225L263.44687 301.225ZM263.44687 308.6L263.44687 302.38126L264.50937 302.38126L264.50937 308.6L263.44687 308.6ZM266.44687 308.6L266.44687 302.38126L267.38437 302.38126L267.38437 303.25626Q268.07187 302.24063 269.36874 302.24063Q269.93124 302.24063 270.4 302.44376Q270.88437 302.64688 271.11874 302.975Q271.35312 303.30313 271.44687 303.74063Q271.49374 304.0375 271.49374 304.77188L271.49374 308.6L270.44687 308.6L270.44687 304.81876Q270.44687 304.1625 270.32187 303.85Q270.19687 303.5375 269.88437 303.35Q269.57187 303.14688 269.15 303.14688Q268.47812 303.14688 267.97812 303.58438Q267.49374 304.00626 267.49374 305.19376L267.49374 308.6L266.44687 308.6ZM275.74374 307.6625L275.9 308.58438Q275.44687 308.67813 275.10312 308.67813Q274.525 308.67813 274.2125 308.50626Q273.9 308.31876 273.75937 308.02188Q273.63437 307.725 273.63437 306.77188L273.63437 303.19376L272.86874 303.19376L272.86874 302.38126L273.63437 302.38126L273.63437 300.83438L274.68124 300.20938L274.68124 302.38126L275.74374 302.38126L275.74374 303.19376L274.68124 303.19376L274.68124 306.83438Q274.68124 307.2875 274.72812 307.4125Q274.79062 307.5375 274.91562 307.61563Q275.04062 307.69376 275.275 307.69376Q275.4625 307.69376 275.74374 307.6625ZM279.15 306.33438L280.2125 306.19376Q280.38437 307.08438 280.82187 307.49063Q281.25937 307.88126 281.88437 307.88126Q282.63437 307.88126 283.15 307.36563Q283.66562 306.85 283.66562 306.08438Q283.66562 305.36563 283.18124 304.89688Q282.7125 304.4125 281.97812 304.4125Q281.68124 304.4125 281.22812 304.5375L281.35312 303.6Q281.4625 303.61563 281.525 303.61563Q282.19687 303.61563 282.72812 303.27188Q283.275 302.9125 283.275 302.17813Q283.275 301.6 282.88437 301.225Q282.49374 300.83438 281.86874 300.83438Q281.25937 300.83438 280.8375 301.225Q280.43124 301.61563 280.32187 302.38126L279.25937 302.19376Q279.44687 301.14688 280.13437 300.56876Q280.82187 299.975 281.8375 299.975Q282.54062 299.975 283.13437 300.2875Q283.72812 300.58438 284.04062 301.1Q284.35312 301.61563 284.35312 302.20938Q284.35312 302.75626 284.05624 303.225Q283.75937 303.67813 283.18124 303.94376Q283.93124 304.11563 284.35312 304.67813Q284.775 305.225 284.775 306.06876Q284.775 307.19376 283.94687 307.975Q283.13437 308.75626 281.88437 308.75626Q280.75937 308.75626 280.00937 308.08438Q279.25937 307.39688 279.15 306.33438Z" fill-rule="nonzero"/><path fill="#000000" d="M315.89688 305.83438L316.95938 305.74063Q317.0375 306.39688 317.31876 306.80313Q317.6 307.20938 318.17813 307.475Q318.77188 307.725 319.50626 307.725Q320.14688 307.725 320.64688 307.5375Q321.14688 307.33438 321.38126 307.00626Q321.63126 306.6625 321.63126 306.27188Q321.63126 305.86563 321.39688 305.56876Q321.1625 305.25626 320.63126 305.05313Q320.27188 304.9125 319.08438 304.63126Q317.9125 304.35 317.44376 304.1Q316.81876 303.77188 316.52188 303.30313Q316.225 302.81876 316.225 302.225Q316.225 301.58438 316.58438 301.02188Q316.95938 300.44376 317.6625 300.1625Q318.38126 299.86563 319.24063 299.86563Q320.19376 299.86563 320.92813 300.17813Q321.6625 300.475 322.05313 301.08438Q322.44376 301.67813 322.475 302.42813L321.38126 302.50626Q321.2875 301.69376 320.77188 301.2875Q320.27188 300.86563 319.2875 300.86563Q318.25626 300.86563 317.7875 301.24063Q317.31876 301.61563 317.31876 302.14688Q317.31876 302.61563 317.64688 302.9125Q317.975 303.20938 319.35 303.52188Q320.74063 303.83438 321.25626 304.06876Q322.00626 304.42813 322.36563 304.95938Q322.725 305.475 322.725 306.17813Q322.725 306.86563 322.33438 307.475Q321.94376 308.06876 321.20938 308.4125Q320.475 308.74063 319.55313 308.74063Q318.38126 308.74063 317.58438 308.4125Q316.80313 308.06876 316.35 307.38126Q315.9125 306.69376 315.89688 305.83438ZM324.14688 310.99063L324.14688 302.38126L325.1 302.38126L325.1 303.17813Q325.44376 302.70938 325.86563 302.475Q326.30313 302.24063 326.9125 302.24063Q327.70938 302.24063 328.31876 302.64688Q328.92813 303.05313 329.225 303.80313Q329.5375 304.55313 329.5375 305.44376Q329.5375 306.39688 329.19376 307.1625Q328.86563 307.92813 328.20938 308.33438Q327.55313 308.74063 326.83438 308.74063Q326.30313 308.74063 325.88126 308.52188Q325.45938 308.2875 325.19376 307.95938L325.19376 310.99063L324.14688 310.99063ZM325.1 305.52188Q325.1 306.725 325.58438 307.30313Q326.06876 307.86563 326.75626 307.86563Q327.45938 307.86563 327.95938 307.27188Q328.45938 306.67813 328.45938 305.42813Q328.45938 304.24063 327.975 303.6625Q327.49063 303.06876 326.80313 303.06876Q326.13126 303.06876 325.61563 303.69376Q325.1 304.31876 325.1 305.52188ZM331.13126 308.6L331.13126 302.38126L332.08438 302.38126L332.08438 303.31876Q332.44376 302.6625 332.74063 302.45938Q333.05313 302.24063 333.42813 302.24063Q333.95938 302.24063 334.50626 302.56876L334.14688 303.55313Q333.75626 303.31876 333.38126 303.31876Q333.02188 303.31876 332.74063 303.5375Q332.475 303.74063 332.36563 304.11563Q332.17813 304.67813 332.17813 305.33438L332.17813 308.6L331.13126 308.6ZM335.14688 301.225L335.14688 300.00626L336.20938 300.00626L336.20938 301.225L335.14688 301.225ZM335.14688 308.6L335.14688 302.38126L336.20938 302.38126L336.20938 308.6L335.14688 308.6ZM338.14688 308.6L338.14688 302.38126L339.08438 302.38126L339.08438 303.25626Q339.77188 302.24063 341.06876 302.24063Q341.63126 302.24063 342.1 302.44376Q342.58438 302.64688 342.81876 302.975Q343.05313 303.30313 343.14688 303.74063Q343.19376 304.0375 343.19376 304.77188L343.19376 308.6L342.14688 308.6L342.14688 304.81876Q342.14688 304.1625 342.02188 303.85Q341.89688 303.5375 341.58438 303.35Q341.27188 303.14688 340.85 303.14688Q340.17813 303.14688 339.67813 303.58438Q339.19376 304.00626 339.19376 305.19376L339.19376 308.6L338.14688 308.6ZM347.44376 307.6625L347.6 308.58438Q347.14688 308.67813 346.80313 308.67813Q346.225 308.67813 345.9125 308.50626Q345.6 308.31876 345.45938 308.02188Q345.33438 307.725 345.33438 306.77188L345.33438 303.19376L344.56876 303.19376L344.56876 302.38126L345.33438 302.38126L345.33438 300.83438L346.38126 300.20938L346.38126 302.38126L347.44376 302.38126L347.44376 303.19376L346.38126 303.19376L346.38126 306.83438Q346.38126 307.2875 346.42813 307.4125Q346.49063 307.5375 346.61563 307.61563Q346.74063 307.69376 346.975 307.69376Q347.1625 307.69376 347.44376 307.6625ZM354.225 308.6L354.225 306.5375L350.50626 306.5375L350.50626 305.56876L354.42813 300.00626L355.2875 300.00626L355.2875 305.56876L356.44376 305.56876L356.44376 306.5375L355.2875 306.5375L355.2875 308.6L354.225 308.6ZM354.225 305.56876L354.225 301.70938L351.5375 305.56876L354.225 305.56876Z" fill-rule="nonzero"/><path fill="#000000" d="M387.59686 305.83438L388.65936 305.74063Q388.7375 306.39688 389.01874 306.80313Q389.3 307.20938 389.8781 307.475Q390.47186 307.725 391.20624 307.725Q391.84686 307.725 392.34686 307.5375Q392.84686 307.33438 393.08124 307.00626Q393.33124 306.6625 393.33124 306.27188Q393.33124 305.86563 393.09686 305.56876Q392.8625 305.25626 392.33124 305.05313Q391.97186 304.9125 390.78436 304.63126Q389.6125 304.35 389.14374 304.1Q388.51874 303.77188 388.22186 303.30313Q387.925 302.81876 387.925 302.225Q387.925 301.58438 388.28436 301.02188Q388.65936 300.44376 389.3625 300.1625Q390.08124 299.86563 390.9406 299.86563Q391.89374 299.86563 392.6281 300.17813Q393.3625 300.475 393.7531 301.08438Q394.14374 301.67813 394.175 302.42813L393.08124 302.50626Q392.9875 301.69376 392.47186 301.2875Q391.97186 300.86563 390.9875 300.86563Q389.95624 300.86563 389.4875 301.24063Q389.01874 301.61563 389.01874 302.14688Q389.01874 302.61563 389.34686 302.9125Q389.675 303.20938 391.05 303.52188Q392.4406 303.83438 392.95624 304.06876Q393.70624 304.42813 394.0656 304.95938Q394.425 305.475 394.425 306.17813Q394.425 306.86563 394.03436 307.475Q393.64374 308.06876 392.90936 308.4125Q392.175 308.74063 391.2531 308.74063Q390.08124 308.74063 389.28436 308.4125Q388.5031 308.06876 388.05 307.38126Q387.6125 306.69376 387.59686 305.83438ZM395.84686 310.99063L395.84686 302.38126L396.8 302.38126L396.8 303.17813Q397.14374 302.70938 397.5656 302.475Q398.0031 302.24063 398.6125 302.24063Q399.40936 302.24063 400.01874 302.64688Q400.6281 303.05313 400.925 303.80313Q401.2375 304.55313 401.2375 305.44376Q401.2375 306.39688 400.89374 307.1625Q400.5656 307.92813 399.90936 308.33438Q399.2531 308.74063 398.53436 308.74063Q398.0031 308.74063 397.58124 308.52188Q397.15936 308.2875 396.89374 307.95938L396.89374 310.99063L395.84686 310.99063ZM396.8 305.52188Q396.8 306.725 397.28436 307.30313Q397.76874 307.86563 398.45624 307.86563Q399.15936 307.86563 399.65936 307.27188Q400.15936 306.67813 400.15936 305.42813Q400.15936 304.24063 399.675 303.6625Q399.1906 303.06876 398.5031 303.06876Q397.83124 303.06876 397.3156 303.69376Q396.8 304.31876 396.8 305.52188ZM402.83124 308.6L402.83124 302.38126L403.78436 302.38126L403.78436 303.31876Q404.14374 302.6625 404.4406 302.45938Q404.7531 302.24063 405.1281 302.24063Q405.65936 302.24063 406.20624 302.56876L405.84686 303.55313Q405.45624 303.31876 405.08124 303.31876Q404.72186 303.31876 404.4406 303.5375Q404.175 303.74063 404.0656 304.11563Q403.8781 304.67813 403.8781 305.33438L403.8781 308.6L402.83124 308.6ZM406.84686 301.225L406.84686 300.00626L407.90936 300.00626L407.90936 301.225L406.84686 301.225ZM406.84686 308.6L406.84686 302.38126L407.90936 302.38126L407.90936 308.6L406.84686 308.6ZM409.84686 308.6L409.84686 302.38126L410.78436 302.38126L410.78436 303.25626Q411.47186 302.24063 412.76874 302.24063Q413.33124 302.24063 413.8 302.44376Q414.28436 302.64688 414.51874 302.975Q414.7531 303.30313 414.84686 303.74063Q414.89374 304.0375 414.89374 304.77188L414.89374 308.6L413.84686 308.6L413.84686 304.81876Q413.84686 304.1625 413.72186 303.85Q413.59686 303.5375 413.28436 303.35Q412.97186 303.14688 412.55 303.14688Q411.8781 303.14688 411.3781 303.58438Q410.89374 304.00626 410.89374 305.19376L410.89374 308.6L409.84686 308.6ZM419.14374 307.6625L419.3 308.58438Q418.84686 308.67813 418.5031 308.67813Q417.925 308.67813 417.6125 308.50626Q417.3 308.31876 417.15936 308.02188Q417.03436 307.725 417.03436 306.77188L417.03436 303.19376L416.26874 303.19376L416.26874 302.38126L417.03436 302.38126L417.03436 300.83438L418.08124 300.20938L418.08124 302.38126L419.14374 302.38126L419.14374 303.19376L418.08124 303.19376L418.08124 306.83438Q418.08124 307.2875 418.1281 307.4125Q418.1906 307.5375 418.3156 307.61563Q418.4406 307.69376 418.675 307.69376Q418.8625 307.69376 419.14374 307.6625ZM422.55 306.35L423.65936 306.25626Q423.78436 307.06876 424.22186 307.475Q424.675 307.88126 425.3156 307.88126Q426.0656 307.88126 426.59686 307.30313Q427.1281 306.725 427.1281 305.7875Q427.1281 304.88126 426.6125 304.36563Q426.1125 303.83438 425.28436 303.83438Q424.78436 303.83438 424.3625 304.06876Q423.95624 304.30313 423.72186 304.6625L422.7375 304.5375L423.5656 300.13126L427.84686 300.13126L427.84686 301.13126L424.40936 301.13126L423.95624 303.44376Q424.72186 302.89688 425.5656 302.89688Q426.6906 302.89688 427.45624 303.67813Q428.2375 304.45938 428.2375 305.69376Q428.2375 306.85 427.5656 307.70938Q426.7375 308.74063 425.3156 308.74063Q424.14374 308.74063 423.39374 308.08438Q422.65936 307.42813 422.55 306.35Z" fill-rule="nonzero"/><path fill="#000000" d="M459.29688 305.83438L460.35938 305.74063Q460.4375 306.39688 460.71875 306.80313Q461.0 307.20938 461.57812 307.475Q462.17188 307.725 462.90625 307.725Q463.54688 307.725 464.04688 307.5375Q464.54688 307.33438 464.78125 307.00626Q465.03125 306.6625 465.03125 306.27188Q465.03125 305.86563 464.79688 305.56876Q464.5625 305.25626 464.03125 305.05313Q463.67188 304.9125 462.48438 304.63126Q461.3125 304.35 460.84375 304.1Q460.21875 303.77188 459.92188 303.30313Q459.625 302.81876 459.625 302.225Q459.625 301.58438 459.98438 301.02188Q460.35938 300.44376 461.0625 300.1625Q461.78125 299.86563 462.64062 299.86563Q463.59375 299.86563 464.32812 300.17813Q465.0625 300.475 465.45312 301.08438Q465.84375 301.67813 465.875 302.42813L464.78125 302.50626Q464.6875 301.69376 464.17188 301.2875Q463.67188 300.86563 462.6875 300.86563Q461.65625 300.86563 461.1875 301.24063Q460.71875 301.61563 460.71875 302.14688Q460.71875 302.61563 461.04688 302.9125Q461.375 303.20938 462.75 303.52188Q464.14062 303.83438 464.65625 304.06876Q465.40625 304.42813 465.76562 304.95938Q466.125 305.475 466.125 306.17813Q466.125 306.86563 465.73438 307.475Q465.34375 308.06876 464.60938 308.4125Q463.875 308.74063 462.95312 308.74063Q461.78125 308.74063 460.98438 308.4125Q460.20312 308.06876 459.75 307.38126Q459.3125 306.69376 459.29688 305.83438ZM467.54688 310.99063L467.54688 302.38126L468.5 302.38126L468.5 303.17813Q468.84375 302.70938 469.26562 302.475Q469.70312 302.24063 470.3125 302.24063Q471.10938 302.24063 471.71875 302.64688Q472.32812 303.05313 472.625 303.80313Q472.9375 304.55313 472.9375 305.44376Q472.9375 306.39688 472.59375 307.1625Q472.26562 307.92813 471.60938 308.33438Q470.95312 308.74063 470.23438 308.74063Q469.70312 308.74063 469.28125 308.52188Q468.85938 308.2875 468.59375 307.95938L468.59375 310.99063L467.54688 310.99063ZM468.5 305.52188Q468.5 306.725 468.98438 307.30313Q469.46875 307.86563 470.15625 307.86563Q470.85938 307.86563 471.35938 307.27188Q471.85938 306.67813 471.85938 305.42813Q471.85938 304.24063 471.375 303.6625Q470.89062 303.06876 470.20312 303.06876Q469.53125 303.06876 469.01562 303.69376Q468.5 304.31876 468.5 305.52188ZM474.53125 308.6L474.53125 302.38126L475.48438 302.38126L475.48438 303.31876Q475.84375 302.6625 476.14062 302.45938Q476.45312 302.24063 476.82812 302.24063Q477.35938 302.24063 477.90625 302.56876L477.54688 303.55313Q477.15625 303.31876 476.78125 303.31876Q476.42188 303.31876 476.14062 303.5375Q475.875 303.74063 475.76562 304.11563Q475.57812 304.67813 475.57812 305.33438L475.57812 308.6L474.53125 308.6ZM478.54688 301.225L478.54688 300.00626L479.60938 300.00626L479.60938 301.225L478.54688 301.225ZM478.54688 308.6L478.54688 302.38126L479.60938 302.38126L479.60938 308.6L478.54688 308.6ZM481.54688 308.6L481.54688 302.38126L482.48438 302.38126L482.48438 303.25626Q483.17188 302.24063 484.46875 302.24063Q485.03125 302.24063 485.5 302.44376Q485.98438 302.64688 486.21875 302.975Q486.45312 303.30313 486.54688 303.74063Q486.59375 304.0375 486.59375 304.77188L486.59375 308.6L485.54688 308.6L485.54688 304.81876Q485.54688 304.1625 485.42188 303.85Q485.29688 303.5375 484.98438 303.35Q484.67188 303.14688 484.25 303.14688Q483.57812 303.14688 483.07812 303.58438Q482.59375 304.00626 482.59375 305.19376L482.59375 308.6L481.54688 308.6ZM490.84375 307.6625L491.0 308.58438Q490.54688 308.67813 490.20312 308.67813Q489.625 308.67813 489.3125 308.50626Q489.0 308.31876 488.85938 308.02188Q488.73438 307.725 488.73438 306.77188L488.73438 303.19376L487.96875 303.19376L487.96875 302.38126L488.73438 302.38126L488.73438 300.83438L489.78125 300.20938L489.78125 302.38126L490.84375 302.38126L490.84375 303.19376L489.78125 303.19376L489.78125 306.83438Q489.78125 307.2875 489.82812 307.4125Q489.89062 307.5375 490.01562 307.61563Q490.14062 307.69376 490.375 307.69376Q490.5625 307.69376 490.84375 307.6625ZM499.71875 302.11563L498.67188 302.19376Q498.53125 301.56876 498.28125 301.2875Q497.84375 300.83438 497.21875 300.83438Q496.71875 300.83438 496.32812 301.11563Q495.84375 301.49063 495.54688 302.19376Q495.26562 302.88126 495.25 304.1625Q495.625 303.58438 496.17188 303.30313Q496.73438 303.02188 497.34375 303.02188Q498.39062 303.02188 499.125 303.80313Q499.875 304.58438 499.875 305.80313Q499.875 306.61563 499.51562 307.31876Q499.17188 308.00626 498.5625 308.38126Q497.95312 308.74063 497.1875 308.74063Q495.85938 308.74063 495.03125 307.77188Q494.20312 306.80313 494.20312 304.58438Q494.20312 302.08438 495.125 300.95938Q495.92188 299.975 497.28125 299.975Q498.29688 299.975 498.9375 300.55313Q499.59375 301.11563 499.71875 302.11563ZM495.42188 305.81876Q495.42188 306.36563 495.64062 306.86563Q495.875 307.35 496.28125 307.61563Q496.70312 307.88126 497.17188 307.88126Q497.82812 307.88126 498.3125 307.35Q498.79688 306.80313 498.79688 305.88126Q498.79688 304.99063 498.3125 304.475Q497.84375 303.95938 497.125 303.95938Q496.40625 303.95938 495.90625 304.475Q495.42188 304.99063 495.42188 305.81876Z" fill-rule="nonzero"/><path fill="#4285f4" d="M144.5 23.4C144.5 26.713709 141.8137 29.4 138.5 29.4C135.1863 29.4 132.5 26.713709 132.5 23.4C132.5 20.086292 135.1863 17.4 138.5 17.4C141.8137 17.4 144.5 20.086292 144.5 23.4Z" fill-rule="nonzero"/><path fill="#1a1a1a" d="M159.5625 24.384375L160.6875 24.68125Q160.32812 26.071875 159.40625 26.80625Q158.48438 27.540625 157.14062 27.540625Q155.75 27.540625 154.875 26.978125Q154.0 26.415625 153.54688 25.353125Q153.09375 24.275 153.09375 23.040625Q153.09375 21.696875 153.60938 20.696875Q154.125 19.696875 155.0625 19.18125Q156.01562 18.665625 157.15625 18.665625Q158.4375 18.665625 159.3125 19.321875Q160.20312 19.978125 160.54688 21.165625L159.42188 21.43125Q159.125 20.49375 158.54688 20.071875Q157.98438 19.634375 157.125 19.634375Q156.14062 19.634375 155.46875 20.11875Q154.8125 20.5875 154.53125 21.384375Q154.26562 22.18125 154.26562 23.040625Q154.26562 24.134375 154.57812 24.946875Q154.90625 25.759375 155.57812 26.165625Q156.25 26.571875 157.04688 26.571875Q158.0 26.571875 158.65625 26.025Q159.32812 25.478125 159.5625 24.384375ZM164.875 27.4L161.54688 18.80625L162.78125 18.80625L165.01562 25.05625Q165.28125 25.80625 165.46875 26.4625Q165.67188 25.759375 165.9375 25.05625L168.25 18.80625L169.40625 18.80625L166.04688 27.4L164.875 27.4Z" fill-rule="nonzero"/><path fill="#ea4335" d="M196.5 23.4C196.5 26.713709 193.8137 29.4 190.5 29.4C187.1863 29.4 184.5 26.713709 184.5 23.4C184.5 20.086292 187.1863 17.4 190.5 17.4C193.8137 17.4 196.5 20.086292 196.5 23.4Z" fill-rule="nonzero"/><path fill="#1a1a1a" d="M205.04688 24.634375L206.10938 24.540625Q206.1875 25.196875 206.46875 25.603125Q206.75 26.009375 207.32812 26.275Q207.92188 26.525 208.65625 26.525Q209.29688 26.525 209.79688 26.3375Q210.29688 26.134375 210.53125 25.80625Q210.78125 25.4625 210.78125 25.071875Q210.78125 24.665625 210.54688 24.36875Q210.3125 24.05625 209.78125 23.853125Q209.42188 23.7125 208.23438 23.43125Q207.0625 23.15 206.59375 22.9Q205.96875 22.571875 205.67188 22.103125Q205.375 21.61875 205.375 21.025Q205.375 20.384375 205.73438 19.821875Q206.10938 19.24375 206.8125 18.9625Q207.53125 18.665625 208.39062 18.665625Q209.34375 18.665625 210.07812 18.978125Q210.8125 19.275 211.20312 19.884375Q211.59375 20.478125 211.625 21.228125L210.53125 21.30625Q210.4375 20.49375 209.92188 20.0875Q209.42188 19.665625 208.4375 19.665625Q207.40625 19.665625 206.9375 20.040625Q206.46875 20.415625 206.46875 20.946875Q206.46875 21.415625 206.79688 21.7125Q207.125 22.009375 208.5 22.321875Q209.89062 22.634375 210.40625 22.86875Q211.15625 23.228125 211.51562 23.759375Q211.875 24.275 211.875 24.978125Q211.875 25.665625 211.48438 26.275Q211.09375 26.86875 210.35938 27.2125Q209.625 27.540625 208.70312 27.540625Q207.53125 27.540625 206.73438 27.2125Q205.95312 26.86875 205.5 26.18125Q205.0625 25.49375 205.04688 24.634375ZM215.875 27.4L212.54688 18.80625L213.78125 18.80625L216.01562 25.05625Q216.28125 25.80625 216.46875 26.4625Q216.67188 25.759375 216.9375 25.05625L219.25 18.80625L220.40625 18.80625L217.04688 27.4L215.875 27.4Z" fill-rule="nonzero"/><path fill="#fbbc04" fill-opacity="0.7019608" d="M247.5 23.4C247.5 26.713709 244.8137 29.4 241.5 29.4C238.1863 29.4 235.5 26.713709 235.5 23.4C235.5 20.086292 238.1863 17.4 241.5 17.4C244.8137 17.4 247.5 20.086292 247.5 23.4Z" fill-rule="nonzero"/><path fill="#1a1a1a" d="M256.375 27.4L256.375 18.80625L257.51562 18.80625L257.51562 26.384375L261.75 26.384375L261.75 27.4L256.375 27.4ZM263.29688 20.025L263.29688 18.80625L264.35938 18.80625L264.35938 20.025L263.29688 20.025ZM263.29688 27.4L263.29688 21.18125L264.35938 21.18125L264.35938 27.4L263.29688 27.4ZM266.29688 27.4L266.29688 21.18125L267.23438 21.18125L267.23438 22.05625Q267.53125 21.5875 268.01562 21.321875Q268.5 21.040625 269.125 21.040625Q269.8125 21.040625 270.25 21.321875Q270.70312 21.603125 270.875 22.11875Q271.625 21.040625 272.79688 21.040625Q273.73438 21.040625 274.21875 21.55625Q274.71875 22.05625 274.71875 23.134375L274.71875 27.4L273.67188 27.4L273.67188 23.478125Q273.67188 22.853125 273.5625 22.571875Q273.46875 22.290625 273.20312 22.11875Q272.9375 21.946875 272.5625 21.946875Q271.90625 21.946875 271.46875 22.384375Q271.04688 22.821875 271.04688 23.790625L271.04688 27.4L269.98438 27.4L269.98438 23.353125Q269.98438 22.65 269.71875 22.30625Q269.46875 21.946875 268.89062 21.946875Q268.4375 21.946875 268.0625 22.18125Q267.6875 22.415625 267.51562 22.86875Q267.34375 23.321875 267.34375 24.165625L267.34375 27.4L266.29688 27.4ZM277.29688 20.025L277.29688 18.80625L278.35938 18.80625L278.35938 20.025L277.29688 20.025ZM277.29688 27.4L277.29688 21.18125L278.35938 21.18125L278.35938 27.4L277.29688 27.4ZM282.59375 26.4625L282.75 27.384375Q282.29688 27.478125 281.95312 27.478125Q281.375 27.478125 281.0625 27.30625Q280.75 27.11875 280.60938 26.821875Q280.48438 26.525 280.48438 25.571875L280.48438 21.99375L279.71875 21.99375L279.71875 21.18125L280.48438 21.18125L280.48438 19.634375L281.53125 19.009375L281.53125 21.18125L282.59375 21.18125L282.59375 21.99375L281.53125 21.99375L281.53125 25.634375Q281.53125 26.0875 281.57812 26.2125Q281.64062 26.3375 281.76562 26.415625Q281.89062 26.49375 282.125 26.49375Q282.3125 26.49375 282.59375 26.4625ZM287.54688 25.4L288.64062 25.525Q288.39062 26.478125 287.6875 27.009375Q286.98438 27.540625 285.90625 27.540625Q284.54688 27.540625 283.73438 26.696875Q282.9375 25.853125 282.9375 24.3375Q282.9375 22.775 283.75 21.915625Q284.5625 21.040625 285.84375 21.040625Q287.09375 21.040625 287.875 21.884375Q288.67188 22.728125 288.67188 24.275Q288.67188 24.36875 288.67188 24.55625L284.03125 24.55625Q284.09375 25.5875 284.60938 26.134375Q285.125 26.665625 285.90625 26.665625Q286.48438 26.665625 286.89062 26.36875Q287.3125 26.05625 287.54688 25.4ZM284.09375 23.696875L287.5625 23.696875Q287.5 22.9 287.17188 22.509375Q286.65625 21.9 285.85938 21.9Q285.125 21.9 284.625 22.384375Q284.14062 22.86875 284.09375 23.696875ZM292.875 25.540625L293.90625 25.384375Q294.0 26.009375 294.39062 26.3375Q294.79688 26.665625 295.53125 26.665625Q296.25 26.665625 296.59375 26.384375Q296.95312 26.0875 296.95312 25.68125Q296.95312 25.321875 296.64062 25.11875Q296.42188 24.978125 295.5625 24.759375Q294.40625 24.4625 293.95312 24.259375Q293.51562 24.040625 293.28125 23.665625Q293.04688 23.290625 293.04688 22.821875Q293.04688 22.415625 293.23438 22.05625Q293.42188 21.696875 293.75 21.4625Q294.0 21.290625 294.42188 21.165625Q294.84375 21.040625 295.34375 21.040625Q296.0625 21.040625 296.60938 21.259375Q297.17188 21.4625 297.4375 21.821875Q297.70312 22.18125 297.79688 22.775L296.76562 22.915625Q296.70312 22.446875 296.35938 22.18125Q296.03125 21.9 295.40625 21.9Q294.6875 21.9 294.375 22.15Q294.0625 22.384375 294.0625 22.7125Q294.0625 22.915625 294.1875 23.071875Q294.32812 23.24375 294.59375 23.353125Q294.75 23.415625 295.53125 23.61875Q296.65625 23.93125 297.09375 24.11875Q297.53125 24.30625 297.78125 24.665625Q298.03125 25.025 298.03125 25.571875Q298.03125 26.103125 297.71875 26.571875Q297.42188 27.025 296.84375 27.290625Q296.26562 27.540625 295.53125 27.540625Q294.3125 27.540625 293.67188 27.040625Q293.04688 26.525 292.875 25.540625ZM304.375 27.4L304.375 26.478125Q303.64062 27.540625 302.39062 27.540625Q301.84375 27.540625 301.35938 27.3375Q300.89062 27.11875 300.65625 26.80625Q300.42188 26.478125 300.32812 26.009375Q300.26562 25.7125 300.26562 25.025L300.26562 21.18125L301.32812 21.18125L301.32812 24.634375Q301.32812 25.446875 301.39062 25.74375Q301.48438 26.15 301.79688 26.4Q302.125 26.634375 302.60938 26.634375Q303.07812 26.634375 303.48438 26.4Q303.90625 26.15 304.07812 25.728125Q304.26562 25.30625 304.26562 24.509375L304.26562 21.18125L305.3125 21.18125L305.3125 27.4L304.375 27.4ZM307.29688 29.790625L307.29688 21.18125L308.25 21.18125L308.25 21.978125Q308.59375 21.509375 309.01562 21.275Q309.45312 21.040625 310.0625 21.040625Q310.85938 21.040625 311.46875 21.446875Q312.07812 21.853125 312.375 22.603125Q312.6875 23.353125 312.6875 24.24375Q312.6875 25.196875 312.34375 25.9625Q312.01562 26.728125 311.35938 27.134375Q310.70312 27.540625 309.98438 27.540625Q309.45312 27.540625 309.03125 27.321875Q308.60938 27.0875 308.34375 26.759375L308.34375 29.790625L307.29688 29.790625ZM308.25 24.321875Q308.25 25.525 308.73438 26.103125Q309.21875 26.665625 309.90625 26.665625Q310.60938 26.665625 311.10938 26.071875Q311.60938 25.478125 311.60938 24.228125Q311.60938 23.040625 311.125 22.4625Q310.64062 21.86875 309.95312 21.86875Q309.28125 21.86875 308.76562 22.49375Q308.25 23.11875 308.25 24.321875Z" fill-rule="nonzero"/><path fill="#34a853" d="M341.5 23.4C341.5 26.713709 338.81372 29.4 335.5 29.4C332.18628 29.4 329.5 26.713709 329.5 23.4C329.5 20.086292 332.18628 17.4 335.5 17.4C338.81372 17.4 341.5 20.086292 341.5 23.4Z" fill-rule="nonzero"/><path fill="#1a1a1a" d="M350.375 27.4L350.375 18.80625L351.51562 18.80625L351.51562 26.384375L355.75 26.384375L355.75 27.4L350.375 27.4ZM357.29688 20.025L357.29688 18.80625L358.35938 18.80625L358.35938 20.025L357.29688 20.025ZM357.29688 27.4L357.29688 21.18125L358.35938 21.18125L358.35938 27.4L357.29688 27.4ZM360.29688 27.4L360.29688 21.18125L361.23438 21.18125L361.23438 22.05625Q361.53125 21.5875 362.01562 21.321875Q362.5 21.040625 363.125 21.040625Q363.8125 21.040625 364.25 21.321875Q364.70312 21.603125 364.875 22.11875Q365.625 21.040625 366.79688 21.040625Q367.73438 21.040625 368.21875 21.55625Q368.71875 22.05625 368.71875 23.134375L368.71875 27.4L367.67188 27.4L367.67188 23.478125Q367.67188 22.853125 367.5625 22.571875Q367.46875 22.290625 367.20312 22.11875Q366.9375 21.946875 366.5625 21.946875Q365.90625 21.946875 365.46875 22.384375Q365.04688 22.821875 365.04688 23.790625L365.04688 27.4L363.98438 27.4L363.98438 23.353125Q363.98438 22.65 363.71875 22.30625Q363.46875 21.946875 362.89062 21.946875Q362.4375 21.946875 362.0625 22.18125Q361.6875 22.415625 361.51562 22.86875Q361.34375 23.321875 361.34375 24.165625L361.34375 27.4L360.29688 27.4ZM371.29688 20.025L371.29688 18.80625L372.35938 18.80625L372.35938 20.025L371.29688 20.025ZM371.29688 27.4L371.29688 21.18125L372.35938 21.18125L372.35938 27.4L371.29688 27.4ZM376.59375 26.4625L376.75 27.384375Q376.29688 27.478125 375.95312 27.478125Q375.375 27.478125 375.0625 27.30625Q374.75 27.11875 374.60938 26.821875Q374.48438 26.525 374.48438 25.571875L374.48438 21.99375L373.71875 21.99375L373.71875 21.18125L374.48438 21.18125L374.48438 19.634375L375.53125 19.009375L375.53125 21.18125L376.59375 21.18125L376.59375 21.99375L375.53125 21.99375L375.53125 25.634375Q375.53125 26.0875 375.57812 26.2125Q375.64062 26.3375 375.76562 26.415625Q375.89062 26.49375 376.125 26.49375Q376.3125 26.49375 376.59375 26.4625ZM381.54688 25.4L382.64062 25.525Q382.39062 26.478125 381.6875 27.009375Q380.98438 27.540625 379.90625 27.540625Q378.54688 27.540625 377.73438 26.696875Q376.9375 25.853125 376.9375 24.3375Q376.9375 22.775 377.75 21.915625Q378.5625 21.040625 379.84375 21.040625Q381.09375 21.040625 381.875 21.884375Q382.67188 22.728125 382.67188 24.275Q382.67188 24.36875 382.67188 24.55625L378.03125 24.55625Q378.09375 25.5875 378.60938 26.134375Q379.125 26.665625 379.90625 26.665625Q380.48438 26.665625 380.89062 26.36875Q381.3125 26.05625 381.54688 25.4ZM378.09375 23.696875L381.5625 23.696875Q381.5 22.9 381.17188 22.509375Q380.65625 21.9 379.85938 21.9Q379.125 21.9 378.625 22.384375Q378.14062 22.86875 378.09375 23.696875ZM387.29688 20.025L387.29688 18.80625L388.35938 18.80625L388.35938 20.025L387.29688 20.025ZM387.29688 27.4L387.29688 21.18125L388.35938 21.18125L388.35938 27.4L387.29688 27.4ZM390.29688 27.4L390.29688 21.18125L391.23438 21.18125L391.23438 22.05625Q391.92188 21.040625 393.21875 21.040625Q393.78125 21.040625 394.25 21.24375Q394.73438 21.446875 394.96875 21.775Q395.20312 22.103125 395.29688 22.540625Q395.34375 22.8375 395.34375 23.571875L395.34375 27.4L394.29688 27.4L394.29688 23.61875Q394.29688 22.9625 394.17188 22.65Q394.04688 22.3375 393.73438 22.15Q393.42188 21.946875 393.0 21.946875Q392.32812 21.946875 391.82812 22.384375Q391.34375 22.80625 391.34375 23.99375L391.34375 27.4L390.29688 27.4ZM397.54688 27.4L397.54688 21.99375L396.60938 21.99375L396.60938 21.18125L397.54688 21.18125L397.54688 20.509375Q397.54688 19.884375 397.65625 19.5875Q397.8125 19.165625 398.1875 18.915625Q398.57812 18.665625 399.26562 18.665625Q399.71875 18.665625 400.25 18.775L400.09375 19.68125Q399.76562 19.634375 399.46875 19.634375Q398.98438 19.634375 398.78125 19.8375Q398.59375 20.040625 398.59375 20.603125L398.59375 21.18125L399.8125 21.18125L399.8125 21.99375L398.59375 21.99375L398.59375 27.4L397.54688 27.4Z" fill-rule="nonzero"/></svg>