<svg version="1.1" viewBox="0.0 0.0 532.0 328.0" fill="none" stroke="none" stroke-linecap="square" stroke-miterlimit="10" width="532" height="328" xmlns:xlink="http://www.w3.org/1999/xlink" xmlns="http://www.w3.org/2000/svg"><path fill="#ffffff" d="M0 0L532.0 0L532.0 328.0L0 328.0L0 0Z" fill-rule="nonzero"/><path stroke="#cccccc" stroke-width="1.0" stroke-linecap="butt" d="M85.5 285.5L515.5 285.5" fill-rule="nonzero"/><path stroke="#cccccc" stroke-width="1.0" stroke-linecap="butt" d="M85.5 255.5L515.5 255.5" fill-rule="nonzero"/><path stroke="#cccccc" stroke-width="1.0" stroke-linecap="butt" d="M85.5 226.5L515.5 226.5" fill-rule="nonzero"/><path stroke="#cccccc" stroke-width="1.0" stroke-linecap="butt" d="M85.5 196.5L515.5 196.5" fill-rule="nonzero"/><path stroke="#333333" stroke-width="1.0" stroke-linecap="butt" d="M85.5 166.5L515.5 166.5" fill-rule="nonzero"/><path stroke="#cccccc" stroke-width="1.0" stroke-linecap="butt" d="M85.5 137.5L515.5 137.5" fill-rule="nonzero"/><path stroke="#cccccc" stroke-width="1.0" stroke-linecap="butt" d="M85.5 107.5L515.5 107.5" fill-rule="nonzero"/><path stroke="#cccccc" stroke-width="1.0" stroke-linecap="butt" d="M85.5 77.5L515.5 77.5" fill-rule="nonzero"/><path stroke="#cccccc" stroke-width="1.0" stroke-linecap="butt" d="M85.5 48.5L515.5 48.5" fill-rule="nonzero"/><path stroke="#000000" stroke-width="1.0" stroke-linecap="butt" stroke-opacity="0.0" d="M85.5 275.5L515.5 275.5" fill-rule="nonzero"/><path stroke="#000000" stroke-width="1.0" stroke-linecap="butt" stroke-opacity="0.0" d="M85.5 265.5L515.5 265.5" fill-rule="nonzero"/><path stroke="#000000" stroke-width="1.0" stroke-linecap="butt" stroke-opacity="0.0" d="M85.5 246.5L515.5 246.5" fill-rule="nonzero"/><path stroke="#000000" stroke-width="1.0" stroke-linecap="butt" stroke-opacity="0.0" d="M85.5 236.5L515.5 236.5" fill-rule="nonzero"/><path stroke="#000000" stroke-width="1.0" stroke-linecap="butt" stroke-opacity="0.0" d="M85.5 216.5L515.5 216.5" fill-rule="nonzero"/><path stroke="#000000" stroke-width="1.0" stroke-linecap="butt" stroke-opacity="0.0" d="M85.5 206.5L515.5 206.5" fill-rule="nonzero"/><path stroke="#000000" stroke-width="1.0" stroke-linecap="butt" stroke-opacity="0.0" d="M85.5 186.5L515.5 186.5" fill-rule="nonzero"/><path stroke="#000000" stroke-width="1.0" stroke-linecap="butt" stroke-opacity="0.0" d="M85.5 176.5L515.5 176.5" fill-rule="nonzero"/><path stroke="#000000" stroke-width="1.0" stroke-linecap="butt" stroke-opacity="0.0" d="M85.5 157.5L515.5 157.5" fill-rule="nonzero"/><path stroke="#000000" stroke-width="1.0" stroke-linecap="butt" stroke-opacity="0.0" d="M85.5 147.5L515.5 147.5" fill-rule="nonzero"/><path stroke="#000000" stroke-width="1.0" stroke-linecap="butt" stroke-opacity="0.0" d="M85.5 127.5L515.5 127.5" fill-rule="nonzero"/><path stroke="#000000" stroke-width="1.0" stroke-linecap="butt" stroke-opacity="0.0" d="M85.5 117.5L515.5 117.5" fill-rule="nonzero"/><path stroke="#000000" stroke-width="1.0" stroke-linecap="butt" stroke-opacity="0.0" d="M85.5 97.5L515.5 97.5" fill-rule="nonzero"/><path stroke="#000000" stroke-width="1.0" stroke-linecap="butt" stroke-opacity="0.0" d="M85.5 87.5L515.5 87.5" fill-rule="nonzero"/><path stroke="#000000" stroke-width="1.0" stroke-linecap="butt" stroke-opacity="0.0" d="M85.5 68.5L515.5 68.5" fill-rule="nonzero"/><path stroke="#000000" stroke-width="1.0" stroke-linecap="butt" stroke-opacity="0.0" d="M85.5 58.5L515.5 58.5" fill-rule="nonzero"/><path stroke="#000000" stroke-width="1.0" stroke-linecap="butt" d="M515.5 285.5L85.5 285.5" fill-rule="nonzero"/><path stroke="#000000" stroke-width="1.0" stroke-linecap="butt" d="M85.5 285.5L85.5 48.5" fill-rule="nonzero"/><clipPath id="id_0"><path d="M85.4 48.333332L515.6 48.333332L515.6 285.6L85.4 285.6L85.4 48.333332Z" clip-rule="nonzero"/></clipPath><path stroke="#4285f4" stroke-width="2.0" stroke-linecap="butt" clip-path="url(#id_0)" d="M112.2875 176.43005C112.2875 176.43005 148.1375 181.5932 166.0625 182.3099C183.9875 183.02661 201.9125 180.63893 219.8375 180.73027C237.7625 180.82161 255.6875 182.29973 273.6125 182.85794C291.5375 183.41614 309.4625 183.8571 327.3875 184.0795C345.3125 184.3019 363.2375 185.43788 381.1625 184.19234C399.0875 182.94678 417.0125 177.18149 434.9375 176.6062C452.8625 176.03091 488.7125 180.74063 488.7125 180.74063" fill-rule="nonzero"/><path stroke="#ea4335" stroke-width="2.0" stroke-linecap="butt" clip-path="url(#id_0)" d="M112.2875 168.45706C112.2875 168.45706 148.1375 173.42506 166.0625 174.41867C183.9875 175.41226 201.9125 174.41867 219.8375 174.41867C237.7625 174.41867 255.6875 174.41867 273.6125 174.41867C291.5375 174.41867 309.4625 163.98587 327.3875 174.41867C345.3125 184.85147 363.2375 224.59547 381.1625 237.01549C399.0875 249.43549 417.0125 250.92589 434.9375 248.93869C452.8625 246.95148 488.7125 225.09229 488.7125 225.09229" fill-rule="nonzero"/><path stroke="#fbbc04" stroke-width="2.0" stroke-linecap="butt" stroke-opacity="0.7019608" clip-path="url(#id_0)" d="M112.2875 70.984886C112.2875 70.984886 148.1375 70.984886 166.0625 70.984886C183.9875 70.984886 201.9125 70.984886 219.8375 70.984886C237.7625 70.984886 255.6875 70.984886 273.6125 70.984886C291.5375 70.984886 309.4625 70.984886 327.3875 70.984886C345.3125 70.984886 363.2375 70.984886 381.1625 70.984886C399.0875 70.984886 417.0125 70.984886 434.9375 70.984886C452.8625 70.984886 488.7125 70.984886 488.7125 70.984886" fill-rule="nonzero"/><path stroke="#34a853" stroke-width="2.0" stroke-linecap="butt" clip-path="url(#id_0)" d="M112.2875 262.94846C112.2875 262.94846 148.1375 262.94846 166.0625 262.94846C183.9875 262.94846 201.9125 262.94846 219.8375 262.94846C237.7625 262.94846 255.6875 262.94846 273.6125 262.94846C291.5375 262.94846 309.4625 262.94846 327.3875 262.94846C345.3125 262.94846 363.2375 262.94846 381.1625 262.94846C399.0875 262.94846 417.0125 262.94846 434.9375 262.94846C452.8625 262.94846 488.7125 262.94846 488.7125 262.94846" fill-rule="nonzero"/><path fill="#4285f4" clip-path="url(#id_0)" d="M115.7875 176.43005C115.7875 178.36304 114.2205 179.93005 112.2875 179.93005C110.3545 179.93005 108.7875 178.36304 108.7875 176.43005C108.7875 174.49706 110.3545 172.93005 112.2875 172.93005C114.2205 172.93005 115.7875 174.49706 115.7875 176.43005Z" fill-rule="nonzero"/><path fill="#4285f4" clip-path="url(#id_0)" d="M169.5625 182.3099C169.5625 184.2429 167.9955 185.8099 166.0625 185.8099C164.1295 185.8099 162.5625 184.2429 162.5625 182.3099C162.5625 180.3769 164.1295 178.8099 166.0625 178.8099C167.9955 178.8099 169.5625 180.3769 169.5625 182.3099Z" fill-rule="nonzero"/><path fill="#4285f4" clip-path="url(#id_0)" d="M223.3375 180.73027C223.3375 182.66327 221.7705 184.23027 219.8375 184.23027C217.90451 184.23027 216.3375 182.66327 216.3375 180.73027C216.3375 178.79727 217.90451 177.23027 219.8375 177.23027C221.7705 177.23027 223.3375 178.79727 223.3375 180.73027Z" fill-rule="nonzero"/><path fill="#4285f4" clip-path="url(#id_0)" d="M277.1125 182.85794C277.1125 184.79094 275.5455 186.35794 273.6125 186.35794C271.6795 186.35794 270.1125 184.79094 270.1125 182.85794C270.1125 180.92494 271.6795 179.35794 273.6125 179.35794C275.5455 179.35794 277.1125 180.92494 277.1125 182.85794Z" fill-rule="nonzero"/><path fill="#4285f4" clip-path="url(#id_0)" d="M330.8875 184.0795C330.8875 186.0125 329.3205 187.5795 327.3875 187.5795C325.4545 187.5795 323.8875 186.0125 323.8875 184.0795C323.8875 182.1465 325.4545 180.5795 327.3875 180.5795C329.3205 180.5795 330.8875 182.1465 330.8875 184.0795Z" fill-rule="nonzero"/><path fill="#4285f4" clip-path="url(#id_0)" d="M384.6625 184.19234C384.6625 186.12534 383.0955 187.69234 381.1625 187.69234C379.2295 187.69234 377.6625 186.12534 377.6625 184.19234C377.6625 182.25934 379.2295 180.69234 381.1625 180.69234C383.0955 180.69234 384.6625 182.25934 384.6625 184.19234Z" fill-rule="nonzero"/><path fill="#4285f4" clip-path="url(#id_0)" d="M438.4375 176.6062C438.4375 178.5392 436.87048 180.1062 434.9375 180.1062C433.00452 180.1062 431.4375 178.5392 431.4375 176.6062C431.4375 174.6732 433.00452 173.1062 434.9375 173.1062C436.87048 173.1062 438.4375 174.6732 438.4375 176.6062Z" fill-rule="nonzero"/><path fill="#4285f4" clip-path="url(#id_0)" d="M492.2125 180.74063C492.2125 182.67363 490.6455 184.24063 488.7125 184.24063C486.7795 184.24063 485.2125 182.67363 485.2125 180.74063C485.2125 178.80765 486.7795 177.24063 488.7125 177.24063C490.6455 177.24063 492.2125 178.80765 492.2125 180.74063Z" fill-rule="nonzero"/><path fill="#ea4335" clip-path="url(#id_0)" d="M115.7875 168.45706C115.7875 170.39006 114.2205 171.95706 112.2875 171.95706C110.3545 171.95706 108.7875 170.39006 108.7875 168.45706C108.7875 166.52406 110.3545 164.95706 112.2875 164.95706C114.2205 164.95706 115.7875 166.52406 115.7875 168.45706Z" fill-rule="nonzero"/><path fill="#ea4335" clip-path="url(#id_0)" d="M169.5625 174.41867C169.5625 176.35167 167.9955 177.91867 166.0625 177.91867C164.1295 177.91867 162.5625 176.35167 162.5625 174.41867C162.5625 172.48567 164.1295 170.91867 166.0625 170.91867C167.9955 170.91867 169.5625 172.48567 169.5625 174.41867Z" fill-rule="nonzero"/><path fill="#ea4335" clip-path="url(#id_0)" d="M223.3375 174.41867C223.3375 176.35167 221.7705 177.91867 219.8375 177.91867C217.90451 177.91867 216.3375 176.35167 216.3375 174.41867C216.3375 172.48567 217.90451 170.91867 219.8375 170.91867C221.7705 170.91867 223.3375 172.48567 223.3375 174.41867Z" fill-rule="nonzero"/><path fill="#ea4335" clip-path="url(#id_0)" d="M277.1125 174.41867C277.1125 176.35167 275.5455 177.91867 273.6125 177.91867C271.6795 177.91867 270.1125 176.35167 270.1125 174.41867C270.1125 172.48567 271.6795 170.91867 273.6125 170.91867C275.5455 170.91867 277.1125 172.48567 277.1125 174.41867Z" fill-rule="nonzero"/><path fill="#ea4335" clip-path="url(#id_0)" d="M330.8875 174.41867C330.8875 176.35167 329.3205 177.91867 327.3875 177.91867C325.4545 177.91867 323.8875 176.35167 323.8875 174.41867C323.8875 172.48567 325.4545 170.91867 327.3875 170.91867C329.3205 170.91867 330.8875 172.48567 330.8875 174.41867Z" fill-rule="nonzero"/><path fill="#ea4335" clip-path="url(#id_0)" d="M384.6625 237.01549C384.6625 238.94849 383.0955 240.51549 381.1625 240.51549C379.2295 240.51549 377.6625 238.94849 377.6625 237.01549C377.6625 235.08249 379.2295 233.51549 381.1625 233.51549C383.0955 233.51549 384.6625 235.08249 384.6625 237.01549Z" fill-rule="nonzero"/><path fill="#ea4335" clip-path="url(#id_0)" d="M438.4375 248.93869C438.4375 250.87169 436.87048 252.43869 434.9375 252.43869C433.00452 252.43869 431.4375 250.87169 431.4375 248.93869C431.4375 247.00569 433.00452 245.43869 434.9375 245.43869C436.87048 245.43869 438.4375 247.00569 438.4375 248.93869Z" fill-rule="nonzero"/><path fill="#ea4335" clip-path="url(#id_0)" d="M492.2125 225.09229C492.2125 227.02527 490.6455 228.59229 488.7125 228.59229C486.7795 228.59229 485.2125 227.02527 485.2125 225.09229C485.2125 223.15929 486.7795 221.59229 488.7125 221.59229C490.6455 221.59229 492.2125 223.15929 492.2125 225.09229Z" fill-rule="nonzero"/><path fill="#fbbc04" fill-opacity="0.7019608" clip-path="url(#id_0)" d="M115.7875 70.984886C115.7875 72.917885 114.2205 74.484886 112.2875 74.484886C110.3545 74.484886 108.7875 72.917885 108.7875 70.984886C108.7875 69.05189 110.3545 67.484886 112.2875 67.484886C114.2205 67.484886 115.7875 69.05189 115.7875 70.984886Z" fill-rule="nonzero"/><path fill="#fbbc04" fill-opacity="0.7019608" clip-path="url(#id_0)" d="M169.5625 70.984886C169.5625 72.917885 167.9955 74.484886 166.0625 74.484886C164.1295 74.484886 162.5625 72.917885 162.5625 70.984886C162.5625 69.05189 164.1295 67.484886 166.0625 67.484886C167.9955 67.484886 169.5625 69.05189 169.5625 70.984886Z" fill-rule="nonzero"/><path fill="#fbbc04" fill-opacity="0.7019608" clip-path="url(#id_0)" d="M223.3375 70.984886C223.3375 72.917885 221.7705 74.484886 219.8375 74.484886C217.90451 74.484886 216.3375 72.917885 216.3375 70.984886C216.3375 69.05189 217.90451 67.484886 219.8375 67.484886C221.7705 67.484886 223.3375 69.05189 223.3375 70.984886Z" fill-rule="nonzero"/><path fill="#fbbc04" fill-opacity="0.7019608" clip-path="url(#id_0)" d="M277.1125 70.984886C277.1125 72.917885 275.5455 74.484886 273.6125 74.484886C271.6795 74.484886 270.1125 72.917885 270.1125 70.984886C270.1125 69.05189 271.6795 67.484886 273.6125 67.484886C275.5455 67.484886 277.1125 69.05189 277.1125 70.984886Z" fill-rule="nonzero"/><path fill="#fbbc04" fill-opacity="0.7019608" clip-path="url(#id_0)" d="M330.8875 70.984886C330.8875 72.917885 329.3205 74.484886 327.3875 74.484886C325.4545 74.484886 323.8875 72.917885 323.8875 70.984886C323.8875 69.05189 325.4545 67.484886 327.3875 67.484886C329.3205 67.484886 330.8875 69.05189 330.8875 70.984886Z" fill-rule="nonzero"/><path fill="#fbbc04" fill-opacity="0.7019608" clip-path="url(#id_0)" d="M384.6625 70.984886C384.6625 72.917885 383.0955 74.484886 381.1625 74.484886C379.2295 74.484886 377.6625 72.917885 377.6625 70.984886C377.6625 69.05189 379.2295 67.484886 381.1625 67.484886C383.0955 67.484886 384.6625 69.05189 384.6625 70.984886Z" fill-rule="nonzero"/><path fill="#fbbc04" fill-opacity="0.7019608" clip-path="url(#id_0)" d="M438.4375 70.984886C438.4375 72.917885 436.87048 74.484886 434.9375 74.484886C433.00452 74.484886 431.4375 72.917885 431.4375 70.984886C431.4375 69.05189 433.00452 67.484886 434.9375 67.484886C436.87048 67.484886 438.4375 69.05189 438.4375 70.984886Z" fill-rule="nonzero"/><path fill="#fbbc04" fill-opacity="0.7019608" clip-path="url(#id_0)" d="M492.2125 70.984886C492.2125 72.917885 490.6455 74.484886 488.7125 74.484886C486.7795 74.484886 485.2125 72.917885 485.2125 70.984886C485.2125 69.05189 486.7795 67.484886 488.7125 67.484886C490.6455 67.484886 492.2125 69.05189 492.2125 70.984886Z" fill-rule="nonzero"/><path fill="#34a853" clip-path="url(#id_0)" d="M115.7875 262.94846C115.7875 264.88144 114.2205 266.44846 112.2875 266.44846C110.3545 266.44846 108.7875 264.88144 108.7875 262.94846C108.7875 261.01544 110.3545 259.44846 112.2875 259.44846C114.2205 259.44846 115.7875 261.01544 115.7875 262.94846Z" fill-rule="nonzero"/><path fill="#34a853" clip-path="url(#id_0)" d="M169.5625 262.94846C169.5625 264.88144 167.9955 266.44846 166.0625 266.44846C164.1295 266.44846 162.5625 264.88144 162.5625 262.94846C162.5625 261.01544 164.1295 259.44846 166.0625 259.44846C167.9955 259.44846 169.5625 261.01544 169.5625 262.94846Z" fill-rule="nonzero"/><path fill="#34a853" clip-path="url(#id_0)" d="M223.3375 262.94846C223.3375 264.88144 221.7705 266.44846 219.8375 266.44846C217.90451 266.44846 216.3375 264.88144 216.3375 262.94846C216.3375 261.01544 217.90451 259.44846 219.8375 259.44846C221.7705 259.44846 223.3375 261.01544 223.3375 262.94846Z" fill-rule="nonzero"/><path fill="#34a853" clip-path="url(#id_0)" d="M277.1125 262.94846C277.1125 264.88144 275.5455 266.44846 273.6125 266.44846C271.6795 266.44846 270.1125 264.88144 270.1125 262.94846C270.1125 261.01544 271.6795 259.44846 273.6125 259.44846C275.5455 259.44846 277.1125 261.01544 277.1125 262.94846Z" fill-rule="nonzero"/><path fill="#34a853" clip-path="url(#id_0)" d="M330.8875 262.94846C330.8875 264.88144 329.3205 266.44846 327.3875 266.44846C325.4545 266.44846 323.8875 264.88144 323.8875 262.94846C323.8875 261.01544 325.4545 259.44846 327.3875 259.44846C329.3205 259.44846 330.8875 261.01544 330.8875 262.94846Z" fill-rule="nonzero"/><path fill="#34a853" clip-path="url(#id_0)" d="M384.6625 262.94846C384.6625 264.88144 383.0955 266.44846 381.1625 266.44846C379.2295 266.44846 377.6625 264.88144 377.6625 262.94846C377.6625 261.01544 379.2295 259.44846 381.1625 259.44846C383.0955 259.44846 384.6625 261.01544 384.6625 262.94846Z" fill-rule="nonzero"/><path fill="#34a853" clip-path="url(#id_0)" d="M438.4375 262.94846C438.4375 264.88144 436.87048 266.44846 434.9375 266.44846C433.00452 266.44846 431.4375 264.88144 431.4375 262.94846C431.4375 261.01544 433.00452 259.44846 434.9375 259.44846C436.87048 259.44846 438.4375 261.01544 438.4375 262.94846Z" fill-rule="nonzero"/><path fill="#34a853" clip-path="url(#id_0)" d="M492.2125 262.94846C492.2125 264.88144 490.6455 266.44846 488.7125 266.44846C486.7795 266.44846 485.2125 264.88144 485.2125 262.94846C485.2125 261.01544 486.7795 259.44846 488.7125 259.44846C490.6455 259.44846 492.2125 261.01544 492.2125 262.94846Z" fill-rule="nonzero"/><path stroke="#000000" stroke-width="1.0" stroke-linecap="butt" d="M112.5 291.5L112.5 279.5" fill-rule="nonzero"/><path stroke="#000000" stroke-width="1.0" stroke-linecap="butt" d="M166.5 291.5L166.5 279.5" fill-rule="nonzero"/><path stroke="#000000" stroke-width="1.0" stroke-linecap="butt" d="M219.5 291.5L219.5 279.5" fill-rule="nonzero"/><path stroke="#000000" stroke-width="1.0" stroke-linecap="butt" d="M273.5 291.5L273.5 279.5" fill-rule="nonzero"/><path stroke="#000000" stroke-width="1.0" stroke-linecap="butt" d="M327.5 291.5L327.5 279.5" fill-rule="nonzero"/><path stroke="#000000" stroke-width="1.0" stroke-linecap="butt" d="M381.5 291.5L381.5 279.5" fill-rule="nonzero"/><path stroke="#000000" stroke-width="1.0" stroke-linecap="butt" d="M434.5 291.5L434.5 279.5" fill-rule="nonzero"/><path stroke="#000000" stroke-width="1.0" stroke-linecap="butt" d="M488.5 291.5L488.5 279.5" fill-rule="nonzero"/><path stroke="#000000" stroke-width="1.0" stroke-linecap="butt" d="M79.5 285.5L91.5 285.5" fill-rule="nonzero"/><path stroke="#000000" stroke-width="1.0" stroke-linecap="butt" d="M79.5 255.5L91.5 255.5" fill-rule="nonzero"/><path stroke="#000000" stroke-width="1.0" stroke-linecap="butt" d="M79.5 226.5L91.5 226.5" fill-rule="nonzero"/><path stroke="#000000" stroke-width="1.0" stroke-linecap="butt" d="M79.5 196.5L91.5 196.5" fill-rule="nonzero"/><path stroke="#000000" stroke-width="1.0" stroke-linecap="butt" d="M79.5 166.5L91.5 166.5" fill-rule="nonzero"/><path stroke="#000000" stroke-width="1.0" stroke-linecap="butt" d="M79.5 137.5L91.5 137.5" fill-rule="nonzero"/><path stroke="#000000" stroke-width="1.0" stroke-linecap="butt" d="M79.5 107.5L91.5 107.5" fill-rule="nonzero"/><path stroke="#000000" stroke-width="1.0" stroke-linecap="butt" d="M79.5 77.5L91.5 77.5" fill-rule="nonzero"/><path stroke="#000000" stroke-width="1.0" stroke-linecap="butt" d="M79.5 48.5L91.5 48.5" fill-rule="nonzero"/><path fill="#000000" d="M48.775 287.02188L48.775 285.95938L52.025 285.95938L52.025 287.02188L48.775 287.02188ZM54.525 284.94376Q53.86875 284.69376 53.540627 284.25626Q53.228127 283.80313 53.228127 283.19376Q53.228127 282.25626 53.9 281.61563Q54.5875 280.975 55.696877 280.975Q56.821877 280.975 57.509377 281.63126Q58.196877 282.2875 58.196877 283.225Q58.196877 283.81876 57.884377 284.25626Q57.571877 284.69376 56.93125 284.94376Q57.728127 285.19376 58.134377 285.77188Q58.540627 286.35 58.540627 287.14688Q58.540627 288.24063 57.759377 288.99063Q56.99375 289.74063 55.7125 289.74063Q54.446877 289.74063 53.665627 288.99063Q52.884377 288.24063 52.884377 287.11563Q52.884377 286.27188 53.30625 285.70938Q53.74375 285.14688 54.525 284.94376ZM54.30625 283.14688Q54.30625 283.75626 54.696877 284.14688Q55.103127 284.5375 55.728127 284.5375Q56.3375 284.5375 56.728127 284.1625Q57.11875 283.77188 57.11875 283.20938Q57.11875 282.63126 56.7125 282.24063Q56.30625 281.83438 55.7125 281.83438Q55.103127 281.83438 54.696877 282.225Q54.30625 282.61563 54.30625 283.14688ZM53.978127 287.11563Q53.978127 287.56876 54.18125 287.99063Q54.4 288.4125 54.821877 288.64688Q55.24375 288.88126 55.728127 288.88126Q56.478127 288.88126 56.9625 288.39688Q57.4625 287.9125 57.4625 287.1625Q57.4625 286.39688 56.9625 285.89688Q56.4625 285.39688 55.696877 285.39688Q54.946877 285.39688 54.4625 285.89688Q53.978127 286.38126 53.978127 287.11563ZM59.9 285.36563Q59.9 283.83438 60.2125 282.9125Q60.525 281.975 61.134377 281.475Q61.759377 280.975 62.696877 280.975Q63.384377 280.975 63.9 281.25626Q64.43125 281.5375 64.775 282.06876Q65.11875 282.58438 65.30625 283.33438Q65.49375 284.08438 65.49375 285.36563Q65.49375 286.88126 65.18125 287.80313Q64.88438 288.725 64.25938 289.24063Q63.65 289.74063 62.696877 289.74063Q61.4625 289.74063 60.74375 288.85Q59.9 287.7875 59.9 285.36563ZM60.978127 285.36563Q60.978127 287.475 61.478127 288.17813Q61.978127 288.88126 62.696877 288.88126Q63.43125 288.88126 63.915627 288.17813Q64.41563 287.475 64.41563 285.36563Q64.41563 283.24063 63.915627 282.55313Q63.43125 281.85 62.68125 281.85Q61.9625 281.85 61.525 282.45938Q60.978127 283.24063 60.978127 285.36563ZM66.9 285.36563Q66.9 283.83438 67.2125 282.9125Q67.525 281.975 68.13438 281.475Q68.75938 280.975 69.69688 280.975Q70.38438 280.975 70.9 281.25626Q71.43125 281.5375 71.775 282.06876Q72.11875 282.58438 72.30625 283.33438Q72.49375 284.08438 72.49375 285.36563Q72.49375 286.88126 72.18125 287.80313Q71.88438 288.725 71.25938 289.24063Q70.65 289.74063 69.69688 289.74063Q68.4625 289.74063 67.74375 288.85Q66.9 287.7875 66.9 285.36563ZM67.97813 285.36563Q67.97813 287.475 68.47813 288.17813Q68.97813 288.88126 69.69688 288.88126Q70.43125 288.88126 70.91563 288.17813Q71.41563 287.475 71.41563 285.36563Q71.41563 283.24063 70.91563 282.55313Q70.43125 281.85 69.68125 281.85Q68.9625 281.85 68.525 282.45938Q67.97813 283.24063 67.97813 285.36563Z" fill-rule="nonzero"/><path fill="#000000" d="M48.775 257.36356L48.775 256.30106L52.025 256.30106L52.025 257.36356L48.775 257.36356ZM58.36875 253.4573L57.321877 253.53543Q57.18125 252.91043 56.93125 252.62918Q56.49375 252.17606 55.86875 252.17606Q55.36875 252.17606 54.978127 252.4573Q54.49375 252.8323 54.196877 253.53543Q53.915627 254.22293 53.9 255.50418Q54.275 254.92606 54.821877 254.6448Q55.384377 254.36356 55.99375 254.36356Q57.040627 254.36356 57.775 255.1448Q58.525 255.92606 58.525 257.1448Q58.525 257.9573 58.165627 258.66043Q57.821877 259.34793 57.2125 259.72293Q56.603127 260.0823 55.8375 260.0823Q54.509377 260.0823 53.68125 259.11356Q52.853127 258.1448 52.853127 255.92606Q52.853127 253.42606 53.775 252.30106Q54.571877 251.31668 55.93125 251.31668Q56.946877 251.31668 57.5875 251.8948Q58.24375 252.4573 58.36875 253.4573ZM54.071877 257.16043Q54.071877 257.7073 54.290627 258.2073Q54.525 258.69168 54.93125 258.9573Q55.353127 259.22293 55.821877 259.22293Q56.478127 259.22293 56.9625 258.69168Q57.446877 258.1448 57.446877 257.22293Q57.446877 256.3323 56.9625 255.81668Q56.49375 255.30106 55.775 255.30106Q55.05625 255.30106 54.55625 255.81668Q54.071877 256.3323 54.071877 257.16043ZM59.9 255.7073Q59.9 254.17606 60.2125 253.25418Q60.525 252.31668 61.134377 251.81668Q61.759377 251.31668 62.696877 251.31668Q63.384377 251.31668 63.9 251.59793Q64.43125 251.87918 64.775 252.41043Q65.11875 252.92606 65.30625 253.67606Q65.49375 254.42606 65.49375 255.7073Q65.49375 257.22293 65.18125 258.1448Q64.88438 259.06668 64.25938 259.5823Q63.65 260.0823 62.696877 260.0823Q61.4625 260.0823 60.74375 259.19168Q59.9 258.12918 59.9 255.7073ZM60.978127 255.7073Q60.978127 257.81668 61.478127 258.5198Q61.978127 259.22293 62.696877 259.22293Q63.43125 259.22293 63.915627 258.5198Q64.41563 257.81668 64.41563 255.7073Q64.41563 253.5823 63.915627 252.8948Q63.43125 252.19168 62.68125 252.19168Q61.9625 252.19168 61.525 252.80106Q60.978127 253.5823 60.978127 255.7073ZM66.9 255.7073Q66.9 254.17606 67.2125 253.25418Q67.525 252.31668 68.13438 251.81668Q68.75938 251.31668 69.69688 251.31668Q70.38438 251.31668 70.9 251.59793Q71.43125 251.87918 71.775 252.41043Q72.11875 252.92606 72.30625 253.67606Q72.49375 254.42606 72.49375 255.7073Q72.49375 257.22293 72.18125 258.1448Q71.88438 259.06668 71.25938 259.5823Q70.65 260.0823 69.69688 260.0823Q68.4625 260.0823 67.74375 259.19168Q66.9 258.12918 66.9 255.7073ZM67.97813 255.7073Q67.97813 257.81668 68.47813 258.5198Q68.97813 259.22293 69.69688 259.22293Q70.43125 259.22293 70.91563 258.5198Q71.41563 257.81668 71.41563 255.7073Q71.41563 253.5823 70.91563 252.8948Q70.43125 252.19168 69.68125 252.19168Q68.9625 252.19168 68.525 252.80106Q67.97813 253.5823 67.97813 255.7073Z" fill-rule="nonzero"/><path fill="#000000" d="M48.775 227.70522L48.775 226.64272L52.025 226.64272L52.025 227.70522L48.775 227.70522ZM56.275 230.28334L56.275 228.22084L52.55625 228.22084L52.55625 227.25209L56.478127 221.68959L57.3375 221.68959L57.3375 227.25209L58.49375 227.25209L58.49375 228.22084L57.3375 228.22084L57.3375 230.28334L56.275 230.28334ZM56.275 227.25209L56.275 223.39272L53.5875 227.25209L56.275 227.25209ZM59.9 226.04897Q59.9 224.51772 60.2125 223.59584Q60.525 222.65834 61.134377 222.15834Q61.759377 221.65834 62.696877 221.65834Q63.384377 221.65834 63.9 221.93959Q64.43125 222.22084 64.775 222.75209Q65.11875 223.26772 65.30625 224.01772Q65.49375 224.76772 65.49375 226.04897Q65.49375 227.56459 65.18125 228.48647Q64.88438 229.40834 64.25938 229.92397Q63.65 230.42397 62.696877 230.42397Q61.4625 230.42397 60.74375 229.53334Q59.9 228.47084 59.9 226.04897ZM60.978127 226.04897Q60.978127 228.15834 61.478127 228.86147Q61.978127 229.56459 62.696877 229.56459Q63.43125 229.56459 63.915627 228.86147Q64.41563 228.15834 64.41563 226.04897Q64.41563 223.92397 63.915627 223.23647Q63.43125 222.53334 62.68125 222.53334Q61.9625 222.53334 61.525 223.14272Q60.978127 223.92397 60.978127 226.04897ZM66.9 226.04897Q66.9 224.51772 67.2125 223.59584Q67.525 222.65834 68.13438 222.15834Q68.75938 221.65834 69.69688 221.65834Q70.38438 221.65834 70.9 221.93959Q71.43125 222.22084 71.775 222.75209Q72.11875 223.26772 72.30625 224.01772Q72.49375 224.76772 72.49375 226.04897Q72.49375 227.56459 72.18125 228.48647Q71.88438 229.40834 71.25938 229.92397Q70.65 230.42397 69.69688 230.42397Q68.4625 230.42397 67.74375 229.53334Q66.9 228.47084 66.9 226.04897ZM67.97813 226.04897Q67.97813 228.15834 68.47813 228.86147Q68.97813 229.56459 69.69688 229.56459Q70.43125 229.56459 70.91563 228.86147Q71.41563 228.15834 71.41563 226.04897Q71.41563 223.92397 70.91563 223.23647Q70.43125 222.53334 69.68125 222.53334Q68.9625 222.53334 68.525 223.14272Q67.97813 223.92397 67.97813 226.04897Z" fill-rule="nonzero"/><path fill="#000000" d="M48.775 198.04688L48.775 196.98438L52.025 196.98438L52.025 198.04688L48.775 198.04688ZM58.446877 199.60938L58.446877 200.625L52.759377 200.625Q52.759377 200.25 52.884377 199.89062Q53.103127 199.3125 53.571877 198.75Q54.05625 198.1875 54.9625 197.45312Q56.36875 196.29688 56.853127 195.625Q57.353127 194.95312 57.353127 194.35938Q57.353127 193.73438 56.9 193.3125Q56.446877 192.875 55.728127 192.875Q54.9625 192.875 54.509377 193.32812Q54.05625 193.78125 54.040627 194.59375L52.9625 194.48438Q53.071877 193.26562 53.790627 192.64062Q54.525 192.0 55.759377 192.0Q56.99375 192.0 57.7125 192.6875Q58.43125 193.375 58.43125 194.39062Q58.43125 194.90625 58.2125 195.40625Q58.009377 195.89062 57.509377 196.45312Q57.025 197.0 55.9 197.95312Q54.946877 198.75 54.665627 199.04688Q54.4 199.32812 54.228127 199.60938L58.446877 199.60938ZM59.9 196.39062Q59.9 194.85938 60.2125 193.9375Q60.525 193.0 61.134377 192.5Q61.759377 192.0 62.696877 192.0Q63.384377 192.0 63.9 192.28125Q64.43125 192.5625 64.775 193.09375Q65.11875 193.60938 65.30625 194.35938Q65.49375 195.10938 65.49375 196.39062Q65.49375 197.90625 65.18125 198.82812Q64.88438 199.75 64.25938 200.26562Q63.65 200.76562 62.696877 200.76562Q61.4625 200.76562 60.74375 199.875Q59.9 198.8125 59.9 196.39062ZM60.978127 196.39062Q60.978127 198.5 61.478127 199.20312Q61.978127 199.90625 62.696877 199.90625Q63.43125 199.90625 63.915627 199.20312Q64.41563 198.5 64.41563 196.39062Q64.41563 194.26562 63.915627 193.57812Q63.43125 192.875 62.68125 192.875Q61.9625 192.875 61.525 193.48438Q60.978127 194.26562 60.978127 196.39062ZM66.9 196.39062Q66.9 194.85938 67.2125 193.9375Q67.525 193.0 68.13438 192.5Q68.75938 192.0 69.69688 192.0Q70.38438 192.0 70.9 192.28125Q71.43125 192.5625 71.775 193.09375Q72.11875 193.60938 72.30625 194.35938Q72.49375 195.10938 72.49375 196.39062Q72.49375 197.90625 72.18125 198.82812Q71.88438 199.75 71.25938 200.26562Q70.65 200.76562 69.69688 200.76562Q68.4625 200.76562 67.74375 199.875Q66.9 198.8125 66.9 196.39062ZM67.97813 196.39062Q67.97813 198.5 68.47813 199.20312Q68.97813 199.90625 69.69688 199.90625Q70.43125 199.90625 70.91563 199.20312Q71.41563 198.5 71.41563 196.39062Q71.41563 194.26562 70.91563 193.57812Q70.43125 192.875 69.68125 192.875Q68.9625 192.875 68.525 193.48438Q67.97813 194.26562 67.97813 196.39062Z" fill-rule="nonzero"/><path fill="#000000" d="M66.9 166.73228Q66.9 165.20103 67.2125 164.27916Q67.525 163.34166 68.13438 162.84166Q68.75938 162.34166 69.69688 162.34166Q70.38438 162.34166 70.9 162.62291Q71.43125 162.90416 71.775 163.43541Q72.11875 163.95103 72.30625 164.70103Q72.49375 165.45103 72.49375 166.73228Q72.49375 168.24791 72.18125 169.16978Q71.88438 170.09166 71.25938 170.60728Q70.65 171.10728 69.69688 171.10728Q68.4625 171.10728 67.74375 170.21666Q66.9 169.15416 66.9 166.73228ZM67.97813 166.73228Q67.97813 168.84166 68.47813 169.54478Q68.97813 170.24791 69.69688 170.24791Q70.43125 170.24791 70.91563 169.54478Q71.41563 168.84166 71.41563 166.73228Q71.41563 164.60728 70.91563 163.91978Q70.43125 163.21666 69.68125 163.21666Q68.9625 163.21666 68.525 163.82603Q67.97813 164.60728 67.97813 166.73228Z" fill-rule="nonzero"/><path fill="#000000" d="M58.446877 140.29271L58.446877 141.30833L52.759377 141.30833Q52.759377 140.93333 52.884377 140.57396Q53.103127 139.99583 53.571877 139.43333Q54.05625 138.87083 54.9625 138.13646Q56.36875 136.98021 56.853127 136.30833Q57.353127 135.63646 57.353127 135.04271Q57.353127 134.41771 56.9 133.99583Q56.446877 133.55833 55.728127 133.55833Q54.9625 133.55833 54.509377 134.01146Q54.05625 134.46458 54.040627 135.27708L52.9625 135.16771Q53.071877 133.94896 53.790627 133.32396Q54.525 132.68333 55.759377 132.68333Q56.99375 132.68333 57.7125 133.37083Q58.43125 134.05833 58.43125 135.07396Q58.43125 135.58958 58.2125 136.08958Q58.009377 136.57396 57.509377 137.13646Q57.025 137.68333 55.9 138.63646Q54.946877 139.43333 54.665627 139.73021Q54.4 140.01146 54.228127 140.29271L58.446877 140.29271ZM59.9 137.07396Q59.9 135.54271 60.2125 134.62083Q60.525 133.68333 61.134377 133.18333Q61.759377 132.68333 62.696877 132.68333Q63.384377 132.68333 63.9 132.96458Q64.43125 133.24583 64.775 133.77708Q65.11875 134.29271 65.30625 135.04271Q65.49375 135.79271 65.49375 137.07396Q65.49375 138.58958 65.18125 139.51146Q64.88438 140.43333 64.25938 140.94896Q63.65 141.44896 62.696877 141.44896Q61.4625 141.44896 60.74375 140.55833Q59.9 139.49583 59.9 137.07396ZM60.978127 137.07396Q60.978127 139.18333 61.478127 139.88646Q61.978127 140.58958 62.696877 140.58958Q63.43125 140.58958 63.915627 139.88646Q64.41563 139.18333 64.41563 137.07396Q64.41563 134.94896 63.915627 134.26146Q63.43125 133.55833 62.68125 133.55833Q61.9625 133.55833 61.525 134.16771Q60.978127 134.94896 60.978127 137.07396ZM66.9 137.07396Q66.9 135.54271 67.2125 134.62083Q67.525 133.68333 68.13438 133.18333Q68.75938 132.68333 69.69688 132.68333Q70.38438 132.68333 70.9 132.96458Q71.43125 133.24583 71.775 133.77708Q72.11875 134.29271 72.30625 135.04271Q72.49375 135.79271 72.49375 137.07396Q72.49375 138.58958 72.18125 139.51146Q71.88438 140.43333 71.25938 140.94896Q70.65 141.44896 69.69688 141.44896Q68.4625 141.44896 67.74375 140.55833Q66.9 139.49583 66.9 137.07396ZM67.97813 137.07396Q67.97813 139.18333 68.47813 139.88646Q68.97813 140.58958 69.69688 140.58958Q70.43125 140.58958 70.91563 139.88646Q71.41563 139.18333 71.41563 137.07396Q71.41563 134.94896 70.91563 134.26146Q70.43125 133.55833 69.68125 133.55833Q68.9625 133.55833 68.525 134.16771Q67.97813 134.94896 67.97813 137.07396Z" fill-rule="nonzero"/><path fill="#000000" d="M56.275 111.65L56.275 109.5875L52.55625 109.5875L52.55625 108.61875L56.478127 103.05625L57.3375 103.05625L57.3375 108.61875L58.49375 108.61875L58.49375 109.5875L57.3375 109.5875L57.3375 111.65L56.275 111.65ZM56.275 108.61875L56.275 104.75938L53.5875 108.61875L56.275 108.61875ZM59.9 107.41563Q59.9 105.88438 60.2125 104.9625Q60.525 104.025 61.134377 103.525Q61.759377 103.025 62.696877 103.025Q63.384377 103.025 63.9 103.30625Q64.43125 103.5875 64.775 104.11875Q65.11875 104.63438 65.30625 105.38438Q65.49375 106.13438 65.49375 107.41563Q65.49375 108.93125 65.18125 109.85313Q64.88438 110.775 64.25938 111.29063Q63.65 111.79063 62.696877 111.79063Q61.4625 111.79063 60.74375 110.9Q59.9 109.8375 59.9 107.41563ZM60.978127 107.41563Q60.978127 109.525 61.478127 110.22813Q61.978127 110.93125 62.696877 110.93125Q63.43125 110.93125 63.915627 110.22813Q64.41563 109.525 64.41563 107.41563Q64.41563 105.29063 63.915627 104.60313Q63.43125 103.9 62.68125 103.9Q61.9625 103.9 61.525 104.50938Q60.978127 105.29063 60.978127 107.41563ZM66.9 107.41563Q66.9 105.88438 67.2125 104.9625Q67.525 104.025 68.13438 103.525Q68.75938 103.025 69.69688 103.025Q70.38438 103.025 70.9 103.30625Q71.43125 103.5875 71.775 104.11875Q72.11875 104.63438 72.30625 105.38438Q72.49375 106.13438 72.49375 107.41563Q72.49375 108.93125 72.18125 109.85313Q71.88438 110.775 71.25938 111.29063Q70.65 111.79063 69.69688 111.79063Q68.4625 111.79063 67.74375 110.9Q66.9 109.8375 66.9 107.41563ZM67.97813 107.41563Q67.97813 109.525 68.47813 110.22813Q68.97813 110.93125 69.69688 110.93125Q70.43125 110.93125 70.91563 110.22813Q71.41563 109.525 71.41563 107.41563Q71.41563 105.29063 70.91563 104.60313Q70.43125 103.9 69.68125 103.9Q68.9625 103.9 68.525 104.50938Q67.97813 105.29063 67.97813 107.41563Z" fill-rule="nonzero"/><path fill="#000000" d="M58.36875 75.50729L57.321877 75.58542Q57.18125 74.96042 56.93125 74.67917Q56.49375 74.22604 55.86875 74.22604Q55.36875 74.22604 54.978127 74.50729Q54.49375 74.88229 54.196877 75.58542Q53.915627 76.27292 53.9 77.55417Q54.275 76.97604 54.821877 76.69479Q55.384377 76.41354 55.99375 76.41354Q57.040627 76.41354 57.775 77.19479Q58.525 77.97604 58.525 79.19479Q58.525 80.00729 58.165627 80.71042Q57.821877 81.39792 57.2125 81.77292Q56.603127 82.13229 55.8375 82.13229Q54.509377 82.13229 53.68125 81.16354Q52.853127 80.19479 52.853127 77.97604Q52.853127 75.47604 53.775 74.35104Q54.571877 73.36667 55.93125 73.36667Q56.946877 73.36667 57.5875 73.94479Q58.24375 74.50729 58.36875 75.50729ZM54.071877 79.21042Q54.071877 79.75729 54.290627 80.25729Q54.525 80.74167 54.93125 81.00729Q55.353127 81.27292 55.821877 81.27292Q56.478127 81.27292 56.9625 80.74167Q57.446877 80.19479 57.446877 79.27292Q57.446877 78.38229 56.9625 77.86667Q56.49375 77.35104 55.775 77.35104Q55.05625 77.35104 54.55625 77.86667Q54.071877 78.38229 54.071877 79.21042ZM59.9 77.75729Q59.9 76.22604 60.2125 75.30417Q60.525 74.36667 61.134377 73.86667Q61.759377 73.36667 62.696877 73.36667Q63.384377 73.36667 63.9 73.64792Q64.43125 73.92917 64.775 74.46042Q65.11875 74.97604 65.30625 75.72604Q65.49375 76.47604 65.49375 77.75729Q65.49375 79.27292 65.18125 80.19479Q64.88438 81.11667 64.25938 81.63229Q63.65 82.13229 62.696877 82.13229Q61.4625 82.13229 60.74375 81.24167Q59.9 80.17917 59.9 77.75729ZM60.978127 77.75729Q60.978127 79.86667 61.478127 80.56979Q61.978127 81.27292 62.696877 81.27292Q63.43125 81.27292 63.915627 80.56979Q64.41563 79.86667 64.41563 77.75729Q64.41563 75.63229 63.915627 74.94479Q63.43125 74.24167 62.68125 74.24167Q61.9625 74.24167 61.525 74.85104Q60.978127 75.63229 60.978127 77.75729ZM66.9 77.75729Q66.9 76.22604 67.2125 75.30417Q67.525 74.36667 68.13438 73.86667Q68.75938 73.36667 69.69688 73.36667Q70.38438 73.36667 70.9 73.64792Q71.43125 73.92917 71.775 74.46042Q72.11875 74.97604 72.30625 75.72604Q72.49375 76.47604 72.49375 77.75729Q72.49375 79.27292 72.18125 80.19479Q71.88438 81.11667 71.25938 81.63229Q70.65 82.13229 69.69688 82.13229Q68.4625 82.13229 67.74375 81.24167Q66.9 80.17917 66.9 77.75729ZM67.97813 77.75729Q67.97813 79.86667 68.47813 80.56979Q68.97813 81.27292 69.69688 81.27292Q70.43125 81.27292 70.91563 80.56979Q71.41563 79.86667 71.41563 77.75729Q71.41563 75.63229 70.91563 74.94479Q70.43125 74.24167 69.68125 74.24167Q68.9625 74.24167 68.525 74.85104Q67.97813 75.63229 67.97813 77.75729Z" fill-rule="nonzero"/><path fill="#000000" d="M54.525 47.677082Q53.86875 47.427082 53.540627 46.989582Q53.228127 46.536457 53.228127 45.927082Q53.228127 44.989582 53.9 44.348957Q54.5875 43.708332 55.696877 43.708332Q56.821877 43.708332 57.509377 44.364582Q58.196877 45.020832 58.196877 45.958332Q58.196877 46.552082 57.884377 46.989582Q57.571877 47.427082 56.93125 47.677082Q57.728127 47.927082 58.134377 48.505207Q58.540627 49.083332 58.540627 49.880207Q58.540627 50.973957 57.759377 51.723957Q56.99375 52.473957 55.7125 52.473957Q54.446877 52.473957 53.665627 51.723957Q52.884377 50.973957 52.884377 49.848957Q52.884377 49.005207 53.30625 48.442707Q53.74375 47.880207 54.525 47.677082ZM54.30625 45.880207Q54.30625 46.489582 54.696877 46.880207Q55.103127 47.270832 55.728127 47.270832Q56.3375 47.270832 56.728127 46.895832Q57.11875 46.505207 57.11875 45.942707Q57.11875 45.364582 56.7125 44.973957Q56.30625 44.567707 55.7125 44.567707Q55.103127 44.567707 54.696877 44.958332Q54.30625 45.348957 54.30625 45.880207ZM53.978127 49.848957Q53.978127 50.302082 54.18125 50.723957Q54.4 51.145832 54.821877 51.380207Q55.24375 51.614582 55.728127 51.614582Q56.478127 51.614582 56.9625 51.130207Q57.4625 50.645832 57.4625 49.895832Q57.4625 49.130207 56.9625 48.630207Q56.4625 48.130207 55.696877 48.130207Q54.946877 48.130207 54.4625 48.630207Q53.978127 49.114582 53.978127 49.848957ZM59.9 48.098957Q59.9 46.567707 60.2125 45.645832Q60.525 44.708332 61.134377 44.208332Q61.759377 43.708332 62.696877 43.708332Q63.384377 43.708332 63.9 43.989582Q64.43125 44.270832 64.775 44.802082Q65.11875 45.317707 65.30625 46.067707Q65.49375 46.817707 65.49375 48.098957Q65.49375 49.614582 65.18125 50.536457Q64.88438 51.458332 64.25938 51.973957Q63.65 52.473957 62.696877 52.473957Q61.4625 52.473957 60.74375 51.583332Q59.9 50.520832 59.9 48.098957ZM60.978127 48.098957Q60.978127 50.208332 61.478127 50.911457Q61.978127 51.614582 62.696877 51.614582Q63.43125 51.614582 63.915627 50.911457Q64.41563 50.208332 64.41563 48.098957Q64.41563 45.973957 63.915627 45.286457Q63.43125 44.583332 62.68125 44.583332Q61.9625 44.583332 61.525 45.192707Q60.978127 45.973957 60.978127 48.098957ZM66.9 48.098957Q66.9 46.567707 67.2125 45.645832Q67.525 44.708332 68.13438 44.208332Q68.75938 43.708332 69.69688 43.708332Q70.38438 43.708332 70.9 43.989582Q71.43125 44.270832 71.775 44.802082Q72.11875 45.317707 72.30625 46.067707Q72.49375 46.817707 72.49375 48.098957Q72.49375 49.614582 72.18125 50.536457Q71.88438 51.458332 71.25938 51.973957Q70.65 52.473957 69.69688 52.473957Q68.4625 52.473957 67.74375 51.583332Q66.9 50.520832 66.9 48.098957ZM67.97813 48.098957Q67.97813 50.208332 68.47813 50.911457Q68.97813 51.614582 69.69688 51.614582Q70.43125 51.614582 70.91563 50.911457Q71.41563 50.208332 71.41563 48.098957Q71.41563 45.973957 70.91563 45.286457Q70.43125 44.583332 69.68125 44.583332Q68.9625 44.583332 68.525 45.192707Q67.97813 45.973957 67.97813 48.098957Z" fill-rule="nonzero"/><path fill="#000000" d="M91.83437 305.83438L92.89687 305.74063Q92.975 306.39688 93.25625 306.80313Q93.5375 307.20938 94.11562 307.475Q94.70937 307.725 95.44375 307.725Q96.08437 307.725 96.58437 307.5375Q97.08437 307.33438 97.31875 307.00626Q97.56875 306.6625 97.56875 306.27188Q97.56875 305.86563 97.33437 305.56876Q97.1 305.25626 96.56875 305.05313Q96.20937 304.9125 95.02187 304.63126Q93.85 304.35 93.38125 304.1Q92.75625 303.77188 92.45937 303.30313Q92.1625 302.81876 92.1625 302.225Q92.1625 301.58438 92.52187 301.02188Q92.89687 300.44376 93.6 300.1625Q94.31875 299.86563 95.17812 299.86563Q96.13125 299.86563 96.86562 300.17813Q97.6 300.475 97.99062 301.08438Q98.38125 301.67813 98.4125 302.42813L97.31875 302.50626Q97.225 301.69376 96.70937 301.2875Q96.20937 300.86563 95.225 300.86563Q94.19375 300.86563 93.725 301.24063Q93.25625 301.61563 93.25625 302.14688Q93.25625 302.61563 93.58437 302.9125Q93.9125 303.20938 95.2875 303.52188Q96.67812 303.83438 97.19375 304.06876Q97.94375 304.42813 98.30312 304.95938Q98.6625 305.475 98.6625 306.17813Q98.6625 306.86563 98.27187 307.475Q97.88125 308.06876 97.14687 308.4125Q96.4125 308.74063 95.49062 308.74063Q94.31875 308.74063 93.52187 308.4125Q92.74062 308.06876 92.2875 307.38126Q91.85 306.69376 91.83437 305.83438ZM100.08437 310.99063L100.08437 302.38126L101.0375 302.38126L101.0375 303.17813Q101.38125 302.70938 101.80312 302.475Q102.24062 302.24063 102.85 302.24063Q103.64687 302.24063 104.25625 302.64688Q104.86562 303.05313 105.1625 303.80313Q105.475 304.55313 105.475 305.44376Q105.475 306.39688 105.13125 307.1625Q104.80312 307.92813 104.14687 308.33438Q103.49062 308.74063 102.77187 308.74063Q102.24062 308.74063 101.81875 308.52188Q101.39687 308.2875 101.13125 307.95938L101.13125 310.99063L100.08437 310.99063ZM101.0375 305.52188Q101.0375 306.725 101.52187 307.30313Q102.00625 307.86563 102.69375 307.86563Q103.39687 307.86563 103.89687 307.27188Q104.39687 306.67813 104.39687 305.42813Q104.39687 304.24063 103.9125 303.6625Q103.42812 303.06876 102.74062 303.06876Q102.06875 303.06876 101.55312 303.69376Q101.0375 304.31876 101.0375 305.52188ZM107.06875 308.6L107.06875 302.38126L108.02187 302.38126L108.02187 303.31876Q108.38125 302.6625 108.67812 302.45938Q108.99062 302.24063 109.36562 302.24063Q109.89687 302.24063 110.44375 302.56876L110.08437 303.55313Q109.69375 303.31876 109.31875 303.31876Q108.95937 303.31876 108.67812 303.5375Q108.4125 303.74063 108.30312 304.11563Q108.11562 304.67813 108.11562 305.33438L108.11562 308.6L107.06875 308.6ZM111.08437 301.225L111.08437 300.00626L112.14687 300.00626L112.14687 301.225L111.08437 301.225ZM111.08437 308.6L111.08437 302.38126L112.14687 302.38126L112.14687 308.6L111.08437 308.6ZM114.08437 308.6L114.08437 302.38126L115.02187 302.38126L115.02187 303.25626Q115.70937 302.24063 117.00625 302.24063Q117.56875 302.24063 118.0375 302.44376Q118.52187 302.64688 118.75625 302.975Q118.99062 303.30313 119.08437 303.74063Q119.13125 304.0375 119.13125 304.77188L119.13125 308.6L118.08437 308.6L118.08437 304.81876Q118.08437 304.1625 117.95937 303.85Q117.83437 303.5375 117.52187 303.35Q117.20937 303.14688 116.7875 303.14688Q116.11562 303.14688 115.61562 303.58438Q115.13125 304.00626 115.13125 305.19376L115.13125 308.6L114.08437 308.6ZM123.38125 307.6625L123.5375 308.58438Q123.08437 308.67813 122.74062 308.67813Q122.1625 308.67813 121.85 308.50626Q121.5375 308.31876 121.39687 308.02188Q121.27187 307.725 121.27187 306.77188L121.27187 303.19376L120.50625 303.19376L120.50625 302.38126L121.27187 302.38126L121.27187 300.83438L122.31875 300.20938L122.31875 302.38126L123.38125 302.38126L123.38125 303.19376L122.31875 303.19376L122.31875 306.83438Q122.31875 307.2875 122.36562 307.4125Q122.42812 307.5375 122.55312 307.61563Q122.67812 307.69376 122.9125 307.69376Q123.1 307.69376 123.38125 307.6625ZM130.75626 308.6L129.70938 308.6L129.70938 301.88126Q129.31876 302.24063 128.69376 302.61563Q128.08438 302.975 127.6 303.14688L127.6 302.13126Q128.475 301.70938 129.13126 301.13126Q129.80313 300.5375 130.08438 299.975L130.75626 299.975L130.75626 308.6Z" fill-rule="nonzero"/><path fill="#000000" d="M145.60938 305.83438L146.67188 305.74063Q146.75 306.39688 147.03125 306.80313Q147.3125 307.20938 147.89062 307.475Q148.48438 307.725 149.21875 307.725Q149.85938 307.725 150.35938 307.5375Q150.85938 307.33438 151.09375 307.00626Q151.34375 306.6625 151.34375 306.27188Q151.34375 305.86563 151.10938 305.56876Q150.875 305.25626 150.34375 305.05313Q149.98438 304.9125 148.79688 304.63126Q147.625 304.35 147.15625 304.1Q146.53125 303.77188 146.23438 303.30313Q145.9375 302.81876 145.9375 302.225Q145.9375 301.58438 146.29688 301.02188Q146.67188 300.44376 147.375 300.1625Q148.09375 299.86563 148.95312 299.86563Q149.90625 299.86563 150.64062 300.17813Q151.375 300.475 151.76562 301.08438Q152.15625 301.67813 152.1875 302.42813L151.09375 302.50626Q151.0 301.69376 150.48438 301.2875Q149.98438 300.86563 149.0 300.86563Q147.96875 300.86563 147.5 301.24063Q147.03125 301.61563 147.03125 302.14688Q147.03125 302.61563 147.35938 302.9125Q147.6875 303.20938 149.0625 303.52188Q150.45312 303.83438 150.96875 304.06876Q151.71875 304.42813 152.07812 304.95938Q152.4375 305.475 152.4375 306.17813Q152.4375 306.86563 152.04688 307.475Q151.65625 308.06876 150.92188 308.4125Q150.1875 308.74063 149.26562 308.74063Q148.09375 308.74063 147.29688 308.4125Q146.51562 308.06876 146.0625 307.38126Q145.625 306.69376 145.60938 305.83438ZM153.85938 310.99063L153.85938 302.38126L154.8125 302.38126L154.8125 303.17813Q155.15625 302.70938 155.57812 302.475Q156.01562 302.24063 156.625 302.24063Q157.42188 302.24063 158.03125 302.64688Q158.64062 303.05313 158.9375 303.80313Q159.25 304.55313 159.25 305.44376Q159.25 306.39688 158.90625 307.1625Q158.57812 307.92813 157.92188 308.33438Q157.26562 308.74063 156.54688 308.74063Q156.01562 308.74063 155.59375 308.52188Q155.17188 308.2875 154.90625 307.95938L154.90625 310.99063L153.85938 310.99063ZM154.8125 305.52188Q154.8125 306.725 155.29688 307.30313Q155.78125 307.86563 156.46875 307.86563Q157.17188 307.86563 157.67188 307.27188Q158.17188 306.67813 158.17188 305.42813Q158.17188 304.24063 157.6875 303.6625Q157.20312 303.06876 156.51562 303.06876Q155.84375 303.06876 155.32812 303.69376Q154.8125 304.31876 154.8125 305.52188ZM160.84375 308.6L160.84375 302.38126L161.79688 302.38126L161.79688 303.31876Q162.15625 302.6625 162.45312 302.45938Q162.76562 302.24063 163.14062 302.24063Q163.67188 302.24063 164.21875 302.56876L163.85938 303.55313Q163.46875 303.31876 163.09375 303.31876Q162.73438 303.31876 162.45312 303.5375Q162.1875 303.74063 162.07812 304.11563Q161.89062 304.67813 161.89062 305.33438L161.89062 308.6L160.84375 308.6ZM164.85938 301.225L164.85938 300.00626L165.92188 300.00626L165.92188 301.225L164.85938 301.225ZM164.85938 308.6L164.85938 302.38126L165.92188 302.38126L165.92188 308.6L164.85938 308.6ZM167.85938 308.6L167.85938 302.38126L168.79688 302.38126L168.79688 303.25626Q169.48438 302.24063 170.78125 302.24063Q171.34375 302.24063 171.8125 302.44376Q172.29688 302.64688 172.53125 302.975Q172.76562 303.30313 172.85938 303.74063Q172.90625 304.0375 172.90625 304.77188L172.90625 308.6L171.85938 308.6L171.85938 304.81876Q171.85938 304.1625 171.73438 303.85Q171.60938 303.5375 171.29688 303.35Q170.98438 303.14688 170.5625 303.14688Q169.89062 303.14688 169.39062 303.58438Q168.90625 304.00626 168.90625 305.19376L168.90625 308.6L167.85938 308.6ZM177.15625 307.6625L177.3125 308.58438Q176.85938 308.67813 176.51562 308.67813Q175.9375 308.67813 175.625 308.50626Q175.3125 308.31876 175.17188 308.02188Q175.04688 307.725 175.04688 306.77188L175.04688 303.19376L174.28125 303.19376L174.28125 302.38126L175.04688 302.38126L175.04688 300.83438L176.09375 300.20938L176.09375 302.38126L177.15625 302.38126L177.15625 303.19376L176.09375 303.19376L176.09375 306.83438Q176.09375 307.2875 176.14062 307.4125Q176.20312 307.5375 176.32812 307.61563Q176.45312 307.69376 176.6875 307.69376Q176.875 307.69376 177.15625 307.6625ZM186.10938 307.58438L186.10938 308.6L180.42188 308.6Q180.42188 308.225 180.54688 307.86563Q180.76562 307.2875 181.23438 306.725Q181.71875 306.1625 182.625 305.42813Q184.03125 304.27188 184.51562 303.6Q185.01562 302.92813 185.01562 302.33438Q185.01562 301.70938 184.5625 301.2875Q184.10938 300.85 183.39062 300.85Q182.625 300.85 182.17188 301.30313Q181.71875 301.75626 181.70312 302.56876L180.625 302.45938Q180.73438 301.24063 181.45312 300.61563Q182.1875 299.975 183.42188 299.975Q184.65625 299.975 185.375 300.6625Q186.09375 301.35 186.09375 302.36563Q186.09375 302.88126 185.875 303.38126Q185.67188 303.86563 185.17188 304.42813Q184.6875 304.975 183.5625 305.92813Q182.60938 306.725 182.32812 307.02188Q182.0625 307.30313 181.89062 307.58438L186.10938 307.58438Z" fill-rule="nonzero"/><path fill="#000000" d="M199.38437 305.83438L200.44687 305.74063Q200.525 306.39688 200.80624 306.80313Q201.0875 307.20938 201.66562 307.475Q202.25937 307.725 202.99374 307.725Q203.63437 307.725 204.13437 307.5375Q204.63437 307.33438 204.86874 307.00626Q205.11874 306.6625 205.11874 306.27188Q205.11874 305.86563 204.88437 305.56876Q204.65 305.25626 204.11874 305.05313Q203.75937 304.9125 202.57187 304.63126Q201.4 304.35 200.93124 304.1Q200.30624 303.77188 200.00937 303.30313Q199.7125 302.81876 199.7125 302.225Q199.7125 301.58438 200.07187 301.02188Q200.44687 300.44376 201.15 300.1625Q201.86874 299.86563 202.72812 299.86563Q203.68124 299.86563 204.41562 300.17813Q205.15 300.475 205.54062 301.08438Q205.93124 301.67813 205.9625 302.42813L204.86874 302.50626Q204.775 301.69376 204.25937 301.2875Q203.75937 300.86563 202.775 300.86563Q201.74374 300.86563 201.275 301.24063Q200.80624 301.61563 200.80624 302.14688Q200.80624 302.61563 201.13437 302.9125Q201.4625 303.20938 202.8375 303.52188Q204.22812 303.83438 204.74374 304.06876Q205.49374 304.42813 205.85312 304.95938Q206.2125 305.475 206.2125 306.17813Q206.2125 306.86563 205.82187 307.475Q205.43124 308.06876 204.69687 308.4125Q203.9625 308.74063 203.04062 308.74063Q201.86874 308.74063 201.07187 308.4125Q200.29062 308.06876 199.8375 307.38126Q199.4 306.69376 199.38437 305.83438ZM207.63437 310.99063L207.63437 302.38126L208.5875 302.38126L208.5875 303.17813Q208.93124 302.70938 209.35312 302.475Q209.79062 302.24063 210.4 302.24063Q211.19687 302.24063 211.80624 302.64688Q212.41562 303.05313 212.7125 303.80313Q213.025 304.55313 213.025 305.44376Q213.025 306.39688 212.68124 307.1625Q212.35312 307.92813 211.69687 308.33438Q211.04062 308.74063 210.32187 308.74063Q209.79062 308.74063 209.36874 308.52188Q208.94687 308.2875 208.68124 307.95938L208.68124 310.99063L207.63437 310.99063ZM208.5875 305.52188Q208.5875 306.725 209.07187 307.30313Q209.55624 307.86563 210.24374 307.86563Q210.94687 307.86563 211.44687 307.27188Q211.94687 306.67813 211.94687 305.42813Q211.94687 304.24063 211.4625 303.6625Q210.97812 303.06876 210.29062 303.06876Q209.61874 303.06876 209.10312 303.69376Q208.5875 304.31876 208.5875 305.52188ZM214.61874 308.6L214.61874 302.38126L215.57187 302.38126L215.57187 303.31876Q215.93124 302.6625 216.22812 302.45938Q216.54062 302.24063 216.91562 302.24063Q217.44687 302.24063 217.99374 302.56876L217.63437 303.55313Q217.24374 303.31876 216.86874 303.31876Q216.50937 303.31876 216.22812 303.5375Q215.9625 303.74063 215.85312 304.11563Q215.66562 304.67813 215.66562 305.33438L215.66562 308.6L214.61874 308.6ZM218.63437 301.225L218.63437 300.00626L219.69687 300.00626L219.69687 301.225L218.63437 301.225ZM218.63437 308.6L218.63437 302.38126L219.69687 302.38126L219.69687 308.6L218.63437 308.6ZM221.63437 308.6L221.63437 302.38126L222.57187 302.38126L222.57187 303.25626Q223.25937 302.24063 224.55624 302.24063Q225.11874 302.24063 225.5875 302.44376Q226.07187 302.64688 226.30624 302.975Q226.54062 303.30313 226.63437 303.74063Q226.68124 304.0375 226.68124 304.77188L226.68124 308.6L225.63437 308.6L225.63437 304.81876Q225.63437 304.1625 225.50937 303.85Q225.38437 303.5375 225.07187 303.35Q224.75937 303.14688 224.3375 303.14688Q223.66562 303.14688 223.16562 303.58438Q222.68124 304.00626 222.68124 305.19376L222.68124 308.6L221.63437 308.6ZM230.93124 307.6625L231.0875 308.58438Q230.63437 308.67813 230.29062 308.67813Q229.7125 308.67813 229.4 308.50626Q229.0875 308.31876 228.94687 308.02188Q228.82187 307.725 228.82187 306.77188L228.82187 303.19376L228.05624 303.19376L228.05624 302.38126L228.82187 302.38126L228.82187 300.83438L229.86874 300.20938L229.86874 302.38126L230.93124 302.38126L230.93124 303.19376L229.86874 303.19376L229.86874 306.83438Q229.86874 307.2875 229.91562 307.4125Q229.97812 307.5375 230.10312 307.61563Q230.22812 307.69376 230.4625 307.69376Q230.65 307.69376 230.93124 307.6625ZM234.3375 306.33438L235.4 306.19376Q235.57187 307.08438 236.00937 307.49063Q236.44687 307.88126 237.07187 307.88126Q237.82187 307.88126 238.3375 307.36563Q238.85312 306.85 238.85312 306.08438Q238.85312 305.36563 238.36874 304.89688Q237.9 304.4125 237.16562 304.4125Q236.86874 304.4125 236.41562 304.5375L236.54062 303.6Q236.65 303.61563 236.7125 303.61563Q237.38437 303.61563 237.91562 303.27188Q238.4625 302.9125 238.4625 302.17813Q238.4625 301.6 238.07187 301.225Q237.68124 300.83438 237.05624 300.83438Q236.44687 300.83438 236.025 301.225Q235.61874 301.61563 235.50937 302.38126L234.44687 302.19376Q234.63437 301.14688 235.32187 300.56876Q236.00937 299.975 237.025 299.975Q237.72812 299.975 238.32187 300.2875Q238.91562 300.58438 239.22812 301.1Q239.54062 301.61563 239.54062 302.20938Q239.54062 302.75626 239.24374 303.225Q238.94687 303.67813 238.36874 303.94376Q239.11874 304.11563 239.54062 304.67813Q239.9625 305.225 239.9625 306.06876Q239.9625 307.19376 239.13437 307.975Q238.32187 308.75626 237.07187 308.75626Q235.94687 308.75626 235.19687 308.08438Q234.44687 307.39688 234.3375 306.33438Z" fill-rule="nonzero"/><path fill="#000000" d="M253.15938 305.83438L254.22188 305.74063Q254.3 306.39688 254.58125 306.80313Q254.8625 307.20938 255.44063 307.475Q256.03436 307.725 256.76874 307.725Q257.40936 307.725 257.90936 307.5375Q258.40936 307.33438 258.64374 307.00626Q258.89374 306.6625 258.89374 306.27188Q258.89374 305.86563 258.65936 305.56876Q258.425 305.25626 257.89374 305.05313Q257.53436 304.9125 256.34686 304.63126Q255.175 304.35 254.70625 304.1Q254.08125 303.77188 253.78438 303.30313Q253.4875 302.81876 253.4875 302.225Q253.4875 301.58438 253.84688 301.02188Q254.22188 300.44376 254.925 300.1625Q255.64375 299.86563 256.5031 299.86563Q257.45624 299.86563 258.1906 300.17813Q258.925 300.475 259.3156 301.08438Q259.70624 301.67813 259.7375 302.42813L258.64374 302.50626Q258.55 301.69376 258.03436 301.2875Q257.53436 300.86563 256.55 300.86563Q255.51875 300.86563 255.05 301.24063Q254.58125 301.61563 254.58125 302.14688Q254.58125 302.61563 254.90938 302.9125Q255.2375 303.20938 256.6125 303.52188Q258.0031 303.83438 258.51874 304.06876Q259.26874 304.42813 259.6281 304.95938Q259.9875 305.475 259.9875 306.17813Q259.9875 306.86563 259.59686 307.475Q259.20624 308.06876 258.47186 308.4125Q257.7375 308.74063 256.8156 308.74063Q255.64375 308.74063 254.84688 308.4125Q254.06563 308.06876 253.6125 307.38126Q253.175 306.69376 253.15938 305.83438ZM261.40936 310.99063L261.40936 302.38126L262.3625 302.38126L262.3625 303.17813Q262.70624 302.70938 263.1281 302.475Q263.5656 302.24063 264.175 302.24063Q264.97186 302.24063 265.58124 302.64688Q266.1906 303.05313 266.4875 303.80313Q266.8 304.55313 266.8 305.44376Q266.8 306.39688 266.45624 307.1625Q266.1281 307.92813 265.47186 308.33438Q264.8156 308.74063 264.09686 308.74063Q263.5656 308.74063 263.14374 308.52188Q262.72186 308.2875 262.45624 307.95938L262.45624 310.99063L261.40936 310.99063ZM262.3625 305.52188Q262.3625 306.725 262.84686 307.30313Q263.33124 307.86563 264.01874 307.86563Q264.72186 307.86563 265.22186 307.27188Q265.72186 306.67813 265.72186 305.42813Q265.72186 304.24063 265.2375 303.6625Q264.7531 303.06876 264.0656 303.06876Q263.39374 303.06876 262.8781 303.69376Q262.3625 304.31876 262.3625 305.52188ZM268.39374 308.6L268.39374 302.38126L269.34686 302.38126L269.34686 303.31876Q269.70624 302.6625 270.0031 302.45938Q270.3156 302.24063 270.6906 302.24063Q271.22186 302.24063 271.76874 302.56876L271.40936 303.55313Q271.01874 303.31876 270.64374 303.31876Q270.28436 303.31876 270.0031 303.5375Q269.7375 303.74063 269.6281 304.11563Q269.4406 304.67813 269.4406 305.33438L269.4406 308.6L268.39374 308.6ZM272.40936 301.225L272.40936 300.00626L273.47186 300.00626L273.47186 301.225L272.40936 301.225ZM272.40936 308.6L272.40936 302.38126L273.47186 302.38126L273.47186 308.6L272.40936 308.6ZM275.40936 308.6L275.40936 302.38126L276.34686 302.38126L276.34686 303.25626Q277.03436 302.24063 278.33124 302.24063Q278.89374 302.24063 279.3625 302.44376Q279.84686 302.64688 280.08124 302.975Q280.3156 303.30313 280.40936 303.74063Q280.45624 304.0375 280.45624 304.77188L280.45624 308.6L279.40936 308.6L279.40936 304.81876Q279.40936 304.1625 279.28436 303.85Q279.15936 303.5375 278.84686 303.35Q278.53436 303.14688 278.1125 303.14688Q277.4406 303.14688 276.9406 303.58438Q276.45624 304.00626 276.45624 305.19376L276.45624 308.6L275.40936 308.6ZM284.70624 307.6625L284.8625 308.58438Q284.40936 308.67813 284.0656 308.67813Q283.4875 308.67813 283.175 308.50626Q282.8625 308.31876 282.72186 308.02188Q282.59686 307.725 282.59686 306.77188L282.59686 303.19376L281.83124 303.19376L281.83124 302.38126L282.59686 302.38126L282.59686 300.83438L283.64374 300.20938L283.64374 302.38126L284.70624 302.38126L284.70624 303.19376L283.64374 303.19376L283.64374 306.83438Q283.64374 307.2875 283.6906 307.4125Q283.7531 307.5375 283.8781 307.61563Q284.0031 307.69376 284.2375 307.69376Q284.425 307.69376 284.70624 307.6625ZM291.4875 308.6L291.4875 306.5375L287.76874 306.5375L287.76874 305.56876L291.6906 300.00626L292.55 300.00626L292.55 305.56876L293.70624 305.56876L293.70624 306.5375L292.55 306.5375L292.55 308.6L291.4875 308.6ZM291.4875 305.56876L291.4875 301.70938L288.8 305.56876L291.4875 305.56876Z" fill-rule="nonzero"/><path fill="#000000" d="M306.9344 305.83438L307.9969 305.74063Q308.075 306.39688 308.35626 306.80313Q308.6375 307.20938 309.21564 307.475Q309.8094 307.725 310.54376 307.725Q311.1844 307.725 311.6844 307.5375Q312.1844 307.33438 312.41876 307.00626Q312.66876 306.6625 312.66876 306.27188Q312.66876 305.86563 312.4344 305.56876Q312.2 305.25626 311.66876 305.05313Q311.3094 304.9125 310.1219 304.63126Q308.95 304.35 308.48126 304.1Q307.85626 303.77188 307.5594 303.30313Q307.2625 302.81876 307.2625 302.225Q307.2625 301.58438 307.6219 301.02188Q307.9969 300.44376 308.7 300.1625Q309.41876 299.86563 310.27814 299.86563Q311.23126 299.86563 311.96564 300.17813Q312.7 300.475 313.09064 301.08438Q313.48126 301.67813 313.5125 302.42813L312.41876 302.50626Q312.325 301.69376 311.8094 301.2875Q311.3094 300.86563 310.325 300.86563Q309.29376 300.86563 308.825 301.24063Q308.35626 301.61563 308.35626 302.14688Q308.35626 302.61563 308.6844 302.9125Q309.0125 303.20938 310.3875 303.52188Q311.77814 303.83438 312.29376 304.06876Q313.04376 304.42813 313.40314 304.95938Q313.7625 305.475 313.7625 306.17813Q313.7625 306.86563 313.3719 307.475Q312.98126 308.06876 312.2469 308.4125Q311.5125 308.74063 310.59064 308.74063Q309.41876 308.74063 308.6219 308.4125Q307.84064 308.06876 307.3875 307.38126Q306.95 306.69376 306.9344 305.83438ZM315.1844 310.99063L315.1844 302.38126L316.1375 302.38126L316.1375 303.17813Q316.48126 302.70938 316.90314 302.475Q317.34064 302.24063 317.95 302.24063Q318.7469 302.24063 319.35626 302.64688Q319.96564 303.05313 320.2625 303.80313Q320.575 304.55313 320.575 305.44376Q320.575 306.39688 320.23126 307.1625Q319.90314 307.92813 319.2469 308.33438Q318.59064 308.74063 317.8719 308.74063Q317.34064 308.74063 316.91876 308.52188Q316.4969 308.2875 316.23126 307.95938L316.23126 310.99063L315.1844 310.99063ZM316.1375 305.52188Q316.1375 306.725 316.6219 307.30313Q317.10626 307.86563 317.79376 307.86563Q318.4969 307.86563 318.9969 307.27188Q319.4969 306.67813 319.4969 305.42813Q319.4969 304.24063 319.0125 303.6625Q318.52814 303.06876 317.84064 303.06876Q317.16876 303.06876 316.65314 303.69376Q316.1375 304.31876 316.1375 305.52188ZM322.16876 308.6L322.16876 302.38126L323.1219 302.38126L323.1219 303.31876Q323.48126 302.6625 323.77814 302.45938Q324.09064 302.24063 324.46564 302.24063Q324.9969 302.24063 325.54376 302.56876L325.1844 303.55313Q324.79376 303.31876 324.41876 303.31876Q324.0594 303.31876 323.77814 303.5375Q323.5125 303.74063 323.40314 304.11563Q323.21564 304.67813 323.21564 305.33438L323.21564 308.6L322.16876 308.6ZM326.1844 301.225L326.1844 300.00626L327.2469 300.00626L327.2469 301.225L326.1844 301.225ZM326.1844 308.6L326.1844 302.38126L327.2469 302.38126L327.2469 308.6L326.1844 308.6ZM329.1844 308.6L329.1844 302.38126L330.1219 302.38126L330.1219 303.25626Q330.8094 302.24063 332.10626 302.24063Q332.66876 302.24063 333.1375 302.44376Q333.6219 302.64688 333.85626 302.975Q334.09064 303.30313 334.1844 303.74063Q334.23126 304.0375 334.23126 304.77188L334.23126 308.6L333.1844 308.6L333.1844 304.81876Q333.1844 304.1625 333.0594 303.85Q332.9344 303.5375 332.6219 303.35Q332.3094 303.14688 331.8875 303.14688Q331.21564 303.14688 330.71564 303.58438Q330.23126 304.00626 330.23126 305.19376L330.23126 308.6L329.1844 308.6ZM338.48126 307.6625L338.6375 308.58438Q338.1844 308.67813 337.84064 308.67813Q337.2625 308.67813 336.95 308.50626Q336.6375 308.31876 336.4969 308.02188Q336.3719 307.725 336.3719 306.77188L336.3719 303.19376L335.60626 303.19376L335.60626 302.38126L336.3719 302.38126L336.3719 300.83438L337.41876 300.20938L337.41876 302.38126L338.48126 302.38126L338.48126 303.19376L337.41876 303.19376L337.41876 306.83438Q337.41876 307.2875 337.46564 307.4125Q337.52814 307.5375 337.65314 307.61563Q337.77814 307.69376 338.0125 307.69376Q338.2 307.69376 338.48126 307.6625ZM341.8875 306.35L342.9969 306.25626Q343.1219 307.06876 343.5594 307.475Q344.0125 307.88126 344.65314 307.88126Q345.40314 307.88126 345.9344 307.30313Q346.46564 306.725 346.46564 305.7875Q346.46564 304.88126 345.95 304.36563Q345.45 303.83438 344.6219 303.83438Q344.1219 303.83438 343.7 304.06876Q343.29376 304.30313 343.0594 304.6625L342.075 304.5375L342.90314 300.13126L347.1844 300.13126L347.1844 301.13126L343.7469 301.13126L343.29376 303.44376Q344.0594 302.89688 344.90314 302.89688Q346.02814 302.89688 346.79376 303.67813Q347.575 304.45938 347.575 305.69376Q347.575 306.85 346.90314 307.70938Q346.075 308.74063 344.65314 308.74063Q343.48126 308.74063 342.73126 308.08438Q341.9969 307.42813 341.8875 306.35Z" fill-rule="nonzero"/><path fill="#000000" d="M360.70938 305.83438L361.77188 305.74063Q361.85 306.39688 362.13126 306.80313Q362.4125 307.20938 362.99063 307.475Q363.58438 307.725 364.31876 307.725Q364.95938 307.725 365.45938 307.5375Q365.95938 307.33438 366.19376 307.00626Q366.44376 306.6625 366.44376 306.27188Q366.44376 305.86563 366.20938 305.56876Q365.975 305.25626 365.44376 305.05313Q365.08438 304.9125 363.89688 304.63126Q362.725 304.35 362.25626 304.1Q361.63126 303.77188 361.33438 303.30313Q361.0375 302.81876 361.0375 302.225Q361.0375 301.58438 361.39688 301.02188Q361.77188 300.44376 362.475 300.1625Q363.19376 299.86563 364.05313 299.86563Q365.00626 299.86563 365.74063 300.17813Q366.475 300.475 366.86563 301.08438Q367.25626 301.67813 367.2875 302.42813L366.19376 302.50626Q366.1 301.69376 365.58438 301.2875Q365.08438 300.86563 364.1 300.86563Q363.06876 300.86563 362.6 301.24063Q362.13126 301.61563 362.13126 302.14688Q362.13126 302.61563 362.45938 302.9125Q362.7875 303.20938 364.1625 303.52188Q365.55313 303.83438 366.06876 304.06876Q366.81876 304.42813 367.17813 304.95938Q367.5375 305.475 367.5375 306.17813Q367.5375 306.86563 367.14688 307.475Q366.75626 308.06876 366.02188 308.4125Q365.2875 308.74063 364.36563 308.74063Q363.19376 308.74063 362.39688 308.4125Q361.61563 308.06876 361.1625 307.38126Q360.725 306.69376 360.70938 305.83438ZM368.95938 310.99063L368.95938 302.38126L369.9125 302.38126L369.9125 303.17813Q370.25626 302.70938 370.67813 302.475Q371.11563 302.24063 371.725 302.24063Q372.52188 302.24063 373.13126 302.64688Q373.74063 303.05313 374.0375 303.80313Q374.35 304.55313 374.35 305.44376Q374.35 306.39688 374.00626 307.1625Q373.67813 307.92813 373.02188 308.33438Q372.36563 308.74063 371.64688 308.74063Q371.11563 308.74063 370.69376 308.52188Q370.27188 308.2875 370.00626 307.95938L370.00626 310.99063L368.95938 310.99063ZM369.9125 305.52188Q369.9125 306.725 370.39688 307.30313Q370.88126 307.86563 371.56876 307.86563Q372.27188 307.86563 372.77188 307.27188Q373.27188 306.67813 373.27188 305.42813Q373.27188 304.24063 372.7875 303.6625Q372.30313 303.06876 371.61563 303.06876Q370.94376 303.06876 370.42813 303.69376Q369.9125 304.31876 369.9125 305.52188ZM375.94376 308.6L375.94376 302.38126L376.89688 302.38126L376.89688 303.31876Q377.25626 302.6625 377.55313 302.45938Q377.86563 302.24063 378.24063 302.24063Q378.77188 302.24063 379.31876 302.56876L378.95938 303.55313Q378.56876 303.31876 378.19376 303.31876Q377.83438 303.31876 377.55313 303.5375Q377.2875 303.74063 377.17813 304.11563Q376.99063 304.67813 376.99063 305.33438L376.99063 308.6L375.94376 308.6ZM379.95938 301.225L379.95938 300.00626L381.02188 300.00626L381.02188 301.225L379.95938 301.225ZM379.95938 308.6L379.95938 302.38126L381.02188 302.38126L381.02188 308.6L379.95938 308.6ZM382.95938 308.6L382.95938 302.38126L383.89688 302.38126L383.89688 303.25626Q384.58438 302.24063 385.88126 302.24063Q386.44376 302.24063 386.9125 302.44376Q387.39688 302.64688 387.63126 302.975Q387.86563 303.30313 387.95938 303.74063Q388.00626 304.0375 388.00626 304.77188L388.00626 308.6L386.95938 308.6L386.95938 304.81876Q386.95938 304.1625 386.83438 303.85Q386.70938 303.5375 386.39688 303.35Q386.08438 303.14688 385.6625 303.14688Q384.99063 303.14688 384.49063 303.58438Q384.00626 304.00626 384.00626 305.19376L384.00626 308.6L382.95938 308.6ZM392.25626 307.6625L392.4125 308.58438Q391.95938 308.67813 391.61563 308.67813Q391.0375 308.67813 390.725 308.50626Q390.4125 308.31876 390.27188 308.02188Q390.14688 307.725 390.14688 306.77188L390.14688 303.19376L389.38126 303.19376L389.38126 302.38126L390.14688 302.38126L390.14688 300.83438L391.19376 300.20938L391.19376 302.38126L392.25626 302.38126L392.25626 303.19376L391.19376 303.19376L391.19376 306.83438Q391.19376 307.2875 391.24063 307.4125Q391.30313 307.5375 391.42813 307.61563Q391.55313 307.69376 391.7875 307.69376Q391.975 307.69376 392.25626 307.6625ZM401.13126 302.11563L400.08438 302.19376Q399.94376 301.56876 399.69376 301.2875Q399.25626 300.83438 398.63126 300.83438Q398.13126 300.83438 397.74063 301.11563Q397.25626 301.49063 396.95938 302.19376Q396.67813 302.88126 396.6625 304.1625Q397.0375 303.58438 397.58438 303.30313Q398.14688 303.02188 398.75626 303.02188Q399.80313 303.02188 400.5375 303.80313Q401.2875 304.58438 401.2875 305.80313Q401.2875 306.61563 400.92813 307.31876Q400.58438 308.00626 399.975 308.38126Q399.36563 308.74063 398.6 308.74063Q397.27188 308.74063 396.44376 307.77188Q395.61563 306.80313 395.61563 304.58438Q395.61563 302.08438 396.5375 300.95938Q397.33438 299.975 398.69376 299.975Q399.70938 299.975 400.35 300.55313Q401.00626 301.11563 401.13126 302.11563ZM396.83438 305.81876Q396.83438 306.36563 397.05313 306.86563Q397.2875 307.35 397.69376 307.61563Q398.11563 307.88126 398.58438 307.88126Q399.24063 307.88126 399.725 307.35Q400.20938 306.80313 400.20938 305.88126Q400.20938 304.99063 399.725 304.475Q399.25626 303.95938 398.5375 303.95938Q397.81876 303.95938 397.31876 304.475Q396.83438 304.99063 396.83438 305.81876Z" fill-rule="nonzero"/><path fill="#000000" d="M414.48438 305.83438L415.54688 305.74063Q415.625 306.39688 415.90625 306.80313Q416.1875 307.20938 416.76562 307.475Q417.35938 307.725 418.09375 307.725Q418.73438 307.725 419.23438 307.5375Q419.73438 307.33438 419.96875 307.00626Q420.21875 306.6625 420.21875 306.27188Q420.21875 305.86563 419.98438 305.56876Q419.75 305.25626 419.21875 305.05313Q418.85938 304.9125 417.67188 304.63126Q416.5 304.35 416.03125 304.1Q415.40625 303.77188 415.10938 303.30313Q414.8125 302.81876 414.8125 302.225Q414.8125 301.58438 415.17188 301.02188Q415.54688 300.44376 416.25 300.1625Q416.96875 299.86563 417.82812 299.86563Q418.78125 299.86563 419.51562 300.17813Q420.25 300.475 420.64062 301.08438Q421.03125 301.67813 421.0625 302.42813L419.96875 302.50626Q419.875 301.69376 419.35938 301.2875Q418.85938 300.86563 417.875 300.86563Q416.84375 300.86563 416.375 301.24063Q415.90625 301.61563 415.90625 302.14688Q415.90625 302.61563 416.23438 302.9125Q416.5625 303.20938 417.9375 303.52188Q419.32812 303.83438 419.84375 304.06876Q420.59375 304.42813 420.95312 304.95938Q421.3125 305.475 421.3125 306.17813Q421.3125 306.86563 420.92188 307.475Q420.53125 308.06876 419.79688 308.4125Q419.0625 308.74063 418.14062 308.74063Q416.96875 308.74063 416.17188 308.4125Q415.39062 308.06876 414.9375 307.38126Q414.5 306.69376 414.48438 305.83438ZM422.73438 310.99063L422.73438 302.38126L423.6875 302.38126L423.6875 303.17813Q424.03125 302.70938 424.45312 302.475Q424.89062 302.24063 425.5 302.24063Q426.29688 302.24063 426.90625 302.64688Q427.51562 303.05313 427.8125 303.80313Q428.125 304.55313 428.125 305.44376Q428.125 306.39688 427.78125 307.1625Q427.45312 307.92813 426.79688 308.33438Q426.14062 308.74063 425.42188 308.74063Q424.89062 308.74063 424.46875 308.52188Q424.04688 308.2875 423.78125 307.95938L423.78125 310.99063L422.73438 310.99063ZM423.6875 305.52188Q423.6875 306.725 424.17188 307.30313Q424.65625 307.86563 425.34375 307.86563Q426.04688 307.86563 426.54688 307.27188Q427.04688 306.67813 427.04688 305.42813Q427.04688 304.24063 426.5625 303.6625Q426.07812 303.06876 425.39062 303.06876Q424.71875 303.06876 424.20312 303.69376Q423.6875 304.31876 423.6875 305.52188ZM429.71875 308.6L429.71875 302.38126L430.67188 302.38126L430.67188 303.31876Q431.03125 302.6625 431.32812 302.45938Q431.64062 302.24063 432.01562 302.24063Q432.54688 302.24063 433.09375 302.56876L432.73438 303.55313Q432.34375 303.31876 431.96875 303.31876Q431.60938 303.31876 431.32812 303.5375Q431.0625 303.74063 430.95312 304.11563Q430.76562 304.67813 430.76562 305.33438L430.76562 308.6L429.71875 308.6ZM433.73438 301.225L433.73438 300.00626L434.79688 300.00626L434.79688 301.225L433.73438 301.225ZM433.73438 308.6L433.73438 302.38126L434.79688 302.38126L434.79688 308.6L433.73438 308.6ZM436.73438 308.6L436.73438 302.38126L437.67188 302.38126L437.67188 303.25626Q438.35938 302.24063 439.65625 302.24063Q440.21875 302.24063 440.6875 302.44376Q441.17188 302.64688 441.40625 302.975Q441.64062 303.30313 441.73438 303.74063Q441.78125 304.0375 441.78125 304.77188L441.78125 308.6L440.73438 308.6L440.73438 304.81876Q440.73438 304.1625 440.60938 303.85Q440.48438 303.5375 440.17188 303.35Q439.85938 303.14688 439.4375 303.14688Q438.76562 303.14688 438.26562 303.58438Q437.78125 304.00626 437.78125 305.19376L437.78125 308.6L436.73438 308.6ZM446.03125 307.6625L446.1875 308.58438Q445.73438 308.67813 445.39062 308.67813Q444.8125 308.67813 444.5 308.50626Q444.1875 308.31876 444.04688 308.02188Q443.92188 307.725 443.92188 306.77188L443.92188 303.19376L443.15625 303.19376L443.15625 302.38126L443.92188 302.38126L443.92188 300.83438L444.96875 300.20938L444.96875 302.38126L446.03125 302.38126L446.03125 303.19376L444.96875 303.19376L444.96875 306.83438Q444.96875 307.2875 445.01562 307.4125Q445.07812 307.5375 445.20312 307.61563Q445.32812 307.69376 445.5625 307.69376Q445.75 307.69376 446.03125 307.6625ZM449.5 301.13126L449.5 300.11563L455.0625 300.11563L455.0625 300.94376Q454.25 301.81876 453.4375 303.27188Q452.64062 304.70938 452.20312 306.24063Q451.875 307.31876 451.79688 308.6L450.70312 308.6Q450.71875 307.58438 451.09375 306.14688Q451.48438 304.70938 452.1875 303.38126Q452.90625 302.05313 453.71875 301.13126L449.5 301.13126Z" fill-rule="nonzero"/><path fill="#000000" d="M468.25937 305.83438L469.32187 305.74063Q469.4 306.39688 469.68124 306.80313Q469.9625 307.20938 470.54062 307.475Q471.13437 307.725 471.86874 307.725Q472.50937 307.725 473.00937 307.5375Q473.50937 307.33438 473.74374 307.00626Q473.99374 306.6625 473.99374 306.27188Q473.99374 305.86563 473.75937 305.56876Q473.525 305.25626 472.99374 305.05313Q472.63437 304.9125 471.44687 304.63126Q470.275 304.35 469.80624 304.1Q469.18124 303.77188 468.88437 303.30313Q468.5875 302.81876 468.5875 302.225Q468.5875 301.58438 468.94687 301.02188Q469.32187 300.44376 470.025 300.1625Q470.74374 299.86563 471.60312 299.86563Q472.55624 299.86563 473.29062 300.17813Q474.025 300.475 474.41562 301.08438Q474.80624 301.67813 474.8375 302.42813L473.74374 302.50626Q473.65 301.69376 473.13437 301.2875Q472.63437 300.86563 471.65 300.86563Q470.61874 300.86563 470.15 301.24063Q469.68124 301.61563 469.68124 302.14688Q469.68124 302.61563 470.00937 302.9125Q470.3375 303.20938 471.7125 303.52188Q473.10312 303.83438 473.61874 304.06876Q474.36874 304.42813 474.72812 304.95938Q475.0875 305.475 475.0875 306.17813Q475.0875 306.86563 474.69687 307.475Q474.30624 308.06876 473.57187 308.4125Q472.8375 308.74063 471.91562 308.74063Q470.74374 308.74063 469.94687 308.4125Q469.16562 308.06876 468.7125 307.38126Q468.275 306.69376 468.25937 305.83438ZM476.50937 310.99063L476.50937 302.38126L477.4625 302.38126L477.4625 303.17813Q477.80624 302.70938 478.22812 302.475Q478.66562 302.24063 479.275 302.24063Q480.07187 302.24063 480.68124 302.64688Q481.29062 303.05313 481.5875 303.80313Q481.9 304.55313 481.9 305.44376Q481.9 306.39688 481.55624 307.1625Q481.22812 307.92813 480.57187 308.33438Q479.91562 308.74063 479.19687 308.74063Q478.66562 308.74063 478.24374 308.52188Q477.82187 308.2875 477.55624 307.95938L477.55624 310.99063L476.50937 310.99063ZM477.4625 305.52188Q477.4625 306.725 477.94687 307.30313Q478.43124 307.86563 479.11874 307.86563Q479.82187 307.86563 480.32187 307.27188Q480.82187 306.67813 480.82187 305.42813Q480.82187 304.24063 480.3375 303.6625Q479.85312 303.06876 479.16562 303.06876Q478.49374 303.06876 477.97812 303.69376Q477.4625 304.31876 477.4625 305.52188ZM483.49374 308.6L483.49374 302.38126L484.44687 302.38126L484.44687 303.31876Q484.80624 302.6625 485.10312 302.45938Q485.41562 302.24063 485.79062 302.24063Q486.32187 302.24063 486.86874 302.56876L486.50937 303.55313Q486.11874 303.31876 485.74374 303.31876Q485.38437 303.31876 485.10312 303.5375Q484.8375 303.74063 484.72812 304.11563Q484.54062 304.67813 484.54062 305.33438L484.54062 308.6L483.49374 308.6ZM487.50937 301.225L487.50937 300.00626L488.57187 300.00626L488.57187 301.225L487.50937 301.225ZM487.50937 308.6L487.50937 302.38126L488.57187 302.38126L488.57187 308.6L487.50937 308.6ZM490.50937 308.6L490.50937 302.38126L491.44687 302.38126L491.44687 303.25626Q492.13437 302.24063 493.43124 302.24063Q493.99374 302.24063 494.4625 302.44376Q494.94687 302.64688 495.18124 302.975Q495.41562 303.30313 495.50937 303.74063Q495.55624 304.0375 495.55624 304.77188L495.55624 308.6L494.50937 308.6L494.50937 304.81876Q494.50937 304.1625 494.38437 303.85Q494.25937 303.5375 493.94687 303.35Q493.63437 303.14688 493.2125 303.14688Q492.54062 303.14688 492.04062 303.58438Q491.55624 304.00626 491.55624 305.19376L491.55624 308.6L490.50937 308.6ZM499.80624 307.6625L499.9625 308.58438Q499.50937 308.67813 499.16562 308.67813Q498.5875 308.67813 498.275 308.50626Q497.9625 308.31876 497.82187 308.02188Q497.69687 307.725 497.69687 306.77188L497.69687 303.19376L496.93124 303.19376L496.93124 302.38126L497.69687 302.38126L497.69687 300.83438L498.74374 300.20938L498.74374 302.38126L499.80624 302.38126L499.80624 303.19376L498.74374 303.19376L498.74374 306.83438Q498.74374 307.2875 498.79062 307.4125Q498.85312 307.5375 498.97812 307.61563Q499.10312 307.69376 499.3375 307.69376Q499.525 307.69376 499.80624 307.6625ZM504.8375 303.94376Q504.18124 303.69376 503.85312 303.25626Q503.54062 302.80313 503.54062 302.19376Q503.54062 301.25626 504.2125 300.61563Q504.9 299.975 506.00937 299.975Q507.13437 299.975 507.82187 300.63126Q508.50937 301.2875 508.50937 302.225Q508.50937 302.81876 508.19687 303.25626Q507.88437 303.69376 507.24374 303.94376Q508.04062 304.19376 508.44687 304.77188Q508.85312 305.35 508.85312 306.14688Q508.85312 307.24063 508.07187 307.99063Q507.30624 308.74063 506.025 308.74063Q504.75937 308.74063 503.97812 307.99063Q503.19687 307.24063 503.19687 306.11563Q503.19687 305.27188 503.61874 304.70938Q504.05624 304.14688 504.8375 303.94376ZM504.61874 302.14688Q504.61874 302.75626 505.00937 303.14688Q505.41562 303.5375 506.04062 303.5375Q506.65 303.5375 507.04062 303.1625Q507.43124 302.77188 507.43124 302.20938Q507.43124 301.63126 507.025 301.24063Q506.61874 300.83438 506.025 300.83438Q505.41562 300.83438 505.00937 301.225Q504.61874 301.61563 504.61874 302.14688ZM504.29062 306.11563Q504.29062 306.56876 504.49374 306.99063Q504.7125 307.4125 505.13437 307.64688Q505.55624 307.88126 506.04062 307.88126Q506.79062 307.88126 507.275 307.39688Q507.775 306.9125 507.775 306.1625Q507.775 305.39688 507.275 304.89688Q506.775 304.39688 506.00937 304.39688Q505.25937 304.39688 504.775 304.89688Q504.29062 305.38126 504.29062 306.11563Z" fill-rule="nonzero"/><path fill="#4285f4" d="M144.5 23.4C144.5 26.713709 141.8137 29.4 138.5 29.4C135.1863 29.4 132.5 26.713709 132.5 23.4C132.5 20.086292 135.1863 17.4 138.5 17.4C141.8137 17.4 144.5 20.086292 144.5 23.4Z" fill-rule="nonzero"/><path fill="#1a1a1a" d="M159.5625 24.384375L160.6875 24.68125Q160.32812 26.071875 159.40625 26.80625Q158.48438 27.540625 157.14062 27.540625Q155.75 27.540625 154.875 26.978125Q154.0 26.415625 153.54688 25.353125Q153.09375 24.275 153.09375 23.040625Q153.09375 21.696875 153.60938 20.696875Q154.125 19.696875 155.0625 19.18125Q156.01562 18.665625 157.15625 18.665625Q158.4375 18.665625 159.3125 19.321875Q160.20312 19.978125 160.54688 21.165625L159.42188 21.43125Q159.125 20.49375 158.54688 20.071875Q157.98438 19.634375 157.125 19.634375Q156.14062 19.634375 155.46875 20.11875Q154.8125 20.5875 154.53125 21.384375Q154.26562 22.18125 154.26562 23.040625Q154.26562 24.134375 154.57812 24.946875Q154.90625 25.759375 155.57812 26.165625Q156.25 26.571875 157.04688 26.571875Q158.0 26.571875 158.65625 26.025Q159.32812 25.478125 159.5625 24.384375ZM164.875 27.4L161.54688 18.80625L162.78125 18.80625L165.01562 25.05625Q165.28125 25.80625 165.46875 26.4625Q165.67188 25.759375 165.9375 25.05625L168.25 18.80625L169.40625 18.80625L166.04688 27.4L164.875 27.4Z" fill-rule="nonzero"/><path fill="#ea4335" d="M196.5 23.4C196.5 26.713709 193.8137 29.4 190.5 29.4C187.1863 29.4 184.5 26.713709 184.5 23.4C184.5 20.086292 187.1863 17.4 190.5 17.4C193.8137 17.4 196.5 20.086292 196.5 23.4Z" fill-rule="nonzero"/><path fill="#1a1a1a" d="M205.04688 24.634375L206.10938 24.540625Q206.1875 25.196875 206.46875 25.603125Q206.75 26.009375 207.32812 26.275Q207.92188 26.525 208.65625 26.525Q209.29688 26.525 209.79688 26.3375Q210.29688 26.134375 210.53125 25.80625Q210.78125 25.4625 210.78125 25.071875Q210.78125 24.665625 210.54688 24.36875Q210.3125 24.05625 209.78125 23.853125Q209.42188 23.7125 208.23438 23.43125Q207.0625 23.15 206.59375 22.9Q205.96875 22.571875 205.67188 22.103125Q205.375 21.61875 205.375 21.025Q205.375 20.384375 205.73438 19.821875Q206.10938 19.24375 206.8125 18.9625Q207.53125 18.665625 208.39062 18.665625Q209.34375 18.665625 210.07812 18.978125Q210.8125 19.275 211.20312 19.884375Q211.59375 20.478125 211.625 21.228125L210.53125 21.30625Q210.4375 20.49375 209.92188 20.0875Q209.42188 19.665625 208.4375 19.665625Q207.40625 19.665625 206.9375 20.040625Q206.46875 20.415625 206.46875 20.946875Q206.46875 21.415625 206.79688 21.7125Q207.125 22.009375 208.5 22.321875Q209.89062 22.634375 210.40625 22.86875Q211.15625 23.228125 211.51562 23.759375Q211.875 24.275 211.875 24.978125Q211.875 25.665625 211.48438 26.275Q211.09375 26.86875 210.35938 27.2125Q209.625 27.540625 208.70312 27.540625Q207.53125 27.540625 206.73438 27.2125Q205.95312 26.86875 205.5 26.18125Q205.0625 25.49375 205.04688 24.634375ZM215.875 27.4L212.54688 18.80625L213.78125 18.80625L216.01562 25.05625Q216.28125 25.80625 216.46875 26.4625Q216.67188 25.759375 216.9375 25.05625L219.25 18.80625L220.40625 18.80625L217.04688 27.4L215.875 27.4Z" fill-rule="nonzero"/><path fill="#fbbc04" fill-opacity="0.7019608" d="M247.5 23.4C247.5 26.713709 244.8137 29.4 241.5 29.4C238.1863 29.4 235.5 26.713709 235.5 23.4C235.5 20.086292 238.1863 17.4 241.5 17.4C244.8137 17.4 247.5 20.086292 247.5 23.4Z" fill-rule="nonzero"/><path fill="#1a1a1a" d="M256.375 27.4L256.375 18.80625L257.51562 18.80625L257.51562 26.384375L261.75 26.384375L261.75 27.4L256.375 27.4ZM263.29688 20.025L263.29688 18.80625L264.35938 18.80625L264.35938 20.025L263.29688 20.025ZM263.29688 27.4L263.29688 21.18125L264.35938 21.18125L264.35938 27.4L263.29688 27.4ZM266.29688 27.4L266.29688 21.18125L267.23438 21.18125L267.23438 22.05625Q267.53125 21.5875 268.01562 21.321875Q268.5 21.040625 269.125 21.040625Q269.8125 21.040625 270.25 21.321875Q270.70312 21.603125 270.875 22.11875Q271.625 21.040625 272.79688 21.040625Q273.73438 21.040625 274.21875 21.55625Q274.71875 22.05625 274.71875 23.134375L274.71875 27.4L273.67188 27.4L273.67188 23.478125Q273.67188 22.853125 273.5625 22.571875Q273.46875 22.290625 273.20312 22.11875Q272.9375 21.946875 272.5625 21.946875Q271.90625 21.946875 271.46875 22.384375Q271.04688 22.821875 271.04688 23.790625L271.04688 27.4L269.98438 27.4L269.98438 23.353125Q269.98438 22.65 269.71875 22.30625Q269.46875 21.946875 268.89062 21.946875Q268.4375 21.946875 268.0625 22.18125Q267.6875 22.415625 267.51562 22.86875Q267.34375 23.321875 267.34375 24.165625L267.34375 27.4L266.29688 27.4ZM277.29688 20.025L277.29688 18.80625L278.35938 18.80625L278.35938 20.025L277.29688 20.025ZM277.29688 27.4L277.29688 21.18125L278.35938 21.18125L278.35938 27.4L277.29688 27.4ZM282.59375 26.4625L282.75 27.384375Q282.29688 27.478125 281.95312 27.478125Q281.375 27.478125 281.0625 27.30625Q280.75 27.11875 280.60938 26.821875Q280.48438 26.525 280.48438 25.571875L280.48438 21.99375L279.71875 21.99375L279.71875 21.18125L280.48438 21.18125L280.48438 19.634375L281.53125 19.009375L281.53125 21.18125L282.59375 21.18125L282.59375 21.99375L281.53125 21.99375L281.53125 25.634375Q281.53125 26.0875 281.57812 26.2125Q281.64062 26.3375 281.76562 26.415625Q281.89062 26.49375 282.125 26.49375Q282.3125 26.49375 282.59375 26.4625ZM287.54688 25.4L288.64062 25.525Q288.39062 26.478125 287.6875 27.009375Q286.98438 27.540625 285.90625 27.540625Q284.54688 27.540625 283.73438 26.696875Q282.9375 25.853125 282.9375 24.3375Q282.9375 22.775 283.75 21.915625Q284.5625 21.040625 285.84375 21.040625Q287.09375 21.040625 287.875 21.884375Q288.67188 22.728125 288.67188 24.275Q288.67188 24.36875 288.67188 24.55625L284.03125 24.55625Q284.09375 25.5875 284.60938 26.134375Q285.125 26.665625 285.90625 26.665625Q286.48438 26.665625 286.89062 26.36875Q287.3125 26.05625 287.54688 25.4ZM284.09375 23.696875L287.5625 23.696875Q287.5 22.9 287.17188 22.509375Q286.65625 21.9 285.85938 21.9Q285.125 21.9 284.625 22.384375Q284.14062 22.86875 284.09375 23.696875ZM292.875 25.540625L293.90625 25.384375Q294.0 26.009375 294.39062 26.3375Q294.79688 26.665625 295.53125 26.665625Q296.25 26.665625 296.59375 26.384375Q296.95312 26.0875 296.95312 25.68125Q296.95312 25.321875 296.64062 25.11875Q296.42188 24.978125 295.5625 24.759375Q294.40625 24.4625 293.95312 24.259375Q293.51562 24.040625 293.28125 23.665625Q293.04688 23.290625 293.04688 22.821875Q293.04688 22.415625 293.23438 22.05625Q293.42188 21.696875 293.75 21.4625Q294.0 21.290625 294.42188 21.165625Q294.84375 21.040625 295.34375 21.040625Q296.0625 21.040625 296.60938 21.259375Q297.17188 21.4625 297.4375 21.821875Q297.70312 22.18125 297.79688 22.775L296.76562 22.915625Q296.70312 22.446875 296.35938 22.18125Q296.03125 21.9 295.40625 21.9Q294.6875 21.9 294.375 22.15Q294.0625 22.384375 294.0625 22.7125Q294.0625 22.915625 294.1875 23.071875Q294.32812 23.24375 294.59375 23.353125Q294.75 23.415625 295.53125 23.61875Q296.65625 23.93125 297.09375 24.11875Q297.53125 24.30625 297.78125 24.665625Q298.03125 25.025 298.03125 25.571875Q298.03125 26.103125 297.71875 26.571875Q297.42188 27.025 296.84375 27.290625Q296.26562 27.540625 295.53125 27.540625Q294.3125 27.540625 293.67188 27.040625Q293.04688 26.525 292.875 25.540625ZM304.375 27.4L304.375 26.478125Q303.64062 27.540625 302.39062 27.540625Q301.84375 27.540625 301.35938 27.3375Q300.89062 27.11875 300.65625 26.80625Q300.42188 26.478125 300.32812 26.009375Q300.26562 25.7125 300.26562 25.025L300.26562 21.18125L301.32812 21.18125L301.32812 24.634375Q301.32812 25.446875 301.39062 25.74375Q301.48438 26.15 301.79688 26.4Q302.125 26.634375 302.60938 26.634375Q303.07812 26.634375 303.48438 26.4Q303.90625 26.15 304.07812 25.728125Q304.26562 25.30625 304.26562 24.509375L304.26562 21.18125L305.3125 21.18125L305.3125 27.4L304.375 27.4ZM307.29688 29.790625L307.29688 21.18125L308.25 21.18125L308.25 21.978125Q308.59375 21.509375 309.01562 21.275Q309.45312 21.040625 310.0625 21.040625Q310.85938 21.040625 311.46875 21.446875Q312.07812 21.853125 312.375 22.603125Q312.6875 23.353125 312.6875 24.24375Q312.6875 25.196875 312.34375 25.9625Q312.01562 26.728125 311.35938 27.134375Q310.70312 27.540625 309.98438 27.540625Q309.45312 27.540625 309.03125 27.321875Q308.60938 27.0875 308.34375 26.759375L308.34375 29.790625L307.29688 29.790625ZM308.25 24.321875Q308.25 25.525 308.73438 26.103125Q309.21875 26.665625 309.90625 26.665625Q310.60938 26.665625 311.10938 26.071875Q311.60938 25.478125 311.60938 24.228125Q311.60938 23.040625 311.125 22.4625Q310.64062 21.86875 309.95312 21.86875Q309.28125 21.86875 308.76562 22.49375Q308.25 23.11875 308.25 24.321875Z" fill-rule="nonzero"/><path fill="#34a853" d="M341.5 23.4C341.5 26.713709 338.81372 29.4 335.5 29.4C332.18628 29.4 329.5 26.713709 329.5 23.4C329.5 20.086292 332.18628 17.4 335.5 17.4C338.81372 17.4 341.5 20.086292 341.5 23.4Z" fill-rule="nonzero"/><path fill="#1a1a1a" d="M350.375 27.4L350.375 18.80625L351.51562 18.80625L351.51562 26.384375L355.75 26.384375L355.75 27.4L350.375 27.4ZM357.29688 20.025L357.29688 18.80625L358.35938 18.80625L358.35938 20.025L357.29688 20.025ZM357.29688 27.4L357.29688 21.18125L358.35938 21.18125L358.35938 27.4L357.29688 27.4ZM360.29688 27.4L360.29688 21.18125L361.23438 21.18125L361.23438 22.05625Q361.53125 21.5875 362.01562 21.321875Q362.5 21.040625 363.125 21.040625Q363.8125 21.040625 364.25 21.321875Q364.70312 21.603125 364.875 22.11875Q365.625 21.040625 366.79688 21.040625Q367.73438 21.040625 368.21875 21.55625Q368.71875 22.05625 368.71875 23.134375L368.71875 27.4L367.67188 27.4L367.67188 23.478125Q367.67188 22.853125 367.5625 22.571875Q367.46875 22.290625 367.20312 22.11875Q366.9375 21.946875 366.5625 21.946875Q365.90625 21.946875 365.46875 22.384375Q365.04688 22.821875 365.04688 23.790625L365.04688 27.4L363.98438 27.4L363.98438 23.353125Q363.98438 22.65 363.71875 22.30625Q363.46875 21.946875 362.89062 21.946875Q362.4375 21.946875 362.0625 22.18125Q361.6875 22.415625 361.51562 22.86875Q361.34375 23.321875 361.34375 24.165625L361.34375 27.4L360.29688 27.4ZM371.29688 20.025L371.29688 18.80625L372.35938 18.80625L372.35938 20.025L371.29688 20.025ZM371.29688 27.4L371.29688 21.18125L372.35938 21.18125L372.35938 27.4L371.29688 27.4ZM376.59375 26.4625L376.75 27.384375Q376.29688 27.478125 375.95312 27.478125Q375.375 27.478125 375.0625 27.30625Q374.75 27.11875 374.60938 26.821875Q374.48438 26.525 374.48438 25.571875L374.48438 21.99375L373.71875 21.99375L373.71875 21.18125L374.48438 21.18125L374.48438 19.634375L375.53125 19.009375L375.53125 21.18125L376.59375 21.18125L376.59375 21.99375L375.53125 21.99375L375.53125 25.634375Q375.53125 26.0875 375.57812 26.2125Q375.64062 26.3375 375.76562 26.415625Q375.89062 26.49375 376.125 26.49375Q376.3125 26.49375 376.59375 26.4625ZM381.54688 25.4L382.64062 25.525Q382.39062 26.478125 381.6875 27.009375Q380.98438 27.540625 379.90625 27.540625Q378.54688 27.540625 377.73438 26.696875Q376.9375 25.853125 376.9375 24.3375Q376.9375 22.775 377.75 21.915625Q378.5625 21.040625 379.84375 21.040625Q381.09375 21.040625 381.875 21.884375Q382.67188 22.728125 382.67188 24.275Q382.67188 24.36875 382.67188 24.55625L378.03125 24.55625Q378.09375 25.5875 378.60938 26.134375Q379.125 26.665625 379.90625 26.665625Q380.48438 26.665625 380.89062 26.36875Q381.3125 26.05625 381.54688 25.4ZM378.09375 23.696875L381.5625 23.696875Q381.5 22.9 381.17188 22.509375Q380.65625 21.9 379.85938 21.9Q379.125 21.9 378.625 22.384375Q378.14062 22.86875 378.09375 23.696875ZM387.29688 20.025L387.29688 18.80625L388.35938 18.80625L388.35938 20.025L387.29688 20.025ZM387.29688 27.4L387.29688 21.18125L388.35938 21.18125L388.35938 27.4L387.29688 27.4ZM390.29688 27.4L390.29688 21.18125L391.23438 21.18125L391.23438 22.05625Q391.92188 21.040625 393.21875 21.040625Q393.78125 21.040625 394.25 21.24375Q394.73438 21.446875 394.96875 21.775Q395.20312 22.103125 395.29688 22.540625Q395.34375 22.8375 395.34375 23.571875L395.34375 27.4L394.29688 27.4L394.29688 23.61875Q394.29688 22.9625 394.17188 22.65Q394.04688 22.3375 393.73438 22.15Q393.42188 21.946875 393.0 21.946875Q392.32812 21.946875 391.82812 22.384375Q391.34375 22.80625 391.34375 23.99375L391.34375 27.4L390.29688 27.4ZM397.54688 27.4L397.54688 21.99375L396.60938 21.99375L396.60938 21.18125L397.54688 21.18125L397.54688 20.509375Q397.54688 19.884375 397.65625 19.5875Q397.8125 19.165625 398.1875 18.915625Q398.57812 18.665625 399.26562 18.665625Q399.71875 18.665625 400.25 18.775L400.09375 19.68125Q399.76562 19.634375 399.46875 19.634375Q398.98438 19.634375 398.78125 19.8375Q398.59375 20.040625 398.59375 20.603125L398.59375 21.18125L399.8125 21.18125L399.8125 21.99375L398.59375 21.99375L398.59375 27.4L397.54688 27.4Z" fill-rule="nonzero"/></svg>