<svg version="1.1" viewBox="0.0 0.0 532.0 328.0" fill="none" stroke="none" stroke-linecap="square" stroke-miterlimit="10" width="532" height="328" xmlns:xlink="http://www.w3.org/1999/xlink" xmlns="http://www.w3.org/2000/svg"><path fill="#ffffff" d="M0 0L532.0 0L532.0 328.0L0 328.0L0 0Z" fill-rule="nonzero"/><path stroke="#cccccc" stroke-width="1.0" stroke-linecap="butt" d="M85.5 285.5L515.5 285.5" fill-rule="nonzero"/><path stroke="#cccccc" stroke-width="1.0" stroke-linecap="butt" d="M85.5 255.5L515.5 255.5" fill-rule="nonzero"/><path stroke="#cccccc" stroke-width="1.0" stroke-linecap="butt" d="M85.5 226.5L515.5 226.5" fill-rule="nonzero"/><path stroke="#cccccc" stroke-width="1.0" stroke-linecap="butt" d="M85.5 196.5L515.5 196.5" fill-rule="nonzero"/><path stroke="#333333" stroke-width="1.0" stroke-linecap="butt" d="M85.5 166.5L515.5 166.5" fill-rule="nonzero"/><path stroke="#cccccc" stroke-width="1.0" stroke-linecap="butt" d="M85.5 137.5L515.5 137.5" fill-rule="nonzero"/><path stroke="#cccccc" stroke-width="1.0" stroke-linecap="butt" d="M85.5 107.5L515.5 107.5" fill-rule="nonzero"/><path stroke="#cccccc" stroke-width="1.0" stroke-linecap="butt" d="M85.5 77.5L515.5 77.5" fill-rule="nonzero"/><path stroke="#cccccc" stroke-width="1.0" stroke-linecap="butt" d="M85.5 48.5L515.5 48.5" fill-rule="nonzero"/><path stroke="#000000" stroke-width="1.0" stroke-linecap="butt" stroke-opacity="0.0" d="M85.5 275.5L515.5 275.5" fill-rule="nonzero"/><path stroke="#000000" stroke-width="1.0" stroke-linecap="butt" stroke-opacity="0.0" d="M85.5 265.5L515.5 265.5" fill-rule="nonzero"/><path stroke="#000000" stroke-width="1.0" stroke-linecap="butt" stroke-opacity="0.0" d="M85.5 246.5L515.5 246.5" fill-rule="nonzero"/><path stroke="#000000" stroke-width="1.0" stroke-linecap="butt" stroke-opacity="0.0" d="M85.5 236.5L515.5 236.5" fill-rule="nonzero"/><path stroke="#000000" stroke-width="1.0" stroke-linecap="butt" stroke-opacity="0.0" d="M85.5 216.5L515.5 216.5" fill-rule="nonzero"/><path stroke="#000000" stroke-width="1.0" stroke-linecap="butt" stroke-opacity="0.0" d="M85.5 206.5L515.5 206.5" fill-rule="nonzero"/><path stroke="#000000" stroke-width="1.0" stroke-linecap="butt" stroke-opacity="0.0" d="M85.5 186.5L515.5 186.5" fill-rule="nonzero"/><path stroke="#000000" stroke-width="1.0" stroke-linecap="butt" stroke-opacity="0.0" d="M85.5 176.5L515.5 176.5" fill-rule="nonzero"/><path stroke="#000000" stroke-width="1.0" stroke-linecap="butt" stroke-opacity="0.0" d="M85.5 157.5L515.5 157.5" fill-rule="nonzero"/><path stroke="#000000" stroke-width="1.0" stroke-linecap="butt" stroke-opacity="0.0" d="M85.5 147.5L515.5 147.5" fill-rule="nonzero"/><path stroke="#000000" stroke-width="1.0" stroke-linecap="butt" stroke-opacity="0.0" d="M85.5 127.5L515.5 127.5" fill-rule="nonzero"/><path stroke="#000000" stroke-width="1.0" stroke-linecap="butt" stroke-opacity="0.0" d="M85.5 117.5L515.5 117.5" fill-rule="nonzero"/><path stroke="#000000" stroke-width="1.0" stroke-linecap="butt" stroke-opacity="0.0" d="M85.5 97.5L515.5 97.5" fill-rule="nonzero"/><path stroke="#000000" stroke-width="1.0" stroke-linecap="butt" stroke-opacity="0.0" d="M85.5 87.5L515.5 87.5" fill-rule="nonzero"/><path stroke="#000000" stroke-width="1.0" stroke-linecap="butt" stroke-opacity="0.0" d="M85.5 68.5L515.5 68.5" fill-rule="nonzero"/><path stroke="#000000" stroke-width="1.0" stroke-linecap="butt" stroke-opacity="0.0" d="M85.5 58.5L515.5 58.5" fill-rule="nonzero"/><path stroke="#000000" stroke-width="1.0" stroke-linecap="butt" d="M515.5 285.5L85.5 285.5" fill-rule="nonzero"/><path stroke="#000000" stroke-width="1.0" stroke-linecap="butt" d="M85.5 285.5L85.5 48.5" fill-rule="nonzero"/><clipPath id="id_0"><path d="M85.4 48.333332L515.6 48.333332L515.6 285.6L85.4 285.6L85.4 48.333332Z" clip-rule="nonzero"/></clipPath><path stroke="#4285f4" stroke-width="2.0" stroke-linecap="butt" clip-path="url(#id_0)" d="M116.12857 176.43005C116.12857 176.43005 157.1 181.5932 177.58571 182.3099C198.07143 183.02661 218.55714 180.63893 239.04286 180.73027C259.52856 180.82161 280.01428 182.29973 300.5 182.85794C320.98572 183.41614 341.47144 183.8571 361.95715 184.0795C382.44287 184.3019 402.92856 185.43788 423.41428 184.19234C443.9 182.94678 484.87143 176.6062 484.87143 176.6062" fill-rule="nonzero"/><path stroke="#ea4335" stroke-width="2.0" stroke-linecap="butt" clip-path="url(#id_0)" d="M116.12857 168.45706C116.12857 168.45706 157.1 173.42506 177.58571 174.41867C198.07143 175.41226 218.55714 174.41867 239.04286 174.41867C259.52856 174.41867 280.01428 174.41867 300.5 174.41867C320.98572 174.41867 341.47144 163.98587 361.95715 174.41867C382.44287 184.85147 402.92856 242.97708 423.41428 237.01549C443.9 231.05388 484.87143 138.64906 484.87143 138.64906" fill-rule="nonzero"/><path stroke="#fbbc04" stroke-width="2.0" stroke-linecap="butt" stroke-opacity="0.7019608" clip-path="url(#id_0)" d="M116.12857 70.984886C116.12857 70.984886 157.1 70.984886 177.58571 70.984886C198.07143 70.984886 218.55714 70.984886 239.04286 70.984886C259.52856 70.984886 280.01428 70.984886 300.5 70.984886C320.98572 70.984886 341.47144 70.984886 361.95715 70.984886C382.44287 70.984886 402.92856 70.984886 423.41428 70.984886C443.9 70.984886 484.87143 70.984886 484.87143 70.984886" fill-rule="nonzero"/><path stroke="#34a853" stroke-width="2.0" stroke-linecap="butt" clip-path="url(#id_0)" d="M116.12857 262.94846C116.12857 262.94846 157.1 262.94846 177.58571 262.94846C198.07143 262.94846 218.55714 262.94846 239.04286 262.94846C259.52856 262.94846 280.01428 262.94846 300.5 262.94846C320.98572 262.94846 341.47144 262.94846 361.95715 262.94846C382.44287 262.94846 402.92856 262.94846 423.41428 262.94846C443.9 262.94846 484.87143 262.94846 484.87143 262.94846" fill-rule="nonzero"/><path fill="#4285f4" clip-path="url(#id_0)" d="M119.62857 176.43005C119.62857 178.36304 118.06157 179.93005 116.12857 179.93005C114.19557 179.93005 112.62857 178.36304 112.62857 176.43005C112.62857 174.49706 114.19557 172.93005 116.12857 172.93005C118.06157 172.93005 119.62857 174.49706 119.62857 176.43005Z" fill-rule="nonzero"/><path fill="#4285f4" clip-path="url(#id_0)" d="M181.08571 182.3099C181.08571 184.2429 179.5187 185.8099 177.58571 185.8099C175.65273 185.8099 174.08571 184.2429 174.08571 182.3099C174.08571 180.3769 175.65273 178.8099 177.58571 178.8099C179.5187 178.8099 181.08571 180.3769 181.08571 182.3099Z" fill-rule="nonzero"/><path fill="#4285f4" clip-path="url(#id_0)" d="M242.54286 180.73027C242.54286 182.66327 240.97586 184.23027 239.04286 184.23027C237.10986 184.23027 235.54286 182.66327 235.54286 180.73027C235.54286 178.79727 237.10986 177.23027 239.04286 177.23027C240.97586 177.23027 242.54286 178.79727 242.54286 180.73027Z" fill-rule="nonzero"/><path fill="#4285f4" clip-path="url(#id_0)" d="M304.0 182.85794C304.0 184.79094 302.43298 186.35794 300.5 186.35794C298.56702 186.35794 297.0 184.79094 297.0 182.85794C297.0 180.92494 298.56702 179.35794 300.5 179.35794C302.43298 179.35794 304.0 180.92494 304.0 182.85794Z" fill-rule="nonzero"/><path fill="#4285f4" clip-path="url(#id_0)" d="M365.45715 184.0795C365.45715 186.0125 363.89014 187.5795 361.95715 187.5795C360.02414 187.5795 358.45715 186.0125 358.45715 184.0795C358.45715 182.1465 360.02414 180.5795 361.95715 180.5795C363.89014 180.5795 365.45715 182.1465 365.45715 184.0795Z" fill-rule="nonzero"/><path fill="#4285f4" clip-path="url(#id_0)" d="M426.91428 184.19234C426.91428 186.12534 425.3473 187.69234 423.41428 187.69234C421.4813 187.69234 419.91428 186.12534 419.91428 184.19234C419.91428 182.25934 421.4813 180.69234 423.41428 180.69234C425.3473 180.69234 426.91428 182.25934 426.91428 184.19234Z" fill-rule="nonzero"/><path fill="#4285f4" clip-path="url(#id_0)" d="M488.37143 176.6062C488.37143 178.5392 486.8044 180.1062 484.87143 180.1062C482.93845 180.1062 481.37143 178.5392 481.37143 176.6062C481.37143 174.6732 482.93845 173.1062 484.87143 173.1062C486.8044 173.1062 488.37143 174.6732 488.37143 176.6062Z" fill-rule="nonzero"/><path fill="#ea4335" clip-path="url(#id_0)" d="M119.62857 168.45706C119.62857 170.39006 118.06157 171.95706 116.12857 171.95706C114.19557 171.95706 112.62857 170.39006 112.62857 168.45706C112.62857 166.52406 114.19557 164.95706 116.12857 164.95706C118.06157 164.95706 119.62857 166.52406 119.62857 168.45706Z" fill-rule="nonzero"/><path fill="#ea4335" clip-path="url(#id_0)" d="M181.08571 174.41867C181.08571 176.35167 179.5187 177.91867 177.58571 177.91867C175.65273 177.91867 174.08571 176.35167 174.08571 174.41867C174.08571 172.48567 175.65273 170.91867 177.58571 170.91867C179.5187 170.91867 181.08571 172.48567 181.08571 174.41867Z" fill-rule="nonzero"/><path fill="#ea4335" clip-path="url(#id_0)" d="M242.54286 174.41867C242.54286 176.35167 240.97586 177.91867 239.04286 177.91867C237.10986 177.91867 235.54286 176.35167 235.54286 174.41867C235.54286 172.48567 237.10986 170.91867 239.04286 170.91867C240.97586 170.91867 242.54286 172.48567 242.54286 174.41867Z" fill-rule="nonzero"/><path fill="#ea4335" clip-path="url(#id_0)" d="M304.0 174.41867C304.0 176.35167 302.43298 177.91867 300.5 177.91867C298.56702 177.91867 297.0 176.35167 297.0 174.41867C297.0 172.48567 298.56702 170.91867 300.5 170.91867C302.43298 170.91867 304.0 172.48567 304.0 174.41867Z" fill-rule="nonzero"/><path fill="#ea4335" clip-path="url(#id_0)" d="M365.45715 174.41867C365.45715 176.35167 363.89014 177.91867 361.95715 177.91867C360.02414 177.91867 358.45715 176.35167 358.45715 174.41867C358.45715 172.48567 360.02414 170.91867 361.95715 170.91867C363.89014 170.91867 365.45715 172.48567 365.45715 174.41867Z" fill-rule="nonzero"/><path fill="#ea4335" clip-path="url(#id_0)" d="M426.91428 237.01549C426.91428 238.94849 425.3473 240.51549 423.41428 240.51549C421.4813 240.51549 419.91428 238.94849 419.91428 237.01549C419.91428 235.08249 421.4813 233.51549 423.41428 233.51549C425.3473 233.51549 426.91428 235.08249 426.91428 237.01549Z" fill-rule="nonzero"/><path fill="#ea4335" clip-path="url(#id_0)" d="M488.37143 138.64906C488.37143 140.58206 486.8044 142.14906 484.87143 142.14906C482.93845 142.14906 481.37143 140.58206 481.37143 138.64906C481.37143 136.71606 482.93845 135.14906 484.87143 135.14906C486.8044 135.14906 488.37143 136.71606 488.37143 138.64906Z" fill-rule="nonzero"/><path fill="#fbbc04" fill-opacity="0.7019608" clip-path="url(#id_0)" d="M119.62857 70.984886C119.62857 72.917885 118.06157 74.484886 116.12857 74.484886C114.19557 74.484886 112.62857 72.917885 112.62857 70.984886C112.62857 69.05189 114.19557 67.484886 116.12857 67.484886C118.06157 67.484886 119.62857 69.05189 119.62857 70.984886Z" fill-rule="nonzero"/><path fill="#fbbc04" fill-opacity="0.7019608" clip-path="url(#id_0)" d="M181.08571 70.984886C181.08571 72.917885 179.5187 74.484886 177.58571 74.484886C175.65273 74.484886 174.08571 72.917885 174.08571 70.984886C174.08571 69.05189 175.65273 67.484886 177.58571 67.484886C179.5187 67.484886 181.08571 69.05189 181.08571 70.984886Z" fill-rule="nonzero"/><path fill="#fbbc04" fill-opacity="0.7019608" clip-path="url(#id_0)" d="M242.54286 70.984886C242.54286 72.917885 240.97586 74.484886 239.04286 74.484886C237.10986 74.484886 235.54286 72.917885 235.54286 70.984886C235.54286 69.05189 237.10986 67.484886 239.04286 67.484886C240.97586 67.484886 242.54286 69.05189 242.54286 70.984886Z" fill-rule="nonzero"/><path fill="#fbbc04" fill-opacity="0.7019608" clip-path="url(#id_0)" d="M304.0 70.984886C304.0 72.917885 302.43298 74.484886 300.5 74.484886C298.56702 74.484886 297.0 72.917885 297.0 70.984886C297.0 69.05189 298.56702 67.484886 300.5 67.484886C302.43298 67.484886 304.0 69.05189 304.0 70.984886Z" fill-rule="nonzero"/><path fill="#fbbc04" fill-opacity="0.7019608" clip-path="url(#id_0)" d="M365.45715 70.984886C365.45715 72.917885 363.89014 74.484886 361.95715 74.484886C360.02414 74.484886 358.45715 72.917885 358.45715 70.984886C358.45715 69.05189 360.02414 67.484886 361.95715 67.484886C363.89014 67.484886 365.45715 69.05189 365.45715 70.984886Z" fill-rule="nonzero"/><path fill="#fbbc04" fill-opacity="0.7019608" clip-path="url(#id_0)" d="M426.91428 70.984886C426.91428 72.917885 425.3473 74.484886 423.41428 74.484886C421.4813 74.484886 419.91428 72.917885 419.91428 70.984886C419.91428 69.05189 421.4813 67.484886 423.41428 67.484886C425.3473 67.484886 426.91428 69.05189 426.91428 70.984886Z" fill-rule="nonzero"/><path fill="#fbbc04" fill-opacity="0.7019608" clip-path="url(#id_0)" d="M488.37143 70.984886C488.37143 72.917885 486.8044 74.484886 484.87143 74.484886C482.93845 74.484886 481.37143 72.917885 481.37143 70.984886C481.37143 69.05189 482.93845 67.484886 484.87143 67.484886C486.8044 67.484886 488.37143 69.05189 488.37143 70.984886Z" fill-rule="nonzero"/><path fill="#34a853" clip-path="url(#id_0)" d="M119.62857 262.94846C119.62857 264.88144 118.06157 266.44846 116.12857 266.44846C114.19557 266.44846 112.62857 264.88144 112.62857 262.94846C112.62857 261.01544 114.19557 259.44846 116.12857 259.44846C118.06157 259.44846 119.62857 261.01544 119.62857 262.94846Z" fill-rule="nonzero"/><path fill="#34a853" clip-path="url(#id_0)" d="M181.08571 262.94846C181.08571 264.88144 179.5187 266.44846 177.58571 266.44846C175.65273 266.44846 174.08571 264.88144 174.08571 262.94846C174.08571 261.01544 175.65273 259.44846 177.58571 259.44846C179.5187 259.44846 181.08571 261.01544 181.08571 262.94846Z" fill-rule="nonzero"/><path fill="#34a853" clip-path="url(#id_0)" d="M242.54286 262.94846C242.54286 264.88144 240.97586 266.44846 239.04286 266.44846C237.10986 266.44846 235.54286 264.88144 235.54286 262.94846C235.54286 261.01544 237.10986 259.44846 239.04286 259.44846C240.97586 259.44846 242.54286 261.01544 242.54286 262.94846Z" fill-rule="nonzero"/><path fill="#34a853" clip-path="url(#id_0)" d="M304.0 262.94846C304.0 264.88144 302.43298 266.44846 300.5 266.44846C298.56702 266.44846 297.0 264.88144 297.0 262.94846C297.0 261.01544 298.56702 259.44846 300.5 259.44846C302.43298 259.44846 304.0 261.01544 304.0 262.94846Z" fill-rule="nonzero"/><path fill="#34a853" clip-path="url(#id_0)" d="M365.45715 262.94846C365.45715 264.88144 363.89014 266.44846 361.95715 266.44846C360.02414 266.44846 358.45715 264.88144 358.45715 262.94846C358.45715 261.01544 360.02414 259.44846 361.95715 259.44846C363.89014 259.44846 365.45715 261.01544 365.45715 262.94846Z" fill-rule="nonzero"/><path fill="#34a853" clip-path="url(#id_0)" d="M426.91428 262.94846C426.91428 264.88144 425.3473 266.44846 423.41428 266.44846C421.4813 266.44846 419.91428 264.88144 419.91428 262.94846C419.91428 261.01544 421.4813 259.44846 423.41428 259.44846C425.3473 259.44846 426.91428 261.01544 426.91428 262.94846Z" fill-rule="nonzero"/><path fill="#34a853" clip-path="url(#id_0)" d="M488.37143 262.94846C488.37143 264.88144 486.8044 266.44846 484.87143 266.44846C482.93845 266.44846 481.37143 264.88144 481.37143 262.94846C481.37143 261.01544 482.93845 259.44846 484.87143 259.44846C486.8044 259.44846 488.37143 261.01544 488.37143 262.94846Z" fill-rule="nonzero"/><path stroke="#000000" stroke-width="1.0" stroke-linecap="butt" d="M116.5 291.5L116.5 279.5" fill-rule="nonzero"/><path stroke="#000000" stroke-width="1.0" stroke-linecap="butt" d="M177.5 291.5L177.5 279.5" fill-rule="nonzero"/><path stroke="#000000" stroke-width="1.0" stroke-linecap="butt" d="M239.5 291.5L239.5 279.5" fill-rule="nonzero"/><path stroke="#000000" stroke-width="1.0" stroke-linecap="butt" d="M300.5 291.5L300.5 279.5" fill-rule="nonzero"/><path stroke="#000000" stroke-width="1.0" stroke-linecap="butt" d="M361.5 291.5L361.5 279.5" fill-rule="nonzero"/><path stroke="#000000" stroke-width="1.0" stroke-linecap="butt" d="M423.5 291.5L423.5 279.5" fill-rule="nonzero"/><path stroke="#000000" stroke-width="1.0" stroke-linecap="butt" d="M484.5 291.5L484.5 279.5" fill-rule="nonzero"/><path stroke="#000000" stroke-width="1.0" stroke-linecap="butt" d="M79.5 285.5L91.5 285.5" fill-rule="nonzero"/><path stroke="#000000" stroke-width="1.0" stroke-linecap="butt" d="M79.5 255.5L91.5 255.5" fill-rule="nonzero"/><path stroke="#000000" stroke-width="1.0" stroke-linecap="butt" d="M79.5 226.5L91.5 226.5" fill-rule="nonzero"/><path stroke="#000000" stroke-width="1.0" stroke-linecap="butt" d="M79.5 196.5L91.5 196.5" fill-rule="nonzero"/><path stroke="#000000" stroke-width="1.0" stroke-linecap="butt" d="M79.5 166.5L91.5 166.5" fill-rule="nonzero"/><path stroke="#000000" stroke-width="1.0" stroke-linecap="butt" d="M79.5 137.5L91.5 137.5" fill-rule="nonzero"/><path stroke="#000000" stroke-width="1.0" stroke-linecap="butt" d="M79.5 107.5L91.5 107.5" fill-rule="nonzero"/><path stroke="#000000" stroke-width="1.0" stroke-linecap="butt" d="M79.5 77.5L91.5 77.5" fill-rule="nonzero"/><path stroke="#000000" stroke-width="1.0" stroke-linecap="butt" d="M79.5 48.5L91.5 48.5" fill-rule="nonzero"/><path fill="#000000" d="M48.775 287.02188L48.775 285.95938L52.025 285.95938L52.025 287.02188L48.775 287.02188ZM54.525 284.94376Q53.86875 284.69376 53.540627 284.25626Q53.228127 283.80313 53.228127 283.19376Q53.228127 282.25626 53.9 281.61563Q54.5875 280.975 55.696877 280.975Q56.821877 280.975 57.509377 281.63126Q58.196877 282.2875 58.196877 283.225Q58.196877 283.81876 57.884377 284.25626Q57.571877 284.69376 56.93125 284.94376Q57.728127 285.19376 58.134377 285.77188Q58.540627 286.35 58.540627 287.14688Q58.540627 288.24063 57.759377 288.99063Q56.99375 289.74063 55.7125 289.74063Q54.446877 289.74063 53.665627 288.99063Q52.884377 288.24063 52.884377 287.11563Q52.884377 286.27188 53.30625 285.70938Q53.74375 285.14688 54.525 284.94376ZM54.30625 283.14688Q54.30625 283.75626 54.696877 284.14688Q55.103127 284.5375 55.728127 284.5375Q56.3375 284.5375 56.728127 284.1625Q57.11875 283.77188 57.11875 283.20938Q57.11875 282.63126 56.7125 282.24063Q56.30625 281.83438 55.7125 281.83438Q55.103127 281.83438 54.696877 282.225Q54.30625 282.61563 54.30625 283.14688ZM53.978127 287.11563Q53.978127 287.56876 54.18125 287.99063Q54.4 288.4125 54.821877 288.64688Q55.24375 288.88126 55.728127 288.88126Q56.478127 288.88126 56.9625 288.39688Q57.4625 287.9125 57.4625 287.1625Q57.4625 286.39688 56.9625 285.89688Q56.4625 285.39688 55.696877 285.39688Q54.946877 285.39688 54.4625 285.89688Q53.978127 286.38126 53.978127 287.11563ZM59.9 285.36563Q59.9 283.83438 60.2125 282.9125Q60.525 281.975 61.134377 281.475Q61.759377 280.975 62.696877 280.975Q63.384377 280.975 63.9 281.25626Q64.43125 281.5375 64.775 282.06876Q65.11875 282.58438 65.30625 283.33438Q65.49375 284.08438 65.49375 285.36563Q65.49375 286.88126 65.18125 287.80313Q64.88438 288.725 64.25938 289.24063Q63.65 289.74063 62.696877 289.74063Q61.4625 289.74063 60.74375 288.85Q59.9 287.7875 59.9 285.36563ZM60.978127 285.36563Q60.978127 287.475 61.478127 288.17813Q61.978127 288.88126 62.696877 288.88126Q63.43125 288.88126 63.915627 288.17813Q64.41563 287.475 64.41563 285.36563Q64.41563 283.24063 63.915627 282.55313Q63.43125 281.85 62.68125 281.85Q61.9625 281.85 61.525 282.45938Q60.978127 283.24063 60.978127 285.36563ZM66.9 285.36563Q66.9 283.83438 67.2125 282.9125Q67.525 281.975 68.13438 281.475Q68.75938 280.975 69.69688 280.975Q70.38438 280.975 70.9 281.25626Q71.43125 281.5375 71.775 282.06876Q72.11875 282.58438 72.30625 283.33438Q72.49375 284.08438 72.49375 285.36563Q72.49375 286.88126 72.18125 287.80313Q71.88438 288.725 71.25938 289.24063Q70.65 289.74063 69.69688 289.74063Q68.4625 289.74063 67.74375 288.85Q66.9 287.7875 66.9 285.36563ZM67.97813 285.36563Q67.97813 287.475 68.47813 288.17813Q68.97813 288.88126 69.69688 288.88126Q70.43125 288.88126 70.91563 288.17813Q71.41563 287.475 71.41563 285.36563Q71.41563 283.24063 70.91563 282.55313Q70.43125 281.85 69.68125 281.85Q68.9625 281.85 68.525 282.45938Q67.97813 283.24063 67.97813 285.36563Z" fill-rule="nonzero"/><path fill="#000000" d="M48.775 257.36356L48.775 256.30106L52.025 256.30106L52.025 257.36356L48.775 257.36356ZM58.36875 253.4573L57.321877 253.53543Q57.18125 252.91043 56.93125 252.62918Q56.49375 252.17606 55.86875 252.17606Q55.36875 252.17606 54.978127 252.4573Q54.49375 252.8323 54.196877 253.53543Q53.915627 254.22293 53.9 255.50418Q54.275 254.92606 54.821877 254.6448Q55.384377 254.36356 55.99375 254.36356Q57.040627 254.36356 57.775 255.1448Q58.525 255.92606 58.525 257.1448Q58.525 257.9573 58.165627 258.66043Q57.821877 259.34793 57.2125 259.72293Q56.603127 260.0823 55.8375 260.0823Q54.509377 260.0823 53.68125 259.11356Q52.853127 258.1448 52.853127 255.92606Q52.853127 253.42606 53.775 252.30106Q54.571877 251.31668 55.93125 251.31668Q56.946877 251.31668 57.5875 251.8948Q58.24375 252.4573 58.36875 253.4573ZM54.071877 257.16043Q54.071877 257.7073 54.290627 258.2073Q54.525 258.69168 54.93125 258.9573Q55.353127 259.22293 55.821877 259.22293Q56.478127 259.22293 56.9625 258.69168Q57.446877 258.1448 57.446877 257.22293Q57.446877 256.3323 56.9625 255.81668Q56.49375 255.30106 55.775 255.30106Q55.05625 255.30106 54.55625 255.81668Q54.071877 256.3323 54.071877 257.16043ZM59.9 255.7073Q59.9 254.17606 60.2125 253.25418Q60.525 252.31668 61.134377 251.81668Q61.759377 251.31668 62.696877 251.31668Q63.384377 251.31668 63.9 251.59793Q64.43125 251.87918 64.775 252.41043Q65.11875 252.92606 65.30625 253.67606Q65.49375 254.42606 65.49375 255.7073Q65.49375 257.22293 65.18125 258.1448Q64.88438 259.06668 64.25938 259.5823Q63.65 260.0823 62.696877 260.0823Q61.4625 260.0823 60.74375 259.19168Q59.9 258.12918 59.9 255.7073ZM60.978127 255.7073Q60.978127 257.81668 61.478127 258.5198Q61.978127 259.22293 62.696877 259.22293Q63.43125 259.22293 63.915627 258.5198Q64.41563 257.81668 64.41563 255.7073Q64.41563 253.5823 63.915627 252.8948Q63.43125 252.19168 62.68125 252.19168Q61.9625 252.19168 61.525 252.80106Q60.978127 253.5823 60.978127 255.7073ZM66.9 255.7073Q66.9 254.17606 67.2125 253.25418Q67.525 252.31668 68.13438 251.81668Q68.75938 251.31668 69.69688 251.31668Q70.38438 251.31668 70.9 251.59793Q71.43125 251.87918 71.775 252.41043Q72.11875 252.92606 72.30625 253.67606Q72.49375 254.42606 72.49375 255.7073Q72.49375 257.22293 72.18125 258.1448Q71.88438 259.06668 71.25938 259.5823Q70.65 260.0823 69.69688 260.0823Q68.4625 260.0823 67.74375 259.19168Q66.9 258.12918 66.9 255.7073ZM67.97813 255.7073Q67.97813 257.81668 68.47813 258.5198Q68.97813 259.22293 69.69688 259.22293Q70.43125 259.22293 70.91563 258.5198Q71.41563 257.81668 71.41563 255.7073Q71.41563 253.5823 70.91563 252.8948Q70.43125 252.19168 69.68125 252.19168Q68.9625 252.19168 68.525 252.80106Q67.97813 253.5823 67.97813 255.7073Z" fill-rule="nonzero"/><path fill="#000000" d="M48.775 227.70522L48.775 226.64272L52.025 226.64272L52.025 227.70522L48.775 227.70522ZM56.275 230.28334L56.275 228.22084L52.55625 228.22084L52.55625 227.25209L56.478127 221.68959L57.3375 221.68959L57.3375 227.25209L58.49375 227.25209L58.49375 228.22084L57.3375 228.22084L57.3375 230.28334L56.275 230.28334ZM56.275 227.25209L56.275 223.39272L53.5875 227.25209L56.275 227.25209ZM59.9 226.04897Q59.9 224.51772 60.2125 223.59584Q60.525 222.65834 61.134377 222.15834Q61.759377 221.65834 62.696877 221.65834Q63.384377 221.65834 63.9 221.93959Q64.43125 222.22084 64.775 222.75209Q65.11875 223.26772 65.30625 224.01772Q65.49375 224.76772 65.49375 226.04897Q65.49375 227.56459 65.18125 228.48647Q64.88438 229.40834 64.25938 229.92397Q63.65 230.42397 62.696877 230.42397Q61.4625 230.42397 60.74375 229.53334Q59.9 228.47084 59.9 226.04897ZM60.978127 226.04897Q60.978127 228.15834 61.478127 228.86147Q61.978127 229.56459 62.696877 229.56459Q63.43125 229.56459 63.915627 228.86147Q64.41563 228.15834 64.41563 226.04897Q64.41563 223.92397 63.915627 223.23647Q63.43125 222.53334 62.68125 222.53334Q61.9625 222.53334 61.525 223.14272Q60.978127 223.92397 60.978127 226.04897ZM66.9 226.04897Q66.9 224.51772 67.2125 223.59584Q67.525 222.65834 68.13438 222.15834Q68.75938 221.65834 69.69688 221.65834Q70.38438 221.65834 70.9 221.93959Q71.43125 222.22084 71.775 222.75209Q72.11875 223.26772 72.30625 224.01772Q72.49375 224.76772 72.49375 226.04897Q72.49375 227.56459 72.18125 228.48647Q71.88438 229.40834 71.25938 229.92397Q70.65 230.42397 69.69688 230.42397Q68.4625 230.42397 67.74375 229.53334Q66.9 228.47084 66.9 226.04897ZM67.97813 226.04897Q67.97813 228.15834 68.47813 228.86147Q68.97813 229.56459 69.69688 229.56459Q70.43125 229.56459 70.91563 228.86147Q71.41563 228.15834 71.41563 226.04897Q71.41563 223.92397 70.91563 223.23647Q70.43125 222.53334 69.68125 222.53334Q68.9625 222.53334 68.525 223.14272Q67.97813 223.92397 67.97813 226.04897Z" fill-rule="nonzero"/><path fill="#000000" d="M48.775 198.04688L48.775 196.98438L52.025 196.98438L52.025 198.04688L48.775 198.04688ZM58.446877 199.60938L58.446877 200.625L52.759377 200.625Q52.759377 200.25 52.884377 199.89062Q53.103127 199.3125 53.571877 198.75Q54.05625 198.1875 54.9625 197.45312Q56.36875 196.29688 56.853127 195.625Q57.353127 194.95312 57.353127 194.35938Q57.353127 193.73438 56.9 193.3125Q56.446877 192.875 55.728127 192.875Q54.9625 192.875 54.509377 193.32812Q54.05625 193.78125 54.040627 194.59375L52.9625 194.48438Q53.071877 193.26562 53.790627 192.64062Q54.525 192.0 55.759377 192.0Q56.99375 192.0 57.7125 192.6875Q58.43125 193.375 58.43125 194.39062Q58.43125 194.90625 58.2125 195.40625Q58.009377 195.89062 57.509377 196.45312Q57.025 197.0 55.9 197.95312Q54.946877 198.75 54.665627 199.04688Q54.4 199.32812 54.228127 199.60938L58.446877 199.60938ZM59.9 196.39062Q59.9 194.85938 60.2125 193.9375Q60.525 193.0 61.134377 192.5Q61.759377 192.0 62.696877 192.0Q63.384377 192.0 63.9 192.28125Q64.43125 192.5625 64.775 193.09375Q65.11875 193.60938 65.30625 194.35938Q65.49375 195.10938 65.49375 196.39062Q65.49375 197.90625 65.18125 198.82812Q64.88438 199.75 64.25938 200.26562Q63.65 200.76562 62.696877 200.76562Q61.4625 200.76562 60.74375 199.875Q59.9 198.8125 59.9 196.39062ZM60.978127 196.39062Q60.978127 198.5 61.478127 199.20312Q61.978127 199.90625 62.696877 199.90625Q63.43125 199.90625 63.915627 199.20312Q64.41563 198.5 64.41563 196.39062Q64.41563 194.26562 63.915627 193.57812Q63.43125 192.875 62.68125 192.875Q61.9625 192.875 61.525 193.48438Q60.978127 194.26562 60.978127 196.39062ZM66.9 196.39062Q66.9 194.85938 67.2125 193.9375Q67.525 193.0 68.13438 192.5Q68.75938 192.0 69.69688 192.0Q70.38438 192.0 70.9 192.28125Q71.43125 192.5625 71.775 193.09375Q72.11875 193.60938 72.30625 194.35938Q72.49375 195.10938 72.49375 196.39062Q72.49375 197.90625 72.18125 198.82812Q71.88438 199.75 71.25938 200.26562Q70.65 200.76562 69.69688 200.76562Q68.4625 200.76562 67.74375 199.875Q66.9 198.8125 66.9 196.39062ZM67.97813 196.39062Q67.97813 198.5 68.47813 199.20312Q68.97813 199.90625 69.69688 199.90625Q70.43125 199.90625 70.91563 199.20312Q71.41563 198.5 71.41563 196.39062Q71.41563 194.26562 70.91563 193.57812Q70.43125 192.875 69.68125 192.875Q68.9625 192.875 68.525 193.48438Q67.97813 194.26562 67.97813 196.39062Z" fill-rule="nonzero"/><path fill="#000000" d="M66.9 166.73228Q66.9 165.20103 67.2125 164.27916Q67.525 163.34166 68.13438 162.84166Q68.75938 162.34166 69.69688 162.34166Q70.38438 162.34166 70.9 162.62291Q71.43125 162.90416 71.775 163.43541Q72.11875 163.95103 72.30625 164.70103Q72.49375 165.45103 72.49375 166.73228Q72.49375 168.24791 72.18125 169.16978Q71.88438 170.09166 71.25938 170.60728Q70.65 171.10728 69.69688 171.10728Q68.4625 171.10728 67.74375 170.21666Q66.9 169.15416 66.9 166.73228ZM67.97813 166.73228Q67.97813 168.84166 68.47813 169.54478Q68.97813 170.24791 69.69688 170.24791Q70.43125 170.24791 70.91563 169.54478Q71.41563 168.84166 71.41563 166.73228Q71.41563 164.60728 70.91563 163.91978Q70.43125 163.21666 69.68125 163.21666Q68.9625 163.21666 68.525 163.82603Q67.97813 164.60728 67.97813 166.73228Z" fill-rule="nonzero"/><path fill="#000000" d="M58.446877 140.29271L58.446877 141.30833L52.759377 141.30833Q52.759377 140.93333 52.884377 140.57396Q53.103127 139.99583 53.571877 139.43333Q54.05625 138.87083 54.9625 138.13646Q56.36875 136.98021 56.853127 136.30833Q57.353127 135.63646 57.353127 135.04271Q57.353127 134.41771 56.9 133.99583Q56.446877 133.55833 55.728127 133.55833Q54.9625 133.55833 54.509377 134.01146Q54.05625 134.46458 54.040627 135.27708L52.9625 135.16771Q53.071877 133.94896 53.790627 133.32396Q54.525 132.68333 55.759377 132.68333Q56.99375 132.68333 57.7125 133.37083Q58.43125 134.05833 58.43125 135.07396Q58.43125 135.58958 58.2125 136.08958Q58.009377 136.57396 57.509377 137.13646Q57.025 137.68333 55.9 138.63646Q54.946877 139.43333 54.665627 139.73021Q54.4 140.01146 54.228127 140.29271L58.446877 140.29271ZM59.9 137.07396Q59.9 135.54271 60.2125 134.62083Q60.525 133.68333 61.134377 133.18333Q61.759377 132.68333 62.696877 132.68333Q63.384377 132.68333 63.9 132.96458Q64.43125 133.24583 64.775 133.77708Q65.11875 134.29271 65.30625 135.04271Q65.49375 135.79271 65.49375 137.07396Q65.49375 138.58958 65.18125 139.51146Q64.88438 140.43333 64.25938 140.94896Q63.65 141.44896 62.696877 141.44896Q61.4625 141.44896 60.74375 140.55833Q59.9 139.49583 59.9 137.07396ZM60.978127 137.07396Q60.978127 139.18333 61.478127 139.88646Q61.978127 140.58958 62.696877 140.58958Q63.43125 140.58958 63.915627 139.88646Q64.41563 139.18333 64.41563 137.07396Q64.41563 134.94896 63.915627 134.26146Q63.43125 133.55833 62.68125 133.55833Q61.9625 133.55833 61.525 134.16771Q60.978127 134.94896 60.978127 137.07396ZM66.9 137.07396Q66.9 135.54271 67.2125 134.62083Q67.525 133.68333 68.13438 133.18333Q68.75938 132.68333 69.69688 132.68333Q70.38438 132.68333 70.9 132.96458Q71.43125 133.24583 71.775 133.77708Q72.11875 134.29271 72.30625 135.04271Q72.49375 135.79271 72.49375 137.07396Q72.49375 138.58958 72.18125 139.51146Q71.88438 140.43333 71.25938 140.94896Q70.65 141.44896 69.69688 141.44896Q68.4625 141.44896 67.74375 140.55833Q66.9 139.49583 66.9 137.07396ZM67.97813 137.07396Q67.97813 139.18333 68.47813 139.88646Q68.97813 140.58958 69.69688 140.58958Q70.43125 140.58958 70.91563 139.88646Q71.41563 139.18333 71.41563 137.07396Q71.41563 134.94896 70.91563 134.26146Q70.43125 133.55833 69.68125 133.55833Q68.9625 133.55833 68.525 134.16771Q67.97813 134.94896 67.97813 137.07396Z" fill-rule="nonzero"/><path fill="#000000" d="M56.275 111.65L56.275 109.5875L52.55625 109.5875L52.55625 108.61875L56.478127 103.05625L57.3375 103.05625L57.3375 108.61875L58.49375 108.61875L58.49375 109.5875L57.3375 109.5875L57.3375 111.65L56.275 111.65ZM56.275 108.61875L56.275 104.75938L53.5875 108.61875L56.275 108.61875ZM59.9 107.41563Q59.9 105.88438 60.2125 104.9625Q60.525 104.025 61.134377 103.525Q61.759377 103.025 62.696877 103.025Q63.384377 103.025 63.9 103.30625Q64.43125 103.5875 64.775 104.11875Q65.11875 104.63438 65.30625 105.38438Q65.49375 106.13438 65.49375 107.41563Q65.49375 108.93125 65.18125 109.85313Q64.88438 110.775 64.25938 111.29063Q63.65 111.79063 62.696877 111.79063Q61.4625 111.79063 60.74375 110.9Q59.9 109.8375 59.9 107.41563ZM60.978127 107.41563Q60.978127 109.525 61.478127 110.22813Q61.978127 110.93125 62.696877 110.93125Q63.43125 110.93125 63.915627 110.22813Q64.41563 109.525 64.41563 107.41563Q64.41563 105.29063 63.915627 104.60313Q63.43125 103.9 62.68125 103.9Q61.9625 103.9 61.525 104.50938Q60.978127 105.29063 60.978127 107.41563ZM66.9 107.41563Q66.9 105.88438 67.2125 104.9625Q67.525 104.025 68.13438 103.525Q68.75938 103.025 69.69688 103.025Q70.38438 103.025 70.9 103.30625Q71.43125 103.5875 71.775 104.11875Q72.11875 104.63438 72.30625 105.38438Q72.49375 106.13438 72.49375 107.41563Q72.49375 108.93125 72.18125 109.85313Q71.88438 110.775 71.25938 111.29063Q70.65 111.79063 69.69688 111.79063Q68.4625 111.79063 67.74375 110.9Q66.9 109.8375 66.9 107.41563ZM67.97813 107.41563Q67.97813 109.525 68.47813 110.22813Q68.97813 110.93125 69.69688 110.93125Q70.43125 110.93125 70.91563 110.22813Q71.41563 109.525 71.41563 107.41563Q71.41563 105.29063 70.91563 104.60313Q70.43125 103.9 69.68125 103.9Q68.9625 103.9 68.525 104.50938Q67.97813 105.29063 67.97813 107.41563Z" fill-rule="nonzero"/><path fill="#000000" d="M58.36875 75.50729L57.321877 75.58542Q57.18125 74.96042 56.93125 74.67917Q56.49375 74.22604 55.86875 74.22604Q55.36875 74.22604 54.978127 74.50729Q54.49375 74.88229 54.196877 75.58542Q53.915627 76.27292 53.9 77.55417Q54.275 76.97604 54.821877 76.69479Q55.384377 76.41354 55.99375 76.41354Q57.040627 76.41354 57.775 77.19479Q58.525 77.97604 58.525 79.19479Q58.525 80.00729 58.165627 80.71042Q57.821877 81.39792 57.2125 81.77292Q56.603127 82.13229 55.8375 82.13229Q54.509377 82.13229 53.68125 81.16354Q52.853127 80.19479 52.853127 77.97604Q52.853127 75.47604 53.775 74.35104Q54.571877 73.36667 55.93125 73.36667Q56.946877 73.36667 57.5875 73.94479Q58.24375 74.50729 58.36875 75.50729ZM54.071877 79.21042Q54.071877 79.75729 54.290627 80.25729Q54.525 80.74167 54.93125 81.00729Q55.353127 81.27292 55.821877 81.27292Q56.478127 81.27292 56.9625 80.74167Q57.446877 80.19479 57.446877 79.27292Q57.446877 78.38229 56.9625 77.86667Q56.49375 77.35104 55.775 77.35104Q55.05625 77.35104 54.55625 77.86667Q54.071877 78.38229 54.071877 79.21042ZM59.9 77.75729Q59.9 76.22604 60.2125 75.30417Q60.525 74.36667 61.134377 73.86667Q61.759377 73.36667 62.696877 73.36667Q63.384377 73.36667 63.9 73.64792Q64.43125 73.92917 64.775 74.46042Q65.11875 74.97604 65.30625 75.72604Q65.49375 76.47604 65.49375 77.75729Q65.49375 79.27292 65.18125 80.19479Q64.88438 81.11667 64.25938 81.63229Q63.65 82.13229 62.696877 82.13229Q61.4625 82.13229 60.74375 81.24167Q59.9 80.17917 59.9 77.75729ZM60.978127 77.75729Q60.978127 79.86667 61.478127 80.56979Q61.978127 81.27292 62.696877 81.27292Q63.43125 81.27292 63.915627 80.56979Q64.41563 79.86667 64.41563 77.75729Q64.41563 75.63229 63.915627 74.94479Q63.43125 74.24167 62.68125 74.24167Q61.9625 74.24167 61.525 74.85104Q60.978127 75.63229 60.978127 77.75729ZM66.9 77.75729Q66.9 76.22604 67.2125 75.30417Q67.525 74.36667 68.13438 73.86667Q68.75938 73.36667 69.69688 73.36667Q70.38438 73.36667 70.9 73.64792Q71.43125 73.92917 71.775 74.46042Q72.11875 74.97604 72.30625 75.72604Q72.49375 76.47604 72.49375 77.75729Q72.49375 79.27292 72.18125 80.19479Q71.88438 81.11667 71.25938 81.63229Q70.65 82.13229 69.69688 82.13229Q68.4625 82.13229 67.74375 81.24167Q66.9 80.17917 66.9 77.75729ZM67.97813 77.75729Q67.97813 79.86667 68.47813 80.56979Q68.97813 81.27292 69.69688 81.27292Q70.43125 81.27292 70.91563 80.56979Q71.41563 79.86667 71.41563 77.75729Q71.41563 75.63229 70.91563 74.94479Q70.43125 74.24167 69.68125 74.24167Q68.9625 74.24167 68.525 74.85104Q67.97813 75.63229 67.97813 77.75729Z" fill-rule="nonzero"/><path fill="#000000" d="M54.525 47.677082Q53.86875 47.427082 53.540627 46.989582Q53.228127 46.536457 53.228127 45.927082Q53.228127 44.989582 53.9 44.348957Q54.5875 43.708332 55.696877 43.708332Q56.821877 43.708332 57.509377 44.364582Q58.196877 45.020832 58.196877 45.958332Q58.196877 46.552082 57.884377 46.989582Q57.571877 47.427082 56.93125 47.677082Q57.728127 47.927082 58.134377 48.505207Q58.540627 49.083332 58.540627 49.880207Q58.540627 50.973957 57.759377 51.723957Q56.99375 52.473957 55.7125 52.473957Q54.446877 52.473957 53.665627 51.723957Q52.884377 50.973957 52.884377 49.848957Q52.884377 49.005207 53.30625 48.442707Q53.74375 47.880207 54.525 47.677082ZM54.30625 45.880207Q54.30625 46.489582 54.696877 46.880207Q55.103127 47.270832 55.728127 47.270832Q56.3375 47.270832 56.728127 46.895832Q57.11875 46.505207 57.11875 45.942707Q57.11875 45.364582 56.7125 44.973957Q56.30625 44.567707 55.7125 44.567707Q55.103127 44.567707 54.696877 44.958332Q54.30625 45.348957 54.30625 45.880207ZM53.978127 49.848957Q53.978127 50.302082 54.18125 50.723957Q54.4 51.145832 54.821877 51.380207Q55.24375 51.614582 55.728127 51.614582Q56.478127 51.614582 56.9625 51.130207Q57.4625 50.645832 57.4625 49.895832Q57.4625 49.130207 56.9625 48.630207Q56.4625 48.130207 55.696877 48.130207Q54.946877 48.130207 54.4625 48.630207Q53.978127 49.114582 53.978127 49.848957ZM59.9 48.098957Q59.9 46.567707 60.2125 45.645832Q60.525 44.708332 61.134377 44.208332Q61.759377 43.708332 62.696877 43.708332Q63.384377 43.708332 63.9 43.989582Q64.43125 44.270832 64.775 44.802082Q65.11875 45.317707 65.30625 46.067707Q65.49375 46.817707 65.49375 48.098957Q65.49375 49.614582 65.18125 50.536457Q64.88438 51.458332 64.25938 51.973957Q63.65 52.473957 62.696877 52.473957Q61.4625 52.473957 60.74375 51.583332Q59.9 50.520832 59.9 48.098957ZM60.978127 48.098957Q60.978127 50.208332 61.478127 50.911457Q61.978127 51.614582 62.696877 51.614582Q63.43125 51.614582 63.915627 50.911457Q64.41563 50.208332 64.41563 48.098957Q64.41563 45.973957 63.915627 45.286457Q63.43125 44.583332 62.68125 44.583332Q61.9625 44.583332 61.525 45.192707Q60.978127 45.973957 60.978127 48.098957ZM66.9 48.098957Q66.9 46.567707 67.2125 45.645832Q67.525 44.708332 68.13438 44.208332Q68.75938 43.708332 69.69688 43.708332Q70.38438 43.708332 70.9 43.989582Q71.43125 44.270832 71.775 44.802082Q72.11875 45.317707 72.30625 46.067707Q72.49375 46.817707 72.49375 48.098957Q72.49375 49.614582 72.18125 50.536457Q71.88438 51.458332 71.25938 51.973957Q70.65 52.473957 69.69688 52.473957Q68.4625 52.473957 67.74375 51.583332Q66.9 50.520832 66.9 48.098957ZM67.97813 48.098957Q67.97813 50.208332 68.47813 50.911457Q68.97813 51.614582 69.69688 51.614582Q70.43125 51.614582 70.91563 50.911457Q71.41563 50.208332 71.41563 48.098957Q71.41563 45.973957 70.91563 45.286457Q70.43125 44.583332 69.68125 44.583332Q68.9625 44.583332 68.525 45.192707Q67.97813 45.973957 67.97813 48.098957Z" fill-rule="nonzero"/><path fill="#000000" d="M95.675446 305.83438L96.737946 305.74063Q96.81607 306.39688 97.09732 306.80313Q97.37857 307.20938 97.956696 307.475Q98.550446 307.725 99.28482 307.725Q99.925446 307.725 100.425446 307.5375Q100.925446 307.33438 101.15982 307.00626Q101.40982 306.6625 101.40982 306.27188Q101.40982 305.86563 101.175446 305.56876Q100.94107 305.25626 100.40982 305.05313Q100.050446 304.9125 98.862946 304.63126Q97.69107 304.35 97.22232 304.1Q96.59732 303.77188 96.300446 303.30313Q96.00357 302.81876 96.00357 302.225Q96.00357 301.58438 96.362946 301.02188Q96.737946 300.44376 97.44107 300.1625Q98.15982 299.86563 99.019196 299.86563Q99.97232 299.86563 100.706696 300.17813Q101.44107 300.475 101.831696 301.08438Q102.22232 301.67813 102.25357 302.42813L101.15982 302.50626Q101.06607 301.69376 100.550446 301.2875Q100.050446 300.86563 99.06607 300.86563Q98.03482 300.86563 97.56607 301.24063Q97.09732 301.61563 97.09732 302.14688Q97.09732 302.61563 97.425446 302.9125Q97.75357 303.20938 99.12857 303.52188Q100.519196 303.83438 101.03482 304.06876Q101.78482 304.42813 102.144196 304.95938Q102.50357 305.475 102.50357 306.17813Q102.50357 306.86563 102.112946 307.475Q101.72232 308.06876 100.987946 308.4125Q100.25357 308.74063 99.331696 308.74063Q98.15982 308.74063 97.362946 308.4125Q96.581696 308.06876 96.12857 307.38126Q95.69107 306.69376 95.675446 305.83438ZM103.925446 310.99063L103.925446 302.38126L104.87857 302.38126L104.87857 303.17813Q105.22232 302.70938 105.644196 302.475Q106.081696 302.24063 106.69107 302.24063Q107.487946 302.24063 108.09732 302.64688Q108.706696 303.05313 109.00357 303.80313Q109.31607 304.55313 109.31607 305.44376Q109.31607 306.39688 108.97232 307.1625Q108.644196 307.92813 107.987946 308.33438Q107.331696 308.74063 106.612946 308.74063Q106.081696 308.74063 105.65982 308.52188Q105.237946 308.2875 104.97232 307.95938L104.97232 310.99063L103.925446 310.99063ZM104.87857 305.52188Q104.87857 306.725 105.362946 307.30313Q105.84732 307.86563 106.53482 307.86563Q107.237946 307.86563 107.737946 307.27188Q108.237946 306.67813 108.237946 305.42813Q108.237946 304.24063 107.75357 303.6625Q107.269196 303.06876 106.581696 303.06876Q105.90982 303.06876 105.394196 303.69376Q104.87857 304.31876 104.87857 305.52188ZM110.90982 308.6L110.90982 302.38126L111.862946 302.38126L111.862946 303.31876Q112.22232 302.6625 112.519196 302.45938Q112.831696 302.24063 113.206696 302.24063Q113.737946 302.24063 114.28482 302.56876L113.925446 303.55313Q113.53482 303.31876 113.15982 303.31876Q112.800446 303.31876 112.519196 303.5375Q112.25357 303.74063 112.144196 304.11563Q111.956696 304.67813 111.956696 305.33438L111.956696 308.6L110.90982 308.6ZM114.925446 301.225L114.925446 300.00626L115.987946 300.00626L115.987946 301.225L114.925446 301.225ZM114.925446 308.6L114.925446 302.38126L115.987946 302.38126L115.987946 308.6L114.925446 308.6ZM117.925446 308.6L117.925446 302.38126L118.862946 302.38126L118.862946 303.25626Q119.550446 302.24063 120.84732 302.24063Q121.40982 302.24063 121.87857 302.44376Q122.362946 302.64688 122.59732 302.975Q122.831696 303.30313 122.925446 303.74063Q122.97232 304.0375 122.97232 304.77188L122.97232 308.6L121.925446 308.6L121.925446 304.81876Q121.925446 304.1625 121.800446 303.85Q121.675446 303.5375 121.362946 303.35Q121.050446 303.14688 120.62857 303.14688Q119.956696 303.14688 119.456696 303.58438Q118.97232 304.00626 118.97232 305.19376L118.97232 308.6L117.925446 308.6ZM127.22232 307.6625L127.37857 308.58438Q126.925446 308.67813 126.581696 308.67813Q126.00357 308.67813 125.69107 308.50626Q125.37857 308.31876 125.237946 308.02188Q125.112946 307.725 125.112946 306.77188L125.112946 303.19376L124.34732 303.19376L124.34732 302.38126L125.112946 302.38126L125.112946 300.83438L126.15982 300.20938L126.15982 302.38126L127.22232 302.38126L127.22232 303.19376L126.15982 303.19376L126.15982 306.83438Q126.15982 307.2875 126.206696 307.4125Q126.269196 307.5375 126.394196 307.61563Q126.519196 307.69376 126.75357 307.69376Q126.94107 307.69376 127.22232 307.6625ZM134.59732 308.6L133.55045 308.6L133.55045 301.88126Q133.15982 302.24063 132.53482 302.61563Q131.92545 302.975 131.44107 303.14688L131.44107 302.13126Q132.31607 301.70938 132.97232 301.13126Q133.6442 300.5375 133.92545 299.975L134.59732 299.975L134.59732 308.6Z" fill-rule="nonzero"/><path fill="#000000" d="M157.13258 305.83438L158.19508 305.74063Q158.27321 306.39688 158.55446 306.80313Q158.83571 307.20938 159.41383 307.475Q160.00758 307.725 160.74196 307.725Q161.38258 307.725 161.88258 307.5375Q162.38258 307.33438 162.61696 307.00626Q162.86696 306.6625 162.86696 306.27188Q162.86696 305.86563 162.63258 305.56876Q162.39821 305.25626 161.86696 305.05313Q161.50758 304.9125 160.32008 304.63126Q159.14821 304.35 158.67946 304.1Q158.05446 303.77188 157.75758 303.30313Q157.46071 302.81876 157.46071 302.225Q157.46071 301.58438 157.82008 301.02188Q158.19508 300.44376 158.89821 300.1625Q159.61696 299.86563 160.47633 299.86563Q161.42946 299.86563 162.16383 300.17813Q162.89821 300.475 163.28883 301.08438Q163.67946 301.67813 163.71071 302.42813L162.61696 302.50626Q162.52321 301.69376 162.00758 301.2875Q161.50758 300.86563 160.52321 300.86563Q159.49196 300.86563 159.02321 301.24063Q158.55446 301.61563 158.55446 302.14688Q158.55446 302.61563 158.88258 302.9125Q159.21071 303.20938 160.58571 303.52188Q161.97633 303.83438 162.49196 304.06876Q163.24196 304.42813 163.60133 304.95938Q163.96071 305.475 163.96071 306.17813Q163.96071 306.86563 163.57008 307.475Q163.17946 308.06876 162.44508 308.4125Q161.71071 308.74063 160.78883 308.74063Q159.61696 308.74063 158.82008 308.4125Q158.03883 308.06876 157.58571 307.38126Q157.14821 306.69376 157.13258 305.83438ZM165.38258 310.99063L165.38258 302.38126L166.33571 302.38126L166.33571 303.17813Q166.67946 302.70938 167.10133 302.475Q167.53883 302.24063 168.14821 302.24063Q168.94508 302.24063 169.55446 302.64688Q170.16383 303.05313 170.46071 303.80313Q170.77321 304.55313 170.77321 305.44376Q170.77321 306.39688 170.42946 307.1625Q170.10133 307.92813 169.44508 308.33438Q168.78883 308.74063 168.07008 308.74063Q167.53883 308.74063 167.11696 308.52188Q166.69508 308.2875 166.42946 307.95938L166.42946 310.99063L165.38258 310.99063ZM166.33571 305.52188Q166.33571 306.725 166.82008 307.30313Q167.30446 307.86563 167.99196 307.86563Q168.69508 307.86563 169.19508 307.27188Q169.69508 306.67813 169.69508 305.42813Q169.69508 304.24063 169.21071 303.6625Q168.72633 303.06876 168.03883 303.06876Q167.36696 303.06876 166.85133 303.69376Q166.33571 304.31876 166.33571 305.52188ZM172.36696 308.6L172.36696 302.38126L173.32008 302.38126L173.32008 303.31876Q173.67946 302.6625 173.97633 302.45938Q174.28883 302.24063 174.66383 302.24063Q175.19508 302.24063 175.74196 302.56876L175.38258 303.55313Q174.99196 303.31876 174.61696 303.31876Q174.25758 303.31876 173.97633 303.5375Q173.71071 303.74063 173.60133 304.11563Q173.41383 304.67813 173.41383 305.33438L173.41383 308.6L172.36696 308.6ZM176.38258 301.225L176.38258 300.00626L177.44508 300.00626L177.44508 301.225L176.38258 301.225ZM176.38258 308.6L176.38258 302.38126L177.44508 302.38126L177.44508 308.6L176.38258 308.6ZM179.38258 308.6L179.38258 302.38126L180.32008 302.38126L180.32008 303.25626Q181.00758 302.24063 182.30446 302.24063Q182.86696 302.24063 183.33571 302.44376Q183.82008 302.64688 184.05446 302.975Q184.28883 303.30313 184.38258 303.74063Q184.42946 304.0375 184.42946 304.77188L184.42946 308.6L183.38258 308.6L183.38258 304.81876Q183.38258 304.1625 183.25758 303.85Q183.13258 303.5375 182.82008 303.35Q182.50758 303.14688 182.08571 303.14688Q181.41383 303.14688 180.91383 303.58438Q180.42946 304.00626 180.42946 305.19376L180.42946 308.6L179.38258 308.6ZM188.67946 307.6625L188.83571 308.58438Q188.38258 308.67813 188.03883 308.67813Q187.46071 308.67813 187.14821 308.50626Q186.83571 308.31876 186.69508 308.02188Q186.57008 307.725 186.57008 306.77188L186.57008 303.19376L185.80446 303.19376L185.80446 302.38126L186.57008 302.38126L186.57008 300.83438L187.61696 300.20938L187.61696 302.38126L188.67946 302.38126L188.67946 303.19376L187.61696 303.19376L187.61696 306.83438Q187.61696 307.2875 187.66383 307.4125Q187.72633 307.5375 187.85133 307.61563Q187.97633 307.69376 188.21071 307.69376Q188.39821 307.69376 188.67946 307.6625ZM197.63258 307.58438L197.63258 308.6L191.94508 308.6Q191.94508 308.225 192.07008 307.86563Q192.28883 307.2875 192.75758 306.725Q193.24196 306.1625 194.14821 305.42813Q195.55446 304.27188 196.03883 303.6Q196.53883 302.92813 196.53883 302.33438Q196.53883 301.70938 196.08571 301.2875Q195.63258 300.85 194.91383 300.85Q194.14821 300.85 193.69508 301.30313Q193.24196 301.75626 193.22633 302.56876L192.14821 302.45938Q192.25758 301.24063 192.97633 300.61563Q193.71071 299.975 194.94508 299.975Q196.17946 299.975 196.89821 300.6625Q197.61696 301.35 197.61696 302.36563Q197.61696 302.88126 197.39821 303.38126Q197.19508 303.86563 196.69508 304.42813Q196.21071 304.975 195.08571 305.92813Q194.13258 306.725 193.85133 307.02188Q193.58571 307.30313 193.41383 307.58438L197.63258 307.58438Z" fill-rule="nonzero"/><path fill="#000000" d="M218.58974 305.83438L219.65224 305.74063Q219.73036 306.39688 220.01161 306.80313Q220.29286 307.20938 220.87099 307.475Q221.46474 307.725 222.19911 307.725Q222.83974 307.725 223.33974 307.5375Q223.83974 307.33438 224.07411 307.00626Q224.32411 306.6625 224.32411 306.27188Q224.32411 305.86563 224.08974 305.56876Q223.85536 305.25626 223.32411 305.05313Q222.96474 304.9125 221.77724 304.63126Q220.60536 304.35 220.13661 304.1Q219.51161 303.77188 219.21474 303.30313Q218.91786 302.81876 218.91786 302.225Q218.91786 301.58438 219.27724 301.02188Q219.65224 300.44376 220.35536 300.1625Q221.07411 299.86563 221.93349 299.86563Q222.88661 299.86563 223.62099 300.17813Q224.35536 300.475 224.74599 301.08438Q225.13661 301.67813 225.16786 302.42813L224.07411 302.50626Q223.98036 301.69376 223.46474 301.2875Q222.96474 300.86563 221.98036 300.86563Q220.94911 300.86563 220.48036 301.24063Q220.01161 301.61563 220.01161 302.14688Q220.01161 302.61563 220.33974 302.9125Q220.66786 303.20938 222.04286 303.52188Q223.43349 303.83438 223.94911 304.06876Q224.69911 304.42813 225.05849 304.95938Q225.41786 305.475 225.41786 306.17813Q225.41786 306.86563 225.02724 307.475Q224.63661 308.06876 223.90224 308.4125Q223.16786 308.74063 222.24599 308.74063Q221.07411 308.74063 220.27724 308.4125Q219.49599 308.06876 219.04286 307.38126Q218.60536 306.69376 218.58974 305.83438ZM226.83974 310.99063L226.83974 302.38126L227.79286 302.38126L227.79286 303.17813Q228.13661 302.70938 228.55849 302.475Q228.99599 302.24063 229.60536 302.24063Q230.40224 302.24063 231.01161 302.64688Q231.62099 303.05313 231.91786 303.80313Q232.23036 304.55313 232.23036 305.44376Q232.23036 306.39688 231.88661 307.1625Q231.55849 307.92813 230.90224 308.33438Q230.24599 308.74063 229.52724 308.74063Q228.99599 308.74063 228.57411 308.52188Q228.15224 308.2875 227.88661 307.95938L227.88661 310.99063L226.83974 310.99063ZM227.79286 305.52188Q227.79286 306.725 228.27724 307.30313Q228.76161 307.86563 229.44911 307.86563Q230.15224 307.86563 230.65224 307.27188Q231.15224 306.67813 231.15224 305.42813Q231.15224 304.24063 230.66786 303.6625Q230.18349 303.06876 229.49599 303.06876Q228.82411 303.06876 228.30849 303.69376Q227.79286 304.31876 227.79286 305.52188ZM233.82411 308.6L233.82411 302.38126L234.77724 302.38126L234.77724 303.31876Q235.13661 302.6625 235.43349 302.45938Q235.74599 302.24063 236.12099 302.24063Q236.65224 302.24063 237.19911 302.56876L236.83974 303.55313Q236.44911 303.31876 236.07411 303.31876Q235.71474 303.31876 235.43349 303.5375Q235.16786 303.74063 235.05849 304.11563Q234.87099 304.67813 234.87099 305.33438L234.87099 308.6L233.82411 308.6ZM237.83974 301.225L237.83974 300.00626L238.90224 300.00626L238.90224 301.225L237.83974 301.225ZM237.83974 308.6L237.83974 302.38126L238.90224 302.38126L238.90224 308.6L237.83974 308.6ZM240.83974 308.6L240.83974 302.38126L241.77724 302.38126L241.77724 303.25626Q242.46474 302.24063 243.76161 302.24063Q244.32411 302.24063 244.79286 302.44376Q245.27724 302.64688 245.51161 302.975Q245.74599 303.30313 245.83974 303.74063Q245.88661 304.0375 245.88661 304.77188L245.88661 308.6L244.83974 308.6L244.83974 304.81876Q244.83974 304.1625 244.71474 303.85Q244.58974 303.5375 244.27724 303.35Q243.96474 303.14688 243.54286 303.14688Q242.87099 303.14688 242.37099 303.58438Q241.88661 304.00626 241.88661 305.19376L241.88661 308.6L240.83974 308.6ZM250.13661 307.6625L250.29286 308.58438Q249.83974 308.67813 249.49599 308.67813Q248.91786 308.67813 248.60536 308.50626Q248.29286 308.31876 248.15224 308.02188Q248.02724 307.725 248.02724 306.77188L248.02724 303.19376L247.26161 303.19376L247.26161 302.38126L248.02724 302.38126L248.02724 300.83438L249.07411 300.20938L249.07411 302.38126L250.13661 302.38126L250.13661 303.19376L249.07411 303.19376L249.07411 306.83438Q249.07411 307.2875 249.12099 307.4125Q249.18349 307.5375 249.30849 307.61563Q249.43349 307.69376 249.66786 307.69376Q249.85536 307.69376 250.13661 307.6625ZM253.54286 306.33438L254.60536 306.19376Q254.77724 307.08438 255.21474 307.49063Q255.65224 307.88126 256.27722 307.88126Q257.02722 307.88126 257.54285 307.36563Q258.05847 306.85 258.05847 306.08438Q258.05847 305.36563 257.5741 304.89688Q257.10535 304.4125 256.37097 304.4125Q256.0741 304.4125 255.62099 304.5375L255.74599 303.6Q255.85536 303.61563 255.91786 303.61563Q256.58972 303.61563 257.12097 303.27188Q257.66785 302.9125 257.66785 302.17813Q257.66785 301.6 257.27722 301.225Q256.8866 300.83438 256.2616 300.83438Q255.65224 300.83438 255.23036 301.225Q254.82411 301.61563 254.71474 302.38126L253.65224 302.19376Q253.83974 301.14688 254.52724 300.56876Q255.21474 299.975 256.23035 299.975Q256.93347 299.975 257.52722 300.2875Q258.12097 300.58438 258.43347 301.1Q258.74597 301.61563 258.74597 302.20938Q258.74597 302.75626 258.4491 303.225Q258.15222 303.67813 257.5741 303.94376Q258.3241 304.11563 258.74597 304.67813Q259.16785 305.225 259.16785 306.06876Q259.16785 307.19376 258.33972 307.975Q257.52722 308.75626 256.27722 308.75626Q255.15224 308.75626 254.40224 308.08438Q253.65224 307.39688 253.54286 306.33438Z" fill-rule="nonzero"/><path fill="#000000" d="M280.04688 305.83438L281.10938 305.74063Q281.1875 306.39688 281.46875 306.80313Q281.75 307.20938 282.32812 307.475Q282.92188 307.725 283.65625 307.725Q284.29688 307.725 284.79688 307.5375Q285.29688 307.33438 285.53125 307.00626Q285.78125 306.6625 285.78125 306.27188Q285.78125 305.86563 285.54688 305.56876Q285.3125 305.25626 284.78125 305.05313Q284.42188 304.9125 283.23438 304.63126Q282.0625 304.35 281.59375 304.1Q280.96875 303.77188 280.67188 303.30313Q280.375 302.81876 280.375 302.225Q280.375 301.58438 280.73438 301.02188Q281.10938 300.44376 281.8125 300.1625Q282.53125 299.86563 283.39062 299.86563Q284.34375 299.86563 285.07812 300.17813Q285.8125 300.475 286.20312 301.08438Q286.59375 301.67813 286.625 302.42813L285.53125 302.50626Q285.4375 301.69376 284.92188 301.2875Q284.42188 300.86563 283.4375 300.86563Q282.40625 300.86563 281.9375 301.24063Q281.46875 301.61563 281.46875 302.14688Q281.46875 302.61563 281.79688 302.9125Q282.125 303.20938 283.5 303.52188Q284.89062 303.83438 285.40625 304.06876Q286.15625 304.42813 286.51562 304.95938Q286.875 305.475 286.875 306.17813Q286.875 306.86563 286.48438 307.475Q286.09375 308.06876 285.35938 308.4125Q284.625 308.74063 283.70312 308.74063Q282.53125 308.74063 281.73438 308.4125Q280.95312 308.06876 280.5 307.38126Q280.0625 306.69376 280.04688 305.83438ZM288.29688 310.99063L288.29688 302.38126L289.25 302.38126L289.25 303.17813Q289.59375 302.70938 290.01562 302.475Q290.45312 302.24063 291.0625 302.24063Q291.85938 302.24063 292.46875 302.64688Q293.07812 303.05313 293.375 303.80313Q293.6875 304.55313 293.6875 305.44376Q293.6875 306.39688 293.34375 307.1625Q293.01562 307.92813 292.35938 308.33438Q291.70312 308.74063 290.98438 308.74063Q290.45312 308.74063 290.03125 308.52188Q289.60938 308.2875 289.34375 307.95938L289.34375 310.99063L288.29688 310.99063ZM289.25 305.52188Q289.25 306.725 289.73438 307.30313Q290.21875 307.86563 290.90625 307.86563Q291.60938 307.86563 292.10938 307.27188Q292.60938 306.67813 292.60938 305.42813Q292.60938 304.24063 292.125 303.6625Q291.64062 303.06876 290.95312 303.06876Q290.28125 303.06876 289.76562 303.69376Q289.25 304.31876 289.25 305.52188ZM295.28125 308.6L295.28125 302.38126L296.23438 302.38126L296.23438 303.31876Q296.59375 302.6625 296.89062 302.45938Q297.20312 302.24063 297.57812 302.24063Q298.10938 302.24063 298.65625 302.56876L298.29688 303.55313Q297.90625 303.31876 297.53125 303.31876Q297.17188 303.31876 296.89062 303.5375Q296.625 303.74063 296.51562 304.11563Q296.32812 304.67813 296.32812 305.33438L296.32812 308.6L295.28125 308.6ZM299.29688 301.225L299.29688 300.00626L300.35938 300.00626L300.35938 301.225L299.29688 301.225ZM299.29688 308.6L299.29688 302.38126L300.35938 302.38126L300.35938 308.6L299.29688 308.6ZM302.29688 308.6L302.29688 302.38126L303.23438 302.38126L303.23438 303.25626Q303.92188 302.24063 305.21875 302.24063Q305.78125 302.24063 306.25 302.44376Q306.73438 302.64688 306.96875 302.975Q307.20312 303.30313 307.29688 303.74063Q307.34375 304.0375 307.34375 304.77188L307.34375 308.6L306.29688 308.6L306.29688 304.81876Q306.29688 304.1625 306.17188 303.85Q306.04688 303.5375 305.73438 303.35Q305.42188 303.14688 305.0 303.14688Q304.32812 303.14688 303.82812 303.58438Q303.34375 304.00626 303.34375 305.19376L303.34375 308.6L302.29688 308.6ZM311.59375 307.6625L311.75 308.58438Q311.29688 308.67813 310.95312 308.67813Q310.375 308.67813 310.0625 308.50626Q309.75 308.31876 309.60938 308.02188Q309.48438 307.725 309.48438 306.77188L309.48438 303.19376L308.71875 303.19376L308.71875 302.38126L309.48438 302.38126L309.48438 300.83438L310.53125 300.20938L310.53125 302.38126L311.59375 302.38126L311.59375 303.19376L310.53125 303.19376L310.53125 306.83438Q310.53125 307.2875 310.57812 307.4125Q310.64062 307.5375 310.76562 307.61563Q310.89062 307.69376 311.125 307.69376Q311.3125 307.69376 311.59375 307.6625ZM318.375 308.6L318.375 306.5375L314.65625 306.5375L314.65625 305.56876L318.57812 300.00626L319.4375 300.00626L319.4375 305.56876L320.59375 305.56876L320.59375 306.5375L319.4375 306.5375L319.4375 308.6L318.375 308.6ZM318.375 305.56876L318.375 301.70938L315.6875 305.56876L318.375 305.56876Z" fill-rule="nonzero"/><path fill="#000000" d="M341.50403 305.83438L342.56653 305.74063Q342.64465 306.39688 342.9259 306.80313Q343.20715 307.20938 343.78528 307.475Q344.37903 307.725 345.1134 307.725Q345.75403 307.725 346.25403 307.5375Q346.75403 307.33438 346.9884 307.00626Q347.2384 306.6625 347.2384 306.27188Q347.2384 305.86563 347.00403 305.56876Q346.76965 305.25626 346.2384 305.05313Q345.87903 304.9125 344.69153 304.63126Q343.51965 304.35 343.0509 304.1Q342.4259 303.77188 342.12903 303.30313Q341.83215 302.81876 341.83215 302.225Q341.83215 301.58438 342.19153 301.02188Q342.56653 300.44376 343.26965 300.1625Q343.9884 299.86563 344.84778 299.86563Q345.8009 299.86563 346.53528 300.17813Q347.26965 300.475 347.66028 301.08438Q348.0509 301.67813 348.08215 302.42813L346.9884 302.50626Q346.89465 301.69376 346.37903 301.2875Q345.87903 300.86563 344.89465 300.86563Q343.8634 300.86563 343.39465 301.24063Q342.9259 301.61563 342.9259 302.14688Q342.9259 302.61563 343.25403 302.9125Q343.58215 303.20938 344.95715 303.52188Q346.34778 303.83438 346.8634 304.06876Q347.6134 304.42813 347.97278 304.95938Q348.33215 305.475 348.33215 306.17813Q348.33215 306.86563 347.94153 307.475Q347.5509 308.06876 346.81653 308.4125Q346.08215 308.74063 345.16028 308.74063Q343.9884 308.74063 343.19153 308.4125Q342.41028 308.06876 341.95715 307.38126Q341.51965 306.69376 341.50403 305.83438ZM349.75403 310.99063L349.75403 302.38126L350.70715 302.38126L350.70715 303.17813Q351.0509 302.70938 351.47278 302.475Q351.91028 302.24063 352.51965 302.24063Q353.31653 302.24063 353.9259 302.64688Q354.53528 303.05313 354.83215 303.80313Q355.14465 304.55313 355.14465 305.44376Q355.14465 306.39688 354.8009 307.1625Q354.47278 307.92813 353.81653 308.33438Q353.16028 308.74063 352.44153 308.74063Q351.91028 308.74063 351.4884 308.52188Q351.06653 308.2875 350.8009 307.95938L350.8009 310.99063L349.75403 310.99063ZM350.70715 305.52188Q350.70715 306.725 351.19153 307.30313Q351.6759 307.86563 352.3634 307.86563Q353.06653 307.86563 353.56653 307.27188Q354.06653 306.67813 354.06653 305.42813Q354.06653 304.24063 353.58215 303.6625Q353.09778 303.06876 352.41028 303.06876Q351.7384 303.06876 351.22278 303.69376Q350.70715 304.31876 350.70715 305.52188ZM356.7384 308.6L356.7384 302.38126L357.69153 302.38126L357.69153 303.31876Q358.0509 302.6625 358.34778 302.45938Q358.66028 302.24063 359.03528 302.24063Q359.56653 302.24063 360.1134 302.56876L359.75403 303.55313Q359.3634 303.31876 358.9884 303.31876Q358.62903 303.31876 358.34778 303.5375Q358.08215 303.74063 357.97278 304.11563Q357.78528 304.67813 357.78528 305.33438L357.78528 308.6L356.7384 308.6ZM360.75403 301.225L360.75403 300.00626L361.81653 300.00626L361.81653 301.225L360.75403 301.225ZM360.75403 308.6L360.75403 302.38126L361.81653 302.38126L361.81653 308.6L360.75403 308.6ZM363.75403 308.6L363.75403 302.38126L364.69153 302.38126L364.69153 303.25626Q365.37903 302.24063 366.6759 302.24063Q367.2384 302.24063 367.70715 302.44376Q368.19153 302.64688 368.4259 302.975Q368.66028 303.30313 368.75403 303.74063Q368.8009 304.0375 368.8009 304.77188L368.8009 308.6L367.75403 308.6L367.75403 304.81876Q367.75403 304.1625 367.62903 303.85Q367.50403 303.5375 367.19153 303.35Q366.87903 303.14688 366.45715 303.14688Q365.78528 303.14688 365.28528 303.58438Q364.8009 304.00626 364.8009 305.19376L364.8009 308.6L363.75403 308.6ZM373.0509 307.6625L373.20715 308.58438Q372.75403 308.67813 372.41028 308.67813Q371.83215 308.67813 371.51965 308.50626Q371.20715 308.31876 371.06653 308.02188Q370.94153 307.725 370.94153 306.77188L370.94153 303.19376L370.1759 303.19376L370.1759 302.38126L370.94153 302.38126L370.94153 300.83438L371.9884 300.20938L371.9884 302.38126L373.0509 302.38126L373.0509 303.19376L371.9884 303.19376L371.9884 306.83438Q371.9884 307.2875 372.03528 307.4125Q372.09778 307.5375 372.22278 307.61563Q372.34778 307.69376 372.58215 307.69376Q372.76965 307.69376 373.0509 307.6625ZM376.45715 306.35L377.56653 306.25626Q377.69153 307.06876 378.12903 307.475Q378.58215 307.88126 379.22278 307.88126Q379.97278 307.88126 380.50403 307.30313Q381.03528 306.725 381.03528 305.7875Q381.03528 304.88126 380.51965 304.36563Q380.01965 303.83438 379.19153 303.83438Q378.69153 303.83438 378.26965 304.06876Q377.8634 304.30313 377.62903 304.6625L376.64465 304.5375L377.47278 300.13126L381.75403 300.13126L381.75403 301.13126L378.31653 301.13126L377.8634 303.44376Q378.62903 302.89688 379.47278 302.89688Q380.59778 302.89688 381.3634 303.67813Q382.14465 304.45938 382.14465 305.69376Q382.14465 306.85 381.47278 307.70938Q380.64465 308.74063 379.22278 308.74063Q378.0509 308.74063 377.3009 308.08438Q376.56653 307.42813 376.45715 306.35Z" fill-rule="nonzero"/><path fill="#000000" d="M402.96115 305.83438L404.02365 305.74063Q404.10178 306.39688 404.38303 306.80313Q404.66428 307.20938 405.2424 307.475Q405.83615 307.725 406.57053 307.725Q407.21115 307.725 407.71115 307.5375Q408.21115 307.33438 408.44553 307.00626Q408.69553 306.6625 408.69553 306.27188Q408.69553 305.86563 408.46115 305.56876Q408.22678 305.25626 407.69553 305.05313Q407.33615 304.9125 406.14865 304.63126Q404.97678 304.35 404.50803 304.1Q403.88303 303.77188 403.58615 303.30313Q403.28928 302.81876 403.28928 302.225Q403.28928 301.58438 403.64865 301.02188Q404.02365 300.44376 404.72678 300.1625Q405.44553 299.86563 406.3049 299.86563Q407.25803 299.86563 407.9924 300.17813Q408.72678 300.475 409.1174 301.08438Q409.50803 301.67813 409.53928 302.42813L408.44553 302.50626Q408.35178 301.69376 407.83615 301.2875Q407.33615 300.86563 406.35178 300.86563Q405.32053 300.86563 404.85178 301.24063Q404.38303 301.61563 404.38303 302.14688Q404.38303 302.61563 404.71115 302.9125Q405.03928 303.20938 406.41428 303.52188Q407.8049 303.83438 408.32053 304.06876Q409.07053 304.42813 409.4299 304.95938Q409.78928 305.475 409.78928 306.17813Q409.78928 306.86563 409.39865 307.475Q409.00803 308.06876 408.27365 308.4125Q407.53928 308.74063 406.6174 308.74063Q405.44553 308.74063 404.64865 308.4125Q403.8674 308.06876 403.41428 307.38126Q402.97678 306.69376 402.96115 305.83438ZM411.21115 310.99063L411.21115 302.38126L412.16428 302.38126L412.16428 303.17813Q412.50803 302.70938 412.9299 302.475Q413.3674 302.24063 413.97678 302.24063Q414.77365 302.24063 415.38303 302.64688Q415.9924 303.05313 416.28928 303.80313Q416.60178 304.55313 416.60178 305.44376Q416.60178 306.39688 416.25803 307.1625Q415.9299 307.92813 415.27365 308.33438Q414.6174 308.74063 413.89865 308.74063Q413.3674 308.74063 412.94553 308.52188Q412.52365 308.2875 412.25803 307.95938L412.25803 310.99063L411.21115 310.99063ZM412.16428 305.52188Q412.16428 306.725 412.64865 307.30313Q413.13303 307.86563 413.82053 307.86563Q414.52365 307.86563 415.02365 307.27188Q415.52365 306.67813 415.52365 305.42813Q415.52365 304.24063 415.03928 303.6625Q414.5549 303.06876 413.8674 303.06876Q413.19553 303.06876 412.6799 303.69376Q412.16428 304.31876 412.16428 305.52188ZM418.19553 308.6L418.19553 302.38126L419.14865 302.38126L419.14865 303.31876Q419.50803 302.6625 419.8049 302.45938Q420.1174 302.24063 420.4924 302.24063Q421.02365 302.24063 421.57053 302.56876L421.21115 303.55313Q420.82053 303.31876 420.44553 303.31876Q420.08615 303.31876 419.8049 303.5375Q419.53928 303.74063 419.4299 304.11563Q419.2424 304.67813 419.2424 305.33438L419.2424 308.6L418.19553 308.6ZM422.21115 301.225L422.21115 300.00626L423.27365 300.00626L423.27365 301.225L422.21115 301.225ZM422.21115 308.6L422.21115 302.38126L423.27365 302.38126L423.27365 308.6L422.21115 308.6ZM425.21115 308.6L425.21115 302.38126L426.14865 302.38126L426.14865 303.25626Q426.83615 302.24063 428.13303 302.24063Q428.69553 302.24063 429.16428 302.44376Q429.64865 302.64688 429.88303 302.975Q430.1174 303.30313 430.21115 303.74063Q430.25803 304.0375 430.25803 304.77188L430.25803 308.6L429.21115 308.6L429.21115 304.81876Q429.21115 304.1625 429.08615 303.85Q428.96115 303.5375 428.64865 303.35Q428.33615 303.14688 427.91428 303.14688Q427.2424 303.14688 426.7424 303.58438Q426.25803 304.00626 426.25803 305.19376L426.25803 308.6L425.21115 308.6ZM434.50803 307.6625L434.66428 308.58438Q434.21115 308.67813 433.8674 308.67813Q433.28928 308.67813 432.97678 308.50626Q432.66428 308.31876 432.52365 308.02188Q432.39865 307.725 432.39865 306.77188L432.39865 303.19376L431.63303 303.19376L431.63303 302.38126L432.39865 302.38126L432.39865 300.83438L433.44553 300.20938L433.44553 302.38126L434.50803 302.38126L434.50803 303.19376L433.44553 303.19376L433.44553 306.83438Q433.44553 307.2875 433.4924 307.4125Q433.5549 307.5375 433.6799 307.61563Q433.8049 307.69376 434.03928 307.69376Q434.22678 307.69376 434.50803 307.6625ZM443.38303 302.11563L442.33615 302.19376Q442.19553 301.56876 441.94553 301.2875Q441.50803 300.83438 440.88303 300.83438Q440.38303 300.83438 439.9924 301.11563Q439.50803 301.49063 439.21115 302.19376Q438.9299 302.88126 438.91428 304.1625Q439.28928 303.58438 439.83615 303.30313Q440.39865 303.02188 441.00803 303.02188Q442.0549 303.02188 442.78928 303.80313Q443.53928 304.58438 443.53928 305.80313Q443.53928 306.61563 443.1799 307.31876Q442.83615 308.00626 442.22678 308.38126Q441.6174 308.74063 440.85178 308.74063Q439.52365 308.74063 438.69553 307.77188Q437.8674 306.80313 437.8674 304.58438Q437.8674 302.08438 438.78928 300.95938Q439.58615 299.975 440.94553 299.975Q441.96115 299.975 442.60178 300.55313Q443.25803 301.11563 443.38303 302.11563ZM439.08615 305.81876Q439.08615 306.36563 439.3049 306.86563Q439.53928 307.35 439.94553 307.61563Q440.3674 307.88126 440.83615 307.88126Q441.4924 307.88126 441.97678 307.35Q442.46115 306.80313 442.46115 305.88126Q442.46115 304.99063 441.97678 304.475Q441.50803 303.95938 440.78928 303.95938Q440.07053 303.95938 439.57053 304.475Q439.08615 304.99063 439.08615 305.81876Z" fill-rule="nonzero"/><path fill="#000000" d="M464.4183 305.83438L465.4808 305.74063Q465.55893 306.39688 465.84018 306.80313Q466.12143 307.20938 466.69955 307.475Q467.2933 307.725 468.02768 307.725Q468.6683 307.725 469.1683 307.5375Q469.6683 307.33438 469.90268 307.00626Q470.15268 306.6625 470.15268 306.27188Q470.15268 305.86563 469.9183 305.56876Q469.68393 305.25626 469.15268 305.05313Q468.7933 304.9125 467.6058 304.63126Q466.43393 304.35 465.96518 304.1Q465.34018 303.77188 465.0433 303.30313Q464.74643 302.81876 464.74643 302.225Q464.74643 301.58438 465.1058 301.02188Q465.4808 300.44376 466.18393 300.1625Q466.90268 299.86563 467.76205 299.86563Q468.71518 299.86563 469.44955 300.17813Q470.18393 300.475 470.57455 301.08438Q470.96518 301.67813 470.99643 302.42813L469.90268 302.50626Q469.80893 301.69376 469.2933 301.2875Q468.7933 300.86563 467.80893 300.86563Q466.77768 300.86563 466.30893 301.24063Q465.84018 301.61563 465.84018 302.14688Q465.84018 302.61563 466.1683 302.9125Q466.49643 303.20938 467.87143 303.52188Q469.26205 303.83438 469.77768 304.06876Q470.52768 304.42813 470.88705 304.95938Q471.24643 305.475 471.24643 306.17813Q471.24643 306.86563 470.8558 307.475Q470.46518 308.06876 469.7308 308.4125Q468.99643 308.74063 468.07455 308.74063Q466.90268 308.74063 466.1058 308.4125Q465.32455 308.06876 464.87143 307.38126Q464.43393 306.69376 464.4183 305.83438ZM472.6683 310.99063L472.6683 302.38126L473.62143 302.38126L473.62143 303.17813Q473.96518 302.70938 474.38705 302.475Q474.82455 302.24063 475.43393 302.24063Q476.2308 302.24063 476.84018 302.64688Q477.44955 303.05313 477.74643 303.80313Q478.05893 304.55313 478.05893 305.44376Q478.05893 306.39688 477.71518 307.1625Q477.38705 307.92813 476.7308 308.33438Q476.07455 308.74063 475.3558 308.74063Q474.82455 308.74063 474.40268 308.52188Q473.9808 308.2875 473.71518 307.95938L473.71518 310.99063L472.6683 310.99063ZM473.62143 305.52188Q473.62143 306.725 474.1058 307.30313Q474.59018 307.86563 475.27768 307.86563Q475.9808 307.86563 476.4808 307.27188Q476.9808 306.67813 476.9808 305.42813Q476.9808 304.24063 476.49643 303.6625Q476.01205 303.06876 475.32455 303.06876Q474.65268 303.06876 474.13705 303.69376Q473.62143 304.31876 473.62143 305.52188ZM479.65268 308.6L479.65268 302.38126L480.6058 302.38126L480.6058 303.31876Q480.96518 302.6625 481.26205 302.45938Q481.57455 302.24063 481.94955 302.24063Q482.4808 302.24063 483.02768 302.56876L482.6683 303.55313Q482.27768 303.31876 481.90268 303.31876Q481.5433 303.31876 481.26205 303.5375Q480.99643 303.74063 480.88705 304.11563Q480.69955 304.67813 480.69955 305.33438L480.69955 308.6L479.65268 308.6ZM483.6683 301.225L483.6683 300.00626L484.7308 300.00626L484.7308 301.225L483.6683 301.225ZM483.6683 308.6L483.6683 302.38126L484.7308 302.38126L484.7308 308.6L483.6683 308.6ZM486.6683 308.6L486.6683 302.38126L487.6058 302.38126L487.6058 303.25626Q488.2933 302.24063 489.59018 302.24063Q490.15268 302.24063 490.62143 302.44376Q491.1058 302.64688 491.34018 302.975Q491.57455 303.30313 491.6683 303.74063Q491.71518 304.0375 491.71518 304.77188L491.71518 308.6L490.6683 308.6L490.6683 304.81876Q490.6683 304.1625 490.5433 303.85Q490.4183 303.5375 490.1058 303.35Q489.7933 303.14688 489.37143 303.14688Q488.69955 303.14688 488.19955 303.58438Q487.71518 304.00626 487.71518 305.19376L487.71518 308.6L486.6683 308.6ZM495.96518 307.6625L496.12143 308.58438Q495.6683 308.67813 495.32455 308.67813Q494.74643 308.67813 494.43393 308.50626Q494.12143 308.31876 493.9808 308.02188Q493.8558 307.725 493.8558 306.77188L493.8558 303.19376L493.09018 303.19376L493.09018 302.38126L493.8558 302.38126L493.8558 300.83438L494.90268 300.20938L494.90268 302.38126L495.96518 302.38126L495.96518 303.19376L494.90268 303.19376L494.90268 306.83438Q494.90268 307.2875 494.94955 307.4125Q495.01205 307.5375 495.13705 307.61563Q495.26205 307.69376 495.49643 307.69376Q495.68393 307.69376 495.96518 307.6625ZM499.43393 301.13126L499.43393 300.11563L504.99643 300.11563L504.99643 300.94376Q504.18393 301.81876 503.37143 303.27188Q502.57455 304.70938 502.13705 306.24063Q501.80893 307.31876 501.7308 308.6L500.63705 308.6Q500.65268 307.58438 501.02768 306.14688Q501.4183 304.70938 502.12143 303.38126Q502.84018 302.05313 503.65268 301.13126L499.43393 301.13126Z" fill-rule="nonzero"/><path fill="#4285f4" d="M144.5 23.4C144.5 26.713709 141.8137 29.4 138.5 29.4C135.1863 29.4 132.5 26.713709 132.5 23.4C132.5 20.086292 135.1863 17.4 138.5 17.4C141.8137 17.4 144.5 20.086292 144.5 23.4Z" fill-rule="nonzero"/><path fill="#1a1a1a" d="M159.5625 24.384375L160.6875 24.68125Q160.32812 26.071875 159.40625 26.80625Q158.48438 27.540625 157.14062 27.540625Q155.75 27.540625 154.875 26.978125Q154.0 26.415625 153.54688 25.353125Q153.09375 24.275 153.09375 23.040625Q153.09375 21.696875 153.60938 20.696875Q154.125 19.696875 155.0625 19.18125Q156.01562 18.665625 157.15625 18.665625Q158.4375 18.665625 159.3125 19.321875Q160.20312 19.978125 160.54688 21.165625L159.42188 21.43125Q159.125 20.49375 158.54688 20.071875Q157.98438 19.634375 157.125 19.634375Q156.14062 19.634375 155.46875 20.11875Q154.8125 20.5875 154.53125 21.384375Q154.26562 22.18125 154.26562 23.040625Q154.26562 24.134375 154.57812 24.946875Q154.90625 25.759375 155.57812 26.165625Q156.25 26.571875 157.04688 26.571875Q158.0 26.571875 158.65625 26.025Q159.32812 25.478125 159.5625 24.384375ZM164.875 27.4L161.54688 18.80625L162.78125 18.80625L165.01562 25.05625Q165.28125 25.80625 165.46875 26.4625Q165.67188 25.759375 165.9375 25.05625L168.25 18.80625L169.40625 18.80625L166.04688 27.4L164.875 27.4Z" fill-rule="nonzero"/><path fill="#ea4335" d="M196.5 23.4C196.5 26.713709 193.8137 29.4 190.5 29.4C187.1863 29.4 184.5 26.713709 184.5 23.4C184.5 20.086292 187.1863 17.4 190.5 17.4C193.8137 17.4 196.5 20.086292 196.5 23.4Z" fill-rule="nonzero"/><path fill="#1a1a1a" d="M205.04688 24.634375L206.10938 24.540625Q206.1875 25.196875 206.46875 25.603125Q206.75 26.009375 207.32812 26.275Q207.92188 26.525 208.65625 26.525Q209.29688 26.525 209.79688 26.3375Q210.29688 26.134375 210.53125 25.80625Q210.78125 25.4625 210.78125 25.071875Q210.78125 24.665625 210.54688 24.36875Q210.3125 24.05625 209.78125 23.853125Q209.42188 23.7125 208.23438 23.43125Q207.0625 23.15 206.59375 22.9Q205.96875 22.571875 205.67188 22.103125Q205.375 21.61875 205.375 21.025Q205.375 20.384375 205.73438 19.821875Q206.10938 19.24375 206.8125 18.9625Q207.53125 18.665625 208.39062 18.665625Q209.34375 18.665625 210.07812 18.978125Q210.8125 19.275 211.20312 19.884375Q211.59375 20.478125 211.625 21.228125L210.53125 21.30625Q210.4375 20.49375 209.92188 20.0875Q209.42188 19.665625 208.4375 19.665625Q207.40625 19.665625 206.9375 20.040625Q206.46875 20.415625 206.46875 20.946875Q206.46875 21.415625 206.79688 21.7125Q207.125 22.009375 208.5 22.321875Q209.89062 22.634375 210.40625 22.86875Q211.15625 23.228125 211.51562 23.759375Q211.875 24.275 211.875 24.978125Q211.875 25.665625 211.48438 26.275Q211.09375 26.86875 210.35938 27.2125Q209.625 27.540625 208.70312 27.540625Q207.53125 27.540625 206.73438 27.2125Q205.95312 26.86875 205.5 26.18125Q205.0625 25.49375 205.04688 24.634375ZM215.875 27.4L212.54688 18.80625L213.78125 18.80625L216.01562 25.05625Q216.28125 25.80625 216.46875 26.4625Q216.67188 25.759375 216.9375 25.05625L219.25 18.80625L220.40625 18.80625L217.04688 27.4L215.875 27.4Z" fill-rule="nonzero"/><path fill="#fbbc04" fill-opacity="0.7019608" d="M247.5 23.4C247.5 26.713709 244.8137 29.4 241.5 29.4C238.1863 29.4 235.5 26.713709 235.5 23.4C235.5 20.086292 238.1863 17.4 241.5 17.4C244.8137 17.4 247.5 20.086292 247.5 23.4Z" fill-rule="nonzero"/><path fill="#1a1a1a" d="M256.375 27.4L256.375 18.80625L257.51562 18.80625L257.51562 26.384375L261.75 26.384375L261.75 27.4L256.375 27.4ZM263.29688 20.025L263.29688 18.80625L264.35938 18.80625L264.35938 20.025L263.29688 20.025ZM263.29688 27.4L263.29688 21.18125L264.35938 21.18125L264.35938 27.4L263.29688 27.4ZM266.29688 27.4L266.29688 21.18125L267.23438 21.18125L267.23438 22.05625Q267.53125 21.5875 268.01562 21.321875Q268.5 21.040625 269.125 21.040625Q269.8125 21.040625 270.25 21.321875Q270.70312 21.603125 270.875 22.11875Q271.625 21.040625 272.79688 21.040625Q273.73438 21.040625 274.21875 21.55625Q274.71875 22.05625 274.71875 23.134375L274.71875 27.4L273.67188 27.4L273.67188 23.478125Q273.67188 22.853125 273.5625 22.571875Q273.46875 22.290625 273.20312 22.11875Q272.9375 21.946875 272.5625 21.946875Q271.90625 21.946875 271.46875 22.384375Q271.04688 22.821875 271.04688 23.790625L271.04688 27.4L269.98438 27.4L269.98438 23.353125Q269.98438 22.65 269.71875 22.30625Q269.46875 21.946875 268.89062 21.946875Q268.4375 21.946875 268.0625 22.18125Q267.6875 22.415625 267.51562 22.86875Q267.34375 23.321875 267.34375 24.165625L267.34375 27.4L266.29688 27.4ZM277.29688 20.025L277.29688 18.80625L278.35938 18.80625L278.35938 20.025L277.29688 20.025ZM277.29688 27.4L277.29688 21.18125L278.35938 21.18125L278.35938 27.4L277.29688 27.4ZM282.59375 26.4625L282.75 27.384375Q282.29688 27.478125 281.95312 27.478125Q281.375 27.478125 281.0625 27.30625Q280.75 27.11875 280.60938 26.821875Q280.48438 26.525 280.48438 25.571875L280.48438 21.99375L279.71875 21.99375L279.71875 21.18125L280.48438 21.18125L280.48438 19.634375L281.53125 19.009375L281.53125 21.18125L282.59375 21.18125L282.59375 21.99375L281.53125 21.99375L281.53125 25.634375Q281.53125 26.0875 281.57812 26.2125Q281.64062 26.3375 281.76562 26.415625Q281.89062 26.49375 282.125 26.49375Q282.3125 26.49375 282.59375 26.4625ZM287.54688 25.4L288.64062 25.525Q288.39062 26.478125 287.6875 27.009375Q286.98438 27.540625 285.90625 27.540625Q284.54688 27.540625 283.73438 26.696875Q282.9375 25.853125 282.9375 24.3375Q282.9375 22.775 283.75 21.915625Q284.5625 21.040625 285.84375 21.040625Q287.09375 21.040625 287.875 21.884375Q288.67188 22.728125 288.67188 24.275Q288.67188 24.36875 288.67188 24.55625L284.03125 24.55625Q284.09375 25.5875 284.60938 26.134375Q285.125 26.665625 285.90625 26.665625Q286.48438 26.665625 286.89062 26.36875Q287.3125 26.05625 287.54688 25.4ZM284.09375 23.696875L287.5625 23.696875Q287.5 22.9 287.17188 22.509375Q286.65625 21.9 285.85938 21.9Q285.125 21.9 284.625 22.384375Q284.14062 22.86875 284.09375 23.696875ZM292.875 25.540625L293.90625 25.384375Q294.0 26.009375 294.39062 26.3375Q294.79688 26.665625 295.53125 26.665625Q296.25 26.665625 296.59375 26.384375Q296.95312 26.0875 296.95312 25.68125Q296.95312 25.321875 296.64062 25.11875Q296.42188 24.978125 295.5625 24.759375Q294.40625 24.4625 293.95312 24.259375Q293.51562 24.040625 293.28125 23.665625Q293.04688 23.290625 293.04688 22.821875Q293.04688 22.415625 293.23438 22.05625Q293.42188 21.696875 293.75 21.4625Q294.0 21.290625 294.42188 21.165625Q294.84375 21.040625 295.34375 21.040625Q296.0625 21.040625 296.60938 21.259375Q297.17188 21.4625 297.4375 21.821875Q297.70312 22.18125 297.79688 22.775L296.76562 22.915625Q296.70312 22.446875 296.35938 22.18125Q296.03125 21.9 295.40625 21.9Q294.6875 21.9 294.375 22.15Q294.0625 22.384375 294.0625 22.7125Q294.0625 22.915625 294.1875 23.071875Q294.32812 23.24375 294.59375 23.353125Q294.75 23.415625 295.53125 23.61875Q296.65625 23.93125 297.09375 24.11875Q297.53125 24.30625 297.78125 24.665625Q298.03125 25.025 298.03125 25.571875Q298.03125 26.103125 297.71875 26.571875Q297.42188 27.025 296.84375 27.290625Q296.26562 27.540625 295.53125 27.540625Q294.3125 27.540625 293.67188 27.040625Q293.04688 26.525 292.875 25.540625ZM304.375 27.4L304.375 26.478125Q303.64062 27.540625 302.39062 27.540625Q301.84375 27.540625 301.35938 27.3375Q300.89062 27.11875 300.65625 26.80625Q300.42188 26.478125 300.32812 26.009375Q300.26562 25.7125 300.26562 25.025L300.26562 21.18125L301.32812 21.18125L301.32812 24.634375Q301.32812 25.446875 301.39062 25.74375Q301.48438 26.15 301.79688 26.4Q302.125 26.634375 302.60938 26.634375Q303.07812 26.634375 303.48438 26.4Q303.90625 26.15 304.07812 25.728125Q304.26562 25.30625 304.26562 24.509375L304.26562 21.18125L305.3125 21.18125L305.3125 27.4L304.375 27.4ZM307.29688 29.790625L307.29688 21.18125L308.25 21.18125L308.25 21.978125Q308.59375 21.509375 309.01562 21.275Q309.45312 21.040625 310.0625 21.040625Q310.85938 21.040625 311.46875 21.446875Q312.07812 21.853125 312.375 22.603125Q312.6875 23.353125 312.6875 24.24375Q312.6875 25.196875 312.34375 25.9625Q312.01562 26.728125 311.35938 27.134375Q310.70312 27.540625 309.98438 27.540625Q309.45312 27.540625 309.03125 27.321875Q308.60938 27.0875 308.34375 26.759375L308.34375 29.790625L307.29688 29.790625ZM308.25 24.321875Q308.25 25.525 308.73438 26.103125Q309.21875 26.665625 309.90625 26.665625Q310.60938 26.665625 311.10938 26.071875Q311.60938 25.478125 311.60938 24.228125Q311.60938 23.040625 311.125 22.4625Q310.64062 21.86875 309.95312 21.86875Q309.28125 21.86875 308.76562 22.49375Q308.25 23.11875 308.25 24.321875Z" fill-rule="nonzero"/><path fill="#34a853" d="M341.5 23.4C341.5 26.713709 338.81372 29.4 335.5 29.4C332.18628 29.4 329.5 26.713709 329.5 23.4C329.5 20.086292 332.18628 17.4 335.5 17.4C338.81372 17.4 341.5 20.086292 341.5 23.4Z" fill-rule="nonzero"/><path fill="#1a1a1a" d="M350.375 27.4L350.375 18.80625L351.51562 18.80625L351.51562 26.384375L355.75 26.384375L355.75 27.4L350.375 27.4ZM357.29688 20.025L357.29688 18.80625L358.35938 18.80625L358.35938 20.025L357.29688 20.025ZM357.29688 27.4L357.29688 21.18125L358.35938 21.18125L358.35938 27.4L357.29688 27.4ZM360.29688 27.4L360.29688 21.18125L361.23438 21.18125L361.23438 22.05625Q361.53125 21.5875 362.01562 21.321875Q362.5 21.040625 363.125 21.040625Q363.8125 21.040625 364.25 21.321875Q364.70312 21.603125 364.875 22.11875Q365.625 21.040625 366.79688 21.040625Q367.73438 21.040625 368.21875 21.55625Q368.71875 22.05625 368.71875 23.134375L368.71875 27.4L367.67188 27.4L367.67188 23.478125Q367.67188 22.853125 367.5625 22.571875Q367.46875 22.290625 367.20312 22.11875Q366.9375 21.946875 366.5625 21.946875Q365.90625 21.946875 365.46875 22.384375Q365.04688 22.821875 365.04688 23.790625L365.04688 27.4L363.98438 27.4L363.98438 23.353125Q363.98438 22.65 363.71875 22.30625Q363.46875 21.946875 362.89062 21.946875Q362.4375 21.946875 362.0625 22.18125Q361.6875 22.415625 361.51562 22.86875Q361.34375 23.321875 361.34375 24.165625L361.34375 27.4L360.29688 27.4ZM371.29688 20.025L371.29688 18.80625L372.35938 18.80625L372.35938 20.025L371.29688 20.025ZM371.29688 27.4L371.29688 21.18125L372.35938 21.18125L372.35938 27.4L371.29688 27.4ZM376.59375 26.4625L376.75 27.384375Q376.29688 27.478125 375.95312 27.478125Q375.375 27.478125 375.0625 27.30625Q374.75 27.11875 374.60938 26.821875Q374.48438 26.525 374.48438 25.571875L374.48438 21.99375L373.71875 21.99375L373.71875 21.18125L374.48438 21.18125L374.48438 19.634375L375.53125 19.009375L375.53125 21.18125L376.59375 21.18125L376.59375 21.99375L375.53125 21.99375L375.53125 25.634375Q375.53125 26.0875 375.57812 26.2125Q375.64062 26.3375 375.76562 26.415625Q375.89062 26.49375 376.125 26.49375Q376.3125 26.49375 376.59375 26.4625ZM381.54688 25.4L382.64062 25.525Q382.39062 26.478125 381.6875 27.009375Q380.98438 27.540625 379.90625 27.540625Q378.54688 27.540625 377.73438 26.696875Q376.9375 25.853125 376.9375 24.3375Q376.9375 22.775 377.75 21.915625Q378.5625 21.040625 379.84375 21.040625Q381.09375 21.040625 381.875 21.884375Q382.67188 22.728125 382.67188 24.275Q382.67188 24.36875 382.67188 24.55625L378.03125 24.55625Q378.09375 25.5875 378.60938 26.134375Q379.125 26.665625 379.90625 26.665625Q380.48438 26.665625 380.89062 26.36875Q381.3125 26.05625 381.54688 25.4ZM378.09375 23.696875L381.5625 23.696875Q381.5 22.9 381.17188 22.509375Q380.65625 21.9 379.85938 21.9Q379.125 21.9 378.625 22.384375Q378.14062 22.86875 378.09375 23.696875ZM387.29688 20.025L387.29688 18.80625L388.35938 18.80625L388.35938 20.025L387.29688 20.025ZM387.29688 27.4L387.29688 21.18125L388.35938 21.18125L388.35938 27.4L387.29688 27.4ZM390.29688 27.4L390.29688 21.18125L391.23438 21.18125L391.23438 22.05625Q391.92188 21.040625 393.21875 21.040625Q393.78125 21.040625 394.25 21.24375Q394.73438 21.446875 394.96875 21.775Q395.20312 22.103125 395.29688 22.540625Q395.34375 22.8375 395.34375 23.571875L395.34375 27.4L394.29688 27.4L394.29688 23.61875Q394.29688 22.9625 394.17188 22.65Q394.04688 22.3375 393.73438 22.15Q393.42188 21.946875 393.0 21.946875Q392.32812 21.946875 391.82812 22.384375Q391.34375 22.80625 391.34375 23.99375L391.34375 27.4L390.29688 27.4ZM397.54688 27.4L397.54688 21.99375L396.60938 21.99375L396.60938 21.18125L397.54688 21.18125L397.54688 20.509375Q397.54688 19.884375 397.65625 19.5875Q397.8125 19.165625 398.1875 18.915625Q398.57812 18.665625 399.26562 18.665625Q399.71875 18.665625 400.25 18.775L400.09375 19.68125Q399.76562 19.634375 399.46875 19.634375Q398.98438 19.634375 398.78125 19.8375Q398.59375 20.040625 398.59375 20.603125L398.59375 21.18125L399.8125 21.18125L399.8125 21.99375L398.59375 21.99375L398.59375 27.4L397.54688 27.4Z" fill-rule="nonzero"/></svg>