<svg version="1.1" viewBox="0.0 0.0 532.0 328.0" fill="none" stroke="none" stroke-linecap="square" stroke-miterlimit="10" width="532" height="328" xmlns:xlink="http://www.w3.org/1999/xlink" xmlns="http://www.w3.org/2000/svg"><path fill="#ffffff" d="M0 0L532.0 0L532.0 328.0L0 328.0L0 0Z" fill-rule="nonzero"/><path stroke="#cccccc" stroke-width="1.0" stroke-linecap="butt" d="M85.5 285.5L515.5 285.5" fill-rule="nonzero"/><path stroke="#cccccc" stroke-width="1.0" stroke-linecap="butt" d="M85.5 255.5L515.5 255.5" fill-rule="nonzero"/><path stroke="#cccccc" stroke-width="1.0" stroke-linecap="butt" d="M85.5 226.5L515.5 226.5" fill-rule="nonzero"/><path stroke="#cccccc" stroke-width="1.0" stroke-linecap="butt" d="M85.5 196.5L515.5 196.5" fill-rule="nonzero"/><path stroke="#333333" stroke-width="1.0" stroke-linecap="butt" d="M85.5 166.5L515.5 166.5" fill-rule="nonzero"/><path stroke="#cccccc" stroke-width="1.0" stroke-linecap="butt" d="M85.5 137.5L515.5 137.5" fill-rule="nonzero"/><path stroke="#cccccc" stroke-width="1.0" stroke-linecap="butt" d="M85.5 107.5L515.5 107.5" fill-rule="nonzero"/><path stroke="#cccccc" stroke-width="1.0" stroke-linecap="butt" d="M85.5 77.5L515.5 77.5" fill-rule="nonzero"/><path stroke="#cccccc" stroke-width="1.0" stroke-linecap="butt" d="M85.5 48.5L515.5 48.5" fill-rule="nonzero"/><path stroke="#000000" stroke-width="1.0" stroke-linecap="butt" stroke-opacity="0.0" d="M85.5 275.5L515.5 275.5" fill-rule="nonzero"/><path stroke="#000000" stroke-width="1.0" stroke-linecap="butt" stroke-opacity="0.0" d="M85.5 265.5L515.5 265.5" fill-rule="nonzero"/><path stroke="#000000" stroke-width="1.0" stroke-linecap="butt" stroke-opacity="0.0" d="M85.5 246.5L515.5 246.5" fill-rule="nonzero"/><path stroke="#000000" stroke-width="1.0" stroke-linecap="butt" stroke-opacity="0.0" d="M85.5 236.5L515.5 236.5" fill-rule="nonzero"/><path stroke="#000000" stroke-width="1.0" stroke-linecap="butt" stroke-opacity="0.0" d="M85.5 216.5L515.5 216.5" fill-rule="nonzero"/><path stroke="#000000" stroke-width="1.0" stroke-linecap="butt" stroke-opacity="0.0" d="M85.5 206.5L515.5 206.5" fill-rule="nonzero"/><path stroke="#000000" stroke-width="1.0" stroke-linecap="butt" stroke-opacity="0.0" d="M85.5 186.5L515.5 186.5" fill-rule="nonzero"/><path stroke="#000000" stroke-width="1.0" stroke-linecap="butt" stroke-opacity="0.0" d="M85.5 176.5L515.5 176.5" fill-rule="nonzero"/><path stroke="#000000" stroke-width="1.0" stroke-linecap="butt" stroke-opacity="0.0" d="M85.5 157.5L515.5 157.5" fill-rule="nonzero"/><path stroke="#000000" stroke-width="1.0" stroke-linecap="butt" stroke-opacity="0.0" d="M85.5 147.5L515.5 147.5" fill-rule="nonzero"/><path stroke="#000000" stroke-width="1.0" stroke-linecap="butt" stroke-opacity="0.0" d="M85.5 127.5L515.5 127.5" fill-rule="nonzero"/><path stroke="#000000" stroke-width="1.0" stroke-linecap="butt" stroke-opacity="0.0" d="M85.5 117.5L515.5 117.5" fill-rule="nonzero"/><path stroke="#000000" stroke-width="1.0" stroke-linecap="butt" stroke-opacity="0.0" d="M85.5 97.5L515.5 97.5" fill-rule="nonzero"/><path stroke="#000000" stroke-width="1.0" stroke-linecap="butt" stroke-opacity="0.0" d="M85.5 87.5L515.5 87.5" fill-rule="nonzero"/><path stroke="#000000" stroke-width="1.0" stroke-linecap="butt" stroke-opacity="0.0" d="M85.5 68.5L515.5 68.5" fill-rule="nonzero"/><path stroke="#000000" stroke-width="1.0" stroke-linecap="butt" stroke-opacity="0.0" d="M85.5 58.5L515.5 58.5" fill-rule="nonzero"/><path stroke="#000000" stroke-width="1.0" stroke-linecap="butt" d="M515.5 285.5L85.5 285.5" fill-rule="nonzero"/><path stroke="#000000" stroke-width="1.0" stroke-linecap="butt" d="M85.5 285.5L85.5 48.5" fill-rule="nonzero"/><clipPath id="id_0"><path d="M85.4 48.333332L515.6 48.333332L515.6 285.6L85.4 285.6L85.4 48.333332Z" clip-rule="nonzero"/></clipPath><path stroke="#4285f4" stroke-width="2.0" stroke-linecap="butt" clip-path="url(#id_0)" d="M128.42 176.43005C128.42 176.43005 185.78 181.5932 214.46 182.3099C243.14 183.02661 271.82 180.63893 300.5 180.73027C329.18 180.82161 357.86 182.29973 386.54 182.85794C415.22 183.41614 472.58 184.0795 472.58 184.0795" fill-rule="nonzero"/><path stroke="#ea4335" stroke-width="2.0" stroke-linecap="butt" clip-path="url(#id_0)" d="M128.42 168.45706C128.42 168.45706 185.78 173.42506 214.46 174.41867C243.14 175.41226 271.82 174.41867 300.5 174.41867C329.18 174.41867 357.86 174.41867 386.54 174.41867C415.22 174.41867 472.58 174.41867 472.58 174.41867" fill-rule="nonzero"/><path stroke="#fbbc04" stroke-width="2.0" stroke-linecap="butt" stroke-opacity="0.7019608" clip-path="url(#id_0)" d="M128.42 70.984886C128.42 70.984886 185.78 70.984886 214.46 70.984886C243.14 70.984886 271.82 70.984886 300.5 70.984886C329.18 70.984886 357.86 70.984886 386.54 70.984886C415.22 70.984886 472.58 70.984886 472.58 70.984886" fill-rule="nonzero"/><path stroke="#34a853" stroke-width="2.0" stroke-linecap="butt" clip-path="url(#id_0)" d="M128.42 262.94846C128.42 262.94846 185.78 262.94846 214.46 262.94846C243.14 262.94846 271.82 262.94846 300.5 262.94846C329.18 262.94846 357.86 262.94846 386.54 262.94846C415.22 262.94846 472.58 262.94846 472.58 262.94846" fill-rule="nonzero"/><path fill="#4285f4" clip-path="url(#id_0)" d="M131.92 176.43005C131.92 178.36304 130.353 179.93005 128.42 179.93005C126.48701 179.93005 124.92 178.36304 124.92 176.43005C124.92 174.49706 126.48701 172.93005 128.42 172.93005C130.353 172.93005 131.92 174.49706 131.92 176.43005Z" fill-rule="nonzero"/><path fill="#4285f4" clip-path="url(#id_0)" d="M217.96 182.3099C217.96 184.2429 216.39299 185.8099 214.46 185.8099C212.52701 185.8099 210.96 184.2429 210.96 182.3099C210.96 180.3769 212.52701 178.8099 214.46 178.8099C216.39299 178.8099 217.96 180.3769 217.96 182.3099Z" fill-rule="nonzero"/><path fill="#4285f4" clip-path="url(#id_0)" d="M304.0 180.73027C304.0 182.66327 302.43298 184.23027 300.5 184.23027C298.56702 184.23027 297.0 182.66327 297.0 180.73027C297.0 178.79727 298.56702 177.23027 300.5 177.23027C302.43298 177.23027 304.0 178.79727 304.0 180.73027Z" fill-rule="nonzero"/><path fill="#4285f4" clip-path="url(#id_0)" d="M390.04 182.85794C390.04 184.79094 388.473 186.35794 386.54 186.35794C384.607 186.35794 383.04 184.79094 383.04 182.85794C383.04 180.92494 384.607 179.35794 386.54 179.35794C388.473 179.35794 390.04 180.92494 390.04 182.85794Z" fill-rule="nonzero"/><path fill="#4285f4" clip-path="url(#id_0)" d="M476.08 184.0795C476.08 186.0125 474.513 187.5795 472.58 187.5795C470.647 187.5795 469.08 186.0125 469.08 184.0795C469.08 182.1465 470.647 180.5795 472.58 180.5795C474.513 180.5795 476.08 182.1465 476.08 184.0795Z" fill-rule="nonzero"/><path fill="#ea4335" clip-path="url(#id_0)" d="M131.92 168.45706C131.92 170.39006 130.353 171.95706 128.42 171.95706C126.48701 171.95706 124.92 170.39006 124.92 168.45706C124.92 166.52406 126.48701 164.95706 128.42 164.95706C130.353 164.95706 131.92 166.52406 131.92 168.45706Z" fill-rule="nonzero"/><path fill="#ea4335" clip-path="url(#id_0)" d="M217.96 174.41867C217.96 176.35167 216.39299 177.91867 214.46 177.91867C212.52701 177.91867 210.96 176.35167 210.96 174.41867C210.96 172.48567 212.52701 170.91867 214.46 170.91867C216.39299 170.91867 217.96 172.48567 217.96 174.41867Z" fill-rule="nonzero"/><path fill="#ea4335" clip-path="url(#id_0)" d="M304.0 174.41867C304.0 176.35167 302.43298 177.91867 300.5 177.91867C298.56702 177.91867 297.0 176.35167 297.0 174.41867C297.0 172.48567 298.56702 170.91867 300.5 170.91867C302.43298 170.91867 304.0 172.48567 304.0 174.41867Z" fill-rule="nonzero"/><path fill="#ea4335" clip-path="url(#id_0)" d="M390.04 174.41867C390.04 176.35167 388.473 177.91867 386.54 177.91867C384.607 177.91867 383.04 176.35167 383.04 174.41867C383.04 172.48567 384.607 170.91867 386.54 170.91867C388.473 170.91867 390.04 172.48567 390.04 174.41867Z" fill-rule="nonzero"/><path fill="#ea4335" clip-path="url(#id_0)" d="M476.08 174.41867C476.08 176.35167 474.513 177.91867 472.58 177.91867C470.647 177.91867 469.08 176.35167 469.08 174.41867C469.08 172.48567 470.647 170.91867 472.58 170.91867C474.513 170.91867 476.08 172.48567 476.08 174.41867Z" fill-rule="nonzero"/><path fill="#fbbc04" fill-opacity="0.7019608" clip-path="url(#id_0)" d="M131.92 70.984886C131.92 72.917885 130.353 74.484886 128.42 74.484886C126.48701 74.484886 124.92 72.917885 124.92 70.984886C124.92 69.05189 126.48701 67.484886 128.42 67.484886C130.353 67.484886 131.92 69.05189 131.92 70.984886Z" fill-rule="nonzero"/><path fill="#fbbc04" fill-opacity="0.7019608" clip-path="url(#id_0)" d="M217.96 70.984886C217.96 72.917885 216.39299 74.484886 214.46 74.484886C212.52701 74.484886 210.96 72.917885 210.96 70.984886C210.96 69.05189 212.52701 67.484886 214.46 67.484886C216.39299 67.484886 217.96 69.05189 217.96 70.984886Z" fill-rule="nonzero"/><path fill="#fbbc04" fill-opacity="0.7019608" clip-path="url(#id_0)" d="M304.0 70.984886C304.0 72.917885 302.43298 74.484886 300.5 74.484886C298.56702 74.484886 297.0 72.917885 297.0 70.984886C297.0 69.05189 298.56702 67.484886 300.5 67.484886C302.43298 67.484886 304.0 69.05189 304.0 70.984886Z" fill-rule="nonzero"/><path fill="#fbbc04" fill-opacity="0.7019608" clip-path="url(#id_0)" d="M390.04 70.984886C390.04 72.917885 388.473 74.484886 386.54 74.484886C384.607 74.484886 383.04 72.917885 383.04 70.984886C383.04 69.05189 384.607 67.484886 386.54 67.484886C388.473 67.484886 390.04 69.05189 390.04 70.984886Z" fill-rule="nonzero"/><path fill="#fbbc04" fill-opacity="0.7019608" clip-path="url(#id_0)" d="M476.08 70.984886C476.08 72.917885 474.513 74.484886 472.58 74.484886C470.647 74.484886 469.08 72.917885 469.08 70.984886C469.08 69.05189 470.647 67.484886 472.58 67.484886C474.513 67.484886 476.08 69.05189 476.08 70.984886Z" fill-rule="nonzero"/><path fill="#34a853" clip-path="url(#id_0)" d="M131.92 262.94846C131.92 264.88144 130.353 266.44846 128.42 266.44846C126.48701 266.44846 124.92 264.88144 124.92 262.94846C124.92 261.01544 126.48701 259.44846 128.42 259.44846C130.353 259.44846 131.92 261.01544 131.92 262.94846Z" fill-rule="nonzero"/><path fill="#34a853" clip-path="url(#id_0)" d="M217.96 262.94846C217.96 264.88144 216.39299 266.44846 214.46 266.44846C212.52701 266.44846 210.96 264.88144 210.96 262.94846C210.96 261.01544 212.52701 259.44846 214.46 259.44846C216.39299 259.44846 217.96 261.01544 217.96 262.94846Z" fill-rule="nonzero"/><path fill="#34a853" clip-path="url(#id_0)" d="M304.0 262.94846C304.0 264.88144 302.43298 266.44846 300.5 266.44846C298.56702 266.44846 297.0 264.88144 297.0 262.94846C297.0 261.01544 298.56702 259.44846 300.5 259.44846C302.43298 259.44846 304.0 261.01544 304.0 262.94846Z" fill-rule="nonzero"/><path fill="#34a853" clip-path="url(#id_0)" d="M390.04 262.94846C390.04 264.88144 388.473 266.44846 386.54 266.44846C384.607 266.44846 383.04 264.88144 383.04 262.94846C383.04 261.01544 384.607 259.44846 386.54 259.44846C388.473 259.44846 390.04 261.01544 390.04 262.94846Z" fill-rule="nonzero"/><path fill="#34a853" clip-path="url(#id_0)" d="M476.08 262.94846C476.08 264.88144 474.513 266.44846 472.58 266.44846C470.647 266.44846 469.08 264.88144 469.08 262.94846C469.08 261.01544 470.647 259.44846 472.58 259.44846C474.513 259.44846 476.08 261.01544 476.08 262.94846Z" fill-rule="nonzero"/><path stroke="#000000" stroke-width="1.0" stroke-linecap="butt" d="M128.5 291.5L128.5 279.5" fill-rule="nonzero"/><path stroke="#000000" stroke-width="1.0" stroke-linecap="butt" d="M214.5 291.5L214.5 279.5" fill-rule="nonzero"/><path stroke="#000000" stroke-width="1.0" stroke-linecap="butt" d="M300.5 291.5L300.5 279.5" fill-rule="nonzero"/><path stroke="#000000" stroke-width="1.0" stroke-linecap="butt" d="M386.5 291.5L386.5 279.5" fill-rule="nonzero"/><path stroke="#000000" stroke-width="1.0" stroke-linecap="butt" d="M472.5 291.5L472.5 279.5" fill-rule="nonzero"/><path stroke="#000000" stroke-width="1.0" stroke-linecap="butt" d="M79.5 285.5L91.5 285.5" fill-rule="nonzero"/><path stroke="#000000" stroke-width="1.0" stroke-linecap="butt" d="M79.5 255.5L91.5 255.5" fill-rule="nonzero"/><path stroke="#000000" stroke-width="1.0" stroke-linecap="butt" d="M79.5 226.5L91.5 226.5" fill-rule="nonzero"/><path stroke="#000000" stroke-width="1.0" stroke-linecap="butt" d="M79.5 196.5L91.5 196.5" fill-rule="nonzero"/><path stroke="#000000" stroke-width="1.0" stroke-linecap="butt" d="M79.5 166.5L91.5 166.5" fill-rule="nonzero"/><path stroke="#000000" stroke-width="1.0" stroke-linecap="butt" d="M79.5 137.5L91.5 137.5" fill-rule="nonzero"/><path stroke="#000000" stroke-width="1.0" stroke-linecap="butt" d="M79.5 107.5L91.5 107.5" fill-rule="nonzero"/><path stroke="#000000" stroke-width="1.0" stroke-linecap="butt" d="M79.5 77.5L91.5 77.5" fill-rule="nonzero"/><path stroke="#000000" stroke-width="1.0" stroke-linecap="butt" d="M79.5 48.5L91.5 48.5" fill-rule="nonzero"/><path fill="#000000" d="M48.775 287.02188L48.775 285.95938L52.025 285.95938L52.025 287.02188L48.775 287.02188ZM54.525 284.94376Q53.86875 284.69376 53.540627 284.25626Q53.228127 283.80313 53.228127 283.19376Q53.228127 282.25626 53.9 281.61563Q54.5875 280.975 55.696877 280.975Q56.821877 280.975 57.509377 281.63126Q58.196877 282.2875 58.196877 283.225Q58.196877 283.81876 57.884377 284.25626Q57.571877 284.69376 56.93125 284.94376Q57.728127 285.19376 58.134377 285.77188Q58.540627 286.35 58.540627 287.14688Q58.540627 288.24063 57.759377 288.99063Q56.99375 289.74063 55.7125 289.74063Q54.446877 289.74063 53.665627 288.99063Q52.884377 288.24063 52.884377 287.11563Q52.884377 286.27188 53.30625 285.70938Q53.74375 285.14688 54.525 284.94376ZM54.30625 283.14688Q54.30625 283.75626 54.696877 284.14688Q55.103127 284.5375 55.728127 284.5375Q56.3375 284.5375 56.728127 284.1625Q57.11875 283.77188 57.11875 283.20938Q57.11875 282.63126 56.7125 282.24063Q56.30625 281.83438 55.7125 281.83438Q55.103127 281.83438 54.696877 282.225Q54.30625 282.61563 54.30625 283.14688ZM53.978127 287.11563Q53.978127 287.56876 54.18125 287.99063Q54.4 288.4125 54.821877 288.64688Q55.24375 288.88126 55.728127 288.88126Q56.478127 288.88126 56.9625 288.39688Q57.4625 287.9125 57.4625 287.1625Q57.4625 286.39688 56.9625 285.89688Q56.4625 285.39688 55.696877 285.39688Q54.946877 285.39688 54.4625 285.89688Q53.978127 286.38126 53.978127 287.11563ZM59.9 285.36563Q59.9 283.83438 60.2125 282.9125Q60.525 281.975 61.134377 281.475Q61.759377 280.975 62.696877 280.975Q63.384377 280.975 63.9 281.25626Q64.43125 281.5375 64.775 282.06876Q65.11875 282.58438 65.30625 283.33438Q65.49375 284.08438 65.49375 285.36563Q65.49375 286.88126 65.18125 287.80313Q64.88438 288.725 64.25938 289.24063Q63.65 289.74063 62.696877 289.74063Q61.4625 289.74063 60.74375 288.85Q59.9 287.7875 59.9 285.36563ZM60.978127 285.36563Q60.978127 287.475 61.478127 288.17813Q61.978127 288.88126 62.696877 288.88126Q63.43125 288.88126 63.915627 288.17813Q64.41563 287.475 64.41563 285.36563Q64.41563 283.24063 63.915627 282.55313Q63.43125 281.85 62.68125 281.85Q61.9625 281.85 61.525 282.45938Q60.978127 283.24063 60.978127 285.36563ZM66.9 285.36563Q66.9 283.83438 67.2125 282.9125Q67.525 281.975 68.13438 281.475Q68.75938 280.975 69.69688 280.975Q70.38438 280.975 70.9 281.25626Q71.43125 281.5375 71.775 282.06876Q72.11875 282.58438 72.30625 283.33438Q72.49375 284.08438 72.49375 285.36563Q72.49375 286.88126 72.18125 287.80313Q71.88438 288.725 71.25938 289.24063Q70.65 289.74063 69.69688 289.74063Q68.4625 289.74063 67.74375 288.85Q66.9 287.7875 66.9 285.36563ZM67.97813 285.36563Q67.97813 287.475 68.47813 288.17813Q68.97813 288.88126 69.69688 288.88126Q70.43125 288.88126 70.91563 288.17813Q71.41563 287.475 71.41563 285.36563Q71.41563 283.24063 70.91563 282.55313Q70.43125 281.85 69.68125 281.85Q68.9625 281.85 68.525 282.45938Q67.97813 283.24063 67.97813 285.36563Z" fill-rule="nonzero"/><path fill="#000000" d="M48.775 257.36356L48.775 256.30106L52.025 256.30106L52.025 257.36356L48.775 257.36356ZM58.36875 253.4573L57.321877 253.53543Q57.18125 252.91043 56.93125 252.62918Q56.49375 252.17606 55.86875 252.17606Q55.36875 252.17606 54.978127 252.4573Q54.49375 252.8323 54.196877 253.53543Q53.915627 254.22293 53.9 255.50418Q54.275 254.92606 54.821877 254.6448Q55.384377 254.36356 55.99375 254.36356Q57.040627 254.36356 57.775 255.1448Q58.525 255.92606 58.525 257.1448Q58.525 257.9573 58.165627 258.66043Q57.821877 259.34793 57.2125 259.72293Q56.603127 260.0823 55.8375 260.0823Q54.509377 260.0823 53.68125 259.11356Q52.853127 258.1448 52.853127 255.92606Q52.853127 253.42606 53.775 252.30106Q54.571877 251.31668 55.93125 251.31668Q56.946877 251.31668 57.5875 251.8948Q58.24375 252.4573 58.36875 253.4573ZM54.071877 257.16043Q54.071877 257.7073 54.290627 258.2073Q54.525 258.69168 54.93125 258.9573Q55.353127 259.22293 55.821877 259.22293Q56.478127 259.22293 56.9625 258.69168Q57.446877 258.1448 57.446877 257.22293Q57.446877 256.3323 56.9625 255.81668Q56.49375 255.30106 55.775 255.30106Q55.05625 255.30106 54.55625 255.81668Q54.071877 256.3323 54.071877 257.16043ZM59.9 255.7073Q59.9 254.17606 60.2125 253.25418Q60.525 252.31668 61.134377 251.81668Q61.759377 251.31668 62.696877 251.31668Q63.384377 251.31668 63.9 251.59793Q64.43125 251.87918 64.775 252.41043Q65.11875 252.92606 65.30625 253.67606Q65.49375 254.42606 65.49375 255.7073Q65.49375 257.22293 65.18125 258.1448Q64.88438 259.06668 64.25938 259.5823Q63.65 260.0823 62.696877 260.0823Q61.4625 260.0823 60.74375 259.19168Q59.9 258.12918 59.9 255.7073ZM60.978127 255.7073Q60.978127 257.81668 61.478127 258.5198Q61.978127 259.22293 62.696877 259.22293Q63.43125 259.22293 63.915627 258.5198Q64.41563 257.81668 64.41563 255.7073Q64.41563 253.5823 63.915627 252.8948Q63.43125 252.19168 62.68125 252.19168Q61.9625 252.19168 61.525 252.80106Q60.978127 253.5823 60.978127 255.7073ZM66.9 255.7073Q66.9 254.17606 67.2125 253.25418Q67.525 252.31668 68.13438 251.81668Q68.75938 251.31668 69.69688 251.31668Q70.38438 251.31668 70.9 251.59793Q71.43125 251.87918 71.775 252.41043Q72.11875 252.92606 72.30625 253.67606Q72.49375 254.42606 72.49375 255.7073Q72.49375 257.22293 72.18125 258.1448Q71.88438 259.06668 71.25938 259.5823Q70.65 260.0823 69.69688 260.0823Q68.4625 260.0823 67.74375 259.19168Q66.9 258.12918 66.9 255.7073ZM67.97813 255.7073Q67.97813 257.81668 68.47813 258.5198Q68.97813 259.22293 69.69688 259.22293Q70.43125 259.22293 70.91563 258.5198Q71.41563 257.81668 71.41563 255.7073Q71.41563 253.5823 70.91563 252.8948Q70.43125 252.19168 69.68125 252.19168Q68.9625 252.19168 68.525 252.80106Q67.97813 253.5823 67.97813 255.7073Z" fill-rule="nonzero"/><path fill="#000000" d="M48.775 227.70522L48.775 226.64272L52.025 226.64272L52.025 227.70522L48.775 227.70522ZM56.275 230.28334L56.275 228.22084L52.55625 228.22084L52.55625 227.25209L56.478127 221.68959L57.3375 221.68959L57.3375 227.25209L58.49375 227.25209L58.49375 228.22084L57.3375 228.22084L57.3375 230.28334L56.275 230.28334ZM56.275 227.25209L56.275 223.39272L53.5875 227.25209L56.275 227.25209ZM59.9 226.04897Q59.9 224.51772 60.2125 223.59584Q60.525 222.65834 61.134377 222.15834Q61.759377 221.65834 62.696877 221.65834Q63.384377 221.65834 63.9 221.93959Q64.43125 222.22084 64.775 222.75209Q65.11875 223.26772 65.30625 224.01772Q65.49375 224.76772 65.49375 226.04897Q65.49375 227.56459 65.18125 228.48647Q64.88438 229.40834 64.25938 229.92397Q63.65 230.42397 62.696877 230.42397Q61.4625 230.42397 60.74375 229.53334Q59.9 228.47084 59.9 226.04897ZM60.978127 226.04897Q60.978127 228.15834 61.478127 228.86147Q61.978127 229.56459 62.696877 229.56459Q63.43125 229.56459 63.915627 228.86147Q64.41563 228.15834 64.41563 226.04897Q64.41563 223.92397 63.915627 223.23647Q63.43125 222.53334 62.68125 222.53334Q61.9625 222.53334 61.525 223.14272Q60.978127 223.92397 60.978127 226.04897ZM66.9 226.04897Q66.9 224.51772 67.2125 223.59584Q67.525 222.65834 68.13438 222.15834Q68.75938 221.65834 69.69688 221.65834Q70.38438 221.65834 70.9 221.93959Q71.43125 222.22084 71.775 222.75209Q72.11875 223.26772 72.30625 224.01772Q72.49375 224.76772 72.49375 226.04897Q72.49375 227.56459 72.18125 228.48647Q71.88438 229.40834 71.25938 229.92397Q70.65 230.42397 69.69688 230.42397Q68.4625 230.42397 67.74375 229.53334Q66.9 228.47084 66.9 226.04897ZM67.97813 226.04897Q67.97813 228.15834 68.47813 228.86147Q68.97813 229.56459 69.69688 229.56459Q70.43125 229.56459 70.91563 228.86147Q71.41563 228.15834 71.41563 226.04897Q71.41563 223.92397 70.91563 223.23647Q70.43125 222.53334 69.68125 222.53334Q68.9625 222.53334 68.525 223.14272Q67.97813 223.92397 67.97813 226.04897Z" fill-rule="nonzero"/><path fill="#000000" d="M48.775 198.04688L48.775 196.98438L52.025 196.98438L52.025 198.04688L48.775 198.04688ZM58.446877 199.60938L58.446877 200.625L52.759377 200.625Q52.759377 200.25 52.884377 199.89062Q53.103127 199.3125 53.571877 198.75Q54.05625 198.1875 54.9625 197.45312Q56.36875 196.29688 56.853127 195.625Q57.353127 194.95312 57.353127 194.35938Q57.353127 193.73438 56.9 193.3125Q56.446877 192.875 55.728127 192.875Q54.9625 192.875 54.509377 193.32812Q54.05625 193.78125 54.040627 194.59375L52.9625 194.48438Q53.071877 193.26562 53.790627 192.64062Q54.525 192.0 55.759377 192.0Q56.99375 192.0 57.7125 192.6875Q58.43125 193.375 58.43125 194.39062Q58.43125 194.90625 58.2125 195.40625Q58.009377 195.89062 57.509377 196.45312Q57.025 197.0 55.9 197.95312Q54.946877 198.75 54.665627 199.04688Q54.4 199.32812 54.228127 199.60938L58.446877 199.60938ZM59.9 196.39062Q59.9 194.85938 60.2125 193.9375Q60.525 193.0 61.134377 192.5Q61.759377 192.0 62.696877 192.0Q63.384377 192.0 63.9 192.28125Q64.43125 192.5625 64.775 193.09375Q65.11875 193.60938 65.30625 194.35938Q65.49375 195.10938 65.49375 196.39062Q65.49375 197.90625 65.18125 198.82812Q64.88438 199.75 64.25938 200.26562Q63.65 200.76562 62.696877 200.76562Q61.4625 200.76562 60.74375 199.875Q59.9 198.8125 59.9 196.39062ZM60.978127 196.39062Q60.978127 198.5 61.478127 199.20312Q61.978127 199.90625 62.696877 199.90625Q63.43125 199.90625 63.915627 199.20312Q64.41563 198.5 64.41563 196.39062Q64.41563 194.26562 63.915627 193.57812Q63.43125 192.875 62.68125 192.875Q61.9625 192.875 61.525 193.48438Q60.978127 194.26562 60.978127 196.39062ZM66.9 196.39062Q66.9 194.85938 67.2125 193.9375Q67.525 193.0 68.13438 192.5Q68.75938 192.0 69.69688 192.0Q70.38438 192.0 70.9 192.28125Q71.43125 192.5625 71.775 193.09375Q72.11875 193.60938 72.30625 194.35938Q72.49375 195.10938 72.49375 196.39062Q72.49375 197.90625 72.18125 198.82812Q71.88438 199.75 71.25938 200.26562Q70.65 200.76562 69.69688 200.76562Q68.4625 200.76562 67.74375 199.875Q66.9 198.8125 66.9 196.39062ZM67.97813 196.39062Q67.97813 198.5 68.47813 199.20312Q68.97813 199.90625 69.69688 199.90625Q70.43125 199.90625 70.91563 199.20312Q71.41563 198.5 71.41563 196.39062Q71.41563 194.26562 70.91563 193.57812Q70.43125 192.875 69.68125 192.875Q68.9625 192.875 68.525 193.48438Q67.97813 194.26562 67.97813 196.39062Z" fill-rule="nonzero"/><path fill="#000000" d="M66.9 166.73228Q66.9 165.20103 67.2125 164.27916Q67.525 163.34166 68.13438 162.84166Q68.75938 162.34166 69.69688 162.34166Q70.38438 162.34166 70.9 162.62291Q71.43125 162.90416 71.775 163.43541Q72.11875 163.95103 72.30625 164.70103Q72.49375 165.45103 72.49375 166.73228Q72.49375 168.24791 72.18125 169.16978Q71.88438 170.09166 71.25938 170.60728Q70.65 171.10728 69.69688 171.10728Q68.4625 171.10728 67.74375 170.21666Q66.9 169.15416 66.9 166.73228ZM67.97813 166.73228Q67.97813 168.84166 68.47813 169.54478Q68.97813 170.24791 69.69688 170.24791Q70.43125 170.24791 70.91563 169.54478Q71.41563 168.84166 71.41563 166.73228Q71.41563 164.60728 70.91563 163.91978Q70.43125 163.21666 69.68125 163.21666Q68.9625 163.21666 68.525 163.82603Q67.97813 164.60728 67.97813 166.73228Z" fill-rule="nonzero"/><path fill="#000000" d="M58.446877 140.29271L58.446877 141.30833L52.759377 141.30833Q52.759377 140.93333 52.884377 140.57396Q53.103127 139.99583 53.571877 139.43333Q54.05625 138.87083 54.9625 138.13646Q56.36875 136.98021 56.853127 136.30833Q57.353127 135.63646 57.353127 135.04271Q57.353127 134.41771 56.9 133.99583Q56.446877 133.55833 55.728127 133.55833Q54.9625 133.55833 54.509377 134.01146Q54.05625 134.46458 54.040627 135.27708L52.9625 135.16771Q53.071877 133.94896 53.790627 133.32396Q54.525 132.68333 55.759377 132.68333Q56.99375 132.68333 57.7125 133.37083Q58.43125 134.05833 58.43125 135.07396Q58.43125 135.58958 58.2125 136.08958Q58.009377 136.57396 57.509377 137.13646Q57.025 137.68333 55.9 138.63646Q54.946877 139.43333 54.665627 139.73021Q54.4 140.01146 54.228127 140.29271L58.446877 140.29271ZM59.9 137.07396Q59.9 135.54271 60.2125 134.62083Q60.525 133.68333 61.134377 133.18333Q61.759377 132.68333 62.696877 132.68333Q63.384377 132.68333 63.9 132.96458Q64.43125 133.24583 64.775 133.77708Q65.11875 134.29271 65.30625 135.04271Q65.49375 135.79271 65.49375 137.07396Q65.49375 138.58958 65.18125 139.51146Q64.88438 140.43333 64.25938 140.94896Q63.65 141.44896 62.696877 141.44896Q61.4625 141.44896 60.74375 140.55833Q59.9 139.49583 59.9 137.07396ZM60.978127 137.07396Q60.978127 139.18333 61.478127 139.88646Q61.978127 140.58958 62.696877 140.58958Q63.43125 140.58958 63.915627 139.88646Q64.41563 139.18333 64.41563 137.07396Q64.41563 134.94896 63.915627 134.26146Q63.43125 133.55833 62.68125 133.55833Q61.9625 133.55833 61.525 134.16771Q60.978127 134.94896 60.978127 137.07396ZM66.9 137.07396Q66.9 135.54271 67.2125 134.62083Q67.525 133.68333 68.13438 133.18333Q68.75938 132.68333 69.69688 132.68333Q70.38438 132.68333 70.9 132.96458Q71.43125 133.24583 71.775 133.77708Q72.11875 134.29271 72.30625 135.04271Q72.49375 135.79271 72.49375 137.07396Q72.49375 138.58958 72.18125 139.51146Q71.88438 140.43333 71.25938 140.94896Q70.65 141.44896 69.69688 141.44896Q68.4625 141.44896 67.74375 140.55833Q66.9 139.49583 66.9 137.07396ZM67.97813 137.07396Q67.97813 139.18333 68.47813 139.88646Q68.97813 140.58958 69.69688 140.58958Q70.43125 140.58958 70.91563 139.88646Q71.41563 139.18333 71.41563 137.07396Q71.41563 134.94896 70.91563 134.26146Q70.43125 133.55833 69.68125 133.55833Q68.9625 133.55833 68.525 134.16771Q67.97813 134.94896 67.97813 137.07396Z" fill-rule="nonzero"/><path fill="#000000" d="M56.275 111.65L56.275 109.5875L52.55625 109.5875L52.55625 108.61875L56.478127 103.05625L57.3375 103.05625L57.3375 108.61875L58.49375 108.61875L58.49375 109.5875L57.3375 109.5875L57.3375 111.65L56.275 111.65ZM56.275 108.61875L56.275 104.75938L53.5875 108.61875L56.275 108.61875ZM59.9 107.41563Q59.9 105.88438 60.2125 104.9625Q60.525 104.025 61.134377 103.525Q61.759377 103.025 62.696877 103.025Q63.384377 103.025 63.9 103.30625Q64.43125 103.5875 64.775 104.11875Q65.11875 104.63438 65.30625 105.38438Q65.49375 106.13438 65.49375 107.41563Q65.49375 108.93125 65.18125 109.85313Q64.88438 110.775 64.25938 111.29063Q63.65 111.79063 62.696877 111.79063Q61.4625 111.79063 60.74375 110.9Q59.9 109.8375 59.9 107.41563ZM60.978127 107.41563Q60.978127 109.525 61.478127 110.22813Q61.978127 110.93125 62.696877 110.93125Q63.43125 110.93125 63.915627 110.22813Q64.41563 109.525 64.41563 107.41563Q64.41563 105.29063 63.915627 104.60313Q63.43125 103.9 62.68125 103.9Q61.9625 103.9 61.525 104.50938Q60.978127 105.29063 60.978127 107.41563ZM66.9 107.41563Q66.9 105.88438 67.2125 104.9625Q67.525 104.025 68.13438 103.525Q68.75938 103.025 69.69688 103.025Q70.38438 103.025 70.9 103.30625Q71.43125 103.5875 71.775 104.11875Q72.11875 104.63438 72.30625 105.38438Q72.49375 106.13438 72.49375 107.41563Q72.49375 108.93125 72.18125 109.85313Q71.88438 110.775 71.25938 111.29063Q70.65 111.79063 69.69688 111.79063Q68.4625 111.79063 67.74375 110.9Q66.9 109.8375 66.9 107.41563ZM67.97813 107.41563Q67.97813 109.525 68.47813 110.22813Q68.97813 110.93125 69.69688 110.93125Q70.43125 110.93125 70.91563 110.22813Q71.41563 109.525 71.41563 107.41563Q71.41563 105.29063 70.91563 104.60313Q70.43125 103.9 69.68125 103.9Q68.9625 103.9 68.525 104.50938Q67.97813 105.29063 67.97813 107.41563Z" fill-rule="nonzero"/><path fill="#000000" d="M58.36875 75.50729L57.321877 75.58542Q57.18125 74.96042 56.93125 74.67917Q56.49375 74.22604 55.86875 74.22604Q55.36875 74.22604 54.978127 74.50729Q54.49375 74.88229 54.196877 75.58542Q53.915627 76.27292 53.9 77.55417Q54.275 76.97604 54.821877 76.69479Q55.384377 76.41354 55.99375 76.41354Q57.040627 76.41354 57.775 77.19479Q58.525 77.97604 58.525 79.19479Q58.525 80.00729 58.165627 80.71042Q57.821877 81.39792 57.2125 81.77292Q56.603127 82.13229 55.8375 82.13229Q54.509377 82.13229 53.68125 81.16354Q52.853127 80.19479 52.853127 77.97604Q52.853127 75.47604 53.775 74.35104Q54.571877 73.36667 55.93125 73.36667Q56.946877 73.36667 57.5875 73.94479Q58.24375 74.50729 58.36875 75.50729ZM54.071877 79.21042Q54.071877 79.75729 54.290627 80.25729Q54.525 80.74167 54.93125 81.00729Q55.353127 81.27292 55.821877 81.27292Q56.478127 81.27292 56.9625 80.74167Q57.446877 80.19479 57.446877 79.27292Q57.446877 78.38229 56.9625 77.86667Q56.49375 77.35104 55.775 77.35104Q55.05625 77.35104 54.55625 77.86667Q54.071877 78.38229 54.071877 79.21042ZM59.9 77.75729Q59.9 76.22604 60.2125 75.30417Q60.525 74.36667 61.134377 73.86667Q61.759377 73.36667 62.696877 73.36667Q63.384377 73.36667 63.9 73.64792Q64.43125 73.92917 64.775 74.46042Q65.11875 74.97604 65.30625 75.72604Q65.49375 76.47604 65.49375 77.75729Q65.49375 79.27292 65.18125 80.19479Q64.88438 81.11667 64.25938 81.63229Q63.65 82.13229 62.696877 82.13229Q61.4625 82.13229 60.74375 81.24167Q59.9 80.17917 59.9 77.75729ZM60.978127 77.75729Q60.978127 79.86667 61.478127 80.56979Q61.978127 81.27292 62.696877 81.27292Q63.43125 81.27292 63.915627 80.56979Q64.41563 79.86667 64.41563 77.75729Q64.41563 75.63229 63.915627 74.94479Q63.43125 74.24167 62.68125 74.24167Q61.9625 74.24167 61.525 74.85104Q60.978127 75.63229 60.978127 77.75729ZM66.9 77.75729Q66.9 76.22604 67.2125 75.30417Q67.525 74.36667 68.13438 73.86667Q68.75938 73.36667 69.69688 73.36667Q70.38438 73.36667 70.9 73.64792Q71.43125 73.92917 71.775 74.46042Q72.11875 74.97604 72.30625 75.72604Q72.49375 76.47604 72.49375 77.75729Q72.49375 79.27292 72.18125 80.19479Q71.88438 81.11667 71.25938 81.63229Q70.65 82.13229 69.69688 82.13229Q68.4625 82.13229 67.74375 81.24167Q66.9 80.17917 66.9 77.75729ZM67.97813 77.75729Q67.97813 79.86667 68.47813 80.56979Q68.97813 81.27292 69.69688 81.27292Q70.43125 81.27292 70.91563 80.56979Q71.41563 79.86667 71.41563 77.75729Q71.41563 75.63229 70.91563 74.94479Q70.43125 74.24167 69.68125 74.24167Q68.9625 74.24167 68.525 74.85104Q67.97813 75.63229 67.97813 77.75729Z" fill-rule="nonzero"/><path fill="#000000" d="M54.525 47.677082Q53.86875 47.427082 53.540627 46.989582Q53.228127 46.536457 53.228127 45.927082Q53.228127 44.989582 53.9 44.348957Q54.5875 43.708332 55.696877 43.708332Q56.821877 43.708332 57.509377 44.364582Q58.196877 45.020832 58.196877 45.958332Q58.196877 46.552082 57.884377 46.989582Q57.571877 47.427082 56.93125 47.677082Q57.728127 47.927082 58.134377 48.505207Q58.540627 49.083332 58.540627 49.880207Q58.540627 50.973957 57.759377 51.723957Q56.99375 52.473957 55.7125 52.473957Q54.446877 52.473957 53.665627 51.723957Q52.884377 50.973957 52.884377 49.848957Q52.884377 49.005207 53.30625 48.442707Q53.74375 47.880207 54.525 47.677082ZM54.30625 45.880207Q54.30625 46.489582 54.696877 46.880207Q55.103127 47.270832 55.728127 47.270832Q56.3375 47.270832 56.728127 46.895832Q57.11875 46.505207 57.11875 45.942707Q57.11875 45.364582 56.7125 44.973957Q56.30625 44.567707 55.7125 44.567707Q55.103127 44.567707 54.696877 44.958332Q54.30625 45.348957 54.30625 45.880207ZM53.978127 49.848957Q53.978127 50.302082 54.18125 50.723957Q54.4 51.145832 54.821877 51.380207Q55.24375 51.614582 55.728127 51.614582Q56.478127 51.614582 56.9625 51.130207Q57.4625 50.645832 57.4625 49.895832Q57.4625 49.130207 56.9625 48.630207Q56.4625 48.130207 55.696877 48.130207Q54.946877 48.130207 54.4625 48.630207Q53.978127 49.114582 53.978127 49.848957ZM59.9 48.098957Q59.9 46.567707 60.2125 45.645832Q60.525 44.708332 61.134377 44.208332Q61.759377 43.708332 62.696877 43.708332Q63.384377 43.708332 63.9 43.989582Q64.43125 44.270832 64.775 44.802082Q65.11875 45.317707 65.30625 46.067707Q65.49375 46.817707 65.49375 48.098957Q65.49375 49.614582 65.18125 50.536457Q64.88438 51.458332 64.25938 51.973957Q63.65 52.473957 62.696877 52.473957Q61.4625 52.473957 60.74375 51.583332Q59.9 50.520832 59.9 48.098957ZM60.978127 48.098957Q60.978127 50.208332 61.478127 50.911457Q61.978127 51.614582 62.696877 51.614582Q63.43125 51.614582 63.915627 50.911457Q64.41563 50.208332 64.41563 48.098957Q64.41563 45.973957 63.915627 45.286457Q63.43125 44.583332 62.68125 44.583332Q61.9625 44.583332 61.525 45.192707Q60.978127 45.973957 60.978127 48.098957ZM66.9 48.098957Q66.9 46.567707 67.2125 45.645832Q67.525 44.708332 68.13438 44.208332Q68.75938 43.708332 69.69688 43.708332Q70.38438 43.708332 70.9 43.989582Q71.43125 44.270832 71.775 44.802082Q72.11875 45.317707 72.30625 46.067707Q72.49375 46.817707 72.49375 48.098957Q72.49375 49.614582 72.18125 50.536457Q71.88438 51.458332 71.25938 51.973957Q70.65 52.473957 69.69688 52.473957Q68.4625 52.473957 67.74375 51.583332Q66.9 50.520832 66.9 48.098957ZM67.97813 48.098957Q67.97813 50.208332 68.47813 50.911457Q68.97813 51.614582 69.69688 51.614582Q70.43125 51.614582 70.91563 50.911457Q71.41563 50.208332 71.41563 48.098957Q71.41563 45.973957 70.91563 45.286457Q70.43125 44.583332 69.68125 44.583332Q68.9625 44.583332 68.525 45.192707Q67.97813 45.973957 67.97813 48.098957Z" fill-rule="nonzero"/><path fill="#000000" d="M107.96687 305.83438L109.02937 305.74063Q109.1075 306.39688 109.38875 306.80313Q109.67 307.20938 110.24812 307.475Q110.84187 307.725 111.57625 307.725Q112.21687 307.725 112.71687 307.5375Q113.21687 307.33438 113.45125 307.00626Q113.70125 306.6625 113.70125 306.27188Q113.70125 305.86563 113.46687 305.56876Q113.2325 305.25626 112.70125 305.05313Q112.34187 304.9125 111.15437 304.63126Q109.9825 304.35 109.51375 304.1Q108.88875 303.77188 108.59187 303.30313Q108.295 302.81876 108.295 302.225Q108.295 301.58438 108.65437 301.02188Q109.02937 300.44376 109.7325 300.1625Q110.45125 299.86563 111.31062 299.86563Q112.26375 299.86563 112.99812 300.17813Q113.7325 300.475 114.12312 301.08438Q114.51375 301.67813 114.545 302.42813L113.45125 302.50626Q113.3575 301.69376 112.84187 301.2875Q112.34187 300.86563 111.3575 300.86563Q110.32625 300.86563 109.8575 301.24063Q109.38875 301.61563 109.38875 302.14688Q109.38875 302.61563 109.71687 302.9125Q110.045 303.20938 111.42 303.52188Q112.81062 303.83438 113.32625 304.06876Q114.07625 304.42813 114.43562 304.95938Q114.795 305.475 114.795 306.17813Q114.795 306.86563 114.40437 307.475Q114.01375 308.06876 113.27937 308.4125Q112.545 308.74063 111.62312 308.74063Q110.45125 308.74063 109.65437 308.4125Q108.87312 308.06876 108.42 307.38126Q107.9825 306.69376 107.96687 305.83438ZM116.21687 310.99063L116.21687 302.38126L117.17 302.38126L117.17 303.17813Q117.51375 302.70938 117.93562 302.475Q118.37312 302.24063 118.9825 302.24063Q119.77937 302.24063 120.38875 302.64688Q120.99812 303.05313 121.295 303.80313Q121.6075 304.55313 121.6075 305.44376Q121.6075 306.39688 121.26375 307.1625Q120.93562 307.92813 120.27937 308.33438Q119.62312 308.74063 118.90437 308.74063Q118.37312 308.74063 117.95125 308.52188Q117.52937 308.2875 117.26375 307.95938L117.26375 310.99063L116.21687 310.99063ZM117.17 305.52188Q117.17 306.725 117.65437 307.30313Q118.13875 307.86563 118.82625 307.86563Q119.52937 307.86563 120.02937 307.27188Q120.52937 306.67813 120.52937 305.42813Q120.52937 304.24063 120.045 303.6625Q119.56062 303.06876 118.87312 303.06876Q118.20125 303.06876 117.68562 303.69376Q117.17 304.31876 117.17 305.52188ZM123.20125 308.6L123.20125 302.38126L124.15437 302.38126L124.15437 303.31876Q124.51375 302.6625 124.81062 302.45938Q125.12312 302.24063 125.49812 302.24063Q126.02937 302.24063 126.57625 302.56876L126.21687 303.55313Q125.82625 303.31876 125.45125 303.31876Q125.09187 303.31876 124.81062 303.5375Q124.545 303.74063 124.43562 304.11563Q124.24812 304.67813 124.24812 305.33438L124.24812 308.6L123.20125 308.6ZM127.21687 301.225L127.21687 300.00626L128.27937 300.00626L128.27937 301.225L127.21687 301.225ZM127.21687 308.6L127.21687 302.38126L128.27937 302.38126L128.27937 308.6L127.21687 308.6ZM130.21687 308.6L130.21687 302.38126L131.15437 302.38126L131.15437 303.25626Q131.84187 302.24063 133.13875 302.24063Q133.70125 302.24063 134.17 302.44376Q134.65437 302.64688 134.88875 302.975Q135.12312 303.30313 135.21687 303.74063Q135.26375 304.0375 135.26375 304.77188L135.26375 308.6L134.21687 308.6L134.21687 304.81876Q134.21687 304.1625 134.09187 303.85Q133.96687 303.5375 133.65437 303.35Q133.34187 303.14688 132.92 303.14688Q132.24812 303.14688 131.74812 303.58438Q131.26375 304.00626 131.26375 305.19376L131.26375 308.6L130.21687 308.6ZM139.51375 307.6625L139.67 308.58438Q139.21687 308.67813 138.87312 308.67813Q138.295 308.67813 137.9825 308.50626Q137.67 308.31876 137.52937 308.02188Q137.40437 307.725 137.40437 306.77188L137.40437 303.19376L136.63875 303.19376L136.63875 302.38126L137.40437 302.38126L137.40437 300.83438L138.45125 300.20938L138.45125 302.38126L139.51375 302.38126L139.51375 303.19376L138.45125 303.19376L138.45125 306.83438Q138.45125 307.2875 138.49812 307.4125Q138.56062 307.5375 138.68562 307.61563Q138.81062 307.69376 139.045 307.69376Q139.2325 307.69376 139.51375 307.6625ZM146.88875 308.6L145.84187 308.6L145.84187 301.88126Q145.45125 302.24063 144.82625 302.61563Q144.21687 302.975 143.7325 303.14688L143.7325 302.13126Q144.6075 301.70938 145.26375 301.13126Q145.93562 300.5375 146.21687 299.975L146.88875 299.975L146.88875 308.6Z" fill-rule="nonzero"/><path fill="#000000" d="M194.00688 305.83438L195.06938 305.74063Q195.1475 306.39688 195.42876 306.80313Q195.71 307.20938 196.28813 307.475Q196.88188 307.725 197.61626 307.725Q198.25688 307.725 198.75688 307.5375Q199.25688 307.33438 199.49126 307.00626Q199.74126 306.6625 199.74126 306.27188Q199.74126 305.86563 199.50688 305.56876Q199.2725 305.25626 198.74126 305.05313Q198.38188 304.9125 197.19438 304.63126Q196.0225 304.35 195.55376 304.1Q194.92876 303.77188 194.63188 303.30313Q194.335 302.81876 194.335 302.225Q194.335 301.58438 194.69438 301.02188Q195.06938 300.44376 195.7725 300.1625Q196.49126 299.86563 197.35063 299.86563Q198.30376 299.86563 199.03813 300.17813Q199.7725 300.475 200.16313 301.08438Q200.55376 301.67813 200.585 302.42813L199.49126 302.50626Q199.3975 301.69376 198.88188 301.2875Q198.38188 300.86563 197.3975 300.86563Q196.36626 300.86563 195.8975 301.24063Q195.42876 301.61563 195.42876 302.14688Q195.42876 302.61563 195.75688 302.9125Q196.085 303.20938 197.46 303.52188Q198.85063 303.83438 199.36626 304.06876Q200.11626 304.42813 200.47563 304.95938Q200.835 305.475 200.835 306.17813Q200.835 306.86563 200.44438 307.475Q200.05376 308.06876 199.31938 308.4125Q198.585 308.74063 197.66313 308.74063Q196.49126 308.74063 195.69438 308.4125Q194.91313 308.06876 194.46 307.38126Q194.0225 306.69376 194.00688 305.83438ZM202.25688 310.99063L202.25688 302.38126L203.21 302.38126L203.21 303.17813Q203.55376 302.70938 203.97563 302.475Q204.41313 302.24063 205.0225 302.24063Q205.81938 302.24063 206.42876 302.64688Q207.03813 303.05313 207.335 303.80313Q207.6475 304.55313 207.6475 305.44376Q207.6475 306.39688 207.30376 307.1625Q206.97563 307.92813 206.31938 308.33438Q205.66313 308.74063 204.94438 308.74063Q204.41313 308.74063 203.99126 308.52188Q203.56938 308.2875 203.30376 307.95938L203.30376 310.99063L202.25688 310.99063ZM203.21 305.52188Q203.21 306.725 203.69438 307.30313Q204.17876 307.86563 204.86626 307.86563Q205.56938 307.86563 206.06938 307.27188Q206.56938 306.67813 206.56938 305.42813Q206.56938 304.24063 206.085 303.6625Q205.60063 303.06876 204.91313 303.06876Q204.24126 303.06876 203.72563 303.69376Q203.21 304.31876 203.21 305.52188ZM209.24126 308.6L209.24126 302.38126L210.19438 302.38126L210.19438 303.31876Q210.55376 302.6625 210.85063 302.45938Q211.16313 302.24063 211.53813 302.24063Q212.06938 302.24063 212.61626 302.56876L212.25688 303.55313Q211.86626 303.31876 211.49126 303.31876Q211.13188 303.31876 210.85063 303.5375Q210.585 303.74063 210.47563 304.11563Q210.28813 304.67813 210.28813 305.33438L210.28813 308.6L209.24126 308.6ZM213.25688 301.225L213.25688 300.00626L214.31938 300.00626L214.31938 301.225L213.25688 301.225ZM213.25688 308.6L213.25688 302.38126L214.31938 302.38126L214.31938 308.6L213.25688 308.6ZM216.25688 308.6L216.25688 302.38126L217.19438 302.38126L217.19438 303.25626Q217.88188 302.24063 219.17876 302.24063Q219.74126 302.24063 220.21 302.44376Q220.69438 302.64688 220.92876 302.975Q221.16313 303.30313 221.25688 303.74063Q221.30376 304.0375 221.30376 304.77188L221.30376 308.6L220.25688 308.6L220.25688 304.81876Q220.25688 304.1625 220.13188 303.85Q220.00688 303.5375 219.69438 303.35Q219.38188 303.14688 218.96 303.14688Q218.28813 303.14688 217.78813 303.58438Q217.30376 304.00626 217.30376 305.19376L217.30376 308.6L216.25688 308.6ZM225.55376 307.6625L225.71 308.58438Q225.25688 308.67813 224.91313 308.67813Q224.335 308.67813 224.0225 308.50626Q223.71 308.31876 223.56938 308.02188Q223.44438 307.725 223.44438 306.77188L223.44438 303.19376L222.67876 303.19376L222.67876 302.38126L223.44438 302.38126L223.44438 300.83438L224.49126 300.20938L224.49126 302.38126L225.55376 302.38126L225.55376 303.19376L224.49126 303.19376L224.49126 306.83438Q224.49126 307.2875 224.53813 307.4125Q224.60063 307.5375 224.72563 307.61563Q224.85063 307.69376 225.085 307.69376Q225.2725 307.69376 225.55376 307.6625ZM234.50688 307.58438L234.50688 308.6L228.81938 308.6Q228.81938 308.225 228.94438 307.86563Q229.16313 307.2875 229.63188 306.725Q230.11626 306.1625 231.0225 305.42813Q232.42876 304.27188 232.91313 303.6Q233.41313 302.92813 233.41313 302.33438Q233.41313 301.70938 232.96 301.2875Q232.50688 300.85 231.78813 300.85Q231.0225 300.85 230.56938 301.30313Q230.11626 301.75626 230.10063 302.56876L229.0225 302.45938Q229.13188 301.24063 229.85063 300.61563Q230.585 299.975 231.81938 299.975Q233.05376 299.975 233.7725 300.6625Q234.49126 301.35 234.49126 302.36563Q234.49126 302.88126 234.2725 303.38126Q234.06938 303.86563 233.56938 304.42813Q233.085 304.975 231.96 305.92813Q231.00688 306.725 230.72563 307.02188Q230.46 307.30313 230.28813 307.58438L234.50688 307.58438Z" fill-rule="nonzero"/><path fill="#000000" d="M280.04688 305.83438L281.10938 305.74063Q281.1875 306.39688 281.46875 306.80313Q281.75 307.20938 282.32812 307.475Q282.92188 307.725 283.65625 307.725Q284.29688 307.725 284.79688 307.5375Q285.29688 307.33438 285.53125 307.00626Q285.78125 306.6625 285.78125 306.27188Q285.78125 305.86563 285.54688 305.56876Q285.3125 305.25626 284.78125 305.05313Q284.42188 304.9125 283.23438 304.63126Q282.0625 304.35 281.59375 304.1Q280.96875 303.77188 280.67188 303.30313Q280.375 302.81876 280.375 302.225Q280.375 301.58438 280.73438 301.02188Q281.10938 300.44376 281.8125 300.1625Q282.53125 299.86563 283.39062 299.86563Q284.34375 299.86563 285.07812 300.17813Q285.8125 300.475 286.20312 301.08438Q286.59375 301.67813 286.625 302.42813L285.53125 302.50626Q285.4375 301.69376 284.92188 301.2875Q284.42188 300.86563 283.4375 300.86563Q282.40625 300.86563 281.9375 301.24063Q281.46875 301.61563 281.46875 302.14688Q281.46875 302.61563 281.79688 302.9125Q282.125 303.20938 283.5 303.52188Q284.89062 303.83438 285.40625 304.06876Q286.15625 304.42813 286.51562 304.95938Q286.875 305.475 286.875 306.17813Q286.875 306.86563 286.48438 307.475Q286.09375 308.06876 285.35938 308.4125Q284.625 308.74063 283.70312 308.74063Q282.53125 308.74063 281.73438 308.4125Q280.95312 308.06876 280.5 307.38126Q280.0625 306.69376 280.04688 305.83438ZM288.29688 310.99063L288.29688 302.38126L289.25 302.38126L289.25 303.17813Q289.59375 302.70938 290.01562 302.475Q290.45312 302.24063 291.0625 302.24063Q291.85938 302.24063 292.46875 302.64688Q293.07812 303.05313 293.375 303.80313Q293.6875 304.55313 293.6875 305.44376Q293.6875 306.39688 293.34375 307.1625Q293.01562 307.92813 292.35938 308.33438Q291.70312 308.74063 290.98438 308.74063Q290.45312 308.74063 290.03125 308.52188Q289.60938 308.2875 289.34375 307.95938L289.34375 310.99063L288.29688 310.99063ZM289.25 305.52188Q289.25 306.725 289.73438 307.30313Q290.21875 307.86563 290.90625 307.86563Q291.60938 307.86563 292.10938 307.27188Q292.60938 306.67813 292.60938 305.42813Q292.60938 304.24063 292.125 303.6625Q291.64062 303.06876 290.95312 303.06876Q290.28125 303.06876 289.76562 303.69376Q289.25 304.31876 289.25 305.52188ZM295.28125 308.6L295.28125 302.38126L296.23438 302.38126L296.23438 303.31876Q296.59375 302.6625 296.89062 302.45938Q297.20312 302.24063 297.57812 302.24063Q298.10938 302.24063 298.65625 302.56876L298.29688 303.55313Q297.90625 303.31876 297.53125 303.31876Q297.17188 303.31876 296.89062 303.5375Q296.625 303.74063 296.51562 304.11563Q296.32812 304.67813 296.32812 305.33438L296.32812 308.6L295.28125 308.6ZM299.29688 301.225L299.29688 300.00626L300.35938 300.00626L300.35938 301.225L299.29688 301.225ZM299.29688 308.6L299.29688 302.38126L300.35938 302.38126L300.35938 308.6L299.29688 308.6ZM302.29688 308.6L302.29688 302.38126L303.23438 302.38126L303.23438 303.25626Q303.92188 302.24063 305.21875 302.24063Q305.78125 302.24063 306.25 302.44376Q306.73438 302.64688 306.96875 302.975Q307.20312 303.30313 307.29688 303.74063Q307.34375 304.0375 307.34375 304.77188L307.34375 308.6L306.29688 308.6L306.29688 304.81876Q306.29688 304.1625 306.17188 303.85Q306.04688 303.5375 305.73438 303.35Q305.42188 303.14688 305.0 303.14688Q304.32812 303.14688 303.82812 303.58438Q303.34375 304.00626 303.34375 305.19376L303.34375 308.6L302.29688 308.6ZM311.59375 307.6625L311.75 308.58438Q311.29688 308.67813 310.95312 308.67813Q310.375 308.67813 310.0625 308.50626Q309.75 308.31876 309.60938 308.02188Q309.48438 307.725 309.48438 306.77188L309.48438 303.19376L308.71875 303.19376L308.71875 302.38126L309.48438 302.38126L309.48438 300.83438L310.53125 300.20938L310.53125 302.38126L311.59375 302.38126L311.59375 303.19376L310.53125 303.19376L310.53125 306.83438Q310.53125 307.2875 310.57812 307.4125Q310.64062 307.5375 310.76562 307.61563Q310.89062 307.69376 311.125 307.69376Q311.3125 307.69376 311.59375 307.6625ZM315.0 306.33438L316.0625 306.19376Q316.23438 307.08438 316.67188 307.49063Q317.10938 307.88126 317.73438 307.88126Q318.48438 307.88126 319.0 307.36563Q319.51562 306.85 319.51562 306.08438Q319.51562 305.36563 319.03125 304.89688Q318.5625 304.4125 317.82812 304.4125Q317.53125 304.4125 317.07812 304.5375L317.20312 303.6Q317.3125 303.61563 317.375 303.61563Q318.04688 303.61563 318.57812 303.27188Q319.125 302.9125 319.125 302.17813Q319.125 301.6 318.73438 301.225Q318.34375 300.83438 317.71875 300.83438Q317.10938 300.83438 316.6875 301.225Q316.28125 301.61563 316.17188 302.38126L315.10938 302.19376Q315.29688 301.14688 315.98438 300.56876Q316.67188 299.975 317.6875 299.975Q318.39062 299.975 318.98438 300.2875Q319.57812 300.58438 319.89062 301.1Q320.20312 301.61563 320.20312 302.20938Q320.20312 302.75626 319.90625 303.225Q319.60938 303.67813 319.03125 303.94376Q319.78125 304.11563 320.20312 304.67813Q320.625 305.225 320.625 306.06876Q320.625 307.19376 319.79688 307.975Q318.98438 308.75626 317.73438 308.75626Q316.60938 308.75626 315.85938 308.08438Q315.10938 307.39688 315.0 306.33438Z" fill-rule="nonzero"/><path fill="#000000" d="M366.08688 305.83438L367.14938 305.74063Q367.2275 306.39688 367.50876 306.80313Q367.79 307.20938 368.36813 307.475Q368.96188 307.725 369.69626 307.725Q370.33688 307.725 370.83688 307.5375Q371.33688 307.33438 371.57126 307.00626Q371.82126 306.6625 371.82126 306.27188Q371.82126 305.86563 371.58688 305.56876Q371.3525 305.25626 370.82126 305.05313Q370.46188 304.9125 369.27438 304.63126Q368.1025 304.35 367.63376 304.1Q367.00876 303.77188 366.71188 303.30313Q366.415 302.81876 366.415 302.225Q366.415 301.58438 366.77438 301.02188Q367.14938 300.44376 367.8525 300.1625Q368.57126 299.86563 369.43063 299.86563Q370.38376 299.86563 371.11813 300.17813Q371.8525 300.475 372.24313 301.08438Q372.63376 301.67813 372.665 302.42813L371.57126 302.50626Q371.4775 301.69376 370.96188 301.2875Q370.46188 300.86563 369.4775 300.86563Q368.44626 300.86563 367.9775 301.24063Q367.50876 301.61563 367.50876 302.14688Q367.50876 302.61563 367.83688 302.9125Q368.165 303.20938 369.54 303.52188Q370.93063 303.83438 371.44626 304.06876Q372.19626 304.42813 372.55563 304.95938Q372.915 305.475 372.915 306.17813Q372.915 306.86563 372.52438 307.475Q372.13376 308.06876 371.39938 308.4125Q370.665 308.74063 369.74313 308.74063Q368.57126 308.74063 367.77438 308.4125Q366.99313 308.06876 366.54 307.38126Q366.1025 306.69376 366.08688 305.83438ZM374.33688 310.99063L374.33688 302.38126L375.29 302.38126L375.29 303.17813Q375.63376 302.70938 376.05563 302.475Q376.49313 302.24063 377.1025 302.24063Q377.89938 302.24063 378.50876 302.64688Q379.11813 303.05313 379.415 303.80313Q379.7275 304.55313 379.7275 305.44376Q379.7275 306.39688 379.38376 307.1625Q379.05563 307.92813 378.39938 308.33438Q377.74313 308.74063 377.02438 308.74063Q376.49313 308.74063 376.07126 308.52188Q375.64938 308.2875 375.38376 307.95938L375.38376 310.99063L374.33688 310.99063ZM375.29 305.52188Q375.29 306.725 375.77438 307.30313Q376.25876 307.86563 376.94626 307.86563Q377.64938 307.86563 378.14938 307.27188Q378.64938 306.67813 378.64938 305.42813Q378.64938 304.24063 378.165 303.6625Q377.68063 303.06876 376.99313 303.06876Q376.32126 303.06876 375.80563 303.69376Q375.29 304.31876 375.29 305.52188ZM381.32126 308.6L381.32126 302.38126L382.27438 302.38126L382.27438 303.31876Q382.63376 302.6625 382.93063 302.45938Q383.24313 302.24063 383.61813 302.24063Q384.14938 302.24063 384.69626 302.56876L384.33688 303.55313Q383.94626 303.31876 383.57126 303.31876Q383.21188 303.31876 382.93063 303.5375Q382.665 303.74063 382.55563 304.11563Q382.36813 304.67813 382.36813 305.33438L382.36813 308.6L381.32126 308.6ZM385.33688 301.225L385.33688 300.00626L386.39938 300.00626L386.39938 301.225L385.33688 301.225ZM385.33688 308.6L385.33688 302.38126L386.39938 302.38126L386.39938 308.6L385.33688 308.6ZM388.33688 308.6L388.33688 302.38126L389.27438 302.38126L389.27438 303.25626Q389.96188 302.24063 391.25876 302.24063Q391.82126 302.24063 392.29 302.44376Q392.77438 302.64688 393.00876 302.975Q393.24313 303.30313 393.33688 303.74063Q393.38376 304.0375 393.38376 304.77188L393.38376 308.6L392.33688 308.6L392.33688 304.81876Q392.33688 304.1625 392.21188 303.85Q392.08688 303.5375 391.77438 303.35Q391.46188 303.14688 391.04 303.14688Q390.36813 303.14688 389.86813 303.58438Q389.38376 304.00626 389.38376 305.19376L389.38376 308.6L388.33688 308.6ZM397.63376 307.6625L397.79 308.58438Q397.33688 308.67813 396.99313 308.67813Q396.415 308.67813 396.1025 308.50626Q395.79 308.31876 395.64938 308.02188Q395.52438 307.725 395.52438 306.77188L395.52438 303.19376L394.75876 303.19376L394.75876 302.38126L395.52438 302.38126L395.52438 300.83438L396.57126 300.20938L396.57126 302.38126L397.63376 302.38126L397.63376 303.19376L396.57126 303.19376L396.57126 306.83438Q396.57126 307.2875 396.61813 307.4125Q396.68063 307.5375 396.80563 307.61563Q396.93063 307.69376 397.165 307.69376Q397.3525 307.69376 397.63376 307.6625ZM404.415 308.6L404.415 306.5375L400.69626 306.5375L400.69626 305.56876L404.61813 300.00626L405.4775 300.00626L405.4775 305.56876L406.63376 305.56876L406.63376 306.5375L405.4775 306.5375L405.4775 308.6L404.415 308.6ZM404.415 305.56876L404.415 301.70938L401.7275 305.56876L404.415 305.56876Z" fill-rule="nonzero"/><path fill="#000000" d="M452.12686 305.83438L453.18936 305.74063Q453.2675 306.39688 453.54874 306.80313Q453.83 307.20938 454.4081 307.475Q455.00186 307.725 455.73624 307.725Q456.37686 307.725 456.87686 307.5375Q457.37686 307.33438 457.61124 307.00626Q457.86124 306.6625 457.86124 306.27188Q457.86124 305.86563 457.62686 305.56876Q457.3925 305.25626 456.86124 305.05313Q456.50186 304.9125 455.31436 304.63126Q454.1425 304.35 453.67374 304.1Q453.04874 303.77188 452.75186 303.30313Q452.455 302.81876 452.455 302.225Q452.455 301.58438 452.81436 301.02188Q453.18936 300.44376 453.8925 300.1625Q454.61124 299.86563 455.4706 299.86563Q456.42374 299.86563 457.1581 300.17813Q457.8925 300.475 458.2831 301.08438Q458.67374 301.67813 458.705 302.42813L457.61124 302.50626Q457.5175 301.69376 457.00186 301.2875Q456.50186 300.86563 455.5175 300.86563Q454.48624 300.86563 454.0175 301.24063Q453.54874 301.61563 453.54874 302.14688Q453.54874 302.61563 453.87686 302.9125Q454.205 303.20938 455.58 303.52188Q456.9706 303.83438 457.48624 304.06876Q458.23624 304.42813 458.5956 304.95938Q458.955 305.475 458.955 306.17813Q458.955 306.86563 458.56436 307.475Q458.17374 308.06876 457.43936 308.4125Q456.705 308.74063 455.7831 308.74063Q454.61124 308.74063 453.81436 308.4125Q453.0331 308.06876 452.58 307.38126Q452.1425 306.69376 452.12686 305.83438ZM460.37686 310.99063L460.37686 302.38126L461.33 302.38126L461.33 303.17813Q461.67374 302.70938 462.0956 302.475Q462.5331 302.24063 463.1425 302.24063Q463.93936 302.24063 464.54874 302.64688Q465.1581 303.05313 465.455 303.80313Q465.7675 304.55313 465.7675 305.44376Q465.7675 306.39688 465.42374 307.1625Q465.0956 307.92813 464.43936 308.33438Q463.7831 308.74063 463.06436 308.74063Q462.5331 308.74063 462.11124 308.52188Q461.68936 308.2875 461.42374 307.95938L461.42374 310.99063L460.37686 310.99063ZM461.33 305.52188Q461.33 306.725 461.81436 307.30313Q462.29874 307.86563 462.98624 307.86563Q463.68936 307.86563 464.18936 307.27188Q464.68936 306.67813 464.68936 305.42813Q464.68936 304.24063 464.205 303.6625Q463.7206 303.06876 463.0331 303.06876Q462.36124 303.06876 461.8456 303.69376Q461.33 304.31876 461.33 305.52188ZM467.36124 308.6L467.36124 302.38126L468.31436 302.38126L468.31436 303.31876Q468.67374 302.6625 468.9706 302.45938Q469.2831 302.24063 469.6581 302.24063Q470.18936 302.24063 470.73624 302.56876L470.37686 303.55313Q469.98624 303.31876 469.61124 303.31876Q469.25186 303.31876 468.9706 303.5375Q468.705 303.74063 468.5956 304.11563Q468.4081 304.67813 468.4081 305.33438L468.4081 308.6L467.36124 308.6ZM471.37686 301.225L471.37686 300.00626L472.43936 300.00626L472.43936 301.225L471.37686 301.225ZM471.37686 308.6L471.37686 302.38126L472.43936 302.38126L472.43936 308.6L471.37686 308.6ZM474.37686 308.6L474.37686 302.38126L475.31436 302.38126L475.31436 303.25626Q476.00186 302.24063 477.29874 302.24063Q477.86124 302.24063 478.33 302.44376Q478.81436 302.64688 479.04874 302.975Q479.2831 303.30313 479.37686 303.74063Q479.42374 304.0375 479.42374 304.77188L479.42374 308.6L478.37686 308.6L478.37686 304.81876Q478.37686 304.1625 478.25186 303.85Q478.12686 303.5375 477.81436 303.35Q477.50186 303.14688 477.08 303.14688Q476.4081 303.14688 475.9081 303.58438Q475.42374 304.00626 475.42374 305.19376L475.42374 308.6L474.37686 308.6ZM483.67374 307.6625L483.83 308.58438Q483.37686 308.67813 483.0331 308.67813Q482.455 308.67813 482.1425 308.50626Q481.83 308.31876 481.68936 308.02188Q481.56436 307.725 481.56436 306.77188L481.56436 303.19376L480.79874 303.19376L480.79874 302.38126L481.56436 302.38126L481.56436 300.83438L482.61124 300.20938L482.61124 302.38126L483.67374 302.38126L483.67374 303.19376L482.61124 303.19376L482.61124 306.83438Q482.61124 307.2875 482.6581 307.4125Q482.7206 307.5375 482.8456 307.61563Q482.9706 307.69376 483.205 307.69376Q483.3925 307.69376 483.67374 307.6625ZM487.08 306.35L488.18936 306.25626Q488.31436 307.06876 488.75186 307.475Q489.205 307.88126 489.8456 307.88126Q490.5956 307.88126 491.12686 307.30313Q491.6581 306.725 491.6581 305.7875Q491.6581 304.88126 491.1425 304.36563Q490.6425 303.83438 489.81436 303.83438Q489.31436 303.83438 488.8925 304.06876Q488.48624 304.30313 488.25186 304.6625L487.2675 304.5375L488.0956 300.13126L492.37686 300.13126L492.37686 301.13126L488.93936 301.13126L488.48624 303.44376Q489.25186 302.89688 490.0956 302.89688Q491.2206 302.89688 491.98624 303.67813Q492.7675 304.45938 492.7675 305.69376Q492.7675 306.85 492.0956 307.70938Q491.2675 308.74063 489.8456 308.74063Q488.67374 308.74063 487.92374 308.08438Q487.18936 307.42813 487.08 306.35Z" fill-rule="nonzero"/><path fill="#4285f4" d="M144.5 23.4C144.5 26.713709 141.8137 29.4 138.5 29.4C135.1863 29.4 132.5 26.713709 132.5 23.4C132.5 20.086292 135.1863 17.4 138.5 17.4C141.8137 17.4 144.5 20.086292 144.5 23.4Z" fill-rule="nonzero"/><path fill="#1a1a1a" d="M159.5625 24.384375L160.6875 24.68125Q160.32812 26.071875 159.40625 26.80625Q158.48438 27.540625 157.14062 27.540625Q155.75 27.540625 154.875 26.978125Q154.0 26.415625 153.54688 25.353125Q153.09375 24.275 153.09375 23.040625Q153.09375 21.696875 153.60938 20.696875Q154.125 19.696875 155.0625 19.18125Q156.01562 18.665625 157.15625 18.665625Q158.4375 18.665625 159.3125 19.321875Q160.20312 19.978125 160.54688 21.165625L159.42188 21.43125Q159.125 20.49375 158.54688 20.071875Q157.98438 19.634375 157.125 19.634375Q156.14062 19.634375 155.46875 20.11875Q154.8125 20.5875 154.53125 21.384375Q154.26562 22.18125 154.26562 23.040625Q154.26562 24.134375 154.57812 24.946875Q154.90625 25.759375 155.57812 26.165625Q156.25 26.571875 157.04688 26.571875Q158.0 26.571875 158.65625 26.025Q159.32812 25.478125 159.5625 24.384375ZM164.875 27.4L161.54688 18.80625L162.78125 18.80625L165.01562 25.05625Q165.28125 25.80625 165.46875 26.4625Q165.67188 25.759375 165.9375 25.05625L168.25 18.80625L169.40625 18.80625L166.04688 27.4L164.875 27.4Z" fill-rule="nonzero"/><path fill="#ea4335" d="M196.5 23.4C196.5 26.713709 193.8137 29.4 190.5 29.4C187.1863 29.4 184.5 26.713709 184.5 23.4C184.5 20.086292 187.1863 17.4 190.5 17.4C193.8137 17.4 196.5 20.086292 196.5 23.4Z" fill-rule="nonzero"/><path fill="#1a1a1a" d="M205.04688 24.634375L206.10938 24.540625Q206.1875 25.196875 206.46875 25.603125Q206.75 26.009375 207.32812 26.275Q207.92188 26.525 208.65625 26.525Q209.29688 26.525 209.79688 26.3375Q210.29688 26.134375 210.53125 25.80625Q210.78125 25.4625 210.78125 25.071875Q210.78125 24.665625 210.54688 24.36875Q210.3125 24.05625 209.78125 23.853125Q209.42188 23.7125 208.23438 23.43125Q207.0625 23.15 206.59375 22.9Q205.96875 22.571875 205.67188 22.103125Q205.375 21.61875 205.375 21.025Q205.375 20.384375 205.73438 19.821875Q206.10938 19.24375 206.8125 18.9625Q207.53125 18.665625 208.39062 18.665625Q209.34375 18.665625 210.07812 18.978125Q210.8125 19.275 211.20312 19.884375Q211.59375 20.478125 211.625 21.228125L210.53125 21.30625Q210.4375 20.49375 209.92188 20.0875Q209.42188 19.665625 208.4375 19.665625Q207.40625 19.665625 206.9375 20.040625Q206.46875 20.415625 206.46875 20.946875Q206.46875 21.415625 206.79688 21.7125Q207.125 22.009375 208.5 22.321875Q209.89062 22.634375 210.40625 22.86875Q211.15625 23.228125 211.51562 23.759375Q211.875 24.275 211.875 24.978125Q211.875 25.665625 211.48438 26.275Q211.09375 26.86875 210.35938 27.2125Q209.625 27.540625 208.70312 27.540625Q207.53125 27.540625 206.73438 27.2125Q205.95312 26.86875 205.5 26.18125Q205.0625 25.49375 205.04688 24.634375ZM215.875 27.4L212.54688 18.80625L213.78125 18.80625L216.01562 25.05625Q216.28125 25.80625 216.46875 26.4625Q216.67188 25.759375 216.9375 25.05625L219.25 18.80625L220.40625 18.80625L217.04688 27.4L215.875 27.4Z" fill-rule="nonzero"/><path fill="#fbbc04" fill-opacity="0.7019608" d="M247.5 23.4C247.5 26.713709 244.8137 29.4 241.5 29.4C238.1863 29.4 235.5 26.713709 235.5 23.4C235.5 20.086292 238.1863 17.4 241.5 17.4C244.8137 17.4 247.5 20.086292 247.5 23.4Z" fill-rule="nonzero"/><path fill="#1a1a1a" d="M256.375 27.4L256.375 18.80625L257.51562 18.80625L257.51562 26.384375L261.75 26.384375L261.75 27.4L256.375 27.4ZM263.29688 20.025L263.29688 18.80625L264.35938 18.80625L264.35938 20.025L263.29688 20.025ZM263.29688 27.4L263.29688 21.18125L264.35938 21.18125L264.35938 27.4L263.29688 27.4ZM266.29688 27.4L266.29688 21.18125L267.23438 21.18125L267.23438 22.05625Q267.53125 21.5875 268.01562 21.321875Q268.5 21.040625 269.125 21.040625Q269.8125 21.040625 270.25 21.321875Q270.70312 21.603125 270.875 22.11875Q271.625 21.040625 272.79688 21.040625Q273.73438 21.040625 274.21875 21.55625Q274.71875 22.05625 274.71875 23.134375L274.71875 27.4L273.67188 27.4L273.67188 23.478125Q273.67188 22.853125 273.5625 22.571875Q273.46875 22.290625 273.20312 22.11875Q272.9375 21.946875 272.5625 21.946875Q271.90625 21.946875 271.46875 22.384375Q271.04688 22.821875 271.04688 23.790625L271.04688 27.4L269.98438 27.4L269.98438 23.353125Q269.98438 22.65 269.71875 22.30625Q269.46875 21.946875 268.89062 21.946875Q268.4375 21.946875 268.0625 22.18125Q267.6875 22.415625 267.51562 22.86875Q267.34375 23.321875 267.34375 24.165625L267.34375 27.4L266.29688 27.4ZM277.29688 20.025L277.29688 18.80625L278.35938 18.80625L278.35938 20.025L277.29688 20.025ZM277.29688 27.4L277.29688 21.18125L278.35938 21.18125L278.35938 27.4L277.29688 27.4ZM282.59375 26.4625L282.75 27.384375Q282.29688 27.478125 281.95312 27.478125Q281.375 27.478125 281.0625 27.30625Q280.75 27.11875 280.60938 26.821875Q280.48438 26.525 280.48438 25.571875L280.48438 21.99375L279.71875 21.99375L279.71875 21.18125L280.48438 21.18125L280.48438 19.634375L281.53125 19.009375L281.53125 21.18125L282.59375 21.18125L282.59375 21.99375L281.53125 21.99375L281.53125 25.634375Q281.53125 26.0875 281.57812 26.2125Q281.64062 26.3375 281.76562 26.415625Q281.89062 26.49375 282.125 26.49375Q282.3125 26.49375 282.59375 26.4625ZM287.54688 25.4L288.64062 25.525Q288.39062 26.478125 287.6875 27.009375Q286.98438 27.540625 285.90625 27.540625Q284.54688 27.540625 283.73438 26.696875Q282.9375 25.853125 282.9375 24.3375Q282.9375 22.775 283.75 21.915625Q284.5625 21.040625 285.84375 21.040625Q287.09375 21.040625 287.875 21.884375Q288.67188 22.728125 288.67188 24.275Q288.67188 24.36875 288.67188 24.55625L284.03125 24.55625Q284.09375 25.5875 284.60938 26.134375Q285.125 26.665625 285.90625 26.665625Q286.48438 26.665625 286.89062 26.36875Q287.3125 26.05625 287.54688 25.4ZM284.09375 23.696875L287.5625 23.696875Q287.5 22.9 287.17188 22.509375Q286.65625 21.9 285.85938 21.9Q285.125 21.9 284.625 22.384375Q284.14062 22.86875 284.09375 23.696875ZM292.875 25.540625L293.90625 25.384375Q294.0 26.009375 294.39062 26.3375Q294.79688 26.665625 295.53125 26.665625Q296.25 26.665625 296.59375 26.384375Q296.95312 26.0875 296.95312 25.68125Q296.95312 25.321875 296.64062 25.11875Q296.42188 24.978125 295.5625 24.759375Q294.40625 24.4625 293.95312 24.259375Q293.51562 24.040625 293.28125 23.665625Q293.04688 23.290625 293.04688 22.821875Q293.04688 22.415625 293.23438 22.05625Q293.42188 21.696875 293.75 21.4625Q294.0 21.290625 294.42188 21.165625Q294.84375 21.040625 295.34375 21.040625Q296.0625 21.040625 296.60938 21.259375Q297.17188 21.4625 297.4375 21.821875Q297.70312 22.18125 297.79688 22.775L296.76562 22.915625Q296.70312 22.446875 296.35938 22.18125Q296.03125 21.9 295.40625 21.9Q294.6875 21.9 294.375 22.15Q294.0625 22.384375 294.0625 22.7125Q294.0625 22.915625 294.1875 23.071875Q294.32812 23.24375 294.59375 23.353125Q294.75 23.415625 295.53125 23.61875Q296.65625 23.93125 297.09375 24.11875Q297.53125 24.30625 297.78125 24.665625Q298.03125 25.025 298.03125 25.571875Q298.03125 26.103125 297.71875 26.571875Q297.42188 27.025 296.84375 27.290625Q296.26562 27.540625 295.53125 27.540625Q294.3125 27.540625 293.67188 27.040625Q293.04688 26.525 292.875 25.540625ZM304.375 27.4L304.375 26.478125Q303.64062 27.540625 302.39062 27.540625Q301.84375 27.540625 301.35938 27.3375Q300.89062 27.11875 300.65625 26.80625Q300.42188 26.478125 300.32812 26.009375Q300.26562 25.7125 300.26562 25.025L300.26562 21.18125L301.32812 21.18125L301.32812 24.634375Q301.32812 25.446875 301.39062 25.74375Q301.48438 26.15 301.79688 26.4Q302.125 26.634375 302.60938 26.634375Q303.07812 26.634375 303.48438 26.4Q303.90625 26.15 304.07812 25.728125Q304.26562 25.30625 304.26562 24.509375L304.26562 21.18125L305.3125 21.18125L305.3125 27.4L304.375 27.4ZM307.29688 29.790625L307.29688 21.18125L308.25 21.18125L308.25 21.978125Q308.59375 21.509375 309.01562 21.275Q309.45312 21.040625 310.0625 21.040625Q310.85938 21.040625 311.46875 21.446875Q312.07812 21.853125 312.375 22.603125Q312.6875 23.353125 312.6875 24.24375Q312.6875 25.196875 312.34375 25.9625Q312.01562 26.728125 311.35938 27.134375Q310.70312 27.540625 309.98438 27.540625Q309.45312 27.540625 309.03125 27.321875Q308.60938 27.0875 308.34375 26.759375L308.34375 29.790625L307.29688 29.790625ZM308.25 24.321875Q308.25 25.525 308.73438 26.103125Q309.21875 26.665625 309.90625 26.665625Q310.60938 26.665625 311.10938 26.071875Q311.60938 25.478125 311.60938 24.228125Q311.60938 23.040625 311.125 22.4625Q310.64062 21.86875 309.95312 21.86875Q309.28125 21.86875 308.76562 22.49375Q308.25 23.11875 308.25 24.321875Z" fill-rule="nonzero"/><path fill="#34a853" d="M341.5 23.4C341.5 26.713709 338.81372 29.4 335.5 29.4C332.18628 29.4 329.5 26.713709 329.5 23.4C329.5 20.086292 332.18628 17.4 335.5 17.4C338.81372 17.4 341.5 20.086292 341.5 23.4Z" fill-rule="nonzero"/><path fill="#1a1a1a" d="M350.375 27.4L350.375 18.80625L351.51562 18.80625L351.51562 26.384375L355.75 26.384375L355.75 27.4L350.375 27.4ZM357.29688 20.025L357.29688 18.80625L358.35938 18.80625L358.35938 20.025L357.29688 20.025ZM357.29688 27.4L357.29688 21.18125L358.35938 21.18125L358.35938 27.4L357.29688 27.4ZM360.29688 27.4L360.29688 21.18125L361.23438 21.18125L361.23438 22.05625Q361.53125 21.5875 362.01562 21.321875Q362.5 21.040625 363.125 21.040625Q363.8125 21.040625 364.25 21.321875Q364.70312 21.603125 364.875 22.11875Q365.625 21.040625 366.79688 21.040625Q367.73438 21.040625 368.21875 21.55625Q368.71875 22.05625 368.71875 23.134375L368.71875 27.4L367.67188 27.4L367.67188 23.478125Q367.67188 22.853125 367.5625 22.571875Q367.46875 22.290625 367.20312 22.11875Q366.9375 21.946875 366.5625 21.946875Q365.90625 21.946875 365.46875 22.384375Q365.04688 22.821875 365.04688 23.790625L365.04688 27.4L363.98438 27.4L363.98438 23.353125Q363.98438 22.65 363.71875 22.30625Q363.46875 21.946875 362.89062 21.946875Q362.4375 21.946875 362.0625 22.18125Q361.6875 22.415625 361.51562 22.86875Q361.34375 23.321875 361.34375 24.165625L361.34375 27.4L360.29688 27.4ZM371.29688 20.025L371.29688 18.80625L372.35938 18.80625L372.35938 20.025L371.29688 20.025ZM371.29688 27.4L371.29688 21.18125L372.35938 21.18125L372.35938 27.4L371.29688 27.4ZM376.59375 26.4625L376.75 27.384375Q376.29688 27.478125 375.95312 27.478125Q375.375 27.478125 375.0625 27.30625Q374.75 27.11875 374.60938 26.821875Q374.48438 26.525 374.48438 25.571875L374.48438 21.99375L373.71875 21.99375L373.71875 21.18125L374.48438 21.18125L374.48438 19.634375L375.53125 19.009375L375.53125 21.18125L376.59375 21.18125L376.59375 21.99375L375.53125 21.99375L375.53125 25.634375Q375.53125 26.0875 375.57812 26.2125Q375.64062 26.3375 375.76562 26.415625Q375.89062 26.49375 376.125 26.49375Q376.3125 26.49375 376.59375 26.4625ZM381.54688 25.4L382.64062 25.525Q382.39062 26.478125 381.6875 27.009375Q380.98438 27.540625 379.90625 27.540625Q378.54688 27.540625 377.73438 26.696875Q376.9375 25.853125 376.9375 24.3375Q376.9375 22.775 377.75 21.915625Q378.5625 21.040625 379.84375 21.040625Q381.09375 21.040625 381.875 21.884375Q382.67188 22.728125 382.67188 24.275Q382.67188 24.36875 382.67188 24.55625L378.03125 24.55625Q378.09375 25.5875 378.60938 26.134375Q379.125 26.665625 379.90625 26.665625Q380.48438 26.665625 380.89062 26.36875Q381.3125 26.05625 381.54688 25.4ZM378.09375 23.696875L381.5625 23.696875Q381.5 22.9 381.17188 22.509375Q380.65625 21.9 379.85938 21.9Q379.125 21.9 378.625 22.384375Q378.14062 22.86875 378.09375 23.696875ZM387.29688 20.025L387.29688 18.80625L388.35938 18.80625L388.35938 20.025L387.29688 20.025ZM387.29688 27.4L387.29688 21.18125L388.35938 21.18125L388.35938 27.4L387.29688 27.4ZM390.29688 27.4L390.29688 21.18125L391.23438 21.18125L391.23438 22.05625Q391.92188 21.040625 393.21875 21.040625Q393.78125 21.040625 394.25 21.24375Q394.73438 21.446875 394.96875 21.775Q395.20312 22.103125 395.29688 22.540625Q395.34375 22.8375 395.34375 23.571875L395.34375 27.4L394.29688 27.4L394.29688 23.61875Q394.29688 22.9625 394.17188 22.65Q394.04688 22.3375 393.73438 22.15Q393.42188 21.946875 393.0 21.946875Q392.32812 21.946875 391.82812 22.384375Q391.34375 22.80625 391.34375 23.99375L391.34375 27.4L390.29688 27.4ZM397.54688 27.4L397.54688 21.99375L396.60938 21.99375L396.60938 21.18125L397.54688 21.18125L397.54688 20.509375Q397.54688 19.884375 397.65625 19.5875Q397.8125 19.165625 398.1875 18.915625Q398.57812 18.665625 399.26562 18.665625Q399.71875 18.665625 400.25 18.775L400.09375 19.68125Q399.76562 19.634375 399.46875 19.634375Q398.98438 19.634375 398.78125 19.8375Q398.59375 20.040625 398.59375 20.603125L398.59375 21.18125L399.8125 21.18125L399.8125 21.99375L398.59375 21.99375L398.59375 27.4L397.54688 27.4Z" fill-rule="nonzero"/></svg>