<svg version="1.1" viewBox="0.0 0.0 492.0 303.0" fill="none" stroke="none" stroke-linecap="square" stroke-miterlimit="10" width="492" height="303" xmlns:xlink="http://www.w3.org/1999/xlink" xmlns="http://www.w3.org/2000/svg"><path fill="#ffffff" d="M0 0L492.0 0L492.0 303.0L0 303.0L0 0Z" fill-rule="nonzero"/><path stroke="#cccccc" stroke-width="1.0" stroke-linecap="butt" d="M121.5 261.5L476.5 261.5" fill-rule="nonzero"/><path stroke="#cccccc" stroke-width="1.0" stroke-linecap="butt" d="M121.5 231.5L476.5 231.5" fill-rule="nonzero"/><path stroke="#cccccc" stroke-width="1.0" stroke-linecap="butt" d="M121.5 200.5L476.5 200.5" fill-rule="nonzero"/><path stroke="#cccccc" stroke-width="1.0" stroke-linecap="butt" d="M121.5 169.5L476.5 169.5" fill-rule="nonzero"/><path stroke="#cccccc" stroke-width="1.0" stroke-linecap="butt" d="M121.5 138.5L476.5 138.5" fill-rule="nonzero"/><path stroke="#cccccc" stroke-width="1.0" stroke-linecap="butt" d="M121.5 107.5L476.5 107.5" fill-rule="nonzero"/><path stroke="#cccccc" stroke-width="1.0" stroke-linecap="butt" d="M121.5 77.5L476.5 77.5" fill-rule="nonzero"/><path stroke="#cccccc" stroke-width="1.0" stroke-linecap="butt" d="M121.5 46.5L476.5 46.5" fill-rule="nonzero"/><path stroke="#000000" stroke-width="1.0" stroke-linecap="butt" stroke-opacity="0.0" d="M121.5 251.5L476.5 251.5" fill-rule="nonzero"/><path stroke="#000000" stroke-width="1.0" stroke-linecap="butt" stroke-opacity="0.0" d="M121.5 241.5L476.5 241.5" fill-rule="nonzero"/><path stroke="#000000" stroke-width="1.0" stroke-linecap="butt" stroke-opacity="0.0" d="M121.5 220.5L476.5 220.5" fill-rule="nonzero"/><path stroke="#000000" stroke-width="1.0" stroke-linecap="butt" stroke-opacity="0.0" d="M121.5 210.5L476.5 210.5" fill-rule="nonzero"/><path stroke="#000000" stroke-width="1.0" stroke-linecap="butt" stroke-opacity="0.0" d="M121.5 189.5L476.5 189.5" fill-rule="nonzero"/><path stroke="#000000" stroke-width="1.0" stroke-linecap="butt" stroke-opacity="0.0" d="M121.5 179.5L476.5 179.5" fill-rule="nonzero"/><path stroke="#000000" stroke-width="1.0" stroke-linecap="butt" stroke-opacity="0.0" d="M121.5 159.5L476.5 159.5" fill-rule="nonzero"/><path stroke="#000000" stroke-width="1.0" stroke-linecap="butt" stroke-opacity="0.0" d="M121.5 148.5L476.5 148.5" fill-rule="nonzero"/><path stroke="#000000" stroke-width="1.0" stroke-linecap="butt" stroke-opacity="0.0" d="M121.5 128.5L476.5 128.5" fill-rule="nonzero"/><path stroke="#000000" stroke-width="1.0" stroke-linecap="butt" stroke-opacity="0.0" d="M121.5 118.5L476.5 118.5" fill-rule="nonzero"/><path stroke="#000000" stroke-width="1.0" stroke-linecap="butt" stroke-opacity="0.0" d="M121.5 97.5L476.5 97.5" fill-rule="nonzero"/><path stroke="#000000" stroke-width="1.0" stroke-linecap="butt" stroke-opacity="0.0" d="M121.5 87.5L476.5 87.5" fill-rule="nonzero"/><path stroke="#000000" stroke-width="1.0" stroke-linecap="butt" stroke-opacity="0.0" d="M121.5 66.5L476.5 66.5" fill-rule="nonzero"/><path stroke="#000000" stroke-width="1.0" stroke-linecap="butt" stroke-opacity="0.0" d="M121.5 56.5L476.5 56.5" fill-rule="nonzero"/><path stroke="#000000" stroke-width="1.0" stroke-linecap="butt" d="M476.5 261.5L121.5 261.5" fill-rule="nonzero"/><path stroke="#000000" stroke-width="1.0" stroke-linecap="butt" d="M121.5 261.5L121.5 46.5" fill-rule="nonzero"/><clipPath id="id_0"><path d="M121.15 46.25L476.85 46.25L476.85 261.85L121.15 261.85L121.15 46.25Z" clip-rule="nonzero"/></clipPath><path stroke="#4285f4" stroke-width="2.0" stroke-linecap="butt" clip-path="url(#id_0)" d="M165.6125 109.544L254.5375 109.544L343.4625 109.544L432.3875 109.544" fill-rule="nonzero"/><path stroke="#ea4335" stroke-width="2.0" stroke-linecap="butt" clip-path="url(#id_0)" d="M165.6125 74.86446L254.5375 86.61349L343.4625 96.89113L432.3875 98.99519" fill-rule="nonzero"/><path fill="#4285f4" clip-path="url(#id_0)" d="M169.1125 109.544C169.1125 111.477 167.5455 113.044 165.6125 113.044C163.6795 113.044 162.1125 111.477 162.1125 109.544C162.1125 107.611 163.6795 106.044 165.6125 106.044C167.5455 106.044 169.1125 107.611 169.1125 109.544Z" fill-rule="nonzero"/><path fill="#4285f4" clip-path="url(#id_0)" d="M258.0375 109.544C258.0375 111.477 256.4705 113.044 254.5375 113.044C252.6045 113.044 251.0375 111.477 251.0375 109.544C251.0375 107.611 252.6045 106.044 254.5375 106.044C256.4705 106.044 258.0375 107.611 258.0375 109.544Z" fill-rule="nonzero"/><path fill="#4285f4" clip-path="url(#id_0)" d="M346.9625 109.544C346.9625 111.477 345.3955 113.044 343.4625 113.044C341.5295 113.044 339.9625 111.477 339.9625 109.544C339.9625 107.611 341.5295 106.044 343.4625 106.044C345.3955 106.044 346.9625 107.611 346.9625 109.544Z" fill-rule="nonzero"/><path fill="#4285f4" clip-path="url(#id_0)" d="M435.8875 109.544C435.8875 111.477 434.3205 113.044 432.3875 113.044C430.4545 113.044 428.8875 111.477 428.8875 109.544C428.8875 107.611 430.4545 106.044 432.3875 106.044C434.3205 106.044 435.8875 107.611 435.8875 109.544Z" fill-rule="nonzero"/><path fill="#ea4335" clip-path="url(#id_0)" d="M169.1125 74.86446C169.1125 76.79746 167.5455 78.36446 165.6125 78.36446C163.6795 78.36446 162.1125 76.79746 162.1125 74.86446C162.1125 72.93147 163.6795 71.36446 165.6125 71.36446C167.5455 71.36446 169.1125 72.93147 169.1125 74.86446Z" fill-rule="nonzero"/><path fill="#ea4335" clip-path="url(#id_0)" d="M258.0375 86.61349C258.0375 88.546486 256.4705 90.11349 254.5375 90.11349C252.6045 90.11349 251.0375 88.546486 251.0375 86.61349C251.0375 84.68049 252.6045 83.11349 254.5375 83.11349C256.4705 83.11349 258.0375 84.68049 258.0375 86.61349Z" fill-rule="nonzero"/><path fill="#ea4335" clip-path="url(#id_0)" d="M346.9625 96.89113C346.9625 98.82413 345.3955 100.39113 343.4625 100.39113C341.5295 100.39113 339.9625 98.82413 339.9625 96.89113C339.9625 94.95813 341.5295 93.39113 343.4625 93.39113C345.3955 93.39113 346.9625 94.95813 346.9625 96.89113Z" fill-rule="nonzero"/><path fill="#ea4335" clip-path="url(#id_0)" d="M435.8875 98.99519C435.8875 100.928185 434.3205 102.49519 432.3875 102.49519C430.4545 102.49519 428.8875 100.928185 428.8875 98.99519C428.8875 97.062195 430.4545 95.49519 432.3875 95.49519C434.3205 95.49519 435.8875 97.062195 435.8875 98.99519Z" fill-rule="nonzero"/><path stroke="#000000" stroke-width="1.0" stroke-linecap="butt" d="M165.5 267.5L165.5 255.5" fill-rule="nonzero"/><path stroke="#000000" stroke-width="1.0" stroke-linecap="butt" d="M254.5 267.5L254.5 255.5" fill-rule="nonzero"/><path stroke="#000000" stroke-width="1.0" stroke-linecap="butt" d="M343.5 267.5L343.5 255.5" fill-rule="nonzero"/><path stroke="#000000" stroke-width="1.0" stroke-linecap="butt" d="M432.5 267.5L432.5 255.5" fill-rule="nonzero"/><path stroke="#000000" stroke-width="1.0" stroke-linecap="butt" d="M115.5 261.5L127.5 261.5" fill-rule="nonzero"/><path stroke="#000000" stroke-width="1.0" stroke-linecap="butt" d="M115.5 231.5L127.5 231.5" fill-rule="nonzero"/><path stroke="#000000" stroke-width="1.0" stroke-linecap="butt" d="M115.5 200.5L127.5 200.5" fill-rule="nonzero"/><path stroke="#000000" stroke-width="1.0" stroke-linecap="butt" d="M115.5 169.5L127.5 169.5" fill-rule="nonzero"/><path stroke="#000000" stroke-width="1.0" stroke-linecap="butt" d="M115.5 138.5L127.5 138.5" fill-rule="nonzero"/><path stroke="#000000" stroke-width="1.0" stroke-linecap="butt" d="M115.5 107.5L127.5 107.5" fill-rule="nonzero"/><path stroke="#000000" stroke-width="1.0" stroke-linecap="butt" d="M115.5 77.5L127.5 77.5" fill-rule="nonzero"/><path stroke="#000000" stroke-width="1.0" stroke-linecap="butt" d="M115.5 46.5L127.5 46.5" fill-rule="nonzero"/><path fill="#000000" d="M58.775 258.08438Q57.790627 258.08438 57.134377 258.55313Q56.728127 258.83438 56.4 259.35Q56.071877 259.89688 56.025 260.36563L60.009377 260.36563L59.853127 261.1625L55.93125 261.1625Q55.915627 261.27188 55.915627 261.39688Q55.915627 261.83438 55.93125 261.92813L59.696877 261.92813L59.540627 262.70938L56.05625 262.70938Q56.290627 264.05313 57.228127 264.61563Q57.9 265.02188 58.696877 265.02188Q59.790627 265.02188 60.4 264.44376L60.4 265.6625Q59.665627 265.99063 58.790627 265.99063Q56.134377 265.99063 55.2125 263.7875Q55.025 263.35 54.884377 262.70938L53.978127 262.70938L54.15 261.92813L54.759377 261.92813Q54.74375 261.67813 54.74375 261.39688Q54.74375 261.27188 54.759377 261.1625L53.978127 261.1625L54.15 260.36563L54.8375 260.36563Q55.196877 258.45938 56.728127 257.63126Q57.665627 257.11563 58.80625 257.11563Q59.9 257.11563 60.634377 257.58438L60.4 258.67813Q59.68125 258.08438 58.775 258.08438ZM63.275 261.19376Q62.61875 260.94376 62.290627 260.50626Q61.978127 260.05313 61.978127 259.44376Q61.978127 258.50626 62.65 257.86563Q63.3375 257.225 64.44688 257.225Q65.57188 257.225 66.25938 257.88126Q66.94688 258.5375 66.94688 259.475Q66.94688 260.06876 66.63438 260.50626Q66.32188 260.94376 65.68125 261.19376Q66.47813 261.44376 66.88438 262.02188Q67.29063 262.6 67.29063 263.39688Q67.29063 264.49063 66.50938 265.24063Q65.74375 265.99063 64.4625 265.99063Q63.196877 265.99063 62.415627 265.24063Q61.634377 264.49063 61.634377 263.36563Q61.634377 262.52188 62.05625 261.95938Q62.49375 261.39688 63.275 261.19376ZM63.05625 259.39688Q63.05625 260.00626 63.446877 260.39688Q63.853127 260.7875 64.47813 260.7875Q65.0875 260.7875 65.47813 260.4125Q65.86875 260.02188 65.86875 259.45938Q65.86875 258.88126 65.4625 258.49063Q65.05625 258.08438 64.4625 258.08438Q63.853127 258.08438 63.446877 258.475Q63.05625 258.86563 63.05625 259.39688ZM62.728127 263.36563Q62.728127 263.81876 62.93125 264.24063Q63.15 264.6625 63.571877 264.89688Q63.99375 265.13126 64.47813 265.13126Q65.22813 265.13126 65.7125 264.64688Q66.2125 264.1625 66.2125 263.4125Q66.2125 262.64688 65.7125 262.14688Q65.2125 261.64688 64.44688 261.64688Q63.696877 261.64688 63.2125 262.14688Q62.728127 262.63126 62.728127 263.36563ZM69.2125 265.85L69.2125 264.64688L70.41563 264.64688L70.41563 265.85Q70.41563 266.50626 70.18125 266.9125Q69.94688 267.33438 69.44688 267.55313L69.15 267.1Q69.47813 266.95938 69.63438 266.6625Q69.79063 266.38126 69.82188 265.85L69.2125 265.85ZM71.65 261.61563Q71.65 260.08438 71.9625 259.1625Q72.275 258.225 72.88438 257.725Q73.50938 257.225 74.44688 257.225Q75.13438 257.225 75.65 257.50626Q76.18125 257.7875 76.525 258.31876Q76.86875 258.83438 77.05625 259.58438Q77.24375 260.33438 77.24375 261.61563Q77.24375 263.13126 76.93125 264.05313Q76.63438 264.975 76.00938 265.49063Q75.4 265.99063 74.44688 265.99063Q73.2125 265.99063 72.49375 265.1Q71.65 264.0375 71.65 261.61563ZM72.72813 261.61563Q72.72813 263.725 73.22813 264.42813Q73.72813 265.13126 74.44688 265.13126Q75.18125 265.13126 75.66563 264.42813Q76.16563 263.725 76.16563 261.61563Q76.16563 259.49063 75.66563 258.80313Q75.18125 258.1 74.43125 258.1Q73.7125 258.1 73.275 258.70938Q72.72813 259.49063 72.72813 261.61563ZM78.65 261.61563Q78.65 260.08438 78.9625 259.1625Q79.275 258.225 79.88438 257.725Q80.50938 257.225 81.44688 257.225Q82.13438 257.225 82.65 257.50626Q83.18125 257.7875 83.525 258.31876Q83.86875 258.83438 84.05625 259.58438Q84.24375 260.33438 84.24375 261.61563Q84.24375 263.13126 83.93125 264.05313Q83.63438 264.975 83.00938 265.49063Q82.4 265.99063 81.44688 265.99063Q80.2125 265.99063 79.49375 265.1Q78.65 264.0375 78.65 261.61563ZM79.72813 261.61563Q79.72813 263.725 80.22813 264.42813Q80.72813 265.13126 81.44688 265.13126Q82.18125 265.13126 82.66563 264.42813Q83.16563 263.725 83.16563 261.61563Q83.16563 259.49063 82.66563 258.80313Q82.18125 258.1 81.43125 258.1Q80.7125 258.1 80.275 258.70938Q79.72813 259.49063 79.72813 261.61563ZM85.65 261.61563Q85.65 260.08438 85.9625 259.1625Q86.275 258.225 86.88438 257.725Q87.50938 257.225 88.44688 257.225Q89.13438 257.225 89.65 257.50626Q90.18125 257.7875 90.525 258.31876Q90.86875 258.83438 91.05625 259.58438Q91.24375 260.33438 91.24375 261.61563Q91.24375 263.13126 90.93125 264.05313Q90.63438 264.975 90.00938 265.49063Q89.4 265.99063 88.44688 265.99063Q87.2125 265.99063 86.49375 265.1Q85.65 264.0375 85.65 261.61563ZM86.72813 261.61563Q86.72813 263.725 87.22813 264.42813Q87.72813 265.13126 88.44688 265.13126Q89.18125 265.13126 89.66563 264.42813Q90.16563 263.725 90.16563 261.61563Q90.16563 259.49063 89.66563 258.80313Q89.18125 258.1 88.43125 258.1Q87.7125 258.1 87.275 258.70938Q86.72813 259.49063 86.72813 261.61563ZM93.24375 265.85L93.24375 264.64688L94.44688 264.64688L94.44688 265.85L93.24375 265.85ZM95.65 261.61563Q95.65 260.08438 95.9625 259.1625Q96.275 258.225 96.88438 257.725Q97.50938 257.225 98.44688 257.225Q99.13438 257.225 99.65 257.50626Q100.18125 257.7875 100.525 258.31876Q100.86875 258.83438 101.05625 259.58438Q101.24375 260.33438 101.24375 261.61563Q101.24375 263.13126 100.93125 264.05313Q100.63438 264.975 100.00938 265.49063Q99.4 265.99063 98.44688 265.99063Q97.2125 265.99063 96.49375 265.1Q95.65 264.0375 95.65 261.61563ZM96.72813 261.61563Q96.72813 263.725 97.22813 264.42813Q97.72813 265.13126 98.44688 265.13126Q99.18125 265.13126 99.66563 264.42813Q100.16563 263.725 100.16563 261.61563Q100.16563 259.49063 99.66563 258.80313Q99.18125 258.1 98.43125 258.1Q97.7125 258.1 97.275 258.70938Q96.72813 259.49063 96.72813 261.61563ZM102.65 261.61563Q102.65 260.08438 102.9625 259.1625Q103.275 258.225 103.88438 257.725Q104.50938 257.225 105.44688 257.225Q106.13438 257.225 106.65 257.50626Q107.18125 257.7875 107.525 258.31876Q107.86875 258.83438 108.05625 259.58438Q108.24375 260.33438 108.24375 261.61563Q108.24375 263.13126 107.93125 264.05313Q107.63438 264.975 107.00938 265.49063Q106.4 265.99063 105.44688 265.99063Q104.2125 265.99063 103.49375 265.1Q102.65 264.0375 102.65 261.61563ZM103.72813 261.61563Q103.72813 263.725 104.22813 264.42813Q104.72813 265.13126 105.44688 265.13126Q106.18125 265.13126 106.66563 264.42813Q107.16563 263.725 107.16563 261.61563Q107.16563 259.49063 106.66563 258.80313Q106.18125 258.1 105.43125 258.1Q104.7125 258.1 104.275 258.70938Q103.72813 259.49063 103.72813 261.61563Z" fill-rule="nonzero"/><path fill="#000000" d="M58.775 227.28438Q57.790627 227.28438 57.134377 227.75313Q56.728127 228.03438 56.4 228.55Q56.071877 229.09688 56.025 229.56563L60.009377 229.56563L59.853127 230.3625L55.93125 230.3625Q55.915627 230.47188 55.915627 230.59688Q55.915627 231.03438 55.93125 231.12813L59.696877 231.12813L59.540627 231.90938L56.05625 231.90938Q56.290627 233.25313 57.228127 233.81563Q57.9 234.22188 58.696877 234.22188Q59.790627 234.22188 60.4 233.64375L60.4 234.8625Q59.665627 235.19063 58.790627 235.19063Q56.134377 235.19063 55.2125 232.9875Q55.025 232.55 54.884377 231.90938L53.978127 231.90938L54.15 231.12813L54.759377 231.12813Q54.74375 230.87813 54.74375 230.59688Q54.74375 230.47188 54.759377 230.3625L53.978127 230.3625L54.15 229.56563L54.8375 229.56563Q55.196877 227.65938 56.728127 226.83125Q57.665627 226.31563 58.80625 226.31563Q59.9 226.31563 60.634377 226.78438L60.4 227.87813Q59.68125 227.28438 58.775 227.28438ZM61.80625 233.06563L62.821877 232.97188Q62.946877 233.69063 63.30625 234.01875Q63.68125 234.33125 64.24375 234.33125Q64.72813 234.33125 65.0875 234.1125Q65.4625 233.87813 65.69688 233.51875Q65.93125 233.14375 66.0875 232.51875Q66.24375 231.87813 66.24375 231.22188Q66.24375 231.14375 66.24375 231.00313Q65.93125 231.50313 65.38438 231.83125Q64.8375 232.14375 64.19688 232.14375Q63.11875 232.14375 62.384377 231.37813Q61.65 230.59688 61.65 229.33125Q61.65 228.01875 62.415627 227.22188Q63.196877 226.425 64.35313 226.425Q65.18125 226.425 65.86875 226.87813Q66.57188 227.33125 66.93125 228.175Q67.29063 229.00313 67.29063 230.58125Q67.29063 232.22188 66.93125 233.20625Q66.5875 234.175 65.86875 234.69063Q65.16563 235.19063 64.22813 235.19063Q63.2125 235.19063 62.571877 234.64375Q61.93125 234.08125 61.80625 233.06563ZM66.11875 229.26875Q66.11875 228.3625 65.63438 227.83125Q65.16563 227.3 64.47813 227.3Q63.775 227.3 63.24375 227.87813Q62.728127 228.44063 62.728127 229.3625Q62.728127 230.175 63.228127 230.69063Q63.728127 231.20625 64.44688 231.20625Q65.18125 231.20625 65.65 230.69063Q66.11875 230.175 66.11875 229.26875ZM69.2125 235.05L69.2125 233.84688L70.41563 233.84688L70.41563 235.05Q70.41563 235.70625 70.18125 236.1125Q69.94688 236.53438 69.44688 236.75313L69.15 236.3Q69.47813 236.15938 69.63438 235.8625Q69.79063 235.58125 69.82188 235.05L69.2125 235.05ZM71.65 230.81563Q71.65 229.28438 71.9625 228.3625Q72.275 227.425 72.88438 226.925Q73.50938 226.425 74.44688 226.425Q75.13438 226.425 75.65 226.70625Q76.18125 226.9875 76.525 227.51875Q76.86875 228.03438 77.05625 228.78438Q77.24375 229.53438 77.24375 230.81563Q77.24375 232.33125 76.93125 233.25313Q76.63438 234.175 76.00938 234.69063Q75.4 235.19063 74.44688 235.19063Q73.2125 235.19063 72.49375 234.3Q71.65 233.2375 71.65 230.81563ZM72.72813 230.81563Q72.72813 232.925 73.22813 233.62813Q73.72813 234.33125 74.44688 234.33125Q75.18125 234.33125 75.66563 233.62813Q76.16563 232.925 76.16563 230.81563Q76.16563 228.69063 75.66563 228.00313Q75.18125 227.3 74.43125 227.3Q73.7125 227.3 73.275 227.90938Q72.72813 228.69063 72.72813 230.81563ZM78.65 230.81563Q78.65 229.28438 78.9625 228.3625Q79.275 227.425 79.88438 226.925Q80.50938 226.425 81.44688 226.425Q82.13438 226.425 82.65 226.70625Q83.18125 226.9875 83.525 227.51875Q83.86875 228.03438 84.05625 228.78438Q84.24375 229.53438 84.24375 230.81563Q84.24375 232.33125 83.93125 233.25313Q83.63438 234.175 83.00938 234.69063Q82.4 235.19063 81.44688 235.19063Q80.2125 235.19063 79.49375 234.3Q78.65 233.2375 78.65 230.81563ZM79.72813 230.81563Q79.72813 232.925 80.22813 233.62813Q80.72813 234.33125 81.44688 234.33125Q82.18125 234.33125 82.66563 233.62813Q83.16563 232.925 83.16563 230.81563Q83.16563 228.69063 82.66563 228.00313Q82.18125 227.3 81.43125 227.3Q80.7125 227.3 80.275 227.90938Q79.72813 228.69063 79.72813 230.81563ZM85.65 230.81563Q85.65 229.28438 85.9625 228.3625Q86.275 227.425 86.88438 226.925Q87.50938 226.425 88.44688 226.425Q89.13438 226.425 89.65 226.70625Q90.18125 226.9875 90.525 227.51875Q90.86875 228.03438 91.05625 228.78438Q91.24375 229.53438 91.24375 230.81563Q91.24375 232.33125 90.93125 233.25313Q90.63438 234.175 90.00938 234.69063Q89.4 235.19063 88.44688 235.19063Q87.2125 235.19063 86.49375 234.3Q85.65 233.2375 85.65 230.81563ZM86.72813 230.81563Q86.72813 232.925 87.22813 233.62813Q87.72813 234.33125 88.44688 234.33125Q89.18125 234.33125 89.66563 233.62813Q90.16563 232.925 90.16563 230.81563Q90.16563 228.69063 89.66563 228.00313Q89.18125 227.3 88.43125 227.3Q87.7125 227.3 87.275 227.90938Q86.72813 228.69063 86.72813 230.81563ZM93.24375 235.05L93.24375 233.84688L94.44688 233.84688L94.44688 235.05L93.24375 235.05ZM95.65 230.81563Q95.65 229.28438 95.9625 228.3625Q96.275 227.425 96.88438 226.925Q97.50938 226.425 98.44688 226.425Q99.13438 226.425 99.65 226.70625Q100.18125 226.9875 100.525 227.51875Q100.86875 228.03438 101.05625 228.78438Q101.24375 229.53438 101.24375 230.81563Q101.24375 232.33125 100.93125 233.25313Q100.63438 234.175 100.00938 234.69063Q99.4 235.19063 98.44688 235.19063Q97.2125 235.19063 96.49375 234.3Q95.65 233.2375 95.65 230.81563ZM96.72813 230.81563Q96.72813 232.925 97.22813 233.62813Q97.72813 234.33125 98.44688 234.33125Q99.18125 234.33125 99.66563 233.62813Q100.16563 232.925 100.16563 230.81563Q100.16563 228.69063 99.66563 228.00313Q99.18125 227.3 98.43125 227.3Q97.7125 227.3 97.275 227.90938Q96.72813 228.69063 96.72813 230.81563ZM102.65 230.81563Q102.65 229.28438 102.9625 228.3625Q103.275 227.425 103.88438 226.925Q104.50938 226.425 105.44688 226.425Q106.13438 226.425 106.65 226.70625Q107.18125 226.9875 107.525 227.51875Q107.86875 228.03438 108.05625 228.78438Q108.24375 229.53438 108.24375 230.81563Q108.24375 232.33125 107.93125 233.25313Q107.63438 234.175 107.00938 234.69063Q106.4 235.19063 105.44688 235.19063Q104.2125 235.19063 103.49375 234.3Q102.65 233.2375 102.65 230.81563ZM103.72813 230.81563Q103.72813 232.925 104.22813 233.62813Q104.72813 234.33125 105.44688 234.33125Q106.18125 234.33125 106.66563 233.62813Q107.16563 232.925 107.16563 230.81563Q107.16563 228.69063 106.66563 228.00313Q106.18125 227.3 105.43125 227.3Q104.7125 227.3 104.275 227.90938Q103.72813 228.69063 103.72813 230.81563Z" fill-rule="nonzero"/><path fill="#000000" d="M51.775 196.48438Q50.790627 196.48438 50.134377 196.95312Q49.728127 197.23438 49.4 197.75Q49.071877 198.29688 49.025 198.76562L53.009377 198.76562L52.853127 199.5625L48.93125 199.5625Q48.915627 199.67188 48.915627 199.79688Q48.915627 200.23438 48.93125 200.32812L52.696877 200.32812L52.540627 201.10938L49.05625 201.10938Q49.290627 202.45312 50.228127 203.01562Q50.9 203.42188 51.696877 203.42188Q52.790627 203.42188 53.4 202.84375L53.4 204.0625Q52.665627 204.39062 51.790627 204.39062Q49.134377 204.39062 48.2125 202.1875Q48.025 201.75 47.884377 201.10938L46.978127 201.10938L47.15 200.32812L47.759377 200.32812Q47.74375 200.07812 47.74375 199.79688Q47.74375 199.67188 47.759377 199.5625L46.978127 199.5625L47.15 198.76562L47.8375 198.76562Q48.196877 196.85938 49.728127 196.03125Q50.665627 195.51562 51.80625 195.51562Q52.9 195.51562 53.634377 195.98438L53.4 197.07812Q52.68125 196.48438 51.775 196.48438ZM58.61875 204.25L57.571877 204.25L57.571877 197.53125Q57.18125 197.89062 56.55625 198.26562Q55.946877 198.625 55.4625 198.79688L55.4625 197.78125Q56.3375 197.35938 56.99375 196.78125Q57.665627 196.1875 57.946877 195.625L58.61875 195.625L58.61875 204.25ZM61.65 200.01562Q61.65 198.48438 61.9625 197.5625Q62.275 196.625 62.884377 196.125Q63.509377 195.625 64.44688 195.625Q65.13438 195.625 65.65 195.90625Q66.18125 196.1875 66.525 196.71875Q66.86875 197.23438 67.05625 197.98438Q67.24375 198.73438 67.24375 200.01562Q67.24375 201.53125 66.93125 202.45312Q66.63438 203.375 66.00938 203.89062Q65.4 204.39062 64.44688 204.39062Q63.2125 204.39062 62.49375 203.5Q61.65 202.4375 61.65 200.01562ZM62.728127 200.01562Q62.728127 202.125 63.228127 202.82812Q63.728127 203.53125 64.44688 203.53125Q65.18125 203.53125 65.66563 202.82812Q66.16563 202.125 66.16563 200.01562Q66.16563 197.89062 65.66563 197.20312Q65.18125 196.5 64.43125 196.5Q63.7125 196.5 63.275 197.10938Q62.728127 197.89062 62.728127 200.01562ZM69.2125 204.25L69.2125 203.04688L70.41563 203.04688L70.41563 204.25Q70.41563 204.90625 70.18125 205.3125Q69.94688 205.73438 69.44688 205.95312L69.15 205.5Q69.47813 205.35938 69.63438 205.0625Q69.79063 204.78125 69.82188 204.25L69.2125 204.25ZM71.65 200.01562Q71.65 198.48438 71.9625 197.5625Q72.275 196.625 72.88438 196.125Q73.50938 195.625 74.44688 195.625Q75.13438 195.625 75.65 195.90625Q76.18125 196.1875 76.525 196.71875Q76.86875 197.23438 77.05625 197.98438Q77.24375 198.73438 77.24375 200.01562Q77.24375 201.53125 76.93125 202.45312Q76.63438 203.375 76.00938 203.89062Q75.4 204.39062 74.44688 204.39062Q73.2125 204.39062 72.49375 203.5Q71.65 202.4375 71.65 200.01562ZM72.72813 200.01562Q72.72813 202.125 73.22813 202.82812Q73.72813 203.53125 74.44688 203.53125Q75.18125 203.53125 75.66563 202.82812Q76.16563 202.125 76.16563 200.01562Q76.16563 197.89062 75.66563 197.20312Q75.18125 196.5 74.43125 196.5Q73.7125 196.5 73.275 197.10938Q72.72813 197.89062 72.72813 200.01562ZM78.65 200.01562Q78.65 198.48438 78.9625 197.5625Q79.275 196.625 79.88438 196.125Q80.50938 195.625 81.44688 195.625Q82.13438 195.625 82.65 195.90625Q83.18125 196.1875 83.525 196.71875Q83.86875 197.23438 84.05625 197.98438Q84.24375 198.73438 84.24375 200.01562Q84.24375 201.53125 83.93125 202.45312Q83.63438 203.375 83.00938 203.89062Q82.4 204.39062 81.44688 204.39062Q80.2125 204.39062 79.49375 203.5Q78.65 202.4375 78.65 200.01562ZM79.72813 200.01562Q79.72813 202.125 80.22813 202.82812Q80.72813 203.53125 81.44688 203.53125Q82.18125 203.53125 82.66563 202.82812Q83.16563 202.125 83.16563 200.01562Q83.16563 197.89062 82.66563 197.20312Q82.18125 196.5 81.43125 196.5Q80.7125 196.5 80.275 197.10938Q79.72813 197.89062 79.72813 200.01562ZM85.65 200.01562Q85.65 198.48438 85.9625 197.5625Q86.275 196.625 86.88438 196.125Q87.50938 195.625 88.44688 195.625Q89.13438 195.625 89.65 195.90625Q90.18125 196.1875 90.525 196.71875Q90.86875 197.23438 91.05625 197.98438Q91.24375 198.73438 91.24375 200.01562Q91.24375 201.53125 90.93125 202.45312Q90.63438 203.375 90.00938 203.89062Q89.4 204.39062 88.44688 204.39062Q87.2125 204.39062 86.49375 203.5Q85.65 202.4375 85.65 200.01562ZM86.72813 200.01562Q86.72813 202.125 87.22813 202.82812Q87.72813 203.53125 88.44688 203.53125Q89.18125 203.53125 89.66563 202.82812Q90.16563 202.125 90.16563 200.01562Q90.16563 197.89062 89.66563 197.20312Q89.18125 196.5 88.43125 196.5Q87.7125 196.5 87.275 197.10938Q86.72813 197.89062 86.72813 200.01562ZM93.24375 204.25L93.24375 203.04688L94.44688 203.04688L94.44688 204.25L93.24375 204.25ZM95.65 200.01562Q95.65 198.48438 95.9625 197.5625Q96.275 196.625 96.88438 196.125Q97.50938 195.625 98.44688 195.625Q99.13438 195.625 99.65 195.90625Q100.18125 196.1875 100.525 196.71875Q100.86875 197.23438 101.05625 197.98438Q101.24375 198.73438 101.24375 200.01562Q101.24375 201.53125 100.93125 202.45312Q100.63438 203.375 100.00938 203.89062Q99.4 204.39062 98.44688 204.39062Q97.2125 204.39062 96.49375 203.5Q95.65 202.4375 95.65 200.01562ZM96.72813 200.01562Q96.72813 202.125 97.22813 202.82812Q97.72813 203.53125 98.44688 203.53125Q99.18125 203.53125 99.66563 202.82812Q100.16563 202.125 100.16563 200.01562Q100.16563 197.89062 99.66563 197.20312Q99.18125 196.5 98.43125 196.5Q97.7125 196.5 97.275 197.10938Q96.72813 197.89062 96.72813 200.01562ZM102.65 200.01562Q102.65 198.48438 102.9625 197.5625Q103.275 196.625 103.88438 196.125Q104.50938 195.625 105.44688 195.625Q106.13438 195.625 106.65 195.90625Q107.18125 196.1875 107.525 196.71875Q107.86875 197.23438 108.05625 197.98438Q108.24375 198.73438 108.24375 200.01562Q108.24375 201.53125 107.93125 202.45312Q107.63438 203.375 107.00938 203.89062Q106.4 204.39062 105.44688 204.39062Q104.2125 204.39062 103.49375 203.5Q102.65 202.4375 102.65 200.01562ZM103.72813 200.01562Q103.72813 202.125 104.22813 202.82812Q104.72813 203.53125 105.44688 203.53125Q106.18125 203.53125 106.66563 202.82812Q107.16563 202.125 107.16563 200.01562Q107.16563 197.89062 106.66563 197.20312Q106.18125 196.5 105.43125 196.5Q104.7125 196.5 104.275 197.10938Q103.72813 197.89062 103.72813 200.01562Z" fill-rule="nonzero"/><path fill="#000000" d="M51.775 165.68437Q50.790627 165.68437 50.134377 166.15312Q49.728127 166.43437 49.4 166.95Q49.071877 167.49687 49.025 167.96562L53.009377 167.96562L52.853127 168.7625L48.93125 168.7625Q48.915627 168.87187 48.915627 168.99687Q48.915627 169.43437 48.93125 169.52812L52.696877 169.52812L52.540627 170.30937L49.05625 170.30937Q49.290627 171.65312 50.228127 172.21562Q50.9 172.62187 51.696877 172.62187Q52.790627 172.62187 53.4 172.04375L53.4 173.2625Q52.665627 173.59062 51.790627 173.59062Q49.134377 173.59062 48.2125 171.3875Q48.025 170.95 47.884377 170.30937L46.978127 170.30937L47.15 169.52812L47.759377 169.52812Q47.74375 169.27812 47.74375 168.99687Q47.74375 168.87187 47.759377 168.7625L46.978127 168.7625L47.15 167.96562L47.8375 167.96562Q48.196877 166.05937 49.728127 165.23125Q50.665627 164.71562 51.80625 164.71562Q52.9 164.71562 53.634377 165.18437L53.4 166.27812Q52.68125 165.68437 51.775 165.68437ZM58.61875 173.45L57.571877 173.45L57.571877 166.73125Q57.18125 167.09062 56.55625 167.46562Q55.946877 167.825 55.4625 167.99687L55.4625 166.98125Q56.3375 166.55937 56.99375 165.98125Q57.665627 165.3875 57.946877 164.825L58.61875 164.825L58.61875 173.45ZM65.61875 173.45L64.57188 173.45L64.57188 166.73125Q64.18125 167.09062 63.55625 167.46562Q62.946877 167.825 62.4625 167.99687L62.4625 166.98125Q63.3375 166.55937 63.99375 165.98125Q64.66563 165.3875 64.94688 164.825L65.61875 164.825L65.61875 173.45ZM69.2125 173.45L69.2125 172.24687L70.41563 172.24687L70.41563 173.45Q70.41563 174.10625 70.18125 174.5125Q69.94688 174.93437 69.44688 175.15312L69.15 174.7Q69.47813 174.55937 69.63438 174.2625Q69.79063 173.98125 69.82188 173.45L69.2125 173.45ZM71.65 169.21562Q71.65 167.68437 71.9625 166.7625Q72.275 165.825 72.88438 165.325Q73.50938 164.825 74.44688 164.825Q75.13438 164.825 75.65 165.10625Q76.18125 165.3875 76.525 165.91875Q76.86875 166.43437 77.05625 167.18437Q77.24375 167.93437 77.24375 169.21562Q77.24375 170.73125 76.93125 171.65312Q76.63438 172.575 76.00938 173.09062Q75.4 173.59062 74.44688 173.59062Q73.2125 173.59062 72.49375 172.7Q71.65 171.6375 71.65 169.21562ZM72.72813 169.21562Q72.72813 171.325 73.22813 172.02812Q73.72813 172.73125 74.44688 172.73125Q75.18125 172.73125 75.66563 172.02812Q76.16563 171.325 76.16563 169.21562Q76.16563 167.09062 75.66563 166.40312Q75.18125 165.7 74.43125 165.7Q73.7125 165.7 73.275 166.30937Q72.72813 167.09062 72.72813 169.21562ZM78.65 169.21562Q78.65 167.68437 78.9625 166.7625Q79.275 165.825 79.88438 165.325Q80.50938 164.825 81.44688 164.825Q82.13438 164.825 82.65 165.10625Q83.18125 165.3875 83.525 165.91875Q83.86875 166.43437 84.05625 167.18437Q84.24375 167.93437 84.24375 169.21562Q84.24375 170.73125 83.93125 171.65312Q83.63438 172.575 83.00938 173.09062Q82.4 173.59062 81.44688 173.59062Q80.2125 173.59062 79.49375 172.7Q78.65 171.6375 78.65 169.21562ZM79.72813 169.21562Q79.72813 171.325 80.22813 172.02812Q80.72813 172.73125 81.44688 172.73125Q82.18125 172.73125 82.66563 172.02812Q83.16563 171.325 83.16563 169.21562Q83.16563 167.09062 82.66563 166.40312Q82.18125 165.7 81.43125 165.7Q80.7125 165.7 80.275 166.30937Q79.72813 167.09062 79.72813 169.21562ZM85.65 169.21562Q85.65 167.68437 85.9625 166.7625Q86.275 165.825 86.88438 165.325Q87.50938 164.825 88.44688 164.825Q89.13438 164.825 89.65 165.10625Q90.18125 165.3875 90.525 165.91875Q90.86875 166.43437 91.05625 167.18437Q91.24375 167.93437 91.24375 169.21562Q91.24375 170.73125 90.93125 171.65312Q90.63438 172.575 90.00938 173.09062Q89.4 173.59062 88.44688 173.59062Q87.2125 173.59062 86.49375 172.7Q85.65 171.6375 85.65 169.21562ZM86.72813 169.21562Q86.72813 171.325 87.22813 172.02812Q87.72813 172.73125 88.44688 172.73125Q89.18125 172.73125 89.66563 172.02812Q90.16563 171.325 90.16563 169.21562Q90.16563 167.09062 89.66563 166.40312Q89.18125 165.7 88.43125 165.7Q87.7125 165.7 87.275 166.30937Q86.72813 167.09062 86.72813 169.21562ZM93.24375 173.45L93.24375 172.24687L94.44688 172.24687L94.44688 173.45L93.24375 173.45ZM95.65 169.21562Q95.65 167.68437 95.9625 166.7625Q96.275 165.825 96.88438 165.325Q97.50938 164.825 98.44688 164.825Q99.13438 164.825 99.65 165.10625Q100.18125 165.3875 100.525 165.91875Q100.86875 166.43437 101.05625 167.18437Q101.24375 167.93437 101.24375 169.21562Q101.24375 170.73125 100.93125 171.65312Q100.63438 172.575 100.00938 173.09062Q99.4 173.59062 98.44688 173.59062Q97.2125 173.59062 96.49375 172.7Q95.65 171.6375 95.65 169.21562ZM96.72813 169.21562Q96.72813 171.325 97.22813 172.02812Q97.72813 172.73125 98.44688 172.73125Q99.18125 172.73125 99.66563 172.02812Q100.16563 171.325 100.16563 169.21562Q100.16563 167.09062 99.66563 166.40312Q99.18125 165.7 98.43125 165.7Q97.7125 165.7 97.275 166.30937Q96.72813 167.09062 96.72813 169.21562ZM102.65 169.21562Q102.65 167.68437 102.9625 166.7625Q103.275 165.825 103.88438 165.325Q104.50938 164.825 105.44688 164.825Q106.13438 164.825 106.65 165.10625Q107.18125 165.3875 107.525 165.91875Q107.86875 166.43437 108.05625 167.18437Q108.24375 167.93437 108.24375 169.21562Q108.24375 170.73125 107.93125 171.65312Q107.63438 172.575 107.00938 173.09062Q106.4 173.59062 105.44688 173.59062Q104.2125 173.59062 103.49375 172.7Q102.65 171.6375 102.65 169.21562ZM103.72813 169.21562Q103.72813 171.325 104.22813 172.02812Q104.72813 172.73125 105.44688 172.73125Q106.18125 172.73125 106.66563 172.02812Q107.16563 171.325 107.16563 169.21562Q107.16563 167.09062 106.66563 166.40312Q106.18125 165.7 105.43125 165.7Q104.7125 165.7 104.275 166.30937Q103.72813 167.09062 103.72813 169.21562Z" fill-rule="nonzero"/><path fill="#000000" d="M51.775 134.88437Q50.790627 134.88437 50.134377 135.35312Q49.728127 135.63437 49.4 136.15Q49.071877 136.69687 49.025 137.16562L53.009377 137.16562L52.853127 137.9625L48.93125 137.9625Q48.915627 138.07187 48.915627 138.19687Q48.915627 138.63437 48.93125 138.72812L52.696877 138.72812L52.540627 139.50937L49.05625 139.50937Q49.290627 140.85312 50.228127 141.41562Q50.9 141.82187 51.696877 141.82187Q52.790627 141.82187 53.4 141.24374L53.4 142.4625Q52.665627 142.79062 51.790627 142.79062Q49.134377 142.79062 48.2125 140.5875Q48.025 140.15 47.884377 139.50937L46.978127 139.50937L47.15 138.72812L47.759377 138.72812Q47.74375 138.47812 47.74375 138.19687Q47.74375 138.07187 47.759377 137.9625L46.978127 137.9625L47.15 137.16562L47.8375 137.16562Q48.196877 135.25937 49.728127 134.43124Q50.665627 133.91562 51.80625 133.91562Q52.9 133.91562 53.634377 134.38437L53.4 135.47812Q52.68125 134.88437 51.775 134.88437ZM58.61875 142.65L57.571877 142.65L57.571877 135.93124Q57.18125 136.29062 56.55625 136.66562Q55.946877 137.025 55.4625 137.19687L55.4625 136.18124Q56.3375 135.75937 56.99375 135.18124Q57.665627 134.5875 57.946877 134.025L58.61875 134.025L58.61875 142.65ZM67.19688 141.63437L67.19688 142.65L61.509377 142.65Q61.509377 142.275 61.634377 141.91562Q61.853127 141.3375 62.321877 140.775Q62.80625 140.2125 63.7125 139.47812Q65.11875 138.32187 65.60313 137.65Q66.10313 136.97812 66.10313 136.38437Q66.10313 135.75937 65.65 135.3375Q65.19688 134.9 64.47813 134.9Q63.7125 134.9 63.259377 135.35312Q62.80625 135.80624 62.790627 136.61874L61.7125 136.50937Q61.821877 135.29062 62.540627 134.66562Q63.275 134.025 64.50938 134.025Q65.74375 134.025 66.4625 134.7125Q67.18125 135.4 67.18125 136.41562Q67.18125 136.93124 66.9625 137.43124Q66.75938 137.91562 66.25938 138.47812Q65.775 139.025 64.65 139.97812Q63.696877 140.775 63.415627 141.07187Q63.15 141.35312 62.978127 141.63437L67.19688 141.63437ZM69.2125 142.65L69.2125 141.44687L70.41563 141.44687L70.41563 142.65Q70.41563 143.30624 70.18125 143.7125Q69.94688 144.13437 69.44688 144.35312L69.15 143.9Q69.47813 143.75937 69.63438 143.4625Q69.79063 143.18124 69.82188 142.65L69.2125 142.65ZM71.65 138.41562Q71.65 136.88437 71.9625 135.9625Q72.275 135.025 72.88438 134.525Q73.50938 134.025 74.44688 134.025Q75.13438 134.025 75.65 134.30624Q76.18125 134.5875 76.525 135.11874Q76.86875 135.63437 77.05625 136.38437Q77.24375 137.13437 77.24375 138.41562Q77.24375 139.93124 76.93125 140.85312Q76.63438 141.775 76.00938 142.29062Q75.4 142.79062 74.44688 142.79062Q73.2125 142.79062 72.49375 141.9Q71.65 140.8375 71.65 138.41562ZM72.72813 138.41562Q72.72813 140.525 73.22813 141.22812Q73.72813 141.93124 74.44688 141.93124Q75.18125 141.93124 75.66563 141.22812Q76.16563 140.525 76.16563 138.41562Q76.16563 136.29062 75.66563 135.60312Q75.18125 134.9 74.43125 134.9Q73.7125 134.9 73.275 135.50937Q72.72813 136.29062 72.72813 138.41562ZM78.65 138.41562Q78.65 136.88437 78.9625 135.9625Q79.275 135.025 79.88438 134.525Q80.50938 134.025 81.44688 134.025Q82.13438 134.025 82.65 134.30624Q83.18125 134.5875 83.525 135.11874Q83.86875 135.63437 84.05625 136.38437Q84.24375 137.13437 84.24375 138.41562Q84.24375 139.93124 83.93125 140.85312Q83.63438 141.775 83.00938 142.29062Q82.4 142.79062 81.44688 142.79062Q80.2125 142.79062 79.49375 141.9Q78.65 140.8375 78.65 138.41562ZM79.72813 138.41562Q79.72813 140.525 80.22813 141.22812Q80.72813 141.93124 81.44688 141.93124Q82.18125 141.93124 82.66563 141.22812Q83.16563 140.525 83.16563 138.41562Q83.16563 136.29062 82.66563 135.60312Q82.18125 134.9 81.43125 134.9Q80.7125 134.9 80.275 135.50937Q79.72813 136.29062 79.72813 138.41562ZM85.65 138.41562Q85.65 136.88437 85.9625 135.9625Q86.275 135.025 86.88438 134.525Q87.50938 134.025 88.44688 134.025Q89.13438 134.025 89.65 134.30624Q90.18125 134.5875 90.525 135.11874Q90.86875 135.63437 91.05625 136.38437Q91.24375 137.13437 91.24375 138.41562Q91.24375 139.93124 90.93125 140.85312Q90.63438 141.775 90.00938 142.29062Q89.4 142.79062 88.44688 142.79062Q87.2125 142.79062 86.49375 141.9Q85.65 140.8375 85.65 138.41562ZM86.72813 138.41562Q86.72813 140.525 87.22813 141.22812Q87.72813 141.93124 88.44688 141.93124Q89.18125 141.93124 89.66563 141.22812Q90.16563 140.525 90.16563 138.41562Q90.16563 136.29062 89.66563 135.60312Q89.18125 134.9 88.43125 134.9Q87.7125 134.9 87.275 135.50937Q86.72813 136.29062 86.72813 138.41562ZM93.24375 142.65L93.24375 141.44687L94.44688 141.44687L94.44688 142.65L93.24375 142.65ZM95.65 138.41562Q95.65 136.88437 95.9625 135.9625Q96.275 135.025 96.88438 134.525Q97.50938 134.025 98.44688 134.025Q99.13438 134.025 99.65 134.30624Q100.18125 134.5875 100.525 135.11874Q100.86875 135.63437 101.05625 136.38437Q101.24375 137.13437 101.24375 138.41562Q101.24375 139.93124 100.93125 140.85312Q100.63438 141.775 100.00938 142.29062Q99.4 142.79062 98.44688 142.79062Q97.2125 142.79062 96.49375 141.9Q95.65 140.8375 95.65 138.41562ZM96.72813 138.41562Q96.72813 140.525 97.22813 141.22812Q97.72813 141.93124 98.44688 141.93124Q99.18125 141.93124 99.66563 141.22812Q100.16563 140.525 100.16563 138.41562Q100.16563 136.29062 99.66563 135.60312Q99.18125 134.9 98.43125 134.9Q97.7125 134.9 97.275 135.50937Q96.72813 136.29062 96.72813 138.41562ZM102.65 138.41562Q102.65 136.88437 102.9625 135.9625Q103.275 135.025 103.88438 134.525Q104.50938 134.025 105.44688 134.025Q106.13438 134.025 106.65 134.30624Q107.18125 134.5875 107.525 135.11874Q107.86875 135.63437 108.05625 136.38437Q108.24375 137.13437 108.24375 138.41562Q108.24375 139.93124 107.93125 140.85312Q107.63438 141.775 107.00938 142.29062Q106.4 142.79062 105.44688 142.79062Q104.2125 142.79062 103.49375 141.9Q102.65 140.8375 102.65 138.41562ZM103.72813 138.41562Q103.72813 140.525 104.22813 141.22812Q104.72813 141.93124 105.44688 141.93124Q106.18125 141.93124 106.66563 141.22812Q107.16563 140.525 107.16563 138.41562Q107.16563 136.29062 106.66563 135.60312Q106.18125 134.9 105.43125 134.9Q104.7125 134.9 104.275 135.50937Q103.72813 136.29062 103.72813 138.41562Z" fill-rule="nonzero"/><path fill="#000000" d="M51.775 104.08437Q50.790627 104.08437 50.134377 104.55312Q49.728127 104.83437 49.4 105.35Q49.071877 105.89687 49.025 106.36562L53.009377 106.36562L52.853127 107.1625L48.93125 107.1625Q48.915627 107.27187 48.915627 107.39687Q48.915627 107.83437 48.93125 107.92812L52.696877 107.92812L52.540627 108.70937L49.05625 108.70937Q49.290627 110.05312 50.228127 110.61562Q50.9 111.02187 51.696877 111.02187Q52.790627 111.02187 53.4 110.44375L53.4 111.6625Q52.665627 111.99062 51.790627 111.99062Q49.134377 111.99062 48.2125 109.7875Q48.025 109.35 47.884377 108.70937L46.978127 108.70937L47.15 107.92812L47.759377 107.92812Q47.74375 107.67812 47.74375 107.39687Q47.74375 107.27187 47.759377 107.1625L46.978127 107.1625L47.15 106.36562L47.8375 106.36562Q48.196877 104.45937 49.728127 103.63125Q50.665627 103.11562 51.80625 103.11562Q52.9 103.11562 53.634377 103.58437L53.4 104.67812Q52.68125 104.08437 51.775 104.08437ZM58.61875 111.85L57.571877 111.85L57.571877 105.13125Q57.18125 105.49062 56.55625 105.86562Q55.946877 106.225 55.4625 106.39687L55.4625 105.38125Q56.3375 104.95937 56.99375 104.38125Q57.665627 103.7875 57.946877 103.225L58.61875 103.225L58.61875 111.85ZM61.65 109.58437L62.7125 109.44375Q62.884377 110.33437 63.321877 110.74062Q63.759377 111.13125 64.38438 111.13125Q65.13438 111.13125 65.65 110.61562Q66.16563 110.1 66.16563 109.33437Q66.16563 108.61562 65.68125 108.14687Q65.2125 107.6625 64.47813 107.6625Q64.18125 107.6625 63.728127 107.7875L63.853127 106.85Q63.9625 106.86562 64.025 106.86562Q64.69688 106.86562 65.22813 106.52187Q65.775 106.1625 65.775 105.42812Q65.775 104.85 65.38438 104.475Q64.99375 104.08437 64.36875 104.08437Q63.759377 104.08437 63.3375 104.475Q62.93125 104.86562 62.821877 105.63125L61.759377 105.44375Q61.946877 104.39687 62.634377 103.81875Q63.321877 103.225 64.3375 103.225Q65.04063 103.225 65.63438 103.5375Q66.22813 103.83437 66.54063 104.35Q66.85313 104.86562 66.85313 105.45937Q66.85313 106.00625 66.55625 106.475Q66.25938 106.92812 65.68125 107.19375Q66.43125 107.36562 66.85313 107.92812Q67.275 108.475 67.275 109.31875Q67.275 110.44375 66.44688 111.225Q65.63438 112.00625 64.38438 112.00625Q63.259377 112.00625 62.509377 111.33437Q61.759377 110.64687 61.65 109.58437ZM69.2125 111.85L69.2125 110.64687L70.41563 110.64687L70.41563 111.85Q70.41563 112.50625 70.18125 112.9125Q69.94688 113.33437 69.44688 113.55312L69.15 113.1Q69.47813 112.95937 69.63438 112.6625Q69.79063 112.38125 69.82188 111.85L69.2125 111.85ZM71.65 107.61562Q71.65 106.08437 71.9625 105.1625Q72.275 104.225 72.88438 103.725Q73.50938 103.225 74.44688 103.225Q75.13438 103.225 75.65 103.50625Q76.18125 103.7875 76.525 104.31875Q76.86875 104.83437 77.05625 105.58437Q77.24375 106.33437 77.24375 107.61562Q77.24375 109.13125 76.93125 110.05312Q76.63438 110.975 76.00938 111.49062Q75.4 111.99062 74.44688 111.99062Q73.2125 111.99062 72.49375 111.1Q71.65 110.0375 71.65 107.61562ZM72.72813 107.61562Q72.72813 109.725 73.22813 110.42812Q73.72813 111.13125 74.44688 111.13125Q75.18125 111.13125 75.66563 110.42812Q76.16563 109.725 76.16563 107.61562Q76.16563 105.49062 75.66563 104.80312Q75.18125 104.1 74.43125 104.1Q73.7125 104.1 73.275 104.70937Q72.72813 105.49062 72.72813 107.61562ZM78.65 107.61562Q78.65 106.08437 78.9625 105.1625Q79.275 104.225 79.88438 103.725Q80.50938 103.225 81.44688 103.225Q82.13438 103.225 82.65 103.50625Q83.18125 103.7875 83.525 104.31875Q83.86875 104.83437 84.05625 105.58437Q84.24375 106.33437 84.24375 107.61562Q84.24375 109.13125 83.93125 110.05312Q83.63438 110.975 83.00938 111.49062Q82.4 111.99062 81.44688 111.99062Q80.2125 111.99062 79.49375 111.1Q78.65 110.0375 78.65 107.61562ZM79.72813 107.61562Q79.72813 109.725 80.22813 110.42812Q80.72813 111.13125 81.44688 111.13125Q82.18125 111.13125 82.66563 110.42812Q83.16563 109.725 83.16563 107.61562Q83.16563 105.49062 82.66563 104.80312Q82.18125 104.1 81.43125 104.1Q80.7125 104.1 80.275 104.70937Q79.72813 105.49062 79.72813 107.61562ZM85.65 107.61562Q85.65 106.08437 85.9625 105.1625Q86.275 104.225 86.88438 103.725Q87.50938 103.225 88.44688 103.225Q89.13438 103.225 89.65 103.50625Q90.18125 103.7875 90.525 104.31875Q90.86875 104.83437 91.05625 105.58437Q91.24375 106.33437 91.24375 107.61562Q91.24375 109.13125 90.93125 110.05312Q90.63438 110.975 90.00938 111.49062Q89.4 111.99062 88.44688 111.99062Q87.2125 111.99062 86.49375 111.1Q85.65 110.0375 85.65 107.61562ZM86.72813 107.61562Q86.72813 109.725 87.22813 110.42812Q87.72813 111.13125 88.44688 111.13125Q89.18125 111.13125 89.66563 110.42812Q90.16563 109.725 90.16563 107.61562Q90.16563 105.49062 89.66563 104.80312Q89.18125 104.1 88.43125 104.1Q87.7125 104.1 87.275 104.70937Q86.72813 105.49062 86.72813 107.61562ZM93.24375 111.85L93.24375 110.64687L94.44688 110.64687L94.44688 111.85L93.24375 111.85ZM95.65 107.61562Q95.65 106.08437 95.9625 105.1625Q96.275 104.225 96.88438 103.725Q97.50938 103.225 98.44688 103.225Q99.13438 103.225 99.65 103.50625Q100.18125 103.7875 100.525 104.31875Q100.86875 104.83437 101.05625 105.58437Q101.24375 106.33437 101.24375 107.61562Q101.24375 109.13125 100.93125 110.05312Q100.63438 110.975 100.00938 111.49062Q99.4 111.99062 98.44688 111.99062Q97.2125 111.99062 96.49375 111.1Q95.65 110.0375 95.65 107.61562ZM96.72813 107.61562Q96.72813 109.725 97.22813 110.42812Q97.72813 111.13125 98.44688 111.13125Q99.18125 111.13125 99.66563 110.42812Q100.16563 109.725 100.16563 107.61562Q100.16563 105.49062 99.66563 104.80312Q99.18125 104.1 98.43125 104.1Q97.7125 104.1 97.275 104.70937Q96.72813 105.49062 96.72813 107.61562ZM102.65 107.61562Q102.65 106.08437 102.9625 105.1625Q103.275 104.225 103.88438 103.725Q104.50938 103.225 105.44688 103.225Q106.13438 103.225 106.65 103.50625Q107.18125 103.7875 107.525 104.31875Q107.86875 104.83437 108.05625 105.58437Q108.24375 106.33437 108.24375 107.61562Q108.24375 109.13125 107.93125 110.05312Q107.63438 110.975 107.00938 111.49062Q106.4 111.99062 105.44688 111.99062Q104.2125 111.99062 103.49375 111.1Q102.65 110.0375 102.65 107.61562ZM103.72813 107.61562Q103.72813 109.725 104.22813 110.42812Q104.72813 111.13125 105.44688 111.13125Q106.18125 111.13125 106.66563 110.42812Q107.16563 109.725 107.16563 107.61562Q107.16563 105.49062 106.66563 104.80312Q106.18125 104.1 105.43125 104.1Q104.7125 104.1 104.275 104.70937Q103.72813 105.49062 103.72813 107.61562Z" fill-rule="nonzero"/><path fill="#000000" d="M51.775 73.28438Q50.790627 73.28438 50.134377 73.75313Q49.728127 74.03438 49.4 74.55Q49.071877 75.09688 49.025 75.56563L53.009377 75.56563L52.853127 76.3625L48.93125 76.3625Q48.915627 76.47188 48.915627 76.59688Q48.915627 77.03438 48.93125 77.12813L52.696877 77.12813L52.540627 77.90938L49.05625 77.90938Q49.290627 79.25313 50.228127 79.81563Q50.9 80.22188 51.696877 80.22188Q52.790627 80.22188 53.4 79.64375L53.4 80.8625Q52.665627 81.19063 51.790627 81.19063Q49.134377 81.19063 48.2125 78.9875Q48.025 78.55 47.884377 77.90938L46.978127 77.90938L47.15 77.12813L47.759377 77.12813Q47.74375 76.87813 47.74375 76.59688Q47.74375 76.47188 47.759377 76.3625L46.978127 76.3625L47.15 75.56563L47.8375 75.56563Q48.196877 73.65938 49.728127 72.83125Q50.665627 72.31563 51.80625 72.31563Q52.9 72.31563 53.634377 72.78438L53.4 73.87813Q52.68125 73.28438 51.775 73.28438ZM58.61875 81.05L57.571877 81.05L57.571877 74.33125Q57.18125 74.69063 56.55625 75.06563Q55.946877 75.425 55.4625 75.59688L55.4625 74.58125Q56.3375 74.15938 56.99375 73.58125Q57.665627 72.9875 57.946877 72.425L58.61875 72.425L58.61875 81.05ZM65.025 81.05L65.025 78.9875L61.30625 78.9875L61.30625 78.01875L65.22813 72.45625L66.0875 72.45625L66.0875 78.01875L67.24375 78.01875L67.24375 78.9875L66.0875 78.9875L66.0875 81.05L65.025 81.05ZM65.025 78.01875L65.025 74.15938L62.3375 78.01875L65.025 78.01875ZM69.2125 81.05L69.2125 79.84688L70.41563 79.84688L70.41563 81.05Q70.41563 81.70625 70.18125 82.1125Q69.94688 82.53438 69.44688 82.75313L69.15 82.3Q69.47813 82.15938 69.63438 81.8625Q69.79063 81.58125 69.82188 81.05L69.2125 81.05ZM71.65 76.81563Q71.65 75.28438 71.9625 74.3625Q72.275 73.425 72.88438 72.925Q73.50938 72.425 74.44688 72.425Q75.13438 72.425 75.65 72.70625Q76.18125 72.9875 76.525 73.51875Q76.86875 74.03438 77.05625 74.78438Q77.24375 75.53438 77.24375 76.81563Q77.24375 78.33125 76.93125 79.25313Q76.63438 80.175 76.00938 80.69063Q75.4 81.19063 74.44688 81.19063Q73.2125 81.19063 72.49375 80.3Q71.65 79.2375 71.65 76.81563ZM72.72813 76.81563Q72.72813 78.925 73.22813 79.62813Q73.72813 80.33125 74.44688 80.33125Q75.18125 80.33125 75.66563 79.62813Q76.16563 78.925 76.16563 76.81563Q76.16563 74.69063 75.66563 74.00313Q75.18125 73.3 74.43125 73.3Q73.7125 73.3 73.275 73.90938Q72.72813 74.69063 72.72813 76.81563ZM78.65 76.81563Q78.65 75.28438 78.9625 74.3625Q79.275 73.425 79.88438 72.925Q80.50938 72.425 81.44688 72.425Q82.13438 72.425 82.65 72.70625Q83.18125 72.9875 83.525 73.51875Q83.86875 74.03438 84.05625 74.78438Q84.24375 75.53438 84.24375 76.81563Q84.24375 78.33125 83.93125 79.25313Q83.63438 80.175 83.00938 80.69063Q82.4 81.19063 81.44688 81.19063Q80.2125 81.19063 79.49375 80.3Q78.65 79.2375 78.65 76.81563ZM79.72813 76.81563Q79.72813 78.925 80.22813 79.62813Q80.72813 80.33125 81.44688 80.33125Q82.18125 80.33125 82.66563 79.62813Q83.16563 78.925 83.16563 76.81563Q83.16563 74.69063 82.66563 74.00313Q82.18125 73.3 81.43125 73.3Q80.7125 73.3 80.275 73.90938Q79.72813 74.69063 79.72813 76.81563ZM85.65 76.81563Q85.65 75.28438 85.9625 74.3625Q86.275 73.425 86.88438 72.925Q87.50938 72.425 88.44688 72.425Q89.13438 72.425 89.65 72.70625Q90.18125 72.9875 90.525 73.51875Q90.86875 74.03438 91.05625 74.78438Q91.24375 75.53438 91.24375 76.81563Q91.24375 78.33125 90.93125 79.25313Q90.63438 80.175 90.00938 80.69063Q89.4 81.19063 88.44688 81.19063Q87.2125 81.19063 86.49375 80.3Q85.65 79.2375 85.65 76.81563ZM86.72813 76.81563Q86.72813 78.925 87.22813 79.62813Q87.72813 80.33125 88.44688 80.33125Q89.18125 80.33125 89.66563 79.62813Q90.16563 78.925 90.16563 76.81563Q90.16563 74.69063 89.66563 74.00313Q89.18125 73.3 88.43125 73.3Q87.7125 73.3 87.275 73.90938Q86.72813 74.69063 86.72813 76.81563ZM93.24375 81.05L93.24375 79.84688L94.44688 79.84688L94.44688 81.05L93.24375 81.05ZM95.65 76.81563Q95.65 75.28438 95.9625 74.3625Q96.275 73.425 96.88438 72.925Q97.50938 72.425 98.44688 72.425Q99.13438 72.425 99.65 72.70625Q100.18125 72.9875 100.525 73.51875Q100.86875 74.03438 101.05625 74.78438Q101.24375 75.53438 101.24375 76.81563Q101.24375 78.33125 100.93125 79.25313Q100.63438 80.175 100.00938 80.69063Q99.4 81.19063 98.44688 81.19063Q97.2125 81.19063 96.49375 80.3Q95.65 79.2375 95.65 76.81563ZM96.72813 76.81563Q96.72813 78.925 97.22813 79.62813Q97.72813 80.33125 98.44688 80.33125Q99.18125 80.33125 99.66563 79.62813Q100.16563 78.925 100.16563 76.81563Q100.16563 74.69063 99.66563 74.00313Q99.18125 73.3 98.43125 73.3Q97.7125 73.3 97.275 73.90938Q96.72813 74.69063 96.72813 76.81563ZM102.65 76.81563Q102.65 75.28438 102.9625 74.3625Q103.275 73.425 103.88438 72.925Q104.50938 72.425 105.44688 72.425Q106.13438 72.425 106.65 72.70625Q107.18125 72.9875 107.525 73.51875Q107.86875 74.03438 108.05625 74.78438Q108.24375 75.53438 108.24375 76.81563Q108.24375 78.33125 107.93125 79.25313Q107.63438 80.175 107.00938 80.69063Q106.4 81.19063 105.44688 81.19063Q104.2125 81.19063 103.49375 80.3Q102.65 79.2375 102.65 76.81563ZM103.72813 76.81563Q103.72813 78.925 104.22813 79.62813Q104.72813 80.33125 105.44688 80.33125Q106.18125 80.33125 106.66563 79.62813Q107.16563 78.925 107.16563 76.81563Q107.16563 74.69063 106.66563 74.00313Q106.18125 73.3 105.43125 73.3Q104.7125 73.3 104.275 73.90938Q103.72813 74.69063 103.72813 76.81563Z" fill-rule="nonzero"/><path fill="#000000" d="M51.775 42.484375Q50.790627 42.484375 50.134377 42.953125Q49.728127 43.234375 49.4 43.75Q49.071877 44.296875 49.025 44.765625L53.009377 44.765625L52.853127 45.5625L48.93125 45.5625Q48.915627 45.671875 48.915627 45.796875Q48.915627 46.234375 48.93125 46.328125L52.696877 46.328125L52.540627 47.109375L49.05625 47.109375Q49.290627 48.453125 50.228127 49.015625Q50.9 49.421875 51.696877 49.421875Q52.790627 49.421875 53.4 48.84375L53.4 50.0625Q52.665627 50.390625 51.790627 50.390625Q49.134377 50.390625 48.2125 48.1875Q48.025 47.75 47.884377 47.109375L46.978127 47.109375L47.15 46.328125L47.759377 46.328125Q47.74375 46.078125 47.74375 45.796875Q47.74375 45.671875 47.759377 45.5625L46.978127 45.5625L47.15 44.765625L47.8375 44.765625Q48.196877 42.859375 49.728127 42.03125Q50.665627 41.515625 51.80625 41.515625Q52.9 41.515625 53.634377 41.984375L53.4 43.078125Q52.68125 42.484375 51.775 42.484375ZM58.61875 50.25L57.571877 50.25L57.571877 43.53125Q57.18125 43.890625 56.55625 44.265625Q55.946877 44.625 55.4625 44.796875L55.4625 43.78125Q56.3375 43.359375 56.99375 42.78125Q57.665627 42.1875 57.946877 41.625L58.61875 41.625L58.61875 50.25ZM61.65 48.0L62.759377 47.90625Q62.884377 48.71875 63.321877 49.125Q63.775 49.53125 64.41563 49.53125Q65.16563 49.53125 65.69688 48.953125Q66.22813 48.375 66.22813 47.4375Q66.22813 46.53125 65.7125 46.015625Q65.2125 45.484375 64.38438 45.484375Q63.884377 45.484375 63.4625 45.71875Q63.05625 45.953125 62.821877 46.3125L61.8375 46.1875L62.665627 41.78125L66.94688 41.78125L66.94688 42.78125L63.509377 42.78125L63.05625 45.09375Q63.821877 44.546875 64.66563 44.546875Q65.79063 44.546875 66.55625 45.328125Q67.3375 46.109375 67.3375 47.34375Q67.3375 48.5 66.66563 49.359375Q65.8375 50.390625 64.41563 50.390625Q63.24375 50.390625 62.49375 49.734375Q61.759377 49.078125 61.65 48.0ZM69.2125 50.25L69.2125 49.046875L70.41563 49.046875L70.41563 50.25Q70.41563 50.90625 70.18125 51.3125Q69.94688 51.734375 69.44688 51.953125L69.15 51.5Q69.47813 51.359375 69.63438 51.0625Q69.79063 50.78125 69.82188 50.25L69.2125 50.25ZM71.65 46.015625Q71.65 44.484375 71.9625 43.5625Q72.275 42.625 72.88438 42.125Q73.50938 41.625 74.44688 41.625Q75.13438 41.625 75.65 41.90625Q76.18125 42.1875 76.525 42.71875Q76.86875 43.234375 77.05625 43.984375Q77.24375 44.734375 77.24375 46.015625Q77.24375 47.53125 76.93125 48.453125Q76.63438 49.375 76.00938 49.890625Q75.4 50.390625 74.44688 50.390625Q73.2125 50.390625 72.49375 49.5Q71.65 48.4375 71.65 46.015625ZM72.72813 46.015625Q72.72813 48.125 73.22813 48.828125Q73.72813 49.53125 74.44688 49.53125Q75.18125 49.53125 75.66563 48.828125Q76.16563 48.125 76.16563 46.015625Q76.16563 43.890625 75.66563 43.203125Q75.18125 42.5 74.43125 42.5Q73.7125 42.5 73.275 43.109375Q72.72813 43.890625 72.72813 46.015625ZM78.65 46.015625Q78.65 44.484375 78.9625 43.5625Q79.275 42.625 79.88438 42.125Q80.50938 41.625 81.44688 41.625Q82.13438 41.625 82.65 41.90625Q83.18125 42.1875 83.525 42.71875Q83.86875 43.234375 84.05625 43.984375Q84.24375 44.734375 84.24375 46.015625Q84.24375 47.53125 83.93125 48.453125Q83.63438 49.375 83.00938 49.890625Q82.4 50.390625 81.44688 50.390625Q80.2125 50.390625 79.49375 49.5Q78.65 48.4375 78.65 46.015625ZM79.72813 46.015625Q79.72813 48.125 80.22813 48.828125Q80.72813 49.53125 81.44688 49.53125Q82.18125 49.53125 82.66563 48.828125Q83.16563 48.125 83.16563 46.015625Q83.16563 43.890625 82.66563 43.203125Q82.18125 42.5 81.43125 42.5Q80.7125 42.5 80.275 43.109375Q79.72813 43.890625 79.72813 46.015625ZM85.65 46.015625Q85.65 44.484375 85.9625 43.5625Q86.275 42.625 86.88438 42.125Q87.50938 41.625 88.44688 41.625Q89.13438 41.625 89.65 41.90625Q90.18125 42.1875 90.525 42.71875Q90.86875 43.234375 91.05625 43.984375Q91.24375 44.734375 91.24375 46.015625Q91.24375 47.53125 90.93125 48.453125Q90.63438 49.375 90.00938 49.890625Q89.4 50.390625 88.44688 50.390625Q87.2125 50.390625 86.49375 49.5Q85.65 48.4375 85.65 46.015625ZM86.72813 46.015625Q86.72813 48.125 87.22813 48.828125Q87.72813 49.53125 88.44688 49.53125Q89.18125 49.53125 89.66563 48.828125Q90.16563 48.125 90.16563 46.015625Q90.16563 43.890625 89.66563 43.203125Q89.18125 42.5 88.43125 42.5Q87.7125 42.5 87.275 43.109375Q86.72813 43.890625 86.72813 46.015625ZM93.24375 50.25L93.24375 49.046875L94.44688 49.046875L94.44688 50.25L93.24375 50.25ZM95.65 46.015625Q95.65 44.484375 95.9625 43.5625Q96.275 42.625 96.88438 42.125Q97.50938 41.625 98.44688 41.625Q99.13438 41.625 99.65 41.90625Q100.18125 42.1875 100.525 42.71875Q100.86875 43.234375 101.05625 43.984375Q101.24375 44.734375 101.24375 46.015625Q101.24375 47.53125 100.93125 48.453125Q100.63438 49.375 100.00938 49.890625Q99.4 50.390625 98.44688 50.390625Q97.2125 50.390625 96.49375 49.5Q95.65 48.4375 95.65 46.015625ZM96.72813 46.015625Q96.72813 48.125 97.22813 48.828125Q97.72813 49.53125 98.44688 49.53125Q99.18125 49.53125 99.66563 48.828125Q100.16563 48.125 100.16563 46.015625Q100.16563 43.890625 99.66563 43.203125Q99.18125 42.5 98.43125 42.5Q97.7125 42.5 97.275 43.109375Q96.72813 43.890625 96.72813 46.015625ZM102.65 46.015625Q102.65 44.484375 102.9625 43.5625Q103.275 42.625 103.88438 42.125Q104.50938 41.625 105.44688 41.625Q106.13438 41.625 106.65 41.90625Q107.18125 42.1875 107.525 42.71875Q107.86875 43.234375 108.05625 43.984375Q108.24375 44.734375 108.24375 46.015625Q108.24375 47.53125 107.93125 48.453125Q107.63438 49.375 107.00938 49.890625Q106.4 50.390625 105.44688 50.390625Q104.2125 50.390625 103.49375 49.5Q102.65 48.4375 102.65 46.015625ZM103.72813 46.015625Q103.72813 48.125 104.22813 48.828125Q104.72813 49.53125 105.44688 49.53125Q106.18125 49.53125 106.66563 48.828125Q107.16563 48.125 107.16563 46.015625Q107.16563 43.890625 106.66563 43.203125Q106.18125 42.5 105.43125 42.5Q104.7125 42.5 104.275 43.109375Q103.72813 43.890625 103.72813 46.015625Z" fill-rule="nonzero"/><path fill="#000000" d="M145.15938 282.08438L146.22188 281.99063Q146.3 282.64688 146.58125 283.05313Q146.8625 283.45938 147.44063 283.725Q148.03438 283.975 148.76875 283.975Q149.40938 283.975 149.90938 283.7875Q150.40938 283.58438 150.64375 283.25626Q150.89375 282.9125 150.89375 282.52188Q150.89375 282.11563 150.65938 281.81876Q150.425 281.50626 149.89375 281.30313Q149.53438 281.1625 148.34688 280.88126Q147.175 280.6 146.70625 280.35Q146.08125 280.02188 145.78438 279.55313Q145.4875 279.06876 145.4875 278.475Q145.4875 277.83438 145.84688 277.27188Q146.22188 276.69376 146.925 276.4125Q147.64375 276.11563 148.50313 276.11563Q149.45625 276.11563 150.19063 276.42813Q150.925 276.725 151.31563 277.33438Q151.70625 277.92813 151.7375 278.67813L150.64375 278.75626Q150.55 277.94376 150.03438 277.5375Q149.53438 277.11563 148.55 277.11563Q147.51875 277.11563 147.05 277.49063Q146.58125 277.86563 146.58125 278.39688Q146.58125 278.86563 146.90938 279.1625Q147.2375 279.45938 148.6125 279.77188Q150.00313 280.08438 150.51875 280.31876Q151.26875 280.67813 151.62813 281.20938Q151.9875 281.725 151.9875 282.42813Q151.9875 283.11563 151.59688 283.725Q151.20625 284.31876 150.47188 284.6625Q149.7375 284.99063 148.81563 284.99063Q147.64375 284.99063 146.84688 284.6625Q146.06563 284.31876 145.6125 283.63126Q145.175 282.94376 145.15938 282.08438ZM153.40938 287.24063L153.40938 278.63126L154.3625 278.63126L154.3625 279.42813Q154.70625 278.95938 155.12813 278.725Q155.56563 278.49063 156.175 278.49063Q156.97188 278.49063 157.58125 278.89688Q158.19063 279.30313 158.4875 280.05313Q158.8 280.80313 158.8 281.69376Q158.8 282.64688 158.45625 283.4125Q158.12813 284.17813 157.47188 284.58438Q156.81563 284.99063 156.09688 284.99063Q155.56563 284.99063 155.14375 284.77188Q154.72188 284.5375 154.45625 284.20938L154.45625 287.24063L153.40938 287.24063ZM154.3625 281.77188Q154.3625 282.975 154.84688 283.55313Q155.33125 284.11563 156.01875 284.11563Q156.72188 284.11563 157.22188 283.52188Q157.72188 282.92813 157.72188 281.67813Q157.72188 280.49063 157.2375 279.9125Q156.75313 279.31876 156.06563 279.31876Q155.39375 279.31876 154.87813 279.94376Q154.3625 280.56876 154.3625 281.77188ZM160.39375 284.85L160.39375 278.63126L161.34688 278.63126L161.34688 279.56876Q161.70625 278.9125 162.00313 278.70938Q162.31563 278.49063 162.69063 278.49063Q163.22188 278.49063 163.76875 278.81876L163.40938 279.80313Q163.01875 279.56876 162.64375 279.56876Q162.28438 279.56876 162.00313 279.7875Q161.7375 279.99063 161.62813 280.36563Q161.44063 280.92813 161.44063 281.58438L161.44063 284.85L160.39375 284.85ZM164.40938 277.475L164.40938 276.25626L165.47188 276.25626L165.47188 277.475L164.40938 277.475ZM164.40938 284.85L164.40938 278.63126L165.47188 278.63126L165.47188 284.85L164.40938 284.85ZM167.40938 284.85L167.40938 278.63126L168.34688 278.63126L168.34688 279.50626Q169.03438 278.49063 170.33125 278.49063Q170.89375 278.49063 171.3625 278.69376Q171.84688 278.89688 172.08125 279.225Q172.31563 279.55313 172.40938 279.99063Q172.45625 280.2875 172.45625 281.02188L172.45625 284.85L171.40938 284.85L171.40938 281.06876Q171.40938 280.4125 171.28438 280.1Q171.15938 279.7875 170.84688 279.6Q170.53438 279.39688 170.1125 279.39688Q169.44063 279.39688 168.94063 279.83438Q168.45625 280.25626 168.45625 281.44376L168.45625 284.85L167.40938 284.85ZM176.70625 283.9125L176.8625 284.83438Q176.40938 284.92813 176.06563 284.92813Q175.4875 284.92813 175.175 284.75626Q174.8625 284.56876 174.72188 284.27188Q174.59688 283.975 174.59688 283.02188L174.59688 279.44376L173.83125 279.44376L173.83125 278.63126L174.59688 278.63126L174.59688 277.08438L175.64375 276.45938L175.64375 278.63126L176.70625 278.63126L176.70625 279.44376L175.64375 279.44376L175.64375 283.08438Q175.64375 283.5375 175.69063 283.6625Q175.75313 283.7875 175.87813 283.86563Q176.00313 283.94376 176.2375 283.94376Q176.425 283.94376 176.70625 283.9125ZM184.08125 284.85L183.03438 284.85L183.03438 278.13126Q182.64375 278.49063 182.01875 278.86563Q181.40938 279.225 180.925 279.39688L180.925 278.38126Q181.8 277.95938 182.45625 277.38126Q183.12813 276.7875 183.40938 276.225L184.08125 276.225L184.08125 284.85Z" fill-rule="nonzero"/><path fill="#000000" d="M234.08438 282.08438L235.14688 281.99063Q235.225 282.64688 235.50626 283.05313Q235.7875 283.45938 236.36563 283.725Q236.95938 283.975 237.69376 283.975Q238.33438 283.975 238.83438 283.7875Q239.33438 283.58438 239.56876 283.25626Q239.81876 282.9125 239.81876 282.52188Q239.81876 282.11563 239.58438 281.81876Q239.35 281.50626 238.81876 281.30313Q238.45938 281.1625 237.27188 280.88126Q236.1 280.6 235.63126 280.35Q235.00626 280.02188 234.70938 279.55313Q234.4125 279.06876 234.4125 278.475Q234.4125 277.83438 234.77188 277.27188Q235.14688 276.69376 235.85 276.4125Q236.56876 276.11563 237.42813 276.11563Q238.38126 276.11563 239.11563 276.42813Q239.85 276.725 240.24063 277.33438Q240.63126 277.92813 240.6625 278.67813L239.56876 278.75626Q239.475 277.94376 238.95938 277.5375Q238.45938 277.11563 237.475 277.11563Q236.44376 277.11563 235.975 277.49063Q235.50626 277.86563 235.50626 278.39688Q235.50626 278.86563 235.83438 279.1625Q236.1625 279.45938 237.5375 279.77188Q238.92813 280.08438 239.44376 280.31876Q240.19376 280.67813 240.55313 281.20938Q240.9125 281.725 240.9125 282.42813Q240.9125 283.11563 240.52188 283.725Q240.13126 284.31876 239.39688 284.6625Q238.6625 284.99063 237.74063 284.99063Q236.56876 284.99063 235.77188 284.6625Q234.99063 284.31876 234.5375 283.63126Q234.1 282.94376 234.08438 282.08438ZM242.33438 287.24063L242.33438 278.63126L243.2875 278.63126L243.2875 279.42813Q243.63126 278.95938 244.05313 278.725Q244.49063 278.49063 245.1 278.49063Q245.89688 278.49063 246.50626 278.89688Q247.11563 279.30313 247.4125 280.05313Q247.725 280.80313 247.725 281.69376Q247.725 282.64688 247.38126 283.4125Q247.05313 284.17813 246.39688 284.58438Q245.74063 284.99063 245.02188 284.99063Q244.49063 284.99063 244.06876 284.77188Q243.64688 284.5375 243.38126 284.20938L243.38126 287.24063L242.33438 287.24063ZM243.2875 281.77188Q243.2875 282.975 243.77188 283.55313Q244.25626 284.11563 244.94376 284.11563Q245.64688 284.11563 246.14688 283.52188Q246.64688 282.92813 246.64688 281.67813Q246.64688 280.49063 246.1625 279.9125Q245.67813 279.31876 244.99063 279.31876Q244.31876 279.31876 243.80313 279.94376Q243.2875 280.56876 243.2875 281.77188ZM249.31876 284.85L249.31876 278.63126L250.27188 278.63126L250.27188 279.56876Q250.63126 278.9125 250.92813 278.70938Q251.24063 278.49063 251.61563 278.49063Q252.14688 278.49063 252.69376 278.81876L252.33438 279.80313Q251.94376 279.56876 251.56876 279.56876Q251.20938 279.56876 250.92813 279.7875Q250.6625 279.99063 250.55313 280.36563Q250.36563 280.92813 250.36563 281.58438L250.36563 284.85L249.31876 284.85ZM253.33438 277.475L253.33438 276.25626L254.39688 276.25626L254.39688 277.475L253.33438 277.475ZM253.33438 284.85L253.33438 278.63126L254.39688 278.63126L254.39688 284.85L253.33438 284.85ZM256.33438 284.85L256.33438 278.63126L257.27188 278.63126L257.27188 279.50626Q257.95938 278.49063 259.25626 278.49063Q259.81876 278.49063 260.2875 278.69376Q260.77188 278.89688 261.00626 279.225Q261.24063 279.55313 261.33438 279.99063Q261.38126 280.2875 261.38126 281.02188L261.38126 284.85L260.33438 284.85L260.33438 281.06876Q260.33438 280.4125 260.20938 280.1Q260.08438 279.7875 259.77188 279.6Q259.45938 279.39688 259.0375 279.39688Q258.36563 279.39688 257.86563 279.83438Q257.38126 280.25626 257.38126 281.44376L257.38126 284.85L256.33438 284.85ZM265.63126 283.9125L265.7875 284.83438Q265.33438 284.92813 264.99063 284.92813Q264.4125 284.92813 264.1 284.75626Q263.7875 284.56876 263.64688 284.27188Q263.52188 283.975 263.52188 283.02188L263.52188 279.44376L262.75626 279.44376L262.75626 278.63126L263.52188 278.63126L263.52188 277.08438L264.56876 276.45938L264.56876 278.63126L265.63126 278.63126L265.63126 279.44376L264.56876 279.44376L264.56876 283.08438Q264.56876 283.5375 264.61563 283.6625Q264.67813 283.7875 264.80313 283.86563Q264.92813 283.94376 265.1625 283.94376Q265.35 283.94376 265.63126 283.9125ZM274.58438 283.83438L274.58438 284.85L268.89688 284.85Q268.89688 284.475 269.02188 284.11563Q269.24063 283.5375 269.70938 282.975Q270.19376 282.4125 271.1 281.67813Q272.50626 280.52188 272.99063 279.85Q273.49063 279.17813 273.49063 278.58438Q273.49063 277.95938 273.0375 277.5375Q272.58438 277.1 271.86563 277.1Q271.1 277.1 270.64688 277.55313Q270.19376 278.00626 270.17813 278.81876L269.1 278.70938Q269.20938 277.49063 269.92813 276.86563Q270.6625 276.225 271.89688 276.225Q273.13126 276.225 273.85 276.9125Q274.56876 277.6 274.56876 278.61563Q274.56876 279.13126 274.35 279.63126Q274.14688 280.11563 273.64688 280.67813Q273.1625 281.225 272.0375 282.17813Q271.08438 282.975 270.80313 283.27188Q270.5375 283.55313 270.36563 283.83438L274.58438 283.83438Z" fill-rule="nonzero"/><path fill="#000000" d="M323.00937 282.08438L324.07187 281.99063Q324.15 282.64688 324.43124 283.05313Q324.7125 283.45938 325.29062 283.725Q325.88437 283.975 326.61874 283.975Q327.25937 283.975 327.75937 283.7875Q328.25937 283.58438 328.49374 283.25626Q328.74374 282.9125 328.74374 282.52188Q328.74374 282.11563 328.50937 281.81876Q328.275 281.50626 327.74374 281.30313Q327.38437 281.1625 326.19687 280.88126Q325.025 280.6 324.55624 280.35Q323.93124 280.02188 323.63437 279.55313Q323.3375 279.06876 323.3375 278.475Q323.3375 277.83438 323.69687 277.27188Q324.07187 276.69376 324.775 276.4125Q325.49374 276.11563 326.35312 276.11563Q327.30624 276.11563 328.04062 276.42813Q328.775 276.725 329.16562 277.33438Q329.55624 277.92813 329.5875 278.67813L328.49374 278.75626Q328.4 277.94376 327.88437 277.5375Q327.38437 277.11563 326.4 277.11563Q325.36874 277.11563 324.9 277.49063Q324.43124 277.86563 324.43124 278.39688Q324.43124 278.86563 324.75937 279.1625Q325.0875 279.45938 326.4625 279.77188Q327.85312 280.08438 328.36874 280.31876Q329.11874 280.67813 329.47812 281.20938Q329.8375 281.725 329.8375 282.42813Q329.8375 283.11563 329.44687 283.725Q329.05624 284.31876 328.32187 284.6625Q327.5875 284.99063 326.66562 284.99063Q325.49374 284.99063 324.69687 284.6625Q323.91562 284.31876 323.4625 283.63126Q323.025 282.94376 323.00937 282.08438ZM331.25937 287.24063L331.25937 278.63126L332.2125 278.63126L332.2125 279.42813Q332.55624 278.95938 332.97812 278.725Q333.41562 278.49063 334.025 278.49063Q334.82187 278.49063 335.43124 278.89688Q336.04062 279.30313 336.3375 280.05313Q336.65 280.80313 336.65 281.69376Q336.65 282.64688 336.30624 283.4125Q335.97812 284.17813 335.32187 284.58438Q334.66562 284.99063 333.94687 284.99063Q333.41562 284.99063 332.99374 284.77188Q332.57187 284.5375 332.30624 284.20938L332.30624 287.24063L331.25937 287.24063ZM332.2125 281.77188Q332.2125 282.975 332.69687 283.55313Q333.18124 284.11563 333.86874 284.11563Q334.57187 284.11563 335.07187 283.52188Q335.57187 282.92813 335.57187 281.67813Q335.57187 280.49063 335.0875 279.9125Q334.60312 279.31876 333.91562 279.31876Q333.24374 279.31876 332.72812 279.94376Q332.2125 280.56876 332.2125 281.77188ZM338.24374 284.85L338.24374 278.63126L339.19687 278.63126L339.19687 279.56876Q339.55624 278.9125 339.85312 278.70938Q340.16562 278.49063 340.54062 278.49063Q341.07187 278.49063 341.61874 278.81876L341.25937 279.80313Q340.86874 279.56876 340.49374 279.56876Q340.13437 279.56876 339.85312 279.7875Q339.5875 279.99063 339.47812 280.36563Q339.29062 280.92813 339.29062 281.58438L339.29062 284.85L338.24374 284.85ZM342.25937 277.475L342.25937 276.25626L343.32187 276.25626L343.32187 277.475L342.25937 277.475ZM342.25937 284.85L342.25937 278.63126L343.32187 278.63126L343.32187 284.85L342.25937 284.85ZM345.25937 284.85L345.25937 278.63126L346.19687 278.63126L346.19687 279.50626Q346.88437 278.49063 348.18124 278.49063Q348.74374 278.49063 349.2125 278.69376Q349.69687 278.89688 349.93124 279.225Q350.16562 279.55313 350.25937 279.99063Q350.30624 280.2875 350.30624 281.02188L350.30624 284.85L349.25937 284.85L349.25937 281.06876Q349.25937 280.4125 349.13437 280.1Q349.00937 279.7875 348.69687 279.6Q348.38437 279.39688 347.9625 279.39688Q347.29062 279.39688 346.79062 279.83438Q346.30624 280.25626 346.30624 281.44376L346.30624 284.85L345.25937 284.85ZM354.55624 283.9125L354.7125 284.83438Q354.25937 284.92813 353.91562 284.92813Q353.3375 284.92813 353.025 284.75626Q352.7125 284.56876 352.57187 284.27188Q352.44687 283.975 352.44687 283.02188L352.44687 279.44376L351.68124 279.44376L351.68124 278.63126L352.44687 278.63126L352.44687 277.08438L353.49374 276.45938L353.49374 278.63126L354.55624 278.63126L354.55624 279.44376L353.49374 279.44376L353.49374 283.08438Q353.49374 283.5375 353.54062 283.6625Q353.60312 283.7875 353.72812 283.86563Q353.85312 283.94376 354.0875 283.94376Q354.275 283.94376 354.55624 283.9125ZM357.9625 282.58438L359.025 282.44376Q359.19687 283.33438 359.63437 283.74063Q360.07187 284.13126 360.69687 284.13126Q361.44687 284.13126 361.9625 283.61563Q362.47812 283.1 362.47812 282.33438Q362.47812 281.61563 361.99374 281.14688Q361.525 280.6625 360.79062 280.6625Q360.49374 280.6625 360.04062 280.7875L360.16562 279.85Q360.275 279.86563 360.3375 279.86563Q361.00937 279.86563 361.54062 279.52188Q362.0875 279.1625 362.0875 278.42813Q362.0875 277.85 361.69687 277.475Q361.30624 277.08438 360.68124 277.08438Q360.07187 277.08438 359.65 277.475Q359.24374 277.86563 359.13437 278.63126L358.07187 278.44376Q358.25937 277.39688 358.94687 276.81876Q359.63437 276.225 360.65 276.225Q361.35312 276.225 361.94687 276.5375Q362.54062 276.83438 362.85312 277.35Q363.16562 277.86563 363.16562 278.45938Q363.16562 279.00626 362.86874 279.475Q362.57187 279.92813 361.99374 280.19376Q362.74374 280.36563 363.16562 280.92813Q363.5875 281.475 363.5875 282.31876Q363.5875 283.44376 362.75937 284.225Q361.94687 285.00626 360.69687 285.00626Q359.57187 285.00626 358.82187 284.33438Q358.07187 283.64688 357.9625 282.58438Z" fill-rule="nonzero"/><path fill="#000000" d="M411.9344 282.08438L412.9969 281.99063Q413.075 282.64688 413.35626 283.05313Q413.6375 283.45938 414.21564 283.725Q414.8094 283.975 415.54376 283.975Q416.1844 283.975 416.6844 283.7875Q417.1844 283.58438 417.41876 283.25626Q417.66876 282.9125 417.66876 282.52188Q417.66876 282.11563 417.4344 281.81876Q417.2 281.50626 416.66876 281.30313Q416.3094 281.1625 415.1219 280.88126Q413.95 280.6 413.48126 280.35Q412.85626 280.02188 412.5594 279.55313Q412.2625 279.06876 412.2625 278.475Q412.2625 277.83438 412.6219 277.27188Q412.9969 276.69376 413.7 276.4125Q414.41876 276.11563 415.27814 276.11563Q416.23126 276.11563 416.96564 276.42813Q417.7 276.725 418.09064 277.33438Q418.48126 277.92813 418.5125 278.67813L417.41876 278.75626Q417.325 277.94376 416.8094 277.5375Q416.3094 277.11563 415.325 277.11563Q414.29376 277.11563 413.825 277.49063Q413.35626 277.86563 413.35626 278.39688Q413.35626 278.86563 413.6844 279.1625Q414.0125 279.45938 415.3875 279.77188Q416.77814 280.08438 417.29376 280.31876Q418.04376 280.67813 418.40314 281.20938Q418.7625 281.725 418.7625 282.42813Q418.7625 283.11563 418.3719 283.725Q417.98126 284.31876 417.2469 284.6625Q416.5125 284.99063 415.59064 284.99063Q414.41876 284.99063 413.6219 284.6625Q412.84064 284.31876 412.3875 283.63126Q411.95 282.94376 411.9344 282.08438ZM420.1844 287.24063L420.1844 278.63126L421.1375 278.63126L421.1375 279.42813Q421.48126 278.95938 421.90314 278.725Q422.34064 278.49063 422.95 278.49063Q423.7469 278.49063 424.35626 278.89688Q424.96564 279.30313 425.2625 280.05313Q425.575 280.80313 425.575 281.69376Q425.575 282.64688 425.23126 283.4125Q424.90314 284.17813 424.2469 284.58438Q423.59064 284.99063 422.8719 284.99063Q422.34064 284.99063 421.91876 284.77188Q421.4969 284.5375 421.23126 284.20938L421.23126 287.24063L420.1844 287.24063ZM421.1375 281.77188Q421.1375 282.975 421.6219 283.55313Q422.10626 284.11563 422.79376 284.11563Q423.4969 284.11563 423.9969 283.52188Q424.4969 282.92813 424.4969 281.67813Q424.4969 280.49063 424.0125 279.9125Q423.52814 279.31876 422.84064 279.31876Q422.16876 279.31876 421.65314 279.94376Q421.1375 280.56876 421.1375 281.77188ZM427.16876 284.85L427.16876 278.63126L428.1219 278.63126L428.1219 279.56876Q428.48126 278.9125 428.77814 278.70938Q429.09064 278.49063 429.46564 278.49063Q429.9969 278.49063 430.54376 278.81876L430.1844 279.80313Q429.79376 279.56876 429.41876 279.56876Q429.0594 279.56876 428.77814 279.7875Q428.5125 279.99063 428.40314 280.36563Q428.21564 280.92813 428.21564 281.58438L428.21564 284.85L427.16876 284.85ZM431.1844 277.475L431.1844 276.25626L432.2469 276.25626L432.2469 277.475L431.1844 277.475ZM431.1844 284.85L431.1844 278.63126L432.2469 278.63126L432.2469 284.85L431.1844 284.85ZM434.1844 284.85L434.1844 278.63126L435.1219 278.63126L435.1219 279.50626Q435.8094 278.49063 437.10626 278.49063Q437.66876 278.49063 438.1375 278.69376Q438.6219 278.89688 438.85626 279.225Q439.09064 279.55313 439.1844 279.99063Q439.23126 280.2875 439.23126 281.02188L439.23126 284.85L438.1844 284.85L438.1844 281.06876Q438.1844 280.4125 438.0594 280.1Q437.9344 279.7875 437.6219 279.6Q437.3094 279.39688 436.8875 279.39688Q436.21564 279.39688 435.71564 279.83438Q435.23126 280.25626 435.23126 281.44376L435.23126 284.85L434.1844 284.85ZM443.48126 283.9125L443.6375 284.83438Q443.1844 284.92813 442.84064 284.92813Q442.2625 284.92813 441.95 284.75626Q441.6375 284.56876 441.4969 284.27188Q441.3719 283.975 441.3719 283.02188L441.3719 279.44376L440.60626 279.44376L440.60626 278.63126L441.3719 278.63126L441.3719 277.08438L442.41876 276.45938L442.41876 278.63126L443.48126 278.63126L443.48126 279.44376L442.41876 279.44376L442.41876 283.08438Q442.41876 283.5375 442.46564 283.6625Q442.52814 283.7875 442.65314 283.86563Q442.77814 283.94376 443.0125 283.94376Q443.2 283.94376 443.48126 283.9125ZM450.2625 284.85L450.2625 282.7875L446.54376 282.7875L446.54376 281.81876L450.46564 276.25626L451.325 276.25626L451.325 281.81876L452.48126 281.81876L452.48126 282.7875L451.325 282.7875L451.325 284.85L450.2625 284.85ZM450.2625 281.81876L450.2625 277.95938L447.575 281.81876L450.2625 281.81876Z" fill-rule="nonzero"/><path fill="#4285f4" d="M206.0 22.15C206.0 25.463709 203.3137 28.15 200.0 28.15C196.6863 28.15 194.0 25.463709 194.0 22.15C194.0 18.836292 196.6863 16.15 200.0 16.15C203.3137 16.15 206.0 18.836292 206.0 22.15Z" fill-rule="nonzero"/><path fill="#1a1a1a" d="M214.875 26.15L214.875 17.55625L218.10938 17.55625Q219.09375 17.55625 219.6875 17.821875Q220.28125 18.0875 220.60938 18.634375Q220.95312 19.165625 220.95312 19.759375Q220.95312 20.30625 220.65625 20.790625Q220.35938 21.275 219.75 21.571875Q220.53125 21.80625 220.9375 22.36875Q221.35938 22.915625 221.35938 23.665625Q221.35938 24.259375 221.10938 24.790625Q220.85938 25.30625 220.48438 25.5875Q220.10938 25.86875 219.53125 26.009375Q218.96875 26.15 218.15625 26.15L214.875 26.15ZM216.01562 21.165625L217.875 21.165625Q218.625 21.165625 218.95312 21.071875Q219.39062 20.946875 219.60938 20.65Q219.82812 20.3375 219.82812 19.884375Q219.82812 19.4625 219.625 19.134375Q219.42188 18.80625 219.03125 18.696875Q218.65625 18.571875 217.73438 18.571875L216.01562 18.571875L216.01562 21.165625ZM216.01562 25.134375L218.15625 25.134375Q218.70312 25.134375 218.92188 25.0875Q219.32812 25.025 219.57812 24.86875Q219.84375 24.696875 220.01562 24.384375Q220.1875 24.071875 220.1875 23.665625Q220.1875 23.18125 219.9375 22.821875Q219.70312 22.4625 219.26562 22.321875Q218.82812 22.18125 218.0 22.18125L216.01562 22.18125L216.01562 25.134375ZM221.98438 26.15L225.28125 17.55625L226.5 17.55625L230.01562 26.15L228.73438 26.15L227.71875 23.540625L224.14062 23.540625L223.1875 26.15L221.98438 26.15ZM224.46875 22.61875L227.375 22.61875L226.48438 20.24375Q226.0625 19.165625 225.875 18.4625Q225.70312 19.290625 225.40625 20.103125L224.46875 22.61875ZM236.0625 23.134375L237.1875 23.43125Q236.82812 24.821875 235.90625 25.55625Q234.98438 26.290625 233.64062 26.290625Q232.25 26.290625 231.375 25.728125Q230.5 25.165625 230.04688 24.103125Q229.59375 23.025 229.59375 21.790625Q229.59375 20.446875 230.10938 19.446875Q230.625 18.446875 231.5625 17.93125Q232.51562 17.415625 233.65625 17.415625Q234.9375 17.415625 235.8125 18.071875Q236.70312 18.728125 237.04688 19.915625L235.92188 20.18125Q235.625 19.24375 235.04688 18.821875Q234.48438 18.384375 233.625 18.384375Q232.64062 18.384375 231.96875 18.86875Q231.3125 19.3375 231.03125 20.134375Q230.76562 20.93125 230.76562 21.790625Q230.76562 22.884375 231.07812 23.696875Q231.40625 24.509375 232.07812 24.915625Q232.75 25.321875 233.54688 25.321875Q234.5 25.321875 235.15625 24.775Q235.82812 24.228125 236.0625 23.134375Z" fill-rule="nonzero"/><path fill="#ea4335" d="M266.0 22.15C266.0 25.463709 263.31372 28.15 260.0 28.15C256.68628 28.15 254.0 25.463709 254.0 22.15C254.0 18.836292 256.68628 16.15 260.0 16.15C263.31372 16.15 266.0 18.836292 266.0 22.15Z" fill-rule="nonzero"/><path fill="#1a1a1a" d="M274.95312 26.15L274.95312 17.55625L281.15625 17.55625L281.15625 18.571875L276.09375 18.571875L276.09375 21.196875L280.84375 21.196875L280.84375 22.2125L276.09375 22.2125L276.09375 25.134375L281.35938 25.134375L281.35938 26.15L274.95312 26.15ZM281.98438 26.15L285.28125 17.55625L286.5 17.55625L290.01562 26.15L288.73438 26.15L287.71875 23.540625L284.14062 23.540625L283.1875 26.15L281.98438 26.15ZM284.46875 22.61875L287.375 22.61875L286.48438 20.24375Q286.0625 19.165625 285.875 18.4625Q285.70312 19.290625 285.40625 20.103125L284.46875 22.61875ZM296.0625 23.134375L297.1875 23.43125Q296.82812 24.821875 295.90625 25.55625Q294.98438 26.290625 293.64062 26.290625Q292.25 26.290625 291.375 25.728125Q290.5 25.165625 290.04688 24.103125Q289.59375 23.025 289.59375 21.790625Q289.59375 20.446875 290.10938 19.446875Q290.625 18.446875 291.5625 17.93125Q292.51562 17.415625 293.65625 17.415625Q294.9375 17.415625 295.8125 18.071875Q296.70312 18.728125 297.04688 19.915625L295.92188 20.18125Q295.625 19.24375 295.04688 18.821875Q294.48438 18.384375 293.625 18.384375Q292.64062 18.384375 291.96875 18.86875Q291.3125 19.3375 291.03125 20.134375Q290.76562 20.93125 290.76562 21.790625Q290.76562 22.884375 291.07812 23.696875Q291.40625 24.509375 292.07812 24.915625Q292.75 25.321875 293.54688 25.321875Q294.5 25.321875 295.15625 24.775Q295.82812 24.228125 296.0625 23.134375Z" fill-rule="nonzero"/></svg>