<svg version="1.1" viewBox="0.0 0.0 532.0 328.0" fill="none" stroke="none" stroke-linecap="square" stroke-miterlimit="10" width="532" height="328" xmlns:xlink="http://www.w3.org/1999/xlink" xmlns="http://www.w3.org/2000/svg"><path fill="#ffffff" d="M0 0L532.0 0L532.0 328.0L0 328.0L0 0Z" fill-rule="nonzero"/><path stroke="#333333" stroke-width="1.0" stroke-linecap="butt" d="M81.5 285.5L515.5 285.5" fill-rule="nonzero"/><path stroke="#cccccc" stroke-width="1.0" stroke-linecap="butt" d="M81.5 261.5L515.5 261.5" fill-rule="nonzero"/><path stroke="#cccccc" stroke-width="1.0" stroke-linecap="butt" d="M81.5 238.5L515.5 238.5" fill-rule="nonzero"/><path stroke="#cccccc" stroke-width="1.0" stroke-linecap="butt" d="M81.5 214.5L515.5 214.5" fill-rule="nonzero"/><path stroke="#cccccc" stroke-width="1.0" stroke-linecap="butt" d="M81.5 190.5L515.5 190.5" fill-rule="nonzero"/><path stroke="#cccccc" stroke-width="1.0" stroke-linecap="butt" d="M81.5 166.5L515.5 166.5" fill-rule="nonzero"/><path stroke="#cccccc" stroke-width="1.0" stroke-linecap="butt" d="M81.5 143.5L515.5 143.5" fill-rule="nonzero"/><path stroke="#cccccc" stroke-width="1.0" stroke-linecap="butt" d="M81.5 119.5L515.5 119.5" fill-rule="nonzero"/><path stroke="#cccccc" stroke-width="1.0" stroke-linecap="butt" d="M81.5 95.5L515.5 95.5" fill-rule="nonzero"/><path stroke="#cccccc" stroke-width="1.0" stroke-linecap="butt" d="M81.5 72.5L515.5 72.5" fill-rule="nonzero"/><path stroke="#cccccc" stroke-width="1.0" stroke-linecap="butt" d="M81.5 48.5L515.5 48.5" fill-rule="nonzero"/><path stroke="#000000" stroke-width="1.0" stroke-linecap="butt" d="M515.5 285.5L81.5 285.5" fill-rule="nonzero"/><path stroke="#000000" stroke-width="1.0" stroke-linecap="butt" d="M81.5 285.5L81.5 48.5" fill-rule="nonzero"/><clipPath id="id_0"><path d="M81.4 48.333332L515.6 48.333332L515.6 285.6L81.4 285.6L81.4 48.333332Z" clip-rule="nonzero"/></clipPath><path stroke="#4285f4" stroke-width="2.0" stroke-linecap="butt" clip-path="url(#id_0)" d="M117.583336 200.36829C117.583336 200.36829 165.82777 165.5005 189.95 156.39539C214.07222 147.29025 238.19444 149.95331 262.31668 145.73755C286.4389 141.52177 310.5611 134.28514 334.68332 131.10077C358.80554 127.916405 382.92776 128.56258 407.05 126.63133C431.1722 124.700096 479.41666 119.513336 479.41666 119.513336" fill-rule="nonzero"/><path stroke="#ea4335" stroke-width="2.0" stroke-linecap="butt" clip-path="url(#id_0)" d="M117.583336 166.96666C117.583336 166.96666 165.82777 166.96666 189.95 166.96666C214.07222 166.96666 238.19444 166.96666 262.31668 166.96666C286.4389 166.96666 310.5611 166.96666 334.68332 166.96666C358.80554 166.96666 382.92776 166.96666 407.05 166.96666C431.1722 166.96666 479.41666 166.96666 479.41666 166.96666" fill-rule="nonzero"/><path stroke="#fbbc04" stroke-width="4.0" stroke-linecap="butt" stroke-opacity="0.7019608" clip-path="url(#id_0)" d="M117.583336 48.333332C117.583336 48.333332 165.82777 48.333332 189.95 48.333332C214.07222 48.333332 238.19444 48.333332 262.31668 48.333332C286.4389 48.333332 310.5611 48.333332 334.68332 48.333332C358.80554 48.333332 382.92776 48.333332 407.05 48.333332C431.1722 48.333332 479.41666 48.333332 479.41666 48.333332" fill-rule="nonzero"/><path fill="#4285f4" clip-path="url(#id_0)" d="M121.083336 200.36829C121.083336 202.30128 119.51633 203.86829 117.583336 203.86829C115.65034 203.86829 114.083336 202.30128 114.083336 200.36829C114.083336 198.43529 115.65034 196.86829 117.583336 196.86829C119.51633 196.86829 121.083336 198.43529 121.083336 200.36829Z" fill-rule="nonzero"/><path fill="#4285f4" clip-path="url(#id_0)" d="M193.45 156.39539C193.45 158.32837 191.883 159.89539 189.95 159.89539C188.017 159.89539 186.45 158.32837 186.45 156.39539C186.45 154.46239 188.017 152.89539 189.95 152.89539C191.883 152.89539 193.45 154.46239 193.45 156.39539Z" fill-rule="nonzero"/><path fill="#4285f4" clip-path="url(#id_0)" d="M265.81668 145.73755C265.81668 147.67055 264.24966 149.23755 262.31668 149.23755C260.38367 149.23755 258.81668 147.67055 258.81668 145.73755C258.81668 143.80455 260.38367 142.23755 262.31668 142.23755C264.24966 142.23755 265.81668 143.80455 265.81668 145.73755Z" fill-rule="nonzero"/><path fill="#4285f4" clip-path="url(#id_0)" d="M338.18332 131.10077C338.18332 133.03377 336.61633 134.60077 334.68332 134.60077C332.75034 134.60077 331.18332 133.03377 331.18332 131.10077C331.18332 129.16779 332.75034 127.60078 334.68332 127.60078C336.61633 127.60078 338.18332 129.16779 338.18332 131.10077Z" fill-rule="nonzero"/><path fill="#4285f4" clip-path="url(#id_0)" d="M410.55 126.63133C410.55 128.56433 408.983 130.13133 407.05 130.13133C405.117 130.13133 403.55 128.56433 403.55 126.63133C403.55 124.69833 405.117 123.13133 407.05 123.13133C408.983 123.13133 410.55 124.69833 410.55 126.63133Z" fill-rule="nonzero"/><path fill="#4285f4" clip-path="url(#id_0)" d="M482.91666 119.513336C482.91666 121.44633 481.34967 123.013336 479.41666 123.013336C477.48367 123.013336 475.91666 121.44633 475.91666 119.513336C475.91666 117.58034 477.48367 116.013336 479.41666 116.013336C481.34967 116.013336 482.91666 117.58034 482.91666 119.513336Z" fill-rule="nonzero"/><path fill="#ea4335" clip-path="url(#id_0)" d="M121.083336 166.96666C121.083336 168.89966 119.51633 170.46666 117.583336 170.46666C115.65034 170.46666 114.083336 168.89966 114.083336 166.96666C114.083336 165.03368 115.65034 163.46666 117.583336 163.46666C119.51633 163.46666 121.083336 165.03368 121.083336 166.96666Z" fill-rule="nonzero"/><path fill="#ea4335" clip-path="url(#id_0)" d="M193.45 166.96666C193.45 168.89966 191.883 170.46666 189.95 170.46666C188.017 170.46666 186.45 168.89966 186.45 166.96666C186.45 165.03368 188.017 163.46666 189.95 163.46666C191.883 163.46666 193.45 165.03368 193.45 166.96666Z" fill-rule="nonzero"/><path fill="#ea4335" clip-path="url(#id_0)" d="M265.81668 166.96666C265.81668 168.89966 264.24966 170.46666 262.31668 170.46666C260.38367 170.46666 258.81668 168.89966 258.81668 166.96666C258.81668 165.03368 260.38367 163.46666 262.31668 163.46666C264.24966 163.46666 265.81668 165.03368 265.81668 166.96666Z" fill-rule="nonzero"/><path fill="#ea4335" clip-path="url(#id_0)" d="M338.18332 166.96666C338.18332 168.89966 336.61633 170.46666 334.68332 170.46666C332.75034 170.46666 331.18332 168.89966 331.18332 166.96666C331.18332 165.03368 332.75034 163.46666 334.68332 163.46666C336.61633 163.46666 338.18332 165.03368 338.18332 166.96666Z" fill-rule="nonzero"/><path fill="#ea4335" clip-path="url(#id_0)" d="M410.55 166.96666C410.55 168.89966 408.983 170.46666 407.05 170.46666C405.117 170.46666 403.55 168.89966 403.55 166.96666C403.55 165.03368 405.117 163.46666 407.05 163.46666C408.983 163.46666 410.55 165.03368 410.55 166.96666Z" fill-rule="nonzero"/><path fill="#ea4335" clip-path="url(#id_0)" d="M482.91666 166.96666C482.91666 168.89966 481.34967 170.46666 479.41666 170.46666C477.48367 170.46666 475.91666 168.89966 475.91666 166.96666C475.91666 165.03368 477.48367 163.46666 479.41666 163.46666C481.34967 163.46666 482.91666 165.03368 482.91666 166.96666Z" fill-rule="nonzero"/><path fill="#fbbc04" fill-opacity="0.7019608" clip-path="url(#id_0)" d="M121.083336 48.333332C121.083336 50.26633 119.51633 51.833332 117.583336 51.833332C115.65034 51.833332 114.083336 50.26633 114.083336 48.333332C114.083336 46.400337 115.65034 44.833332 117.583336 44.833332C119.51633 44.833332 121.083336 46.400337 121.083336 48.333332Z" fill-rule="nonzero"/><path fill="#fbbc04" fill-opacity="0.7019608" clip-path="url(#id_0)" d="M193.45 48.333332C193.45 50.26633 191.883 51.833332 189.95 51.833332C188.017 51.833332 186.45 50.26633 186.45 48.333332C186.45 46.400337 188.017 44.833332 189.95 44.833332C191.883 44.833332 193.45 46.400337 193.45 48.333332Z" fill-rule="nonzero"/><path fill="#fbbc04" fill-opacity="0.7019608" clip-path="url(#id_0)" d="M265.81668 48.333332C265.81668 50.26633 264.24966 51.833332 262.31668 51.833332C260.38367 51.833332 258.81668 50.26633 258.81668 48.333332C258.81668 46.400337 260.38367 44.833332 262.31668 44.833332C264.24966 44.833332 265.81668 46.400337 265.81668 48.333332Z" fill-rule="nonzero"/><path fill="#fbbc04" fill-opacity="0.7019608" clip-path="url(#id_0)" d="M338.18332 48.333332C338.18332 50.26633 336.61633 51.833332 334.68332 51.833332C332.75034 51.833332 331.18332 50.26633 331.18332 48.333332C331.18332 46.400337 332.75034 44.833332 334.68332 44.833332C336.61633 44.833332 338.18332 46.400337 338.18332 48.333332Z" fill-rule="nonzero"/><path fill="#fbbc04" fill-opacity="0.7019608" clip-path="url(#id_0)" d="M410.55 48.333332C410.55 50.26633 408.983 51.833332 407.05 51.833332C405.117 51.833332 403.55 50.26633 403.55 48.333332C403.55 46.400337 405.117 44.833332 407.05 44.833332C408.983 44.833332 410.55 46.400337 410.55 48.333332Z" fill-rule="nonzero"/><path fill="#fbbc04" fill-opacity="0.7019608" clip-path="url(#id_0)" d="M482.91666 48.333332C482.91666 50.26633 481.34967 51.833332 479.41666 51.833332C477.48367 51.833332 475.91666 50.26633 475.91666 48.333332C475.91666 46.400337 477.48367 44.833332 479.41666 44.833332C481.34967 44.833332 482.91666 46.400337 482.91666 48.333332Z" fill-rule="nonzero"/><path stroke="#000000" stroke-width="1.0" stroke-linecap="butt" d="M117.5 291.5L117.5 279.5" fill-rule="nonzero"/><path stroke="#000000" stroke-width="1.0" stroke-linecap="butt" d="M189.5 291.5L189.5 279.5" fill-rule="nonzero"/><path stroke="#000000" stroke-width="1.0" stroke-linecap="butt" d="M262.5 291.5L262.5 279.5" fill-rule="nonzero"/><path stroke="#000000" stroke-width="1.0" stroke-linecap="butt" d="M334.5 291.5L334.5 279.5" fill-rule="nonzero"/><path stroke="#000000" stroke-width="1.0" stroke-linecap="butt" d="M407.5 291.5L407.5 279.5" fill-rule="nonzero"/><path stroke="#000000" stroke-width="1.0" stroke-linecap="butt" d="M479.5 291.5L479.5 279.5" fill-rule="nonzero"/><path stroke="#000000" stroke-width="1.0" stroke-linecap="butt" d="M75.5 285.5L87.5 285.5" fill-rule="nonzero"/><path stroke="#000000" stroke-width="1.0" stroke-linecap="butt" d="M75.5 261.5L87.5 261.5" fill-rule="nonzero"/><path stroke="#000000" stroke-width="1.0" stroke-linecap="butt" d="M75.5 238.5L87.5 238.5" fill-rule="nonzero"/><path stroke="#000000" stroke-width="1.0" stroke-linecap="butt" d="M75.5 214.5L87.5 214.5" fill-rule="nonzero"/><path stroke="#000000" stroke-width="1.0" stroke-linecap="butt" d="M75.5 190.5L87.5 190.5" fill-rule="nonzero"/><path stroke="#000000" stroke-width="1.0" stroke-linecap="butt" d="M75.5 166.5L87.5 166.5" fill-rule="nonzero"/><path stroke="#000000" stroke-width="1.0" stroke-linecap="butt" d="M75.5 143.5L87.5 143.5" fill-rule="nonzero"/><path stroke="#000000" stroke-width="1.0" stroke-linecap="butt" d="M75.5 119.5L87.5 119.5" fill-rule="nonzero"/><path stroke="#000000" stroke-width="1.0" stroke-linecap="butt" d="M75.5 95.5L87.5 95.5" fill-rule="nonzero"/><path stroke="#000000" stroke-width="1.0" stroke-linecap="butt" d="M75.5 72.5L87.5 72.5" fill-rule="nonzero"/><path stroke="#000000" stroke-width="1.0" stroke-linecap="butt" d="M75.5 48.5L87.5 48.5" fill-rule="nonzero"/><path fill="#000000" d="M62.9 285.36563Q62.9 283.83438 63.2125 282.9125Q63.525 281.975 64.13438 281.475Q64.75938 280.975 65.69688 280.975Q66.38438 280.975 66.9 281.25626Q67.43125 281.5375 67.775 282.06876Q68.11875 282.58438 68.30625 283.33438Q68.49375 284.08438 68.49375 285.36563Q68.49375 286.88126 68.18125 287.80313Q67.88438 288.725 67.25938 289.24063Q66.65 289.74063 65.69688 289.74063Q64.4625 289.74063 63.74375 288.85Q62.9 287.7875 62.9 285.36563ZM63.978127 285.36563Q63.978127 287.475 64.47813 288.17813Q64.97813 288.88126 65.69688 288.88126Q66.43125 288.88126 66.91563 288.17813Q67.41563 287.475 67.41563 285.36563Q67.41563 283.24063 66.91563 282.55313Q66.43125 281.85 65.68125 281.85Q64.9625 281.85 64.525 282.45938Q63.978127 283.24063 63.978127 285.36563Z" fill-rule="nonzero"/><path fill="#000000" d="M59.86875 265.87332L58.821877 265.87332L58.821877 259.15457Q58.43125 259.51395 57.80625 259.88895Q57.196877 260.24832 56.7125 260.4202L56.7125 259.40457Q57.5875 258.9827 58.24375 258.40457Q58.915627 257.81082 59.196877 257.24832L59.86875 257.24832L59.86875 265.87332ZM62.9 261.63895Q62.9 260.1077 63.2125 259.18582Q63.525 258.24832 64.13438 257.74832Q64.75938 257.24832 65.69688 257.24832Q66.38438 257.24832 66.9 257.52957Q67.43125 257.81082 67.775 258.34207Q68.11875 258.8577 68.30625 259.6077Q68.49375 260.3577 68.49375 261.63895Q68.49375 263.15457 68.18125 264.07645Q67.88438 264.99832 67.25938 265.51395Q66.65 266.01395 65.69688 266.01395Q64.4625 266.01395 63.74375 265.12332Q62.9 264.06082 62.9 261.63895ZM63.978127 261.63895Q63.978127 263.74832 64.47813 264.45145Q64.97813 265.15457 65.69688 265.15457Q66.43125 265.15457 66.91563 264.45145Q67.41563 263.74832 67.41563 261.63895Q67.41563 259.51395 66.91563 258.82645Q66.43125 258.12332 65.68125 258.12332Q64.9625 258.12332 64.525 258.7327Q63.978127 259.51395 63.978127 261.63895Z" fill-rule="nonzero"/><path fill="#000000" d="M61.446877 241.13104L61.446877 242.14667L55.759377 242.14667Q55.759377 241.77167 55.884377 241.4123Q56.103127 240.83417 56.571877 240.27167Q57.05625 239.70917 57.9625 238.9748Q59.36875 237.81854 59.853127 237.14667Q60.353127 236.4748 60.353127 235.88104Q60.353127 235.25604 59.9 234.83417Q59.446877 234.39667 58.728127 234.39667Q57.9625 234.39667 57.509377 234.8498Q57.05625 235.30292 57.040627 236.11542L55.9625 236.00604Q56.071877 234.7873 56.790627 234.1623Q57.525 233.52167 58.759377 233.52167Q59.99375 233.52167 60.7125 234.20917Q61.43125 234.89667 61.43125 235.9123Q61.43125 236.42792 61.2125 236.92792Q61.009377 237.4123 60.509377 237.9748Q60.025 238.52167 58.9 239.4748Q57.946877 240.27167 57.665627 240.56854Q57.4 240.8498 57.228127 241.13104L61.446877 241.13104ZM62.9 237.9123Q62.9 236.38104 63.2125 235.45917Q63.525 234.52167 64.13438 234.02167Q64.75938 233.52167 65.69688 233.52167Q66.38438 233.52167 66.9 233.80292Q67.43125 234.08417 67.775 234.61542Q68.11875 235.13104 68.30625 235.88104Q68.49375 236.63104 68.49375 237.9123Q68.49375 239.42792 68.18125 240.3498Q67.88438 241.27167 67.25938 241.7873Q66.65 242.2873 65.69688 242.2873Q64.4625 242.2873 63.74375 241.39667Q62.9 240.33417 62.9 237.9123ZM63.978127 237.9123Q63.978127 240.02167 64.47813 240.7248Q64.97813 241.42792 65.69688 241.42792Q66.43125 241.42792 66.91563 240.7248Q67.41563 240.02167 67.41563 237.9123Q67.41563 235.7873 66.91563 235.0998Q66.43125 234.39667 65.68125 234.39667Q64.9625 234.39667 64.525 235.00604Q63.978127 235.7873 63.978127 237.9123Z" fill-rule="nonzero"/><path fill="#000000" d="M55.9 216.15437L56.9625 216.01375Q57.134377 216.90437 57.571877 217.31062Q58.009377 217.70125 58.634377 217.70125Q59.384377 217.70125 59.9 217.18562Q60.415627 216.67 60.415627 215.90437Q60.415627 215.18562 59.93125 214.71687Q59.4625 214.2325 58.728127 214.2325Q58.43125 214.2325 57.978127 214.3575L58.103127 213.42Q58.2125 213.43562 58.275 213.43562Q58.946877 213.43562 59.478127 213.09187Q60.025 212.7325 60.025 211.99812Q60.025 211.42 59.634377 211.045Q59.24375 210.65437 58.61875 210.65437Q58.009377 210.65437 57.5875 211.045Q57.18125 211.43562 57.071877 212.20125L56.009377 212.01375Q56.196877 210.96687 56.884377 210.38875Q57.571877 209.795 58.5875 209.795Q59.290627 209.795 59.884377 210.1075Q60.478127 210.40437 60.790627 210.92Q61.103127 211.43562 61.103127 212.02937Q61.103127 212.57625 60.80625 213.045Q60.509377 213.49812 59.93125 213.76375Q60.68125 213.93562 61.103127 214.49812Q61.525 215.045 61.525 215.88875Q61.525 217.01375 60.696877 217.795Q59.884377 218.57625 58.634377 218.57625Q57.509377 218.57625 56.759377 217.90437Q56.009377 217.21687 55.9 216.15437ZM62.9 214.18562Q62.9 212.65437 63.2125 211.7325Q63.525 210.795 64.13438 210.295Q64.75938 209.795 65.69688 209.795Q66.38438 209.795 66.9 210.07625Q67.43125 210.3575 67.775 210.88875Q68.11875 211.40437 68.30625 212.15437Q68.49375 212.90437 68.49375 214.18562Q68.49375 215.70125 68.18125 216.62312Q67.88438 217.545 67.25938 218.06062Q66.65 218.56062 65.69688 218.56062Q64.4625 218.56062 63.74375 217.67Q62.9 216.6075 62.9 214.18562ZM63.978127 214.18562Q63.978127 216.295 64.47813 216.99812Q64.97813 217.70125 65.69688 217.70125Q66.43125 217.70125 66.91563 216.99812Q67.41563 216.295 67.41563 214.18562Q67.41563 212.06062 66.91563 211.37312Q66.43125 210.67 65.68125 210.67Q64.9625 210.67 64.525 211.27937Q63.978127 212.06062 63.978127 214.18562Z" fill-rule="nonzero"/><path fill="#000000" d="M59.275 194.69333L59.275 192.63083L55.55625 192.63083L55.55625 191.66208L59.478127 186.09958L60.3375 186.09958L60.3375 191.66208L61.49375 191.66208L61.49375 192.63083L60.3375 192.63083L60.3375 194.69333L59.275 194.69333ZM59.275 191.66208L59.275 187.8027L56.5875 191.66208L59.275 191.66208ZM62.9 190.45895Q62.9 188.9277 63.2125 188.00583Q63.525 187.06833 64.13438 186.56833Q64.75938 186.06833 65.69688 186.06833Q66.38438 186.06833 66.9 186.34958Q67.43125 186.63083 67.775 187.16208Q68.11875 187.6777 68.30625 188.4277Q68.49375 189.1777 68.49375 190.45895Q68.49375 191.97458 68.18125 192.89645Q67.88438 193.81833 67.25938 194.33395Q66.65 194.83395 65.69688 194.83395Q64.4625 194.83395 63.74375 193.94333Q62.9 192.88083 62.9 190.45895ZM63.978127 190.45895Q63.978127 192.56833 64.47813 193.27145Q64.97813 193.97458 65.69688 193.97458Q66.43125 193.97458 66.91563 193.27145Q67.41563 192.56833 67.41563 190.45895Q67.41563 188.33395 66.91563 187.64645Q66.43125 186.94333 65.68125 186.94333Q64.9625 186.94333 64.525 187.5527Q63.978127 188.33395 63.978127 190.45895Z" fill-rule="nonzero"/><path fill="#000000" d="M55.9 168.71666L57.009377 168.62291Q57.134377 169.43541 57.571877 169.84166Q58.025 170.24791 58.665627 170.24791Q59.415627 170.24791 59.946877 169.66978Q60.478127 169.09166 60.478127 168.15416Q60.478127 167.24791 59.9625 166.73228Q59.4625 166.20103 58.634377 166.20103Q58.134377 166.20103 57.7125 166.43541Q57.30625 166.66978 57.071877 167.02916L56.0875 166.90416L56.915627 162.49791L61.196877 162.49791L61.196877 163.49791L57.759377 163.49791L57.30625 165.81041Q58.071877 165.26353 58.915627 165.26353Q60.040627 165.26353 60.80625 166.04478Q61.5875 166.82603 61.5875 168.06041Q61.5875 169.21666 60.915627 170.07603Q60.0875 171.10728 58.665627 171.10728Q57.49375 171.10728 56.74375 170.45103Q56.009377 169.79478 55.9 168.71666ZM62.9 166.73228Q62.9 165.20103 63.2125 164.27916Q63.525 163.34166 64.13438 162.84166Q64.75938 162.34166 65.69688 162.34166Q66.38438 162.34166 66.9 162.62291Q67.43125 162.90416 67.775 163.43541Q68.11875 163.95103 68.30625 164.70103Q68.49375 165.45103 68.49375 166.73228Q68.49375 168.24791 68.18125 169.16978Q67.88438 170.09166 67.25938 170.60728Q66.65 171.10728 65.69688 171.10728Q64.4625 171.10728 63.74375 170.21666Q62.9 169.15416 62.9 166.73228ZM63.978127 166.73228Q63.978127 168.84166 64.47813 169.54478Q64.97813 170.24791 65.69688 170.24791Q66.43125 170.24791 66.91563 169.54478Q67.41563 168.84166 67.41563 166.73228Q67.41563 164.60728 66.91563 163.91978Q66.43125 163.21666 65.68125 163.21666Q64.9625 163.21666 64.525 163.82603Q63.978127 164.60728 63.978127 166.73228Z" fill-rule="nonzero"/><path fill="#000000" d="M61.36875 140.75563L60.321877 140.83376Q60.18125 140.20876 59.93125 139.9275Q59.49375 139.47438 58.86875 139.47438Q58.36875 139.47438 57.978127 139.75563Q57.49375 140.13063 57.196877 140.83376Q56.915627 141.52126 56.9 142.8025Q57.275 142.22438 57.821877 141.94313Q58.384377 141.66188 58.99375 141.66188Q60.040627 141.66188 60.775 142.44313Q61.525 143.22438 61.525 144.44313Q61.525 145.25563 61.165627 145.95876Q60.821877 146.64626 60.2125 147.02126Q59.603127 147.38063 58.8375 147.38063Q57.509377 147.38063 56.68125 146.41188Q55.853127 145.44313 55.853127 143.22438Q55.853127 140.72438 56.775 139.59938Q57.571877 138.615 58.93125 138.615Q59.946877 138.615 60.5875 139.19313Q61.24375 139.75563 61.36875 140.75563ZM57.071877 144.45876Q57.071877 145.00563 57.290627 145.50563Q57.525 145.99 57.93125 146.25563Q58.353127 146.52126 58.821877 146.52126Q59.478127 146.52126 59.9625 145.99Q60.446877 145.44313 60.446877 144.52126Q60.446877 143.63063 59.9625 143.115Q59.49375 142.59938 58.775 142.59938Q58.05625 142.59938 57.55625 143.115Q57.071877 143.63063 57.071877 144.45876ZM62.9 143.00563Q62.9 141.47438 63.2125 140.5525Q63.525 139.615 64.13438 139.115Q64.75938 138.615 65.69688 138.615Q66.38438 138.615 66.9 138.89626Q67.43125 139.1775 67.775 139.70876Q68.11875 140.22438 68.30625 140.97438Q68.49375 141.72438 68.49375 143.00563Q68.49375 144.52126 68.18125 145.44313Q67.88438 146.365 67.25938 146.88063Q66.65 147.38063 65.69688 147.38063Q64.4625 147.38063 63.74375 146.49Q62.9 145.4275 62.9 143.00563ZM63.978127 143.00563Q63.978127 145.115 64.47813 145.81813Q64.97813 146.52126 65.69688 146.52126Q66.43125 146.52126 66.91563 145.81813Q67.41563 145.115 67.41563 143.00563Q67.41563 140.88063 66.91563 140.19313Q66.43125 139.49 65.68125 139.49Q64.9625 139.49 64.525 140.09938Q63.978127 140.88063 63.978127 143.00563Z" fill-rule="nonzero"/><path fill="#000000" d="M55.9625 116.044586L55.9625 115.02896L61.525 115.02896L61.525 115.857086Q60.7125 116.732086 59.9 118.18521Q59.103127 119.62271 58.665627 121.15396Q58.3375 122.232086 58.259377 123.513336L57.165627 123.513336Q57.18125 122.49771 57.55625 121.06021Q57.946877 119.62271 58.65 118.294586Q59.36875 116.96646 60.18125 116.044586L55.9625 116.044586ZM62.9 119.27896Q62.9 117.74771 63.2125 116.825836Q63.525 115.888336 64.13438 115.388336Q64.75938 114.888336 65.69688 114.888336Q66.38438 114.888336 66.9 115.169586Q67.43125 115.450836 67.775 115.982086Q68.11875 116.49771 68.30625 117.24771Q68.49375 117.99771 68.49375 119.27896Q68.49375 120.794586 68.18125 121.71646Q67.88438 122.638336 67.25938 123.15396Q66.65 123.65396 65.69688 123.65396Q64.4625 123.65396 63.74375 122.763336Q62.9 121.700836 62.9 119.27896ZM63.978127 119.27896Q63.978127 121.388336 64.47813 122.09146Q64.97813 122.794586 65.69688 122.794586Q66.43125 122.794586 66.91563 122.09146Q67.41563 121.388336 67.41563 119.27896Q67.41563 117.15396 66.91563 116.46646Q66.43125 115.763336 65.68125 115.763336Q64.9625 115.763336 64.525 116.37271Q63.978127 117.15396 63.978127 119.27896Z" fill-rule="nonzero"/><path fill="#000000" d="M57.525 95.13042Q56.86875 94.88042 56.540627 94.44292Q56.228127 93.98979 56.228127 93.38042Q56.228127 92.44292 56.9 91.80229Q57.5875 91.16167 58.696877 91.16167Q59.821877 91.16167 60.509377 91.81792Q61.196877 92.47417 61.196877 93.41167Q61.196877 94.00542 60.884377 94.44292Q60.571877 94.88042 59.93125 95.13042Q60.728127 95.38042 61.134377 95.95854Q61.540627 96.53667 61.540627 97.33354Q61.540627 98.42729 60.759377 99.17729Q59.99375 99.92729 58.7125 99.92729Q57.446877 99.92729 56.665627 99.17729Q55.884377 98.42729 55.884377 97.30229Q55.884377 96.45854 56.30625 95.89604Q56.74375 95.33354 57.525 95.13042ZM57.30625 93.33354Q57.30625 93.94292 57.696877 94.33354Q58.103127 94.72417 58.728127 94.72417Q59.3375 94.72417 59.728127 94.34917Q60.11875 93.95854 60.11875 93.39604Q60.11875 92.81792 59.7125 92.42729Q59.30625 92.02104 58.7125 92.02104Q58.103127 92.02104 57.696877 92.41167Q57.30625 92.80229 57.30625 93.33354ZM56.978127 97.30229Q56.978127 97.75542 57.18125 98.17729Q57.4 98.59917 57.821877 98.83354Q58.24375 99.06792 58.728127 99.06792Q59.478127 99.06792 59.9625 98.58354Q60.4625 98.09917 60.4625 97.34917Q60.4625 96.58354 59.9625 96.08354Q59.4625 95.58354 58.696877 95.58354Q57.946877 95.58354 57.4625 96.08354Q56.978127 96.56792 56.978127 97.30229ZM62.9 95.55229Q62.9 94.02104 63.2125 93.09917Q63.525 92.16167 64.13438 91.66167Q64.75938 91.16167 65.69688 91.16167Q66.38438 91.16167 66.9 91.44292Q67.43125 91.72417 67.775 92.25542Q68.11875 92.77104 68.30625 93.52104Q68.49375 94.27104 68.49375 95.55229Q68.49375 97.06792 68.18125 97.98979Q67.88438 98.91167 67.25938 99.42729Q66.65 99.92729 65.69688 99.92729Q64.4625 99.92729 63.74375 99.03667Q62.9 97.97417 62.9 95.55229ZM63.978127 95.55229Q63.978127 97.66167 64.47813 98.36479Q64.97813 99.06792 65.69688 99.06792Q66.43125 99.06792 66.91563 98.36479Q67.41563 97.66167 67.41563 95.55229Q67.41563 93.42729 66.91563 92.73979Q66.43125 92.03667 65.68125 92.03667Q64.9625 92.03667 64.525 92.64604Q63.978127 93.42729 63.978127 95.55229Z" fill-rule="nonzero"/><path fill="#000000" d="M56.05625 74.07562L57.071877 73.98187Q57.196877 74.70062 57.55625 75.02875Q57.93125 75.34125 58.49375 75.34125Q58.978127 75.34125 59.3375 75.1225Q59.7125 74.88812 59.946877 74.52875Q60.18125 74.15375 60.3375 73.52875Q60.49375 72.88812 60.49375 72.23187Q60.49375 72.15375 60.49375 72.01312Q60.18125 72.51312 59.634377 72.84125Q59.0875 73.15375 58.446877 73.15375Q57.36875 73.15375 56.634377 72.38812Q55.9 71.60687 55.9 70.34125Q55.9 69.02875 56.665627 68.23187Q57.446877 67.435 58.603127 67.435Q59.43125 67.435 60.11875 67.88812Q60.821877 68.34125 61.18125 69.185Q61.540627 70.01312 61.540627 71.59125Q61.540627 73.23187 61.18125 74.21625Q60.8375 75.185 60.11875 75.70062Q59.415627 76.20062 58.478127 76.20062Q57.4625 76.20062 56.821877 75.65375Q56.18125 75.09125 56.05625 74.07562ZM60.36875 70.27875Q60.36875 69.3725 59.884377 68.84125Q59.415627 68.31 58.728127 68.31Q58.025 68.31 57.49375 68.88812Q56.978127 69.45062 56.978127 70.3725Q56.978127 71.185 57.478127 71.70062Q57.978127 72.21625 58.696877 72.21625Q59.43125 72.21625 59.9 71.70062Q60.36875 71.185 60.36875 70.27875ZM62.9 71.82562Q62.9 70.29437 63.2125 69.3725Q63.525 68.435 64.13438 67.935Q64.75938 67.435 65.69688 67.435Q66.38438 67.435 66.9 67.71625Q67.43125 67.9975 67.775 68.52875Q68.11875 69.04437 68.30625 69.79437Q68.49375 70.54437 68.49375 71.82562Q68.49375 73.34125 68.18125 74.26312Q67.88438 75.185 67.25938 75.70062Q66.65 76.20062 65.69688 76.20062Q64.4625 76.20062 63.74375 75.31Q62.9 74.2475 62.9 71.82562ZM63.978127 71.82562Q63.978127 73.935 64.47813 74.63812Q64.97813 75.34125 65.69688 75.34125Q66.43125 75.34125 66.91563 74.63812Q67.41563 73.935 67.41563 71.82562Q67.41563 69.70062 66.91563 69.01312Q66.43125 68.31 65.68125 68.31Q64.9625 68.31 64.525 68.91937Q63.978127 69.70062 63.978127 71.82562Z" fill-rule="nonzero"/><path fill="#000000" d="M52.86875 52.333332L51.821877 52.333332L51.821877 45.614582Q51.43125 45.973957 50.80625 46.348957Q50.196877 46.708332 49.7125 46.880207L49.7125 45.864582Q50.5875 45.442707 51.24375 44.864582Q51.915627 44.270832 52.196877 43.708332L52.86875 43.708332L52.86875 52.333332ZM55.9 48.098957Q55.9 46.567707 56.2125 45.645832Q56.525 44.708332 57.134377 44.208332Q57.759377 43.708332 58.696877 43.708332Q59.384377 43.708332 59.9 43.989582Q60.43125 44.270832 60.775 44.802082Q61.11875 45.317707 61.30625 46.067707Q61.49375 46.817707 61.49375 48.098957Q61.49375 49.614582 61.18125 50.536457Q60.884377 51.458332 60.259377 51.973957Q59.65 52.473957 58.696877 52.473957Q57.4625 52.473957 56.74375 51.583332Q55.9 50.520832 55.9 48.098957ZM56.978127 48.098957Q56.978127 50.208332 57.478127 50.911457Q57.978127 51.614582 58.696877 51.614582Q59.43125 51.614582 59.915627 50.911457Q60.415627 50.208332 60.415627 48.098957Q60.415627 45.973957 59.915627 45.286457Q59.43125 44.583332 58.68125 44.583332Q57.9625 44.583332 57.525 45.192707Q56.978127 45.973957 56.978127 48.098957ZM62.9 48.098957Q62.9 46.567707 63.2125 45.645832Q63.525 44.708332 64.13438 44.208332Q64.75938 43.708332 65.69688 43.708332Q66.38438 43.708332 66.9 43.989582Q67.43125 44.270832 67.775 44.802082Q68.11875 45.317707 68.30625 46.067707Q68.49375 46.817707 68.49375 48.098957Q68.49375 49.614582 68.18125 50.536457Q67.88438 51.458332 67.25938 51.973957Q66.65 52.473957 65.69688 52.473957Q64.4625 52.473957 63.74375 51.583332Q62.9 50.520832 62.9 48.098957ZM63.978127 48.098957Q63.978127 50.208332 64.47813 50.911457Q64.97813 51.614582 65.69688 51.614582Q66.43125 51.614582 66.91563 50.911457Q67.41563 50.208332 67.41563 48.098957Q67.41563 45.973957 66.91563 45.286457Q66.43125 44.583332 65.68125 44.583332Q64.9625 44.583332 64.525 45.192707Q63.978127 45.973957 63.978127 48.098957Z" fill-rule="nonzero"/><path fill="#000000" d="M97.13021 305.83438L98.19271 305.74063Q98.270836 306.39688 98.552086 306.80313Q98.833336 307.20938 99.41146 307.475Q100.00521 307.725 100.739586 307.725Q101.38021 307.725 101.88021 307.5375Q102.38021 307.33438 102.614586 307.00626Q102.864586 306.6625 102.864586 306.27188Q102.864586 305.86563 102.63021 305.56876Q102.395836 305.25626 101.864586 305.05313Q101.50521 304.9125 100.31771 304.63126Q99.145836 304.35 98.677086 304.1Q98.052086 303.77188 97.75521 303.30313Q97.458336 302.81876 97.458336 302.225Q97.458336 301.58438 97.81771 301.02188Q98.19271 300.44376 98.895836 300.1625Q99.614586 299.86563 100.47396 299.86563Q101.427086 299.86563 102.16146 300.17813Q102.895836 300.475 103.28646 301.08438Q103.677086 301.67813 103.708336 302.42813L102.614586 302.50626Q102.520836 301.69376 102.00521 301.2875Q101.50521 300.86563 100.520836 300.86563Q99.489586 300.86563 99.020836 301.24063Q98.552086 301.61563 98.552086 302.14688Q98.552086 302.61563 98.88021 302.9125Q99.208336 303.20938 100.583336 303.52188Q101.97396 303.83438 102.489586 304.06876Q103.239586 304.42813 103.59896 304.95938Q103.958336 305.475 103.958336 306.17813Q103.958336 306.86563 103.56771 307.475Q103.177086 308.06876 102.44271 308.4125Q101.708336 308.74063 100.78646 308.74063Q99.614586 308.74063 98.81771 308.4125Q98.03646 308.06876 97.583336 307.38126Q97.145836 306.69376 97.13021 305.83438ZM105.38021 310.99063L105.38021 302.38126L106.333336 302.38126L106.333336 303.17813Q106.677086 302.70938 107.09896 302.475Q107.53646 302.24063 108.145836 302.24063Q108.94271 302.24063 109.552086 302.64688Q110.16146 303.05313 110.458336 303.80313Q110.770836 304.55313 110.770836 305.44376Q110.770836 306.39688 110.427086 307.1625Q110.09896 307.92813 109.44271 308.33438Q108.78646 308.74063 108.06771 308.74063Q107.53646 308.74063 107.114586 308.52188Q106.69271 308.2875 106.427086 307.95938L106.427086 310.99063L105.38021 310.99063ZM106.333336 305.52188Q106.333336 306.725 106.81771 307.30313Q107.302086 307.86563 107.989586 307.86563Q108.69271 307.86563 109.19271 307.27188Q109.69271 306.67813 109.69271 305.42813Q109.69271 304.24063 109.208336 303.6625Q108.72396 303.06876 108.03646 303.06876Q107.364586 303.06876 106.84896 303.69376Q106.333336 304.31876 106.333336 305.52188ZM112.364586 308.6L112.364586 302.38126L113.31771 302.38126L113.31771 303.31876Q113.677086 302.6625 113.97396 302.45938Q114.28646 302.24063 114.66146 302.24063Q115.19271 302.24063 115.739586 302.56876L115.38021 303.55313Q114.989586 303.31876 114.614586 303.31876Q114.25521 303.31876 113.97396 303.5375Q113.708336 303.74063 113.59896 304.11563Q113.41146 304.67813 113.41146 305.33438L113.41146 308.6L112.364586 308.6ZM116.38021 301.225L116.38021 300.00626L117.44271 300.00626L117.44271 301.225L116.38021 301.225ZM116.38021 308.6L116.38021 302.38126L117.44271 302.38126L117.44271 308.6L116.38021 308.6ZM119.38021 308.6L119.38021 302.38126L120.31771 302.38126L120.31771 303.25626Q121.00521 302.24063 122.302086 302.24063Q122.864586 302.24063 123.333336 302.44376Q123.81771 302.64688 124.052086 302.975Q124.28646 303.30313 124.38021 303.74063Q124.427086 304.0375 124.427086 304.77188L124.427086 308.6L123.38021 308.6L123.38021 304.81876Q123.38021 304.1625 123.25521 303.85Q123.13021 303.5375 122.81771 303.35Q122.50521 303.14688 122.083336 303.14688Q121.41146 303.14688 120.91146 303.58438Q120.427086 304.00626 120.427086 305.19376L120.427086 308.6L119.38021 308.6ZM128.6771 307.6625L128.83334 308.58438Q128.38022 308.67813 128.03647 308.67813Q127.458336 308.67813 127.145836 308.50626Q126.833336 308.31876 126.69271 308.02188Q126.56771 307.725 126.56771 306.77188L126.56771 303.19376L125.802086 303.19376L125.802086 302.38126L126.56771 302.38126L126.56771 300.83438L127.614586 300.20938L127.614586 302.38126L128.6771 302.38126L128.6771 303.19376L127.614586 303.19376L127.614586 306.83438Q127.614586 307.2875 127.66146 307.4125Q127.72396 307.5375 127.84896 307.61563Q127.97396 307.69376 128.20834 307.69376Q128.39584 307.69376 128.6771 307.6625ZM136.0521 308.6L135.00522 308.6L135.00522 301.88126Q134.6146 302.24063 133.9896 302.61563Q133.38022 302.975 132.89584 303.14688L132.89584 302.13126Q133.77084 301.70938 134.4271 301.13126Q135.09897 300.5375 135.38022 299.975L136.0521 299.975L136.0521 308.6Z" fill-rule="nonzero"/><path fill="#000000" d="M169.49687 305.83438L170.55937 305.74063Q170.6375 306.39688 170.91875 306.80313Q171.2 307.20938 171.77812 307.475Q172.37187 307.725 173.10625 307.725Q173.74687 307.725 174.24687 307.5375Q174.74687 307.33438 174.98125 307.00626Q175.23125 306.6625 175.23125 306.27188Q175.23125 305.86563 174.99687 305.56876Q174.7625 305.25626 174.23125 305.05313Q173.87187 304.9125 172.68437 304.63126Q171.5125 304.35 171.04375 304.1Q170.41875 303.77188 170.12187 303.30313Q169.825 302.81876 169.825 302.225Q169.825 301.58438 170.18437 301.02188Q170.55937 300.44376 171.2625 300.1625Q171.98125 299.86563 172.84062 299.86563Q173.79375 299.86563 174.52812 300.17813Q175.2625 300.475 175.65312 301.08438Q176.04375 301.67813 176.075 302.42813L174.98125 302.50626Q174.8875 301.69376 174.37187 301.2875Q173.87187 300.86563 172.8875 300.86563Q171.85625 300.86563 171.3875 301.24063Q170.91875 301.61563 170.91875 302.14688Q170.91875 302.61563 171.24687 302.9125Q171.575 303.20938 172.95 303.52188Q174.34062 303.83438 174.85625 304.06876Q175.60625 304.42813 175.96562 304.95938Q176.325 305.475 176.325 306.17813Q176.325 306.86563 175.93437 307.475Q175.54375 308.06876 174.80937 308.4125Q174.075 308.74063 173.15312 308.74063Q171.98125 308.74063 171.18437 308.4125Q170.40312 308.06876 169.95 307.38126Q169.5125 306.69376 169.49687 305.83438ZM177.74687 310.99063L177.74687 302.38126L178.7 302.38126L178.7 303.17813Q179.04375 302.70938 179.46562 302.475Q179.90312 302.24063 180.5125 302.24063Q181.30937 302.24063 181.91875 302.64688Q182.52812 303.05313 182.825 303.80313Q183.1375 304.55313 183.1375 305.44376Q183.1375 306.39688 182.79375 307.1625Q182.46562 307.92813 181.80937 308.33438Q181.15312 308.74063 180.43437 308.74063Q179.90312 308.74063 179.48125 308.52188Q179.05937 308.2875 178.79375 307.95938L178.79375 310.99063L177.74687 310.99063ZM178.7 305.52188Q178.7 306.725 179.18437 307.30313Q179.66875 307.86563 180.35625 307.86563Q181.05937 307.86563 181.55937 307.27188Q182.05937 306.67813 182.05937 305.42813Q182.05937 304.24063 181.575 303.6625Q181.09062 303.06876 180.40312 303.06876Q179.73125 303.06876 179.21562 303.69376Q178.7 304.31876 178.7 305.52188ZM184.73125 308.6L184.73125 302.38126L185.68437 302.38126L185.68437 303.31876Q186.04375 302.6625 186.34062 302.45938Q186.65312 302.24063 187.02812 302.24063Q187.55937 302.24063 188.10625 302.56876L187.74687 303.55313Q187.35625 303.31876 186.98125 303.31876Q186.62187 303.31876 186.34062 303.5375Q186.075 303.74063 185.96562 304.11563Q185.77812 304.67813 185.77812 305.33438L185.77812 308.6L184.73125 308.6ZM188.74687 301.225L188.74687 300.00626L189.80937 300.00626L189.80937 301.225L188.74687 301.225ZM188.74687 308.6L188.74687 302.38126L189.80937 302.38126L189.80937 308.6L188.74687 308.6ZM191.74687 308.6L191.74687 302.38126L192.68437 302.38126L192.68437 303.25626Q193.37187 302.24063 194.66875 302.24063Q195.23125 302.24063 195.7 302.44376Q196.18437 302.64688 196.41875 302.975Q196.65312 303.30313 196.74687 303.74063Q196.79375 304.0375 196.79375 304.77188L196.79375 308.6L195.74687 308.6L195.74687 304.81876Q195.74687 304.1625 195.62187 303.85Q195.49687 303.5375 195.18437 303.35Q194.87187 303.14688 194.45 303.14688Q193.77812 303.14688 193.27812 303.58438Q192.79375 304.00626 192.79375 305.19376L192.79375 308.6L191.74687 308.6ZM201.04375 307.6625L201.2 308.58438Q200.74687 308.67813 200.40312 308.67813Q199.825 308.67813 199.5125 308.50626Q199.2 308.31876 199.05937 308.02188Q198.93437 307.725 198.93437 306.77188L198.93437 303.19376L198.16875 303.19376L198.16875 302.38126L198.93437 302.38126L198.93437 300.83438L199.98125 300.20938L199.98125 302.38126L201.04375 302.38126L201.04375 303.19376L199.98125 303.19376L199.98125 306.83438Q199.98125 307.2875 200.02812 307.4125Q200.09062 307.5375 200.21562 307.61563Q200.34062 307.69376 200.575 307.69376Q200.7625 307.69376 201.04375 307.6625ZM209.99687 307.58438L209.99687 308.6L204.30937 308.6Q204.30937 308.225 204.43437 307.86563Q204.65312 307.2875 205.12187 306.725Q205.60625 306.1625 206.5125 305.42813Q207.91875 304.27188 208.40312 303.6Q208.90312 302.92813 208.90312 302.33438Q208.90312 301.70938 208.45 301.2875Q207.99687 300.85 207.27812 300.85Q206.5125 300.85 206.05937 301.30313Q205.60625 301.75626 205.59062 302.56876L204.5125 302.45938Q204.62187 301.24063 205.34062 300.61563Q206.075 299.975 207.30937 299.975Q208.54375 299.975 209.2625 300.6625Q209.98125 301.35 209.98125 302.36563Q209.98125 302.88126 209.7625 303.38126Q209.55937 303.86563 209.05937 304.42813Q208.575 304.975 207.45 305.92813Q206.49687 306.725 206.21562 307.02188Q205.95 307.30313 205.77812 307.58438L209.99687 307.58438Z" fill-rule="nonzero"/><path fill="#000000" d="M241.86354 305.83438L242.92604 305.74063Q243.00417 306.39688 243.28542 306.80313Q243.56667 307.20938 244.14479 307.475Q244.73854 307.725 245.47292 307.725Q246.11354 307.725 246.61354 307.5375Q247.11354 307.33438 247.34792 307.00626Q247.59792 306.6625 247.59792 306.27188Q247.59792 305.86563 247.36354 305.56876Q247.12917 305.25626 246.59792 305.05313Q246.23854 304.9125 245.05104 304.63126Q243.87917 304.35 243.41042 304.1Q242.78542 303.77188 242.48854 303.30313Q242.19167 302.81876 242.19167 302.225Q242.19167 301.58438 242.55104 301.02188Q242.92604 300.44376 243.62917 300.1625Q244.34792 299.86563 245.20729 299.86563Q246.16042 299.86563 246.89479 300.17813Q247.62917 300.475 248.01979 301.08438Q248.41042 301.67813 248.44167 302.42813L247.34792 302.50626Q247.25417 301.69376 246.73854 301.2875Q246.23854 300.86563 245.25417 300.86563Q244.22292 300.86563 243.75417 301.24063Q243.28542 301.61563 243.28542 302.14688Q243.28542 302.61563 243.61354 302.9125Q243.94167 303.20938 245.31667 303.52188Q246.70729 303.83438 247.22292 304.06876Q247.97292 304.42813 248.33229 304.95938Q248.69167 305.475 248.69167 306.17813Q248.69167 306.86563 248.30104 307.475Q247.91042 308.06876 247.17604 308.4125Q246.44167 308.74063 245.51979 308.74063Q244.34792 308.74063 243.55104 308.4125Q242.76979 308.06876 242.31667 307.38126Q241.87917 306.69376 241.86354 305.83438ZM250.11354 310.99063L250.11354 302.38126L251.06667 302.38126L251.06667 303.17813Q251.41042 302.70938 251.83229 302.475Q252.26979 302.24063 252.87917 302.24063Q253.67604 302.24063 254.28542 302.64688Q254.89479 303.05313 255.19167 303.80313Q255.50417 304.55313 255.50417 305.44376Q255.50417 306.39688 255.16042 307.1625Q254.83229 307.92813 254.17604 308.33438Q253.51979 308.74063 252.80104 308.74063Q252.26979 308.74063 251.84792 308.52188Q251.42604 308.2875 251.16042 307.95938L251.16042 310.99063L250.11354 310.99063ZM251.06667 305.52188Q251.06667 306.725 251.55104 307.30313Q252.03542 307.86563 252.72292 307.86563Q253.42604 307.86563 253.92604 307.27188Q254.42604 306.67813 254.42604 305.42813Q254.42604 304.24063 253.94167 303.6625Q253.45729 303.06876 252.76979 303.06876Q252.09792 303.06876 251.58229 303.69376Q251.06667 304.31876 251.06667 305.52188ZM257.0979 308.6L257.0979 302.38126L258.05103 302.38126L258.05103 303.31876Q258.4104 302.6625 258.70728 302.45938Q259.01978 302.24063 259.39478 302.24063Q259.92603 302.24063 260.4729 302.56876L260.11353 303.55313Q259.7229 303.31876 259.3479 303.31876Q258.98853 303.31876 258.70728 303.5375Q258.44165 303.74063 258.33228 304.11563Q258.14478 304.67813 258.14478 305.33438L258.14478 308.6L257.0979 308.6ZM261.11353 301.225L261.11353 300.00626L262.17603 300.00626L262.17603 301.225L261.11353 301.225ZM261.11353 308.6L261.11353 302.38126L262.17603 302.38126L262.17603 308.6L261.11353 308.6ZM264.11353 308.6L264.11353 302.38126L265.05103 302.38126L265.05103 303.25626Q265.73853 302.24063 267.0354 302.24063Q267.5979 302.24063 268.06665 302.44376Q268.55103 302.64688 268.7854 302.975Q269.01978 303.30313 269.11353 303.74063Q269.1604 304.0375 269.1604 304.77188L269.1604 308.6L268.11353 308.6L268.11353 304.81876Q268.11353 304.1625 267.98853 303.85Q267.86353 303.5375 267.55103 303.35Q267.23853 303.14688 266.81665 303.14688Q266.14478 303.14688 265.64478 303.58438Q265.1604 304.00626 265.1604 305.19376L265.1604 308.6L264.11353 308.6ZM273.4104 307.6625L273.56665 308.58438Q273.11353 308.67813 272.76978 308.67813Q272.19165 308.67813 271.87915 308.50626Q271.56665 308.31876 271.42603 308.02188Q271.30103 307.725 271.30103 306.77188L271.30103 303.19376L270.5354 303.19376L270.5354 302.38126L271.30103 302.38126L271.30103 300.83438L272.3479 300.20938L272.3479 302.38126L273.4104 302.38126L273.4104 303.19376L272.3479 303.19376L272.3479 306.83438Q272.3479 307.2875 272.39478 307.4125Q272.45728 307.5375 272.58228 307.61563Q272.70728 307.69376 272.94165 307.69376Q273.12915 307.69376 273.4104 307.6625ZM276.81665 306.33438L277.87915 306.19376Q278.05103 307.08438 278.48853 307.49063Q278.92603 307.88126 279.55103 307.88126Q280.30103 307.88126 280.81665 307.36563Q281.33228 306.85 281.33228 306.08438Q281.33228 305.36563 280.8479 304.89688Q280.37915 304.4125 279.64478 304.4125Q279.3479 304.4125 278.89478 304.5375L279.01978 303.6Q279.12915 303.61563 279.19165 303.61563Q279.86353 303.61563 280.39478 303.27188Q280.94165 302.9125 280.94165 302.17813Q280.94165 301.6 280.55103 301.225Q280.1604 300.83438 279.5354 300.83438Q278.92603 300.83438 278.50415 301.225Q278.0979 301.61563 277.98853 302.38126L276.92603 302.19376Q277.11353 301.14688 277.80103 300.56876Q278.48853 299.975 279.50415 299.975Q280.20728 299.975 280.80103 300.2875Q281.39478 300.58438 281.70728 301.1Q282.01978 301.61563 282.01978 302.20938Q282.01978 302.75626 281.7229 303.225Q281.42603 303.67813 280.8479 303.94376Q281.5979 304.11563 282.01978 304.67813Q282.44165 305.225 282.44165 306.06876Q282.44165 307.19376 281.61353 307.975Q280.80103 308.75626 279.55103 308.75626Q278.42603 308.75626 277.67603 308.08438Q276.92603 307.39688 276.81665 306.33438Z" fill-rule="nonzero"/><path fill="#000000" d="M314.2302 305.83438L315.2927 305.74063Q315.37082 306.39688 315.65207 306.80313Q315.93332 307.20938 316.51144 307.475Q317.1052 307.725 317.83957 307.725Q318.4802 307.725 318.9802 307.5375Q319.4802 307.33438 319.71457 307.00626Q319.96457 306.6625 319.96457 306.27188Q319.96457 305.86563 319.7302 305.56876Q319.49582 305.25626 318.96457 305.05313Q318.6052 304.9125 317.4177 304.63126Q316.24582 304.35 315.77707 304.1Q315.15207 303.77188 314.8552 303.30313Q314.55832 302.81876 314.55832 302.225Q314.55832 301.58438 314.9177 301.02188Q315.2927 300.44376 315.99582 300.1625Q316.71457 299.86563 317.57394 299.86563Q318.52707 299.86563 319.26144 300.17813Q319.99582 300.475 320.38644 301.08438Q320.77707 301.67813 320.80832 302.42813L319.71457 302.50626Q319.62082 301.69376 319.1052 301.2875Q318.6052 300.86563 317.62082 300.86563Q316.58957 300.86563 316.12082 301.24063Q315.65207 301.61563 315.65207 302.14688Q315.65207 302.61563 315.9802 302.9125Q316.30832 303.20938 317.68332 303.52188Q319.07394 303.83438 319.58957 304.06876Q320.33957 304.42813 320.69894 304.95938Q321.05832 305.475 321.05832 306.17813Q321.05832 306.86563 320.6677 307.475Q320.27707 308.06876 319.5427 308.4125Q318.80832 308.74063 317.88644 308.74063Q316.71457 308.74063 315.9177 308.4125Q315.13644 308.06876 314.68332 307.38126Q314.24582 306.69376 314.2302 305.83438ZM322.4802 310.99063L322.4802 302.38126L323.43332 302.38126L323.43332 303.17813Q323.77707 302.70938 324.19894 302.475Q324.63644 302.24063 325.24582 302.24063Q326.0427 302.24063 326.65207 302.64688Q327.26144 303.05313 327.55832 303.80313Q327.87082 304.55313 327.87082 305.44376Q327.87082 306.39688 327.52707 307.1625Q327.19894 307.92813 326.5427 308.33438Q325.88644 308.74063 325.1677 308.74063Q324.63644 308.74063 324.21457 308.52188Q323.7927 308.2875 323.52707 307.95938L323.52707 310.99063L322.4802 310.99063ZM323.43332 305.52188Q323.43332 306.725 323.9177 307.30313Q324.40207 307.86563 325.08957 307.86563Q325.7927 307.86563 326.2927 307.27188Q326.7927 306.67813 326.7927 305.42813Q326.7927 304.24063 326.30832 303.6625Q325.82394 303.06876 325.13644 303.06876Q324.46457 303.06876 323.94894 303.69376Q323.43332 304.31876 323.43332 305.52188ZM329.46457 308.6L329.46457 302.38126L330.4177 302.38126L330.4177 303.31876Q330.77707 302.6625 331.07394 302.45938Q331.38644 302.24063 331.76144 302.24063Q332.2927 302.24063 332.83957 302.56876L332.4802 303.55313Q332.08957 303.31876 331.71457 303.31876Q331.3552 303.31876 331.07394 303.5375Q330.80832 303.74063 330.69894 304.11563Q330.51144 304.67813 330.51144 305.33438L330.51144 308.6L329.46457 308.6ZM333.4802 301.225L333.4802 300.00626L334.5427 300.00626L334.5427 301.225L333.4802 301.225ZM333.4802 308.6L333.4802 302.38126L334.5427 302.38126L334.5427 308.6L333.4802 308.6ZM336.4802 308.6L336.4802 302.38126L337.4177 302.38126L337.4177 303.25626Q338.1052 302.24063 339.40207 302.24063Q339.96457 302.24063 340.43332 302.44376Q340.9177 302.64688 341.15207 302.975Q341.38644 303.30313 341.4802 303.74063Q341.52707 304.0375 341.52707 304.77188L341.52707 308.6L340.4802 308.6L340.4802 304.81876Q340.4802 304.1625 340.3552 303.85Q340.2302 303.5375 339.9177 303.35Q339.6052 303.14688 339.18332 303.14688Q338.51144 303.14688 338.01144 303.58438Q337.52707 304.00626 337.52707 305.19376L337.52707 308.6L336.4802 308.6ZM345.77707 307.6625L345.93332 308.58438Q345.4802 308.67813 345.13644 308.67813Q344.55832 308.67813 344.24582 308.50626Q343.93332 308.31876 343.7927 308.02188Q343.6677 307.725 343.6677 306.77188L343.6677 303.19376L342.90207 303.19376L342.90207 302.38126L343.6677 302.38126L343.6677 300.83438L344.71457 300.20938L344.71457 302.38126L345.77707 302.38126L345.77707 303.19376L344.71457 303.19376L344.71457 306.83438Q344.71457 307.2875 344.76144 307.4125Q344.82394 307.5375 344.94894 307.61563Q345.07394 307.69376 345.30832 307.69376Q345.49582 307.69376 345.77707 307.6625ZM352.55832 308.6L352.55832 306.5375L348.83957 306.5375L348.83957 305.56876L352.76144 300.00626L353.62082 300.00626L353.62082 305.56876L354.77707 305.56876L354.77707 306.5375L353.62082 306.5375L353.62082 308.6L352.55832 308.6ZM352.55832 305.56876L352.55832 301.70938L349.87082 305.56876L352.55832 305.56876Z" fill-rule="nonzero"/><path fill="#000000" d="M386.59686 305.83438L387.65936 305.74063Q387.7375 306.39688 388.01874 306.80313Q388.3 307.20938 388.8781 307.475Q389.47186 307.725 390.20624 307.725Q390.84686 307.725 391.34686 307.5375Q391.84686 307.33438 392.08124 307.00626Q392.33124 306.6625 392.33124 306.27188Q392.33124 305.86563 392.09686 305.56876Q391.8625 305.25626 391.33124 305.05313Q390.97186 304.9125 389.78436 304.63126Q388.6125 304.35 388.14374 304.1Q387.51874 303.77188 387.22186 303.30313Q386.925 302.81876 386.925 302.225Q386.925 301.58438 387.28436 301.02188Q387.65936 300.44376 388.3625 300.1625Q389.08124 299.86563 389.9406 299.86563Q390.89374 299.86563 391.6281 300.17813Q392.3625 300.475 392.7531 301.08438Q393.14374 301.67813 393.175 302.42813L392.08124 302.50626Q391.9875 301.69376 391.47186 301.2875Q390.97186 300.86563 389.9875 300.86563Q388.95624 300.86563 388.4875 301.24063Q388.01874 301.61563 388.01874 302.14688Q388.01874 302.61563 388.34686 302.9125Q388.675 303.20938 390.05 303.52188Q391.4406 303.83438 391.95624 304.06876Q392.70624 304.42813 393.0656 304.95938Q393.425 305.475 393.425 306.17813Q393.425 306.86563 393.03436 307.475Q392.64374 308.06876 391.90936 308.4125Q391.175 308.74063 390.2531 308.74063Q389.08124 308.74063 388.28436 308.4125Q387.5031 308.06876 387.05 307.38126Q386.6125 306.69376 386.59686 305.83438ZM394.84686 310.99063L394.84686 302.38126L395.8 302.38126L395.8 303.17813Q396.14374 302.70938 396.5656 302.475Q397.0031 302.24063 397.6125 302.24063Q398.40936 302.24063 399.01874 302.64688Q399.6281 303.05313 399.925 303.80313Q400.2375 304.55313 400.2375 305.44376Q400.2375 306.39688 399.89374 307.1625Q399.5656 307.92813 398.90936 308.33438Q398.2531 308.74063 397.53436 308.74063Q397.0031 308.74063 396.58124 308.52188Q396.15936 308.2875 395.89374 307.95938L395.89374 310.99063L394.84686 310.99063ZM395.8 305.52188Q395.8 306.725 396.28436 307.30313Q396.76874 307.86563 397.45624 307.86563Q398.15936 307.86563 398.65936 307.27188Q399.15936 306.67813 399.15936 305.42813Q399.15936 304.24063 398.675 303.6625Q398.1906 303.06876 397.5031 303.06876Q396.83124 303.06876 396.3156 303.69376Q395.8 304.31876 395.8 305.52188ZM401.83124 308.6L401.83124 302.38126L402.78436 302.38126L402.78436 303.31876Q403.14374 302.6625 403.4406 302.45938Q403.7531 302.24063 404.1281 302.24063Q404.65936 302.24063 405.20624 302.56876L404.84686 303.55313Q404.45624 303.31876 404.08124 303.31876Q403.72186 303.31876 403.4406 303.5375Q403.175 303.74063 403.0656 304.11563Q402.8781 304.67813 402.8781 305.33438L402.8781 308.6L401.83124 308.6ZM405.84686 301.225L405.84686 300.00626L406.90936 300.00626L406.90936 301.225L405.84686 301.225ZM405.84686 308.6L405.84686 302.38126L406.90936 302.38126L406.90936 308.6L405.84686 308.6ZM408.84686 308.6L408.84686 302.38126L409.78436 302.38126L409.78436 303.25626Q410.47186 302.24063 411.76874 302.24063Q412.33124 302.24063 412.8 302.44376Q413.28436 302.64688 413.51874 302.975Q413.7531 303.30313 413.84686 303.74063Q413.89374 304.0375 413.89374 304.77188L413.89374 308.6L412.84686 308.6L412.84686 304.81876Q412.84686 304.1625 412.72186 303.85Q412.59686 303.5375 412.28436 303.35Q411.97186 303.14688 411.55 303.14688Q410.8781 303.14688 410.3781 303.58438Q409.89374 304.00626 409.89374 305.19376L409.89374 308.6L408.84686 308.6ZM418.14374 307.6625L418.3 308.58438Q417.84686 308.67813 417.5031 308.67813Q416.925 308.67813 416.6125 308.50626Q416.3 308.31876 416.15936 308.02188Q416.03436 307.725 416.03436 306.77188L416.03436 303.19376L415.26874 303.19376L415.26874 302.38126L416.03436 302.38126L416.03436 300.83438L417.08124 300.20938L417.08124 302.38126L418.14374 302.38126L418.14374 303.19376L417.08124 303.19376L417.08124 306.83438Q417.08124 307.2875 417.1281 307.4125Q417.1906 307.5375 417.3156 307.61563Q417.4406 307.69376 417.675 307.69376Q417.8625 307.69376 418.14374 307.6625ZM421.55 306.35L422.65936 306.25626Q422.78436 307.06876 423.22186 307.475Q423.675 307.88126 424.3156 307.88126Q425.0656 307.88126 425.59686 307.30313Q426.1281 306.725 426.1281 305.7875Q426.1281 304.88126 425.6125 304.36563Q425.1125 303.83438 424.28436 303.83438Q423.78436 303.83438 423.3625 304.06876Q422.95624 304.30313 422.72186 304.6625L421.7375 304.5375L422.5656 300.13126L426.84686 300.13126L426.84686 301.13126L423.40936 301.13126L422.95624 303.44376Q423.72186 302.89688 424.5656 302.89688Q425.6906 302.89688 426.45624 303.67813Q427.2375 304.45938 427.2375 305.69376Q427.2375 306.85 426.5656 307.70938Q425.7375 308.74063 424.3156 308.74063Q423.14374 308.74063 422.39374 308.08438Q421.65936 307.42813 421.55 306.35Z" fill-rule="nonzero"/><path fill="#000000" d="M458.96353 305.83438L460.02603 305.74063Q460.10416 306.39688 460.3854 306.80313Q460.66666 307.20938 461.24478 307.475Q461.83853 307.725 462.5729 307.725Q463.21353 307.725 463.71353 307.5375Q464.21353 307.33438 464.4479 307.00626Q464.6979 306.6625 464.6979 306.27188Q464.6979 305.86563 464.46353 305.56876Q464.22916 305.25626 463.6979 305.05313Q463.33853 304.9125 462.15103 304.63126Q460.97916 304.35 460.5104 304.1Q459.8854 303.77188 459.58853 303.30313Q459.29166 302.81876 459.29166 302.225Q459.29166 301.58438 459.65103 301.02188Q460.02603 300.44376 460.72916 300.1625Q461.4479 299.86563 462.30728 299.86563Q463.2604 299.86563 463.99478 300.17813Q464.72916 300.475 465.11978 301.08438Q465.5104 301.67813 465.54166 302.42813L464.4479 302.50626Q464.35416 301.69376 463.83853 301.2875Q463.33853 300.86563 462.35416 300.86563Q461.3229 300.86563 460.85416 301.24063Q460.3854 301.61563 460.3854 302.14688Q460.3854 302.61563 460.71353 302.9125Q461.04166 303.20938 462.41666 303.52188Q463.80728 303.83438 464.3229 304.06876Q465.0729 304.42813 465.43228 304.95938Q465.79166 305.475 465.79166 306.17813Q465.79166 306.86563 465.40103 307.475Q465.0104 308.06876 464.27603 308.4125Q463.54166 308.74063 462.61978 308.74063Q461.4479 308.74063 460.65103 308.4125Q459.86978 308.06876 459.41666 307.38126Q458.97916 306.69376 458.96353 305.83438ZM467.21353 310.99063L467.21353 302.38126L468.16666 302.38126L468.16666 303.17813Q468.5104 302.70938 468.93228 302.475Q469.36978 302.24063 469.97916 302.24063Q470.77603 302.24063 471.3854 302.64688Q471.99478 303.05313 472.29166 303.80313Q472.60416 304.55313 472.60416 305.44376Q472.60416 306.39688 472.2604 307.1625Q471.93228 307.92813 471.27603 308.33438Q470.61978 308.74063 469.90103 308.74063Q469.36978 308.74063 468.9479 308.52188Q468.52603 308.2875 468.2604 307.95938L468.2604 310.99063L467.21353 310.99063ZM468.16666 305.52188Q468.16666 306.725 468.65103 307.30313Q469.1354 307.86563 469.8229 307.86563Q470.52603 307.86563 471.02603 307.27188Q471.52603 306.67813 471.52603 305.42813Q471.52603 304.24063 471.04166 303.6625Q470.55728 303.06876 469.86978 303.06876Q469.1979 303.06876 468.68228 303.69376Q468.16666 304.31876 468.16666 305.52188ZM474.1979 308.6L474.1979 302.38126L475.15103 302.38126L475.15103 303.31876Q475.5104 302.6625 475.80728 302.45938Q476.11978 302.24063 476.49478 302.24063Q477.02603 302.24063 477.5729 302.56876L477.21353 303.55313Q476.8229 303.31876 476.4479 303.31876Q476.08853 303.31876 475.80728 303.5375Q475.54166 303.74063 475.43228 304.11563Q475.24478 304.67813 475.24478 305.33438L475.24478 308.6L474.1979 308.6ZM478.21353 301.225L478.21353 300.00626L479.27603 300.00626L479.27603 301.225L478.21353 301.225ZM478.21353 308.6L478.21353 302.38126L479.27603 302.38126L479.27603 308.6L478.21353 308.6ZM481.21353 308.6L481.21353 302.38126L482.15103 302.38126L482.15103 303.25626Q482.83853 302.24063 484.1354 302.24063Q484.6979 302.24063 485.16666 302.44376Q485.65103 302.64688 485.8854 302.975Q486.11978 303.30313 486.21353 303.74063Q486.2604 304.0375 486.2604 304.77188L486.2604 308.6L485.21353 308.6L485.21353 304.81876Q485.21353 304.1625 485.08853 303.85Q484.96353 303.5375 484.65103 303.35Q484.33853 303.14688 483.91666 303.14688Q483.24478 303.14688 482.74478 303.58438Q482.2604 304.00626 482.2604 305.19376L482.2604 308.6L481.21353 308.6ZM490.5104 307.6625L490.66666 308.58438Q490.21353 308.67813 489.86978 308.67813Q489.29166 308.67813 488.97916 308.50626Q488.66666 308.31876 488.52603 308.02188Q488.40103 307.725 488.40103 306.77188L488.40103 303.19376L487.6354 303.19376L487.6354 302.38126L488.40103 302.38126L488.40103 300.83438L489.4479 300.20938L489.4479 302.38126L490.5104 302.38126L490.5104 303.19376L489.4479 303.19376L489.4479 306.83438Q489.4479 307.2875 489.49478 307.4125Q489.55728 307.5375 489.68228 307.61563Q489.80728 307.69376 490.04166 307.69376Q490.22916 307.69376 490.5104 307.6625ZM499.3854 302.11563L498.33853 302.19376Q498.1979 301.56876 497.9479 301.2875Q497.5104 300.83438 496.8854 300.83438Q496.3854 300.83438 495.99478 301.11563Q495.5104 301.49063 495.21353 302.19376Q494.93228 302.88126 494.91666 304.1625Q495.29166 303.58438 495.83853 303.30313Q496.40103 303.02188 497.0104 303.02188Q498.05728 303.02188 498.79166 303.80313Q499.54166 304.58438 499.54166 305.80313Q499.54166 306.61563 499.18228 307.31876Q498.83853 308.00626 498.22916 308.38126Q497.61978 308.74063 496.85416 308.74063Q495.52603 308.74063 494.6979 307.77188Q493.86978 306.80313 493.86978 304.58438Q493.86978 302.08438 494.79166 300.95938Q495.58853 299.975 496.9479 299.975Q497.96353 299.975 498.60416 300.55313Q499.2604 301.11563 499.3854 302.11563ZM495.08853 305.81876Q495.08853 306.36563 495.30728 306.86563Q495.54166 307.35 495.9479 307.61563Q496.36978 307.88126 496.83853 307.88126Q497.49478 307.88126 497.97916 307.35Q498.46353 306.80313 498.46353 305.88126Q498.46353 304.99063 497.97916 304.475Q497.5104 303.95938 496.79166 303.95938Q496.0729 303.95938 495.5729 304.475Q495.08853 304.99063 495.08853 305.81876Z" fill-rule="nonzero"/><path fill="#4285f4" d="M139.0 23.4C139.0 26.713709 136.3137 29.4 133.0 29.4C129.6863 29.4 127.0 26.713709 127.0 23.4C127.0 20.086292 129.6863 17.4 133.0 17.4C136.3137 17.4 139.0 20.086292 139.0 23.4Z" fill-rule="nonzero"/><path fill="#1a1a1a" d="M147.95312 27.4L147.95312 18.80625L154.15625 18.80625L154.15625 19.821875L149.09375 19.821875L149.09375 22.446875L153.84375 22.446875L153.84375 23.4625L149.09375 23.4625L149.09375 26.384375L154.35938 26.384375L154.35938 27.4L147.95312 27.4ZM158.10938 27.4L158.10938 19.821875L155.28125 19.821875L155.28125 18.80625L162.09375 18.80625L162.09375 19.821875L159.25 19.821875L159.25 27.4L158.10938 27.4Z" fill-rule="nonzero"/><path fill="#ea4335" d="M190.0 23.4C190.0 26.713709 187.3137 29.4 184.0 29.4C180.6863 29.4 178.0 26.713709 178.0 23.4C178.0 20.086292 180.6863 17.4 184.0 17.4C187.3137 17.4 190.0 20.086292 190.0 23.4Z" fill-rule="nonzero"/><path fill="#1a1a1a" d="M201.375 27.4L198.04688 18.80625L199.28125 18.80625L201.51562 25.05625Q201.78125 25.80625 201.96875 26.4625Q202.17188 25.759375 202.4375 25.05625L204.75 18.80625L205.90625 18.80625L202.54688 27.4L201.375 27.4ZM209.85938 26.634375Q209.26562 27.134375 208.71875 27.3375Q208.1875 27.540625 207.5625 27.540625Q206.53125 27.540625 205.98438 27.040625Q205.4375 26.540625 205.4375 25.759375Q205.4375 25.30625 205.64062 24.93125Q205.84375 24.540625 206.1875 24.321875Q206.53125 24.0875 206.95312 23.978125Q207.25 23.884375 207.89062 23.80625Q209.15625 23.665625 209.76562 23.446875Q209.76562 23.228125 209.76562 23.18125Q209.76562 22.525 209.46875 22.259375Q209.0625 21.915625 208.26562 21.915625Q207.53125 21.915625 207.17188 22.18125Q206.8125 22.43125 206.64062 23.0875L205.60938 22.946875Q205.75 22.290625 206.07812 21.884375Q206.40625 21.478125 207.01562 21.259375Q207.625 21.040625 208.42188 21.040625Q209.21875 21.040625 209.71875 21.228125Q210.21875 21.415625 210.45312 21.696875Q210.6875 21.978125 210.78125 22.415625Q210.82812 22.68125 210.82812 23.384375L210.82812 24.790625Q210.82812 26.259375 210.89062 26.65Q210.96875 27.040625 211.17188 27.4L210.0625 27.4Q209.90625 27.071875 209.85938 26.634375ZM209.76562 24.275Q209.1875 24.509375 208.04688 24.68125Q207.39062 24.775 207.125 24.9Q206.85938 25.009375 206.70312 25.228125Q206.5625 25.446875 206.5625 25.728125Q206.5625 26.15 206.875 26.43125Q207.20312 26.7125 207.8125 26.7125Q208.42188 26.7125 208.89062 26.446875Q209.375 26.18125 209.59375 25.7125Q209.76562 25.353125 209.76562 24.665625L209.76562 24.275ZM212.76562 27.4L212.76562 18.80625L213.82812 18.80625L213.82812 27.4L212.76562 27.4ZM215.40625 24.290625Q215.40625 22.55625 216.35938 21.728125Q217.15625 21.040625 218.3125 21.040625Q219.59375 21.040625 220.40625 21.884375Q221.23438 22.7125 221.23438 24.196875Q221.23438 25.4 220.875 26.0875Q220.51562 26.775 219.8125 27.165625Q219.125 27.540625 218.3125 27.540625Q217.01562 27.540625 216.20312 26.7125Q215.40625 25.86875 215.40625 24.290625ZM216.48438 24.290625Q216.48438 25.478125 217.0 26.071875Q217.53125 26.665625 218.3125 26.665625Q219.10938 26.665625 219.625 26.071875Q220.14062 25.478125 220.14062 24.259375Q220.14062 23.103125 219.60938 22.509375Q219.09375 21.915625 218.3125 21.915625Q217.53125 21.915625 217.0 22.509375Q216.48438 23.0875 216.48438 24.290625ZM222.78125 27.4L222.78125 21.18125L223.73438 21.18125L223.73438 22.11875Q224.09375 21.4625 224.39062 21.259375Q224.70312 21.040625 225.07812 21.040625Q225.60938 21.040625 226.15625 21.36875L225.79688 22.353125Q225.40625 22.11875 225.03125 22.11875Q224.67188 22.11875 224.39062 22.3375Q224.125 22.540625 224.01562 22.915625Q223.82812 23.478125 223.82812 24.134375L223.82812 27.4L222.78125 27.4ZM231.04688 25.4L232.14062 25.525Q231.89062 26.478125 231.1875 27.009375Q230.48438 27.540625 229.40625 27.540625Q228.04688 27.540625 227.23438 26.696875Q226.4375 25.853125 226.4375 24.3375Q226.4375 22.775 227.25 21.915625Q228.0625 21.040625 229.34375 21.040625Q230.59375 21.040625 231.375 21.884375Q232.17188 22.728125 232.17188 24.275Q232.17188 24.36875 232.17188 24.55625L227.53125 24.55625Q227.59375 25.5875 228.10938 26.134375Q228.625 26.665625 229.40625 26.665625Q229.98438 26.665625 230.39062 26.36875Q230.8125 26.05625 231.04688 25.4ZM227.59375 23.696875L231.0625 23.696875Q231.0 22.9 230.67188 22.509375Q230.15625 21.9 229.35938 21.9Q228.625 21.9 228.125 22.384375Q227.64062 22.86875 227.59375 23.696875ZM240.85938 26.634375Q240.26562 27.134375 239.71875 27.3375Q239.1875 27.540625 238.5625 27.540625Q237.53125 27.540625 236.98438 27.040625Q236.4375 26.540625 236.4375 25.759375Q236.4375 25.30625 236.64062 24.93125Q236.84375 24.540625 237.1875 24.321875Q237.53125 24.0875 237.95312 23.978125Q238.25 23.884375 238.89062 23.80625Q240.15625 23.665625 240.76562 23.446875Q240.76562 23.228125 240.76562 23.18125Q240.76562 22.525 240.46875 22.259375Q240.0625 21.915625 239.26562 21.915625Q238.53125 21.915625 238.17188 22.18125Q237.8125 22.43125 237.64062 23.0875L236.60938 22.946875Q236.75 22.290625 237.07812 21.884375Q237.40625 21.478125 238.01562 21.259375Q238.625 21.040625 239.42188 21.040625Q240.21875 21.040625 240.71875 21.228125Q241.21875 21.415625 241.45312 21.696875Q241.6875 21.978125 241.78125 22.415625Q241.82812 22.68125 241.82812 23.384375L241.82812 24.790625Q241.82812 26.259375 241.89062 26.65Q241.96875 27.040625 242.17188 27.4L241.0625 27.4Q240.90625 27.071875 240.85938 26.634375ZM240.76562 24.275Q240.1875 24.509375 239.04688 24.68125Q238.39062 24.775 238.125 24.9Q237.85938 25.009375 237.70312 25.228125Q237.5625 25.446875 237.5625 25.728125Q237.5625 26.15 237.875 26.43125Q238.20312 26.7125 238.8125 26.7125Q239.42188 26.7125 239.89062 26.446875Q240.375 26.18125 240.59375 25.7125Q240.76562 25.353125 240.76562 24.665625L240.76562 24.275ZM247.85938 25.11875L248.89062 25.259375Q248.71875 26.321875 248.01562 26.93125Q247.3125 27.540625 246.29688 27.540625Q245.01562 27.540625 244.23438 26.7125Q243.46875 25.86875 243.46875 24.30625Q243.46875 23.30625 243.79688 22.55625Q244.14062 21.790625 244.8125 21.415625Q245.5 21.040625 246.3125 21.040625Q247.3125 21.040625 247.95312 21.55625Q248.60938 22.05625 248.79688 23.009375L247.76562 23.165625Q247.625 22.540625 247.25 22.228125Q246.875 21.9 246.34375 21.9Q245.54688 21.9 245.04688 22.478125Q244.54688 23.040625 244.54688 24.275Q244.54688 25.540625 245.03125 26.103125Q245.51562 26.665625 246.28125 26.665625Q246.90625 26.665625 247.3125 26.290625Q247.73438 25.915625 247.85938 25.11875ZM253.85938 25.11875L254.89062 25.259375Q254.71875 26.321875 254.01562 26.93125Q253.3125 27.540625 252.29688 27.540625Q251.01562 27.540625 250.23438 26.7125Q249.46875 25.86875 249.46875 24.30625Q249.46875 23.30625 249.79688 22.55625Q250.14062 21.790625 250.8125 21.415625Q251.5 21.040625 252.3125 21.040625Q253.3125 21.040625 253.95312 21.55625Q254.60938 22.05625 254.79688 23.009375L253.76562 23.165625Q253.625 22.540625 253.25 22.228125Q252.875 21.9 252.34375 21.9Q251.54688 21.9 251.04688 22.478125Q250.54688 23.040625 250.54688 24.275Q250.54688 25.540625 251.03125 26.103125Q251.51562 26.665625 252.28125 26.665625Q252.90625 26.665625 253.3125 26.290625Q253.73438 25.915625 253.85938 25.11875ZM260.04688 25.4L261.14062 25.525Q260.89062 26.478125 260.1875 27.009375Q259.48438 27.540625 258.40625 27.540625Q257.04688 27.540625 256.23438 26.696875Q255.4375 25.853125 255.4375 24.3375Q255.4375 22.775 256.25 21.915625Q257.0625 21.040625 258.34375 21.040625Q259.59375 21.040625 260.375 21.884375Q261.17188 22.728125 261.17188 24.275Q261.17188 24.36875 261.17188 24.55625L256.53125 24.55625Q256.59375 25.5875 257.10938 26.134375Q257.625 26.665625 258.40625 26.665625Q258.98438 26.665625 259.39062 26.36875Q259.8125 26.05625 260.04688 25.4ZM256.59375 23.696875L260.0625 23.696875Q260.0 22.9 259.67188 22.509375Q259.15625 21.9 258.35938 21.9Q257.625 21.9 257.125 22.384375Q256.64062 22.86875 256.59375 23.696875ZM265.09375 26.4625L265.25 27.384375Q264.79688 27.478125 264.45312 27.478125Q263.875 27.478125 263.5625 27.30625Q263.25 27.11875 263.10938 26.821875Q262.98438 26.525 262.98438 25.571875L262.98438 21.99375L262.21875 21.99375L262.21875 21.18125L262.98438 21.18125L262.98438 19.634375L264.03125 19.009375L264.03125 21.18125L265.09375 21.18125L265.09375 21.99375L264.03125 21.99375L264.03125 25.634375Q264.03125 26.0875 264.07812 26.2125Q264.14062 26.3375 264.26562 26.415625Q264.39062 26.49375 264.625 26.49375Q264.8125 26.49375 265.09375 26.4625ZM268.09375 26.4625L268.25 27.384375Q267.79688 27.478125 267.45312 27.478125Q266.875 27.478125 266.5625 27.30625Q266.25 27.11875 266.10938 26.821875Q265.98438 26.525 265.98438 25.571875L265.98438 21.99375L265.21875 21.99375L265.21875 21.18125L265.98438 21.18125L265.98438 19.634375L267.03125 19.009375L267.03125 21.18125L268.09375 21.18125L268.09375 21.99375L267.03125 21.99375L267.03125 25.634375Q267.03125 26.0875 267.07812 26.2125Q267.14062 26.3375 267.26562 26.415625Q267.39062 26.49375 267.625 26.49375Q267.8125 26.49375 268.09375 26.4625ZM272.85938 26.634375Q272.26562 27.134375 271.71875 27.3375Q271.1875 27.540625 270.5625 27.540625Q269.53125 27.540625 268.98438 27.040625Q268.4375 26.540625 268.4375 25.759375Q268.4375 25.30625 268.64062 24.93125Q268.84375 24.540625 269.1875 24.321875Q269.53125 24.0875 269.95312 23.978125Q270.25 23.884375 270.89062 23.80625Q272.15625 23.665625 272.76562 23.446875Q272.76562 23.228125 272.76562 23.18125Q272.76562 22.525 272.46875 22.259375Q272.0625 21.915625 271.26562 21.915625Q270.53125 21.915625 270.17188 22.18125Q269.8125 22.43125 269.64062 23.0875L268.60938 22.946875Q268.75 22.290625 269.07812 21.884375Q269.40625 21.478125 270.01562 21.259375Q270.625 21.040625 271.42188 21.040625Q272.21875 21.040625 272.71875 21.228125Q273.21875 21.415625 273.45312 21.696875Q273.6875 21.978125 273.78125 22.415625Q273.82812 22.68125 273.82812 23.384375L273.82812 24.790625Q273.82812 26.259375 273.89062 26.65Q273.96875 27.040625 274.17188 27.4L273.0625 27.4Q272.90625 27.071875 272.85938 26.634375ZM272.76562 24.275Q272.1875 24.509375 271.04688 24.68125Q270.39062 24.775 270.125 24.9Q269.85938 25.009375 269.70312 25.228125Q269.5625 25.446875 269.5625 25.728125Q269.5625 26.15 269.875 26.43125Q270.20312 26.7125 270.8125 26.7125Q271.42188 26.7125 271.89062 26.446875Q272.375 26.18125 272.59375 25.7125Q272.76562 25.353125 272.76562 24.665625L272.76562 24.275ZM276.76562 27.4L275.78125 27.4L275.78125 18.80625L276.84375 18.80625L276.84375 21.86875Q277.51562 21.040625 278.54688 21.040625Q279.125 21.040625 279.625 21.275Q280.14062 21.49375 280.46875 21.915625Q280.8125 22.3375 281.0 22.93125Q281.1875 23.525 281.1875 24.196875Q281.1875 25.790625 280.39062 26.665625Q279.59375 27.540625 278.5 27.540625Q277.39062 27.540625 276.76562 26.61875L276.76562 27.4ZM276.75 24.24375Q276.75 25.353125 277.0625 25.853125Q277.5625 26.665625 278.40625 26.665625Q279.09375 26.665625 279.59375 26.071875Q280.10938 25.478125 280.10938 24.275Q280.10938 23.05625 279.625 22.478125Q279.14062 21.9 278.45312 21.9Q277.76562 21.9 277.25 22.509375Q276.75 23.103125 276.75 24.24375ZM282.79688 20.025L282.79688 18.80625L283.85938 18.80625L283.85938 20.025L282.79688 20.025ZM282.79688 27.4L282.79688 21.18125L283.85938 21.18125L283.85938 27.4L282.79688 27.4ZM285.76562 27.4L285.76562 18.80625L286.82812 18.80625L286.82812 27.4L285.76562 27.4ZM293.04688 25.4L294.14062 25.525Q293.89062 26.478125 293.1875 27.009375Q292.48438 27.540625 291.40625 27.540625Q290.04688 27.540625 289.23438 26.696875Q288.4375 25.853125 288.4375 24.3375Q288.4375 22.775 289.25 21.915625Q290.0625 21.040625 291.34375 21.040625Q292.59375 21.040625 293.375 21.884375Q294.17188 22.728125 294.17188 24.275Q294.17188 24.36875 294.17188 24.55625L289.53125 24.55625Q289.59375 25.5875 290.10938 26.134375Q290.625 26.665625 291.40625 26.665625Q291.98438 26.665625 292.39062 26.36875Q292.8125 26.05625 293.04688 25.4ZM289.59375 23.696875L293.0625 23.696875Q293.0 22.9 292.67188 22.509375Q292.15625 21.9 291.35938 21.9Q290.625 21.9 290.125 22.384375Q289.64062 22.86875 289.59375 23.696875Z" fill-rule="nonzero"/><path fill="#fbbc04" fill-opacity="0.7019608" d="M323.0 23.4C323.0 26.713709 320.31372 29.4 317.0 29.4C313.68628 29.4 311.0 26.713709 311.0 23.4C311.0 20.086292 313.68628 17.4 317.0 17.4C320.31372 17.4 323.0 20.086292 323.0 23.4Z" fill-rule="nonzero"/><path fill="#1a1a1a" d="M334.375 27.4L331.04688 18.80625L332.28125 18.80625L334.51562 25.05625Q334.78125 25.80625 334.96875 26.4625Q335.17188 25.759375 335.4375 25.05625L337.75 18.80625L338.90625 18.80625L335.54688 27.4L334.375 27.4ZM342.85938 26.634375Q342.26562 27.134375 341.71875 27.3375Q341.1875 27.540625 340.5625 27.540625Q339.53125 27.540625 338.98438 27.040625Q338.4375 26.540625 338.4375 25.759375Q338.4375 25.30625 338.64062 24.93125Q338.84375 24.540625 339.1875 24.321875Q339.53125 24.0875 339.95312 23.978125Q340.25 23.884375 340.89062 23.80625Q342.15625 23.665625 342.76562 23.446875Q342.76562 23.228125 342.76562 23.18125Q342.76562 22.525 342.46875 22.259375Q342.0625 21.915625 341.26562 21.915625Q340.53125 21.915625 340.17188 22.18125Q339.8125 22.43125 339.64062 23.0875L338.60938 22.946875Q338.75 22.290625 339.07812 21.884375Q339.40625 21.478125 340.01562 21.259375Q340.625 21.040625 341.42188 21.040625Q342.21875 21.040625 342.71875 21.228125Q343.21875 21.415625 343.45312 21.696875Q343.6875 21.978125 343.78125 22.415625Q343.82812 22.68125 343.82812 23.384375L343.82812 24.790625Q343.82812 26.259375 343.89062 26.65Q343.96875 27.040625 344.17188 27.4L343.0625 27.4Q342.90625 27.071875 342.85938 26.634375ZM342.76562 24.275Q342.1875 24.509375 341.04688 24.68125Q340.39062 24.775 340.125 24.9Q339.85938 25.009375 339.70312 25.228125Q339.5625 25.446875 339.5625 25.728125Q339.5625 26.15 339.875 26.43125Q340.20312 26.7125 340.8125 26.7125Q341.42188 26.7125 341.89062 26.446875Q342.375 26.18125 342.59375 25.7125Q342.76562 25.353125 342.76562 24.665625L342.76562 24.275ZM345.76562 27.4L345.76562 18.80625L346.82812 18.80625L346.82812 27.4L345.76562 27.4ZM348.40625 24.290625Q348.40625 22.55625 349.35938 21.728125Q350.15625 21.040625 351.3125 21.040625Q352.59375 21.040625 353.40625 21.884375Q354.23438 22.7125 354.23438 24.196875Q354.23438 25.4 353.875 26.0875Q353.51562 26.775 352.8125 27.165625Q352.125 27.540625 351.3125 27.540625Q350.01562 27.540625 349.20312 26.7125Q348.40625 25.86875 348.40625 24.290625ZM349.48438 24.290625Q349.48438 25.478125 350.0 26.071875Q350.53125 26.665625 351.3125 26.665625Q352.10938 26.665625 352.625 26.071875Q353.14062 25.478125 353.14062 24.259375Q353.14062 23.103125 352.60938 22.509375Q352.09375 21.915625 351.3125 21.915625Q350.53125 21.915625 350.0 22.509375Q349.48438 23.0875 349.48438 24.290625ZM355.78125 27.4L355.78125 21.18125L356.73438 21.18125L356.73438 22.11875Q357.09375 21.4625 357.39062 21.259375Q357.70312 21.040625 358.07812 21.040625Q358.60938 21.040625 359.15625 21.36875L358.79688 22.353125Q358.40625 22.11875 358.03125 22.11875Q357.67188 22.11875 357.39062 22.3375Q357.125 22.540625 357.01562 22.915625Q356.82812 23.478125 356.82812 24.134375L356.82812 27.4L355.78125 27.4ZM364.04688 25.4L365.14062 25.525Q364.89062 26.478125 364.1875 27.009375Q363.48438 27.540625 362.40625 27.540625Q361.04688 27.540625 360.23438 26.696875Q359.4375 25.853125 359.4375 24.3375Q359.4375 22.775 360.25 21.915625Q361.0625 21.040625 362.34375 21.040625Q363.59375 21.040625 364.375 21.884375Q365.17188 22.728125 365.17188 24.275Q365.17188 24.36875 365.17188 24.55625L360.53125 24.55625Q360.59375 25.5875 361.10938 26.134375Q361.625 26.665625 362.40625 26.665625Q362.98438 26.665625 363.39062 26.36875Q363.8125 26.05625 364.04688 25.4ZM360.59375 23.696875L364.0625 23.696875Q364.0 22.9 363.67188 22.509375Q363.15625 21.9 362.35938 21.9Q361.625 21.9 361.125 22.384375Q360.64062 22.86875 360.59375 23.696875ZM369.57812 23.2125Q369.57812 21.071875 370.71875 19.86875Q371.875 18.65 373.6875 18.65Q374.89062 18.65 375.84375 19.228125Q376.79688 19.790625 377.29688 20.80625Q377.79688 21.821875 377.79688 23.11875Q377.79688 24.415625 377.26562 25.446875Q376.73438 26.478125 375.76562 27.009375Q374.8125 27.540625 373.6875 27.540625Q372.46875 27.540625 371.51562 26.9625Q370.5625 26.36875 370.0625 25.36875Q369.57812 24.353125 369.57812 23.2125ZM370.75 23.228125Q370.75 24.790625 371.57812 25.68125Q372.42188 26.571875 373.6875 26.571875Q374.96875 26.571875 375.79688 25.68125Q376.625 24.775 376.625 23.103125Q376.625 22.05625 376.26562 21.275Q375.92188 20.49375 375.23438 20.071875Q374.54688 19.634375 373.70312 19.634375Q372.5 19.634375 371.625 20.4625Q370.75 21.290625 370.75 23.228125ZM381.09375 26.4625L381.25 27.384375Q380.79688 27.478125 380.45312 27.478125Q379.875 27.478125 379.5625 27.30625Q379.25 27.11875 379.10938 26.821875Q378.98438 26.525 378.98438 25.571875L378.98438 21.99375L378.21875 21.99375L378.21875 21.18125L378.98438 21.18125L378.98438 19.634375L380.03125 19.009375L380.03125 21.18125L381.09375 21.18125L381.09375 21.99375L380.03125 21.99375L380.03125 25.634375Q380.03125 26.0875 380.07812 26.2125Q380.14062 26.3375 380.26562 26.415625Q380.39062 26.49375 380.625 26.49375Q380.8125 26.49375 381.09375 26.4625ZM384.09375 26.4625L384.25 27.384375Q383.79688 27.478125 383.45312 27.478125Q382.875 27.478125 382.5625 27.30625Q382.25 27.11875 382.10938 26.821875Q381.98438 26.525 381.98438 25.571875L381.98438 21.99375L381.21875 21.99375L381.21875 21.18125L381.98438 21.18125L381.98438 19.634375L383.03125 19.009375L383.03125 21.18125L384.09375 21.18125L384.09375 21.99375L383.03125 21.99375L383.03125 25.634375Q383.03125 26.0875 383.07812 26.2125Q383.14062 26.3375 383.26562 26.415625Q383.39062 26.49375 383.625 26.49375Q383.8125 26.49375 384.09375 26.4625ZM384.79688 20.025L384.79688 18.80625L385.85938 18.80625L385.85938 20.025L384.79688 20.025ZM384.79688 27.4L384.79688 21.18125L385.85938 21.18125L385.85938 27.4L384.79688 27.4ZM387.79688 27.4L387.79688 21.18125L388.73438 21.18125L388.73438 22.05625Q389.03125 21.5875 389.51562 21.321875Q390.0 21.040625 390.625 21.040625Q391.3125 21.040625 391.75 21.321875Q392.20312 21.603125 392.375 22.11875Q393.125 21.040625 394.29688 21.040625Q395.23438 21.040625 395.71875 21.55625Q396.21875 22.05625 396.21875 23.134375L396.21875 27.4L395.17188 27.4L395.17188 23.478125Q395.17188 22.853125 395.0625 22.571875Q394.96875 22.290625 394.70312 22.11875Q394.4375 21.946875 394.0625 21.946875Q393.40625 21.946875 392.96875 22.384375Q392.54688 22.821875 392.54688 23.790625L392.54688 27.4L391.48438 27.4L391.48438 23.353125Q391.48438 22.65 391.21875 22.30625Q390.96875 21.946875 390.39062 21.946875Q389.9375 21.946875 389.5625 22.18125Q389.1875 22.415625 389.01562 22.86875Q388.84375 23.321875 388.84375 24.165625L388.84375 27.4L387.79688 27.4ZM398.40625 24.290625Q398.40625 22.55625 399.35938 21.728125Q400.15625 21.040625 401.3125 21.040625Q402.59375 21.040625 403.40625 21.884375Q404.23438 22.7125 404.23438 24.196875Q404.23438 25.4 403.875 26.0875Q403.51562 26.775 402.8125 27.165625Q402.125 27.540625 401.3125 27.540625Q400.01562 27.540625 399.20312 26.7125Q398.40625 25.86875 398.40625 24.290625ZM399.48438 24.290625Q399.48438 25.478125 400.0 26.071875Q400.53125 26.665625 401.3125 26.665625Q402.10938 26.665625 402.625 26.071875Q403.14062 25.478125 403.14062 24.259375Q403.14062 23.103125 402.60938 22.509375Q402.09375 21.915625 401.3125 21.915625Q400.53125 21.915625 400.0 22.509375Q399.48438 23.0875 399.48438 24.290625Z" fill-rule="nonzero"/></svg>