<svg version="1.1" viewBox="0.0 0.0 532.0 328.0" fill="none" stroke="none" stroke-linecap="square" stroke-miterlimit="10" width="532" height="328" xmlns:xlink="http://www.w3.org/1999/xlink" xmlns="http://www.w3.org/2000/svg"><path fill="#ffffff" d="M0 0L532.0 0L532.0 328.0L0 328.0L0 0Z" fill-rule="nonzero"/><path stroke="#333333" stroke-width="1.0" stroke-linecap="butt" d="M81.5 285.5L515.5 285.5" fill-rule="nonzero"/><path stroke="#cccccc" stroke-width="1.0" stroke-linecap="butt" d="M81.5 261.5L515.5 261.5" fill-rule="nonzero"/><path stroke="#cccccc" stroke-width="1.0" stroke-linecap="butt" d="M81.5 238.5L515.5 238.5" fill-rule="nonzero"/><path stroke="#cccccc" stroke-width="1.0" stroke-linecap="butt" d="M81.5 214.5L515.5 214.5" fill-rule="nonzero"/><path stroke="#cccccc" stroke-width="1.0" stroke-linecap="butt" d="M81.5 190.5L515.5 190.5" fill-rule="nonzero"/><path stroke="#cccccc" stroke-width="1.0" stroke-linecap="butt" d="M81.5 166.5L515.5 166.5" fill-rule="nonzero"/><path stroke="#cccccc" stroke-width="1.0" stroke-linecap="butt" d="M81.5 143.5L515.5 143.5" fill-rule="nonzero"/><path stroke="#cccccc" stroke-width="1.0" stroke-linecap="butt" d="M81.5 119.5L515.5 119.5" fill-rule="nonzero"/><path stroke="#cccccc" stroke-width="1.0" stroke-linecap="butt" d="M81.5 95.5L515.5 95.5" fill-rule="nonzero"/><path stroke="#cccccc" stroke-width="1.0" stroke-linecap="butt" d="M81.5 72.5L515.5 72.5" fill-rule="nonzero"/><path stroke="#cccccc" stroke-width="1.0" stroke-linecap="butt" d="M81.5 48.5L515.5 48.5" fill-rule="nonzero"/><path stroke="#000000" stroke-width="1.0" stroke-linecap="butt" d="M515.5 285.5L81.5 285.5" fill-rule="nonzero"/><path stroke="#000000" stroke-width="1.0" stroke-linecap="butt" d="M81.5 285.5L81.5 48.5" fill-rule="nonzero"/><clipPath id="id_0"><path d="M81.4 48.333332L515.6 48.333332L515.6 285.6L81.4 285.6L81.4 48.333332Z" clip-rule="nonzero"/></clipPath><path stroke="#4285f4" stroke-width="2.0" stroke-linecap="butt" clip-path="url(#id_0)" d="M112.41428 200.36829C112.41428 200.36829 153.76666 165.5005 174.44286 156.39539C195.11905 147.29025 215.79524 149.95331 236.47144 145.73755C257.1476 141.52177 277.82382 134.28514 298.5 131.10077C319.17618 127.916405 339.8524 128.56258 360.52856 126.63133C381.20477 124.700096 401.88095 120.430046 422.55713 119.513336C443.23334 118.59662 484.58572 121.13106 484.58572 121.13106" fill-rule="nonzero"/><path stroke="#ea4335" stroke-width="2.0" stroke-linecap="butt" clip-path="url(#id_0)" d="M112.41428 166.96666C112.41428 166.96666 153.76666 166.96666 174.44286 166.96666C195.11905 166.96666 215.79524 166.96666 236.47144 166.96666C257.1476 166.96666 277.82382 166.96666 298.5 166.96666C319.17618 166.96666 339.8524 166.96666 360.52856 166.96666C381.20477 166.96666 401.88095 166.96666 422.55713 166.96666C443.23334 166.96666 484.58572 166.96666 484.58572 166.96666" fill-rule="nonzero"/><path stroke="#fbbc04" stroke-width="4.0" stroke-linecap="butt" stroke-opacity="0.7019608" clip-path="url(#id_0)" d="M112.41428 48.333332C112.41428 48.333332 153.76666 48.333332 174.44286 48.333332C195.11905 48.333332 215.79524 48.333332 236.47144 48.333332C257.1476 48.333332 277.82382 48.333332 298.5 48.333332C319.17618 48.333332 339.8524 48.333332 360.52856 48.333332C381.20477 48.333332 401.88095 48.333332 422.55713 48.333332C443.23334 48.333332 484.58572 48.333332 484.58572 48.333332" fill-rule="nonzero"/><path fill="#4285f4" clip-path="url(#id_0)" d="M115.91428 200.36829C115.91428 202.30128 114.34728 203.86829 112.41428 203.86829C110.48129 203.86829 108.91428 202.30128 108.91428 200.36829C108.91428 198.43529 110.48129 196.86829 112.41428 196.86829C114.34728 196.86829 115.91428 198.43529 115.91428 200.36829Z" fill-rule="nonzero"/><path fill="#4285f4" clip-path="url(#id_0)" d="M177.94286 156.39539C177.94286 158.32837 176.37585 159.89539 174.44286 159.89539C172.50986 159.89539 170.94286 158.32837 170.94286 156.39539C170.94286 154.46239 172.50986 152.89539 174.44286 152.89539C176.37585 152.89539 177.94286 154.46239 177.94286 156.39539Z" fill-rule="nonzero"/><path fill="#4285f4" clip-path="url(#id_0)" d="M239.97144 145.73755C239.97144 147.67055 238.40442 149.23755 236.47144 149.23755C234.53844 149.23755 232.97144 147.67055 232.97144 145.73755C232.97144 143.80455 234.53844 142.23755 236.47144 142.23755C238.40442 142.23755 239.97144 143.80455 239.97144 145.73755Z" fill-rule="nonzero"/><path fill="#4285f4" clip-path="url(#id_0)" d="M302.0 131.10077C302.0 133.03377 300.43298 134.60077 298.5 134.60077C296.56702 134.60077 295.0 133.03377 295.0 131.10077C295.0 129.16779 296.56702 127.60078 298.5 127.60078C300.43298 127.60078 302.0 129.16779 302.0 131.10077Z" fill-rule="nonzero"/><path fill="#4285f4" clip-path="url(#id_0)" d="M364.02856 126.63133C364.02856 128.56433 362.46158 130.13133 360.52856 130.13133C358.59558 130.13133 357.02856 128.56433 357.02856 126.63133C357.02856 124.69833 358.59558 123.13133 360.52856 123.13133C362.46158 123.13133 364.02856 124.69833 364.02856 126.63133Z" fill-rule="nonzero"/><path fill="#4285f4" clip-path="url(#id_0)" d="M426.05713 119.513336C426.05713 121.44633 424.49014 123.013336 422.55713 123.013336C420.62415 123.013336 419.05713 121.44633 419.05713 119.513336C419.05713 117.58034 420.62415 116.013336 422.55713 116.013336C424.49014 116.013336 426.05713 117.58034 426.05713 119.513336Z" fill-rule="nonzero"/><path fill="#4285f4" clip-path="url(#id_0)" d="M488.08572 121.13106C488.08572 123.06406 486.5187 124.63106 484.58572 124.63106C482.6527 124.63106 481.08572 123.06406 481.08572 121.13106C481.08572 119.19807 482.6527 117.63106 484.58572 117.63106C486.5187 117.63106 488.08572 119.19807 488.08572 121.13106Z" fill-rule="nonzero"/><path fill="#ea4335" clip-path="url(#id_0)" d="M115.91428 166.96666C115.91428 168.89966 114.34728 170.46666 112.41428 170.46666C110.48129 170.46666 108.91428 168.89966 108.91428 166.96666C108.91428 165.03368 110.48129 163.46666 112.41428 163.46666C114.34728 163.46666 115.91428 165.03368 115.91428 166.96666Z" fill-rule="nonzero"/><path fill="#ea4335" clip-path="url(#id_0)" d="M177.94286 166.96666C177.94286 168.89966 176.37585 170.46666 174.44286 170.46666C172.50986 170.46666 170.94286 168.89966 170.94286 166.96666C170.94286 165.03368 172.50986 163.46666 174.44286 163.46666C176.37585 163.46666 177.94286 165.03368 177.94286 166.96666Z" fill-rule="nonzero"/><path fill="#ea4335" clip-path="url(#id_0)" d="M239.97144 166.96666C239.97144 168.89966 238.40442 170.46666 236.47144 170.46666C234.53844 170.46666 232.97144 168.89966 232.97144 166.96666C232.97144 165.03368 234.53844 163.46666 236.47144 163.46666C238.40442 163.46666 239.97144 165.03368 239.97144 166.96666Z" fill-rule="nonzero"/><path fill="#ea4335" clip-path="url(#id_0)" d="M302.0 166.96666C302.0 168.89966 300.43298 170.46666 298.5 170.46666C296.56702 170.46666 295.0 168.89966 295.0 166.96666C295.0 165.03368 296.56702 163.46666 298.5 163.46666C300.43298 163.46666 302.0 165.03368 302.0 166.96666Z" fill-rule="nonzero"/><path fill="#ea4335" clip-path="url(#id_0)" d="M364.02856 166.96666C364.02856 168.89966 362.46158 170.46666 360.52856 170.46666C358.59558 170.46666 357.02856 168.89966 357.02856 166.96666C357.02856 165.03368 358.59558 163.46666 360.52856 163.46666C362.46158 163.46666 364.02856 165.03368 364.02856 166.96666Z" fill-rule="nonzero"/><path fill="#ea4335" clip-path="url(#id_0)" d="M426.05713 166.96666C426.05713 168.89966 424.49014 170.46666 422.55713 170.46666C420.62415 170.46666 419.05713 168.89966 419.05713 166.96666C419.05713 165.03368 420.62415 163.46666 422.55713 163.46666C424.49014 163.46666 426.05713 165.03368 426.05713 166.96666Z" fill-rule="nonzero"/><path fill="#ea4335" clip-path="url(#id_0)" d="M488.08572 166.96666C488.08572 168.89966 486.5187 170.46666 484.58572 170.46666C482.6527 170.46666 481.08572 168.89966 481.08572 166.96666C481.08572 165.03368 482.6527 163.46666 484.58572 163.46666C486.5187 163.46666 488.08572 165.03368 488.08572 166.96666Z" fill-rule="nonzero"/><path fill="#fbbc04" fill-opacity="0.7019608" clip-path="url(#id_0)" d="M115.91428 48.333332C115.91428 50.26633 114.34728 51.833332 112.41428 51.833332C110.48129 51.833332 108.91428 50.26633 108.91428 48.333332C108.91428 46.400337 110.48129 44.833332 112.41428 44.833332C114.34728 44.833332 115.91428 46.400337 115.91428 48.333332Z" fill-rule="nonzero"/><path fill="#fbbc04" fill-opacity="0.7019608" clip-path="url(#id_0)" d="M177.94286 48.333332C177.94286 50.26633 176.37585 51.833332 174.44286 51.833332C172.50986 51.833332 170.94286 50.26633 170.94286 48.333332C170.94286 46.400337 172.50986 44.833332 174.44286 44.833332C176.37585 44.833332 177.94286 46.400337 177.94286 48.333332Z" fill-rule="nonzero"/><path fill="#fbbc04" fill-opacity="0.7019608" clip-path="url(#id_0)" d="M239.97144 48.333332C239.97144 50.26633 238.40442 51.833332 236.47144 51.833332C234.53844 51.833332 232.97144 50.26633 232.97144 48.333332C232.97144 46.400337 234.53844 44.833332 236.47144 44.833332C238.40442 44.833332 239.97144 46.400337 239.97144 48.333332Z" fill-rule="nonzero"/><path fill="#fbbc04" fill-opacity="0.7019608" clip-path="url(#id_0)" d="M302.0 48.333332C302.0 50.26633 300.43298 51.833332 298.5 51.833332C296.56702 51.833332 295.0 50.26633 295.0 48.333332C295.0 46.400337 296.56702 44.833332 298.5 44.833332C300.43298 44.833332 302.0 46.400337 302.0 48.333332Z" fill-rule="nonzero"/><path fill="#fbbc04" fill-opacity="0.7019608" clip-path="url(#id_0)" d="M364.02856 48.333332C364.02856 50.26633 362.46158 51.833332 360.52856 51.833332C358.59558 51.833332 357.02856 50.26633 357.02856 48.333332C357.02856 46.400337 358.59558 44.833332 360.52856 44.833332C362.46158 44.833332 364.02856 46.400337 364.02856 48.333332Z" fill-rule="nonzero"/><path fill="#fbbc04" fill-opacity="0.7019608" clip-path="url(#id_0)" d="M426.05713 48.333332C426.05713 50.26633 424.49014 51.833332 422.55713 51.833332C420.62415 51.833332 419.05713 50.26633 419.05713 48.333332C419.05713 46.400337 420.62415 44.833332 422.55713 44.833332C424.49014 44.833332 426.05713 46.400337 426.05713 48.333332Z" fill-rule="nonzero"/><path fill="#fbbc04" fill-opacity="0.7019608" clip-path="url(#id_0)" d="M488.08572 48.333332C488.08572 50.26633 486.5187 51.833332 484.58572 51.833332C482.6527 51.833332 481.08572 50.26633 481.08572 48.333332C481.08572 46.400337 482.6527 44.833332 484.58572 44.833332C486.5187 44.833332 488.08572 46.400337 488.08572 48.333332Z" fill-rule="nonzero"/><path stroke="#000000" stroke-width="1.0" stroke-linecap="butt" d="M112.5 291.5L112.5 279.5" fill-rule="nonzero"/><path stroke="#000000" stroke-width="1.0" stroke-linecap="butt" d="M174.5 291.5L174.5 279.5" fill-rule="nonzero"/><path stroke="#000000" stroke-width="1.0" stroke-linecap="butt" d="M236.5 291.5L236.5 279.5" fill-rule="nonzero"/><path stroke="#000000" stroke-width="1.0" stroke-linecap="butt" d="M298.5 291.5L298.5 279.5" fill-rule="nonzero"/><path stroke="#000000" stroke-width="1.0" stroke-linecap="butt" d="M360.5 291.5L360.5 279.5" fill-rule="nonzero"/><path stroke="#000000" stroke-width="1.0" stroke-linecap="butt" d="M422.5 291.5L422.5 279.5" fill-rule="nonzero"/><path stroke="#000000" stroke-width="1.0" stroke-linecap="butt" d="M484.5 291.5L484.5 279.5" fill-rule="nonzero"/><path stroke="#000000" stroke-width="1.0" stroke-linecap="butt" d="M75.5 285.5L87.5 285.5" fill-rule="nonzero"/><path stroke="#000000" stroke-width="1.0" stroke-linecap="butt" d="M75.5 261.5L87.5 261.5" fill-rule="nonzero"/><path stroke="#000000" stroke-width="1.0" stroke-linecap="butt" d="M75.5 238.5L87.5 238.5" fill-rule="nonzero"/><path stroke="#000000" stroke-width="1.0" stroke-linecap="butt" d="M75.5 214.5L87.5 214.5" fill-rule="nonzero"/><path stroke="#000000" stroke-width="1.0" stroke-linecap="butt" d="M75.5 190.5L87.5 190.5" fill-rule="nonzero"/><path stroke="#000000" stroke-width="1.0" stroke-linecap="butt" d="M75.5 166.5L87.5 166.5" fill-rule="nonzero"/><path stroke="#000000" stroke-width="1.0" stroke-linecap="butt" d="M75.5 143.5L87.5 143.5" fill-rule="nonzero"/><path stroke="#000000" stroke-width="1.0" stroke-linecap="butt" d="M75.5 119.5L87.5 119.5" fill-rule="nonzero"/><path stroke="#000000" stroke-width="1.0" stroke-linecap="butt" d="M75.5 95.5L87.5 95.5" fill-rule="nonzero"/><path stroke="#000000" stroke-width="1.0" stroke-linecap="butt" d="M75.5 72.5L87.5 72.5" fill-rule="nonzero"/><path stroke="#000000" stroke-width="1.0" stroke-linecap="butt" d="M75.5 48.5L87.5 48.5" fill-rule="nonzero"/><path fill="#000000" d="M62.9 285.36563Q62.9 283.83438 63.2125 282.9125Q63.525 281.975 64.13438 281.475Q64.75938 280.975 65.69688 280.975Q66.38438 280.975 66.9 281.25626Q67.43125 281.5375 67.775 282.06876Q68.11875 282.58438 68.30625 283.33438Q68.49375 284.08438 68.49375 285.36563Q68.49375 286.88126 68.18125 287.80313Q67.88438 288.725 67.25938 289.24063Q66.65 289.74063 65.69688 289.74063Q64.4625 289.74063 63.74375 288.85Q62.9 287.7875 62.9 285.36563ZM63.978127 285.36563Q63.978127 287.475 64.47813 288.17813Q64.97813 288.88126 65.69688 288.88126Q66.43125 288.88126 66.91563 288.17813Q67.41563 287.475 67.41563 285.36563Q67.41563 283.24063 66.91563 282.55313Q66.43125 281.85 65.68125 281.85Q64.9625 281.85 64.525 282.45938Q63.978127 283.24063 63.978127 285.36563Z" fill-rule="nonzero"/><path fill="#000000" d="M59.86875 265.87332L58.821877 265.87332L58.821877 259.15457Q58.43125 259.51395 57.80625 259.88895Q57.196877 260.24832 56.7125 260.4202L56.7125 259.40457Q57.5875 258.9827 58.24375 258.40457Q58.915627 257.81082 59.196877 257.24832L59.86875 257.24832L59.86875 265.87332ZM62.9 261.63895Q62.9 260.1077 63.2125 259.18582Q63.525 258.24832 64.13438 257.74832Q64.75938 257.24832 65.69688 257.24832Q66.38438 257.24832 66.9 257.52957Q67.43125 257.81082 67.775 258.34207Q68.11875 258.8577 68.30625 259.6077Q68.49375 260.3577 68.49375 261.63895Q68.49375 263.15457 68.18125 264.07645Q67.88438 264.99832 67.25938 265.51395Q66.65 266.01395 65.69688 266.01395Q64.4625 266.01395 63.74375 265.12332Q62.9 264.06082 62.9 261.63895ZM63.978127 261.63895Q63.978127 263.74832 64.47813 264.45145Q64.97813 265.15457 65.69688 265.15457Q66.43125 265.15457 66.91563 264.45145Q67.41563 263.74832 67.41563 261.63895Q67.41563 259.51395 66.91563 258.82645Q66.43125 258.12332 65.68125 258.12332Q64.9625 258.12332 64.525 258.7327Q63.978127 259.51395 63.978127 261.63895Z" fill-rule="nonzero"/><path fill="#000000" d="M61.446877 241.13104L61.446877 242.14667L55.759377 242.14667Q55.759377 241.77167 55.884377 241.4123Q56.103127 240.83417 56.571877 240.27167Q57.05625 239.70917 57.9625 238.9748Q59.36875 237.81854 59.853127 237.14667Q60.353127 236.4748 60.353127 235.88104Q60.353127 235.25604 59.9 234.83417Q59.446877 234.39667 58.728127 234.39667Q57.9625 234.39667 57.509377 234.8498Q57.05625 235.30292 57.040627 236.11542L55.9625 236.00604Q56.071877 234.7873 56.790627 234.1623Q57.525 233.52167 58.759377 233.52167Q59.99375 233.52167 60.7125 234.20917Q61.43125 234.89667 61.43125 235.9123Q61.43125 236.42792 61.2125 236.92792Q61.009377 237.4123 60.509377 237.9748Q60.025 238.52167 58.9 239.4748Q57.946877 240.27167 57.665627 240.56854Q57.4 240.8498 57.228127 241.13104L61.446877 241.13104ZM62.9 237.9123Q62.9 236.38104 63.2125 235.45917Q63.525 234.52167 64.13438 234.02167Q64.75938 233.52167 65.69688 233.52167Q66.38438 233.52167 66.9 233.80292Q67.43125 234.08417 67.775 234.61542Q68.11875 235.13104 68.30625 235.88104Q68.49375 236.63104 68.49375 237.9123Q68.49375 239.42792 68.18125 240.3498Q67.88438 241.27167 67.25938 241.7873Q66.65 242.2873 65.69688 242.2873Q64.4625 242.2873 63.74375 241.39667Q62.9 240.33417 62.9 237.9123ZM63.978127 237.9123Q63.978127 240.02167 64.47813 240.7248Q64.97813 241.42792 65.69688 241.42792Q66.43125 241.42792 66.91563 240.7248Q67.41563 240.02167 67.41563 237.9123Q67.41563 235.7873 66.91563 235.0998Q66.43125 234.39667 65.68125 234.39667Q64.9625 234.39667 64.525 235.00604Q63.978127 235.7873 63.978127 237.9123Z" fill-rule="nonzero"/><path fill="#000000" d="M55.9 216.15437L56.9625 216.01375Q57.134377 216.90437 57.571877 217.31062Q58.009377 217.70125 58.634377 217.70125Q59.384377 217.70125 59.9 217.18562Q60.415627 216.67 60.415627 215.90437Q60.415627 215.18562 59.93125 214.71687Q59.4625 214.2325 58.728127 214.2325Q58.43125 214.2325 57.978127 214.3575L58.103127 213.42Q58.2125 213.43562 58.275 213.43562Q58.946877 213.43562 59.478127 213.09187Q60.025 212.7325 60.025 211.99812Q60.025 211.42 59.634377 211.045Q59.24375 210.65437 58.61875 210.65437Q58.009377 210.65437 57.5875 211.045Q57.18125 211.43562 57.071877 212.20125L56.009377 212.01375Q56.196877 210.96687 56.884377 210.38875Q57.571877 209.795 58.5875 209.795Q59.290627 209.795 59.884377 210.1075Q60.478127 210.40437 60.790627 210.92Q61.103127 211.43562 61.103127 212.02937Q61.103127 212.57625 60.80625 213.045Q60.509377 213.49812 59.93125 213.76375Q60.68125 213.93562 61.103127 214.49812Q61.525 215.045 61.525 215.88875Q61.525 217.01375 60.696877 217.795Q59.884377 218.57625 58.634377 218.57625Q57.509377 218.57625 56.759377 217.90437Q56.009377 217.21687 55.9 216.15437ZM62.9 214.18562Q62.9 212.65437 63.2125 211.7325Q63.525 210.795 64.13438 210.295Q64.75938 209.795 65.69688 209.795Q66.38438 209.795 66.9 210.07625Q67.43125 210.3575 67.775 210.88875Q68.11875 211.40437 68.30625 212.15437Q68.49375 212.90437 68.49375 214.18562Q68.49375 215.70125 68.18125 216.62312Q67.88438 217.545 67.25938 218.06062Q66.65 218.56062 65.69688 218.56062Q64.4625 218.56062 63.74375 217.67Q62.9 216.6075 62.9 214.18562ZM63.978127 214.18562Q63.978127 216.295 64.47813 216.99812Q64.97813 217.70125 65.69688 217.70125Q66.43125 217.70125 66.91563 216.99812Q67.41563 216.295 67.41563 214.18562Q67.41563 212.06062 66.91563 211.37312Q66.43125 210.67 65.68125 210.67Q64.9625 210.67 64.525 211.27937Q63.978127 212.06062 63.978127 214.18562Z" fill-rule="nonzero"/><path fill="#000000" d="M59.275 194.69333L59.275 192.63083L55.55625 192.63083L55.55625 191.66208L59.478127 186.09958L60.3375 186.09958L60.3375 191.66208L61.49375 191.66208L61.49375 192.63083L60.3375 192.63083L60.3375 194.69333L59.275 194.69333ZM59.275 191.66208L59.275 187.8027L56.5875 191.66208L59.275 191.66208ZM62.9 190.45895Q62.9 188.9277 63.2125 188.00583Q63.525 187.06833 64.13438 186.56833Q64.75938 186.06833 65.69688 186.06833Q66.38438 186.06833 66.9 186.34958Q67.43125 186.63083 67.775 187.16208Q68.11875 187.6777 68.30625 188.4277Q68.49375 189.1777 68.49375 190.45895Q68.49375 191.97458 68.18125 192.89645Q67.88438 193.81833 67.25938 194.33395Q66.65 194.83395 65.69688 194.83395Q64.4625 194.83395 63.74375 193.94333Q62.9 192.88083 62.9 190.45895ZM63.978127 190.45895Q63.978127 192.56833 64.47813 193.27145Q64.97813 193.97458 65.69688 193.97458Q66.43125 193.97458 66.91563 193.27145Q67.41563 192.56833 67.41563 190.45895Q67.41563 188.33395 66.91563 187.64645Q66.43125 186.94333 65.68125 186.94333Q64.9625 186.94333 64.525 187.5527Q63.978127 188.33395 63.978127 190.45895Z" fill-rule="nonzero"/><path fill="#000000" d="M55.9 168.71666L57.009377 168.62291Q57.134377 169.43541 57.571877 169.84166Q58.025 170.24791 58.665627 170.24791Q59.415627 170.24791 59.946877 169.66978Q60.478127 169.09166 60.478127 168.15416Q60.478127 167.24791 59.9625 166.73228Q59.4625 166.20103 58.634377 166.20103Q58.134377 166.20103 57.7125 166.43541Q57.30625 166.66978 57.071877 167.02916L56.0875 166.90416L56.915627 162.49791L61.196877 162.49791L61.196877 163.49791L57.759377 163.49791L57.30625 165.81041Q58.071877 165.26353 58.915627 165.26353Q60.040627 165.26353 60.80625 166.04478Q61.5875 166.82603 61.5875 168.06041Q61.5875 169.21666 60.915627 170.07603Q60.0875 171.10728 58.665627 171.10728Q57.49375 171.10728 56.74375 170.45103Q56.009377 169.79478 55.9 168.71666ZM62.9 166.73228Q62.9 165.20103 63.2125 164.27916Q63.525 163.34166 64.13438 162.84166Q64.75938 162.34166 65.69688 162.34166Q66.38438 162.34166 66.9 162.62291Q67.43125 162.90416 67.775 163.43541Q68.11875 163.95103 68.30625 164.70103Q68.49375 165.45103 68.49375 166.73228Q68.49375 168.24791 68.18125 169.16978Q67.88438 170.09166 67.25938 170.60728Q66.65 171.10728 65.69688 171.10728Q64.4625 171.10728 63.74375 170.21666Q62.9 169.15416 62.9 166.73228ZM63.978127 166.73228Q63.978127 168.84166 64.47813 169.54478Q64.97813 170.24791 65.69688 170.24791Q66.43125 170.24791 66.91563 169.54478Q67.41563 168.84166 67.41563 166.73228Q67.41563 164.60728 66.91563 163.91978Q66.43125 163.21666 65.68125 163.21666Q64.9625 163.21666 64.525 163.82603Q63.978127 164.60728 63.978127 166.73228Z" fill-rule="nonzero"/><path fill="#000000" d="M61.36875 140.75563L60.321877 140.83376Q60.18125 140.20876 59.93125 139.9275Q59.49375 139.47438 58.86875 139.47438Q58.36875 139.47438 57.978127 139.75563Q57.49375 140.13063 57.196877 140.83376Q56.915627 141.52126 56.9 142.8025Q57.275 142.22438 57.821877 141.94313Q58.384377 141.66188 58.99375 141.66188Q60.040627 141.66188 60.775 142.44313Q61.525 143.22438 61.525 144.44313Q61.525 145.25563 61.165627 145.95876Q60.821877 146.64626 60.2125 147.02126Q59.603127 147.38063 58.8375 147.38063Q57.509377 147.38063 56.68125 146.41188Q55.853127 145.44313 55.853127 143.22438Q55.853127 140.72438 56.775 139.59938Q57.571877 138.615 58.93125 138.615Q59.946877 138.615 60.5875 139.19313Q61.24375 139.75563 61.36875 140.75563ZM57.071877 144.45876Q57.071877 145.00563 57.290627 145.50563Q57.525 145.99 57.93125 146.25563Q58.353127 146.52126 58.821877 146.52126Q59.478127 146.52126 59.9625 145.99Q60.446877 145.44313 60.446877 144.52126Q60.446877 143.63063 59.9625 143.115Q59.49375 142.59938 58.775 142.59938Q58.05625 142.59938 57.55625 143.115Q57.071877 143.63063 57.071877 144.45876ZM62.9 143.00563Q62.9 141.47438 63.2125 140.5525Q63.525 139.615 64.13438 139.115Q64.75938 138.615 65.69688 138.615Q66.38438 138.615 66.9 138.89626Q67.43125 139.1775 67.775 139.70876Q68.11875 140.22438 68.30625 140.97438Q68.49375 141.72438 68.49375 143.00563Q68.49375 144.52126 68.18125 145.44313Q67.88438 146.365 67.25938 146.88063Q66.65 147.38063 65.69688 147.38063Q64.4625 147.38063 63.74375 146.49Q62.9 145.4275 62.9 143.00563ZM63.978127 143.00563Q63.978127 145.115 64.47813 145.81813Q64.97813 146.52126 65.69688 146.52126Q66.43125 146.52126 66.91563 145.81813Q67.41563 145.115 67.41563 143.00563Q67.41563 140.88063 66.91563 140.19313Q66.43125 139.49 65.68125 139.49Q64.9625 139.49 64.525 140.09938Q63.978127 140.88063 63.978127 143.00563Z" fill-rule="nonzero"/><path fill="#000000" d="M55.9625 116.044586L55.9625 115.02896L61.525 115.02896L61.525 115.857086Q60.7125 116.732086 59.9 118.18521Q59.103127 119.62271 58.665627 121.15396Q58.3375 122.232086 58.259377 123.513336L57.165627 123.513336Q57.18125 122.49771 57.55625 121.06021Q57.946877 119.62271 58.65 118.294586Q59.36875 116.96646 60.18125 116.044586L55.9625 116.044586ZM62.9 119.27896Q62.9 117.74771 63.2125 116.825836Q63.525 115.888336 64.13438 115.388336Q64.75938 114.888336 65.69688 114.888336Q66.38438 114.888336 66.9 115.169586Q67.43125 115.450836 67.775 115.982086Q68.11875 116.49771 68.30625 117.24771Q68.49375 117.99771 68.49375 119.27896Q68.49375 120.794586 68.18125 121.71646Q67.88438 122.638336 67.25938 123.15396Q66.65 123.65396 65.69688 123.65396Q64.4625 123.65396 63.74375 122.763336Q62.9 121.700836 62.9 119.27896ZM63.978127 119.27896Q63.978127 121.388336 64.47813 122.09146Q64.97813 122.794586 65.69688 122.794586Q66.43125 122.794586 66.91563 122.09146Q67.41563 121.388336 67.41563 119.27896Q67.41563 117.15396 66.91563 116.46646Q66.43125 115.763336 65.68125 115.763336Q64.9625 115.763336 64.525 116.37271Q63.978127 117.15396 63.978127 119.27896Z" fill-rule="nonzero"/><path fill="#000000" d="M57.525 95.13042Q56.86875 94.88042 56.540627 94.44292Q56.228127 93.98979 56.228127 93.38042Q56.228127 92.44292 56.9 91.80229Q57.5875 91.16167 58.696877 91.16167Q59.821877 91.16167 60.509377 91.81792Q61.196877 92.47417 61.196877 93.41167Q61.196877 94.00542 60.884377 94.44292Q60.571877 94.88042 59.93125 95.13042Q60.728127 95.38042 61.134377 95.95854Q61.540627 96.53667 61.540627 97.33354Q61.540627 98.42729 60.759377 99.17729Q59.99375 99.92729 58.7125 99.92729Q57.446877 99.92729 56.665627 99.17729Q55.884377 98.42729 55.884377 97.30229Q55.884377 96.45854 56.30625 95.89604Q56.74375 95.33354 57.525 95.13042ZM57.30625 93.33354Q57.30625 93.94292 57.696877 94.33354Q58.103127 94.72417 58.728127 94.72417Q59.3375 94.72417 59.728127 94.34917Q60.11875 93.95854 60.11875 93.39604Q60.11875 92.81792 59.7125 92.42729Q59.30625 92.02104 58.7125 92.02104Q58.103127 92.02104 57.696877 92.41167Q57.30625 92.80229 57.30625 93.33354ZM56.978127 97.30229Q56.978127 97.75542 57.18125 98.17729Q57.4 98.59917 57.821877 98.83354Q58.24375 99.06792 58.728127 99.06792Q59.478127 99.06792 59.9625 98.58354Q60.4625 98.09917 60.4625 97.34917Q60.4625 96.58354 59.9625 96.08354Q59.4625 95.58354 58.696877 95.58354Q57.946877 95.58354 57.4625 96.08354Q56.978127 96.56792 56.978127 97.30229ZM62.9 95.55229Q62.9 94.02104 63.2125 93.09917Q63.525 92.16167 64.13438 91.66167Q64.75938 91.16167 65.69688 91.16167Q66.38438 91.16167 66.9 91.44292Q67.43125 91.72417 67.775 92.25542Q68.11875 92.77104 68.30625 93.52104Q68.49375 94.27104 68.49375 95.55229Q68.49375 97.06792 68.18125 97.98979Q67.88438 98.91167 67.25938 99.42729Q66.65 99.92729 65.69688 99.92729Q64.4625 99.92729 63.74375 99.03667Q62.9 97.97417 62.9 95.55229ZM63.978127 95.55229Q63.978127 97.66167 64.47813 98.36479Q64.97813 99.06792 65.69688 99.06792Q66.43125 99.06792 66.91563 98.36479Q67.41563 97.66167 67.41563 95.55229Q67.41563 93.42729 66.91563 92.73979Q66.43125 92.03667 65.68125 92.03667Q64.9625 92.03667 64.525 92.64604Q63.978127 93.42729 63.978127 95.55229Z" fill-rule="nonzero"/><path fill="#000000" d="M56.05625 74.07562L57.071877 73.98187Q57.196877 74.70062 57.55625 75.02875Q57.93125 75.34125 58.49375 75.34125Q58.978127 75.34125 59.3375 75.1225Q59.7125 74.88812 59.946877 74.52875Q60.18125 74.15375 60.3375 73.52875Q60.49375 72.88812 60.49375 72.23187Q60.49375 72.15375 60.49375 72.01312Q60.18125 72.51312 59.634377 72.84125Q59.0875 73.15375 58.446877 73.15375Q57.36875 73.15375 56.634377 72.38812Q55.9 71.60687 55.9 70.34125Q55.9 69.02875 56.665627 68.23187Q57.446877 67.435 58.603127 67.435Q59.43125 67.435 60.11875 67.88812Q60.821877 68.34125 61.18125 69.185Q61.540627 70.01312 61.540627 71.59125Q61.540627 73.23187 61.18125 74.21625Q60.8375 75.185 60.11875 75.70062Q59.415627 76.20062 58.478127 76.20062Q57.4625 76.20062 56.821877 75.65375Q56.18125 75.09125 56.05625 74.07562ZM60.36875 70.27875Q60.36875 69.3725 59.884377 68.84125Q59.415627 68.31 58.728127 68.31Q58.025 68.31 57.49375 68.88812Q56.978127 69.45062 56.978127 70.3725Q56.978127 71.185 57.478127 71.70062Q57.978127 72.21625 58.696877 72.21625Q59.43125 72.21625 59.9 71.70062Q60.36875 71.185 60.36875 70.27875ZM62.9 71.82562Q62.9 70.29437 63.2125 69.3725Q63.525 68.435 64.13438 67.935Q64.75938 67.435 65.69688 67.435Q66.38438 67.435 66.9 67.71625Q67.43125 67.9975 67.775 68.52875Q68.11875 69.04437 68.30625 69.79437Q68.49375 70.54437 68.49375 71.82562Q68.49375 73.34125 68.18125 74.26312Q67.88438 75.185 67.25938 75.70062Q66.65 76.20062 65.69688 76.20062Q64.4625 76.20062 63.74375 75.31Q62.9 74.2475 62.9 71.82562ZM63.978127 71.82562Q63.978127 73.935 64.47813 74.63812Q64.97813 75.34125 65.69688 75.34125Q66.43125 75.34125 66.91563 74.63812Q67.41563 73.935 67.41563 71.82562Q67.41563 69.70062 66.91563 69.01312Q66.43125 68.31 65.68125 68.31Q64.9625 68.31 64.525 68.91937Q63.978127 69.70062 63.978127 71.82562Z" fill-rule="nonzero"/><path fill="#000000" d="M52.86875 52.333332L51.821877 52.333332L51.821877 45.614582Q51.43125 45.973957 50.80625 46.348957Q50.196877 46.708332 49.7125 46.880207L49.7125 45.864582Q50.5875 45.442707 51.24375 44.864582Q51.915627 44.270832 52.196877 43.708332L52.86875 43.708332L52.86875 52.333332ZM55.9 48.098957Q55.9 46.567707 56.2125 45.645832Q56.525 44.708332 57.134377 44.208332Q57.759377 43.708332 58.696877 43.708332Q59.384377 43.708332 59.9 43.989582Q60.43125 44.270832 60.775 44.802082Q61.11875 45.317707 61.30625 46.067707Q61.49375 46.817707 61.49375 48.098957Q61.49375 49.614582 61.18125 50.536457Q60.884377 51.458332 60.259377 51.973957Q59.65 52.473957 58.696877 52.473957Q57.4625 52.473957 56.74375 51.583332Q55.9 50.520832 55.9 48.098957ZM56.978127 48.098957Q56.978127 50.208332 57.478127 50.911457Q57.978127 51.614582 58.696877 51.614582Q59.43125 51.614582 59.915627 50.911457Q60.415627 50.208332 60.415627 48.098957Q60.415627 45.973957 59.915627 45.286457Q59.43125 44.583332 58.68125 44.583332Q57.9625 44.583332 57.525 45.192707Q56.978127 45.973957 56.978127 48.098957ZM62.9 48.098957Q62.9 46.567707 63.2125 45.645832Q63.525 44.708332 64.13438 44.208332Q64.75938 43.708332 65.69688 43.708332Q66.38438 43.708332 66.9 43.989582Q67.43125 44.270832 67.775 44.802082Q68.11875 45.317707 68.30625 46.067707Q68.49375 46.817707 68.49375 48.098957Q68.49375 49.614582 68.18125 50.536457Q67.88438 51.458332 67.25938 51.973957Q66.65 52.473957 65.69688 52.473957Q64.4625 52.473957 63.74375 51.583332Q62.9 50.520832 62.9 48.098957ZM63.978127 48.098957Q63.978127 50.208332 64.47813 50.911457Q64.97813 51.614582 65.69688 51.614582Q66.43125 51.614582 66.91563 50.911457Q67.41563 50.208332 67.41563 48.098957Q67.41563 45.973957 66.91563 45.286457Q66.43125 44.583332 65.68125 44.583332Q64.9625 44.583332 64.525 45.192707Q63.978127 45.973957 63.978127 48.098957Z" fill-rule="nonzero"/><path fill="#000000" d="M91.96116 305.83438L93.02366 305.74063Q93.10178 306.39688 93.38303 306.80313Q93.66428 307.20938 94.24241 307.475Q94.83616 307.725 95.57053 307.725Q96.21116 307.725 96.71116 307.5375Q97.21116 307.33438 97.44553 307.00626Q97.69553 306.6625 97.69553 306.27188Q97.69553 305.86563 97.46116 305.56876Q97.22678 305.25626 96.69553 305.05313Q96.33616 304.9125 95.14866 304.63126Q93.97678 304.35 93.50803 304.1Q92.88303 303.77188 92.58616 303.30313Q92.28928 302.81876 92.28928 302.225Q92.28928 301.58438 92.64866 301.02188Q93.02366 300.44376 93.72678 300.1625Q94.44553 299.86563 95.30491 299.86563Q96.25803 299.86563 96.99241 300.17813Q97.72678 300.475 98.11741 301.08438Q98.50803 301.67813 98.53928 302.42813L97.44553 302.50626Q97.35178 301.69376 96.83616 301.2875Q96.33616 300.86563 95.35178 300.86563Q94.32053 300.86563 93.85178 301.24063Q93.38303 301.61563 93.38303 302.14688Q93.38303 302.61563 93.71116 302.9125Q94.03928 303.20938 95.41428 303.52188Q96.80491 303.83438 97.32053 304.06876Q98.07053 304.42813 98.42991 304.95938Q98.78928 305.475 98.78928 306.17813Q98.78928 306.86563 98.39866 307.475Q98.00803 308.06876 97.27366 308.4125Q96.53928 308.74063 95.61741 308.74063Q94.44553 308.74063 93.64866 308.4125Q92.86741 308.06876 92.41428 307.38126Q91.97678 306.69376 91.96116 305.83438ZM100.21116 310.99063L100.21116 302.38126L101.16428 302.38126L101.16428 303.17813Q101.50803 302.70938 101.92991 302.475Q102.36741 302.24063 102.97678 302.24063Q103.77366 302.24063 104.38303 302.64688Q104.99241 303.05313 105.28928 303.80313Q105.60178 304.55313 105.60178 305.44376Q105.60178 306.39688 105.25803 307.1625Q104.92991 307.92813 104.27366 308.33438Q103.61741 308.74063 102.89866 308.74063Q102.36741 308.74063 101.94553 308.52188Q101.52366 308.2875 101.25803 307.95938L101.25803 310.99063L100.21116 310.99063ZM101.16428 305.52188Q101.16428 306.725 101.64866 307.30313Q102.13303 307.86563 102.82053 307.86563Q103.52366 307.86563 104.02366 307.27188Q104.52366 306.67813 104.52366 305.42813Q104.52366 304.24063 104.03928 303.6625Q103.55491 303.06876 102.86741 303.06876Q102.19553 303.06876 101.67991 303.69376Q101.16428 304.31876 101.16428 305.52188ZM107.19553 308.6L107.19553 302.38126L108.14866 302.38126L108.14866 303.31876Q108.50803 302.6625 108.80491 302.45938Q109.11741 302.24063 109.49241 302.24063Q110.02366 302.24063 110.57053 302.56876L110.21116 303.55313Q109.82053 303.31876 109.44553 303.31876Q109.08616 303.31876 108.80491 303.5375Q108.53928 303.74063 108.42991 304.11563Q108.24241 304.67813 108.24241 305.33438L108.24241 308.6L107.19553 308.6ZM111.21116 301.225L111.21116 300.00626L112.27366 300.00626L112.27366 301.225L111.21116 301.225ZM111.21116 308.6L111.21116 302.38126L112.27366 302.38126L112.27366 308.6L111.21116 308.6ZM114.21116 308.6L114.21116 302.38126L115.14866 302.38126L115.14866 303.25626Q115.83616 302.24063 117.13303 302.24063Q117.69553 302.24063 118.16428 302.44376Q118.64866 302.64688 118.88303 302.975Q119.11741 303.30313 119.21116 303.74063Q119.25803 304.0375 119.25803 304.77188L119.25803 308.6L118.21116 308.6L118.21116 304.81876Q118.21116 304.1625 118.08616 303.85Q117.96116 303.5375 117.64866 303.35Q117.33616 303.14688 116.91428 303.14688Q116.24241 303.14688 115.74241 303.58438Q115.25803 304.00626 115.25803 305.19376L115.25803 308.6L114.21116 308.6ZM123.50803 307.6625L123.66428 308.58438Q123.21116 308.67813 122.86741 308.67813Q122.28928 308.67813 121.97678 308.50626Q121.66428 308.31876 121.52366 308.02188Q121.39866 307.725 121.39866 306.77188L121.39866 303.19376L120.63303 303.19376L120.63303 302.38126L121.39866 302.38126L121.39866 300.83438L122.44553 300.20938L122.44553 302.38126L123.50803 302.38126L123.50803 303.19376L122.44553 303.19376L122.44553 306.83438Q122.44553 307.2875 122.49241 307.4125Q122.55491 307.5375 122.67991 307.61563Q122.80491 307.69376 123.03928 307.69376Q123.22678 307.69376 123.50803 307.6625ZM130.88303 308.6L129.83615 308.6L129.83615 301.88126Q129.44553 302.24063 128.82053 302.61563Q128.21115 302.975 127.72678 303.14688L127.72678 302.13126Q128.60178 301.70938 129.25803 301.13126Q129.9299 300.5375 130.21115 299.975L130.88303 299.975L130.88303 308.6Z" fill-rule="nonzero"/><path fill="#000000" d="M153.98973 305.83438L155.05223 305.74063Q155.13036 306.39688 155.4116 306.80313Q155.69286 307.20938 156.27098 307.475Q156.86473 307.725 157.5991 307.725Q158.23973 307.725 158.73973 307.5375Q159.23973 307.33438 159.4741 307.00626Q159.7241 306.6625 159.7241 306.27188Q159.7241 305.86563 159.48973 305.56876Q159.25536 305.25626 158.7241 305.05313Q158.36473 304.9125 157.17723 304.63126Q156.00536 304.35 155.5366 304.1Q154.9116 303.77188 154.61473 303.30313Q154.31786 302.81876 154.31786 302.225Q154.31786 301.58438 154.67723 301.02188Q155.05223 300.44376 155.75536 300.1625Q156.4741 299.86563 157.33348 299.86563Q158.2866 299.86563 159.02098 300.17813Q159.75536 300.475 160.14598 301.08438Q160.5366 301.67813 160.56786 302.42813L159.4741 302.50626Q159.38036 301.69376 158.86473 301.2875Q158.36473 300.86563 157.38036 300.86563Q156.3491 300.86563 155.88036 301.24063Q155.4116 301.61563 155.4116 302.14688Q155.4116 302.61563 155.73973 302.9125Q156.06786 303.20938 157.44286 303.52188Q158.83348 303.83438 159.3491 304.06876Q160.0991 304.42813 160.45848 304.95938Q160.81786 305.475 160.81786 306.17813Q160.81786 306.86563 160.42723 307.475Q160.0366 308.06876 159.30223 308.4125Q158.56786 308.74063 157.64598 308.74063Q156.4741 308.74063 155.67723 308.4125Q154.89598 308.06876 154.44286 307.38126Q154.00536 306.69376 153.98973 305.83438ZM162.23973 310.99063L162.23973 302.38126L163.19286 302.38126L163.19286 303.17813Q163.5366 302.70938 163.95848 302.475Q164.39598 302.24063 165.00536 302.24063Q165.80223 302.24063 166.4116 302.64688Q167.02098 303.05313 167.31786 303.80313Q167.63036 304.55313 167.63036 305.44376Q167.63036 306.39688 167.2866 307.1625Q166.95848 307.92813 166.30223 308.33438Q165.64598 308.74063 164.92723 308.74063Q164.39598 308.74063 163.9741 308.52188Q163.55223 308.2875 163.2866 307.95938L163.2866 310.99063L162.23973 310.99063ZM163.19286 305.52188Q163.19286 306.725 163.67723 307.30313Q164.1616 307.86563 164.8491 307.86563Q165.55223 307.86563 166.05223 307.27188Q166.55223 306.67813 166.55223 305.42813Q166.55223 304.24063 166.06786 303.6625Q165.58348 303.06876 164.89598 303.06876Q164.2241 303.06876 163.70848 303.69376Q163.19286 304.31876 163.19286 305.52188ZM169.2241 308.6L169.2241 302.38126L170.17723 302.38126L170.17723 303.31876Q170.5366 302.6625 170.83348 302.45938Q171.14598 302.24063 171.52098 302.24063Q172.05223 302.24063 172.5991 302.56876L172.23973 303.55313Q171.8491 303.31876 171.4741 303.31876Q171.11473 303.31876 170.83348 303.5375Q170.56786 303.74063 170.45848 304.11563Q170.27098 304.67813 170.27098 305.33438L170.27098 308.6L169.2241 308.6ZM173.23973 301.225L173.23973 300.00626L174.30223 300.00626L174.30223 301.225L173.23973 301.225ZM173.23973 308.6L173.23973 302.38126L174.30223 302.38126L174.30223 308.6L173.23973 308.6ZM176.23973 308.6L176.23973 302.38126L177.17723 302.38126L177.17723 303.25626Q177.86473 302.24063 179.1616 302.24063Q179.7241 302.24063 180.19286 302.44376Q180.67723 302.64688 180.9116 302.975Q181.14598 303.30313 181.23973 303.74063Q181.2866 304.0375 181.2866 304.77188L181.2866 308.6L180.23973 308.6L180.23973 304.81876Q180.23973 304.1625 180.11473 303.85Q179.98973 303.5375 179.67723 303.35Q179.36473 303.14688 178.94286 303.14688Q178.27098 303.14688 177.77098 303.58438Q177.2866 304.00626 177.2866 305.19376L177.2866 308.6L176.23973 308.6ZM185.5366 307.6625L185.69286 308.58438Q185.23973 308.67813 184.89598 308.67813Q184.31786 308.67813 184.00536 308.50626Q183.69286 308.31876 183.55223 308.02188Q183.42723 307.725 183.42723 306.77188L183.42723 303.19376L182.6616 303.19376L182.6616 302.38126L183.42723 302.38126L183.42723 300.83438L184.4741 300.20938L184.4741 302.38126L185.5366 302.38126L185.5366 303.19376L184.4741 303.19376L184.4741 306.83438Q184.4741 307.2875 184.52098 307.4125Q184.58348 307.5375 184.70848 307.61563Q184.83348 307.69376 185.06786 307.69376Q185.25536 307.69376 185.5366 307.6625ZM194.48973 307.58438L194.48973 308.6L188.80223 308.6Q188.80223 308.225 188.92723 307.86563Q189.14598 307.2875 189.61473 306.725Q190.0991 306.1625 191.00536 305.42813Q192.4116 304.27188 192.89598 303.6Q193.39598 302.92813 193.39598 302.33438Q193.39598 301.70938 192.94286 301.2875Q192.48973 300.85 191.77098 300.85Q191.00536 300.85 190.55223 301.30313Q190.0991 301.75626 190.08348 302.56876L189.00536 302.45938Q189.11473 301.24063 189.83348 300.61563Q190.56786 299.975 191.80223 299.975Q193.0366 299.975 193.75536 300.6625Q194.4741 301.35 194.4741 302.36563Q194.4741 302.88126 194.25536 303.38126Q194.05223 303.86563 193.55223 304.42813Q193.06786 304.975 191.94286 305.92813Q190.98973 306.725 190.70848 307.02188Q190.44286 307.30313 190.27098 307.58438L194.48973 307.58438Z" fill-rule="nonzero"/><path fill="#000000" d="M216.01831 305.83438L217.08081 305.74063Q217.15894 306.39688 217.44019 306.80313Q217.72144 307.20938 218.29956 307.475Q218.89331 307.725 219.62769 307.725Q220.26831 307.725 220.76831 307.5375Q221.26831 307.33438 221.50269 307.00626Q221.75269 306.6625 221.75269 306.27188Q221.75269 305.86563 221.51831 305.56876Q221.28394 305.25626 220.75269 305.05313Q220.39331 304.9125 219.20581 304.63126Q218.03394 304.35 217.56519 304.1Q216.94019 303.77188 216.64331 303.30313Q216.34644 302.81876 216.34644 302.225Q216.34644 301.58438 216.70581 301.02188Q217.08081 300.44376 217.78394 300.1625Q218.50269 299.86563 219.36206 299.86563Q220.31519 299.86563 221.04956 300.17813Q221.78394 300.475 222.17456 301.08438Q222.56519 301.67813 222.59644 302.42813L221.50269 302.50626Q221.40894 301.69376 220.89331 301.2875Q220.39331 300.86563 219.40894 300.86563Q218.37769 300.86563 217.90894 301.24063Q217.44019 301.61563 217.44019 302.14688Q217.44019 302.61563 217.76831 302.9125Q218.09644 303.20938 219.47144 303.52188Q220.86206 303.83438 221.37769 304.06876Q222.12769 304.42813 222.48706 304.95938Q222.84644 305.475 222.84644 306.17813Q222.84644 306.86563 222.45581 307.475Q222.06519 308.06876 221.33081 308.4125Q220.59644 308.74063 219.67456 308.74063Q218.50269 308.74063 217.70581 308.4125Q216.92456 308.06876 216.47144 307.38126Q216.03394 306.69376 216.01831 305.83438ZM224.26831 310.99063L224.26831 302.38126L225.22144 302.38126L225.22144 303.17813Q225.56519 302.70938 225.98706 302.475Q226.42456 302.24063 227.03394 302.24063Q227.83081 302.24063 228.44019 302.64688Q229.04956 303.05313 229.34644 303.80313Q229.65894 304.55313 229.65894 305.44376Q229.65894 306.39688 229.31519 307.1625Q228.98706 307.92813 228.33081 308.33438Q227.67456 308.74063 226.95581 308.74063Q226.42456 308.74063 226.00269 308.52188Q225.58081 308.2875 225.31519 307.95938L225.31519 310.99063L224.26831 310.99063ZM225.22144 305.52188Q225.22144 306.725 225.70581 307.30313Q226.19019 307.86563 226.87769 307.86563Q227.58081 307.86563 228.08081 307.27188Q228.58081 306.67813 228.58081 305.42813Q228.58081 304.24063 228.09644 303.6625Q227.61206 303.06876 226.92456 303.06876Q226.25269 303.06876 225.73706 303.69376Q225.22144 304.31876 225.22144 305.52188ZM231.25269 308.6L231.25269 302.38126L232.20581 302.38126L232.20581 303.31876Q232.56519 302.6625 232.86206 302.45938Q233.17456 302.24063 233.54956 302.24063Q234.08081 302.24063 234.62769 302.56876L234.26831 303.55313Q233.87769 303.31876 233.50269 303.31876Q233.14331 303.31876 232.86206 303.5375Q232.59644 303.74063 232.48706 304.11563Q232.29956 304.67813 232.29956 305.33438L232.29956 308.6L231.25269 308.6ZM235.26831 301.225L235.26831 300.00626L236.33081 300.00626L236.33081 301.225L235.26831 301.225ZM235.26831 308.6L235.26831 302.38126L236.33081 302.38126L236.33081 308.6L235.26831 308.6ZM238.26831 308.6L238.26831 302.38126L239.20581 302.38126L239.20581 303.25626Q239.89331 302.24063 241.19019 302.24063Q241.75269 302.24063 242.22144 302.44376Q242.70581 302.64688 242.94019 302.975Q243.17456 303.30313 243.26831 303.74063Q243.31519 304.0375 243.31519 304.77188L243.31519 308.6L242.26831 308.6L242.26831 304.81876Q242.26831 304.1625 242.14331 303.85Q242.01831 303.5375 241.70581 303.35Q241.39331 303.14688 240.97144 303.14688Q240.29956 303.14688 239.79956 303.58438Q239.31519 304.00626 239.31519 305.19376L239.31519 308.6L238.26831 308.6ZM247.56519 307.6625L247.72144 308.58438Q247.26831 308.67813 246.92456 308.67813Q246.34644 308.67813 246.03394 308.50626Q245.72144 308.31876 245.58081 308.02188Q245.45581 307.725 245.45581 306.77188L245.45581 303.19376L244.69019 303.19376L244.69019 302.38126L245.45581 302.38126L245.45581 300.83438L246.50269 300.20938L246.50269 302.38126L247.56519 302.38126L247.56519 303.19376L246.50269 303.19376L246.50269 306.83438Q246.50269 307.2875 246.54956 307.4125Q246.61206 307.5375 246.73706 307.61563Q246.86206 307.69376 247.09644 307.69376Q247.28394 307.69376 247.56519 307.6625ZM250.97144 306.33438L252.03394 306.19376Q252.20581 307.08438 252.64331 307.49063Q253.08081 307.88126 253.70581 307.88126Q254.45581 307.88126 254.97144 307.36563Q255.48706 306.85 255.48706 306.08438Q255.48706 305.36563 255.00269 304.89688Q254.53394 304.4125 253.79956 304.4125Q253.50269 304.4125 253.04956 304.5375L253.17456 303.6Q253.28394 303.61563 253.34644 303.61563Q254.01831 303.61563 254.54956 303.27188Q255.09644 302.9125 255.09644 302.17813Q255.09644 301.6 254.70581 301.225Q254.31519 300.83438 253.69019 300.83438Q253.08081 300.83438 252.65894 301.225Q252.25269 301.61563 252.14331 302.38126L251.08081 302.19376Q251.26831 301.14688 251.95581 300.56876Q252.64331 299.975 253.65894 299.975Q254.36206 299.975 254.95581 300.2875Q255.54956 300.58438 255.86206 301.1Q256.17456 301.61563 256.17456 302.20938Q256.17456 302.75626 255.87769 303.225Q255.58081 303.67813 255.00269 303.94376Q255.75269 304.11563 256.17456 304.67813Q256.59644 305.225 256.59644 306.06876Q256.59644 307.19376 255.76831 307.975Q254.95581 308.75626 253.70581 308.75626Q252.58081 308.75626 251.83081 308.08438Q251.08081 307.39688 250.97144 306.33438Z" fill-rule="nonzero"/><path fill="#000000" d="M278.04688 305.83438L279.10938 305.74063Q279.1875 306.39688 279.46875 306.80313Q279.75 307.20938 280.32812 307.475Q280.92188 307.725 281.65625 307.725Q282.29688 307.725 282.79688 307.5375Q283.29688 307.33438 283.53125 307.00626Q283.78125 306.6625 283.78125 306.27188Q283.78125 305.86563 283.54688 305.56876Q283.3125 305.25626 282.78125 305.05313Q282.42188 304.9125 281.23438 304.63126Q280.0625 304.35 279.59375 304.1Q278.96875 303.77188 278.67188 303.30313Q278.375 302.81876 278.375 302.225Q278.375 301.58438 278.73438 301.02188Q279.10938 300.44376 279.8125 300.1625Q280.53125 299.86563 281.39062 299.86563Q282.34375 299.86563 283.07812 300.17813Q283.8125 300.475 284.20312 301.08438Q284.59375 301.67813 284.625 302.42813L283.53125 302.50626Q283.4375 301.69376 282.92188 301.2875Q282.42188 300.86563 281.4375 300.86563Q280.40625 300.86563 279.9375 301.24063Q279.46875 301.61563 279.46875 302.14688Q279.46875 302.61563 279.79688 302.9125Q280.125 303.20938 281.5 303.52188Q282.89062 303.83438 283.40625 304.06876Q284.15625 304.42813 284.51562 304.95938Q284.875 305.475 284.875 306.17813Q284.875 306.86563 284.48438 307.475Q284.09375 308.06876 283.35938 308.4125Q282.625 308.74063 281.70312 308.74063Q280.53125 308.74063 279.73438 308.4125Q278.95312 308.06876 278.5 307.38126Q278.0625 306.69376 278.04688 305.83438ZM286.29688 310.99063L286.29688 302.38126L287.25 302.38126L287.25 303.17813Q287.59375 302.70938 288.01562 302.475Q288.45312 302.24063 289.0625 302.24063Q289.85938 302.24063 290.46875 302.64688Q291.07812 303.05313 291.375 303.80313Q291.6875 304.55313 291.6875 305.44376Q291.6875 306.39688 291.34375 307.1625Q291.01562 307.92813 290.35938 308.33438Q289.70312 308.74063 288.98438 308.74063Q288.45312 308.74063 288.03125 308.52188Q287.60938 308.2875 287.34375 307.95938L287.34375 310.99063L286.29688 310.99063ZM287.25 305.52188Q287.25 306.725 287.73438 307.30313Q288.21875 307.86563 288.90625 307.86563Q289.60938 307.86563 290.10938 307.27188Q290.60938 306.67813 290.60938 305.42813Q290.60938 304.24063 290.125 303.6625Q289.64062 303.06876 288.95312 303.06876Q288.28125 303.06876 287.76562 303.69376Q287.25 304.31876 287.25 305.52188ZM293.28125 308.6L293.28125 302.38126L294.23438 302.38126L294.23438 303.31876Q294.59375 302.6625 294.89062 302.45938Q295.20312 302.24063 295.57812 302.24063Q296.10938 302.24063 296.65625 302.56876L296.29688 303.55313Q295.90625 303.31876 295.53125 303.31876Q295.17188 303.31876 294.89062 303.5375Q294.625 303.74063 294.51562 304.11563Q294.32812 304.67813 294.32812 305.33438L294.32812 308.6L293.28125 308.6ZM297.29688 301.225L297.29688 300.00626L298.35938 300.00626L298.35938 301.225L297.29688 301.225ZM297.29688 308.6L297.29688 302.38126L298.35938 302.38126L298.35938 308.6L297.29688 308.6ZM300.29688 308.6L300.29688 302.38126L301.23438 302.38126L301.23438 303.25626Q301.92188 302.24063 303.21875 302.24063Q303.78125 302.24063 304.25 302.44376Q304.73438 302.64688 304.96875 302.975Q305.20312 303.30313 305.29688 303.74063Q305.34375 304.0375 305.34375 304.77188L305.34375 308.6L304.29688 308.6L304.29688 304.81876Q304.29688 304.1625 304.17188 303.85Q304.04688 303.5375 303.73438 303.35Q303.42188 303.14688 303.0 303.14688Q302.32812 303.14688 301.82812 303.58438Q301.34375 304.00626 301.34375 305.19376L301.34375 308.6L300.29688 308.6ZM309.59375 307.6625L309.75 308.58438Q309.29688 308.67813 308.95312 308.67813Q308.375 308.67813 308.0625 308.50626Q307.75 308.31876 307.60938 308.02188Q307.48438 307.725 307.48438 306.77188L307.48438 303.19376L306.71875 303.19376L306.71875 302.38126L307.48438 302.38126L307.48438 300.83438L308.53125 300.20938L308.53125 302.38126L309.59375 302.38126L309.59375 303.19376L308.53125 303.19376L308.53125 306.83438Q308.53125 307.2875 308.57812 307.4125Q308.64062 307.5375 308.76562 307.61563Q308.89062 307.69376 309.125 307.69376Q309.3125 307.69376 309.59375 307.6625ZM316.375 308.6L316.375 306.5375L312.65625 306.5375L312.65625 305.56876L316.57812 300.00626L317.4375 300.00626L317.4375 305.56876L318.59375 305.56876L318.59375 306.5375L317.4375 306.5375L317.4375 308.6L316.375 308.6ZM316.375 305.56876L316.375 301.70938L313.6875 305.56876L316.375 305.56876Z" fill-rule="nonzero"/><path fill="#000000" d="M340.07544 305.83438L341.13794 305.74063Q341.21606 306.39688 341.4973 306.80313Q341.77856 307.20938 342.3567 307.475Q342.95044 307.725 343.6848 307.725Q344.32544 307.725 344.82544 307.5375Q345.32544 307.33438 345.5598 307.00626Q345.8098 306.6625 345.8098 306.27188Q345.8098 305.86563 345.57544 305.56876Q345.34106 305.25626 344.8098 305.05313Q344.45044 304.9125 343.26294 304.63126Q342.09106 304.35 341.6223 304.1Q340.9973 303.77188 340.70044 303.30313Q340.40356 302.81876 340.40356 302.225Q340.40356 301.58438 340.76294 301.02188Q341.13794 300.44376 341.84106 300.1625Q342.5598 299.86563 343.4192 299.86563Q344.3723 299.86563 345.1067 300.17813Q345.84106 300.475 346.2317 301.08438Q346.6223 301.67813 346.65356 302.42813L345.5598 302.50626Q345.46606 301.69376 344.95044 301.2875Q344.45044 300.86563 343.46606 300.86563Q342.4348 300.86563 341.96606 301.24063Q341.4973 301.61563 341.4973 302.14688Q341.4973 302.61563 341.82544 302.9125Q342.15356 303.20938 343.52856 303.52188Q344.9192 303.83438 345.4348 304.06876Q346.1848 304.42813 346.5442 304.95938Q346.90356 305.475 346.90356 306.17813Q346.90356 306.86563 346.51294 307.475Q346.1223 308.06876 345.38794 308.4125Q344.65356 308.74063 343.7317 308.74063Q342.5598 308.74063 341.76294 308.4125Q340.9817 308.06876 340.52856 307.38126Q340.09106 306.69376 340.07544 305.83438ZM348.32544 310.99063L348.32544 302.38126L349.27856 302.38126L349.27856 303.17813Q349.6223 302.70938 350.0442 302.475Q350.4817 302.24063 351.09106 302.24063Q351.88794 302.24063 352.4973 302.64688Q353.1067 303.05313 353.40356 303.80313Q353.71606 304.55313 353.71606 305.44376Q353.71606 306.39688 353.3723 307.1625Q353.0442 307.92813 352.38794 308.33438Q351.7317 308.74063 351.01294 308.74063Q350.4817 308.74063 350.0598 308.52188Q349.63794 308.2875 349.3723 307.95938L349.3723 310.99063L348.32544 310.99063ZM349.27856 305.52188Q349.27856 306.725 349.76294 307.30313Q350.2473 307.86563 350.9348 307.86563Q351.63794 307.86563 352.13794 307.27188Q352.63794 306.67813 352.63794 305.42813Q352.63794 304.24063 352.15356 303.6625Q351.6692 303.06876 350.9817 303.06876Q350.3098 303.06876 349.7942 303.69376Q349.27856 304.31876 349.27856 305.52188ZM355.3098 308.6L355.3098 302.38126L356.26294 302.38126L356.26294 303.31876Q356.6223 302.6625 356.9192 302.45938Q357.2317 302.24063 357.6067 302.24063Q358.13794 302.24063 358.6848 302.56876L358.32544 303.55313Q357.9348 303.31876 357.5598 303.31876Q357.20044 303.31876 356.9192 303.5375Q356.65356 303.74063 356.5442 304.11563Q356.3567 304.67813 356.3567 305.33438L356.3567 308.6L355.3098 308.6ZM359.32544 301.225L359.32544 300.00626L360.38794 300.00626L360.38794 301.225L359.32544 301.225ZM359.32544 308.6L359.32544 302.38126L360.38794 302.38126L360.38794 308.6L359.32544 308.6ZM362.32544 308.6L362.32544 302.38126L363.26294 302.38126L363.26294 303.25626Q363.95044 302.24063 365.2473 302.24063Q365.8098 302.24063 366.27856 302.44376Q366.76294 302.64688 366.9973 302.975Q367.2317 303.30313 367.32544 303.74063Q367.3723 304.0375 367.3723 304.77188L367.3723 308.6L366.32544 308.6L366.32544 304.81876Q366.32544 304.1625 366.20044 303.85Q366.07544 303.5375 365.76294 303.35Q365.45044 303.14688 365.02856 303.14688Q364.3567 303.14688 363.8567 303.58438Q363.3723 304.00626 363.3723 305.19376L363.3723 308.6L362.32544 308.6ZM371.6223 307.6625L371.77856 308.58438Q371.32544 308.67813 370.9817 308.67813Q370.40356 308.67813 370.09106 308.50626Q369.77856 308.31876 369.63794 308.02188Q369.51294 307.725 369.51294 306.77188L369.51294 303.19376L368.7473 303.19376L368.7473 302.38126L369.51294 302.38126L369.51294 300.83438L370.5598 300.20938L370.5598 302.38126L371.6223 302.38126L371.6223 303.19376L370.5598 303.19376L370.5598 306.83438Q370.5598 307.2875 370.6067 307.4125Q370.6692 307.5375 370.7942 307.61563Q370.9192 307.69376 371.15356 307.69376Q371.34106 307.69376 371.6223 307.6625ZM375.02856 306.35L376.13794 306.25626Q376.26294 307.06876 376.70044 307.475Q377.15356 307.88126 377.7942 307.88126Q378.5442 307.88126 379.07544 307.30313Q379.6067 306.725 379.6067 305.7875Q379.6067 304.88126 379.09106 304.36563Q378.59106 303.83438 377.76294 303.83438Q377.26294 303.83438 376.84106 304.06876Q376.4348 304.30313 376.20044 304.6625L375.21606 304.5375L376.0442 300.13126L380.32544 300.13126L380.32544 301.13126L376.88794 301.13126L376.4348 303.44376Q377.20044 302.89688 378.0442 302.89688Q379.1692 302.89688 379.9348 303.67813Q380.71606 304.45938 380.71606 305.69376Q380.71606 306.85 380.0442 307.70938Q379.21606 308.74063 377.7942 308.74063Q376.6223 308.74063 375.8723 308.08438Q375.13794 307.42813 375.02856 306.35Z" fill-rule="nonzero"/><path fill="#000000" d="M402.104 305.83438L403.1665 305.74063Q403.24463 306.39688 403.52588 306.80313Q403.80713 307.20938 404.38525 307.475Q404.979 307.725 405.71338 307.725Q406.354 307.725 406.854 307.5375Q407.354 307.33438 407.58838 307.00626Q407.83838 306.6625 407.83838 306.27188Q407.83838 305.86563 407.604 305.56876Q407.36963 305.25626 406.83838 305.05313Q406.479 304.9125 405.2915 304.63126Q404.11963 304.35 403.65088 304.1Q403.02588 303.77188 402.729 303.30313Q402.43213 302.81876 402.43213 302.225Q402.43213 301.58438 402.7915 301.02188Q403.1665 300.44376 403.86963 300.1625Q404.58838 299.86563 405.44775 299.86563Q406.40088 299.86563 407.13525 300.17813Q407.86963 300.475 408.26025 301.08438Q408.65088 301.67813 408.68213 302.42813L407.58838 302.50626Q407.49463 301.69376 406.979 301.2875Q406.479 300.86563 405.49463 300.86563Q404.46338 300.86563 403.99463 301.24063Q403.52588 301.61563 403.52588 302.14688Q403.52588 302.61563 403.854 302.9125Q404.18213 303.20938 405.55713 303.52188Q406.94775 303.83438 407.46338 304.06876Q408.21338 304.42813 408.57275 304.95938Q408.93213 305.475 408.93213 306.17813Q408.93213 306.86563 408.5415 307.475Q408.15088 308.06876 407.4165 308.4125Q406.68213 308.74063 405.76025 308.74063Q404.58838 308.74063 403.7915 308.4125Q403.01025 308.06876 402.55713 307.38126Q402.11963 306.69376 402.104 305.83438ZM410.354 310.99063L410.354 302.38126L411.30713 302.38126L411.30713 303.17813Q411.65088 302.70938 412.07275 302.475Q412.51025 302.24063 413.11963 302.24063Q413.9165 302.24063 414.52588 302.64688Q415.13525 303.05313 415.43213 303.80313Q415.74463 304.55313 415.74463 305.44376Q415.74463 306.39688 415.40088 307.1625Q415.07275 307.92813 414.4165 308.33438Q413.76025 308.74063 413.0415 308.74063Q412.51025 308.74063 412.08838 308.52188Q411.6665 308.2875 411.40088 307.95938L411.40088 310.99063L410.354 310.99063ZM411.30713 305.52188Q411.30713 306.725 411.7915 307.30313Q412.27588 307.86563 412.96338 307.86563Q413.6665 307.86563 414.1665 307.27188Q414.6665 306.67813 414.6665 305.42813Q414.6665 304.24063 414.18213 303.6625Q413.69775 303.06876 413.01025 303.06876Q412.33838 303.06876 411.82275 303.69376Q411.30713 304.31876 411.30713 305.52188ZM417.33838 308.6L417.33838 302.38126L418.2915 302.38126L418.2915 303.31876Q418.65088 302.6625 418.94775 302.45938Q419.26025 302.24063 419.63525 302.24063Q420.1665 302.24063 420.71338 302.56876L420.354 303.55313Q419.96338 303.31876 419.58838 303.31876Q419.229 303.31876 418.94775 303.5375Q418.68213 303.74063 418.57275 304.11563Q418.38525 304.67813 418.38525 305.33438L418.38525 308.6L417.33838 308.6ZM421.354 301.225L421.354 300.00626L422.4165 300.00626L422.4165 301.225L421.354 301.225ZM421.354 308.6L421.354 302.38126L422.4165 302.38126L422.4165 308.6L421.354 308.6ZM424.354 308.6L424.354 302.38126L425.2915 302.38126L425.2915 303.25626Q425.979 302.24063 427.27588 302.24063Q427.83838 302.24063 428.30713 302.44376Q428.7915 302.64688 429.02588 302.975Q429.26025 303.30313 429.354 303.74063Q429.40088 304.0375 429.40088 304.77188L429.40088 308.6L428.354 308.6L428.354 304.81876Q428.354 304.1625 428.229 303.85Q428.104 303.5375 427.7915 303.35Q427.479 303.14688 427.05713 303.14688Q426.38525 303.14688 425.88525 303.58438Q425.40088 304.00626 425.40088 305.19376L425.40088 308.6L424.354 308.6ZM433.65088 307.6625L433.80713 308.58438Q433.354 308.67813 433.01025 308.67813Q432.43213 308.67813 432.11963 308.50626Q431.80713 308.31876 431.6665 308.02188Q431.5415 307.725 431.5415 306.77188L431.5415 303.19376L430.77588 303.19376L430.77588 302.38126L431.5415 302.38126L431.5415 300.83438L432.58838 300.20938L432.58838 302.38126L433.65088 302.38126L433.65088 303.19376L432.58838 303.19376L432.58838 306.83438Q432.58838 307.2875 432.63525 307.4125Q432.69775 307.5375 432.82275 307.61563Q432.94775 307.69376 433.18213 307.69376Q433.36963 307.69376 433.65088 307.6625ZM442.52588 302.11563L441.479 302.19376Q441.33838 301.56876 441.08838 301.2875Q440.65088 300.83438 440.02588 300.83438Q439.52588 300.83438 439.13525 301.11563Q438.65088 301.49063 438.354 302.19376Q438.07275 302.88126 438.05713 304.1625Q438.43213 303.58438 438.979 303.30313Q439.5415 303.02188 440.15088 303.02188Q441.19775 303.02188 441.93213 303.80313Q442.68213 304.58438 442.68213 305.80313Q442.68213 306.61563 442.32275 307.31876Q441.979 308.00626 441.36963 308.38126Q440.76025 308.74063 439.99463 308.74063Q438.6665 308.74063 437.83838 307.77188Q437.01025 306.80313 437.01025 304.58438Q437.01025 302.08438 437.93213 300.95938Q438.729 299.975 440.08838 299.975Q441.104 299.975 441.74463 300.55313Q442.40088 301.11563 442.52588 302.11563ZM438.229 305.81876Q438.229 306.36563 438.44775 306.86563Q438.68213 307.35 439.08838 307.61563Q439.51025 307.88126 439.979 307.88126Q440.63525 307.88126 441.11963 307.35Q441.604 306.80313 441.604 305.88126Q441.604 304.99063 441.11963 304.475Q440.65088 303.95938 439.93213 303.95938Q439.21338 303.95938 438.71338 304.475Q438.229 304.99063 438.229 305.81876Z" fill-rule="nonzero"/><path fill="#000000" d="M464.1326 305.83438L465.1951 305.74063Q465.27322 306.39688 465.55447 306.80313Q465.83572 307.20938 466.41385 307.475Q467.0076 307.725 467.74197 307.725Q468.3826 307.725 468.8826 307.5375Q469.3826 307.33438 469.61697 307.00626Q469.86697 306.6625 469.86697 306.27188Q469.86697 305.86563 469.6326 305.56876Q469.39822 305.25626 468.86697 305.05313Q468.5076 304.9125 467.3201 304.63126Q466.14822 304.35 465.67947 304.1Q465.05447 303.77188 464.7576 303.30313Q464.46072 302.81876 464.46072 302.225Q464.46072 301.58438 464.8201 301.02188Q465.1951 300.44376 465.89822 300.1625Q466.61697 299.86563 467.47635 299.86563Q468.42947 299.86563 469.16385 300.17813Q469.89822 300.475 470.28885 301.08438Q470.67947 301.67813 470.71072 302.42813L469.61697 302.50626Q469.52322 301.69376 469.0076 301.2875Q468.5076 300.86563 467.52322 300.86563Q466.49197 300.86563 466.02322 301.24063Q465.55447 301.61563 465.55447 302.14688Q465.55447 302.61563 465.8826 302.9125Q466.21072 303.20938 467.58572 303.52188Q468.97635 303.83438 469.49197 304.06876Q470.24197 304.42813 470.60135 304.95938Q470.96072 305.475 470.96072 306.17813Q470.96072 306.86563 470.5701 307.475Q470.17947 308.06876 469.4451 308.4125Q468.71072 308.74063 467.78885 308.74063Q466.61697 308.74063 465.8201 308.4125Q465.03885 308.06876 464.58572 307.38126Q464.14822 306.69376 464.1326 305.83438ZM472.3826 310.99063L472.3826 302.38126L473.33572 302.38126L473.33572 303.17813Q473.67947 302.70938 474.10135 302.475Q474.53885 302.24063 475.14822 302.24063Q475.9451 302.24063 476.55447 302.64688Q477.16385 303.05313 477.46072 303.80313Q477.77322 304.55313 477.77322 305.44376Q477.77322 306.39688 477.42947 307.1625Q477.10135 307.92813 476.4451 308.33438Q475.78885 308.74063 475.0701 308.74063Q474.53885 308.74063 474.11697 308.52188Q473.6951 308.2875 473.42947 307.95938L473.42947 310.99063L472.3826 310.99063ZM473.33572 305.52188Q473.33572 306.725 473.8201 307.30313Q474.30447 307.86563 474.99197 307.86563Q475.6951 307.86563 476.1951 307.27188Q476.6951 306.67813 476.6951 305.42813Q476.6951 304.24063 476.21072 303.6625Q475.72635 303.06876 475.03885 303.06876Q474.36697 303.06876 473.85135 303.69376Q473.33572 304.31876 473.33572 305.52188ZM479.36697 308.6L479.36697 302.38126L480.3201 302.38126L480.3201 303.31876Q480.67947 302.6625 480.97635 302.45938Q481.28885 302.24063 481.66385 302.24063Q482.1951 302.24063 482.74197 302.56876L482.3826 303.55313Q481.99197 303.31876 481.61697 303.31876Q481.2576 303.31876 480.97635 303.5375Q480.71072 303.74063 480.60135 304.11563Q480.41385 304.67813 480.41385 305.33438L480.41385 308.6L479.36697 308.6ZM483.3826 301.225L483.3826 300.00626L484.4451 300.00626L484.4451 301.225L483.3826 301.225ZM483.3826 308.6L483.3826 302.38126L484.4451 302.38126L484.4451 308.6L483.3826 308.6ZM486.3826 308.6L486.3826 302.38126L487.3201 302.38126L487.3201 303.25626Q488.0076 302.24063 489.30447 302.24063Q489.86697 302.24063 490.33572 302.44376Q490.8201 302.64688 491.05447 302.975Q491.28885 303.30313 491.3826 303.74063Q491.42947 304.0375 491.42947 304.77188L491.42947 308.6L490.3826 308.6L490.3826 304.81876Q490.3826 304.1625 490.2576 303.85Q490.1326 303.5375 489.8201 303.35Q489.5076 303.14688 489.08572 303.14688Q488.41385 303.14688 487.91385 303.58438Q487.42947 304.00626 487.42947 305.19376L487.42947 308.6L486.3826 308.6ZM495.67947 307.6625L495.83572 308.58438Q495.3826 308.67813 495.03885 308.67813Q494.46072 308.67813 494.14822 308.50626Q493.83572 308.31876 493.6951 308.02188Q493.5701 307.725 493.5701 306.77188L493.5701 303.19376L492.80447 303.19376L492.80447 302.38126L493.5701 302.38126L493.5701 300.83438L494.61697 300.20938L494.61697 302.38126L495.67947 302.38126L495.67947 303.19376L494.61697 303.19376L494.61697 306.83438Q494.61697 307.2875 494.66385 307.4125Q494.72635 307.5375 494.85135 307.61563Q494.97635 307.69376 495.21072 307.69376Q495.39822 307.69376 495.67947 307.6625ZM499.14822 301.13126L499.14822 300.11563L504.71072 300.11563L504.71072 300.94376Q503.89822 301.81876 503.08572 303.27188Q502.28885 304.70938 501.85135 306.24063Q501.52322 307.31876 501.4451 308.6L500.35135 308.6Q500.36697 307.58438 500.74197 306.14688Q501.1326 304.70938 501.83572 303.38126Q502.55447 302.05313 503.36697 301.13126L499.14822 301.13126Z" fill-rule="nonzero"/><path fill="#4285f4" d="M139.0 23.4C139.0 26.713709 136.3137 29.4 133.0 29.4C129.6863 29.4 127.0 26.713709 127.0 23.4C127.0 20.086292 129.6863 17.4 133.0 17.4C136.3137 17.4 139.0 20.086292 139.0 23.4Z" fill-rule="nonzero"/><path fill="#1a1a1a" d="M147.95312 27.4L147.95312 18.80625L154.15625 18.80625L154.15625 19.821875L149.09375 19.821875L149.09375 22.446875L153.84375 22.446875L153.84375 23.4625L149.09375 23.4625L149.09375 26.384375L154.35938 26.384375L154.35938 27.4L147.95312 27.4ZM158.10938 27.4L158.10938 19.821875L155.28125 19.821875L155.28125 18.80625L162.09375 18.80625L162.09375 19.821875L159.25 19.821875L159.25 27.4L158.10938 27.4Z" fill-rule="nonzero"/><path fill="#ea4335" d="M190.0 23.4C190.0 26.713709 187.3137 29.4 184.0 29.4C180.6863 29.4 178.0 26.713709 178.0 23.4C178.0 20.086292 180.6863 17.4 184.0 17.4C187.3137 17.4 190.0 20.086292 190.0 23.4Z" fill-rule="nonzero"/><path fill="#1a1a1a" d="M201.375 27.4L198.04688 18.80625L199.28125 18.80625L201.51562 25.05625Q201.78125 25.80625 201.96875 26.4625Q202.17188 25.759375 202.4375 25.05625L204.75 18.80625L205.90625 18.80625L202.54688 27.4L201.375 27.4ZM209.85938 26.634375Q209.26562 27.134375 208.71875 27.3375Q208.1875 27.540625 207.5625 27.540625Q206.53125 27.540625 205.98438 27.040625Q205.4375 26.540625 205.4375 25.759375Q205.4375 25.30625 205.64062 24.93125Q205.84375 24.540625 206.1875 24.321875Q206.53125 24.0875 206.95312 23.978125Q207.25 23.884375 207.89062 23.80625Q209.15625 23.665625 209.76562 23.446875Q209.76562 23.228125 209.76562 23.18125Q209.76562 22.525 209.46875 22.259375Q209.0625 21.915625 208.26562 21.915625Q207.53125 21.915625 207.17188 22.18125Q206.8125 22.43125 206.64062 23.0875L205.60938 22.946875Q205.75 22.290625 206.07812 21.884375Q206.40625 21.478125 207.01562 21.259375Q207.625 21.040625 208.42188 21.040625Q209.21875 21.040625 209.71875 21.228125Q210.21875 21.415625 210.45312 21.696875Q210.6875 21.978125 210.78125 22.415625Q210.82812 22.68125 210.82812 23.384375L210.82812 24.790625Q210.82812 26.259375 210.89062 26.65Q210.96875 27.040625 211.17188 27.4L210.0625 27.4Q209.90625 27.071875 209.85938 26.634375ZM209.76562 24.275Q209.1875 24.509375 208.04688 24.68125Q207.39062 24.775 207.125 24.9Q206.85938 25.009375 206.70312 25.228125Q206.5625 25.446875 206.5625 25.728125Q206.5625 26.15 206.875 26.43125Q207.20312 26.7125 207.8125 26.7125Q208.42188 26.7125 208.89062 26.446875Q209.375 26.18125 209.59375 25.7125Q209.76562 25.353125 209.76562 24.665625L209.76562 24.275ZM212.76562 27.4L212.76562 18.80625L213.82812 18.80625L213.82812 27.4L212.76562 27.4ZM215.40625 24.290625Q215.40625 22.55625 216.35938 21.728125Q217.15625 21.040625 218.3125 21.040625Q219.59375 21.040625 220.40625 21.884375Q221.23438 22.7125 221.23438 24.196875Q221.23438 25.4 220.875 26.0875Q220.51562 26.775 219.8125 27.165625Q219.125 27.540625 218.3125 27.540625Q217.01562 27.540625 216.20312 26.7125Q215.40625 25.86875 215.40625 24.290625ZM216.48438 24.290625Q216.48438 25.478125 217.0 26.071875Q217.53125 26.665625 218.3125 26.665625Q219.10938 26.665625 219.625 26.071875Q220.14062 25.478125 220.14062 24.259375Q220.14062 23.103125 219.60938 22.509375Q219.09375 21.915625 218.3125 21.915625Q217.53125 21.915625 217.0 22.509375Q216.48438 23.0875 216.48438 24.290625ZM222.78125 27.4L222.78125 21.18125L223.73438 21.18125L223.73438 22.11875Q224.09375 21.4625 224.39062 21.259375Q224.70312 21.040625 225.07812 21.040625Q225.60938 21.040625 226.15625 21.36875L225.79688 22.353125Q225.40625 22.11875 225.03125 22.11875Q224.67188 22.11875 224.39062 22.3375Q224.125 22.540625 224.01562 22.915625Q223.82812 23.478125 223.82812 24.134375L223.82812 27.4L222.78125 27.4ZM231.04688 25.4L232.14062 25.525Q231.89062 26.478125 231.1875 27.009375Q230.48438 27.540625 229.40625 27.540625Q228.04688 27.540625 227.23438 26.696875Q226.4375 25.853125 226.4375 24.3375Q226.4375 22.775 227.25 21.915625Q228.0625 21.040625 229.34375 21.040625Q230.59375 21.040625 231.375 21.884375Q232.17188 22.728125 232.17188 24.275Q232.17188 24.36875 232.17188 24.55625L227.53125 24.55625Q227.59375 25.5875 228.10938 26.134375Q228.625 26.665625 229.40625 26.665625Q229.98438 26.665625 230.39062 26.36875Q230.8125 26.05625 231.04688 25.4ZM227.59375 23.696875L231.0625 23.696875Q231.0 22.9 230.67188 22.509375Q230.15625 21.9 229.35938 21.9Q228.625 21.9 228.125 22.384375Q227.64062 22.86875 227.59375 23.696875ZM240.85938 26.634375Q240.26562 27.134375 239.71875 27.3375Q239.1875 27.540625 238.5625 27.540625Q237.53125 27.540625 236.98438 27.040625Q236.4375 26.540625 236.4375 25.759375Q236.4375 25.30625 236.64062 24.93125Q236.84375 24.540625 237.1875 24.321875Q237.53125 24.0875 237.95312 23.978125Q238.25 23.884375 238.89062 23.80625Q240.15625 23.665625 240.76562 23.446875Q240.76562 23.228125 240.76562 23.18125Q240.76562 22.525 240.46875 22.259375Q240.0625 21.915625 239.26562 21.915625Q238.53125 21.915625 238.17188 22.18125Q237.8125 22.43125 237.64062 23.0875L236.60938 22.946875Q236.75 22.290625 237.07812 21.884375Q237.40625 21.478125 238.01562 21.259375Q238.625 21.040625 239.42188 21.040625Q240.21875 21.040625 240.71875 21.228125Q241.21875 21.415625 241.45312 21.696875Q241.6875 21.978125 241.78125 22.415625Q241.82812 22.68125 241.82812 23.384375L241.82812 24.790625Q241.82812 26.259375 241.89062 26.65Q241.96875 27.040625 242.17188 27.4L241.0625 27.4Q240.90625 27.071875 240.85938 26.634375ZM240.76562 24.275Q240.1875 24.509375 239.04688 24.68125Q238.39062 24.775 238.125 24.9Q237.85938 25.009375 237.70312 25.228125Q237.5625 25.446875 237.5625 25.728125Q237.5625 26.15 237.875 26.43125Q238.20312 26.7125 238.8125 26.7125Q239.42188 26.7125 239.89062 26.446875Q240.375 26.18125 240.59375 25.7125Q240.76562 25.353125 240.76562 24.665625L240.76562 24.275ZM247.85938 25.11875L248.89062 25.259375Q248.71875 26.321875 248.01562 26.93125Q247.3125 27.540625 246.29688 27.540625Q245.01562 27.540625 244.23438 26.7125Q243.46875 25.86875 243.46875 24.30625Q243.46875 23.30625 243.79688 22.55625Q244.14062 21.790625 244.8125 21.415625Q245.5 21.040625 246.3125 21.040625Q247.3125 21.040625 247.95312 21.55625Q248.60938 22.05625 248.79688 23.009375L247.76562 23.165625Q247.625 22.540625 247.25 22.228125Q246.875 21.9 246.34375 21.9Q245.54688 21.9 245.04688 22.478125Q244.54688 23.040625 244.54688 24.275Q244.54688 25.540625 245.03125 26.103125Q245.51562 26.665625 246.28125 26.665625Q246.90625 26.665625 247.3125 26.290625Q247.73438 25.915625 247.85938 25.11875ZM253.85938 25.11875L254.89062 25.259375Q254.71875 26.321875 254.01562 26.93125Q253.3125 27.540625 252.29688 27.540625Q251.01562 27.540625 250.23438 26.7125Q249.46875 25.86875 249.46875 24.30625Q249.46875 23.30625 249.79688 22.55625Q250.14062 21.790625 250.8125 21.415625Q251.5 21.040625 252.3125 21.040625Q253.3125 21.040625 253.95312 21.55625Q254.60938 22.05625 254.79688 23.009375L253.76562 23.165625Q253.625 22.540625 253.25 22.228125Q252.875 21.9 252.34375 21.9Q251.54688 21.9 251.04688 22.478125Q250.54688 23.040625 250.54688 24.275Q250.54688 25.540625 251.03125 26.103125Q251.51562 26.665625 252.28125 26.665625Q252.90625 26.665625 253.3125 26.290625Q253.73438 25.915625 253.85938 25.11875ZM260.04688 25.4L261.14062 25.525Q260.89062 26.478125 260.1875 27.009375Q259.48438 27.540625 258.40625 27.540625Q257.04688 27.540625 256.23438 26.696875Q255.4375 25.853125 255.4375 24.3375Q255.4375 22.775 256.25 21.915625Q257.0625 21.040625 258.34375 21.040625Q259.59375 21.040625 260.375 21.884375Q261.17188 22.728125 261.17188 24.275Q261.17188 24.36875 261.17188 24.55625L256.53125 24.55625Q256.59375 25.5875 257.10938 26.134375Q257.625 26.665625 258.40625 26.665625Q258.98438 26.665625 259.39062 26.36875Q259.8125 26.05625 260.04688 25.4ZM256.59375 23.696875L260.0625 23.696875Q260.0 22.9 259.67188 22.509375Q259.15625 21.9 258.35938 21.9Q257.625 21.9 257.125 22.384375Q256.64062 22.86875 256.59375 23.696875ZM265.09375 26.4625L265.25 27.384375Q264.79688 27.478125 264.45312 27.478125Q263.875 27.478125 263.5625 27.30625Q263.25 27.11875 263.10938 26.821875Q262.98438 26.525 262.98438 25.571875L262.98438 21.99375L262.21875 21.99375L262.21875 21.18125L262.98438 21.18125L262.98438 19.634375L264.03125 19.009375L264.03125 21.18125L265.09375 21.18125L265.09375 21.99375L264.03125 21.99375L264.03125 25.634375Q264.03125 26.0875 264.07812 26.2125Q264.14062 26.3375 264.26562 26.415625Q264.39062 26.49375 264.625 26.49375Q264.8125 26.49375 265.09375 26.4625ZM268.09375 26.4625L268.25 27.384375Q267.79688 27.478125 267.45312 27.478125Q266.875 27.478125 266.5625 27.30625Q266.25 27.11875 266.10938 26.821875Q265.98438 26.525 265.98438 25.571875L265.98438 21.99375L265.21875 21.99375L265.21875 21.18125L265.98438 21.18125L265.98438 19.634375L267.03125 19.009375L267.03125 21.18125L268.09375 21.18125L268.09375 21.99375L267.03125 21.99375L267.03125 25.634375Q267.03125 26.0875 267.07812 26.2125Q267.14062 26.3375 267.26562 26.415625Q267.39062 26.49375 267.625 26.49375Q267.8125 26.49375 268.09375 26.4625ZM272.85938 26.634375Q272.26562 27.134375 271.71875 27.3375Q271.1875 27.540625 270.5625 27.540625Q269.53125 27.540625 268.98438 27.040625Q268.4375 26.540625 268.4375 25.759375Q268.4375 25.30625 268.64062 24.93125Q268.84375 24.540625 269.1875 24.321875Q269.53125 24.0875 269.95312 23.978125Q270.25 23.884375 270.89062 23.80625Q272.15625 23.665625 272.76562 23.446875Q272.76562 23.228125 272.76562 23.18125Q272.76562 22.525 272.46875 22.259375Q272.0625 21.915625 271.26562 21.915625Q270.53125 21.915625 270.17188 22.18125Q269.8125 22.43125 269.64062 23.0875L268.60938 22.946875Q268.75 22.290625 269.07812 21.884375Q269.40625 21.478125 270.01562 21.259375Q270.625 21.040625 271.42188 21.040625Q272.21875 21.040625 272.71875 21.228125Q273.21875 21.415625 273.45312 21.696875Q273.6875 21.978125 273.78125 22.415625Q273.82812 22.68125 273.82812 23.384375L273.82812 24.790625Q273.82812 26.259375 273.89062 26.65Q273.96875 27.040625 274.17188 27.4L273.0625 27.4Q272.90625 27.071875 272.85938 26.634375ZM272.76562 24.275Q272.1875 24.509375 271.04688 24.68125Q270.39062 24.775 270.125 24.9Q269.85938 25.009375 269.70312 25.228125Q269.5625 25.446875 269.5625 25.728125Q269.5625 26.15 269.875 26.43125Q270.20312 26.7125 270.8125 26.7125Q271.42188 26.7125 271.89062 26.446875Q272.375 26.18125 272.59375 25.7125Q272.76562 25.353125 272.76562 24.665625L272.76562 24.275ZM276.76562 27.4L275.78125 27.4L275.78125 18.80625L276.84375 18.80625L276.84375 21.86875Q277.51562 21.040625 278.54688 21.040625Q279.125 21.040625 279.625 21.275Q280.14062 21.49375 280.46875 21.915625Q280.8125 22.3375 281.0 22.93125Q281.1875 23.525 281.1875 24.196875Q281.1875 25.790625 280.39062 26.665625Q279.59375 27.540625 278.5 27.540625Q277.39062 27.540625 276.76562 26.61875L276.76562 27.4ZM276.75 24.24375Q276.75 25.353125 277.0625 25.853125Q277.5625 26.665625 278.40625 26.665625Q279.09375 26.665625 279.59375 26.071875Q280.10938 25.478125 280.10938 24.275Q280.10938 23.05625 279.625 22.478125Q279.14062 21.9 278.45312 21.9Q277.76562 21.9 277.25 22.509375Q276.75 23.103125 276.75 24.24375ZM282.79688 20.025L282.79688 18.80625L283.85938 18.80625L283.85938 20.025L282.79688 20.025ZM282.79688 27.4L282.79688 21.18125L283.85938 21.18125L283.85938 27.4L282.79688 27.4ZM285.76562 27.4L285.76562 18.80625L286.82812 18.80625L286.82812 27.4L285.76562 27.4ZM293.04688 25.4L294.14062 25.525Q293.89062 26.478125 293.1875 27.009375Q292.48438 27.540625 291.40625 27.540625Q290.04688 27.540625 289.23438 26.696875Q288.4375 25.853125 288.4375 24.3375Q288.4375 22.775 289.25 21.915625Q290.0625 21.040625 291.34375 21.040625Q292.59375 21.040625 293.375 21.884375Q294.17188 22.728125 294.17188 24.275Q294.17188 24.36875 294.17188 24.55625L289.53125 24.55625Q289.59375 25.5875 290.10938 26.134375Q290.625 26.665625 291.40625 26.665625Q291.98438 26.665625 292.39062 26.36875Q292.8125 26.05625 293.04688 25.4ZM289.59375 23.696875L293.0625 23.696875Q293.0 22.9 292.67188 22.509375Q292.15625 21.9 291.35938 21.9Q290.625 21.9 290.125 22.384375Q289.64062 22.86875 289.59375 23.696875Z" fill-rule="nonzero"/><path fill="#fbbc04" fill-opacity="0.7019608" d="M323.0 23.4C323.0 26.713709 320.31372 29.4 317.0 29.4C313.68628 29.4 311.0 26.713709 311.0 23.4C311.0 20.086292 313.68628 17.4 317.0 17.4C320.31372 17.4 323.0 20.086292 323.0 23.4Z" fill-rule="nonzero"/><path fill="#1a1a1a" d="M334.375 27.4L331.04688 18.80625L332.28125 18.80625L334.51562 25.05625Q334.78125 25.80625 334.96875 26.4625Q335.17188 25.759375 335.4375 25.05625L337.75 18.80625L338.90625 18.80625L335.54688 27.4L334.375 27.4ZM342.85938 26.634375Q342.26562 27.134375 341.71875 27.3375Q341.1875 27.540625 340.5625 27.540625Q339.53125 27.540625 338.98438 27.040625Q338.4375 26.540625 338.4375 25.759375Q338.4375 25.30625 338.64062 24.93125Q338.84375 24.540625 339.1875 24.321875Q339.53125 24.0875 339.95312 23.978125Q340.25 23.884375 340.89062 23.80625Q342.15625 23.665625 342.76562 23.446875Q342.76562 23.228125 342.76562 23.18125Q342.76562 22.525 342.46875 22.259375Q342.0625 21.915625 341.26562 21.915625Q340.53125 21.915625 340.17188 22.18125Q339.8125 22.43125 339.64062 23.0875L338.60938 22.946875Q338.75 22.290625 339.07812 21.884375Q339.40625 21.478125 340.01562 21.259375Q340.625 21.040625 341.42188 21.040625Q342.21875 21.040625 342.71875 21.228125Q343.21875 21.415625 343.45312 21.696875Q343.6875 21.978125 343.78125 22.415625Q343.82812 22.68125 343.82812 23.384375L343.82812 24.790625Q343.82812 26.259375 343.89062 26.65Q343.96875 27.040625 344.17188 27.4L343.0625 27.4Q342.90625 27.071875 342.85938 26.634375ZM342.76562 24.275Q342.1875 24.509375 341.04688 24.68125Q340.39062 24.775 340.125 24.9Q339.85938 25.009375 339.70312 25.228125Q339.5625 25.446875 339.5625 25.728125Q339.5625 26.15 339.875 26.43125Q340.20312 26.7125 340.8125 26.7125Q341.42188 26.7125 341.89062 26.446875Q342.375 26.18125 342.59375 25.7125Q342.76562 25.353125 342.76562 24.665625L342.76562 24.275ZM345.76562 27.4L345.76562 18.80625L346.82812 18.80625L346.82812 27.4L345.76562 27.4ZM348.40625 24.290625Q348.40625 22.55625 349.35938 21.728125Q350.15625 21.040625 351.3125 21.040625Q352.59375 21.040625 353.40625 21.884375Q354.23438 22.7125 354.23438 24.196875Q354.23438 25.4 353.875 26.0875Q353.51562 26.775 352.8125 27.165625Q352.125 27.540625 351.3125 27.540625Q350.01562 27.540625 349.20312 26.7125Q348.40625 25.86875 348.40625 24.290625ZM349.48438 24.290625Q349.48438 25.478125 350.0 26.071875Q350.53125 26.665625 351.3125 26.665625Q352.10938 26.665625 352.625 26.071875Q353.14062 25.478125 353.14062 24.259375Q353.14062 23.103125 352.60938 22.509375Q352.09375 21.915625 351.3125 21.915625Q350.53125 21.915625 350.0 22.509375Q349.48438 23.0875 349.48438 24.290625ZM355.78125 27.4L355.78125 21.18125L356.73438 21.18125L356.73438 22.11875Q357.09375 21.4625 357.39062 21.259375Q357.70312 21.040625 358.07812 21.040625Q358.60938 21.040625 359.15625 21.36875L358.79688 22.353125Q358.40625 22.11875 358.03125 22.11875Q357.67188 22.11875 357.39062 22.3375Q357.125 22.540625 357.01562 22.915625Q356.82812 23.478125 356.82812 24.134375L356.82812 27.4L355.78125 27.4ZM364.04688 25.4L365.14062 25.525Q364.89062 26.478125 364.1875 27.009375Q363.48438 27.540625 362.40625 27.540625Q361.04688 27.540625 360.23438 26.696875Q359.4375 25.853125 359.4375 24.3375Q359.4375 22.775 360.25 21.915625Q361.0625 21.040625 362.34375 21.040625Q363.59375 21.040625 364.375 21.884375Q365.17188 22.728125 365.17188 24.275Q365.17188 24.36875 365.17188 24.55625L360.53125 24.55625Q360.59375 25.5875 361.10938 26.134375Q361.625 26.665625 362.40625 26.665625Q362.98438 26.665625 363.39062 26.36875Q363.8125 26.05625 364.04688 25.4ZM360.59375 23.696875L364.0625 23.696875Q364.0 22.9 363.67188 22.509375Q363.15625 21.9 362.35938 21.9Q361.625 21.9 361.125 22.384375Q360.64062 22.86875 360.59375 23.696875ZM369.57812 23.2125Q369.57812 21.071875 370.71875 19.86875Q371.875 18.65 373.6875 18.65Q374.89062 18.65 375.84375 19.228125Q376.79688 19.790625 377.29688 20.80625Q377.79688 21.821875 377.79688 23.11875Q377.79688 24.415625 377.26562 25.446875Q376.73438 26.478125 375.76562 27.009375Q374.8125 27.540625 373.6875 27.540625Q372.46875 27.540625 371.51562 26.9625Q370.5625 26.36875 370.0625 25.36875Q369.57812 24.353125 369.57812 23.2125ZM370.75 23.228125Q370.75 24.790625 371.57812 25.68125Q372.42188 26.571875 373.6875 26.571875Q374.96875 26.571875 375.79688 25.68125Q376.625 24.775 376.625 23.103125Q376.625 22.05625 376.26562 21.275Q375.92188 20.49375 375.23438 20.071875Q374.54688 19.634375 373.70312 19.634375Q372.5 19.634375 371.625 20.4625Q370.75 21.290625 370.75 23.228125ZM381.09375 26.4625L381.25 27.384375Q380.79688 27.478125 380.45312 27.478125Q379.875 27.478125 379.5625 27.30625Q379.25 27.11875 379.10938 26.821875Q378.98438 26.525 378.98438 25.571875L378.98438 21.99375L378.21875 21.99375L378.21875 21.18125L378.98438 21.18125L378.98438 19.634375L380.03125 19.009375L380.03125 21.18125L381.09375 21.18125L381.09375 21.99375L380.03125 21.99375L380.03125 25.634375Q380.03125 26.0875 380.07812 26.2125Q380.14062 26.3375 380.26562 26.415625Q380.39062 26.49375 380.625 26.49375Q380.8125 26.49375 381.09375 26.4625ZM384.09375 26.4625L384.25 27.384375Q383.79688 27.478125 383.45312 27.478125Q382.875 27.478125 382.5625 27.30625Q382.25 27.11875 382.10938 26.821875Q381.98438 26.525 381.98438 25.571875L381.98438 21.99375L381.21875 21.99375L381.21875 21.18125L381.98438 21.18125L381.98438 19.634375L383.03125 19.009375L383.03125 21.18125L384.09375 21.18125L384.09375 21.99375L383.03125 21.99375L383.03125 25.634375Q383.03125 26.0875 383.07812 26.2125Q383.14062 26.3375 383.26562 26.415625Q383.39062 26.49375 383.625 26.49375Q383.8125 26.49375 384.09375 26.4625ZM384.79688 20.025L384.79688 18.80625L385.85938 18.80625L385.85938 20.025L384.79688 20.025ZM384.79688 27.4L384.79688 21.18125L385.85938 21.18125L385.85938 27.4L384.79688 27.4ZM387.79688 27.4L387.79688 21.18125L388.73438 21.18125L388.73438 22.05625Q389.03125 21.5875 389.51562 21.321875Q390.0 21.040625 390.625 21.040625Q391.3125 21.040625 391.75 21.321875Q392.20312 21.603125 392.375 22.11875Q393.125 21.040625 394.29688 21.040625Q395.23438 21.040625 395.71875 21.55625Q396.21875 22.05625 396.21875 23.134375L396.21875 27.4L395.17188 27.4L395.17188 23.478125Q395.17188 22.853125 395.0625 22.571875Q394.96875 22.290625 394.70312 22.11875Q394.4375 21.946875 394.0625 21.946875Q393.40625 21.946875 392.96875 22.384375Q392.54688 22.821875 392.54688 23.790625L392.54688 27.4L391.48438 27.4L391.48438 23.353125Q391.48438 22.65 391.21875 22.30625Q390.96875 21.946875 390.39062 21.946875Q389.9375 21.946875 389.5625 22.18125Q389.1875 22.415625 389.01562 22.86875Q388.84375 23.321875 388.84375 24.165625L388.84375 27.4L387.79688 27.4ZM398.40625 24.290625Q398.40625 22.55625 399.35938 21.728125Q400.15625 21.040625 401.3125 21.040625Q402.59375 21.040625 403.40625 21.884375Q404.23438 22.7125 404.23438 24.196875Q404.23438 25.4 403.875 26.0875Q403.51562 26.775 402.8125 27.165625Q402.125 27.540625 401.3125 27.540625Q400.01562 27.540625 399.20312 26.7125Q398.40625 25.86875 398.40625 24.290625ZM399.48438 24.290625Q399.48438 25.478125 400.0 26.071875Q400.53125 26.665625 401.3125 26.665625Q402.10938 26.665625 402.625 26.071875Q403.14062 25.478125 403.14062 24.259375Q403.14062 23.103125 402.60938 22.509375Q402.09375 21.915625 401.3125 21.915625Q400.53125 21.915625 400.0 22.509375Q399.48438 23.0875 399.48438 24.290625Z" fill-rule="nonzero"/></svg>