<svg version="1.1" viewBox="0.0 0.0 532.0 328.0" fill="none" stroke="none" stroke-linecap="square" stroke-miterlimit="10" width="532" height="328" xmlns:xlink="http://www.w3.org/1999/xlink" xmlns="http://www.w3.org/2000/svg"><path fill="#ffffff" d="M0 0L532.0 0L532.0 328.0L0 328.0L0 0Z" fill-rule="nonzero"/><path stroke="#333333" stroke-width="1.0" stroke-linecap="butt" d="M81.5 285.5L515.5 285.5" fill-rule="nonzero"/><path stroke="#cccccc" stroke-width="1.0" stroke-linecap="butt" d="M81.5 261.5L515.5 261.5" fill-rule="nonzero"/><path stroke="#cccccc" stroke-width="1.0" stroke-linecap="butt" d="M81.5 238.5L515.5 238.5" fill-rule="nonzero"/><path stroke="#cccccc" stroke-width="1.0" stroke-linecap="butt" d="M81.5 214.5L515.5 214.5" fill-rule="nonzero"/><path stroke="#cccccc" stroke-width="1.0" stroke-linecap="butt" d="M81.5 190.5L515.5 190.5" fill-rule="nonzero"/><path stroke="#cccccc" stroke-width="1.0" stroke-linecap="butt" d="M81.5 166.5L515.5 166.5" fill-rule="nonzero"/><path stroke="#cccccc" stroke-width="1.0" stroke-linecap="butt" d="M81.5 143.5L515.5 143.5" fill-rule="nonzero"/><path stroke="#cccccc" stroke-width="1.0" stroke-linecap="butt" d="M81.5 119.5L515.5 119.5" fill-rule="nonzero"/><path stroke="#cccccc" stroke-width="1.0" stroke-linecap="butt" d="M81.5 95.5L515.5 95.5" fill-rule="nonzero"/><path stroke="#cccccc" stroke-width="1.0" stroke-linecap="butt" d="M81.5 72.5L515.5 72.5" fill-rule="nonzero"/><path stroke="#cccccc" stroke-width="1.0" stroke-linecap="butt" d="M81.5 48.5L515.5 48.5" fill-rule="nonzero"/><path stroke="#000000" stroke-width="1.0" stroke-linecap="butt" d="M515.5 285.5L81.5 285.5" fill-rule="nonzero"/><path stroke="#000000" stroke-width="1.0" stroke-linecap="butt" d="M81.5 285.5L81.5 48.5" fill-rule="nonzero"/><clipPath id="id_0"><path d="M81.4 48.333332L515.6 48.333332L515.6 285.6L81.4 285.6L81.4 48.333332Z" clip-rule="nonzero"/></clipPath><path stroke="#4285f4" stroke-width="2.0" stroke-linecap="butt" clip-path="url(#id_0)" d="M124.82 200.36829C124.82 200.36829 182.71333 165.5005 211.66 156.39539C240.60667 147.29025 269.55334 149.95331 298.5 145.73755C327.44666 141.52177 356.39334 134.28514 385.34 131.10077C414.28665 127.916405 472.18 126.63133 472.18 126.63133" fill-rule="nonzero"/><path stroke="#ea4335" stroke-width="2.0" stroke-linecap="butt" clip-path="url(#id_0)" d="M124.82 166.96666C124.82 166.96666 182.71333 166.96666 211.66 166.96666C240.60667 166.96666 269.55334 166.96666 298.5 166.96666C327.44666 166.96666 356.39334 166.96666 385.34 166.96666C414.28665 166.96666 472.18 166.96666 472.18 166.96666" fill-rule="nonzero"/><path stroke="#fbbc04" stroke-width="4.0" stroke-linecap="butt" stroke-opacity="0.7019608" clip-path="url(#id_0)" d="M124.82 48.333332C124.82 48.333332 182.71333 48.333332 211.66 48.333332C240.60667 48.333332 269.55334 48.333332 298.5 48.333332C327.44666 48.333332 356.39334 48.333332 385.34 48.333332C414.28665 48.333332 472.18 48.333332 472.18 48.333332" fill-rule="nonzero"/><path fill="#4285f4" clip-path="url(#id_0)" d="M128.32 200.36829C128.32 202.30128 126.753 203.86829 124.82 203.86829C122.887 203.86829 121.32 202.30128 121.32 200.36829C121.32 198.43529 122.887 196.86829 124.82 196.86829C126.753 196.86829 128.32 198.43529 128.32 200.36829Z" fill-rule="nonzero"/><path fill="#4285f4" clip-path="url(#id_0)" d="M215.16 156.39539C215.16 158.32837 213.593 159.89539 211.66 159.89539C209.727 159.89539 208.16 158.32837 208.16 156.39539C208.16 154.46239 209.727 152.89539 211.66 152.89539C213.593 152.89539 215.16 154.46239 215.16 156.39539Z" fill-rule="nonzero"/><path fill="#4285f4" clip-path="url(#id_0)" d="M302.0 145.73755C302.0 147.67055 300.43298 149.23755 298.5 149.23755C296.56702 149.23755 295.0 147.67055 295.0 145.73755C295.0 143.80455 296.56702 142.23755 298.5 142.23755C300.43298 142.23755 302.0 143.80455 302.0 145.73755Z" fill-rule="nonzero"/><path fill="#4285f4" clip-path="url(#id_0)" d="M388.84 131.10077C388.84 133.03377 387.273 134.60077 385.34 134.60077C383.407 134.60077 381.84 133.03377 381.84 131.10077C381.84 129.16779 383.407 127.60078 385.34 127.60078C387.273 127.60078 388.84 129.16779 388.84 131.10077Z" fill-rule="nonzero"/><path fill="#4285f4" clip-path="url(#id_0)" d="M475.68 126.63133C475.68 128.56433 474.113 130.13133 472.18 130.13133C470.247 130.13133 468.68 128.56433 468.68 126.63133C468.68 124.69833 470.247 123.13133 472.18 123.13133C474.113 123.13133 475.68 124.69833 475.68 126.63133Z" fill-rule="nonzero"/><path fill="#ea4335" clip-path="url(#id_0)" d="M128.32 166.96666C128.32 168.89966 126.753 170.46666 124.82 170.46666C122.887 170.46666 121.32 168.89966 121.32 166.96666C121.32 165.03368 122.887 163.46666 124.82 163.46666C126.753 163.46666 128.32 165.03368 128.32 166.96666Z" fill-rule="nonzero"/><path fill="#ea4335" clip-path="url(#id_0)" d="M215.16 166.96666C215.16 168.89966 213.593 170.46666 211.66 170.46666C209.727 170.46666 208.16 168.89966 208.16 166.96666C208.16 165.03368 209.727 163.46666 211.66 163.46666C213.593 163.46666 215.16 165.03368 215.16 166.96666Z" fill-rule="nonzero"/><path fill="#ea4335" clip-path="url(#id_0)" d="M302.0 166.96666C302.0 168.89966 300.43298 170.46666 298.5 170.46666C296.56702 170.46666 295.0 168.89966 295.0 166.96666C295.0 165.03368 296.56702 163.46666 298.5 163.46666C300.43298 163.46666 302.0 165.03368 302.0 166.96666Z" fill-rule="nonzero"/><path fill="#ea4335" clip-path="url(#id_0)" d="M388.84 166.96666C388.84 168.89966 387.273 170.46666 385.34 170.46666C383.407 170.46666 381.84 168.89966 381.84 166.96666C381.84 165.03368 383.407 163.46666 385.34 163.46666C387.273 163.46666 388.84 165.03368 388.84 166.96666Z" fill-rule="nonzero"/><path fill="#ea4335" clip-path="url(#id_0)" d="M475.68 166.96666C475.68 168.89966 474.113 170.46666 472.18 170.46666C470.247 170.46666 468.68 168.89966 468.68 166.96666C468.68 165.03368 470.247 163.46666 472.18 163.46666C474.113 163.46666 475.68 165.03368 475.68 166.96666Z" fill-rule="nonzero"/><path fill="#fbbc04" fill-opacity="0.7019608" clip-path="url(#id_0)" d="M128.32 48.333332C128.32 50.26633 126.753 51.833332 124.82 51.833332C122.887 51.833332 121.32 50.26633 121.32 48.333332C121.32 46.400337 122.887 44.833332 124.82 44.833332C126.753 44.833332 128.32 46.400337 128.32 48.333332Z" fill-rule="nonzero"/><path fill="#fbbc04" fill-opacity="0.7019608" clip-path="url(#id_0)" d="M215.16 48.333332C215.16 50.26633 213.593 51.833332 211.66 51.833332C209.727 51.833332 208.16 50.26633 208.16 48.333332C208.16 46.400337 209.727 44.833332 211.66 44.833332C213.593 44.833332 215.16 46.400337 215.16 48.333332Z" fill-rule="nonzero"/><path fill="#fbbc04" fill-opacity="0.7019608" clip-path="url(#id_0)" d="M302.0 48.333332C302.0 50.26633 300.43298 51.833332 298.5 51.833332C296.56702 51.833332 295.0 50.26633 295.0 48.333332C295.0 46.400337 296.56702 44.833332 298.5 44.833332C300.43298 44.833332 302.0 46.400337 302.0 48.333332Z" fill-rule="nonzero"/><path fill="#fbbc04" fill-opacity="0.7019608" clip-path="url(#id_0)" d="M388.84 48.333332C388.84 50.26633 387.273 51.833332 385.34 51.833332C383.407 51.833332 381.84 50.26633 381.84 48.333332C381.84 46.400337 383.407 44.833332 385.34 44.833332C387.273 44.833332 388.84 46.400337 388.84 48.333332Z" fill-rule="nonzero"/><path fill="#fbbc04" fill-opacity="0.7019608" clip-path="url(#id_0)" d="M475.68 48.333332C475.68 50.26633 474.113 51.833332 472.18 51.833332C470.247 51.833332 468.68 50.26633 468.68 48.333332C468.68 46.400337 470.247 44.833332 472.18 44.833332C474.113 44.833332 475.68 46.400337 475.68 48.333332Z" fill-rule="nonzero"/><path stroke="#000000" stroke-width="1.0" stroke-linecap="butt" d="M124.5 291.5L124.5 279.5" fill-rule="nonzero"/><path stroke="#000000" stroke-width="1.0" stroke-linecap="butt" d="M211.5 291.5L211.5 279.5" fill-rule="nonzero"/><path stroke="#000000" stroke-width="1.0" stroke-linecap="butt" d="M298.5 291.5L298.5 279.5" fill-rule="nonzero"/><path stroke="#000000" stroke-width="1.0" stroke-linecap="butt" d="M385.5 291.5L385.5 279.5" fill-rule="nonzero"/><path stroke="#000000" stroke-width="1.0" stroke-linecap="butt" d="M472.5 291.5L472.5 279.5" fill-rule="nonzero"/><path stroke="#000000" stroke-width="1.0" stroke-linecap="butt" d="M75.5 285.5L87.5 285.5" fill-rule="nonzero"/><path stroke="#000000" stroke-width="1.0" stroke-linecap="butt" d="M75.5 261.5L87.5 261.5" fill-rule="nonzero"/><path stroke="#000000" stroke-width="1.0" stroke-linecap="butt" d="M75.5 238.5L87.5 238.5" fill-rule="nonzero"/><path stroke="#000000" stroke-width="1.0" stroke-linecap="butt" d="M75.5 214.5L87.5 214.5" fill-rule="nonzero"/><path stroke="#000000" stroke-width="1.0" stroke-linecap="butt" d="M75.5 190.5L87.5 190.5" fill-rule="nonzero"/><path stroke="#000000" stroke-width="1.0" stroke-linecap="butt" d="M75.5 166.5L87.5 166.5" fill-rule="nonzero"/><path stroke="#000000" stroke-width="1.0" stroke-linecap="butt" d="M75.5 143.5L87.5 143.5" fill-rule="nonzero"/><path stroke="#000000" stroke-width="1.0" stroke-linecap="butt" d="M75.5 119.5L87.5 119.5" fill-rule="nonzero"/><path stroke="#000000" stroke-width="1.0" stroke-linecap="butt" d="M75.5 95.5L87.5 95.5" fill-rule="nonzero"/><path stroke="#000000" stroke-width="1.0" stroke-linecap="butt" d="M75.5 72.5L87.5 72.5" fill-rule="nonzero"/><path stroke="#000000" stroke-width="1.0" stroke-linecap="butt" d="M75.5 48.5L87.5 48.5" fill-rule="nonzero"/><path fill="#000000" d="M62.9 285.36563Q62.9 283.83438 63.2125 282.9125Q63.525 281.975 64.13438 281.475Q64.75938 280.975 65.69688 280.975Q66.38438 280.975 66.9 281.25626Q67.43125 281.5375 67.775 282.06876Q68.11875 282.58438 68.30625 283.33438Q68.49375 284.08438 68.49375 285.36563Q68.49375 286.88126 68.18125 287.80313Q67.88438 288.725 67.25938 289.24063Q66.65 289.74063 65.69688 289.74063Q64.4625 289.74063 63.74375 288.85Q62.9 287.7875 62.9 285.36563ZM63.978127 285.36563Q63.978127 287.475 64.47813 288.17813Q64.97813 288.88126 65.69688 288.88126Q66.43125 288.88126 66.91563 288.17813Q67.41563 287.475 67.41563 285.36563Q67.41563 283.24063 66.91563 282.55313Q66.43125 281.85 65.68125 281.85Q64.9625 281.85 64.525 282.45938Q63.978127 283.24063 63.978127 285.36563Z" fill-rule="nonzero"/><path fill="#000000" d="M59.86875 265.87332L58.821877 265.87332L58.821877 259.15457Q58.43125 259.51395 57.80625 259.88895Q57.196877 260.24832 56.7125 260.4202L56.7125 259.40457Q57.5875 258.9827 58.24375 258.40457Q58.915627 257.81082 59.196877 257.24832L59.86875 257.24832L59.86875 265.87332ZM62.9 261.63895Q62.9 260.1077 63.2125 259.18582Q63.525 258.24832 64.13438 257.74832Q64.75938 257.24832 65.69688 257.24832Q66.38438 257.24832 66.9 257.52957Q67.43125 257.81082 67.775 258.34207Q68.11875 258.8577 68.30625 259.6077Q68.49375 260.3577 68.49375 261.63895Q68.49375 263.15457 68.18125 264.07645Q67.88438 264.99832 67.25938 265.51395Q66.65 266.01395 65.69688 266.01395Q64.4625 266.01395 63.74375 265.12332Q62.9 264.06082 62.9 261.63895ZM63.978127 261.63895Q63.978127 263.74832 64.47813 264.45145Q64.97813 265.15457 65.69688 265.15457Q66.43125 265.15457 66.91563 264.45145Q67.41563 263.74832 67.41563 261.63895Q67.41563 259.51395 66.91563 258.82645Q66.43125 258.12332 65.68125 258.12332Q64.9625 258.12332 64.525 258.7327Q63.978127 259.51395 63.978127 261.63895Z" fill-rule="nonzero"/><path fill="#000000" d="M61.446877 241.13104L61.446877 242.14667L55.759377 242.14667Q55.759377 241.77167 55.884377 241.4123Q56.103127 240.83417 56.571877 240.27167Q57.05625 239.70917 57.9625 238.9748Q59.36875 237.81854 59.853127 237.14667Q60.353127 236.4748 60.353127 235.88104Q60.353127 235.25604 59.9 234.83417Q59.446877 234.39667 58.728127 234.39667Q57.9625 234.39667 57.509377 234.8498Q57.05625 235.30292 57.040627 236.11542L55.9625 236.00604Q56.071877 234.7873 56.790627 234.1623Q57.525 233.52167 58.759377 233.52167Q59.99375 233.52167 60.7125 234.20917Q61.43125 234.89667 61.43125 235.9123Q61.43125 236.42792 61.2125 236.92792Q61.009377 237.4123 60.509377 237.9748Q60.025 238.52167 58.9 239.4748Q57.946877 240.27167 57.665627 240.56854Q57.4 240.8498 57.228127 241.13104L61.446877 241.13104ZM62.9 237.9123Q62.9 236.38104 63.2125 235.45917Q63.525 234.52167 64.13438 234.02167Q64.75938 233.52167 65.69688 233.52167Q66.38438 233.52167 66.9 233.80292Q67.43125 234.08417 67.775 234.61542Q68.11875 235.13104 68.30625 235.88104Q68.49375 236.63104 68.49375 237.9123Q68.49375 239.42792 68.18125 240.3498Q67.88438 241.27167 67.25938 241.7873Q66.65 242.2873 65.69688 242.2873Q64.4625 242.2873 63.74375 241.39667Q62.9 240.33417 62.9 237.9123ZM63.978127 237.9123Q63.978127 240.02167 64.47813 240.7248Q64.97813 241.42792 65.69688 241.42792Q66.43125 241.42792 66.91563 240.7248Q67.41563 240.02167 67.41563 237.9123Q67.41563 235.7873 66.91563 235.0998Q66.43125 234.39667 65.68125 234.39667Q64.9625 234.39667 64.525 235.00604Q63.978127 235.7873 63.978127 237.9123Z" fill-rule="nonzero"/><path fill="#000000" d="M55.9 216.15437L56.9625 216.01375Q57.134377 216.90437 57.571877 217.31062Q58.009377 217.70125 58.634377 217.70125Q59.384377 217.70125 59.9 217.18562Q60.415627 216.67 60.415627 215.90437Q60.415627 215.18562 59.93125 214.71687Q59.4625 214.2325 58.728127 214.2325Q58.43125 214.2325 57.978127 214.3575L58.103127 213.42Q58.2125 213.43562 58.275 213.43562Q58.946877 213.43562 59.478127 213.09187Q60.025 212.7325 60.025 211.99812Q60.025 211.42 59.634377 211.045Q59.24375 210.65437 58.61875 210.65437Q58.009377 210.65437 57.5875 211.045Q57.18125 211.43562 57.071877 212.20125L56.009377 212.01375Q56.196877 210.96687 56.884377 210.38875Q57.571877 209.795 58.5875 209.795Q59.290627 209.795 59.884377 210.1075Q60.478127 210.40437 60.790627 210.92Q61.103127 211.43562 61.103127 212.02937Q61.103127 212.57625 60.80625 213.045Q60.509377 213.49812 59.93125 213.76375Q60.68125 213.93562 61.103127 214.49812Q61.525 215.045 61.525 215.88875Q61.525 217.01375 60.696877 217.795Q59.884377 218.57625 58.634377 218.57625Q57.509377 218.57625 56.759377 217.90437Q56.009377 217.21687 55.9 216.15437ZM62.9 214.18562Q62.9 212.65437 63.2125 211.7325Q63.525 210.795 64.13438 210.295Q64.75938 209.795 65.69688 209.795Q66.38438 209.795 66.9 210.07625Q67.43125 210.3575 67.775 210.88875Q68.11875 211.40437 68.30625 212.15437Q68.49375 212.90437 68.49375 214.18562Q68.49375 215.70125 68.18125 216.62312Q67.88438 217.545 67.25938 218.06062Q66.65 218.56062 65.69688 218.56062Q64.4625 218.56062 63.74375 217.67Q62.9 216.6075 62.9 214.18562ZM63.978127 214.18562Q63.978127 216.295 64.47813 216.99812Q64.97813 217.70125 65.69688 217.70125Q66.43125 217.70125 66.91563 216.99812Q67.41563 216.295 67.41563 214.18562Q67.41563 212.06062 66.91563 211.37312Q66.43125 210.67 65.68125 210.67Q64.9625 210.67 64.525 211.27937Q63.978127 212.06062 63.978127 214.18562Z" fill-rule="nonzero"/><path fill="#000000" d="M59.275 194.69333L59.275 192.63083L55.55625 192.63083L55.55625 191.66208L59.478127 186.09958L60.3375 186.09958L60.3375 191.66208L61.49375 191.66208L61.49375 192.63083L60.3375 192.63083L60.3375 194.69333L59.275 194.69333ZM59.275 191.66208L59.275 187.8027L56.5875 191.66208L59.275 191.66208ZM62.9 190.45895Q62.9 188.9277 63.2125 188.00583Q63.525 187.06833 64.13438 186.56833Q64.75938 186.06833 65.69688 186.06833Q66.38438 186.06833 66.9 186.34958Q67.43125 186.63083 67.775 187.16208Q68.11875 187.6777 68.30625 188.4277Q68.49375 189.1777 68.49375 190.45895Q68.49375 191.97458 68.18125 192.89645Q67.88438 193.81833 67.25938 194.33395Q66.65 194.83395 65.69688 194.83395Q64.4625 194.83395 63.74375 193.94333Q62.9 192.88083 62.9 190.45895ZM63.978127 190.45895Q63.978127 192.56833 64.47813 193.27145Q64.97813 193.97458 65.69688 193.97458Q66.43125 193.97458 66.91563 193.27145Q67.41563 192.56833 67.41563 190.45895Q67.41563 188.33395 66.91563 187.64645Q66.43125 186.94333 65.68125 186.94333Q64.9625 186.94333 64.525 187.5527Q63.978127 188.33395 63.978127 190.45895Z" fill-rule="nonzero"/><path fill="#000000" d="M55.9 168.71666L57.009377 168.62291Q57.134377 169.43541 57.571877 169.84166Q58.025 170.24791 58.665627 170.24791Q59.415627 170.24791 59.946877 169.66978Q60.478127 169.09166 60.478127 168.15416Q60.478127 167.24791 59.9625 166.73228Q59.4625 166.20103 58.634377 166.20103Q58.134377 166.20103 57.7125 166.43541Q57.30625 166.66978 57.071877 167.02916L56.0875 166.90416L56.915627 162.49791L61.196877 162.49791L61.196877 163.49791L57.759377 163.49791L57.30625 165.81041Q58.071877 165.26353 58.915627 165.26353Q60.040627 165.26353 60.80625 166.04478Q61.5875 166.82603 61.5875 168.06041Q61.5875 169.21666 60.915627 170.07603Q60.0875 171.10728 58.665627 171.10728Q57.49375 171.10728 56.74375 170.45103Q56.009377 169.79478 55.9 168.71666ZM62.9 166.73228Q62.9 165.20103 63.2125 164.27916Q63.525 163.34166 64.13438 162.84166Q64.75938 162.34166 65.69688 162.34166Q66.38438 162.34166 66.9 162.62291Q67.43125 162.90416 67.775 163.43541Q68.11875 163.95103 68.30625 164.70103Q68.49375 165.45103 68.49375 166.73228Q68.49375 168.24791 68.18125 169.16978Q67.88438 170.09166 67.25938 170.60728Q66.65 171.10728 65.69688 171.10728Q64.4625 171.10728 63.74375 170.21666Q62.9 169.15416 62.9 166.73228ZM63.978127 166.73228Q63.978127 168.84166 64.47813 169.54478Q64.97813 170.24791 65.69688 170.24791Q66.43125 170.24791 66.91563 169.54478Q67.41563 168.84166 67.41563 166.73228Q67.41563 164.60728 66.91563 163.91978Q66.43125 163.21666 65.68125 163.21666Q64.9625 163.21666 64.525 163.82603Q63.978127 164.60728 63.978127 166.73228Z" fill-rule="nonzero"/><path fill="#000000" d="M61.36875 140.75563L60.321877 140.83376Q60.18125 140.20876 59.93125 139.9275Q59.49375 139.47438 58.86875 139.47438Q58.36875 139.47438 57.978127 139.75563Q57.49375 140.13063 57.196877 140.83376Q56.915627 141.52126 56.9 142.8025Q57.275 142.22438 57.821877 141.94313Q58.384377 141.66188 58.99375 141.66188Q60.040627 141.66188 60.775 142.44313Q61.525 143.22438 61.525 144.44313Q61.525 145.25563 61.165627 145.95876Q60.821877 146.64626 60.2125 147.02126Q59.603127 147.38063 58.8375 147.38063Q57.509377 147.38063 56.68125 146.41188Q55.853127 145.44313 55.853127 143.22438Q55.853127 140.72438 56.775 139.59938Q57.571877 138.615 58.93125 138.615Q59.946877 138.615 60.5875 139.19313Q61.24375 139.75563 61.36875 140.75563ZM57.071877 144.45876Q57.071877 145.00563 57.290627 145.50563Q57.525 145.99 57.93125 146.25563Q58.353127 146.52126 58.821877 146.52126Q59.478127 146.52126 59.9625 145.99Q60.446877 145.44313 60.446877 144.52126Q60.446877 143.63063 59.9625 143.115Q59.49375 142.59938 58.775 142.59938Q58.05625 142.59938 57.55625 143.115Q57.071877 143.63063 57.071877 144.45876ZM62.9 143.00563Q62.9 141.47438 63.2125 140.5525Q63.525 139.615 64.13438 139.115Q64.75938 138.615 65.69688 138.615Q66.38438 138.615 66.9 138.89626Q67.43125 139.1775 67.775 139.70876Q68.11875 140.22438 68.30625 140.97438Q68.49375 141.72438 68.49375 143.00563Q68.49375 144.52126 68.18125 145.44313Q67.88438 146.365 67.25938 146.88063Q66.65 147.38063 65.69688 147.38063Q64.4625 147.38063 63.74375 146.49Q62.9 145.4275 62.9 143.00563ZM63.978127 143.00563Q63.978127 145.115 64.47813 145.81813Q64.97813 146.52126 65.69688 146.52126Q66.43125 146.52126 66.91563 145.81813Q67.41563 145.115 67.41563 143.00563Q67.41563 140.88063 66.91563 140.19313Q66.43125 139.49 65.68125 139.49Q64.9625 139.49 64.525 140.09938Q63.978127 140.88063 63.978127 143.00563Z" fill-rule="nonzero"/><path fill="#000000" d="M55.9625 116.044586L55.9625 115.02896L61.525 115.02896L61.525 115.857086Q60.7125 116.732086 59.9 118.18521Q59.103127 119.62271 58.665627 121.15396Q58.3375 122.232086 58.259377 123.513336L57.165627 123.513336Q57.18125 122.49771 57.55625 121.06021Q57.946877 119.62271 58.65 118.294586Q59.36875 116.96646 60.18125 116.044586L55.9625 116.044586ZM62.9 119.27896Q62.9 117.74771 63.2125 116.825836Q63.525 115.888336 64.13438 115.388336Q64.75938 114.888336 65.69688 114.888336Q66.38438 114.888336 66.9 115.169586Q67.43125 115.450836 67.775 115.982086Q68.11875 116.49771 68.30625 117.24771Q68.49375 117.99771 68.49375 119.27896Q68.49375 120.794586 68.18125 121.71646Q67.88438 122.638336 67.25938 123.15396Q66.65 123.65396 65.69688 123.65396Q64.4625 123.65396 63.74375 122.763336Q62.9 121.700836 62.9 119.27896ZM63.978127 119.27896Q63.978127 121.388336 64.47813 122.09146Q64.97813 122.794586 65.69688 122.794586Q66.43125 122.794586 66.91563 122.09146Q67.41563 121.388336 67.41563 119.27896Q67.41563 117.15396 66.91563 116.46646Q66.43125 115.763336 65.68125 115.763336Q64.9625 115.763336 64.525 116.37271Q63.978127 117.15396 63.978127 119.27896Z" fill-rule="nonzero"/><path fill="#000000" d="M57.525 95.13042Q56.86875 94.88042 56.540627 94.44292Q56.228127 93.98979 56.228127 93.38042Q56.228127 92.44292 56.9 91.80229Q57.5875 91.16167 58.696877 91.16167Q59.821877 91.16167 60.509377 91.81792Q61.196877 92.47417 61.196877 93.41167Q61.196877 94.00542 60.884377 94.44292Q60.571877 94.88042 59.93125 95.13042Q60.728127 95.38042 61.134377 95.95854Q61.540627 96.53667 61.540627 97.33354Q61.540627 98.42729 60.759377 99.17729Q59.99375 99.92729 58.7125 99.92729Q57.446877 99.92729 56.665627 99.17729Q55.884377 98.42729 55.884377 97.30229Q55.884377 96.45854 56.30625 95.89604Q56.74375 95.33354 57.525 95.13042ZM57.30625 93.33354Q57.30625 93.94292 57.696877 94.33354Q58.103127 94.72417 58.728127 94.72417Q59.3375 94.72417 59.728127 94.34917Q60.11875 93.95854 60.11875 93.39604Q60.11875 92.81792 59.7125 92.42729Q59.30625 92.02104 58.7125 92.02104Q58.103127 92.02104 57.696877 92.41167Q57.30625 92.80229 57.30625 93.33354ZM56.978127 97.30229Q56.978127 97.75542 57.18125 98.17729Q57.4 98.59917 57.821877 98.83354Q58.24375 99.06792 58.728127 99.06792Q59.478127 99.06792 59.9625 98.58354Q60.4625 98.09917 60.4625 97.34917Q60.4625 96.58354 59.9625 96.08354Q59.4625 95.58354 58.696877 95.58354Q57.946877 95.58354 57.4625 96.08354Q56.978127 96.56792 56.978127 97.30229ZM62.9 95.55229Q62.9 94.02104 63.2125 93.09917Q63.525 92.16167 64.13438 91.66167Q64.75938 91.16167 65.69688 91.16167Q66.38438 91.16167 66.9 91.44292Q67.43125 91.72417 67.775 92.25542Q68.11875 92.77104 68.30625 93.52104Q68.49375 94.27104 68.49375 95.55229Q68.49375 97.06792 68.18125 97.98979Q67.88438 98.91167 67.25938 99.42729Q66.65 99.92729 65.69688 99.92729Q64.4625 99.92729 63.74375 99.03667Q62.9 97.97417 62.9 95.55229ZM63.978127 95.55229Q63.978127 97.66167 64.47813 98.36479Q64.97813 99.06792 65.69688 99.06792Q66.43125 99.06792 66.91563 98.36479Q67.41563 97.66167 67.41563 95.55229Q67.41563 93.42729 66.91563 92.73979Q66.43125 92.03667 65.68125 92.03667Q64.9625 92.03667 64.525 92.64604Q63.978127 93.42729 63.978127 95.55229Z" fill-rule="nonzero"/><path fill="#000000" d="M56.05625 74.07562L57.071877 73.98187Q57.196877 74.70062 57.55625 75.02875Q57.93125 75.34125 58.49375 75.34125Q58.978127 75.34125 59.3375 75.1225Q59.7125 74.88812 59.946877 74.52875Q60.18125 74.15375 60.3375 73.52875Q60.49375 72.88812 60.49375 72.23187Q60.49375 72.15375 60.49375 72.01312Q60.18125 72.51312 59.634377 72.84125Q59.0875 73.15375 58.446877 73.15375Q57.36875 73.15375 56.634377 72.38812Q55.9 71.60687 55.9 70.34125Q55.9 69.02875 56.665627 68.23187Q57.446877 67.435 58.603127 67.435Q59.43125 67.435 60.11875 67.88812Q60.821877 68.34125 61.18125 69.185Q61.540627 70.01312 61.540627 71.59125Q61.540627 73.23187 61.18125 74.21625Q60.8375 75.185 60.11875 75.70062Q59.415627 76.20062 58.478127 76.20062Q57.4625 76.20062 56.821877 75.65375Q56.18125 75.09125 56.05625 74.07562ZM60.36875 70.27875Q60.36875 69.3725 59.884377 68.84125Q59.415627 68.31 58.728127 68.31Q58.025 68.31 57.49375 68.88812Q56.978127 69.45062 56.978127 70.3725Q56.978127 71.185 57.478127 71.70062Q57.978127 72.21625 58.696877 72.21625Q59.43125 72.21625 59.9 71.70062Q60.36875 71.185 60.36875 70.27875ZM62.9 71.82562Q62.9 70.29437 63.2125 69.3725Q63.525 68.435 64.13438 67.935Q64.75938 67.435 65.69688 67.435Q66.38438 67.435 66.9 67.71625Q67.43125 67.9975 67.775 68.52875Q68.11875 69.04437 68.30625 69.79437Q68.49375 70.54437 68.49375 71.82562Q68.49375 73.34125 68.18125 74.26312Q67.88438 75.185 67.25938 75.70062Q66.65 76.20062 65.69688 76.20062Q64.4625 76.20062 63.74375 75.31Q62.9 74.2475 62.9 71.82562ZM63.978127 71.82562Q63.978127 73.935 64.47813 74.63812Q64.97813 75.34125 65.69688 75.34125Q66.43125 75.34125 66.91563 74.63812Q67.41563 73.935 67.41563 71.82562Q67.41563 69.70062 66.91563 69.01312Q66.43125 68.31 65.68125 68.31Q64.9625 68.31 64.525 68.91937Q63.978127 69.70062 63.978127 71.82562Z" fill-rule="nonzero"/><path fill="#000000" d="M52.86875 52.333332L51.821877 52.333332L51.821877 45.614582Q51.43125 45.973957 50.80625 46.348957Q50.196877 46.708332 49.7125 46.880207L49.7125 45.864582Q50.5875 45.442707 51.24375 44.864582Q51.915627 44.270832 52.196877 43.708332L52.86875 43.708332L52.86875 52.333332ZM55.9 48.098957Q55.9 46.567707 56.2125 45.645832Q56.525 44.708332 57.134377 44.208332Q57.759377 43.708332 58.696877 43.708332Q59.384377 43.708332 59.9 43.989582Q60.43125 44.270832 60.775 44.802082Q61.11875 45.317707 61.30625 46.067707Q61.49375 46.817707 61.49375 48.098957Q61.49375 49.614582 61.18125 50.536457Q60.884377 51.458332 60.259377 51.973957Q59.65 52.473957 58.696877 52.473957Q57.4625 52.473957 56.74375 51.583332Q55.9 50.520832 55.9 48.098957ZM56.978127 48.098957Q56.978127 50.208332 57.478127 50.911457Q57.978127 51.614582 58.696877 51.614582Q59.43125 51.614582 59.915627 50.911457Q60.415627 50.208332 60.415627 48.098957Q60.415627 45.973957 59.915627 45.286457Q59.43125 44.583332 58.68125 44.583332Q57.9625 44.583332 57.525 45.192707Q56.978127 45.973957 56.978127 48.098957ZM62.9 48.098957Q62.9 46.567707 63.2125 45.645832Q63.525 44.708332 64.13438 44.208332Q64.75938 43.708332 65.69688 43.708332Q66.38438 43.708332 66.9 43.989582Q67.43125 44.270832 67.775 44.802082Q68.11875 45.317707 68.30625 46.067707Q68.49375 46.817707 68.49375 48.098957Q68.49375 49.614582 68.18125 50.536457Q67.88438 51.458332 67.25938 51.973957Q66.65 52.473957 65.69688 52.473957Q64.4625 52.473957 63.74375 51.583332Q62.9 50.520832 62.9 48.098957ZM63.978127 48.098957Q63.978127 50.208332 64.47813 50.911457Q64.97813 51.614582 65.69688 51.614582Q66.43125 51.614582 66.91563 50.911457Q67.41563 50.208332 67.41563 48.098957Q67.41563 45.973957 66.91563 45.286457Q66.43125 44.583332 65.68125 44.583332Q64.9625 44.583332 64.525 45.192707Q63.978127 45.973957 63.978127 48.098957Z" fill-rule="nonzero"/><path fill="#000000" d="M104.366875 305.83438L105.429375 305.74063Q105.5075 306.39688 105.78875 306.80313Q106.07 307.20938 106.648125 307.475Q107.241875 307.725 107.97625 307.725Q108.616875 307.725 109.116875 307.5375Q109.616875 307.33438 109.85125 307.00626Q110.10125 306.6625 110.10125 306.27188Q110.10125 305.86563 109.866875 305.56876Q109.6325 305.25626 109.10125 305.05313Q108.741875 304.9125 107.554375 304.63126Q106.3825 304.35 105.91375 304.1Q105.28875 303.77188 104.991875 303.30313Q104.695 302.81876 104.695 302.225Q104.695 301.58438 105.054375 301.02188Q105.429375 300.44376 106.1325 300.1625Q106.85125 299.86563 107.710625 299.86563Q108.66375 299.86563 109.398125 300.17813Q110.1325 300.475 110.523125 301.08438Q110.91375 301.67813 110.945 302.42813L109.85125 302.50626Q109.7575 301.69376 109.241875 301.2875Q108.741875 300.86563 107.7575 300.86563Q106.72625 300.86563 106.2575 301.24063Q105.78875 301.61563 105.78875 302.14688Q105.78875 302.61563 106.116875 302.9125Q106.445 303.20938 107.82 303.52188Q109.210625 303.83438 109.72625 304.06876Q110.47625 304.42813 110.835625 304.95938Q111.195 305.475 111.195 306.17813Q111.195 306.86563 110.804375 307.475Q110.41375 308.06876 109.679375 308.4125Q108.945 308.74063 108.023125 308.74063Q106.85125 308.74063 106.054375 308.4125Q105.273125 308.06876 104.82 307.38126Q104.3825 306.69376 104.366875 305.83438ZM112.616875 310.99063L112.616875 302.38126L113.57 302.38126L113.57 303.17813Q113.91375 302.70938 114.335625 302.475Q114.773125 302.24063 115.3825 302.24063Q116.179375 302.24063 116.78875 302.64688Q117.398125 303.05313 117.695 303.80313Q118.0075 304.55313 118.0075 305.44376Q118.0075 306.39688 117.66375 307.1625Q117.335625 307.92813 116.679375 308.33438Q116.023125 308.74063 115.304375 308.74063Q114.773125 308.74063 114.35125 308.52188Q113.929375 308.2875 113.66375 307.95938L113.66375 310.99063L112.616875 310.99063ZM113.57 305.52188Q113.57 306.725 114.054375 307.30313Q114.53875 307.86563 115.22625 307.86563Q115.929375 307.86563 116.429375 307.27188Q116.929375 306.67813 116.929375 305.42813Q116.929375 304.24063 116.445 303.6625Q115.960625 303.06876 115.273125 303.06876Q114.60125 303.06876 114.085625 303.69376Q113.57 304.31876 113.57 305.52188ZM119.60125 308.6L119.60125 302.38126L120.554375 302.38126L120.554375 303.31876Q120.91375 302.6625 121.210625 302.45938Q121.523125 302.24063 121.898125 302.24063Q122.429375 302.24063 122.97625 302.56876L122.616875 303.55313Q122.22625 303.31876 121.85125 303.31876Q121.491875 303.31876 121.210625 303.5375Q120.945 303.74063 120.835625 304.11563Q120.648125 304.67813 120.648125 305.33438L120.648125 308.6L119.60125 308.6ZM123.616875 301.225L123.616875 300.00626L124.679375 300.00626L124.679375 301.225L123.616875 301.225ZM123.616875 308.6L123.616875 302.38126L124.679375 302.38126L124.679375 308.6L123.616875 308.6ZM126.616875 308.6L126.616875 302.38126L127.554375 302.38126L127.554375 303.25626Q128.24188 302.24063 129.53876 302.24063Q130.10126 302.24063 130.57 302.44376Q131.05438 302.64688 131.28876 302.975Q131.52313 303.30313 131.61688 303.74063Q131.66376 304.0375 131.66376 304.77188L131.66376 308.6L130.61688 308.6L130.61688 304.81876Q130.61688 304.1625 130.49188 303.85Q130.36688 303.5375 130.05438 303.35Q129.74188 303.14688 129.32 303.14688Q128.64813 303.14688 128.14813 303.58438Q127.66375 304.00626 127.66375 305.19376L127.66375 308.6L126.616875 308.6ZM135.91376 307.6625L136.07 308.58438Q135.61688 308.67813 135.27313 308.67813Q134.695 308.67813 134.3825 308.50626Q134.07 308.31876 133.92938 308.02188Q133.80438 307.725 133.80438 306.77188L133.80438 303.19376L133.03876 303.19376L133.03876 302.38126L133.80438 302.38126L133.80438 300.83438L134.85126 300.20938L134.85126 302.38126L135.91376 302.38126L135.91376 303.19376L134.85126 303.19376L134.85126 306.83438Q134.85126 307.2875 134.89813 307.4125Q134.96063 307.5375 135.08563 307.61563Q135.21063 307.69376 135.445 307.69376Q135.6325 307.69376 135.91376 307.6625ZM143.28876 308.6L142.24188 308.6L142.24188 301.88126Q141.85126 302.24063 141.22626 302.61563Q140.61688 302.975 140.1325 303.14688L140.1325 302.13126Q141.0075 301.70938 141.66376 301.13126Q142.33563 300.5375 142.61688 299.975L143.28876 299.975L143.28876 308.6Z" fill-rule="nonzero"/><path fill="#000000" d="M191.20688 305.83438L192.26938 305.74063Q192.3475 306.39688 192.62875 306.80313Q192.91 307.20938 193.48813 307.475Q194.08188 307.725 194.81625 307.725Q195.45688 307.725 195.95688 307.5375Q196.45688 307.33438 196.69125 307.00626Q196.94125 306.6625 196.94125 306.27188Q196.94125 305.86563 196.70688 305.56876Q196.4725 305.25626 195.94125 305.05313Q195.58188 304.9125 194.39438 304.63126Q193.2225 304.35 192.75375 304.1Q192.12875 303.77188 191.83188 303.30313Q191.535 302.81876 191.535 302.225Q191.535 301.58438 191.89438 301.02188Q192.26938 300.44376 192.9725 300.1625Q193.69125 299.86563 194.55063 299.86563Q195.50375 299.86563 196.23813 300.17813Q196.9725 300.475 197.36313 301.08438Q197.75375 301.67813 197.785 302.42813L196.69125 302.50626Q196.5975 301.69376 196.08188 301.2875Q195.58188 300.86563 194.5975 300.86563Q193.56625 300.86563 193.0975 301.24063Q192.62875 301.61563 192.62875 302.14688Q192.62875 302.61563 192.95688 302.9125Q193.285 303.20938 194.66 303.52188Q196.05063 303.83438 196.56625 304.06876Q197.31625 304.42813 197.67563 304.95938Q198.035 305.475 198.035 306.17813Q198.035 306.86563 197.64438 307.475Q197.25375 308.06876 196.51938 308.4125Q195.785 308.74063 194.86313 308.74063Q193.69125 308.74063 192.89438 308.4125Q192.11313 308.06876 191.66 307.38126Q191.2225 306.69376 191.20688 305.83438ZM199.45688 310.99063L199.45688 302.38126L200.41 302.38126L200.41 303.17813Q200.75375 302.70938 201.17563 302.475Q201.61313 302.24063 202.2225 302.24063Q203.01938 302.24063 203.62875 302.64688Q204.23813 303.05313 204.535 303.80313Q204.8475 304.55313 204.8475 305.44376Q204.8475 306.39688 204.50375 307.1625Q204.17563 307.92813 203.51938 308.33438Q202.86313 308.74063 202.14438 308.74063Q201.61313 308.74063 201.19125 308.52188Q200.76938 308.2875 200.50375 307.95938L200.50375 310.99063L199.45688 310.99063ZM200.41 305.52188Q200.41 306.725 200.89438 307.30313Q201.37875 307.86563 202.06625 307.86563Q202.76938 307.86563 203.26938 307.27188Q203.76938 306.67813 203.76938 305.42813Q203.76938 304.24063 203.285 303.6625Q202.80063 303.06876 202.11313 303.06876Q201.44125 303.06876 200.92563 303.69376Q200.41 304.31876 200.41 305.52188ZM206.44125 308.6L206.44125 302.38126L207.39438 302.38126L207.39438 303.31876Q207.75375 302.6625 208.05063 302.45938Q208.36313 302.24063 208.73813 302.24063Q209.26938 302.24063 209.81625 302.56876L209.45688 303.55313Q209.06625 303.31876 208.69125 303.31876Q208.33188 303.31876 208.05063 303.5375Q207.785 303.74063 207.67563 304.11563Q207.48813 304.67813 207.48813 305.33438L207.48813 308.6L206.44125 308.6ZM210.45688 301.225L210.45688 300.00626L211.51938 300.00626L211.51938 301.225L210.45688 301.225ZM210.45688 308.6L210.45688 302.38126L211.51938 302.38126L211.51938 308.6L210.45688 308.6ZM213.45688 308.6L213.45688 302.38126L214.39438 302.38126L214.39438 303.25626Q215.08188 302.24063 216.37875 302.24063Q216.94125 302.24063 217.41 302.44376Q217.89438 302.64688 218.12875 302.975Q218.36313 303.30313 218.45688 303.74063Q218.50375 304.0375 218.50375 304.77188L218.50375 308.6L217.45688 308.6L217.45688 304.81876Q217.45688 304.1625 217.33188 303.85Q217.20688 303.5375 216.89438 303.35Q216.58188 303.14688 216.16 303.14688Q215.48813 303.14688 214.98813 303.58438Q214.50375 304.00626 214.50375 305.19376L214.50375 308.6L213.45688 308.6ZM222.75375 307.6625L222.91 308.58438Q222.45688 308.67813 222.11313 308.67813Q221.535 308.67813 221.2225 308.50626Q220.91 308.31876 220.76938 308.02188Q220.64438 307.725 220.64438 306.77188L220.64438 303.19376L219.87875 303.19376L219.87875 302.38126L220.64438 302.38126L220.64438 300.83438L221.69125 300.20938L221.69125 302.38126L222.75375 302.38126L222.75375 303.19376L221.69125 303.19376L221.69125 306.83438Q221.69125 307.2875 221.73813 307.4125Q221.80063 307.5375 221.92563 307.61563Q222.05063 307.69376 222.285 307.69376Q222.4725 307.69376 222.75375 307.6625ZM231.70688 307.58438L231.70688 308.6L226.01938 308.6Q226.01938 308.225 226.14438 307.86563Q226.36313 307.2875 226.83188 306.725Q227.31625 306.1625 228.2225 305.42813Q229.62875 304.27188 230.11313 303.6Q230.61313 302.92813 230.61313 302.33438Q230.61313 301.70938 230.16 301.2875Q229.70688 300.85 228.98813 300.85Q228.2225 300.85 227.76938 301.30313Q227.31625 301.75626 227.30063 302.56876L226.2225 302.45938Q226.33188 301.24063 227.05063 300.61563Q227.785 299.975 229.01938 299.975Q230.25375 299.975 230.9725 300.6625Q231.69125 301.35 231.69125 302.36563Q231.69125 302.88126 231.4725 303.38126Q231.26938 303.86563 230.76938 304.42813Q230.285 304.975 229.16 305.92813Q228.20688 306.725 227.92563 307.02188Q227.66 307.30313 227.48813 307.58438L231.70688 307.58438Z" fill-rule="nonzero"/><path fill="#000000" d="M278.04688 305.83438L279.10938 305.74063Q279.1875 306.39688 279.46875 306.80313Q279.75 307.20938 280.32812 307.475Q280.92188 307.725 281.65625 307.725Q282.29688 307.725 282.79688 307.5375Q283.29688 307.33438 283.53125 307.00626Q283.78125 306.6625 283.78125 306.27188Q283.78125 305.86563 283.54688 305.56876Q283.3125 305.25626 282.78125 305.05313Q282.42188 304.9125 281.23438 304.63126Q280.0625 304.35 279.59375 304.1Q278.96875 303.77188 278.67188 303.30313Q278.375 302.81876 278.375 302.225Q278.375 301.58438 278.73438 301.02188Q279.10938 300.44376 279.8125 300.1625Q280.53125 299.86563 281.39062 299.86563Q282.34375 299.86563 283.07812 300.17813Q283.8125 300.475 284.20312 301.08438Q284.59375 301.67813 284.625 302.42813L283.53125 302.50626Q283.4375 301.69376 282.92188 301.2875Q282.42188 300.86563 281.4375 300.86563Q280.40625 300.86563 279.9375 301.24063Q279.46875 301.61563 279.46875 302.14688Q279.46875 302.61563 279.79688 302.9125Q280.125 303.20938 281.5 303.52188Q282.89062 303.83438 283.40625 304.06876Q284.15625 304.42813 284.51562 304.95938Q284.875 305.475 284.875 306.17813Q284.875 306.86563 284.48438 307.475Q284.09375 308.06876 283.35938 308.4125Q282.625 308.74063 281.70312 308.74063Q280.53125 308.74063 279.73438 308.4125Q278.95312 308.06876 278.5 307.38126Q278.0625 306.69376 278.04688 305.83438ZM286.29688 310.99063L286.29688 302.38126L287.25 302.38126L287.25 303.17813Q287.59375 302.70938 288.01562 302.475Q288.45312 302.24063 289.0625 302.24063Q289.85938 302.24063 290.46875 302.64688Q291.07812 303.05313 291.375 303.80313Q291.6875 304.55313 291.6875 305.44376Q291.6875 306.39688 291.34375 307.1625Q291.01562 307.92813 290.35938 308.33438Q289.70312 308.74063 288.98438 308.74063Q288.45312 308.74063 288.03125 308.52188Q287.60938 308.2875 287.34375 307.95938L287.34375 310.99063L286.29688 310.99063ZM287.25 305.52188Q287.25 306.725 287.73438 307.30313Q288.21875 307.86563 288.90625 307.86563Q289.60938 307.86563 290.10938 307.27188Q290.60938 306.67813 290.60938 305.42813Q290.60938 304.24063 290.125 303.6625Q289.64062 303.06876 288.95312 303.06876Q288.28125 303.06876 287.76562 303.69376Q287.25 304.31876 287.25 305.52188ZM293.28125 308.6L293.28125 302.38126L294.23438 302.38126L294.23438 303.31876Q294.59375 302.6625 294.89062 302.45938Q295.20312 302.24063 295.57812 302.24063Q296.10938 302.24063 296.65625 302.56876L296.29688 303.55313Q295.90625 303.31876 295.53125 303.31876Q295.17188 303.31876 294.89062 303.5375Q294.625 303.74063 294.51562 304.11563Q294.32812 304.67813 294.32812 305.33438L294.32812 308.6L293.28125 308.6ZM297.29688 301.225L297.29688 300.00626L298.35938 300.00626L298.35938 301.225L297.29688 301.225ZM297.29688 308.6L297.29688 302.38126L298.35938 302.38126L298.35938 308.6L297.29688 308.6ZM300.29688 308.6L300.29688 302.38126L301.23438 302.38126L301.23438 303.25626Q301.92188 302.24063 303.21875 302.24063Q303.78125 302.24063 304.25 302.44376Q304.73438 302.64688 304.96875 302.975Q305.20312 303.30313 305.29688 303.74063Q305.34375 304.0375 305.34375 304.77188L305.34375 308.6L304.29688 308.6L304.29688 304.81876Q304.29688 304.1625 304.17188 303.85Q304.04688 303.5375 303.73438 303.35Q303.42188 303.14688 303.0 303.14688Q302.32812 303.14688 301.82812 303.58438Q301.34375 304.00626 301.34375 305.19376L301.34375 308.6L300.29688 308.6ZM309.59375 307.6625L309.75 308.58438Q309.29688 308.67813 308.95312 308.67813Q308.375 308.67813 308.0625 308.50626Q307.75 308.31876 307.60938 308.02188Q307.48438 307.725 307.48438 306.77188L307.48438 303.19376L306.71875 303.19376L306.71875 302.38126L307.48438 302.38126L307.48438 300.83438L308.53125 300.20938L308.53125 302.38126L309.59375 302.38126L309.59375 303.19376L308.53125 303.19376L308.53125 306.83438Q308.53125 307.2875 308.57812 307.4125Q308.64062 307.5375 308.76562 307.61563Q308.89062 307.69376 309.125 307.69376Q309.3125 307.69376 309.59375 307.6625ZM313.0 306.33438L314.0625 306.19376Q314.23438 307.08438 314.67188 307.49063Q315.10938 307.88126 315.73438 307.88126Q316.48438 307.88126 317.0 307.36563Q317.51562 306.85 317.51562 306.08438Q317.51562 305.36563 317.03125 304.89688Q316.5625 304.4125 315.82812 304.4125Q315.53125 304.4125 315.07812 304.5375L315.20312 303.6Q315.3125 303.61563 315.375 303.61563Q316.04688 303.61563 316.57812 303.27188Q317.125 302.9125 317.125 302.17813Q317.125 301.6 316.73438 301.225Q316.34375 300.83438 315.71875 300.83438Q315.10938 300.83438 314.6875 301.225Q314.28125 301.61563 314.17188 302.38126L313.10938 302.19376Q313.29688 301.14688 313.98438 300.56876Q314.67188 299.975 315.6875 299.975Q316.39062 299.975 316.98438 300.2875Q317.57812 300.58438 317.89062 301.1Q318.20312 301.61563 318.20312 302.20938Q318.20312 302.75626 317.90625 303.225Q317.60938 303.67813 317.03125 303.94376Q317.78125 304.11563 318.20312 304.67813Q318.625 305.225 318.625 306.06876Q318.625 307.19376 317.79688 307.975Q316.98438 308.75626 315.73438 308.75626Q314.60938 308.75626 313.85938 308.08438Q313.10938 307.39688 313.0 306.33438Z" fill-rule="nonzero"/><path fill="#000000" d="M364.88687 305.83438L365.94937 305.74063Q366.0275 306.39688 366.30875 306.80313Q366.59 307.20938 367.16812 307.475Q367.76187 307.725 368.49625 307.725Q369.13687 307.725 369.63687 307.5375Q370.13687 307.33438 370.37125 307.00626Q370.62125 306.6625 370.62125 306.27188Q370.62125 305.86563 370.38687 305.56876Q370.1525 305.25626 369.62125 305.05313Q369.26187 304.9125 368.07437 304.63126Q366.9025 304.35 366.43375 304.1Q365.80875 303.77188 365.51187 303.30313Q365.215 302.81876 365.215 302.225Q365.215 301.58438 365.57437 301.02188Q365.94937 300.44376 366.6525 300.1625Q367.37125 299.86563 368.23062 299.86563Q369.18375 299.86563 369.91812 300.17813Q370.6525 300.475 371.04312 301.08438Q371.43375 301.67813 371.465 302.42813L370.37125 302.50626Q370.2775 301.69376 369.76187 301.2875Q369.26187 300.86563 368.2775 300.86563Q367.24625 300.86563 366.7775 301.24063Q366.30875 301.61563 366.30875 302.14688Q366.30875 302.61563 366.63687 302.9125Q366.965 303.20938 368.34 303.52188Q369.73062 303.83438 370.24625 304.06876Q370.99625 304.42813 371.35562 304.95938Q371.715 305.475 371.715 306.17813Q371.715 306.86563 371.32437 307.475Q370.93375 308.06876 370.19937 308.4125Q369.465 308.74063 368.54312 308.74063Q367.37125 308.74063 366.57437 308.4125Q365.79312 308.06876 365.34 307.38126Q364.9025 306.69376 364.88687 305.83438ZM373.13687 310.99063L373.13687 302.38126L374.09 302.38126L374.09 303.17813Q374.43375 302.70938 374.85562 302.475Q375.29312 302.24063 375.9025 302.24063Q376.69937 302.24063 377.30875 302.64688Q377.91812 303.05313 378.215 303.80313Q378.5275 304.55313 378.5275 305.44376Q378.5275 306.39688 378.18375 307.1625Q377.85562 307.92813 377.19937 308.33438Q376.54312 308.74063 375.82437 308.74063Q375.29312 308.74063 374.87125 308.52188Q374.44937 308.2875 374.18375 307.95938L374.18375 310.99063L373.13687 310.99063ZM374.09 305.52188Q374.09 306.725 374.57437 307.30313Q375.05875 307.86563 375.74625 307.86563Q376.44937 307.86563 376.94937 307.27188Q377.44937 306.67813 377.44937 305.42813Q377.44937 304.24063 376.965 303.6625Q376.48062 303.06876 375.79312 303.06876Q375.12125 303.06876 374.60562 303.69376Q374.09 304.31876 374.09 305.52188ZM380.12125 308.6L380.12125 302.38126L381.07437 302.38126L381.07437 303.31876Q381.43375 302.6625 381.73062 302.45938Q382.04312 302.24063 382.41812 302.24063Q382.94937 302.24063 383.49625 302.56876L383.13687 303.55313Q382.74625 303.31876 382.37125 303.31876Q382.01187 303.31876 381.73062 303.5375Q381.465 303.74063 381.35562 304.11563Q381.16812 304.67813 381.16812 305.33438L381.16812 308.6L380.12125 308.6ZM384.13687 301.225L384.13687 300.00626L385.19937 300.00626L385.19937 301.225L384.13687 301.225ZM384.13687 308.6L384.13687 302.38126L385.19937 302.38126L385.19937 308.6L384.13687 308.6ZM387.13687 308.6L387.13687 302.38126L388.07437 302.38126L388.07437 303.25626Q388.76187 302.24063 390.05875 302.24063Q390.62125 302.24063 391.09 302.44376Q391.57437 302.64688 391.80875 302.975Q392.04312 303.30313 392.13687 303.74063Q392.18375 304.0375 392.18375 304.77188L392.18375 308.6L391.13687 308.6L391.13687 304.81876Q391.13687 304.1625 391.01187 303.85Q390.88687 303.5375 390.57437 303.35Q390.26187 303.14688 389.84 303.14688Q389.16812 303.14688 388.66812 303.58438Q388.18375 304.00626 388.18375 305.19376L388.18375 308.6L387.13687 308.6ZM396.43375 307.6625L396.59 308.58438Q396.13687 308.67813 395.79312 308.67813Q395.215 308.67813 394.9025 308.50626Q394.59 308.31876 394.44937 308.02188Q394.32437 307.725 394.32437 306.77188L394.32437 303.19376L393.55875 303.19376L393.55875 302.38126L394.32437 302.38126L394.32437 300.83438L395.37125 300.20938L395.37125 302.38126L396.43375 302.38126L396.43375 303.19376L395.37125 303.19376L395.37125 306.83438Q395.37125 307.2875 395.41812 307.4125Q395.48062 307.5375 395.60562 307.61563Q395.73062 307.69376 395.965 307.69376Q396.1525 307.69376 396.43375 307.6625ZM403.215 308.6L403.215 306.5375L399.49625 306.5375L399.49625 305.56876L403.41812 300.00626L404.2775 300.00626L404.2775 305.56876L405.43375 305.56876L405.43375 306.5375L404.2775 306.5375L404.2775 308.6L403.215 308.6ZM403.215 305.56876L403.215 301.70938L400.5275 305.56876L403.215 305.56876Z" fill-rule="nonzero"/><path fill="#000000" d="M451.72687 305.83438L452.78937 305.74063Q452.8675 306.39688 453.14874 306.80313Q453.43 307.20938 454.00812 307.475Q454.60187 307.725 455.33624 307.725Q455.97687 307.725 456.47687 307.5375Q456.97687 307.33438 457.21124 307.00626Q457.46124 306.6625 457.46124 306.27188Q457.46124 305.86563 457.22687 305.56876Q456.9925 305.25626 456.46124 305.05313Q456.10187 304.9125 454.91437 304.63126Q453.7425 304.35 453.27374 304.1Q452.64874 303.77188 452.35187 303.30313Q452.055 302.81876 452.055 302.225Q452.055 301.58438 452.41437 301.02188Q452.78937 300.44376 453.4925 300.1625Q454.21124 299.86563 455.07062 299.86563Q456.02374 299.86563 456.75812 300.17813Q457.4925 300.475 457.88312 301.08438Q458.27374 301.67813 458.305 302.42813L457.21124 302.50626Q457.1175 301.69376 456.60187 301.2875Q456.10187 300.86563 455.1175 300.86563Q454.08624 300.86563 453.6175 301.24063Q453.14874 301.61563 453.14874 302.14688Q453.14874 302.61563 453.47687 302.9125Q453.805 303.20938 455.18 303.52188Q456.57062 303.83438 457.08624 304.06876Q457.83624 304.42813 458.19562 304.95938Q458.555 305.475 458.555 306.17813Q458.555 306.86563 458.16437 307.475Q457.77374 308.06876 457.03937 308.4125Q456.305 308.74063 455.38312 308.74063Q454.21124 308.74063 453.41437 308.4125Q452.63312 308.06876 452.18 307.38126Q451.7425 306.69376 451.72687 305.83438ZM459.97687 310.99063L459.97687 302.38126L460.93 302.38126L460.93 303.17813Q461.27374 302.70938 461.69562 302.475Q462.13312 302.24063 462.7425 302.24063Q463.53937 302.24063 464.14874 302.64688Q464.75812 303.05313 465.055 303.80313Q465.3675 304.55313 465.3675 305.44376Q465.3675 306.39688 465.02374 307.1625Q464.69562 307.92813 464.03937 308.33438Q463.38312 308.74063 462.66437 308.74063Q462.13312 308.74063 461.71124 308.52188Q461.28937 308.2875 461.02374 307.95938L461.02374 310.99063L459.97687 310.99063ZM460.93 305.52188Q460.93 306.725 461.41437 307.30313Q461.89874 307.86563 462.58624 307.86563Q463.28937 307.86563 463.78937 307.27188Q464.28937 306.67813 464.28937 305.42813Q464.28937 304.24063 463.805 303.6625Q463.32062 303.06876 462.63312 303.06876Q461.96124 303.06876 461.44562 303.69376Q460.93 304.31876 460.93 305.52188ZM466.96124 308.6L466.96124 302.38126L467.91437 302.38126L467.91437 303.31876Q468.27374 302.6625 468.57062 302.45938Q468.88312 302.24063 469.25812 302.24063Q469.78937 302.24063 470.33624 302.56876L469.97687 303.55313Q469.58624 303.31876 469.21124 303.31876Q468.85187 303.31876 468.57062 303.5375Q468.305 303.74063 468.19562 304.11563Q468.00812 304.67813 468.00812 305.33438L468.00812 308.6L466.96124 308.6ZM470.97687 301.225L470.97687 300.00626L472.03937 300.00626L472.03937 301.225L470.97687 301.225ZM470.97687 308.6L470.97687 302.38126L472.03937 302.38126L472.03937 308.6L470.97687 308.6ZM473.97687 308.6L473.97687 302.38126L474.91437 302.38126L474.91437 303.25626Q475.60187 302.24063 476.89874 302.24063Q477.46124 302.24063 477.93 302.44376Q478.41437 302.64688 478.64874 302.975Q478.88312 303.30313 478.97687 303.74063Q479.02374 304.0375 479.02374 304.77188L479.02374 308.6L477.97687 308.6L477.97687 304.81876Q477.97687 304.1625 477.85187 303.85Q477.72687 303.5375 477.41437 303.35Q477.10187 303.14688 476.68 303.14688Q476.00812 303.14688 475.50812 303.58438Q475.02374 304.00626 475.02374 305.19376L475.02374 308.6L473.97687 308.6ZM483.27374 307.6625L483.43 308.58438Q482.97687 308.67813 482.63312 308.67813Q482.055 308.67813 481.7425 308.50626Q481.43 308.31876 481.28937 308.02188Q481.16437 307.725 481.16437 306.77188L481.16437 303.19376L480.39874 303.19376L480.39874 302.38126L481.16437 302.38126L481.16437 300.83438L482.21124 300.20938L482.21124 302.38126L483.27374 302.38126L483.27374 303.19376L482.21124 303.19376L482.21124 306.83438Q482.21124 307.2875 482.25812 307.4125Q482.32062 307.5375 482.44562 307.61563Q482.57062 307.69376 482.805 307.69376Q482.9925 307.69376 483.27374 307.6625ZM486.68 306.35L487.78937 306.25626Q487.91437 307.06876 488.35187 307.475Q488.805 307.88126 489.44562 307.88126Q490.19562 307.88126 490.72687 307.30313Q491.25812 306.725 491.25812 305.7875Q491.25812 304.88126 490.7425 304.36563Q490.2425 303.83438 489.41437 303.83438Q488.91437 303.83438 488.4925 304.06876Q488.08624 304.30313 487.85187 304.6625L486.8675 304.5375L487.69562 300.13126L491.97687 300.13126L491.97687 301.13126L488.53937 301.13126L488.08624 303.44376Q488.85187 302.89688 489.69562 302.89688Q490.82062 302.89688 491.58624 303.67813Q492.3675 304.45938 492.3675 305.69376Q492.3675 306.85 491.69562 307.70938Q490.8675 308.74063 489.44562 308.74063Q488.27374 308.74063 487.52374 308.08438Q486.78937 307.42813 486.68 306.35Z" fill-rule="nonzero"/><path fill="#4285f4" d="M139.0 23.4C139.0 26.713709 136.3137 29.4 133.0 29.4C129.6863 29.4 127.0 26.713709 127.0 23.4C127.0 20.086292 129.6863 17.4 133.0 17.4C136.3137 17.4 139.0 20.086292 139.0 23.4Z" fill-rule="nonzero"/><path fill="#1a1a1a" d="M147.95312 27.4L147.95312 18.80625L154.15625 18.80625L154.15625 19.821875L149.09375 19.821875L149.09375 22.446875L153.84375 22.446875L153.84375 23.4625L149.09375 23.4625L149.09375 26.384375L154.35938 26.384375L154.35938 27.4L147.95312 27.4ZM158.10938 27.4L158.10938 19.821875L155.28125 19.821875L155.28125 18.80625L162.09375 18.80625L162.09375 19.821875L159.25 19.821875L159.25 27.4L158.10938 27.4Z" fill-rule="nonzero"/><path fill="#ea4335" d="M190.0 23.4C190.0 26.713709 187.3137 29.4 184.0 29.4C180.6863 29.4 178.0 26.713709 178.0 23.4C178.0 20.086292 180.6863 17.4 184.0 17.4C187.3137 17.4 190.0 20.086292 190.0 23.4Z" fill-rule="nonzero"/><path fill="#1a1a1a" d="M201.375 27.4L198.04688 18.80625L199.28125 18.80625L201.51562 25.05625Q201.78125 25.80625 201.96875 26.4625Q202.17188 25.759375 202.4375 25.05625L204.75 18.80625L205.90625 18.80625L202.54688 27.4L201.375 27.4ZM209.85938 26.634375Q209.26562 27.134375 208.71875 27.3375Q208.1875 27.540625 207.5625 27.540625Q206.53125 27.540625 205.98438 27.040625Q205.4375 26.540625 205.4375 25.759375Q205.4375 25.30625 205.64062 24.93125Q205.84375 24.540625 206.1875 24.321875Q206.53125 24.0875 206.95312 23.978125Q207.25 23.884375 207.89062 23.80625Q209.15625 23.665625 209.76562 23.446875Q209.76562 23.228125 209.76562 23.18125Q209.76562 22.525 209.46875 22.259375Q209.0625 21.915625 208.26562 21.915625Q207.53125 21.915625 207.17188 22.18125Q206.8125 22.43125 206.64062 23.0875L205.60938 22.946875Q205.75 22.290625 206.07812 21.884375Q206.40625 21.478125 207.01562 21.259375Q207.625 21.040625 208.42188 21.040625Q209.21875 21.040625 209.71875 21.228125Q210.21875 21.415625 210.45312 21.696875Q210.6875 21.978125 210.78125 22.415625Q210.82812 22.68125 210.82812 23.384375L210.82812 24.790625Q210.82812 26.259375 210.89062 26.65Q210.96875 27.040625 211.17188 27.4L210.0625 27.4Q209.90625 27.071875 209.85938 26.634375ZM209.76562 24.275Q209.1875 24.509375 208.04688 24.68125Q207.39062 24.775 207.125 24.9Q206.85938 25.009375 206.70312 25.228125Q206.5625 25.446875 206.5625 25.728125Q206.5625 26.15 206.875 26.43125Q207.20312 26.7125 207.8125 26.7125Q208.42188 26.7125 208.89062 26.446875Q209.375 26.18125 209.59375 25.7125Q209.76562 25.353125 209.76562 24.665625L209.76562 24.275ZM212.76562 27.4L212.76562 18.80625L213.82812 18.80625L213.82812 27.4L212.76562 27.4ZM215.40625 24.290625Q215.40625 22.55625 216.35938 21.728125Q217.15625 21.040625 218.3125 21.040625Q219.59375 21.040625 220.40625 21.884375Q221.23438 22.7125 221.23438 24.196875Q221.23438 25.4 220.875 26.0875Q220.51562 26.775 219.8125 27.165625Q219.125 27.540625 218.3125 27.540625Q217.01562 27.540625 216.20312 26.7125Q215.40625 25.86875 215.40625 24.290625ZM216.48438 24.290625Q216.48438 25.478125 217.0 26.071875Q217.53125 26.665625 218.3125 26.665625Q219.10938 26.665625 219.625 26.071875Q220.14062 25.478125 220.14062 24.259375Q220.14062 23.103125 219.60938 22.509375Q219.09375 21.915625 218.3125 21.915625Q217.53125 21.915625 217.0 22.509375Q216.48438 23.0875 216.48438 24.290625ZM222.78125 27.4L222.78125 21.18125L223.73438 21.18125L223.73438 22.11875Q224.09375 21.4625 224.39062 21.259375Q224.70312 21.040625 225.07812 21.040625Q225.60938 21.040625 226.15625 21.36875L225.79688 22.353125Q225.40625 22.11875 225.03125 22.11875Q224.67188 22.11875 224.39062 22.3375Q224.125 22.540625 224.01562 22.915625Q223.82812 23.478125 223.82812 24.134375L223.82812 27.4L222.78125 27.4ZM231.04688 25.4L232.14062 25.525Q231.89062 26.478125 231.1875 27.009375Q230.48438 27.540625 229.40625 27.540625Q228.04688 27.540625 227.23438 26.696875Q226.4375 25.853125 226.4375 24.3375Q226.4375 22.775 227.25 21.915625Q228.0625 21.040625 229.34375 21.040625Q230.59375 21.040625 231.375 21.884375Q232.17188 22.728125 232.17188 24.275Q232.17188 24.36875 232.17188 24.55625L227.53125 24.55625Q227.59375 25.5875 228.10938 26.134375Q228.625 26.665625 229.40625 26.665625Q229.98438 26.665625 230.39062 26.36875Q230.8125 26.05625 231.04688 25.4ZM227.59375 23.696875L231.0625 23.696875Q231.0 22.9 230.67188 22.509375Q230.15625 21.9 229.35938 21.9Q228.625 21.9 228.125 22.384375Q227.64062 22.86875 227.59375 23.696875ZM240.85938 26.634375Q240.26562 27.134375 239.71875 27.3375Q239.1875 27.540625 238.5625 27.540625Q237.53125 27.540625 236.98438 27.040625Q236.4375 26.540625 236.4375 25.759375Q236.4375 25.30625 236.64062 24.93125Q236.84375 24.540625 237.1875 24.321875Q237.53125 24.0875 237.95312 23.978125Q238.25 23.884375 238.89062 23.80625Q240.15625 23.665625 240.76562 23.446875Q240.76562 23.228125 240.76562 23.18125Q240.76562 22.525 240.46875 22.259375Q240.0625 21.915625 239.26562 21.915625Q238.53125 21.915625 238.17188 22.18125Q237.8125 22.43125 237.64062 23.0875L236.60938 22.946875Q236.75 22.290625 237.07812 21.884375Q237.40625 21.478125 238.01562 21.259375Q238.625 21.040625 239.42188 21.040625Q240.21875 21.040625 240.71875 21.228125Q241.21875 21.415625 241.45312 21.696875Q241.6875 21.978125 241.78125 22.415625Q241.82812 22.68125 241.82812 23.384375L241.82812 24.790625Q241.82812 26.259375 241.89062 26.65Q241.96875 27.040625 242.17188 27.4L241.0625 27.4Q240.90625 27.071875 240.85938 26.634375ZM240.76562 24.275Q240.1875 24.509375 239.04688 24.68125Q238.39062 24.775 238.125 24.9Q237.85938 25.009375 237.70312 25.228125Q237.5625 25.446875 237.5625 25.728125Q237.5625 26.15 237.875 26.43125Q238.20312 26.7125 238.8125 26.7125Q239.42188 26.7125 239.89062 26.446875Q240.375 26.18125 240.59375 25.7125Q240.76562 25.353125 240.76562 24.665625L240.76562 24.275ZM247.85938 25.11875L248.89062 25.259375Q248.71875 26.321875 248.01562 26.93125Q247.3125 27.540625 246.29688 27.540625Q245.01562 27.540625 244.23438 26.7125Q243.46875 25.86875 243.46875 24.30625Q243.46875 23.30625 243.79688 22.55625Q244.14062 21.790625 244.8125 21.415625Q245.5 21.040625 246.3125 21.040625Q247.3125 21.040625 247.95312 21.55625Q248.60938 22.05625 248.79688 23.009375L247.76562 23.165625Q247.625 22.540625 247.25 22.228125Q246.875 21.9 246.34375 21.9Q245.54688 21.9 245.04688 22.478125Q244.54688 23.040625 244.54688 24.275Q244.54688 25.540625 245.03125 26.103125Q245.51562 26.665625 246.28125 26.665625Q246.90625 26.665625 247.3125 26.290625Q247.73438 25.915625 247.85938 25.11875ZM253.85938 25.11875L254.89062 25.259375Q254.71875 26.321875 254.01562 26.93125Q253.3125 27.540625 252.29688 27.540625Q251.01562 27.540625 250.23438 26.7125Q249.46875 25.86875 249.46875 24.30625Q249.46875 23.30625 249.79688 22.55625Q250.14062 21.790625 250.8125 21.415625Q251.5 21.040625 252.3125 21.040625Q253.3125 21.040625 253.95312 21.55625Q254.60938 22.05625 254.79688 23.009375L253.76562 23.165625Q253.625 22.540625 253.25 22.228125Q252.875 21.9 252.34375 21.9Q251.54688 21.9 251.04688 22.478125Q250.54688 23.040625 250.54688 24.275Q250.54688 25.540625 251.03125 26.103125Q251.51562 26.665625 252.28125 26.665625Q252.90625 26.665625 253.3125 26.290625Q253.73438 25.915625 253.85938 25.11875ZM260.04688 25.4L261.14062 25.525Q260.89062 26.478125 260.1875 27.009375Q259.48438 27.540625 258.40625 27.540625Q257.04688 27.540625 256.23438 26.696875Q255.4375 25.853125 255.4375 24.3375Q255.4375 22.775 256.25 21.915625Q257.0625 21.040625 258.34375 21.040625Q259.59375 21.040625 260.375 21.884375Q261.17188 22.728125 261.17188 24.275Q261.17188 24.36875 261.17188 24.55625L256.53125 24.55625Q256.59375 25.5875 257.10938 26.134375Q257.625 26.665625 258.40625 26.665625Q258.98438 26.665625 259.39062 26.36875Q259.8125 26.05625 260.04688 25.4ZM256.59375 23.696875L260.0625 23.696875Q260.0 22.9 259.67188 22.509375Q259.15625 21.9 258.35938 21.9Q257.625 21.9 257.125 22.384375Q256.64062 22.86875 256.59375 23.696875ZM265.09375 26.4625L265.25 27.384375Q264.79688 27.478125 264.45312 27.478125Q263.875 27.478125 263.5625 27.30625Q263.25 27.11875 263.10938 26.821875Q262.98438 26.525 262.98438 25.571875L262.98438 21.99375L262.21875 21.99375L262.21875 21.18125L262.98438 21.18125L262.98438 19.634375L264.03125 19.009375L264.03125 21.18125L265.09375 21.18125L265.09375 21.99375L264.03125 21.99375L264.03125 25.634375Q264.03125 26.0875 264.07812 26.2125Q264.14062 26.3375 264.26562 26.415625Q264.39062 26.49375 264.625 26.49375Q264.8125 26.49375 265.09375 26.4625ZM268.09375 26.4625L268.25 27.384375Q267.79688 27.478125 267.45312 27.478125Q266.875 27.478125 266.5625 27.30625Q266.25 27.11875 266.10938 26.821875Q265.98438 26.525 265.98438 25.571875L265.98438 21.99375L265.21875 21.99375L265.21875 21.18125L265.98438 21.18125L265.98438 19.634375L267.03125 19.009375L267.03125 21.18125L268.09375 21.18125L268.09375 21.99375L267.03125 21.99375L267.03125 25.634375Q267.03125 26.0875 267.07812 26.2125Q267.14062 26.3375 267.26562 26.415625Q267.39062 26.49375 267.625 26.49375Q267.8125 26.49375 268.09375 26.4625ZM272.85938 26.634375Q272.26562 27.134375 271.71875 27.3375Q271.1875 27.540625 270.5625 27.540625Q269.53125 27.540625 268.98438 27.040625Q268.4375 26.540625 268.4375 25.759375Q268.4375 25.30625 268.64062 24.93125Q268.84375 24.540625 269.1875 24.321875Q269.53125 24.0875 269.95312 23.978125Q270.25 23.884375 270.89062 23.80625Q272.15625 23.665625 272.76562 23.446875Q272.76562 23.228125 272.76562 23.18125Q272.76562 22.525 272.46875 22.259375Q272.0625 21.915625 271.26562 21.915625Q270.53125 21.915625 270.17188 22.18125Q269.8125 22.43125 269.64062 23.0875L268.60938 22.946875Q268.75 22.290625 269.07812 21.884375Q269.40625 21.478125 270.01562 21.259375Q270.625 21.040625 271.42188 21.040625Q272.21875 21.040625 272.71875 21.228125Q273.21875 21.415625 273.45312 21.696875Q273.6875 21.978125 273.78125 22.415625Q273.82812 22.68125 273.82812 23.384375L273.82812 24.790625Q273.82812 26.259375 273.89062 26.65Q273.96875 27.040625 274.17188 27.4L273.0625 27.4Q272.90625 27.071875 272.85938 26.634375ZM272.76562 24.275Q272.1875 24.509375 271.04688 24.68125Q270.39062 24.775 270.125 24.9Q269.85938 25.009375 269.70312 25.228125Q269.5625 25.446875 269.5625 25.728125Q269.5625 26.15 269.875 26.43125Q270.20312 26.7125 270.8125 26.7125Q271.42188 26.7125 271.89062 26.446875Q272.375 26.18125 272.59375 25.7125Q272.76562 25.353125 272.76562 24.665625L272.76562 24.275ZM276.76562 27.4L275.78125 27.4L275.78125 18.80625L276.84375 18.80625L276.84375 21.86875Q277.51562 21.040625 278.54688 21.040625Q279.125 21.040625 279.625 21.275Q280.14062 21.49375 280.46875 21.915625Q280.8125 22.3375 281.0 22.93125Q281.1875 23.525 281.1875 24.196875Q281.1875 25.790625 280.39062 26.665625Q279.59375 27.540625 278.5 27.540625Q277.39062 27.540625 276.76562 26.61875L276.76562 27.4ZM276.75 24.24375Q276.75 25.353125 277.0625 25.853125Q277.5625 26.665625 278.40625 26.665625Q279.09375 26.665625 279.59375 26.071875Q280.10938 25.478125 280.10938 24.275Q280.10938 23.05625 279.625 22.478125Q279.14062 21.9 278.45312 21.9Q277.76562 21.9 277.25 22.509375Q276.75 23.103125 276.75 24.24375ZM282.79688 20.025L282.79688 18.80625L283.85938 18.80625L283.85938 20.025L282.79688 20.025ZM282.79688 27.4L282.79688 21.18125L283.85938 21.18125L283.85938 27.4L282.79688 27.4ZM285.76562 27.4L285.76562 18.80625L286.82812 18.80625L286.82812 27.4L285.76562 27.4ZM293.04688 25.4L294.14062 25.525Q293.89062 26.478125 293.1875 27.009375Q292.48438 27.540625 291.40625 27.540625Q290.04688 27.540625 289.23438 26.696875Q288.4375 25.853125 288.4375 24.3375Q288.4375 22.775 289.25 21.915625Q290.0625 21.040625 291.34375 21.040625Q292.59375 21.040625 293.375 21.884375Q294.17188 22.728125 294.17188 24.275Q294.17188 24.36875 294.17188 24.55625L289.53125 24.55625Q289.59375 25.5875 290.10938 26.134375Q290.625 26.665625 291.40625 26.665625Q291.98438 26.665625 292.39062 26.36875Q292.8125 26.05625 293.04688 25.4ZM289.59375 23.696875L293.0625 23.696875Q293.0 22.9 292.67188 22.509375Q292.15625 21.9 291.35938 21.9Q290.625 21.9 290.125 22.384375Q289.64062 22.86875 289.59375 23.696875Z" fill-rule="nonzero"/><path fill="#fbbc04" fill-opacity="0.7019608" d="M323.0 23.4C323.0 26.713709 320.31372 29.4 317.0 29.4C313.68628 29.4 311.0 26.713709 311.0 23.4C311.0 20.086292 313.68628 17.4 317.0 17.4C320.31372 17.4 323.0 20.086292 323.0 23.4Z" fill-rule="nonzero"/><path fill="#1a1a1a" d="M334.375 27.4L331.04688 18.80625L332.28125 18.80625L334.51562 25.05625Q334.78125 25.80625 334.96875 26.4625Q335.17188 25.759375 335.4375 25.05625L337.75 18.80625L338.90625 18.80625L335.54688 27.4L334.375 27.4ZM342.85938 26.634375Q342.26562 27.134375 341.71875 27.3375Q341.1875 27.540625 340.5625 27.540625Q339.53125 27.540625 338.98438 27.040625Q338.4375 26.540625 338.4375 25.759375Q338.4375 25.30625 338.64062 24.93125Q338.84375 24.540625 339.1875 24.321875Q339.53125 24.0875 339.95312 23.978125Q340.25 23.884375 340.89062 23.80625Q342.15625 23.665625 342.76562 23.446875Q342.76562 23.228125 342.76562 23.18125Q342.76562 22.525 342.46875 22.259375Q342.0625 21.915625 341.26562 21.915625Q340.53125 21.915625 340.17188 22.18125Q339.8125 22.43125 339.64062 23.0875L338.60938 22.946875Q338.75 22.290625 339.07812 21.884375Q339.40625 21.478125 340.01562 21.259375Q340.625 21.040625 341.42188 21.040625Q342.21875 21.040625 342.71875 21.228125Q343.21875 21.415625 343.45312 21.696875Q343.6875 21.978125 343.78125 22.415625Q343.82812 22.68125 343.82812 23.384375L343.82812 24.790625Q343.82812 26.259375 343.89062 26.65Q343.96875 27.040625 344.17188 27.4L343.0625 27.4Q342.90625 27.071875 342.85938 26.634375ZM342.76562 24.275Q342.1875 24.509375 341.04688 24.68125Q340.39062 24.775 340.125 24.9Q339.85938 25.009375 339.70312 25.228125Q339.5625 25.446875 339.5625 25.728125Q339.5625 26.15 339.875 26.43125Q340.20312 26.7125 340.8125 26.7125Q341.42188 26.7125 341.89062 26.446875Q342.375 26.18125 342.59375 25.7125Q342.76562 25.353125 342.76562 24.665625L342.76562 24.275ZM345.76562 27.4L345.76562 18.80625L346.82812 18.80625L346.82812 27.4L345.76562 27.4ZM348.40625 24.290625Q348.40625 22.55625 349.35938 21.728125Q350.15625 21.040625 351.3125 21.040625Q352.59375 21.040625 353.40625 21.884375Q354.23438 22.7125 354.23438 24.196875Q354.23438 25.4 353.875 26.0875Q353.51562 26.775 352.8125 27.165625Q352.125 27.540625 351.3125 27.540625Q350.01562 27.540625 349.20312 26.7125Q348.40625 25.86875 348.40625 24.290625ZM349.48438 24.290625Q349.48438 25.478125 350.0 26.071875Q350.53125 26.665625 351.3125 26.665625Q352.10938 26.665625 352.625 26.071875Q353.14062 25.478125 353.14062 24.259375Q353.14062 23.103125 352.60938 22.509375Q352.09375 21.915625 351.3125 21.915625Q350.53125 21.915625 350.0 22.509375Q349.48438 23.0875 349.48438 24.290625ZM355.78125 27.4L355.78125 21.18125L356.73438 21.18125L356.73438 22.11875Q357.09375 21.4625 357.39062 21.259375Q357.70312 21.040625 358.07812 21.040625Q358.60938 21.040625 359.15625 21.36875L358.79688 22.353125Q358.40625 22.11875 358.03125 22.11875Q357.67188 22.11875 357.39062 22.3375Q357.125 22.540625 357.01562 22.915625Q356.82812 23.478125 356.82812 24.134375L356.82812 27.4L355.78125 27.4ZM364.04688 25.4L365.14062 25.525Q364.89062 26.478125 364.1875 27.009375Q363.48438 27.540625 362.40625 27.540625Q361.04688 27.540625 360.23438 26.696875Q359.4375 25.853125 359.4375 24.3375Q359.4375 22.775 360.25 21.915625Q361.0625 21.040625 362.34375 21.040625Q363.59375 21.040625 364.375 21.884375Q365.17188 22.728125 365.17188 24.275Q365.17188 24.36875 365.17188 24.55625L360.53125 24.55625Q360.59375 25.5875 361.10938 26.134375Q361.625 26.665625 362.40625 26.665625Q362.98438 26.665625 363.39062 26.36875Q363.8125 26.05625 364.04688 25.4ZM360.59375 23.696875L364.0625 23.696875Q364.0 22.9 363.67188 22.509375Q363.15625 21.9 362.35938 21.9Q361.625 21.9 361.125 22.384375Q360.64062 22.86875 360.59375 23.696875ZM369.57812 23.2125Q369.57812 21.071875 370.71875 19.86875Q371.875 18.65 373.6875 18.65Q374.89062 18.65 375.84375 19.228125Q376.79688 19.790625 377.29688 20.80625Q377.79688 21.821875 377.79688 23.11875Q377.79688 24.415625 377.26562 25.446875Q376.73438 26.478125 375.76562 27.009375Q374.8125 27.540625 373.6875 27.540625Q372.46875 27.540625 371.51562 26.9625Q370.5625 26.36875 370.0625 25.36875Q369.57812 24.353125 369.57812 23.2125ZM370.75 23.228125Q370.75 24.790625 371.57812 25.68125Q372.42188 26.571875 373.6875 26.571875Q374.96875 26.571875 375.79688 25.68125Q376.625 24.775 376.625 23.103125Q376.625 22.05625 376.26562 21.275Q375.92188 20.49375 375.23438 20.071875Q374.54688 19.634375 373.70312 19.634375Q372.5 19.634375 371.625 20.4625Q370.75 21.290625 370.75 23.228125ZM381.09375 26.4625L381.25 27.384375Q380.79688 27.478125 380.45312 27.478125Q379.875 27.478125 379.5625 27.30625Q379.25 27.11875 379.10938 26.821875Q378.98438 26.525 378.98438 25.571875L378.98438 21.99375L378.21875 21.99375L378.21875 21.18125L378.98438 21.18125L378.98438 19.634375L380.03125 19.009375L380.03125 21.18125L381.09375 21.18125L381.09375 21.99375L380.03125 21.99375L380.03125 25.634375Q380.03125 26.0875 380.07812 26.2125Q380.14062 26.3375 380.26562 26.415625Q380.39062 26.49375 380.625 26.49375Q380.8125 26.49375 381.09375 26.4625ZM384.09375 26.4625L384.25 27.384375Q383.79688 27.478125 383.45312 27.478125Q382.875 27.478125 382.5625 27.30625Q382.25 27.11875 382.10938 26.821875Q381.98438 26.525 381.98438 25.571875L381.98438 21.99375L381.21875 21.99375L381.21875 21.18125L381.98438 21.18125L381.98438 19.634375L383.03125 19.009375L383.03125 21.18125L384.09375 21.18125L384.09375 21.99375L383.03125 21.99375L383.03125 25.634375Q383.03125 26.0875 383.07812 26.2125Q383.14062 26.3375 383.26562 26.415625Q383.39062 26.49375 383.625 26.49375Q383.8125 26.49375 384.09375 26.4625ZM384.79688 20.025L384.79688 18.80625L385.85938 18.80625L385.85938 20.025L384.79688 20.025ZM384.79688 27.4L384.79688 21.18125L385.85938 21.18125L385.85938 27.4L384.79688 27.4ZM387.79688 27.4L387.79688 21.18125L388.73438 21.18125L388.73438 22.05625Q389.03125 21.5875 389.51562 21.321875Q390.0 21.040625 390.625 21.040625Q391.3125 21.040625 391.75 21.321875Q392.20312 21.603125 392.375 22.11875Q393.125 21.040625 394.29688 21.040625Q395.23438 21.040625 395.71875 21.55625Q396.21875 22.05625 396.21875 23.134375L396.21875 27.4L395.17188 27.4L395.17188 23.478125Q395.17188 22.853125 395.0625 22.571875Q394.96875 22.290625 394.70312 22.11875Q394.4375 21.946875 394.0625 21.946875Q393.40625 21.946875 392.96875 22.384375Q392.54688 22.821875 392.54688 23.790625L392.54688 27.4L391.48438 27.4L391.48438 23.353125Q391.48438 22.65 391.21875 22.30625Q390.96875 21.946875 390.39062 21.946875Q389.9375 21.946875 389.5625 22.18125Q389.1875 22.415625 389.01562 22.86875Q388.84375 23.321875 388.84375 24.165625L388.84375 27.4L387.79688 27.4ZM398.40625 24.290625Q398.40625 22.55625 399.35938 21.728125Q400.15625 21.040625 401.3125 21.040625Q402.59375 21.040625 403.40625 21.884375Q404.23438 22.7125 404.23438 24.196875Q404.23438 25.4 403.875 26.0875Q403.51562 26.775 402.8125 27.165625Q402.125 27.540625 401.3125 27.540625Q400.01562 27.540625 399.20312 26.7125Q398.40625 25.86875 398.40625 24.290625ZM399.48438 24.290625Q399.48438 25.478125 400.0 26.071875Q400.53125 26.665625 401.3125 26.665625Q402.10938 26.665625 402.625 26.071875Q403.14062 25.478125 403.14062 24.259375Q403.14062 23.103125 402.60938 22.509375Q402.09375 21.915625 401.3125 21.915625Q400.53125 21.915625 400.0 22.509375Q399.48438 23.0875 399.48438 24.290625Z" fill-rule="nonzero"/></svg>