<svg version="1.1" viewBox="0.0 0.0 492.0 303.0" fill="none" stroke="none" stroke-linecap="square" stroke-miterlimit="10" width="492" height="303" xmlns:xlink="http://www.w3.org/1999/xlink" xmlns="http://www.w3.org/2000/svg"><path fill="#ffffff" d="M0 0L492.0 0L492.0 303.0L0 303.0L0 0Z" fill-rule="nonzero"/><path stroke="#333333" stroke-width="1.0" stroke-linecap="butt" d="M121.5 261.5L476.5 261.5" fill-rule="nonzero"/><path stroke="#cccccc" stroke-width="1.0" stroke-linecap="butt" d="M121.5 238.5L476.5 238.5" fill-rule="nonzero"/><path stroke="#cccccc" stroke-width="1.0" stroke-linecap="butt" d="M121.5 215.5L476.5 215.5" fill-rule="nonzero"/><path stroke="#cccccc" stroke-width="1.0" stroke-linecap="butt" d="M121.5 192.5L476.5 192.5" fill-rule="nonzero"/><path stroke="#cccccc" stroke-width="1.0" stroke-linecap="butt" d="M121.5 169.5L476.5 169.5" fill-rule="nonzero"/><path stroke="#cccccc" stroke-width="1.0" stroke-linecap="butt" d="M121.5 146.5L476.5 146.5" fill-rule="nonzero"/><path stroke="#cccccc" stroke-width="1.0" stroke-linecap="butt" d="M121.5 123.5L476.5 123.5" fill-rule="nonzero"/><path stroke="#cccccc" stroke-width="1.0" stroke-linecap="butt" d="M121.5 100.5L476.5 100.5" fill-rule="nonzero"/><path stroke="#cccccc" stroke-width="1.0" stroke-linecap="butt" d="M121.5 77.5L476.5 77.5" fill-rule="nonzero"/><path stroke="#cccccc" stroke-width="1.0" stroke-linecap="butt" d="M121.5 53.5L476.5 53.5" fill-rule="nonzero"/><path stroke="#000000" stroke-width="1.0" stroke-linecap="butt" stroke-opacity="0.0" d="M121.5 254.5L476.5 254.5" fill-rule="nonzero"/><path stroke="#000000" stroke-width="1.0" stroke-linecap="butt" stroke-opacity="0.0" d="M121.5 246.5L476.5 246.5" fill-rule="nonzero"/><path stroke="#000000" stroke-width="1.0" stroke-linecap="butt" stroke-opacity="0.0" d="M121.5 231.5L476.5 231.5" fill-rule="nonzero"/><path stroke="#000000" stroke-width="1.0" stroke-linecap="butt" stroke-opacity="0.0" d="M121.5 223.5L476.5 223.5" fill-rule="nonzero"/><path stroke="#000000" stroke-width="1.0" stroke-linecap="butt" stroke-opacity="0.0" d="M121.5 207.5L476.5 207.5" fill-rule="nonzero"/><path stroke="#000000" stroke-width="1.0" stroke-linecap="butt" stroke-opacity="0.0" d="M121.5 200.5L476.5 200.5" fill-rule="nonzero"/><path stroke="#000000" stroke-width="1.0" stroke-linecap="butt" stroke-opacity="0.0" d="M121.5 184.5L476.5 184.5" fill-rule="nonzero"/><path stroke="#000000" stroke-width="1.0" stroke-linecap="butt" stroke-opacity="0.0" d="M121.5 177.5L476.5 177.5" fill-rule="nonzero"/><path stroke="#000000" stroke-width="1.0" stroke-linecap="butt" stroke-opacity="0.0" d="M121.5 161.5L476.5 161.5" fill-rule="nonzero"/><path stroke="#000000" stroke-width="1.0" stroke-linecap="butt" stroke-opacity="0.0" d="M121.5 154.5L476.5 154.5" fill-rule="nonzero"/><path stroke="#000000" stroke-width="1.0" stroke-linecap="butt" stroke-opacity="0.0" d="M121.5 138.5L476.5 138.5" fill-rule="nonzero"/><path stroke="#000000" stroke-width="1.0" stroke-linecap="butt" stroke-opacity="0.0" d="M121.5 130.5L476.5 130.5" fill-rule="nonzero"/><path stroke="#000000" stroke-width="1.0" stroke-linecap="butt" stroke-opacity="0.0" d="M121.5 115.5L476.5 115.5" fill-rule="nonzero"/><path stroke="#000000" stroke-width="1.0" stroke-linecap="butt" stroke-opacity="0.0" d="M121.5 107.5L476.5 107.5" fill-rule="nonzero"/><path stroke="#000000" stroke-width="1.0" stroke-linecap="butt" stroke-opacity="0.0" d="M121.5 92.5L476.5 92.5" fill-rule="nonzero"/><path stroke="#000000" stroke-width="1.0" stroke-linecap="butt" stroke-opacity="0.0" d="M121.5 84.5L476.5 84.5" fill-rule="nonzero"/><path stroke="#000000" stroke-width="1.0" stroke-linecap="butt" stroke-opacity="0.0" d="M121.5 69.5L476.5 69.5" fill-rule="nonzero"/><path stroke="#000000" stroke-width="1.0" stroke-linecap="butt" stroke-opacity="0.0" d="M121.5 61.5L476.5 61.5" fill-rule="nonzero"/><path stroke="#000000" stroke-width="1.0" stroke-linecap="butt" stroke-opacity="0.0" d="M121.5 46.5L476.5 46.5" fill-rule="nonzero"/><path stroke="#000000" stroke-width="1.0" stroke-linecap="butt" d="M476.5 261.5L121.5 261.5" fill-rule="nonzero"/><path stroke="#000000" stroke-width="1.0" stroke-linecap="butt" d="M121.5 261.5L121.5 46.5" fill-rule="nonzero"/><clipPath id="id_0"><path d="M121.15 46.25L476.85 46.25L476.85 261.85L121.15 261.85L121.15 46.25Z" clip-rule="nonzero"/></clipPath><path stroke="#4285f4" stroke-width="2.0" stroke-linecap="butt" clip-path="url(#id_0)" d="M156.72 62.497C156.72 62.497 204.14667 62.497 227.86 62.497C251.57333 62.497 275.28665 62.497 299.0 62.497C322.71335 62.497 346.42667 62.497 370.14 62.497C393.85333 62.497 441.28 62.497 441.28 62.497" fill-rule="nonzero"/><path stroke="#ea4335" stroke-width="2.0" stroke-linecap="butt" clip-path="url(#id_0)" d="M156.72 250.39648C156.72 250.39648 204.14667 239.09776 227.86 233.371C251.57333 227.64424 275.28665 221.8143 299.0 216.03595C322.71335 210.25761 346.42667 205.04678 370.14 198.70091C393.85333 192.35504 441.28 177.96077 441.28 177.96077" fill-rule="nonzero"/><path stroke="#fbbc04" stroke-width="2.0" stroke-linecap="butt" stroke-opacity="0.7019608" clip-path="url(#id_0)" d="M156.72 250.55127C156.72 250.55127 204.14667 239.76846 227.86 234.14488C251.57333 228.52132 275.28665 222.5882 299.0 216.80984C322.71335 211.0315 346.42667 205.82066 370.14 199.4748C393.85333 193.12894 441.28 178.73466 441.28 178.73466" fill-rule="nonzero"/><path fill="#4285f4" clip-path="url(#id_0)" d="M160.22 62.497C160.22 64.43 158.653 65.997 156.72 65.997C154.787 65.997 153.22 64.43 153.22 62.497C153.22 60.564003 154.787 58.997 156.72 58.997C158.653 58.997 160.22 60.564003 160.22 62.497Z" fill-rule="nonzero"/><path fill="#4285f4" clip-path="url(#id_0)" d="M231.36 62.497C231.36 64.43 229.793 65.997 227.86 65.997C225.927 65.997 224.36 64.43 224.36 62.497C224.36 60.564003 225.927 58.997 227.86 58.997C229.793 58.997 231.36 60.564003 231.36 62.497Z" fill-rule="nonzero"/><path fill="#4285f4" clip-path="url(#id_0)" d="M302.5 62.497C302.5 64.43 300.93298 65.997 299.0 65.997C297.06702 65.997 295.5 64.43 295.5 62.497C295.5 60.564003 297.06702 58.997 299.0 58.997C300.93298 58.997 302.5 60.564003 302.5 62.497Z" fill-rule="nonzero"/><path fill="#4285f4" clip-path="url(#id_0)" d="M373.64 62.497C373.64 64.43 372.073 65.997 370.14 65.997C368.207 65.997 366.64 64.43 366.64 62.497C366.64 60.564003 368.207 58.997 370.14 58.997C372.073 58.997 373.64 60.564003 373.64 62.497Z" fill-rule="nonzero"/><path fill="#4285f4" clip-path="url(#id_0)" d="M444.78 62.497C444.78 64.43 443.21298 65.997 441.28 65.997C439.34702 65.997 437.78 64.43 437.78 62.497C437.78 60.564003 439.34702 58.997 441.28 58.997C443.21298 58.997 444.78 60.564003 444.78 62.497Z" fill-rule="nonzero"/><path fill="#ea4335" clip-path="url(#id_0)" d="M160.22 250.39648C160.22 252.32948 158.653 253.89648 156.72 253.89648C154.787 253.89648 153.22 252.32948 153.22 250.39648C153.22 248.46349 154.787 246.89648 156.72 246.89648C158.653 246.89648 160.22 248.46349 160.22 250.39648Z" fill-rule="nonzero"/><path fill="#ea4335" clip-path="url(#id_0)" d="M231.36 233.371C231.36 235.304 229.793 236.871 227.86 236.871C225.927 236.871 224.36 235.304 224.36 233.371C224.36 231.438 225.927 229.871 227.86 229.871C229.793 229.871 231.36 231.438 231.36 233.371Z" fill-rule="nonzero"/><path fill="#ea4335" clip-path="url(#id_0)" d="M302.5 216.03595C302.5 217.96895 300.93298 219.53595 299.0 219.53595C297.06702 219.53595 295.5 217.96895 295.5 216.03595C295.5 214.10297 297.06702 212.53595 299.0 212.53595C300.93298 212.53595 302.5 214.10297 302.5 216.03595Z" fill-rule="nonzero"/><path fill="#ea4335" clip-path="url(#id_0)" d="M373.64 198.70091C373.64 200.63391 372.073 202.20091 370.14 202.20091C368.207 202.20091 366.64 200.63391 366.64 198.70091C366.64 196.76791 368.207 195.20091 370.14 195.20091C372.073 195.20091 373.64 196.76791 373.64 198.70091Z" fill-rule="nonzero"/><path fill="#ea4335" clip-path="url(#id_0)" d="M444.78 177.96077C444.78 179.89377 443.21298 181.46077 441.28 181.46077C439.34702 181.46077 437.78 179.89377 437.78 177.96077C437.78 176.02777 439.34702 174.46077 441.28 174.46077C443.21298 174.46077 444.78 176.02777 444.78 177.96077Z" fill-rule="nonzero"/><path fill="#fbbc04" fill-opacity="0.7019608" clip-path="url(#id_0)" d="M159.72 250.55127C159.72 252.20811 158.37686 253.55127 156.72 253.55127C155.06314 253.55127 153.72 252.20811 153.72 250.55127C153.72 248.89441 155.06314 247.55127 156.72 247.55127C158.37686 247.55127 159.72 248.89441 159.72 250.55127Z" fill-rule="nonzero"/><path fill="#fbbc04" fill-opacity="0.7019608" clip-path="url(#id_0)" d="M230.86 234.14488C230.86 235.80174 229.51686 237.14488 227.86 237.14488C226.20314 237.14488 224.86 235.80174 224.86 234.14488C224.86 232.48804 226.20314 231.14488 227.86 231.14488C229.51686 231.14488 230.86 232.48804 230.86 234.14488Z" fill-rule="nonzero"/><path fill="#fbbc04" fill-opacity="0.7019608" clip-path="url(#id_0)" d="M302.0 216.80984C302.0 218.46669 300.65686 219.80984 299.0 219.80984C297.34314 219.80984 296.0 218.46669 296.0 216.80984C296.0 215.15298 297.34314 213.80984 299.0 213.80984C300.65686 213.80984 302.0 215.15298 302.0 216.80984Z" fill-rule="nonzero"/><path fill="#fbbc04" fill-opacity="0.7019608" clip-path="url(#id_0)" d="M373.14 199.4748C373.14 201.13165 371.79684 202.4748 370.14 202.4748C368.48315 202.4748 367.14 201.13165 367.14 199.4748C367.14 197.81795 368.48315 196.4748 370.14 196.4748C371.79684 196.4748 373.14 197.81795 373.14 199.4748Z" fill-rule="nonzero"/><path fill="#fbbc04" fill-opacity="0.7019608" clip-path="url(#id_0)" d="M444.28 178.73466C444.28 180.39151 442.93686 181.73466 441.28 181.73466C439.62314 181.73466 438.28 180.39151 438.28 178.73466C438.28 177.0778 439.62314 175.73466 441.28 175.73466C442.93686 175.73466 444.28 177.0778 444.28 178.73466Z" fill-rule="nonzero"/><path stroke="#000000" stroke-width="1.0" stroke-linecap="butt" d="M156.5 267.5L156.5 255.5" fill-rule="nonzero"/><path stroke="#000000" stroke-width="1.0" stroke-linecap="butt" d="M227.5 267.5L227.5 255.5" fill-rule="nonzero"/><path stroke="#000000" stroke-width="1.0" stroke-linecap="butt" d="M299.5 267.5L299.5 255.5" fill-rule="nonzero"/><path stroke="#000000" stroke-width="1.0" stroke-linecap="butt" d="M370.5 267.5L370.5 255.5" fill-rule="nonzero"/><path stroke="#000000" stroke-width="1.0" stroke-linecap="butt" d="M441.5 267.5L441.5 255.5" fill-rule="nonzero"/><path stroke="#000000" stroke-width="1.0" stroke-linecap="butt" d="M115.5 261.5L127.5 261.5" fill-rule="nonzero"/><path stroke="#000000" stroke-width="1.0" stroke-linecap="butt" d="M115.5 238.5L127.5 238.5" fill-rule="nonzero"/><path stroke="#000000" stroke-width="1.0" stroke-linecap="butt" d="M115.5 215.5L127.5 215.5" fill-rule="nonzero"/><path stroke="#000000" stroke-width="1.0" stroke-linecap="butt" d="M115.5 192.5L127.5 192.5" fill-rule="nonzero"/><path stroke="#000000" stroke-width="1.0" stroke-linecap="butt" d="M115.5 169.5L127.5 169.5" fill-rule="nonzero"/><path stroke="#000000" stroke-width="1.0" stroke-linecap="butt" d="M115.5 146.5L127.5 146.5" fill-rule="nonzero"/><path stroke="#000000" stroke-width="1.0" stroke-linecap="butt" d="M115.5 123.5L127.5 123.5" fill-rule="nonzero"/><path stroke="#000000" stroke-width="1.0" stroke-linecap="butt" d="M115.5 100.5L127.5 100.5" fill-rule="nonzero"/><path stroke="#000000" stroke-width="1.0" stroke-linecap="butt" d="M115.5 77.5L127.5 77.5" fill-rule="nonzero"/><path stroke="#000000" stroke-width="1.0" stroke-linecap="butt" d="M115.5 53.5L127.5 53.5" fill-rule="nonzero"/><path fill="#000000" d="M81.13438 267.08438L81.13438 266.0375Q80.35313 265.92813 79.85313 265.67813Q79.35313 265.42813 78.99375 264.86563Q78.63438 264.2875 78.57188 263.45938L79.63438 263.27188Q79.75938 264.11563 80.07188 264.50626Q80.525 265.06876 81.13438 265.14688L81.13438 261.7875Q80.49375 261.6625 79.80625 261.27188Q79.30625 260.99063 79.025 260.50626Q78.75938 260.00626 78.75938 259.36563Q78.75938 258.24063 79.55625 257.55313Q80.0875 257.08438 81.13438 256.975L81.13438 256.475L81.75938 256.475L81.75938 256.975Q82.68125 257.05313 83.2125 257.50626Q83.91563 258.08438 84.05625 259.08438L82.9625 259.25626Q82.86875 258.63126 82.57188 258.30313Q82.275 257.975 81.75938 257.86563L81.75938 260.89688Q82.55625 261.1 82.82188 261.20938Q83.30625 261.42813 83.61875 261.74063Q83.93125 262.05313 84.0875 262.49063Q84.25938 262.9125 84.25938 263.4125Q84.25938 264.50626 83.55625 265.24063Q82.86875 265.975 81.75938 266.02188L81.75938 267.08438L81.13438 267.08438ZM81.13438 257.85Q80.525 257.94376 80.16563 258.35Q79.82188 258.74063 79.82188 259.2875Q79.82188 259.81876 80.11875 260.19376Q80.41563 260.55313 81.13438 260.77188L81.13438 257.85ZM81.75938 265.14688Q82.36875 265.06876 82.775 264.61563Q83.18125 264.14688 83.18125 263.475Q83.18125 262.89688 82.88438 262.55313Q82.60313 262.20938 81.75938 261.92813L81.75938 265.14688ZM85.65 261.61563Q85.65 260.08438 85.9625 259.1625Q86.275 258.225 86.88438 257.725Q87.50938 257.225 88.44688 257.225Q89.13438 257.225 89.65 257.50626Q90.18125 257.7875 90.525 258.31876Q90.86875 258.83438 91.05625 259.58438Q91.24375 260.33438 91.24375 261.61563Q91.24375 263.13126 90.93125 264.05313Q90.63438 264.975 90.00938 265.49063Q89.4 265.99063 88.44688 265.99063Q87.2125 265.99063 86.49375 265.1Q85.65 264.0375 85.65 261.61563ZM86.72813 261.61563Q86.72813 263.725 87.22813 264.42813Q87.72813 265.13126 88.44688 265.13126Q89.18125 265.13126 89.66563 264.42813Q90.16563 263.725 90.16563 261.61563Q90.16563 259.49063 89.66563 258.80313Q89.18125 258.1 88.43125 258.1Q87.7125 258.1 87.275 258.70938Q86.72813 259.49063 86.72813 261.61563ZM93.24375 265.85L93.24375 264.64688L94.44688 264.64688L94.44688 265.85L93.24375 265.85ZM95.65 261.61563Q95.65 260.08438 95.9625 259.1625Q96.275 258.225 96.88438 257.725Q97.50938 257.225 98.44688 257.225Q99.13438 257.225 99.65 257.50626Q100.18125 257.7875 100.525 258.31876Q100.86875 258.83438 101.05625 259.58438Q101.24375 260.33438 101.24375 261.61563Q101.24375 263.13126 100.93125 264.05313Q100.63438 264.975 100.00938 265.49063Q99.4 265.99063 98.44688 265.99063Q97.2125 265.99063 96.49375 265.1Q95.65 264.0375 95.65 261.61563ZM96.72813 261.61563Q96.72813 263.725 97.22813 264.42813Q97.72813 265.13126 98.44688 265.13126Q99.18125 265.13126 99.66563 264.42813Q100.16563 263.725 100.16563 261.61563Q100.16563 259.49063 99.66563 258.80313Q99.18125 258.1 98.43125 258.1Q97.7125 258.1 97.275 258.70938Q96.72813 259.49063 96.72813 261.61563ZM102.65 261.61563Q102.65 260.08438 102.9625 259.1625Q103.275 258.225 103.88438 257.725Q104.50938 257.225 105.44688 257.225Q106.13438 257.225 106.65 257.50626Q107.18125 257.7875 107.525 258.31876Q107.86875 258.83438 108.05625 259.58438Q108.24375 260.33438 108.24375 261.61563Q108.24375 263.13126 107.93125 264.05313Q107.63438 264.975 107.00938 265.49063Q106.4 265.99063 105.44688 265.99063Q104.2125 265.99063 103.49375 265.1Q102.65 264.0375 102.65 261.61563ZM103.72813 261.61563Q103.72813 263.725 104.22813 264.42813Q104.72813 265.13126 105.44688 265.13126Q106.18125 265.13126 106.66563 264.42813Q107.16563 263.725 107.16563 261.61563Q107.16563 259.49063 106.66563 258.80313Q106.18125 258.1 105.43125 258.1Q104.7125 258.1 104.275 258.70938Q103.72813 259.49063 103.72813 261.61563Z" fill-rule="nonzero"/><path fill="#000000" d="M57.134377 243.98438L57.134377 242.9375Q56.353127 242.82812 55.853127 242.57812Q55.353127 242.32812 54.99375 241.76562Q54.634377 241.1875 54.571877 240.35938L55.634377 240.17188Q55.759377 241.01562 56.071877 241.40625Q56.525 241.96875 57.134377 242.04688L57.134377 238.6875Q56.49375 238.5625 55.80625 238.17188Q55.30625 237.89062 55.025 237.40625Q54.759377 236.90625 54.759377 236.26562Q54.759377 235.14062 55.55625 234.45312Q56.0875 233.98438 57.134377 233.875L57.134377 233.375L57.759377 233.375L57.759377 233.875Q58.68125 233.95312 59.2125 234.40625Q59.915627 234.98438 60.05625 235.98438L58.9625 236.15625Q58.86875 235.53125 58.571877 235.20312Q58.275 234.875 57.759377 234.76562L57.759377 237.79688Q58.55625 238.0 58.821877 238.10938Q59.30625 238.32812 59.61875 238.64062Q59.93125 238.95312 60.0875 239.39062Q60.259377 239.8125 60.259377 240.3125Q60.259377 241.40625 59.55625 242.14062Q58.86875 242.875 57.759377 242.92188L57.759377 243.98438L57.134377 243.98438ZM57.134377 234.75Q56.525 234.84375 56.165627 235.25Q55.821877 235.64062 55.821877 236.1875Q55.821877 236.71875 56.11875 237.09375Q56.415627 237.45312 57.134377 237.67188L57.134377 234.75ZM57.759377 242.04688Q58.36875 241.96875 58.775 241.51562Q59.18125 241.04688 59.18125 240.375Q59.18125 239.79688 58.884377 239.45312Q58.603127 239.10938 57.759377 238.82812L57.759377 242.04688ZM65.61875 242.75L64.57188 242.75L64.57188 236.03125Q64.18125 236.39062 63.55625 236.76562Q62.946877 237.125 62.4625 237.29688L62.4625 236.28125Q63.3375 235.85938 63.99375 235.28125Q64.66563 234.6875 64.94688 234.125L65.61875 234.125L65.61875 242.75ZM69.2125 242.75L69.2125 241.54688L70.41563 241.54688L70.41563 242.75Q70.41563 243.40625 70.18125 243.8125Q69.94688 244.23438 69.44688 244.45312L69.15 244.0Q69.47813 243.85938 69.63438 243.5625Q69.79063 243.28125 69.82188 242.75L69.2125 242.75ZM71.65 240.5L72.75938 240.40625Q72.88438 241.21875 73.32188 241.625Q73.775 242.03125 74.41563 242.03125Q75.16563 242.03125 75.69688 241.45312Q76.22813 240.875 76.22813 239.9375Q76.22813 239.03125 75.7125 238.51562Q75.2125 237.98438 74.38438 237.98438Q73.88438 237.98438 73.4625 238.21875Q73.05625 238.45312 72.82188 238.8125L71.8375 238.6875L72.66563 234.28125L76.94688 234.28125L76.94688 235.28125L73.50938 235.28125L73.05625 237.59375Q73.82188 237.04688 74.66563 237.04688Q75.79063 237.04688 76.55625 237.82812Q77.3375 238.60938 77.3375 239.84375Q77.3375 241.0 76.66563 241.85938Q75.8375 242.89062 74.41563 242.89062Q73.24375 242.89062 72.49375 242.23438Q71.75938 241.57812 71.65 240.5ZM78.65 238.51562Q78.65 236.98438 78.9625 236.0625Q79.275 235.125 79.88438 234.625Q80.50938 234.125 81.44688 234.125Q82.13438 234.125 82.65 234.40625Q83.18125 234.6875 83.525 235.21875Q83.86875 235.73438 84.05625 236.48438Q84.24375 237.23438 84.24375 238.51562Q84.24375 240.03125 83.93125 240.95312Q83.63438 241.875 83.00938 242.39062Q82.4 242.89062 81.44688 242.89062Q80.2125 242.89062 79.49375 242.0Q78.65 240.9375 78.65 238.51562ZM79.72813 238.51562Q79.72813 240.625 80.22813 241.32812Q80.72813 242.03125 81.44688 242.03125Q82.18125 242.03125 82.66563 241.32812Q83.16563 240.625 83.16563 238.51562Q83.16563 236.39062 82.66563 235.70312Q82.18125 235.0 81.43125 235.0Q80.7125 235.0 80.275 235.60938Q79.72813 236.39062 79.72813 238.51562ZM85.65 238.51562Q85.65 236.98438 85.9625 236.0625Q86.275 235.125 86.88438 234.625Q87.50938 234.125 88.44688 234.125Q89.13438 234.125 89.65 234.40625Q90.18125 234.6875 90.525 235.21875Q90.86875 235.73438 91.05625 236.48438Q91.24375 237.23438 91.24375 238.51562Q91.24375 240.03125 90.93125 240.95312Q90.63438 241.875 90.00938 242.39062Q89.4 242.89062 88.44688 242.89062Q87.2125 242.89062 86.49375 242.0Q85.65 240.9375 85.65 238.51562ZM86.72813 238.51562Q86.72813 240.625 87.22813 241.32812Q87.72813 242.03125 88.44688 242.03125Q89.18125 242.03125 89.66563 241.32812Q90.16563 240.625 90.16563 238.51562Q90.16563 236.39062 89.66563 235.70312Q89.18125 235.0 88.43125 235.0Q87.7125 235.0 87.275 235.60938Q86.72813 236.39062 86.72813 238.51562ZM93.24375 242.75L93.24375 241.54688L94.44688 241.54688L94.44688 242.75L93.24375 242.75ZM95.65 238.51562Q95.65 236.98438 95.9625 236.0625Q96.275 235.125 96.88438 234.625Q97.50938 234.125 98.44688 234.125Q99.13438 234.125 99.65 234.40625Q100.18125 234.6875 100.525 235.21875Q100.86875 235.73438 101.05625 236.48438Q101.24375 237.23438 101.24375 238.51562Q101.24375 240.03125 100.93125 240.95312Q100.63438 241.875 100.00938 242.39062Q99.4 242.89062 98.44688 242.89062Q97.2125 242.89062 96.49375 242.0Q95.65 240.9375 95.65 238.51562ZM96.72813 238.51562Q96.72813 240.625 97.22813 241.32812Q97.72813 242.03125 98.44688 242.03125Q99.18125 242.03125 99.66563 241.32812Q100.16563 240.625 100.16563 238.51562Q100.16563 236.39062 99.66563 235.70312Q99.18125 235.0 98.43125 235.0Q97.7125 235.0 97.275 235.60938Q96.72813 236.39062 96.72813 238.51562ZM102.65 238.51562Q102.65 236.98438 102.9625 236.0625Q103.275 235.125 103.88438 234.625Q104.50938 234.125 105.44688 234.125Q106.13438 234.125 106.65 234.40625Q107.18125 234.6875 107.525 235.21875Q107.86875 235.73438 108.05625 236.48438Q108.24375 237.23438 108.24375 238.51562Q108.24375 240.03125 107.93125 240.95312Q107.63438 241.875 107.00938 242.39062Q106.4 242.89062 105.44688 242.89062Q104.2125 242.89062 103.49375 242.0Q102.65 240.9375 102.65 238.51562ZM103.72813 238.51562Q103.72813 240.625 104.22813 241.32812Q104.72813 242.03125 105.44688 242.03125Q106.18125 242.03125 106.66563 241.32812Q107.16563 240.625 107.16563 238.51562Q107.16563 236.39062 106.66563 235.70312Q106.18125 235.0 105.43125 235.0Q104.7125 235.0 104.275 235.60938Q103.72813 236.39062 103.72813 238.51562Z" fill-rule="nonzero"/><path fill="#000000" d="M57.134377 220.88437L57.134377 219.8375Q56.353127 219.72812 55.853127 219.47812Q55.353127 219.22812 54.99375 218.66562Q54.634377 218.0875 54.571877 217.25937L55.634377 217.07187Q55.759377 217.91562 56.071877 218.30624Q56.525 218.86874 57.134377 218.94687L57.134377 215.5875Q56.49375 215.4625 55.80625 215.07187Q55.30625 214.79062 55.025 214.30624Q54.759377 213.80624 54.759377 213.16562Q54.759377 212.04062 55.55625 211.35312Q56.0875 210.88437 57.134377 210.775L57.134377 210.275L57.759377 210.275L57.759377 210.775Q58.68125 210.85312 59.2125 211.30624Q59.915627 211.88437 60.05625 212.88437L58.9625 213.05624Q58.86875 212.43124 58.571877 212.10312Q58.275 211.775 57.759377 211.66562L57.759377 214.69687Q58.55625 214.9 58.821877 215.00937Q59.30625 215.22812 59.61875 215.54062Q59.93125 215.85312 60.0875 216.29062Q60.259377 216.7125 60.259377 217.2125Q60.259377 218.30624 59.55625 219.04062Q58.86875 219.775 57.759377 219.82187L57.759377 220.88437L57.134377 220.88437ZM57.134377 211.65Q56.525 211.74374 56.165627 212.15Q55.821877 212.54062 55.821877 213.0875Q55.821877 213.61874 56.11875 213.99374Q56.415627 214.35312 57.134377 214.57187L57.134377 211.65ZM57.759377 218.94687Q58.36875 218.86874 58.775 218.41562Q59.18125 217.94687 59.18125 217.275Q59.18125 216.69687 58.884377 216.35312Q58.603127 216.00937 57.759377 215.72812L57.759377 218.94687ZM61.65 217.38437L62.7125 217.24374Q62.884377 218.13437 63.321877 218.54062Q63.759377 218.93124 64.38438 218.93124Q65.13438 218.93124 65.65 218.41562Q66.16563 217.9 66.16563 217.13437Q66.16563 216.41562 65.68125 215.94687Q65.2125 215.4625 64.47813 215.4625Q64.18125 215.4625 63.728127 215.5875L63.853127 214.65Q63.9625 214.66562 64.025 214.66562Q64.69688 214.66562 65.22813 214.32187Q65.775 213.9625 65.775 213.22812Q65.775 212.65 65.38438 212.275Q64.99375 211.88437 64.36875 211.88437Q63.759377 211.88437 63.3375 212.275Q62.93125 212.66562 62.821877 213.43124L61.759377 213.24374Q61.946877 212.19687 62.634377 211.61874Q63.321877 211.025 64.3375 211.025Q65.04063 211.025 65.63438 211.3375Q66.22813 211.63437 66.54063 212.15Q66.85313 212.66562 66.85313 213.25937Q66.85313 213.80624 66.55625 214.275Q66.25938 214.72812 65.68125 214.99374Q66.43125 215.16562 66.85313 215.72812Q67.275 216.275 67.275 217.11874Q67.275 218.24374 66.44688 219.025Q65.63438 219.80624 64.38438 219.80624Q63.259377 219.80624 62.509377 219.13437Q61.759377 218.44687 61.65 217.38437ZM69.2125 219.65L69.2125 218.44687L70.41563 218.44687L70.41563 219.65Q70.41563 220.30624 70.18125 220.7125Q69.94688 221.13437 69.44688 221.35312L69.15 220.9Q69.47813 220.75937 69.63438 220.4625Q69.79063 220.18124 69.82188 219.65L69.2125 219.65ZM71.65 215.41562Q71.65 213.88437 71.9625 212.9625Q72.275 212.025 72.88438 211.525Q73.50938 211.025 74.44688 211.025Q75.13438 211.025 75.65 211.30624Q76.18125 211.5875 76.525 212.11874Q76.86875 212.63437 77.05625 213.38437Q77.24375 214.13437 77.24375 215.41562Q77.24375 216.93124 76.93125 217.85312Q76.63438 218.775 76.00938 219.29062Q75.4 219.79062 74.44688 219.79062Q73.2125 219.79062 72.49375 218.9Q71.65 217.8375 71.65 215.41562ZM72.72813 215.41562Q72.72813 217.525 73.22813 218.22812Q73.72813 218.93124 74.44688 218.93124Q75.18125 218.93124 75.66563 218.22812Q76.16563 217.525 76.16563 215.41562Q76.16563 213.29062 75.66563 212.60312Q75.18125 211.9 74.43125 211.9Q73.7125 211.9 73.275 212.50937Q72.72813 213.29062 72.72813 215.41562ZM78.65 215.41562Q78.65 213.88437 78.9625 212.9625Q79.275 212.025 79.88438 211.525Q80.50938 211.025 81.44688 211.025Q82.13438 211.025 82.65 211.30624Q83.18125 211.5875 83.525 212.11874Q83.86875 212.63437 84.05625 213.38437Q84.24375 214.13437 84.24375 215.41562Q84.24375 216.93124 83.93125 217.85312Q83.63438 218.775 83.00938 219.29062Q82.4 219.79062 81.44688 219.79062Q80.2125 219.79062 79.49375 218.9Q78.65 217.8375 78.65 215.41562ZM79.72813 215.41562Q79.72813 217.525 80.22813 218.22812Q80.72813 218.93124 81.44688 218.93124Q82.18125 218.93124 82.66563 218.22812Q83.16563 217.525 83.16563 215.41562Q83.16563 213.29062 82.66563 212.60312Q82.18125 211.9 81.43125 211.9Q80.7125 211.9 80.275 212.50937Q79.72813 213.29062 79.72813 215.41562ZM85.65 215.41562Q85.65 213.88437 85.9625 212.9625Q86.275 212.025 86.88438 211.525Q87.50938 211.025 88.44688 211.025Q89.13438 211.025 89.65 211.30624Q90.18125 211.5875 90.525 212.11874Q90.86875 212.63437 91.05625 213.38437Q91.24375 214.13437 91.24375 215.41562Q91.24375 216.93124 90.93125 217.85312Q90.63438 218.775 90.00938 219.29062Q89.4 219.79062 88.44688 219.79062Q87.2125 219.79062 86.49375 218.9Q85.65 217.8375 85.65 215.41562ZM86.72813 215.41562Q86.72813 217.525 87.22813 218.22812Q87.72813 218.93124 88.44688 218.93124Q89.18125 218.93124 89.66563 218.22812Q90.16563 217.525 90.16563 215.41562Q90.16563 213.29062 89.66563 212.60312Q89.18125 211.9 88.43125 211.9Q87.7125 211.9 87.275 212.50937Q86.72813 213.29062 86.72813 215.41562ZM93.24375 219.65L93.24375 218.44687L94.44688 218.44687L94.44688 219.65L93.24375 219.65ZM95.65 215.41562Q95.65 213.88437 95.9625 212.9625Q96.275 212.025 96.88438 211.525Q97.50938 211.025 98.44688 211.025Q99.13438 211.025 99.65 211.30624Q100.18125 211.5875 100.525 212.11874Q100.86875 212.63437 101.05625 213.38437Q101.24375 214.13437 101.24375 215.41562Q101.24375 216.93124 100.93125 217.85312Q100.63438 218.775 100.00938 219.29062Q99.4 219.79062 98.44688 219.79062Q97.2125 219.79062 96.49375 218.9Q95.65 217.8375 95.65 215.41562ZM96.72813 215.41562Q96.72813 217.525 97.22813 218.22812Q97.72813 218.93124 98.44688 218.93124Q99.18125 218.93124 99.66563 218.22812Q100.16563 217.525 100.16563 215.41562Q100.16563 213.29062 99.66563 212.60312Q99.18125 211.9 98.43125 211.9Q97.7125 211.9 97.275 212.50937Q96.72813 213.29062 96.72813 215.41562ZM102.65 215.41562Q102.65 213.88437 102.9625 212.9625Q103.275 212.025 103.88438 211.525Q104.50938 211.025 105.44688 211.025Q106.13438 211.025 106.65 211.30624Q107.18125 211.5875 107.525 212.11874Q107.86875 212.63437 108.05625 213.38437Q108.24375 214.13437 108.24375 215.41562Q108.24375 216.93124 107.93125 217.85312Q107.63438 218.775 107.00938 219.29062Q106.4 219.79062 105.44688 219.79062Q104.2125 219.79062 103.49375 218.9Q102.65 217.8375 102.65 215.41562ZM103.72813 215.41562Q103.72813 217.525 104.22813 218.22812Q104.72813 218.93124 105.44688 218.93124Q106.18125 218.93124 106.66563 218.22812Q107.16563 217.525 107.16563 215.41562Q107.16563 213.29062 106.66563 212.60312Q106.18125 211.9 105.43125 211.9Q104.7125 211.9 104.275 212.50937Q103.72813 213.29062 103.72813 215.41562Z" fill-rule="nonzero"/><path fill="#000000" d="M57.134377 197.78438L57.134377 196.7375Q56.353127 196.62813 55.853127 196.37813Q55.353127 196.12813 54.99375 195.56563Q54.634377 194.9875 54.571877 194.15938L55.634377 193.97188Q55.759377 194.81563 56.071877 195.20625Q56.525 195.76875 57.134377 195.84688L57.134377 192.4875Q56.49375 192.3625 55.80625 191.97188Q55.30625 191.69063 55.025 191.20625Q54.759377 190.70625 54.759377 190.06563Q54.759377 188.94063 55.55625 188.25313Q56.0875 187.78438 57.134377 187.675L57.134377 187.175L57.759377 187.175L57.759377 187.675Q58.68125 187.75313 59.2125 188.20625Q59.915627 188.78438 60.05625 189.78438L58.9625 189.95625Q58.86875 189.33125 58.571877 189.00313Q58.275 188.675 57.759377 188.56563L57.759377 191.59688Q58.55625 191.8 58.821877 191.90938Q59.30625 192.12813 59.61875 192.44063Q59.93125 192.75313 60.0875 193.19063Q60.259377 193.6125 60.259377 194.1125Q60.259377 195.20625 59.55625 195.94063Q58.86875 196.675 57.759377 196.72188L57.759377 197.78438L57.134377 197.78438ZM57.134377 188.55Q56.525 188.64375 56.165627 189.05Q55.821877 189.44063 55.821877 189.9875Q55.821877 190.51875 56.11875 190.89375Q56.415627 191.25313 57.134377 191.47188L57.134377 188.55ZM57.759377 195.84688Q58.36875 195.76875 58.775 195.31563Q59.18125 194.84688 59.18125 194.175Q59.18125 193.59688 58.884377 193.25313Q58.603127 192.90938 57.759377 192.62813L57.759377 195.84688ZM65.025 196.55L65.025 194.4875L61.30625 194.4875L61.30625 193.51875L65.22813 187.95625L66.0875 187.95625L66.0875 193.51875L67.24375 193.51875L67.24375 194.4875L66.0875 194.4875L66.0875 196.55L65.025 196.55ZM65.025 193.51875L65.025 189.65938L62.3375 193.51875L65.025 193.51875ZM69.2125 196.55L69.2125 195.34688L70.41563 195.34688L70.41563 196.55Q70.41563 197.20625 70.18125 197.6125Q69.94688 198.03438 69.44688 198.25313L69.15 197.8Q69.47813 197.65938 69.63438 197.3625Q69.79063 197.08125 69.82188 196.55L69.2125 196.55ZM71.65 194.3L72.75938 194.20625Q72.88438 195.01875 73.32188 195.425Q73.775 195.83125 74.41563 195.83125Q75.16563 195.83125 75.69688 195.25313Q76.22813 194.675 76.22813 193.7375Q76.22813 192.83125 75.7125 192.31563Q75.2125 191.78438 74.38438 191.78438Q73.88438 191.78438 73.4625 192.01875Q73.05625 192.25313 72.82188 192.6125L71.8375 192.4875L72.66563 188.08125L76.94688 188.08125L76.94688 189.08125L73.50938 189.08125L73.05625 191.39375Q73.82188 190.84688 74.66563 190.84688Q75.79063 190.84688 76.55625 191.62813Q77.3375 192.40938 77.3375 193.64375Q77.3375 194.8 76.66563 195.65938Q75.8375 196.69063 74.41563 196.69063Q73.24375 196.69063 72.49375 196.03438Q71.75938 195.37813 71.65 194.3ZM78.65 192.31563Q78.65 190.78438 78.9625 189.8625Q79.275 188.925 79.88438 188.425Q80.50938 187.925 81.44688 187.925Q82.13438 187.925 82.65 188.20625Q83.18125 188.4875 83.525 189.01875Q83.86875 189.53438 84.05625 190.28438Q84.24375 191.03438 84.24375 192.31563Q84.24375 193.83125 83.93125 194.75313Q83.63438 195.675 83.00938 196.19063Q82.4 196.69063 81.44688 196.69063Q80.2125 196.69063 79.49375 195.8Q78.65 194.7375 78.65 192.31563ZM79.72813 192.31563Q79.72813 194.425 80.22813 195.12813Q80.72813 195.83125 81.44688 195.83125Q82.18125 195.83125 82.66563 195.12813Q83.16563 194.425 83.16563 192.31563Q83.16563 190.19063 82.66563 189.50313Q82.18125 188.8 81.43125 188.8Q80.7125 188.8 80.275 189.40938Q79.72813 190.19063 79.72813 192.31563ZM85.65 192.31563Q85.65 190.78438 85.9625 189.8625Q86.275 188.925 86.88438 188.425Q87.50938 187.925 88.44688 187.925Q89.13438 187.925 89.65 188.20625Q90.18125 188.4875 90.525 189.01875Q90.86875 189.53438 91.05625 190.28438Q91.24375 191.03438 91.24375 192.31563Q91.24375 193.83125 90.93125 194.75313Q90.63438 195.675 90.00938 196.19063Q89.4 196.69063 88.44688 196.69063Q87.2125 196.69063 86.49375 195.8Q85.65 194.7375 85.65 192.31563ZM86.72813 192.31563Q86.72813 194.425 87.22813 195.12813Q87.72813 195.83125 88.44688 195.83125Q89.18125 195.83125 89.66563 195.12813Q90.16563 194.425 90.16563 192.31563Q90.16563 190.19063 89.66563 189.50313Q89.18125 188.8 88.43125 188.8Q87.7125 188.8 87.275 189.40938Q86.72813 190.19063 86.72813 192.31563ZM93.24375 196.55L93.24375 195.34688L94.44688 195.34688L94.44688 196.55L93.24375 196.55ZM95.65 192.31563Q95.65 190.78438 95.9625 189.8625Q96.275 188.925 96.88438 188.425Q97.50938 187.925 98.44688 187.925Q99.13438 187.925 99.65 188.20625Q100.18125 188.4875 100.525 189.01875Q100.86875 189.53438 101.05625 190.28438Q101.24375 191.03438 101.24375 192.31563Q101.24375 193.83125 100.93125 194.75313Q100.63438 195.675 100.00938 196.19063Q99.4 196.69063 98.44688 196.69063Q97.2125 196.69063 96.49375 195.8Q95.65 194.7375 95.65 192.31563ZM96.72813 192.31563Q96.72813 194.425 97.22813 195.12813Q97.72813 195.83125 98.44688 195.83125Q99.18125 195.83125 99.66563 195.12813Q100.16563 194.425 100.16563 192.31563Q100.16563 190.19063 99.66563 189.50313Q99.18125 188.8 98.43125 188.8Q97.7125 188.8 97.275 189.40938Q96.72813 190.19063 96.72813 192.31563ZM102.65 192.31563Q102.65 190.78438 102.9625 189.8625Q103.275 188.925 103.88438 188.425Q104.50938 187.925 105.44688 187.925Q106.13438 187.925 106.65 188.20625Q107.18125 188.4875 107.525 189.01875Q107.86875 189.53438 108.05625 190.28438Q108.24375 191.03438 108.24375 192.31563Q108.24375 193.83125 107.93125 194.75313Q107.63438 195.675 107.00938 196.19063Q106.4 196.69063 105.44688 196.69063Q104.2125 196.69063 103.49375 195.8Q102.65 194.7375 102.65 192.31563ZM103.72813 192.31563Q103.72813 194.425 104.22813 195.12813Q104.72813 195.83125 105.44688 195.83125Q106.18125 195.83125 106.66563 195.12813Q107.16563 194.425 107.16563 192.31563Q107.16563 190.19063 106.66563 189.50313Q106.18125 188.8 105.43125 188.8Q104.7125 188.8 104.275 189.40938Q103.72813 190.19063 103.72813 192.31563Z" fill-rule="nonzero"/><path fill="#000000" d="M57.134377 174.68437L57.134377 173.6375Q56.353127 173.52812 55.853127 173.27812Q55.353127 173.02812 54.99375 172.46562Q54.634377 171.8875 54.571877 171.05937L55.634377 170.87187Q55.759377 171.71562 56.071877 172.10625Q56.525 172.66875 57.134377 172.74687L57.134377 169.3875Q56.49375 169.2625 55.80625 168.87187Q55.30625 168.59062 55.025 168.10625Q54.759377 167.60625 54.759377 166.96562Q54.759377 165.84062 55.55625 165.15312Q56.0875 164.68437 57.134377 164.575L57.134377 164.075L57.759377 164.075L57.759377 164.575Q58.68125 164.65312 59.2125 165.10625Q59.915627 165.68437 60.05625 166.68437L58.9625 166.85625Q58.86875 166.23125 58.571877 165.90312Q58.275 165.575 57.759377 165.46562L57.759377 168.49687Q58.55625 168.7 58.821877 168.80937Q59.30625 169.02812 59.61875 169.34062Q59.93125 169.65312 60.0875 170.09062Q60.259377 170.5125 60.259377 171.0125Q60.259377 172.10625 59.55625 172.84062Q58.86875 173.575 57.759377 173.62187L57.759377 174.68437L57.134377 174.68437ZM57.134377 165.45Q56.525 165.54375 56.165627 165.95Q55.821877 166.34062 55.821877 166.8875Q55.821877 167.41875 56.11875 167.79375Q56.415627 168.15312 57.134377 168.37187L57.134377 165.45ZM57.759377 172.74687Q58.36875 172.66875 58.775 172.21562Q59.18125 171.74687 59.18125 171.075Q59.18125 170.49687 58.884377 170.15312Q58.603127 169.80937 57.759377 169.52812L57.759377 172.74687ZM67.11875 166.96562L66.07188 167.04375Q65.93125 166.41875 65.68125 166.1375Q65.24375 165.68437 64.61875 165.68437Q64.11875 165.68437 63.728127 165.96562Q63.24375 166.34062 62.946877 167.04375Q62.665627 167.73125 62.65 169.0125Q63.025 168.43437 63.571877 168.15312Q64.13438 167.87187 64.74375 167.87187Q65.79063 167.87187 66.525 168.65312Q67.275 169.43437 67.275 170.65312Q67.275 171.46562 66.91563 172.16875Q66.57188 172.85625 65.9625 173.23125Q65.35313 173.59062 64.5875 173.59062Q63.259377 173.59062 62.43125 172.62187Q61.603127 171.65312 61.603127 169.43437Q61.603127 166.93437 62.525 165.80937Q63.321877 164.825 64.68125 164.825Q65.69688 164.825 66.3375 165.40312Q66.99375 165.96562 67.11875 166.96562ZM62.821877 170.66875Q62.821877 171.21562 63.040627 171.71562Q63.275 172.2 63.68125 172.46562Q64.10313 172.73125 64.57188 172.73125Q65.22813 172.73125 65.7125 172.2Q66.19688 171.65312 66.19688 170.73125Q66.19688 169.84062 65.7125 169.325Q65.24375 168.80937 64.525 168.80937Q63.80625 168.80937 63.30625 169.325Q62.821877 169.84062 62.821877 170.66875ZM69.2125 173.45L69.2125 172.24687L70.41563 172.24687L70.41563 173.45Q70.41563 174.10625 70.18125 174.5125Q69.94688 174.93437 69.44688 175.15312L69.15 174.7Q69.47813 174.55937 69.63438 174.2625Q69.79063 173.98125 69.82188 173.45L69.2125 173.45ZM71.65 169.21562Q71.65 167.68437 71.9625 166.7625Q72.275 165.825 72.88438 165.325Q73.50938 164.825 74.44688 164.825Q75.13438 164.825 75.65 165.10625Q76.18125 165.3875 76.525 165.91875Q76.86875 166.43437 77.05625 167.18437Q77.24375 167.93437 77.24375 169.21562Q77.24375 170.73125 76.93125 171.65312Q76.63438 172.575 76.00938 173.09062Q75.4 173.59062 74.44688 173.59062Q73.2125 173.59062 72.49375 172.7Q71.65 171.6375 71.65 169.21562ZM72.72813 169.21562Q72.72813 171.325 73.22813 172.02812Q73.72813 172.73125 74.44688 172.73125Q75.18125 172.73125 75.66563 172.02812Q76.16563 171.325 76.16563 169.21562Q76.16563 167.09062 75.66563 166.40312Q75.18125 165.7 74.43125 165.7Q73.7125 165.7 73.275 166.30937Q72.72813 167.09062 72.72813 169.21562ZM78.65 169.21562Q78.65 167.68437 78.9625 166.7625Q79.275 165.825 79.88438 165.325Q80.50938 164.825 81.44688 164.825Q82.13438 164.825 82.65 165.10625Q83.18125 165.3875 83.525 165.91875Q83.86875 166.43437 84.05625 167.18437Q84.24375 167.93437 84.24375 169.21562Q84.24375 170.73125 83.93125 171.65312Q83.63438 172.575 83.00938 173.09062Q82.4 173.59062 81.44688 173.59062Q80.2125 173.59062 79.49375 172.7Q78.65 171.6375 78.65 169.21562ZM79.72813 169.21562Q79.72813 171.325 80.22813 172.02812Q80.72813 172.73125 81.44688 172.73125Q82.18125 172.73125 82.66563 172.02812Q83.16563 171.325 83.16563 169.21562Q83.16563 167.09062 82.66563 166.40312Q82.18125 165.7 81.43125 165.7Q80.7125 165.7 80.275 166.30937Q79.72813 167.09062 79.72813 169.21562ZM85.65 169.21562Q85.65 167.68437 85.9625 166.7625Q86.275 165.825 86.88438 165.325Q87.50938 164.825 88.44688 164.825Q89.13438 164.825 89.65 165.10625Q90.18125 165.3875 90.525 165.91875Q90.86875 166.43437 91.05625 167.18437Q91.24375 167.93437 91.24375 169.21562Q91.24375 170.73125 90.93125 171.65312Q90.63438 172.575 90.00938 173.09062Q89.4 173.59062 88.44688 173.59062Q87.2125 173.59062 86.49375 172.7Q85.65 171.6375 85.65 169.21562ZM86.72813 169.21562Q86.72813 171.325 87.22813 172.02812Q87.72813 172.73125 88.44688 172.73125Q89.18125 172.73125 89.66563 172.02812Q90.16563 171.325 90.16563 169.21562Q90.16563 167.09062 89.66563 166.40312Q89.18125 165.7 88.43125 165.7Q87.7125 165.7 87.275 166.30937Q86.72813 167.09062 86.72813 169.21562ZM93.24375 173.45L93.24375 172.24687L94.44688 172.24687L94.44688 173.45L93.24375 173.45ZM95.65 169.21562Q95.65 167.68437 95.9625 166.7625Q96.275 165.825 96.88438 165.325Q97.50938 164.825 98.44688 164.825Q99.13438 164.825 99.65 165.10625Q100.18125 165.3875 100.525 165.91875Q100.86875 166.43437 101.05625 167.18437Q101.24375 167.93437 101.24375 169.21562Q101.24375 170.73125 100.93125 171.65312Q100.63438 172.575 100.00938 173.09062Q99.4 173.59062 98.44688 173.59062Q97.2125 173.59062 96.49375 172.7Q95.65 171.6375 95.65 169.21562ZM96.72813 169.21562Q96.72813 171.325 97.22813 172.02812Q97.72813 172.73125 98.44688 172.73125Q99.18125 172.73125 99.66563 172.02812Q100.16563 171.325 100.16563 169.21562Q100.16563 167.09062 99.66563 166.40312Q99.18125 165.7 98.43125 165.7Q97.7125 165.7 97.275 166.30937Q96.72813 167.09062 96.72813 169.21562ZM102.65 169.21562Q102.65 167.68437 102.9625 166.7625Q103.275 165.825 103.88438 165.325Q104.50938 164.825 105.44688 164.825Q106.13438 164.825 106.65 165.10625Q107.18125 165.3875 107.525 165.91875Q107.86875 166.43437 108.05625 167.18437Q108.24375 167.93437 108.24375 169.21562Q108.24375 170.73125 107.93125 171.65312Q107.63438 172.575 107.00938 173.09062Q106.4 173.59062 105.44688 173.59062Q104.2125 173.59062 103.49375 172.7Q102.65 171.6375 102.65 169.21562ZM103.72813 169.21562Q103.72813 171.325 104.22813 172.02812Q104.72813 172.73125 105.44688 172.73125Q106.18125 172.73125 106.66563 172.02812Q107.16563 171.325 107.16563 169.21562Q107.16563 167.09062 106.66563 166.40312Q106.18125 165.7 105.43125 165.7Q104.7125 165.7 104.275 166.30937Q103.72813 167.09062 103.72813 169.21562Z" fill-rule="nonzero"/><path fill="#000000" d="M57.134377 151.58438L57.134377 150.5375Q56.353127 150.42813 55.853127 150.17813Q55.353127 149.92813 54.99375 149.36563Q54.634377 148.7875 54.571877 147.95938L55.634377 147.77188Q55.759377 148.61563 56.071877 149.00626Q56.525 149.56876 57.134377 149.64688L57.134377 146.2875Q56.49375 146.1625 55.80625 145.77188Q55.30625 145.49063 55.025 145.00626Q54.759377 144.50626 54.759377 143.86563Q54.759377 142.74063 55.55625 142.05313Q56.0875 141.58438 57.134377 141.475L57.134377 140.975L57.759377 140.975L57.759377 141.475Q58.68125 141.55313 59.2125 142.00626Q59.915627 142.58438 60.05625 143.58438L58.9625 143.75626Q58.86875 143.13126 58.571877 142.80313Q58.275 142.475 57.759377 142.36563L57.759377 145.39688Q58.55625 145.6 58.821877 145.70938Q59.30625 145.92813 59.61875 146.24063Q59.93125 146.55313 60.0875 146.99063Q60.259377 147.4125 60.259377 147.9125Q60.259377 149.00626 59.55625 149.74063Q58.86875 150.475 57.759377 150.52188L57.759377 151.58438L57.134377 151.58438ZM57.134377 142.35Q56.525 142.44376 56.165627 142.85Q55.821877 143.24063 55.821877 143.7875Q55.821877 144.31876 56.11875 144.69376Q56.415627 145.05313 57.134377 145.27188L57.134377 142.35ZM57.759377 149.64688Q58.36875 149.56876 58.775 149.11563Q59.18125 148.64688 59.18125 147.975Q59.18125 147.39688 58.884377 147.05313Q58.603127 146.70938 57.759377 146.42813L57.759377 149.64688ZM61.7125 142.88126L61.7125 141.86563L67.275 141.86563L67.275 142.69376Q66.4625 143.56876 65.65 145.02188Q64.85313 146.45938 64.41563 147.99063Q64.0875 149.06876 64.00938 150.35L62.915627 150.35Q62.93125 149.33438 63.30625 147.89688Q63.696877 146.45938 64.4 145.13126Q65.11875 143.80313 65.93125 142.88126L61.7125 142.88126ZM69.2125 150.35L69.2125 149.14688L70.41563 149.14688L70.41563 150.35Q70.41563 151.00626 70.18125 151.4125Q69.94688 151.83438 69.44688 152.05313L69.15 151.6Q69.47813 151.45938 69.63438 151.1625Q69.79063 150.88126 69.82188 150.35L69.2125 150.35ZM71.65 148.1L72.75938 148.00626Q72.88438 148.81876 73.32188 149.225Q73.775 149.63126 74.41563 149.63126Q75.16563 149.63126 75.69688 149.05313Q76.22813 148.475 76.22813 147.5375Q76.22813 146.63126 75.7125 146.11563Q75.2125 145.58438 74.38438 145.58438Q73.88438 145.58438 73.4625 145.81876Q73.05625 146.05313 72.82188 146.4125L71.8375 146.2875L72.66563 141.88126L76.94688 141.88126L76.94688 142.88126L73.50938 142.88126L73.05625 145.19376Q73.82188 144.64688 74.66563 144.64688Q75.79063 144.64688 76.55625 145.42813Q77.3375 146.20938 77.3375 147.44376Q77.3375 148.6 76.66563 149.45938Q75.8375 150.49063 74.41563 150.49063Q73.24375 150.49063 72.49375 149.83438Q71.75938 149.17813 71.65 148.1ZM78.65 146.11563Q78.65 144.58438 78.9625 143.6625Q79.275 142.725 79.88438 142.225Q80.50938 141.725 81.44688 141.725Q82.13438 141.725 82.65 142.00626Q83.18125 142.2875 83.525 142.81876Q83.86875 143.33438 84.05625 144.08438Q84.24375 144.83438 84.24375 146.11563Q84.24375 147.63126 83.93125 148.55313Q83.63438 149.475 83.00938 149.99063Q82.4 150.49063 81.44688 150.49063Q80.2125 150.49063 79.49375 149.6Q78.65 148.5375 78.65 146.11563ZM79.72813 146.11563Q79.72813 148.225 80.22813 148.92813Q80.72813 149.63126 81.44688 149.63126Q82.18125 149.63126 82.66563 148.92813Q83.16563 148.225 83.16563 146.11563Q83.16563 143.99063 82.66563 143.30313Q82.18125 142.6 81.43125 142.6Q80.7125 142.6 80.275 143.20938Q79.72813 143.99063 79.72813 146.11563ZM85.65 146.11563Q85.65 144.58438 85.9625 143.6625Q86.275 142.725 86.88438 142.225Q87.50938 141.725 88.44688 141.725Q89.13438 141.725 89.65 142.00626Q90.18125 142.2875 90.525 142.81876Q90.86875 143.33438 91.05625 144.08438Q91.24375 144.83438 91.24375 146.11563Q91.24375 147.63126 90.93125 148.55313Q90.63438 149.475 90.00938 149.99063Q89.4 150.49063 88.44688 150.49063Q87.2125 150.49063 86.49375 149.6Q85.65 148.5375 85.65 146.11563ZM86.72813 146.11563Q86.72813 148.225 87.22813 148.92813Q87.72813 149.63126 88.44688 149.63126Q89.18125 149.63126 89.66563 148.92813Q90.16563 148.225 90.16563 146.11563Q90.16563 143.99063 89.66563 143.30313Q89.18125 142.6 88.43125 142.6Q87.7125 142.6 87.275 143.20938Q86.72813 143.99063 86.72813 146.11563ZM93.24375 150.35L93.24375 149.14688L94.44688 149.14688L94.44688 150.35L93.24375 150.35ZM95.65 146.11563Q95.65 144.58438 95.9625 143.6625Q96.275 142.725 96.88438 142.225Q97.50938 141.725 98.44688 141.725Q99.13438 141.725 99.65 142.00626Q100.18125 142.2875 100.525 142.81876Q100.86875 143.33438 101.05625 144.08438Q101.24375 144.83438 101.24375 146.11563Q101.24375 147.63126 100.93125 148.55313Q100.63438 149.475 100.00938 149.99063Q99.4 150.49063 98.44688 150.49063Q97.2125 150.49063 96.49375 149.6Q95.65 148.5375 95.65 146.11563ZM96.72813 146.11563Q96.72813 148.225 97.22813 148.92813Q97.72813 149.63126 98.44688 149.63126Q99.18125 149.63126 99.66563 148.92813Q100.16563 148.225 100.16563 146.11563Q100.16563 143.99063 99.66563 143.30313Q99.18125 142.6 98.43125 142.6Q97.7125 142.6 97.275 143.20938Q96.72813 143.99063 96.72813 146.11563ZM102.65 146.11563Q102.65 144.58438 102.9625 143.6625Q103.275 142.725 103.88438 142.225Q104.50938 141.725 105.44688 141.725Q106.13438 141.725 106.65 142.00626Q107.18125 142.2875 107.525 142.81876Q107.86875 143.33438 108.05625 144.08438Q108.24375 144.83438 108.24375 146.11563Q108.24375 147.63126 107.93125 148.55313Q107.63438 149.475 107.00938 149.99063Q106.4 150.49063 105.44688 150.49063Q104.2125 150.49063 103.49375 149.6Q102.65 148.5375 102.65 146.11563ZM103.72813 146.11563Q103.72813 148.225 104.22813 148.92813Q104.72813 149.63126 105.44688 149.63126Q106.18125 149.63126 106.66563 148.92813Q107.16563 148.225 107.16563 146.11563Q107.16563 143.99063 106.66563 143.30313Q106.18125 142.6 105.43125 142.6Q104.7125 142.6 104.275 143.20938Q103.72813 143.99063 103.72813 146.11563Z" fill-rule="nonzero"/><path fill="#000000" d="M57.134377 128.48438L57.134377 127.4375Q56.353127 127.328125 55.853127 127.078125Q55.353127 126.828125 54.99375 126.265625Q54.634377 125.6875 54.571877 124.859375L55.634377 124.671875Q55.759377 125.515625 56.071877 125.90625Q56.525 126.46875 57.134377 126.546875L57.134377 123.1875Q56.49375 123.0625 55.80625 122.671875Q55.30625 122.390625 55.025 121.90625Q54.759377 121.40625 54.759377 120.765625Q54.759377 119.640625 55.55625 118.953125Q56.0875 118.484375 57.134377 118.375L57.134377 117.875L57.759377 117.875L57.759377 118.375Q58.68125 118.453125 59.2125 118.90625Q59.915627 119.484375 60.05625 120.484375L58.9625 120.65625Q58.86875 120.03125 58.571877 119.703125Q58.275 119.375 57.759377 119.265625L57.759377 122.296875Q58.55625 122.5 58.821877 122.609375Q59.30625 122.828125 59.61875 123.140625Q59.93125 123.453125 60.0875 123.890625Q60.259377 124.3125 60.259377 124.8125Q60.259377 125.90625 59.55625 126.640625Q58.86875 127.375 57.759377 127.421875L57.759377 128.48438L57.134377 128.48438ZM57.134377 119.25Q56.525 119.34375 56.165627 119.75Q55.821877 120.140625 55.821877 120.6875Q55.821877 121.21875 56.11875 121.59375Q56.415627 121.953125 57.134377 122.171875L57.134377 119.25ZM57.759377 126.546875Q58.36875 126.46875 58.775 126.015625Q59.18125 125.546875 59.18125 124.875Q59.18125 124.296875 58.884377 123.953125Q58.603127 123.609375 57.759377 123.328125L57.759377 126.546875ZM61.80625 125.265625L62.821877 125.171875Q62.946877 125.890625 63.30625 126.21875Q63.68125 126.53125 64.24375 126.53125Q64.72813 126.53125 65.0875 126.3125Q65.4625 126.078125 65.69688 125.71875Q65.93125 125.34375 66.0875 124.71875Q66.24375 124.078125 66.24375 123.421875Q66.24375 123.34375 66.24375 123.203125Q65.93125 123.703125 65.38438 124.03125Q64.8375 124.34375 64.19688 124.34375Q63.11875 124.34375 62.384377 123.578125Q61.65 122.796875 61.65 121.53125Q61.65 120.21875 62.415627 119.421875Q63.196877 118.625 64.35313 118.625Q65.18125 118.625 65.86875 119.078125Q66.57188 119.53125 66.93125 120.375Q67.29063 121.203125 67.29063 122.78125Q67.29063 124.421875 66.93125 125.40625Q66.5875 126.375 65.86875 126.890625Q65.16563 127.390625 64.22813 127.390625Q63.2125 127.390625 62.571877 126.84375Q61.93125 126.28125 61.80625 125.265625ZM66.11875 121.46875Q66.11875 120.5625 65.63438 120.03125Q65.16563 119.5 64.47813 119.5Q63.775 119.5 63.24375 120.078125Q62.728127 120.640625 62.728127 121.5625Q62.728127 122.375 63.228127 122.890625Q63.728127 123.40625 64.44688 123.40625Q65.18125 123.40625 65.65 122.890625Q66.11875 122.375 66.11875 121.46875ZM69.2125 127.25L69.2125 126.046875L70.41563 126.046875L70.41563 127.25Q70.41563 127.90625 70.18125 128.3125Q69.94688 128.73438 69.44688 128.95312L69.15 128.5Q69.47813 128.35938 69.63438 128.0625Q69.79063 127.78125 69.82188 127.25L69.2125 127.25ZM71.65 123.015625Q71.65 121.484375 71.9625 120.5625Q72.275 119.625 72.88438 119.125Q73.50938 118.625 74.44688 118.625Q75.13438 118.625 75.65 118.90625Q76.18125 119.1875 76.525 119.71875Q76.86875 120.234375 77.05625 120.984375Q77.24375 121.734375 77.24375 123.015625Q77.24375 124.53125 76.93125 125.453125Q76.63438 126.375 76.00938 126.890625Q75.4 127.390625 74.44688 127.390625Q73.2125 127.390625 72.49375 126.5Q71.65 125.4375 71.65 123.015625ZM72.72813 123.015625Q72.72813 125.125 73.22813 125.828125Q73.72813 126.53125 74.44688 126.53125Q75.18125 126.53125 75.66563 125.828125Q76.16563 125.125 76.16563 123.015625Q76.16563 120.890625 75.66563 120.203125Q75.18125 119.5 74.43125 119.5Q73.7125 119.5 73.275 120.109375Q72.72813 120.890625 72.72813 123.015625ZM78.65 123.015625Q78.65 121.484375 78.9625 120.5625Q79.275 119.625 79.88438 119.125Q80.50938 118.625 81.44688 118.625Q82.13438 118.625 82.65 118.90625Q83.18125 119.1875 83.525 119.71875Q83.86875 120.234375 84.05625 120.984375Q84.24375 121.734375 84.24375 123.015625Q84.24375 124.53125 83.93125 125.453125Q83.63438 126.375 83.00938 126.890625Q82.4 127.390625 81.44688 127.390625Q80.2125 127.390625 79.49375 126.5Q78.65 125.4375 78.65 123.015625ZM79.72813 123.015625Q79.72813 125.125 80.22813 125.828125Q80.72813 126.53125 81.44688 126.53125Q82.18125 126.53125 82.66563 125.828125Q83.16563 125.125 83.16563 123.015625Q83.16563 120.890625 82.66563 120.203125Q82.18125 119.5 81.43125 119.5Q80.7125 119.5 80.275 120.109375Q79.72813 120.890625 79.72813 123.015625ZM85.65 123.015625Q85.65 121.484375 85.9625 120.5625Q86.275 119.625 86.88438 119.125Q87.50938 118.625 88.44688 118.625Q89.13438 118.625 89.65 118.90625Q90.18125 119.1875 90.525 119.71875Q90.86875 120.234375 91.05625 120.984375Q91.24375 121.734375 91.24375 123.015625Q91.24375 124.53125 90.93125 125.453125Q90.63438 126.375 90.00938 126.890625Q89.4 127.390625 88.44688 127.390625Q87.2125 127.390625 86.49375 126.5Q85.65 125.4375 85.65 123.015625ZM86.72813 123.015625Q86.72813 125.125 87.22813 125.828125Q87.72813 126.53125 88.44688 126.53125Q89.18125 126.53125 89.66563 125.828125Q90.16563 125.125 90.16563 123.015625Q90.16563 120.890625 89.66563 120.203125Q89.18125 119.5 88.43125 119.5Q87.7125 119.5 87.275 120.109375Q86.72813 120.890625 86.72813 123.015625ZM93.24375 127.25L93.24375 126.046875L94.44688 126.046875L94.44688 127.25L93.24375 127.25ZM95.65 123.015625Q95.65 121.484375 95.9625 120.5625Q96.275 119.625 96.88438 119.125Q97.50938 118.625 98.44688 118.625Q99.13438 118.625 99.65 118.90625Q100.18125 119.1875 100.525 119.71875Q100.86875 120.234375 101.05625 120.984375Q101.24375 121.734375 101.24375 123.015625Q101.24375 124.53125 100.93125 125.453125Q100.63438 126.375 100.00938 126.890625Q99.4 127.390625 98.44688 127.390625Q97.2125 127.390625 96.49375 126.5Q95.65 125.4375 95.65 123.015625ZM96.72813 123.015625Q96.72813 125.125 97.22813 125.828125Q97.72813 126.53125 98.44688 126.53125Q99.18125 126.53125 99.66563 125.828125Q100.16563 125.125 100.16563 123.015625Q100.16563 120.890625 99.66563 120.203125Q99.18125 119.5 98.43125 119.5Q97.7125 119.5 97.275 120.109375Q96.72813 120.890625 96.72813 123.015625ZM102.65 123.015625Q102.65 121.484375 102.9625 120.5625Q103.275 119.625 103.88438 119.125Q104.50938 118.625 105.44688 118.625Q106.13438 118.625 106.65 118.90625Q107.18125 119.1875 107.525 119.71875Q107.86875 120.234375 108.05625 120.984375Q108.24375 121.734375 108.24375 123.015625Q108.24375 124.53125 107.93125 125.453125Q107.63438 126.375 107.00938 126.890625Q106.4 127.390625 105.44688 127.390625Q104.2125 127.390625 103.49375 126.5Q102.65 125.4375 102.65 123.015625ZM103.72813 123.015625Q103.72813 125.125 104.22813 125.828125Q104.72813 126.53125 105.44688 126.53125Q106.18125 126.53125 106.66563 125.828125Q107.16563 125.125 107.16563 123.015625Q107.16563 120.890625 106.66563 120.203125Q106.18125 119.5 105.43125 119.5Q104.7125 119.5 104.275 120.109375Q103.72813 120.890625 103.72813 123.015625Z" fill-rule="nonzero"/><path fill="#000000" d="M50.134377 105.38438L50.134377 104.3375Q49.353127 104.22813 48.853127 103.97813Q48.353127 103.72813 47.99375 103.16563Q47.634377 102.5875 47.571877 101.75938L48.634377 101.57188Q48.759377 102.41563 49.071877 102.80625Q49.525 103.36875 50.134377 103.44688L50.134377 100.0875Q49.49375 99.9625 48.80625 99.57188Q48.30625 99.29063 48.025 98.80625Q47.759377 98.30625 47.759377 97.66563Q47.759377 96.54063 48.55625 95.85313Q49.0875 95.38438 50.134377 95.275L50.134377 94.775L50.759377 94.775L50.759377 95.275Q51.68125 95.35313 52.2125 95.80625Q52.915627 96.38438 53.05625 97.38438L51.9625 97.55625Q51.86875 96.93125 51.571877 96.60313Q51.275 96.275 50.759377 96.16563L50.759377 99.19688Q51.55625 99.4 51.821877 99.50938Q52.30625 99.72813 52.61875 100.04063Q52.93125 100.35313 53.0875 100.79063Q53.259377 101.2125 53.259377 101.7125Q53.259377 102.80625 52.55625 103.54063Q51.86875 104.275 50.759377 104.32188L50.759377 105.38438L50.134377 105.38438ZM50.134377 96.15Q49.525 96.24375 49.165627 96.65Q48.821877 97.04063 48.821877 97.5875Q48.821877 98.11875 49.11875 98.49375Q49.415627 98.85313 50.134377 99.07188L50.134377 96.15ZM50.759377 103.44688Q51.36875 103.36875 51.775 102.91563Q52.18125 102.44688 52.18125 101.775Q52.18125 101.19688 51.884377 100.85313Q51.603127 100.50938 50.759377 100.22813L50.759377 103.44688ZM58.61875 104.15L57.571877 104.15L57.571877 97.43125Q57.18125 97.79063 56.55625 98.16563Q55.946877 98.525 55.4625 98.69688L55.4625 97.68125Q56.3375 97.25938 56.99375 96.68125Q57.665627 96.0875 57.946877 95.525L58.61875 95.525L58.61875 104.15ZM61.65 99.91563Q61.65 98.38438 61.9625 97.4625Q62.275 96.525 62.884377 96.025Q63.509377 95.525 64.44688 95.525Q65.13438 95.525 65.65 95.80625Q66.18125 96.0875 66.525 96.61875Q66.86875 97.13438 67.05625 97.88438Q67.24375 98.63438 67.24375 99.91563Q67.24375 101.43125 66.93125 102.35313Q66.63438 103.275 66.00938 103.79063Q65.4 104.29063 64.44688 104.29063Q63.2125 104.29063 62.49375 103.4Q61.65 102.3375 61.65 99.91563ZM62.728127 99.91563Q62.728127 102.025 63.228127 102.72813Q63.728127 103.43125 64.44688 103.43125Q65.18125 103.43125 65.66563 102.72813Q66.16563 102.025 66.16563 99.91563Q66.16563 97.79063 65.66563 97.10313Q65.18125 96.4 64.43125 96.4Q63.7125 96.4 63.275 97.00938Q62.728127 97.79063 62.728127 99.91563ZM69.2125 104.15L69.2125 102.94688L70.41563 102.94688L70.41563 104.15Q70.41563 104.80625 70.18125 105.2125Q69.94688 105.63438 69.44688 105.85313L69.15 105.4Q69.47813 105.25938 69.63438 104.9625Q69.79063 104.68125 69.82188 104.15L69.2125 104.15ZM71.65 101.9L72.75938 101.80625Q72.88438 102.61875 73.32188 103.025Q73.775 103.43125 74.41563 103.43125Q75.16563 103.43125 75.69688 102.85313Q76.22813 102.275 76.22813 101.3375Q76.22813 100.43125 75.7125 99.91563Q75.2125 99.38438 74.38438 99.38438Q73.88438 99.38438 73.4625 99.61875Q73.05625 99.85313 72.82188 100.2125L71.8375 100.0875L72.66563 95.68125L76.94688 95.68125L76.94688 96.68125L73.50938 96.68125L73.05625 98.99375Q73.82188 98.44688 74.66563 98.44688Q75.79063 98.44688 76.55625 99.22813Q77.3375 100.00938 77.3375 101.24375Q77.3375 102.4 76.66563 103.25938Q75.8375 104.29063 74.41563 104.29063Q73.24375 104.29063 72.49375 103.63438Q71.75938 102.97813 71.65 101.9ZM78.65 99.91563Q78.65 98.38438 78.9625 97.4625Q79.275 96.525 79.88438 96.025Q80.50938 95.525 81.44688 95.525Q82.13438 95.525 82.65 95.80625Q83.18125 96.0875 83.525 96.61875Q83.86875 97.13438 84.05625 97.88438Q84.24375 98.63438 84.24375 99.91563Q84.24375 101.43125 83.93125 102.35313Q83.63438 103.275 83.00938 103.79063Q82.4 104.29063 81.44688 104.29063Q80.2125 104.29063 79.49375 103.4Q78.65 102.3375 78.65 99.91563ZM79.72813 99.91563Q79.72813 102.025 80.22813 102.72813Q80.72813 103.43125 81.44688 103.43125Q82.18125 103.43125 82.66563 102.72813Q83.16563 102.025 83.16563 99.91563Q83.16563 97.79063 82.66563 97.10313Q82.18125 96.4 81.43125 96.4Q80.7125 96.4 80.275 97.00938Q79.72813 97.79063 79.72813 99.91563ZM85.65 99.91563Q85.65 98.38438 85.9625 97.4625Q86.275 96.525 86.88438 96.025Q87.50938 95.525 88.44688 95.525Q89.13438 95.525 89.65 95.80625Q90.18125 96.0875 90.525 96.61875Q90.86875 97.13438 91.05625 97.88438Q91.24375 98.63438 91.24375 99.91563Q91.24375 101.43125 90.93125 102.35313Q90.63438 103.275 90.00938 103.79063Q89.4 104.29063 88.44688 104.29063Q87.2125 104.29063 86.49375 103.4Q85.65 102.3375 85.65 99.91563ZM86.72813 99.91563Q86.72813 102.025 87.22813 102.72813Q87.72813 103.43125 88.44688 103.43125Q89.18125 103.43125 89.66563 102.72813Q90.16563 102.025 90.16563 99.91563Q90.16563 97.79063 89.66563 97.10313Q89.18125 96.4 88.43125 96.4Q87.7125 96.4 87.275 97.00938Q86.72813 97.79063 86.72813 99.91563ZM93.24375 104.15L93.24375 102.94688L94.44688 102.94688L94.44688 104.15L93.24375 104.15ZM95.65 99.91563Q95.65 98.38438 95.9625 97.4625Q96.275 96.525 96.88438 96.025Q97.50938 95.525 98.44688 95.525Q99.13438 95.525 99.65 95.80625Q100.18125 96.0875 100.525 96.61875Q100.86875 97.13438 101.05625 97.88438Q101.24375 98.63438 101.24375 99.91563Q101.24375 101.43125 100.93125 102.35313Q100.63438 103.275 100.00938 103.79063Q99.4 104.29063 98.44688 104.29063Q97.2125 104.29063 96.49375 103.4Q95.65 102.3375 95.65 99.91563ZM96.72813 99.91563Q96.72813 102.025 97.22813 102.72813Q97.72813 103.43125 98.44688 103.43125Q99.18125 103.43125 99.66563 102.72813Q100.16563 102.025 100.16563 99.91563Q100.16563 97.79063 99.66563 97.10313Q99.18125 96.4 98.43125 96.4Q97.7125 96.4 97.275 97.00938Q96.72813 97.79063 96.72813 99.91563ZM102.65 99.91563Q102.65 98.38438 102.9625 97.4625Q103.275 96.525 103.88438 96.025Q104.50938 95.525 105.44688 95.525Q106.13438 95.525 106.65 95.80625Q107.18125 96.0875 107.525 96.61875Q107.86875 97.13438 108.05625 97.88438Q108.24375 98.63438 108.24375 99.91563Q108.24375 101.43125 107.93125 102.35313Q107.63438 103.275 107.00938 103.79063Q106.4 104.29063 105.44688 104.29063Q104.2125 104.29063 103.49375 103.4Q102.65 102.3375 102.65 99.91563ZM103.72813 99.91563Q103.72813 102.025 104.22813 102.72813Q104.72813 103.43125 105.44688 103.43125Q106.18125 103.43125 106.66563 102.72813Q107.16563 102.025 107.16563 99.91563Q107.16563 97.79063 106.66563 97.10313Q106.18125 96.4 105.43125 96.4Q104.7125 96.4 104.275 97.00938Q103.72813 97.79063 103.72813 99.91563Z" fill-rule="nonzero"/><path fill="#000000" d="M50.134377 82.28438L50.134377 81.2375Q49.353127 81.12813 48.853127 80.87813Q48.353127 80.62813 47.99375 80.06563Q47.634377 79.4875 47.571877 78.65938L48.634377 78.47188Q48.759377 79.31563 49.071877 79.70625Q49.525 80.26875 50.134377 80.34688L50.134377 76.9875Q49.49375 76.8625 48.80625 76.47188Q48.30625 76.19063 48.025 75.70625Q47.759377 75.20625 47.759377 74.56563Q47.759377 73.44063 48.55625 72.75313Q49.0875 72.28438 50.134377 72.175L50.134377 71.675L50.759377 71.675L50.759377 72.175Q51.68125 72.25313 52.2125 72.70625Q52.915627 73.28438 53.05625 74.28438L51.9625 74.45625Q51.86875 73.83125 51.571877 73.50313Q51.275 73.175 50.759377 73.06563L50.759377 76.09688Q51.55625 76.3 51.821877 76.40938Q52.30625 76.62813 52.61875 76.94063Q52.93125 77.25313 53.0875 77.69063Q53.259377 78.1125 53.259377 78.6125Q53.259377 79.70625 52.55625 80.44063Q51.86875 81.175 50.759377 81.22188L50.759377 82.28438L50.134377 82.28438ZM50.134377 73.05Q49.525 73.14375 49.165627 73.55Q48.821877 73.94063 48.821877 74.4875Q48.821877 75.01875 49.11875 75.39375Q49.415627 75.75313 50.134377 75.97188L50.134377 73.05ZM50.759377 80.34688Q51.36875 80.26875 51.775 79.81563Q52.18125 79.34688 52.18125 78.675Q52.18125 78.09688 51.884377 77.75313Q51.603127 77.40938 50.759377 77.12813L50.759377 80.34688ZM58.61875 81.05L57.571877 81.05L57.571877 74.33125Q57.18125 74.69063 56.55625 75.06563Q55.946877 75.425 55.4625 75.59688L55.4625 74.58125Q56.3375 74.15938 56.99375 73.58125Q57.665627 72.9875 57.946877 72.425L58.61875 72.425L58.61875 81.05ZM67.19688 80.03438L67.19688 81.05L61.509377 81.05Q61.509377 80.675 61.634377 80.31563Q61.853127 79.7375 62.321877 79.175Q62.80625 78.6125 63.7125 77.87813Q65.11875 76.72188 65.60313 76.05Q66.10313 75.37813 66.10313 74.78438Q66.10313 74.15938 65.65 73.7375Q65.19688 73.3 64.47813 73.3Q63.7125 73.3 63.259377 73.75313Q62.80625 74.20625 62.790627 75.01875L61.7125 74.90938Q61.821877 73.69063 62.540627 73.06563Q63.275 72.425 64.50938 72.425Q65.74375 72.425 66.4625 73.1125Q67.18125 73.8 67.18125 74.81563Q67.18125 75.33125 66.9625 75.83125Q66.75938 76.31563 66.25938 76.87813Q65.775 77.425 64.65 78.37813Q63.696877 79.175 63.415627 79.47188Q63.15 79.75313 62.978127 80.03438L67.19688 80.03438ZM69.2125 81.05L69.2125 79.84688L70.41563 79.84688L70.41563 81.05Q70.41563 81.70625 70.18125 82.1125Q69.94688 82.53438 69.44688 82.75313L69.15 82.3Q69.47813 82.15938 69.63438 81.8625Q69.79063 81.58125 69.82188 81.05L69.2125 81.05ZM71.65 76.81563Q71.65 75.28438 71.9625 74.3625Q72.275 73.425 72.88438 72.925Q73.50938 72.425 74.44688 72.425Q75.13438 72.425 75.65 72.70625Q76.18125 72.9875 76.525 73.51875Q76.86875 74.03438 77.05625 74.78438Q77.24375 75.53438 77.24375 76.81563Q77.24375 78.33125 76.93125 79.25313Q76.63438 80.175 76.00938 80.69063Q75.4 81.19063 74.44688 81.19063Q73.2125 81.19063 72.49375 80.3Q71.65 79.2375 71.65 76.81563ZM72.72813 76.81563Q72.72813 78.925 73.22813 79.62813Q73.72813 80.33125 74.44688 80.33125Q75.18125 80.33125 75.66563 79.62813Q76.16563 78.925 76.16563 76.81563Q76.16563 74.69063 75.66563 74.00313Q75.18125 73.3 74.43125 73.3Q73.7125 73.3 73.275 73.90938Q72.72813 74.69063 72.72813 76.81563ZM78.65 76.81563Q78.65 75.28438 78.9625 74.3625Q79.275 73.425 79.88438 72.925Q80.50938 72.425 81.44688 72.425Q82.13438 72.425 82.65 72.70625Q83.18125 72.9875 83.525 73.51875Q83.86875 74.03438 84.05625 74.78438Q84.24375 75.53438 84.24375 76.81563Q84.24375 78.33125 83.93125 79.25313Q83.63438 80.175 83.00938 80.69063Q82.4 81.19063 81.44688 81.19063Q80.2125 81.19063 79.49375 80.3Q78.65 79.2375 78.65 76.81563ZM79.72813 76.81563Q79.72813 78.925 80.22813 79.62813Q80.72813 80.33125 81.44688 80.33125Q82.18125 80.33125 82.66563 79.62813Q83.16563 78.925 83.16563 76.81563Q83.16563 74.69063 82.66563 74.00313Q82.18125 73.3 81.43125 73.3Q80.7125 73.3 80.275 73.90938Q79.72813 74.69063 79.72813 76.81563ZM85.65 76.81563Q85.65 75.28438 85.9625 74.3625Q86.275 73.425 86.88438 72.925Q87.50938 72.425 88.44688 72.425Q89.13438 72.425 89.65 72.70625Q90.18125 72.9875 90.525 73.51875Q90.86875 74.03438 91.05625 74.78438Q91.24375 75.53438 91.24375 76.81563Q91.24375 78.33125 90.93125 79.25313Q90.63438 80.175 90.00938 80.69063Q89.4 81.19063 88.44688 81.19063Q87.2125 81.19063 86.49375 80.3Q85.65 79.2375 85.65 76.81563ZM86.72813 76.81563Q86.72813 78.925 87.22813 79.62813Q87.72813 80.33125 88.44688 80.33125Q89.18125 80.33125 89.66563 79.62813Q90.16563 78.925 90.16563 76.81563Q90.16563 74.69063 89.66563 74.00313Q89.18125 73.3 88.43125 73.3Q87.7125 73.3 87.275 73.90938Q86.72813 74.69063 86.72813 76.81563ZM93.24375 81.05L93.24375 79.84688L94.44688 79.84688L94.44688 81.05L93.24375 81.05ZM95.65 76.81563Q95.65 75.28438 95.9625 74.3625Q96.275 73.425 96.88438 72.925Q97.50938 72.425 98.44688 72.425Q99.13438 72.425 99.65 72.70625Q100.18125 72.9875 100.525 73.51875Q100.86875 74.03438 101.05625 74.78438Q101.24375 75.53438 101.24375 76.81563Q101.24375 78.33125 100.93125 79.25313Q100.63438 80.175 100.00938 80.69063Q99.4 81.19063 98.44688 81.19063Q97.2125 81.19063 96.49375 80.3Q95.65 79.2375 95.65 76.81563ZM96.72813 76.81563Q96.72813 78.925 97.22813 79.62813Q97.72813 80.33125 98.44688 80.33125Q99.18125 80.33125 99.66563 79.62813Q100.16563 78.925 100.16563 76.81563Q100.16563 74.69063 99.66563 74.00313Q99.18125 73.3 98.43125 73.3Q97.7125 73.3 97.275 73.90938Q96.72813 74.69063 96.72813 76.81563ZM102.65 76.81563Q102.65 75.28438 102.9625 74.3625Q103.275 73.425 103.88438 72.925Q104.50938 72.425 105.44688 72.425Q106.13438 72.425 106.65 72.70625Q107.18125 72.9875 107.525 73.51875Q107.86875 74.03438 108.05625 74.78438Q108.24375 75.53438 108.24375 76.81563Q108.24375 78.33125 107.93125 79.25313Q107.63438 80.175 107.00938 80.69063Q106.4 81.19063 105.44688 81.19063Q104.2125 81.19063 103.49375 80.3Q102.65 79.2375 102.65 76.81563ZM103.72813 76.81563Q103.72813 78.925 104.22813 79.62813Q104.72813 80.33125 105.44688 80.33125Q106.18125 80.33125 106.66563 79.62813Q107.16563 78.925 107.16563 76.81563Q107.16563 74.69063 106.66563 74.00313Q106.18125 73.3 105.43125 73.3Q104.7125 73.3 104.275 73.90938Q103.72813 74.69063 103.72813 76.81563Z" fill-rule="nonzero"/><path fill="#000000" d="M50.134377 59.184376L50.134377 58.1375Q49.353127 58.028126 48.853127 57.778126Q48.353127 57.528126 47.99375 56.965626Q47.634377 56.3875 47.571877 55.559376L48.634377 55.371876Q48.759377 56.215626 49.071877 56.60625Q49.525 57.16875 50.134377 57.246876L50.134377 53.8875Q49.49375 53.7625 48.80625 53.371876Q48.30625 53.090626 48.025 52.60625Q47.759377 52.10625 47.759377 51.465626Q47.759377 50.340626 48.55625 49.653126Q49.0875 49.184376 50.134377 49.075L50.134377 48.575L50.759377 48.575L50.759377 49.075Q51.68125 49.153126 52.2125 49.60625Q52.915627 50.184376 53.05625 51.184376L51.9625 51.35625Q51.86875 50.73125 51.571877 50.403126Q51.275 50.075 50.759377 49.965626L50.759377 52.996876Q51.55625 53.2 51.821877 53.309376Q52.30625 53.528126 52.61875 53.840626Q52.93125 54.153126 53.0875 54.590626Q53.259377 55.0125 53.259377 55.5125Q53.259377 56.60625 52.55625 57.340626Q51.86875 58.075 50.759377 58.121876L50.759377 59.184376L50.134377 59.184376ZM50.134377 49.95Q49.525 50.04375 49.165627 50.45Q48.821877 50.840626 48.821877 51.3875Q48.821877 51.91875 49.11875 52.29375Q49.415627 52.653126 50.134377 52.871876L50.134377 49.95ZM50.759377 57.246876Q51.36875 57.16875 51.775 56.715626Q52.18125 56.246876 52.18125 55.575Q52.18125 54.996876 51.884377 54.653126Q51.603127 54.309376 50.759377 54.028126L50.759377 57.246876ZM58.61875 57.95L57.571877 57.95L57.571877 51.23125Q57.18125 51.590626 56.55625 51.965626Q55.946877 52.325 55.4625 52.496876L55.4625 51.48125Q56.3375 51.059376 56.99375 50.48125Q57.665627 49.8875 57.946877 49.325L58.61875 49.325L58.61875 57.95ZM61.65 55.684376L62.7125 55.54375Q62.884377 56.434376 63.321877 56.840626Q63.759377 57.23125 64.38438 57.23125Q65.13438 57.23125 65.65 56.715626Q66.16563 56.2 66.16563 55.434376Q66.16563 54.715626 65.68125 54.246876Q65.2125 53.7625 64.47813 53.7625Q64.18125 53.7625 63.728127 53.8875L63.853127 52.95Q63.9625 52.965626 64.025 52.965626Q64.69688 52.965626 65.22813 52.621876Q65.775 52.2625 65.775 51.528126Q65.775 50.95 65.38438 50.575Q64.99375 50.184376 64.36875 50.184376Q63.759377 50.184376 63.3375 50.575Q62.93125 50.965626 62.821877 51.73125L61.759377 51.54375Q61.946877 50.496876 62.634377 49.91875Q63.321877 49.325 64.3375 49.325Q65.04063 49.325 65.63438 49.6375Q66.22813 49.934376 66.54063 50.45Q66.85313 50.965626 66.85313 51.559376Q66.85313 52.10625 66.55625 52.575Q66.25938 53.028126 65.68125 53.29375Q66.43125 53.465626 66.85313 54.028126Q67.275 54.575 67.275 55.41875Q67.275 56.54375 66.44688 57.325Q65.63438 58.10625 64.38438 58.10625Q63.259377 58.10625 62.509377 57.434376Q61.759377 56.746876 61.65 55.684376ZM69.2125 57.95L69.2125 56.746876L70.41563 56.746876L70.41563 57.95Q70.41563 58.60625 70.18125 59.0125Q69.94688 59.434376 69.44688 59.653126L69.15 59.2Q69.47813 59.059376 69.63438 58.7625Q69.79063 58.48125 69.82188 57.95L69.2125 57.95ZM71.65 55.7L72.75938 55.60625Q72.88438 56.41875 73.32188 56.825Q73.775 57.23125 74.41563 57.23125Q75.16563 57.23125 75.69688 56.653126Q76.22813 56.075 76.22813 55.1375Q76.22813 54.23125 75.7125 53.715626Q75.2125 53.184376 74.38438 53.184376Q73.88438 53.184376 73.4625 53.41875Q73.05625 53.653126 72.82188 54.0125L71.8375 53.8875L72.66563 49.48125L76.94688 49.48125L76.94688 50.48125L73.50938 50.48125L73.05625 52.79375Q73.82188 52.246876 74.66563 52.246876Q75.79063 52.246876 76.55625 53.028126Q77.3375 53.809376 77.3375 55.04375Q77.3375 56.2 76.66563 57.059376Q75.8375 58.090626 74.41563 58.090626Q73.24375 58.090626 72.49375 57.434376Q71.75938 56.778126 71.65 55.7ZM78.65 53.715626Q78.65 52.184376 78.9625 51.2625Q79.275 50.325 79.88438 49.825Q80.50938 49.325 81.44688 49.325Q82.13438 49.325 82.65 49.60625Q83.18125 49.8875 83.525 50.41875Q83.86875 50.934376 84.05625 51.684376Q84.24375 52.434376 84.24375 53.715626Q84.24375 55.23125 83.93125 56.153126Q83.63438 57.075 83.00938 57.590626Q82.4 58.090626 81.44688 58.090626Q80.2125 58.090626 79.49375 57.2Q78.65 56.1375 78.65 53.715626ZM79.72813 53.715626Q79.72813 55.825 80.22813 56.528126Q80.72813 57.23125 81.44688 57.23125Q82.18125 57.23125 82.66563 56.528126Q83.16563 55.825 83.16563 53.715626Q83.16563 51.590626 82.66563 50.903126Q82.18125 50.2 81.43125 50.2Q80.7125 50.2 80.275 50.809376Q79.72813 51.590626 79.72813 53.715626ZM85.65 53.715626Q85.65 52.184376 85.9625 51.2625Q86.275 50.325 86.88438 49.825Q87.50938 49.325 88.44688 49.325Q89.13438 49.325 89.65 49.60625Q90.18125 49.8875 90.525 50.41875Q90.86875 50.934376 91.05625 51.684376Q91.24375 52.434376 91.24375 53.715626Q91.24375 55.23125 90.93125 56.153126Q90.63438 57.075 90.00938 57.590626Q89.4 58.090626 88.44688 58.090626Q87.2125 58.090626 86.49375 57.2Q85.65 56.1375 85.65 53.715626ZM86.72813 53.715626Q86.72813 55.825 87.22813 56.528126Q87.72813 57.23125 88.44688 57.23125Q89.18125 57.23125 89.66563 56.528126Q90.16563 55.825 90.16563 53.715626Q90.16563 51.590626 89.66563 50.903126Q89.18125 50.2 88.43125 50.2Q87.7125 50.2 87.275 50.809376Q86.72813 51.590626 86.72813 53.715626ZM93.24375 57.95L93.24375 56.746876L94.44688 56.746876L94.44688 57.95L93.24375 57.95ZM95.65 53.715626Q95.65 52.184376 95.9625 51.2625Q96.275 50.325 96.88438 49.825Q97.50938 49.325 98.44688 49.325Q99.13438 49.325 99.65 49.60625Q100.18125 49.8875 100.525 50.41875Q100.86875 50.934376 101.05625 51.684376Q101.24375 52.434376 101.24375 53.715626Q101.24375 55.23125 100.93125 56.153126Q100.63438 57.075 100.00938 57.590626Q99.4 58.090626 98.44688 58.090626Q97.2125 58.090626 96.49375 57.2Q95.65 56.1375 95.65 53.715626ZM96.72813 53.715626Q96.72813 55.825 97.22813 56.528126Q97.72813 57.23125 98.44688 57.23125Q99.18125 57.23125 99.66563 56.528126Q100.16563 55.825 100.16563 53.715626Q100.16563 51.590626 99.66563 50.903126Q99.18125 50.2 98.43125 50.2Q97.7125 50.2 97.275 50.809376Q96.72813 51.590626 96.72813 53.715626ZM102.65 53.715626Q102.65 52.184376 102.9625 51.2625Q103.275 50.325 103.88438 49.825Q104.50938 49.325 105.44688 49.325Q106.13438 49.325 106.65 49.60625Q107.18125 49.8875 107.525 50.41875Q107.86875 50.934376 108.05625 51.684376Q108.24375 52.434376 108.24375 53.715626Q108.24375 55.23125 107.93125 56.153126Q107.63438 57.075 107.00938 57.590626Q106.4 58.090626 105.44688 58.090626Q104.2125 58.090626 103.49375 57.2Q102.65 56.1375 102.65 53.715626ZM103.72813 53.715626Q103.72813 55.825 104.22813 56.528126Q104.72813 57.23125 105.44688 57.23125Q106.18125 57.23125 106.66563 56.528126Q107.16563 55.825 107.16563 53.715626Q107.16563 51.590626 106.66563 50.903126Q106.18125 50.2 105.43125 50.2Q104.7125 50.2 104.275 50.809376Q103.72813 51.590626 103.72813 53.715626Z" fill-rule="nonzero"/><path fill="#000000" d="M136.26688 282.08438L137.32938 281.99063Q137.4075 282.64688 137.68875 283.05313Q137.97 283.45938 138.54813 283.725Q139.14188 283.975 139.87625 283.975Q140.51688 283.975 141.01688 283.7875Q141.51688 283.58438 141.75125 283.25626Q142.00125 282.9125 142.00125 282.52188Q142.00125 282.11563 141.76688 281.81876Q141.5325 281.50626 141.00125 281.30313Q140.64188 281.1625 139.45438 280.88126Q138.2825 280.6 137.81375 280.35Q137.18875 280.02188 136.89188 279.55313Q136.595 279.06876 136.595 278.475Q136.595 277.83438 136.95438 277.27188Q137.32938 276.69376 138.0325 276.4125Q138.75125 276.11563 139.61063 276.11563Q140.56375 276.11563 141.29813 276.42813Q142.0325 276.725 142.42313 277.33438Q142.81375 277.92813 142.845 278.67813L141.75125 278.75626Q141.6575 277.94376 141.14188 277.5375Q140.64188 277.11563 139.6575 277.11563Q138.62625 277.11563 138.1575 277.49063Q137.68875 277.86563 137.68875 278.39688Q137.68875 278.86563 138.01688 279.1625Q138.345 279.45938 139.72 279.77188Q141.11063 280.08438 141.62625 280.31876Q142.37625 280.67813 142.73563 281.20938Q143.095 281.725 143.095 282.42813Q143.095 283.11563 142.70438 283.725Q142.31375 284.31876 141.57938 284.6625Q140.845 284.99063 139.92313 284.99063Q138.75125 284.99063 137.95438 284.6625Q137.17313 284.31876 136.72 283.63126Q136.2825 282.94376 136.26688 282.08438ZM144.51688 287.24063L144.51688 278.63126L145.47 278.63126L145.47 279.42813Q145.81375 278.95938 146.23563 278.725Q146.67313 278.49063 147.2825 278.49063Q148.07938 278.49063 148.68875 278.89688Q149.29813 279.30313 149.595 280.05313Q149.9075 280.80313 149.9075 281.69376Q149.9075 282.64688 149.56375 283.4125Q149.23563 284.17813 148.57938 284.58438Q147.92313 284.99063 147.20438 284.99063Q146.67313 284.99063 146.25125 284.77188Q145.82938 284.5375 145.56375 284.20938L145.56375 287.24063L144.51688 287.24063ZM145.47 281.77188Q145.47 282.975 145.95438 283.55313Q146.43875 284.11563 147.12625 284.11563Q147.82938 284.11563 148.32938 283.52188Q148.82938 282.92813 148.82938 281.67813Q148.82938 280.49063 148.345 279.9125Q147.86063 279.31876 147.17313 279.31876Q146.50125 279.31876 145.98563 279.94376Q145.47 280.56876 145.47 281.77188ZM151.50125 284.85L151.50125 278.63126L152.45438 278.63126L152.45438 279.56876Q152.81375 278.9125 153.11063 278.70938Q153.42313 278.49063 153.79813 278.49063Q154.32938 278.49063 154.87625 278.81876L154.51688 279.80313Q154.12625 279.56876 153.75125 279.56876Q153.39188 279.56876 153.11063 279.7875Q152.845 279.99063 152.73563 280.36563Q152.54813 280.92813 152.54813 281.58438L152.54813 284.85L151.50125 284.85ZM155.51688 277.475L155.51688 276.25626L156.57938 276.25626L156.57938 277.475L155.51688 277.475ZM155.51688 284.85L155.51688 278.63126L156.57938 278.63126L156.57938 284.85L155.51688 284.85ZM158.51688 284.85L158.51688 278.63126L159.45438 278.63126L159.45438 279.50626Q160.14188 278.49063 161.43875 278.49063Q162.00125 278.49063 162.47 278.69376Q162.95438 278.89688 163.18875 279.225Q163.42313 279.55313 163.51688 279.99063Q163.56375 280.2875 163.56375 281.02188L163.56375 284.85L162.51688 284.85L162.51688 281.06876Q162.51688 280.4125 162.39188 280.1Q162.26688 279.7875 161.95438 279.6Q161.64188 279.39688 161.22 279.39688Q160.54813 279.39688 160.04813 279.83438Q159.56375 280.25626 159.56375 281.44376L159.56375 284.85L158.51688 284.85ZM167.81375 283.9125L167.97 284.83438Q167.51688 284.92813 167.17313 284.92813Q166.595 284.92813 166.2825 284.75626Q165.97 284.56876 165.82938 284.27188Q165.70438 283.975 165.70438 283.02188L165.70438 279.44376L164.93875 279.44376L164.93875 278.63126L165.70438 278.63126L165.70438 277.08438L166.75125 276.45938L166.75125 278.63126L167.81375 278.63126L167.81375 279.44376L166.75125 279.44376L166.75125 283.08438Q166.75125 283.5375 166.79813 283.6625Q166.86063 283.7875 166.98563 283.86563Q167.11063 283.94376 167.345 283.94376Q167.5325 283.94376 167.81375 283.9125ZM175.18875 284.85L174.14188 284.85L174.14188 278.13126Q173.75125 278.49063 173.12625 278.86563Q172.51688 279.225 172.0325 279.39688L172.0325 278.38126Q172.9075 277.95938 173.56375 277.38126Q174.23563 276.7875 174.51688 276.225L175.18875 276.225L175.18875 284.85Z" fill-rule="nonzero"/><path fill="#000000" d="M207.40688 282.08438L208.46938 281.99063Q208.5475 282.64688 208.82875 283.05313Q209.11 283.45938 209.68813 283.725Q210.28188 283.975 211.01625 283.975Q211.65688 283.975 212.15688 283.7875Q212.65688 283.58438 212.89125 283.25626Q213.14125 282.9125 213.14125 282.52188Q213.14125 282.11563 212.90688 281.81876Q212.6725 281.50626 212.14125 281.30313Q211.78188 281.1625 210.59438 280.88126Q209.4225 280.6 208.95375 280.35Q208.32875 280.02188 208.03188 279.55313Q207.735 279.06876 207.735 278.475Q207.735 277.83438 208.09438 277.27188Q208.46938 276.69376 209.1725 276.4125Q209.89125 276.11563 210.75063 276.11563Q211.70375 276.11563 212.43813 276.42813Q213.1725 276.725 213.56313 277.33438Q213.95375 277.92813 213.985 278.67813L212.89125 278.75626Q212.7975 277.94376 212.28188 277.5375Q211.78188 277.11563 210.7975 277.11563Q209.76625 277.11563 209.2975 277.49063Q208.82875 277.86563 208.82875 278.39688Q208.82875 278.86563 209.15688 279.1625Q209.485 279.45938 210.86 279.77188Q212.25063 280.08438 212.76625 280.31876Q213.51625 280.67813 213.87563 281.20938Q214.235 281.725 214.235 282.42813Q214.235 283.11563 213.84438 283.725Q213.45375 284.31876 212.71938 284.6625Q211.985 284.99063 211.06313 284.99063Q209.89125 284.99063 209.09438 284.6625Q208.31313 284.31876 207.86 283.63126Q207.4225 282.94376 207.40688 282.08438ZM215.65688 287.24063L215.65688 278.63126L216.61 278.63126L216.61 279.42813Q216.95375 278.95938 217.37563 278.725Q217.81313 278.49063 218.4225 278.49063Q219.21938 278.49063 219.82875 278.89688Q220.43813 279.30313 220.735 280.05313Q221.0475 280.80313 221.0475 281.69376Q221.0475 282.64688 220.70375 283.4125Q220.37563 284.17813 219.71938 284.58438Q219.06313 284.99063 218.34438 284.99063Q217.81313 284.99063 217.39125 284.77188Q216.96938 284.5375 216.70375 284.20938L216.70375 287.24063L215.65688 287.24063ZM216.61 281.77188Q216.61 282.975 217.09438 283.55313Q217.57875 284.11563 218.26625 284.11563Q218.96938 284.11563 219.46938 283.52188Q219.96938 282.92813 219.96938 281.67813Q219.96938 280.49063 219.485 279.9125Q219.00063 279.31876 218.31313 279.31876Q217.64125 279.31876 217.12563 279.94376Q216.61 280.56876 216.61 281.77188ZM222.64125 284.85L222.64125 278.63126L223.59438 278.63126L223.59438 279.56876Q223.95375 278.9125 224.25063 278.70938Q224.56313 278.49063 224.93813 278.49063Q225.46938 278.49063 226.01625 278.81876L225.65688 279.80313Q225.26625 279.56876 224.89125 279.56876Q224.53188 279.56876 224.25063 279.7875Q223.985 279.99063 223.87563 280.36563Q223.68813 280.92813 223.68813 281.58438L223.68813 284.85L222.64125 284.85ZM226.65688 277.475L226.65688 276.25626L227.71938 276.25626L227.71938 277.475L226.65688 277.475ZM226.65688 284.85L226.65688 278.63126L227.71938 278.63126L227.71938 284.85L226.65688 284.85ZM229.65688 284.85L229.65688 278.63126L230.59438 278.63126L230.59438 279.50626Q231.28188 278.49063 232.57875 278.49063Q233.14125 278.49063 233.61 278.69376Q234.09438 278.89688 234.32875 279.225Q234.56313 279.55313 234.65688 279.99063Q234.70375 280.2875 234.70375 281.02188L234.70375 284.85L233.65688 284.85L233.65688 281.06876Q233.65688 280.4125 233.53188 280.1Q233.40688 279.7875 233.09438 279.6Q232.78188 279.39688 232.36 279.39688Q231.68813 279.39688 231.18813 279.83438Q230.70375 280.25626 230.70375 281.44376L230.70375 284.85L229.65688 284.85ZM238.95375 283.9125L239.11 284.83438Q238.65688 284.92813 238.31313 284.92813Q237.735 284.92813 237.4225 284.75626Q237.11 284.56876 236.96938 284.27188Q236.84438 283.975 236.84438 283.02188L236.84438 279.44376L236.07875 279.44376L236.07875 278.63126L236.84438 278.63126L236.84438 277.08438L237.89125 276.45938L237.89125 278.63126L238.95375 278.63126L238.95375 279.44376L237.89125 279.44376L237.89125 283.08438Q237.89125 283.5375 237.93813 283.6625Q238.00063 283.7875 238.12563 283.86563Q238.25063 283.94376 238.485 283.94376Q238.6725 283.94376 238.95375 283.9125ZM247.90688 283.83438L247.90688 284.85L242.21938 284.85Q242.21938 284.475 242.34438 284.11563Q242.56313 283.5375 243.03188 282.975Q243.51625 282.4125 244.4225 281.67813Q245.82875 280.52188 246.31313 279.85Q246.81313 279.17813 246.81313 278.58438Q246.81313 277.95938 246.36 277.5375Q245.90688 277.1 245.18813 277.1Q244.4225 277.1 243.96938 277.55313Q243.51625 278.00626 243.50063 278.81876L242.4225 278.70938Q242.53188 277.49063 243.25063 276.86563Q243.985 276.225 245.21938 276.225Q246.45375 276.225 247.1725 276.9125Q247.89125 277.6 247.89125 278.61563Q247.89125 279.13126 247.6725 279.63126Q247.46938 280.11563 246.96938 280.67813Q246.485 281.225 245.36 282.17813Q244.40688 282.975 244.12563 283.27188Q243.86 283.55313 243.68813 283.83438L247.90688 283.83438Z" fill-rule="nonzero"/><path fill="#000000" d="M278.54688 282.08438L279.60938 281.99063Q279.6875 282.64688 279.96875 283.05313Q280.25 283.45938 280.82812 283.725Q281.42188 283.975 282.15625 283.975Q282.79688 283.975 283.29688 283.7875Q283.79688 283.58438 284.03125 283.25626Q284.28125 282.9125 284.28125 282.52188Q284.28125 282.11563 284.04688 281.81876Q283.8125 281.50626 283.28125 281.30313Q282.92188 281.1625 281.73438 280.88126Q280.5625 280.6 280.09375 280.35Q279.46875 280.02188 279.17188 279.55313Q278.875 279.06876 278.875 278.475Q278.875 277.83438 279.23438 277.27188Q279.60938 276.69376 280.3125 276.4125Q281.03125 276.11563 281.89062 276.11563Q282.84375 276.11563 283.57812 276.42813Q284.3125 276.725 284.70312 277.33438Q285.09375 277.92813 285.125 278.67813L284.03125 278.75626Q283.9375 277.94376 283.42188 277.5375Q282.92188 277.11563 281.9375 277.11563Q280.90625 277.11563 280.4375 277.49063Q279.96875 277.86563 279.96875 278.39688Q279.96875 278.86563 280.29688 279.1625Q280.625 279.45938 282.0 279.77188Q283.39062 280.08438 283.90625 280.31876Q284.65625 280.67813 285.01562 281.20938Q285.375 281.725 285.375 282.42813Q285.375 283.11563 284.98438 283.725Q284.59375 284.31876 283.85938 284.6625Q283.125 284.99063 282.20312 284.99063Q281.03125 284.99063 280.23438 284.6625Q279.45312 284.31876 279.0 283.63126Q278.5625 282.94376 278.54688 282.08438ZM286.79688 287.24063L286.79688 278.63126L287.75 278.63126L287.75 279.42813Q288.09375 278.95938 288.51562 278.725Q288.95312 278.49063 289.5625 278.49063Q290.35938 278.49063 290.96875 278.89688Q291.57812 279.30313 291.875 280.05313Q292.1875 280.80313 292.1875 281.69376Q292.1875 282.64688 291.84375 283.4125Q291.51562 284.17813 290.85938 284.58438Q290.20312 284.99063 289.48438 284.99063Q288.95312 284.99063 288.53125 284.77188Q288.10938 284.5375 287.84375 284.20938L287.84375 287.24063L286.79688 287.24063ZM287.75 281.77188Q287.75 282.975 288.23438 283.55313Q288.71875 284.11563 289.40625 284.11563Q290.10938 284.11563 290.60938 283.52188Q291.10938 282.92813 291.10938 281.67813Q291.10938 280.49063 290.625 279.9125Q290.14062 279.31876 289.45312 279.31876Q288.78125 279.31876 288.26562 279.94376Q287.75 280.56876 287.75 281.77188ZM293.78125 284.85L293.78125 278.63126L294.73438 278.63126L294.73438 279.56876Q295.09375 278.9125 295.39062 278.70938Q295.70312 278.49063 296.07812 278.49063Q296.60938 278.49063 297.15625 278.81876L296.79688 279.80313Q296.40625 279.56876 296.03125 279.56876Q295.67188 279.56876 295.39062 279.7875Q295.125 279.99063 295.01562 280.36563Q294.82812 280.92813 294.82812 281.58438L294.82812 284.85L293.78125 284.85ZM297.79688 277.475L297.79688 276.25626L298.85938 276.25626L298.85938 277.475L297.79688 277.475ZM297.79688 284.85L297.79688 278.63126L298.85938 278.63126L298.85938 284.85L297.79688 284.85ZM300.79688 284.85L300.79688 278.63126L301.73438 278.63126L301.73438 279.50626Q302.42188 278.49063 303.71875 278.49063Q304.28125 278.49063 304.75 278.69376Q305.23438 278.89688 305.46875 279.225Q305.70312 279.55313 305.79688 279.99063Q305.84375 280.2875 305.84375 281.02188L305.84375 284.85L304.79688 284.85L304.79688 281.06876Q304.79688 280.4125 304.67188 280.1Q304.54688 279.7875 304.23438 279.6Q303.92188 279.39688 303.5 279.39688Q302.82812 279.39688 302.32812 279.83438Q301.84375 280.25626 301.84375 281.44376L301.84375 284.85L300.79688 284.85ZM310.09375 283.9125L310.25 284.83438Q309.79688 284.92813 309.45312 284.92813Q308.875 284.92813 308.5625 284.75626Q308.25 284.56876 308.10938 284.27188Q307.98438 283.975 307.98438 283.02188L307.98438 279.44376L307.21875 279.44376L307.21875 278.63126L307.98438 278.63126L307.98438 277.08438L309.03125 276.45938L309.03125 278.63126L310.09375 278.63126L310.09375 279.44376L309.03125 279.44376L309.03125 283.08438Q309.03125 283.5375 309.07812 283.6625Q309.14062 283.7875 309.26562 283.86563Q309.39062 283.94376 309.625 283.94376Q309.8125 283.94376 310.09375 283.9125ZM313.5 282.58438L314.5625 282.44376Q314.73438 283.33438 315.17188 283.74063Q315.60938 284.13126 316.23438 284.13126Q316.98438 284.13126 317.5 283.61563Q318.01562 283.1 318.01562 282.33438Q318.01562 281.61563 317.53125 281.14688Q317.0625 280.6625 316.32812 280.6625Q316.03125 280.6625 315.57812 280.7875L315.70312 279.85Q315.8125 279.86563 315.875 279.86563Q316.54688 279.86563 317.07812 279.52188Q317.625 279.1625 317.625 278.42813Q317.625 277.85 317.23438 277.475Q316.84375 277.08438 316.21875 277.08438Q315.60938 277.08438 315.1875 277.475Q314.78125 277.86563 314.67188 278.63126L313.60938 278.44376Q313.79688 277.39688 314.48438 276.81876Q315.17188 276.225 316.1875 276.225Q316.89062 276.225 317.48438 276.5375Q318.07812 276.83438 318.39062 277.35Q318.70312 277.86563 318.70312 278.45938Q318.70312 279.00626 318.40625 279.475Q318.10938 279.92813 317.53125 280.19376Q318.28125 280.36563 318.70312 280.92813Q319.125 281.475 319.125 282.31876Q319.125 283.44376 318.29688 284.225Q317.48438 285.00626 316.23438 285.00626Q315.10938 285.00626 314.35938 284.33438Q313.60938 283.64688 313.5 282.58438Z" fill-rule="nonzero"/><path fill="#000000" d="M349.6869 282.08438L350.7494 281.99063Q350.8275 282.64688 351.10876 283.05313Q351.39 283.45938 351.96814 283.725Q352.5619 283.975 353.29626 283.975Q353.9369 283.975 354.4369 283.7875Q354.9369 283.58438 355.17126 283.25626Q355.42126 282.9125 355.42126 282.52188Q355.42126 282.11563 355.1869 281.81876Q354.9525 281.50626 354.42126 281.30313Q354.0619 281.1625 352.8744 280.88126Q351.7025 280.6 351.23376 280.35Q350.60876 280.02188 350.3119 279.55313Q350.015 279.06876 350.015 278.475Q350.015 277.83438 350.3744 277.27188Q350.7494 276.69376 351.4525 276.4125Q352.17126 276.11563 353.03064 276.11563Q353.98376 276.11563 354.71814 276.42813Q355.4525 276.725 355.84314 277.33438Q356.23376 277.92813 356.265 278.67813L355.17126 278.75626Q355.0775 277.94376 354.5619 277.5375Q354.0619 277.11563 353.0775 277.11563Q352.04626 277.11563 351.5775 277.49063Q351.10876 277.86563 351.10876 278.39688Q351.10876 278.86563 351.4369 279.1625Q351.765 279.45938 353.14 279.77188Q354.53064 280.08438 355.04626 280.31876Q355.79626 280.67813 356.15564 281.20938Q356.515 281.725 356.515 282.42813Q356.515 283.11563 356.1244 283.725Q355.73376 284.31876 354.9994 284.6625Q354.265 284.99063 353.34314 284.99063Q352.17126 284.99063 351.3744 284.6625Q350.59314 284.31876 350.14 283.63126Q349.7025 282.94376 349.6869 282.08438ZM357.9369 287.24063L357.9369 278.63126L358.89 278.63126L358.89 279.42813Q359.23376 278.95938 359.65564 278.725Q360.09314 278.49063 360.7025 278.49063Q361.4994 278.49063 362.10876 278.89688Q362.71814 279.30313 363.015 280.05313Q363.3275 280.80313 363.3275 281.69376Q363.3275 282.64688 362.98376 283.4125Q362.65564 284.17813 361.9994 284.58438Q361.34314 284.99063 360.6244 284.99063Q360.09314 284.99063 359.67126 284.77188Q359.2494 284.5375 358.98376 284.20938L358.98376 287.24063L357.9369 287.24063ZM358.89 281.77188Q358.89 282.975 359.3744 283.55313Q359.85876 284.11563 360.54626 284.11563Q361.2494 284.11563 361.7494 283.52188Q362.2494 282.92813 362.2494 281.67813Q362.2494 280.49063 361.765 279.9125Q361.28064 279.31876 360.59314 279.31876Q359.92126 279.31876 359.40564 279.94376Q358.89 280.56876 358.89 281.77188ZM364.92126 284.85L364.92126 278.63126L365.8744 278.63126L365.8744 279.56876Q366.23376 278.9125 366.53064 278.70938Q366.84314 278.49063 367.21814 278.49063Q367.7494 278.49063 368.29626 278.81876L367.9369 279.80313Q367.54626 279.56876 367.17126 279.56876Q366.8119 279.56876 366.53064 279.7875Q366.265 279.99063 366.15564 280.36563Q365.96814 280.92813 365.96814 281.58438L365.96814 284.85L364.92126 284.85ZM368.9369 277.475L368.9369 276.25626L369.9994 276.25626L369.9994 277.475L368.9369 277.475ZM368.9369 284.85L368.9369 278.63126L369.9994 278.63126L369.9994 284.85L368.9369 284.85ZM371.9369 284.85L371.9369 278.63126L372.8744 278.63126L372.8744 279.50626Q373.5619 278.49063 374.85876 278.49063Q375.42126 278.49063 375.89 278.69376Q376.3744 278.89688 376.60876 279.225Q376.84314 279.55313 376.9369 279.99063Q376.98376 280.2875 376.98376 281.02188L376.98376 284.85L375.9369 284.85L375.9369 281.06876Q375.9369 280.4125 375.8119 280.1Q375.6869 279.7875 375.3744 279.6Q375.0619 279.39688 374.64 279.39688Q373.96814 279.39688 373.46814 279.83438Q372.98376 280.25626 372.98376 281.44376L372.98376 284.85L371.9369 284.85ZM381.23376 283.9125L381.39 284.83438Q380.9369 284.92813 380.59314 284.92813Q380.015 284.92813 379.7025 284.75626Q379.39 284.56876 379.2494 284.27188Q379.1244 283.975 379.1244 283.02188L379.1244 279.44376L378.35876 279.44376L378.35876 278.63126L379.1244 278.63126L379.1244 277.08438L380.17126 276.45938L380.17126 278.63126L381.23376 278.63126L381.23376 279.44376L380.17126 279.44376L380.17126 283.08438Q380.17126 283.5375 380.21814 283.6625Q380.28064 283.7875 380.40564 283.86563Q380.53064 283.94376 380.765 283.94376Q380.9525 283.94376 381.23376 283.9125ZM388.015 284.85L388.015 282.7875L384.29626 282.7875L384.29626 281.81876L388.21814 276.25626L389.0775 276.25626L389.0775 281.81876L390.23376 281.81876L390.23376 282.7875L389.0775 282.7875L389.0775 284.85L388.015 284.85ZM388.015 281.81876L388.015 277.95938L385.3275 281.81876L388.015 281.81876Z" fill-rule="nonzero"/><path fill="#000000" d="M420.82687 282.08438L421.88937 281.99063Q421.9675 282.64688 422.24875 283.05313Q422.53 283.45938 423.10812 283.725Q423.70187 283.975 424.43625 283.975Q425.07687 283.975 425.57687 283.7875Q426.07687 283.58438 426.31125 283.25626Q426.56125 282.9125 426.56125 282.52188Q426.56125 282.11563 426.32687 281.81876Q426.0925 281.50626 425.56125 281.30313Q425.20187 281.1625 424.01437 280.88126Q422.8425 280.6 422.37375 280.35Q421.74875 280.02188 421.45187 279.55313Q421.155 279.06876 421.155 278.475Q421.155 277.83438 421.51437 277.27188Q421.88937 276.69376 422.5925 276.4125Q423.31125 276.11563 424.17062 276.11563Q425.12375 276.11563 425.85812 276.42813Q426.5925 276.725 426.98312 277.33438Q427.37375 277.92813 427.405 278.67813L426.31125 278.75626Q426.2175 277.94376 425.70187 277.5375Q425.20187 277.11563 424.2175 277.11563Q423.18625 277.11563 422.7175 277.49063Q422.24875 277.86563 422.24875 278.39688Q422.24875 278.86563 422.57687 279.1625Q422.905 279.45938 424.28 279.77188Q425.67062 280.08438 426.18625 280.31876Q426.93625 280.67813 427.29562 281.20938Q427.655 281.725 427.655 282.42813Q427.655 283.11563 427.26437 283.725Q426.87375 284.31876 426.13937 284.6625Q425.405 284.99063 424.48312 284.99063Q423.31125 284.99063 422.51437 284.6625Q421.73312 284.31876 421.28 283.63126Q420.8425 282.94376 420.82687 282.08438ZM429.07687 287.24063L429.07687 278.63126L430.03 278.63126L430.03 279.42813Q430.37375 278.95938 430.79562 278.725Q431.23312 278.49063 431.8425 278.49063Q432.63937 278.49063 433.24875 278.89688Q433.85812 279.30313 434.155 280.05313Q434.4675 280.80313 434.4675 281.69376Q434.4675 282.64688 434.12375 283.4125Q433.79562 284.17813 433.13937 284.58438Q432.48312 284.99063 431.76437 284.99063Q431.23312 284.99063 430.81125 284.77188Q430.38937 284.5375 430.12375 284.20938L430.12375 287.24063L429.07687 287.24063ZM430.03 281.77188Q430.03 282.975 430.51437 283.55313Q430.99875 284.11563 431.68625 284.11563Q432.38937 284.11563 432.88937 283.52188Q433.38937 282.92813 433.38937 281.67813Q433.38937 280.49063 432.905 279.9125Q432.42062 279.31876 431.73312 279.31876Q431.06125 279.31876 430.54562 279.94376Q430.03 280.56876 430.03 281.77188ZM436.06125 284.85L436.06125 278.63126L437.01437 278.63126L437.01437 279.56876Q437.37375 278.9125 437.67062 278.70938Q437.98312 278.49063 438.35812 278.49063Q438.88937 278.49063 439.43625 278.81876L439.07687 279.80313Q438.68625 279.56876 438.31125 279.56876Q437.95187 279.56876 437.67062 279.7875Q437.405 279.99063 437.29562 280.36563Q437.10812 280.92813 437.10812 281.58438L437.10812 284.85L436.06125 284.85ZM440.07687 277.475L440.07687 276.25626L441.13937 276.25626L441.13937 277.475L440.07687 277.475ZM440.07687 284.85L440.07687 278.63126L441.13937 278.63126L441.13937 284.85L440.07687 284.85ZM443.07687 284.85L443.07687 278.63126L444.01437 278.63126L444.01437 279.50626Q444.70187 278.49063 445.99875 278.49063Q446.56125 278.49063 447.03 278.69376Q447.51437 278.89688 447.74875 279.225Q447.98312 279.55313 448.07687 279.99063Q448.12375 280.2875 448.12375 281.02188L448.12375 284.85L447.07687 284.85L447.07687 281.06876Q447.07687 280.4125 446.95187 280.1Q446.82687 279.7875 446.51437 279.6Q446.20187 279.39688 445.78 279.39688Q445.10812 279.39688 444.60812 279.83438Q444.12375 280.25626 444.12375 281.44376L444.12375 284.85L443.07687 284.85ZM452.37375 283.9125L452.53 284.83438Q452.07687 284.92813 451.73312 284.92813Q451.155 284.92813 450.8425 284.75626Q450.53 284.56876 450.38937 284.27188Q450.26437 283.975 450.26437 283.02188L450.26437 279.44376L449.49875 279.44376L449.49875 278.63126L450.26437 278.63126L450.26437 277.08438L451.31125 276.45938L451.31125 278.63126L452.37375 278.63126L452.37375 279.44376L451.31125 279.44376L451.31125 283.08438Q451.31125 283.5375 451.35812 283.6625Q451.42062 283.7875 451.54562 283.86563Q451.67062 283.94376 451.905 283.94376Q452.0925 283.94376 452.37375 283.9125ZM455.78 282.6L456.88937 282.50626Q457.01437 283.31876 457.45187 283.725Q457.905 284.13126 458.54562 284.13126Q459.29562 284.13126 459.82687 283.55313Q460.35812 282.975 460.35812 282.0375Q460.35812 281.13126 459.8425 280.61563Q459.3425 280.08438 458.51437 280.08438Q458.01437 280.08438 457.5925 280.31876Q457.18625 280.55313 456.95187 280.9125L455.9675 280.7875L456.79562 276.38126L461.07687 276.38126L461.07687 277.38126L457.63937 277.38126L457.18625 279.69376Q457.95187 279.14688 458.79562 279.14688Q459.92062 279.14688 460.68625 279.92813Q461.4675 280.70938 461.4675 281.94376Q461.4675 283.1 460.79562 283.95938Q459.9675 284.99063 458.54562 284.99063Q457.37375 284.99063 456.62375 284.33438Q455.88937 283.67813 455.78 282.6Z" fill-rule="nonzero"/><path fill="#4285f4" d="M185.0 22.15C185.0 25.463709 182.3137 28.15 179.0 28.15C175.6863 28.15 173.0 25.463709 173.0 22.15C173.0 18.836292 175.6863 16.15 179.0 16.15C182.3137 16.15 185.0 18.836292 185.0 22.15Z" fill-rule="nonzero"/><path fill="#1a1a1a" d="M193.875 26.15L193.875 17.55625L197.10938 17.55625Q198.09375 17.55625 198.6875 17.821875Q199.28125 18.0875 199.60938 18.634375Q199.95312 19.165625 199.95312 19.759375Q199.95312 20.30625 199.65625 20.790625Q199.35938 21.275 198.75 21.571875Q199.53125 21.80625 199.9375 22.36875Q200.35938 22.915625 200.35938 23.665625Q200.35938 24.259375 200.10938 24.790625Q199.85938 25.30625 199.48438 25.5875Q199.10938 25.86875 198.53125 26.009375Q197.96875 26.15 197.15625 26.15L193.875 26.15ZM195.01562 21.165625L196.875 21.165625Q197.625 21.165625 197.95312 21.071875Q198.39062 20.946875 198.60938 20.65Q198.82812 20.3375 198.82812 19.884375Q198.82812 19.4625 198.625 19.134375Q198.42188 18.80625 198.03125 18.696875Q197.65625 18.571875 196.73438 18.571875L195.01562 18.571875L195.01562 21.165625ZM195.01562 25.134375L197.15625 25.134375Q197.70312 25.134375 197.92188 25.0875Q198.32812 25.025 198.57812 24.86875Q198.84375 24.696875 199.01562 24.384375Q199.1875 24.071875 199.1875 23.665625Q199.1875 23.18125 198.9375 22.821875Q198.70312 22.4625 198.26562 22.321875Q197.82812 22.18125 197.0 22.18125L195.01562 22.18125L195.01562 25.134375ZM200.98438 26.15L204.28125 17.55625L205.5 17.55625L209.01562 26.15L207.73438 26.15L206.71875 23.540625L203.14062 23.540625L202.1875 26.15L200.98438 26.15ZM203.46875 22.61875L206.375 22.61875L205.48438 20.24375Q205.0625 19.165625 204.875 18.4625Q204.70312 19.290625 204.40625 20.103125L203.46875 22.61875ZM215.0625 23.134375L216.1875 23.43125Q215.82812 24.821875 214.90625 25.55625Q213.98438 26.290625 212.64062 26.290625Q211.25 26.290625 210.375 25.728125Q209.5 25.165625 209.04688 24.103125Q208.59375 23.025 208.59375 21.790625Q208.59375 20.446875 209.10938 19.446875Q209.625 18.446875 210.5625 17.93125Q211.51562 17.415625 212.65625 17.415625Q213.9375 17.415625 214.8125 18.071875Q215.70312 18.728125 216.04688 19.915625L214.92188 20.18125Q214.625 19.24375 214.04688 18.821875Q213.48438 18.384375 212.625 18.384375Q211.64062 18.384375 210.96875 18.86875Q210.3125 19.3375 210.03125 20.134375Q209.76562 20.93125 209.76562 21.790625Q209.76562 22.884375 210.07812 23.696875Q210.40625 24.509375 211.07812 24.915625Q211.75 25.321875 212.54688 25.321875Q213.5 25.321875 214.15625 24.775Q214.82812 24.228125 215.0625 23.134375Z" fill-rule="nonzero"/><path fill="#ea4335" d="M245.0 22.15C245.0 25.463709 242.3137 28.15 239.0 28.15C235.6863 28.15 233.0 25.463709 233.0 22.15C233.0 18.836292 235.6863 16.15 239.0 16.15C242.3137 16.15 245.0 18.836292 245.0 22.15Z" fill-rule="nonzero"/><path fill="#1a1a1a" d="M253.92188 26.15L253.92188 17.55625L257.17188 17.55625Q258.01562 17.55625 258.46875 17.634375Q259.10938 17.74375 259.53125 18.040625Q259.96875 18.3375 260.21875 18.86875Q260.48438 19.4 260.48438 20.040625Q260.48438 21.134375 259.78125 21.9Q259.09375 22.65 257.26562 22.65L255.0625 22.65L255.0625 26.15L253.92188 26.15ZM255.0625 21.65L257.28125 21.65Q258.39062 21.65 258.84375 21.24375Q259.3125 20.821875 259.3125 20.071875Q259.3125 19.540625 259.03125 19.165625Q258.76562 18.775 258.32812 18.65Q258.03125 18.571875 257.26562 18.571875L255.0625 18.571875L255.0625 21.65ZM264.375 26.15L261.04688 17.55625L262.28125 17.55625L264.51562 23.80625Q264.78125 24.55625 264.96875 25.2125Q265.17188 24.509375 265.4375 23.80625L267.75 17.55625L268.90625 17.55625L265.54688 26.15L264.375 26.15Z" fill-rule="nonzero"/><path fill="#fbbc04" fill-opacity="0.7019608" d="M296.0 22.15C296.0 25.463709 293.31372 28.15 290.0 28.15C286.68628 28.15 284.0 25.463709 284.0 22.15C284.0 18.836292 286.68628 16.15 290.0 16.15C293.31372 16.15 296.0 18.836292 296.0 22.15Z" fill-rule="nonzero"/><path fill="#1a1a1a" d="M304.95312 26.15L304.95312 17.55625L311.15625 17.55625L311.15625 18.571875L306.09375 18.571875L306.09375 21.196875L310.84375 21.196875L310.84375 22.2125L306.09375 22.2125L306.09375 25.134375L311.35938 25.134375L311.35938 26.15L304.95312 26.15ZM315.375 26.15L312.04688 17.55625L313.28125 17.55625L315.51562 23.80625Q315.78125 24.55625 315.96875 25.2125Q316.17188 24.509375 316.4375 23.80625L318.75 17.55625L319.90625 17.55625L316.54688 26.15L315.375 26.15Z" fill-rule="nonzero"/></svg>