<svg version="1.1" viewBox="0.0 0.0 532.0 328.0" fill="none" stroke="none" stroke-linecap="square" stroke-miterlimit="10" width="532" height="328" xmlns:xlink="http://www.w3.org/1999/xlink" xmlns="http://www.w3.org/2000/svg"><path fill="#ffffff" d="M0 0L532.0 0L532.0 328.0L0 328.0L0 0Z" fill-rule="nonzero"/><path stroke="#cccccc" stroke-width="1.0" stroke-linecap="butt" d="M81.5 285.5L515.5 285.5" fill-rule="nonzero"/><path stroke="#cccccc" stroke-width="1.0" stroke-linecap="butt" d="M81.5 270.5L515.5 270.5" fill-rule="nonzero"/><path stroke="#cccccc" stroke-width="1.0" stroke-linecap="butt" d="M81.5 255.5L515.5 255.5" fill-rule="nonzero"/><path stroke="#cccccc" stroke-width="1.0" stroke-linecap="butt" d="M81.5 241.5L515.5 241.5" fill-rule="nonzero"/><path stroke="#cccccc" stroke-width="1.0" stroke-linecap="butt" d="M81.5 226.5L515.5 226.5" fill-rule="nonzero"/><path stroke="#cccccc" stroke-width="1.0" stroke-linecap="butt" d="M81.5 211.5L515.5 211.5" fill-rule="nonzero"/><path stroke="#333333" stroke-width="1.0" stroke-linecap="butt" d="M81.5 196.5L515.5 196.5" fill-rule="nonzero"/><path stroke="#cccccc" stroke-width="1.0" stroke-linecap="butt" d="M81.5 181.5L515.5 181.5" fill-rule="nonzero"/><path stroke="#cccccc" stroke-width="1.0" stroke-linecap="butt" d="M81.5 166.5L515.5 166.5" fill-rule="nonzero"/><path stroke="#cccccc" stroke-width="1.0" stroke-linecap="butt" d="M81.5 152.5L515.5 152.5" fill-rule="nonzero"/><path stroke="#cccccc" stroke-width="1.0" stroke-linecap="butt" d="M81.5 137.5L515.5 137.5" fill-rule="nonzero"/><path stroke="#cccccc" stroke-width="1.0" stroke-linecap="butt" d="M81.5 122.5L515.5 122.5" fill-rule="nonzero"/><path stroke="#cccccc" stroke-width="1.0" stroke-linecap="butt" d="M81.5 107.5L515.5 107.5" fill-rule="nonzero"/><path stroke="#cccccc" stroke-width="1.0" stroke-linecap="butt" d="M81.5 92.5L515.5 92.5" fill-rule="nonzero"/><path stroke="#cccccc" stroke-width="1.0" stroke-linecap="butt" d="M81.5 77.5L515.5 77.5" fill-rule="nonzero"/><path stroke="#cccccc" stroke-width="1.0" stroke-linecap="butt" d="M81.5 63.5L515.5 63.5" fill-rule="nonzero"/><path stroke="#cccccc" stroke-width="1.0" stroke-linecap="butt" d="M81.5 48.5L515.5 48.5" fill-rule="nonzero"/><path stroke="#000000" stroke-width="1.0" stroke-linecap="butt" d="M515.5 285.5L81.5 285.5" fill-rule="nonzero"/><path stroke="#000000" stroke-width="1.0" stroke-linecap="butt" d="M81.5 285.5L81.5 48.5" fill-rule="nonzero"/><clipPath id="id_0"><path d="M81.4 48.333332L515.6 48.333332L515.6 285.6L81.4 285.6L81.4 48.333332Z" clip-rule="nonzero"/></clipPath><path stroke="#4285f4" stroke-width="2.0" stroke-linecap="butt" clip-path="url(#id_0)" d="M108.5375 195.88354C108.5375 195.88354 144.72084 216.17694 162.8125 195.88354C180.90416 175.59015 198.99583 90.1596 217.0875 74.12319C235.17917 58.086777 253.27083 97.14536 271.3625 99.66506C289.45416 102.18476 307.54584 96.94442 325.6375 89.24138C343.72916 81.538345 361.82083 59.412598 379.9125 53.44684C398.00418 47.481083 416.09583 15.947797 434.1875 53.44684C452.27917 90.945885 488.4625 278.4411 488.4625 278.4411" fill-rule="nonzero"/><path stroke="#ea4335" stroke-width="2.0" stroke-linecap="butt" clip-path="url(#id_0)" d="M108.5375 48.333332C108.5375 48.333332 144.72084 48.333332 162.8125 48.333332C180.90416 48.333332 198.99583 48.333332 217.0875 48.333332C235.17917 48.333332 253.27083 48.333332 271.3625 48.333332C289.45416 48.333332 307.54584 48.333332 325.6375 48.333332C343.72916 48.333332 361.82083 48.333332 379.9125 48.333332C398.00418 48.333332 416.09583 48.333332 434.1875 48.333332C452.27917 48.333332 488.4625 48.333332 488.4625 48.333332" fill-rule="nonzero"/><path stroke="#fbbc04" stroke-width="2.0" stroke-linecap="butt" stroke-opacity="0.7019608" clip-path="url(#id_0)" d="M108.5375 85.40625C108.5375 85.40625 144.72084 85.40625 162.8125 85.40625C180.90416 85.40625 198.99583 85.40625 217.0875 85.40625C235.17917 85.40625 253.27083 85.40625 271.3625 85.40625C289.45416 85.40625 307.54584 85.40625 325.6375 85.40625C343.72916 85.40625 361.82083 85.40625 379.9125 85.40625C398.00418 85.40625 416.09583 85.40625 434.1875 85.40625C452.27917 85.40625 488.4625 85.40625 488.4625 85.40625" fill-rule="nonzero"/><path fill="#4285f4" clip-path="url(#id_0)" d="M112.0375 195.88354C112.0375 197.81654 110.4705 199.38354 108.5375 199.38354C106.6045 199.38354 105.0375 197.81654 105.0375 195.88354C105.0375 193.95055 106.6045 192.38354 108.5375 192.38354C110.4705 192.38354 112.0375 193.95055 112.0375 195.88354Z" fill-rule="nonzero"/><path fill="#4285f4" clip-path="url(#id_0)" d="M166.3125 195.88354C166.3125 197.81654 164.7455 199.38354 162.8125 199.38354C160.8795 199.38354 159.3125 197.81654 159.3125 195.88354C159.3125 193.95055 160.8795 192.38354 162.8125 192.38354C164.7455 192.38354 166.3125 193.95055 166.3125 195.88354Z" fill-rule="nonzero"/><path fill="#4285f4" clip-path="url(#id_0)" d="M220.5875 74.12319C220.5875 76.05618 219.0205 77.62319 217.0875 77.62319C215.15451 77.62319 213.5875 76.05618 213.5875 74.12319C213.5875 72.19019 215.15451 70.62319 217.0875 70.62319C219.0205 70.62319 220.5875 72.19019 220.5875 74.12319Z" fill-rule="nonzero"/><path fill="#4285f4" clip-path="url(#id_0)" d="M274.8625 99.66506C274.8625 101.59806 273.2955 103.16506 271.3625 103.16506C269.4295 103.16506 267.8625 101.59806 267.8625 99.66506C267.8625 97.73207 269.4295 96.16506 271.3625 96.16506C273.2955 96.16506 274.8625 97.73207 274.8625 99.66506Z" fill-rule="nonzero"/><path fill="#4285f4" clip-path="url(#id_0)" d="M329.1375 89.24138C329.1375 91.17438 327.5705 92.74138 325.6375 92.74138C323.7045 92.74138 322.1375 91.17438 322.1375 89.24138C322.1375 87.30838 323.7045 85.74138 325.6375 85.74138C327.5705 85.74138 329.1375 87.30838 329.1375 89.24138Z" fill-rule="nonzero"/><path fill="#4285f4" clip-path="url(#id_0)" d="M383.4125 53.44684C383.4125 55.379837 381.8455 56.94684 379.9125 56.94684C377.9795 56.94684 376.4125 55.379837 376.4125 53.44684C376.4125 51.513844 377.9795 49.94684 379.9125 49.94684C381.8455 49.94684 383.4125 51.513844 383.4125 53.44684Z" fill-rule="nonzero"/><path fill="#4285f4" clip-path="url(#id_0)" d="M437.6875 53.44684C437.6875 55.379837 436.12048 56.94684 434.1875 56.94684C432.25452 56.94684 430.6875 55.379837 430.6875 53.44684C430.6875 51.513844 432.25452 49.94684 434.1875 49.94684C436.12048 49.94684 437.6875 51.513844 437.6875 53.44684Z" fill-rule="nonzero"/><path fill="#4285f4" clip-path="url(#id_0)" d="M491.9625 278.4411C491.9625 280.37408 490.3955 281.9411 488.4625 281.9411C486.5295 281.9411 484.9625 280.37408 484.9625 278.4411C484.9625 276.5081 486.5295 274.9411 488.4625 274.9411C490.3955 274.9411 491.9625 276.5081 491.9625 278.4411Z" fill-rule="nonzero"/><path fill="#ea4335" clip-path="url(#id_0)" d="M112.0375 48.333332C112.0375 50.26633 110.4705 51.833332 108.5375 51.833332C106.6045 51.833332 105.0375 50.26633 105.0375 48.333332C105.0375 46.400337 106.6045 44.833332 108.5375 44.833332C110.4705 44.833332 112.0375 46.400337 112.0375 48.333332Z" fill-rule="nonzero"/><path fill="#ea4335" clip-path="url(#id_0)" d="M166.3125 48.333332C166.3125 50.26633 164.7455 51.833332 162.8125 51.833332C160.8795 51.833332 159.3125 50.26633 159.3125 48.333332C159.3125 46.400337 160.8795 44.833332 162.8125 44.833332C164.7455 44.833332 166.3125 46.400337 166.3125 48.333332Z" fill-rule="nonzero"/><path fill="#ea4335" clip-path="url(#id_0)" d="M220.5875 48.333332C220.5875 50.26633 219.0205 51.833332 217.0875 51.833332C215.15451 51.833332 213.5875 50.26633 213.5875 48.333332C213.5875 46.400337 215.15451 44.833332 217.0875 44.833332C219.0205 44.833332 220.5875 46.400337 220.5875 48.333332Z" fill-rule="nonzero"/><path fill="#ea4335" clip-path="url(#id_0)" d="M274.8625 48.333332C274.8625 50.26633 273.2955 51.833332 271.3625 51.833332C269.4295 51.833332 267.8625 50.26633 267.8625 48.333332C267.8625 46.400337 269.4295 44.833332 271.3625 44.833332C273.2955 44.833332 274.8625 46.400337 274.8625 48.333332Z" fill-rule="nonzero"/><path fill="#ea4335" clip-path="url(#id_0)" d="M329.1375 48.333332C329.1375 50.26633 327.5705 51.833332 325.6375 51.833332C323.7045 51.833332 322.1375 50.26633 322.1375 48.333332C322.1375 46.400337 323.7045 44.833332 325.6375 44.833332C327.5705 44.833332 329.1375 46.400337 329.1375 48.333332Z" fill-rule="nonzero"/><path fill="#ea4335" clip-path="url(#id_0)" d="M383.4125 48.333332C383.4125 50.26633 381.8455 51.833332 379.9125 51.833332C377.9795 51.833332 376.4125 50.26633 376.4125 48.333332C376.4125 46.400337 377.9795 44.833332 379.9125 44.833332C381.8455 44.833332 383.4125 46.400337 383.4125 48.333332Z" fill-rule="nonzero"/><path fill="#ea4335" clip-path="url(#id_0)" d="M437.6875 48.333332C437.6875 50.26633 436.12048 51.833332 434.1875 51.833332C432.25452 51.833332 430.6875 50.26633 430.6875 48.333332C430.6875 46.400337 432.25452 44.833332 434.1875 44.833332C436.12048 44.833332 437.6875 46.400337 437.6875 48.333332Z" fill-rule="nonzero"/><path fill="#ea4335" clip-path="url(#id_0)" d="M491.9625 48.333332C491.9625 50.26633 490.3955 51.833332 488.4625 51.833332C486.5295 51.833332 484.9625 50.26633 484.9625 48.333332C484.9625 46.400337 486.5295 44.833332 488.4625 44.833332C490.3955 44.833332 491.9625 46.400337 491.9625 48.333332Z" fill-rule="nonzero"/><path fill="#fbbc04" fill-opacity="0.7019608" clip-path="url(#id_0)" d="M112.0375 85.40625C112.0375 87.33925 110.4705 88.90625 108.5375 88.90625C106.6045 88.90625 105.0375 87.33925 105.0375 85.40625C105.0375 83.47325 106.6045 81.90625 108.5375 81.90625C110.4705 81.90625 112.0375 83.47325 112.0375 85.40625Z" fill-rule="nonzero"/><path fill="#fbbc04" fill-opacity="0.7019608" clip-path="url(#id_0)" d="M166.3125 85.40625C166.3125 87.33925 164.7455 88.90625 162.8125 88.90625C160.8795 88.90625 159.3125 87.33925 159.3125 85.40625C159.3125 83.47325 160.8795 81.90625 162.8125 81.90625C164.7455 81.90625 166.3125 83.47325 166.3125 85.40625Z" fill-rule="nonzero"/><path fill="#fbbc04" fill-opacity="0.7019608" clip-path="url(#id_0)" d="M220.5875 85.40625C220.5875 87.33925 219.0205 88.90625 217.0875 88.90625C215.15451 88.90625 213.5875 87.33925 213.5875 85.40625C213.5875 83.47325 215.15451 81.90625 217.0875 81.90625C219.0205 81.90625 220.5875 83.47325 220.5875 85.40625Z" fill-rule="nonzero"/><path fill="#fbbc04" fill-opacity="0.7019608" clip-path="url(#id_0)" d="M274.8625 85.40625C274.8625 87.33925 273.2955 88.90625 271.3625 88.90625C269.4295 88.90625 267.8625 87.33925 267.8625 85.40625C267.8625 83.47325 269.4295 81.90625 271.3625 81.90625C273.2955 81.90625 274.8625 83.47325 274.8625 85.40625Z" fill-rule="nonzero"/><path fill="#fbbc04" fill-opacity="0.7019608" clip-path="url(#id_0)" d="M329.1375 85.40625C329.1375 87.33925 327.5705 88.90625 325.6375 88.90625C323.7045 88.90625 322.1375 87.33925 322.1375 85.40625C322.1375 83.47325 323.7045 81.90625 325.6375 81.90625C327.5705 81.90625 329.1375 83.47325 329.1375 85.40625Z" fill-rule="nonzero"/><path fill="#fbbc04" fill-opacity="0.7019608" clip-path="url(#id_0)" d="M383.4125 85.40625C383.4125 87.33925 381.8455 88.90625 379.9125 88.90625C377.9795 88.90625 376.4125 87.33925 376.4125 85.40625C376.4125 83.47325 377.9795 81.90625 379.9125 81.90625C381.8455 81.90625 383.4125 83.47325 383.4125 85.40625Z" fill-rule="nonzero"/><path fill="#fbbc04" fill-opacity="0.7019608" clip-path="url(#id_0)" d="M437.6875 85.40625C437.6875 87.33925 436.12048 88.90625 434.1875 88.90625C432.25452 88.90625 430.6875 87.33925 430.6875 85.40625C430.6875 83.47325 432.25452 81.90625 434.1875 81.90625C436.12048 81.90625 437.6875 83.47325 437.6875 85.40625Z" fill-rule="nonzero"/><path fill="#fbbc04" fill-opacity="0.7019608" clip-path="url(#id_0)" d="M491.9625 85.40625C491.9625 87.33925 490.3955 88.90625 488.4625 88.90625C486.5295 88.90625 484.9625 87.33925 484.9625 85.40625C484.9625 83.47325 486.5295 81.90625 488.4625 81.90625C490.3955 81.90625 491.9625 83.47325 491.9625 85.40625Z" fill-rule="nonzero"/><path stroke="#000000" stroke-width="1.0" stroke-linecap="butt" d="M108.5 291.5L108.5 279.5" fill-rule="nonzero"/><path stroke="#000000" stroke-width="1.0" stroke-linecap="butt" d="M162.5 291.5L162.5 279.5" fill-rule="nonzero"/><path stroke="#000000" stroke-width="1.0" stroke-linecap="butt" d="M217.5 291.5L217.5 279.5" fill-rule="nonzero"/><path stroke="#000000" stroke-width="1.0" stroke-linecap="butt" d="M271.5 291.5L271.5 279.5" fill-rule="nonzero"/><path stroke="#000000" stroke-width="1.0" stroke-linecap="butt" d="M325.5 291.5L325.5 279.5" fill-rule="nonzero"/><path stroke="#000000" stroke-width="1.0" stroke-linecap="butt" d="M379.5 291.5L379.5 279.5" fill-rule="nonzero"/><path stroke="#000000" stroke-width="1.0" stroke-linecap="butt" d="M434.5 291.5L434.5 279.5" fill-rule="nonzero"/><path stroke="#000000" stroke-width="1.0" stroke-linecap="butt" d="M488.5 291.5L488.5 279.5" fill-rule="nonzero"/><path stroke="#000000" stroke-width="1.0" stroke-linecap="butt" d="M75.5 285.5L87.5 285.5" fill-rule="nonzero"/><path stroke="#000000" stroke-width="1.0" stroke-linecap="butt" d="M75.5 270.5L87.5 270.5" fill-rule="nonzero"/><path stroke="#000000" stroke-width="1.0" stroke-linecap="butt" d="M75.5 255.5L87.5 255.5" fill-rule="nonzero"/><path stroke="#000000" stroke-width="1.0" stroke-linecap="butt" d="M75.5 241.5L87.5 241.5" fill-rule="nonzero"/><path stroke="#000000" stroke-width="1.0" stroke-linecap="butt" d="M75.5 226.5L87.5 226.5" fill-rule="nonzero"/><path stroke="#000000" stroke-width="1.0" stroke-linecap="butt" d="M75.5 211.5L87.5 211.5" fill-rule="nonzero"/><path stroke="#000000" stroke-width="1.0" stroke-linecap="butt" d="M75.5 196.5L87.5 196.5" fill-rule="nonzero"/><path stroke="#000000" stroke-width="1.0" stroke-linecap="butt" d="M75.5 181.5L87.5 181.5" fill-rule="nonzero"/><path stroke="#000000" stroke-width="1.0" stroke-linecap="butt" d="M75.5 166.5L87.5 166.5" fill-rule="nonzero"/><path stroke="#000000" stroke-width="1.0" stroke-linecap="butt" d="M75.5 152.5L87.5 152.5" fill-rule="nonzero"/><path stroke="#000000" stroke-width="1.0" stroke-linecap="butt" d="M75.5 137.5L87.5 137.5" fill-rule="nonzero"/><path stroke="#000000" stroke-width="1.0" stroke-linecap="butt" d="M75.5 122.5L87.5 122.5" fill-rule="nonzero"/><path stroke="#000000" stroke-width="1.0" stroke-linecap="butt" d="M75.5 107.5L87.5 107.5" fill-rule="nonzero"/><path stroke="#000000" stroke-width="1.0" stroke-linecap="butt" d="M75.5 92.5L87.5 92.5" fill-rule="nonzero"/><path stroke="#000000" stroke-width="1.0" stroke-linecap="butt" d="M75.5 77.5L87.5 77.5" fill-rule="nonzero"/><path stroke="#000000" stroke-width="1.0" stroke-linecap="butt" d="M75.5 63.5L87.5 63.5" fill-rule="nonzero"/><path stroke="#000000" stroke-width="1.0" stroke-linecap="butt" d="M75.5 48.5L87.5 48.5" fill-rule="nonzero"/><path fill="#000000" d="M51.775 287.02188L51.775 285.95938L55.025 285.95938L55.025 287.02188L51.775 287.02188ZM61.36875 283.11563L60.321877 283.19376Q60.18125 282.56876 59.93125 282.2875Q59.49375 281.83438 58.86875 281.83438Q58.36875 281.83438 57.978127 282.11563Q57.49375 282.49063 57.196877 283.19376Q56.915627 283.88126 56.9 285.1625Q57.275 284.58438 57.821877 284.30313Q58.384377 284.02188 58.99375 284.02188Q60.040627 284.02188 60.775 284.80313Q61.525 285.58438 61.525 286.80313Q61.525 287.61563 61.165627 288.31876Q60.821877 289.00626 60.2125 289.38126Q59.603127 289.74063 58.8375 289.74063Q57.509377 289.74063 56.68125 288.77188Q55.853127 287.80313 55.853127 285.58438Q55.853127 283.08438 56.775 281.95938Q57.571877 280.975 58.93125 280.975Q59.946877 280.975 60.5875 281.55313Q61.24375 282.11563 61.36875 283.11563ZM57.071877 286.81876Q57.071877 287.36563 57.290627 287.86563Q57.525 288.35 57.93125 288.61563Q58.353127 288.88126 58.821877 288.88126Q59.478127 288.88126 59.9625 288.35Q60.446877 287.80313 60.446877 286.88126Q60.446877 285.99063 59.9625 285.475Q59.49375 284.95938 58.775 284.95938Q58.05625 284.95938 57.55625 285.475Q57.071877 285.99063 57.071877 286.81876ZM62.9 285.36563Q62.9 283.83438 63.2125 282.9125Q63.525 281.975 64.13438 281.475Q64.75938 280.975 65.69688 280.975Q66.38438 280.975 66.9 281.25626Q67.43125 281.5375 67.775 282.06876Q68.11875 282.58438 68.30625 283.33438Q68.49375 284.08438 68.49375 285.36563Q68.49375 286.88126 68.18125 287.80313Q67.88438 288.725 67.25938 289.24063Q66.65 289.74063 65.69688 289.74063Q64.4625 289.74063 63.74375 288.85Q62.9 287.7875 62.9 285.36563ZM63.978127 285.36563Q63.978127 287.475 64.47813 288.17813Q64.97813 288.88126 65.69688 288.88126Q66.43125 288.88126 66.91563 288.17813Q67.41563 287.475 67.41563 285.36563Q67.41563 283.24063 66.91563 282.55313Q66.43125 281.85 65.68125 281.85Q64.9625 281.85 64.525 282.45938Q63.978127 283.24063 63.978127 285.36563Z" fill-rule="nonzero"/><path fill="#000000" d="M51.775 272.19272L51.775 271.13022L55.025 271.13022L55.025 272.19272L51.775 272.19272ZM55.9 272.52084L57.009377 272.4271Q57.134377 273.2396 57.571877 273.64584Q58.025 274.0521 58.665627 274.0521Q59.415627 274.0521 59.946877 273.47397Q60.478127 272.89584 60.478127 271.95834Q60.478127 271.0521 59.9625 270.53647Q59.4625 270.00522 58.634377 270.00522Q58.134377 270.00522 57.7125 270.2396Q57.30625 270.47397 57.071877 270.83334L56.0875 270.70834L56.915627 266.3021L61.196877 266.3021L61.196877 267.3021L57.759377 267.3021L57.30625 269.6146Q58.071877 269.06772 58.915627 269.06772Q60.040627 269.06772 60.80625 269.84897Q61.5875 270.63022 61.5875 271.8646Q61.5875 273.02084 60.915627 273.88022Q60.0875 274.91147 58.665627 274.91147Q57.49375 274.91147 56.74375 274.25522Q56.009377 273.59897 55.9 272.52084ZM62.9 270.53647Q62.9 269.00522 63.2125 268.08334Q63.525 267.14584 64.13438 266.64584Q64.75938 266.14584 65.69688 266.14584Q66.38438 266.14584 66.9 266.4271Q67.43125 266.70834 67.775 267.2396Q68.11875 267.75522 68.30625 268.50522Q68.49375 269.25522 68.49375 270.53647Q68.49375 272.0521 68.18125 272.97397Q67.88438 273.89584 67.25938 274.41147Q66.65 274.91147 65.69688 274.91147Q64.4625 274.91147 63.74375 274.02084Q62.9 272.95834 62.9 270.53647ZM63.978127 270.53647Q63.978127 272.64584 64.47813 273.34897Q64.97813 274.0521 65.69688 274.0521Q66.43125 274.0521 66.91563 273.34897Q67.41563 272.64584 67.41563 270.53647Q67.41563 268.41147 66.91563 267.72397Q66.43125 267.02084 65.68125 267.02084Q64.9625 267.02084 64.525 267.63022Q63.978127 268.41147 63.978127 270.53647Z" fill-rule="nonzero"/><path fill="#000000" d="M51.775 257.36356L51.775 256.30106L55.025 256.30106L55.025 257.36356L51.775 257.36356ZM59.275 259.94168L59.275 257.87918L55.55625 257.87918L55.55625 256.91043L59.478127 251.34793L60.3375 251.34793L60.3375 256.91043L61.49375 256.91043L61.49375 257.87918L60.3375 257.87918L60.3375 259.94168L59.275 259.94168ZM59.275 256.91043L59.275 253.05106L56.5875 256.91043L59.275 256.91043ZM62.9 255.7073Q62.9 254.17606 63.2125 253.25418Q63.525 252.31668 64.13438 251.81668Q64.75938 251.31668 65.69688 251.31668Q66.38438 251.31668 66.9 251.59793Q67.43125 251.87918 67.775 252.41043Q68.11875 252.92606 68.30625 253.67606Q68.49375 254.42606 68.49375 255.7073Q68.49375 257.22293 68.18125 258.1448Q67.88438 259.06668 67.25938 259.5823Q66.65 260.0823 65.69688 260.0823Q64.4625 260.0823 63.74375 259.19168Q62.9 258.12918 62.9 255.7073ZM63.978127 255.7073Q63.978127 257.81668 64.47813 258.5198Q64.97813 259.22293 65.69688 259.22293Q66.43125 259.22293 66.91563 258.5198Q67.41563 257.81668 67.41563 255.7073Q67.41563 253.5823 66.91563 252.8948Q66.43125 252.19168 65.68125 252.19168Q64.9625 252.19168 64.525 252.80106Q63.978127 253.5823 63.978127 255.7073Z" fill-rule="nonzero"/><path fill="#000000" d="M51.775 242.53438L51.775 241.47188L55.025 241.47188L55.025 242.53438L51.775 242.53438ZM55.9 242.84688L56.9625 242.70625Q57.134377 243.59688 57.571877 244.00313Q58.009377 244.39375 58.634377 244.39375Q59.384377 244.39375 59.9 243.87813Q60.415627 243.3625 60.415627 242.59688Q60.415627 241.87813 59.93125 241.40938Q59.4625 240.925 58.728127 240.925Q58.43125 240.925 57.978127 241.05L58.103127 240.1125Q58.2125 240.12813 58.275 240.12813Q58.946877 240.12813 59.478127 239.78438Q60.025 239.425 60.025 238.69063Q60.025 238.1125 59.634377 237.7375Q59.24375 237.34688 58.61875 237.34688Q58.009377 237.34688 57.5875 237.7375Q57.18125 238.12813 57.071877 238.89375L56.009377 238.70625Q56.196877 237.65938 56.884377 237.08125Q57.571877 236.4875 58.5875 236.4875Q59.290627 236.4875 59.884377 236.8Q60.478127 237.09688 60.790627 237.6125Q61.103127 238.12813 61.103127 238.72188Q61.103127 239.26875 60.80625 239.7375Q60.509377 240.19063 59.93125 240.45625Q60.68125 240.62813 61.103127 241.19063Q61.525 241.7375 61.525 242.58125Q61.525 243.70625 60.696877 244.4875Q59.884377 245.26875 58.634377 245.26875Q57.509377 245.26875 56.759377 244.59688Q56.009377 243.90938 55.9 242.84688ZM62.9 240.87813Q62.9 239.34688 63.2125 238.425Q63.525 237.4875 64.13438 236.9875Q64.75938 236.4875 65.69688 236.4875Q66.38438 236.4875 66.9 236.76875Q67.43125 237.05 67.775 237.58125Q68.11875 238.09688 68.30625 238.84688Q68.49375 239.59688 68.49375 240.87813Q68.49375 242.39375 68.18125 243.31563Q67.88438 244.2375 67.25938 244.75313Q66.65 245.25313 65.69688 245.25313Q64.4625 245.25313 63.74375 244.3625Q62.9 243.3 62.9 240.87813ZM63.978127 240.87813Q63.978127 242.9875 64.47813 243.69063Q64.97813 244.39375 65.69688 244.39375Q66.43125 244.39375 66.91563 243.69063Q67.41563 242.9875 67.41563 240.87813Q67.41563 238.75313 66.91563 238.06563Q66.43125 237.3625 65.68125 237.3625Q64.9625 237.3625 64.525 237.97188Q63.978127 238.75313 63.978127 240.87813Z" fill-rule="nonzero"/><path fill="#000000" d="M51.775 227.70522L51.775 226.64272L55.025 226.64272L55.025 227.70522L51.775 227.70522ZM61.446877 229.26772L61.446877 230.28334L55.759377 230.28334Q55.759377 229.90834 55.884377 229.54897Q56.103127 228.97084 56.571877 228.40834Q57.05625 227.84584 57.9625 227.11147Q59.36875 225.95522 59.853127 225.28334Q60.353127 224.61147 60.353127 224.01772Q60.353127 223.39272 59.9 222.97084Q59.446877 222.53334 58.728127 222.53334Q57.9625 222.53334 57.509377 222.98647Q57.05625 223.43959 57.040627 224.25209L55.9625 224.14272Q56.071877 222.92397 56.790627 222.29897Q57.525 221.65834 58.759377 221.65834Q59.99375 221.65834 60.7125 222.34584Q61.43125 223.03334 61.43125 224.04897Q61.43125 224.56459 61.2125 225.06459Q61.009377 225.54897 60.509377 226.11147Q60.025 226.65834 58.9 227.61147Q57.946877 228.40834 57.665627 228.70522Q57.4 228.98647 57.228127 229.26772L61.446877 229.26772ZM62.9 226.04897Q62.9 224.51772 63.2125 223.59584Q63.525 222.65834 64.13438 222.15834Q64.75938 221.65834 65.69688 221.65834Q66.38438 221.65834 66.9 221.93959Q67.43125 222.22084 67.775 222.75209Q68.11875 223.26772 68.30625 224.01772Q68.49375 224.76772 68.49375 226.04897Q68.49375 227.56459 68.18125 228.48647Q67.88438 229.40834 67.25938 229.92397Q66.65 230.42397 65.69688 230.42397Q64.4625 230.42397 63.74375 229.53334Q62.9 228.47084 62.9 226.04897ZM63.978127 226.04897Q63.978127 228.15834 64.47813 228.86147Q64.97813 229.56459 65.69688 229.56459Q66.43125 229.56459 66.91563 228.86147Q67.41563 228.15834 67.41563 226.04897Q67.41563 223.92397 66.91563 223.23647Q66.43125 222.53334 65.68125 222.53334Q64.9625 222.53334 64.525 223.14272Q63.978127 223.92397 63.978127 226.04897Z" fill-rule="nonzero"/><path fill="#000000" d="M51.775 212.87604L51.775 211.81354L55.025 211.81354L55.025 212.87604L51.775 212.87604ZM59.86875 215.45416L58.821877 215.45416L58.821877 208.73541Q58.43125 209.09479 57.80625 209.46979Q57.196877 209.82916 56.7125 210.00104L56.7125 208.98541Q57.5875 208.56354 58.24375 207.98541Q58.915627 207.39166 59.196877 206.82916L59.86875 206.82916L59.86875 215.45416ZM62.9 211.21979Q62.9 209.68854 63.2125 208.76666Q63.525 207.82916 64.13438 207.32916Q64.75938 206.82916 65.69688 206.82916Q66.38438 206.82916 66.9 207.11041Q67.43125 207.39166 67.775 207.92291Q68.11875 208.43854 68.30625 209.18854Q68.49375 209.93854 68.49375 211.21979Q68.49375 212.73541 68.18125 213.65729Q67.88438 214.57916 67.25938 215.09479Q66.65 215.59479 65.69688 215.59479Q64.4625 215.59479 63.74375 214.70416Q62.9 213.64166 62.9 211.21979ZM63.978127 211.21979Q63.978127 213.32916 64.47813 214.03229Q64.97813 214.73541 65.69688 214.73541Q66.43125 214.73541 66.91563 214.03229Q67.41563 213.32916 67.41563 211.21979Q67.41563 209.09479 66.91563 208.40729Q66.43125 207.70416 65.68125 207.70416Q64.9625 207.70416 64.525 208.31354Q63.978127 209.09479 63.978127 211.21979Z" fill-rule="nonzero"/><path fill="#000000" d="M62.9 196.39062Q62.9 194.85938 63.2125 193.9375Q63.525 193.0 64.13438 192.5Q64.75938 192.0 65.69688 192.0Q66.38438 192.0 66.9 192.28125Q67.43125 192.5625 67.775 193.09375Q68.11875 193.60938 68.30625 194.35938Q68.49375 195.10938 68.49375 196.39062Q68.49375 197.90625 68.18125 198.82812Q67.88438 199.75 67.25938 200.26562Q66.65 200.76562 65.69688 200.76562Q64.4625 200.76562 63.74375 199.875Q62.9 198.8125 62.9 196.39062ZM63.978127 196.39062Q63.978127 198.5 64.47813 199.20312Q64.97813 199.90625 65.69688 199.90625Q66.43125 199.90625 66.91563 199.20312Q67.41563 198.5 67.41563 196.39062Q67.41563 194.26562 66.91563 193.57812Q66.43125 192.875 65.68125 192.875Q64.9625 192.875 64.525 193.48438Q63.978127 194.26562 63.978127 196.39062Z" fill-rule="nonzero"/><path fill="#000000" d="M59.86875 185.79584L58.821877 185.79584L58.821877 179.07709Q58.43125 179.43646 57.80625 179.81146Q57.196877 180.17084 56.7125 180.34271L56.7125 179.32709Q57.5875 178.90521 58.24375 178.32709Q58.915627 177.73334 59.196877 177.17084L59.86875 177.17084L59.86875 185.79584ZM62.9 181.56146Q62.9 180.03021 63.2125 179.10834Q63.525 178.17084 64.13438 177.67084Q64.75938 177.17084 65.69688 177.17084Q66.38438 177.17084 66.9 177.45209Q67.43125 177.73334 67.775 178.26459Q68.11875 178.78021 68.30625 179.53021Q68.49375 180.28021 68.49375 181.56146Q68.49375 183.07709 68.18125 183.99896Q67.88438 184.92084 67.25938 185.43646Q66.65 185.93646 65.69688 185.93646Q64.4625 185.93646 63.74375 185.04584Q62.9 183.98334 62.9 181.56146ZM63.978127 181.56146Q63.978127 183.67084 64.47813 184.37396Q64.97813 185.07709 65.69688 185.07709Q66.43125 185.07709 66.91563 184.37396Q67.41563 183.67084 67.41563 181.56146Q67.41563 179.43646 66.91563 178.74896Q66.43125 178.04584 65.68125 178.04584Q64.9625 178.04584 64.525 178.65521Q63.978127 179.43646 63.978127 181.56146Z" fill-rule="nonzero"/><path fill="#000000" d="M61.446877 169.95103L61.446877 170.96666L55.759377 170.96666Q55.759377 170.59166 55.884377 170.23228Q56.103127 169.65416 56.571877 169.09166Q57.05625 168.52916 57.9625 167.79478Q59.36875 166.63853 59.853127 165.96666Q60.353127 165.29478 60.353127 164.70103Q60.353127 164.07603 59.9 163.65416Q59.446877 163.21666 58.728127 163.21666Q57.9625 163.21666 57.509377 163.66978Q57.05625 164.12291 57.040627 164.93541L55.9625 164.82603Q56.071877 163.60728 56.790627 162.98228Q57.525 162.34166 58.759377 162.34166Q59.99375 162.34166 60.7125 163.02916Q61.43125 163.71666 61.43125 164.73228Q61.43125 165.24791 61.2125 165.74791Q61.009377 166.23228 60.509377 166.79478Q60.025 167.34166 58.9 168.29478Q57.946877 169.09166 57.665627 169.38853Q57.4 169.66978 57.228127 169.95103L61.446877 169.95103ZM62.9 166.73228Q62.9 165.20103 63.2125 164.27916Q63.525 163.34166 64.13438 162.84166Q64.75938 162.34166 65.69688 162.34166Q66.38438 162.34166 66.9 162.62291Q67.43125 162.90416 67.775 163.43541Q68.11875 163.95103 68.30625 164.70103Q68.49375 165.45103 68.49375 166.73228Q68.49375 168.24791 68.18125 169.16978Q67.88438 170.09166 67.25938 170.60728Q66.65 171.10728 65.69688 171.10728Q64.4625 171.10728 63.74375 170.21666Q62.9 169.15416 62.9 166.73228ZM63.978127 166.73228Q63.978127 168.84166 64.47813 169.54478Q64.97813 170.24791 65.69688 170.24791Q66.43125 170.24791 66.91563 169.54478Q67.41563 168.84166 67.41563 166.73228Q67.41563 164.60728 66.91563 163.91978Q66.43125 163.21666 65.68125 163.21666Q64.9625 163.21666 64.525 163.82603Q63.978127 164.60728 63.978127 166.73228Z" fill-rule="nonzero"/><path fill="#000000" d="M55.9 153.87187L56.9625 153.73125Q57.134377 154.62187 57.571877 155.02812Q58.009377 155.41875 58.634377 155.41875Q59.384377 155.41875 59.9 154.90312Q60.415627 154.3875 60.415627 153.62187Q60.415627 152.90312 59.93125 152.43437Q59.4625 151.95 58.728127 151.95Q58.43125 151.95 57.978127 152.075L58.103127 151.1375Q58.2125 151.15312 58.275 151.15312Q58.946877 151.15312 59.478127 150.80937Q60.025 150.45 60.025 149.71562Q60.025 149.1375 59.634377 148.7625Q59.24375 148.37187 58.61875 148.37187Q58.009377 148.37187 57.5875 148.7625Q57.18125 149.15312 57.071877 149.91875L56.009377 149.73125Q56.196877 148.68437 56.884377 148.10625Q57.571877 147.5125 58.5875 147.5125Q59.290627 147.5125 59.884377 147.825Q60.478127 148.12187 60.790627 148.6375Q61.103127 149.15312 61.103127 149.74687Q61.103127 150.29375 60.80625 150.7625Q60.509377 151.21562 59.93125 151.48125Q60.68125 151.65312 61.103127 152.21562Q61.525 152.7625 61.525 153.60625Q61.525 154.73125 60.696877 155.5125Q59.884377 156.29375 58.634377 156.29375Q57.509377 156.29375 56.759377 155.62187Q56.009377 154.93437 55.9 153.87187ZM62.9 151.90312Q62.9 150.37187 63.2125 149.45Q63.525 148.5125 64.13438 148.0125Q64.75938 147.5125 65.69688 147.5125Q66.38438 147.5125 66.9 147.79375Q67.43125 148.075 67.775 148.60625Q68.11875 149.12187 68.30625 149.87187Q68.49375 150.62187 68.49375 151.90312Q68.49375 153.41875 68.18125 154.34062Q67.88438 155.2625 67.25938 155.77812Q66.65 156.27812 65.69688 156.27812Q64.4625 156.27812 63.74375 155.3875Q62.9 154.325 62.9 151.90312ZM63.978127 151.90312Q63.978127 154.0125 64.47813 154.71562Q64.97813 155.41875 65.69688 155.41875Q66.43125 155.41875 66.91563 154.71562Q67.41563 154.0125 67.41563 151.90312Q67.41563 149.77812 66.91563 149.09062Q66.43125 148.3875 65.68125 148.3875Q64.9625 148.3875 64.525 148.99687Q63.978127 149.77812 63.978127 151.90312Z" fill-rule="nonzero"/><path fill="#000000" d="M59.275 141.30833L59.275 139.24583L55.55625 139.24583L55.55625 138.27708L59.478127 132.71458L60.3375 132.71458L60.3375 138.27708L61.49375 138.27708L61.49375 139.24583L60.3375 139.24583L60.3375 141.30833L59.275 141.30833ZM59.275 138.27708L59.275 134.41771L56.5875 138.27708L59.275 138.27708ZM62.9 137.07396Q62.9 135.54271 63.2125 134.62083Q63.525 133.68333 64.13438 133.18333Q64.75938 132.68333 65.69688 132.68333Q66.38438 132.68333 66.9 132.96458Q67.43125 133.24583 67.775 133.77708Q68.11875 134.29271 68.30625 135.04271Q68.49375 135.79271 68.49375 137.07396Q68.49375 138.58958 68.18125 139.51146Q67.88438 140.43333 67.25938 140.94896Q66.65 141.44896 65.69688 141.44896Q64.4625 141.44896 63.74375 140.55833Q62.9 139.49583 62.9 137.07396ZM63.978127 137.07396Q63.978127 139.18333 64.47813 139.88646Q64.97813 140.58958 65.69688 140.58958Q66.43125 140.58958 66.91563 139.88646Q67.41563 139.18333 67.41563 137.07396Q67.41563 134.94896 66.91563 134.26146Q66.43125 133.55833 65.68125 133.55833Q64.9625 133.55833 64.525 134.16771Q63.978127 134.94896 63.978127 137.07396Z" fill-rule="nonzero"/><path fill="#000000" d="M55.9 124.229164L57.009377 124.135414Q57.134377 124.947914 57.571877 125.354164Q58.025 125.760414 58.665627 125.760414Q59.415627 125.760414 59.946877 125.18229Q60.478127 124.604164 60.478127 123.666664Q60.478127 122.760414 59.9625 122.24479Q59.4625 121.71354 58.634377 121.71354Q58.134377 121.71354 57.7125 121.947914Q57.30625 122.18229 57.071877 122.541664L56.0875 122.416664L56.915627 118.010414L61.196877 118.010414L61.196877 119.010414L57.759377 119.010414L57.30625 121.322914Q58.071877 120.77604 58.915627 120.77604Q60.040627 120.77604 60.80625 121.55729Q61.5875 122.33854 61.5875 123.572914Q61.5875 124.729164 60.915627 125.58854Q60.0875 126.61979 58.665627 126.61979Q57.49375 126.61979 56.74375 125.96354Q56.009377 125.30729 55.9 124.229164ZM62.9 122.24479Q62.9 120.71354 63.2125 119.791664Q63.525 118.854164 64.13438 118.354164Q64.75938 117.854164 65.69688 117.854164Q66.38438 117.854164 66.9 118.135414Q67.43125 118.416664 67.775 118.947914Q68.11875 119.46354 68.30625 120.21354Q68.49375 120.96354 68.49375 122.24479Q68.49375 123.760414 68.18125 124.68229Q67.88438 125.604164 67.25938 126.11979Q66.65 126.61979 65.69688 126.61979Q64.4625 126.61979 63.74375 125.729164Q62.9 124.666664 62.9 122.24479ZM63.978127 122.24479Q63.978127 124.354164 64.47813 125.05729Q64.97813 125.760414 65.69688 125.760414Q66.43125 125.760414 66.91563 125.05729Q67.41563 124.354164 67.41563 122.24479Q67.41563 120.11979 66.91563 119.43229Q66.43125 118.729164 65.68125 118.729164Q64.9625 118.729164 64.525 119.33854Q63.978127 120.11979 63.978127 122.24479Z" fill-rule="nonzero"/><path fill="#000000" d="M61.36875 105.16563L60.321877 105.24375Q60.18125 104.61875 59.93125 104.3375Q59.49375 103.88438 58.86875 103.88438Q58.36875 103.88438 57.978127 104.16563Q57.49375 104.54063 57.196877 105.24375Q56.915627 105.93125 56.9 107.2125Q57.275 106.63438 57.821877 106.35313Q58.384377 106.07188 58.99375 106.07188Q60.040627 106.07188 60.775 106.85313Q61.525 107.63438 61.525 108.85313Q61.525 109.66563 61.165627 110.36875Q60.821877 111.05625 60.2125 111.43125Q59.603127 111.79063 58.8375 111.79063Q57.509377 111.79063 56.68125 110.82188Q55.853127 109.85313 55.853127 107.63438Q55.853127 105.13438 56.775 104.00938Q57.571877 103.025 58.93125 103.025Q59.946877 103.025 60.5875 103.60313Q61.24375 104.16563 61.36875 105.16563ZM57.071877 108.86875Q57.071877 109.41563 57.290627 109.91563Q57.525 110.4 57.93125 110.66563Q58.353127 110.93125 58.821877 110.93125Q59.478127 110.93125 59.9625 110.4Q60.446877 109.85313 60.446877 108.93125Q60.446877 108.04063 59.9625 107.525Q59.49375 107.00938 58.775 107.00938Q58.05625 107.00938 57.55625 107.525Q57.071877 108.04063 57.071877 108.86875ZM62.9 107.41563Q62.9 105.88438 63.2125 104.9625Q63.525 104.025 64.13438 103.525Q64.75938 103.025 65.69688 103.025Q66.38438 103.025 66.9 103.30625Q67.43125 103.5875 67.775 104.11875Q68.11875 104.63438 68.30625 105.38438Q68.49375 106.13438 68.49375 107.41563Q68.49375 108.93125 68.18125 109.85313Q67.88438 110.775 67.25938 111.29063Q66.65 111.79063 65.69688 111.79063Q64.4625 111.79063 63.74375 110.9Q62.9 109.8375 62.9 107.41563ZM63.978127 107.41563Q63.978127 109.525 64.47813 110.22813Q64.97813 110.93125 65.69688 110.93125Q66.43125 110.93125 66.91563 110.22813Q67.41563 109.525 67.41563 107.41563Q67.41563 105.29063 66.91563 104.60313Q66.43125 103.9 65.68125 103.9Q64.9625 103.9 64.525 104.50938Q63.978127 105.29063 63.978127 107.41563Z" fill-rule="nonzero"/><path fill="#000000" d="M55.9625 89.35208L55.9625 88.33646L61.525 88.33646L61.525 89.16458Q60.7125 90.03958 59.9 91.49271Q59.103127 92.93021 58.665627 94.46146Q58.3375 95.53958 58.259377 96.82083L57.165627 96.82083Q57.18125 95.80521 57.55625 94.36771Q57.946877 92.93021 58.65 91.60208Q59.36875 90.27396 60.18125 89.35208L55.9625 89.35208ZM62.9 92.58646Q62.9 91.05521 63.2125 90.13333Q63.525 89.19583 64.13438 88.69583Q64.75938 88.19583 65.69688 88.19583Q66.38438 88.19583 66.9 88.47708Q67.43125 88.75833 67.775 89.28958Q68.11875 89.80521 68.30625 90.55521Q68.49375 91.30521 68.49375 92.58646Q68.49375 94.10208 68.18125 95.02396Q67.88438 95.94583 67.25938 96.46146Q66.65 96.96146 65.69688 96.96146Q64.4625 96.96146 63.74375 96.07083Q62.9 95.00833 62.9 92.58646ZM63.978127 92.58646Q63.978127 94.69583 64.47813 95.39896Q64.97813 96.10208 65.69688 96.10208Q66.43125 96.10208 66.91563 95.39896Q67.41563 94.69583 67.41563 92.58646Q67.41563 90.46146 66.91563 89.77396Q66.43125 89.07083 65.68125 89.07083Q64.9625 89.07083 64.525 89.68021Q63.978127 90.46146 63.978127 92.58646Z" fill-rule="nonzero"/><path fill="#000000" d="M57.525 77.33542Q56.86875 77.08542 56.540627 76.64792Q56.228127 76.19479 56.228127 75.58542Q56.228127 74.64792 56.9 74.00729Q57.5875 73.36667 58.696877 73.36667Q59.821877 73.36667 60.509377 74.02292Q61.196877 74.67917 61.196877 75.61667Q61.196877 76.21042 60.884377 76.64792Q60.571877 77.08542 59.93125 77.33542Q60.728127 77.58542 61.134377 78.16354Q61.540627 78.74167 61.540627 79.53854Q61.540627 80.63229 60.759377 81.38229Q59.99375 82.13229 58.7125 82.13229Q57.446877 82.13229 56.665627 81.38229Q55.884377 80.63229 55.884377 79.50729Q55.884377 78.66354 56.30625 78.10104Q56.74375 77.53854 57.525 77.33542ZM57.30625 75.53854Q57.30625 76.14792 57.696877 76.53854Q58.103127 76.92917 58.728127 76.92917Q59.3375 76.92917 59.728127 76.55417Q60.11875 76.16354 60.11875 75.60104Q60.11875 75.02292 59.7125 74.63229Q59.30625 74.22604 58.7125 74.22604Q58.103127 74.22604 57.696877 74.61667Q57.30625 75.00729 57.30625 75.53854ZM56.978127 79.50729Q56.978127 79.96042 57.18125 80.38229Q57.4 80.80417 57.821877 81.03854Q58.24375 81.27292 58.728127 81.27292Q59.478127 81.27292 59.9625 80.78854Q60.4625 80.30417 60.4625 79.55417Q60.4625 78.78854 59.9625 78.28854Q59.4625 77.78854 58.696877 77.78854Q57.946877 77.78854 57.4625 78.28854Q56.978127 78.77292 56.978127 79.50729ZM62.9 77.75729Q62.9 76.22604 63.2125 75.30417Q63.525 74.36667 64.13438 73.86667Q64.75938 73.36667 65.69688 73.36667Q66.38438 73.36667 66.9 73.64792Q67.43125 73.92917 67.775 74.46042Q68.11875 74.97604 68.30625 75.72604Q68.49375 76.47604 68.49375 77.75729Q68.49375 79.27292 68.18125 80.19479Q67.88438 81.11667 67.25938 81.63229Q66.65 82.13229 65.69688 82.13229Q64.4625 82.13229 63.74375 81.24167Q62.9 80.17917 62.9 77.75729ZM63.978127 77.75729Q63.978127 79.86667 64.47813 80.56979Q64.97813 81.27292 65.69688 81.27292Q66.43125 81.27292 66.91563 80.56979Q67.41563 79.86667 67.41563 77.75729Q67.41563 75.63229 66.91563 74.94479Q66.43125 74.24167 65.68125 74.24167Q64.9625 74.24167 64.525 74.85104Q63.978127 75.63229 63.978127 77.75729Z" fill-rule="nonzero"/><path fill="#000000" d="M56.05625 65.17812L57.071877 65.08437Q57.196877 65.80312 57.55625 66.13125Q57.93125 66.44375 58.49375 66.44375Q58.978127 66.44375 59.3375 66.225Q59.7125 65.99062 59.946877 65.63125Q60.18125 65.25625 60.3375 64.63125Q60.49375 63.990623 60.49375 63.334373Q60.49375 63.25625 60.49375 63.115623Q60.18125 63.615623 59.634377 63.94375Q59.0875 64.25625 58.446877 64.25625Q57.36875 64.25625 56.634377 63.490623Q55.9 62.709373 55.9 61.44375Q55.9 60.13125 56.665627 59.334373Q57.446877 58.5375 58.603127 58.5375Q59.43125 58.5375 60.11875 58.990623Q60.821877 59.44375 61.18125 60.2875Q61.540627 61.115623 61.540627 62.69375Q61.540627 64.33437 61.18125 65.31875Q60.8375 66.2875 60.11875 66.80312Q59.415627 67.30312 58.478127 67.30312Q57.4625 67.30312 56.821877 66.75625Q56.18125 66.19375 56.05625 65.17812ZM60.36875 61.38125Q60.36875 60.475 59.884377 59.94375Q59.415627 59.4125 58.728127 59.4125Q58.025 59.4125 57.49375 59.990623Q56.978127 60.553123 56.978127 61.475Q56.978127 62.2875 57.478127 62.803123Q57.978127 63.31875 58.696877 63.31875Q59.43125 63.31875 59.9 62.803123Q60.36875 62.2875 60.36875 61.38125ZM62.9 62.928123Q62.9 61.396873 63.2125 60.475Q63.525 59.5375 64.13438 59.0375Q64.75938 58.5375 65.69688 58.5375Q66.38438 58.5375 66.9 58.81875Q67.43125 59.1 67.775 59.63125Q68.11875 60.146873 68.30625 60.896873Q68.49375 61.646873 68.49375 62.928123Q68.49375 64.44375 68.18125 65.36562Q67.88438 66.2875 67.25938 66.80312Q66.65 67.30312 65.69688 67.30312Q64.4625 67.30312 63.74375 66.4125Q62.9 65.35 62.9 62.928123ZM63.978127 62.928123Q63.978127 65.0375 64.47813 65.74062Q64.97813 66.44375 65.69688 66.44375Q66.43125 66.44375 66.91563 65.74062Q67.41563 65.0375 67.41563 62.928123Q67.41563 60.803123 66.91563 60.115623Q66.43125 59.4125 65.68125 59.4125Q64.9625 59.4125 64.525 60.021873Q63.978127 60.803123 63.978127 62.928123Z" fill-rule="nonzero"/><path fill="#000000" d="M52.86875 52.333332L51.821877 52.333332L51.821877 45.614582Q51.43125 45.973957 50.80625 46.348957Q50.196877 46.708332 49.7125 46.880207L49.7125 45.864582Q50.5875 45.442707 51.24375 44.864582Q51.915627 44.270832 52.196877 43.708332L52.86875 43.708332L52.86875 52.333332ZM55.9 48.098957Q55.9 46.567707 56.2125 45.645832Q56.525 44.708332 57.134377 44.208332Q57.759377 43.708332 58.696877 43.708332Q59.384377 43.708332 59.9 43.989582Q60.43125 44.270832 60.775 44.802082Q61.11875 45.317707 61.30625 46.067707Q61.49375 46.817707 61.49375 48.098957Q61.49375 49.614582 61.18125 50.536457Q60.884377 51.458332 60.259377 51.973957Q59.65 52.473957 58.696877 52.473957Q57.4625 52.473957 56.74375 51.583332Q55.9 50.520832 55.9 48.098957ZM56.978127 48.098957Q56.978127 50.208332 57.478127 50.911457Q57.978127 51.614582 58.696877 51.614582Q59.43125 51.614582 59.915627 50.911457Q60.415627 50.208332 60.415627 48.098957Q60.415627 45.973957 59.915627 45.286457Q59.43125 44.583332 58.68125 44.583332Q57.9625 44.583332 57.525 45.192707Q56.978127 45.973957 56.978127 48.098957ZM62.9 48.098957Q62.9 46.567707 63.2125 45.645832Q63.525 44.708332 64.13438 44.208332Q64.75938 43.708332 65.69688 43.708332Q66.38438 43.708332 66.9 43.989582Q67.43125 44.270832 67.775 44.802082Q68.11875 45.317707 68.30625 46.067707Q68.49375 46.817707 68.49375 48.098957Q68.49375 49.614582 68.18125 50.536457Q67.88438 51.458332 67.25938 51.973957Q66.65 52.473957 65.69688 52.473957Q64.4625 52.473957 63.74375 51.583332Q62.9 50.520832 62.9 48.098957ZM63.978127 48.098957Q63.978127 50.208332 64.47813 50.911457Q64.97813 51.614582 65.69688 51.614582Q66.43125 51.614582 66.91563 50.911457Q67.41563 50.208332 67.41563 48.098957Q67.41563 45.973957 66.91563 45.286457Q66.43125 44.583332 65.68125 44.583332Q64.9625 44.583332 64.525 45.192707Q63.978127 45.973957 63.978127 48.098957Z" fill-rule="nonzero"/><path fill="#000000" d="M88.08437 305.83438L89.14687 305.74063Q89.225 306.39688 89.50625 306.80313Q89.7875 307.20938 90.36562 307.475Q90.95937 307.725 91.69375 307.725Q92.33437 307.725 92.83437 307.5375Q93.33437 307.33438 93.56875 307.00626Q93.81875 306.6625 93.81875 306.27188Q93.81875 305.86563 93.58437 305.56876Q93.35 305.25626 92.81875 305.05313Q92.45937 304.9125 91.27187 304.63126Q90.1 304.35 89.63125 304.1Q89.00625 303.77188 88.70937 303.30313Q88.4125 302.81876 88.4125 302.225Q88.4125 301.58438 88.77187 301.02188Q89.14687 300.44376 89.85 300.1625Q90.56875 299.86563 91.42812 299.86563Q92.38125 299.86563 93.11562 300.17813Q93.85 300.475 94.24062 301.08438Q94.63125 301.67813 94.6625 302.42813L93.56875 302.50626Q93.475 301.69376 92.95937 301.2875Q92.45937 300.86563 91.475 300.86563Q90.44375 300.86563 89.975 301.24063Q89.50625 301.61563 89.50625 302.14688Q89.50625 302.61563 89.83437 302.9125Q90.1625 303.20938 91.5375 303.52188Q92.92812 303.83438 93.44375 304.06876Q94.19375 304.42813 94.55312 304.95938Q94.9125 305.475 94.9125 306.17813Q94.9125 306.86563 94.52187 307.475Q94.13125 308.06876 93.39687 308.4125Q92.6625 308.74063 91.74062 308.74063Q90.56875 308.74063 89.77187 308.4125Q88.99062 308.06876 88.5375 307.38126Q88.1 306.69376 88.08437 305.83438ZM96.33437 310.99063L96.33437 302.38126L97.2875 302.38126L97.2875 303.17813Q97.63125 302.70938 98.05312 302.475Q98.49062 302.24063 99.1 302.24063Q99.89687 302.24063 100.50625 302.64688Q101.11562 303.05313 101.4125 303.80313Q101.725 304.55313 101.725 305.44376Q101.725 306.39688 101.38125 307.1625Q101.05312 307.92813 100.39687 308.33438Q99.74062 308.74063 99.02187 308.74063Q98.49062 308.74063 98.06875 308.52188Q97.64687 308.2875 97.38125 307.95938L97.38125 310.99063L96.33437 310.99063ZM97.2875 305.52188Q97.2875 306.725 97.77187 307.30313Q98.25625 307.86563 98.94375 307.86563Q99.64687 307.86563 100.14687 307.27188Q100.64687 306.67813 100.64687 305.42813Q100.64687 304.24063 100.1625 303.6625Q99.67812 303.06876 98.99062 303.06876Q98.31875 303.06876 97.80312 303.69376Q97.2875 304.31876 97.2875 305.52188ZM103.31875 308.6L103.31875 302.38126L104.27187 302.38126L104.27187 303.31876Q104.63125 302.6625 104.92812 302.45938Q105.24062 302.24063 105.61562 302.24063Q106.14687 302.24063 106.69375 302.56876L106.33437 303.55313Q105.94375 303.31876 105.56875 303.31876Q105.20937 303.31876 104.92812 303.5375Q104.6625 303.74063 104.55312 304.11563Q104.36562 304.67813 104.36562 305.33438L104.36562 308.6L103.31875 308.6ZM107.33437 301.225L107.33437 300.00626L108.39687 300.00626L108.39687 301.225L107.33437 301.225ZM107.33437 308.6L107.33437 302.38126L108.39687 302.38126L108.39687 308.6L107.33437 308.6ZM110.33437 308.6L110.33437 302.38126L111.27187 302.38126L111.27187 303.25626Q111.95937 302.24063 113.25625 302.24063Q113.81875 302.24063 114.2875 302.44376Q114.77187 302.64688 115.00625 302.975Q115.24062 303.30313 115.33437 303.74063Q115.38125 304.0375 115.38125 304.77188L115.38125 308.6L114.33437 308.6L114.33437 304.81876Q114.33437 304.1625 114.20937 303.85Q114.08437 303.5375 113.77187 303.35Q113.45937 303.14688 113.0375 303.14688Q112.36562 303.14688 111.86562 303.58438Q111.38125 304.00626 111.38125 305.19376L111.38125 308.6L110.33437 308.6ZM119.63125 307.6625L119.7875 308.58438Q119.33437 308.67813 118.99062 308.67813Q118.4125 308.67813 118.1 308.50626Q117.7875 308.31876 117.64687 308.02188Q117.52187 307.725 117.52187 306.77188L117.52187 303.19376L116.75625 303.19376L116.75625 302.38126L117.52187 302.38126L117.52187 300.83438L118.56875 300.20938L118.56875 302.38126L119.63125 302.38126L119.63125 303.19376L118.56875 303.19376L118.56875 306.83438Q118.56875 307.2875 118.61562 307.4125Q118.67812 307.5375 118.80312 307.61563Q118.92812 307.69376 119.1625 307.69376Q119.35 307.69376 119.63125 307.6625ZM127.00625 308.6L125.95937 308.6L125.95937 301.88126Q125.56875 302.24063 124.94375 302.61563Q124.33437 302.975 123.85 303.14688L123.85 302.13126Q124.725 301.70938 125.38125 301.13126Q126.05312 300.5375 126.33437 299.975L127.00625 299.975L127.00625 308.6Z" fill-rule="nonzero"/><path fill="#000000" d="M142.35938 305.83438L143.42188 305.74063Q143.5 306.39688 143.78125 306.80313Q144.0625 307.20938 144.64062 307.475Q145.23438 307.725 145.96875 307.725Q146.60938 307.725 147.10938 307.5375Q147.60938 307.33438 147.84375 307.00626Q148.09375 306.6625 148.09375 306.27188Q148.09375 305.86563 147.85938 305.56876Q147.625 305.25626 147.09375 305.05313Q146.73438 304.9125 145.54688 304.63126Q144.375 304.35 143.90625 304.1Q143.28125 303.77188 142.98438 303.30313Q142.6875 302.81876 142.6875 302.225Q142.6875 301.58438 143.04688 301.02188Q143.42188 300.44376 144.125 300.1625Q144.84375 299.86563 145.70312 299.86563Q146.65625 299.86563 147.39062 300.17813Q148.125 300.475 148.51562 301.08438Q148.90625 301.67813 148.9375 302.42813L147.84375 302.50626Q147.75 301.69376 147.23438 301.2875Q146.73438 300.86563 145.75 300.86563Q144.71875 300.86563 144.25 301.24063Q143.78125 301.61563 143.78125 302.14688Q143.78125 302.61563 144.10938 302.9125Q144.4375 303.20938 145.8125 303.52188Q147.20312 303.83438 147.71875 304.06876Q148.46875 304.42813 148.82812 304.95938Q149.1875 305.475 149.1875 306.17813Q149.1875 306.86563 148.79688 307.475Q148.40625 308.06876 147.67188 308.4125Q146.9375 308.74063 146.01562 308.74063Q144.84375 308.74063 144.04688 308.4125Q143.26562 308.06876 142.8125 307.38126Q142.375 306.69376 142.35938 305.83438ZM150.60938 310.99063L150.60938 302.38126L151.5625 302.38126L151.5625 303.17813Q151.90625 302.70938 152.32812 302.475Q152.76562 302.24063 153.375 302.24063Q154.17188 302.24063 154.78125 302.64688Q155.39062 303.05313 155.6875 303.80313Q156.0 304.55313 156.0 305.44376Q156.0 306.39688 155.65625 307.1625Q155.32812 307.92813 154.67188 308.33438Q154.01562 308.74063 153.29688 308.74063Q152.76562 308.74063 152.34375 308.52188Q151.92188 308.2875 151.65625 307.95938L151.65625 310.99063L150.60938 310.99063ZM151.5625 305.52188Q151.5625 306.725 152.04688 307.30313Q152.53125 307.86563 153.21875 307.86563Q153.92188 307.86563 154.42188 307.27188Q154.92188 306.67813 154.92188 305.42813Q154.92188 304.24063 154.4375 303.6625Q153.95312 303.06876 153.26562 303.06876Q152.59375 303.06876 152.07812 303.69376Q151.5625 304.31876 151.5625 305.52188ZM157.59375 308.6L157.59375 302.38126L158.54688 302.38126L158.54688 303.31876Q158.90625 302.6625 159.20312 302.45938Q159.51562 302.24063 159.89062 302.24063Q160.42188 302.24063 160.96875 302.56876L160.60938 303.55313Q160.21875 303.31876 159.84375 303.31876Q159.48438 303.31876 159.20312 303.5375Q158.9375 303.74063 158.82812 304.11563Q158.64062 304.67813 158.64062 305.33438L158.64062 308.6L157.59375 308.6ZM161.60938 301.225L161.60938 300.00626L162.67188 300.00626L162.67188 301.225L161.60938 301.225ZM161.60938 308.6L161.60938 302.38126L162.67188 302.38126L162.67188 308.6L161.60938 308.6ZM164.60938 308.6L164.60938 302.38126L165.54688 302.38126L165.54688 303.25626Q166.23438 302.24063 167.53125 302.24063Q168.09375 302.24063 168.5625 302.44376Q169.04688 302.64688 169.28125 302.975Q169.51562 303.30313 169.60938 303.74063Q169.65625 304.0375 169.65625 304.77188L169.65625 308.6L168.60938 308.6L168.60938 304.81876Q168.60938 304.1625 168.48438 303.85Q168.35938 303.5375 168.04688 303.35Q167.73438 303.14688 167.3125 303.14688Q166.64062 303.14688 166.14062 303.58438Q165.65625 304.00626 165.65625 305.19376L165.65625 308.6L164.60938 308.6ZM173.90625 307.6625L174.0625 308.58438Q173.60938 308.67813 173.26562 308.67813Q172.6875 308.67813 172.375 308.50626Q172.0625 308.31876 171.92188 308.02188Q171.79688 307.725 171.79688 306.77188L171.79688 303.19376L171.03125 303.19376L171.03125 302.38126L171.79688 302.38126L171.79688 300.83438L172.84375 300.20938L172.84375 302.38126L173.90625 302.38126L173.90625 303.19376L172.84375 303.19376L172.84375 306.83438Q172.84375 307.2875 172.89062 307.4125Q172.95312 307.5375 173.07812 307.61563Q173.20312 307.69376 173.4375 307.69376Q173.625 307.69376 173.90625 307.6625ZM182.85938 307.58438L182.85938 308.6L177.17188 308.6Q177.17188 308.225 177.29688 307.86563Q177.51562 307.2875 177.98438 306.725Q178.46875 306.1625 179.375 305.42813Q180.78125 304.27188 181.26562 303.6Q181.76562 302.92813 181.76562 302.33438Q181.76562 301.70938 181.3125 301.2875Q180.85938 300.85 180.14062 300.85Q179.375 300.85 178.92188 301.30313Q178.46875 301.75626 178.45312 302.56876L177.375 302.45938Q177.48438 301.24063 178.20312 300.61563Q178.9375 299.975 180.17188 299.975Q181.40625 299.975 182.125 300.6625Q182.84375 301.35 182.84375 302.36563Q182.84375 302.88126 182.625 303.38126Q182.42188 303.86563 181.92188 304.42813Q181.4375 304.975 180.3125 305.92813Q179.35938 306.725 179.07812 307.02188Q178.8125 307.30313 178.64062 307.58438L182.85938 307.58438Z" fill-rule="nonzero"/><path fill="#000000" d="M196.63437 305.83438L197.69687 305.74063Q197.775 306.39688 198.05624 306.80313Q198.3375 307.20938 198.91562 307.475Q199.50937 307.725 200.24374 307.725Q200.88437 307.725 201.38437 307.5375Q201.88437 307.33438 202.11874 307.00626Q202.36874 306.6625 202.36874 306.27188Q202.36874 305.86563 202.13437 305.56876Q201.9 305.25626 201.36874 305.05313Q201.00937 304.9125 199.82187 304.63126Q198.65 304.35 198.18124 304.1Q197.55624 303.77188 197.25937 303.30313Q196.9625 302.81876 196.9625 302.225Q196.9625 301.58438 197.32187 301.02188Q197.69687 300.44376 198.4 300.1625Q199.11874 299.86563 199.97812 299.86563Q200.93124 299.86563 201.66562 300.17813Q202.4 300.475 202.79062 301.08438Q203.18124 301.67813 203.2125 302.42813L202.11874 302.50626Q202.025 301.69376 201.50937 301.2875Q201.00937 300.86563 200.025 300.86563Q198.99374 300.86563 198.525 301.24063Q198.05624 301.61563 198.05624 302.14688Q198.05624 302.61563 198.38437 302.9125Q198.7125 303.20938 200.0875 303.52188Q201.47812 303.83438 201.99374 304.06876Q202.74374 304.42813 203.10312 304.95938Q203.4625 305.475 203.4625 306.17813Q203.4625 306.86563 203.07187 307.475Q202.68124 308.06876 201.94687 308.4125Q201.2125 308.74063 200.29062 308.74063Q199.11874 308.74063 198.32187 308.4125Q197.54062 308.06876 197.0875 307.38126Q196.65 306.69376 196.63437 305.83438ZM204.88437 310.99063L204.88437 302.38126L205.8375 302.38126L205.8375 303.17813Q206.18124 302.70938 206.60312 302.475Q207.04062 302.24063 207.65 302.24063Q208.44687 302.24063 209.05624 302.64688Q209.66562 303.05313 209.9625 303.80313Q210.275 304.55313 210.275 305.44376Q210.275 306.39688 209.93124 307.1625Q209.60312 307.92813 208.94687 308.33438Q208.29062 308.74063 207.57187 308.74063Q207.04062 308.74063 206.61874 308.52188Q206.19687 308.2875 205.93124 307.95938L205.93124 310.99063L204.88437 310.99063ZM205.8375 305.52188Q205.8375 306.725 206.32187 307.30313Q206.80624 307.86563 207.49374 307.86563Q208.19687 307.86563 208.69687 307.27188Q209.19687 306.67813 209.19687 305.42813Q209.19687 304.24063 208.7125 303.6625Q208.22812 303.06876 207.54062 303.06876Q206.86874 303.06876 206.35312 303.69376Q205.8375 304.31876 205.8375 305.52188ZM211.86874 308.6L211.86874 302.38126L212.82187 302.38126L212.82187 303.31876Q213.18124 302.6625 213.47812 302.45938Q213.79062 302.24063 214.16562 302.24063Q214.69687 302.24063 215.24374 302.56876L214.88437 303.55313Q214.49374 303.31876 214.11874 303.31876Q213.75937 303.31876 213.47812 303.5375Q213.2125 303.74063 213.10312 304.11563Q212.91562 304.67813 212.91562 305.33438L212.91562 308.6L211.86874 308.6ZM215.88437 301.225L215.88437 300.00626L216.94687 300.00626L216.94687 301.225L215.88437 301.225ZM215.88437 308.6L215.88437 302.38126L216.94687 302.38126L216.94687 308.6L215.88437 308.6ZM218.88437 308.6L218.88437 302.38126L219.82187 302.38126L219.82187 303.25626Q220.50937 302.24063 221.80624 302.24063Q222.36874 302.24063 222.8375 302.44376Q223.32187 302.64688 223.55624 302.975Q223.79062 303.30313 223.88437 303.74063Q223.93124 304.0375 223.93124 304.77188L223.93124 308.6L222.88437 308.6L222.88437 304.81876Q222.88437 304.1625 222.75937 303.85Q222.63437 303.5375 222.32187 303.35Q222.00937 303.14688 221.5875 303.14688Q220.91562 303.14688 220.41562 303.58438Q219.93124 304.00626 219.93124 305.19376L219.93124 308.6L218.88437 308.6ZM228.18124 307.6625L228.3375 308.58438Q227.88437 308.67813 227.54062 308.67813Q226.9625 308.67813 226.65 308.50626Q226.3375 308.31876 226.19687 308.02188Q226.07187 307.725 226.07187 306.77188L226.07187 303.19376L225.30624 303.19376L225.30624 302.38126L226.07187 302.38126L226.07187 300.83438L227.11874 300.20938L227.11874 302.38126L228.18124 302.38126L228.18124 303.19376L227.11874 303.19376L227.11874 306.83438Q227.11874 307.2875 227.16562 307.4125Q227.22812 307.5375 227.35312 307.61563Q227.47812 307.69376 227.7125 307.69376Q227.9 307.69376 228.18124 307.6625ZM231.5875 306.33438L232.65 306.19376Q232.82187 307.08438 233.25937 307.49063Q233.69687 307.88126 234.32187 307.88126Q235.07187 307.88126 235.5875 307.36563Q236.10312 306.85 236.10312 306.08438Q236.10312 305.36563 235.61874 304.89688Q235.15 304.4125 234.41562 304.4125Q234.11874 304.4125 233.66562 304.5375L233.79062 303.6Q233.9 303.61563 233.9625 303.61563Q234.63437 303.61563 235.16562 303.27188Q235.7125 302.9125 235.7125 302.17813Q235.7125 301.6 235.32187 301.225Q234.93124 300.83438 234.30624 300.83438Q233.69687 300.83438 233.275 301.225Q232.86874 301.61563 232.75937 302.38126L231.69687 302.19376Q231.88437 301.14688 232.57187 300.56876Q233.25937 299.975 234.275 299.975Q234.97812 299.975 235.57187 300.2875Q236.16562 300.58438 236.47812 301.1Q236.79062 301.61563 236.79062 302.20938Q236.79062 302.75626 236.49374 303.225Q236.19687 303.67813 235.61874 303.94376Q236.36874 304.11563 236.79062 304.67813Q237.2125 305.225 237.2125 306.06876Q237.2125 307.19376 236.38437 307.975Q235.57187 308.75626 234.32187 308.75626Q233.19687 308.75626 232.44687 308.08438Q231.69687 307.39688 231.5875 306.33438Z" fill-rule="nonzero"/><path fill="#000000" d="M250.90938 305.83438L251.97188 305.74063Q252.05 306.39688 252.33125 306.80313Q252.6125 307.20938 253.19063 307.475Q253.78438 307.725 254.51875 307.725Q255.15938 307.725 255.65938 307.5375Q256.15936 307.33438 256.39374 307.00626Q256.64374 306.6625 256.64374 306.27188Q256.64374 305.86563 256.40936 305.56876Q256.175 305.25626 255.64375 305.05313Q255.28438 304.9125 254.09688 304.63126Q252.925 304.35 252.45625 304.1Q251.83125 303.77188 251.53438 303.30313Q251.2375 302.81876 251.2375 302.225Q251.2375 301.58438 251.59688 301.02188Q251.97188 300.44376 252.675 300.1625Q253.39375 299.86563 254.25313 299.86563Q255.20625 299.86563 255.94063 300.17813Q256.675 300.475 257.0656 301.08438Q257.45624 301.67813 257.4875 302.42813L256.39374 302.50626Q256.3 301.69376 255.78438 301.2875Q255.28438 300.86563 254.3 300.86563Q253.26875 300.86563 252.8 301.24063Q252.33125 301.61563 252.33125 302.14688Q252.33125 302.61563 252.65938 302.9125Q252.9875 303.20938 254.3625 303.52188Q255.75313 303.83438 256.26874 304.06876Q257.01874 304.42813 257.3781 304.95938Q257.7375 305.475 257.7375 306.17813Q257.7375 306.86563 257.34686 307.475Q256.95624 308.06876 256.22186 308.4125Q255.4875 308.74063 254.56563 308.74063Q253.39375 308.74063 252.59688 308.4125Q251.81563 308.06876 251.3625 307.38126Q250.925 306.69376 250.90938 305.83438ZM259.15936 310.99063L259.15936 302.38126L260.1125 302.38126L260.1125 303.17813Q260.45624 302.70938 260.8781 302.475Q261.3156 302.24063 261.925 302.24063Q262.72186 302.24063 263.33124 302.64688Q263.9406 303.05313 264.2375 303.80313Q264.55 304.55313 264.55 305.44376Q264.55 306.39688 264.20624 307.1625Q263.8781 307.92813 263.22186 308.33438Q262.5656 308.74063 261.84686 308.74063Q261.3156 308.74063 260.89374 308.52188Q260.47186 308.2875 260.20624 307.95938L260.20624 310.99063L259.15936 310.99063ZM260.1125 305.52188Q260.1125 306.725 260.59686 307.30313Q261.08124 307.86563 261.76874 307.86563Q262.47186 307.86563 262.97186 307.27188Q263.47186 306.67813 263.47186 305.42813Q263.47186 304.24063 262.9875 303.6625Q262.5031 303.06876 261.8156 303.06876Q261.14374 303.06876 260.6281 303.69376Q260.1125 304.31876 260.1125 305.52188ZM266.14374 308.6L266.14374 302.38126L267.09686 302.38126L267.09686 303.31876Q267.45624 302.6625 267.7531 302.45938Q268.0656 302.24063 268.4406 302.24063Q268.97186 302.24063 269.51874 302.56876L269.15936 303.55313Q268.76874 303.31876 268.39374 303.31876Q268.03436 303.31876 267.7531 303.5375Q267.4875 303.74063 267.3781 304.11563Q267.1906 304.67813 267.1906 305.33438L267.1906 308.6L266.14374 308.6ZM270.15936 301.225L270.15936 300.00626L271.22186 300.00626L271.22186 301.225L270.15936 301.225ZM270.15936 308.6L270.15936 302.38126L271.22186 302.38126L271.22186 308.6L270.15936 308.6ZM273.15936 308.6L273.15936 302.38126L274.09686 302.38126L274.09686 303.25626Q274.78436 302.24063 276.08124 302.24063Q276.64374 302.24063 277.1125 302.44376Q277.59686 302.64688 277.83124 302.975Q278.0656 303.30313 278.15936 303.74063Q278.20624 304.0375 278.20624 304.77188L278.20624 308.6L277.15936 308.6L277.15936 304.81876Q277.15936 304.1625 277.03436 303.85Q276.90936 303.5375 276.59686 303.35Q276.28436 303.14688 275.8625 303.14688Q275.1906 303.14688 274.6906 303.58438Q274.20624 304.00626 274.20624 305.19376L274.20624 308.6L273.15936 308.6ZM282.45624 307.6625L282.6125 308.58438Q282.15936 308.67813 281.8156 308.67813Q281.2375 308.67813 280.925 308.50626Q280.6125 308.31876 280.47186 308.02188Q280.34686 307.725 280.34686 306.77188L280.34686 303.19376L279.58124 303.19376L279.58124 302.38126L280.34686 302.38126L280.34686 300.83438L281.39374 300.20938L281.39374 302.38126L282.45624 302.38126L282.45624 303.19376L281.39374 303.19376L281.39374 306.83438Q281.39374 307.2875 281.4406 307.4125Q281.5031 307.5375 281.6281 307.61563Q281.7531 307.69376 281.9875 307.69376Q282.175 307.69376 282.45624 307.6625ZM289.2375 308.6L289.2375 306.5375L285.51874 306.5375L285.51874 305.56876L289.4406 300.00626L290.3 300.00626L290.3 305.56876L291.45624 305.56876L291.45624 306.5375L290.3 306.5375L290.3 308.6L289.2375 308.6ZM289.2375 305.56876L289.2375 301.70938L286.55 305.56876L289.2375 305.56876Z" fill-rule="nonzero"/><path fill="#000000" d="M305.1844 305.83438L306.2469 305.74063Q306.325 306.39688 306.60626 306.80313Q306.8875 307.20938 307.46564 307.475Q308.0594 307.725 308.79376 307.725Q309.4344 307.725 309.9344 307.5375Q310.4344 307.33438 310.66876 307.00626Q310.91876 306.6625 310.91876 306.27188Q310.91876 305.86563 310.6844 305.56876Q310.45 305.25626 309.91876 305.05313Q309.5594 304.9125 308.3719 304.63126Q307.2 304.35 306.73126 304.1Q306.10626 303.77188 305.8094 303.30313Q305.5125 302.81876 305.5125 302.225Q305.5125 301.58438 305.8719 301.02188Q306.2469 300.44376 306.95 300.1625Q307.66876 299.86563 308.52814 299.86563Q309.48126 299.86563 310.21564 300.17813Q310.95 300.475 311.34064 301.08438Q311.73126 301.67813 311.7625 302.42813L310.66876 302.50626Q310.575 301.69376 310.0594 301.2875Q309.5594 300.86563 308.575 300.86563Q307.54376 300.86563 307.075 301.24063Q306.60626 301.61563 306.60626 302.14688Q306.60626 302.61563 306.9344 302.9125Q307.2625 303.20938 308.6375 303.52188Q310.02814 303.83438 310.54376 304.06876Q311.29376 304.42813 311.65314 304.95938Q312.0125 305.475 312.0125 306.17813Q312.0125 306.86563 311.6219 307.475Q311.23126 308.06876 310.4969 308.4125Q309.7625 308.74063 308.84064 308.74063Q307.66876 308.74063 306.8719 308.4125Q306.09064 308.06876 305.6375 307.38126Q305.2 306.69376 305.1844 305.83438ZM313.4344 310.99063L313.4344 302.38126L314.3875 302.38126L314.3875 303.17813Q314.73126 302.70938 315.15314 302.475Q315.59064 302.24063 316.2 302.24063Q316.9969 302.24063 317.60626 302.64688Q318.21564 303.05313 318.5125 303.80313Q318.825 304.55313 318.825 305.44376Q318.825 306.39688 318.48126 307.1625Q318.15314 307.92813 317.4969 308.33438Q316.84064 308.74063 316.1219 308.74063Q315.59064 308.74063 315.16876 308.52188Q314.7469 308.2875 314.48126 307.95938L314.48126 310.99063L313.4344 310.99063ZM314.3875 305.52188Q314.3875 306.725 314.8719 307.30313Q315.35626 307.86563 316.04376 307.86563Q316.7469 307.86563 317.2469 307.27188Q317.7469 306.67813 317.7469 305.42813Q317.7469 304.24063 317.2625 303.6625Q316.77814 303.06876 316.09064 303.06876Q315.41876 303.06876 314.90314 303.69376Q314.3875 304.31876 314.3875 305.52188ZM320.41876 308.6L320.41876 302.38126L321.3719 302.38126L321.3719 303.31876Q321.73126 302.6625 322.02814 302.45938Q322.34064 302.24063 322.71564 302.24063Q323.2469 302.24063 323.79376 302.56876L323.4344 303.55313Q323.04376 303.31876 322.66876 303.31876Q322.3094 303.31876 322.02814 303.5375Q321.7625 303.74063 321.65314 304.11563Q321.46564 304.67813 321.46564 305.33438L321.46564 308.6L320.41876 308.6ZM324.4344 301.225L324.4344 300.00626L325.4969 300.00626L325.4969 301.225L324.4344 301.225ZM324.4344 308.6L324.4344 302.38126L325.4969 302.38126L325.4969 308.6L324.4344 308.6ZM327.4344 308.6L327.4344 302.38126L328.3719 302.38126L328.3719 303.25626Q329.0594 302.24063 330.35626 302.24063Q330.91876 302.24063 331.3875 302.44376Q331.8719 302.64688 332.10626 302.975Q332.34064 303.30313 332.4344 303.74063Q332.48126 304.0375 332.48126 304.77188L332.48126 308.6L331.4344 308.6L331.4344 304.81876Q331.4344 304.1625 331.3094 303.85Q331.1844 303.5375 330.8719 303.35Q330.5594 303.14688 330.1375 303.14688Q329.46564 303.14688 328.96564 303.58438Q328.48126 304.00626 328.48126 305.19376L328.48126 308.6L327.4344 308.6ZM336.73126 307.6625L336.8875 308.58438Q336.4344 308.67813 336.09064 308.67813Q335.5125 308.67813 335.2 308.50626Q334.8875 308.31876 334.7469 308.02188Q334.6219 307.725 334.6219 306.77188L334.6219 303.19376L333.85626 303.19376L333.85626 302.38126L334.6219 302.38126L334.6219 300.83438L335.66876 300.20938L335.66876 302.38126L336.73126 302.38126L336.73126 303.19376L335.66876 303.19376L335.66876 306.83438Q335.66876 307.2875 335.71564 307.4125Q335.77814 307.5375 335.90314 307.61563Q336.02814 307.69376 336.2625 307.69376Q336.45 307.69376 336.73126 307.6625ZM340.1375 306.35L341.2469 306.25626Q341.3719 307.06876 341.8094 307.475Q342.2625 307.88126 342.90314 307.88126Q343.65314 307.88126 344.1844 307.30313Q344.71564 306.725 344.71564 305.7875Q344.71564 304.88126 344.2 304.36563Q343.7 303.83438 342.8719 303.83438Q342.3719 303.83438 341.95 304.06876Q341.54376 304.30313 341.3094 304.6625L340.325 304.5375L341.15314 300.13126L345.4344 300.13126L345.4344 301.13126L341.9969 301.13126L341.54376 303.44376Q342.3094 302.89688 343.15314 302.89688Q344.27814 302.89688 345.04376 303.67813Q345.825 304.45938 345.825 305.69376Q345.825 306.85 345.15314 307.70938Q344.325 308.74063 342.90314 308.74063Q341.73126 308.74063 340.98126 308.08438Q340.2469 307.42813 340.1375 306.35Z" fill-rule="nonzero"/><path fill="#000000" d="M359.45938 305.83438L360.52188 305.74063Q360.6 306.39688 360.88126 306.80313Q361.1625 307.20938 361.74063 307.475Q362.33438 307.725 363.06876 307.725Q363.70938 307.725 364.20938 307.5375Q364.70938 307.33438 364.94376 307.00626Q365.19376 306.6625 365.19376 306.27188Q365.19376 305.86563 364.95938 305.56876Q364.725 305.25626 364.19376 305.05313Q363.83438 304.9125 362.64688 304.63126Q361.475 304.35 361.00626 304.1Q360.38126 303.77188 360.08438 303.30313Q359.7875 302.81876 359.7875 302.225Q359.7875 301.58438 360.14688 301.02188Q360.52188 300.44376 361.225 300.1625Q361.94376 299.86563 362.80313 299.86563Q363.75626 299.86563 364.49063 300.17813Q365.225 300.475 365.61563 301.08438Q366.00626 301.67813 366.0375 302.42813L364.94376 302.50626Q364.85 301.69376 364.33438 301.2875Q363.83438 300.86563 362.85 300.86563Q361.81876 300.86563 361.35 301.24063Q360.88126 301.61563 360.88126 302.14688Q360.88126 302.61563 361.20938 302.9125Q361.5375 303.20938 362.9125 303.52188Q364.30313 303.83438 364.81876 304.06876Q365.56876 304.42813 365.92813 304.95938Q366.2875 305.475 366.2875 306.17813Q366.2875 306.86563 365.89688 307.475Q365.50626 308.06876 364.77188 308.4125Q364.0375 308.74063 363.11563 308.74063Q361.94376 308.74063 361.14688 308.4125Q360.36563 308.06876 359.9125 307.38126Q359.475 306.69376 359.45938 305.83438ZM367.70938 310.99063L367.70938 302.38126L368.6625 302.38126L368.6625 303.17813Q369.00626 302.70938 369.42813 302.475Q369.86563 302.24063 370.475 302.24063Q371.27188 302.24063 371.88126 302.64688Q372.49063 303.05313 372.7875 303.80313Q373.1 304.55313 373.1 305.44376Q373.1 306.39688 372.75626 307.1625Q372.42813 307.92813 371.77188 308.33438Q371.11563 308.74063 370.39688 308.74063Q369.86563 308.74063 369.44376 308.52188Q369.02188 308.2875 368.75626 307.95938L368.75626 310.99063L367.70938 310.99063ZM368.6625 305.52188Q368.6625 306.725 369.14688 307.30313Q369.63126 307.86563 370.31876 307.86563Q371.02188 307.86563 371.52188 307.27188Q372.02188 306.67813 372.02188 305.42813Q372.02188 304.24063 371.5375 303.6625Q371.05313 303.06876 370.36563 303.06876Q369.69376 303.06876 369.17813 303.69376Q368.6625 304.31876 368.6625 305.52188ZM374.69376 308.6L374.69376 302.38126L375.64688 302.38126L375.64688 303.31876Q376.00626 302.6625 376.30313 302.45938Q376.61563 302.24063 376.99063 302.24063Q377.52188 302.24063 378.06876 302.56876L377.70938 303.55313Q377.31876 303.31876 376.94376 303.31876Q376.58438 303.31876 376.30313 303.5375Q376.0375 303.74063 375.92813 304.11563Q375.74063 304.67813 375.74063 305.33438L375.74063 308.6L374.69376 308.6ZM378.70938 301.225L378.70938 300.00626L379.77188 300.00626L379.77188 301.225L378.70938 301.225ZM378.70938 308.6L378.70938 302.38126L379.77188 302.38126L379.77188 308.6L378.70938 308.6ZM381.70938 308.6L381.70938 302.38126L382.64688 302.38126L382.64688 303.25626Q383.33438 302.24063 384.63126 302.24063Q385.19376 302.24063 385.6625 302.44376Q386.14688 302.64688 386.38126 302.975Q386.61563 303.30313 386.70938 303.74063Q386.75626 304.0375 386.75626 304.77188L386.75626 308.6L385.70938 308.6L385.70938 304.81876Q385.70938 304.1625 385.58438 303.85Q385.45938 303.5375 385.14688 303.35Q384.83438 303.14688 384.4125 303.14688Q383.74063 303.14688 383.24063 303.58438Q382.75626 304.00626 382.75626 305.19376L382.75626 308.6L381.70938 308.6ZM391.00626 307.6625L391.1625 308.58438Q390.70938 308.67813 390.36563 308.67813Q389.7875 308.67813 389.475 308.50626Q389.1625 308.31876 389.02188 308.02188Q388.89688 307.725 388.89688 306.77188L388.89688 303.19376L388.13126 303.19376L388.13126 302.38126L388.89688 302.38126L388.89688 300.83438L389.94376 300.20938L389.94376 302.38126L391.00626 302.38126L391.00626 303.19376L389.94376 303.19376L389.94376 306.83438Q389.94376 307.2875 389.99063 307.4125Q390.05313 307.5375 390.17813 307.61563Q390.30313 307.69376 390.5375 307.69376Q390.725 307.69376 391.00626 307.6625ZM399.88126 302.11563L398.83438 302.19376Q398.69376 301.56876 398.44376 301.2875Q398.00626 300.83438 397.38126 300.83438Q396.88126 300.83438 396.49063 301.11563Q396.00626 301.49063 395.70938 302.19376Q395.42813 302.88126 395.4125 304.1625Q395.7875 303.58438 396.33438 303.30313Q396.89688 303.02188 397.50626 303.02188Q398.55313 303.02188 399.2875 303.80313Q400.0375 304.58438 400.0375 305.80313Q400.0375 306.61563 399.67813 307.31876Q399.33438 308.00626 398.725 308.38126Q398.11563 308.74063 397.35 308.74063Q396.02188 308.74063 395.19376 307.77188Q394.36563 306.80313 394.36563 304.58438Q394.36563 302.08438 395.2875 300.95938Q396.08438 299.975 397.44376 299.975Q398.45938 299.975 399.1 300.55313Q399.75626 301.11563 399.88126 302.11563ZM395.58438 305.81876Q395.58438 306.36563 395.80313 306.86563Q396.0375 307.35 396.44376 307.61563Q396.86563 307.88126 397.33438 307.88126Q397.99063 307.88126 398.475 307.35Q398.95938 306.80313 398.95938 305.88126Q398.95938 304.99063 398.475 304.475Q398.00626 303.95938 397.2875 303.95938Q396.56876 303.95938 396.06876 304.475Q395.58438 304.99063 395.58438 305.81876Z" fill-rule="nonzero"/><path fill="#000000" d="M413.73438 305.83438L414.79688 305.74063Q414.875 306.39688 415.15625 306.80313Q415.4375 307.20938 416.01562 307.475Q416.60938 307.725 417.34375 307.725Q417.98438 307.725 418.48438 307.5375Q418.98438 307.33438 419.21875 307.00626Q419.46875 306.6625 419.46875 306.27188Q419.46875 305.86563 419.23438 305.56876Q419.0 305.25626 418.46875 305.05313Q418.10938 304.9125 416.92188 304.63126Q415.75 304.35 415.28125 304.1Q414.65625 303.77188 414.35938 303.30313Q414.0625 302.81876 414.0625 302.225Q414.0625 301.58438 414.42188 301.02188Q414.79688 300.44376 415.5 300.1625Q416.21875 299.86563 417.07812 299.86563Q418.03125 299.86563 418.76562 300.17813Q419.5 300.475 419.89062 301.08438Q420.28125 301.67813 420.3125 302.42813L419.21875 302.50626Q419.125 301.69376 418.60938 301.2875Q418.10938 300.86563 417.125 300.86563Q416.09375 300.86563 415.625 301.24063Q415.15625 301.61563 415.15625 302.14688Q415.15625 302.61563 415.48438 302.9125Q415.8125 303.20938 417.1875 303.52188Q418.57812 303.83438 419.09375 304.06876Q419.84375 304.42813 420.20312 304.95938Q420.5625 305.475 420.5625 306.17813Q420.5625 306.86563 420.17188 307.475Q419.78125 308.06876 419.04688 308.4125Q418.3125 308.74063 417.39062 308.74063Q416.21875 308.74063 415.42188 308.4125Q414.64062 308.06876 414.1875 307.38126Q413.75 306.69376 413.73438 305.83438ZM421.98438 310.99063L421.98438 302.38126L422.9375 302.38126L422.9375 303.17813Q423.28125 302.70938 423.70312 302.475Q424.14062 302.24063 424.75 302.24063Q425.54688 302.24063 426.15625 302.64688Q426.76562 303.05313 427.0625 303.80313Q427.375 304.55313 427.375 305.44376Q427.375 306.39688 427.03125 307.1625Q426.70312 307.92813 426.04688 308.33438Q425.39062 308.74063 424.67188 308.74063Q424.14062 308.74063 423.71875 308.52188Q423.29688 308.2875 423.03125 307.95938L423.03125 310.99063L421.98438 310.99063ZM422.9375 305.52188Q422.9375 306.725 423.42188 307.30313Q423.90625 307.86563 424.59375 307.86563Q425.29688 307.86563 425.79688 307.27188Q426.29688 306.67813 426.29688 305.42813Q426.29688 304.24063 425.8125 303.6625Q425.32812 303.06876 424.64062 303.06876Q423.96875 303.06876 423.45312 303.69376Q422.9375 304.31876 422.9375 305.52188ZM428.96875 308.6L428.96875 302.38126L429.92188 302.38126L429.92188 303.31876Q430.28125 302.6625 430.57812 302.45938Q430.89062 302.24063 431.26562 302.24063Q431.79688 302.24063 432.34375 302.56876L431.98438 303.55313Q431.59375 303.31876 431.21875 303.31876Q430.85938 303.31876 430.57812 303.5375Q430.3125 303.74063 430.20312 304.11563Q430.01562 304.67813 430.01562 305.33438L430.01562 308.6L428.96875 308.6ZM432.98438 301.225L432.98438 300.00626L434.04688 300.00626L434.04688 301.225L432.98438 301.225ZM432.98438 308.6L432.98438 302.38126L434.04688 302.38126L434.04688 308.6L432.98438 308.6ZM435.98438 308.6L435.98438 302.38126L436.92188 302.38126L436.92188 303.25626Q437.60938 302.24063 438.90625 302.24063Q439.46875 302.24063 439.9375 302.44376Q440.42188 302.64688 440.65625 302.975Q440.89062 303.30313 440.98438 303.74063Q441.03125 304.0375 441.03125 304.77188L441.03125 308.6L439.98438 308.6L439.98438 304.81876Q439.98438 304.1625 439.85938 303.85Q439.73438 303.5375 439.42188 303.35Q439.10938 303.14688 438.6875 303.14688Q438.01562 303.14688 437.51562 303.58438Q437.03125 304.00626 437.03125 305.19376L437.03125 308.6L435.98438 308.6ZM445.28125 307.6625L445.4375 308.58438Q444.98438 308.67813 444.64062 308.67813Q444.0625 308.67813 443.75 308.50626Q443.4375 308.31876 443.29688 308.02188Q443.17188 307.725 443.17188 306.77188L443.17188 303.19376L442.40625 303.19376L442.40625 302.38126L443.17188 302.38126L443.17188 300.83438L444.21875 300.20938L444.21875 302.38126L445.28125 302.38126L445.28125 303.19376L444.21875 303.19376L444.21875 306.83438Q444.21875 307.2875 444.26562 307.4125Q444.32812 307.5375 444.45312 307.61563Q444.57812 307.69376 444.8125 307.69376Q445.0 307.69376 445.28125 307.6625ZM448.75 301.13126L448.75 300.11563L454.3125 300.11563L454.3125 300.94376Q453.5 301.81876 452.6875 303.27188Q451.89062 304.70938 451.45312 306.24063Q451.125 307.31876 451.04688 308.6L449.95312 308.6Q449.96875 307.58438 450.34375 306.14688Q450.73438 304.70938 451.4375 303.38126Q452.15625 302.05313 452.96875 301.13126L448.75 301.13126Z" fill-rule="nonzero"/><path fill="#000000" d="M468.00937 305.83438L469.07187 305.74063Q469.15 306.39688 469.43124 306.80313Q469.7125 307.20938 470.29062 307.475Q470.88437 307.725 471.61874 307.725Q472.25937 307.725 472.75937 307.5375Q473.25937 307.33438 473.49374 307.00626Q473.74374 306.6625 473.74374 306.27188Q473.74374 305.86563 473.50937 305.56876Q473.275 305.25626 472.74374 305.05313Q472.38437 304.9125 471.19687 304.63126Q470.025 304.35 469.55624 304.1Q468.93124 303.77188 468.63437 303.30313Q468.3375 302.81876 468.3375 302.225Q468.3375 301.58438 468.69687 301.02188Q469.07187 300.44376 469.775 300.1625Q470.49374 299.86563 471.35312 299.86563Q472.30624 299.86563 473.04062 300.17813Q473.775 300.475 474.16562 301.08438Q474.55624 301.67813 474.5875 302.42813L473.49374 302.50626Q473.4 301.69376 472.88437 301.2875Q472.38437 300.86563 471.4 300.86563Q470.36874 300.86563 469.9 301.24063Q469.43124 301.61563 469.43124 302.14688Q469.43124 302.61563 469.75937 302.9125Q470.0875 303.20938 471.4625 303.52188Q472.85312 303.83438 473.36874 304.06876Q474.11874 304.42813 474.47812 304.95938Q474.8375 305.475 474.8375 306.17813Q474.8375 306.86563 474.44687 307.475Q474.05624 308.06876 473.32187 308.4125Q472.5875 308.74063 471.66562 308.74063Q470.49374 308.74063 469.69687 308.4125Q468.91562 308.06876 468.4625 307.38126Q468.025 306.69376 468.00937 305.83438ZM476.25937 310.99063L476.25937 302.38126L477.2125 302.38126L477.2125 303.17813Q477.55624 302.70938 477.97812 302.475Q478.41562 302.24063 479.025 302.24063Q479.82187 302.24063 480.43124 302.64688Q481.04062 303.05313 481.3375 303.80313Q481.65 304.55313 481.65 305.44376Q481.65 306.39688 481.30624 307.1625Q480.97812 307.92813 480.32187 308.33438Q479.66562 308.74063 478.94687 308.74063Q478.41562 308.74063 477.99374 308.52188Q477.57187 308.2875 477.30624 307.95938L477.30624 310.99063L476.25937 310.99063ZM477.2125 305.52188Q477.2125 306.725 477.69687 307.30313Q478.18124 307.86563 478.86874 307.86563Q479.57187 307.86563 480.07187 307.27188Q480.57187 306.67813 480.57187 305.42813Q480.57187 304.24063 480.0875 303.6625Q479.60312 303.06876 478.91562 303.06876Q478.24374 303.06876 477.72812 303.69376Q477.2125 304.31876 477.2125 305.52188ZM483.24374 308.6L483.24374 302.38126L484.19687 302.38126L484.19687 303.31876Q484.55624 302.6625 484.85312 302.45938Q485.16562 302.24063 485.54062 302.24063Q486.07187 302.24063 486.61874 302.56876L486.25937 303.55313Q485.86874 303.31876 485.49374 303.31876Q485.13437 303.31876 484.85312 303.5375Q484.5875 303.74063 484.47812 304.11563Q484.29062 304.67813 484.29062 305.33438L484.29062 308.6L483.24374 308.6ZM487.25937 301.225L487.25937 300.00626L488.32187 300.00626L488.32187 301.225L487.25937 301.225ZM487.25937 308.6L487.25937 302.38126L488.32187 302.38126L488.32187 308.6L487.25937 308.6ZM490.25937 308.6L490.25937 302.38126L491.19687 302.38126L491.19687 303.25626Q491.88437 302.24063 493.18124 302.24063Q493.74374 302.24063 494.2125 302.44376Q494.69687 302.64688 494.93124 302.975Q495.16562 303.30313 495.25937 303.74063Q495.30624 304.0375 495.30624 304.77188L495.30624 308.6L494.25937 308.6L494.25937 304.81876Q494.25937 304.1625 494.13437 303.85Q494.00937 303.5375 493.69687 303.35Q493.38437 303.14688 492.9625 303.14688Q492.29062 303.14688 491.79062 303.58438Q491.30624 304.00626 491.30624 305.19376L491.30624 308.6L490.25937 308.6ZM499.55624 307.6625L499.7125 308.58438Q499.25937 308.67813 498.91562 308.67813Q498.3375 308.67813 498.025 308.50626Q497.7125 308.31876 497.57187 308.02188Q497.44687 307.725 497.44687 306.77188L497.44687 303.19376L496.68124 303.19376L496.68124 302.38126L497.44687 302.38126L497.44687 300.83438L498.49374 300.20938L498.49374 302.38126L499.55624 302.38126L499.55624 303.19376L498.49374 303.19376L498.49374 306.83438Q498.49374 307.2875 498.54062 307.4125Q498.60312 307.5375 498.72812 307.61563Q498.85312 307.69376 499.0875 307.69376Q499.275 307.69376 499.55624 307.6625ZM504.5875 303.94376Q503.93124 303.69376 503.60312 303.25626Q503.29062 302.80313 503.29062 302.19376Q503.29062 301.25626 503.9625 300.61563Q504.65 299.975 505.75937 299.975Q506.88437 299.975 507.57187 300.63126Q508.25937 301.2875 508.25937 302.225Q508.25937 302.81876 507.94687 303.25626Q507.63437 303.69376 506.99374 303.94376Q507.79062 304.19376 508.19687 304.77188Q508.60312 305.35 508.60312 306.14688Q508.60312 307.24063 507.82187 307.99063Q507.05624 308.74063 505.775 308.74063Q504.50937 308.74063 503.72812 307.99063Q502.94687 307.24063 502.94687 306.11563Q502.94687 305.27188 503.36874 304.70938Q503.80624 304.14688 504.5875 303.94376ZM504.36874 302.14688Q504.36874 302.75626 504.75937 303.14688Q505.16562 303.5375 505.79062 303.5375Q506.4 303.5375 506.79062 303.1625Q507.18124 302.77188 507.18124 302.20938Q507.18124 301.63126 506.775 301.24063Q506.36874 300.83438 505.775 300.83438Q505.16562 300.83438 504.75937 301.225Q504.36874 301.61563 504.36874 302.14688ZM504.04062 306.11563Q504.04062 306.56876 504.24374 306.99063Q504.4625 307.4125 504.88437 307.64688Q505.30624 307.88126 505.79062 307.88126Q506.54062 307.88126 507.025 307.39688Q507.525 306.9125 507.525 306.1625Q507.525 305.39688 507.025 304.89688Q506.525 304.39688 505.75937 304.39688Q505.00937 304.39688 504.525 304.89688Q504.04062 305.38126 504.04062 306.11563Z" fill-rule="nonzero"/><path fill="#4285f4" d="M137.5 23.4C137.5 26.713709 134.8137 29.4 131.5 29.4C128.1863 29.4 125.5 26.713709 125.5 23.4C125.5 20.086292 128.1863 17.4 131.5 17.4C134.8137 17.4 137.5 20.086292 137.5 23.4Z" fill-rule="nonzero"/><path fill="#1a1a1a" d="M146.4375 27.4L146.4375 18.80625L150.25 18.80625Q151.40625 18.80625 152.0 19.040625Q152.59375 19.275 152.95312 19.86875Q153.3125 20.446875 153.3125 21.15Q153.3125 22.071875 152.71875 22.696875Q152.125 23.321875 150.89062 23.49375Q151.34375 23.7125 151.57812 23.915625Q152.07812 24.36875 152.51562 25.05625L154.01562 27.4L152.57812 27.4L151.45312 25.61875Q150.95312 24.8375 150.625 24.43125Q150.3125 24.025 150.04688 23.86875Q149.79688 23.696875 149.53125 23.61875Q149.34375 23.5875 148.90625 23.5875L147.57812 23.5875L147.57812 27.4L146.4375 27.4ZM147.57812 22.603125L150.03125 22.603125Q150.79688 22.603125 151.23438 22.446875Q151.6875 22.275 151.90625 21.93125Q152.14062 21.571875 152.14062 21.15Q152.14062 20.540625 151.6875 20.15Q151.25 19.759375 150.29688 19.759375L147.57812 19.759375L147.57812 22.603125ZM155.04688 24.634375L156.10938 24.540625Q156.1875 25.196875 156.46875 25.603125Q156.75 26.009375 157.32812 26.275Q157.92188 26.525 158.65625 26.525Q159.29688 26.525 159.79688 26.3375Q160.29688 26.134375 160.53125 25.80625Q160.78125 25.4625 160.78125 25.071875Q160.78125 24.665625 160.54688 24.36875Q160.3125 24.05625 159.78125 23.853125Q159.42188 23.7125 158.23438 23.43125Q157.0625 23.15 156.59375 22.9Q155.96875 22.571875 155.67188 22.103125Q155.375 21.61875 155.375 21.025Q155.375 20.384375 155.73438 19.821875Q156.10938 19.24375 156.8125 18.9625Q157.53125 18.665625 158.39062 18.665625Q159.34375 18.665625 160.07812 18.978125Q160.8125 19.275 161.20312 19.884375Q161.59375 20.478125 161.625 21.228125L160.53125 21.30625Q160.4375 20.49375 159.92188 20.0875Q159.42188 19.665625 158.4375 19.665625Q157.40625 19.665625 156.9375 20.040625Q156.46875 20.415625 156.46875 20.946875Q156.46875 21.415625 156.79688 21.7125Q157.125 22.009375 158.5 22.321875Q159.89062 22.634375 160.40625 22.86875Q161.15625 23.228125 161.51562 23.759375Q161.875 24.275 161.875 24.978125Q161.875 25.665625 161.48438 26.275Q161.09375 26.86875 160.35938 27.2125Q159.625 27.540625 158.70312 27.540625Q157.53125 27.540625 156.73438 27.2125Q155.95312 26.86875 155.5 26.18125Q155.0625 25.49375 155.04688 24.634375ZM163.625 27.4L163.625 18.80625L164.75 18.80625L164.75 27.4L163.625 27.4Z" fill-rule="nonzero"/><path fill="#ea4335" d="M193.5 23.4C193.5 26.713709 190.8137 29.4 187.5 29.4C184.1863 29.4 181.5 26.713709 181.5 23.4C181.5 20.086292 184.1863 17.4 187.5 17.4C190.8137 17.4 193.5 20.086292 193.5 23.4Z" fill-rule="nonzero"/><path fill="#1a1a1a" d="M204.875 27.4L201.54688 18.80625L202.78125 18.80625L205.01562 25.05625Q205.28125 25.80625 205.46875 26.4625Q205.67188 25.759375 205.9375 25.05625L208.25 18.80625L209.40625 18.80625L206.04688 27.4L204.875 27.4ZM213.35938 26.634375Q212.76562 27.134375 212.21875 27.3375Q211.6875 27.540625 211.0625 27.540625Q210.03125 27.540625 209.48438 27.040625Q208.9375 26.540625 208.9375 25.759375Q208.9375 25.30625 209.14062 24.93125Q209.34375 24.540625 209.6875 24.321875Q210.03125 24.0875 210.45312 23.978125Q210.75 23.884375 211.39062 23.80625Q212.65625 23.665625 213.26562 23.446875Q213.26562 23.228125 213.26562 23.18125Q213.26562 22.525 212.96875 22.259375Q212.5625 21.915625 211.76562 21.915625Q211.03125 21.915625 210.67188 22.18125Q210.3125 22.43125 210.14062 23.0875L209.10938 22.946875Q209.25 22.290625 209.57812 21.884375Q209.90625 21.478125 210.51562 21.259375Q211.125 21.040625 211.92188 21.040625Q212.71875 21.040625 213.21875 21.228125Q213.71875 21.415625 213.95312 21.696875Q214.1875 21.978125 214.28125 22.415625Q214.32812 22.68125 214.32812 23.384375L214.32812 24.790625Q214.32812 26.259375 214.39062 26.65Q214.46875 27.040625 214.67188 27.4L213.5625 27.4Q213.40625 27.071875 213.35938 26.634375ZM213.26562 24.275Q212.6875 24.509375 211.54688 24.68125Q210.89062 24.775 210.625 24.9Q210.35938 25.009375 210.20312 25.228125Q210.0625 25.446875 210.0625 25.728125Q210.0625 26.15 210.375 26.43125Q210.70312 26.7125 211.3125 26.7125Q211.92188 26.7125 212.39062 26.446875Q212.875 26.18125 213.09375 25.7125Q213.26562 25.353125 213.26562 24.665625L213.26562 24.275ZM216.26562 27.4L216.26562 18.80625L217.32812 18.80625L217.32812 27.4L216.26562 27.4ZM218.90625 24.290625Q218.90625 22.55625 219.85938 21.728125Q220.65625 21.040625 221.8125 21.040625Q223.09375 21.040625 223.90625 21.884375Q224.73438 22.7125 224.73438 24.196875Q224.73438 25.4 224.375 26.0875Q224.01562 26.775 223.3125 27.165625Q222.625 27.540625 221.8125 27.540625Q220.51562 27.540625 219.70312 26.7125Q218.90625 25.86875 218.90625 24.290625ZM219.98438 24.290625Q219.98438 25.478125 220.5 26.071875Q221.03125 26.665625 221.8125 26.665625Q222.60938 26.665625 223.125 26.071875Q223.64062 25.478125 223.64062 24.259375Q223.64062 23.103125 223.10938 22.509375Q222.59375 21.915625 221.8125 21.915625Q221.03125 21.915625 220.5 22.509375Q219.98438 23.0875 219.98438 24.290625ZM226.28125 27.4L226.28125 21.18125L227.23438 21.18125L227.23438 22.11875Q227.59375 21.4625 227.89062 21.259375Q228.20312 21.040625 228.57812 21.040625Q229.10938 21.040625 229.65625 21.36875L229.29688 22.353125Q228.90625 22.11875 228.53125 22.11875Q228.17188 22.11875 227.89062 22.3375Q227.625 22.540625 227.51562 22.915625Q227.32812 23.478125 227.32812 24.134375L227.32812 27.4L226.28125 27.4ZM234.54688 25.4L235.64062 25.525Q235.39062 26.478125 234.6875 27.009375Q233.98438 27.540625 232.90625 27.540625Q231.54688 27.540625 230.73438 26.696875Q229.9375 25.853125 229.9375 24.3375Q229.9375 22.775 230.75 21.915625Q231.5625 21.040625 232.84375 21.040625Q234.09375 21.040625 234.875 21.884375Q235.67188 22.728125 235.67188 24.275Q235.67188 24.36875 235.67188 24.55625L231.03125 24.55625Q231.09375 25.5875 231.60938 26.134375Q232.125 26.665625 232.90625 26.665625Q233.48438 26.665625 233.89062 26.36875Q234.3125 26.05625 234.54688 25.4ZM231.09375 23.696875L234.5625 23.696875Q234.5 22.9 234.17188 22.509375Q233.65625 21.9 232.85938 21.9Q232.125 21.9 231.625 22.384375Q231.14062 22.86875 231.09375 23.696875ZM239.90625 24.290625Q239.90625 22.55625 240.85938 21.728125Q241.65625 21.040625 242.8125 21.040625Q244.09375 21.040625 244.90625 21.884375Q245.73438 22.7125 245.73438 24.196875Q245.73438 25.4 245.375 26.0875Q245.01562 26.775 244.3125 27.165625Q243.625 27.540625 242.8125 27.540625Q241.51562 27.540625 240.70312 26.7125Q239.90625 25.86875 239.90625 24.290625ZM240.98438 24.290625Q240.98438 25.478125 241.5 26.071875Q242.03125 26.665625 242.8125 26.665625Q243.60938 26.665625 244.125 26.071875Q244.64062 25.478125 244.64062 24.259375Q244.64062 23.103125 244.10938 22.509375Q243.59375 21.915625 242.8125 21.915625Q242.03125 21.915625 241.5 22.509375Q240.98438 23.0875 240.98438 24.290625ZM249.59375 26.4625L249.75 27.384375Q249.29688 27.478125 248.95312 27.478125Q248.375 27.478125 248.0625 27.30625Q247.75 27.11875 247.60938 26.821875Q247.48438 26.525 247.48438 25.571875L247.48438 21.99375L246.71875 21.99375L246.71875 21.18125L247.48438 21.18125L247.48438 19.634375L248.53125 19.009375L248.53125 21.18125L249.59375 21.18125L249.59375 21.99375L248.53125 21.99375L248.53125 25.634375Q248.53125 26.0875 248.57812 26.2125Q248.64062 26.3375 248.76562 26.415625Q248.89062 26.49375 249.125 26.49375Q249.3125 26.49375 249.59375 26.4625ZM252.59375 26.4625L252.75 27.384375Q252.29688 27.478125 251.95312 27.478125Q251.375 27.478125 251.0625 27.30625Q250.75 27.11875 250.60938 26.821875Q250.48438 26.525 250.48438 25.571875L250.48438 21.99375L249.71875 21.99375L249.71875 21.18125L250.48438 21.18125L250.48438 19.634375L251.53125 19.009375L251.53125 21.18125L252.59375 21.18125L252.59375 21.99375L251.53125 21.99375L251.53125 25.634375Q251.53125 26.0875 251.57812 26.2125Q251.64062 26.3375 251.76562 26.415625Q251.89062 26.49375 252.125 26.49375Q252.3125 26.49375 252.59375 26.4625ZM253.29688 20.025L253.29688 18.80625L254.35938 18.80625L254.35938 20.025L253.29688 20.025ZM253.29688 27.4L253.29688 21.18125L254.35938 21.18125L254.35938 27.4L253.29688 27.4ZM256.29688 27.4L256.29688 21.18125L257.23438 21.18125L257.23438 22.05625Q257.53125 21.5875 258.01562 21.321875Q258.5 21.040625 259.125 21.040625Q259.8125 21.040625 260.25 21.321875Q260.70312 21.603125 260.875 22.11875Q261.625 21.040625 262.79688 21.040625Q263.73438 21.040625 264.21875 21.55625Q264.71875 22.05625 264.71875 23.134375L264.71875 27.4L263.67188 27.4L263.67188 23.478125Q263.67188 22.853125 263.5625 22.571875Q263.46875 22.290625 263.20312 22.11875Q262.9375 21.946875 262.5625 21.946875Q261.90625 21.946875 261.46875 22.384375Q261.04688 22.821875 261.04688 23.790625L261.04688 27.4L259.98438 27.4L259.98438 23.353125Q259.98438 22.65 259.71875 22.30625Q259.46875 21.946875 258.89062 21.946875Q258.4375 21.946875 258.0625 22.18125Q257.6875 22.415625 257.51562 22.86875Q257.34375 23.321875 257.34375 24.165625L257.34375 27.4L256.29688 27.4ZM266.90625 24.290625Q266.90625 22.55625 267.85938 21.728125Q268.65625 21.040625 269.8125 21.040625Q271.09375 21.040625 271.90625 21.884375Q272.73438 22.7125 272.73438 24.196875Q272.73438 25.4 272.375 26.0875Q272.01562 26.775 271.3125 27.165625Q270.625 27.540625 269.8125 27.540625Q268.51562 27.540625 267.70312 26.7125Q266.90625 25.86875 266.90625 24.290625ZM267.98438 24.290625Q267.98438 25.478125 268.5 26.071875Q269.03125 26.665625 269.8125 26.665625Q270.60938 26.665625 271.125 26.071875Q271.64062 25.478125 271.64062 24.259375Q271.64062 23.103125 271.10938 22.509375Q270.59375 21.915625 269.8125 21.915625Q269.03125 21.915625 268.5 22.509375Q267.98438 23.0875 267.98438 24.290625Z" fill-rule="nonzero"/><path fill="#fbbc04" fill-opacity="0.7019608" d="M301.5 23.4C301.5 26.713709 298.81372 29.4 295.5 29.4C292.18628 29.4 289.5 26.713709 289.5 23.4C289.5 20.086292 292.18628 17.4 295.5 17.4C298.81372 17.4 301.5 20.086292 301.5 23.4Z" fill-rule="nonzero"/><path fill="#1a1a1a" d="M312.875 27.4L309.54688 18.80625L310.78125 18.80625L313.01562 25.05625Q313.28125 25.80625 313.46875 26.4625Q313.67188 25.759375 313.9375 25.05625L316.25 18.80625L317.40625 18.80625L314.04688 27.4L312.875 27.4ZM321.35938 26.634375Q320.76562 27.134375 320.21875 27.3375Q319.6875 27.540625 319.0625 27.540625Q318.03125 27.540625 317.48438 27.040625Q316.9375 26.540625 316.9375 25.759375Q316.9375 25.30625 317.14062 24.93125Q317.34375 24.540625 317.6875 24.321875Q318.03125 24.0875 318.45312 23.978125Q318.75 23.884375 319.39062 23.80625Q320.65625 23.665625 321.26562 23.446875Q321.26562 23.228125 321.26562 23.18125Q321.26562 22.525 320.96875 22.259375Q320.5625 21.915625 319.76562 21.915625Q319.03125 21.915625 318.67188 22.18125Q318.3125 22.43125 318.14062 23.0875L317.10938 22.946875Q317.25 22.290625 317.57812 21.884375Q317.90625 21.478125 318.51562 21.259375Q319.125 21.040625 319.92188 21.040625Q320.71875 21.040625 321.21875 21.228125Q321.71875 21.415625 321.95312 21.696875Q322.1875 21.978125 322.28125 22.415625Q322.32812 22.68125 322.32812 23.384375L322.32812 24.790625Q322.32812 26.259375 322.39062 26.65Q322.46875 27.040625 322.67188 27.4L321.5625 27.4Q321.40625 27.071875 321.35938 26.634375ZM321.26562 24.275Q320.6875 24.509375 319.54688 24.68125Q318.89062 24.775 318.625 24.9Q318.35938 25.009375 318.20312 25.228125Q318.0625 25.446875 318.0625 25.728125Q318.0625 26.15 318.375 26.43125Q318.70312 26.7125 319.3125 26.7125Q319.92188 26.7125 320.39062 26.446875Q320.875 26.18125 321.09375 25.7125Q321.26562 25.353125 321.26562 24.665625L321.26562 24.275ZM324.26562 27.4L324.26562 18.80625L325.32812 18.80625L325.32812 27.4L324.26562 27.4ZM326.90625 24.290625Q326.90625 22.55625 327.85938 21.728125Q328.65625 21.040625 329.8125 21.040625Q331.09375 21.040625 331.90625 21.884375Q332.73438 22.7125 332.73438 24.196875Q332.73438 25.4 332.375 26.0875Q332.01562 26.775 331.3125 27.165625Q330.625 27.540625 329.8125 27.540625Q328.51562 27.540625 327.70312 26.7125Q326.90625 25.86875 326.90625 24.290625ZM327.98438 24.290625Q327.98438 25.478125 328.5 26.071875Q329.03125 26.665625 329.8125 26.665625Q330.60938 26.665625 331.125 26.071875Q331.64062 25.478125 331.64062 24.259375Q331.64062 23.103125 331.10938 22.509375Q330.59375 21.915625 329.8125 21.915625Q329.03125 21.915625 328.5 22.509375Q327.98438 23.0875 327.98438 24.290625ZM334.28125 27.4L334.28125 21.18125L335.23438 21.18125L335.23438 22.11875Q335.59375 21.4625 335.89062 21.259375Q336.20312 21.040625 336.57812 21.040625Q337.10938 21.040625 337.65625 21.36875L337.29688 22.353125Q336.90625 22.11875 336.53125 22.11875Q336.17188 22.11875 335.89062 22.3375Q335.625 22.540625 335.51562 22.915625Q335.32812 23.478125 335.32812 24.134375L335.32812 27.4L334.28125 27.4ZM342.54688 25.4L343.64062 25.525Q343.39062 26.478125 342.6875 27.009375Q341.98438 27.540625 340.90625 27.540625Q339.54688 27.540625 338.73438 26.696875Q337.9375 25.853125 337.9375 24.3375Q337.9375 22.775 338.75 21.915625Q339.5625 21.040625 340.84375 21.040625Q342.09375 21.040625 342.875 21.884375Q343.67188 22.728125 343.67188 24.275Q343.67188 24.36875 343.67188 24.55625L339.03125 24.55625Q339.09375 25.5875 339.60938 26.134375Q340.125 26.665625 340.90625 26.665625Q341.48438 26.665625 341.89062 26.36875Q342.3125 26.05625 342.54688 25.4ZM339.09375 23.696875L342.5625 23.696875Q342.5 22.9 342.17188 22.509375Q341.65625 21.9 340.85938 21.9Q340.125 21.9 339.625 22.384375Q339.14062 22.86875 339.09375 23.696875ZM352.35938 26.634375Q351.76562 27.134375 351.21875 27.3375Q350.6875 27.540625 350.0625 27.540625Q349.03125 27.540625 348.48438 27.040625Q347.9375 26.540625 347.9375 25.759375Q347.9375 25.30625 348.14062 24.93125Q348.34375 24.540625 348.6875 24.321875Q349.03125 24.0875 349.45312 23.978125Q349.75 23.884375 350.39062 23.80625Q351.65625 23.665625 352.26562 23.446875Q352.26562 23.228125 352.26562 23.18125Q352.26562 22.525 351.96875 22.259375Q351.5625 21.915625 350.76562 21.915625Q350.03125 21.915625 349.67188 22.18125Q349.3125 22.43125 349.14062 23.0875L348.10938 22.946875Q348.25 22.290625 348.57812 21.884375Q348.90625 21.478125 349.51562 21.259375Q350.125 21.040625 350.92188 21.040625Q351.71875 21.040625 352.21875 21.228125Q352.71875 21.415625 352.95312 21.696875Q353.1875 21.978125 353.28125 22.415625Q353.32812 22.68125 353.32812 23.384375L353.32812 24.790625Q353.32812 26.259375 353.39062 26.65Q353.46875 27.040625 353.67188 27.4L352.5625 27.4Q352.40625 27.071875 352.35938 26.634375ZM352.26562 24.275Q351.6875 24.509375 350.54688 24.68125Q349.89062 24.775 349.625 24.9Q349.35938 25.009375 349.20312 25.228125Q349.0625 25.446875 349.0625 25.728125Q349.0625 26.15 349.375 26.43125Q349.70312 26.7125 350.3125 26.7125Q350.92188 26.7125 351.39062 26.446875Q351.875 26.18125 352.09375 25.7125Q352.26562 25.353125 352.26562 24.665625L352.26562 24.275ZM359.35938 25.11875L360.39062 25.259375Q360.21875 26.321875 359.51562 26.93125Q358.8125 27.540625 357.79688 27.540625Q356.51562 27.540625 355.73438 26.7125Q354.96875 25.86875 354.96875 24.30625Q354.96875 23.30625 355.29688 22.55625Q355.64062 21.790625 356.3125 21.415625Q357.0 21.040625 357.8125 21.040625Q358.8125 21.040625 359.45312 21.55625Q360.10938 22.05625 360.29688 23.009375L359.26562 23.165625Q359.125 22.540625 358.75 22.228125Q358.375 21.9 357.84375 21.9Q357.04688 21.9 356.54688 22.478125Q356.04688 23.040625 356.04688 24.275Q356.04688 25.540625 356.53125 26.103125Q357.01562 26.665625 357.78125 26.665625Q358.40625 26.665625 358.8125 26.290625Q359.23438 25.915625 359.35938 25.11875ZM365.35938 25.11875L366.39062 25.259375Q366.21875 26.321875 365.51562 26.93125Q364.8125 27.540625 363.79688 27.540625Q362.51562 27.540625 361.73438 26.7125Q360.96875 25.86875 360.96875 24.30625Q360.96875 23.30625 361.29688 22.55625Q361.64062 21.790625 362.3125 21.415625Q363.0 21.040625 363.8125 21.040625Q364.8125 21.040625 365.45312 21.55625Q366.10938 22.05625 366.29688 23.009375L365.26562 23.165625Q365.125 22.540625 364.75 22.228125Q364.375 21.9 363.84375 21.9Q363.04688 21.9 362.54688 22.478125Q362.04688 23.040625 362.04688 24.275Q362.04688 25.540625 362.53125 26.103125Q363.01562 26.665625 363.78125 26.665625Q364.40625 26.665625 364.8125 26.290625Q365.23438 25.915625 365.35938 25.11875ZM371.54688 25.4L372.64062 25.525Q372.39062 26.478125 371.6875 27.009375Q370.98438 27.540625 369.90625 27.540625Q368.54688 27.540625 367.73438 26.696875Q366.9375 25.853125 366.9375 24.3375Q366.9375 22.775 367.75 21.915625Q368.5625 21.040625 369.84375 21.040625Q371.09375 21.040625 371.875 21.884375Q372.67188 22.728125 372.67188 24.275Q372.67188 24.36875 372.67188 24.55625L368.03125 24.55625Q368.09375 25.5875 368.60938 26.134375Q369.125 26.665625 369.90625 26.665625Q370.48438 26.665625 370.89062 26.36875Q371.3125 26.05625 371.54688 25.4ZM368.09375 23.696875L371.5625 23.696875Q371.5 22.9 371.17188 22.509375Q370.65625 21.9 369.85938 21.9Q369.125 21.9 368.625 22.384375Q368.14062 22.86875 368.09375 23.696875ZM376.59375 26.4625L376.75 27.384375Q376.29688 27.478125 375.95312 27.478125Q375.375 27.478125 375.0625 27.30625Q374.75 27.11875 374.60938 26.821875Q374.48438 26.525 374.48438 25.571875L374.48438 21.99375L373.71875 21.99375L373.71875 21.18125L374.48438 21.18125L374.48438 19.634375L375.53125 19.009375L375.53125 21.18125L376.59375 21.18125L376.59375 21.99375L375.53125 21.99375L375.53125 25.634375Q375.53125 26.0875 375.57812 26.2125Q375.64062 26.3375 375.76562 26.415625Q375.89062 26.49375 376.125 26.49375Q376.3125 26.49375 376.59375 26.4625ZM379.59375 26.4625L379.75 27.384375Q379.29688 27.478125 378.95312 27.478125Q378.375 27.478125 378.0625 27.30625Q377.75 27.11875 377.60938 26.821875Q377.48438 26.525 377.48438 25.571875L377.48438 21.99375L376.71875 21.99375L376.71875 21.18125L377.48438 21.18125L377.48438 19.634375L378.53125 19.009375L378.53125 21.18125L379.59375 21.18125L379.59375 21.99375L378.53125 21.99375L378.53125 25.634375Q378.53125 26.0875 378.57812 26.2125Q378.64062 26.3375 378.76562 26.415625Q378.89062 26.49375 379.125 26.49375Q379.3125 26.49375 379.59375 26.4625ZM384.35938 26.634375Q383.76562 27.134375 383.21875 27.3375Q382.6875 27.540625 382.0625 27.540625Q381.03125 27.540625 380.48438 27.040625Q379.9375 26.540625 379.9375 25.759375Q379.9375 25.30625 380.14062 24.93125Q380.34375 24.540625 380.6875 24.321875Q381.03125 24.0875 381.45312 23.978125Q381.75 23.884375 382.39062 23.80625Q383.65625 23.665625 384.26562 23.446875Q384.26562 23.228125 384.26562 23.18125Q384.26562 22.525 383.96875 22.259375Q383.5625 21.915625 382.76562 21.915625Q382.03125 21.915625 381.67188 22.18125Q381.3125 22.43125 381.14062 23.0875L380.10938 22.946875Q380.25 22.290625 380.57812 21.884375Q380.90625 21.478125 381.51562 21.259375Q382.125 21.040625 382.92188 21.040625Q383.71875 21.040625 384.21875 21.228125Q384.71875 21.415625 384.95312 21.696875Q385.1875 21.978125 385.28125 22.415625Q385.32812 22.68125 385.32812 23.384375L385.32812 24.790625Q385.32812 26.259375 385.39062 26.65Q385.46875 27.040625 385.67188 27.4L384.5625 27.4Q384.40625 27.071875 384.35938 26.634375ZM384.26562 24.275Q383.6875 24.509375 382.54688 24.68125Q381.89062 24.775 381.625 24.9Q381.35938 25.009375 381.20312 25.228125Q381.0625 25.446875 381.0625 25.728125Q381.0625 26.15 381.375 26.43125Q381.70312 26.7125 382.3125 26.7125Q382.92188 26.7125 383.39062 26.446875Q383.875 26.18125 384.09375 25.7125Q384.26562 25.353125 384.26562 24.665625L384.26562 24.275ZM388.26562 27.4L387.28125 27.4L387.28125 18.80625L388.34375 18.80625L388.34375 21.86875Q389.01562 21.040625 390.04688 21.040625Q390.625 21.040625 391.125 21.275Q391.64062 21.49375 391.96875 21.915625Q392.3125 22.3375 392.5 22.93125Q392.6875 23.525 392.6875 24.196875Q392.6875 25.790625 391.89062 26.665625Q391.09375 27.540625 390.0 27.540625Q388.89062 27.540625 388.26562 26.61875L388.26562 27.4ZM388.25 24.24375Q388.25 25.353125 388.5625 25.853125Q389.0625 26.665625 389.90625 26.665625Q390.59375 26.665625 391.09375 26.071875Q391.60938 25.478125 391.60938 24.275Q391.60938 23.05625 391.125 22.478125Q390.64062 21.9 389.95312 21.9Q389.26562 21.9 388.75 22.509375Q388.25 23.103125 388.25 24.24375ZM394.29688 20.025L394.29688 18.80625L395.35938 18.80625L395.35938 20.025L394.29688 20.025ZM394.29688 27.4L394.29688 21.18125L395.35938 21.18125L395.35938 27.4L394.29688 27.4ZM397.26562 27.4L397.26562 18.80625L398.32812 18.80625L398.32812 27.4L397.26562 27.4ZM404.54688 25.4L405.64062 25.525Q405.39062 26.478125 404.6875 27.009375Q403.98438 27.540625 402.90625 27.540625Q401.54688 27.540625 400.73438 26.696875Q399.9375 25.853125 399.9375 24.3375Q399.9375 22.775 400.75 21.915625Q401.5625 21.040625 402.84375 21.040625Q404.09375 21.040625 404.875 21.884375Q405.67188 22.728125 405.67188 24.275Q405.67188 24.36875 405.67188 24.55625L401.03125 24.55625Q401.09375 25.5875 401.60938 26.134375Q402.125 26.665625 402.90625 26.665625Q403.48438 26.665625 403.89062 26.36875Q404.3125 26.05625 404.54688 25.4ZM401.09375 23.696875L404.5625 23.696875Q404.5 22.9 404.17188 22.509375Q403.65625 21.9 402.85938 21.9Q402.125 21.9 401.625 22.384375Q401.14062 22.86875 401.09375 23.696875Z" fill-rule="nonzero"/></svg>