<svg version="1.1" viewBox="0.0 0.0 532.0 328.0" fill="none" stroke="none" stroke-linecap="square" stroke-miterlimit="10" width="532" height="328" xmlns:xlink="http://www.w3.org/1999/xlink" xmlns="http://www.w3.org/2000/svg"><path fill="#ffffff" d="M0 0L532.0 0L532.0 328.0L0 328.0L0 0Z" fill-rule="nonzero"/><path stroke="#333333" stroke-width="1.0" stroke-linecap="butt" d="M81.5 285.5L515.5 285.5" fill-rule="nonzero"/><path stroke="#cccccc" stroke-width="1.0" stroke-linecap="butt" d="M81.5 261.5L515.5 261.5" fill-rule="nonzero"/><path stroke="#cccccc" stroke-width="1.0" stroke-linecap="butt" d="M81.5 238.5L515.5 238.5" fill-rule="nonzero"/><path stroke="#cccccc" stroke-width="1.0" stroke-linecap="butt" d="M81.5 214.5L515.5 214.5" fill-rule="nonzero"/><path stroke="#cccccc" stroke-width="1.0" stroke-linecap="butt" d="M81.5 190.5L515.5 190.5" fill-rule="nonzero"/><path stroke="#cccccc" stroke-width="1.0" stroke-linecap="butt" d="M81.5 166.5L515.5 166.5" fill-rule="nonzero"/><path stroke="#cccccc" stroke-width="1.0" stroke-linecap="butt" d="M81.5 143.5L515.5 143.5" fill-rule="nonzero"/><path stroke="#cccccc" stroke-width="1.0" stroke-linecap="butt" d="M81.5 119.5L515.5 119.5" fill-rule="nonzero"/><path stroke="#cccccc" stroke-width="1.0" stroke-linecap="butt" d="M81.5 95.5L515.5 95.5" fill-rule="nonzero"/><path stroke="#cccccc" stroke-width="1.0" stroke-linecap="butt" d="M81.5 72.5L515.5 72.5" fill-rule="nonzero"/><path stroke="#cccccc" stroke-width="1.0" stroke-linecap="butt" d="M81.5 48.5L515.5 48.5" fill-rule="nonzero"/><path stroke="#000000" stroke-width="1.0" stroke-linecap="butt" d="M515.5 285.5L81.5 285.5" fill-rule="nonzero"/><path stroke="#000000" stroke-width="1.0" stroke-linecap="butt" d="M81.5 285.5L81.5 48.5" fill-rule="nonzero"/><clipPath id="id_0"><path d="M81.4 48.333332L515.6 48.333332L515.6 285.6L81.4 285.6L81.4 48.333332Z" clip-rule="nonzero"/></clipPath><path stroke="#4285f4" stroke-width="2.0" stroke-linecap="butt" clip-path="url(#id_0)" d="M117.583336 284.41367C117.583336 284.41367 165.82777 316.8831 189.95 284.41367C214.07222 251.94424 238.19444 115.25536 262.31668 89.5971C286.4389 63.93884 310.5611 126.79621 334.68332 130.4641C358.80554 134.13199 382.92776 123.974754 407.05 111.60445C431.1722 99.23413 479.41666 56.24222 479.41666 56.24222" fill-rule="nonzero"/><path stroke="#ea4335" stroke-width="2.0" stroke-linecap="butt" clip-path="url(#id_0)" d="M117.583336 48.333332C117.583336 48.333332 165.82777 48.333332 189.95 48.333332C214.07222 48.333332 238.19444 48.333332 262.31668 48.333332C286.4389 48.333332 310.5611 48.333332 334.68332 48.333332C358.80554 48.333332 382.92776 48.333332 407.05 48.333332C431.1722 48.333332 479.41666 48.333332 479.41666 48.333332" fill-rule="nonzero"/><path stroke="#fbbc04" stroke-width="2.0" stroke-linecap="butt" stroke-opacity="0.7019608" clip-path="url(#id_0)" d="M117.583336 107.65C117.583336 107.65 165.82777 107.65 189.95 107.65C214.07222 107.65 238.19444 107.65 262.31668 107.65C286.4389 107.65 310.5611 107.65 334.68332 107.65C358.80554 107.65 382.92776 107.65 407.05 107.65C431.1722 107.65 479.41666 107.65 479.41666 107.65" fill-rule="nonzero"/><path fill="#4285f4" clip-path="url(#id_0)" d="M121.083336 284.41367C121.083336 286.34665 119.51633 287.91367 117.583336 287.91367C115.65034 287.91367 114.083336 286.34665 114.083336 284.41367C114.083336 282.48068 115.65034 280.91367 117.583336 280.91367C119.51633 280.91367 121.083336 282.48068 121.083336 284.41367Z" fill-rule="nonzero"/><path fill="#4285f4" clip-path="url(#id_0)" d="M193.45 284.41367C193.45 286.34665 191.883 287.91367 189.95 287.91367C188.017 287.91367 186.45 286.34665 186.45 284.41367C186.45 282.48068 188.017 280.91367 189.95 280.91367C191.883 280.91367 193.45 282.48068 193.45 284.41367Z" fill-rule="nonzero"/><path fill="#4285f4" clip-path="url(#id_0)" d="M265.81668 89.5971C265.81668 91.5301 264.24966 93.0971 262.31668 93.0971C260.38367 93.0971 258.81668 91.5301 258.81668 89.5971C258.81668 87.66411 260.38367 86.0971 262.31668 86.0971C264.24966 86.0971 265.81668 87.66411 265.81668 89.5971Z" fill-rule="nonzero"/><path fill="#4285f4" clip-path="url(#id_0)" d="M338.18332 130.4641C338.18332 132.3971 336.61633 133.9641 334.68332 133.9641C332.75034 133.9641 331.18332 132.3971 331.18332 130.4641C331.18332 128.53111 332.75034 126.9641 334.68332 126.9641C336.61633 126.9641 338.18332 128.53111 338.18332 130.4641Z" fill-rule="nonzero"/><path fill="#4285f4" clip-path="url(#id_0)" d="M410.55 111.60445C410.55 113.53744 408.983 115.10445 407.05 115.10445C405.117 115.10445 403.55 113.53744 403.55 111.60445C403.55 109.67145 405.117 108.10445 407.05 108.10445C408.983 108.10445 410.55 109.67145 410.55 111.60445Z" fill-rule="nonzero"/><path fill="#4285f4" clip-path="url(#id_0)" d="M482.91666 56.24222C482.91666 58.17522 481.34967 59.74222 479.41666 59.74222C477.48367 59.74222 475.91666 58.17522 475.91666 56.24222C475.91666 54.309227 477.48367 52.74222 479.41666 52.74222C481.34967 52.74222 482.91666 54.309227 482.91666 56.24222Z" fill-rule="nonzero"/><path fill="#ea4335" clip-path="url(#id_0)" d="M121.083336 48.333332C121.083336 50.26633 119.51633 51.833332 117.583336 51.833332C115.65034 51.833332 114.083336 50.26633 114.083336 48.333332C114.083336 46.400337 115.65034 44.833332 117.583336 44.833332C119.51633 44.833332 121.083336 46.400337 121.083336 48.333332Z" fill-rule="nonzero"/><path fill="#ea4335" clip-path="url(#id_0)" d="M193.45 48.333332C193.45 50.26633 191.883 51.833332 189.95 51.833332C188.017 51.833332 186.45 50.26633 186.45 48.333332C186.45 46.400337 188.017 44.833332 189.95 44.833332C191.883 44.833332 193.45 46.400337 193.45 48.333332Z" fill-rule="nonzero"/><path fill="#ea4335" clip-path="url(#id_0)" d="M265.81668 48.333332C265.81668 50.26633 264.24966 51.833332 262.31668 51.833332C260.38367 51.833332 258.81668 50.26633 258.81668 48.333332C258.81668 46.400337 260.38367 44.833332 262.31668 44.833332C264.24966 44.833332 265.81668 46.400337 265.81668 48.333332Z" fill-rule="nonzero"/><path fill="#ea4335" clip-path="url(#id_0)" d="M338.18332 48.333332C338.18332 50.26633 336.61633 51.833332 334.68332 51.833332C332.75034 51.833332 331.18332 50.26633 331.18332 48.333332C331.18332 46.400337 332.75034 44.833332 334.68332 44.833332C336.61633 44.833332 338.18332 46.400337 338.18332 48.333332Z" fill-rule="nonzero"/><path fill="#ea4335" clip-path="url(#id_0)" d="M410.55 48.333332C410.55 50.26633 408.983 51.833332 407.05 51.833332C405.117 51.833332 403.55 50.26633 403.55 48.333332C403.55 46.400337 405.117 44.833332 407.05 44.833332C408.983 44.833332 410.55 46.400337 410.55 48.333332Z" fill-rule="nonzero"/><path fill="#ea4335" clip-path="url(#id_0)" d="M482.91666 48.333332C482.91666 50.26633 481.34967 51.833332 479.41666 51.833332C477.48367 51.833332 475.91666 50.26633 475.91666 48.333332C475.91666 46.400337 477.48367 44.833332 479.41666 44.833332C481.34967 44.833332 482.91666 46.400337 482.91666 48.333332Z" fill-rule="nonzero"/><path fill="#fbbc04" fill-opacity="0.7019608" clip-path="url(#id_0)" d="M121.083336 107.65C121.083336 109.583 119.51633 111.15 117.583336 111.15C115.65034 111.15 114.083336 109.583 114.083336 107.65C114.083336 105.717 115.65034 104.15 117.583336 104.15C119.51633 104.15 121.083336 105.717 121.083336 107.65Z" fill-rule="nonzero"/><path fill="#fbbc04" fill-opacity="0.7019608" clip-path="url(#id_0)" d="M193.45 107.65C193.45 109.583 191.883 111.15 189.95 111.15C188.017 111.15 186.45 109.583 186.45 107.65C186.45 105.717 188.017 104.15 189.95 104.15C191.883 104.15 193.45 105.717 193.45 107.65Z" fill-rule="nonzero"/><path fill="#fbbc04" fill-opacity="0.7019608" clip-path="url(#id_0)" d="M265.81668 107.65C265.81668 109.583 264.24966 111.15 262.31668 111.15C260.38367 111.15 258.81668 109.583 258.81668 107.65C258.81668 105.717 260.38367 104.15 262.31668 104.15C264.24966 104.15 265.81668 105.717 265.81668 107.65Z" fill-rule="nonzero"/><path fill="#fbbc04" fill-opacity="0.7019608" clip-path="url(#id_0)" d="M338.18332 107.65C338.18332 109.583 336.61633 111.15 334.68332 111.15C332.75034 111.15 331.18332 109.583 331.18332 107.65C331.18332 105.717 332.75034 104.15 334.68332 104.15C336.61633 104.15 338.18332 105.717 338.18332 107.65Z" fill-rule="nonzero"/><path fill="#fbbc04" fill-opacity="0.7019608" clip-path="url(#id_0)" d="M410.55 107.65C410.55 109.583 408.983 111.15 407.05 111.15C405.117 111.15 403.55 109.583 403.55 107.65C403.55 105.717 405.117 104.15 407.05 104.15C408.983 104.15 410.55 105.717 410.55 107.65Z" fill-rule="nonzero"/><path fill="#fbbc04" fill-opacity="0.7019608" clip-path="url(#id_0)" d="M482.91666 107.65C482.91666 109.583 481.34967 111.15 479.41666 111.15C477.48367 111.15 475.91666 109.583 475.91666 107.65C475.91666 105.717 477.48367 104.15 479.41666 104.15C481.34967 104.15 482.91666 105.717 482.91666 107.65Z" fill-rule="nonzero"/><path stroke="#000000" stroke-width="1.0" stroke-linecap="butt" d="M117.5 291.5L117.5 279.5" fill-rule="nonzero"/><path stroke="#000000" stroke-width="1.0" stroke-linecap="butt" d="M189.5 291.5L189.5 279.5" fill-rule="nonzero"/><path stroke="#000000" stroke-width="1.0" stroke-linecap="butt" d="M262.5 291.5L262.5 279.5" fill-rule="nonzero"/><path stroke="#000000" stroke-width="1.0" stroke-linecap="butt" d="M334.5 291.5L334.5 279.5" fill-rule="nonzero"/><path stroke="#000000" stroke-width="1.0" stroke-linecap="butt" d="M407.5 291.5L407.5 279.5" fill-rule="nonzero"/><path stroke="#000000" stroke-width="1.0" stroke-linecap="butt" d="M479.5 291.5L479.5 279.5" fill-rule="nonzero"/><path stroke="#000000" stroke-width="1.0" stroke-linecap="butt" d="M75.5 285.5L87.5 285.5" fill-rule="nonzero"/><path stroke="#000000" stroke-width="1.0" stroke-linecap="butt" d="M75.5 261.5L87.5 261.5" fill-rule="nonzero"/><path stroke="#000000" stroke-width="1.0" stroke-linecap="butt" d="M75.5 238.5L87.5 238.5" fill-rule="nonzero"/><path stroke="#000000" stroke-width="1.0" stroke-linecap="butt" d="M75.5 214.5L87.5 214.5" fill-rule="nonzero"/><path stroke="#000000" stroke-width="1.0" stroke-linecap="butt" d="M75.5 190.5L87.5 190.5" fill-rule="nonzero"/><path stroke="#000000" stroke-width="1.0" stroke-linecap="butt" d="M75.5 166.5L87.5 166.5" fill-rule="nonzero"/><path stroke="#000000" stroke-width="1.0" stroke-linecap="butt" d="M75.5 143.5L87.5 143.5" fill-rule="nonzero"/><path stroke="#000000" stroke-width="1.0" stroke-linecap="butt" d="M75.5 119.5L87.5 119.5" fill-rule="nonzero"/><path stroke="#000000" stroke-width="1.0" stroke-linecap="butt" d="M75.5 95.5L87.5 95.5" fill-rule="nonzero"/><path stroke="#000000" stroke-width="1.0" stroke-linecap="butt" d="M75.5 72.5L87.5 72.5" fill-rule="nonzero"/><path stroke="#000000" stroke-width="1.0" stroke-linecap="butt" d="M75.5 48.5L87.5 48.5" fill-rule="nonzero"/><path fill="#000000" d="M62.9 285.36563Q62.9 283.83438 63.2125 282.9125Q63.525 281.975 64.13438 281.475Q64.75938 280.975 65.69688 280.975Q66.38438 280.975 66.9 281.25626Q67.43125 281.5375 67.775 282.06876Q68.11875 282.58438 68.30625 283.33438Q68.49375 284.08438 68.49375 285.36563Q68.49375 286.88126 68.18125 287.80313Q67.88438 288.725 67.25938 289.24063Q66.65 289.74063 65.69688 289.74063Q64.4625 289.74063 63.74375 288.85Q62.9 287.7875 62.9 285.36563ZM63.978127 285.36563Q63.978127 287.475 64.47813 288.17813Q64.97813 288.88126 65.69688 288.88126Q66.43125 288.88126 66.91563 288.17813Q67.41563 287.475 67.41563 285.36563Q67.41563 283.24063 66.91563 282.55313Q66.43125 281.85 65.68125 281.85Q64.9625 281.85 64.525 282.45938Q63.978127 283.24063 63.978127 285.36563Z" fill-rule="nonzero"/><path fill="#000000" d="M59.86875 265.87332L58.821877 265.87332L58.821877 259.15457Q58.43125 259.51395 57.80625 259.88895Q57.196877 260.24832 56.7125 260.4202L56.7125 259.40457Q57.5875 258.9827 58.24375 258.40457Q58.915627 257.81082 59.196877 257.24832L59.86875 257.24832L59.86875 265.87332ZM62.9 261.63895Q62.9 260.1077 63.2125 259.18582Q63.525 258.24832 64.13438 257.74832Q64.75938 257.24832 65.69688 257.24832Q66.38438 257.24832 66.9 257.52957Q67.43125 257.81082 67.775 258.34207Q68.11875 258.8577 68.30625 259.6077Q68.49375 260.3577 68.49375 261.63895Q68.49375 263.15457 68.18125 264.07645Q67.88438 264.99832 67.25938 265.51395Q66.65 266.01395 65.69688 266.01395Q64.4625 266.01395 63.74375 265.12332Q62.9 264.06082 62.9 261.63895ZM63.978127 261.63895Q63.978127 263.74832 64.47813 264.45145Q64.97813 265.15457 65.69688 265.15457Q66.43125 265.15457 66.91563 264.45145Q67.41563 263.74832 67.41563 261.63895Q67.41563 259.51395 66.91563 258.82645Q66.43125 258.12332 65.68125 258.12332Q64.9625 258.12332 64.525 258.7327Q63.978127 259.51395 63.978127 261.63895Z" fill-rule="nonzero"/><path fill="#000000" d="M61.446877 241.13104L61.446877 242.14667L55.759377 242.14667Q55.759377 241.77167 55.884377 241.4123Q56.103127 240.83417 56.571877 240.27167Q57.05625 239.70917 57.9625 238.9748Q59.36875 237.81854 59.853127 237.14667Q60.353127 236.4748 60.353127 235.88104Q60.353127 235.25604 59.9 234.83417Q59.446877 234.39667 58.728127 234.39667Q57.9625 234.39667 57.509377 234.8498Q57.05625 235.30292 57.040627 236.11542L55.9625 236.00604Q56.071877 234.7873 56.790627 234.1623Q57.525 233.52167 58.759377 233.52167Q59.99375 233.52167 60.7125 234.20917Q61.43125 234.89667 61.43125 235.9123Q61.43125 236.42792 61.2125 236.92792Q61.009377 237.4123 60.509377 237.9748Q60.025 238.52167 58.9 239.4748Q57.946877 240.27167 57.665627 240.56854Q57.4 240.8498 57.228127 241.13104L61.446877 241.13104ZM62.9 237.9123Q62.9 236.38104 63.2125 235.45917Q63.525 234.52167 64.13438 234.02167Q64.75938 233.52167 65.69688 233.52167Q66.38438 233.52167 66.9 233.80292Q67.43125 234.08417 67.775 234.61542Q68.11875 235.13104 68.30625 235.88104Q68.49375 236.63104 68.49375 237.9123Q68.49375 239.42792 68.18125 240.3498Q67.88438 241.27167 67.25938 241.7873Q66.65 242.2873 65.69688 242.2873Q64.4625 242.2873 63.74375 241.39667Q62.9 240.33417 62.9 237.9123ZM63.978127 237.9123Q63.978127 240.02167 64.47813 240.7248Q64.97813 241.42792 65.69688 241.42792Q66.43125 241.42792 66.91563 240.7248Q67.41563 240.02167 67.41563 237.9123Q67.41563 235.7873 66.91563 235.0998Q66.43125 234.39667 65.68125 234.39667Q64.9625 234.39667 64.525 235.00604Q63.978127 235.7873 63.978127 237.9123Z" fill-rule="nonzero"/><path fill="#000000" d="M55.9 216.15437L56.9625 216.01375Q57.134377 216.90437 57.571877 217.31062Q58.009377 217.70125 58.634377 217.70125Q59.384377 217.70125 59.9 217.18562Q60.415627 216.67 60.415627 215.90437Q60.415627 215.18562 59.93125 214.71687Q59.4625 214.2325 58.728127 214.2325Q58.43125 214.2325 57.978127 214.3575L58.103127 213.42Q58.2125 213.43562 58.275 213.43562Q58.946877 213.43562 59.478127 213.09187Q60.025 212.7325 60.025 211.99812Q60.025 211.42 59.634377 211.045Q59.24375 210.65437 58.61875 210.65437Q58.009377 210.65437 57.5875 211.045Q57.18125 211.43562 57.071877 212.20125L56.009377 212.01375Q56.196877 210.96687 56.884377 210.38875Q57.571877 209.795 58.5875 209.795Q59.290627 209.795 59.884377 210.1075Q60.478127 210.40437 60.790627 210.92Q61.103127 211.43562 61.103127 212.02937Q61.103127 212.57625 60.80625 213.045Q60.509377 213.49812 59.93125 213.76375Q60.68125 213.93562 61.103127 214.49812Q61.525 215.045 61.525 215.88875Q61.525 217.01375 60.696877 217.795Q59.884377 218.57625 58.634377 218.57625Q57.509377 218.57625 56.759377 217.90437Q56.009377 217.21687 55.9 216.15437ZM62.9 214.18562Q62.9 212.65437 63.2125 211.7325Q63.525 210.795 64.13438 210.295Q64.75938 209.795 65.69688 209.795Q66.38438 209.795 66.9 210.07625Q67.43125 210.3575 67.775 210.88875Q68.11875 211.40437 68.30625 212.15437Q68.49375 212.90437 68.49375 214.18562Q68.49375 215.70125 68.18125 216.62312Q67.88438 217.545 67.25938 218.06062Q66.65 218.56062 65.69688 218.56062Q64.4625 218.56062 63.74375 217.67Q62.9 216.6075 62.9 214.18562ZM63.978127 214.18562Q63.978127 216.295 64.47813 216.99812Q64.97813 217.70125 65.69688 217.70125Q66.43125 217.70125 66.91563 216.99812Q67.41563 216.295 67.41563 214.18562Q67.41563 212.06062 66.91563 211.37312Q66.43125 210.67 65.68125 210.67Q64.9625 210.67 64.525 211.27937Q63.978127 212.06062 63.978127 214.18562Z" fill-rule="nonzero"/><path fill="#000000" d="M59.275 194.69333L59.275 192.63083L55.55625 192.63083L55.55625 191.66208L59.478127 186.09958L60.3375 186.09958L60.3375 191.66208L61.49375 191.66208L61.49375 192.63083L60.3375 192.63083L60.3375 194.69333L59.275 194.69333ZM59.275 191.66208L59.275 187.8027L56.5875 191.66208L59.275 191.66208ZM62.9 190.45895Q62.9 188.9277 63.2125 188.00583Q63.525 187.06833 64.13438 186.56833Q64.75938 186.06833 65.69688 186.06833Q66.38438 186.06833 66.9 186.34958Q67.43125 186.63083 67.775 187.16208Q68.11875 187.6777 68.30625 188.4277Q68.49375 189.1777 68.49375 190.45895Q68.49375 191.97458 68.18125 192.89645Q67.88438 193.81833 67.25938 194.33395Q66.65 194.83395 65.69688 194.83395Q64.4625 194.83395 63.74375 193.94333Q62.9 192.88083 62.9 190.45895ZM63.978127 190.45895Q63.978127 192.56833 64.47813 193.27145Q64.97813 193.97458 65.69688 193.97458Q66.43125 193.97458 66.91563 193.27145Q67.41563 192.56833 67.41563 190.45895Q67.41563 188.33395 66.91563 187.64645Q66.43125 186.94333 65.68125 186.94333Q64.9625 186.94333 64.525 187.5527Q63.978127 188.33395 63.978127 190.45895Z" fill-rule="nonzero"/><path fill="#000000" d="M55.9 168.71666L57.009377 168.62291Q57.134377 169.43541 57.571877 169.84166Q58.025 170.24791 58.665627 170.24791Q59.415627 170.24791 59.946877 169.66978Q60.478127 169.09166 60.478127 168.15416Q60.478127 167.24791 59.9625 166.73228Q59.4625 166.20103 58.634377 166.20103Q58.134377 166.20103 57.7125 166.43541Q57.30625 166.66978 57.071877 167.02916L56.0875 166.90416L56.915627 162.49791L61.196877 162.49791L61.196877 163.49791L57.759377 163.49791L57.30625 165.81041Q58.071877 165.26353 58.915627 165.26353Q60.040627 165.26353 60.80625 166.04478Q61.5875 166.82603 61.5875 168.06041Q61.5875 169.21666 60.915627 170.07603Q60.0875 171.10728 58.665627 171.10728Q57.49375 171.10728 56.74375 170.45103Q56.009377 169.79478 55.9 168.71666ZM62.9 166.73228Q62.9 165.20103 63.2125 164.27916Q63.525 163.34166 64.13438 162.84166Q64.75938 162.34166 65.69688 162.34166Q66.38438 162.34166 66.9 162.62291Q67.43125 162.90416 67.775 163.43541Q68.11875 163.95103 68.30625 164.70103Q68.49375 165.45103 68.49375 166.73228Q68.49375 168.24791 68.18125 169.16978Q67.88438 170.09166 67.25938 170.60728Q66.65 171.10728 65.69688 171.10728Q64.4625 171.10728 63.74375 170.21666Q62.9 169.15416 62.9 166.73228ZM63.978127 166.73228Q63.978127 168.84166 64.47813 169.54478Q64.97813 170.24791 65.69688 170.24791Q66.43125 170.24791 66.91563 169.54478Q67.41563 168.84166 67.41563 166.73228Q67.41563 164.60728 66.91563 163.91978Q66.43125 163.21666 65.68125 163.21666Q64.9625 163.21666 64.525 163.82603Q63.978127 164.60728 63.978127 166.73228Z" fill-rule="nonzero"/><path fill="#000000" d="M61.36875 140.75563L60.321877 140.83376Q60.18125 140.20876 59.93125 139.9275Q59.49375 139.47438 58.86875 139.47438Q58.36875 139.47438 57.978127 139.75563Q57.49375 140.13063 57.196877 140.83376Q56.915627 141.52126 56.9 142.8025Q57.275 142.22438 57.821877 141.94313Q58.384377 141.66188 58.99375 141.66188Q60.040627 141.66188 60.775 142.44313Q61.525 143.22438 61.525 144.44313Q61.525 145.25563 61.165627 145.95876Q60.821877 146.64626 60.2125 147.02126Q59.603127 147.38063 58.8375 147.38063Q57.509377 147.38063 56.68125 146.41188Q55.853127 145.44313 55.853127 143.22438Q55.853127 140.72438 56.775 139.59938Q57.571877 138.615 58.93125 138.615Q59.946877 138.615 60.5875 139.19313Q61.24375 139.75563 61.36875 140.75563ZM57.071877 144.45876Q57.071877 145.00563 57.290627 145.50563Q57.525 145.99 57.93125 146.25563Q58.353127 146.52126 58.821877 146.52126Q59.478127 146.52126 59.9625 145.99Q60.446877 145.44313 60.446877 144.52126Q60.446877 143.63063 59.9625 143.115Q59.49375 142.59938 58.775 142.59938Q58.05625 142.59938 57.55625 143.115Q57.071877 143.63063 57.071877 144.45876ZM62.9 143.00563Q62.9 141.47438 63.2125 140.5525Q63.525 139.615 64.13438 139.115Q64.75938 138.615 65.69688 138.615Q66.38438 138.615 66.9 138.89626Q67.43125 139.1775 67.775 139.70876Q68.11875 140.22438 68.30625 140.97438Q68.49375 141.72438 68.49375 143.00563Q68.49375 144.52126 68.18125 145.44313Q67.88438 146.365 67.25938 146.88063Q66.65 147.38063 65.69688 147.38063Q64.4625 147.38063 63.74375 146.49Q62.9 145.4275 62.9 143.00563ZM63.978127 143.00563Q63.978127 145.115 64.47813 145.81813Q64.97813 146.52126 65.69688 146.52126Q66.43125 146.52126 66.91563 145.81813Q67.41563 145.115 67.41563 143.00563Q67.41563 140.88063 66.91563 140.19313Q66.43125 139.49 65.68125 139.49Q64.9625 139.49 64.525 140.09938Q63.978127 140.88063 63.978127 143.00563Z" fill-rule="nonzero"/><path fill="#000000" d="M55.9625 116.044586L55.9625 115.02896L61.525 115.02896L61.525 115.857086Q60.7125 116.732086 59.9 118.18521Q59.103127 119.62271 58.665627 121.15396Q58.3375 122.232086 58.259377 123.513336L57.165627 123.513336Q57.18125 122.49771 57.55625 121.06021Q57.946877 119.62271 58.65 118.294586Q59.36875 116.96646 60.18125 116.044586L55.9625 116.044586ZM62.9 119.27896Q62.9 117.74771 63.2125 116.825836Q63.525 115.888336 64.13438 115.388336Q64.75938 114.888336 65.69688 114.888336Q66.38438 114.888336 66.9 115.169586Q67.43125 115.450836 67.775 115.982086Q68.11875 116.49771 68.30625 117.24771Q68.49375 117.99771 68.49375 119.27896Q68.49375 120.794586 68.18125 121.71646Q67.88438 122.638336 67.25938 123.15396Q66.65 123.65396 65.69688 123.65396Q64.4625 123.65396 63.74375 122.763336Q62.9 121.700836 62.9 119.27896ZM63.978127 119.27896Q63.978127 121.388336 64.47813 122.09146Q64.97813 122.794586 65.69688 122.794586Q66.43125 122.794586 66.91563 122.09146Q67.41563 121.388336 67.41563 119.27896Q67.41563 117.15396 66.91563 116.46646Q66.43125 115.763336 65.68125 115.763336Q64.9625 115.763336 64.525 116.37271Q63.978127 117.15396 63.978127 119.27896Z" fill-rule="nonzero"/><path fill="#000000" d="M57.525 95.13042Q56.86875 94.88042 56.540627 94.44292Q56.228127 93.98979 56.228127 93.38042Q56.228127 92.44292 56.9 91.80229Q57.5875 91.16167 58.696877 91.16167Q59.821877 91.16167 60.509377 91.81792Q61.196877 92.47417 61.196877 93.41167Q61.196877 94.00542 60.884377 94.44292Q60.571877 94.88042 59.93125 95.13042Q60.728127 95.38042 61.134377 95.95854Q61.540627 96.53667 61.540627 97.33354Q61.540627 98.42729 60.759377 99.17729Q59.99375 99.92729 58.7125 99.92729Q57.446877 99.92729 56.665627 99.17729Q55.884377 98.42729 55.884377 97.30229Q55.884377 96.45854 56.30625 95.89604Q56.74375 95.33354 57.525 95.13042ZM57.30625 93.33354Q57.30625 93.94292 57.696877 94.33354Q58.103127 94.72417 58.728127 94.72417Q59.3375 94.72417 59.728127 94.34917Q60.11875 93.95854 60.11875 93.39604Q60.11875 92.81792 59.7125 92.42729Q59.30625 92.02104 58.7125 92.02104Q58.103127 92.02104 57.696877 92.41167Q57.30625 92.80229 57.30625 93.33354ZM56.978127 97.30229Q56.978127 97.75542 57.18125 98.17729Q57.4 98.59917 57.821877 98.83354Q58.24375 99.06792 58.728127 99.06792Q59.478127 99.06792 59.9625 98.58354Q60.4625 98.09917 60.4625 97.34917Q60.4625 96.58354 59.9625 96.08354Q59.4625 95.58354 58.696877 95.58354Q57.946877 95.58354 57.4625 96.08354Q56.978127 96.56792 56.978127 97.30229ZM62.9 95.55229Q62.9 94.02104 63.2125 93.09917Q63.525 92.16167 64.13438 91.66167Q64.75938 91.16167 65.69688 91.16167Q66.38438 91.16167 66.9 91.44292Q67.43125 91.72417 67.775 92.25542Q68.11875 92.77104 68.30625 93.52104Q68.49375 94.27104 68.49375 95.55229Q68.49375 97.06792 68.18125 97.98979Q67.88438 98.91167 67.25938 99.42729Q66.65 99.92729 65.69688 99.92729Q64.4625 99.92729 63.74375 99.03667Q62.9 97.97417 62.9 95.55229ZM63.978127 95.55229Q63.978127 97.66167 64.47813 98.36479Q64.97813 99.06792 65.69688 99.06792Q66.43125 99.06792 66.91563 98.36479Q67.41563 97.66167 67.41563 95.55229Q67.41563 93.42729 66.91563 92.73979Q66.43125 92.03667 65.68125 92.03667Q64.9625 92.03667 64.525 92.64604Q63.978127 93.42729 63.978127 95.55229Z" fill-rule="nonzero"/><path fill="#000000" d="M56.05625 74.07562L57.071877 73.98187Q57.196877 74.70062 57.55625 75.02875Q57.93125 75.34125 58.49375 75.34125Q58.978127 75.34125 59.3375 75.1225Q59.7125 74.88812 59.946877 74.52875Q60.18125 74.15375 60.3375 73.52875Q60.49375 72.88812 60.49375 72.23187Q60.49375 72.15375 60.49375 72.01312Q60.18125 72.51312 59.634377 72.84125Q59.0875 73.15375 58.446877 73.15375Q57.36875 73.15375 56.634377 72.38812Q55.9 71.60687 55.9 70.34125Q55.9 69.02875 56.665627 68.23187Q57.446877 67.435 58.603127 67.435Q59.43125 67.435 60.11875 67.88812Q60.821877 68.34125 61.18125 69.185Q61.540627 70.01312 61.540627 71.59125Q61.540627 73.23187 61.18125 74.21625Q60.8375 75.185 60.11875 75.70062Q59.415627 76.20062 58.478127 76.20062Q57.4625 76.20062 56.821877 75.65375Q56.18125 75.09125 56.05625 74.07562ZM60.36875 70.27875Q60.36875 69.3725 59.884377 68.84125Q59.415627 68.31 58.728127 68.31Q58.025 68.31 57.49375 68.88812Q56.978127 69.45062 56.978127 70.3725Q56.978127 71.185 57.478127 71.70062Q57.978127 72.21625 58.696877 72.21625Q59.43125 72.21625 59.9 71.70062Q60.36875 71.185 60.36875 70.27875ZM62.9 71.82562Q62.9 70.29437 63.2125 69.3725Q63.525 68.435 64.13438 67.935Q64.75938 67.435 65.69688 67.435Q66.38438 67.435 66.9 67.71625Q67.43125 67.9975 67.775 68.52875Q68.11875 69.04437 68.30625 69.79437Q68.49375 70.54437 68.49375 71.82562Q68.49375 73.34125 68.18125 74.26312Q67.88438 75.185 67.25938 75.70062Q66.65 76.20062 65.69688 76.20062Q64.4625 76.20062 63.74375 75.31Q62.9 74.2475 62.9 71.82562ZM63.978127 71.82562Q63.978127 73.935 64.47813 74.63812Q64.97813 75.34125 65.69688 75.34125Q66.43125 75.34125 66.91563 74.63812Q67.41563 73.935 67.41563 71.82562Q67.41563 69.70062 66.91563 69.01312Q66.43125 68.31 65.68125 68.31Q64.9625 68.31 64.525 68.91937Q63.978127 69.70062 63.978127 71.82562Z" fill-rule="nonzero"/><path fill="#000000" d="M52.86875 52.333332L51.821877 52.333332L51.821877 45.614582Q51.43125 45.973957 50.80625 46.348957Q50.196877 46.708332 49.7125 46.880207L49.7125 45.864582Q50.5875 45.442707 51.24375 44.864582Q51.915627 44.270832 52.196877 43.708332L52.86875 43.708332L52.86875 52.333332ZM55.9 48.098957Q55.9 46.567707 56.2125 45.645832Q56.525 44.708332 57.134377 44.208332Q57.759377 43.708332 58.696877 43.708332Q59.384377 43.708332 59.9 43.989582Q60.43125 44.270832 60.775 44.802082Q61.11875 45.317707 61.30625 46.067707Q61.49375 46.817707 61.49375 48.098957Q61.49375 49.614582 61.18125 50.536457Q60.884377 51.458332 60.259377 51.973957Q59.65 52.473957 58.696877 52.473957Q57.4625 52.473957 56.74375 51.583332Q55.9 50.520832 55.9 48.098957ZM56.978127 48.098957Q56.978127 50.208332 57.478127 50.911457Q57.978127 51.614582 58.696877 51.614582Q59.43125 51.614582 59.915627 50.911457Q60.415627 50.208332 60.415627 48.098957Q60.415627 45.973957 59.915627 45.286457Q59.43125 44.583332 58.68125 44.583332Q57.9625 44.583332 57.525 45.192707Q56.978127 45.973957 56.978127 48.098957ZM62.9 48.098957Q62.9 46.567707 63.2125 45.645832Q63.525 44.708332 64.13438 44.208332Q64.75938 43.708332 65.69688 43.708332Q66.38438 43.708332 66.9 43.989582Q67.43125 44.270832 67.775 44.802082Q68.11875 45.317707 68.30625 46.067707Q68.49375 46.817707 68.49375 48.098957Q68.49375 49.614582 68.18125 50.536457Q67.88438 51.458332 67.25938 51.973957Q66.65 52.473957 65.69688 52.473957Q64.4625 52.473957 63.74375 51.583332Q62.9 50.520832 62.9 48.098957ZM63.978127 48.098957Q63.978127 50.208332 64.47813 50.911457Q64.97813 51.614582 65.69688 51.614582Q66.43125 51.614582 66.91563 50.911457Q67.41563 50.208332 67.41563 48.098957Q67.41563 45.973957 66.91563 45.286457Q66.43125 44.583332 65.68125 44.583332Q64.9625 44.583332 64.525 45.192707Q63.978127 45.973957 63.978127 48.098957Z" fill-rule="nonzero"/><path fill="#000000" d="M97.13021 305.83438L98.19271 305.74063Q98.270836 306.39688 98.552086 306.80313Q98.833336 307.20938 99.41146 307.475Q100.00521 307.725 100.739586 307.725Q101.38021 307.725 101.88021 307.5375Q102.38021 307.33438 102.614586 307.00626Q102.864586 306.6625 102.864586 306.27188Q102.864586 305.86563 102.63021 305.56876Q102.395836 305.25626 101.864586 305.05313Q101.50521 304.9125 100.31771 304.63126Q99.145836 304.35 98.677086 304.1Q98.052086 303.77188 97.75521 303.30313Q97.458336 302.81876 97.458336 302.225Q97.458336 301.58438 97.81771 301.02188Q98.19271 300.44376 98.895836 300.1625Q99.614586 299.86563 100.47396 299.86563Q101.427086 299.86563 102.16146 300.17813Q102.895836 300.475 103.28646 301.08438Q103.677086 301.67813 103.708336 302.42813L102.614586 302.50626Q102.520836 301.69376 102.00521 301.2875Q101.50521 300.86563 100.520836 300.86563Q99.489586 300.86563 99.020836 301.24063Q98.552086 301.61563 98.552086 302.14688Q98.552086 302.61563 98.88021 302.9125Q99.208336 303.20938 100.583336 303.52188Q101.97396 303.83438 102.489586 304.06876Q103.239586 304.42813 103.59896 304.95938Q103.958336 305.475 103.958336 306.17813Q103.958336 306.86563 103.56771 307.475Q103.177086 308.06876 102.44271 308.4125Q101.708336 308.74063 100.78646 308.74063Q99.614586 308.74063 98.81771 308.4125Q98.03646 308.06876 97.583336 307.38126Q97.145836 306.69376 97.13021 305.83438ZM105.38021 310.99063L105.38021 302.38126L106.333336 302.38126L106.333336 303.17813Q106.677086 302.70938 107.09896 302.475Q107.53646 302.24063 108.145836 302.24063Q108.94271 302.24063 109.552086 302.64688Q110.16146 303.05313 110.458336 303.80313Q110.770836 304.55313 110.770836 305.44376Q110.770836 306.39688 110.427086 307.1625Q110.09896 307.92813 109.44271 308.33438Q108.78646 308.74063 108.06771 308.74063Q107.53646 308.74063 107.114586 308.52188Q106.69271 308.2875 106.427086 307.95938L106.427086 310.99063L105.38021 310.99063ZM106.333336 305.52188Q106.333336 306.725 106.81771 307.30313Q107.302086 307.86563 107.989586 307.86563Q108.69271 307.86563 109.19271 307.27188Q109.69271 306.67813 109.69271 305.42813Q109.69271 304.24063 109.208336 303.6625Q108.72396 303.06876 108.03646 303.06876Q107.364586 303.06876 106.84896 303.69376Q106.333336 304.31876 106.333336 305.52188ZM112.364586 308.6L112.364586 302.38126L113.31771 302.38126L113.31771 303.31876Q113.677086 302.6625 113.97396 302.45938Q114.28646 302.24063 114.66146 302.24063Q115.19271 302.24063 115.739586 302.56876L115.38021 303.55313Q114.989586 303.31876 114.614586 303.31876Q114.25521 303.31876 113.97396 303.5375Q113.708336 303.74063 113.59896 304.11563Q113.41146 304.67813 113.41146 305.33438L113.41146 308.6L112.364586 308.6ZM116.38021 301.225L116.38021 300.00626L117.44271 300.00626L117.44271 301.225L116.38021 301.225ZM116.38021 308.6L116.38021 302.38126L117.44271 302.38126L117.44271 308.6L116.38021 308.6ZM119.38021 308.6L119.38021 302.38126L120.31771 302.38126L120.31771 303.25626Q121.00521 302.24063 122.302086 302.24063Q122.864586 302.24063 123.333336 302.44376Q123.81771 302.64688 124.052086 302.975Q124.28646 303.30313 124.38021 303.74063Q124.427086 304.0375 124.427086 304.77188L124.427086 308.6L123.38021 308.6L123.38021 304.81876Q123.38021 304.1625 123.25521 303.85Q123.13021 303.5375 122.81771 303.35Q122.50521 303.14688 122.083336 303.14688Q121.41146 303.14688 120.91146 303.58438Q120.427086 304.00626 120.427086 305.19376L120.427086 308.6L119.38021 308.6ZM128.6771 307.6625L128.83334 308.58438Q128.38022 308.67813 128.03647 308.67813Q127.458336 308.67813 127.145836 308.50626Q126.833336 308.31876 126.69271 308.02188Q126.56771 307.725 126.56771 306.77188L126.56771 303.19376L125.802086 303.19376L125.802086 302.38126L126.56771 302.38126L126.56771 300.83438L127.614586 300.20938L127.614586 302.38126L128.6771 302.38126L128.6771 303.19376L127.614586 303.19376L127.614586 306.83438Q127.614586 307.2875 127.66146 307.4125Q127.72396 307.5375 127.84896 307.61563Q127.97396 307.69376 128.20834 307.69376Q128.39584 307.69376 128.6771 307.6625ZM136.0521 308.6L135.00522 308.6L135.00522 301.88126Q134.6146 302.24063 133.9896 302.61563Q133.38022 302.975 132.89584 303.14688L132.89584 302.13126Q133.77084 301.70938 134.4271 301.13126Q135.09897 300.5375 135.38022 299.975L136.0521 299.975L136.0521 308.6Z" fill-rule="nonzero"/><path fill="#000000" d="M169.49687 305.83438L170.55937 305.74063Q170.6375 306.39688 170.91875 306.80313Q171.2 307.20938 171.77812 307.475Q172.37187 307.725 173.10625 307.725Q173.74687 307.725 174.24687 307.5375Q174.74687 307.33438 174.98125 307.00626Q175.23125 306.6625 175.23125 306.27188Q175.23125 305.86563 174.99687 305.56876Q174.7625 305.25626 174.23125 305.05313Q173.87187 304.9125 172.68437 304.63126Q171.5125 304.35 171.04375 304.1Q170.41875 303.77188 170.12187 303.30313Q169.825 302.81876 169.825 302.225Q169.825 301.58438 170.18437 301.02188Q170.55937 300.44376 171.2625 300.1625Q171.98125 299.86563 172.84062 299.86563Q173.79375 299.86563 174.52812 300.17813Q175.2625 300.475 175.65312 301.08438Q176.04375 301.67813 176.075 302.42813L174.98125 302.50626Q174.8875 301.69376 174.37187 301.2875Q173.87187 300.86563 172.8875 300.86563Q171.85625 300.86563 171.3875 301.24063Q170.91875 301.61563 170.91875 302.14688Q170.91875 302.61563 171.24687 302.9125Q171.575 303.20938 172.95 303.52188Q174.34062 303.83438 174.85625 304.06876Q175.60625 304.42813 175.96562 304.95938Q176.325 305.475 176.325 306.17813Q176.325 306.86563 175.93437 307.475Q175.54375 308.06876 174.80937 308.4125Q174.075 308.74063 173.15312 308.74063Q171.98125 308.74063 171.18437 308.4125Q170.40312 308.06876 169.95 307.38126Q169.5125 306.69376 169.49687 305.83438ZM177.74687 310.99063L177.74687 302.38126L178.7 302.38126L178.7 303.17813Q179.04375 302.70938 179.46562 302.475Q179.90312 302.24063 180.5125 302.24063Q181.30937 302.24063 181.91875 302.64688Q182.52812 303.05313 182.825 303.80313Q183.1375 304.55313 183.1375 305.44376Q183.1375 306.39688 182.79375 307.1625Q182.46562 307.92813 181.80937 308.33438Q181.15312 308.74063 180.43437 308.74063Q179.90312 308.74063 179.48125 308.52188Q179.05937 308.2875 178.79375 307.95938L178.79375 310.99063L177.74687 310.99063ZM178.7 305.52188Q178.7 306.725 179.18437 307.30313Q179.66875 307.86563 180.35625 307.86563Q181.05937 307.86563 181.55937 307.27188Q182.05937 306.67813 182.05937 305.42813Q182.05937 304.24063 181.575 303.6625Q181.09062 303.06876 180.40312 303.06876Q179.73125 303.06876 179.21562 303.69376Q178.7 304.31876 178.7 305.52188ZM184.73125 308.6L184.73125 302.38126L185.68437 302.38126L185.68437 303.31876Q186.04375 302.6625 186.34062 302.45938Q186.65312 302.24063 187.02812 302.24063Q187.55937 302.24063 188.10625 302.56876L187.74687 303.55313Q187.35625 303.31876 186.98125 303.31876Q186.62187 303.31876 186.34062 303.5375Q186.075 303.74063 185.96562 304.11563Q185.77812 304.67813 185.77812 305.33438L185.77812 308.6L184.73125 308.6ZM188.74687 301.225L188.74687 300.00626L189.80937 300.00626L189.80937 301.225L188.74687 301.225ZM188.74687 308.6L188.74687 302.38126L189.80937 302.38126L189.80937 308.6L188.74687 308.6ZM191.74687 308.6L191.74687 302.38126L192.68437 302.38126L192.68437 303.25626Q193.37187 302.24063 194.66875 302.24063Q195.23125 302.24063 195.7 302.44376Q196.18437 302.64688 196.41875 302.975Q196.65312 303.30313 196.74687 303.74063Q196.79375 304.0375 196.79375 304.77188L196.79375 308.6L195.74687 308.6L195.74687 304.81876Q195.74687 304.1625 195.62187 303.85Q195.49687 303.5375 195.18437 303.35Q194.87187 303.14688 194.45 303.14688Q193.77812 303.14688 193.27812 303.58438Q192.79375 304.00626 192.79375 305.19376L192.79375 308.6L191.74687 308.6ZM201.04375 307.6625L201.2 308.58438Q200.74687 308.67813 200.40312 308.67813Q199.825 308.67813 199.5125 308.50626Q199.2 308.31876 199.05937 308.02188Q198.93437 307.725 198.93437 306.77188L198.93437 303.19376L198.16875 303.19376L198.16875 302.38126L198.93437 302.38126L198.93437 300.83438L199.98125 300.20938L199.98125 302.38126L201.04375 302.38126L201.04375 303.19376L199.98125 303.19376L199.98125 306.83438Q199.98125 307.2875 200.02812 307.4125Q200.09062 307.5375 200.21562 307.61563Q200.34062 307.69376 200.575 307.69376Q200.7625 307.69376 201.04375 307.6625ZM209.99687 307.58438L209.99687 308.6L204.30937 308.6Q204.30937 308.225 204.43437 307.86563Q204.65312 307.2875 205.12187 306.725Q205.60625 306.1625 206.5125 305.42813Q207.91875 304.27188 208.40312 303.6Q208.90312 302.92813 208.90312 302.33438Q208.90312 301.70938 208.45 301.2875Q207.99687 300.85 207.27812 300.85Q206.5125 300.85 206.05937 301.30313Q205.60625 301.75626 205.59062 302.56876L204.5125 302.45938Q204.62187 301.24063 205.34062 300.61563Q206.075 299.975 207.30937 299.975Q208.54375 299.975 209.2625 300.6625Q209.98125 301.35 209.98125 302.36563Q209.98125 302.88126 209.7625 303.38126Q209.55937 303.86563 209.05937 304.42813Q208.575 304.975 207.45 305.92813Q206.49687 306.725 206.21562 307.02188Q205.95 307.30313 205.77812 307.58438L209.99687 307.58438Z" fill-rule="nonzero"/><path fill="#000000" d="M241.86354 305.83438L242.92604 305.74063Q243.00417 306.39688 243.28542 306.80313Q243.56667 307.20938 244.14479 307.475Q244.73854 307.725 245.47292 307.725Q246.11354 307.725 246.61354 307.5375Q247.11354 307.33438 247.34792 307.00626Q247.59792 306.6625 247.59792 306.27188Q247.59792 305.86563 247.36354 305.56876Q247.12917 305.25626 246.59792 305.05313Q246.23854 304.9125 245.05104 304.63126Q243.87917 304.35 243.41042 304.1Q242.78542 303.77188 242.48854 303.30313Q242.19167 302.81876 242.19167 302.225Q242.19167 301.58438 242.55104 301.02188Q242.92604 300.44376 243.62917 300.1625Q244.34792 299.86563 245.20729 299.86563Q246.16042 299.86563 246.89479 300.17813Q247.62917 300.475 248.01979 301.08438Q248.41042 301.67813 248.44167 302.42813L247.34792 302.50626Q247.25417 301.69376 246.73854 301.2875Q246.23854 300.86563 245.25417 300.86563Q244.22292 300.86563 243.75417 301.24063Q243.28542 301.61563 243.28542 302.14688Q243.28542 302.61563 243.61354 302.9125Q243.94167 303.20938 245.31667 303.52188Q246.70729 303.83438 247.22292 304.06876Q247.97292 304.42813 248.33229 304.95938Q248.69167 305.475 248.69167 306.17813Q248.69167 306.86563 248.30104 307.475Q247.91042 308.06876 247.17604 308.4125Q246.44167 308.74063 245.51979 308.74063Q244.34792 308.74063 243.55104 308.4125Q242.76979 308.06876 242.31667 307.38126Q241.87917 306.69376 241.86354 305.83438ZM250.11354 310.99063L250.11354 302.38126L251.06667 302.38126L251.06667 303.17813Q251.41042 302.70938 251.83229 302.475Q252.26979 302.24063 252.87917 302.24063Q253.67604 302.24063 254.28542 302.64688Q254.89479 303.05313 255.19167 303.80313Q255.50417 304.55313 255.50417 305.44376Q255.50417 306.39688 255.16042 307.1625Q254.83229 307.92813 254.17604 308.33438Q253.51979 308.74063 252.80104 308.74063Q252.26979 308.74063 251.84792 308.52188Q251.42604 308.2875 251.16042 307.95938L251.16042 310.99063L250.11354 310.99063ZM251.06667 305.52188Q251.06667 306.725 251.55104 307.30313Q252.03542 307.86563 252.72292 307.86563Q253.42604 307.86563 253.92604 307.27188Q254.42604 306.67813 254.42604 305.42813Q254.42604 304.24063 253.94167 303.6625Q253.45729 303.06876 252.76979 303.06876Q252.09792 303.06876 251.58229 303.69376Q251.06667 304.31876 251.06667 305.52188ZM257.0979 308.6L257.0979 302.38126L258.05103 302.38126L258.05103 303.31876Q258.4104 302.6625 258.70728 302.45938Q259.01978 302.24063 259.39478 302.24063Q259.92603 302.24063 260.4729 302.56876L260.11353 303.55313Q259.7229 303.31876 259.3479 303.31876Q258.98853 303.31876 258.70728 303.5375Q258.44165 303.74063 258.33228 304.11563Q258.14478 304.67813 258.14478 305.33438L258.14478 308.6L257.0979 308.6ZM261.11353 301.225L261.11353 300.00626L262.17603 300.00626L262.17603 301.225L261.11353 301.225ZM261.11353 308.6L261.11353 302.38126L262.17603 302.38126L262.17603 308.6L261.11353 308.6ZM264.11353 308.6L264.11353 302.38126L265.05103 302.38126L265.05103 303.25626Q265.73853 302.24063 267.0354 302.24063Q267.5979 302.24063 268.06665 302.44376Q268.55103 302.64688 268.7854 302.975Q269.01978 303.30313 269.11353 303.74063Q269.1604 304.0375 269.1604 304.77188L269.1604 308.6L268.11353 308.6L268.11353 304.81876Q268.11353 304.1625 267.98853 303.85Q267.86353 303.5375 267.55103 303.35Q267.23853 303.14688 266.81665 303.14688Q266.14478 303.14688 265.64478 303.58438Q265.1604 304.00626 265.1604 305.19376L265.1604 308.6L264.11353 308.6ZM273.4104 307.6625L273.56665 308.58438Q273.11353 308.67813 272.76978 308.67813Q272.19165 308.67813 271.87915 308.50626Q271.56665 308.31876 271.42603 308.02188Q271.30103 307.725 271.30103 306.77188L271.30103 303.19376L270.5354 303.19376L270.5354 302.38126L271.30103 302.38126L271.30103 300.83438L272.3479 300.20938L272.3479 302.38126L273.4104 302.38126L273.4104 303.19376L272.3479 303.19376L272.3479 306.83438Q272.3479 307.2875 272.39478 307.4125Q272.45728 307.5375 272.58228 307.61563Q272.70728 307.69376 272.94165 307.69376Q273.12915 307.69376 273.4104 307.6625ZM276.81665 306.33438L277.87915 306.19376Q278.05103 307.08438 278.48853 307.49063Q278.92603 307.88126 279.55103 307.88126Q280.30103 307.88126 280.81665 307.36563Q281.33228 306.85 281.33228 306.08438Q281.33228 305.36563 280.8479 304.89688Q280.37915 304.4125 279.64478 304.4125Q279.3479 304.4125 278.89478 304.5375L279.01978 303.6Q279.12915 303.61563 279.19165 303.61563Q279.86353 303.61563 280.39478 303.27188Q280.94165 302.9125 280.94165 302.17813Q280.94165 301.6 280.55103 301.225Q280.1604 300.83438 279.5354 300.83438Q278.92603 300.83438 278.50415 301.225Q278.0979 301.61563 277.98853 302.38126L276.92603 302.19376Q277.11353 301.14688 277.80103 300.56876Q278.48853 299.975 279.50415 299.975Q280.20728 299.975 280.80103 300.2875Q281.39478 300.58438 281.70728 301.1Q282.01978 301.61563 282.01978 302.20938Q282.01978 302.75626 281.7229 303.225Q281.42603 303.67813 280.8479 303.94376Q281.5979 304.11563 282.01978 304.67813Q282.44165 305.225 282.44165 306.06876Q282.44165 307.19376 281.61353 307.975Q280.80103 308.75626 279.55103 308.75626Q278.42603 308.75626 277.67603 308.08438Q276.92603 307.39688 276.81665 306.33438Z" fill-rule="nonzero"/><path fill="#000000" d="M314.2302 305.83438L315.2927 305.74063Q315.37082 306.39688 315.65207 306.80313Q315.93332 307.20938 316.51144 307.475Q317.1052 307.725 317.83957 307.725Q318.4802 307.725 318.9802 307.5375Q319.4802 307.33438 319.71457 307.00626Q319.96457 306.6625 319.96457 306.27188Q319.96457 305.86563 319.7302 305.56876Q319.49582 305.25626 318.96457 305.05313Q318.6052 304.9125 317.4177 304.63126Q316.24582 304.35 315.77707 304.1Q315.15207 303.77188 314.8552 303.30313Q314.55832 302.81876 314.55832 302.225Q314.55832 301.58438 314.9177 301.02188Q315.2927 300.44376 315.99582 300.1625Q316.71457 299.86563 317.57394 299.86563Q318.52707 299.86563 319.26144 300.17813Q319.99582 300.475 320.38644 301.08438Q320.77707 301.67813 320.80832 302.42813L319.71457 302.50626Q319.62082 301.69376 319.1052 301.2875Q318.6052 300.86563 317.62082 300.86563Q316.58957 300.86563 316.12082 301.24063Q315.65207 301.61563 315.65207 302.14688Q315.65207 302.61563 315.9802 302.9125Q316.30832 303.20938 317.68332 303.52188Q319.07394 303.83438 319.58957 304.06876Q320.33957 304.42813 320.69894 304.95938Q321.05832 305.475 321.05832 306.17813Q321.05832 306.86563 320.6677 307.475Q320.27707 308.06876 319.5427 308.4125Q318.80832 308.74063 317.88644 308.74063Q316.71457 308.74063 315.9177 308.4125Q315.13644 308.06876 314.68332 307.38126Q314.24582 306.69376 314.2302 305.83438ZM322.4802 310.99063L322.4802 302.38126L323.43332 302.38126L323.43332 303.17813Q323.77707 302.70938 324.19894 302.475Q324.63644 302.24063 325.24582 302.24063Q326.0427 302.24063 326.65207 302.64688Q327.26144 303.05313 327.55832 303.80313Q327.87082 304.55313 327.87082 305.44376Q327.87082 306.39688 327.52707 307.1625Q327.19894 307.92813 326.5427 308.33438Q325.88644 308.74063 325.1677 308.74063Q324.63644 308.74063 324.21457 308.52188Q323.7927 308.2875 323.52707 307.95938L323.52707 310.99063L322.4802 310.99063ZM323.43332 305.52188Q323.43332 306.725 323.9177 307.30313Q324.40207 307.86563 325.08957 307.86563Q325.7927 307.86563 326.2927 307.27188Q326.7927 306.67813 326.7927 305.42813Q326.7927 304.24063 326.30832 303.6625Q325.82394 303.06876 325.13644 303.06876Q324.46457 303.06876 323.94894 303.69376Q323.43332 304.31876 323.43332 305.52188ZM329.46457 308.6L329.46457 302.38126L330.4177 302.38126L330.4177 303.31876Q330.77707 302.6625 331.07394 302.45938Q331.38644 302.24063 331.76144 302.24063Q332.2927 302.24063 332.83957 302.56876L332.4802 303.55313Q332.08957 303.31876 331.71457 303.31876Q331.3552 303.31876 331.07394 303.5375Q330.80832 303.74063 330.69894 304.11563Q330.51144 304.67813 330.51144 305.33438L330.51144 308.6L329.46457 308.6ZM333.4802 301.225L333.4802 300.00626L334.5427 300.00626L334.5427 301.225L333.4802 301.225ZM333.4802 308.6L333.4802 302.38126L334.5427 302.38126L334.5427 308.6L333.4802 308.6ZM336.4802 308.6L336.4802 302.38126L337.4177 302.38126L337.4177 303.25626Q338.1052 302.24063 339.40207 302.24063Q339.96457 302.24063 340.43332 302.44376Q340.9177 302.64688 341.15207 302.975Q341.38644 303.30313 341.4802 303.74063Q341.52707 304.0375 341.52707 304.77188L341.52707 308.6L340.4802 308.6L340.4802 304.81876Q340.4802 304.1625 340.3552 303.85Q340.2302 303.5375 339.9177 303.35Q339.6052 303.14688 339.18332 303.14688Q338.51144 303.14688 338.01144 303.58438Q337.52707 304.00626 337.52707 305.19376L337.52707 308.6L336.4802 308.6ZM345.77707 307.6625L345.93332 308.58438Q345.4802 308.67813 345.13644 308.67813Q344.55832 308.67813 344.24582 308.50626Q343.93332 308.31876 343.7927 308.02188Q343.6677 307.725 343.6677 306.77188L343.6677 303.19376L342.90207 303.19376L342.90207 302.38126L343.6677 302.38126L343.6677 300.83438L344.71457 300.20938L344.71457 302.38126L345.77707 302.38126L345.77707 303.19376L344.71457 303.19376L344.71457 306.83438Q344.71457 307.2875 344.76144 307.4125Q344.82394 307.5375 344.94894 307.61563Q345.07394 307.69376 345.30832 307.69376Q345.49582 307.69376 345.77707 307.6625ZM352.55832 308.6L352.55832 306.5375L348.83957 306.5375L348.83957 305.56876L352.76144 300.00626L353.62082 300.00626L353.62082 305.56876L354.77707 305.56876L354.77707 306.5375L353.62082 306.5375L353.62082 308.6L352.55832 308.6ZM352.55832 305.56876L352.55832 301.70938L349.87082 305.56876L352.55832 305.56876Z" fill-rule="nonzero"/><path fill="#000000" d="M386.59686 305.83438L387.65936 305.74063Q387.7375 306.39688 388.01874 306.80313Q388.3 307.20938 388.8781 307.475Q389.47186 307.725 390.20624 307.725Q390.84686 307.725 391.34686 307.5375Q391.84686 307.33438 392.08124 307.00626Q392.33124 306.6625 392.33124 306.27188Q392.33124 305.86563 392.09686 305.56876Q391.8625 305.25626 391.33124 305.05313Q390.97186 304.9125 389.78436 304.63126Q388.6125 304.35 388.14374 304.1Q387.51874 303.77188 387.22186 303.30313Q386.925 302.81876 386.925 302.225Q386.925 301.58438 387.28436 301.02188Q387.65936 300.44376 388.3625 300.1625Q389.08124 299.86563 389.9406 299.86563Q390.89374 299.86563 391.6281 300.17813Q392.3625 300.475 392.7531 301.08438Q393.14374 301.67813 393.175 302.42813L392.08124 302.50626Q391.9875 301.69376 391.47186 301.2875Q390.97186 300.86563 389.9875 300.86563Q388.95624 300.86563 388.4875 301.24063Q388.01874 301.61563 388.01874 302.14688Q388.01874 302.61563 388.34686 302.9125Q388.675 303.20938 390.05 303.52188Q391.4406 303.83438 391.95624 304.06876Q392.70624 304.42813 393.0656 304.95938Q393.425 305.475 393.425 306.17813Q393.425 306.86563 393.03436 307.475Q392.64374 308.06876 391.90936 308.4125Q391.175 308.74063 390.2531 308.74063Q389.08124 308.74063 388.28436 308.4125Q387.5031 308.06876 387.05 307.38126Q386.6125 306.69376 386.59686 305.83438ZM394.84686 310.99063L394.84686 302.38126L395.8 302.38126L395.8 303.17813Q396.14374 302.70938 396.5656 302.475Q397.0031 302.24063 397.6125 302.24063Q398.40936 302.24063 399.01874 302.64688Q399.6281 303.05313 399.925 303.80313Q400.2375 304.55313 400.2375 305.44376Q400.2375 306.39688 399.89374 307.1625Q399.5656 307.92813 398.90936 308.33438Q398.2531 308.74063 397.53436 308.74063Q397.0031 308.74063 396.58124 308.52188Q396.15936 308.2875 395.89374 307.95938L395.89374 310.99063L394.84686 310.99063ZM395.8 305.52188Q395.8 306.725 396.28436 307.30313Q396.76874 307.86563 397.45624 307.86563Q398.15936 307.86563 398.65936 307.27188Q399.15936 306.67813 399.15936 305.42813Q399.15936 304.24063 398.675 303.6625Q398.1906 303.06876 397.5031 303.06876Q396.83124 303.06876 396.3156 303.69376Q395.8 304.31876 395.8 305.52188ZM401.83124 308.6L401.83124 302.38126L402.78436 302.38126L402.78436 303.31876Q403.14374 302.6625 403.4406 302.45938Q403.7531 302.24063 404.1281 302.24063Q404.65936 302.24063 405.20624 302.56876L404.84686 303.55313Q404.45624 303.31876 404.08124 303.31876Q403.72186 303.31876 403.4406 303.5375Q403.175 303.74063 403.0656 304.11563Q402.8781 304.67813 402.8781 305.33438L402.8781 308.6L401.83124 308.6ZM405.84686 301.225L405.84686 300.00626L406.90936 300.00626L406.90936 301.225L405.84686 301.225ZM405.84686 308.6L405.84686 302.38126L406.90936 302.38126L406.90936 308.6L405.84686 308.6ZM408.84686 308.6L408.84686 302.38126L409.78436 302.38126L409.78436 303.25626Q410.47186 302.24063 411.76874 302.24063Q412.33124 302.24063 412.8 302.44376Q413.28436 302.64688 413.51874 302.975Q413.7531 303.30313 413.84686 303.74063Q413.89374 304.0375 413.89374 304.77188L413.89374 308.6L412.84686 308.6L412.84686 304.81876Q412.84686 304.1625 412.72186 303.85Q412.59686 303.5375 412.28436 303.35Q411.97186 303.14688 411.55 303.14688Q410.8781 303.14688 410.3781 303.58438Q409.89374 304.00626 409.89374 305.19376L409.89374 308.6L408.84686 308.6ZM418.14374 307.6625L418.3 308.58438Q417.84686 308.67813 417.5031 308.67813Q416.925 308.67813 416.6125 308.50626Q416.3 308.31876 416.15936 308.02188Q416.03436 307.725 416.03436 306.77188L416.03436 303.19376L415.26874 303.19376L415.26874 302.38126L416.03436 302.38126L416.03436 300.83438L417.08124 300.20938L417.08124 302.38126L418.14374 302.38126L418.14374 303.19376L417.08124 303.19376L417.08124 306.83438Q417.08124 307.2875 417.1281 307.4125Q417.1906 307.5375 417.3156 307.61563Q417.4406 307.69376 417.675 307.69376Q417.8625 307.69376 418.14374 307.6625ZM421.55 306.35L422.65936 306.25626Q422.78436 307.06876 423.22186 307.475Q423.675 307.88126 424.3156 307.88126Q425.0656 307.88126 425.59686 307.30313Q426.1281 306.725 426.1281 305.7875Q426.1281 304.88126 425.6125 304.36563Q425.1125 303.83438 424.28436 303.83438Q423.78436 303.83438 423.3625 304.06876Q422.95624 304.30313 422.72186 304.6625L421.7375 304.5375L422.5656 300.13126L426.84686 300.13126L426.84686 301.13126L423.40936 301.13126L422.95624 303.44376Q423.72186 302.89688 424.5656 302.89688Q425.6906 302.89688 426.45624 303.67813Q427.2375 304.45938 427.2375 305.69376Q427.2375 306.85 426.5656 307.70938Q425.7375 308.74063 424.3156 308.74063Q423.14374 308.74063 422.39374 308.08438Q421.65936 307.42813 421.55 306.35Z" fill-rule="nonzero"/><path fill="#000000" d="M458.96353 305.83438L460.02603 305.74063Q460.10416 306.39688 460.3854 306.80313Q460.66666 307.20938 461.24478 307.475Q461.83853 307.725 462.5729 307.725Q463.21353 307.725 463.71353 307.5375Q464.21353 307.33438 464.4479 307.00626Q464.6979 306.6625 464.6979 306.27188Q464.6979 305.86563 464.46353 305.56876Q464.22916 305.25626 463.6979 305.05313Q463.33853 304.9125 462.15103 304.63126Q460.97916 304.35 460.5104 304.1Q459.8854 303.77188 459.58853 303.30313Q459.29166 302.81876 459.29166 302.225Q459.29166 301.58438 459.65103 301.02188Q460.02603 300.44376 460.72916 300.1625Q461.4479 299.86563 462.30728 299.86563Q463.2604 299.86563 463.99478 300.17813Q464.72916 300.475 465.11978 301.08438Q465.5104 301.67813 465.54166 302.42813L464.4479 302.50626Q464.35416 301.69376 463.83853 301.2875Q463.33853 300.86563 462.35416 300.86563Q461.3229 300.86563 460.85416 301.24063Q460.3854 301.61563 460.3854 302.14688Q460.3854 302.61563 460.71353 302.9125Q461.04166 303.20938 462.41666 303.52188Q463.80728 303.83438 464.3229 304.06876Q465.0729 304.42813 465.43228 304.95938Q465.79166 305.475 465.79166 306.17813Q465.79166 306.86563 465.40103 307.475Q465.0104 308.06876 464.27603 308.4125Q463.54166 308.74063 462.61978 308.74063Q461.4479 308.74063 460.65103 308.4125Q459.86978 308.06876 459.41666 307.38126Q458.97916 306.69376 458.96353 305.83438ZM467.21353 310.99063L467.21353 302.38126L468.16666 302.38126L468.16666 303.17813Q468.5104 302.70938 468.93228 302.475Q469.36978 302.24063 469.97916 302.24063Q470.77603 302.24063 471.3854 302.64688Q471.99478 303.05313 472.29166 303.80313Q472.60416 304.55313 472.60416 305.44376Q472.60416 306.39688 472.2604 307.1625Q471.93228 307.92813 471.27603 308.33438Q470.61978 308.74063 469.90103 308.74063Q469.36978 308.74063 468.9479 308.52188Q468.52603 308.2875 468.2604 307.95938L468.2604 310.99063L467.21353 310.99063ZM468.16666 305.52188Q468.16666 306.725 468.65103 307.30313Q469.1354 307.86563 469.8229 307.86563Q470.52603 307.86563 471.02603 307.27188Q471.52603 306.67813 471.52603 305.42813Q471.52603 304.24063 471.04166 303.6625Q470.55728 303.06876 469.86978 303.06876Q469.1979 303.06876 468.68228 303.69376Q468.16666 304.31876 468.16666 305.52188ZM474.1979 308.6L474.1979 302.38126L475.15103 302.38126L475.15103 303.31876Q475.5104 302.6625 475.80728 302.45938Q476.11978 302.24063 476.49478 302.24063Q477.02603 302.24063 477.5729 302.56876L477.21353 303.55313Q476.8229 303.31876 476.4479 303.31876Q476.08853 303.31876 475.80728 303.5375Q475.54166 303.74063 475.43228 304.11563Q475.24478 304.67813 475.24478 305.33438L475.24478 308.6L474.1979 308.6ZM478.21353 301.225L478.21353 300.00626L479.27603 300.00626L479.27603 301.225L478.21353 301.225ZM478.21353 308.6L478.21353 302.38126L479.27603 302.38126L479.27603 308.6L478.21353 308.6ZM481.21353 308.6L481.21353 302.38126L482.15103 302.38126L482.15103 303.25626Q482.83853 302.24063 484.1354 302.24063Q484.6979 302.24063 485.16666 302.44376Q485.65103 302.64688 485.8854 302.975Q486.11978 303.30313 486.21353 303.74063Q486.2604 304.0375 486.2604 304.77188L486.2604 308.6L485.21353 308.6L485.21353 304.81876Q485.21353 304.1625 485.08853 303.85Q484.96353 303.5375 484.65103 303.35Q484.33853 303.14688 483.91666 303.14688Q483.24478 303.14688 482.74478 303.58438Q482.2604 304.00626 482.2604 305.19376L482.2604 308.6L481.21353 308.6ZM490.5104 307.6625L490.66666 308.58438Q490.21353 308.67813 489.86978 308.67813Q489.29166 308.67813 488.97916 308.50626Q488.66666 308.31876 488.52603 308.02188Q488.40103 307.725 488.40103 306.77188L488.40103 303.19376L487.6354 303.19376L487.6354 302.38126L488.40103 302.38126L488.40103 300.83438L489.4479 300.20938L489.4479 302.38126L490.5104 302.38126L490.5104 303.19376L489.4479 303.19376L489.4479 306.83438Q489.4479 307.2875 489.49478 307.4125Q489.55728 307.5375 489.68228 307.61563Q489.80728 307.69376 490.04166 307.69376Q490.22916 307.69376 490.5104 307.6625ZM499.3854 302.11563L498.33853 302.19376Q498.1979 301.56876 497.9479 301.2875Q497.5104 300.83438 496.8854 300.83438Q496.3854 300.83438 495.99478 301.11563Q495.5104 301.49063 495.21353 302.19376Q494.93228 302.88126 494.91666 304.1625Q495.29166 303.58438 495.83853 303.30313Q496.40103 303.02188 497.0104 303.02188Q498.05728 303.02188 498.79166 303.80313Q499.54166 304.58438 499.54166 305.80313Q499.54166 306.61563 499.18228 307.31876Q498.83853 308.00626 498.22916 308.38126Q497.61978 308.74063 496.85416 308.74063Q495.52603 308.74063 494.6979 307.77188Q493.86978 306.80313 493.86978 304.58438Q493.86978 302.08438 494.79166 300.95938Q495.58853 299.975 496.9479 299.975Q497.96353 299.975 498.60416 300.55313Q499.2604 301.11563 499.3854 302.11563ZM495.08853 305.81876Q495.08853 306.36563 495.30728 306.86563Q495.54166 307.35 495.9479 307.61563Q496.36978 307.88126 496.83853 307.88126Q497.49478 307.88126 497.97916 307.35Q498.46353 306.80313 498.46353 305.88126Q498.46353 304.99063 497.97916 304.475Q497.5104 303.95938 496.79166 303.95938Q496.0729 303.95938 495.5729 304.475Q495.08853 304.99063 495.08853 305.81876Z" fill-rule="nonzero"/><path fill="#4285f4" d="M137.5 23.4C137.5 26.713709 134.8137 29.4 131.5 29.4C128.1863 29.4 125.5 26.713709 125.5 23.4C125.5 20.086292 128.1863 17.4 131.5 17.4C134.8137 17.4 137.5 20.086292 137.5 23.4Z" fill-rule="nonzero"/><path fill="#1a1a1a" d="M146.4375 27.4L146.4375 18.80625L150.25 18.80625Q151.40625 18.80625 152.0 19.040625Q152.59375 19.275 152.95312 19.86875Q153.3125 20.446875 153.3125 21.15Q153.3125 22.071875 152.71875 22.696875Q152.125 23.321875 150.89062 23.49375Q151.34375 23.7125 151.57812 23.915625Q152.07812 24.36875 152.51562 25.05625L154.01562 27.4L152.57812 27.4L151.45312 25.61875Q150.95312 24.8375 150.625 24.43125Q150.3125 24.025 150.04688 23.86875Q149.79688 23.696875 149.53125 23.61875Q149.34375 23.5875 148.90625 23.5875L147.57812 23.5875L147.57812 27.4L146.4375 27.4ZM147.57812 22.603125L150.03125 22.603125Q150.79688 22.603125 151.23438 22.446875Q151.6875 22.275 151.90625 21.93125Q152.14062 21.571875 152.14062 21.15Q152.14062 20.540625 151.6875 20.15Q151.25 19.759375 150.29688 19.759375L147.57812 19.759375L147.57812 22.603125ZM155.04688 24.634375L156.10938 24.540625Q156.1875 25.196875 156.46875 25.603125Q156.75 26.009375 157.32812 26.275Q157.92188 26.525 158.65625 26.525Q159.29688 26.525 159.79688 26.3375Q160.29688 26.134375 160.53125 25.80625Q160.78125 25.4625 160.78125 25.071875Q160.78125 24.665625 160.54688 24.36875Q160.3125 24.05625 159.78125 23.853125Q159.42188 23.7125 158.23438 23.43125Q157.0625 23.15 156.59375 22.9Q155.96875 22.571875 155.67188 22.103125Q155.375 21.61875 155.375 21.025Q155.375 20.384375 155.73438 19.821875Q156.10938 19.24375 156.8125 18.9625Q157.53125 18.665625 158.39062 18.665625Q159.34375 18.665625 160.07812 18.978125Q160.8125 19.275 161.20312 19.884375Q161.59375 20.478125 161.625 21.228125L160.53125 21.30625Q160.4375 20.49375 159.92188 20.0875Q159.42188 19.665625 158.4375 19.665625Q157.40625 19.665625 156.9375 20.040625Q156.46875 20.415625 156.46875 20.946875Q156.46875 21.415625 156.79688 21.7125Q157.125 22.009375 158.5 22.321875Q159.89062 22.634375 160.40625 22.86875Q161.15625 23.228125 161.51562 23.759375Q161.875 24.275 161.875 24.978125Q161.875 25.665625 161.48438 26.275Q161.09375 26.86875 160.35938 27.2125Q159.625 27.540625 158.70312 27.540625Q157.53125 27.540625 156.73438 27.2125Q155.95312 26.86875 155.5 26.18125Q155.0625 25.49375 155.04688 24.634375ZM163.625 27.4L163.625 18.80625L164.75 18.80625L164.75 27.4L163.625 27.4Z" fill-rule="nonzero"/><path fill="#ea4335" d="M193.5 23.4C193.5 26.713709 190.8137 29.4 187.5 29.4C184.1863 29.4 181.5 26.713709 181.5 23.4C181.5 20.086292 184.1863 17.4 187.5 17.4C190.8137 17.4 193.5 20.086292 193.5 23.4Z" fill-rule="nonzero"/><path fill="#1a1a1a" d="M204.875 27.4L201.54688 18.80625L202.78125 18.80625L205.01562 25.05625Q205.28125 25.80625 205.46875 26.4625Q205.67188 25.759375 205.9375 25.05625L208.25 18.80625L209.40625 18.80625L206.04688 27.4L204.875 27.4ZM213.35938 26.634375Q212.76562 27.134375 212.21875 27.3375Q211.6875 27.540625 211.0625 27.540625Q210.03125 27.540625 209.48438 27.040625Q208.9375 26.540625 208.9375 25.759375Q208.9375 25.30625 209.14062 24.93125Q209.34375 24.540625 209.6875 24.321875Q210.03125 24.0875 210.45312 23.978125Q210.75 23.884375 211.39062 23.80625Q212.65625 23.665625 213.26562 23.446875Q213.26562 23.228125 213.26562 23.18125Q213.26562 22.525 212.96875 22.259375Q212.5625 21.915625 211.76562 21.915625Q211.03125 21.915625 210.67188 22.18125Q210.3125 22.43125 210.14062 23.0875L209.10938 22.946875Q209.25 22.290625 209.57812 21.884375Q209.90625 21.478125 210.51562 21.259375Q211.125 21.040625 211.92188 21.040625Q212.71875 21.040625 213.21875 21.228125Q213.71875 21.415625 213.95312 21.696875Q214.1875 21.978125 214.28125 22.415625Q214.32812 22.68125 214.32812 23.384375L214.32812 24.790625Q214.32812 26.259375 214.39062 26.65Q214.46875 27.040625 214.67188 27.4L213.5625 27.4Q213.40625 27.071875 213.35938 26.634375ZM213.26562 24.275Q212.6875 24.509375 211.54688 24.68125Q210.89062 24.775 210.625 24.9Q210.35938 25.009375 210.20312 25.228125Q210.0625 25.446875 210.0625 25.728125Q210.0625 26.15 210.375 26.43125Q210.70312 26.7125 211.3125 26.7125Q211.92188 26.7125 212.39062 26.446875Q212.875 26.18125 213.09375 25.7125Q213.26562 25.353125 213.26562 24.665625L213.26562 24.275ZM216.26562 27.4L216.26562 18.80625L217.32812 18.80625L217.32812 27.4L216.26562 27.4ZM218.90625 24.290625Q218.90625 22.55625 219.85938 21.728125Q220.65625 21.040625 221.8125 21.040625Q223.09375 21.040625 223.90625 21.884375Q224.73438 22.7125 224.73438 24.196875Q224.73438 25.4 224.375 26.0875Q224.01562 26.775 223.3125 27.165625Q222.625 27.540625 221.8125 27.540625Q220.51562 27.540625 219.70312 26.7125Q218.90625 25.86875 218.90625 24.290625ZM219.98438 24.290625Q219.98438 25.478125 220.5 26.071875Q221.03125 26.665625 221.8125 26.665625Q222.60938 26.665625 223.125 26.071875Q223.64062 25.478125 223.64062 24.259375Q223.64062 23.103125 223.10938 22.509375Q222.59375 21.915625 221.8125 21.915625Q221.03125 21.915625 220.5 22.509375Q219.98438 23.0875 219.98438 24.290625ZM226.28125 27.4L226.28125 21.18125L227.23438 21.18125L227.23438 22.11875Q227.59375 21.4625 227.89062 21.259375Q228.20312 21.040625 228.57812 21.040625Q229.10938 21.040625 229.65625 21.36875L229.29688 22.353125Q228.90625 22.11875 228.53125 22.11875Q228.17188 22.11875 227.89062 22.3375Q227.625 22.540625 227.51562 22.915625Q227.32812 23.478125 227.32812 24.134375L227.32812 27.4L226.28125 27.4ZM234.54688 25.4L235.64062 25.525Q235.39062 26.478125 234.6875 27.009375Q233.98438 27.540625 232.90625 27.540625Q231.54688 27.540625 230.73438 26.696875Q229.9375 25.853125 229.9375 24.3375Q229.9375 22.775 230.75 21.915625Q231.5625 21.040625 232.84375 21.040625Q234.09375 21.040625 234.875 21.884375Q235.67188 22.728125 235.67188 24.275Q235.67188 24.36875 235.67188 24.55625L231.03125 24.55625Q231.09375 25.5875 231.60938 26.134375Q232.125 26.665625 232.90625 26.665625Q233.48438 26.665625 233.89062 26.36875Q234.3125 26.05625 234.54688 25.4ZM231.09375 23.696875L234.5625 23.696875Q234.5 22.9 234.17188 22.509375Q233.65625 21.9 232.85938 21.9Q232.125 21.9 231.625 22.384375Q231.14062 22.86875 231.09375 23.696875ZM239.90625 24.290625Q239.90625 22.55625 240.85938 21.728125Q241.65625 21.040625 242.8125 21.040625Q244.09375 21.040625 244.90625 21.884375Q245.73438 22.7125 245.73438 24.196875Q245.73438 25.4 245.375 26.0875Q245.01562 26.775 244.3125 27.165625Q243.625 27.540625 242.8125 27.540625Q241.51562 27.540625 240.70312 26.7125Q239.90625 25.86875 239.90625 24.290625ZM240.98438 24.290625Q240.98438 25.478125 241.5 26.071875Q242.03125 26.665625 242.8125 26.665625Q243.60938 26.665625 244.125 26.071875Q244.64062 25.478125 244.64062 24.259375Q244.64062 23.103125 244.10938 22.509375Q243.59375 21.915625 242.8125 21.915625Q242.03125 21.915625 241.5 22.509375Q240.98438 23.0875 240.98438 24.290625ZM249.59375 26.4625L249.75 27.384375Q249.29688 27.478125 248.95312 27.478125Q248.375 27.478125 248.0625 27.30625Q247.75 27.11875 247.60938 26.821875Q247.48438 26.525 247.48438 25.571875L247.48438 21.99375L246.71875 21.99375L246.71875 21.18125L247.48438 21.18125L247.48438 19.634375L248.53125 19.009375L248.53125 21.18125L249.59375 21.18125L249.59375 21.99375L248.53125 21.99375L248.53125 25.634375Q248.53125 26.0875 248.57812 26.2125Q248.64062 26.3375 248.76562 26.415625Q248.89062 26.49375 249.125 26.49375Q249.3125 26.49375 249.59375 26.4625ZM252.59375 26.4625L252.75 27.384375Q252.29688 27.478125 251.95312 27.478125Q251.375 27.478125 251.0625 27.30625Q250.75 27.11875 250.60938 26.821875Q250.48438 26.525 250.48438 25.571875L250.48438 21.99375L249.71875 21.99375L249.71875 21.18125L250.48438 21.18125L250.48438 19.634375L251.53125 19.009375L251.53125 21.18125L252.59375 21.18125L252.59375 21.99375L251.53125 21.99375L251.53125 25.634375Q251.53125 26.0875 251.57812 26.2125Q251.64062 26.3375 251.76562 26.415625Q251.89062 26.49375 252.125 26.49375Q252.3125 26.49375 252.59375 26.4625ZM253.29688 20.025L253.29688 18.80625L254.35938 18.80625L254.35938 20.025L253.29688 20.025ZM253.29688 27.4L253.29688 21.18125L254.35938 21.18125L254.35938 27.4L253.29688 27.4ZM256.29688 27.4L256.29688 21.18125L257.23438 21.18125L257.23438 22.05625Q257.53125 21.5875 258.01562 21.321875Q258.5 21.040625 259.125 21.040625Q259.8125 21.040625 260.25 21.321875Q260.70312 21.603125 260.875 22.11875Q261.625 21.040625 262.79688 21.040625Q263.73438 21.040625 264.21875 21.55625Q264.71875 22.05625 264.71875 23.134375L264.71875 27.4L263.67188 27.4L263.67188 23.478125Q263.67188 22.853125 263.5625 22.571875Q263.46875 22.290625 263.20312 22.11875Q262.9375 21.946875 262.5625 21.946875Q261.90625 21.946875 261.46875 22.384375Q261.04688 22.821875 261.04688 23.790625L261.04688 27.4L259.98438 27.4L259.98438 23.353125Q259.98438 22.65 259.71875 22.30625Q259.46875 21.946875 258.89062 21.946875Q258.4375 21.946875 258.0625 22.18125Q257.6875 22.415625 257.51562 22.86875Q257.34375 23.321875 257.34375 24.165625L257.34375 27.4L256.29688 27.4ZM266.90625 24.290625Q266.90625 22.55625 267.85938 21.728125Q268.65625 21.040625 269.8125 21.040625Q271.09375 21.040625 271.90625 21.884375Q272.73438 22.7125 272.73438 24.196875Q272.73438 25.4 272.375 26.0875Q272.01562 26.775 271.3125 27.165625Q270.625 27.540625 269.8125 27.540625Q268.51562 27.540625 267.70312 26.7125Q266.90625 25.86875 266.90625 24.290625ZM267.98438 24.290625Q267.98438 25.478125 268.5 26.071875Q269.03125 26.665625 269.8125 26.665625Q270.60938 26.665625 271.125 26.071875Q271.64062 25.478125 271.64062 24.259375Q271.64062 23.103125 271.10938 22.509375Q270.59375 21.915625 269.8125 21.915625Q269.03125 21.915625 268.5 22.509375Q267.98438 23.0875 267.98438 24.290625Z" fill-rule="nonzero"/><path fill="#fbbc04" fill-opacity="0.7019608" d="M301.5 23.4C301.5 26.713709 298.81372 29.4 295.5 29.4C292.18628 29.4 289.5 26.713709 289.5 23.4C289.5 20.086292 292.18628 17.4 295.5 17.4C298.81372 17.4 301.5 20.086292 301.5 23.4Z" fill-rule="nonzero"/><path fill="#1a1a1a" d="M312.875 27.4L309.54688 18.80625L310.78125 18.80625L313.01562 25.05625Q313.28125 25.80625 313.46875 26.4625Q313.67188 25.759375 313.9375 25.05625L316.25 18.80625L317.40625 18.80625L314.04688 27.4L312.875 27.4ZM321.35938 26.634375Q320.76562 27.134375 320.21875 27.3375Q319.6875 27.540625 319.0625 27.540625Q318.03125 27.540625 317.48438 27.040625Q316.9375 26.540625 316.9375 25.759375Q316.9375 25.30625 317.14062 24.93125Q317.34375 24.540625 317.6875 24.321875Q318.03125 24.0875 318.45312 23.978125Q318.75 23.884375 319.39062 23.80625Q320.65625 23.665625 321.26562 23.446875Q321.26562 23.228125 321.26562 23.18125Q321.26562 22.525 320.96875 22.259375Q320.5625 21.915625 319.76562 21.915625Q319.03125 21.915625 318.67188 22.18125Q318.3125 22.43125 318.14062 23.0875L317.10938 22.946875Q317.25 22.290625 317.57812 21.884375Q317.90625 21.478125 318.51562 21.259375Q319.125 21.040625 319.92188 21.040625Q320.71875 21.040625 321.21875 21.228125Q321.71875 21.415625 321.95312 21.696875Q322.1875 21.978125 322.28125 22.415625Q322.32812 22.68125 322.32812 23.384375L322.32812 24.790625Q322.32812 26.259375 322.39062 26.65Q322.46875 27.040625 322.67188 27.4L321.5625 27.4Q321.40625 27.071875 321.35938 26.634375ZM321.26562 24.275Q320.6875 24.509375 319.54688 24.68125Q318.89062 24.775 318.625 24.9Q318.35938 25.009375 318.20312 25.228125Q318.0625 25.446875 318.0625 25.728125Q318.0625 26.15 318.375 26.43125Q318.70312 26.7125 319.3125 26.7125Q319.92188 26.7125 320.39062 26.446875Q320.875 26.18125 321.09375 25.7125Q321.26562 25.353125 321.26562 24.665625L321.26562 24.275ZM324.26562 27.4L324.26562 18.80625L325.32812 18.80625L325.32812 27.4L324.26562 27.4ZM326.90625 24.290625Q326.90625 22.55625 327.85938 21.728125Q328.65625 21.040625 329.8125 21.040625Q331.09375 21.040625 331.90625 21.884375Q332.73438 22.7125 332.73438 24.196875Q332.73438 25.4 332.375 26.0875Q332.01562 26.775 331.3125 27.165625Q330.625 27.540625 329.8125 27.540625Q328.51562 27.540625 327.70312 26.7125Q326.90625 25.86875 326.90625 24.290625ZM327.98438 24.290625Q327.98438 25.478125 328.5 26.071875Q329.03125 26.665625 329.8125 26.665625Q330.60938 26.665625 331.125 26.071875Q331.64062 25.478125 331.64062 24.259375Q331.64062 23.103125 331.10938 22.509375Q330.59375 21.915625 329.8125 21.915625Q329.03125 21.915625 328.5 22.509375Q327.98438 23.0875 327.98438 24.290625ZM334.28125 27.4L334.28125 21.18125L335.23438 21.18125L335.23438 22.11875Q335.59375 21.4625 335.89062 21.259375Q336.20312 21.040625 336.57812 21.040625Q337.10938 21.040625 337.65625 21.36875L337.29688 22.353125Q336.90625 22.11875 336.53125 22.11875Q336.17188 22.11875 335.89062 22.3375Q335.625 22.540625 335.51562 22.915625Q335.32812 23.478125 335.32812 24.134375L335.32812 27.4L334.28125 27.4ZM342.54688 25.4L343.64062 25.525Q343.39062 26.478125 342.6875 27.009375Q341.98438 27.540625 340.90625 27.540625Q339.54688 27.540625 338.73438 26.696875Q337.9375 25.853125 337.9375 24.3375Q337.9375 22.775 338.75 21.915625Q339.5625 21.040625 340.84375 21.040625Q342.09375 21.040625 342.875 21.884375Q343.67188 22.728125 343.67188 24.275Q343.67188 24.36875 343.67188 24.55625L339.03125 24.55625Q339.09375 25.5875 339.60938 26.134375Q340.125 26.665625 340.90625 26.665625Q341.48438 26.665625 341.89062 26.36875Q342.3125 26.05625 342.54688 25.4ZM339.09375 23.696875L342.5625 23.696875Q342.5 22.9 342.17188 22.509375Q341.65625 21.9 340.85938 21.9Q340.125 21.9 339.625 22.384375Q339.14062 22.86875 339.09375 23.696875ZM352.35938 26.634375Q351.76562 27.134375 351.21875 27.3375Q350.6875 27.540625 350.0625 27.540625Q349.03125 27.540625 348.48438 27.040625Q347.9375 26.540625 347.9375 25.759375Q347.9375 25.30625 348.14062 24.93125Q348.34375 24.540625 348.6875 24.321875Q349.03125 24.0875 349.45312 23.978125Q349.75 23.884375 350.39062 23.80625Q351.65625 23.665625 352.26562 23.446875Q352.26562 23.228125 352.26562 23.18125Q352.26562 22.525 351.96875 22.259375Q351.5625 21.915625 350.76562 21.915625Q350.03125 21.915625 349.67188 22.18125Q349.3125 22.43125 349.14062 23.0875L348.10938 22.946875Q348.25 22.290625 348.57812 21.884375Q348.90625 21.478125 349.51562 21.259375Q350.125 21.040625 350.92188 21.040625Q351.71875 21.040625 352.21875 21.228125Q352.71875 21.415625 352.95312 21.696875Q353.1875 21.978125 353.28125 22.415625Q353.32812 22.68125 353.32812 23.384375L353.32812 24.790625Q353.32812 26.259375 353.39062 26.65Q353.46875 27.040625 353.67188 27.4L352.5625 27.4Q352.40625 27.071875 352.35938 26.634375ZM352.26562 24.275Q351.6875 24.509375 350.54688 24.68125Q349.89062 24.775 349.625 24.9Q349.35938 25.009375 349.20312 25.228125Q349.0625 25.446875 349.0625 25.728125Q349.0625 26.15 349.375 26.43125Q349.70312 26.7125 350.3125 26.7125Q350.92188 26.7125 351.39062 26.446875Q351.875 26.18125 352.09375 25.7125Q352.26562 25.353125 352.26562 24.665625L352.26562 24.275ZM359.35938 25.11875L360.39062 25.259375Q360.21875 26.321875 359.51562 26.93125Q358.8125 27.540625 357.79688 27.540625Q356.51562 27.540625 355.73438 26.7125Q354.96875 25.86875 354.96875 24.30625Q354.96875 23.30625 355.29688 22.55625Q355.64062 21.790625 356.3125 21.415625Q357.0 21.040625 357.8125 21.040625Q358.8125 21.040625 359.45312 21.55625Q360.10938 22.05625 360.29688 23.009375L359.26562 23.165625Q359.125 22.540625 358.75 22.228125Q358.375 21.9 357.84375 21.9Q357.04688 21.9 356.54688 22.478125Q356.04688 23.040625 356.04688 24.275Q356.04688 25.540625 356.53125 26.103125Q357.01562 26.665625 357.78125 26.665625Q358.40625 26.665625 358.8125 26.290625Q359.23438 25.915625 359.35938 25.11875ZM365.35938 25.11875L366.39062 25.259375Q366.21875 26.321875 365.51562 26.93125Q364.8125 27.540625 363.79688 27.540625Q362.51562 27.540625 361.73438 26.7125Q360.96875 25.86875 360.96875 24.30625Q360.96875 23.30625 361.29688 22.55625Q361.64062 21.790625 362.3125 21.415625Q363.0 21.040625 363.8125 21.040625Q364.8125 21.040625 365.45312 21.55625Q366.10938 22.05625 366.29688 23.009375L365.26562 23.165625Q365.125 22.540625 364.75 22.228125Q364.375 21.9 363.84375 21.9Q363.04688 21.9 362.54688 22.478125Q362.04688 23.040625 362.04688 24.275Q362.04688 25.540625 362.53125 26.103125Q363.01562 26.665625 363.78125 26.665625Q364.40625 26.665625 364.8125 26.290625Q365.23438 25.915625 365.35938 25.11875ZM371.54688 25.4L372.64062 25.525Q372.39062 26.478125 371.6875 27.009375Q370.98438 27.540625 369.90625 27.540625Q368.54688 27.540625 367.73438 26.696875Q366.9375 25.853125 366.9375 24.3375Q366.9375 22.775 367.75 21.915625Q368.5625 21.040625 369.84375 21.040625Q371.09375 21.040625 371.875 21.884375Q372.67188 22.728125 372.67188 24.275Q372.67188 24.36875 372.67188 24.55625L368.03125 24.55625Q368.09375 25.5875 368.60938 26.134375Q369.125 26.665625 369.90625 26.665625Q370.48438 26.665625 370.89062 26.36875Q371.3125 26.05625 371.54688 25.4ZM368.09375 23.696875L371.5625 23.696875Q371.5 22.9 371.17188 22.509375Q370.65625 21.9 369.85938 21.9Q369.125 21.9 368.625 22.384375Q368.14062 22.86875 368.09375 23.696875ZM376.59375 26.4625L376.75 27.384375Q376.29688 27.478125 375.95312 27.478125Q375.375 27.478125 375.0625 27.30625Q374.75 27.11875 374.60938 26.821875Q374.48438 26.525 374.48438 25.571875L374.48438 21.99375L373.71875 21.99375L373.71875 21.18125L374.48438 21.18125L374.48438 19.634375L375.53125 19.009375L375.53125 21.18125L376.59375 21.18125L376.59375 21.99375L375.53125 21.99375L375.53125 25.634375Q375.53125 26.0875 375.57812 26.2125Q375.64062 26.3375 375.76562 26.415625Q375.89062 26.49375 376.125 26.49375Q376.3125 26.49375 376.59375 26.4625ZM379.59375 26.4625L379.75 27.384375Q379.29688 27.478125 378.95312 27.478125Q378.375 27.478125 378.0625 27.30625Q377.75 27.11875 377.60938 26.821875Q377.48438 26.525 377.48438 25.571875L377.48438 21.99375L376.71875 21.99375L376.71875 21.18125L377.48438 21.18125L377.48438 19.634375L378.53125 19.009375L378.53125 21.18125L379.59375 21.18125L379.59375 21.99375L378.53125 21.99375L378.53125 25.634375Q378.53125 26.0875 378.57812 26.2125Q378.64062 26.3375 378.76562 26.415625Q378.89062 26.49375 379.125 26.49375Q379.3125 26.49375 379.59375 26.4625ZM384.35938 26.634375Q383.76562 27.134375 383.21875 27.3375Q382.6875 27.540625 382.0625 27.540625Q381.03125 27.540625 380.48438 27.040625Q379.9375 26.540625 379.9375 25.759375Q379.9375 25.30625 380.14062 24.93125Q380.34375 24.540625 380.6875 24.321875Q381.03125 24.0875 381.45312 23.978125Q381.75 23.884375 382.39062 23.80625Q383.65625 23.665625 384.26562 23.446875Q384.26562 23.228125 384.26562 23.18125Q384.26562 22.525 383.96875 22.259375Q383.5625 21.915625 382.76562 21.915625Q382.03125 21.915625 381.67188 22.18125Q381.3125 22.43125 381.14062 23.0875L380.10938 22.946875Q380.25 22.290625 380.57812 21.884375Q380.90625 21.478125 381.51562 21.259375Q382.125 21.040625 382.92188 21.040625Q383.71875 21.040625 384.21875 21.228125Q384.71875 21.415625 384.95312 21.696875Q385.1875 21.978125 385.28125 22.415625Q385.32812 22.68125 385.32812 23.384375L385.32812 24.790625Q385.32812 26.259375 385.39062 26.65Q385.46875 27.040625 385.67188 27.4L384.5625 27.4Q384.40625 27.071875 384.35938 26.634375ZM384.26562 24.275Q383.6875 24.509375 382.54688 24.68125Q381.89062 24.775 381.625 24.9Q381.35938 25.009375 381.20312 25.228125Q381.0625 25.446875 381.0625 25.728125Q381.0625 26.15 381.375 26.43125Q381.70312 26.7125 382.3125 26.7125Q382.92188 26.7125 383.39062 26.446875Q383.875 26.18125 384.09375 25.7125Q384.26562 25.353125 384.26562 24.665625L384.26562 24.275ZM388.26562 27.4L387.28125 27.4L387.28125 18.80625L388.34375 18.80625L388.34375 21.86875Q389.01562 21.040625 390.04688 21.040625Q390.625 21.040625 391.125 21.275Q391.64062 21.49375 391.96875 21.915625Q392.3125 22.3375 392.5 22.93125Q392.6875 23.525 392.6875 24.196875Q392.6875 25.790625 391.89062 26.665625Q391.09375 27.540625 390.0 27.540625Q388.89062 27.540625 388.26562 26.61875L388.26562 27.4ZM388.25 24.24375Q388.25 25.353125 388.5625 25.853125Q389.0625 26.665625 389.90625 26.665625Q390.59375 26.665625 391.09375 26.071875Q391.60938 25.478125 391.60938 24.275Q391.60938 23.05625 391.125 22.478125Q390.64062 21.9 389.95312 21.9Q389.26562 21.9 388.75 22.509375Q388.25 23.103125 388.25 24.24375ZM394.29688 20.025L394.29688 18.80625L395.35938 18.80625L395.35938 20.025L394.29688 20.025ZM394.29688 27.4L394.29688 21.18125L395.35938 21.18125L395.35938 27.4L394.29688 27.4ZM397.26562 27.4L397.26562 18.80625L398.32812 18.80625L398.32812 27.4L397.26562 27.4ZM404.54688 25.4L405.64062 25.525Q405.39062 26.478125 404.6875 27.009375Q403.98438 27.540625 402.90625 27.540625Q401.54688 27.540625 400.73438 26.696875Q399.9375 25.853125 399.9375 24.3375Q399.9375 22.775 400.75 21.915625Q401.5625 21.040625 402.84375 21.040625Q404.09375 21.040625 404.875 21.884375Q405.67188 22.728125 405.67188 24.275Q405.67188 24.36875 405.67188 24.55625L401.03125 24.55625Q401.09375 25.5875 401.60938 26.134375Q402.125 26.665625 402.90625 26.665625Q403.48438 26.665625 403.89062 26.36875Q404.3125 26.05625 404.54688 25.4ZM401.09375 23.696875L404.5625 23.696875Q404.5 22.9 404.17188 22.509375Q403.65625 21.9 402.85938 21.9Q402.125 21.9 401.625 22.384375Q401.14062 22.86875 401.09375 23.696875Z" fill-rule="nonzero"/></svg>