<svg version="1.1" viewBox="0.0 0.0 532.0 328.0" fill="none" stroke="none" stroke-linecap="square" stroke-miterlimit="10" width="532" height="328" xmlns:xlink="http://www.w3.org/1999/xlink" xmlns="http://www.w3.org/2000/svg"><path fill="#ffffff" d="M0 0L532.0 0L532.0 328.0L0 328.0L0 0Z" fill-rule="nonzero"/><path stroke="#333333" stroke-width="1.0" stroke-linecap="butt" d="M81.5 285.5L515.5 285.5" fill-rule="nonzero"/><path stroke="#cccccc" stroke-width="1.0" stroke-linecap="butt" d="M81.5 261.5L515.5 261.5" fill-rule="nonzero"/><path stroke="#cccccc" stroke-width="1.0" stroke-linecap="butt" d="M81.5 238.5L515.5 238.5" fill-rule="nonzero"/><path stroke="#cccccc" stroke-width="1.0" stroke-linecap="butt" d="M81.5 214.5L515.5 214.5" fill-rule="nonzero"/><path stroke="#cccccc" stroke-width="1.0" stroke-linecap="butt" d="M81.5 190.5L515.5 190.5" fill-rule="nonzero"/><path stroke="#cccccc" stroke-width="1.0" stroke-linecap="butt" d="M81.5 166.5L515.5 166.5" fill-rule="nonzero"/><path stroke="#cccccc" stroke-width="1.0" stroke-linecap="butt" d="M81.5 143.5L515.5 143.5" fill-rule="nonzero"/><path stroke="#cccccc" stroke-width="1.0" stroke-linecap="butt" d="M81.5 119.5L515.5 119.5" fill-rule="nonzero"/><path stroke="#cccccc" stroke-width="1.0" stroke-linecap="butt" d="M81.5 95.5L515.5 95.5" fill-rule="nonzero"/><path stroke="#cccccc" stroke-width="1.0" stroke-linecap="butt" d="M81.5 72.5L515.5 72.5" fill-rule="nonzero"/><path stroke="#cccccc" stroke-width="1.0" stroke-linecap="butt" d="M81.5 48.5L515.5 48.5" fill-rule="nonzero"/><path stroke="#000000" stroke-width="1.0" stroke-linecap="butt" d="M515.5 285.5L81.5 285.5" fill-rule="nonzero"/><path stroke="#000000" stroke-width="1.0" stroke-linecap="butt" d="M81.5 285.5L81.5 48.5" fill-rule="nonzero"/><clipPath id="id_0"><path d="M81.4 48.333332L515.6 48.333332L515.6 285.6L81.4 285.6L81.4 48.333332Z" clip-rule="nonzero"/></clipPath><path stroke="#4285f4" stroke-width="4.0" stroke-linecap="butt" clip-path="url(#id_0)" d="M135.675 48.333332C135.675 48.333332 208.04167 48.333332 244.225 48.333332C280.40833 48.333332 316.59167 48.333332 352.775 48.333332C388.95834 48.333332 461.325 48.333332 461.325 48.333332" fill-rule="nonzero"/><path stroke="#ea4335" stroke-width="2.0" stroke-linecap="butt" clip-path="url(#id_0)" d="M135.675 95.78667C135.675 95.78667 208.04167 95.78667 244.225 95.78667C280.40833 95.78667 316.59167 95.78667 352.775 95.78667C388.95834 95.78667 461.325 95.78667 461.325 95.78667" fill-rule="nonzero"/><path stroke="#fbbc04" stroke-width="2.0" stroke-linecap="butt" stroke-opacity="0.7019608" clip-path="url(#id_0)" d="M135.675 115.06458C135.675 115.06458 208.04167 106.41424 244.225 100.23542C280.40833 94.056595 316.59167 82.93472 352.775 77.99167C388.95834 73.048615 461.325 70.57708 461.325 70.57708" fill-rule="nonzero"/><path fill="#4285f4" clip-path="url(#id_0)" d="M139.175 48.333332C139.175 50.26633 137.608 51.833332 135.675 51.833332C133.742 51.833332 132.175 50.26633 132.175 48.333332C132.175 46.400337 133.742 44.833332 135.675 44.833332C137.608 44.833332 139.175 46.400337 139.175 48.333332Z" fill-rule="nonzero"/><path fill="#4285f4" clip-path="url(#id_0)" d="M247.725 48.333332C247.725 50.26633 246.15799 51.833332 244.225 51.833332C242.292 51.833332 240.725 50.26633 240.725 48.333332C240.725 46.400337 242.292 44.833332 244.225 44.833332C246.15799 44.833332 247.725 46.400337 247.725 48.333332Z" fill-rule="nonzero"/><path fill="#4285f4" clip-path="url(#id_0)" d="M356.275 48.333332C356.275 50.26633 354.708 51.833332 352.775 51.833332C350.842 51.833332 349.275 50.26633 349.275 48.333332C349.275 46.400337 350.842 44.833332 352.775 44.833332C354.708 44.833332 356.275 46.400337 356.275 48.333332Z" fill-rule="nonzero"/><path fill="#4285f4" clip-path="url(#id_0)" d="M464.825 48.333332C464.825 50.26633 463.258 51.833332 461.325 51.833332C459.392 51.833332 457.825 50.26633 457.825 48.333332C457.825 46.400337 459.392 44.833332 461.325 44.833332C463.258 44.833332 464.825 46.400337 464.825 48.333332Z" fill-rule="nonzero"/><path fill="#ea4335" clip-path="url(#id_0)" d="M139.175 95.78667C139.175 97.719666 137.608 99.28667 135.675 99.28667C133.742 99.28667 132.175 97.719666 132.175 95.78667C132.175 93.85367 133.742 92.28667 135.675 92.28667C137.608 92.28667 139.175 93.85367 139.175 95.78667Z" fill-rule="nonzero"/><path fill="#ea4335" clip-path="url(#id_0)" d="M247.725 95.78667C247.725 97.719666 246.15799 99.28667 244.225 99.28667C242.292 99.28667 240.725 97.719666 240.725 95.78667C240.725 93.85367 242.292 92.28667 244.225 92.28667C246.15799 92.28667 247.725 93.85367 247.725 95.78667Z" fill-rule="nonzero"/><path fill="#ea4335" clip-path="url(#id_0)" d="M356.275 95.78667C356.275 97.719666 354.708 99.28667 352.775 99.28667C350.842 99.28667 349.275 97.719666 349.275 95.78667C349.275 93.85367 350.842 92.28667 352.775 92.28667C354.708 92.28667 356.275 93.85367 356.275 95.78667Z" fill-rule="nonzero"/><path fill="#ea4335" clip-path="url(#id_0)" d="M464.825 95.78667C464.825 97.719666 463.258 99.28667 461.325 99.28667C459.392 99.28667 457.825 97.719666 457.825 95.78667C457.825 93.85367 459.392 92.28667 461.325 92.28667C463.258 92.28667 464.825 93.85367 464.825 95.78667Z" fill-rule="nonzero"/><path fill="#fbbc04" fill-opacity="0.7019608" clip-path="url(#id_0)" d="M139.175 115.06458C139.175 116.99758 137.608 118.56458 135.675 118.56458C133.742 118.56458 132.175 116.99758 132.175 115.06458C132.175 113.131584 133.742 111.56458 135.675 111.56458C137.608 111.56458 139.175 113.131584 139.175 115.06458Z" fill-rule="nonzero"/><path fill="#fbbc04" fill-opacity="0.7019608" clip-path="url(#id_0)" d="M247.725 100.23542C247.725 102.16841 246.15799 103.73542 244.225 103.73542C242.292 103.73542 240.725 102.16841 240.725 100.23542C240.725 98.30242 242.292 96.73542 244.225 96.73542C246.15799 96.73542 247.725 98.30242 247.725 100.23542Z" fill-rule="nonzero"/><path fill="#fbbc04" fill-opacity="0.7019608" clip-path="url(#id_0)" d="M356.275 77.99167C356.275 79.92466 354.708 81.49167 352.775 81.49167C350.842 81.49167 349.275 79.92466 349.275 77.99167C349.275 76.05867 350.842 74.49167 352.775 74.49167C354.708 74.49167 356.275 76.05867 356.275 77.99167Z" fill-rule="nonzero"/><path fill="#fbbc04" fill-opacity="0.7019608" clip-path="url(#id_0)" d="M464.825 70.57708C464.825 72.51008 463.258 74.07708 461.325 74.07708C459.392 74.07708 457.825 72.51008 457.825 70.57708C457.825 68.64409 459.392 67.07708 461.325 67.07708C463.258 67.07708 464.825 68.64409 464.825 70.57708Z" fill-rule="nonzero"/><path stroke="#000000" stroke-width="1.0" stroke-linecap="butt" d="M135.5 291.5L135.5 279.5" fill-rule="nonzero"/><path stroke="#000000" stroke-width="1.0" stroke-linecap="butt" d="M244.5 291.5L244.5 279.5" fill-rule="nonzero"/><path stroke="#000000" stroke-width="1.0" stroke-linecap="butt" d="M352.5 291.5L352.5 279.5" fill-rule="nonzero"/><path stroke="#000000" stroke-width="1.0" stroke-linecap="butt" d="M461.5 291.5L461.5 279.5" fill-rule="nonzero"/><path stroke="#000000" stroke-width="1.0" stroke-linecap="butt" d="M75.5 285.5L87.5 285.5" fill-rule="nonzero"/><path stroke="#000000" stroke-width="1.0" stroke-linecap="butt" d="M75.5 261.5L87.5 261.5" fill-rule="nonzero"/><path stroke="#000000" stroke-width="1.0" stroke-linecap="butt" d="M75.5 238.5L87.5 238.5" fill-rule="nonzero"/><path stroke="#000000" stroke-width="1.0" stroke-linecap="butt" d="M75.5 214.5L87.5 214.5" fill-rule="nonzero"/><path stroke="#000000" stroke-width="1.0" stroke-linecap="butt" d="M75.5 190.5L87.5 190.5" fill-rule="nonzero"/><path stroke="#000000" stroke-width="1.0" stroke-linecap="butt" d="M75.5 166.5L87.5 166.5" fill-rule="nonzero"/><path stroke="#000000" stroke-width="1.0" stroke-linecap="butt" d="M75.5 143.5L87.5 143.5" fill-rule="nonzero"/><path stroke="#000000" stroke-width="1.0" stroke-linecap="butt" d="M75.5 119.5L87.5 119.5" fill-rule="nonzero"/><path stroke="#000000" stroke-width="1.0" stroke-linecap="butt" d="M75.5 95.5L87.5 95.5" fill-rule="nonzero"/><path stroke="#000000" stroke-width="1.0" stroke-linecap="butt" d="M75.5 72.5L87.5 72.5" fill-rule="nonzero"/><path stroke="#000000" stroke-width="1.0" stroke-linecap="butt" d="M75.5 48.5L87.5 48.5" fill-rule="nonzero"/><path fill="#000000" d="M62.9 285.36563Q62.9 283.83438 63.2125 282.9125Q63.525 281.975 64.13438 281.475Q64.75938 280.975 65.69688 280.975Q66.38438 280.975 66.9 281.25626Q67.43125 281.5375 67.775 282.06876Q68.11875 282.58438 68.30625 283.33438Q68.49375 284.08438 68.49375 285.36563Q68.49375 286.88126 68.18125 287.80313Q67.88438 288.725 67.25938 289.24063Q66.65 289.74063 65.69688 289.74063Q64.4625 289.74063 63.74375 288.85Q62.9 287.7875 62.9 285.36563ZM63.978127 285.36563Q63.978127 287.475 64.47813 288.17813Q64.97813 288.88126 65.69688 288.88126Q66.43125 288.88126 66.91563 288.17813Q67.41563 287.475 67.41563 285.36563Q67.41563 283.24063 66.91563 282.55313Q66.43125 281.85 65.68125 281.85Q64.9625 281.85 64.525 282.45938Q63.978127 283.24063 63.978127 285.36563Z" fill-rule="nonzero"/><path fill="#000000" d="M59.86875 265.87332L58.821877 265.87332L58.821877 259.15457Q58.43125 259.51395 57.80625 259.88895Q57.196877 260.24832 56.7125 260.4202L56.7125 259.40457Q57.5875 258.9827 58.24375 258.40457Q58.915627 257.81082 59.196877 257.24832L59.86875 257.24832L59.86875 265.87332ZM62.9 261.63895Q62.9 260.1077 63.2125 259.18582Q63.525 258.24832 64.13438 257.74832Q64.75938 257.24832 65.69688 257.24832Q66.38438 257.24832 66.9 257.52957Q67.43125 257.81082 67.775 258.34207Q68.11875 258.8577 68.30625 259.6077Q68.49375 260.3577 68.49375 261.63895Q68.49375 263.15457 68.18125 264.07645Q67.88438 264.99832 67.25938 265.51395Q66.65 266.01395 65.69688 266.01395Q64.4625 266.01395 63.74375 265.12332Q62.9 264.06082 62.9 261.63895ZM63.978127 261.63895Q63.978127 263.74832 64.47813 264.45145Q64.97813 265.15457 65.69688 265.15457Q66.43125 265.15457 66.91563 264.45145Q67.41563 263.74832 67.41563 261.63895Q67.41563 259.51395 66.91563 258.82645Q66.43125 258.12332 65.68125 258.12332Q64.9625 258.12332 64.525 258.7327Q63.978127 259.51395 63.978127 261.63895Z" fill-rule="nonzero"/><path fill="#000000" d="M61.446877 241.13104L61.446877 242.14667L55.759377 242.14667Q55.759377 241.77167 55.884377 241.4123Q56.103127 240.83417 56.571877 240.27167Q57.05625 239.70917 57.9625 238.9748Q59.36875 237.81854 59.853127 237.14667Q60.353127 236.4748 60.353127 235.88104Q60.353127 235.25604 59.9 234.83417Q59.446877 234.39667 58.728127 234.39667Q57.9625 234.39667 57.509377 234.8498Q57.05625 235.30292 57.040627 236.11542L55.9625 236.00604Q56.071877 234.7873 56.790627 234.1623Q57.525 233.52167 58.759377 233.52167Q59.99375 233.52167 60.7125 234.20917Q61.43125 234.89667 61.43125 235.9123Q61.43125 236.42792 61.2125 236.92792Q61.009377 237.4123 60.509377 237.9748Q60.025 238.52167 58.9 239.4748Q57.946877 240.27167 57.665627 240.56854Q57.4 240.8498 57.228127 241.13104L61.446877 241.13104ZM62.9 237.9123Q62.9 236.38104 63.2125 235.45917Q63.525 234.52167 64.13438 234.02167Q64.75938 233.52167 65.69688 233.52167Q66.38438 233.52167 66.9 233.80292Q67.43125 234.08417 67.775 234.61542Q68.11875 235.13104 68.30625 235.88104Q68.49375 236.63104 68.49375 237.9123Q68.49375 239.42792 68.18125 240.3498Q67.88438 241.27167 67.25938 241.7873Q66.65 242.2873 65.69688 242.2873Q64.4625 242.2873 63.74375 241.39667Q62.9 240.33417 62.9 237.9123ZM63.978127 237.9123Q63.978127 240.02167 64.47813 240.7248Q64.97813 241.42792 65.69688 241.42792Q66.43125 241.42792 66.91563 240.7248Q67.41563 240.02167 67.41563 237.9123Q67.41563 235.7873 66.91563 235.0998Q66.43125 234.39667 65.68125 234.39667Q64.9625 234.39667 64.525 235.00604Q63.978127 235.7873 63.978127 237.9123Z" fill-rule="nonzero"/><path fill="#000000" d="M55.9 216.15437L56.9625 216.01375Q57.134377 216.90437 57.571877 217.31062Q58.009377 217.70125 58.634377 217.70125Q59.384377 217.70125 59.9 217.18562Q60.415627 216.67 60.415627 215.90437Q60.415627 215.18562 59.93125 214.71687Q59.4625 214.2325 58.728127 214.2325Q58.43125 214.2325 57.978127 214.3575L58.103127 213.42Q58.2125 213.43562 58.275 213.43562Q58.946877 213.43562 59.478127 213.09187Q60.025 212.7325 60.025 211.99812Q60.025 211.42 59.634377 211.045Q59.24375 210.65437 58.61875 210.65437Q58.009377 210.65437 57.5875 211.045Q57.18125 211.43562 57.071877 212.20125L56.009377 212.01375Q56.196877 210.96687 56.884377 210.38875Q57.571877 209.795 58.5875 209.795Q59.290627 209.795 59.884377 210.1075Q60.478127 210.40437 60.790627 210.92Q61.103127 211.43562 61.103127 212.02937Q61.103127 212.57625 60.80625 213.045Q60.509377 213.49812 59.93125 213.76375Q60.68125 213.93562 61.103127 214.49812Q61.525 215.045 61.525 215.88875Q61.525 217.01375 60.696877 217.795Q59.884377 218.57625 58.634377 218.57625Q57.509377 218.57625 56.759377 217.90437Q56.009377 217.21687 55.9 216.15437ZM62.9 214.18562Q62.9 212.65437 63.2125 211.7325Q63.525 210.795 64.13438 210.295Q64.75938 209.795 65.69688 209.795Q66.38438 209.795 66.9 210.07625Q67.43125 210.3575 67.775 210.88875Q68.11875 211.40437 68.30625 212.15437Q68.49375 212.90437 68.49375 214.18562Q68.49375 215.70125 68.18125 216.62312Q67.88438 217.545 67.25938 218.06062Q66.65 218.56062 65.69688 218.56062Q64.4625 218.56062 63.74375 217.67Q62.9 216.6075 62.9 214.18562ZM63.978127 214.18562Q63.978127 216.295 64.47813 216.99812Q64.97813 217.70125 65.69688 217.70125Q66.43125 217.70125 66.91563 216.99812Q67.41563 216.295 67.41563 214.18562Q67.41563 212.06062 66.91563 211.37312Q66.43125 210.67 65.68125 210.67Q64.9625 210.67 64.525 211.27937Q63.978127 212.06062 63.978127 214.18562Z" fill-rule="nonzero"/><path fill="#000000" d="M59.275 194.69333L59.275 192.63083L55.55625 192.63083L55.55625 191.66208L59.478127 186.09958L60.3375 186.09958L60.3375 191.66208L61.49375 191.66208L61.49375 192.63083L60.3375 192.63083L60.3375 194.69333L59.275 194.69333ZM59.275 191.66208L59.275 187.8027L56.5875 191.66208L59.275 191.66208ZM62.9 190.45895Q62.9 188.9277 63.2125 188.00583Q63.525 187.06833 64.13438 186.56833Q64.75938 186.06833 65.69688 186.06833Q66.38438 186.06833 66.9 186.34958Q67.43125 186.63083 67.775 187.16208Q68.11875 187.6777 68.30625 188.4277Q68.49375 189.1777 68.49375 190.45895Q68.49375 191.97458 68.18125 192.89645Q67.88438 193.81833 67.25938 194.33395Q66.65 194.83395 65.69688 194.83395Q64.4625 194.83395 63.74375 193.94333Q62.9 192.88083 62.9 190.45895ZM63.978127 190.45895Q63.978127 192.56833 64.47813 193.27145Q64.97813 193.97458 65.69688 193.97458Q66.43125 193.97458 66.91563 193.27145Q67.41563 192.56833 67.41563 190.45895Q67.41563 188.33395 66.91563 187.64645Q66.43125 186.94333 65.68125 186.94333Q64.9625 186.94333 64.525 187.5527Q63.978127 188.33395 63.978127 190.45895Z" fill-rule="nonzero"/><path fill="#000000" d="M55.9 168.71666L57.009377 168.62291Q57.134377 169.43541 57.571877 169.84166Q58.025 170.24791 58.665627 170.24791Q59.415627 170.24791 59.946877 169.66978Q60.478127 169.09166 60.478127 168.15416Q60.478127 167.24791 59.9625 166.73228Q59.4625 166.20103 58.634377 166.20103Q58.134377 166.20103 57.7125 166.43541Q57.30625 166.66978 57.071877 167.02916L56.0875 166.90416L56.915627 162.49791L61.196877 162.49791L61.196877 163.49791L57.759377 163.49791L57.30625 165.81041Q58.071877 165.26353 58.915627 165.26353Q60.040627 165.26353 60.80625 166.04478Q61.5875 166.82603 61.5875 168.06041Q61.5875 169.21666 60.915627 170.07603Q60.0875 171.10728 58.665627 171.10728Q57.49375 171.10728 56.74375 170.45103Q56.009377 169.79478 55.9 168.71666ZM62.9 166.73228Q62.9 165.20103 63.2125 164.27916Q63.525 163.34166 64.13438 162.84166Q64.75938 162.34166 65.69688 162.34166Q66.38438 162.34166 66.9 162.62291Q67.43125 162.90416 67.775 163.43541Q68.11875 163.95103 68.30625 164.70103Q68.49375 165.45103 68.49375 166.73228Q68.49375 168.24791 68.18125 169.16978Q67.88438 170.09166 67.25938 170.60728Q66.65 171.10728 65.69688 171.10728Q64.4625 171.10728 63.74375 170.21666Q62.9 169.15416 62.9 166.73228ZM63.978127 166.73228Q63.978127 168.84166 64.47813 169.54478Q64.97813 170.24791 65.69688 170.24791Q66.43125 170.24791 66.91563 169.54478Q67.41563 168.84166 67.41563 166.73228Q67.41563 164.60728 66.91563 163.91978Q66.43125 163.21666 65.68125 163.21666Q64.9625 163.21666 64.525 163.82603Q63.978127 164.60728 63.978127 166.73228Z" fill-rule="nonzero"/><path fill="#000000" d="M61.36875 140.75563L60.321877 140.83376Q60.18125 140.20876 59.93125 139.9275Q59.49375 139.47438 58.86875 139.47438Q58.36875 139.47438 57.978127 139.75563Q57.49375 140.13063 57.196877 140.83376Q56.915627 141.52126 56.9 142.8025Q57.275 142.22438 57.821877 141.94313Q58.384377 141.66188 58.99375 141.66188Q60.040627 141.66188 60.775 142.44313Q61.525 143.22438 61.525 144.44313Q61.525 145.25563 61.165627 145.95876Q60.821877 146.64626 60.2125 147.02126Q59.603127 147.38063 58.8375 147.38063Q57.509377 147.38063 56.68125 146.41188Q55.853127 145.44313 55.853127 143.22438Q55.853127 140.72438 56.775 139.59938Q57.571877 138.615 58.93125 138.615Q59.946877 138.615 60.5875 139.19313Q61.24375 139.75563 61.36875 140.75563ZM57.071877 144.45876Q57.071877 145.00563 57.290627 145.50563Q57.525 145.99 57.93125 146.25563Q58.353127 146.52126 58.821877 146.52126Q59.478127 146.52126 59.9625 145.99Q60.446877 145.44313 60.446877 144.52126Q60.446877 143.63063 59.9625 143.115Q59.49375 142.59938 58.775 142.59938Q58.05625 142.59938 57.55625 143.115Q57.071877 143.63063 57.071877 144.45876ZM62.9 143.00563Q62.9 141.47438 63.2125 140.5525Q63.525 139.615 64.13438 139.115Q64.75938 138.615 65.69688 138.615Q66.38438 138.615 66.9 138.89626Q67.43125 139.1775 67.775 139.70876Q68.11875 140.22438 68.30625 140.97438Q68.49375 141.72438 68.49375 143.00563Q68.49375 144.52126 68.18125 145.44313Q67.88438 146.365 67.25938 146.88063Q66.65 147.38063 65.69688 147.38063Q64.4625 147.38063 63.74375 146.49Q62.9 145.4275 62.9 143.00563ZM63.978127 143.00563Q63.978127 145.115 64.47813 145.81813Q64.97813 146.52126 65.69688 146.52126Q66.43125 146.52126 66.91563 145.81813Q67.41563 145.115 67.41563 143.00563Q67.41563 140.88063 66.91563 140.19313Q66.43125 139.49 65.68125 139.49Q64.9625 139.49 64.525 140.09938Q63.978127 140.88063 63.978127 143.00563Z" fill-rule="nonzero"/><path fill="#000000" d="M55.9625 116.044586L55.9625 115.02896L61.525 115.02896L61.525 115.857086Q60.7125 116.732086 59.9 118.18521Q59.103127 119.62271 58.665627 121.15396Q58.3375 122.232086 58.259377 123.513336L57.165627 123.513336Q57.18125 122.49771 57.55625 121.06021Q57.946877 119.62271 58.65 118.294586Q59.36875 116.96646 60.18125 116.044586L55.9625 116.044586ZM62.9 119.27896Q62.9 117.74771 63.2125 116.825836Q63.525 115.888336 64.13438 115.388336Q64.75938 114.888336 65.69688 114.888336Q66.38438 114.888336 66.9 115.169586Q67.43125 115.450836 67.775 115.982086Q68.11875 116.49771 68.30625 117.24771Q68.49375 117.99771 68.49375 119.27896Q68.49375 120.794586 68.18125 121.71646Q67.88438 122.638336 67.25938 123.15396Q66.65 123.65396 65.69688 123.65396Q64.4625 123.65396 63.74375 122.763336Q62.9 121.700836 62.9 119.27896ZM63.978127 119.27896Q63.978127 121.388336 64.47813 122.09146Q64.97813 122.794586 65.69688 122.794586Q66.43125 122.794586 66.91563 122.09146Q67.41563 121.388336 67.41563 119.27896Q67.41563 117.15396 66.91563 116.46646Q66.43125 115.763336 65.68125 115.763336Q64.9625 115.763336 64.525 116.37271Q63.978127 117.15396 63.978127 119.27896Z" fill-rule="nonzero"/><path fill="#000000" d="M57.525 95.13042Q56.86875 94.88042 56.540627 94.44292Q56.228127 93.98979 56.228127 93.38042Q56.228127 92.44292 56.9 91.80229Q57.5875 91.16167 58.696877 91.16167Q59.821877 91.16167 60.509377 91.81792Q61.196877 92.47417 61.196877 93.41167Q61.196877 94.00542 60.884377 94.44292Q60.571877 94.88042 59.93125 95.13042Q60.728127 95.38042 61.134377 95.95854Q61.540627 96.53667 61.540627 97.33354Q61.540627 98.42729 60.759377 99.17729Q59.99375 99.92729 58.7125 99.92729Q57.446877 99.92729 56.665627 99.17729Q55.884377 98.42729 55.884377 97.30229Q55.884377 96.45854 56.30625 95.89604Q56.74375 95.33354 57.525 95.13042ZM57.30625 93.33354Q57.30625 93.94292 57.696877 94.33354Q58.103127 94.72417 58.728127 94.72417Q59.3375 94.72417 59.728127 94.34917Q60.11875 93.95854 60.11875 93.39604Q60.11875 92.81792 59.7125 92.42729Q59.30625 92.02104 58.7125 92.02104Q58.103127 92.02104 57.696877 92.41167Q57.30625 92.80229 57.30625 93.33354ZM56.978127 97.30229Q56.978127 97.75542 57.18125 98.17729Q57.4 98.59917 57.821877 98.83354Q58.24375 99.06792 58.728127 99.06792Q59.478127 99.06792 59.9625 98.58354Q60.4625 98.09917 60.4625 97.34917Q60.4625 96.58354 59.9625 96.08354Q59.4625 95.58354 58.696877 95.58354Q57.946877 95.58354 57.4625 96.08354Q56.978127 96.56792 56.978127 97.30229ZM62.9 95.55229Q62.9 94.02104 63.2125 93.09917Q63.525 92.16167 64.13438 91.66167Q64.75938 91.16167 65.69688 91.16167Q66.38438 91.16167 66.9 91.44292Q67.43125 91.72417 67.775 92.25542Q68.11875 92.77104 68.30625 93.52104Q68.49375 94.27104 68.49375 95.55229Q68.49375 97.06792 68.18125 97.98979Q67.88438 98.91167 67.25938 99.42729Q66.65 99.92729 65.69688 99.92729Q64.4625 99.92729 63.74375 99.03667Q62.9 97.97417 62.9 95.55229ZM63.978127 95.55229Q63.978127 97.66167 64.47813 98.36479Q64.97813 99.06792 65.69688 99.06792Q66.43125 99.06792 66.91563 98.36479Q67.41563 97.66167 67.41563 95.55229Q67.41563 93.42729 66.91563 92.73979Q66.43125 92.03667 65.68125 92.03667Q64.9625 92.03667 64.525 92.64604Q63.978127 93.42729 63.978127 95.55229Z" fill-rule="nonzero"/><path fill="#000000" d="M56.05625 74.07562L57.071877 73.98187Q57.196877 74.70062 57.55625 75.02875Q57.93125 75.34125 58.49375 75.34125Q58.978127 75.34125 59.3375 75.1225Q59.7125 74.88812 59.946877 74.52875Q60.18125 74.15375 60.3375 73.52875Q60.49375 72.88812 60.49375 72.23187Q60.49375 72.15375 60.49375 72.01312Q60.18125 72.51312 59.634377 72.84125Q59.0875 73.15375 58.446877 73.15375Q57.36875 73.15375 56.634377 72.38812Q55.9 71.60687 55.9 70.34125Q55.9 69.02875 56.665627 68.23187Q57.446877 67.435 58.603127 67.435Q59.43125 67.435 60.11875 67.88812Q60.821877 68.34125 61.18125 69.185Q61.540627 70.01312 61.540627 71.59125Q61.540627 73.23187 61.18125 74.21625Q60.8375 75.185 60.11875 75.70062Q59.415627 76.20062 58.478127 76.20062Q57.4625 76.20062 56.821877 75.65375Q56.18125 75.09125 56.05625 74.07562ZM60.36875 70.27875Q60.36875 69.3725 59.884377 68.84125Q59.415627 68.31 58.728127 68.31Q58.025 68.31 57.49375 68.88812Q56.978127 69.45062 56.978127 70.3725Q56.978127 71.185 57.478127 71.70062Q57.978127 72.21625 58.696877 72.21625Q59.43125 72.21625 59.9 71.70062Q60.36875 71.185 60.36875 70.27875ZM62.9 71.82562Q62.9 70.29437 63.2125 69.3725Q63.525 68.435 64.13438 67.935Q64.75938 67.435 65.69688 67.435Q66.38438 67.435 66.9 67.71625Q67.43125 67.9975 67.775 68.52875Q68.11875 69.04437 68.30625 69.79437Q68.49375 70.54437 68.49375 71.82562Q68.49375 73.34125 68.18125 74.26312Q67.88438 75.185 67.25938 75.70062Q66.65 76.20062 65.69688 76.20062Q64.4625 76.20062 63.74375 75.31Q62.9 74.2475 62.9 71.82562ZM63.978127 71.82562Q63.978127 73.935 64.47813 74.63812Q64.97813 75.34125 65.69688 75.34125Q66.43125 75.34125 66.91563 74.63812Q67.41563 73.935 67.41563 71.82562Q67.41563 69.70062 66.91563 69.01312Q66.43125 68.31 65.68125 68.31Q64.9625 68.31 64.525 68.91937Q63.978127 69.70062 63.978127 71.82562Z" fill-rule="nonzero"/><path fill="#000000" d="M52.86875 52.333332L51.821877 52.333332L51.821877 45.614582Q51.43125 45.973957 50.80625 46.348957Q50.196877 46.708332 49.7125 46.880207L49.7125 45.864582Q50.5875 45.442707 51.24375 44.864582Q51.915627 44.270832 52.196877 43.708332L52.86875 43.708332L52.86875 52.333332ZM55.9 48.098957Q55.9 46.567707 56.2125 45.645832Q56.525 44.708332 57.134377 44.208332Q57.759377 43.708332 58.696877 43.708332Q59.384377 43.708332 59.9 43.989582Q60.43125 44.270832 60.775 44.802082Q61.11875 45.317707 61.30625 46.067707Q61.49375 46.817707 61.49375 48.098957Q61.49375 49.614582 61.18125 50.536457Q60.884377 51.458332 60.259377 51.973957Q59.65 52.473957 58.696877 52.473957Q57.4625 52.473957 56.74375 51.583332Q55.9 50.520832 55.9 48.098957ZM56.978127 48.098957Q56.978127 50.208332 57.478127 50.911457Q57.978127 51.614582 58.696877 51.614582Q59.43125 51.614582 59.915627 50.911457Q60.415627 50.208332 60.415627 48.098957Q60.415627 45.973957 59.915627 45.286457Q59.43125 44.583332 58.68125 44.583332Q57.9625 44.583332 57.525 45.192707Q56.978127 45.973957 56.978127 48.098957ZM62.9 48.098957Q62.9 46.567707 63.2125 45.645832Q63.525 44.708332 64.13438 44.208332Q64.75938 43.708332 65.69688 43.708332Q66.38438 43.708332 66.9 43.989582Q67.43125 44.270832 67.775 44.802082Q68.11875 45.317707 68.30625 46.067707Q68.49375 46.817707 68.49375 48.098957Q68.49375 49.614582 68.18125 50.536457Q67.88438 51.458332 67.25938 51.973957Q66.65 52.473957 65.69688 52.473957Q64.4625 52.473957 63.74375 51.583332Q62.9 50.520832 62.9 48.098957ZM63.978127 48.098957Q63.978127 50.208332 64.47813 50.911457Q64.97813 51.614582 65.69688 51.614582Q66.43125 51.614582 66.91563 50.911457Q67.41563 50.208332 67.41563 48.098957Q67.41563 45.973957 66.91563 45.286457Q66.43125 44.583332 65.68125 44.583332Q64.9625 44.583332 64.525 45.192707Q63.978127 45.973957 63.978127 48.098957Z" fill-rule="nonzero"/><path fill="#000000" d="M115.22188 305.83438L116.28438 305.74063Q116.3625 306.39688 116.64375 306.80313Q116.925 307.20938 117.50313 307.475Q118.09688 307.725 118.83125 307.725Q119.47188 307.725 119.97188 307.5375Q120.47188 307.33438 120.70625 307.00626Q120.95625 306.6625 120.95625 306.27188Q120.95625 305.86563 120.72188 305.56876Q120.4875 305.25626 119.95625 305.05313Q119.59688 304.9125 118.40938 304.63126Q117.2375 304.35 116.76875 304.1Q116.14375 303.77188 115.84688 303.30313Q115.55 302.81876 115.55 302.225Q115.55 301.58438 115.90938 301.02188Q116.28438 300.44376 116.9875 300.1625Q117.70625 299.86563 118.56563 299.86563Q119.51875 299.86563 120.25313 300.17813Q120.9875 300.475 121.37813 301.08438Q121.76875 301.67813 121.8 302.42813L120.70625 302.50626Q120.6125 301.69376 120.09688 301.2875Q119.59688 300.86563 118.6125 300.86563Q117.58125 300.86563 117.1125 301.24063Q116.64375 301.61563 116.64375 302.14688Q116.64375 302.61563 116.97188 302.9125Q117.3 303.20938 118.675 303.52188Q120.06563 303.83438 120.58125 304.06876Q121.33125 304.42813 121.69063 304.95938Q122.05 305.475 122.05 306.17813Q122.05 306.86563 121.65938 307.475Q121.26875 308.06876 120.53438 308.4125Q119.8 308.74063 118.87813 308.74063Q117.70625 308.74063 116.90938 308.4125Q116.12813 308.06876 115.675 307.38126Q115.2375 306.69376 115.22188 305.83438ZM123.47188 310.99063L123.47188 302.38126L124.425 302.38126L124.425 303.17813Q124.76875 302.70938 125.19063 302.475Q125.62813 302.24063 126.2375 302.24063Q127.03438 302.24063 127.64375 302.64688Q128.25313 303.05313 128.55 303.80313Q128.8625 304.55313 128.8625 305.44376Q128.8625 306.39688 128.51875 307.1625Q128.19063 307.92813 127.53438 308.33438Q126.87813 308.74063 126.15938 308.74063Q125.62813 308.74063 125.20625 308.52188Q124.78438 308.2875 124.51875 307.95938L124.51875 310.99063L123.47188 310.99063ZM124.425 305.52188Q124.425 306.725 124.90938 307.30313Q125.39375 307.86563 126.08125 307.86563Q126.78438 307.86563 127.28438 307.27188Q127.78438 306.67813 127.78438 305.42813Q127.78438 304.24063 127.3 303.6625Q126.81563 303.06876 126.12813 303.06876Q125.45625 303.06876 124.94063 303.69376Q124.425 304.31876 124.425 305.52188ZM130.45625 308.6L130.45625 302.38126L131.40938 302.38126L131.40938 303.31876Q131.76875 302.6625 132.06563 302.45938Q132.37813 302.24063 132.75313 302.24063Q133.28438 302.24063 133.83125 302.56876L133.47188 303.55313Q133.08125 303.31876 132.70625 303.31876Q132.34688 303.31876 132.06563 303.5375Q131.8 303.74063 131.69063 304.11563Q131.50313 304.67813 131.50313 305.33438L131.50313 308.6L130.45625 308.6ZM134.47188 301.225L134.47188 300.00626L135.53438 300.00626L135.53438 301.225L134.47188 301.225ZM134.47188 308.6L134.47188 302.38126L135.53438 302.38126L135.53438 308.6L134.47188 308.6ZM137.47188 308.6L137.47188 302.38126L138.40938 302.38126L138.40938 303.25626Q139.09688 302.24063 140.39375 302.24063Q140.95625 302.24063 141.425 302.44376Q141.90938 302.64688 142.14375 302.975Q142.37813 303.30313 142.47188 303.74063Q142.51875 304.0375 142.51875 304.77188L142.51875 308.6L141.47188 308.6L141.47188 304.81876Q141.47188 304.1625 141.34688 303.85Q141.22188 303.5375 140.90938 303.35Q140.59688 303.14688 140.175 303.14688Q139.50313 303.14688 139.00313 303.58438Q138.51875 304.00626 138.51875 305.19376L138.51875 308.6L137.47188 308.6ZM146.76875 307.6625L146.925 308.58438Q146.47188 308.67813 146.12813 308.67813Q145.55 308.67813 145.2375 308.50626Q144.925 308.31876 144.78438 308.02188Q144.65938 307.725 144.65938 306.77188L144.65938 303.19376L143.89375 303.19376L143.89375 302.38126L144.65938 302.38126L144.65938 300.83438L145.70625 300.20938L145.70625 302.38126L146.76875 302.38126L146.76875 303.19376L145.70625 303.19376L145.70625 306.83438Q145.70625 307.2875 145.75313 307.4125Q145.81563 307.5375 145.94063 307.61563Q146.06563 307.69376 146.3 307.69376Q146.4875 307.69376 146.76875 307.6625ZM154.14375 308.6L153.09688 308.6L153.09688 301.88126Q152.70625 302.24063 152.08125 302.61563Q151.47188 302.975 150.9875 303.14688L150.9875 302.13126Q151.8625 301.70938 152.51875 301.13126Q153.19063 300.5375 153.47188 299.975L154.14375 299.975L154.14375 308.6Z" fill-rule="nonzero"/><path fill="#000000" d="M223.77188 305.83438L224.83438 305.74063Q224.9125 306.39688 225.19376 306.80313Q225.475 307.20938 226.05313 307.475Q226.64688 307.725 227.38126 307.725Q228.02188 307.725 228.52188 307.5375Q229.02188 307.33438 229.25626 307.00626Q229.50626 306.6625 229.50626 306.27188Q229.50626 305.86563 229.27188 305.56876Q229.0375 305.25626 228.50626 305.05313Q228.14688 304.9125 226.95938 304.63126Q225.7875 304.35 225.31876 304.1Q224.69376 303.77188 224.39688 303.30313Q224.1 302.81876 224.1 302.225Q224.1 301.58438 224.45938 301.02188Q224.83438 300.44376 225.5375 300.1625Q226.25626 299.86563 227.11563 299.86563Q228.06876 299.86563 228.80313 300.17813Q229.5375 300.475 229.92813 301.08438Q230.31876 301.67813 230.35 302.42813L229.25626 302.50626Q229.1625 301.69376 228.64688 301.2875Q228.14688 300.86563 227.1625 300.86563Q226.13126 300.86563 225.6625 301.24063Q225.19376 301.61563 225.19376 302.14688Q225.19376 302.61563 225.52188 302.9125Q225.85 303.20938 227.225 303.52188Q228.61563 303.83438 229.13126 304.06876Q229.88126 304.42813 230.24063 304.95938Q230.6 305.475 230.6 306.17813Q230.6 306.86563 230.20938 307.475Q229.81876 308.06876 229.08438 308.4125Q228.35 308.74063 227.42813 308.74063Q226.25626 308.74063 225.45938 308.4125Q224.67813 308.06876 224.225 307.38126Q223.7875 306.69376 223.77188 305.83438ZM232.02188 310.99063L232.02188 302.38126L232.975 302.38126L232.975 303.17813Q233.31876 302.70938 233.74063 302.475Q234.17813 302.24063 234.7875 302.24063Q235.58438 302.24063 236.19376 302.64688Q236.80313 303.05313 237.1 303.80313Q237.4125 304.55313 237.4125 305.44376Q237.4125 306.39688 237.06876 307.1625Q236.74063 307.92813 236.08438 308.33438Q235.42813 308.74063 234.70938 308.74063Q234.17813 308.74063 233.75626 308.52188Q233.33438 308.2875 233.06876 307.95938L233.06876 310.99063L232.02188 310.99063ZM232.975 305.52188Q232.975 306.725 233.45938 307.30313Q233.94376 307.86563 234.63126 307.86563Q235.33438 307.86563 235.83438 307.27188Q236.33438 306.67813 236.33438 305.42813Q236.33438 304.24063 235.85 303.6625Q235.36563 303.06876 234.67813 303.06876Q234.00626 303.06876 233.49063 303.69376Q232.975 304.31876 232.975 305.52188ZM239.00626 308.6L239.00626 302.38126L239.95938 302.38126L239.95938 303.31876Q240.31876 302.6625 240.61563 302.45938Q240.92813 302.24063 241.30313 302.24063Q241.83438 302.24063 242.38126 302.56876L242.02188 303.55313Q241.63126 303.31876 241.25626 303.31876Q240.89688 303.31876 240.61563 303.5375Q240.35 303.74063 240.24063 304.11563Q240.05313 304.67813 240.05313 305.33438L240.05313 308.6L239.00626 308.6ZM243.02188 301.225L243.02188 300.00626L244.08438 300.00626L244.08438 301.225L243.02188 301.225ZM243.02188 308.6L243.02188 302.38126L244.08438 302.38126L244.08438 308.6L243.02188 308.6ZM246.02188 308.6L246.02188 302.38126L246.95938 302.38126L246.95938 303.25626Q247.64688 302.24063 248.94376 302.24063Q249.50626 302.24063 249.975 302.44376Q250.45938 302.64688 250.69376 302.975Q250.92813 303.30313 251.02188 303.74063Q251.06876 304.0375 251.06876 304.77188L251.06876 308.6L250.02188 308.6L250.02188 304.81876Q250.02188 304.1625 249.89688 303.85Q249.77188 303.5375 249.45938 303.35Q249.14688 303.14688 248.725 303.14688Q248.05313 303.14688 247.55313 303.58438Q247.06876 304.00626 247.06876 305.19376L247.06876 308.6L246.02188 308.6ZM255.31876 307.6625L255.475 308.58438Q255.02188 308.67813 254.67813 308.67813Q254.1 308.67813 253.7875 308.50626Q253.475 308.31876 253.33438 308.02188Q253.20938 307.725 253.20938 306.77188L253.20938 303.19376L252.44376 303.19376L252.44376 302.38126L253.20938 302.38126L253.20938 300.83438L254.25626 300.20938L254.25626 302.38126L255.31876 302.38126L255.31876 303.19376L254.25626 303.19376L254.25626 306.83438Q254.25626 307.2875 254.30313 307.4125Q254.36563 307.5375 254.49063 307.61563Q254.61563 307.69376 254.85 307.69376Q255.0375 307.69376 255.31876 307.6625ZM264.27188 307.58438L264.27188 308.6L258.58438 308.6Q258.58438 308.225 258.70938 307.86563Q258.92813 307.2875 259.39688 306.725Q259.88126 306.1625 260.7875 305.42813Q262.19376 304.27188 262.67813 303.6Q263.17813 302.92813 263.17813 302.33438Q263.17813 301.70938 262.725 301.2875Q262.27188 300.85 261.55313 300.85Q260.7875 300.85 260.33438 301.30313Q259.88126 301.75626 259.86563 302.56876L258.7875 302.45938Q258.89688 301.24063 259.61563 300.61563Q260.35 299.975 261.58438 299.975Q262.81876 299.975 263.5375 300.6625Q264.25626 301.35 264.25626 302.36563Q264.25626 302.88126 264.0375 303.38126Q263.83438 303.86563 263.33438 304.42813Q262.85 304.975 261.725 305.92813Q260.77188 306.725 260.49063 307.02188Q260.225 307.30313 260.05313 307.58438L264.27188 307.58438Z" fill-rule="nonzero"/><path fill="#000000" d="M332.32187 305.83438L333.38437 305.74063Q333.4625 306.39688 333.74374 306.80313Q334.025 307.20938 334.60312 307.475Q335.19687 307.725 335.93124 307.725Q336.57187 307.725 337.07187 307.5375Q337.57187 307.33438 337.80624 307.00626Q338.05624 306.6625 338.05624 306.27188Q338.05624 305.86563 337.82187 305.56876Q337.5875 305.25626 337.05624 305.05313Q336.69687 304.9125 335.50937 304.63126Q334.3375 304.35 333.86874 304.1Q333.24374 303.77188 332.94687 303.30313Q332.65 302.81876 332.65 302.225Q332.65 301.58438 333.00937 301.02188Q333.38437 300.44376 334.0875 300.1625Q334.80624 299.86563 335.66562 299.86563Q336.61874 299.86563 337.35312 300.17813Q338.0875 300.475 338.47812 301.08438Q338.86874 301.67813 338.9 302.42813L337.80624 302.50626Q337.7125 301.69376 337.19687 301.2875Q336.69687 300.86563 335.7125 300.86563Q334.68124 300.86563 334.2125 301.24063Q333.74374 301.61563 333.74374 302.14688Q333.74374 302.61563 334.07187 302.9125Q334.4 303.20938 335.775 303.52188Q337.16562 303.83438 337.68124 304.06876Q338.43124 304.42813 338.79062 304.95938Q339.15 305.475 339.15 306.17813Q339.15 306.86563 338.75937 307.475Q338.36874 308.06876 337.63437 308.4125Q336.9 308.74063 335.97812 308.74063Q334.80624 308.74063 334.00937 308.4125Q333.22812 308.06876 332.775 307.38126Q332.3375 306.69376 332.32187 305.83438ZM340.57187 310.99063L340.57187 302.38126L341.525 302.38126L341.525 303.17813Q341.86874 302.70938 342.29062 302.475Q342.72812 302.24063 343.3375 302.24063Q344.13437 302.24063 344.74374 302.64688Q345.35312 303.05313 345.65 303.80313Q345.9625 304.55313 345.9625 305.44376Q345.9625 306.39688 345.61874 307.1625Q345.29062 307.92813 344.63437 308.33438Q343.97812 308.74063 343.25937 308.74063Q342.72812 308.74063 342.30624 308.52188Q341.88437 308.2875 341.61874 307.95938L341.61874 310.99063L340.57187 310.99063ZM341.525 305.52188Q341.525 306.725 342.00937 307.30313Q342.49374 307.86563 343.18124 307.86563Q343.88437 307.86563 344.38437 307.27188Q344.88437 306.67813 344.88437 305.42813Q344.88437 304.24063 344.4 303.6625Q343.91562 303.06876 343.22812 303.06876Q342.55624 303.06876 342.04062 303.69376Q341.525 304.31876 341.525 305.52188ZM347.55624 308.6L347.55624 302.38126L348.50937 302.38126L348.50937 303.31876Q348.86874 302.6625 349.16562 302.45938Q349.47812 302.24063 349.85312 302.24063Q350.38437 302.24063 350.93124 302.56876L350.57187 303.55313Q350.18124 303.31876 349.80624 303.31876Q349.44687 303.31876 349.16562 303.5375Q348.9 303.74063 348.79062 304.11563Q348.60312 304.67813 348.60312 305.33438L348.60312 308.6L347.55624 308.6ZM351.57187 301.225L351.57187 300.00626L352.63437 300.00626L352.63437 301.225L351.57187 301.225ZM351.57187 308.6L351.57187 302.38126L352.63437 302.38126L352.63437 308.6L351.57187 308.6ZM354.57187 308.6L354.57187 302.38126L355.50937 302.38126L355.50937 303.25626Q356.19687 302.24063 357.49374 302.24063Q358.05624 302.24063 358.525 302.44376Q359.00937 302.64688 359.24374 302.975Q359.47812 303.30313 359.57187 303.74063Q359.61874 304.0375 359.61874 304.77188L359.61874 308.6L358.57187 308.6L358.57187 304.81876Q358.57187 304.1625 358.44687 303.85Q358.32187 303.5375 358.00937 303.35Q357.69687 303.14688 357.275 303.14688Q356.60312 303.14688 356.10312 303.58438Q355.61874 304.00626 355.61874 305.19376L355.61874 308.6L354.57187 308.6ZM363.86874 307.6625L364.025 308.58438Q363.57187 308.67813 363.22812 308.67813Q362.65 308.67813 362.3375 308.50626Q362.025 308.31876 361.88437 308.02188Q361.75937 307.725 361.75937 306.77188L361.75937 303.19376L360.99374 303.19376L360.99374 302.38126L361.75937 302.38126L361.75937 300.83438L362.80624 300.20938L362.80624 302.38126L363.86874 302.38126L363.86874 303.19376L362.80624 303.19376L362.80624 306.83438Q362.80624 307.2875 362.85312 307.4125Q362.91562 307.5375 363.04062 307.61563Q363.16562 307.69376 363.4 307.69376Q363.5875 307.69376 363.86874 307.6625ZM367.275 306.33438L368.3375 306.19376Q368.50937 307.08438 368.94687 307.49063Q369.38437 307.88126 370.00937 307.88126Q370.75937 307.88126 371.275 307.36563Q371.79062 306.85 371.79062 306.08438Q371.79062 305.36563 371.30624 304.89688Q370.8375 304.4125 370.10312 304.4125Q369.80624 304.4125 369.35312 304.5375L369.47812 303.6Q369.5875 303.61563 369.65 303.61563Q370.32187 303.61563 370.85312 303.27188Q371.4 302.9125 371.4 302.17813Q371.4 301.6 371.00937 301.225Q370.61874 300.83438 369.99374 300.83438Q369.38437 300.83438 368.9625 301.225Q368.55624 301.61563 368.44687 302.38126L367.38437 302.19376Q367.57187 301.14688 368.25937 300.56876Q368.94687 299.975 369.9625 299.975Q370.66562 299.975 371.25937 300.2875Q371.85312 300.58438 372.16562 301.1Q372.47812 301.61563 372.47812 302.20938Q372.47812 302.75626 372.18124 303.225Q371.88437 303.67813 371.30624 303.94376Q372.05624 304.11563 372.47812 304.67813Q372.9 305.225 372.9 306.06876Q372.9 307.19376 372.07187 307.975Q371.25937 308.75626 370.00937 308.75626Q368.88437 308.75626 368.13437 308.08438Q367.38437 307.39688 367.275 306.33438Z" fill-rule="nonzero"/><path fill="#000000" d="M440.8719 305.83438L441.9344 305.74063Q442.0125 306.39688 442.29376 306.80313Q442.575 307.20938 443.15314 307.475Q443.7469 307.725 444.48126 307.725Q445.1219 307.725 445.6219 307.5375Q446.1219 307.33438 446.35626 307.00626Q446.60626 306.6625 446.60626 306.27188Q446.60626 305.86563 446.3719 305.56876Q446.1375 305.25626 445.60626 305.05313Q445.2469 304.9125 444.0594 304.63126Q442.8875 304.35 442.41876 304.1Q441.79376 303.77188 441.4969 303.30313Q441.2 302.81876 441.2 302.225Q441.2 301.58438 441.5594 301.02188Q441.9344 300.44376 442.6375 300.1625Q443.35626 299.86563 444.21564 299.86563Q445.16876 299.86563 445.90314 300.17813Q446.6375 300.475 447.02814 301.08438Q447.41876 301.67813 447.45 302.42813L446.35626 302.50626Q446.2625 301.69376 445.7469 301.2875Q445.2469 300.86563 444.2625 300.86563Q443.23126 300.86563 442.7625 301.24063Q442.29376 301.61563 442.29376 302.14688Q442.29376 302.61563 442.6219 302.9125Q442.95 303.20938 444.325 303.52188Q445.71564 303.83438 446.23126 304.06876Q446.98126 304.42813 447.34064 304.95938Q447.7 305.475 447.7 306.17813Q447.7 306.86563 447.3094 307.475Q446.91876 308.06876 446.1844 308.4125Q445.45 308.74063 444.52814 308.74063Q443.35626 308.74063 442.5594 308.4125Q441.77814 308.06876 441.325 307.38126Q440.8875 306.69376 440.8719 305.83438ZM449.1219 310.99063L449.1219 302.38126L450.075 302.38126L450.075 303.17813Q450.41876 302.70938 450.84064 302.475Q451.27814 302.24063 451.8875 302.24063Q452.6844 302.24063 453.29376 302.64688Q453.90314 303.05313 454.2 303.80313Q454.5125 304.55313 454.5125 305.44376Q454.5125 306.39688 454.16876 307.1625Q453.84064 307.92813 453.1844 308.33438Q452.52814 308.74063 451.8094 308.74063Q451.27814 308.74063 450.85626 308.52188Q450.4344 308.2875 450.16876 307.95938L450.16876 310.99063L449.1219 310.99063ZM450.075 305.52188Q450.075 306.725 450.5594 307.30313Q451.04376 307.86563 451.73126 307.86563Q452.4344 307.86563 452.9344 307.27188Q453.4344 306.67813 453.4344 305.42813Q453.4344 304.24063 452.95 303.6625Q452.46564 303.06876 451.77814 303.06876Q451.10626 303.06876 450.59064 303.69376Q450.075 304.31876 450.075 305.52188ZM456.10626 308.6L456.10626 302.38126L457.0594 302.38126L457.0594 303.31876Q457.41876 302.6625 457.71564 302.45938Q458.02814 302.24063 458.40314 302.24063Q458.9344 302.24063 459.48126 302.56876L459.1219 303.55313Q458.73126 303.31876 458.35626 303.31876Q457.9969 303.31876 457.71564 303.5375Q457.45 303.74063 457.34064 304.11563Q457.15314 304.67813 457.15314 305.33438L457.15314 308.6L456.10626 308.6ZM460.1219 301.225L460.1219 300.00626L461.1844 300.00626L461.1844 301.225L460.1219 301.225ZM460.1219 308.6L460.1219 302.38126L461.1844 302.38126L461.1844 308.6L460.1219 308.6ZM463.1219 308.6L463.1219 302.38126L464.0594 302.38126L464.0594 303.25626Q464.7469 302.24063 466.04376 302.24063Q466.60626 302.24063 467.075 302.44376Q467.5594 302.64688 467.79376 302.975Q468.02814 303.30313 468.1219 303.74063Q468.16876 304.0375 468.16876 304.77188L468.16876 308.6L467.1219 308.6L467.1219 304.81876Q467.1219 304.1625 466.9969 303.85Q466.8719 303.5375 466.5594 303.35Q466.2469 303.14688 465.825 303.14688Q465.15314 303.14688 464.65314 303.58438Q464.16876 304.00626 464.16876 305.19376L464.16876 308.6L463.1219 308.6ZM472.41876 307.6625L472.575 308.58438Q472.1219 308.67813 471.77814 308.67813Q471.2 308.67813 470.8875 308.50626Q470.575 308.31876 470.4344 308.02188Q470.3094 307.725 470.3094 306.77188L470.3094 303.19376L469.54376 303.19376L469.54376 302.38126L470.3094 302.38126L470.3094 300.83438L471.35626 300.20938L471.35626 302.38126L472.41876 302.38126L472.41876 303.19376L471.35626 303.19376L471.35626 306.83438Q471.35626 307.2875 471.40314 307.4125Q471.46564 307.5375 471.59064 307.61563Q471.71564 307.69376 471.95 307.69376Q472.1375 307.69376 472.41876 307.6625ZM479.2 308.6L479.2 306.5375L475.48126 306.5375L475.48126 305.56876L479.40314 300.00626L480.2625 300.00626L480.2625 305.56876L481.41876 305.56876L481.41876 306.5375L480.2625 306.5375L480.2625 308.6L479.2 308.6ZM479.2 305.56876L479.2 301.70938L476.5125 305.56876L479.2 305.56876Z" fill-rule="nonzero"/><path fill="#4285f4" d="M134.5 23.4C134.5 26.713709 131.8137 29.4 128.5 29.4C125.186295 29.4 122.5 26.713709 122.5 23.4C122.5 20.086292 125.186295 17.4 128.5 17.4C131.8137 17.4 134.5 20.086292 134.5 23.4Z" fill-rule="nonzero"/><path fill="#1a1a1a" d="M145.875 27.4L142.54688 18.80625L143.78125 18.80625L146.01562 25.05625Q146.28125 25.80625 146.46875 26.4625Q146.67188 25.759375 146.9375 25.05625L149.25 18.80625L150.40625 18.80625L147.04688 27.4L145.875 27.4ZM154.35938 26.634375Q153.76562 27.134375 153.21875 27.3375Q152.6875 27.540625 152.0625 27.540625Q151.03125 27.540625 150.48438 27.040625Q149.9375 26.540625 149.9375 25.759375Q149.9375 25.30625 150.14062 24.93125Q150.34375 24.540625 150.6875 24.321875Q151.03125 24.0875 151.45312 23.978125Q151.75 23.884375 152.39062 23.80625Q153.65625 23.665625 154.26562 23.446875Q154.26562 23.228125 154.26562 23.18125Q154.26562 22.525 153.96875 22.259375Q153.5625 21.915625 152.76562 21.915625Q152.03125 21.915625 151.67188 22.18125Q151.3125 22.43125 151.14062 23.0875L150.10938 22.946875Q150.25 22.290625 150.57812 21.884375Q150.90625 21.478125 151.51562 21.259375Q152.125 21.040625 152.92188 21.040625Q153.71875 21.040625 154.21875 21.228125Q154.71875 21.415625 154.95312 21.696875Q155.1875 21.978125 155.28125 22.415625Q155.32812 22.68125 155.32812 23.384375L155.32812 24.790625Q155.32812 26.259375 155.39062 26.65Q155.46875 27.040625 155.67188 27.4L154.5625 27.4Q154.40625 27.071875 154.35938 26.634375ZM154.26562 24.275Q153.6875 24.509375 152.54688 24.68125Q151.89062 24.775 151.625 24.9Q151.35938 25.009375 151.20312 25.228125Q151.0625 25.446875 151.0625 25.728125Q151.0625 26.15 151.375 26.43125Q151.70312 26.7125 152.3125 26.7125Q152.92188 26.7125 153.39062 26.446875Q153.875 26.18125 154.09375 25.7125Q154.26562 25.353125 154.26562 24.665625L154.26562 24.275ZM157.26562 27.4L157.26562 18.80625L158.32812 18.80625L158.32812 27.4L157.26562 27.4ZM159.90625 24.290625Q159.90625 22.55625 160.85938 21.728125Q161.65625 21.040625 162.8125 21.040625Q164.09375 21.040625 164.90625 21.884375Q165.73438 22.7125 165.73438 24.196875Q165.73438 25.4 165.375 26.0875Q165.01562 26.775 164.3125 27.165625Q163.625 27.540625 162.8125 27.540625Q161.51562 27.540625 160.70312 26.7125Q159.90625 25.86875 159.90625 24.290625ZM160.98438 24.290625Q160.98438 25.478125 161.5 26.071875Q162.03125 26.665625 162.8125 26.665625Q163.60938 26.665625 164.125 26.071875Q164.64062 25.478125 164.64062 24.259375Q164.64062 23.103125 164.10938 22.509375Q163.59375 21.915625 162.8125 21.915625Q162.03125 21.915625 161.5 22.509375Q160.98438 23.0875 160.98438 24.290625ZM167.28125 27.4L167.28125 21.18125L168.23438 21.18125L168.23438 22.11875Q168.59375 21.4625 168.89062 21.259375Q169.20312 21.040625 169.57812 21.040625Q170.10938 21.040625 170.65625 21.36875L170.29688 22.353125Q169.90625 22.11875 169.53125 22.11875Q169.17188 22.11875 168.89062 22.3375Q168.625 22.540625 168.51562 22.915625Q168.32812 23.478125 168.32812 24.134375L168.32812 27.4L167.28125 27.4ZM175.54688 25.4L176.64062 25.525Q176.39062 26.478125 175.6875 27.009375Q174.98438 27.540625 173.90625 27.540625Q172.54688 27.540625 171.73438 26.696875Q170.9375 25.853125 170.9375 24.3375Q170.9375 22.775 171.75 21.915625Q172.5625 21.040625 173.84375 21.040625Q175.09375 21.040625 175.875 21.884375Q176.67188 22.728125 176.67188 24.275Q176.67188 24.36875 176.67188 24.55625L172.03125 24.55625Q172.09375 25.5875 172.60938 26.134375Q173.125 26.665625 173.90625 26.665625Q174.48438 26.665625 174.89062 26.36875Q175.3125 26.05625 175.54688 25.4ZM172.09375 23.696875L175.5625 23.696875Q175.5 22.9 175.17188 22.509375Q174.65625 21.9 173.85938 21.9Q173.125 21.9 172.625 22.384375Q172.14062 22.86875 172.09375 23.696875ZM180.90625 24.290625Q180.90625 22.55625 181.85938 21.728125Q182.65625 21.040625 183.8125 21.040625Q185.09375 21.040625 185.90625 21.884375Q186.73438 22.7125 186.73438 24.196875Q186.73438 25.4 186.375 26.0875Q186.01562 26.775 185.3125 27.165625Q184.625 27.540625 183.8125 27.540625Q182.51562 27.540625 181.70312 26.7125Q180.90625 25.86875 180.90625 24.290625ZM181.98438 24.290625Q181.98438 25.478125 182.5 26.071875Q183.03125 26.665625 183.8125 26.665625Q184.60938 26.665625 185.125 26.071875Q185.64062 25.478125 185.64062 24.259375Q185.64062 23.103125 185.10938 22.509375Q184.59375 21.915625 183.8125 21.915625Q183.03125 21.915625 182.5 22.509375Q181.98438 23.0875 181.98438 24.290625ZM190.59375 26.4625L190.75 27.384375Q190.29688 27.478125 189.95312 27.478125Q189.375 27.478125 189.0625 27.30625Q188.75 27.11875 188.60938 26.821875Q188.48438 26.525 188.48438 25.571875L188.48438 21.99375L187.71875 21.99375L187.71875 21.18125L188.48438 21.18125L188.48438 19.634375L189.53125 19.009375L189.53125 21.18125L190.59375 21.18125L190.59375 21.99375L189.53125 21.99375L189.53125 25.634375Q189.53125 26.0875 189.57812 26.2125Q189.64062 26.3375 189.76562 26.415625Q189.89062 26.49375 190.125 26.49375Q190.3125 26.49375 190.59375 26.4625ZM193.59375 26.4625L193.75 27.384375Q193.29688 27.478125 192.95312 27.478125Q192.375 27.478125 192.0625 27.30625Q191.75 27.11875 191.60938 26.821875Q191.48438 26.525 191.48438 25.571875L191.48438 21.99375L190.71875 21.99375L190.71875 21.18125L191.48438 21.18125L191.48438 19.634375L192.53125 19.009375L192.53125 21.18125L193.59375 21.18125L193.59375 21.99375L192.53125 21.99375L192.53125 25.634375Q192.53125 26.0875 192.57812 26.2125Q192.64062 26.3375 192.76562 26.415625Q192.89062 26.49375 193.125 26.49375Q193.3125 26.49375 193.59375 26.4625ZM194.29688 20.025L194.29688 18.80625L195.35938 18.80625L195.35938 20.025L194.29688 20.025ZM194.29688 27.4L194.29688 21.18125L195.35938 21.18125L195.35938 27.4L194.29688 27.4ZM197.29688 27.4L197.29688 21.18125L198.23438 21.18125L198.23438 22.05625Q198.53125 21.5875 199.01562 21.321875Q199.5 21.040625 200.125 21.040625Q200.8125 21.040625 201.25 21.321875Q201.70312 21.603125 201.875 22.11875Q202.625 21.040625 203.79688 21.040625Q204.73438 21.040625 205.21875 21.55625Q205.71875 22.05625 205.71875 23.134375L205.71875 27.4L204.67188 27.4L204.67188 23.478125Q204.67188 22.853125 204.5625 22.571875Q204.46875 22.290625 204.20312 22.11875Q203.9375 21.946875 203.5625 21.946875Q202.90625 21.946875 202.46875 22.384375Q202.04688 22.821875 202.04688 23.790625L202.04688 27.4L200.98438 27.4L200.98438 23.353125Q200.98438 22.65 200.71875 22.30625Q200.46875 21.946875 199.89062 21.946875Q199.4375 21.946875 199.0625 22.18125Q198.6875 22.415625 198.51562 22.86875Q198.34375 23.321875 198.34375 24.165625L198.34375 27.4L197.29688 27.4ZM207.90625 24.290625Q207.90625 22.55625 208.85938 21.728125Q209.65625 21.040625 210.8125 21.040625Q212.09375 21.040625 212.90625 21.884375Q213.73438 22.7125 213.73438 24.196875Q213.73438 25.4 213.375 26.0875Q213.01562 26.775 212.3125 27.165625Q211.625 27.540625 210.8125 27.540625Q209.51562 27.540625 208.70312 26.7125Q207.90625 25.86875 207.90625 24.290625ZM208.98438 24.290625Q208.98438 25.478125 209.5 26.071875Q210.03125 26.665625 210.8125 26.665625Q211.60938 26.665625 212.125 26.071875Q212.64062 25.478125 212.64062 24.259375Q212.64062 23.103125 212.10938 22.509375Q211.59375 21.915625 210.8125 21.915625Q210.03125 21.915625 209.5 22.509375Q208.98438 23.0875 208.98438 24.290625Z" fill-rule="nonzero"/><path fill="#ea4335" d="M242.5 23.4C242.5 26.713709 239.8137 29.4 236.5 29.4C233.1863 29.4 230.5 26.713709 230.5 23.4C230.5 20.086292 233.1863 17.4 236.5 17.4C239.8137 17.4 242.5 20.086292 242.5 23.4Z" fill-rule="nonzero"/><path fill="#1a1a1a" d="M253.875 27.4L250.54688 18.80625L251.78125 18.80625L254.01562 25.05625Q254.28125 25.80625 254.46875 26.4625Q254.67188 25.759375 254.9375 25.05625L257.25 18.80625L258.40625 18.80625L255.04688 27.4L253.875 27.4ZM262.35938 26.634375Q261.76562 27.134375 261.21875 27.3375Q260.6875 27.540625 260.0625 27.540625Q259.03125 27.540625 258.48438 27.040625Q257.9375 26.540625 257.9375 25.759375Q257.9375 25.30625 258.14062 24.93125Q258.34375 24.540625 258.6875 24.321875Q259.03125 24.0875 259.45312 23.978125Q259.75 23.884375 260.39062 23.80625Q261.65625 23.665625 262.26562 23.446875Q262.26562 23.228125 262.26562 23.18125Q262.26562 22.525 261.96875 22.259375Q261.5625 21.915625 260.76562 21.915625Q260.03125 21.915625 259.67188 22.18125Q259.3125 22.43125 259.14062 23.0875L258.10938 22.946875Q258.25 22.290625 258.57812 21.884375Q258.90625 21.478125 259.51562 21.259375Q260.125 21.040625 260.92188 21.040625Q261.71875 21.040625 262.21875 21.228125Q262.71875 21.415625 262.95312 21.696875Q263.1875 21.978125 263.28125 22.415625Q263.32812 22.68125 263.32812 23.384375L263.32812 24.790625Q263.32812 26.259375 263.39062 26.65Q263.46875 27.040625 263.67188 27.4L262.5625 27.4Q262.40625 27.071875 262.35938 26.634375ZM262.26562 24.275Q261.6875 24.509375 260.54688 24.68125Q259.89062 24.775 259.625 24.9Q259.35938 25.009375 259.20312 25.228125Q259.0625 25.446875 259.0625 25.728125Q259.0625 26.15 259.375 26.43125Q259.70312 26.7125 260.3125 26.7125Q260.92188 26.7125 261.39062 26.446875Q261.875 26.18125 262.09375 25.7125Q262.26562 25.353125 262.26562 24.665625L262.26562 24.275ZM265.26562 27.4L265.26562 18.80625L266.32812 18.80625L266.32812 27.4L265.26562 27.4ZM267.90625 24.290625Q267.90625 22.55625 268.85938 21.728125Q269.65625 21.040625 270.8125 21.040625Q272.09375 21.040625 272.90625 21.884375Q273.73438 22.7125 273.73438 24.196875Q273.73438 25.4 273.375 26.0875Q273.01562 26.775 272.3125 27.165625Q271.625 27.540625 270.8125 27.540625Q269.51562 27.540625 268.70312 26.7125Q267.90625 25.86875 267.90625 24.290625ZM268.98438 24.290625Q268.98438 25.478125 269.5 26.071875Q270.03125 26.665625 270.8125 26.665625Q271.60938 26.665625 272.125 26.071875Q272.64062 25.478125 272.64062 24.259375Q272.64062 23.103125 272.10938 22.509375Q271.59375 21.915625 270.8125 21.915625Q270.03125 21.915625 269.5 22.509375Q268.98438 23.0875 268.98438 24.290625ZM275.28125 27.4L275.28125 21.18125L276.23438 21.18125L276.23438 22.11875Q276.59375 21.4625 276.89062 21.259375Q277.20312 21.040625 277.57812 21.040625Q278.10938 21.040625 278.65625 21.36875L278.29688 22.353125Q277.90625 22.11875 277.53125 22.11875Q277.17188 22.11875 276.89062 22.3375Q276.625 22.540625 276.51562 22.915625Q276.32812 23.478125 276.32812 24.134375L276.32812 27.4L275.28125 27.4ZM283.54688 25.4L284.64062 25.525Q284.39062 26.478125 283.6875 27.009375Q282.98438 27.540625 281.90625 27.540625Q280.54688 27.540625 279.73438 26.696875Q278.9375 25.853125 278.9375 24.3375Q278.9375 22.775 279.75 21.915625Q280.5625 21.040625 281.84375 21.040625Q283.09375 21.040625 283.875 21.884375Q284.67188 22.728125 284.67188 24.275Q284.67188 24.36875 284.67188 24.55625L280.03125 24.55625Q280.09375 25.5875 280.60938 26.134375Q281.125 26.665625 281.90625 26.665625Q282.48438 26.665625 282.89062 26.36875Q283.3125 26.05625 283.54688 25.4ZM280.09375 23.696875L283.5625 23.696875Q283.5 22.9 283.17188 22.509375Q282.65625 21.9 281.85938 21.9Q281.125 21.9 280.625 22.384375Q280.14062 22.86875 280.09375 23.696875ZM288.48438 27.4L291.78125 18.80625L293.0 18.80625L296.51562 27.4L295.23438 27.4L294.21875 24.790625L290.64062 24.790625L289.6875 27.4L288.48438 27.4ZM290.96875 23.86875L293.875 23.86875L292.98438 21.49375Q292.5625 20.415625 292.375 19.7125Q292.20312 20.540625 291.90625 21.353125L290.96875 23.86875ZM300.35938 25.11875L301.39062 25.259375Q301.21875 26.321875 300.51562 26.93125Q299.8125 27.540625 298.79688 27.540625Q297.51562 27.540625 296.73438 26.7125Q295.96875 25.86875 295.96875 24.30625Q295.96875 23.30625 296.29688 22.55625Q296.64062 21.790625 297.3125 21.415625Q298.0 21.040625 298.8125 21.040625Q299.8125 21.040625 300.45312 21.55625Q301.10938 22.05625 301.29688 23.009375L300.26562 23.165625Q300.125 22.540625 299.75 22.228125Q299.375 21.9 298.84375 21.9Q298.04688 21.9 297.54688 22.478125Q297.04688 23.040625 297.04688 24.275Q297.04688 25.540625 297.53125 26.103125Q298.01562 26.665625 298.78125 26.665625Q299.40625 26.665625 299.8125 26.290625Q300.23438 25.915625 300.35938 25.11875ZM306.35938 25.11875L307.39062 25.259375Q307.21875 26.321875 306.51562 26.93125Q305.8125 27.540625 304.79688 27.540625Q303.51562 27.540625 302.73438 26.7125Q301.96875 25.86875 301.96875 24.30625Q301.96875 23.30625 302.29688 22.55625Q302.64062 21.790625 303.3125 21.415625Q304.0 21.040625 304.8125 21.040625Q305.8125 21.040625 306.45312 21.55625Q307.10938 22.05625 307.29688 23.009375L306.26562 23.165625Q306.125 22.540625 305.75 22.228125Q305.375 21.9 304.84375 21.9Q304.04688 21.9 303.54688 22.478125Q303.04688 23.040625 303.04688 24.275Q303.04688 25.540625 303.53125 26.103125Q304.01562 26.665625 304.78125 26.665625Q305.40625 26.665625 305.8125 26.290625Q306.23438 25.915625 306.35938 25.11875ZM312.54688 25.4L313.64062 25.525Q313.39062 26.478125 312.6875 27.009375Q311.98438 27.540625 310.90625 27.540625Q309.54688 27.540625 308.73438 26.696875Q307.9375 25.853125 307.9375 24.3375Q307.9375 22.775 308.75 21.915625Q309.5625 21.040625 310.84375 21.040625Q312.09375 21.040625 312.875 21.884375Q313.67188 22.728125 313.67188 24.275Q313.67188 24.36875 313.67188 24.55625L309.03125 24.55625Q309.09375 25.5875 309.60938 26.134375Q310.125 26.665625 310.90625 26.665625Q311.48438 26.665625 311.89062 26.36875Q312.3125 26.05625 312.54688 25.4ZM309.09375 23.696875L312.5625 23.696875Q312.5 22.9 312.17188 22.509375Q311.65625 21.9 310.85938 21.9Q310.125 21.9 309.625 22.384375Q309.14062 22.86875 309.09375 23.696875ZM317.59375 26.4625L317.75 27.384375Q317.29688 27.478125 316.95312 27.478125Q316.375 27.478125 316.0625 27.30625Q315.75 27.11875 315.60938 26.821875Q315.48438 26.525 315.48438 25.571875L315.48438 21.99375L314.71875 21.99375L314.71875 21.18125L315.48438 21.18125L315.48438 19.634375L316.53125 19.009375L316.53125 21.18125L317.59375 21.18125L317.59375 21.99375L316.53125 21.99375L316.53125 25.634375Q316.53125 26.0875 316.57812 26.2125Q316.64062 26.3375 316.76562 26.415625Q316.89062 26.49375 317.125 26.49375Q317.3125 26.49375 317.59375 26.4625ZM320.59375 26.4625L320.75 27.384375Q320.29688 27.478125 319.95312 27.478125Q319.375 27.478125 319.0625 27.30625Q318.75 27.11875 318.60938 26.821875Q318.48438 26.525 318.48438 25.571875L318.48438 21.99375L317.71875 21.99375L317.71875 21.18125L318.48438 21.18125L318.48438 19.634375L319.53125 19.009375L319.53125 21.18125L320.59375 21.18125L320.59375 21.99375L319.53125 21.99375L319.53125 25.634375Q319.53125 26.0875 319.57812 26.2125Q319.64062 26.3375 319.76562 26.415625Q319.89062 26.49375 320.125 26.49375Q320.3125 26.49375 320.59375 26.4625ZM325.35938 26.634375Q324.76562 27.134375 324.21875 27.3375Q323.6875 27.540625 323.0625 27.540625Q322.03125 27.540625 321.48438 27.040625Q320.9375 26.540625 320.9375 25.759375Q320.9375 25.30625 321.14062 24.93125Q321.34375 24.540625 321.6875 24.321875Q322.03125 24.0875 322.45312 23.978125Q322.75 23.884375 323.39062 23.80625Q324.65625 23.665625 325.26562 23.446875Q325.26562 23.228125 325.26562 23.18125Q325.26562 22.525 324.96875 22.259375Q324.5625 21.915625 323.76562 21.915625Q323.03125 21.915625 322.67188 22.18125Q322.3125 22.43125 322.14062 23.0875L321.10938 22.946875Q321.25 22.290625 321.57812 21.884375Q321.90625 21.478125 322.51562 21.259375Q323.125 21.040625 323.92188 21.040625Q324.71875 21.040625 325.21875 21.228125Q325.71875 21.415625 325.95312 21.696875Q326.1875 21.978125 326.28125 22.415625Q326.32812 22.68125 326.32812 23.384375L326.32812 24.790625Q326.32812 26.259375 326.39062 26.65Q326.46875 27.040625 326.67188 27.4L325.5625 27.4Q325.40625 27.071875 325.35938 26.634375ZM325.26562 24.275Q324.6875 24.509375 323.54688 24.68125Q322.89062 24.775 322.625 24.9Q322.35938 25.009375 322.20312 25.228125Q322.0625 25.446875 322.0625 25.728125Q322.0625 26.15 322.375 26.43125Q322.70312 26.7125 323.3125 26.7125Q323.92188 26.7125 324.39062 26.446875Q324.875 26.18125 325.09375 25.7125Q325.26562 25.353125 325.26562 24.665625L325.26562 24.275ZM329.26562 27.4L328.28125 27.4L328.28125 18.80625L329.34375 18.80625L329.34375 21.86875Q330.01562 21.040625 331.04688 21.040625Q331.625 21.040625 332.125 21.275Q332.64062 21.49375 332.96875 21.915625Q333.3125 22.3375 333.5 22.93125Q333.6875 23.525 333.6875 24.196875Q333.6875 25.790625 332.89062 26.665625Q332.09375 27.540625 331.0 27.540625Q329.89062 27.540625 329.26562 26.61875L329.26562 27.4ZM329.25 24.24375Q329.25 25.353125 329.5625 25.853125Q330.0625 26.665625 330.90625 26.665625Q331.59375 26.665625 332.09375 26.071875Q332.60938 25.478125 332.60938 24.275Q332.60938 23.05625 332.125 22.478125Q331.64062 21.9 330.95312 21.9Q330.26562 21.9 329.75 22.509375Q329.25 23.103125 329.25 24.24375ZM335.29688 20.025L335.29688 18.80625L336.35938 18.80625L336.35938 20.025L335.29688 20.025ZM335.29688 27.4L335.29688 21.18125L336.35938 21.18125L336.35938 27.4L335.29688 27.4ZM338.26562 27.4L338.26562 18.80625L339.32812 18.80625L339.32812 27.4L338.26562 27.4ZM345.54688 25.4L346.64062 25.525Q346.39062 26.478125 345.6875 27.009375Q344.98438 27.540625 343.90625 27.540625Q342.54688 27.540625 341.73438 26.696875Q340.9375 25.853125 340.9375 24.3375Q340.9375 22.775 341.75 21.915625Q342.5625 21.040625 343.84375 21.040625Q345.09375 21.040625 345.875 21.884375Q346.67188 22.728125 346.67188 24.275Q346.67188 24.36875 346.67188 24.55625L342.03125 24.55625Q342.09375 25.5875 342.60938 26.134375Q343.125 26.665625 343.90625 26.665625Q344.48438 26.665625 344.89062 26.36875Q345.3125 26.05625 345.54688 25.4ZM342.09375 23.696875L345.5625 23.696875Q345.5 22.9 345.17188 22.509375Q344.65625 21.9 343.85938 21.9Q343.125 21.9 342.625 22.384375Q342.14062 22.86875 342.09375 23.696875Z" fill-rule="nonzero"/><path fill="#fbbc04" fill-opacity="0.7019608" d="M375.5 23.4C375.5 26.713709 372.81372 29.4 369.5 29.4C366.18628 29.4 363.5 26.713709 363.5 23.4C363.5 20.086292 366.18628 17.4 369.5 17.4C372.81372 17.4 375.5 20.086292 375.5 23.4Z" fill-rule="nonzero"/><path fill="#1a1a1a" d="M384.04688 24.634375L385.10938 24.540625Q385.1875 25.196875 385.46875 25.603125Q385.75 26.009375 386.32812 26.275Q386.92188 26.525 387.65625 26.525Q388.29688 26.525 388.79688 26.3375Q389.29688 26.134375 389.53125 25.80625Q389.78125 25.4625 389.78125 25.071875Q389.78125 24.665625 389.54688 24.36875Q389.3125 24.05625 388.78125 23.853125Q388.42188 23.7125 387.23438 23.43125Q386.0625 23.15 385.59375 22.9Q384.96875 22.571875 384.67188 22.103125Q384.375 21.61875 384.375 21.025Q384.375 20.384375 384.73438 19.821875Q385.10938 19.24375 385.8125 18.9625Q386.53125 18.665625 387.39062 18.665625Q388.34375 18.665625 389.07812 18.978125Q389.8125 19.275 390.20312 19.884375Q390.59375 20.478125 390.625 21.228125L389.53125 21.30625Q389.4375 20.49375 388.92188 20.0875Q388.42188 19.665625 387.4375 19.665625Q386.40625 19.665625 385.9375 20.040625Q385.46875 20.415625 385.46875 20.946875Q385.46875 21.415625 385.79688 21.7125Q386.125 22.009375 387.5 22.321875Q388.89062 22.634375 389.40625 22.86875Q390.15625 23.228125 390.51562 23.759375Q390.875 24.275 390.875 24.978125Q390.875 25.665625 390.48438 26.275Q390.09375 26.86875 389.35938 27.2125Q388.625 27.540625 387.70312 27.540625Q386.53125 27.540625 385.73438 27.2125Q384.95312 26.86875 384.5 26.18125Q384.0625 25.49375 384.04688 24.634375ZM398.9375 26.478125Q399.73438 27.025 400.39062 27.275L400.0625 28.071875Q399.14062 27.728125 398.21875 27.009375Q397.26562 27.540625 396.10938 27.540625Q394.9375 27.540625 393.98438 26.978125Q393.04688 26.415625 392.53125 25.4Q392.01562 24.384375 392.01562 23.103125Q392.01562 21.8375 392.53125 20.790625Q393.04688 19.74375 394.0 19.196875Q394.95312 18.65 396.125 18.65Q397.3125 18.65 398.26562 19.228125Q399.23438 19.790625 399.73438 20.80625Q400.23438 21.821875 400.23438 23.103125Q400.23438 24.165625 399.90625 25.009375Q399.59375 25.853125 398.9375 26.478125ZM396.4375 25.025Q397.42188 25.30625 398.0625 25.853125Q399.0625 24.93125 399.0625 23.103125Q399.0625 22.05625 398.70312 21.275Q398.34375 20.49375 397.65625 20.071875Q396.98438 19.634375 396.14062 19.634375Q394.85938 19.634375 394.01562 20.509375Q393.1875 21.36875 393.1875 23.103125Q393.1875 24.775 394.01562 25.68125Q394.84375 26.571875 396.14062 26.571875Q396.75 26.571875 397.28125 26.3375Q396.75 25.99375 396.15625 25.853125L396.4375 25.025ZM401.39062 27.4L401.39062 18.80625L403.10938 18.80625L405.14062 24.884375Q405.42188 25.74375 405.54688 26.165625Q405.6875 25.696875 406.0 24.790625L408.0625 18.80625L409.59375 18.80625L409.59375 27.4L408.5 27.4L408.5 20.2125L406.0 27.4L404.96875 27.4L402.48438 20.0875L402.48438 27.4L401.39062 27.4Z" fill-rule="nonzero"/></svg>