<svg version="1.1" xmlns="http://www.w3.org/2000/svg" xmlns:xlink="http://www.w3.org/1999/xlink" width="701" height="324"><defs/><g><g><rect fill="#C0C0C0" stroke="none" x="462" y="437" width="472" height="304" transform="matrix(1 0 0 1 -237 -420)" fill-opacity="0.2"/></g><g><rect fill="#ffffff" stroke="none" x="455" y="430" width="472" height="304" transform="matrix(1 0 0 1 -237 -420)"/></g><g><path fill="none" stroke="#000000" paint-order="fill stroke markers" d=" M 218 10 L 690 10 L 690 314 L 218 314 L 218 10 Z Z" stroke-miterlimit="10" stroke-dasharray=""/></g><g><g><path fill="none" stroke="none"/><text fill="#000000" stroke="none" font-family="Arial" font-size="13px" font-style="normal" font-weight="bold" text-decoration="undefined" x="691.5" y="443.5" text-anchor="middle" dominant-baseline="central" transform="matrix(1 0 0 1 -237 -420)">Sistema</text></g></g><g><path fill="#ffffff" stroke="none" paint-order="stroke fill markers" d=" M 76.57772460937503 75.85000000000002 C 76.57772460937503 70.96227952000004 80.53552697737501 67 85.417724609375 67 C 90.29992224137499 67 94.25772460937497 70.96227952000004 94.25772460937497 75.85000000000002 C 94.25772460937497 80.73772048000001 90.29992224137499 84.69999999999999 85.417724609375 84.69999999999999 C 80.53552697737501 84.69999999999999 76.57772460937503 80.73772048000001 76.57772460937503 75.85000000000002 Z"/></g><g><path fill="none" stroke="#000000" paint-order="fill stroke markers" d=" M 76.57772460937503 75.85000000000002 C 76.57772460937503 70.96227952000004 80.53552697737501 67 85.417724609375 67 C 90.29992224137499 67 94.25772460937497 70.96227952000004 94.25772460937497 75.85000000000002 C 94.25772460937497 80.73772048000001 90.29992224137499 84.69999999999999 85.417724609375 84.69999999999999 C 80.53552697737501 84.69999999999999 76.57772460937503 80.73772048000001 76.57772460937503 75.85000000000002 Z" stroke-miterlimit="10" stroke-dasharray=""/></g><g><path fill="none" stroke="#000000" paint-order="fill stroke markers" d=" M 85.417724609375 84.69999999999999 L 85.417724609375 102.29999999999995" stroke-miterlimit="10" stroke-dasharray=""/></g><g><path fill="none" stroke="#000000" paint-order="fill stroke markers" d=" M 76.05772460937499 91.30000000000001 L 94.77772460937501 91.30000000000001" stroke-miterlimit="10" stroke-dasharray=""/></g><g><path fill="none" stroke="#000000" paint-order="fill stroke markers" d=" M 85.417724609375 102.29999999999995 L 72.417724609375 120" stroke-miterlimit="10" stroke-dasharray=""/></g><g><path fill="none" stroke="#000000" paint-order="fill stroke markers" d=" M 85.417724609375 102.29999999999995 L 98.417724609375 120" stroke-miterlimit="10" stroke-dasharray=""/></g><g><g><path fill="none" stroke="none"/><text fill="#000000" stroke="none" font-family="Arial" font-size="13px" font-style="normal" font-weight="bold" text-decoration="undefined" x="322.917724609375" y="554.5" text-anchor="middle" dominant-baseline="central" transform="matrix(1 0 0 1 -237 -420)">Utente non autenticato</text></g></g><g><path fill="#C0C0C0" stroke="none" paint-order="stroke fill markers" d=" M 273 114.5 C 273 104.835016 299.4151968 97 332 97 C 364.5848032 97 391 104.835016 391 114.5 C 391 124.164984 364.5848032 132 332 132 C 299.4151968 132 273 124.164984 273 114.5 Z" fill-opacity="0.2"/></g><g><path fill="#ffffff" stroke="none" paint-order="stroke fill markers" d=" M 266 107.5 C 266 97.835016 292.4151968 90 325 90 C 357.5848032 90 384 97.835016 384 107.5 C 384 117.164984 357.5848032 125 325 125 C 292.4151968 125 266 117.164984 266 107.5 Z"/></g><g><path fill="none" stroke="#000000" paint-order="fill stroke markers" d=" M 266 107.5 C 266 97.835016 292.4151968 90 325 90 C 357.5848032 90 384 97.835016 384 107.5 C 384 117.164984 357.5848032 125 325 125 C 292.4151968 125 266 117.164984 266 107.5 Z" stroke-miterlimit="10" stroke-dasharray=""/></g><g><g><path fill="none" stroke="none"/><text fill="#000000" stroke="none" font-family="Arial" font-size="13px" font-style="normal" font-weight="bold" text-decoration="undefined" x="562" y="528.5" text-anchor="middle" dominant-baseline="central" transform="matrix(1 0 0 1 -237 -420)">UC[1] Login</text></g></g><g><path fill="none" stroke="#000000" paint-order="fill stroke markers" d=" M 161 106 L 266 106" stroke-miterlimit="10" stroke-dasharray=""/></g><g><path fill="#C0C0C0" stroke="none" paint-order="stroke fill markers" d=" M 521 69 C 521 49.1177472 551.4446336 33 589 33 C 626.5553664 33 657 49.1177472 657 69 C 657 88.8822528 626.5553664 105 589 105 C 551.4446336 105 521 88.8822528 521 69 Z" fill-opacity="0.2"/></g><g><path fill="#ffffff" stroke="none" paint-order="stroke fill markers" d=" M 514 62 C 514 42.1177472 544.4446336 26 582 26 C 619.5553664 26 650 42.1177472 650 62 C 650 81.8822528 619.5553664 98 582 98 C 544.4446336 98 514 81.8822528 514 62 Z"/></g><g><path fill="none" stroke="#000000" paint-order="fill stroke markers" d=" M 514 62 C 514 42.1177472 544.4446336 26 582 26 C 619.5553664 26 650 42.1177472 650 62 C 650 81.8822528 619.5553664 98 582 98 C 544.4446336 98 514 81.8822528 514 62 Z" stroke-miterlimit="10" stroke-dasharray=""/></g><g><g><path fill="none" stroke="none"/><text fill="#000000" stroke="none" font-family="Arial" font-size="13px" font-style="normal" font-weight="bold" text-decoration="undefined" x="819" y="470" text-anchor="middle" dominant-baseline="central" transform="matrix(1 0 0 1 -237 -420)">UC[2]</text><text fill="#000000" stroke="none" font-family="Arial" font-size="13px" font-style="normal" font-weight="bold" text-decoration="undefined" x="819" y="483" text-anchor="middle" dominant-baseline="central" transform="matrix(1 0 0 1 -237 -420)">Inserimento</text><text fill="#000000" stroke="none" font-family="Arial" font-size="13px" font-style="normal" font-weight="bold" text-decoration="undefined" x="819" y="496" text-anchor="middle" dominant-baseline="central" transform="matrix(1 0 0 1 -237 -420)">E-mail</text></g></g><g><path fill="#C0C0C0" stroke="none" paint-order="stroke fill markers" d=" M 249 269 C 249 249.11774720000005 284.81721600000003 233 329 233 C 373.18278399999997 233 409 249.11774720000005 409 269 C 409 288.88225279999995 373.18278399999997 305 329 305 C 284.81721600000003 305 249 288.88225279999995 249 269 Z" fill-opacity="0.2"/></g><g><path fill="#ffffff" stroke="none" paint-order="stroke fill markers" d=" M 242 262 C 242 242.11774720000005 277.81721600000003 226 322 226 C 366.18278399999997 226 402 242.11774720000005 402 262 C 402 281.88225279999995 366.18278399999997 298 322 298 C 277.81721600000003 298 242 281.88225279999995 242 262 Z"/></g><g><path fill="none" stroke="#000000" paint-order="fill stroke markers" d=" M 242 262 C 242 242.11774720000005 277.81721600000003 226 322 226 C 366.18278399999997 226 402 242.11774720000005 402 262 C 402 281.88225279999995 366.18278399999997 298 322 298 C 277.81721600000003 298 242 281.88225279999995 242 262 Z" stroke-miterlimit="10" stroke-dasharray=""/></g><g><g><path fill="none" stroke="none"/><text fill="#000000" stroke="none" font-family="Arial" font-size="13px" font-style="normal" font-weight="bold" text-decoration="undefined" x="559" y="670" text-anchor="middle" dominant-baseline="central" transform="matrix(1 0 0 1 -237 -420)">UC[4] Errore</text><text fill="#000000" stroke="none" font-family="Arial" font-size="13px" font-style="normal" font-weight="bold" text-decoration="undefined" x="559" y="683" text-anchor="middle" dominant-baseline="central" transform="matrix(1 0 0 1 -237 -420)">«Credenziali</text><text fill="#000000" stroke="none" font-family="Arial" font-size="13px" font-style="normal" font-weight="bold" text-decoration="undefined" x="559" y="696" text-anchor="middle" dominant-baseline="central" transform="matrix(1 0 0 1 -237 -420)">non valide»</text></g></g><g><path fill="#C0C0C0" stroke="none" paint-order="stroke fill markers" d=" M 425 269 C 425 249.11774720000005 457.2354944 233 497 233 C 536.7645056 233 569 249.11774720000005 569 269 C 569 288.88225279999995 536.7645056 305 497 305 C 457.2354944 305 425 288.88225279999995 425 269 Z" fill-opacity="0.2"/></g><g><path fill="#ffffff" stroke="none" paint-order="stroke fill markers" d=" M 418 262 C 418 242.11774720000005 450.2354944 226 490 226 C 529.7645056 226 562 242.11774720000005 562 262 C 562 281.88225279999995 529.7645056 298 490 298 C 450.2354944 298 418 281.88225279999995 418 262 Z"/></g><g><path fill="none" stroke="#000000" paint-order="fill stroke markers" d=" M 418 262 C 418 242.11774720000005 450.2354944 226 490 226 C 529.7645056 226 562 242.11774720000005 562 262 C 562 281.88225279999995 529.7645056 298 490 298 C 450.2354944 298 418 281.88225279999995 418 262 Z" stroke-miterlimit="10" stroke-dasharray=""/></g><g><g><path fill="none" stroke="none"/><text fill="#000000" stroke="none" font-family="Arial" font-size="13px" font-style="normal" font-weight="bold" text-decoration="undefined" x="727" y="676.5" text-anchor="middle" dominant-baseline="central" transform="matrix(1 0 0 1 -237 -420)">UC[5] Errore</text><text fill="#000000" stroke="none" font-family="Arial" font-size="13px" font-style="normal" font-weight="bold" text-decoration="undefined" x="727" y="689.5" text-anchor="middle" dominant-baseline="central" transform="matrix(1 0 0 1 -237 -420)">Generico</text></g></g><g><path fill="none" stroke="#000000" paint-order="fill stroke markers" d=" M 384 99 L 402 99 L 402 58 L 514 58" stroke-miterlimit="10" stroke-dasharray="3"/></g><g><path fill="none" stroke="#000000" paint-order="fill stroke markers" d=" M 503.8373251423759 62.209517756016 L 514 58 L 503.8373251423758 53.790482243984" stroke-miterlimit="10" stroke-dasharray=""/></g><g><rect fill="#ffffff" stroke="none" x="622" y="449" width="55.65625" height="13" transform="matrix(1 0 0 1 -237 -420)"/></g><g><g><path fill="none" stroke="none"/><text fill="#000000" stroke="none" font-family="Arial" font-size="13px" font-style="normal" font-weight="normal" text-decoration="undefined" x="649.828125" y="455.5" text-anchor="middle" dominant-baseline="central" transform="matrix(1 0 0 1 -237 -420)">«include»</text></g></g><g><path fill="none" stroke="#000000" paint-order="fill stroke markers" d=" M 322 226 L 322 125" stroke-miterlimit="10" stroke-dasharray="3"/></g><g><path fill="none" stroke="#000000" paint-order="fill stroke markers" d=" M 326.209517756016 135.1626748576241 L 322 125 L 317.790482243984 135.1626748576241" stroke-miterlimit="10" stroke-dasharray=""/></g><g><rect fill="#ffffff" stroke="none" x="492" y="630" width="53.49169921875" height="13" transform="matrix(1 0 0 1 -237 -420)"/></g><g><g><path fill="none" stroke="none"/><text fill="#000000" stroke="none" font-family="Arial" font-size="13px" font-style="normal" font-weight="normal" text-decoration="undefined" x="518.745849609375" y="636.5" text-anchor="middle" dominant-baseline="central" transform="matrix(1 0 0 1 -237 -420)">«extend»</text></g></g><g><path fill="none" stroke="#000000" paint-order="fill stroke markers" d=" M 490 226 L 490 186 L 322 186 L 322 125" stroke-miterlimit="10" stroke-dasharray="3"/></g><g><path fill="none" stroke="#000000" paint-order="fill stroke markers" d=" M 326.209517756016 135.1626748576241 L 322 125 L 317.790482243984 135.1626748576241" stroke-miterlimit="10" stroke-dasharray=""/></g><g><rect fill="#ffffff" stroke="none" x="663" y="629" width="53.49169921875" height="13" transform="matrix(1 0 0 1 -237 -420)"/></g><g><g><path fill="none" stroke="none"/><text fill="#000000" stroke="none" font-family="Arial" font-size="13px" font-style="normal" font-weight="normal" text-decoration="undefined" x="689.745849609375" y="635.5" text-anchor="middle" dominant-baseline="central" transform="matrix(1 0 0 1 -237 -420)">«extend»</text></g></g><g><path fill="#C0C0C0" stroke="none" paint-order="stroke fill markers" d=" M 521 149 C 521 129.11774720000005 551.4446336 113 589 113 C 626.5553664 113 657 129.11774720000005 657 149 C 657 168.88225279999995 626.5553664 185 589 185 C 551.4446336 185 521 168.88225279999995 521 149 Z" fill-opacity="0.2"/></g><g><path fill="#ffffff" stroke="none" paint-order="stroke fill markers" d=" M 514 142 C 514 122.11774720000005 544.4446336 106 582 106 C 619.5553664 106 650 122.11774720000005 650 142 C 650 161.88225279999995 619.5553664 178 582 178 C 544.4446336 178 514 161.88225279999995 514 142 Z"/></g><g><path fill="none" stroke="#000000" paint-order="fill stroke markers" d=" M 514 142 C 514 122.11774720000005 544.4446336 106 582 106 C 619.5553664 106 650 122.11774720000005 650 142 C 650 161.88225279999995 619.5553664 178 582 178 C 544.4446336 178 514 161.88225279999995 514 142 Z" stroke-miterlimit="10" stroke-dasharray=""/></g><g><g><path fill="none" stroke="none"/><text fill="#000000" stroke="none" font-family="Arial" font-size="13px" font-style="normal" font-weight="bold" text-decoration="undefined" x="819" y="550" text-anchor="middle" dominant-baseline="central" transform="matrix(1 0 0 1 -237 -420)">UC[3]</text><text fill="#000000" stroke="none" font-family="Arial" font-size="13px" font-style="normal" font-weight="bold" text-decoration="undefined" x="819" y="563" text-anchor="middle" dominant-baseline="central" transform="matrix(1 0 0 1 -237 -420)">Inserimento</text><text fill="#000000" stroke="none" font-family="Arial" font-size="13px" font-style="normal" font-weight="bold" text-decoration="undefined" x="819" y="576" text-anchor="middle" dominant-baseline="central" transform="matrix(1 0 0 1 -237 -420)">Password</text></g></g><g><path fill="none" stroke="#000000" paint-order="fill stroke markers" d=" M 384 99 L 402 99 L 402 146 L 514 146" stroke-miterlimit="10" stroke-dasharray="3"/></g><g><path fill="none" stroke="#000000" paint-order="fill stroke markers" d=" M 503.8373251423759 150.209517756016 L 514 146 L 503.8373251423758 141.790482243984" stroke-miterlimit="10" stroke-dasharray=""/></g><g><rect fill="#ffffff" stroke="none" x="622" y="562" width="55.65625" height="13" transform="matrix(1 0 0 1 -237 -420)"/></g><g><g><path fill="none" stroke="none"/><text fill="#000000" stroke="none" font-family="Arial" font-size="13px" font-style="normal" font-weight="normal" text-decoration="undefined" x="649.828125" y="568.5" text-anchor="middle" dominant-baseline="central" transform="matrix(1 0 0 1 -237 -420)">«include»</text></g></g></g></svg>