<svg version="1.1" xmlns="http://www.w3.org/2000/svg" xmlns:xlink="http://www.w3.org/1999/xlink" width="676" height="381"><defs/><g><g><rect fill="#C0C0C0" stroke="none" x="1539" y="2215" width="471" height="361" transform="matrix(1 0 0 1 -1338 -2198)" fill-opacity="0.2"/></g><g><rect fill="#ffffff" stroke="none" x="1532" y="2208" width="471" height="361" transform="matrix(1 0 0 1 -1338 -2198)"/></g><g><path fill="none" stroke="#000000" paint-order="fill stroke markers" d=" M 194 10 L 665 10 L 665 371 L 194 371 L 194 10 Z Z" stroke-miterlimit="10" stroke-dasharray=""/></g><g><g><path fill="none" stroke="none"/><text fill="#000000" stroke="none" font-family="Arial" font-size="13px" font-style="normal" font-weight="bold" text-decoration="undefined" x="1768" y="2221.5" text-anchor="middle" dominant-baseline="central" transform="matrix(1 0 0 1 -1338 -2198)">Sistema</text></g></g><g><path fill="#C0C0C0" stroke="none" paint-order="stroke fill markers" d=" M 265 189 C 265 169.11774719999994 313.35324160000005 153 373 153 C 432.64675839999995 153 481 169.11774719999994 481 189 C 481 208.88225280000006 432.64675839999995 225 373 225 C 313.35324160000005 225 265 208.88225280000006 265 189 Z" fill-opacity="0.2"/></g><g><path fill="#ffffff" stroke="none" paint-order="stroke fill markers" d=" M 258 182 C 258 162.11774719999994 306.35324160000005 146 366 146 C 425.64675839999995 146 474 162.11774719999994 474 182 C 474 201.88225280000006 425.64675839999995 218 366 218 C 306.35324160000005 218 258 201.88225280000006 258 182 Z"/></g><g><path fill="none" stroke="#000000" paint-order="fill stroke markers" d=" M 258 182 C 258 162.11774719999994 306.35324160000005 146 366 146 C 425.64675839999995 146 474 162.11774719999994 474 182 C 474 201.88225280000006 425.64675839999995 218 366 218 C 306.35324160000005 218 258 201.88225280000006 258 182 Z" stroke-miterlimit="10" stroke-dasharray=""/></g><g><g><path fill="none" stroke="none"/><text fill="#000000" stroke="none" font-family="Arial" font-size="13px" font-style="normal" font-weight="bold" text-decoration="undefined" x="1704" y="2368" text-anchor="middle" dominant-baseline="central" transform="matrix(1 0 0 1 -1338 -2198)">UC[16] Visualizzare i</text><text fill="#000000" stroke="none" font-family="Arial" font-size="13px" font-style="normal" font-weight="bold" text-decoration="undefined" x="1704" y="2381" text-anchor="middle" dominant-baseline="central" transform="matrix(1 0 0 1 -1338 -2198)">dettagli di una routine</text><text fill="#000000" stroke="none" font-family="Arial" font-size="13px" font-style="normal" font-weight="bold" text-decoration="undefined" x="1704" y="2394" text-anchor="middle" dominant-baseline="central" transform="matrix(1 0 0 1 -1338 -2198)">esistente</text></g></g><g><path fill="#ffffff" stroke="none" paint-order="stroke fill markers" d=" M 88.14632812500008 147.8499999999999 C 88.14632812500008 142.9622795199998 92.10413049299996 139 96.986328125 139 C 101.86852575700004 139 105.82632812499992 142.9622795199998 105.82632812499992 147.8499999999999 C 105.82632812499992 152.73772048 101.86852575700004 156.69999999999982 96.986328125 156.69999999999982 C 92.10413049299996 156.69999999999982 88.14632812500008 152.73772048 88.14632812500008 147.8499999999999 Z"/></g><g><path fill="none" stroke="#000000" paint-order="fill stroke markers" d=" M 88.14632812500008 147.8499999999999 C 88.14632812500008 142.9622795199998 92.10413049299996 139 96.986328125 139 C 101.86852575700004 139 105.82632812499992 142.9622795199998 105.82632812499992 147.8499999999999 C 105.82632812499992 152.73772048 101.86852575700004 156.69999999999982 96.986328125 156.69999999999982 C 92.10413049299996 156.69999999999982 88.14632812500008 152.73772048 88.14632812500008 147.8499999999999 Z" stroke-miterlimit="10" stroke-dasharray=""/></g><g><path fill="none" stroke="#000000" paint-order="fill stroke markers" d=" M 96.986328125 156.69999999999982 L 96.986328125 174.30000000000018" stroke-miterlimit="10" stroke-dasharray=""/></g><g><path fill="none" stroke="#000000" paint-order="fill stroke markers" d=" M 87.6263281250001 163.30000000000018 L 106.3463281249999 163.30000000000018" stroke-miterlimit="10" stroke-dasharray=""/></g><g><path fill="none" stroke="#000000" paint-order="fill stroke markers" d=" M 96.986328125 174.30000000000018 L 83.986328125 192" stroke-miterlimit="10" stroke-dasharray=""/></g><g><path fill="none" stroke="#000000" paint-order="fill stroke markers" d=" M 96.986328125 174.30000000000018 L 109.986328125 192" stroke-miterlimit="10" stroke-dasharray=""/></g><g><g><path fill="none" stroke="none"/><text fill="#000000" stroke="none" font-family="Arial" font-size="13px" font-style="normal" font-weight="bold" text-decoration="undefined" x="1435.486328125" y="2404.5" text-anchor="middle" dominant-baseline="central" transform="matrix(1 0 0 1 -1338 -2198)">Utente autenticato</text></g></g><g><path fill="none" stroke="#000000" paint-order="fill stroke markers" d=" M 184 178 L 258 178" stroke-miterlimit="10" stroke-dasharray=""/></g><g><path fill="#C0C0C0" stroke="none" paint-order="stroke fill markers" d=" M 505 95 C 505 65.17662079999991 538.1309248 41 579 41 C 619.8690752 41 653 65.17662079999991 653 95 C 653 124.82337920000009 619.8690752 149 579 149 C 538.1309248 149 505 124.82337920000009 505 95 Z" fill-opacity="0.2"/></g><g><path fill="#ffffff" stroke="none" paint-order="stroke fill markers" d=" M 498 88 C 498 58.17662079999991 531.1309248 34 572 34 C 612.8690752 34 646 58.17662079999991 646 88 C 646 117.82337920000009 612.8690752 142 572 142 C 531.1309248 142 498 117.82337920000009 498 88 Z"/></g><g><path fill="none" stroke="#000000" paint-order="fill stroke markers" d=" M 498 88 C 498 58.17662079999991 531.1309248 34 572 34 C 612.8690752 34 646 58.17662079999991 646 88 C 646 117.82337920000009 612.8690752 142 572 142 C 531.1309248 142 498 117.82337920000009 498 88 Z" stroke-miterlimit="10" stroke-dasharray=""/></g><g><g><path fill="none" stroke="none"/><text fill="#000000" stroke="none" font-family="Arial" font-size="13px" font-style="normal" font-weight="bold" text-decoration="undefined" x="1910" y="2261" text-anchor="middle" dominant-baseline="central" transform="matrix(1 0 0 1 -1338 -2198)">UC[17]</text><text fill="#000000" stroke="none" font-family="Arial" font-size="13px" font-style="normal" font-weight="bold" text-decoration="undefined" x="1910" y="2274" text-anchor="middle" dominant-baseline="central" transform="matrix(1 0 0 1 -1338 -2198)">Visualizzazione</text><text fill="#000000" stroke="none" font-family="Arial" font-size="13px" font-style="normal" font-weight="bold" text-decoration="undefined" x="1910" y="2287" text-anchor="middle" dominant-baseline="central" transform="matrix(1 0 0 1 -1338 -2198)">nome di una</text><text fill="#000000" stroke="none" font-family="Arial" font-size="13px" font-style="normal" font-weight="bold" text-decoration="undefined" x="1910" y="2300" text-anchor="middle" dominant-baseline="central" transform="matrix(1 0 0 1 -1338 -2198)">routine</text><text fill="#000000" stroke="none" font-family="Arial" font-size="13px" font-style="normal" font-weight="bold" text-decoration="undefined" x="1910" y="2313" text-anchor="middle" dominant-baseline="central" transform="matrix(1 0 0 1 -1338 -2198)">esistente</text></g></g><g><path fill="#C0C0C0" stroke="none" paint-order="stroke fill markers" d=" M 505 296.5 C 505 261.42991519999987 538.1309248 233 579 233 C 619.8690752 233 653 261.42991519999987 653 296.5 C 653 331.57008480000013 619.8690752 360 579 360 C 538.1309248 360 505 331.57008480000013 505 296.5 Z" fill-opacity="0.2"/></g><g><path fill="#ffffff" stroke="none" paint-order="stroke fill markers" d=" M 498 289.5 C 498 254.42991519999987 531.1309248 226 572 226 C 612.8690752 226 646 254.42991519999987 646 289.5 C 646 324.57008480000013 612.8690752 353 572 353 C 531.1309248 353 498 324.57008480000013 498 289.5 Z"/></g><g><path fill="none" stroke="#000000" paint-order="fill stroke markers" d=" M 498 289.5 C 498 254.42991519999987 531.1309248 226 572 226 C 612.8690752 226 646 254.42991519999987 646 289.5 C 646 324.57008480000013 612.8690752 353 572 353 C 531.1309248 353 498 324.57008480000013 498 289.5 Z" stroke-miterlimit="10" stroke-dasharray=""/></g><g><g><path fill="none" stroke="none"/><text fill="#000000" stroke="none" font-family="Arial" font-size="13px" font-style="normal" font-weight="bold" text-decoration="undefined" x="1910" y="2456" text-anchor="middle" dominant-baseline="central" transform="matrix(1 0 0 1 -1338 -2198)">UC [18]</text><text fill="#000000" stroke="none" font-family="Arial" font-size="13px" font-style="normal" font-weight="bold" text-decoration="undefined" x="1910" y="2469" text-anchor="middle" dominant-baseline="central" transform="matrix(1 0 0 1 -1338 -2198)">Visualizzazione</text><text fill="#000000" stroke="none" font-family="Arial" font-size="13px" font-style="normal" font-weight="bold" text-decoration="undefined" x="1910" y="2482" text-anchor="middle" dominant-baseline="central" transform="matrix(1 0 0 1 -1338 -2198)">diagramma dei</text><text fill="#000000" stroke="none" font-family="Arial" font-size="13px" font-style="normal" font-weight="bold" text-decoration="undefined" x="1910" y="2495" text-anchor="middle" dominant-baseline="central" transform="matrix(1 0 0 1 -1338 -2198)">blocchi di una</text><text fill="#000000" stroke="none" font-family="Arial" font-size="13px" font-style="normal" font-weight="bold" text-decoration="undefined" x="1910" y="2508" text-anchor="middle" dominant-baseline="central" transform="matrix(1 0 0 1 -1338 -2198)">routine</text><text fill="#000000" stroke="none" font-family="Arial" font-size="13px" font-style="normal" font-weight="bold" text-decoration="undefined" x="1910" y="2521" text-anchor="middle" dominant-baseline="central" transform="matrix(1 0 0 1 -1338 -2198)">esistente</text></g></g><g><path fill="none" stroke="#000000" paint-order="fill stroke markers" d=" M 370 146 L 370 82 L 498 82" stroke-miterlimit="10" stroke-dasharray="3"/></g><g><path fill="none" stroke="#000000" paint-order="fill stroke markers" d=" M 487.8373251423759 86.20951775601588 L 498 82 L 487.8373251423759 77.79048224398412" stroke-miterlimit="10" stroke-dasharray=""/></g><g><rect fill="#ffffff" stroke="none" x="1716" y="2287" width="55.65625" height="13" transform="matrix(1 0 0 1 -1338 -2198)"/></g><g><g><path fill="none" stroke="none"/><text fill="#000000" stroke="none" font-family="Arial" font-size="13px" font-style="normal" font-weight="normal" text-decoration="undefined" x="1743.828125" y="2293.5" text-anchor="middle" dominant-baseline="central" transform="matrix(1 0 0 1 -1338 -2198)">«include»</text></g></g><g><path fill="none" stroke="#000000" paint-order="fill stroke markers" d=" M 370 218 L 370 298 L 498 298" stroke-miterlimit="10" stroke-dasharray="3"/></g><g><path fill="none" stroke="#000000" paint-order="fill stroke markers" d=" M 487.8373251423759 302.2095177560159 L 498 298 L 487.8373251423759 293.7904822439841" stroke-miterlimit="10" stroke-dasharray=""/></g><g><rect fill="#ffffff" stroke="none" x="1716" y="2472" width="55.65625" height="13" transform="matrix(1 0 0 1 -1338 -2198)"/></g><g><g><path fill="none" stroke="none"/><text fill="#000000" stroke="none" font-family="Arial" font-size="13px" font-style="normal" font-weight="normal" text-decoration="undefined" x="1743.828125" y="2478.5" text-anchor="middle" dominant-baseline="central" transform="matrix(1 0 0 1 -1338 -2198)">«include»</text></g></g></g></svg>