<svg version="1.1" xmlns="http://www.w3.org/2000/svg" xmlns:xlink="http://www.w3.org/1999/xlink" width="541" height="207"><defs/><g><g><rect fill="#C0C0C0" stroke="none" x="1615" y="2302" width="327" height="187" transform="matrix(1 0 0 1 -1405 -2285)" fill-opacity="0.2"/></g><g><rect fill="#ffffff" stroke="none" x="1608" y="2295" width="327" height="187" transform="matrix(1 0 0 1 -1405 -2285)"/></g><g><path fill="none" stroke="#000000" paint-order="fill stroke markers" d=" M 203 10 L 530 10 L 530 197 L 203 197 L 203 10 Z Z" stroke-miterlimit="10" stroke-dasharray=""/></g><g><g><path fill="none" stroke="none"/><text fill="#000000" stroke="none" font-family="Arial" font-size="13px" font-style="normal" font-weight="bold" text-decoration="undefined" x="1772" y="2308.5" text-anchor="middle" dominant-baseline="central" transform="matrix(1 0 0 1 -1405 -2285)">Sistema</text></g></g><g><path fill="#ffffff" stroke="none" paint-order="stroke fill markers" d=" M 88.14632812500008 78.84999999999991 C 88.14632812500008 73.96227951999981 92.10413049299996 70 96.986328125 70 C 101.86852575700004 70 105.82632812499992 73.96227951999981 105.82632812499992 78.84999999999991 C 105.82632812499992 83.73772048000001 101.86852575700004 87.69999999999982 96.986328125 87.69999999999982 C 92.10413049299996 87.69999999999982 88.14632812500008 83.73772048000001 88.14632812500008 78.84999999999991 Z"/></g><g><path fill="none" stroke="#000000" paint-order="fill stroke markers" d=" M 88.14632812500008 78.84999999999991 C 88.14632812500008 73.96227951999981 92.10413049299996 70 96.986328125 70 C 101.86852575700004 70 105.82632812499992 73.96227951999981 105.82632812499992 78.84999999999991 C 105.82632812499992 83.73772048000001 101.86852575700004 87.69999999999982 96.986328125 87.69999999999982 C 92.10413049299996 87.69999999999982 88.14632812500008 83.73772048000001 88.14632812500008 78.84999999999991 Z" stroke-miterlimit="10" stroke-dasharray=""/></g><g><path fill="none" stroke="#000000" paint-order="fill stroke markers" d=" M 96.986328125 87.69999999999982 L 96.986328125 105.30000000000018" stroke-miterlimit="10" stroke-dasharray=""/></g><g><path fill="none" stroke="#000000" paint-order="fill stroke markers" d=" M 87.6263281250001 94.30000000000018 L 106.3463281249999 94.30000000000018" stroke-miterlimit="10" stroke-dasharray=""/></g><g><path fill="none" stroke="#000000" paint-order="fill stroke markers" d=" M 96.986328125 105.30000000000018 L 83.986328125 123" stroke-miterlimit="10" stroke-dasharray=""/></g><g><path fill="none" stroke="#000000" paint-order="fill stroke markers" d=" M 96.986328125 105.30000000000018 L 109.986328125 123" stroke-miterlimit="10" stroke-dasharray=""/></g><g><g><path fill="none" stroke="none"/><text fill="#000000" stroke="none" font-family="Arial" font-size="13px" font-style="normal" font-weight="bold" text-decoration="undefined" x="1502.486328125" y="2422.5" text-anchor="middle" dominant-baseline="central" transform="matrix(1 0 0 1 -1405 -2285)">Utente autenticato</text></g></g><g><path fill="#C0C0C0" stroke="none" paint-order="stroke fill markers" d=" M 273 110.5 C 273 95.86445279999998 319.5623808 84 377 84 C 434.4376192 84 481 95.86445279999998 481 110.5 C 481 125.13554720000002 434.4376192 137 377 137 C 319.5623808 137 273 125.13554720000002 273 110.5 Z" fill-opacity="0.2"/></g><g><path fill="#ffffff" stroke="none" paint-order="stroke fill markers" d=" M 266 103.5 C 266 88.86445279999998 312.5623808 77 370 77 C 427.4376192 77 474 88.86445279999998 474 103.5 C 474 118.13554720000002 427.4376192 130 370 130 C 312.5623808 130 266 118.13554720000002 266 103.5 Z"/></g><g><path fill="none" stroke="#000000" paint-order="fill stroke markers" d=" M 266 103.5 C 266 88.86445279999998 312.5623808 77 370 77 C 427.4376192 77 474 88.86445279999998 474 103.5 C 474 118.13554720000002 427.4376192 130 370 130 C 312.5623808 130 266 118.13554720000002 266 103.5 Z" stroke-miterlimit="10" stroke-dasharray=""/></g><g><g><path fill="none" stroke="none"/><text fill="#000000" stroke="none" font-family="Arial" font-size="13px" font-style="normal" font-weight="bold" text-decoration="undefined" x="1775" y="2383" text-anchor="middle" dominant-baseline="central" transform="matrix(1 0 0 1 -1405 -2285)">UC[19] Eliminare una</text><text fill="#000000" stroke="none" font-family="Arial" font-size="13px" font-style="normal" font-weight="bold" text-decoration="undefined" x="1775" y="2396" text-anchor="middle" dominant-baseline="central" transform="matrix(1 0 0 1 -1405 -2285)">routine esistente</text></g></g><g><path fill="none" stroke="#000000" paint-order="fill stroke markers" d=" M 184 101 L 266 101" stroke-miterlimit="10" stroke-dasharray=""/></g></g></svg>