<svg version="1.1" xmlns="http://www.w3.org/2000/svg" xmlns:xlink="http://www.w3.org/1999/xlink" width="807" height="324"><defs/><g><g><rect fill="#C0C0C0" stroke="none" x="287" y="294" width="577" height="304" transform="matrix(1 0 0 1 -61 -277)" fill-opacity="0.2"/></g><g><rect fill="#ffffff" stroke="none" x="280" y="287" width="577" height="304" transform="matrix(1 0 0 1 -61 -277)"/></g><g><path fill="none" stroke="#000000" paint-order="fill stroke markers" d=" M 219 10 L 796 10 L 796 314 L 219 314 L 219 10 Z Z" stroke-miterlimit="10" stroke-dasharray=""/></g><g><g><path fill="none" stroke="none"/><text fill="#000000" stroke="none" font-family="Arial" font-size="13px" font-style="normal" font-weight="bold" text-decoration="undefined" x="569" y="300.5" text-anchor="middle" dominant-baseline="central" transform="matrix(1 0 0 1 -61 -277)">Sistema</text></g></g><g><path fill="#ffffff" stroke="none" paint-order="stroke fill markers" d=" M 76.577724609375 48.85000000000002 C 76.577724609375 43.96227952000004 80.53552697737499 40 85.417724609375 40 C 90.29992224137501 40 94.257724609375 43.96227952000004 94.257724609375 48.85000000000002 C 94.257724609375 53.73772048000001 90.29992224137501 57.69999999999999 85.417724609375 57.69999999999999 C 80.53552697737499 57.69999999999999 76.577724609375 53.73772048000001 76.577724609375 48.85000000000002 Z"/></g><g><path fill="none" stroke="#000000" paint-order="fill stroke markers" d=" M 76.577724609375 48.85000000000002 C 76.577724609375 43.96227952000004 80.53552697737499 40 85.417724609375 40 C 90.29992224137501 40 94.257724609375 43.96227952000004 94.257724609375 48.85000000000002 C 94.257724609375 53.73772048000001 90.29992224137501 57.69999999999999 85.417724609375 57.69999999999999 C 80.53552697737499 57.69999999999999 76.577724609375 53.73772048000001 76.577724609375 48.85000000000002 Z" stroke-miterlimit="10" stroke-dasharray=""/></g><g><path fill="none" stroke="#000000" paint-order="fill stroke markers" d=" M 85.417724609375 57.69999999999999 L 85.417724609375 75.30000000000001" stroke-miterlimit="10" stroke-dasharray=""/></g><g><path fill="none" stroke="#000000" paint-order="fill stroke markers" d=" M 76.05772460937499 64.30000000000001 L 94.77772460937501 64.30000000000001" stroke-miterlimit="10" stroke-dasharray=""/></g><g><path fill="none" stroke="#000000" paint-order="fill stroke markers" d=" M 85.417724609375 75.30000000000001 L 72.417724609375 93" stroke-miterlimit="10" stroke-dasharray=""/></g><g><path fill="none" stroke="#000000" paint-order="fill stroke markers" d=" M 85.417724609375 75.30000000000001 L 98.417724609375 93" stroke-miterlimit="10" stroke-dasharray=""/></g><g><g><path fill="none" stroke="none"/><text fill="#000000" stroke="none" font-family="Arial" font-size="13px" font-style="normal" font-weight="bold" text-decoration="undefined" x="146.917724609375" y="384.5" text-anchor="middle" dominant-baseline="central" transform="matrix(1 0 0 1 -61 -277)">Utente non autenticato</text></g></g><g><path fill="#C0C0C0" stroke="none" paint-order="stroke fill markers" d=" M 290 82.5 C 290 72.835016 332.0852288 65 384 65 C 435.9147712 65 478 72.835016 478 82.5 C 478 92.164984 435.9147712 100 384 100 C 332.0852288 100 290 92.164984 290 82.5 Z" fill-opacity="0.2"/></g><g><path fill="#ffffff" stroke="none" paint-order="stroke fill markers" d=" M 283 75.5 C 283 65.835016 325.0852288 58 377 58 C 428.9147712 58 471 65.835016 471 75.5 C 471 85.164984 428.9147712 93 377 93 C 325.0852288 93 283 85.164984 283 75.5 Z"/></g><g><path fill="none" stroke="#000000" paint-order="fill stroke markers" d=" M 283 75.5 C 283 65.835016 325.0852288 58 377 58 C 428.9147712 58 471 65.835016 471 75.5 C 471 85.164984 428.9147712 93 377 93 C 325.0852288 93 283 85.164984 283 75.5 Z" stroke-miterlimit="10" stroke-dasharray=""/></g><g><g><path fill="none" stroke="none"/><text fill="#000000" stroke="none" font-family="Arial" font-size="13px" font-style="normal" font-weight="bold" text-decoration="undefined" x="438" y="353.5" text-anchor="middle" dominant-baseline="central" transform="matrix(1 0 0 1 -61 -277)">UC[6] Registrazione</text></g></g><g><path fill="none" stroke="#000000" paint-order="fill stroke markers" d=" M 161 74 L 283 74" stroke-miterlimit="10" stroke-dasharray=""/></g><g><path fill="#C0C0C0" stroke="none" paint-order="stroke fill markers" d=" M 626 85 C 626 65.1177472 656.4446336 49 694 49 C 731.5553664 49 762 65.1177472 762 85 C 762 104.8822528 731.5553664 121 694 121 C 656.4446336 121 626 104.8822528 626 85 Z" fill-opacity="0.2"/></g><g><path fill="#ffffff" stroke="none" paint-order="stroke fill markers" d=" M 619 78 C 619 58.1177472 649.4446336 42 687 42 C 724.5553664 42 755 58.1177472 755 78 C 755 97.8822528 724.5553664 114 687 114 C 649.4446336 114 619 97.8822528 619 78 Z"/></g><g><path fill="none" stroke="#000000" paint-order="fill stroke markers" d=" M 619 78 C 619 58.1177472 649.4446336 42 687 42 C 724.5553664 42 755 58.1177472 755 78 C 755 97.8822528 724.5553664 114 687 114 C 649.4446336 114 619 97.8822528 619 78 Z" stroke-miterlimit="10" stroke-dasharray=""/></g><g><g><path fill="none" stroke="none"/><text fill="#000000" stroke="none" font-family="Arial" font-size="13px" font-style="normal" font-weight="bold" text-decoration="undefined" x="748" y="343" text-anchor="middle" dominant-baseline="central" transform="matrix(1 0 0 1 -61 -277)">UC[2]</text><text fill="#000000" stroke="none" font-family="Arial" font-size="13px" font-style="normal" font-weight="bold" text-decoration="undefined" x="748" y="356" text-anchor="middle" dominant-baseline="central" transform="matrix(1 0 0 1 -61 -277)">Inserimento</text><text fill="#000000" stroke="none" font-family="Arial" font-size="13px" font-style="normal" font-weight="bold" text-decoration="undefined" x="748" y="369" text-anchor="middle" dominant-baseline="central" transform="matrix(1 0 0 1 -61 -277)">E-mail</text></g></g><g><path fill="none" stroke="#000000" paint-order="fill stroke markers" d=" M 471 74 L 619 74" stroke-miterlimit="10" stroke-dasharray="3"/></g><g><path fill="none" stroke="#000000" paint-order="fill stroke markers" d=" M 608.8373251423759 78.209517756016 L 619 74 L 608.8373251423758 69.790482243984" stroke-miterlimit="10" stroke-dasharray=""/></g><g><rect fill="#ffffff" stroke="none" x="608" y="327" width="55.65625" height="13" transform="matrix(1 0 0 1 -61 -277)"/></g><g><g><path fill="none" stroke="none"/><text fill="#000000" stroke="none" font-family="Arial" font-size="13px" font-style="normal" font-weight="normal" text-decoration="undefined" x="635.828125" y="333.5" text-anchor="middle" dominant-baseline="central" transform="matrix(1 0 0 1 -61 -277)">«include»</text></g></g><g><path fill="#C0C0C0" stroke="none" paint-order="stroke fill markers" d=" M 626 173 C 626 153.1177472 656.4446336 137 694 137 C 731.5553664 137 762 153.1177472 762 173 C 762 192.8822528 731.5553664 209 694 209 C 656.4446336 209 626 192.8822528 626 173 Z" fill-opacity="0.2"/></g><g><path fill="#ffffff" stroke="none" paint-order="stroke fill markers" d=" M 619 166 C 619 146.1177472 649.4446336 130 687 130 C 724.5553664 130 755 146.1177472 755 166 C 755 185.8822528 724.5553664 202 687 202 C 649.4446336 202 619 185.8822528 619 166 Z"/></g><g><path fill="none" stroke="#000000" paint-order="fill stroke markers" d=" M 619 166 C 619 146.1177472 649.4446336 130 687 130 C 724.5553664 130 755 146.1177472 755 166 C 755 185.8822528 724.5553664 202 687 202 C 649.4446336 202 619 185.8822528 619 166 Z" stroke-miterlimit="10" stroke-dasharray=""/></g><g><g><path fill="none" stroke="none"/><text fill="#000000" stroke="none" font-family="Arial" font-size="13px" font-style="normal" font-weight="bold" text-decoration="undefined" x="748" y="431" text-anchor="middle" dominant-baseline="central" transform="matrix(1 0 0 1 -61 -277)">UC[7]</text><text fill="#000000" stroke="none" font-family="Arial" font-size="13px" font-style="normal" font-weight="bold" text-decoration="undefined" x="748" y="444" text-anchor="middle" dominant-baseline="central" transform="matrix(1 0 0 1 -61 -277)">Creazione</text><text fill="#000000" stroke="none" font-family="Arial" font-size="13px" font-style="normal" font-weight="bold" text-decoration="undefined" x="748" y="457" text-anchor="middle" dominant-baseline="central" transform="matrix(1 0 0 1 -61 -277)">Password</text></g></g><g><path fill="none" stroke="#000000" paint-order="fill stroke markers" d=" M 471 74 L 547 74 L 547 170 L 619 170" stroke-miterlimit="10" stroke-dasharray="3"/></g><g><path fill="none" stroke="#000000" paint-order="fill stroke markers" d=" M 608.8373251423759 174.209517756016 L 619 170 L 608.8373251423758 165.790482243984" stroke-miterlimit="10" stroke-dasharray=""/></g><g><rect fill="#ffffff" stroke="none" x="608" y="423" width="55.65625" height="13" transform="matrix(1 0 0 1 -61 -277)"/></g><g><g><path fill="none" stroke="none"/><text fill="#000000" stroke="none" font-family="Arial" font-size="13px" font-style="normal" font-weight="normal" text-decoration="undefined" x="635.828125" y="429.5" text-anchor="middle" dominant-baseline="central" transform="matrix(1 0 0 1 -61 -277)">«include»</text></g></g><g><path fill="#C0C0C0" stroke="none" paint-order="stroke fill markers" d=" M 626 261 C 626 241.11774720000005 656.4446336 225 694 225 C 731.5553664 225 762 241.11774720000005 762 261 C 762 280.88225279999995 731.5553664 297 694 297 C 656.4446336 297 626 280.88225279999995 626 261 Z" fill-opacity="0.2"/></g><g><path fill="#ffffff" stroke="none" paint-order="stroke fill markers" d=" M 619 254 C 619 234.1177472 649.4446336 218 687 218 C 724.5553664 218 755 234.1177472 755 254 C 755 273.88225279999995 724.5553664 290 687 290 C 649.4446336 290 619 273.88225279999995 619 254 Z"/></g><g><path fill="none" stroke="#000000" paint-order="fill stroke markers" d=" M 619 254 C 619 234.1177472 649.4446336 218 687 218 C 724.5553664 218 755 234.1177472 755 254 C 755 273.88225279999995 724.5553664 290 687 290 C 649.4446336 290 619 273.88225279999995 619 254 Z" stroke-miterlimit="10" stroke-dasharray=""/></g><g><g><path fill="none" stroke="none"/><text fill="#000000" stroke="none" font-family="Arial" font-size="13px" font-style="normal" font-weight="bold" text-decoration="undefined" x="748" y="519" text-anchor="middle" dominant-baseline="central" transform="matrix(1 0 0 1 -61 -277)">UC[8]</text><text fill="#000000" stroke="none" font-family="Arial" font-size="13px" font-style="normal" font-weight="bold" text-decoration="undefined" x="748" y="532" text-anchor="middle" dominant-baseline="central" transform="matrix(1 0 0 1 -61 -277)">Conferma</text><text fill="#000000" stroke="none" font-family="Arial" font-size="13px" font-style="normal" font-weight="bold" text-decoration="undefined" x="748" y="545" text-anchor="middle" dominant-baseline="central" transform="matrix(1 0 0 1 -61 -277)">Password</text></g></g><g><path fill="none" stroke="#000000" paint-order="fill stroke markers" d=" M 471 74 L 547 74 L 547 254 L 619 254" stroke-miterlimit="10" stroke-dasharray="3"/></g><g><path fill="none" stroke="#000000" paint-order="fill stroke markers" d=" M 608.8373251423759 258.209517756016 L 619 254 L 608.8373251423758 249.790482243984" stroke-miterlimit="10" stroke-dasharray=""/></g><g><rect fill="#ffffff" stroke="none" x="610" y="510" width="55.65625" height="13" transform="matrix(1 0 0 1 -61 -277)"/></g><g><g><path fill="none" stroke="none"/><text fill="#000000" stroke="none" font-family="Arial" font-size="13px" font-style="normal" font-weight="normal" text-decoration="undefined" x="637.828125" y="516.5" text-anchor="middle" dominant-baseline="central" transform="matrix(1 0 0 1 -61 -277)">«include»</text></g></g><g><path fill="#C0C0C0" stroke="none" paint-order="stroke fill markers" d=" M 234 245 C 234 225.1177472 266.2354944 209 306 209 C 345.7645056 209 378 225.1177472 378 245 C 378 264.88225279999995 345.7645056 281 306 281 C 266.2354944 281 234 264.88225279999995 234 245 Z" fill-opacity="0.2"/></g><g><path fill="#ffffff" stroke="none" paint-order="stroke fill markers" d=" M 227 238 C 227 218.1177472 259.2354944 202 299 202 C 338.7645056 202 371 218.1177472 371 238 C 371 257.88225279999995 338.7645056 274 299 274 C 259.2354944 274 227 257.88225279999995 227 238 Z"/></g><g><path fill="none" stroke="#000000" paint-order="fill stroke markers" d=" M 227 238 C 227 218.1177472 259.2354944 202 299 202 C 338.7645056 202 371 218.1177472 371 238 C 371 257.88225279999995 338.7645056 274 299 274 C 259.2354944 274 227 257.88225279999995 227 238 Z" stroke-miterlimit="10" stroke-dasharray=""/></g><g><g><path fill="none" stroke="none"/><text fill="#000000" stroke="none" font-family="Arial" font-size="13px" font-style="normal" font-weight="bold" text-decoration="undefined" x="360" y="503" text-anchor="middle" dominant-baseline="central" transform="matrix(1 0 0 1 -61 -277)">UC[9] Errore</text><text fill="#000000" stroke="none" font-family="Arial" font-size="13px" font-style="normal" font-weight="bold" text-decoration="undefined" x="360" y="516" text-anchor="middle" dominant-baseline="central" transform="matrix(1 0 0 1 -61 -277)">«E-mail già in</text><text fill="#000000" stroke="none" font-family="Arial" font-size="13px" font-style="normal" font-weight="bold" text-decoration="undefined" x="360" y="529" text-anchor="middle" dominant-baseline="central" transform="matrix(1 0 0 1 -61 -277)">uso»</text></g></g><g><path fill="#C0C0C0" stroke="none" paint-order="stroke fill markers" d=" M 394 245 C 394 225.1177472 426.2354944 209 466 209 C 505.7645056 209 538 225.1177472 538 245 C 538 264.88225279999995 505.7645056 281 466 281 C 426.2354944 281 394 264.88225279999995 394 245 Z" fill-opacity="0.2"/></g><g><path fill="#ffffff" stroke="none" paint-order="stroke fill markers" d=" M 387 238 C 387 218.1177472 419.2354944 202 459 202 C 498.7645056 202 531 218.1177472 531 238 C 531 257.88225279999995 498.7645056 274 459 274 C 419.2354944 274 387 257.88225279999995 387 238 Z"/></g><g><path fill="none" stroke="#000000" paint-order="fill stroke markers" d=" M 387 238 C 387 218.1177472 419.2354944 202 459 202 C 498.7645056 202 531 218.1177472 531 238 C 531 257.88225279999995 498.7645056 274 459 274 C 419.2354944 274 387 257.88225279999995 387 238 Z" stroke-miterlimit="10" stroke-dasharray=""/></g><g><g><path fill="none" stroke="none"/><text fill="#000000" stroke="none" font-family="Arial" font-size="13px" font-style="normal" font-weight="bold" text-decoration="undefined" x="520" y="509.5" text-anchor="middle" dominant-baseline="central" transform="matrix(1 0 0 1 -61 -277)">UC[5] Errore</text><text fill="#000000" stroke="none" font-family="Arial" font-size="13px" font-style="normal" font-weight="bold" text-decoration="undefined" x="520" y="522.5" text-anchor="middle" dominant-baseline="central" transform="matrix(1 0 0 1 -61 -277)">Generico</text></g></g><g><path fill="none" stroke="#000000" paint-order="fill stroke markers" d=" M 299 202 L 299 146 L 379 146 L 379 93" stroke-miterlimit="10" stroke-dasharray="3"/></g><g><path fill="none" stroke="#000000" paint-order="fill stroke markers" d=" M 383.209517756016 103.16267485762415 L 379 93 L 374.790482243984 103.16267485762415" stroke-miterlimit="10" stroke-dasharray=""/></g><g><rect fill="#ffffff" stroke="none" x="296" y="463" width="53.49169921875" height="13" transform="matrix(1 0 0 1 -61 -277)"/></g><g><g><path fill="none" stroke="none"/><text fill="#000000" stroke="none" font-family="Arial" font-size="13px" font-style="normal" font-weight="normal" text-decoration="undefined" x="322.745849609375" y="469.5" text-anchor="middle" dominant-baseline="central" transform="matrix(1 0 0 1 -61 -277)">«extend»</text></g></g><g><path fill="none" stroke="#000000" paint-order="fill stroke markers" d=" M 459 202 L 459 146 L 379 146 L 379 93" stroke-miterlimit="10" stroke-dasharray="3"/></g><g><path fill="none" stroke="#000000" paint-order="fill stroke markers" d=" M 383.209517756016 103.16267485762415 L 379 93 L 374.790482243984 103.16267485762415" stroke-miterlimit="10" stroke-dasharray=""/></g><g><rect fill="#ffffff" stroke="none" x="456" y="462" width="53.49169921875" height="13" transform="matrix(1 0 0 1 -61 -277)"/></g><g><g><path fill="none" stroke="none"/><text fill="#000000" stroke="none" font-family="Arial" font-size="13px" font-style="normal" font-weight="normal" text-decoration="undefined" x="482.745849609375" y="468.5" text-anchor="middle" dominant-baseline="central" transform="matrix(1 0 0 1 -61 -277)">«extend»</text></g></g></g></svg>