<svg version="1.1" xmlns="http://www.w3.org/2000/svg" xmlns:xlink="http://www.w3.org/1999/xlink" width="941" height="468"><defs/><g><g><rect fill="#C0C0C0" stroke="none" x="1774" y="2629" width="732" height="448" transform="matrix(1 0 0 1 -1569 -2612)" fill-opacity="0.2"/></g><g><rect fill="#ffffff" stroke="none" x="1767" y="2622" width="732" height="448" transform="matrix(1 0 0 1 -1569 -2612)"/></g><g><path fill="none" stroke="#000000" paint-order="fill stroke markers" d=" M 198 10 L 930 10 L 930 458 L 198 458 L 198 10 Z Z" stroke-miterlimit="10" stroke-dasharray=""/></g><g><g><path fill="none" stroke="none"/><text fill="#000000" stroke="none" font-family="Arial" font-size="13px" font-style="normal" font-weight="bold" text-decoration="undefined" x="2133.5" y="2635.5" text-anchor="middle" dominant-baseline="central" transform="matrix(1 0 0 1 -1569 -2612)">Sistema</text></g></g><g><path fill="#ffffff" stroke="none" paint-order="stroke fill markers" d=" M 88.14632812500008 194.8499999999999 C 88.14632812500008 189.9622795199998 92.10413049299996 186 96.986328125 186 C 101.86852575700004 186 105.82632812499992 189.9622795199998 105.82632812499992 194.8499999999999 C 105.82632812499992 199.73772048 101.86852575700004 203.69999999999982 96.986328125 203.69999999999982 C 92.10413049299996 203.69999999999982 88.14632812500008 199.73772048 88.14632812500008 194.8499999999999 Z"/></g><g><path fill="none" stroke="#000000" paint-order="fill stroke markers" d=" M 88.14632812500008 194.8499999999999 C 88.14632812500008 189.9622795199998 92.10413049299996 186 96.986328125 186 C 101.86852575700004 186 105.82632812499992 189.9622795199998 105.82632812499992 194.8499999999999 C 105.82632812499992 199.73772048 101.86852575700004 203.69999999999982 96.986328125 203.69999999999982 C 92.10413049299996 203.69999999999982 88.14632812500008 199.73772048 88.14632812500008 194.8499999999999 Z" stroke-miterlimit="10" stroke-dasharray=""/></g><g><path fill="none" stroke="#000000" paint-order="fill stroke markers" d=" M 96.986328125 203.69999999999982 L 96.986328125 221.30000000000018" stroke-miterlimit="10" stroke-dasharray=""/></g><g><path fill="none" stroke="#000000" paint-order="fill stroke markers" d=" M 87.6263281250001 210.30000000000018 L 106.3463281249999 210.30000000000018" stroke-miterlimit="10" stroke-dasharray=""/></g><g><path fill="none" stroke="#000000" paint-order="fill stroke markers" d=" M 96.986328125 221.30000000000018 L 83.986328125 239" stroke-miterlimit="10" stroke-dasharray=""/></g><g><path fill="none" stroke="#000000" paint-order="fill stroke markers" d=" M 96.986328125 221.30000000000018 L 109.986328125 239" stroke-miterlimit="10" stroke-dasharray=""/></g><g><g><path fill="none" stroke="none"/><text fill="#000000" stroke="none" font-family="Arial" font-size="13px" font-style="normal" font-weight="bold" text-decoration="undefined" x="1666.486328125" y="2865.5" text-anchor="middle" dominant-baseline="central" transform="matrix(1 0 0 1 -1569 -2612)">Utente autenticato</text></g></g><g><path fill="#C0C0C0" stroke="none" paint-order="stroke fill markers" d=" M 269 237 C 269 217.11774719999994 320.9349632000001 201 385 201 C 449.0650367999999 201 501 217.11774719999994 501 237 C 501 256.88225280000006 449.0650367999999 273 385 273 C 320.9349632000001 273 269 256.88225280000006 269 237 Z" fill-opacity="0.2"/></g><g><path fill="#ffffff" stroke="none" paint-order="stroke fill markers" d=" M 262 230 C 262 210.11774719999994 313.9349632000001 194 378 194 C 442.0650367999999 194 494 210.11774719999994 494 230 C 494 249.88225280000006 442.0650367999999 266 378 266 C 313.9349632000001 266 262 249.88225280000006 262 230 Z"/></g><g><path fill="none" stroke="#000000" paint-order="fill stroke markers" d=" M 262 230 C 262 210.11774719999994 313.9349632000001 194 378 194 C 442.0650367999999 194 494 210.11774719999994 494 230 C 494 249.88225280000006 442.0650367999999 266 378 266 C 313.9349632000001 266 262 249.88225280000006 262 230 Z" stroke-miterlimit="10" stroke-dasharray=""/></g><g><g><path fill="none" stroke="none"/><text fill="#000000" stroke="none" font-family="Arial" font-size="13px" font-style="normal" font-weight="bold" text-decoration="undefined" x="1947" y="2830" text-anchor="middle" dominant-baseline="central" transform="matrix(1 0 0 1 -1569 -2612)">UC[34] Visualizza le</text><text fill="#000000" stroke="none" font-family="Arial" font-size="13px" font-style="normal" font-weight="bold" text-decoration="undefined" x="1947" y="2843" text-anchor="middle" dominant-baseline="central" transform="matrix(1 0 0 1 -1569 -2612)">impostazioni di un</text><text fill="#000000" stroke="none" font-family="Arial" font-size="13px" font-style="normal" font-weight="bold" text-decoration="undefined" x="1947" y="2856" text-anchor="middle" dominant-baseline="central" transform="matrix(1 0 0 1 -1569 -2612)">singolo blocco</text></g></g><g><path fill="none" stroke="#000000" paint-order="fill stroke markers" d=" M 184 228 L 262 228" stroke-miterlimit="10" stroke-dasharray=""/></g><g><path fill="#C0C0C0" stroke="none" paint-order="stroke fill markers" d=" M 613 109 C 613 89.11774719999994 681.0527103999998 73 765 73 C 848.9472896000002 73 917 89.11774719999994 917 109 C 917 128.88225280000006 848.9472896000002 145 765 145 C 681.0527103999998 145 613 128.88225280000006 613 109 Z" fill-opacity="0.2"/></g><g><path fill="#ffffff" stroke="none" paint-order="stroke fill markers" d=" M 606 102 C 606 82.11774719999994 674.0527103999998 66 758 66 C 841.9472896000002 66 910 82.11774719999994 910 102 C 910 121.88225280000006 841.9472896000002 138 758 138 C 674.0527103999998 138 606 121.88225280000006 606 102 Z"/></g><g><path fill="none" stroke="#000000" paint-order="fill stroke markers" d=" M 606 102 C 606 82.11774719999994 674.0527103999998 66 758 66 C 841.9472896000002 66 910 82.11774719999994 910 102 C 910 121.88225280000006 841.9472896000002 138 758 138 C 674.0527103999998 138 606 121.88225280000006 606 102 Z" stroke-miterlimit="10" stroke-dasharray=""/></g><g><g><path fill="none" stroke="none"/><text fill="#000000" stroke="none" font-family="Arial" font-size="13px" font-style="normal" font-weight="bold" text-decoration="undefined" x="2327" y="2702" text-anchor="middle" dominant-baseline="central" transform="matrix(1 0 0 1 -1569 -2612)">UC[35] Visualizzazione</text><text fill="#000000" stroke="none" font-family="Arial" font-size="13px" font-style="normal" font-weight="bold" text-decoration="undefined" x="2327" y="2715" text-anchor="middle" dominant-baseline="central" transform="matrix(1 0 0 1 -1569 -2612)">impostazioni del blocco</text><text fill="#000000" stroke="none" font-family="Arial" font-size="13px" font-style="normal" font-weight="bold" text-decoration="undefined" x="2327" y="2728" text-anchor="middle" dominant-baseline="central" transform="matrix(1 0 0 1 -1569 -2612)">"Telegram - Send Bot Message"</text></g></g><g><path fill="#C0C0C0" stroke="none" paint-order="stroke fill markers" d=" M 621 197 C 621 177.11774719999994 685.4709888000002 161 765 161 C 844.5290111999998 161 909 177.11774719999994 909 197 C 909 216.88225280000006 844.5290111999998 233 765 233 C 685.4709888000002 233 621 216.88225280000006 621 197 Z" fill-opacity="0.2"/></g><g><path fill="#ffffff" stroke="none" paint-order="stroke fill markers" d=" M 614 190 C 614 170.11774719999994 678.4709888000002 154 758 154 C 837.5290111999998 154 902 170.11774719999994 902 190 C 902 209.88225280000006 837.5290111999998 226 758 226 C 678.4709888000002 226 614 209.88225280000006 614 190 Z"/></g><g><path fill="none" stroke="#000000" paint-order="fill stroke markers" d=" M 614 190 C 614 170.11774719999994 678.4709888000002 154 758 154 C 837.5290111999998 154 902 170.11774719999994 902 190 C 902 209.88225280000006 837.5290111999998 226 758 226 C 678.4709888000002 226 614 209.88225280000006 614 190 Z" stroke-miterlimit="10" stroke-dasharray=""/></g><g><g><path fill="none" stroke="none"/><text fill="#000000" stroke="none" font-family="Arial" font-size="13px" font-style="normal" font-weight="bold" text-decoration="undefined" x="2327" y="2790" text-anchor="middle" dominant-baseline="central" transform="matrix(1 0 0 1 -1569 -2612)">UC[36] Visualizzazione</text><text fill="#000000" stroke="none" font-family="Arial" font-size="13px" font-style="normal" font-weight="bold" text-decoration="undefined" x="2327" y="2803" text-anchor="middle" dominant-baseline="central" transform="matrix(1 0 0 1 -1569 -2612)">impostazioni del blocco</text><text fill="#000000" stroke="none" font-family="Arial" font-size="13px" font-style="normal" font-weight="bold" text-decoration="undefined" x="2327" y="2816" text-anchor="middle" dominant-baseline="central" transform="matrix(1 0 0 1 -1569 -2612)">"Pastebin - Create Paste"</text></g></g><g><path fill="#C0C0C0" stroke="none" paint-order="stroke fill markers" d=" M 621 285 C 621 265.11774719999994 683.680128 249 761 249 C 838.319872 249 901 265.11774719999994 901 285 C 901 304.88225280000006 838.319872 321 761 321 C 683.680128 321 621 304.88225280000006 621 285 Z" fill-opacity="0.2"/></g><g><path fill="#ffffff" stroke="none" paint-order="stroke fill markers" d=" M 614 278 C 614 258.11774719999994 676.680128 242 754 242 C 831.319872 242 894 258.11774719999994 894 278 C 894 297.88225280000006 831.319872 314 754 314 C 676.680128 314 614 297.88225280000006 614 278 Z"/></g><g><path fill="none" stroke="#000000" paint-order="fill stroke markers" d=" M 614 278 C 614 258.11774719999994 676.680128 242 754 242 C 831.319872 242 894 258.11774719999994 894 278 C 894 297.88225280000006 831.319872 314 754 314 C 676.680128 314 614 297.88225280000006 614 278 Z" stroke-miterlimit="10" stroke-dasharray=""/></g><g><g><path fill="none" stroke="none"/><text fill="#000000" stroke="none" font-family="Arial" font-size="13px" font-style="normal" font-weight="bold" text-decoration="undefined" x="2323" y="2878" text-anchor="middle" dominant-baseline="central" transform="matrix(1 0 0 1 -1569 -2612)">UC[37] Visualizzazione</text><text fill="#000000" stroke="none" font-family="Arial" font-size="13px" font-style="normal" font-weight="bold" text-decoration="undefined" x="2323" y="2891" text-anchor="middle" dominant-baseline="central" transform="matrix(1 0 0 1 -1569 -2612)">impostazioni del blocco</text><text fill="#000000" stroke="none" font-family="Arial" font-size="13px" font-style="normal" font-weight="bold" text-decoration="undefined" x="2323" y="2904" text-anchor="middle" dominant-baseline="central" transform="matrix(1 0 0 1 -1569 -2612)">"System - Wait Seconds"</text></g></g><g><path fill="#C0C0C0" stroke="none" paint-order="stroke fill markers" d=" M 613 373 C 613 353.11774719999994 679.2618496 337 761 337 C 842.7381504 337 909 353.11774719999994 909 373 C 909 392.88225280000006 842.7381504 409 761 409 C 679.2618496 409 613 392.88225280000006 613 373 Z" fill-opacity="0.2"/></g><g><path fill="#ffffff" stroke="none" paint-order="stroke fill markers" d=" M 606 366 C 606 346.11774719999994 672.2618496 330 754 330 C 835.7381504 330 902 346.11774719999994 902 366 C 902 385.88225280000006 835.7381504 402 754 402 C 672.2618496 402 606 385.88225280000006 606 366 Z"/></g><g><path fill="none" stroke="#000000" paint-order="fill stroke markers" d=" M 606 366 C 606 346.11774719999994 672.2618496 330 754 330 C 835.7381504 330 902 346.11774719999994 902 366 C 902 385.88225280000006 835.7381504 402 754 402 C 672.2618496 402 606 385.88225280000006 606 366 Z" stroke-miterlimit="10" stroke-dasharray=""/></g><g><g><path fill="none" stroke="none"/><text fill="#000000" stroke="none" font-family="Arial" font-size="13px" font-style="normal" font-weight="bold" text-decoration="undefined" x="2323" y="2966" text-anchor="middle" dominant-baseline="central" transform="matrix(1 0 0 1 -1569 -2612)">UC[38] Visualizzazione</text><text fill="#000000" stroke="none" font-family="Arial" font-size="13px" font-style="normal" font-weight="bold" text-decoration="undefined" x="2323" y="2979" text-anchor="middle" dominant-baseline="central" transform="matrix(1 0 0 1 -1569 -2612)">impostazioni del blocco "Notion</text><text fill="#000000" stroke="none" font-family="Arial" font-size="13px" font-style="normal" font-weight="bold" text-decoration="undefined" x="2323" y="2992" text-anchor="middle" dominant-baseline="central" transform="matrix(1 0 0 1 -1569 -2612)">- Get Page"</text></g></g><g><path fill="none" stroke="#000000" paint-order="fill stroke markers" d=" M 606 362 L 550 362 L 550 234 L 494 234" stroke-miterlimit="10" stroke-dasharray=""/></g><g><path fill="#FFFFFF" stroke="none" paint-order="stroke fill markers" d=" M 514.3253497152482 225.58096448796823 L 494 234 L 514.3253497152482 242.41903551203177"/></g><g><path fill="none" stroke="#000000" paint-order="fill stroke markers" d=" M 514.3253497152482 225.58096448796823 L 494 234 L 514.3253497152482 242.41903551203177 L 514.3253497152482 225.58096448796823" stroke-miterlimit="10" stroke-dasharray=""/></g><g><path fill="none" stroke="#000000" paint-order="fill stroke markers" d=" M 614 274 L 550 274 L 550 234 L 494 234" stroke-miterlimit="10" stroke-dasharray=""/></g><g><path fill="#FFFFFF" stroke="none" paint-order="stroke fill markers" d=" M 514.3253497152482 225.58096448796823 L 494 234 L 514.3253497152482 242.41903551203177"/></g><g><path fill="none" stroke="#000000" paint-order="fill stroke markers" d=" M 514.3253497152482 225.58096448796823 L 494 234 L 514.3253497152482 242.41903551203177 L 514.3253497152482 225.58096448796823" stroke-miterlimit="10" stroke-dasharray=""/></g><g><path fill="none" stroke="#000000" paint-order="fill stroke markers" d=" M 614 186 L 550 186 L 550 234 L 494 234" stroke-miterlimit="10" stroke-dasharray=""/></g><g><path fill="#FFFFFF" stroke="none" paint-order="stroke fill markers" d=" M 514.3253497152482 225.58096448796823 L 494 234 L 514.3253497152482 242.41903551203177"/></g><g><path fill="none" stroke="#000000" paint-order="fill stroke markers" d=" M 514.3253497152482 225.58096448796823 L 494 234 L 514.3253497152482 242.41903551203177 L 514.3253497152482 225.58096448796823" stroke-miterlimit="10" stroke-dasharray=""/></g><g><path fill="none" stroke="#000000" paint-order="fill stroke markers" d=" M 606 98 L 550 98 L 550 234 L 494 234" stroke-miterlimit="10" stroke-dasharray=""/></g><g><path fill="#FFFFFF" stroke="none" paint-order="stroke fill markers" d=" M 514.3253497152482 225.58096448796823 L 494 234 L 514.3253497152482 242.41903551203177"/></g><g><path fill="none" stroke="#000000" paint-order="fill stroke markers" d=" M 514.3253497152482 225.58096448796823 L 494 234 L 514.3253497152482 242.41903551203177 L 514.3253497152482 225.58096448796823" stroke-miterlimit="10" stroke-dasharray=""/></g></g></svg>