<svg version="1.1" xmlns="http://www.w3.org/2000/svg" xmlns:xlink="http://www.w3.org/1999/xlink" width="557" height="324"><defs/><g><g><rect fill="#C0C0C0" stroke="none" x="396" y="294" width="343" height="304" transform="matrix(1 0 0 1 -186 -277)" fill-opacity="0.2"/></g><g><rect fill="#ffffff" stroke="none" x="389" y="287" width="343" height="304" transform="matrix(1 0 0 1 -186 -277)"/></g><g><path fill="none" stroke="#000000" paint-order="fill stroke markers" d=" M 203 10 L 546 10 L 546 314 L 203 314 L 203 10 Z Z" stroke-miterlimit="10" stroke-dasharray=""/></g><g><g><path fill="none" stroke="none"/><text fill="#000000" stroke="none" font-family="Arial" font-size="13px" font-style="normal" font-weight="bold" text-decoration="undefined" x="561" y="300.5" text-anchor="middle" dominant-baseline="central" transform="matrix(1 0 0 1 -186 -277)">Sistema</text></g></g><g><path fill="#ffffff" stroke="none" paint-order="stroke fill markers" d=" M 88.14632812500003 72.85000000000002 C 88.14632812500003 67.96227952000004 92.10413049300001 64 96.986328125 64 C 101.86852575699999 64 105.82632812499997 67.96227952000004 105.82632812499997 72.85000000000002 C 105.82632812499997 77.73772048000001 101.86852575699999 81.69999999999999 96.986328125 81.69999999999999 C 92.10413049300001 81.69999999999999 88.14632812500003 77.73772048000001 88.14632812500003 72.85000000000002 Z"/></g><g><path fill="none" stroke="#000000" paint-order="fill stroke markers" d=" M 88.14632812500003 72.85000000000002 C 88.14632812500003 67.96227952000004 92.10413049300001 64 96.986328125 64 C 101.86852575699999 64 105.82632812499997 67.96227952000004 105.82632812499997 72.85000000000002 C 105.82632812499997 77.73772048000001 101.86852575699999 81.69999999999999 96.986328125 81.69999999999999 C 92.10413049300001 81.69999999999999 88.14632812500003 77.73772048000001 88.14632812500003 72.85000000000002 Z" stroke-miterlimit="10" stroke-dasharray=""/></g><g><path fill="none" stroke="#000000" paint-order="fill stroke markers" d=" M 96.986328125 81.69999999999999 L 96.986328125 99.30000000000001" stroke-miterlimit="10" stroke-dasharray=""/></g><g><path fill="none" stroke="#000000" paint-order="fill stroke markers" d=" M 87.62632812499999 88.30000000000001 L 106.34632812500001 88.30000000000001" stroke-miterlimit="10" stroke-dasharray=""/></g><g><path fill="none" stroke="#000000" paint-order="fill stroke markers" d=" M 96.986328125 99.30000000000001 L 83.986328125 117" stroke-miterlimit="10" stroke-dasharray=""/></g><g><path fill="none" stroke="#000000" paint-order="fill stroke markers" d=" M 96.986328125 99.30000000000001 L 109.986328125 117" stroke-miterlimit="10" stroke-dasharray=""/></g><g><g><path fill="none" stroke="none"/><text fill="#000000" stroke="none" font-family="Arial" font-size="13px" font-style="normal" font-weight="bold" text-decoration="undefined" x="283.486328125" y="408.5" text-anchor="middle" dominant-baseline="central" transform="matrix(1 0 0 1 -186 -277)">Utente autenticato</text></g></g><g><path fill="#C0C0C0" stroke="none" paint-order="stroke fill markers" d=" M 297 106 C 297 86.1177472 334.60807680000005 70 381 70 C 427.39192319999995 70 465 86.1177472 465 106 C 465 125.8822528 427.39192319999995 142 381 142 C 334.60807680000005 142 297 125.8822528 297 106 Z" fill-opacity="0.2"/></g><g><path fill="#ffffff" stroke="none" paint-order="stroke fill markers" d=" M 290 99 C 290 79.1177472 327.60807680000005 63 374 63 C 420.39192319999995 63 458 79.1177472 458 99 C 458 118.8822528 420.39192319999995 135 374 135 C 327.60807680000005 135 290 118.8822528 290 99 Z"/></g><g><path fill="none" stroke="#000000" paint-order="fill stroke markers" d=" M 290 99 C 290 79.1177472 327.60807680000005 63 374 63 C 420.39192319999995 63 458 79.1177472 458 99 C 458 118.8822528 420.39192319999995 135 374 135 C 327.60807680000005 135 290 118.8822528 290 99 Z" stroke-miterlimit="10" stroke-dasharray=""/></g><g><g><path fill="none" stroke="none"/><text fill="#000000" stroke="none" font-family="Arial" font-size="13px" font-style="normal" font-weight="bold" text-decoration="undefined" x="560" y="370.5" text-anchor="middle" dominant-baseline="central" transform="matrix(1 0 0 1 -186 -277)">UC[10] Creazione</text><text fill="#000000" stroke="none" font-family="Arial" font-size="13px" font-style="normal" font-weight="bold" text-decoration="undefined" x="560" y="383.5" text-anchor="middle" dominant-baseline="central" transform="matrix(1 0 0 1 -186 -277)">nuova routine</text></g></g><g><path fill="none" stroke="#000000" paint-order="fill stroke markers" d=" M 184 95 L 290 95" stroke-miterlimit="10" stroke-dasharray=""/></g><g><path fill="#C0C0C0" stroke="none" paint-order="stroke fill markers" d=" M 225 250 C 225 230.1177472 259.0263552 214 301 214 C 342.9736448 214 377 230.1177472 377 250 C 377 269.88225279999995 342.9736448 286 301 286 C 259.0263552 286 225 269.88225279999995 225 250 Z" fill-opacity="0.2"/></g><g><path fill="#ffffff" stroke="none" paint-order="stroke fill markers" d=" M 218 243 C 218 223.1177472 252.0263552 207 294 207 C 335.9736448 207 370 223.1177472 370 243 C 370 262.88225279999995 335.9736448 279 294 279 C 252.0263552 279 218 262.88225279999995 218 243 Z"/></g><g><path fill="none" stroke="#000000" paint-order="fill stroke markers" d=" M 218 243 C 218 223.1177472 252.0263552 207 294 207 C 335.9736448 207 370 223.1177472 370 243 C 370 262.88225279999995 335.9736448 279 294 279 C 252.0263552 279 218 262.88225279999995 218 243 Z" stroke-miterlimit="10" stroke-dasharray=""/></g><g><g><path fill="none" stroke="none"/><text fill="#000000" stroke="none" font-family="Arial" font-size="13px" font-style="normal" font-weight="bold" text-decoration="undefined" x="480" y="508" text-anchor="middle" dominant-baseline="central" transform="matrix(1 0 0 1 -186 -277)">UC[11] Errore</text><text fill="#000000" stroke="none" font-family="Arial" font-size="13px" font-style="normal" font-weight="bold" text-decoration="undefined" x="480" y="521" text-anchor="middle" dominant-baseline="central" transform="matrix(1 0 0 1 -186 -277)">«Nome routine</text><text fill="#000000" stroke="none" font-family="Arial" font-size="13px" font-style="normal" font-weight="bold" text-decoration="undefined" x="480" y="534" text-anchor="middle" dominant-baseline="central" transform="matrix(1 0 0 1 -186 -277)">già in uso»</text></g></g><g><path fill="#C0C0C0" stroke="none" paint-order="stroke fill markers" d=" M 393 250 C 393 230.1177472 425.2354944 214 465 214 C 504.7645056 214 537 230.1177472 537 250 C 537 269.88225279999995 504.7645056 286 465 286 C 425.2354944 286 393 269.88225279999995 393 250 Z" fill-opacity="0.2"/></g><g><path fill="#ffffff" stroke="none" paint-order="stroke fill markers" d=" M 386 243 C 386 223.1177472 418.2354944 207 458 207 C 497.7645056 207 530 223.1177472 530 243 C 530 262.88225279999995 497.7645056 279 458 279 C 418.2354944 279 386 262.88225279999995 386 243 Z"/></g><g><path fill="none" stroke="#000000" paint-order="fill stroke markers" d=" M 386 243 C 386 223.1177472 418.2354944 207 458 207 C 497.7645056 207 530 223.1177472 530 243 C 530 262.88225279999995 497.7645056 279 458 279 C 418.2354944 279 386 262.88225279999995 386 243 Z" stroke-miterlimit="10" stroke-dasharray=""/></g><g><g><path fill="none" stroke="none"/><text fill="#000000" stroke="none" font-family="Arial" font-size="13px" font-style="normal" font-weight="bold" text-decoration="undefined" x="644" y="514.5" text-anchor="middle" dominant-baseline="central" transform="matrix(1 0 0 1 -186 -277)">UC[5] Errore</text><text fill="#000000" stroke="none" font-family="Arial" font-size="13px" font-style="normal" font-weight="bold" text-decoration="undefined" x="644" y="527.5" text-anchor="middle" dominant-baseline="central" transform="matrix(1 0 0 1 -186 -277)">Generico</text></g></g><g><path fill="none" stroke="#000000" paint-order="fill stroke markers" d=" M 298 207 L 298 167 L 378 167 L 378 135" stroke-miterlimit="10" stroke-dasharray="3"/></g><g><path fill="none" stroke="#000000" paint-order="fill stroke markers" d=" M 382.209517756016 145.16267485762415 L 378 135 L 373.790482243984 145.16267485762415" stroke-miterlimit="10" stroke-dasharray=""/></g><g><rect fill="#ffffff" stroke="none" x="424" y="468" width="53.49169921875" height="13" transform="matrix(1 0 0 1 -186 -277)"/></g><g><g><path fill="none" stroke="none"/><text fill="#000000" stroke="none" font-family="Arial" font-size="13px" font-style="normal" font-weight="normal" text-decoration="undefined" x="450.745849609375" y="474.5" text-anchor="middle" dominant-baseline="central" transform="matrix(1 0 0 1 -186 -277)">«extend»</text></g></g><g><path fill="none" stroke="#000000" paint-order="fill stroke markers" d=" M 458 207 L 458 167 L 378 167 L 378 135" stroke-miterlimit="10" stroke-dasharray="3"/></g><g><path fill="none" stroke="#000000" paint-order="fill stroke markers" d=" M 382.209517756016 145.16267485762415 L 378 135 L 373.790482243984 145.16267485762415" stroke-miterlimit="10" stroke-dasharray=""/></g><g><rect fill="#ffffff" stroke="none" x="584" y="467" width="53.49169921875" height="13" transform="matrix(1 0 0 1 -186 -277)"/></g><g><g><path fill="none" stroke="none"/><text fill="#000000" stroke="none" font-family="Arial" font-size="13px" font-style="normal" font-weight="normal" text-decoration="undefined" x="610.745849609375" y="473.5" text-anchor="middle" dominant-baseline="central" transform="matrix(1 0 0 1 -186 -277)">«extend»</text></g></g></g></svg>