<svg version="1.1" xmlns="http://www.w3.org/2000/svg" xmlns:xlink="http://www.w3.org/1999/xlink" width="625" height="324"><defs/><g><g><rect fill="#C0C0C0" stroke="none" x="1662" y="2332" width="412" height="304" transform="matrix(1 0 0 1 -1453 -2315)" fill-opacity="0.2"/></g><g><rect fill="#ffffff" stroke="none" x="1655" y="2325" width="412" height="304" transform="matrix(1 0 0 1 -1453 -2315)"/></g><g><path fill="none" stroke="#000000" paint-order="fill stroke markers" d=" M 202 10 L 614 10 L 614 314 L 202 314 L 202 10 Z Z" stroke-miterlimit="10" stroke-dasharray=""/></g><g><g><path fill="none" stroke="none"/><text fill="#000000" stroke="none" font-family="Arial" font-size="13px" font-style="normal" font-weight="bold" text-decoration="undefined" x="1861.5" y="2338.5" text-anchor="middle" dominant-baseline="central" transform="matrix(1 0 0 1 -1453 -2315)">Sistema</text></g></g><g><path fill="#ffffff" stroke="none" paint-order="stroke fill markers" d=" M 88.14632812500008 56.84999999999991 C 88.14632812500008 51.96227951999981 92.10413049299996 48 96.986328125 48 C 101.86852575700004 48 105.82632812499992 51.96227951999981 105.82632812499992 56.84999999999991 C 105.82632812499992 61.73772048000001 101.86852575700004 65.69999999999982 96.986328125 65.69999999999982 C 92.10413049299996 65.69999999999982 88.14632812500008 61.73772048000001 88.14632812500008 56.84999999999991 Z"/></g><g><path fill="none" stroke="#000000" paint-order="fill stroke markers" d=" M 88.14632812500008 56.84999999999991 C 88.14632812500008 51.96227951999981 92.10413049299996 48 96.986328125 48 C 101.86852575700004 48 105.82632812499992 51.96227951999981 105.82632812499992 56.84999999999991 C 105.82632812499992 61.73772048000001 101.86852575700004 65.69999999999982 96.986328125 65.69999999999982 C 92.10413049299996 65.69999999999982 88.14632812500008 61.73772048000001 88.14632812500008 56.84999999999991 Z" stroke-miterlimit="10" stroke-dasharray=""/></g><g><path fill="none" stroke="#000000" paint-order="fill stroke markers" d=" M 96.986328125 65.69999999999982 L 96.986328125 83.30000000000018" stroke-miterlimit="10" stroke-dasharray=""/></g><g><path fill="none" stroke="#000000" paint-order="fill stroke markers" d=" M 87.6263281250001 72.30000000000018 L 106.3463281249999 72.30000000000018" stroke-miterlimit="10" stroke-dasharray=""/></g><g><path fill="none" stroke="#000000" paint-order="fill stroke markers" d=" M 96.986328125 83.30000000000018 L 83.986328125 101" stroke-miterlimit="10" stroke-dasharray=""/></g><g><path fill="none" stroke="#000000" paint-order="fill stroke markers" d=" M 96.986328125 83.30000000000018 L 109.986328125 101" stroke-miterlimit="10" stroke-dasharray=""/></g><g><g><path fill="none" stroke="none"/><text fill="#000000" stroke="none" font-family="Arial" font-size="13px" font-style="normal" font-weight="bold" text-decoration="undefined" x="1550.486328125" y="2430.5" text-anchor="middle" dominant-baseline="central" transform="matrix(1 0 0 1 -1453 -2315)">Utente autenticato</text></g></g><g><path fill="#C0C0C0" stroke="none" paint-order="stroke fill markers" d=" M 301 96.5 C 301 81.86445279999998 356.5166847999999 70 425 70 C 493.4833152000001 70 549 81.86445279999998 549 96.5 C 549 111.13554720000002 493.4833152000001 123 425 123 C 356.5166847999999 123 301 111.13554720000002 301 96.5 Z" fill-opacity="0.2"/></g><g><path fill="#ffffff" stroke="none" paint-order="stroke fill markers" d=" M 294 89.5 C 294 74.86445279999998 349.5166847999999 63 418 63 C 486.4833152000001 63 542 74.86445279999998 542 89.5 C 542 104.13554720000002 486.4833152000001 116 418 116 C 349.5166847999999 116 294 104.13554720000002 294 89.5 Z"/></g><g><path fill="none" stroke="#000000" paint-order="fill stroke markers" d=" M 294 89.5 C 294 74.86445279999998 349.5166847999999 63 418 63 C 486.4833152000001 63 542 74.86445279999998 542 89.5 C 542 104.13554720000002 486.4833152000001 116 418 116 C 349.5166847999999 116 294 104.13554720000002 294 89.5 Z" stroke-miterlimit="10" stroke-dasharray=""/></g><g><g><path fill="none" stroke="none"/><text fill="#000000" stroke="none" font-family="Arial" font-size="13px" font-style="normal" font-weight="bold" text-decoration="undefined" x="1871" y="2399" text-anchor="middle" dominant-baseline="central" transform="matrix(1 0 0 1 -1453 -2315)">UC[20] Modifica del nome</text><text fill="#000000" stroke="none" font-family="Arial" font-size="13px" font-style="normal" font-weight="bold" text-decoration="undefined" x="1871" y="2412" text-anchor="middle" dominant-baseline="central" transform="matrix(1 0 0 1 -1453 -2315)">di una routine</text></g></g><g><path fill="none" stroke="#000000" paint-order="fill stroke markers" d=" M 184 87 L 294 87" stroke-miterlimit="10" stroke-dasharray=""/></g><g><path fill="#C0C0C0" stroke="none" paint-order="stroke fill markers" d=" M 261 242 C 261 222.11774719999994 295.0263551999999 206 337 206 C 378.9736448000001 206 413 222.11774719999994 413 242 C 413 261.88225280000006 378.9736448000001 278 337 278 C 295.0263551999999 278 261 261.88225280000006 261 242 Z" fill-opacity="0.2"/></g><g><path fill="#ffffff" stroke="none" paint-order="stroke fill markers" d=" M 254 235 C 254 215.11774719999994 288.0263551999999 199 330 199 C 371.9736448000001 199 406 215.11774719999994 406 235 C 406 254.88225280000006 371.9736448000001 271 330 271 C 288.0263551999999 271 254 254.88225280000006 254 235 Z"/></g><g><path fill="none" stroke="#000000" paint-order="fill stroke markers" d=" M 254 235 C 254 215.11774719999994 288.0263551999999 199 330 199 C 371.9736448000001 199 406 215.11774719999994 406 235 C 406 254.88225280000006 371.9736448000001 271 330 271 C 288.0263551999999 271 254 254.88225280000006 254 235 Z" stroke-miterlimit="10" stroke-dasharray=""/></g><g><g><path fill="none" stroke="none"/><text fill="#000000" stroke="none" font-family="Arial" font-size="13px" font-style="normal" font-weight="bold" text-decoration="undefined" x="1783" y="2538" text-anchor="middle" dominant-baseline="central" transform="matrix(1 0 0 1 -1453 -2315)">UC[11] Errore</text><text fill="#000000" stroke="none" font-family="Arial" font-size="13px" font-style="normal" font-weight="bold" text-decoration="undefined" x="1783" y="2551" text-anchor="middle" dominant-baseline="central" transform="matrix(1 0 0 1 -1453 -2315)">«Nome routine</text><text fill="#000000" stroke="none" font-family="Arial" font-size="13px" font-style="normal" font-weight="bold" text-decoration="undefined" x="1783" y="2564" text-anchor="middle" dominant-baseline="central" transform="matrix(1 0 0 1 -1453 -2315)">già in uso»</text></g></g><g><path fill="#C0C0C0" stroke="none" paint-order="stroke fill markers" d=" M 437 242 C 437 222.11774719999994 469.2354944000001 206 509 206 C 548.7645055999999 206 581 222.11774719999994 581 242 C 581 261.88225280000006 548.7645055999999 278 509 278 C 469.2354944000001 278 437 261.88225280000006 437 242 Z" fill-opacity="0.2"/></g><g><path fill="#ffffff" stroke="none" paint-order="stroke fill markers" d=" M 430 235 C 430 215.11774719999994 462.2354944000001 199 502 199 C 541.7645055999999 199 574 215.11774719999994 574 235 C 574 254.88225280000006 541.7645055999999 271 502 271 C 462.2354944000001 271 430 254.88225280000006 430 235 Z"/></g><g><path fill="none" stroke="#000000" paint-order="fill stroke markers" d=" M 430 235 C 430 215.11774719999994 462.2354944000001 199 502 199 C 541.7645055999999 199 574 215.11774719999994 574 235 C 574 254.88225280000006 541.7645055999999 271 502 271 C 462.2354944000001 271 430 254.88225280000006 430 235 Z" stroke-miterlimit="10" stroke-dasharray=""/></g><g><g><path fill="none" stroke="none"/><text fill="#000000" stroke="none" font-family="Arial" font-size="13px" font-style="normal" font-weight="bold" text-decoration="undefined" x="1955" y="2544.5" text-anchor="middle" dominant-baseline="central" transform="matrix(1 0 0 1 -1453 -2315)">UC[5] Errore</text><text fill="#000000" stroke="none" font-family="Arial" font-size="13px" font-style="normal" font-weight="bold" text-decoration="undefined" x="1955" y="2557.5" text-anchor="middle" dominant-baseline="central" transform="matrix(1 0 0 1 -1453 -2315)">Generico</text></g></g><g><path fill="none" stroke="#000000" paint-order="fill stroke markers" d=" M 342 199 L 342 159 L 422 159 L 422 116" stroke-miterlimit="10" stroke-dasharray="3"/></g><g><path fill="none" stroke="#000000" paint-order="fill stroke markers" d=" M 426.2095177560159 126.1626748576241 L 422 116 L 417.7904822439841 126.1626748576241" stroke-miterlimit="10" stroke-dasharray=""/></g><g><rect fill="#ffffff" stroke="none" x="1731" y="2498" width="53.49169921875" height="13" transform="matrix(1 0 0 1 -1453 -2315)"/></g><g><g><path fill="none" stroke="none"/><text fill="#000000" stroke="none" font-family="Arial" font-size="13px" font-style="normal" font-weight="normal" text-decoration="undefined" x="1757.745849609375" y="2504.5" text-anchor="middle" dominant-baseline="central" transform="matrix(1 0 0 1 -1453 -2315)">«extend»</text></g></g><g><path fill="none" stroke="#000000" paint-order="fill stroke markers" d=" M 502 199 L 502 159 L 422 159 L 422 116" stroke-miterlimit="10" stroke-dasharray="3"/></g><g><path fill="none" stroke="#000000" paint-order="fill stroke markers" d=" M 426.2095177560159 126.1626748576241 L 422 116 L 417.7904822439841 126.1626748576241" stroke-miterlimit="10" stroke-dasharray=""/></g><g><rect fill="#ffffff" stroke="none" x="1891" y="2497" width="53.49169921875" height="13" transform="matrix(1 0 0 1 -1453 -2315)"/></g><g><g><path fill="none" stroke="none"/><text fill="#000000" stroke="none" font-family="Arial" font-size="13px" font-style="normal" font-weight="normal" text-decoration="undefined" x="1917.745849609375" y="2503.5" text-anchor="middle" dominant-baseline="central" transform="matrix(1 0 0 1 -1453 -2315)">«extend»</text></g></g></g></svg>