<svg version="1.1" xmlns="http://www.w3.org/2000/svg" xmlns:xlink="http://www.w3.org/1999/xlink" width="829" height="324"><defs/><g><g><rect fill="#C0C0C0" stroke="none" x="2308" y="3485" width="616" height="304" transform="matrix(1 0 0 1 -2099 -3468)" fill-opacity="0.2"/></g><g><rect fill="#ffffff" stroke="none" x="2301" y="3478" width="616" height="304" transform="matrix(1 0 0 1 -2099 -3468)"/></g><g><path fill="none" stroke="#000000" paint-order="fill stroke markers" d=" M 202 10 L 818 10 L 818 314 L 202 314 L 202 10 Z Z" stroke-miterlimit="10" stroke-dasharray=""/></g><g><g><path fill="none" stroke="none"/><text fill="#000000" stroke="none" font-family="Arial" font-size="13px" font-style="normal" font-weight="bold" text-decoration="undefined" x="2609.5" y="3491.5" text-anchor="middle" dominant-baseline="central" transform="matrix(1 0 0 1 -2099 -3468)">Sistema</text></g></g><g><path fill="#ffffff" stroke="none" paint-order="stroke fill markers" d=" M 88.14632812499985 51.84999999999991 C 88.14632812499985 46.96227951999981 92.10413049299996 43 96.986328125 43 C 101.86852575700004 43 105.82632812500015 46.96227951999981 105.82632812500015 51.84999999999991 C 105.82632812500015 56.73772048000001 101.86852575700004 60.69999999999982 96.986328125 60.69999999999982 C 92.10413049299996 60.69999999999982 88.14632812499985 56.73772048000001 88.14632812499985 51.84999999999991 Z"/></g><g><path fill="none" stroke="#000000" paint-order="fill stroke markers" d=" M 88.14632812499985 51.84999999999991 C 88.14632812499985 46.96227951999981 92.10413049299996 43 96.986328125 43 C 101.86852575700004 43 105.82632812500015 46.96227951999981 105.82632812500015 51.84999999999991 C 105.82632812500015 56.73772048000001 101.86852575700004 60.69999999999982 96.986328125 60.69999999999982 C 92.10413049299996 60.69999999999982 88.14632812499985 56.73772048000001 88.14632812499985 51.84999999999991 Z" stroke-miterlimit="10" stroke-dasharray=""/></g><g><path fill="none" stroke="#000000" paint-order="fill stroke markers" d=" M 96.986328125 60.69999999999982 L 96.986328125 78.30000000000018" stroke-miterlimit="10" stroke-dasharray=""/></g><g><path fill="none" stroke="#000000" paint-order="fill stroke markers" d=" M 87.62632812499987 67.30000000000018 L 106.34632812500013 67.30000000000018" stroke-miterlimit="10" stroke-dasharray=""/></g><g><path fill="none" stroke="#000000" paint-order="fill stroke markers" d=" M 96.986328125 78.30000000000018 L 83.986328125 96" stroke-miterlimit="10" stroke-dasharray=""/></g><g><path fill="none" stroke="#000000" paint-order="fill stroke markers" d=" M 96.986328125 78.30000000000018 L 109.986328125 96" stroke-miterlimit="10" stroke-dasharray=""/></g><g><g><path fill="none" stroke="none"/><text fill="#000000" stroke="none" font-family="Arial" font-size="13px" font-style="normal" font-weight="bold" text-decoration="undefined" x="2196.486328125" y="3578.5" text-anchor="middle" dominant-baseline="central" transform="matrix(1 0 0 1 -2099 -3468)">Utente autenticato</text></g></g><g><path fill="#C0C0C0" stroke="none" paint-order="stroke fill markers" d=" M 329 93 C 329 73.11774719999994 377.3532415999998 57 437 57 C 496.6467584000002 57 545 73.11774719999994 545 93 C 545 112.88225280000006 496.6467584000002 129 437 129 C 377.3532415999998 129 329 112.88225280000006 329 93 Z" fill-opacity="0.2"/></g><g><path fill="#ffffff" stroke="none" paint-order="stroke fill markers" d=" M 322 86 C 322 66.11774719999994 370.3532415999998 50 430 50 C 489.6467584000002 50 538 66.11774719999994 538 86 C 538 105.88225280000006 489.6467584000002 122 430 122 C 370.3532415999998 122 322 105.88225280000006 322 86 Z"/></g><g><path fill="none" stroke="#000000" paint-order="fill stroke markers" d=" M 322 86 C 322 66.11774719999994 370.3532415999998 50 430 50 C 489.6467584000002 50 538 66.11774719999994 538 86 C 538 105.88225280000006 489.6467584000002 122 430 122 C 370.3532415999998 122 322 105.88225280000006 322 86 Z" stroke-miterlimit="10" stroke-dasharray=""/></g><g><g><path fill="none" stroke="none"/><text fill="#000000" stroke="none" font-family="Arial" font-size="13px" font-style="normal" font-weight="bold" text-decoration="undefined" x="2529" y="3542" text-anchor="middle" dominant-baseline="central" transform="matrix(1 0 0 1 -2099 -3468)">UC[12] Generare una</text><text fill="#000000" stroke="none" font-family="Arial" font-size="13px" font-style="normal" font-weight="bold" text-decoration="undefined" x="2529" y="3555" text-anchor="middle" dominant-baseline="central" transform="matrix(1 0 0 1 -2099 -3468)">routine mediante</text><text fill="#000000" stroke="none" font-family="Arial" font-size="13px" font-style="normal" font-weight="bold" text-decoration="undefined" x="2529" y="3568" text-anchor="middle" dominant-baseline="central" transform="matrix(1 0 0 1 -2099 -3468)">linguaggio naturale</text></g></g><g><path fill="none" stroke="#000000" paint-order="fill stroke markers" d=" M 184 82 L 322 82" stroke-miterlimit="10" stroke-dasharray=""/></g><g><path fill="#C0C0C0" stroke="none" paint-order="stroke fill markers" d=" M 225 261 C 225 241.11774719999994 275.14410240000007 225 337 225 C 398.85589759999993 225 449 241.11774719999994 449 261 C 449 280.88225280000006 398.85589759999993 297 337 297 C 275.14410240000007 297 225 280.88225280000006 225 261 Z" fill-opacity="0.2"/></g><g><path fill="#ffffff" stroke="none" paint-order="stroke fill markers" d=" M 218 254 C 218 234.11774719999994 268.14410240000007 218 330 218 C 391.85589759999993 218 442 234.11774719999994 442 254 C 442 273.88225280000006 391.85589759999993 290 330 290 C 268.14410240000007 290 218 273.88225280000006 218 254 Z"/></g><g><path fill="none" stroke="#000000" paint-order="fill stroke markers" d=" M 218 254 C 218 234.11774719999994 268.14410240000007 218 330 218 C 391.85589759999993 218 442 234.11774719999994 442 254 C 442 273.88225280000006 391.85589759999993 290 330 290 C 268.14410240000007 290 218 273.88225280000006 218 254 Z" stroke-miterlimit="10" stroke-dasharray=""/></g><g><g><path fill="none" stroke="none"/><text fill="#000000" stroke="none" font-family="Arial" font-size="13px" font-style="normal" font-weight="bold" text-decoration="undefined" x="2429" y="3710" text-anchor="middle" dominant-baseline="central" transform="matrix(1 0 0 1 -2099 -3468)">UC[15] Visualizzazione</text><text fill="#000000" stroke="none" font-family="Arial" font-size="13px" font-style="normal" font-weight="bold" text-decoration="undefined" x="2429" y="3723" text-anchor="middle" dominant-baseline="central" transform="matrix(1 0 0 1 -2099 -3468)">dell’errore «Impossibile</text><text fill="#000000" stroke="none" font-family="Arial" font-size="13px" font-style="normal" font-weight="bold" text-decoration="undefined" x="2429" y="3736" text-anchor="middle" dominant-baseline="central" transform="matrix(1 0 0 1 -2099 -3468)">generare il flusso»</text></g></g><g><path fill="#C0C0C0" stroke="none" paint-order="stroke fill markers" d=" M 481 261 C 481 241.11774719999994 513.2354943999999 225 553 225 C 592.7645056000001 225 625 241.11774719999994 625 261 C 625 280.88225280000006 592.7645056000001 297 553 297 C 513.2354943999999 297 481 280.88225280000006 481 261 Z" fill-opacity="0.2"/></g><g><path fill="#ffffff" stroke="none" paint-order="stroke fill markers" d=" M 474 254 C 474 234.11774719999994 506.2354943999999 218 546 218 C 585.7645056000001 218 618 234.11774719999994 618 254 C 618 273.88225280000006 585.7645056000001 290 546 290 C 506.2354943999999 290 474 273.88225280000006 474 254 Z"/></g><g><path fill="none" stroke="#000000" paint-order="fill stroke markers" d=" M 474 254 C 474 234.11774719999994 506.2354943999999 218 546 218 C 585.7645056000001 218 618 234.11774719999994 618 254 C 618 273.88225280000006 585.7645056000001 290 546 290 C 506.2354943999999 290 474 273.88225280000006 474 254 Z" stroke-miterlimit="10" stroke-dasharray=""/></g><g><g><path fill="none" stroke="none"/><text fill="#000000" stroke="none" font-family="Arial" font-size="13px" font-style="normal" font-weight="bold" text-decoration="undefined" x="2645" y="3716.5" text-anchor="middle" dominant-baseline="central" transform="matrix(1 0 0 1 -2099 -3468)">UC[5] Errore</text><text fill="#000000" stroke="none" font-family="Arial" font-size="13px" font-style="normal" font-weight="bold" text-decoration="undefined" x="2645" y="3729.5" text-anchor="middle" dominant-baseline="central" transform="matrix(1 0 0 1 -2099 -3468)">Generico</text></g></g><g><path fill="none" stroke="#000000" paint-order="fill stroke markers" d=" M 330 218 L 330 186 L 426 186 L 426 122" stroke-miterlimit="10" stroke-dasharray="3"/></g><g><path fill="none" stroke="#000000" paint-order="fill stroke markers" d=" M 430.2095177560159 132.1626748576241 L 426 122 L 421.7904822439841 132.1626748576241" stroke-miterlimit="10" stroke-dasharray=""/></g><g><rect fill="#ffffff" stroke="none" x="2365" y="3670" width="53.49169921875" height="13" transform="matrix(1 0 0 1 -2099 -3468)"/></g><g><g><path fill="none" stroke="none"/><text fill="#000000" stroke="none" font-family="Arial" font-size="13px" font-style="normal" font-weight="normal" text-decoration="undefined" x="2391.745849609375" y="3676.5" text-anchor="middle" dominant-baseline="central" transform="matrix(1 0 0 1 -2099 -3468)">«extend»</text></g></g><g><path fill="none" stroke="#000000" paint-order="fill stroke markers" d=" M 546 218 L 546 186 L 426 186 L 426 122" stroke-miterlimit="10" stroke-dasharray="3"/></g><g><path fill="none" stroke="#000000" paint-order="fill stroke markers" d=" M 430.2095177560159 132.1626748576241 L 426 122 L 421.7904822439841 132.1626748576241" stroke-miterlimit="10" stroke-dasharray=""/></g><g><rect fill="#ffffff" stroke="none" x="2581" y="3669" width="53.49169921875" height="13" transform="matrix(1 0 0 1 -2099 -3468)"/></g><g><g><path fill="none" stroke="none"/><text fill="#000000" stroke="none" font-family="Arial" font-size="13px" font-style="normal" font-weight="normal" text-decoration="undefined" x="2607.745849609375" y="3675.5" text-anchor="middle" dominant-baseline="central" transform="matrix(1 0 0 1 -2099 -3468)">«extend»</text></g></g><g><path fill="#C0C0C0" stroke="none" paint-order="stroke fill markers" d=" M 673 87 C 673 57.17662079999991 703.4446336000001 33 741 33 C 778.5553663999999 33 809 57.17662079999991 809 87 C 809 116.82337920000009 778.5553663999999 141 741 141 C 703.4446336000001 141 673 116.82337920000009 673 87 Z" fill-opacity="0.2"/></g><g><path fill="#ffffff" stroke="none" paint-order="stroke fill markers" d=" M 666 80 C 666 50.17662079999991 696.4446336000001 26 734 26 C 771.5553663999999 26 802 50.17662079999991 802 80 C 802 109.82337920000009 771.5553663999999 134 734 134 C 696.4446336000001 134 666 109.82337920000009 666 80 Z"/></g><g><path fill="none" stroke="#000000" paint-order="fill stroke markers" d=" M 666 80 C 666 50.17662079999991 696.4446336000001 26 734 26 C 771.5553663999999 26 802 50.17662079999991 802 80 C 802 109.82337920000009 771.5553663999999 134 734 134 C 696.4446336000001 134 666 109.82337920000009 666 80 Z" stroke-miterlimit="10" stroke-dasharray=""/></g><g><g><path fill="none" stroke="none"/><text fill="#000000" stroke="none" font-family="Arial" font-size="13px" font-style="normal" font-weight="bold" text-decoration="undefined" x="2833" y="3523" text-anchor="middle" dominant-baseline="central" transform="matrix(1 0 0 1 -2099 -3468)">UC[13]</text><text fill="#000000" stroke="none" font-family="Arial" font-size="13px" font-style="normal" font-weight="bold" text-decoration="undefined" x="2833" y="3536" text-anchor="middle" dominant-baseline="central" transform="matrix(1 0 0 1 -2099 -3468)">Visualizza</text><text fill="#000000" stroke="none" font-family="Arial" font-size="13px" font-style="normal" font-weight="bold" text-decoration="undefined" x="2833" y="3549" text-anchor="middle" dominant-baseline="central" transform="matrix(1 0 0 1 -2099 -3468)">modello</text><text fill="#000000" stroke="none" font-family="Arial" font-size="13px" font-style="normal" font-weight="bold" text-decoration="undefined" x="2833" y="3562" text-anchor="middle" dominant-baseline="central" transform="matrix(1 0 0 1 -2099 -3468)">GenAI per la</text><text fill="#000000" stroke="none" font-family="Arial" font-size="13px" font-style="normal" font-weight="bold" text-decoration="undefined" x="2833" y="3575" text-anchor="middle" dominant-baseline="central" transform="matrix(1 0 0 1 -2099 -3468)">generazione</text></g></g><g><path fill="#C0C0C0" stroke="none" paint-order="stroke fill markers" d=" M 665 256 C 665 226.1766207999999 697.2354943999999 202 737 202 C 776.7645056000001 202 809 226.1766207999999 809 256 C 809 285.8233792000001 776.7645056000001 310 737 310 C 697.2354943999999 310 665 285.8233792000001 665 256 Z" fill-opacity="0.2"/></g><g><path fill="#ffffff" stroke="none" paint-order="stroke fill markers" d=" M 658 249 C 658 219.1766207999999 690.2354943999999 195 730 195 C 769.7645056000001 195 802 219.1766207999999 802 249 C 802 278.8233792000001 769.7645056000001 303 730 303 C 690.2354943999999 303 658 278.8233792000001 658 249 Z"/></g><g><path fill="none" stroke="#000000" paint-order="fill stroke markers" d=" M 658 249 C 658 219.1766207999999 690.2354943999999 195 730 195 C 769.7645056000001 195 802 219.1766207999999 802 249 C 802 278.8233792000001 769.7645056000001 303 730 303 C 690.2354943999999 303 658 278.8233792000001 658 249 Z" stroke-miterlimit="10" stroke-dasharray=""/></g><g><g><path fill="none" stroke="none"/><text fill="#000000" stroke="none" font-family="Arial" font-size="13px" font-style="normal" font-weight="bold" text-decoration="undefined" x="2829" y="3692" text-anchor="middle" dominant-baseline="central" transform="matrix(1 0 0 1 -2099 -3468)">UC[14]</text><text fill="#000000" stroke="none" font-family="Arial" font-size="13px" font-style="normal" font-weight="bold" text-decoration="undefined" x="2829" y="3705" text-anchor="middle" dominant-baseline="central" transform="matrix(1 0 0 1 -2099 -3468)">Modifica</text><text fill="#000000" stroke="none" font-family="Arial" font-size="13px" font-style="normal" font-weight="bold" text-decoration="undefined" x="2829" y="3718" text-anchor="middle" dominant-baseline="central" transform="matrix(1 0 0 1 -2099 -3468)">modello</text><text fill="#000000" stroke="none" font-family="Arial" font-size="13px" font-style="normal" font-weight="bold" text-decoration="undefined" x="2829" y="3731" text-anchor="middle" dominant-baseline="central" transform="matrix(1 0 0 1 -2099 -3468)">GenAI per la</text><text fill="#000000" stroke="none" font-family="Arial" font-size="13px" font-style="normal" font-weight="bold" text-decoration="undefined" x="2829" y="3744" text-anchor="middle" dominant-baseline="central" transform="matrix(1 0 0 1 -2099 -3468)">generazione</text></g></g><g><path fill="none" stroke="#000000" paint-order="fill stroke markers" d=" M 538 82 L 666 82" stroke-miterlimit="10" stroke-dasharray="3"/></g><g><path fill="none" stroke="#000000" paint-order="fill stroke markers" d=" M 655.8373251423759 86.20951775601588 L 666 82 L 655.8373251423759 77.79048224398412" stroke-miterlimit="10" stroke-dasharray=""/></g><g><rect fill="#ffffff" stroke="none" x="2713" y="3578" width="55.65625" height="13" transform="matrix(1 0 0 1 -2099 -3468)"/></g><g><g><path fill="none" stroke="none"/><text fill="#000000" stroke="none" font-family="Arial" font-size="13px" font-style="normal" font-weight="normal" text-decoration="undefined" x="2740.828125" y="3584.5" text-anchor="middle" dominant-baseline="central" transform="matrix(1 0 0 1 -2099 -3468)">«include»</text></g></g><g><path fill="none" stroke="#000000" paint-order="fill stroke markers" d=" M 730 195 L 730 186 L 426 186 L 426 122" stroke-miterlimit="10" stroke-dasharray="3"/></g><g><path fill="none" stroke="#000000" paint-order="fill stroke markers" d=" M 430.2095177560159 132.1626748576241 L 426 122 L 421.7904822439841 132.1626748576241" stroke-miterlimit="10" stroke-dasharray=""/></g><g><rect fill="#ffffff" stroke="none" x="2717" y="3669" width="53.49169921875" height="13" transform="matrix(1 0 0 1 -2099 -3468)"/></g><g><g><path fill="none" stroke="none"/><text fill="#000000" stroke="none" font-family="Arial" font-size="13px" font-style="normal" font-weight="normal" text-decoration="undefined" x="2743.745849609375" y="3675.5" text-anchor="middle" dominant-baseline="central" transform="matrix(1 0 0 1 -2099 -3468)">«extend»</text></g></g></g></svg>