<svg version="1.1" xmlns="http://www.w3.org/2000/svg" xmlns:xlink="http://www.w3.org/1999/xlink" width="821" height="351"><defs/><g><g><rect fill="#C0C0C0" stroke="none" x="1578" y="2259" width="583" height="331" transform="matrix(1 0 0 1 -1344 -2242)" fill-opacity="0.2"/></g><g><rect fill="#ffffff" stroke="none" x="1571" y="2252" width="583" height="331" transform="matrix(1 0 0 1 -1344 -2242)"/></g><g><path fill="none" stroke="#000000" paint-order="fill stroke markers" d=" M 227 10 L 810 10 L 810 341 L 227 341 L 227 10 Z Z" stroke-miterlimit="10" stroke-dasharray=""/></g><g><g><path fill="none" stroke="none"/><text fill="#000000" stroke="none" font-family="Arial" font-size="13px" font-style="normal" font-weight="bold" text-decoration="undefined" x="1863" y="2265.5" text-anchor="middle" dominant-baseline="central" transform="matrix(1 0 0 1 -1344 -2242)">Sistema</text></g></g><g><rect fill="#C0C0C0" stroke="none" x="1578" y="2259" width="583" height="331" transform="matrix(1 0 0 1 -1344 -2242)" fill-opacity="0.2"/></g><g><rect fill="#ffffff" stroke="none" x="1571" y="2252" width="583" height="331" transform="matrix(1 0 0 1 -1344 -2242)"/></g><g><path fill="none" stroke="#000000" paint-order="fill stroke markers" d=" M 227 10 L 810 10 L 810 341 L 227 341 L 227 10 Z Z" stroke-miterlimit="10" stroke-dasharray=""/></g><g><g><path fill="none" stroke="none"/><text fill="#000000" stroke="none" font-family="Arial" font-size="13px" font-style="normal" font-weight="bold" text-decoration="undefined" x="1863" y="2265.5" text-anchor="middle" dominant-baseline="central" transform="matrix(1 0 0 1 -1344 -2242)">Sistema</text></g></g><g><path fill="#C0C0C0" stroke="none" paint-order="stroke fill markers" d=" M 553 96 C 553 76.11774719999994 594.1897984 60 645 60 C 695.8102016 60 737 76.11774719999994 737 96 C 737 115.88225280000006 695.8102016 132 645 132 C 594.1897984 132 553 115.88225280000006 553 96 Z" fill-opacity="0.2"/></g><g><path fill="#ffffff" stroke="none" paint-order="stroke fill markers" d=" M 546 89 C 546 69.11774719999994 587.1897984 53 638 53 C 688.8102016 53 730 69.11774719999994 730 89 C 730 108.88225280000006 688.8102016 125 638 125 C 587.1897984 125 546 108.88225280000006 546 89 Z"/></g><g><path fill="none" stroke="#000000" paint-order="fill stroke markers" d=" M 546 89 C 546 69.11774719999994 587.1897984 53 638 53 C 688.8102016 53 730 69.11774719999994 730 89 C 730 108.88225280000006 688.8102016 125 638 125 C 587.1897984 125 546 108.88225280000006 546 89 Z" stroke-miterlimit="10" stroke-dasharray=""/></g><g><g><path fill="none" stroke="none"/><text fill="#000000" stroke="none" font-family="Arial" font-size="13px" font-style="normal" font-weight="bold" text-decoration="undefined" x="1982" y="2319" text-anchor="middle" dominant-baseline="central" transform="matrix(1 0 0 1 -1344 -2242)">UC[22] Avviare una</text><text fill="#000000" stroke="none" font-family="Arial" font-size="13px" font-style="normal" font-weight="bold" text-decoration="undefined" x="1982" y="2332" text-anchor="middle" dominant-baseline="central" transform="matrix(1 0 0 1 -1344 -2242)">routine esistente</text><text fill="#000000" stroke="none" font-family="Arial" font-size="13px" font-style="normal" font-weight="bold" text-decoration="undefined" x="1982" y="2345" text-anchor="middle" dominant-baseline="central" transform="matrix(1 0 0 1 -1344 -2242)">dalla dashboard</text></g></g><g><path fill="#ffffff" stroke="none" paint-order="stroke fill markers" d=" M 88.14632812500008 142.8499999999999 C 88.14632812500008 137.9622795199998 92.10413049299996 134 96.986328125 134 C 101.86852575700004 134 105.82632812499992 137.9622795199998 105.82632812499992 142.8499999999999 C 105.82632812499992 147.73772048 101.86852575700004 151.69999999999982 96.986328125 151.69999999999982 C 92.10413049299996 151.69999999999982 88.14632812500008 147.73772048 88.14632812500008 142.8499999999999 Z"/></g><g><path fill="none" stroke="#000000" paint-order="fill stroke markers" d=" M 88.14632812500008 142.8499999999999 C 88.14632812500008 137.9622795199998 92.10413049299996 134 96.986328125 134 C 101.86852575700004 134 105.82632812499992 137.9622795199998 105.82632812499992 142.8499999999999 C 105.82632812499992 147.73772048 101.86852575700004 151.69999999999982 96.986328125 151.69999999999982 C 92.10413049299996 151.69999999999982 88.14632812500008 147.73772048 88.14632812500008 142.8499999999999 Z" stroke-miterlimit="10" stroke-dasharray=""/></g><g><path fill="none" stroke="#000000" paint-order="fill stroke markers" d=" M 96.986328125 151.69999999999982 L 96.986328125 169.30000000000018" stroke-miterlimit="10" stroke-dasharray=""/></g><g><path fill="none" stroke="#000000" paint-order="fill stroke markers" d=" M 87.6263281250001 158.30000000000018 L 106.3463281249999 158.30000000000018" stroke-miterlimit="10" stroke-dasharray=""/></g><g><path fill="none" stroke="#000000" paint-order="fill stroke markers" d=" M 96.986328125 169.30000000000018 L 83.986328125 187" stroke-miterlimit="10" stroke-dasharray=""/></g><g><path fill="none" stroke="#000000" paint-order="fill stroke markers" d=" M 96.986328125 169.30000000000018 L 109.986328125 187" stroke-miterlimit="10" stroke-dasharray=""/></g><g><g><path fill="none" stroke="none"/><text fill="#000000" stroke="none" font-family="Arial" font-size="13px" font-style="normal" font-weight="bold" text-decoration="undefined" x="1441.486328125" y="2443.5" text-anchor="middle" dominant-baseline="central" transform="matrix(1 0 0 1 -1344 -2242)">Utente autenticato</text></g></g><g><path fill="#C0C0C0" stroke="none" paint-order="stroke fill markers" d=" M 337 177 C 337 152.14718399999992 365.65377280000007 132 401 132 C 436.34622719999993 132 465 152.14718399999992 465 177 C 465 201.85281600000008 436.34622719999993 222 401 222 C 365.65377280000007 222 337 201.85281600000008 337 177 Z" fill-opacity="0.2"/></g><g><path fill="#ffffff" stroke="none" paint-order="stroke fill markers" d=" M 330 170 C 330 145.14718399999992 358.65377280000007 125 394 125 C 429.34622719999993 125 458 145.14718399999992 458 170 C 458 194.85281600000008 429.34622719999993 215 394 215 C 358.65377280000007 215 330 194.85281600000008 330 170 Z"/></g><g><path fill="none" stroke="#000000" paint-order="fill stroke markers" d=" M 330 170 C 330 145.14718399999992 358.65377280000007 125 394 125 C 429.34622719999993 125 458 145.14718399999992 458 170 C 458 194.85281600000008 429.34622719999993 215 394 215 C 358.65377280000007 215 330 194.85281600000008 330 170 Z" stroke-miterlimit="10" stroke-dasharray=""/></g><g><g><path fill="none" stroke="none"/><text fill="#000000" stroke="none" font-family="Arial" font-size="13px" font-style="normal" font-weight="bold" text-decoration="undefined" x="1738" y="2393.5" text-anchor="middle" dominant-baseline="central" transform="matrix(1 0 0 1 -1344 -2242)">UC[21]</text><text fill="#000000" stroke="none" font-family="Arial" font-size="13px" font-style="normal" font-weight="bold" text-decoration="undefined" x="1738" y="2406.5" text-anchor="middle" dominant-baseline="central" transform="matrix(1 0 0 1 -1344 -2242)">Avviare una</text><text fill="#000000" stroke="none" font-family="Arial" font-size="13px" font-style="normal" font-weight="bold" text-decoration="undefined" x="1738" y="2419.5" text-anchor="middle" dominant-baseline="central" transform="matrix(1 0 0 1 -1344 -2242)">routine</text><text fill="#000000" stroke="none" font-family="Arial" font-size="13px" font-style="normal" font-weight="bold" text-decoration="undefined" x="1738" y="2432.5" text-anchor="middle" dominant-baseline="central" transform="matrix(1 0 0 1 -1344 -2242)">esistente</text></g></g><g><path fill="none" stroke="#000000" paint-order="fill stroke markers" d=" M 184 167 L 330 167" stroke-miterlimit="10" stroke-dasharray=""/></g><g><path fill="#C0C0C0" stroke="none" paint-order="stroke fill markers" d=" M 553 265 C 553 240.14718399999992 601.3532416 220 661 220 C 720.6467584000002 220 769 240.14718399999992 769 265 C 769 289.8528160000001 720.6467584000002 310 661 310 C 601.3532416 310 553 289.8528160000001 553 265 Z" fill-opacity="0.2"/></g><g><path fill="#ffffff" stroke="none" paint-order="stroke fill markers" d=" M 546 258 C 546 233.14718399999992 594.3532416 213 654 213 C 713.6467584000002 213 762 233.14718399999992 762 258 C 762 282.8528160000001 713.6467584000002 303 654 303 C 594.3532416 303 546 282.8528160000001 546 258 Z"/></g><g><path fill="none" stroke="#000000" paint-order="fill stroke markers" d=" M 546 258 C 546 233.14718399999992 594.3532416 213 654 213 C 713.6467584000002 213 762 233.14718399999992 762 258 C 762 282.8528160000001 713.6467584000002 303 654 303 C 594.3532416 303 546 282.8528160000001 546 258 Z" stroke-miterlimit="10" stroke-dasharray=""/></g><g><g><path fill="none" stroke="none"/><text fill="#000000" stroke="none" font-family="Arial" font-size="13px" font-style="normal" font-weight="bold" text-decoration="undefined" x="1998" y="2481.5" text-anchor="middle" dominant-baseline="central" transform="matrix(1 0 0 1 -1344 -2242)">UC[23] Avviare una</text><text fill="#000000" stroke="none" font-family="Arial" font-size="13px" font-style="normal" font-weight="bold" text-decoration="undefined" x="1998" y="2494.5" text-anchor="middle" dominant-baseline="central" transform="matrix(1 0 0 1 -1344 -2242)">routine esistente</text><text fill="#000000" stroke="none" font-family="Arial" font-size="13px" font-style="normal" font-weight="bold" text-decoration="undefined" x="1998" y="2507.5" text-anchor="middle" dominant-baseline="central" transform="matrix(1 0 0 1 -1344 -2242)">tramite la pagina di</text><text fill="#000000" stroke="none" font-family="Arial" font-size="13px" font-style="normal" font-weight="bold" text-decoration="undefined" x="1998" y="2520.5" text-anchor="middle" dominant-baseline="central" transform="matrix(1 0 0 1 -1344 -2242)">modifica del flusso</text></g></g><g><path fill="none" stroke="#000000" paint-order="fill stroke markers" d=" M 546 261 L 506 261 L 506 173 L 458 173" stroke-miterlimit="10" stroke-dasharray=""/></g><g><path fill="#FFFFFF" stroke="none" paint-order="stroke fill markers" d=" M 478.3253497152482 164.58096448796823 L 458 173 L 478.3253497152482 181.41903551203177"/></g><g><path fill="none" stroke="#000000" paint-order="fill stroke markers" d=" M 478.3253497152482 164.58096448796823 L 458 173 L 478.3253497152482 181.41903551203177 L 478.3253497152482 164.58096448796823" stroke-miterlimit="10" stroke-dasharray=""/></g><g><path fill="none" stroke="#000000" paint-order="fill stroke markers" d=" M 546 85 L 506 85 L 506 173 L 458 173" stroke-miterlimit="10" stroke-dasharray=""/></g><g><path fill="#FFFFFF" stroke="none" paint-order="stroke fill markers" d=" M 478.3253497152482 164.58096448796823 L 458 173 L 478.3253497152482 181.41903551203177"/></g><g><path fill="none" stroke="#000000" paint-order="fill stroke markers" d=" M 478.3253497152482 164.58096448796823 L 458 173 L 478.3253497152482 181.41903551203177 L 478.3253497152482 164.58096448796823" stroke-miterlimit="10" stroke-dasharray=""/></g><g><path fill="#C0C0C0" stroke="none" paint-order="stroke fill markers" d=" M 329 288 C 329 268.11774719999994 361.2354944000001 252 401 252 C 440.7645055999999 252 473 268.11774719999994 473 288 C 473 307.88225280000006 440.7645055999999 324 401 324 C 361.2354944000001 324 329 307.88225280000006 329 288 Z" fill-opacity="0.2"/></g><g><path fill="#ffffff" stroke="none" paint-order="stroke fill markers" d=" M 322 281 C 322 261.11774719999994 354.2354944000001 245 394 245 C 433.7645055999999 245 466 261.11774719999994 466 281 C 466 300.88225280000006 433.7645055999999 317 394 317 C 354.2354944000001 317 322 300.88225280000006 322 281 Z"/></g><g><path fill="none" stroke="#000000" paint-order="fill stroke markers" d=" M 322 281 C 322 261.11774719999994 354.2354944000001 245 394 245 C 433.7645055999999 245 466 261.11774719999994 466 281 C 466 300.88225280000006 433.7645055999999 317 394 317 C 354.2354944000001 317 322 300.88225280000006 322 281 Z" stroke-miterlimit="10" stroke-dasharray=""/></g><g><g><path fill="none" stroke="none"/><text fill="#000000" stroke="none" font-family="Arial" font-size="13px" font-style="normal" font-weight="bold" text-decoration="undefined" x="1738" y="2517.5" text-anchor="middle" dominant-baseline="central" transform="matrix(1 0 0 1 -1344 -2242)">UC[5] Errore</text><text fill="#000000" stroke="none" font-family="Arial" font-size="13px" font-style="normal" font-weight="bold" text-decoration="undefined" x="1738" y="2530.5" text-anchor="middle" dominant-baseline="central" transform="matrix(1 0 0 1 -1344 -2242)">Generico</text></g></g><g><path fill="none" stroke="#000000" paint-order="fill stroke markers" d=" M 394 245 L 394 215" stroke-miterlimit="10" stroke-dasharray="3"/></g><g><path fill="none" stroke="#000000" paint-order="fill stroke markers" d=" M 398.2095177560159 225.1626748576241 L 394 215 L 389.7904822439841 225.1626748576241" stroke-miterlimit="10" stroke-dasharray=""/></g><g><rect fill="#ffffff" stroke="none" x="1674" y="2479" width="53.49169921875" height="13" transform="matrix(1 0 0 1 -1344 -2242)"/></g><g><g><path fill="none" stroke="none"/><text fill="#000000" stroke="none" font-family="Arial" font-size="13px" font-style="normal" font-weight="normal" text-decoration="undefined" x="1700.745849609375" y="2485.5" text-anchor="middle" dominant-baseline="central" transform="matrix(1 0 0 1 -1344 -2242)">«extend»</text></g></g><g><path fill="#C0C0C0" stroke="none" paint-order="stroke fill markers" d=" M 553 96 C 553 76.11774719999994 594.1897984 60 645 60 C 695.8102016 60 737 76.11774719999994 737 96 C 737 115.88225280000006 695.8102016 132 645 132 C 594.1897984 132 553 115.88225280000006 553 96 Z" fill-opacity="0.2"/></g><g><path fill="#ffffff" stroke="none" paint-order="stroke fill markers" d=" M 546 89 C 546 69.11774719999994 587.1897984 53 638 53 C 688.8102016 53 730 69.11774719999994 730 89 C 730 108.88225280000006 688.8102016 125 638 125 C 587.1897984 125 546 108.88225280000006 546 89 Z"/></g><g><path fill="none" stroke="#000000" paint-order="fill stroke markers" d=" M 546 89 C 546 69.11774719999994 587.1897984 53 638 53 C 688.8102016 53 730 69.11774719999994 730 89 C 730 108.88225280000006 688.8102016 125 638 125 C 587.1897984 125 546 108.88225280000006 546 89 Z" stroke-miterlimit="10" stroke-dasharray=""/></g><g><g><path fill="none" stroke="none"/><text fill="#000000" stroke="none" font-family="Arial" font-size="13px" font-style="normal" font-weight="bold" text-decoration="undefined" x="1982" y="2319" text-anchor="middle" dominant-baseline="central" transform="matrix(1 0 0 1 -1344 -2242)">UC[22] Avviare una</text><text fill="#000000" stroke="none" font-family="Arial" font-size="13px" font-style="normal" font-weight="bold" text-decoration="undefined" x="1982" y="2332" text-anchor="middle" dominant-baseline="central" transform="matrix(1 0 0 1 -1344 -2242)">routine esistente</text><text fill="#000000" stroke="none" font-family="Arial" font-size="13px" font-style="normal" font-weight="bold" text-decoration="undefined" x="1982" y="2345" text-anchor="middle" dominant-baseline="central" transform="matrix(1 0 0 1 -1344 -2242)">dalla dashboard</text></g></g><g><path fill="#ffffff" stroke="none" paint-order="stroke fill markers" d=" M 88.14632812500008 142.8499999999999 C 88.14632812500008 137.9622795199998 92.10413049299996 134 96.986328125 134 C 101.86852575700004 134 105.82632812499992 137.9622795199998 105.82632812499992 142.8499999999999 C 105.82632812499992 147.73772048 101.86852575700004 151.69999999999982 96.986328125 151.69999999999982 C 92.10413049299996 151.69999999999982 88.14632812500008 147.73772048 88.14632812500008 142.8499999999999 Z"/></g><g><path fill="none" stroke="#000000" paint-order="fill stroke markers" d=" M 88.14632812500008 142.8499999999999 C 88.14632812500008 137.9622795199998 92.10413049299996 134 96.986328125 134 C 101.86852575700004 134 105.82632812499992 137.9622795199998 105.82632812499992 142.8499999999999 C 105.82632812499992 147.73772048 101.86852575700004 151.69999999999982 96.986328125 151.69999999999982 C 92.10413049299996 151.69999999999982 88.14632812500008 147.73772048 88.14632812500008 142.8499999999999 Z" stroke-miterlimit="10" stroke-dasharray=""/></g><g><path fill="none" stroke="#000000" paint-order="fill stroke markers" d=" M 96.986328125 151.69999999999982 L 96.986328125 169.30000000000018" stroke-miterlimit="10" stroke-dasharray=""/></g><g><path fill="none" stroke="#000000" paint-order="fill stroke markers" d=" M 87.6263281250001 158.30000000000018 L 106.3463281249999 158.30000000000018" stroke-miterlimit="10" stroke-dasharray=""/></g><g><path fill="none" stroke="#000000" paint-order="fill stroke markers" d=" M 96.986328125 169.30000000000018 L 83.986328125 187" stroke-miterlimit="10" stroke-dasharray=""/></g><g><path fill="none" stroke="#000000" paint-order="fill stroke markers" d=" M 96.986328125 169.30000000000018 L 109.986328125 187" stroke-miterlimit="10" stroke-dasharray=""/></g><g><g><path fill="none" stroke="none"/><text fill="#000000" stroke="none" font-family="Arial" font-size="13px" font-style="normal" font-weight="bold" text-decoration="undefined" x="1441.486328125" y="2443.5" text-anchor="middle" dominant-baseline="central" transform="matrix(1 0 0 1 -1344 -2242)">Utente autenticato</text></g></g><g><path fill="#C0C0C0" stroke="none" paint-order="stroke fill markers" d=" M 337 177 C 337 152.14718399999992 365.65377280000007 132 401 132 C 436.34622719999993 132 465 152.14718399999992 465 177 C 465 201.85281600000008 436.34622719999993 222 401 222 C 365.65377280000007 222 337 201.85281600000008 337 177 Z" fill-opacity="0.2"/></g><g><path fill="#ffffff" stroke="none" paint-order="stroke fill markers" d=" M 330 170 C 330 145.14718399999992 358.65377280000007 125 394 125 C 429.34622719999993 125 458 145.14718399999992 458 170 C 458 194.85281600000008 429.34622719999993 215 394 215 C 358.65377280000007 215 330 194.85281600000008 330 170 Z"/></g><g><path fill="none" stroke="#000000" paint-order="fill stroke markers" d=" M 330 170 C 330 145.14718399999992 358.65377280000007 125 394 125 C 429.34622719999993 125 458 145.14718399999992 458 170 C 458 194.85281600000008 429.34622719999993 215 394 215 C 358.65377280000007 215 330 194.85281600000008 330 170 Z" stroke-miterlimit="10" stroke-dasharray=""/></g><g><g><path fill="none" stroke="none"/><text fill="#000000" stroke="none" font-family="Arial" font-size="13px" font-style="normal" font-weight="bold" text-decoration="undefined" x="1738" y="2393.5" text-anchor="middle" dominant-baseline="central" transform="matrix(1 0 0 1 -1344 -2242)">UC[21]</text><text fill="#000000" stroke="none" font-family="Arial" font-size="13px" font-style="normal" font-weight="bold" text-decoration="undefined" x="1738" y="2406.5" text-anchor="middle" dominant-baseline="central" transform="matrix(1 0 0 1 -1344 -2242)">Avviare una</text><text fill="#000000" stroke="none" font-family="Arial" font-size="13px" font-style="normal" font-weight="bold" text-decoration="undefined" x="1738" y="2419.5" text-anchor="middle" dominant-baseline="central" transform="matrix(1 0 0 1 -1344 -2242)">routine</text><text fill="#000000" stroke="none" font-family="Arial" font-size="13px" font-style="normal" font-weight="bold" text-decoration="undefined" x="1738" y="2432.5" text-anchor="middle" dominant-baseline="central" transform="matrix(1 0 0 1 -1344 -2242)">esistente</text></g></g><g><path fill="none" stroke="#000000" paint-order="fill stroke markers" d=" M 184 167 L 330 167" stroke-miterlimit="10" stroke-dasharray=""/></g><g><path fill="#C0C0C0" stroke="none" paint-order="stroke fill markers" d=" M 553 265 C 553 240.14718399999992 601.3532416 220 661 220 C 720.6467584000002 220 769 240.14718399999992 769 265 C 769 289.8528160000001 720.6467584000002 310 661 310 C 601.3532416 310 553 289.8528160000001 553 265 Z" fill-opacity="0.2"/></g><g><path fill="#ffffff" stroke="none" paint-order="stroke fill markers" d=" M 546 258 C 546 233.14718399999992 594.3532416 213 654 213 C 713.6467584000002 213 762 233.14718399999992 762 258 C 762 282.8528160000001 713.6467584000002 303 654 303 C 594.3532416 303 546 282.8528160000001 546 258 Z"/></g><g><path fill="none" stroke="#000000" paint-order="fill stroke markers" d=" M 546 258 C 546 233.14718399999992 594.3532416 213 654 213 C 713.6467584000002 213 762 233.14718399999992 762 258 C 762 282.8528160000001 713.6467584000002 303 654 303 C 594.3532416 303 546 282.8528160000001 546 258 Z" stroke-miterlimit="10" stroke-dasharray=""/></g><g><g><path fill="none" stroke="none"/><text fill="#000000" stroke="none" font-family="Arial" font-size="13px" font-style="normal" font-weight="bold" text-decoration="undefined" x="1998" y="2481.5" text-anchor="middle" dominant-baseline="central" transform="matrix(1 0 0 1 -1344 -2242)">UC[23] Avviare una</text><text fill="#000000" stroke="none" font-family="Arial" font-size="13px" font-style="normal" font-weight="bold" text-decoration="undefined" x="1998" y="2494.5" text-anchor="middle" dominant-baseline="central" transform="matrix(1 0 0 1 -1344 -2242)">routine esistente</text><text fill="#000000" stroke="none" font-family="Arial" font-size="13px" font-style="normal" font-weight="bold" text-decoration="undefined" x="1998" y="2507.5" text-anchor="middle" dominant-baseline="central" transform="matrix(1 0 0 1 -1344 -2242)">tramite la pagina di</text><text fill="#000000" stroke="none" font-family="Arial" font-size="13px" font-style="normal" font-weight="bold" text-decoration="undefined" x="1998" y="2520.5" text-anchor="middle" dominant-baseline="central" transform="matrix(1 0 0 1 -1344 -2242)">modifica del flusso</text></g></g><g><path fill="none" stroke="#000000" paint-order="fill stroke markers" d=" M 546 261 L 506 261 L 506 173 L 458 173" stroke-miterlimit="10" stroke-dasharray=""/></g><g><path fill="#FFFFFF" stroke="none" paint-order="stroke fill markers" d=" M 478.3253497152482 164.58096448796823 L 458 173 L 478.3253497152482 181.41903551203177"/></g><g><path fill="none" stroke="#000000" paint-order="fill stroke markers" d=" M 478.3253497152482 164.58096448796823 L 458 173 L 478.3253497152482 181.41903551203177 L 478.3253497152482 164.58096448796823" stroke-miterlimit="10" stroke-dasharray=""/></g><g><path fill="none" stroke="#000000" paint-order="fill stroke markers" d=" M 546 85 L 506 85 L 506 173 L 458 173" stroke-miterlimit="10" stroke-dasharray=""/></g><g><path fill="#FFFFFF" stroke="none" paint-order="stroke fill markers" d=" M 478.3253497152482 164.58096448796823 L 458 173 L 478.3253497152482 181.41903551203177"/></g><g><path fill="none" stroke="#000000" paint-order="fill stroke markers" d=" M 478.3253497152482 164.58096448796823 L 458 173 L 478.3253497152482 181.41903551203177 L 478.3253497152482 164.58096448796823" stroke-miterlimit="10" stroke-dasharray=""/></g><g><path fill="#C0C0C0" stroke="none" paint-order="stroke fill markers" d=" M 329 288 C 329 268.11774719999994 361.2354944000001 252 401 252 C 440.7645055999999 252 473 268.11774719999994 473 288 C 473 307.88225280000006 440.7645055999999 324 401 324 C 361.2354944000001 324 329 307.88225280000006 329 288 Z" fill-opacity="0.2"/></g><g><path fill="#ffffff" stroke="none" paint-order="stroke fill markers" d=" M 322 281 C 322 261.11774719999994 354.2354944000001 245 394 245 C 433.7645055999999 245 466 261.11774719999994 466 281 C 466 300.88225280000006 433.7645055999999 317 394 317 C 354.2354944000001 317 322 300.88225280000006 322 281 Z"/></g><g><path fill="none" stroke="#000000" paint-order="fill stroke markers" d=" M 322 281 C 322 261.11774719999994 354.2354944000001 245 394 245 C 433.7645055999999 245 466 261.11774719999994 466 281 C 466 300.88225280000006 433.7645055999999 317 394 317 C 354.2354944000001 317 322 300.88225280000006 322 281 Z" stroke-miterlimit="10" stroke-dasharray=""/></g><g><g><path fill="none" stroke="none"/><text fill="#000000" stroke="none" font-family="Arial" font-size="13px" font-style="normal" font-weight="bold" text-decoration="undefined" x="1738" y="2517.5" text-anchor="middle" dominant-baseline="central" transform="matrix(1 0 0 1 -1344 -2242)">UC[5] Errore</text><text fill="#000000" stroke="none" font-family="Arial" font-size="13px" font-style="normal" font-weight="bold" text-decoration="undefined" x="1738" y="2530.5" text-anchor="middle" dominant-baseline="central" transform="matrix(1 0 0 1 -1344 -2242)">Generico</text></g></g><g><path fill="none" stroke="#000000" paint-order="fill stroke markers" d=" M 394 245 L 394 215" stroke-miterlimit="10" stroke-dasharray="3"/></g><g><path fill="none" stroke="#000000" paint-order="fill stroke markers" d=" M 398.2095177560159 225.1626748576241 L 394 215 L 389.7904822439841 225.1626748576241" stroke-miterlimit="10" stroke-dasharray=""/></g><g><rect fill="#ffffff" stroke="none" x="1674" y="2479" width="53.49169921875" height="13" transform="matrix(1 0 0 1 -1344 -2242)"/></g><g><g><path fill="none" stroke="none"/><text fill="#000000" stroke="none" font-family="Arial" font-size="13px" font-style="normal" font-weight="normal" text-decoration="undefined" x="1700.745849609375" y="2485.5" text-anchor="middle" dominant-baseline="central" transform="matrix(1 0 0 1 -1344 -2242)">«extend»</text></g></g></g></svg>