<svg version="1.1" xmlns="http://www.w3.org/2000/svg" xmlns:xlink="http://www.w3.org/1999/xlink" width="909" height="327"><defs/><g><g><rect fill="#C0C0C0" stroke="none" x="1629" y="2381" width="688" height="307" transform="matrix(1 0 0 1 -1412 -2364)" fill-opacity="0.2"/></g><g><rect fill="#ffffff" stroke="none" x="1622" y="2374" width="688" height="307" transform="matrix(1 0 0 1 -1412 -2364)"/></g><g><path fill="none" stroke="#000000" paint-order="fill stroke markers" d=" M 210 10 L 898 10 L 898 317 L 210 317 L 210 10 Z Z" stroke-miterlimit="10" stroke-dasharray=""/></g><g><g><path fill="none" stroke="none"/><text fill="#000000" stroke="none" font-family="Arial" font-size="13px" font-style="normal" font-weight="bold" text-decoration="undefined" x="1966.5" y="2387.5" text-anchor="middle" dominant-baseline="central" transform="matrix(1 0 0 1 -1412 -2364)">Sistema</text></g></g><g><path fill="#ffffff" stroke="none" paint-order="stroke fill markers" d=" M 88.14632812500008 70.84999999999991 C 88.14632812500008 65.96227951999981 92.10413049299996 62 96.986328125 62 C 101.86852575700004 62 105.82632812499992 65.96227951999981 105.82632812499992 70.84999999999991 C 105.82632812499992 75.73772048000001 101.86852575700004 79.69999999999982 96.986328125 79.69999999999982 C 92.10413049299996 79.69999999999982 88.14632812500008 75.73772048000001 88.14632812500008 70.84999999999991 Z"/></g><g><path fill="none" stroke="#000000" paint-order="fill stroke markers" d=" M 88.14632812500008 70.84999999999991 C 88.14632812500008 65.96227951999981 92.10413049299996 62 96.986328125 62 C 101.86852575700004 62 105.82632812499992 65.96227951999981 105.82632812499992 70.84999999999991 C 105.82632812499992 75.73772048000001 101.86852575700004 79.69999999999982 96.986328125 79.69999999999982 C 92.10413049299996 79.69999999999982 88.14632812500008 75.73772048000001 88.14632812500008 70.84999999999991 Z" stroke-miterlimit="10" stroke-dasharray=""/></g><g><path fill="none" stroke="#000000" paint-order="fill stroke markers" d=" M 96.986328125 79.69999999999982 L 96.986328125 97.30000000000018" stroke-miterlimit="10" stroke-dasharray=""/></g><g><path fill="none" stroke="#000000" paint-order="fill stroke markers" d=" M 87.6263281250001 86.30000000000018 L 106.3463281249999 86.30000000000018" stroke-miterlimit="10" stroke-dasharray=""/></g><g><path fill="none" stroke="#000000" paint-order="fill stroke markers" d=" M 96.986328125 97.30000000000018 L 83.986328125 115" stroke-miterlimit="10" stroke-dasharray=""/></g><g><path fill="none" stroke="#000000" paint-order="fill stroke markers" d=" M 96.986328125 97.30000000000018 L 109.986328125 115" stroke-miterlimit="10" stroke-dasharray=""/></g><g><g><path fill="none" stroke="none"/><text fill="#000000" stroke="none" font-family="Arial" font-size="13px" font-style="normal" font-weight="bold" text-decoration="undefined" x="1509.486328125" y="2493.5" text-anchor="middle" dominant-baseline="central" transform="matrix(1 0 0 1 -1412 -2364)">Utente autenticato</text></g></g><g><path fill="#C0C0C0" stroke="none" paint-order="stroke fill markers" d=" M 361 112 C 361 92.11774719999994 398.60807679999994 76 445 76 C 491.39192320000006 76 529 92.11774719999994 529 112 C 529 131.88225280000006 491.39192320000006 148 445 148 C 398.60807679999994 148 361 131.88225280000006 361 112 Z" fill-opacity="0.2"/></g><g><path fill="#ffffff" stroke="none" paint-order="stroke fill markers" d=" M 354 105 C 354 85.11774719999994 391.60807679999994 69 438 69 C 484.39192320000006 69 522 85.11774719999994 522 105 C 522 124.88225280000006 484.39192320000006 141 438 141 C 391.60807679999994 141 354 124.88225280000006 354 105 Z"/></g><g><path fill="none" stroke="#000000" paint-order="fill stroke markers" d=" M 354 105 C 354 85.11774719999994 391.60807679999994 69 438 69 C 484.39192320000006 69 522 85.11774719999994 522 105 C 522 124.88225280000006 484.39192320000006 141 438 141 C 391.60807679999994 141 354 124.88225280000006 354 105 Z" stroke-miterlimit="10" stroke-dasharray=""/></g><g><g><path fill="none" stroke="none"/><text fill="#000000" stroke="none" font-family="Arial" font-size="13px" font-style="normal" font-weight="bold" text-decoration="undefined" x="1850" y="2457" text-anchor="middle" dominant-baseline="central" transform="matrix(1 0 0 1 -1412 -2364)">UC[24]</text><text fill="#000000" stroke="none" font-family="Arial" font-size="13px" font-style="normal" font-weight="bold" text-decoration="undefined" x="1850" y="2470" text-anchor="middle" dominant-baseline="central" transform="matrix(1 0 0 1 -1412 -2364)">Interrompere una</text><text fill="#000000" stroke="none" font-family="Arial" font-size="13px" font-style="normal" font-weight="bold" text-decoration="undefined" x="1850" y="2483" text-anchor="middle" dominant-baseline="central" transform="matrix(1 0 0 1 -1412 -2364)">routine avviata</text></g></g><g><path fill="none" stroke="#000000" paint-order="fill stroke markers" d=" M 184 104 L 354 104" stroke-miterlimit="10" stroke-dasharray=""/></g><g><path fill="#C0C0C0" stroke="none" paint-order="stroke fill markers" d=" M 473 256 C 473 236.11774719999994 505.2354944000001 220 545 220 C 584.7645055999999 220 617 236.11774719999994 617 256 C 617 275.88225280000006 584.7645055999999 292 545 292 C 505.2354944000001 292 473 275.88225280000006 473 256 Z" fill-opacity="0.2"/></g><g><path fill="#ffffff" stroke="none" paint-order="stroke fill markers" d=" M 466 249 C 466 229.11774719999994 498.2354944000001 213 538 213 C 577.7645055999999 213 610 229.11774719999994 610 249 C 610 268.88225280000006 577.7645055999999 285 538 285 C 498.2354944000001 285 466 268.88225280000006 466 249 Z"/></g><g><path fill="none" stroke="#000000" paint-order="fill stroke markers" d=" M 466 249 C 466 229.11774719999994 498.2354944000001 213 538 213 C 577.7645055999999 213 610 229.11774719999994 610 249 C 610 268.88225280000006 577.7645055999999 285 538 285 C 498.2354944000001 285 466 268.88225280000006 466 249 Z" stroke-miterlimit="10" stroke-dasharray=""/></g><g><g><path fill="none" stroke="none"/><text fill="#000000" stroke="none" font-family="Arial" font-size="13px" font-style="normal" font-weight="bold" text-decoration="undefined" x="1950" y="2607.5" text-anchor="middle" dominant-baseline="central" transform="matrix(1 0 0 1 -1412 -2364)">UC[5] Errore</text><text fill="#000000" stroke="none" font-family="Arial" font-size="13px" font-style="normal" font-weight="bold" text-decoration="undefined" x="1950" y="2620.5" text-anchor="middle" dominant-baseline="central" transform="matrix(1 0 0 1 -1412 -2364)">Generico</text></g></g><g><path fill="#C0C0C0" stroke="none" paint-order="stroke fill markers" d=" M 225 256 C 225 236.11774719999994 276.9349632000001 220 341 220 C 405.0650367999999 220 457 236.11774719999994 457 256 C 457 275.88225280000006 405.0650367999999 292 341 292 C 276.9349632000001 292 225 275.88225280000006 225 256 Z" fill-opacity="0.2"/></g><g><path fill="#ffffff" stroke="none" paint-order="stroke fill markers" d=" M 218 249 C 218 229.11774719999994 269.9349632000001 213 334 213 C 398.0650367999999 213 450 229.11774719999994 450 249 C 450 268.88225280000006 398.0650367999999 285 334 285 C 269.9349632000001 285 218 268.88225280000006 218 249 Z"/></g><g><path fill="none" stroke="#000000" paint-order="fill stroke markers" d=" M 218 249 C 218 229.11774719999994 269.9349632000001 213 334 213 C 398.0650367999999 213 450 229.11774719999994 450 249 C 450 268.88225280000006 398.0650367999999 285 334 285 C 269.9349632000001 285 218 268.88225280000006 218 249 Z" stroke-miterlimit="10" stroke-dasharray=""/></g><g><g><path fill="none" stroke="none"/><text fill="#000000" stroke="none" font-family="Arial" font-size="13px" font-style="normal" font-weight="bold" text-decoration="undefined" x="1746" y="2601" text-anchor="middle" dominant-baseline="central" transform="matrix(1 0 0 1 -1412 -2364)">UC[27] Visualizzazione</text><text fill="#000000" stroke="none" font-family="Arial" font-size="13px" font-style="normal" font-weight="bold" text-decoration="undefined" x="1746" y="2614" text-anchor="middle" dominant-baseline="central" transform="matrix(1 0 0 1 -1412 -2364)">errore «Impossibile</text><text fill="#000000" stroke="none" font-family="Arial" font-size="13px" font-style="normal" font-weight="bold" text-decoration="undefined" x="1746" y="2627" text-anchor="middle" dominant-baseline="central" transform="matrix(1 0 0 1 -1412 -2364)">bloccare la routine»</text></g></g><g><path fill="none" stroke="#000000" paint-order="fill stroke markers" d=" M 338 213 L 338 173 L 442 173 L 442 141" stroke-miterlimit="10" stroke-dasharray="3"/></g><g><path fill="none" stroke="#000000" paint-order="fill stroke markers" d=" M 446.2095177560159 151.1626748576241 L 442 141 L 437.7904822439841 151.1626748576241" stroke-miterlimit="10" stroke-dasharray=""/></g><g><rect fill="#ffffff" stroke="none" x="1686" y="2561" width="53.49169921875" height="13" transform="matrix(1 0 0 1 -1412 -2364)"/></g><g><g><path fill="none" stroke="none"/><text fill="#000000" stroke="none" font-family="Arial" font-size="13px" font-style="normal" font-weight="normal" text-decoration="undefined" x="1712.745849609375" y="2567.5" text-anchor="middle" dominant-baseline="central" transform="matrix(1 0 0 1 -1412 -2364)">«extend»</text></g></g><g><path fill="none" stroke="#000000" paint-order="fill stroke markers" d=" M 538 213 L 538 173 L 442 173 L 442 141" stroke-miterlimit="10" stroke-dasharray="3"/></g><g><path fill="none" stroke="#000000" paint-order="fill stroke markers" d=" M 446.2095177560159 151.1626748576241 L 442 141 L 437.7904822439841 151.1626748576241" stroke-miterlimit="10" stroke-dasharray=""/></g><g><rect fill="#ffffff" stroke="none" x="1886" y="2560" width="53.49169921875" height="13" transform="matrix(1 0 0 1 -1412 -2364)"/></g><g><g><path fill="none" stroke="none"/><text fill="#000000" stroke="none" font-family="Arial" font-size="13px" font-style="normal" font-weight="normal" text-decoration="undefined" x="1912.745849609375" y="2566.5" text-anchor="middle" dominant-baseline="central" transform="matrix(1 0 0 1 -1412 -2364)">«extend»</text></g></g><g><path fill="#C0C0C0" stroke="none" paint-order="stroke fill markers" d=" M 729 90 C 729 60.17662079999991 757.4299151999999 36 792.5 36 C 827.5700848000001 36 856 60.17662079999991 856 90 C 856 119.82337920000009 827.5700848000001 144 792.5 144 C 757.4299151999999 144 729 119.82337920000009 729 90 Z" fill-opacity="0.2"/></g><g><path fill="#ffffff" stroke="none" paint-order="stroke fill markers" d=" M 722 83 C 722 53.17662079999991 750.4299151999999 29 785.5 29 C 820.5700848000001 29 849 53.17662079999991 849 83 C 849 112.82337920000009 820.5700848000001 137 785.5 137 C 750.4299151999999 137 722 112.82337920000009 722 83 Z"/></g><g><path fill="none" stroke="#000000" paint-order="fill stroke markers" d=" M 722 83 C 722 53.17662079999991 750.4299151999999 29 785.5 29 C 820.5700848000001 29 849 53.17662079999991 849 83 C 849 112.82337920000009 820.5700848000001 137 785.5 137 C 750.4299151999999 137 722 112.82337920000009 722 83 Z" stroke-miterlimit="10" stroke-dasharray=""/></g><g><g><path fill="none" stroke="none"/><text fill="#000000" stroke="none" font-family="Arial" font-size="13px" font-style="normal" font-weight="bold" text-decoration="undefined" x="2197.5" y="2422" text-anchor="middle" dominant-baseline="central" transform="matrix(1 0 0 1 -1412 -2364)">UC[25]</text><text fill="#000000" stroke="none" font-family="Arial" font-size="13px" font-style="normal" font-weight="bold" text-decoration="undefined" x="2197.5" y="2435" text-anchor="middle" dominant-baseline="central" transform="matrix(1 0 0 1 -1412 -2364)">Interrompere</text><text fill="#000000" stroke="none" font-family="Arial" font-size="13px" font-style="normal" font-weight="bold" text-decoration="undefined" x="2197.5" y="2448" text-anchor="middle" dominant-baseline="central" transform="matrix(1 0 0 1 -1412 -2364)">una routine</text><text fill="#000000" stroke="none" font-family="Arial" font-size="13px" font-style="normal" font-weight="bold" text-decoration="undefined" x="2197.5" y="2461" text-anchor="middle" dominant-baseline="central" transform="matrix(1 0 0 1 -1412 -2364)">dalla</text><text fill="#000000" stroke="none" font-family="Arial" font-size="13px" font-style="normal" font-weight="bold" text-decoration="undefined" x="2197.5" y="2474" text-anchor="middle" dominant-baseline="central" transform="matrix(1 0 0 1 -1412 -2364)">dashboard</text></g></g><g><path fill="#C0C0C0" stroke="none" paint-order="stroke fill markers" d=" M 705 242 C 705 212.1766207999999 744.3989376 188 793 188 C 841.6010624 188 881 212.1766207999999 881 242 C 881 271.8233792000001 841.6010624 296 793 296 C 744.3989376 296 705 271.8233792000001 705 242 Z" fill-opacity="0.2"/></g><g><path fill="#ffffff" stroke="none" paint-order="stroke fill markers" d=" M 698 235 C 698 205.1766207999999 737.3989376 181 786 181 C 834.6010624 181 874 205.1766207999999 874 235 C 874 264.8233792000001 834.6010624 289 786 289 C 737.3989376 289 698 264.8233792000001 698 235 Z"/></g><g><path fill="none" stroke="#000000" paint-order="fill stroke markers" d=" M 698 235 C 698 205.1766207999999 737.3989376 181 786 181 C 834.6010624 181 874 205.1766207999999 874 235 C 874 264.8233792000001 834.6010624 289 786 289 C 737.3989376 289 698 264.8233792000001 698 235 Z" stroke-miterlimit="10" stroke-dasharray=""/></g><g><g><path fill="none" stroke="none"/><text fill="#000000" stroke="none" font-family="Arial" font-size="13px" font-style="normal" font-weight="bold" text-decoration="undefined" x="2198" y="2574" text-anchor="middle" dominant-baseline="central" transform="matrix(1 0 0 1 -1412 -2364)">UC[26]</text><text fill="#000000" stroke="none" font-family="Arial" font-size="13px" font-style="normal" font-weight="bold" text-decoration="undefined" x="2198" y="2587" text-anchor="middle" dominant-baseline="central" transform="matrix(1 0 0 1 -1412 -2364)">Interrompere una</text><text fill="#000000" stroke="none" font-family="Arial" font-size="13px" font-style="normal" font-weight="bold" text-decoration="undefined" x="2198" y="2600" text-anchor="middle" dominant-baseline="central" transform="matrix(1 0 0 1 -1412 -2364)">routine tramite la</text><text fill="#000000" stroke="none" font-family="Arial" font-size="13px" font-style="normal" font-weight="bold" text-decoration="undefined" x="2198" y="2613" text-anchor="middle" dominant-baseline="central" transform="matrix(1 0 0 1 -1412 -2364)">propria pagina di</text><text fill="#000000" stroke="none" font-family="Arial" font-size="13px" font-style="normal" font-weight="bold" text-decoration="undefined" x="2198" y="2626" text-anchor="middle" dominant-baseline="central" transform="matrix(1 0 0 1 -1412 -2364)">modifica</text></g></g><g><path fill="none" stroke="#000000" paint-order="fill stroke markers" d=" M 698 237 L 626 237 L 626 109 L 522 109" stroke-miterlimit="10" stroke-dasharray=""/></g><g><path fill="#FFFFFF" stroke="none" paint-order="stroke fill markers" d=" M 542.3253497152482 100.58096448796823 L 522 109 L 542.3253497152482 117.41903551203177"/></g><g><path fill="none" stroke="#000000" paint-order="fill stroke markers" d=" M 542.3253497152482 100.58096448796823 L 522 109 L 542.3253497152482 117.41903551203177 L 542.3253497152482 100.58096448796823" stroke-miterlimit="10" stroke-dasharray=""/></g><g><path fill="none" stroke="#000000" paint-order="fill stroke markers" d=" M 722 77 L 626 77 L 626 109 L 522 109" stroke-miterlimit="10" stroke-dasharray=""/></g><g><path fill="#FFFFFF" stroke="none" paint-order="stroke fill markers" d=" M 542.3253497152482 100.58096448796823 L 522 109 L 542.3253497152482 117.41903551203177"/></g><g><path fill="none" stroke="#000000" paint-order="fill stroke markers" d=" M 542.3253497152482 100.58096448796823 L 522 109 L 542.3253497152482 117.41903551203177 L 542.3253497152482 100.58096448796823" stroke-miterlimit="10" stroke-dasharray=""/></g></g></svg>