<svg version="1.1" xmlns="http://www.w3.org/2000/svg" xmlns:xlink="http://www.w3.org/1999/xlink" width="837" height="517"><defs/><g><g><rect fill="#C0C0C0" stroke="none" x="1852" y="2428" width="616" height="497" transform="matrix(1 0 0 1 -1635 -2411)" fill-opacity="0.2"/></g><g><rect fill="#ffffff" stroke="none" x="1845" y="2421" width="616" height="497" transform="matrix(1 0 0 1 -1635 -2411)"/></g><g><path fill="none" stroke="#000000" paint-order="fill stroke markers" d=" M 210 10 L 826 10 L 826 507 L 210 507 L 210 10 Z Z" stroke-miterlimit="10" stroke-dasharray=""/></g><g><g><path fill="none" stroke="none"/><text fill="#000000" stroke="none" font-family="Arial" font-size="13px" font-style="normal" font-weight="bold" text-decoration="undefined" x="2153.5" y="2434.5" text-anchor="middle" dominant-baseline="central" transform="matrix(1 0 0 1 -1635 -2411)">Sistema</text></g></g><g><path fill="#ffffff" stroke="none" paint-order="stroke fill markers" d=" M 88.14632812500008 228.8499999999999 C 88.14632812500008 223.9622795199998 92.10413049299996 220 96.986328125 220 C 101.86852575700004 220 105.82632812499992 223.9622795199998 105.82632812499992 228.8499999999999 C 105.82632812499992 233.73772048 101.86852575700004 237.69999999999982 96.986328125 237.69999999999982 C 92.10413049299996 237.69999999999982 88.14632812500008 233.73772048 88.14632812500008 228.8499999999999 Z"/></g><g><path fill="none" stroke="#000000" paint-order="fill stroke markers" d=" M 88.14632812500008 228.8499999999999 C 88.14632812500008 223.9622795199998 92.10413049299996 220 96.986328125 220 C 101.86852575700004 220 105.82632812499992 223.9622795199998 105.82632812499992 228.8499999999999 C 105.82632812499992 233.73772048 101.86852575700004 237.69999999999982 96.986328125 237.69999999999982 C 92.10413049299996 237.69999999999982 88.14632812500008 233.73772048 88.14632812500008 228.8499999999999 Z" stroke-miterlimit="10" stroke-dasharray=""/></g><g><path fill="none" stroke="#000000" paint-order="fill stroke markers" d=" M 96.986328125 237.69999999999982 L 96.986328125 255.30000000000018" stroke-miterlimit="10" stroke-dasharray=""/></g><g><path fill="none" stroke="#000000" paint-order="fill stroke markers" d=" M 87.6263281250001 244.30000000000018 L 106.3463281249999 244.30000000000018" stroke-miterlimit="10" stroke-dasharray=""/></g><g><path fill="none" stroke="#000000" paint-order="fill stroke markers" d=" M 96.986328125 255.30000000000018 L 83.986328125 273" stroke-miterlimit="10" stroke-dasharray=""/></g><g><path fill="none" stroke="#000000" paint-order="fill stroke markers" d=" M 96.986328125 255.30000000000018 L 109.986328125 273" stroke-miterlimit="10" stroke-dasharray=""/></g><g><g><path fill="none" stroke="none"/><text fill="#000000" stroke="none" font-family="Arial" font-size="13px" font-style="normal" font-weight="bold" text-decoration="undefined" x="1732.486328125" y="2698.5" text-anchor="middle" dominant-baseline="central" transform="matrix(1 0 0 1 -1635 -2411)">Utente esperto autenticato</text></g></g><g><path fill="#C0C0C0" stroke="none" paint-order="stroke fill markers" d=" M 257 262 C 257 242.11774719999994 303.5623808 226 361 226 C 418.4376192 226 465 242.11774719999994 465 262 C 465 281.88225280000006 418.4376192 298 361 298 C 303.5623808 298 257 281.88225280000006 257 262 Z" fill-opacity="0.2"/></g><g><path fill="#ffffff" stroke="none" paint-order="stroke fill markers" d=" M 250 255 C 250 235.11774719999994 296.5623808 219 354 219 C 411.4376192 219 458 235.11774719999994 458 255 C 458 274.88225280000006 411.4376192 291 354 291 C 296.5623808 291 250 274.88225280000006 250 255 Z"/></g><g><path fill="none" stroke="#000000" paint-order="fill stroke markers" d=" M 250 255 C 250 235.11774719999994 296.5623808 219 354 219 C 411.4376192 219 458 235.11774719999994 458 255 C 458 274.88225280000006 411.4376192 291 354 291 C 296.5623808 291 250 274.88225280000006 250 255 Z" stroke-miterlimit="10" stroke-dasharray=""/></g><g><g><path fill="none" stroke="none"/><text fill="#000000" stroke="none" font-family="Arial" font-size="13px" font-style="normal" font-weight="bold" text-decoration="undefined" x="1989" y="2654" text-anchor="middle" dominant-baseline="central" transform="matrix(1 0 0 1 -1635 -2411)">UC[28] Aggiunta di un</text><text fill="#000000" stroke="none" font-family="Arial" font-size="13px" font-style="normal" font-weight="bold" text-decoration="undefined" x="1989" y="2667" text-anchor="middle" dominant-baseline="central" transform="matrix(1 0 0 1 -1635 -2411)">blocco ad una routine</text><text fill="#000000" stroke="none" font-family="Arial" font-size="13px" font-style="normal" font-weight="bold" text-decoration="undefined" x="1989" y="2680" text-anchor="middle" dominant-baseline="central" transform="matrix(1 0 0 1 -1635 -2411)">esistente</text></g></g><g><path fill="none" stroke="#000000" paint-order="fill stroke markers" d=" M 184 259 L 250 259" stroke-miterlimit="10" stroke-dasharray=""/></g><g><path fill="#C0C0C0" stroke="none" paint-order="stroke fill markers" d=" M 289 414 C 289 394.11774719999994 321.2354944000001 378 361 378 C 400.7645055999999 378 433 394.11774719999994 433 414 C 433 433.88225280000006 400.7645055999999 450 361 450 C 321.2354944000001 450 289 433.88225280000006 289 414 Z" fill-opacity="0.2"/></g><g><path fill="#ffffff" stroke="none" paint-order="stroke fill markers" d=" M 282 407 C 282 387.11774719999994 314.2354944000001 371 354 371 C 393.7645055999999 371 426 387.11774719999994 426 407 C 426 426.88225280000006 393.7645055999999 443 354 443 C 314.2354944000001 443 282 426.88225280000006 282 407 Z"/></g><g><path fill="none" stroke="#000000" paint-order="fill stroke markers" d=" M 282 407 C 282 387.11774719999994 314.2354944000001 371 354 371 C 393.7645055999999 371 426 387.11774719999994 426 407 C 426 426.88225280000006 393.7645055999999 443 354 443 C 314.2354944000001 443 282 426.88225280000006 282 407 Z" stroke-miterlimit="10" stroke-dasharray=""/></g><g><g><path fill="none" stroke="none"/><text fill="#000000" stroke="none" font-family="Arial" font-size="13px" font-style="normal" font-weight="bold" text-decoration="undefined" x="1989" y="2812.5" text-anchor="middle" dominant-baseline="central" transform="matrix(1 0 0 1 -1635 -2411)">UC[5] Errore</text><text fill="#000000" stroke="none" font-family="Arial" font-size="13px" font-style="normal" font-weight="bold" text-decoration="undefined" x="1989" y="2825.5" text-anchor="middle" dominant-baseline="central" transform="matrix(1 0 0 1 -1635 -2411)">Generico</text></g></g><g><path fill="none" stroke="#000000" paint-order="fill stroke markers" d=" M 354 371 L 354 291" stroke-miterlimit="10" stroke-dasharray="3"/></g><g><path fill="none" stroke="#000000" paint-order="fill stroke markers" d=" M 358.2095177560159 301.1626748576241 L 354 291 L 349.7904822439841 301.1626748576241" stroke-miterlimit="10" stroke-dasharray=""/></g><g><rect fill="#ffffff" stroke="none" x="1925" y="2758" width="53.49169921875" height="13" transform="matrix(1 0 0 1 -1635 -2411)"/></g><g><g><path fill="none" stroke="none"/><text fill="#000000" stroke="none" font-family="Arial" font-size="13px" font-style="normal" font-weight="normal" text-decoration="undefined" x="1951.745849609375" y="2764.5" text-anchor="middle" dominant-baseline="central" transform="matrix(1 0 0 1 -1635 -2411)">«extend»</text></g></g><g><path fill="#C0C0C0" stroke="none" paint-order="stroke fill markers" d=" M 569 79 C 569 54.147183999999925 620.9349631999999 34 685 34 C 749.0650368000001 34 801 54.147183999999925 801 79 C 801 103.85281600000008 749.0650368000001 124 685 124 C 620.9349631999999 124 569 103.85281600000008 569 79 Z" fill-opacity="0.2"/></g><g><path fill="#ffffff" stroke="none" paint-order="stroke fill markers" d=" M 562 72 C 562 47.147183999999925 613.9349631999999 27 678 27 C 742.0650368000001 27 794 47.147183999999925 794 72 C 794 96.85281600000008 742.0650368000001 117 678 117 C 613.9349631999999 117 562 96.85281600000008 562 72 Z"/></g><g><path fill="none" stroke="#000000" paint-order="fill stroke markers" d=" M 562 72 C 562 47.147183999999925 613.9349631999999 27 678 27 C 742.0650368000001 27 794 47.147183999999925 794 72 C 794 96.85281600000008 742.0650368000001 117 678 117 C 613.9349631999999 117 562 96.85281600000008 562 72 Z" stroke-miterlimit="10" stroke-dasharray=""/></g><g><g><path fill="none" stroke="none"/><text fill="#000000" stroke="none" font-family="Arial" font-size="13px" font-style="normal" font-weight="bold" text-decoration="undefined" x="2313" y="2464.5" text-anchor="middle" dominant-baseline="central" transform="matrix(1 0 0 1 -1635 -2411)">UC[29] Aggiunta del</text><text fill="#000000" stroke="none" font-family="Arial" font-size="13px" font-style="normal" font-weight="bold" text-decoration="undefined" x="2313" y="2477.5" text-anchor="middle" dominant-baseline="central" transform="matrix(1 0 0 1 -1635 -2411)">blocco "Telegram - Send</text><text fill="#000000" stroke="none" font-family="Arial" font-size="13px" font-style="normal" font-weight="bold" text-decoration="undefined" x="2313" y="2490.5" text-anchor="middle" dominant-baseline="central" transform="matrix(1 0 0 1 -1635 -2411)">Bot Message" ad una</text><text fill="#000000" stroke="none" font-family="Arial" font-size="13px" font-style="normal" font-weight="bold" text-decoration="undefined" x="2313" y="2503.5" text-anchor="middle" dominant-baseline="central" transform="matrix(1 0 0 1 -1635 -2411)">routine esistente</text></g></g><g><path fill="#C0C0C0" stroke="none" paint-order="stroke fill markers" d=" M 561 175 C 561 150.14718399999992 614.7258240000001 130 681 130 C 747.2741759999999 130 801 150.14718399999992 801 175 C 801 199.85281600000008 747.2741759999999 220 681 220 C 614.7258240000001 220 561 199.85281600000008 561 175 Z" fill-opacity="0.2"/></g><g><path fill="#ffffff" stroke="none" paint-order="stroke fill markers" d=" M 554 168 C 554 143.14718399999992 607.7258240000001 123 674 123 C 740.2741759999999 123 794 143.14718399999992 794 168 C 794 192.85281600000008 740.2741759999999 213 674 213 C 607.7258240000001 213 554 192.85281600000008 554 168 Z"/></g><g><path fill="none" stroke="#000000" paint-order="fill stroke markers" d=" M 554 168 C 554 143.14718399999992 607.7258240000001 123 674 123 C 740.2741759999999 123 794 143.14718399999992 794 168 C 794 192.85281600000008 740.2741759999999 213 674 213 C 607.7258240000001 213 554 192.85281600000008 554 168 Z" stroke-miterlimit="10" stroke-dasharray=""/></g><g><g><path fill="none" stroke="none"/><text fill="#000000" stroke="none" font-family="Arial" font-size="13px" font-style="normal" font-weight="bold" text-decoration="undefined" x="2309" y="2560.5" text-anchor="middle" dominant-baseline="central" transform="matrix(1 0 0 1 -1635 -2411)">UC[30] Aggiunta del</text><text fill="#000000" stroke="none" font-family="Arial" font-size="13px" font-style="normal" font-weight="bold" text-decoration="undefined" x="2309" y="2573.5" text-anchor="middle" dominant-baseline="central" transform="matrix(1 0 0 1 -1635 -2411)">blocco "Pastebin - Create</text><text fill="#000000" stroke="none" font-family="Arial" font-size="13px" font-style="normal" font-weight="bold" text-decoration="undefined" x="2309" y="2586.5" text-anchor="middle" dominant-baseline="central" transform="matrix(1 0 0 1 -1635 -2411)">Paste" ad una routine</text><text fill="#000000" stroke="none" font-family="Arial" font-size="13px" font-style="normal" font-weight="bold" text-decoration="undefined" x="2309" y="2599.5" text-anchor="middle" dominant-baseline="central" transform="matrix(1 0 0 1 -1635 -2411)">esistente</text></g></g><g><path fill="#ffffff" stroke="none" paint-order="stroke fill markers" d=" M 546 335 C 546 315.11774719999994 605.0984063999999 299 678 299 C 750.9015936000001 299 810 315.11774719999994 810 335 C 810 354.88225280000006 750.9015936000001 371 678 371 C 605.0984063999999 371 546 354.88225280000006 546 335 Z"/></g><g><path fill="none" stroke="#000000" paint-order="fill stroke markers" d=" M 546 335 C 546 315.11774719999994 605.0984063999999 299 678 299 C 750.9015936000001 299 810 315.11774719999994 810 335 C 810 354.88225280000006 750.9015936000001 371 678 371 C 605.0984063999999 371 546 354.88225280000006 546 335 Z" stroke-miterlimit="10" stroke-dasharray=""/></g><g><g><path fill="none" stroke="none"/><text fill="#000000" stroke="none" font-family="Arial" font-size="13px" font-style="normal" font-weight="bold" text-decoration="undefined" x="2313" y="2734" text-anchor="middle" dominant-baseline="central" transform="matrix(1 0 0 1 -1635 -2411)">UC[32] Aggiunta del blocco</text><text fill="#000000" stroke="none" font-family="Arial" font-size="13px" font-style="normal" font-weight="bold" text-decoration="undefined" x="2313" y="2747" text-anchor="middle" dominant-baseline="central" transform="matrix(1 0 0 1 -1635 -2411)">"System - Wait Seconds" ad</text><text fill="#000000" stroke="none" font-family="Arial" font-size="13px" font-style="normal" font-weight="bold" text-decoration="undefined" x="2313" y="2760" text-anchor="middle" dominant-baseline="central" transform="matrix(1 0 0 1 -1635 -2411)">una routine esistente</text></g></g><g><path fill="#C0C0C0" stroke="none" paint-order="stroke fill markers" d=" M 553 262 C 553 242.11774719999994 612.0984063999999 226 685 226 C 757.9015936000001 226 817 242.11774719999994 817 262 C 817 281.88225280000006 757.9015936000001 298 685 298 C 612.0984063999999 298 553 281.88225280000006 553 262 Z" fill-opacity="0.2"/></g><g><path fill="#ffffff" stroke="none" paint-order="stroke fill markers" d=" M 546 255 C 546 235.11774719999994 605.0984063999999 219 678 219 C 750.9015936000001 219 810 235.11774719999994 810 255 C 810 274.88225280000006 750.9015936000001 291 678 291 C 605.0984063999999 291 546 274.88225280000006 546 255 Z"/></g><g><path fill="none" stroke="#000000" paint-order="fill stroke markers" d=" M 546 255 C 546 235.11774719999994 605.0984063999999 219 678 219 C 750.9015936000001 219 810 235.11774719999994 810 255 C 810 274.88225280000006 750.9015936000001 291 678 291 C 605.0984063999999 291 546 274.88225280000006 546 255 Z" stroke-miterlimit="10" stroke-dasharray=""/></g><g><g><path fill="none" stroke="none"/><text fill="#000000" stroke="none" font-family="Arial" font-size="13px" font-style="normal" font-weight="bold" text-decoration="undefined" x="2313" y="2654" text-anchor="middle" dominant-baseline="central" transform="matrix(1 0 0 1 -1635 -2411)">UC[31] Aggiunta del blocco</text><text fill="#000000" stroke="none" font-family="Arial" font-size="13px" font-style="normal" font-weight="bold" text-decoration="undefined" x="2313" y="2667" text-anchor="middle" dominant-baseline="central" transform="matrix(1 0 0 1 -1635 -2411)">"AI - Summarize" ad una</text><text fill="#000000" stroke="none" font-family="Arial" font-size="13px" font-style="normal" font-weight="bold" text-decoration="undefined" x="2313" y="2680" text-anchor="middle" dominant-baseline="central" transform="matrix(1 0 0 1 -1635 -2411)">routine esistente</text></g></g><g><path fill="#C0C0C0" stroke="none" paint-order="stroke fill markers" d=" M 569 447 C 569 422.1471839999999 622.7258240000001 402 689 402 C 755.2741759999999 402 809 422.1471839999999 809 447 C 809 471.8528160000001 755.2741759999999 492 689 492 C 622.7258240000001 492 569 471.8528160000001 569 447 Z" fill-opacity="0.2"/></g><g><path fill="#ffffff" stroke="none" paint-order="stroke fill markers" d=" M 562 440 C 562 415.1471839999999 615.7258240000001 395 682 395 C 748.2741759999999 395 802 415.1471839999999 802 440 C 802 464.8528160000001 748.2741759999999 485 682 485 C 615.7258240000001 485 562 464.8528160000001 562 440 Z"/></g><g><path fill="none" stroke="#000000" paint-order="fill stroke markers" d=" M 562 440 C 562 415.1471839999999 615.7258240000001 395 682 395 C 748.2741759999999 395 802 415.1471839999999 802 440 C 802 464.8528160000001 748.2741759999999 485 682 485 C 615.7258240000001 485 562 464.8528160000001 562 440 Z" stroke-miterlimit="10" stroke-dasharray=""/></g><g><g><path fill="none" stroke="none"/><text fill="#000000" stroke="none" font-family="Arial" font-size="13px" font-style="normal" font-weight="bold" text-decoration="undefined" x="2317" y="2832.5" text-anchor="middle" dominant-baseline="central" transform="matrix(1 0 0 1 -1635 -2411)">UC[33] Aggiunta del</text><text fill="#000000" stroke="none" font-family="Arial" font-size="13px" font-style="normal" font-weight="bold" text-decoration="undefined" x="2317" y="2845.5" text-anchor="middle" dominant-baseline="central" transform="matrix(1 0 0 1 -1635 -2411)">blocco "Notion - Get</text><text fill="#000000" stroke="none" font-family="Arial" font-size="13px" font-style="normal" font-weight="bold" text-decoration="undefined" x="2317" y="2858.5" text-anchor="middle" dominant-baseline="central" transform="matrix(1 0 0 1 -1635 -2411)">Page" ad una routine</text><text fill="#000000" stroke="none" font-family="Arial" font-size="13px" font-style="normal" font-weight="bold" text-decoration="undefined" x="2317" y="2871.5" text-anchor="middle" dominant-baseline="central" transform="matrix(1 0 0 1 -1635 -2411)">esistente</text></g></g><g><path fill="none" stroke="#000000" paint-order="fill stroke markers" d=" M 562 67 L 506 67 L 506 259 L 458 259" stroke-miterlimit="10" stroke-dasharray=""/></g><g><path fill="#FFFFFF" stroke="none" paint-order="stroke fill markers" d=" M 478.3253497152482 250.58096448796823 L 458 259 L 478.3253497152482 267.41903551203177"/></g><g><path fill="none" stroke="#000000" paint-order="fill stroke markers" d=" M 478.3253497152482 250.58096448796823 L 458 259 L 478.3253497152482 267.41903551203177 L 478.3253497152482 250.58096448796823" stroke-miterlimit="10" stroke-dasharray=""/></g><g><path fill="none" stroke="#000000" paint-order="fill stroke markers" d=" M 546 339 L 506 339 L 506 259 L 458 259" stroke-miterlimit="10" stroke-dasharray=""/></g><g><path fill="#FFFFFF" stroke="none" paint-order="stroke fill markers" d=" M 478.3253497152482 250.58096448796823 L 458 259 L 478.3253497152482 267.41903551203177"/></g><g><path fill="none" stroke="#000000" paint-order="fill stroke markers" d=" M 478.3253497152482 250.58096448796823 L 458 259 L 478.3253497152482 267.41903551203177 L 478.3253497152482 250.58096448796823" stroke-miterlimit="10" stroke-dasharray=""/></g><g><path fill="none" stroke="#000000" paint-order="fill stroke markers" d=" M 554 171 L 506 171 L 506 259 L 458 259" stroke-miterlimit="10" stroke-dasharray=""/></g><g><path fill="#FFFFFF" stroke="none" paint-order="stroke fill markers" d=" M 478.3253497152482 250.58096448796823 L 458 259 L 478.3253497152482 267.41903551203177"/></g><g><path fill="none" stroke="#000000" paint-order="fill stroke markers" d=" M 478.3253497152482 250.58096448796823 L 458 259 L 478.3253497152482 267.41903551203177 L 478.3253497152482 250.58096448796823" stroke-miterlimit="10" stroke-dasharray=""/></g><g><path fill="none" stroke="#000000" paint-order="fill stroke markers" d=" M 562 440 L 506 440 L 506 259 L 458 259" stroke-miterlimit="10" stroke-dasharray=""/></g><g><path fill="#FFFFFF" stroke="none" paint-order="stroke fill markers" d=" M 478.3253497152482 250.58096448796823 L 458 259 L 478.3253497152482 267.41903551203177"/></g><g><path fill="none" stroke="#000000" paint-order="fill stroke markers" d=" M 478.3253497152482 250.58096448796823 L 458 259 L 478.3253497152482 267.41903551203177 L 478.3253497152482 250.58096448796823" stroke-miterlimit="10" stroke-dasharray=""/></g><g><path fill="none" stroke="#000000" paint-order="fill stroke markers" d=" M 546 259 L 458 259" stroke-miterlimit="10" stroke-dasharray=""/></g><g><path fill="#FFFFFF" stroke="none" paint-order="stroke fill markers" d=" M 478.3253497152482 250.58096448796823 L 458 259 L 478.3253497152482 267.41903551203177"/></g><g><path fill="none" stroke="#000000" paint-order="fill stroke markers" d=" M 478.3253497152482 250.58096448796823 L 458 259 L 478.3253497152482 267.41903551203177 L 478.3253497152482 250.58096448796823" stroke-miterlimit="10" stroke-dasharray=""/></g></g></svg>