<svg version="1.1" xmlns="http://www.w3.org/2000/svg" xmlns:xlink="http://www.w3.org/1999/xlink" width="1037" height="517"><defs/><g><g><rect fill="#C0C0C0" stroke="none" x="1925" y="2788" width="816" height="497" transform="matrix(1 0 0 1 -1708 -2771)" fill-opacity="0.2"/></g><g><rect fill="#ffffff" stroke="none" x="1918" y="2781" width="816" height="497" transform="matrix(1 0 0 1 -1708 -2771)"/></g><g><path fill="none" stroke="#000000" paint-order="fill stroke markers" d=" M 210 10 L 1026 10 L 1026 507 L 210 507 L 210 10 Z Z" stroke-miterlimit="10" stroke-dasharray=""/></g><g><g><path fill="none" stroke="none"/><text fill="#000000" stroke="none" font-family="Arial" font-size="13px" font-style="normal" font-weight="bold" text-decoration="undefined" x="2326.5" y="2794.5" text-anchor="middle" dominant-baseline="central" transform="matrix(1 0 0 1 -1708 -2771)">Sistema</text></g></g><g><path fill="#ffffff" stroke="none" paint-order="stroke fill markers" d=" M 88.14632812500008 147.8499999999999 C 88.14632812500008 142.9622795199998 92.10413049299996 139 96.986328125 139 C 101.86852575700004 139 105.82632812499992 142.9622795199998 105.82632812499992 147.8499999999999 C 105.82632812499992 152.73772048 101.86852575700004 156.69999999999982 96.986328125 156.69999999999982 C 92.10413049299996 156.69999999999982 88.14632812500008 152.73772048 88.14632812500008 147.8499999999999 Z"/></g><g><path fill="none" stroke="#000000" paint-order="fill stroke markers" d=" M 88.14632812500008 147.8499999999999 C 88.14632812500008 142.9622795199998 92.10413049299996 139 96.986328125 139 C 101.86852575700004 139 105.82632812499992 142.9622795199998 105.82632812499992 147.8499999999999 C 105.82632812499992 152.73772048 101.86852575700004 156.69999999999982 96.986328125 156.69999999999982 C 92.10413049299996 156.69999999999982 88.14632812500008 152.73772048 88.14632812500008 147.8499999999999 Z" stroke-miterlimit="10" stroke-dasharray=""/></g><g><path fill="none" stroke="#000000" paint-order="fill stroke markers" d=" M 96.986328125 156.69999999999982 L 96.986328125 174.30000000000018" stroke-miterlimit="10" stroke-dasharray=""/></g><g><path fill="none" stroke="#000000" paint-order="fill stroke markers" d=" M 87.6263281250001 163.30000000000018 L 106.3463281249999 163.30000000000018" stroke-miterlimit="10" stroke-dasharray=""/></g><g><path fill="none" stroke="#000000" paint-order="fill stroke markers" d=" M 96.986328125 174.30000000000018 L 83.986328125 192" stroke-miterlimit="10" stroke-dasharray=""/></g><g><path fill="none" stroke="#000000" paint-order="fill stroke markers" d=" M 96.986328125 174.30000000000018 L 109.986328125 192" stroke-miterlimit="10" stroke-dasharray=""/></g><g><g><path fill="none" stroke="none"/><text fill="#000000" stroke="none" font-family="Arial" font-size="13px" font-style="normal" font-weight="bold" text-decoration="undefined" x="1805.486328125" y="2977.5" text-anchor="middle" dominant-baseline="central" transform="matrix(1 0 0 1 -1708 -2771)">Utente autenticato</text></g></g><g><path fill="#C0C0C0" stroke="none" paint-order="stroke fill markers" d=" M 321 189 C 321 169.11774719999994 374.7258240000001 153 441 153 C 507.2741759999999 153 561 169.11774719999994 561 189 C 561 208.88225280000006 507.2741759999999 225 441 225 C 374.7258240000001 225 321 208.88225280000006 321 189 Z" fill-opacity="0.2"/></g><g><path fill="#ffffff" stroke="none" paint-order="stroke fill markers" d=" M 314 182 C 314 162.11774719999994 367.7258240000001 146 434 146 C 500.2741759999999 146 554 162.11774719999994 554 182 C 554 201.88225280000006 500.2741759999999 218 434 218 C 367.7258240000001 218 314 201.88225280000006 314 182 Z"/></g><g><path fill="none" stroke="#000000" paint-order="fill stroke markers" d=" M 314 182 C 314 162.11774719999994 367.7258240000001 146 434 146 C 500.2741759999999 146 554 162.11774719999994 554 182 C 554 201.88225280000006 500.2741759999999 218 434 218 C 367.7258240000001 218 314 201.88225280000006 314 182 Z" stroke-miterlimit="10" stroke-dasharray=""/></g><g><g><path fill="none" stroke="none"/><text fill="#000000" stroke="none" font-family="Arial" font-size="13px" font-style="normal" font-weight="bold" text-decoration="undefined" x="2142" y="2941" text-anchor="middle" dominant-baseline="central" transform="matrix(1 0 0 1 -1708 -2771)">UC[39] Modificare le</text><text fill="#000000" stroke="none" font-family="Arial" font-size="13px" font-style="normal" font-weight="bold" text-decoration="undefined" x="2142" y="2954" text-anchor="middle" dominant-baseline="central" transform="matrix(1 0 0 1 -1708 -2771)">impostazioni di un</text><text fill="#000000" stroke="none" font-family="Arial" font-size="13px" font-style="normal" font-weight="bold" text-decoration="undefined" x="2142" y="2967" text-anchor="middle" dominant-baseline="central" transform="matrix(1 0 0 1 -1708 -2771)">singolo blocco</text></g></g><g><path fill="none" stroke="#000000" paint-order="fill stroke markers" d=" M 184 178 L 314 178" stroke-miterlimit="10" stroke-dasharray=""/></g><g><path fill="#C0C0C0" stroke="none" paint-order="stroke fill markers" d=" M 489 445 C 489 425.11774719999994 521.2354943999999 409 561 409 C 600.7645056000001 409 633 425.11774719999994 633 445 C 633 464.88225280000006 600.7645056000001 481 561 481 C 521.2354943999999 481 489 464.88225280000006 489 445 Z" fill-opacity="0.2"/></g><g><path fill="#ffffff" stroke="none" paint-order="stroke fill markers" d=" M 482 438 C 482 418.11774719999994 514.2354943999999 402 554 402 C 593.7645056000001 402 626 418.11774719999994 626 438 C 626 457.88225280000006 593.7645056000001 474 554 474 C 514.2354943999999 474 482 457.88225280000006 482 438 Z"/></g><g><path fill="none" stroke="#000000" paint-order="fill stroke markers" d=" M 482 438 C 482 418.11774719999994 514.2354943999999 402 554 402 C 593.7645056000001 402 626 418.11774719999994 626 438 C 626 457.88225280000006 593.7645056000001 474 554 474 C 514.2354943999999 474 482 457.88225280000006 482 438 Z" stroke-miterlimit="10" stroke-dasharray=""/></g><g><g><path fill="none" stroke="none"/><text fill="#000000" stroke="none" font-family="Arial" font-size="13px" font-style="normal" font-weight="bold" text-decoration="undefined" x="2262" y="3203.5" text-anchor="middle" dominant-baseline="central" transform="matrix(1 0 0 1 -1708 -2771)">UC[5] Errore</text><text fill="#000000" stroke="none" font-family="Arial" font-size="13px" font-style="normal" font-weight="bold" text-decoration="undefined" x="2262" y="3216.5" text-anchor="middle" dominant-baseline="central" transform="matrix(1 0 0 1 -1708 -2771)">Generico</text></g></g><g><path fill="#C0C0C0" stroke="none" paint-order="stroke fill markers" d=" M 241 445 C 241 425.11774719999994 291.14410240000007 409 353 409 C 414.85589759999993 409 465 425.11774719999994 465 445 C 465 464.88225280000006 414.85589759999993 481 353 481 C 291.14410240000007 481 241 464.88225280000006 241 445 Z" fill-opacity="0.2"/></g><g><path fill="#ffffff" stroke="none" paint-order="stroke fill markers" d=" M 234 438 C 234 418.11774719999994 284.14410240000007 402 346 402 C 407.85589759999993 402 458 418.11774719999994 458 438 C 458 457.88225280000006 407.85589759999993 474 346 474 C 284.14410240000007 474 234 457.88225280000006 234 438 Z"/></g><g><path fill="none" stroke="#000000" paint-order="fill stroke markers" d=" M 234 438 C 234 418.11774719999994 284.14410240000007 402 346 402 C 407.85589759999993 402 458 418.11774719999994 458 438 C 458 457.88225280000006 407.85589759999993 474 346 474 C 284.14410240000007 474 234 457.88225280000006 234 438 Z" stroke-miterlimit="10" stroke-dasharray=""/></g><g><g><path fill="none" stroke="none"/><text fill="#000000" stroke="none" font-family="Arial" font-size="13px" font-style="normal" font-weight="bold" text-decoration="undefined" x="2054" y="3197" text-anchor="middle" dominant-baseline="central" transform="matrix(1 0 0 1 -1708 -2771)">UC[44] Visualizzazione</text><text fill="#000000" stroke="none" font-family="Arial" font-size="13px" font-style="normal" font-weight="bold" text-decoration="undefined" x="2054" y="3210" text-anchor="middle" dominant-baseline="central" transform="matrix(1 0 0 1 -1708 -2771)">errore «Impostazioni</text><text fill="#000000" stroke="none" font-family="Arial" font-size="13px" font-style="normal" font-weight="bold" text-decoration="undefined" x="2054" y="3223" text-anchor="middle" dominant-baseline="central" transform="matrix(1 0 0 1 -1708 -2771)">non valide»</text></g></g><g><path fill="none" stroke="#000000" paint-order="fill stroke markers" d=" M 330 402 L 330 362 L 434 362 L 434 218" stroke-miterlimit="10" stroke-dasharray="3"/></g><g><path fill="none" stroke="#000000" paint-order="fill stroke markers" d=" M 438.2095177560159 228.1626748576241 L 434 218 L 429.7904822439841 228.1626748576241" stroke-miterlimit="10" stroke-dasharray=""/></g><g><rect fill="#ffffff" stroke="none" x="1974" y="3149" width="53.49169921875" height="13" transform="matrix(1 0 0 1 -1708 -2771)"/></g><g><g><path fill="none" stroke="none"/><text fill="#000000" stroke="none" font-family="Arial" font-size="13px" font-style="normal" font-weight="normal" text-decoration="undefined" x="2000.745849609375" y="3155.5" text-anchor="middle" dominant-baseline="central" transform="matrix(1 0 0 1 -1708 -2771)">«extend»</text></g></g><g><path fill="none" stroke="#000000" paint-order="fill stroke markers" d=" M 546 402 L 546 362 L 434 362 L 434 218" stroke-miterlimit="10" stroke-dasharray="3"/></g><g><path fill="none" stroke="#000000" paint-order="fill stroke markers" d=" M 438.2095177560159 228.1626748576241 L 434 218 L 429.7904822439841 228.1626748576241" stroke-miterlimit="10" stroke-dasharray=""/></g><g><rect fill="#ffffff" stroke="none" x="2190" y="3147" width="53.49169921875" height="13" transform="matrix(1 0 0 1 -1708 -2771)"/></g><g><g><path fill="none" stroke="none"/><text fill="#000000" stroke="none" font-family="Arial" font-size="13px" font-style="normal" font-weight="normal" text-decoration="undefined" x="2216.745849609375" y="3153.5" text-anchor="middle" dominant-baseline="central" transform="matrix(1 0 0 1 -1708 -2771)">«extend»</text></g></g><g><path fill="#C0C0C0" stroke="none" paint-order="stroke fill markers" d=" M 673 85 C 673 65.11774719999994 750.0070144000001 49 845 49 C 939.9929855999999 49 1017 65.11774719999994 1017 85 C 1017 104.88225280000006 939.9929855999999 121 845 121 C 750.0070144000001 121 673 104.88225280000006 673 85 Z" fill-opacity="0.2"/></g><g><path fill="#ffffff" stroke="none" paint-order="stroke fill markers" d=" M 666 78 C 666 58.11774719999994 743.0070144000001 42 838 42 C 932.9929855999999 42 1010 58.11774719999994 1010 78 C 1010 97.88225280000006 932.9929855999999 114 838 114 C 743.0070144000001 114 666 97.88225280000006 666 78 Z"/></g><g><path fill="none" stroke="#000000" paint-order="fill stroke markers" d=" M 666 78 C 666 58.11774719999994 743.0070144000001 42 838 42 C 932.9929855999999 42 1010 58.11774719999994 1010 78 C 1010 97.88225280000006 932.9929855999999 114 838 114 C 743.0070144000001 114 666 97.88225280000006 666 78 Z" stroke-miterlimit="10" stroke-dasharray=""/></g><g><g><path fill="none" stroke="none"/><text fill="#000000" stroke="none" font-family="Arial" font-size="13px" font-style="normal" font-weight="bold" text-decoration="undefined" x="2546" y="2837" text-anchor="middle" dominant-baseline="central" transform="matrix(1 0 0 1 -1708 -2771)">UC[40] Modifica impostazioni del</text><text fill="#000000" stroke="none" font-family="Arial" font-size="13px" font-style="normal" font-weight="bold" text-decoration="undefined" x="2546" y="2850" text-anchor="middle" dominant-baseline="central" transform="matrix(1 0 0 1 -1708 -2771)">blocco "Telegram - Send Bot</text><text fill="#000000" stroke="none" font-family="Arial" font-size="13px" font-style="normal" font-weight="bold" text-decoration="undefined" x="2546" y="2863" text-anchor="middle" dominant-baseline="central" transform="matrix(1 0 0 1 -1708 -2771)">Message"</text></g></g><g><path fill="#C0C0C0" stroke="none" paint-order="stroke fill markers" d=" M 681 435.5 C 681 420.8644528 752.6344319999998 409 841 409 C 929.3655680000002 409 1001 420.8644528 1001 435.5 C 1001 450.1355472 929.3655680000002 462 841 462 C 752.6344319999998 462 681 450.1355472 681 435.5 Z" fill-opacity="0.2"/></g><g><path fill="#ffffff" stroke="none" paint-order="stroke fill markers" d=" M 674 428.5 C 674 413.8644528 745.6344319999998 402 834 402 C 922.3655680000002 402 994 413.8644528 994 428.5 C 994 443.1355472 922.3655680000002 455 834 455 C 745.6344319999998 455 674 443.1355472 674 428.5 Z"/></g><g><path fill="none" stroke="#000000" paint-order="fill stroke markers" d=" M 674 428.5 C 674 413.8644528 745.6344319999998 402 834 402 C 922.3655680000002 402 994 413.8644528 994 428.5 C 994 443.1355472 922.3655680000002 455 834 455 C 745.6344319999998 455 674 443.1355472 674 428.5 Z" stroke-miterlimit="10" stroke-dasharray=""/></g><g><g><path fill="none" stroke="none"/><text fill="#000000" stroke="none" font-family="Arial" font-size="13px" font-style="normal" font-weight="bold" text-decoration="undefined" x="2542" y="3194" text-anchor="middle" dominant-baseline="central" transform="matrix(1 0 0 1 -1708 -2771)">UC[43] Modifica impostazioni del</text><text fill="#000000" stroke="none" font-family="Arial" font-size="13px" font-style="normal" font-weight="bold" text-decoration="undefined" x="2542" y="3207" text-anchor="middle" dominant-baseline="central" transform="matrix(1 0 0 1 -1708 -2771)">blocco "Notion - Get Page"</text></g></g><g><path fill="#C0C0C0" stroke="none" paint-order="stroke fill markers" d=" M 665 187.5 C 665 172.86445279999998 743.7978751999999 161 841 161 C 938.2021248000001 161 1017 172.86445279999998 1017 187.5 C 1017 202.13554720000002 938.2021248000001 214 841 214 C 743.7978751999999 214 665 202.13554720000002 665 187.5 Z" fill-opacity="0.2"/></g><g><path fill="#ffffff" stroke="none" paint-order="stroke fill markers" d=" M 658 180.5 C 658 165.86445279999998 736.7978751999999 154 834 154 C 931.2021248000001 154 1010 165.86445279999998 1010 180.5 C 1010 195.13554720000002 931.2021248000001 207 834 207 C 736.7978751999999 207 658 195.13554720000002 658 180.5 Z"/></g><g><path fill="none" stroke="#000000" paint-order="fill stroke markers" d=" M 658 180.5 C 658 165.86445279999998 736.7978751999999 154 834 154 C 931.2021248000001 154 1010 165.86445279999998 1010 180.5 C 1010 195.13554720000002 931.2021248000001 207 834 207 C 736.7978751999999 207 658 195.13554720000002 658 180.5 Z" stroke-miterlimit="10" stroke-dasharray=""/></g><g><g><path fill="none" stroke="none"/><text fill="#000000" stroke="none" font-family="Arial" font-size="13px" font-style="normal" font-weight="bold" text-decoration="undefined" x="2542" y="2946" text-anchor="middle" dominant-baseline="central" transform="matrix(1 0 0 1 -1708 -2771)">UC[41] Modifica impostazioni del</text><text fill="#000000" stroke="none" font-family="Arial" font-size="13px" font-style="normal" font-weight="bold" text-decoration="undefined" x="2542" y="2959" text-anchor="middle" dominant-baseline="central" transform="matrix(1 0 0 1 -1708 -2771)">blocco "Pastebin - Create Paste"</text></g></g><g><path fill="#C0C0C0" stroke="none" paint-order="stroke fill markers" d=" M 673 307.5 C 673 292.8644528 748.2161535999999 281 841 281 C 933.7838464000001 281 1009 292.8644528 1009 307.5 C 1009 322.1355472 933.7838464000001 334 841 334 C 748.2161535999999 334 673 322.1355472 673 307.5 Z" fill-opacity="0.2"/></g><g><path fill="#ffffff" stroke="none" paint-order="stroke fill markers" d=" M 666 300.5 C 666 285.8644528 741.2161535999999 274 834 274 C 926.7838464000001 274 1002 285.8644528 1002 300.5 C 1002 315.1355472 926.7838464000001 327 834 327 C 741.2161535999999 327 666 315.1355472 666 300.5 Z"/></g><g><path fill="none" stroke="#000000" paint-order="fill stroke markers" d=" M 666 300.5 C 666 285.8644528 741.2161535999999 274 834 274 C 926.7838464000001 274 1002 285.8644528 1002 300.5 C 1002 315.1355472 926.7838464000001 327 834 327 C 741.2161535999999 327 666 315.1355472 666 300.5 Z" stroke-miterlimit="10" stroke-dasharray=""/></g><g><g><path fill="none" stroke="none"/><text fill="#000000" stroke="none" font-family="Arial" font-size="13px" font-style="normal" font-weight="bold" text-decoration="undefined" x="2542" y="3066" text-anchor="middle" dominant-baseline="central" transform="matrix(1 0 0 1 -1708 -2771)">UC[42] Modifica impostazioni del</text><text fill="#000000" stroke="none" font-family="Arial" font-size="13px" font-style="normal" font-weight="bold" text-decoration="undefined" x="2542" y="3079" text-anchor="middle" dominant-baseline="central" transform="matrix(1 0 0 1 -1708 -2771)">blocco "System - Wait Seconds"</text></g></g><g><path fill="none" stroke="#000000" paint-order="fill stroke markers" d=" M 674 428 L 634 428 L 634 186 L 554 186" stroke-miterlimit="10" stroke-dasharray=""/></g><g><path fill="#FFFFFF" stroke="none" paint-order="stroke fill markers" d=" M 574.3253497152482 177.58096448796823 L 554 186 L 574.3253497152482 194.41903551203177"/></g><g><path fill="none" stroke="#000000" paint-order="fill stroke markers" d=" M 574.3253497152482 177.58096448796823 L 554 186 L 574.3253497152482 194.41903551203177 L 574.3253497152482 177.58096448796823" stroke-miterlimit="10" stroke-dasharray=""/></g><g><path fill="none" stroke="#000000" paint-order="fill stroke markers" d=" M 666 300 L 634 300 L 634 186 L 554 186" stroke-miterlimit="10" stroke-dasharray=""/></g><g><path fill="#FFFFFF" stroke="none" paint-order="stroke fill markers" d=" M 574.3253497152482 177.58096448796823 L 554 186 L 574.3253497152482 194.41903551203177"/></g><g><path fill="none" stroke="#000000" paint-order="fill stroke markers" d=" M 574.3253497152482 177.58096448796823 L 554 186 L 574.3253497152482 194.41903551203177 L 574.3253497152482 177.58096448796823" stroke-miterlimit="10" stroke-dasharray=""/></g><g><path fill="none" stroke="#000000" paint-order="fill stroke markers" d=" M 658 186 L 554 186" stroke-miterlimit="10" stroke-dasharray=""/></g><g><path fill="#FFFFFF" stroke="none" paint-order="stroke fill markers" d=" M 574.3253497152482 177.58096448796823 L 554 186 L 574.3253497152482 194.41903551203177"/></g><g><path fill="none" stroke="#000000" paint-order="fill stroke markers" d=" M 574.3253497152482 177.58096448796823 L 554 186 L 574.3253497152482 194.41903551203177 L 574.3253497152482 177.58096448796823" stroke-miterlimit="10" stroke-dasharray=""/></g><g><path fill="none" stroke="#000000" paint-order="fill stroke markers" d=" M 666 82 L 634 82 L 634 186 L 554 186" stroke-miterlimit="10" stroke-dasharray=""/></g><g><path fill="#FFFFFF" stroke="none" paint-order="stroke fill markers" d=" M 574.3253497152482 177.58096448796823 L 554 186 L 574.3253497152482 194.41903551203177"/></g><g><path fill="none" stroke="#000000" paint-order="fill stroke markers" d=" M 574.3253497152482 177.58096448796823 L 554 186 L 574.3253497152482 194.41903551203177 L 574.3253497152482 177.58096448796823" stroke-miterlimit="10" stroke-dasharray=""/></g></g></svg>