<svg version="1.1" xmlns="http://www.w3.org/2000/svg" xmlns:xlink="http://www.w3.org/1999/xlink" width="733" height="278"><defs/><g><g><rect fill="#C0C0C0" stroke="none" x="1794" y="2615" width="496" height="258" transform="matrix(1 0 0 1 -1561 -2598)" fill-opacity="0.2"/></g><g><rect fill="#ffffff" stroke="none" x="1787" y="2608" width="496" height="258" transform="matrix(1 0 0 1 -1561 -2598)"/></g><g><path fill="none" stroke="#000000" paint-order="fill stroke markers" d=" M 226 10 L 722 10 L 722 268 L 226 268 L 226 10 Z Z" stroke-miterlimit="10" stroke-dasharray=""/></g><g><g><path fill="none" stroke="none"/><text fill="#000000" stroke="none" font-family="Arial" font-size="13px" font-style="normal" font-weight="bold" text-decoration="undefined" x="2035.5" y="2621.5" text-anchor="middle" dominant-baseline="central" transform="matrix(1 0 0 1 -1561 -2598)">Sistema</text></g></g><g><path fill="#C0C0C0" stroke="none" paint-order="stroke fill markers" d=" M 241 203.5 C 241 188.86445279999998 300.09840639999993 177 373 177 C 445.90159360000007 177 505 188.86445279999998 505 203.5 C 505 218.13554720000002 445.90159360000007 230 373 230 C 300.09840639999993 230 241 218.13554720000002 241 203.5 Z" fill-opacity="0.2"/></g><g><path fill="#ffffff" stroke="none" paint-order="stroke fill markers" d=" M 234 196.5 C 234 181.86445279999998 293.09840639999993 170 366 170 C 438.90159360000007 170 498 181.86445279999998 498 196.5 C 498 211.13554720000002 438.90159360000007 223 366 223 C 293.09840639999993 223 234 211.13554720000002 234 196.5 Z"/></g><g><path fill="none" stroke="#000000" paint-order="fill stroke markers" d=" M 234 196.5 C 234 181.86445279999998 293.09840639999993 170 366 170 C 438.90159360000007 170 498 181.86445279999998 498 196.5 C 498 211.13554720000002 438.90159360000007 223 366 223 C 293.09840639999993 223 234 211.13554720000002 234 196.5 Z" stroke-miterlimit="10" stroke-dasharray=""/></g><g><g><path fill="none" stroke="none"/><text fill="#000000" stroke="none" font-family="Arial" font-size="13px" font-style="normal" font-weight="bold" text-decoration="undefined" x="1927" y="2789" text-anchor="middle" dominant-baseline="central" transform="matrix(1 0 0 1 -1561 -2598)">UC[46] Visualizzazione</text><text fill="#000000" stroke="none" font-family="Arial" font-size="13px" font-style="normal" font-weight="bold" text-decoration="undefined" x="1927" y="2802" text-anchor="middle" dominant-baseline="central" transform="matrix(1 0 0 1 -1561 -2598)">errore «Flusso incompleto»</text></g></g><g><path fill="none" stroke="#000000" paint-order="fill stroke markers" d=" M 366 170 L 366 122 L 490 122 L 490 93" stroke-miterlimit="10" stroke-dasharray="3"/></g><g><path fill="none" stroke="#000000" paint-order="fill stroke markers" d=" M 494.2095177560159 103.1626748576241 L 490 93 L 485.7904822439841 103.1626748576241" stroke-miterlimit="10" stroke-dasharray=""/></g><g><rect fill="#ffffff" stroke="none" x="1867" y="2752" width="53.49169921875" height="13" transform="matrix(1 0 0 1 -1561 -2598)"/></g><g><g><path fill="none" stroke="none"/><text fill="#000000" stroke="none" font-family="Arial" font-size="13px" font-style="normal" font-weight="normal" text-decoration="undefined" x="1893.745849609375" y="2758.5" text-anchor="middle" dominant-baseline="central" transform="matrix(1 0 0 1 -1561 -2598)">«extend»</text></g></g><g><path fill="#C0C0C0" stroke="none" paint-order="stroke fill markers" d=" M 369 82.5 C 369 72.835016 424.7405424000001 65 493.5 65 C 562.2594576000001 65 618 72.835016 618 82.5 C 618 92.164984 562.2594576000001 100 493.5 100 C 424.7405424000001 100 369 92.164984 369 82.5 Z" fill-opacity="0.2"/></g><g><path fill="#ffffff" stroke="none" paint-order="stroke fill markers" d=" M 362 75.5 C 362 65.835016 417.7405424000001 58 486.5 58 C 555.2594576000001 58 611 65.835016 611 75.5 C 611 85.164984 555.2594576000001 93 486.5 93 C 417.7405424000001 93 362 85.164984 362 75.5 Z"/></g><g><path fill="none" stroke="#000000" paint-order="fill stroke markers" d=" M 362 75.5 C 362 65.835016 417.7405424000001 58 486.5 58 C 555.2594576000001 58 611 65.835016 611 75.5 C 611 85.164984 555.2594576000001 93 486.5 93 C 417.7405424000001 93 362 85.164984 362 75.5 Z" stroke-miterlimit="10" stroke-dasharray=""/></g><g><g><path fill="none" stroke="none"/><text fill="#000000" stroke="none" font-family="Arial" font-size="13px" font-style="normal" font-weight="bold" text-decoration="undefined" x="2047.5" y="2674.5" text-anchor="middle" dominant-baseline="central" transform="matrix(1 0 0 1 -1561 -2598)">UC[45] Salvare una routine</text></g></g><g><path fill="#ffffff" stroke="none" paint-order="stroke fill markers" d=" M 88.14632812500008 51.84999999999991 C 88.14632812500008 46.96227951999981 92.10413049299996 43 96.986328125 43 C 101.86852575700004 43 105.82632812499992 46.96227951999981 105.82632812499992 51.84999999999991 C 105.82632812499992 56.73772048000001 101.86852575700004 60.69999999999982 96.986328125 60.69999999999982 C 92.10413049299996 60.69999999999982 88.14632812500008 56.73772048000001 88.14632812500008 51.84999999999991 Z"/></g><g><path fill="none" stroke="#000000" paint-order="fill stroke markers" d=" M 88.14632812500008 51.84999999999991 C 88.14632812500008 46.96227951999981 92.10413049299996 43 96.986328125 43 C 101.86852575700004 43 105.82632812499992 46.96227951999981 105.82632812499992 51.84999999999991 C 105.82632812499992 56.73772048000001 101.86852575700004 60.69999999999982 96.986328125 60.69999999999982 C 92.10413049299996 60.69999999999982 88.14632812500008 56.73772048000001 88.14632812500008 51.84999999999991 Z" stroke-miterlimit="10" stroke-dasharray=""/></g><g><path fill="none" stroke="#000000" paint-order="fill stroke markers" d=" M 96.986328125 60.69999999999982 L 96.986328125 78.30000000000018" stroke-miterlimit="10" stroke-dasharray=""/></g><g><path fill="none" stroke="#000000" paint-order="fill stroke markers" d=" M 87.6263281250001 67.30000000000018 L 106.3463281249999 67.30000000000018" stroke-miterlimit="10" stroke-dasharray=""/></g><g><path fill="none" stroke="#000000" paint-order="fill stroke markers" d=" M 96.986328125 78.30000000000018 L 83.986328125 96" stroke-miterlimit="10" stroke-dasharray=""/></g><g><path fill="none" stroke="#000000" paint-order="fill stroke markers" d=" M 96.986328125 78.30000000000018 L 109.986328125 96" stroke-miterlimit="10" stroke-dasharray=""/></g><g><g><path fill="none" stroke="none"/><text fill="#000000" stroke="none" font-family="Arial" font-size="13px" font-style="normal" font-weight="bold" text-decoration="undefined" x="1658.486328125" y="2708.5" text-anchor="middle" dominant-baseline="central" transform="matrix(1 0 0 1 -1561 -2598)">Utente autenticato</text></g></g><g><path fill="#C0C0C0" stroke="none" paint-order="stroke fill markers" d=" M 545 205 C 545 185.11774719999994 577.2354943999999 169 617 169 C 656.7645056000001 169 689 185.11774719999994 689 205 C 689 224.88225280000006 656.7645056000001 241 617 241 C 577.2354943999999 241 545 224.88225280000006 545 205 Z" fill-opacity="0.2"/></g><g><path fill="#ffffff" stroke="none" paint-order="stroke fill markers" d=" M 538 198 C 538 178.11774719999994 570.2354943999999 162 610 162 C 649.7645056000001 162 682 178.11774719999994 682 198 C 682 217.88225280000006 649.7645056000001 234 610 234 C 570.2354943999999 234 538 217.88225280000006 538 198 Z"/></g><g><path fill="none" stroke="#000000" paint-order="fill stroke markers" d=" M 538 198 C 538 178.11774719999994 570.2354943999999 162 610 162 C 649.7645056000001 162 682 178.11774719999994 682 198 C 682 217.88225280000006 649.7645056000001 234 610 234 C 570.2354943999999 234 538 217.88225280000006 538 198 Z" stroke-miterlimit="10" stroke-dasharray=""/></g><g><g><path fill="none" stroke="none"/><text fill="#000000" stroke="none" font-family="Arial" font-size="13px" font-style="normal" font-weight="bold" text-decoration="undefined" x="2171" y="2790.5" text-anchor="middle" dominant-baseline="central" transform="matrix(1 0 0 1 -1561 -2598)">UC[5] Errore</text><text fill="#000000" stroke="none" font-family="Arial" font-size="13px" font-style="normal" font-weight="bold" text-decoration="undefined" x="2171" y="2803.5" text-anchor="middle" dominant-baseline="central" transform="matrix(1 0 0 1 -1561 -2598)">Generico</text></g></g><g><path fill="none" stroke="#000000" paint-order="fill stroke markers" d=" M 610 162 L 610 122 L 490 122 L 490 93" stroke-miterlimit="10" stroke-dasharray="3"/></g><g><path fill="none" stroke="#000000" paint-order="fill stroke markers" d=" M 494.2095177560159 103.1626748576241 L 490 93 L 485.7904822439841 103.1626748576241" stroke-miterlimit="10" stroke-dasharray=""/></g><g><rect fill="#ffffff" stroke="none" x="2084" y="2744" width="53.49169921875" height="13" transform="matrix(1 0 0 1 -1561 -2598)"/></g><g><g><path fill="none" stroke="none"/><text fill="#000000" stroke="none" font-family="Arial" font-size="13px" font-style="normal" font-weight="normal" text-decoration="undefined" x="2110.745849609375" y="2750.5" text-anchor="middle" dominant-baseline="central" transform="matrix(1 0 0 1 -1561 -2598)">«extend»</text></g></g><g><path fill="none" stroke="#000000" paint-order="fill stroke markers" d=" M 184 74 L 362 74" stroke-miterlimit="10" stroke-dasharray=""/></g></g></svg>