<svg version="1.1" xmlns="http://www.w3.org/2000/svg" xmlns:xlink="http://www.w3.org/1999/xlink" width="720" height="278"><defs/><g><g><rect fill="#C0C0C0" stroke="none" x="1840" y="2664" width="494" height="258" transform="matrix(1 0 0 1 -1618 -2647)" fill-opacity="0.2"/></g><g><rect fill="#ffffff" stroke="none" x="1833" y="2657" width="494" height="258" transform="matrix(1 0 0 1 -1618 -2647)"/></g><g><path fill="none" stroke="#000000" paint-order="fill stroke markers" d=" M 215 10 L 709 10 L 709 268 L 215 268 L 215 10 Z Z" stroke-miterlimit="10" stroke-dasharray=""/></g><g><g><path fill="none" stroke="none"/><text fill="#000000" stroke="none" font-family="Arial" font-size="13px" font-style="normal" font-weight="bold" text-decoration="undefined" x="2080.5" y="2670.5" text-anchor="middle" dominant-baseline="central" transform="matrix(1 0 0 1 -1618 -2647)">Sistema</text></g></g><g><path fill="#ffffff" stroke="none" paint-order="stroke fill markers" d=" M 88.14632812500008 91.84999999999991 C 88.14632812500008 86.96227951999981 92.10413049299996 83 96.986328125 83 C 101.86852575700004 83 105.82632812499992 86.96227951999981 105.82632812499992 91.84999999999991 C 105.82632812499992 96.73772048000001 101.86852575700004 100.69999999999982 96.986328125 100.69999999999982 C 92.10413049299996 100.69999999999982 88.14632812500008 96.73772048000001 88.14632812500008 91.84999999999991 Z"/></g><g><path fill="none" stroke="#000000" paint-order="fill stroke markers" d=" M 88.14632812500008 91.84999999999991 C 88.14632812500008 86.96227951999981 92.10413049299996 83 96.986328125 83 C 101.86852575700004 83 105.82632812499992 86.96227951999981 105.82632812499992 91.84999999999991 C 105.82632812499992 96.73772048000001 101.86852575700004 100.69999999999982 96.986328125 100.69999999999982 C 92.10413049299996 100.69999999999982 88.14632812500008 96.73772048000001 88.14632812500008 91.84999999999991 Z" stroke-miterlimit="10" stroke-dasharray=""/></g><g><path fill="none" stroke="#000000" paint-order="fill stroke markers" d=" M 96.986328125 100.69999999999982 L 96.986328125 118.30000000000018" stroke-miterlimit="10" stroke-dasharray=""/></g><g><path fill="none" stroke="#000000" paint-order="fill stroke markers" d=" M 87.6263281250001 107.30000000000018 L 106.3463281249999 107.30000000000018" stroke-miterlimit="10" stroke-dasharray=""/></g><g><path fill="none" stroke="#000000" paint-order="fill stroke markers" d=" M 96.986328125 118.30000000000018 L 83.986328125 136" stroke-miterlimit="10" stroke-dasharray=""/></g><g><path fill="none" stroke="#000000" paint-order="fill stroke markers" d=" M 96.986328125 118.30000000000018 L 109.986328125 136" stroke-miterlimit="10" stroke-dasharray=""/></g><g><g><path fill="none" stroke="none"/><text fill="#000000" stroke="none" font-family="Arial" font-size="13px" font-style="normal" font-weight="bold" text-decoration="undefined" x="1715.486328125" y="2797.5" text-anchor="middle" dominant-baseline="central" transform="matrix(1 0 0 1 -1618 -2647)">Utente autenticato</text></g></g><g><path fill="#C0C0C0" stroke="none" paint-order="stroke fill markers" d=" M 260 125 C 260 105.11774719999994 304.77152 89 360 89 C 415.22848 89 460 105.11774719999994 460 125 C 460 144.88225280000006 415.22848 161 360 161 C 304.77152 161 260 144.88225280000006 260 125 Z" fill-opacity="0.2"/></g><g><path fill="#ffffff" stroke="none" paint-order="stroke fill markers" d=" M 253 118 C 253 98.11774719999994 297.77152 82 353 82 C 408.22848 82 453 98.11774719999994 453 118 C 453 137.88225280000006 408.22848 154 353 154 C 297.77152 154 253 137.88225280000006 253 118 Z"/></g><g><path fill="none" stroke="#000000" paint-order="fill stroke markers" d=" M 253 118 C 253 98.11774719999994 297.77152 82 353 82 C 408.22848 82 453 98.11774719999994 453 118 C 453 137.88225280000006 408.22848 154 353 154 C 297.77152 154 253 137.88225280000006 253 118 Z" stroke-miterlimit="10" stroke-dasharray=""/></g><g><g><path fill="none" stroke="none"/><text fill="#000000" stroke="none" font-family="Arial" font-size="13px" font-style="normal" font-weight="bold" text-decoration="undefined" x="1971" y="2753" text-anchor="middle" dominant-baseline="central" transform="matrix(1 0 0 1 -1618 -2647)">UC[47] Eliminare un</text><text fill="#000000" stroke="none" font-family="Arial" font-size="13px" font-style="normal" font-weight="bold" text-decoration="undefined" x="1971" y="2766" text-anchor="middle" dominant-baseline="central" transform="matrix(1 0 0 1 -1618 -2647)">blocco da una</text><text fill="#000000" stroke="none" font-family="Arial" font-size="13px" font-style="normal" font-weight="bold" text-decoration="undefined" x="1971" y="2779" text-anchor="middle" dominant-baseline="central" transform="matrix(1 0 0 1 -1618 -2647)">routine esistente</text></g></g><g><path fill="#C0C0C0" stroke="none" paint-order="stroke fill markers" d=" M 484 69 C 484 49.11774719999994 532.3532415999998 33 592 33 C 651.6467584000002 33 700 49.11774719999994 700 69 C 700 88.88225280000006 651.6467584000002 105 592 105 C 532.3532415999998 105 484 88.88225280000006 484 69 Z" fill-opacity="0.2"/></g><g><path fill="#ffffff" stroke="none" paint-order="stroke fill markers" d=" M 477 62 C 477 42.11774719999994 525.3532415999998 26 585 26 C 644.6467584000002 26 693 42.11774719999994 693 62 C 693 81.88225280000006 644.6467584000002 98 585 98 C 525.3532415999998 98 477 81.88225280000006 477 62 Z"/></g><g><path fill="none" stroke="#000000" paint-order="fill stroke markers" d=" M 477 62 C 477 42.11774719999994 525.3532415999998 26 585 26 C 644.6467584000002 26 693 42.11774719999994 693 62 C 693 81.88225280000006 644.6467584000002 98 585 98 C 525.3532415999998 98 477 81.88225280000006 477 62 Z" stroke-miterlimit="10" stroke-dasharray=""/></g><g><g><path fill="none" stroke="none"/><text fill="#000000" stroke="none" font-family="Arial" font-size="13px" font-style="normal" font-weight="bold" text-decoration="undefined" x="2203" y="2697" text-anchor="middle" dominant-baseline="central" transform="matrix(1 0 0 1 -1618 -2647)">UC[48] Eliminare un</text><text fill="#000000" stroke="none" font-family="Arial" font-size="13px" font-style="normal" font-weight="bold" text-decoration="undefined" x="2203" y="2710" text-anchor="middle" dominant-baseline="central" transform="matrix(1 0 0 1 -1618 -2647)">blocco da una routine</text><text fill="#000000" stroke="none" font-family="Arial" font-size="13px" font-style="normal" font-weight="bold" text-decoration="undefined" x="2203" y="2723" text-anchor="middle" dominant-baseline="central" transform="matrix(1 0 0 1 -1618 -2647)">esistente da tastiera</text></g></g><g><path fill="#C0C0C0" stroke="none" paint-order="stroke fill markers" d=" M 476 190 C 476 165.14718399999992 524.3532415999998 145 584 145 C 643.6467584000002 145 692 165.14718399999992 692 190 C 692 214.85281600000008 643.6467584000002 235 584 235 C 524.3532415999998 235 476 214.85281600000008 476 190 Z" fill-opacity="0.2"/></g><g><path fill="#ffffff" stroke="none" paint-order="stroke fill markers" d=" M 469 183 C 469 158.14718399999992 517.3532415999998 138 577 138 C 636.6467584000002 138 685 158.14718399999992 685 183 C 685 207.85281600000008 636.6467584000002 228 577 228 C 517.3532415999998 228 469 207.85281600000008 469 183 Z"/></g><g><path fill="none" stroke="#000000" paint-order="fill stroke markers" d=" M 469 183 C 469 158.14718399999992 517.3532415999998 138 577 138 C 636.6467584000002 138 685 158.14718399999992 685 183 C 685 207.85281600000008 636.6467584000002 228 577 228 C 517.3532415999998 228 469 207.85281600000008 469 183 Z" stroke-miterlimit="10" stroke-dasharray=""/></g><g><g><path fill="none" stroke="none"/><text fill="#000000" stroke="none" font-family="Arial" font-size="13px" font-style="normal" font-weight="bold" text-decoration="undefined" x="2195" y="2811.5" text-anchor="middle" dominant-baseline="central" transform="matrix(1 0 0 1 -1618 -2647)">UC[49] Eliminare un</text><text fill="#000000" stroke="none" font-family="Arial" font-size="13px" font-style="normal" font-weight="bold" text-decoration="undefined" x="2195" y="2824.5" text-anchor="middle" dominant-baseline="central" transform="matrix(1 0 0 1 -1618 -2647)">blocco da una routine</text><text fill="#000000" stroke="none" font-family="Arial" font-size="13px" font-style="normal" font-weight="bold" text-decoration="undefined" x="2195" y="2837.5" text-anchor="middle" dominant-baseline="central" transform="matrix(1 0 0 1 -1618 -2647)">esistente da</text><text fill="#000000" stroke="none" font-family="Arial" font-size="13px" font-style="normal" font-weight="bold" text-decoration="undefined" x="2195" y="2850.5" text-anchor="middle" dominant-baseline="central" transform="matrix(1 0 0 1 -1618 -2647)">interfaccia grafica</text></g></g><g><path fill="none" stroke="#000000" paint-order="fill stroke markers" d=" M 184 116 L 253 116" stroke-miterlimit="10" stroke-dasharray=""/></g><g><path fill="none" stroke="#000000" paint-order="fill stroke markers" d=" M 581 138 L 581 114 L 453 114" stroke-miterlimit="10" stroke-dasharray=""/></g><g><path fill="#FFFFFF" stroke="none" paint-order="stroke fill markers" d=" M 473.3253497152482 105.58096448796823 L 453 114 L 473.3253497152482 122.41903551203177"/></g><g><path fill="none" stroke="#000000" paint-order="fill stroke markers" d=" M 473.3253497152482 105.58096448796823 L 453 114 L 473.3253497152482 122.41903551203177 L 473.3253497152482 105.58096448796823" stroke-miterlimit="10" stroke-dasharray=""/></g><g><path fill="none" stroke="#000000" paint-order="fill stroke markers" d=" M 581 98 L 581 114 L 453 114" stroke-miterlimit="10" stroke-dasharray=""/></g><g><path fill="#FFFFFF" stroke="none" paint-order="stroke fill markers" d=" M 473.3253497152482 105.58096448796823 L 453 114 L 473.3253497152482 122.41903551203177"/></g><g><path fill="none" stroke="#000000" paint-order="fill stroke markers" d=" M 473.3253497152482 105.58096448796823 L 453 114 L 473.3253497152482 122.41903551203177 L 473.3253497152482 105.58096448796823" stroke-miterlimit="10" stroke-dasharray=""/></g><g><path fill="#C0C0C0" stroke="none" paint-order="stroke fill markers" d=" M 284 229 C 284 209.11774719999994 316.2354944000001 193 356 193 C 395.7645055999999 193 428 209.11774719999994 428 229 C 428 248.88225280000006 395.7645055999999 265 356 265 C 316.2354944000001 265 284 248.88225280000006 284 229 Z" fill-opacity="0.2"/></g><g><path fill="#ffffff" stroke="none" paint-order="stroke fill markers" d=" M 277 222 C 277 202.11774719999994 309.2354944000001 186 349 186 C 388.7645055999999 186 421 202.11774719999994 421 222 C 421 241.88225280000006 388.7645055999999 258 349 258 C 309.2354944000001 258 277 241.88225280000006 277 222 Z"/></g><g><path fill="none" stroke="#000000" paint-order="fill stroke markers" d=" M 277 222 C 277 202.11774719999994 309.2354944000001 186 349 186 C 388.7645055999999 186 421 202.11774719999994 421 222 C 421 241.88225280000006 388.7645055999999 258 349 258 C 309.2354944000001 258 277 241.88225280000006 277 222 Z" stroke-miterlimit="10" stroke-dasharray=""/></g><g><g><path fill="none" stroke="none"/><text fill="#000000" stroke="none" font-family="Arial" font-size="13px" font-style="normal" font-weight="bold" text-decoration="undefined" x="1967" y="2863.5" text-anchor="middle" dominant-baseline="central" transform="matrix(1 0 0 1 -1618 -2647)">UC[5] Errore</text><text fill="#000000" stroke="none" font-family="Arial" font-size="13px" font-style="normal" font-weight="bold" text-decoration="undefined" x="1967" y="2876.5" text-anchor="middle" dominant-baseline="central" transform="matrix(1 0 0 1 -1618 -2647)">Generico</text></g></g><g><path fill="none" stroke="#000000" paint-order="fill stroke markers" d=" M 352 186 L 352 154" stroke-miterlimit="10" stroke-dasharray="3"/></g><g><path fill="none" stroke="#000000" paint-order="fill stroke markers" d=" M 356.2095177560159 164.1626748576241 L 352 154 L 347.7904822439841 164.1626748576241" stroke-miterlimit="10" stroke-dasharray=""/></g><g><rect fill="#ffffff" stroke="none" x="1895" y="2817" width="53.49169921875" height="13" transform="matrix(1 0 0 1 -1618 -2647)"/></g><g><g><path fill="none" stroke="none"/><text fill="#000000" stroke="none" font-family="Arial" font-size="13px" font-style="normal" font-weight="normal" text-decoration="undefined" x="1921.745849609375" y="2823.5" text-anchor="middle" dominant-baseline="central" transform="matrix(1 0 0 1 -1618 -2647)">«extend»</text></g></g></g></svg>