<svg version="1.1" xmlns="http://www.w3.org/2000/svg" xmlns:xlink="http://www.w3.org/1999/xlink" width="653" height="278"><defs/><g><g><rect fill="#C0C0C0" stroke="none" x="1865" y="2664" width="435" height="258" transform="matrix(1 0 0 1 -1651 -2647)" fill-opacity="0.2"/></g><g><rect fill="#ffffff" stroke="none" x="1858" y="2657" width="435" height="258" transform="matrix(1 0 0 1 -1651 -2647)"/></g><g><path fill="none" stroke="#000000" paint-order="fill stroke markers" d=" M 207 10 L 642 10 L 642 268 L 207 268 L 207 10 Z Z" stroke-miterlimit="10" stroke-dasharray=""/></g><g><g><path fill="none" stroke="none"/><text fill="#000000" stroke="none" font-family="Arial" font-size="13px" font-style="normal" font-weight="bold" text-decoration="undefined" x="2076" y="2670.5" text-anchor="middle" dominant-baseline="central" transform="matrix(1 0 0 1 -1651 -2647)">Sistema</text></g></g><g><path fill="#ffffff" stroke="none" paint-order="stroke fill markers" d=" M 88.14632812500008 67.84999999999991 C 88.14632812500008 62.96227951999981 92.10413049299996 59 96.986328125 59 C 101.86852575700004 59 105.82632812499992 62.96227951999981 105.82632812499992 67.84999999999991 C 105.82632812499992 72.73772048000001 101.86852575700004 76.69999999999982 96.986328125 76.69999999999982 C 92.10413049299996 76.69999999999982 88.14632812500008 72.73772048000001 88.14632812500008 67.84999999999991 Z"/></g><g><path fill="none" stroke="#000000" paint-order="fill stroke markers" d=" M 88.14632812500008 67.84999999999991 C 88.14632812500008 62.96227951999981 92.10413049299996 59 96.986328125 59 C 101.86852575700004 59 105.82632812499992 62.96227951999981 105.82632812499992 67.84999999999991 C 105.82632812499992 72.73772048000001 101.86852575700004 76.69999999999982 96.986328125 76.69999999999982 C 92.10413049299996 76.69999999999982 88.14632812500008 72.73772048000001 88.14632812500008 67.84999999999991 Z" stroke-miterlimit="10" stroke-dasharray=""/></g><g><path fill="none" stroke="#000000" paint-order="fill stroke markers" d=" M 96.986328125 76.69999999999982 L 96.986328125 94.30000000000018" stroke-miterlimit="10" stroke-dasharray=""/></g><g><path fill="none" stroke="#000000" paint-order="fill stroke markers" d=" M 87.6263281250001 83.30000000000018 L 106.3463281249999 83.30000000000018" stroke-miterlimit="10" stroke-dasharray=""/></g><g><path fill="none" stroke="#000000" paint-order="fill stroke markers" d=" M 96.986328125 94.30000000000018 L 83.986328125 112" stroke-miterlimit="10" stroke-dasharray=""/></g><g><path fill="none" stroke="#000000" paint-order="fill stroke markers" d=" M 96.986328125 94.30000000000018 L 109.986328125 112" stroke-miterlimit="10" stroke-dasharray=""/></g><g><g><path fill="none" stroke="none"/><text fill="#000000" stroke="none" font-family="Arial" font-size="13px" font-style="normal" font-weight="bold" text-decoration="undefined" x="1748.486328125" y="2773.5" text-anchor="middle" dominant-baseline="central" transform="matrix(1 0 0 1 -1651 -2647)">Utente autenticato</text></g></g><g><path fill="#C0C0C0" stroke="none" paint-order="stroke fill markers" d=" M 254 111 C 254 91.11774719999994 296.9806592 75 350 75 C 403.0193408 75 446 91.11774719999994 446 111 C 446 130.88225280000006 403.0193408 147 350 147 C 296.9806592 147 254 130.88225280000006 254 111 Z" fill-opacity="0.2"/></g><g><path fill="#ffffff" stroke="none" paint-order="stroke fill markers" d=" M 247 104 C 247 84.11774719999994 289.9806592 68 343 68 C 396.0193408 68 439 84.11774719999994 439 104 C 439 123.88225280000006 396.0193408 140 343 140 C 289.9806592 140 247 123.88225280000006 247 104 Z"/></g><g><path fill="none" stroke="#000000" paint-order="fill stroke markers" d=" M 247 104 C 247 84.11774719999994 289.9806592 68 343 68 C 396.0193408 68 439 84.11774719999994 439 104 C 439 123.88225280000006 396.0193408 140 343 140 C 289.9806592 140 247 123.88225280000006 247 104 Z" stroke-miterlimit="10" stroke-dasharray=""/></g><g><g><path fill="none" stroke="none"/><text fill="#000000" stroke="none" font-family="Arial" font-size="13px" font-style="normal" font-weight="bold" text-decoration="undefined" x="1994" y="2739" text-anchor="middle" dominant-baseline="central" transform="matrix(1 0 0 1 -1651 -2647)">UC[52] Modifica</text><text fill="#000000" stroke="none" font-family="Arial" font-size="13px" font-style="normal" font-weight="bold" text-decoration="undefined" x="1994" y="2752" text-anchor="middle" dominant-baseline="central" transform="matrix(1 0 0 1 -1651 -2647)">della password</text><text fill="#000000" stroke="none" font-family="Arial" font-size="13px" font-style="normal" font-weight="bold" text-decoration="undefined" x="1994" y="2765" text-anchor="middle" dominant-baseline="central" transform="matrix(1 0 0 1 -1651 -2647)">dell'account</text></g></g><g><path fill="#C0C0C0" stroke="none" paint-order="stroke fill markers" d=" M 494 111 C 494 91.11774719999994 524.4446336000001 75 562 75 C 599.5553663999999 75 630 91.11774719999994 630 111 C 630 130.88225280000006 599.5553663999999 147 562 147 C 524.4446336000001 147 494 130.88225280000006 494 111 Z" fill-opacity="0.2"/></g><g><path fill="#ffffff" stroke="none" paint-order="stroke fill markers" d=" M 487 104 C 487 84.11774719999994 517.4446336000001 68 555 68 C 592.5553663999999 68 623 84.11774719999994 623 104 C 623 123.88225280000006 592.5553663999999 140 555 140 C 517.4446336000001 140 487 123.88225280000006 487 104 Z"/></g><g><path fill="none" stroke="#000000" paint-order="fill stroke markers" d=" M 487 104 C 487 84.11774719999994 517.4446336000001 68 555 68 C 592.5553663999999 68 623 84.11774719999994 623 104 C 623 123.88225280000006 592.5553663999999 140 555 140 C 517.4446336000001 140 487 123.88225280000006 487 104 Z" stroke-miterlimit="10" stroke-dasharray=""/></g><g><g><path fill="none" stroke="none"/><text fill="#000000" stroke="none" font-family="Arial" font-size="13px" font-style="normal" font-weight="bold" text-decoration="undefined" x="2206" y="2739" text-anchor="middle" dominant-baseline="central" transform="matrix(1 0 0 1 -1651 -2647)">UC[7]</text><text fill="#000000" stroke="none" font-family="Arial" font-size="13px" font-style="normal" font-weight="bold" text-decoration="undefined" x="2206" y="2752" text-anchor="middle" dominant-baseline="central" transform="matrix(1 0 0 1 -1651 -2647)">Creazione</text><text fill="#000000" stroke="none" font-family="Arial" font-size="13px" font-style="normal" font-weight="bold" text-decoration="undefined" x="2206" y="2765" text-anchor="middle" dominant-baseline="central" transform="matrix(1 0 0 1 -1651 -2647)">Password</text></g></g><g><path fill="#C0C0C0" stroke="none" paint-order="stroke fill markers" d=" M 494 215 C 494 195.11774719999994 524.4446336000001 179 562 179 C 599.5553663999999 179 630 195.11774719999994 630 215 C 630 234.88225280000006 599.5553663999999 251 562 251 C 524.4446336000001 251 494 234.88225280000006 494 215 Z" fill-opacity="0.2"/></g><g><path fill="#ffffff" stroke="none" paint-order="stroke fill markers" d=" M 487 208 C 487 188.11774719999994 517.4446336000001 172 555 172 C 592.5553663999999 172 623 188.11774719999994 623 208 C 623 227.88225280000006 592.5553663999999 244 555 244 C 517.4446336000001 244 487 227.88225280000006 487 208 Z"/></g><g><path fill="none" stroke="#000000" paint-order="fill stroke markers" d=" M 487 208 C 487 188.11774719999994 517.4446336000001 172 555 172 C 592.5553663999999 172 623 188.11774719999994 623 208 C 623 227.88225280000006 592.5553663999999 244 555 244 C 517.4446336000001 244 487 227.88225280000006 487 208 Z" stroke-miterlimit="10" stroke-dasharray=""/></g><g><g><path fill="none" stroke="none"/><text fill="#000000" stroke="none" font-family="Arial" font-size="13px" font-style="normal" font-weight="bold" text-decoration="undefined" x="2206" y="2843" text-anchor="middle" dominant-baseline="central" transform="matrix(1 0 0 1 -1651 -2647)">UC[8]</text><text fill="#000000" stroke="none" font-family="Arial" font-size="13px" font-style="normal" font-weight="bold" text-decoration="undefined" x="2206" y="2856" text-anchor="middle" dominant-baseline="central" transform="matrix(1 0 0 1 -1651 -2647)">Conferma</text><text fill="#000000" stroke="none" font-family="Arial" font-size="13px" font-style="normal" font-weight="bold" text-decoration="undefined" x="2206" y="2869" text-anchor="middle" dominant-baseline="central" transform="matrix(1 0 0 1 -1651 -2647)">Password</text></g></g><g><path fill="none" stroke="#000000" paint-order="fill stroke markers" d=" M 439 100 L 463 100 L 463 212 L 487 212" stroke-miterlimit="10" stroke-dasharray="3"/></g><g><path fill="none" stroke="#000000" paint-order="fill stroke markers" d=" M 476.8373251423759 216.20951775601588 L 487 212 L 476.8373251423759 207.79048224398412" stroke-miterlimit="10" stroke-dasharray=""/></g><g><rect fill="#ffffff" stroke="none" x="2089" y="2875" width="55.65625" height="13" transform="matrix(1 0 0 1 -1651 -2647)"/></g><g><g><path fill="none" stroke="none"/><text fill="#000000" stroke="none" font-family="Arial" font-size="13px" font-style="normal" font-weight="normal" text-decoration="undefined" x="2116.828125" y="2881.5" text-anchor="middle" dominant-baseline="central" transform="matrix(1 0 0 1 -1651 -2647)">«include»</text></g></g><g><path fill="none" stroke="#000000" paint-order="fill stroke markers" d=" M 439 100 L 487 100" stroke-miterlimit="10" stroke-dasharray="3"/></g><g><path fill="none" stroke="#000000" paint-order="fill stroke markers" d=" M 476.8373251423759 104.20951775601588 L 487 100 L 476.8373251423759 95.79048224398412" stroke-miterlimit="10" stroke-dasharray=""/></g><g><rect fill="#ffffff" stroke="none" x="2087" y="2723" width="55.65625" height="13" transform="matrix(1 0 0 1 -1651 -2647)"/></g><g><g><path fill="none" stroke="none"/><text fill="#000000" stroke="none" font-family="Arial" font-size="13px" font-style="normal" font-weight="normal" text-decoration="undefined" x="2114.828125" y="2729.5" text-anchor="middle" dominant-baseline="central" transform="matrix(1 0 0 1 -1651 -2647)">«include»</text></g></g><g><path fill="none" stroke="#000000" paint-order="fill stroke markers" d=" M 184 102 L 247 102" stroke-miterlimit="10" stroke-dasharray=""/></g><g><path fill="#C0C0C0" stroke="none" paint-order="stroke fill markers" d=" M 278 223 C 278 203.11774719999994 310.2354944000001 187 350 187 C 389.7645055999999 187 422 203.11774719999994 422 223 C 422 242.88225280000006 389.7645055999999 259 350 259 C 310.2354944000001 259 278 242.88225280000006 278 223 Z" fill-opacity="0.2"/></g><g><path fill="#ffffff" stroke="none" paint-order="stroke fill markers" d=" M 271 216 C 271 196.11774719999994 303.2354944000001 180 343 180 C 382.7645055999999 180 415 196.11774719999994 415 216 C 415 235.88225280000006 382.7645055999999 252 343 252 C 303.2354944000001 252 271 235.88225280000006 271 216 Z"/></g><g><path fill="none" stroke="#000000" paint-order="fill stroke markers" d=" M 271 216 C 271 196.11774719999994 303.2354944000001 180 343 180 C 382.7645055999999 180 415 196.11774719999994 415 216 C 415 235.88225280000006 382.7645055999999 252 343 252 C 303.2354944000001 252 271 235.88225280000006 271 216 Z" stroke-miterlimit="10" stroke-dasharray=""/></g><g><g><path fill="none" stroke="none"/><text fill="#000000" stroke="none" font-family="Arial" font-size="13px" font-style="normal" font-weight="bold" text-decoration="undefined" x="1994" y="2857.5" text-anchor="middle" dominant-baseline="central" transform="matrix(1 0 0 1 -1651 -2647)">UC[5] Errore</text><text fill="#000000" stroke="none" font-family="Arial" font-size="13px" font-style="normal" font-weight="bold" text-decoration="undefined" x="1994" y="2870.5" text-anchor="middle" dominant-baseline="central" transform="matrix(1 0 0 1 -1651 -2647)">Generico</text></g></g><g><path fill="none" stroke="#000000" paint-order="fill stroke markers" d=" M 343 179 L 343 141" stroke-miterlimit="10" stroke-dasharray="3"/></g><g><path fill="none" stroke="#000000" paint-order="fill stroke markers" d=" M 347.2095177560159 151.1626748576241 L 343 141 L 338.7904822439841 151.1626748576241" stroke-miterlimit="10" stroke-dasharray=""/></g><g><rect fill="#ffffff" stroke="none" x="1930" y="2811" width="53.49169921875" height="13" transform="matrix(1 0 0 1 -1651 -2647)"/></g><g><g><path fill="none" stroke="none"/><text fill="#000000" stroke="none" font-family="Arial" font-size="13px" font-style="normal" font-weight="normal" text-decoration="undefined" x="1956.745849609375" y="2817.5" text-anchor="middle" dominant-baseline="central" transform="matrix(1 0 0 1 -1651 -2647)">«extend»</text></g></g></g></svg>