<svg version="1.1" xmlns="http://www.w3.org/2000/svg" xmlns:xlink="http://www.w3.org/1999/xlink" width="546" height="205"><defs/><g><g><rect fill="#C0C0C0" stroke="none" x="1920" y="2701" width="327" height="185" transform="matrix(1 0 0 1 -1705 -2684)" fill-opacity="0.2"/></g><g><rect fill="#ffffff" stroke="none" x="1913" y="2694" width="327" height="185" transform="matrix(1 0 0 1 -1705 -2684)"/></g><g><path fill="none" stroke="#000000" paint-order="fill stroke markers" d=" M 208 10 L 535 10 L 535 195 L 208 195 L 208 10 Z Z" stroke-miterlimit="10" stroke-dasharray=""/></g><g><g><path fill="none" stroke="none"/><text fill="#000000" stroke="none" font-family="Arial" font-size="13px" font-style="normal" font-weight="bold" text-decoration="undefined" x="2077" y="2707.5" text-anchor="middle" dominant-baseline="central" transform="matrix(1 0 0 1 -1705 -2684)">Sistema</text></g></g><g><path fill="#ffffff" stroke="none" paint-order="stroke fill markers" d=" M 88.14632812500008 68.84999999999991 C 88.14632812500008 63.96227951999981 92.10413049299996 60 96.986328125 60 C 101.86852575700004 60 105.82632812499992 63.96227951999981 105.82632812499992 68.84999999999991 C 105.82632812499992 73.73772048000001 101.86852575700004 77.69999999999982 96.986328125 77.69999999999982 C 92.10413049299996 77.69999999999982 88.14632812500008 73.73772048000001 88.14632812500008 68.84999999999991 Z"/></g><g><path fill="none" stroke="#000000" paint-order="fill stroke markers" d=" M 88.14632812500008 68.84999999999991 C 88.14632812500008 63.96227951999981 92.10413049299996 60 96.986328125 60 C 101.86852575700004 60 105.82632812499992 63.96227951999981 105.82632812499992 68.84999999999991 C 105.82632812499992 73.73772048000001 101.86852575700004 77.69999999999982 96.986328125 77.69999999999982 C 92.10413049299996 77.69999999999982 88.14632812500008 73.73772048000001 88.14632812500008 68.84999999999991 Z" stroke-miterlimit="10" stroke-dasharray=""/></g><g><path fill="none" stroke="#000000" paint-order="fill stroke markers" d=" M 96.986328125 77.69999999999982 L 96.986328125 95.30000000000018" stroke-miterlimit="10" stroke-dasharray=""/></g><g><path fill="none" stroke="#000000" paint-order="fill stroke markers" d=" M 87.6263281250001 84.30000000000018 L 106.3463281249999 84.30000000000018" stroke-miterlimit="10" stroke-dasharray=""/></g><g><path fill="none" stroke="#000000" paint-order="fill stroke markers" d=" M 96.986328125 95.30000000000018 L 83.986328125 113" stroke-miterlimit="10" stroke-dasharray=""/></g><g><path fill="none" stroke="#000000" paint-order="fill stroke markers" d=" M 96.986328125 95.30000000000018 L 109.986328125 113" stroke-miterlimit="10" stroke-dasharray=""/></g><g><g><path fill="none" stroke="none"/><text fill="#000000" stroke="none" font-family="Arial" font-size="13px" font-style="normal" font-weight="bold" text-decoration="undefined" x="1802.486328125" y="2811.5" text-anchor="middle" dominant-baseline="central" transform="matrix(1 0 0 1 -1705 -2684)">Utente autenticato</text></g></g><g><path fill="#C0C0C0" stroke="none" paint-order="stroke fill markers" d=" M 281 110 C 281 90.11774719999994 325.77152 74 381 74 C 436.2284800000002 74 481 90.11774719999994 481 110 C 481 129.88225280000006 436.2284800000002 146 381 146 C 325.77152 146 281 129.88225280000006 281 110 Z" fill-opacity="0.2"/></g><g><path fill="#ffffff" stroke="none" paint-order="stroke fill markers" d=" M 274 103 C 274 83.11774719999994 318.77152 67 374 67 C 429.2284800000002 67 474 83.11774719999994 474 103 C 474 122.88225280000006 429.2284800000002 139 374 139 C 318.77152 139 274 122.88225280000006 274 103 Z"/></g><g><path fill="none" stroke="#000000" paint-order="fill stroke markers" d=" M 274 103 C 274 83.11774719999994 318.77152 67 374 67 C 429.2284800000002 67 474 83.11774719999994 474 103 C 474 122.88225280000006 429.2284800000002 139 374 139 C 318.77152 139 274 122.88225280000006 274 103 Z" stroke-miterlimit="10" stroke-dasharray=""/></g><g><g><path fill="none" stroke="none"/><text fill="#000000" stroke="none" font-family="Arial" font-size="13px" font-style="normal" font-weight="bold" text-decoration="undefined" x="2079" y="2775" text-anchor="middle" dominant-baseline="central" transform="matrix(1 0 0 1 -1705 -2684)">UC[50] Collegare</text><text fill="#000000" stroke="none" font-family="Arial" font-size="13px" font-style="normal" font-weight="bold" text-decoration="undefined" x="2079" y="2788" text-anchor="middle" dominant-baseline="central" transform="matrix(1 0 0 1 -1705 -2684)">due blocchi di una</text><text fill="#000000" stroke="none" font-family="Arial" font-size="13px" font-style="normal" font-weight="bold" text-decoration="undefined" x="2079" y="2801" text-anchor="middle" dominant-baseline="central" transform="matrix(1 0 0 1 -1705 -2684)">routine esistente</text></g></g><g><path fill="none" stroke="#000000" paint-order="fill stroke markers" d=" M 184 99 L 274 99" stroke-miterlimit="10" stroke-dasharray=""/></g></g></svg>