<svg version="1.1" xmlns="http://www.w3.org/2000/svg" xmlns:xlink="http://www.w3.org/1999/xlink" width="546" height="205"><defs/><g><g><rect fill="#C0C0C0" stroke="none" x="1920" y="2701" width="327" height="185" transform="matrix(1 0 0 1 -1705 -2684)" fill-opacity="0.2"/></g><g><rect fill="#ffffff" stroke="none" x="1913" y="2694" width="327" height="185" transform="matrix(1 0 0 1 -1705 -2684)"/></g><g><path fill="none" stroke="#000000" paint-order="fill stroke markers" d=" M 208 10 L 535 10 L 535 195 L 208 195 L 208 10 Z Z" stroke-miterlimit="10" stroke-dasharray=""/></g><g><g><path fill="none" stroke="none"/><text fill="#000000" stroke="none" font-family="Arial" font-size="13px" font-style="normal" font-weight="bold" text-decoration="undefined" x="2077" y="2707.5" text-anchor="middle" dominant-baseline="central" transform="matrix(1 0 0 1 -1705 -2684)">Sistema</text></g></g><g><path fill="#C0C0C0" stroke="none" paint-order="stroke fill markers" d=" M 271 105 C 271 85.11774719999994 319.35324160000005 69 379 69 C 438.6467584000002 69 487 85.11774719999994 487 105 C 487 124.88225280000006 438.6467584000002 141 379 141 C 319.35324160000005 141 271 124.88225280000006 271 105 Z" fill-opacity="0.2"/></g><g><path fill="#ffffff" stroke="none" paint-order="stroke fill markers" d=" M 264 98 C 264 78.11774719999994 312.35324160000005 62 372 62 C 431.6467584000002 62 480 78.11774719999994 480 98 C 480 117.88225280000006 431.6467584000002 134 372 134 C 312.35324160000005 134 264 117.88225280000006 264 98 Z"/></g><g><path fill="none" stroke="#000000" paint-order="fill stroke markers" d=" M 264 98 C 264 78.11774719999994 312.35324160000005 62 372 62 C 431.6467584000002 62 480 78.11774719999994 480 98 C 480 117.88225280000006 431.6467584000002 134 372 134 C 312.35324160000005 134 264 117.88225280000006 264 98 Z" stroke-miterlimit="10" stroke-dasharray=""/></g><g><g><path fill="none" stroke="none"/><text fill="#000000" stroke="none" font-family="Arial" font-size="13px" font-style="normal" font-weight="bold" text-decoration="undefined" x="2077" y="2770" text-anchor="middle" dominant-baseline="central" transform="matrix(1 0 0 1 -1705 -2684)">UC[51] Scollegare due</text><text fill="#000000" stroke="none" font-family="Arial" font-size="13px" font-style="normal" font-weight="bold" text-decoration="undefined" x="2077" y="2783" text-anchor="middle" dominant-baseline="central" transform="matrix(1 0 0 1 -1705 -2684)">blocchi di una routine</text><text fill="#000000" stroke="none" font-family="Arial" font-size="13px" font-style="normal" font-weight="bold" text-decoration="undefined" x="2077" y="2796" text-anchor="middle" dominant-baseline="central" transform="matrix(1 0 0 1 -1705 -2684)">esistente</text></g></g><g><path fill="#ffffff" stroke="none" paint-order="stroke fill markers" d=" M 88.14632812500008 68.84999999999991 C 88.14632812500008 63.96227951999981 92.10413049299996 60 96.986328125 60 C 101.86852575700004 60 105.82632812499992 63.96227951999981 105.82632812499992 68.84999999999991 C 105.82632812499992 73.73772048000001 101.86852575700004 77.69999999999982 96.986328125 77.69999999999982 C 92.10413049299996 77.69999999999982 88.14632812500008 73.73772048000001 88.14632812500008 68.84999999999991 Z"/></g><g><path fill="none" stroke="#000000" paint-order="fill stroke markers" d=" M 88.14632812500008 68.84999999999991 C 88.14632812500008 63.96227951999981 92.10413049299996 60 96.986328125 60 C 101.86852575700004 60 105.82632812499992 63.96227951999981 105.82632812499992 68.84999999999991 C 105.82632812499992 73.73772048000001 101.86852575700004 77.69999999999982 96.986328125 77.69999999999982 C 92.10413049299996 77.69999999999982 88.14632812500008 73.73772048000001 88.14632812500008 68.84999999999991 Z" stroke-miterlimit="10" stroke-dasharray=""/></g><g><path fill="none" stroke="#000000" paint-order="fill stroke markers" d=" M 96.986328125 77.69999999999982 L 96.986328125 95.30000000000018" stroke-miterlimit="10" stroke-dasharray=""/></g><g><path fill="none" stroke="#000000" paint-order="fill stroke markers" d=" M 87.6263281250001 84.30000000000018 L 106.3463281249999 84.30000000000018" stroke-miterlimit="10" stroke-dasharray=""/></g><g><path fill="none" stroke="#000000" paint-order="fill stroke markers" d=" M 96.986328125 95.30000000000018 L 83.986328125 113" stroke-miterlimit="10" stroke-dasharray=""/></g><g><path fill="none" stroke="#000000" paint-order="fill stroke markers" d=" M 96.986328125 95.30000000000018 L 109.986328125 113" stroke-miterlimit="10" stroke-dasharray=""/></g><g><g><path fill="none" stroke="none"/><text fill="#000000" stroke="none" font-family="Arial" font-size="13px" font-style="normal" font-weight="bold" text-decoration="undefined" x="1802.486328125" y="2811.5" text-anchor="middle" dominant-baseline="central" transform="matrix(1 0 0 1 -1705 -2684)">Utente autenticato</text></g></g><g><path fill="none" stroke="#000000" paint-order="fill stroke markers" d=" M 184 99 L 264 99" stroke-miterlimit="10" stroke-dasharray=""/></g></g></svg>