<svg version="1.1" xmlns="http://www.w3.org/2000/svg" xmlns:xlink="http://www.w3.org/1999/xlink" width="550" height="220"><defs/><g><g><rect fill="#C0C0C0" stroke="none" x="1922" y="2701" width="327" height="187" transform="matrix(1 0 0 1 -1703 -2676)" fill-opacity="0.2"/></g><g><rect fill="#ffffff" stroke="none" x="1915" y="2694" width="327" height="187" transform="matrix(1 0 0 1 -1703 -2676)"/></g><g><path fill="none" stroke="#000000" paint-order="fill stroke markers" d=" M 212 18 L 539 18 L 539 205 L 212 205 L 212 18 Z Z" stroke-miterlimit="10" stroke-dasharray=""/></g><g><g><path fill="none" stroke="none"/><text fill="#000000" stroke="none" font-family="Arial" font-size="13px" font-style="normal" font-weight="bold" text-decoration="undefined" x="2079" y="2707.5" text-anchor="middle" dominant-baseline="central" transform="matrix(1 0 0 1 -1703 -2676)">Sistema</text></g></g><g><path fill="#ffffff" stroke="none" paint-order="stroke fill markers" d=" M 88.14632812500008 19.84999999999991 C 88.14632812500008 14.96227951999981 92.10413049299996 11 96.986328125 11 C 101.86852575700004 11 105.82632812499992 14.96227951999981 105.82632812499992 19.84999999999991 C 105.82632812499992 24.737720480000007 101.86852575700004 28.699999999999818 96.986328125 28.699999999999818 C 92.10413049299996 28.699999999999818 88.14632812500008 24.737720480000007 88.14632812500008 19.84999999999991 Z"/></g><g><path fill="none" stroke="#000000" paint-order="fill stroke markers" d=" M 88.14632812500008 19.84999999999991 C 88.14632812500008 14.96227951999981 92.10413049299996 11 96.986328125 11 C 101.86852575700004 11 105.82632812499992 14.96227951999981 105.82632812499992 19.84999999999991 C 105.82632812499992 24.737720480000007 101.86852575700004 28.699999999999818 96.986328125 28.699999999999818 C 92.10413049299996 28.699999999999818 88.14632812500008 24.737720480000007 88.14632812500008 19.84999999999991 Z" stroke-miterlimit="10" stroke-dasharray=""/></g><g><path fill="none" stroke="#000000" paint-order="fill stroke markers" d=" M 96.986328125 28.699999999999818 L 96.986328125 46.30000000000018" stroke-miterlimit="10" stroke-dasharray=""/></g><g><path fill="none" stroke="#000000" paint-order="fill stroke markers" d=" M 87.6263281250001 35.30000000000018 L 106.3463281249999 35.30000000000018" stroke-miterlimit="10" stroke-dasharray=""/></g><g><path fill="none" stroke="#000000" paint-order="fill stroke markers" d=" M 96.986328125 46.30000000000018 L 83.986328125 64" stroke-miterlimit="10" stroke-dasharray=""/></g><g><path fill="none" stroke="#000000" paint-order="fill stroke markers" d=" M 96.986328125 46.30000000000018 L 109.986328125 64" stroke-miterlimit="10" stroke-dasharray=""/></g><g><g><path fill="none" stroke="none"/><text fill="#000000" stroke="none" font-family="Arial" font-size="13px" font-style="normal" font-weight="bold" text-decoration="undefined" x="1800.486328125" y="2754.5" text-anchor="middle" dominant-baseline="central" transform="matrix(1 0 0 1 -1703 -2676)">Utente autenticato</text></g></g><g><path fill="#C0C0C0" stroke="none" paint-order="stroke fill markers" d=" M 281 117 C 281 97.11774719999994 325.77152 81 381 81 C 436.2284800000002 81 481 97.11774719999994 481 117 C 481 136.88225280000006 436.2284800000002 153 381 153 C 325.77152 153 281 136.88225280000006 281 117 Z" fill-opacity="0.2"/></g><g><path fill="#ffffff" stroke="none" paint-order="stroke fill markers" d=" M 274 110 C 274 90.11774719999994 318.77152 74 374 74 C 429.2284800000002 74 474 90.11774719999994 474 110 C 474 129.88225280000006 429.2284800000002 146 374 146 C 318.77152 146 274 129.88225280000006 274 110 Z"/></g><g><path fill="none" stroke="#000000" paint-order="fill stroke markers" d=" M 274 110 C 274 90.11774719999994 318.77152 74 374 74 C 429.2284800000002 74 474 90.11774719999994 474 110 C 474 129.88225280000006 429.2284800000002 146 374 146 C 318.77152 146 274 129.88225280000006 274 110 Z" stroke-miterlimit="10" stroke-dasharray=""/></g><g><g><path fill="none" stroke="none"/><text fill="#000000" stroke="none" font-family="Arial" font-size="13px" font-style="normal" font-weight="bold" text-decoration="undefined" x="2077" y="2774" text-anchor="middle" dominant-baseline="central" transform="matrix(1 0 0 1 -1703 -2676)">UC[53] Impostare</text><text fill="#000000" stroke="none" font-family="Arial" font-size="13px" font-style="normal" font-weight="bold" text-decoration="undefined" x="2077" y="2787" text-anchor="middle" dominant-baseline="central" transform="matrix(1 0 0 1 -1703 -2676)">Dark Mode o Light</text><text fill="#000000" stroke="none" font-family="Arial" font-size="13px" font-style="normal" font-weight="bold" text-decoration="undefined" x="2077" y="2800" text-anchor="middle" dominant-baseline="central" transform="matrix(1 0 0 1 -1703 -2676)">Mode del client</text></g></g><g><path fill="none" stroke="#000000" paint-order="fill stroke markers" d=" M 185 69 L 273 88" stroke-miterlimit="10" stroke-dasharray=""/></g><g><path fill="#ffffff" stroke="none" paint-order="stroke fill markers" d=" M 92.57772460937508 139.8499999999999 C 92.57772460937508 134.9622795199998 96.53552697737496 131 101.417724609375 131 C 106.29992224137504 131 110.25772460937492 134.9622795199998 110.25772460937492 139.8499999999999 C 110.25772460937492 144.73772048 106.29992224137504 148.69999999999982 101.417724609375 148.69999999999982 C 96.53552697737496 148.69999999999982 92.57772460937508 144.73772048 92.57772460937508 139.8499999999999 Z"/></g><g><path fill="none" stroke="#000000" paint-order="fill stroke markers" d=" M 92.57772460937508 139.8499999999999 C 92.57772460937508 134.9622795199998 96.53552697737496 131 101.417724609375 131 C 106.29992224137504 131 110.25772460937492 134.9622795199998 110.25772460937492 139.8499999999999 C 110.25772460937492 144.73772048 106.29992224137504 148.69999999999982 101.417724609375 148.69999999999982 C 96.53552697737496 148.69999999999982 92.57772460937508 144.73772048 92.57772460937508 139.8499999999999 Z" stroke-miterlimit="10" stroke-dasharray=""/></g><g><path fill="none" stroke="#000000" paint-order="fill stroke markers" d=" M 101.417724609375 148.69999999999982 L 101.417724609375 166.30000000000018" stroke-miterlimit="10" stroke-dasharray=""/></g><g><path fill="none" stroke="#000000" paint-order="fill stroke markers" d=" M 92.0577246093751 155.30000000000018 L 110.7777246093749 155.30000000000018" stroke-miterlimit="10" stroke-dasharray=""/></g><g><path fill="none" stroke="#000000" paint-order="fill stroke markers" d=" M 101.417724609375 166.30000000000018 L 88.417724609375 184" stroke-miterlimit="10" stroke-dasharray=""/></g><g><path fill="none" stroke="#000000" paint-order="fill stroke markers" d=" M 101.417724609375 166.30000000000018 L 114.417724609375 184" stroke-miterlimit="10" stroke-dasharray=""/></g><g><g><path fill="none" stroke="none"/><text fill="#000000" stroke="none" font-family="Arial" font-size="13px" font-style="normal" font-weight="bold" text-decoration="undefined" x="1804.917724609375" y="2874.5" text-anchor="middle" dominant-baseline="central" transform="matrix(1 0 0 1 -1703 -2676)">Utente non autenticato</text></g></g><g><path fill="none" stroke="#000000" paint-order="fill stroke markers" d=" M 178 153 L 273 132" stroke-miterlimit="10" stroke-dasharray=""/></g></g></svg>