<svg version="1.1" xmlns="http://www.w3.org/2000/svg" xmlns:xlink="http://www.w3.org/1999/xlink" width="550" height="205"><defs/><g><g><rect fill="#C0C0C0" stroke="none" x="1922" y="2701" width="327" height="185" transform="matrix(1 0 0 1 -1703 -2684)" fill-opacity="0.2"/></g><g><rect fill="#ffffff" stroke="none" x="1915" y="2694" width="327" height="185" transform="matrix(1 0 0 1 -1703 -2684)"/></g><g><path fill="none" stroke="#000000" paint-order="fill stroke markers" d=" M 212 10 L 539 10 L 539 195 L 212 195 L 212 10 Z Z" stroke-miterlimit="10" stroke-dasharray=""/></g><g><g><path fill="none" stroke="none"/><text fill="#000000" stroke="none" font-family="Arial" font-size="13px" font-style="normal" font-weight="bold" text-decoration="undefined" x="2079" y="2707.5" text-anchor="middle" dominant-baseline="central" transform="matrix(1 0 0 1 -1703 -2684)">Sistema</text></g></g><g><path fill="#ffffff" stroke="none" paint-order="stroke fill markers" d=" M 88.14632812500008 67.84999999999991 C 88.14632812500008 62.96227951999981 92.10413049299996 59 96.986328125 59 C 101.86852575700004 59 105.82632812499992 62.96227951999981 105.82632812499992 67.84999999999991 C 105.82632812499992 72.73772048000001 101.86852575700004 76.69999999999982 96.986328125 76.69999999999982 C 92.10413049299996 76.69999999999982 88.14632812500008 72.73772048000001 88.14632812500008 67.84999999999991 Z"/></g><g><path fill="none" stroke="#000000" paint-order="fill stroke markers" d=" M 88.14632812500008 67.84999999999991 C 88.14632812500008 62.96227951999981 92.10413049299996 59 96.986328125 59 C 101.86852575700004 59 105.82632812499992 62.96227951999981 105.82632812499992 67.84999999999991 C 105.82632812499992 72.73772048000001 101.86852575700004 76.69999999999982 96.986328125 76.69999999999982 C 92.10413049299996 76.69999999999982 88.14632812500008 72.73772048000001 88.14632812500008 67.84999999999991 Z" stroke-miterlimit="10" stroke-dasharray=""/></g><g><path fill="none" stroke="#000000" paint-order="fill stroke markers" d=" M 96.986328125 76.69999999999982 L 96.986328125 94.30000000000018" stroke-miterlimit="10" stroke-dasharray=""/></g><g><path fill="none" stroke="#000000" paint-order="fill stroke markers" d=" M 87.6263281250001 83.30000000000018 L 106.3463281249999 83.30000000000018" stroke-miterlimit="10" stroke-dasharray=""/></g><g><path fill="none" stroke="#000000" paint-order="fill stroke markers" d=" M 96.986328125 94.30000000000018 L 83.986328125 112" stroke-miterlimit="10" stroke-dasharray=""/></g><g><path fill="none" stroke="#000000" paint-order="fill stroke markers" d=" M 96.986328125 94.30000000000018 L 109.986328125 112" stroke-miterlimit="10" stroke-dasharray=""/></g><g><g><path fill="none" stroke="none"/><text fill="#000000" stroke="none" font-family="Arial" font-size="13px" font-style="normal" font-weight="bold" text-decoration="undefined" x="1800.486328125" y="2810.5" text-anchor="middle" dominant-baseline="central" transform="matrix(1 0 0 1 -1703 -2684)">Utente autenticato</text></g></g><g><path fill="#C0C0C0" stroke="none" paint-order="stroke fill markers" d=" M 313 106.5 C 313 96.835016 344.56392159999996 89 383.5 89 C 422.43607840000004 89 454 96.835016 454 106.5 C 454 116.164984 422.43607840000004 124 383.5 124 C 344.56392159999996 124 313 116.164984 313 106.5 Z" fill-opacity="0.2"/></g><g><path fill="#ffffff" stroke="none" paint-order="stroke fill markers" d=" M 306 99.5 C 306 89.835016 337.56392159999996 82 376.5 82 C 415.43607840000004 82 447 89.835016 447 99.5 C 447 109.164984 415.43607840000004 117 376.5 117 C 337.56392159999996 117 306 109.164984 306 99.5 Z"/></g><g><path fill="none" stroke="#000000" paint-order="fill stroke markers" d=" M 306 99.5 C 306 89.835016 337.56392159999996 82 376.5 82 C 415.43607840000004 82 447 89.835016 447 99.5 C 447 109.164984 415.43607840000004 117 376.5 117 C 337.56392159999996 117 306 109.164984 306 99.5 Z" stroke-miterlimit="10" stroke-dasharray=""/></g><g><g><path fill="none" stroke="none"/><text fill="#000000" stroke="none" font-family="Arial" font-size="13px" font-style="normal" font-weight="bold" text-decoration="undefined" x="2079.5" y="2784.5" text-anchor="middle" dominant-baseline="central" transform="matrix(1 0 0 1 -1703 -2684)">UC[54] Logout</text></g></g><g><path fill="none" stroke="#000000" paint-order="fill stroke markers" d=" M 184 98 L 306 98" stroke-miterlimit="10" stroke-dasharray=""/></g></g></svg>