<svg version="1.1" xmlns="http://www.w3.org/2000/svg" xmlns:xlink="http://www.w3.org/1999/xlink" width="546" height="205"><defs/><g><g><rect fill="#C0C0C0" stroke="none" x="691" y="584" width="327" height="185" transform="matrix(1 0 0 1 -476 -567)" fill-opacity="0.2"/></g><g><rect fill="#ffffff" stroke="none" x="684" y="577" width="327" height="185" transform="matrix(1 0 0 1 -476 -567)"/></g><g><path fill="none" stroke="#000000" paint-order="fill stroke markers" d=" M 208 10 L 535 10 L 535 195 L 208 195 L 208 10 Z Z" stroke-miterlimit="10" stroke-dasharray=""/></g><g><g><path fill="none" stroke="none"/><text fill="#000000" stroke="none" font-family="Arial" font-size="13px" font-style="normal" font-weight="bold" text-decoration="undefined" x="848" y="590.5" text-anchor="middle" dominant-baseline="central" transform="matrix(1 0 0 1 -476 -567)">Sistema</text></g></g><g><path fill="#ffffff" stroke="none" paint-order="stroke fill markers" d=" M 88.14632812499997 74.85000000000002 C 88.14632812499997 69.96227952000004 92.10413049299996 66 96.986328125 66 C 101.86852575700004 66 105.82632812500003 69.96227952000004 105.82632812500003 74.85000000000002 C 105.82632812500003 79.73772048000001 101.86852575700004 83.70000000000005 96.986328125 83.70000000000005 C 92.10413049299996 83.70000000000005 88.14632812499997 79.73772048000001 88.14632812499997 74.85000000000002 Z"/></g><g><path fill="none" stroke="#000000" paint-order="fill stroke markers" d=" M 88.14632812499997 74.85000000000002 C 88.14632812499997 69.96227952000004 92.10413049299996 66 96.986328125 66 C 101.86852575700004 66 105.82632812500003 69.96227952000004 105.82632812500003 74.85000000000002 C 105.82632812500003 79.73772048000001 101.86852575700004 83.70000000000005 96.986328125 83.70000000000005 C 92.10413049299996 83.70000000000005 88.14632812499997 79.73772048000001 88.14632812499997 74.85000000000002 Z" stroke-miterlimit="10" stroke-dasharray=""/></g><g><path fill="none" stroke="#000000" paint-order="fill stroke markers" d=" M 96.986328125 83.70000000000005 L 96.986328125 101.29999999999995" stroke-miterlimit="10" stroke-dasharray=""/></g><g><path fill="none" stroke="#000000" paint-order="fill stroke markers" d=" M 87.62632812499999 90.29999999999995 L 106.34632812500001 90.29999999999995" stroke-miterlimit="10" stroke-dasharray=""/></g><g><path fill="none" stroke="#000000" paint-order="fill stroke markers" d=" M 96.986328125 101.29999999999995 L 83.986328125 119" stroke-miterlimit="10" stroke-dasharray=""/></g><g><path fill="none" stroke="#000000" paint-order="fill stroke markers" d=" M 96.986328125 101.29999999999995 L 109.986328125 119" stroke-miterlimit="10" stroke-dasharray=""/></g><g><g><path fill="none" stroke="none"/><text fill="#000000" stroke="none" font-family="Arial" font-size="13px" font-style="normal" font-weight="bold" text-decoration="undefined" x="573.486328125" y="700.5" text-anchor="middle" dominant-baseline="central" transform="matrix(1 0 0 1 -476 -567)">Utente autenticato</text></g></g><g><path fill="#C0C0C0" stroke="none" paint-order="stroke fill markers" d=" M 271 109 C 271 84.14718400000004 321.14410239999995 64 383 64 C 444.85589760000005 64 495 84.14718400000004 495 109 C 495 133.85281599999996 444.85589760000005 154 383 154 C 321.14410239999995 154 271 133.85281599999996 271 109 Z" fill-opacity="0.2"/></g><g><path fill="#ffffff" stroke="none" paint-order="stroke fill markers" d=" M 264 102 C 264 77.14718400000004 314.14410239999995 57 376 57 C 437.85589760000005 57 488 77.14718400000004 488 102 C 488 126.85281599999996 437.85589760000005 147 376 147 C 314.14410239999995 147 264 126.85281599999996 264 102 Z"/></g><g><path fill="none" stroke="#000000" paint-order="fill stroke markers" d=" M 264 102 C 264 77.14718400000004 314.14410239999995 57 376 57 C 437.85589760000005 57 488 77.14718400000004 488 102 C 488 126.85281599999996 437.85589760000005 147 376 147 C 314.14410239999995 147 264 126.85281599999996 264 102 Z" stroke-miterlimit="10" stroke-dasharray=""/></g><g><g><path fill="none" stroke="none"/><text fill="#000000" stroke="none" font-family="Arial" font-size="13px" font-style="normal" font-weight="bold" text-decoration="undefined" x="852" y="650.5" text-anchor="middle" dominant-baseline="central" transform="matrix(1 0 0 1 -476 -567)">UC[55] Visualizzare la</text><text fill="#000000" stroke="none" font-family="Arial" font-size="13px" font-style="normal" font-weight="bold" text-decoration="undefined" x="852" y="663.5" text-anchor="middle" dominant-baseline="central" transform="matrix(1 0 0 1 -476 -567)">dashboard - lista</text><text fill="#000000" stroke="none" font-family="Arial" font-size="13px" font-style="normal" font-weight="bold" text-decoration="undefined" x="852" y="676.5" text-anchor="middle" dominant-baseline="central" transform="matrix(1 0 0 1 -476 -567)">automazioni in seguito</text><text fill="#000000" stroke="none" font-family="Arial" font-size="13px" font-style="normal" font-weight="bold" text-decoration="undefined" x="852" y="689.5" text-anchor="middle" dominant-baseline="central" transform="matrix(1 0 0 1 -476 -567)">al login</text></g></g><g><path fill="none" stroke="#000000" paint-order="fill stroke markers" d=" M 184 101 L 264 101" stroke-miterlimit="10" stroke-dasharray=""/></g></g></svg>