<svg version="1.1" xmlns="http://www.w3.org/2000/svg" xmlns:xlink="http://www.w3.org/1999/xlink" width="546" height="205"><defs/><g><g><rect fill="#C0C0C0" stroke="none" x="370" y="280" width="327" height="185" transform="matrix(1 0 0 1 -155 -263)" fill-opacity="0.2"/></g><g><rect fill="#ffffff" stroke="none" x="363" y="273" width="327" height="185" transform="matrix(1 0 0 1 -155 -263)"/></g><g><path fill="none" stroke="#000000" paint-order="fill stroke markers" d=" M 208 10 L 535 10 L 535 195 L 208 195 L 208 10 Z Z" stroke-miterlimit="10" stroke-dasharray=""/></g><g><g><path fill="none" stroke="none"/><text fill="#000000" stroke="none" font-family="Arial" font-size="13px" font-style="normal" font-weight="bold" text-decoration="undefined" x="527" y="286.5" text-anchor="middle" dominant-baseline="central" transform="matrix(1 0 0 1 -155 -263)">Sistema</text></g></g><g><path fill="#ffffff" stroke="none" paint-order="stroke fill markers" d=" M 88.146328125 68.85000000000002 C 88.146328125 63.96227952000004 92.10413049300001 60 96.986328125 60 C 101.86852575699999 60 105.82632812499997 63.96227952000004 105.82632812499997 68.85000000000002 C 105.82632812499997 73.73772048000001 101.86852575699999 77.69999999999999 96.986328125 77.69999999999999 C 92.10413049300001 77.69999999999999 88.146328125 73.73772048000001 88.146328125 68.85000000000002 Z"/></g><g><path fill="none" stroke="#000000" paint-order="fill stroke markers" d=" M 88.146328125 68.85000000000002 C 88.146328125 63.96227952000004 92.10413049300001 60 96.986328125 60 C 101.86852575699999 60 105.82632812499997 63.96227952000004 105.82632812499997 68.85000000000002 C 105.82632812499997 73.73772048000001 101.86852575699999 77.69999999999999 96.986328125 77.69999999999999 C 92.10413049300001 77.69999999999999 88.146328125 73.73772048000001 88.146328125 68.85000000000002 Z" stroke-miterlimit="10" stroke-dasharray=""/></g><g><path fill="none" stroke="#000000" paint-order="fill stroke markers" d=" M 96.986328125 77.69999999999999 L 96.986328125 95.30000000000001" stroke-miterlimit="10" stroke-dasharray=""/></g><g><path fill="none" stroke="#000000" paint-order="fill stroke markers" d=" M 87.62632812499999 84.30000000000001 L 106.34632812500001 84.30000000000001" stroke-miterlimit="10" stroke-dasharray=""/></g><g><path fill="none" stroke="#000000" paint-order="fill stroke markers" d=" M 96.986328125 95.30000000000001 L 83.986328125 113" stroke-miterlimit="10" stroke-dasharray=""/></g><g><path fill="none" stroke="#000000" paint-order="fill stroke markers" d=" M 96.986328125 95.30000000000001 L 109.986328125 113" stroke-miterlimit="10" stroke-dasharray=""/></g><g><g><path fill="none" stroke="none"/><text fill="#000000" stroke="none" font-family="Arial" font-size="13px" font-style="normal" font-weight="bold" text-decoration="undefined" x="252.486328125" y="390.5" text-anchor="middle" dominant-baseline="central" transform="matrix(1 0 0 1 -155 -263)">Utente autenticato</text></g></g><g><path fill="#C0C0C0" stroke="none" paint-order="stroke fill markers" d=" M 255 112 C 255 92.1177472 308.725824 76 375 76 C 441.274176 76 495 92.1177472 495 112 C 495 131.8822528 441.274176 148 375 148 C 308.725824 148 255 131.8822528 255 112 Z" fill-opacity="0.2"/></g><g><path fill="#ffffff" stroke="none" paint-order="stroke fill markers" d=" M 248 105 C 248 85.1177472 301.725824 69 368 69 C 434.274176 69 488 85.1177472 488 105 C 488 124.8822528 434.274176 141 368 141 C 301.725824 141 248 124.8822528 248 105 Z"/></g><g><path fill="none" stroke="#000000" paint-order="fill stroke markers" d=" M 248 105 C 248 85.1177472 301.725824 69 368 69 C 434.274176 69 488 85.1177472 488 105 C 488 124.8822528 434.274176 141 368 141 C 301.725824 141 248 124.8822528 248 105 Z" stroke-miterlimit="10" stroke-dasharray=""/></g><g><g><path fill="none" stroke="none"/><text fill="#000000" stroke="none" font-family="Arial" font-size="13px" font-style="normal" font-weight="bold" text-decoration="undefined" x="523" y="356" text-anchor="middle" dominant-baseline="central" transform="matrix(1 0 0 1 -155 -263)">UC[56] Ritornare alla</text><text fill="#000000" stroke="none" font-family="Arial" font-size="13px" font-style="normal" font-weight="bold" text-decoration="undefined" x="523" y="369" text-anchor="middle" dominant-baseline="central" transform="matrix(1 0 0 1 -155 -263)">dashboard dalla pagina</text><text fill="#000000" stroke="none" font-family="Arial" font-size="13px" font-style="normal" font-weight="bold" text-decoration="undefined" x="523" y="382" text-anchor="middle" dominant-baseline="central" transform="matrix(1 0 0 1 -155 -263)">di modifica di un flusso</text></g></g><g><path fill="none" stroke="#000000" paint-order="fill stroke markers" d=" M 184 102 L 248 102" stroke-miterlimit="10" stroke-dasharray=""/></g></g></svg>