<svg version="1.1" xmlns="http://www.w3.org/2000/svg" xmlns:xlink="http://www.w3.org/1999/xlink" width="837" height="517"><defs/><g><g><rect fill="#C0C0C0" stroke="none" x="754" y="412" width="616" height="497" transform="matrix(1 0 0 1 -537 -395)" fill-opacity="0.2"/></g><g><rect fill="#ffffff" stroke="none" x="747" y="405" width="616" height="497" transform="matrix(1 0 0 1 -537 -395)"/></g><g><path fill="none" stroke="#000000" paint-order="fill stroke markers" d=" M 210 10 L 826 10 L 826 507 L 210 507 L 210 10 Z Z" stroke-miterlimit="10" stroke-dasharray=""/></g><g><g><path fill="none" stroke="none"/><text fill="#000000" stroke="none" font-family="Arial" font-size="13px" font-style="normal" font-weight="bold" text-decoration="undefined" x="1055.5" y="418.5" text-anchor="middle" dominant-baseline="central" transform="matrix(1 0 0 1 -537 -395)">Sistema</text></g></g><g><path fill="#ffffff" stroke="none" paint-order="stroke fill markers" d=" M 88.14632812499997 228.85000000000002 C 88.14632812499997 223.96227952000004 92.10413049299996 220 96.986328125 220 C 101.86852575700004 220 105.82632812500003 223.96227952000004 105.82632812500003 228.85000000000002 C 105.82632812500003 233.73772048 101.86852575700004 237.70000000000005 96.986328125 237.70000000000005 C 92.10413049299996 237.70000000000005 88.14632812499997 233.73772048 88.14632812499997 228.85000000000002 Z"/></g><g><path fill="none" stroke="#000000" paint-order="fill stroke markers" d=" M 88.14632812499997 228.85000000000002 C 88.14632812499997 223.96227952000004 92.10413049299996 220 96.986328125 220 C 101.86852575700004 220 105.82632812500003 223.96227952000004 105.82632812500003 228.85000000000002 C 105.82632812500003 233.73772048 101.86852575700004 237.70000000000005 96.986328125 237.70000000000005 C 92.10413049299996 237.70000000000005 88.14632812499997 233.73772048 88.14632812499997 228.85000000000002 Z" stroke-miterlimit="10" stroke-dasharray=""/></g><g><path fill="none" stroke="#000000" paint-order="fill stroke markers" d=" M 96.986328125 237.70000000000005 L 96.986328125 255.29999999999995" stroke-miterlimit="10" stroke-dasharray=""/></g><g><path fill="none" stroke="#000000" paint-order="fill stroke markers" d=" M 87.62632812499999 244.29999999999995 L 106.34632812500001 244.29999999999995" stroke-miterlimit="10" stroke-dasharray=""/></g><g><path fill="none" stroke="#000000" paint-order="fill stroke markers" d=" M 96.986328125 255.29999999999995 L 83.986328125 273" stroke-miterlimit="10" stroke-dasharray=""/></g><g><path fill="none" stroke="#000000" paint-order="fill stroke markers" d=" M 96.986328125 255.29999999999995 L 109.986328125 273" stroke-miterlimit="10" stroke-dasharray=""/></g><g><g><path fill="none" stroke="none"/><text fill="#000000" stroke="none" font-family="Arial" font-size="13px" font-style="normal" font-weight="bold" text-decoration="undefined" x="634.486328125" y="682.5" text-anchor="middle" dominant-baseline="central" transform="matrix(1 0 0 1 -537 -395)">Utente esperto autenticato</text></g></g><g><path fill="#C0C0C0" stroke="none" paint-order="stroke fill markers" d=" M 257 262 C 257 242.11774720000005 303.5623808 226 361 226 C 418.4376192 226 465 242.11774720000005 465 262 C 465 281.88225279999995 418.4376192 298 361 298 C 303.5623808 298 257 281.88225279999995 257 262 Z" fill-opacity="0.2"/></g><g><path fill="#ffffff" stroke="none" paint-order="stroke fill markers" d=" M 250 255 C 250 235.11774720000005 296.5623808 219 354 219 C 411.4376192 219 458 235.11774720000005 458 255 C 458 274.88225279999995 411.4376192 291 354 291 C 296.5623808 291 250 274.88225279999995 250 255 Z"/></g><g><path fill="none" stroke="#000000" paint-order="fill stroke markers" d=" M 250 255 C 250 235.11774720000005 296.5623808 219 354 219 C 411.4376192 219 458 235.11774720000005 458 255 C 458 274.88225279999995 411.4376192 291 354 291 C 296.5623808 291 250 274.88225279999995 250 255 Z" stroke-miterlimit="10" stroke-dasharray=""/></g><g><g><path fill="none" stroke="none"/><text fill="#000000" stroke="none" font-family="Arial" font-size="13px" font-style="normal" font-weight="bold" text-decoration="undefined" x="891" y="638" text-anchor="middle" dominant-baseline="central" transform="matrix(1 0 0 1 -537 -395)">UC[36] Aggiunta di un</text><text fill="#000000" stroke="none" font-family="Arial" font-size="13px" font-style="normal" font-weight="bold" text-decoration="undefined" x="891" y="651" text-anchor="middle" dominant-baseline="central" transform="matrix(1 0 0 1 -537 -395)">blocco ad una routine</text><text fill="#000000" stroke="none" font-family="Arial" font-size="13px" font-style="normal" font-weight="bold" text-decoration="undefined" x="891" y="664" text-anchor="middle" dominant-baseline="central" transform="matrix(1 0 0 1 -537 -395)">esistente</text></g></g><g><path fill="none" stroke="#000000" paint-order="fill stroke markers" d=" M 184 259 L 250 259" stroke-miterlimit="10" stroke-dasharray=""/></g><g><path fill="#C0C0C0" stroke="none" paint-order="stroke fill markers" d=" M 289 414 C 289 394.11774720000005 321.2354944 378 361 378 C 400.7645056 378 433 394.11774720000005 433 414 C 433 433.88225279999995 400.7645056 450 361 450 C 321.2354944 450 289 433.88225279999995 289 414 Z" fill-opacity="0.2"/></g><g><path fill="#ffffff" stroke="none" paint-order="stroke fill markers" d=" M 282 407 C 282 387.11774720000005 314.2354944 371 354 371 C 393.7645056 371 426 387.11774720000005 426 407 C 426 426.88225279999995 393.7645056 443 354 443 C 314.2354944 443 282 426.88225279999995 282 407 Z"/></g><g><path fill="none" stroke="#000000" paint-order="fill stroke markers" d=" M 282 407 C 282 387.11774720000005 314.2354944 371 354 371 C 393.7645056 371 426 387.11774720000005 426 407 C 426 426.88225279999995 393.7645056 443 354 443 C 314.2354944 443 282 426.88225279999995 282 407 Z" stroke-miterlimit="10" stroke-dasharray=""/></g><g><g><path fill="none" stroke="none"/><text fill="#000000" stroke="none" font-family="Arial" font-size="13px" font-style="normal" font-weight="bold" text-decoration="undefined" x="891" y="796.5" text-anchor="middle" dominant-baseline="central" transform="matrix(1 0 0 1 -537 -395)">UC[8] Errore</text><text fill="#000000" stroke="none" font-family="Arial" font-size="13px" font-style="normal" font-weight="bold" text-decoration="undefined" x="891" y="809.5" text-anchor="middle" dominant-baseline="central" transform="matrix(1 0 0 1 -537 -395)">Generico</text></g></g><g><path fill="none" stroke="#000000" paint-order="fill stroke markers" d=" M 354 371 L 354 291" stroke-miterlimit="10" stroke-dasharray="3"/></g><g><path fill="none" stroke="#000000" paint-order="fill stroke markers" d=" M 358.209517756016 301.1626748576241 L 354 291 L 349.790482243984 301.1626748576241" stroke-miterlimit="10" stroke-dasharray=""/></g><g><rect fill="#ffffff" stroke="none" x="827" y="742" width="53.49169921875" height="13" transform="matrix(1 0 0 1 -537 -395)"/></g><g><g><path fill="none" stroke="none"/><text fill="#000000" stroke="none" font-family="Arial" font-size="13px" font-style="normal" font-weight="normal" text-decoration="undefined" x="853.745849609375" y="748.5" text-anchor="middle" dominant-baseline="central" transform="matrix(1 0 0 1 -537 -395)">«extend»</text></g></g><g><path fill="#C0C0C0" stroke="none" paint-order="stroke fill markers" d=" M 569 79 C 569 54.14718399999998 620.9349632000001 34 685 34 C 749.0650367999999 34 801 54.14718399999998 801 79 C 801 103.85281600000002 749.0650367999999 124 685 124 C 620.9349632000001 124 569 103.85281600000002 569 79 Z" fill-opacity="0.2"/></g><g><path fill="#ffffff" stroke="none" paint-order="stroke fill markers" d=" M 562 72 C 562 47.14718399999998 613.9349632000001 27 678 27 C 742.0650367999999 27 794 47.14718399999998 794 72 C 794 96.85281600000002 742.0650367999999 117 678 117 C 613.9349632000001 117 562 96.85281600000002 562 72 Z"/></g><g><path fill="none" stroke="#000000" paint-order="fill stroke markers" d=" M 562 72 C 562 47.14718399999998 613.9349632000001 27 678 27 C 742.0650367999999 27 794 47.14718399999998 794 72 C 794 96.85281600000002 742.0650367999999 117 678 117 C 613.9349632000001 117 562 96.85281600000002 562 72 Z" stroke-miterlimit="10" stroke-dasharray=""/></g><g><g><path fill="none" stroke="none"/><text fill="#000000" stroke="none" font-family="Arial" font-size="13px" font-style="normal" font-weight="bold" text-decoration="undefined" x="1215" y="448.5" text-anchor="middle" dominant-baseline="central" transform="matrix(1 0 0 1 -537 -395)">UC[37] Aggiunta del</text><text fill="#000000" stroke="none" font-family="Arial" font-size="13px" font-style="normal" font-weight="bold" text-decoration="undefined" x="1215" y="461.5" text-anchor="middle" dominant-baseline="central" transform="matrix(1 0 0 1 -537 -395)">blocco "Telegram - Send</text><text fill="#000000" stroke="none" font-family="Arial" font-size="13px" font-style="normal" font-weight="bold" text-decoration="undefined" x="1215" y="474.5" text-anchor="middle" dominant-baseline="central" transform="matrix(1 0 0 1 -537 -395)">Bot Message" ad una</text><text fill="#000000" stroke="none" font-family="Arial" font-size="13px" font-style="normal" font-weight="bold" text-decoration="undefined" x="1215" y="487.5" text-anchor="middle" dominant-baseline="central" transform="matrix(1 0 0 1 -537 -395)">routine esistente</text></g></g><g><path fill="#ffffff" stroke="none" paint-order="stroke fill markers" d=" M 538 335 C 538 315.11774720000005 597.0984063999999 299 670 299 C 742.9015936000001 299 802 315.11774720000005 802 335 C 802 354.88225279999995 742.9015936000001 371 670 371 C 597.0984063999999 371 538 354.88225279999995 538 335 Z"/></g><g><path fill="none" stroke="#000000" paint-order="fill stroke markers" d=" M 538 335 C 538 315.11774720000005 597.0984063999999 299 670 299 C 742.9015936000001 299 802 315.11774720000005 802 335 C 802 354.88225279999995 742.9015936000001 371 670 371 C 597.0984063999999 371 538 354.88225279999995 538 335 Z" stroke-miterlimit="10" stroke-dasharray=""/></g><g><g><path fill="none" stroke="none"/><text fill="#000000" stroke="none" font-family="Arial" font-size="13px" font-style="normal" font-weight="bold" text-decoration="undefined" x="1207" y="718" text-anchor="middle" dominant-baseline="central" transform="matrix(1 0 0 1 -537 -395)">UC[39] Aggiunta del blocco</text><text fill="#000000" stroke="none" font-family="Arial" font-size="13px" font-style="normal" font-weight="bold" text-decoration="undefined" x="1207" y="731" text-anchor="middle" dominant-baseline="central" transform="matrix(1 0 0 1 -537 -395)">"System - Wait Seconds" ad</text><text fill="#000000" stroke="none" font-family="Arial" font-size="13px" font-style="normal" font-weight="bold" text-decoration="undefined" x="1207" y="744" text-anchor="middle" dominant-baseline="central" transform="matrix(1 0 0 1 -537 -395)">una routine esistente</text></g></g><g><path fill="#C0C0C0" stroke="none" paint-order="stroke fill markers" d=" M 553 190 C 553 170.11774720000005 612.0984063999999 154 685 154 C 757.9015936000001 154 817 170.11774720000005 817 190 C 817 209.88225279999995 757.9015936000001 226 685 226 C 612.0984063999999 226 553 209.88225279999995 553 190 Z" fill-opacity="0.2"/></g><g><path fill="#ffffff" stroke="none" paint-order="stroke fill markers" d=" M 546 183 C 546 163.11774720000005 605.0984063999999 147 678 147 C 750.9015936000001 147 810 163.11774720000005 810 183 C 810 202.88225279999995 750.9015936000001 219 678 219 C 605.0984063999999 219 546 202.88225279999995 546 183 Z"/></g><g><path fill="none" stroke="#000000" paint-order="fill stroke markers" d=" M 546 183 C 546 163.11774720000005 605.0984063999999 147 678 147 C 750.9015936000001 147 810 163.11774720000005 810 183 C 810 202.88225279999995 750.9015936000001 219 678 219 C 605.0984063999999 219 546 202.88225279999995 546 183 Z" stroke-miterlimit="10" stroke-dasharray=""/></g><g><g><path fill="none" stroke="none"/><text fill="#000000" stroke="none" font-family="Arial" font-size="13px" font-style="normal" font-weight="bold" text-decoration="undefined" x="1215" y="566" text-anchor="middle" dominant-baseline="central" transform="matrix(1 0 0 1 -537 -395)">UC[38] Aggiunta del blocco</text><text fill="#000000" stroke="none" font-family="Arial" font-size="13px" font-style="normal" font-weight="bold" text-decoration="undefined" x="1215" y="579" text-anchor="middle" dominant-baseline="central" transform="matrix(1 0 0 1 -537 -395)">"AI - Summarize" ad una</text><text fill="#000000" stroke="none" font-family="Arial" font-size="13px" font-style="normal" font-weight="bold" text-decoration="undefined" x="1215" y="592" text-anchor="middle" dominant-baseline="central" transform="matrix(1 0 0 1 -537 -395)">routine esistente</text></g></g><g><path fill="#C0C0C0" stroke="none" paint-order="stroke fill markers" d=" M 569 447 C 569 422.14718400000004 622.7258240000001 402 689 402 C 755.2741759999999 402 809 422.14718400000004 809 447 C 809 471.85281599999996 755.2741759999999 492 689 492 C 622.7258240000001 492 569 471.85281599999996 569 447 Z" fill-opacity="0.2"/></g><g><path fill="#ffffff" stroke="none" paint-order="stroke fill markers" d=" M 562 440 C 562 415.14718400000004 615.7258240000001 395 682 395 C 748.2741759999999 395 802 415.14718400000004 802 440 C 802 464.85281599999996 748.2741759999999 485 682 485 C 615.7258240000001 485 562 464.85281599999996 562 440 Z"/></g><g><path fill="none" stroke="#000000" paint-order="fill stroke markers" d=" M 562 440 C 562 415.14718400000004 615.7258240000001 395 682 395 C 748.2741759999999 395 802 415.14718400000004 802 440 C 802 464.85281599999996 748.2741759999999 485 682 485 C 615.7258240000001 485 562 464.85281599999996 562 440 Z" stroke-miterlimit="10" stroke-dasharray=""/></g><g><g><path fill="none" stroke="none"/><text fill="#000000" stroke="none" font-family="Arial" font-size="13px" font-style="normal" font-weight="bold" text-decoration="undefined" x="1219" y="816.5" text-anchor="middle" dominant-baseline="central" transform="matrix(1 0 0 1 -537 -395)">UC[40] Aggiunta del</text><text fill="#000000" stroke="none" font-family="Arial" font-size="13px" font-style="normal" font-weight="bold" text-decoration="undefined" x="1219" y="829.5" text-anchor="middle" dominant-baseline="central" transform="matrix(1 0 0 1 -537 -395)">blocco "Notion - Get</text><text fill="#000000" stroke="none" font-family="Arial" font-size="13px" font-style="normal" font-weight="bold" text-decoration="undefined" x="1219" y="842.5" text-anchor="middle" dominant-baseline="central" transform="matrix(1 0 0 1 -537 -395)">Page" ad una routine</text><text fill="#000000" stroke="none" font-family="Arial" font-size="13px" font-style="normal" font-weight="bold" text-decoration="undefined" x="1219" y="855.5" text-anchor="middle" dominant-baseline="central" transform="matrix(1 0 0 1 -537 -395)">esistente</text></g></g><g><path fill="none" stroke="#000000" paint-order="fill stroke markers" d=" M 562 67 L 506 67 L 506 259 L 458 259" stroke-miterlimit="10" stroke-dasharray=""/></g><g><path fill="#FFFFFF" stroke="none" paint-order="stroke fill markers" d=" M 478.3253497152483 250.580964487968 L 458 259 L 478.3253497152483 267.419035512032"/></g><g><path fill="none" stroke="#000000" paint-order="fill stroke markers" d=" M 478.3253497152483 250.580964487968 L 458 259 L 478.3253497152483 267.419035512032 L 478.3253497152483 250.580964487968" stroke-miterlimit="10" stroke-dasharray=""/></g><g><path fill="none" stroke="#000000" paint-order="fill stroke markers" d=" M 538 339 L 506 339 L 506 259 L 458 259" stroke-miterlimit="10" stroke-dasharray=""/></g><g><path fill="#FFFFFF" stroke="none" paint-order="stroke fill markers" d=" M 478.3253497152483 250.580964487968 L 458 259 L 478.3253497152483 267.419035512032"/></g><g><path fill="none" stroke="#000000" paint-order="fill stroke markers" d=" M 478.3253497152483 250.580964487968 L 458 259 L 478.3253497152483 267.419035512032 L 478.3253497152483 250.580964487968" stroke-miterlimit="10" stroke-dasharray=""/></g><g><path fill="none" stroke="#000000" paint-order="fill stroke markers" d=" M 562 440 L 506 440 L 506 259 L 458 259" stroke-miterlimit="10" stroke-dasharray=""/></g><g><path fill="#FFFFFF" stroke="none" paint-order="stroke fill markers" d=" M 478.3253497152483 250.580964487968 L 458 259 L 478.3253497152483 267.419035512032"/></g><g><path fill="none" stroke="#000000" paint-order="fill stroke markers" d=" M 478.3253497152483 250.580964487968 L 458 259 L 478.3253497152483 267.419035512032 L 478.3253497152483 250.580964487968" stroke-miterlimit="10" stroke-dasharray=""/></g><g><path fill="none" stroke="#000000" paint-order="fill stroke markers" d=" M 546 179 L 506 179 L 506 259 L 458 259" stroke-miterlimit="10" stroke-dasharray=""/></g><g><path fill="#FFFFFF" stroke="none" paint-order="stroke fill markers" d=" M 478.3253497152483 250.580964487968 L 458 259 L 478.3253497152483 267.419035512032"/></g><g><path fill="none" stroke="#000000" paint-order="fill stroke markers" d=" M 478.3253497152483 250.580964487968 L 458 259 L 478.3253497152483 267.419035512032 L 478.3253497152483 250.580964487968" stroke-miterlimit="10" stroke-dasharray=""/></g></g></svg>