<svg version="1.1" xmlns="http://www.w3.org/2000/svg" xmlns:xlink="http://www.w3.org/1999/xlink" width="821" height="351"><defs/><g><g><rect fill="#C0C0C0" stroke="none" x="779" y="495" width="583" height="331" transform="matrix(1 0 0 1 -545 -478)" fill-opacity="0.2"/></g><g><rect fill="#ffffff" stroke="none" x="772" y="488" width="583" height="331" transform="matrix(1 0 0 1 -545 -478)"/></g><g><path fill="none" stroke="#000000" paint-order="fill stroke markers" d=" M 227 10 L 810 10 L 810 341 L 227 341 L 227 10 Z Z" stroke-miterlimit="10" stroke-dasharray=""/></g><g><g><path fill="none" stroke="none"/><text fill="#000000" stroke="none" font-family="Arial" font-size="13px" font-style="normal" font-weight="bold" text-decoration="undefined" x="1064" y="501.5" text-anchor="middle" dominant-baseline="central" transform="matrix(1 0 0 1 -545 -478)">Sistema</text></g></g><g><path fill="#C0C0C0" stroke="none" paint-order="stroke fill markers" d=" M 569 96 C 569 76.11774720000005 610.1897984 60 661 60 C 711.8102016 60 753 76.11774720000005 753 96 C 753 115.88225279999995 711.8102016 132 661 132 C 610.1897984 132 569 115.88225279999995 569 96 Z" fill-opacity="0.2"/></g><g><path fill="#ffffff" stroke="none" paint-order="stroke fill markers" d=" M 562 89 C 562 69.11774720000005 603.1897984 53 654 53 C 704.8102016 53 746 69.11774720000005 746 89 C 746 108.88225279999995 704.8102016 125 654 125 C 603.1897984 125 562 108.88225279999995 562 89 Z"/></g><g><path fill="none" stroke="#000000" paint-order="fill stroke markers" d=" M 562 89 C 562 69.11774720000005 603.1897984 53 654 53 C 704.8102016 53 746 69.11774720000005 746 89 C 746 108.88225279999995 704.8102016 125 654 125 C 603.1897984 125 562 108.88225279999995 562 89 Z" stroke-miterlimit="10" stroke-dasharray=""/></g><g><g><path fill="none" stroke="none"/><text fill="#000000" stroke="none" font-family="Arial" font-size="13px" font-style="normal" font-weight="bold" text-decoration="undefined" x="1199" y="555" text-anchor="middle" dominant-baseline="central" transform="matrix(1 0 0 1 -545 -478)">UC[33] Avviare una</text><text fill="#000000" stroke="none" font-family="Arial" font-size="13px" font-style="normal" font-weight="bold" text-decoration="undefined" x="1199" y="568" text-anchor="middle" dominant-baseline="central" transform="matrix(1 0 0 1 -545 -478)">routine esistente</text><text fill="#000000" stroke="none" font-family="Arial" font-size="13px" font-style="normal" font-weight="bold" text-decoration="undefined" x="1199" y="581" text-anchor="middle" dominant-baseline="central" transform="matrix(1 0 0 1 -545 -478)">dalla dashboard</text></g></g><g><path fill="#ffffff" stroke="none" paint-order="stroke fill markers" d=" M 88.14632812499997 142.85000000000002 C 88.14632812499997 137.96227952000004 92.10413049299996 134 96.986328125 134 C 101.86852575700004 134 105.82632812500003 137.96227952000004 105.82632812500003 142.85000000000002 C 105.82632812500003 147.73772048 101.86852575700004 151.70000000000005 96.986328125 151.70000000000005 C 92.10413049299996 151.70000000000005 88.14632812499997 147.73772048 88.14632812499997 142.85000000000002 Z"/></g><g><path fill="none" stroke="#000000" paint-order="fill stroke markers" d=" M 88.14632812499997 142.85000000000002 C 88.14632812499997 137.96227952000004 92.10413049299996 134 96.986328125 134 C 101.86852575700004 134 105.82632812500003 137.96227952000004 105.82632812500003 142.85000000000002 C 105.82632812500003 147.73772048 101.86852575700004 151.70000000000005 96.986328125 151.70000000000005 C 92.10413049299996 151.70000000000005 88.14632812499997 147.73772048 88.14632812499997 142.85000000000002 Z" stroke-miterlimit="10" stroke-dasharray=""/></g><g><path fill="none" stroke="#000000" paint-order="fill stroke markers" d=" M 96.986328125 151.70000000000005 L 96.986328125 169.29999999999995" stroke-miterlimit="10" stroke-dasharray=""/></g><g><path fill="none" stroke="#000000" paint-order="fill stroke markers" d=" M 87.62632812499999 158.29999999999995 L 106.34632812500001 158.29999999999995" stroke-miterlimit="10" stroke-dasharray=""/></g><g><path fill="none" stroke="#000000" paint-order="fill stroke markers" d=" M 96.986328125 169.29999999999995 L 83.986328125 187" stroke-miterlimit="10" stroke-dasharray=""/></g><g><path fill="none" stroke="#000000" paint-order="fill stroke markers" d=" M 96.986328125 169.29999999999995 L 109.986328125 187" stroke-miterlimit="10" stroke-dasharray=""/></g><g><g><path fill="none" stroke="none"/><text fill="#000000" stroke="none" font-family="Arial" font-size="13px" font-style="normal" font-weight="bold" text-decoration="undefined" x="642.486328125" y="679.5" text-anchor="middle" dominant-baseline="central" transform="matrix(1 0 0 1 -545 -478)">Utente autenticato</text></g></g><g><path fill="#C0C0C0" stroke="none" paint-order="stroke fill markers" d=" M 337 177 C 337 152.14718400000004 365.65377279999996 132 401 132 C 436.34622720000004 132 465 152.14718400000004 465 177 C 465 201.85281599999996 436.34622720000004 222 401 222 C 365.65377279999996 222 337 201.85281599999996 337 177 Z" fill-opacity="0.2"/></g><g><path fill="#ffffff" stroke="none" paint-order="stroke fill markers" d=" M 330 170 C 330 145.14718400000004 358.65377279999996 125 394 125 C 429.34622720000004 125 458 145.14718400000004 458 170 C 458 194.85281599999996 429.34622720000004 215 394 215 C 358.65377279999996 215 330 194.85281599999996 330 170 Z"/></g><g><path fill="none" stroke="#000000" paint-order="fill stroke markers" d=" M 330 170 C 330 145.14718400000004 358.65377279999996 125 394 125 C 429.34622720000004 125 458 145.14718400000004 458 170 C 458 194.85281599999996 429.34622720000004 215 394 215 C 358.65377279999996 215 330 194.85281599999996 330 170 Z" stroke-miterlimit="10" stroke-dasharray=""/></g><g><g><path fill="none" stroke="none"/><text fill="#000000" stroke="none" font-family="Arial" font-size="13px" font-style="normal" font-weight="bold" text-decoration="undefined" x="939" y="629.5" text-anchor="middle" dominant-baseline="central" transform="matrix(1 0 0 1 -545 -478)">UC[32]</text><text fill="#000000" stroke="none" font-family="Arial" font-size="13px" font-style="normal" font-weight="bold" text-decoration="undefined" x="939" y="642.5" text-anchor="middle" dominant-baseline="central" transform="matrix(1 0 0 1 -545 -478)">Avviare una</text><text fill="#000000" stroke="none" font-family="Arial" font-size="13px" font-style="normal" font-weight="bold" text-decoration="undefined" x="939" y="655.5" text-anchor="middle" dominant-baseline="central" transform="matrix(1 0 0 1 -545 -478)">routine</text><text fill="#000000" stroke="none" font-family="Arial" font-size="13px" font-style="normal" font-weight="bold" text-decoration="undefined" x="939" y="668.5" text-anchor="middle" dominant-baseline="central" transform="matrix(1 0 0 1 -545 -478)">esistente</text></g></g><g><path fill="none" stroke="#000000" paint-order="fill stroke markers" d=" M 184 167 L 330 167" stroke-miterlimit="10" stroke-dasharray=""/></g><g><path fill="#C0C0C0" stroke="none" paint-order="stroke fill markers" d=" M 561 193 C 561 168.14718400000004 609.3532416 148 669 148 C 728.6467584 148 777 168.14718400000004 777 193 C 777 217.85281599999996 728.6467584 238 669 238 C 609.3532416 238 561 217.85281599999996 561 193 Z" fill-opacity="0.2"/></g><g><path fill="#ffffff" stroke="none" paint-order="stroke fill markers" d=" M 554 186 C 554 161.14718400000004 602.3532416 141 662 141 C 721.6467584 141 770 161.14718400000004 770 186 C 770 210.85281599999996 721.6467584 231 662 231 C 602.3532416 231 554 210.85281599999996 554 186 Z"/></g><g><path fill="none" stroke="#000000" paint-order="fill stroke markers" d=" M 554 186 C 554 161.14718400000004 602.3532416 141 662 141 C 721.6467584 141 770 161.14718400000004 770 186 C 770 210.85281599999996 721.6467584 231 662 231 C 602.3532416 231 554 210.85281599999996 554 186 Z" stroke-miterlimit="10" stroke-dasharray=""/></g><g><g><path fill="none" stroke="none"/><text fill="#000000" stroke="none" font-family="Arial" font-size="13px" font-style="normal" font-weight="bold" text-decoration="undefined" x="1207" y="645.5" text-anchor="middle" dominant-baseline="central" transform="matrix(1 0 0 1 -545 -478)">UC[34] Avviare una</text><text fill="#000000" stroke="none" font-family="Arial" font-size="13px" font-style="normal" font-weight="bold" text-decoration="undefined" x="1207" y="658.5" text-anchor="middle" dominant-baseline="central" transform="matrix(1 0 0 1 -545 -478)">routine esistente</text><text fill="#000000" stroke="none" font-family="Arial" font-size="13px" font-style="normal" font-weight="bold" text-decoration="undefined" x="1207" y="671.5" text-anchor="middle" dominant-baseline="central" transform="matrix(1 0 0 1 -545 -478)">tramite la pagina di</text><text fill="#000000" stroke="none" font-family="Arial" font-size="13px" font-style="normal" font-weight="bold" text-decoration="undefined" x="1207" y="684.5" text-anchor="middle" dominant-baseline="central" transform="matrix(1 0 0 1 -545 -478)">modifica del flusso</text></g></g><g><path fill="none" stroke="#000000" paint-order="fill stroke markers" d=" M 554 186 L 506 186 L 506 173 L 458 173" stroke-miterlimit="10" stroke-dasharray=""/></g><g><path fill="#FFFFFF" stroke="none" paint-order="stroke fill markers" d=" M 478.3253497152483 164.580964487968 L 458 173 L 478.3253497152483 181.419035512032"/></g><g><path fill="none" stroke="#000000" paint-order="fill stroke markers" d=" M 478.3253497152483 164.580964487968 L 458 173 L 478.3253497152483 181.419035512032 L 478.3253497152483 164.580964487968" stroke-miterlimit="10" stroke-dasharray=""/></g><g><path fill="none" stroke="#000000" paint-order="fill stroke markers" d=" M 562 85 L 506 85 L 506 173 L 458 173" stroke-miterlimit="10" stroke-dasharray=""/></g><g><path fill="#FFFFFF" stroke="none" paint-order="stroke fill markers" d=" M 478.3253497152483 164.580964487968 L 458 173 L 478.3253497152483 181.419035512032"/></g><g><path fill="none" stroke="#000000" paint-order="fill stroke markers" d=" M 478.3253497152483 164.580964487968 L 458 173 L 478.3253497152483 181.419035512032 L 478.3253497152483 164.580964487968" stroke-miterlimit="10" stroke-dasharray=""/></g><g><path fill="#C0C0C0" stroke="none" paint-order="stroke fill markers" d=" M 329 288 C 329 268.11774720000005 361.2354944 252 401 252 C 440.7645056 252 473 268.11774720000005 473 288 C 473 307.88225279999995 440.7645056 324 401 324 C 361.2354944 324 329 307.88225279999995 329 288 Z" fill-opacity="0.2"/></g><g><path fill="#ffffff" stroke="none" paint-order="stroke fill markers" d=" M 322 281 C 322 261.11774720000005 354.2354944 245 394 245 C 433.7645056 245 466 261.11774720000005 466 281 C 466 300.88225279999995 433.7645056 317 394 317 C 354.2354944 317 322 300.88225279999995 322 281 Z"/></g><g><path fill="none" stroke="#000000" paint-order="fill stroke markers" d=" M 322 281 C 322 261.11774720000005 354.2354944 245 394 245 C 433.7645056 245 466 261.11774720000005 466 281 C 466 300.88225279999995 433.7645056 317 394 317 C 354.2354944 317 322 300.88225279999995 322 281 Z" stroke-miterlimit="10" stroke-dasharray=""/></g><g><g><path fill="none" stroke="none"/><text fill="#000000" stroke="none" font-family="Arial" font-size="13px" font-style="normal" font-weight="bold" text-decoration="undefined" x="939" y="753.5" text-anchor="middle" dominant-baseline="central" transform="matrix(1 0 0 1 -545 -478)">UC[8] Errore</text><text fill="#000000" stroke="none" font-family="Arial" font-size="13px" font-style="normal" font-weight="bold" text-decoration="undefined" x="939" y="766.5" text-anchor="middle" dominant-baseline="central" transform="matrix(1 0 0 1 -545 -478)">Generico</text></g></g><g><path fill="none" stroke="#000000" paint-order="fill stroke markers" d=" M 394 245 L 394 215" stroke-miterlimit="10" stroke-dasharray="3"/></g><g><path fill="none" stroke="#000000" paint-order="fill stroke markers" d=" M 398.209517756016 225.1626748576241 L 394 215 L 389.790482243984 225.1626748576241" stroke-miterlimit="10" stroke-dasharray=""/></g><g><rect fill="#ffffff" stroke="none" x="867" y="707" width="53.49169921875" height="13" transform="matrix(1 0 0 1 -545 -478)"/></g><g><g><path fill="none" stroke="none"/><text fill="#000000" stroke="none" font-family="Arial" font-size="13px" font-style="normal" font-weight="normal" text-decoration="undefined" x="893.745849609375" y="713.5" text-anchor="middle" dominant-baseline="central" transform="matrix(1 0 0 1 -545 -478)">«extend»</text></g></g><g><path fill="#C0C0C0" stroke="none" paint-order="stroke fill markers" d=" M 329 64 C 329 44.11774720000005 361.2354944 28 401 28 C 440.7645056 28 473 44.11774720000005 473 64 C 473 83.88225279999995 440.7645056 100 401 100 C 361.2354944 100 329 83.88225279999995 329 64 Z" fill-opacity="0.2"/></g><g><path fill="#ffffff" stroke="none" paint-order="stroke fill markers" d=" M 322 57 C 322 37.11774720000005 354.2354944 21 394 21 C 433.7645056 21 466 37.11774720000005 466 57 C 466 76.88225279999995 433.7645056 93 394 93 C 354.2354944 93 322 76.88225279999995 322 57 Z"/></g><g><path fill="none" stroke="#000000" paint-order="fill stroke markers" d=" M 322 57 C 322 37.11774720000005 354.2354944 21 394 21 C 433.7645056 21 466 37.11774720000005 466 57 C 466 76.88225279999995 433.7645056 93 394 93 C 354.2354944 93 322 76.88225279999995 322 57 Z" stroke-miterlimit="10" stroke-dasharray=""/></g><g><g><path fill="none" stroke="none"/><text fill="#000000" stroke="none" font-family="Arial" font-size="13px" font-style="normal" font-weight="bold" text-decoration="undefined" x="939" y="523" text-anchor="middle" dominant-baseline="central" transform="matrix(1 0 0 1 -545 -478)">UC[30] Errore</text><text fill="#000000" stroke="none" font-family="Arial" font-size="13px" font-style="normal" font-weight="bold" text-decoration="undefined" x="939" y="536" text-anchor="middle" dominant-baseline="central" transform="matrix(1 0 0 1 -545 -478)">«Workflow</text><text fill="#000000" stroke="none" font-family="Arial" font-size="13px" font-style="normal" font-weight="bold" text-decoration="undefined" x="939" y="549" text-anchor="middle" dominant-baseline="central" transform="matrix(1 0 0 1 -545 -478)">non trovato»</text></g></g><g><path fill="none" stroke="#000000" paint-order="fill stroke markers" d=" M 394 94 L 394 124" stroke-miterlimit="10" stroke-dasharray="3"/></g><g><path fill="none" stroke="#000000" paint-order="fill stroke markers" d=" M 389.790482243984 113.8373251423759 L 394 124 L 398.209517756016 113.8373251423759" stroke-miterlimit="10" stroke-dasharray=""/></g><g><rect fill="#ffffff" stroke="none" x="867" y="578" width="53.49169921875" height="13" transform="matrix(1 0 0 1 -545 -478)"/></g><g><g><path fill="none" stroke="none"/><text fill="#000000" stroke="none" font-family="Arial" font-size="13px" font-style="normal" font-weight="normal" text-decoration="undefined" x="893.745849609375" y="584.5" text-anchor="middle" dominant-baseline="central" transform="matrix(1 0 0 1 -545 -478)">«extend»</text></g></g><g><path fill="#C0C0C0" stroke="none" paint-order="stroke fill markers" d=" M 569 304 C 569 284.11774720000005 615.5623808 268 673 268 C 730.4376192 268 777 284.11774720000005 777 304 C 777 323.88225279999995 730.4376192 340 673 340 C 615.5623808 340 569 323.88225279999995 569 304 Z" fill-opacity="0.2"/></g><g><path fill="#ffffff" stroke="none" paint-order="stroke fill markers" d=" M 562 297 C 562 277.11774720000005 608.5623808 261 666 261 C 723.4376192 261 770 277.11774720000005 770 297 C 770 316.88225279999995 723.4376192 333 666 333 C 608.5623808 333 562 316.88225279999995 562 297 Z"/></g><g><path fill="none" stroke="#000000" paint-order="fill stroke markers" d=" M 562 297 C 562 277.11774720000005 608.5623808 261 666 261 C 723.4376192 261 770 277.11774720000005 770 297 C 770 316.88225279999995 723.4376192 333 666 333 C 608.5623808 333 562 316.88225279999995 562 297 Z" stroke-miterlimit="10" stroke-dasharray=""/></g><g><g><path fill="none" stroke="none"/><text fill="#000000" stroke="none" font-family="Arial" font-size="13px" font-style="normal" font-weight="bold" text-decoration="undefined" x="1211" y="763" text-anchor="middle" dominant-baseline="central" transform="matrix(1 0 0 1 -545 -478)">UC[35] Errore</text><text fill="#000000" stroke="none" font-family="Arial" font-size="13px" font-style="normal" font-weight="bold" text-decoration="undefined" x="1211" y="776" text-anchor="middle" dominant-baseline="central" transform="matrix(1 0 0 1 -545 -478)">«Impossibile eseguire</text><text fill="#000000" stroke="none" font-family="Arial" font-size="13px" font-style="normal" font-weight="bold" text-decoration="undefined" x="1211" y="789" text-anchor="middle" dominant-baseline="central" transform="matrix(1 0 0 1 -545 -478)">il flusso»</text></g></g><g><path fill="none" stroke="#000000" paint-order="fill stroke markers" d=" M 562 293 L 506 293 L 506 237 L 394 237 L 394 215" stroke-miterlimit="10" stroke-dasharray="3"/></g><g><path fill="none" stroke="#000000" paint-order="fill stroke markers" d=" M 398.209517756016 225.1626748576241 L 394 215 L 389.790482243984 225.1626748576241" stroke-miterlimit="10" stroke-dasharray=""/></g><g><rect fill="#ffffff" stroke="none" x="1051" y="778" width="53.49169921875" height="13" transform="matrix(1 0 0 1 -545 -478)"/></g><g><g><path fill="none" stroke="none"/><text fill="#000000" stroke="none" font-family="Arial" font-size="13px" font-style="normal" font-weight="normal" text-decoration="undefined" x="1077.745849609375" y="784.5" text-anchor="middle" dominant-baseline="central" transform="matrix(1 0 0 1 -545 -478)">«extend»</text></g></g></g></svg>