<svg version="1.1" xmlns="http://www.w3.org/2000/svg" xmlns:xlink="http://www.w3.org/1999/xlink" width="546" height="205"><defs/><g><g><rect fill="#C0C0C0" stroke="none" x="898" y="568" width="327" height="185" transform="matrix(1 0 0 1 -683 -551)" fill-opacity="0.2"/></g><g><rect fill="#ffffff" stroke="none" x="891" y="561" width="327" height="185" transform="matrix(1 0 0 1 -683 -551)"/></g><g><path fill="none" stroke="#000000" paint-order="fill stroke markers" d=" M 208 10 L 535 10 L 535 195 L 208 195 L 208 10 Z Z" stroke-miterlimit="10" stroke-dasharray=""/></g><g><g><path fill="none" stroke="none"/><text fill="#000000" stroke="none" font-family="Arial" font-size="13px" font-style="normal" font-weight="bold" text-decoration="undefined" x="1055" y="574.5" text-anchor="middle" dominant-baseline="central" transform="matrix(1 0 0 1 -683 -551)">Sistema</text></g></g><g><path fill="#ffffff" stroke="none" paint-order="stroke fill markers" d=" M 88.14632812499997 68.85000000000002 C 88.14632812499997 63.96227952000004 92.10413049299996 60 96.986328125 60 C 101.86852575700004 60 105.82632812500003 63.96227952000004 105.82632812500003 68.85000000000002 C 105.82632812500003 73.73772048000001 101.86852575700004 77.70000000000005 96.986328125 77.70000000000005 C 92.10413049299996 77.70000000000005 88.14632812499997 73.73772048000001 88.14632812499997 68.85000000000002 Z"/></g><g><path fill="none" stroke="#000000" paint-order="fill stroke markers" d=" M 88.14632812499997 68.85000000000002 C 88.14632812499997 63.96227952000004 92.10413049299996 60 96.986328125 60 C 101.86852575700004 60 105.82632812500003 63.96227952000004 105.82632812500003 68.85000000000002 C 105.82632812500003 73.73772048000001 101.86852575700004 77.70000000000005 96.986328125 77.70000000000005 C 92.10413049299996 77.70000000000005 88.14632812499997 73.73772048000001 88.14632812499997 68.85000000000002 Z" stroke-miterlimit="10" stroke-dasharray=""/></g><g><path fill="none" stroke="#000000" paint-order="fill stroke markers" d=" M 96.986328125 77.70000000000005 L 96.986328125 95.29999999999995" stroke-miterlimit="10" stroke-dasharray=""/></g><g><path fill="none" stroke="#000000" paint-order="fill stroke markers" d=" M 87.62632812499999 84.29999999999995 L 106.34632812500001 84.29999999999995" stroke-miterlimit="10" stroke-dasharray=""/></g><g><path fill="none" stroke="#000000" paint-order="fill stroke markers" d=" M 96.986328125 95.29999999999995 L 83.986328125 113" stroke-miterlimit="10" stroke-dasharray=""/></g><g><path fill="none" stroke="#000000" paint-order="fill stroke markers" d=" M 96.986328125 95.29999999999995 L 109.986328125 113" stroke-miterlimit="10" stroke-dasharray=""/></g><g><g><path fill="none" stroke="none"/><text fill="#000000" stroke="none" font-family="Arial" font-size="13px" font-style="normal" font-weight="bold" text-decoration="undefined" x="780.486328125" y="678.5" text-anchor="middle" dominant-baseline="central" transform="matrix(1 0 0 1 -683 -551)">Utente autenticato</text></g></g><g><path fill="#C0C0C0" stroke="none" paint-order="stroke fill markers" d=" M 281 110 C 281 90.11774720000005 325.77152 74 381 74 C 436.22848 74 481 90.11774720000005 481 110 C 481 129.88225279999995 436.22848 146 381 146 C 325.77152 146 281 129.88225279999995 281 110 Z" fill-opacity="0.2"/></g><g><path fill="#ffffff" stroke="none" paint-order="stroke fill markers" d=" M 274 103 C 274 83.11774720000005 318.77152 67 374 67 C 429.22848 67 474 83.11774720000005 474 103 C 474 122.88225279999995 429.22848 139 374 139 C 318.77152 139 274 122.88225279999995 274 103 Z"/></g><g><path fill="none" stroke="#000000" paint-order="fill stroke markers" d=" M 274 103 C 274 83.11774720000005 318.77152 67 374 67 C 429.22848 67 474 83.11774720000005 474 103 C 474 122.88225279999995 429.22848 139 374 139 C 318.77152 139 274 122.88225279999995 274 103 Z" stroke-miterlimit="10" stroke-dasharray=""/></g><g><g><path fill="none" stroke="none"/><text fill="#000000" stroke="none" font-family="Arial" font-size="13px" font-style="normal" font-weight="bold" text-decoration="undefined" x="1057" y="642" text-anchor="middle" dominant-baseline="central" transform="matrix(1 0 0 1 -683 -551)">UC[53] Collegare</text><text fill="#000000" stroke="none" font-family="Arial" font-size="13px" font-style="normal" font-weight="bold" text-decoration="undefined" x="1057" y="655" text-anchor="middle" dominant-baseline="central" transform="matrix(1 0 0 1 -683 -551)">due blocchi di una</text><text fill="#000000" stroke="none" font-family="Arial" font-size="13px" font-style="normal" font-weight="bold" text-decoration="undefined" x="1057" y="668" text-anchor="middle" dominant-baseline="central" transform="matrix(1 0 0 1 -683 -551)">routine esistente</text></g></g><g><path fill="none" stroke="#000000" paint-order="fill stroke markers" d=" M 184 99 L 274 99" stroke-miterlimit="10" stroke-dasharray=""/></g></g></svg>