<svg version="1.1" xmlns="http://www.w3.org/2000/svg" xmlns:xlink="http://www.w3.org/1999/xlink" width="717" height="324"><defs/><g><g><rect fill="#C0C0C0" stroke="none" x="807" y="508" width="503" height="304" transform="matrix(1 0 0 1 -597 -491)" fill-opacity="0.2"/></g><g><rect fill="#ffffff" stroke="none" x="800" y="501" width="503" height="304" transform="matrix(1 0 0 1 -597 -491)"/></g><g><path fill="none" stroke="#000000" paint-order="fill stroke markers" d=" M 203 10 L 706 10 L 706 314 L 203 314 L 203 10 Z Z" stroke-miterlimit="10" stroke-dasharray=""/></g><g><g><path fill="none" stroke="none"/><text fill="#000000" stroke="none" font-family="Arial" font-size="13px" font-style="normal" font-weight="bold" text-decoration="undefined" x="1052" y="514.5" text-anchor="middle" dominant-baseline="central" transform="matrix(1 0 0 1 -597 -491)">Sistema</text></g></g><g><path fill="#ffffff" stroke="none" paint-order="stroke fill markers" d=" M 88.14632812499997 72.85000000000002 C 88.14632812499997 67.96227952000004 92.10413049299996 64 96.986328125 64 C 101.86852575700004 64 105.82632812500003 67.96227952000004 105.82632812500003 72.85000000000002 C 105.82632812500003 77.73772048000001 101.86852575700004 81.70000000000005 96.986328125 81.70000000000005 C 92.10413049299996 81.70000000000005 88.14632812499997 77.73772048000001 88.14632812499997 72.85000000000002 Z"/></g><g><path fill="none" stroke="#000000" paint-order="fill stroke markers" d=" M 88.14632812499997 72.85000000000002 C 88.14632812499997 67.96227952000004 92.10413049299996 64 96.986328125 64 C 101.86852575700004 64 105.82632812500003 67.96227952000004 105.82632812500003 72.85000000000002 C 105.82632812500003 77.73772048000001 101.86852575700004 81.70000000000005 96.986328125 81.70000000000005 C 92.10413049299996 81.70000000000005 88.14632812499997 77.73772048000001 88.14632812499997 72.85000000000002 Z" stroke-miterlimit="10" stroke-dasharray=""/></g><g><path fill="none" stroke="#000000" paint-order="fill stroke markers" d=" M 96.986328125 81.70000000000005 L 96.986328125 99.29999999999995" stroke-miterlimit="10" stroke-dasharray=""/></g><g><path fill="none" stroke="#000000" paint-order="fill stroke markers" d=" M 87.62632812499999 88.29999999999995 L 106.34632812500001 88.29999999999995" stroke-miterlimit="10" stroke-dasharray=""/></g><g><path fill="none" stroke="#000000" paint-order="fill stroke markers" d=" M 96.986328125 99.29999999999995 L 83.986328125 117" stroke-miterlimit="10" stroke-dasharray=""/></g><g><path fill="none" stroke="#000000" paint-order="fill stroke markers" d=" M 96.986328125 99.29999999999995 L 109.986328125 117" stroke-miterlimit="10" stroke-dasharray=""/></g><g><g><path fill="none" stroke="none"/><text fill="#000000" stroke="none" font-family="Arial" font-size="13px" font-style="normal" font-weight="bold" text-decoration="undefined" x="694.486328125" y="622.5" text-anchor="middle" dominant-baseline="central" transform="matrix(1 0 0 1 -597 -491)">Utente autenticato</text></g></g><g><path fill="#C0C0C0" stroke="none" paint-order="stroke fill markers" d=" M 297 106 C 297 86.11774720000005 334.60807680000005 70 381 70 C 427.39192320000006 70 465 86.11774720000005 465 106 C 465 125.88225279999995 427.39192320000006 142 381 142 C 334.60807680000005 142 297 125.88225279999995 297 106 Z" fill-opacity="0.2"/></g><g><path fill="#ffffff" stroke="none" paint-order="stroke fill markers" d=" M 290 99 C 290 79.11774720000005 327.60807680000005 63 374 63 C 420.39192319999995 63 458 79.11774720000005 458 99 C 458 118.88225279999995 420.39192319999995 135 374 135 C 327.60807680000005 135 290 118.88225279999995 290 99 Z"/></g><g><path fill="none" stroke="#000000" paint-order="fill stroke markers" d=" M 290 99 C 290 79.11774720000005 327.60807680000005 63 374 63 C 420.39192319999995 63 458 79.11774720000005 458 99 C 458 118.88225279999995 420.39192319999995 135 374 135 C 327.60807680000005 135 290 118.88225279999995 290 99 Z" stroke-miterlimit="10" stroke-dasharray=""/></g><g><g><path fill="none" stroke="none"/><text fill="#000000" stroke="none" font-family="Arial" font-size="13px" font-style="normal" font-weight="bold" text-decoration="undefined" x="971" y="584.5" text-anchor="middle" dominant-baseline="central" transform="matrix(1 0 0 1 -597 -491)">UC[21] Creazione</text><text fill="#000000" stroke="none" font-family="Arial" font-size="13px" font-style="normal" font-weight="bold" text-decoration="undefined" x="971" y="597.5" text-anchor="middle" dominant-baseline="central" transform="matrix(1 0 0 1 -597 -491)">nuova routine</text></g></g><g><path fill="none" stroke="#000000" paint-order="fill stroke markers" d=" M 184 95 L 290 95" stroke-miterlimit="10" stroke-dasharray=""/></g><g><path fill="#C0C0C0" stroke="none" paint-order="stroke fill markers" d=" M 513 98 C 513 78.11774720000005 545.2354944000001 62 585 62 C 624.7645055999999 62 657 78.11774720000005 657 98 C 657 117.88225279999995 624.7645055999999 134 585 134 C 545.2354944000001 134 513 117.88225279999995 513 98 Z" fill-opacity="0.2"/></g><g><path fill="#ffffff" stroke="none" paint-order="stroke fill markers" d=" M 506 91 C 506 71.11774720000005 538.2354944000001 55 578 55 C 617.7645055999999 55 650 71.11774720000005 650 91 C 650 110.88225279999995 617.7645055999999 127 578 127 C 538.2354944000001 127 506 110.88225279999995 506 91 Z"/></g><g><path fill="none" stroke="#000000" paint-order="fill stroke markers" d=" M 506 91 C 506 71.11774720000005 538.2354944000001 55 578 55 C 617.7645055999999 55 650 71.11774720000005 650 91 C 650 110.88225279999995 617.7645055999999 127 578 127 C 538.2354944000001 127 506 110.88225279999995 506 91 Z" stroke-miterlimit="10" stroke-dasharray=""/></g><g><g><path fill="none" stroke="none"/><text fill="#000000" stroke="none" font-family="Arial" font-size="13px" font-style="normal" font-weight="bold" text-decoration="undefined" x="1175" y="576.5" text-anchor="middle" dominant-baseline="central" transform="matrix(1 0 0 1 -597 -491)">UC[8] Errore</text><text fill="#000000" stroke="none" font-family="Arial" font-size="13px" font-style="normal" font-weight="bold" text-decoration="undefined" x="1175" y="589.5" text-anchor="middle" dominant-baseline="central" transform="matrix(1 0 0 1 -597 -491)">Generico</text></g></g><g><path fill="none" stroke="#000000" paint-order="fill stroke markers" d=" M 506 95 L 458 95" stroke-miterlimit="10" stroke-dasharray="3"/></g><g><path fill="none" stroke="#000000" paint-order="fill stroke markers" d=" M 468.1626748576241 90.790482243984 L 458 95 L 468.1626748576241 99.209517756016" stroke-miterlimit="10" stroke-dasharray=""/></g><g><rect fill="#ffffff" stroke="none" x="1059" y="609" width="53.49169921875" height="13" transform="matrix(1 0 0 1 -597 -491)"/></g><g><g><path fill="none" stroke="none"/><text fill="#000000" stroke="none" font-family="Arial" font-size="13px" font-style="normal" font-weight="normal" text-decoration="undefined" x="1085.745849609375" y="615.5" text-anchor="middle" dominant-baseline="central" transform="matrix(1 0 0 1 -597 -491)">«extend»</text></g></g><g><path fill="#C0C0C0" stroke="none" paint-order="stroke fill markers" d=" M 233 258 C 233 238.11774720000005 277.77152 222 333 222 C 388.22848 222 433 238.11774720000005 433 258 C 433 277.88225279999995 388.22848 294 333 294 C 277.77152 294 233 277.88225279999995 233 258 Z" fill-opacity="0.2"/></g><g><path fill="#ffffff" stroke="none" paint-order="stroke fill markers" d=" M 226 251 C 226 231.11774720000005 270.77152 215 326 215 C 381.22848 215 426 231.11774720000005 426 251 C 426 270.88225279999995 381.22848 287 326 287 C 270.77152 287 226 270.88225279999995 226 251 Z"/></g><g><path fill="none" stroke="#000000" paint-order="fill stroke markers" d=" M 226 251 C 226 231.11774720000005 270.77152 215 326 215 C 381.22848 215 426 231.11774720000005 426 251 C 426 270.88225279999995 381.22848 287 326 287 C 270.77152 287 226 270.88225279999995 226 251 Z" stroke-miterlimit="10" stroke-dasharray=""/></g><g><g><path fill="none" stroke="none"/><text fill="#000000" stroke="none" font-family="Arial" font-size="13px" font-style="normal" font-weight="bold" text-decoration="undefined" x="923" y="730" text-anchor="middle" dominant-baseline="central" transform="matrix(1 0 0 1 -597 -491)">UC[22] Errore «Il</text><text fill="#000000" stroke="none" font-family="Arial" font-size="13px" font-style="normal" font-weight="bold" text-decoration="undefined" x="923" y="743" text-anchor="middle" dominant-baseline="central" transform="matrix(1 0 0 1 -597 -491)">Workflow deve avere</text><text fill="#000000" stroke="none" font-family="Arial" font-size="13px" font-style="normal" font-weight="bold" text-decoration="undefined" x="923" y="756" text-anchor="middle" dominant-baseline="central" transform="matrix(1 0 0 1 -597 -491)">un nome»</text></g></g><g><path fill="#C0C0C0" stroke="none" paint-order="stroke fill markers" d=" M 457 258 C 457 238.11774720000005 512.5166847999999 222 581 222 C 649.4833152000001 222 705 238.11774720000005 705 258 C 705 277.88225279999995 649.4833152000001 294 581 294 C 512.5166847999999 294 457 277.88225279999995 457 258 Z" fill-opacity="0.2"/></g><g><path fill="#ffffff" stroke="none" paint-order="stroke fill markers" d=" M 450 251 C 450 231.11774720000005 505.5166847999999 215 574 215 C 642.4833152000001 215 698 231.11774720000005 698 251 C 698 270.88225279999995 642.4833152000001 287 574 287 C 505.5166847999999 287 450 270.88225279999995 450 251 Z"/></g><g><path fill="none" stroke="#000000" paint-order="fill stroke markers" d=" M 450 251 C 450 231.11774720000005 505.5166847999999 215 574 215 C 642.4833152000001 215 698 231.11774720000005 698 251 C 698 270.88225279999995 642.4833152000001 287 574 287 C 505.5166847999999 287 450 270.88225279999995 450 251 Z" stroke-miterlimit="10" stroke-dasharray=""/></g><g><g><path fill="none" stroke="none"/><text fill="#000000" stroke="none" font-family="Arial" font-size="13px" font-style="normal" font-weight="bold" text-decoration="undefined" x="1171" y="730" text-anchor="middle" dominant-baseline="central" transform="matrix(1 0 0 1 -597 -491)">UC[23] Errore «Il nome del</text><text fill="#000000" stroke="none" font-family="Arial" font-size="13px" font-style="normal" font-weight="bold" text-decoration="undefined" x="1171" y="743" text-anchor="middle" dominant-baseline="central" transform="matrix(1 0 0 1 -597 -491)">workflow deve avere</text><text fill="#000000" stroke="none" font-family="Arial" font-size="13px" font-style="normal" font-weight="bold" text-decoration="undefined" x="1171" y="756" text-anchor="middle" dominant-baseline="central" transform="matrix(1 0 0 1 -597 -491)">meno di 25 caratteri»</text></g></g><g><path fill="none" stroke="#000000" paint-order="fill stroke markers" d=" M 314 215 L 314 159 L 370 159 L 370 135" stroke-miterlimit="10" stroke-dasharray="3"/></g><g><path fill="none" stroke="#000000" paint-order="fill stroke markers" d=" M 374.209517756016 145.1626748576241 L 370 135 L 365.790482243984 145.1626748576241" stroke-miterlimit="10" stroke-dasharray=""/></g><g><rect fill="#ffffff" stroke="none" x="855" y="658" width="53.49169921875" height="13" transform="matrix(1 0 0 1 -597 -491)"/></g><g><g><path fill="none" stroke="none"/><text fill="#000000" stroke="none" font-family="Arial" font-size="13px" font-style="normal" font-weight="normal" text-decoration="undefined" x="881.745849609375" y="664.5" text-anchor="middle" dominant-baseline="central" transform="matrix(1 0 0 1 -597 -491)">«extend»</text></g></g><g><path fill="none" stroke="#000000" paint-order="fill stroke markers" d=" M 578 215 L 578 159 L 370 159 L 370 135" stroke-miterlimit="10" stroke-dasharray="3"/></g><g><path fill="none" stroke="#000000" paint-order="fill stroke markers" d=" M 374.209517756016 145.1626748576241 L 370 135 L 365.790482243984 145.1626748576241" stroke-miterlimit="10" stroke-dasharray=""/></g><g><rect fill="#ffffff" stroke="none" x="1119" y="657" width="53.49169921875" height="13" transform="matrix(1 0 0 1 -597 -491)"/></g><g><g><path fill="none" stroke="none"/><text fill="#000000" stroke="none" font-family="Arial" font-size="13px" font-style="normal" font-weight="normal" text-decoration="undefined" x="1145.745849609375" y="663.5" text-anchor="middle" dominant-baseline="central" transform="matrix(1 0 0 1 -597 -491)">«extend»</text></g></g></g></svg>