<svg version="1.1" xmlns="http://www.w3.org/2000/svg" xmlns:xlink="http://www.w3.org/1999/xlink" width="550" height="220"><defs/><g><g><rect fill="#C0C0C0" stroke="none" x="900" y="568" width="327" height="187" transform="matrix(1 0 0 1 -681 -543)" fill-opacity="0.2"/></g><g><rect fill="#ffffff" stroke="none" x="893" y="561" width="327" height="187" transform="matrix(1 0 0 1 -681 -543)"/></g><g><path fill="none" stroke="#000000" paint-order="fill stroke markers" d=" M 212 18 L 539 18 L 539 205 L 212 205 L 212 18 Z Z" stroke-miterlimit="10" stroke-dasharray=""/></g><g><g><path fill="none" stroke="none"/><text fill="#000000" stroke="none" font-family="Arial" font-size="13px" font-style="normal" font-weight="bold" text-decoration="undefined" x="1057" y="574.5" text-anchor="middle" dominant-baseline="central" transform="matrix(1 0 0 1 -681 -543)">Sistema</text></g></g><g><path fill="#ffffff" stroke="none" paint-order="stroke fill markers" d=" M 88.14632812499997 19.850000000000023 C 88.14632812499997 14.962279520000038 92.10413049299996 11 96.986328125 11 C 101.86852575700004 11 105.82632812500003 14.962279520000038 105.82632812500003 19.850000000000023 C 105.82632812500003 24.737720480000007 101.86852575700004 28.700000000000045 96.986328125 28.700000000000045 C 92.10413049299996 28.700000000000045 88.14632812499997 24.737720480000007 88.14632812499997 19.850000000000023 Z"/></g><g><path fill="none" stroke="#000000" paint-order="fill stroke markers" d=" M 88.14632812499997 19.850000000000023 C 88.14632812499997 14.962279520000038 92.10413049299996 11 96.986328125 11 C 101.86852575700004 11 105.82632812500003 14.962279520000038 105.82632812500003 19.850000000000023 C 105.82632812500003 24.737720480000007 101.86852575700004 28.700000000000045 96.986328125 28.700000000000045 C 92.10413049299996 28.700000000000045 88.14632812499997 24.737720480000007 88.14632812499997 19.850000000000023 Z" stroke-miterlimit="10" stroke-dasharray=""/></g><g><path fill="none" stroke="#000000" paint-order="fill stroke markers" d=" M 96.986328125 28.700000000000045 L 96.986328125 46.299999999999955" stroke-miterlimit="10" stroke-dasharray=""/></g><g><path fill="none" stroke="#000000" paint-order="fill stroke markers" d=" M 87.62632812499999 35.299999999999955 L 106.34632812500001 35.299999999999955" stroke-miterlimit="10" stroke-dasharray=""/></g><g><path fill="none" stroke="#000000" paint-order="fill stroke markers" d=" M 96.986328125 46.299999999999955 L 83.986328125 64" stroke-miterlimit="10" stroke-dasharray=""/></g><g><path fill="none" stroke="#000000" paint-order="fill stroke markers" d=" M 96.986328125 46.299999999999955 L 109.986328125 64" stroke-miterlimit="10" stroke-dasharray=""/></g><g><g><path fill="none" stroke="none"/><text fill="#000000" stroke="none" font-family="Arial" font-size="13px" font-style="normal" font-weight="bold" text-decoration="undefined" x="778.486328125" y="621.5" text-anchor="middle" dominant-baseline="central" transform="matrix(1 0 0 1 -681 -543)">Utente autenticato</text></g></g><g><path fill="#C0C0C0" stroke="none" paint-order="stroke fill markers" d=" M 281 117 C 281 97.11774720000005 325.77152 81 381 81 C 436.22848 81 481 97.11774720000005 481 117 C 481 136.88225279999995 436.22848 153 381 153 C 325.77152 153 281 136.88225279999995 281 117 Z" fill-opacity="0.2"/></g><g><path fill="#ffffff" stroke="none" paint-order="stroke fill markers" d=" M 274 110 C 274 90.11774720000005 318.77152 74 374 74 C 429.22848 74 474 90.11774720000005 474 110 C 474 129.88225279999995 429.22848 146 374 146 C 318.77152 146 274 129.88225279999995 274 110 Z"/></g><g><path fill="none" stroke="#000000" paint-order="fill stroke markers" d=" M 274 110 C 274 90.11774720000005 318.77152 74 374 74 C 429.22848 74 474 90.11774720000005 474 110 C 474 129.88225279999995 429.22848 146 374 146 C 318.77152 146 274 129.88225279999995 274 110 Z" stroke-miterlimit="10" stroke-dasharray=""/></g><g><g><path fill="none" stroke="none"/><text fill="#000000" stroke="none" font-family="Arial" font-size="13px" font-style="normal" font-weight="bold" text-decoration="undefined" x="1055" y="641" text-anchor="middle" dominant-baseline="central" transform="matrix(1 0 0 1 -681 -543)">UC[55] Impostare</text><text fill="#000000" stroke="none" font-family="Arial" font-size="13px" font-style="normal" font-weight="bold" text-decoration="undefined" x="1055" y="654" text-anchor="middle" dominant-baseline="central" transform="matrix(1 0 0 1 -681 -543)">Dark Mode o Light</text><text fill="#000000" stroke="none" font-family="Arial" font-size="13px" font-style="normal" font-weight="bold" text-decoration="undefined" x="1055" y="667" text-anchor="middle" dominant-baseline="central" transform="matrix(1 0 0 1 -681 -543)">Mode del client</text></g></g><g><path fill="none" stroke="#000000" paint-order="fill stroke markers" d=" M 185 69 L 273 88" stroke-miterlimit="10" stroke-dasharray=""/></g><g><path fill="#ffffff" stroke="none" paint-order="stroke fill markers" d=" M 92.57772460937497 139.85000000000002 C 92.57772460937497 134.96227952000004 96.53552697737496 131 101.417724609375 131 C 106.29992224137504 131 110.25772460937503 134.96227952000004 110.25772460937503 139.85000000000002 C 110.25772460937503 144.73772048 106.29992224137504 148.70000000000005 101.417724609375 148.70000000000005 C 96.53552697737496 148.70000000000005 92.57772460937497 144.73772048 92.57772460937497 139.85000000000002 Z"/></g><g><path fill="none" stroke="#000000" paint-order="fill stroke markers" d=" M 92.57772460937497 139.85000000000002 C 92.57772460937497 134.96227952000004 96.53552697737496 131 101.417724609375 131 C 106.29992224137504 131 110.25772460937503 134.96227952000004 110.25772460937503 139.85000000000002 C 110.25772460937503 144.73772048 106.29992224137504 148.70000000000005 101.417724609375 148.70000000000005 C 96.53552697737496 148.70000000000005 92.57772460937497 144.73772048 92.57772460937497 139.85000000000002 Z" stroke-miterlimit="10" stroke-dasharray=""/></g><g><path fill="none" stroke="#000000" paint-order="fill stroke markers" d=" M 101.417724609375 148.70000000000005 L 101.417724609375 166.29999999999995" stroke-miterlimit="10" stroke-dasharray=""/></g><g><path fill="none" stroke="#000000" paint-order="fill stroke markers" d=" M 92.05772460937499 155.29999999999995 L 110.77772460937501 155.29999999999995" stroke-miterlimit="10" stroke-dasharray=""/></g><g><path fill="none" stroke="#000000" paint-order="fill stroke markers" d=" M 101.417724609375 166.29999999999995 L 88.417724609375 184" stroke-miterlimit="10" stroke-dasharray=""/></g><g><path fill="none" stroke="#000000" paint-order="fill stroke markers" d=" M 101.417724609375 166.29999999999995 L 114.417724609375 184" stroke-miterlimit="10" stroke-dasharray=""/></g><g><g><path fill="none" stroke="none"/><text fill="#000000" stroke="none" font-family="Arial" font-size="13px" font-style="normal" font-weight="bold" text-decoration="undefined" x="782.917724609375" y="741.5" text-anchor="middle" dominant-baseline="central" transform="matrix(1 0 0 1 -681 -543)">Utente non autenticato</text></g></g><g><path fill="none" stroke="#000000" paint-order="fill stroke markers" d=" M 178 153 L 273 132" stroke-miterlimit="10" stroke-dasharray=""/></g></g></svg>