<svg version="1.1" xmlns="http://www.w3.org/2000/svg" xmlns:xlink="http://www.w3.org/1999/xlink" width="661" height="295"><defs/><g><g><rect fill="#C0C0C0" stroke="none" x="834" y="523" width="448" height="275" transform="matrix(1 0 0 1 -625 -506)" fill-opacity="0.2"/></g><g><rect fill="#ffffff" stroke="none" x="827" y="516" width="448" height="275" transform="matrix(1 0 0 1 -625 -506)"/></g><g><path fill="none" stroke="#000000" paint-order="fill stroke markers" d=" M 202 10 L 650 10 L 650 285 L 202 285 L 202 10 Z Z" stroke-miterlimit="10" stroke-dasharray=""/></g><g><g><path fill="none" stroke="none"/><text fill="#000000" stroke="none" font-family="Arial" font-size="13px" font-style="normal" font-weight="bold" text-decoration="undefined" x="1051.5" y="529.5" text-anchor="middle" dominant-baseline="central" transform="matrix(1 0 0 1 -625 -506)">Sistema</text></g></g><g><path fill="#ffffff" stroke="none" paint-order="stroke fill markers" d=" M 88.14632812499997 78.85000000000002 C 88.14632812499997 73.96227952000004 92.10413049299996 70 96.986328125 70 C 101.86852575700004 70 105.82632812500003 73.96227952000004 105.82632812500003 78.85000000000002 C 105.82632812500003 83.73772048000001 101.86852575700004 87.70000000000005 96.986328125 87.70000000000005 C 92.10413049299996 87.70000000000005 88.14632812499997 83.73772048000001 88.14632812499997 78.85000000000002 Z"/></g><g><path fill="none" stroke="#000000" paint-order="fill stroke markers" d=" M 88.14632812499997 78.85000000000002 C 88.14632812499997 73.96227952000004 92.10413049299996 70 96.986328125 70 C 101.86852575700004 70 105.82632812500003 73.96227952000004 105.82632812500003 78.85000000000002 C 105.82632812500003 83.73772048000001 101.86852575700004 87.70000000000005 96.986328125 87.70000000000005 C 92.10413049299996 87.70000000000005 88.14632812499997 83.73772048000001 88.14632812499997 78.85000000000002 Z" stroke-miterlimit="10" stroke-dasharray=""/></g><g><path fill="none" stroke="#000000" paint-order="fill stroke markers" d=" M 96.986328125 87.70000000000005 L 96.986328125 105.29999999999995" stroke-miterlimit="10" stroke-dasharray=""/></g><g><path fill="none" stroke="#000000" paint-order="fill stroke markers" d=" M 87.62632812499999 94.29999999999995 L 106.34632812500001 94.29999999999995" stroke-miterlimit="10" stroke-dasharray=""/></g><g><path fill="none" stroke="#000000" paint-order="fill stroke markers" d=" M 96.986328125 105.29999999999995 L 83.986328125 123" stroke-miterlimit="10" stroke-dasharray=""/></g><g><path fill="none" stroke="#000000" paint-order="fill stroke markers" d=" M 96.986328125 105.29999999999995 L 109.986328125 123" stroke-miterlimit="10" stroke-dasharray=""/></g><g><g><path fill="none" stroke="none"/><text fill="#000000" stroke="none" font-family="Arial" font-size="13px" font-style="normal" font-weight="bold" text-decoration="undefined" x="722.486328125" y="643.5" text-anchor="middle" dominant-baseline="central" transform="matrix(1 0 0 1 -625 -506)">Utente autenticato</text></g></g><g><path fill="#C0C0C0" stroke="none" paint-order="stroke fill markers" d=" M 321 102.5 C 321 87.86445279999998 367.5623808 76 425 76 C 482.4376192 76 529 87.86445279999998 529 102.5 C 529 117.13554720000002 482.4376192 129 425 129 C 367.5623808 129 321 117.13554720000002 321 102.5 Z" fill-opacity="0.2"/></g><g><path fill="#ffffff" stroke="none" paint-order="stroke fill markers" d=" M 314 95.5 C 314 80.86445279999998 360.5623808 69 418 69 C 475.4376192 69 522 80.86445279999998 522 95.5 C 522 110.13554720000002 475.4376192 122 418 122 C 360.5623808 122 314 110.13554720000002 314 95.5 Z"/></g><g><path fill="none" stroke="#000000" paint-order="fill stroke markers" d=" M 314 95.5 C 314 80.86445279999998 360.5623808 69 418 69 C 475.4376192 69 522 80.86445279999998 522 95.5 C 522 110.13554720000002 475.4376192 122 418 122 C 360.5623808 122 314 110.13554720000002 314 95.5 Z" stroke-miterlimit="10" stroke-dasharray=""/></g><g><g><path fill="none" stroke="none"/><text fill="#000000" stroke="none" font-family="Arial" font-size="13px" font-style="normal" font-weight="bold" text-decoration="undefined" x="1043" y="596" text-anchor="middle" dominant-baseline="central" transform="matrix(1 0 0 1 -625 -506)">UC[29] Eliminare una</text><text fill="#000000" stroke="none" font-family="Arial" font-size="13px" font-style="normal" font-weight="bold" text-decoration="undefined" x="1043" y="609" text-anchor="middle" dominant-baseline="central" transform="matrix(1 0 0 1 -625 -506)">routine esistente</text></g></g><g><path fill="none" stroke="#000000" paint-order="fill stroke markers" d=" M 184 101 L 314 101" stroke-miterlimit="10" stroke-dasharray=""/></g><g><path fill="#C0C0C0" stroke="none" paint-order="stroke fill markers" d=" M 249 216 C 249 196.11774720000005 281.2354944 180 321 180 C 360.7645056 180 393 196.11774720000005 393 216 C 393 235.88225279999995 360.7645056 252 321 252 C 281.2354944 252 249 235.88225279999995 249 216 Z" fill-opacity="0.2"/></g><g><path fill="#ffffff" stroke="none" paint-order="stroke fill markers" d=" M 242 209 C 242 189.11774720000005 274.2354944 173 314 173 C 353.7645056 173 386 189.11774720000005 386 209 C 386 228.88225279999995 353.7645056 245 314 245 C 274.2354944 245 242 228.88225279999995 242 209 Z"/></g><g><path fill="none" stroke="#000000" paint-order="fill stroke markers" d=" M 242 209 C 242 189.11774720000005 274.2354944 173 314 173 C 353.7645056 173 386 189.11774720000005 386 209 C 386 228.88225279999995 353.7645056 245 314 245 C 274.2354944 245 242 228.88225279999995 242 209 Z" stroke-miterlimit="10" stroke-dasharray=""/></g><g><g><path fill="none" stroke="none"/><text fill="#000000" stroke="none" font-family="Arial" font-size="13px" font-style="normal" font-weight="bold" text-decoration="undefined" x="939" y="709.5" text-anchor="middle" dominant-baseline="central" transform="matrix(1 0 0 1 -625 -506)">UC[8] Errore</text><text fill="#000000" stroke="none" font-family="Arial" font-size="13px" font-style="normal" font-weight="bold" text-decoration="undefined" x="939" y="722.5" text-anchor="middle" dominant-baseline="central" transform="matrix(1 0 0 1 -625 -506)">Generico</text></g></g><g><path fill="none" stroke="#000000" paint-order="fill stroke markers" d=" M 314 173 L 314 149 L 418 149 L 418 122" stroke-miterlimit="10" stroke-dasharray="3"/></g><g><path fill="none" stroke="#000000" paint-order="fill stroke markers" d=" M 422.2095177560159 132.1626748576241 L 418 122 L 413.7904822439841 132.1626748576241" stroke-miterlimit="10" stroke-dasharray=""/></g><g><rect fill="#ffffff" stroke="none" x="883" y="663" width="53.49169921875" height="13" transform="matrix(1 0 0 1 -625 -506)"/></g><g><g><path fill="none" stroke="none"/><text fill="#000000" stroke="none" font-family="Arial" font-size="13px" font-style="normal" font-weight="normal" text-decoration="undefined" x="909.745849609375" y="669.5" text-anchor="middle" dominant-baseline="central" transform="matrix(1 0 0 1 -625 -506)">«extend»</text></g></g><g><path fill="#C0C0C0" stroke="none" paint-order="stroke fill markers" d=" M 481 216 C 481 196.11774720000005 513.2354944000001 180 553 180 C 592.7645055999999 180 625 196.11774720000005 625 216 C 625 235.88225279999995 592.7645055999999 252 553 252 C 513.2354944000001 252 481 235.88225279999995 481 216 Z" fill-opacity="0.2"/></g><g><path fill="#ffffff" stroke="none" paint-order="stroke fill markers" d=" M 474 209 C 474 189.11774720000005 506.2354944000001 173 546 173 C 585.7645055999999 173 618 189.11774720000005 618 209 C 618 228.88225279999995 585.7645055999999 245 546 245 C 506.2354944000001 245 474 228.88225279999995 474 209 Z"/></g><g><path fill="none" stroke="#000000" paint-order="fill stroke markers" d=" M 474 209 C 474 189.11774720000005 506.2354944000001 173 546 173 C 585.7645055999999 173 618 189.11774720000005 618 209 C 618 228.88225279999995 585.7645055999999 245 546 245 C 506.2354944000001 245 474 228.88225279999995 474 209 Z" stroke-miterlimit="10" stroke-dasharray=""/></g><g><g><path fill="none" stroke="none"/><text fill="#000000" stroke="none" font-family="Arial" font-size="13px" font-style="normal" font-weight="bold" text-decoration="undefined" x="1171" y="703" text-anchor="middle" dominant-baseline="central" transform="matrix(1 0 0 1 -625 -506)">UC[30] Errore</text><text fill="#000000" stroke="none" font-family="Arial" font-size="13px" font-style="normal" font-weight="bold" text-decoration="undefined" x="1171" y="716" text-anchor="middle" dominant-baseline="central" transform="matrix(1 0 0 1 -625 -506)">«Workflow</text><text fill="#000000" stroke="none" font-family="Arial" font-size="13px" font-style="normal" font-weight="bold" text-decoration="undefined" x="1171" y="729" text-anchor="middle" dominant-baseline="central" transform="matrix(1 0 0 1 -625 -506)">non trovato»</text></g></g><g><path fill="none" stroke="#000000" paint-order="fill stroke markers" d=" M 546 173 L 546 149 L 418 149 L 418 122" stroke-miterlimit="10" stroke-dasharray="3"/></g><g><path fill="none" stroke="#000000" paint-order="fill stroke markers" d=" M 422.2095177560159 132.1626748576241 L 418 122 L 413.7904822439841 132.1626748576241" stroke-miterlimit="10" stroke-dasharray=""/></g><g><rect fill="#ffffff" stroke="none" x="1107" y="662" width="53.49169921875" height="13" transform="matrix(1 0 0 1 -625 -506)"/></g><g><g><path fill="none" stroke="none"/><text fill="#000000" stroke="none" font-family="Arial" font-size="13px" font-style="normal" font-weight="normal" text-decoration="undefined" x="1133.745849609375" y="668.5" text-anchor="middle" dominant-baseline="central" transform="matrix(1 0 0 1 -625 -506)">«extend»</text></g></g></g></svg>