<svg version="1.1" xmlns="http://www.w3.org/2000/svg" xmlns:xlink="http://www.w3.org/1999/xlink" width="720" height="278"><defs/><g><g><rect fill="#C0C0C0" stroke="none" x="818" y="531" width="494" height="258" transform="matrix(1 0 0 1 -596 -514)" fill-opacity="0.2"/></g><g><rect fill="#ffffff" stroke="none" x="811" y="524" width="494" height="258" transform="matrix(1 0 0 1 -596 -514)"/></g><g><path fill="none" stroke="#000000" paint-order="fill stroke markers" d=" M 215 10 L 709 10 L 709 268 L 215 268 L 215 10 Z Z" stroke-miterlimit="10" stroke-dasharray=""/></g><g><g><path fill="none" stroke="none"/><text fill="#000000" stroke="none" font-family="Arial" font-size="13px" font-style="normal" font-weight="bold" text-decoration="undefined" x="1058.5" y="537.5" text-anchor="middle" dominant-baseline="central" transform="matrix(1 0 0 1 -596 -514)">Sistema</text></g></g><g><path fill="#ffffff" stroke="none" paint-order="stroke fill markers" d=" M 88.14632812499997 91.85000000000002 C 88.14632812499997 86.96227952000004 92.10413049299996 83 96.986328125 83 C 101.86852575700004 83 105.82632812500003 86.96227952000004 105.82632812500003 91.85000000000002 C 105.82632812500003 96.73772048000001 101.86852575700004 100.70000000000005 96.986328125 100.70000000000005 C 92.10413049299996 100.70000000000005 88.14632812499997 96.73772048000001 88.14632812499997 91.85000000000002 Z"/></g><g><path fill="none" stroke="#000000" paint-order="fill stroke markers" d=" M 88.14632812499997 91.85000000000002 C 88.14632812499997 86.96227952000004 92.10413049299996 83 96.986328125 83 C 101.86852575700004 83 105.82632812500003 86.96227952000004 105.82632812500003 91.85000000000002 C 105.82632812500003 96.73772048000001 101.86852575700004 100.70000000000005 96.986328125 100.70000000000005 C 92.10413049299996 100.70000000000005 88.14632812499997 96.73772048000001 88.14632812499997 91.85000000000002 Z" stroke-miterlimit="10" stroke-dasharray=""/></g><g><path fill="none" stroke="#000000" paint-order="fill stroke markers" d=" M 96.986328125 100.70000000000005 L 96.986328125 118.29999999999995" stroke-miterlimit="10" stroke-dasharray=""/></g><g><path fill="none" stroke="#000000" paint-order="fill stroke markers" d=" M 87.62632812499999 107.29999999999995 L 106.34632812500001 107.29999999999995" stroke-miterlimit="10" stroke-dasharray=""/></g><g><path fill="none" stroke="#000000" paint-order="fill stroke markers" d=" M 96.986328125 118.29999999999995 L 83.986328125 136" stroke-miterlimit="10" stroke-dasharray=""/></g><g><path fill="none" stroke="#000000" paint-order="fill stroke markers" d=" M 96.986328125 118.29999999999995 L 109.986328125 136" stroke-miterlimit="10" stroke-dasharray=""/></g><g><g><path fill="none" stroke="none"/><text fill="#000000" stroke="none" font-family="Arial" font-size="13px" font-style="normal" font-weight="bold" text-decoration="undefined" x="693.486328125" y="664.5" text-anchor="middle" dominant-baseline="central" transform="matrix(1 0 0 1 -596 -514)">Utente autenticato</text></g></g><g><path fill="#C0C0C0" stroke="none" paint-order="stroke fill markers" d=" M 260 125 C 260 105.11774720000005 304.77152 89 360 89 C 415.22848 89 460 105.11774720000005 460 125 C 460 144.88225279999995 415.22848 161 360 161 C 304.77152 161 260 144.88225279999995 260 125 Z" fill-opacity="0.2"/></g><g><path fill="#ffffff" stroke="none" paint-order="stroke fill markers" d=" M 253 118 C 253 98.11774720000005 297.77152 82 353 82 C 408.22848 82 453 98.11774720000005 453 118 C 453 137.88225279999995 408.22848 154 353 154 C 297.77152 154 253 137.88225279999995 253 118 Z"/></g><g><path fill="none" stroke="#000000" paint-order="fill stroke markers" d=" M 253 118 C 253 98.11774720000005 297.77152 82 353 82 C 408.22848 82 453 98.11774720000005 453 118 C 453 137.88225279999995 408.22848 154 353 154 C 297.77152 154 253 137.88225279999995 253 118 Z" stroke-miterlimit="10" stroke-dasharray=""/></g><g><g><path fill="none" stroke="none"/><text fill="#000000" stroke="none" font-family="Arial" font-size="13px" font-style="normal" font-weight="bold" text-decoration="undefined" x="949" y="620" text-anchor="middle" dominant-baseline="central" transform="matrix(1 0 0 1 -596 -514)">UC[50] Eliminare un</text><text fill="#000000" stroke="none" font-family="Arial" font-size="13px" font-style="normal" font-weight="bold" text-decoration="undefined" x="949" y="633" text-anchor="middle" dominant-baseline="central" transform="matrix(1 0 0 1 -596 -514)">blocco da una</text><text fill="#000000" stroke="none" font-family="Arial" font-size="13px" font-style="normal" font-weight="bold" text-decoration="undefined" x="949" y="646" text-anchor="middle" dominant-baseline="central" transform="matrix(1 0 0 1 -596 -514)">routine esistente</text></g></g><g><path fill="#C0C0C0" stroke="none" paint-order="stroke fill markers" d=" M 484 69 C 484 49.11774720000005 532.3532416 33 592 33 C 651.6467584 33 700 49.11774720000005 700 69 C 700 88.88225279999995 651.6467584 105 592 105 C 532.3532416 105 484 88.88225279999995 484 69 Z" fill-opacity="0.2"/></g><g><path fill="#ffffff" stroke="none" paint-order="stroke fill markers" d=" M 477 62 C 477 42.11774720000005 525.3532416 26 585 26 C 644.6467584 26 693 42.11774720000005 693 62 C 693 81.88225279999995 644.6467584 98 585 98 C 525.3532416 98 477 81.88225279999995 477 62 Z"/></g><g><path fill="none" stroke="#000000" paint-order="fill stroke markers" d=" M 477 62 C 477 42.11774720000005 525.3532416 26 585 26 C 644.6467584 26 693 42.11774720000005 693 62 C 693 81.88225279999995 644.6467584 98 585 98 C 525.3532416 98 477 81.88225279999995 477 62 Z" stroke-miterlimit="10" stroke-dasharray=""/></g><g><g><path fill="none" stroke="none"/><text fill="#000000" stroke="none" font-family="Arial" font-size="13px" font-style="normal" font-weight="bold" text-decoration="undefined" x="1181" y="564" text-anchor="middle" dominant-baseline="central" transform="matrix(1 0 0 1 -596 -514)">UC[51] Eliminare un</text><text fill="#000000" stroke="none" font-family="Arial" font-size="13px" font-style="normal" font-weight="bold" text-decoration="undefined" x="1181" y="577" text-anchor="middle" dominant-baseline="central" transform="matrix(1 0 0 1 -596 -514)">blocco da una routine</text><text fill="#000000" stroke="none" font-family="Arial" font-size="13px" font-style="normal" font-weight="bold" text-decoration="undefined" x="1181" y="590" text-anchor="middle" dominant-baseline="central" transform="matrix(1 0 0 1 -596 -514)">esistente da tastiera</text></g></g><g><path fill="#C0C0C0" stroke="none" paint-order="stroke fill markers" d=" M 476 190 C 476 165.14718400000004 524.3532416 145 584 145 C 643.6467584 145 692 165.14718400000004 692 190 C 692 214.85281599999996 643.6467584 235 584 235 C 524.3532416 235 476 214.85281599999996 476 190 Z" fill-opacity="0.2"/></g><g><path fill="#ffffff" stroke="none" paint-order="stroke fill markers" d=" M 469 183 C 469 158.14718400000004 517.3532416 138 577 138 C 636.6467584 138 685 158.14718400000004 685 183 C 685 207.85281599999996 636.6467584 228 577 228 C 517.3532416 228 469 207.85281599999996 469 183 Z"/></g><g><path fill="none" stroke="#000000" paint-order="fill stroke markers" d=" M 469 183 C 469 158.14718400000004 517.3532416 138 577 138 C 636.6467584 138 685 158.14718400000004 685 183 C 685 207.85281599999996 636.6467584 228 577 228 C 517.3532416 228 469 207.85281599999996 469 183 Z" stroke-miterlimit="10" stroke-dasharray=""/></g><g><g><path fill="none" stroke="none"/><text fill="#000000" stroke="none" font-family="Arial" font-size="13px" font-style="normal" font-weight="bold" text-decoration="undefined" x="1173" y="678.5" text-anchor="middle" dominant-baseline="central" transform="matrix(1 0 0 1 -596 -514)">UC[52] Eliminare un</text><text fill="#000000" stroke="none" font-family="Arial" font-size="13px" font-style="normal" font-weight="bold" text-decoration="undefined" x="1173" y="691.5" text-anchor="middle" dominant-baseline="central" transform="matrix(1 0 0 1 -596 -514)">blocco da una routine</text><text fill="#000000" stroke="none" font-family="Arial" font-size="13px" font-style="normal" font-weight="bold" text-decoration="undefined" x="1173" y="704.5" text-anchor="middle" dominant-baseline="central" transform="matrix(1 0 0 1 -596 -514)">esistente da</text><text fill="#000000" stroke="none" font-family="Arial" font-size="13px" font-style="normal" font-weight="bold" text-decoration="undefined" x="1173" y="717.5" text-anchor="middle" dominant-baseline="central" transform="matrix(1 0 0 1 -596 -514)">interfaccia grafica</text></g></g><g><path fill="none" stroke="#000000" paint-order="fill stroke markers" d=" M 184 116 L 253 116" stroke-miterlimit="10" stroke-dasharray=""/></g><g><path fill="none" stroke="#000000" paint-order="fill stroke markers" d=" M 581 138 L 581 114 L 453 114" stroke-miterlimit="10" stroke-dasharray=""/></g><g><path fill="#FFFFFF" stroke="none" paint-order="stroke fill markers" d=" M 473.3253497152482 105.580964487968 L 453 114 L 473.3253497152482 122.419035512032"/></g><g><path fill="none" stroke="#000000" paint-order="fill stroke markers" d=" M 473.3253497152482 105.580964487968 L 453 114 L 473.3253497152482 122.419035512032 L 473.3253497152482 105.580964487968" stroke-miterlimit="10" stroke-dasharray=""/></g><g><path fill="none" stroke="#000000" paint-order="fill stroke markers" d=" M 581 98 L 581 114 L 453 114" stroke-miterlimit="10" stroke-dasharray=""/></g><g><path fill="#FFFFFF" stroke="none" paint-order="stroke fill markers" d=" M 473.3253497152482 105.580964487968 L 453 114 L 473.3253497152482 122.419035512032"/></g><g><path fill="none" stroke="#000000" paint-order="fill stroke markers" d=" M 473.3253497152482 105.580964487968 L 453 114 L 473.3253497152482 122.419035512032 L 473.3253497152482 105.580964487968" stroke-miterlimit="10" stroke-dasharray=""/></g><g><path fill="#C0C0C0" stroke="none" paint-order="stroke fill markers" d=" M 284 229 C 284 209.11774720000005 316.2354944 193 356 193 C 395.7645056 193 428 209.11774720000005 428 229 C 428 248.88225279999995 395.7645056 265 356 265 C 316.2354944 265 284 248.88225279999995 284 229 Z" fill-opacity="0.2"/></g><g><path fill="#ffffff" stroke="none" paint-order="stroke fill markers" d=" M 277 222 C 277 202.11774720000005 309.2354944 186 349 186 C 388.7645056 186 421 202.11774720000005 421 222 C 421 241.88225279999995 388.7645056 258 349 258 C 309.2354944 258 277 241.88225279999995 277 222 Z"/></g><g><path fill="none" stroke="#000000" paint-order="fill stroke markers" d=" M 277 222 C 277 202.11774720000005 309.2354944 186 349 186 C 388.7645056 186 421 202.11774720000005 421 222 C 421 241.88225279999995 388.7645056 258 349 258 C 309.2354944 258 277 241.88225279999995 277 222 Z" stroke-miterlimit="10" stroke-dasharray=""/></g><g><g><path fill="none" stroke="none"/><text fill="#000000" stroke="none" font-family="Arial" font-size="13px" font-style="normal" font-weight="bold" text-decoration="undefined" x="945" y="730.5" text-anchor="middle" dominant-baseline="central" transform="matrix(1 0 0 1 -596 -514)">UC[8] Errore</text><text fill="#000000" stroke="none" font-family="Arial" font-size="13px" font-style="normal" font-weight="bold" text-decoration="undefined" x="945" y="743.5" text-anchor="middle" dominant-baseline="central" transform="matrix(1 0 0 1 -596 -514)">Generico</text></g></g><g><path fill="none" stroke="#000000" paint-order="fill stroke markers" d=" M 352 186 L 352 154" stroke-miterlimit="10" stroke-dasharray="3"/></g><g><path fill="none" stroke="#000000" paint-order="fill stroke markers" d=" M 356.209517756016 164.1626748576241 L 352 154 L 347.790482243984 164.1626748576241" stroke-miterlimit="10" stroke-dasharray=""/></g><g><rect fill="#ffffff" stroke="none" x="873" y="684" width="53.49169921875" height="13" transform="matrix(1 0 0 1 -596 -514)"/></g><g><g><path fill="none" stroke="none"/><text fill="#000000" stroke="none" font-family="Arial" font-size="13px" font-style="normal" font-weight="normal" text-decoration="undefined" x="899.745849609375" y="690.5" text-anchor="middle" dominant-baseline="central" transform="matrix(1 0 0 1 -596 -514)">«extend»</text></g></g></g></svg>