<svg version="1.1" xmlns="http://www.w3.org/2000/svg" xmlns:xlink="http://www.w3.org/1999/xlink" width="669" height="324"><defs/><g><g><rect fill="#C0C0C0" stroke="none" x="830" y="508" width="456" height="304" transform="matrix(1 0 0 1 -621 -491)" fill-opacity="0.2"/></g><g><rect fill="#ffffff" stroke="none" x="823" y="501" width="456" height="304" transform="matrix(1 0 0 1 -621 -491)"/></g><g><path fill="none" stroke="#000000" paint-order="fill stroke markers" d=" M 202 10 L 658 10 L 658 314 L 202 314 L 202 10 Z Z" stroke-miterlimit="10" stroke-dasharray=""/></g><g><g><path fill="none" stroke="none"/><text fill="#000000" stroke="none" font-family="Arial" font-size="13px" font-style="normal" font-weight="bold" text-decoration="undefined" x="1051.5" y="514.5" text-anchor="middle" dominant-baseline="central" transform="matrix(1 0 0 1 -621 -491)">Sistema</text></g></g><g><path fill="#ffffff" stroke="none" paint-order="stroke fill markers" d=" M 88.14632812499997 51.85000000000002 C 88.14632812499997 46.96227952000004 92.10413049299996 43 96.986328125 43 C 101.86852575700004 43 105.82632812500003 46.96227952000004 105.82632812500003 51.85000000000002 C 105.82632812500003 56.73772048000001 101.86852575700004 60.700000000000045 96.986328125 60.700000000000045 C 92.10413049299996 60.700000000000045 88.14632812499997 56.73772048000001 88.14632812499997 51.85000000000002 Z"/></g><g><path fill="none" stroke="#000000" paint-order="fill stroke markers" d=" M 88.14632812499997 51.85000000000002 C 88.14632812499997 46.96227952000004 92.10413049299996 43 96.986328125 43 C 101.86852575700004 43 105.82632812500003 46.96227952000004 105.82632812500003 51.85000000000002 C 105.82632812500003 56.73772048000001 101.86852575700004 60.700000000000045 96.986328125 60.700000000000045 C 92.10413049299996 60.700000000000045 88.14632812499997 56.73772048000001 88.14632812499997 51.85000000000002 Z" stroke-miterlimit="10" stroke-dasharray=""/></g><g><path fill="none" stroke="#000000" paint-order="fill stroke markers" d=" M 96.986328125 60.700000000000045 L 96.986328125 78.29999999999995" stroke-miterlimit="10" stroke-dasharray=""/></g><g><path fill="none" stroke="#000000" paint-order="fill stroke markers" d=" M 87.62632812499999 67.29999999999995 L 106.34632812500001 67.29999999999995" stroke-miterlimit="10" stroke-dasharray=""/></g><g><path fill="none" stroke="#000000" paint-order="fill stroke markers" d=" M 96.986328125 78.29999999999995 L 83.986328125 96" stroke-miterlimit="10" stroke-dasharray=""/></g><g><path fill="none" stroke="#000000" paint-order="fill stroke markers" d=" M 96.986328125 78.29999999999995 L 109.986328125 96" stroke-miterlimit="10" stroke-dasharray=""/></g><g><g><path fill="none" stroke="none"/><text fill="#000000" stroke="none" font-family="Arial" font-size="13px" font-style="normal" font-weight="bold" text-decoration="undefined" x="718.486328125" y="601.5" text-anchor="middle" dominant-baseline="central" transform="matrix(1 0 0 1 -621 -491)">Utente autenticato</text></g></g><g><path fill="#C0C0C0" stroke="none" paint-order="stroke fill markers" d=" M 329 93 C 329 73.11774720000005 377.35324160000005 57 437 57 C 496.64675839999995 57 545 73.11774720000005 545 93 C 545 112.88225279999995 496.64675839999995 129 437 129 C 377.35324160000005 129 329 112.88225279999995 329 93 Z" fill-opacity="0.2"/></g><g><path fill="#ffffff" stroke="none" paint-order="stroke fill markers" d=" M 322 86 C 322 66.11774720000005 370.35324160000005 50 430 50 C 489.64675839999995 50 538 66.11774720000005 538 86 C 538 105.88225279999995 489.64675839999995 122 430 122 C 370.35324160000005 122 322 105.88225279999995 322 86 Z"/></g><g><path fill="none" stroke="#000000" paint-order="fill stroke markers" d=" M 322 86 C 322 66.11774720000005 370.35324160000005 50 430 50 C 489.64675839999995 50 538 66.11774720000005 538 86 C 538 105.88225279999995 489.64675839999995 122 430 122 C 370.35324160000005 122 322 105.88225279999995 322 86 Z" stroke-miterlimit="10" stroke-dasharray=""/></g><g><g><path fill="none" stroke="none"/><text fill="#000000" stroke="none" font-family="Arial" font-size="13px" font-style="normal" font-weight="bold" text-decoration="undefined" x="1051" y="565" text-anchor="middle" dominant-baseline="central" transform="matrix(1 0 0 1 -621 -491)">UC[24] Generare una</text><text fill="#000000" stroke="none" font-family="Arial" font-size="13px" font-style="normal" font-weight="bold" text-decoration="undefined" x="1051" y="578" text-anchor="middle" dominant-baseline="central" transform="matrix(1 0 0 1 -621 -491)">routine mediante</text><text fill="#000000" stroke="none" font-family="Arial" font-size="13px" font-style="normal" font-weight="bold" text-decoration="undefined" x="1051" y="591" text-anchor="middle" dominant-baseline="central" transform="matrix(1 0 0 1 -621 -491)">linguaggio naturale</text></g></g><g><path fill="none" stroke="#000000" paint-order="fill stroke markers" d=" M 184 82 L 322 82" stroke-miterlimit="10" stroke-dasharray=""/></g><g><path fill="#C0C0C0" stroke="none" paint-order="stroke fill markers" d=" M 481 261 C 481 241.11774720000005 513.2354944000001 225 553 225 C 592.7645055999999 225 625 241.11774720000005 625 261 C 625 280.88225279999995 592.7645055999999 297 553 297 C 513.2354944000001 297 481 280.88225279999995 481 261 Z" fill-opacity="0.2"/></g><g><path fill="#ffffff" stroke="none" paint-order="stroke fill markers" d=" M 474 254 C 474 234.11774720000005 506.2354944000001 218 546 218 C 585.7645055999999 218 618 234.11774720000005 618 254 C 618 273.88225279999995 585.7645055999999 290 546 290 C 506.2354944000001 290 474 273.88225279999995 474 254 Z"/></g><g><path fill="none" stroke="#000000" paint-order="fill stroke markers" d=" M 474 254 C 474 234.11774720000005 506.2354944000001 218 546 218 C 585.7645055999999 218 618 234.11774720000005 618 254 C 618 273.88225279999995 585.7645055999999 290 546 290 C 506.2354944000001 290 474 273.88225279999995 474 254 Z" stroke-miterlimit="10" stroke-dasharray=""/></g><g><g><path fill="none" stroke="none"/><text fill="#000000" stroke="none" font-family="Arial" font-size="13px" font-style="normal" font-weight="bold" text-decoration="undefined" x="1167" y="739.5" text-anchor="middle" dominant-baseline="central" transform="matrix(1 0 0 1 -621 -491)">UC[8] Errore</text><text fill="#000000" stroke="none" font-family="Arial" font-size="13px" font-style="normal" font-weight="bold" text-decoration="undefined" x="1167" y="752.5" text-anchor="middle" dominant-baseline="central" transform="matrix(1 0 0 1 -621 -491)">Generico</text></g></g><g><path fill="none" stroke="#000000" paint-order="fill stroke markers" d=" M 546 218 L 546 186 L 426 186 L 426 122" stroke-miterlimit="10" stroke-dasharray="3"/></g><g><path fill="none" stroke="#000000" paint-order="fill stroke markers" d=" M 430.2095177560159 132.1626748576241 L 426 122 L 421.7904822439841 132.1626748576241" stroke-miterlimit="10" stroke-dasharray=""/></g><g><rect fill="#ffffff" stroke="none" x="1103" y="692" width="53.49169921875" height="13" transform="matrix(1 0 0 1 -621 -491)"/></g><g><g><path fill="none" stroke="none"/><text fill="#000000" stroke="none" font-family="Arial" font-size="13px" font-style="normal" font-weight="normal" text-decoration="undefined" x="1129.745849609375" y="698.5" text-anchor="middle" dominant-baseline="central" transform="matrix(1 0 0 1 -621 -491)">«extend»</text></g></g><g><path fill="#C0C0C0" stroke="none" paint-order="stroke fill markers" d=" M 265 269 C 265 249.11774720000005 295.4446336 233 333 233 C 370.5553664 233 401 249.11774720000005 401 269 C 401 288.88225279999995 370.5553664 305 333 305 C 295.4446336 305 265 288.88225279999995 265 269 Z" fill-opacity="0.2"/></g><g><path fill="#ffffff" stroke="none" paint-order="stroke fill markers" d=" M 258 262 C 258 242.11774720000005 288.4446336 226 326 226 C 363.5553664 226 394 242.11774720000005 394 262 C 394 281.88225279999995 363.5553664 298 326 298 C 288.4446336 298 258 281.88225279999995 258 262 Z"/></g><g><path fill="none" stroke="#000000" paint-order="fill stroke markers" d=" M 258 262 C 258 242.11774720000005 288.4446336 226 326 226 C 363.5553664 226 394 242.11774720000005 394 262 C 394 281.88225279999995 363.5553664 298 326 298 C 288.4446336 298 258 281.88225279999995 258 262 Z" stroke-miterlimit="10" stroke-dasharray=""/></g><g><g><path fill="none" stroke="none"/><text fill="#000000" stroke="none" font-family="Arial" font-size="13px" font-style="normal" font-weight="bold" text-decoration="undefined" x="947" y="741" text-anchor="middle" dominant-baseline="central" transform="matrix(1 0 0 1 -621 -491)">UC[25] Errore</text><text fill="#000000" stroke="none" font-family="Arial" font-size="13px" font-style="normal" font-weight="bold" text-decoration="undefined" x="947" y="754" text-anchor="middle" dominant-baseline="central" transform="matrix(1 0 0 1 -621 -491)">«Prompt is</text><text fill="#000000" stroke="none" font-family="Arial" font-size="13px" font-style="normal" font-weight="bold" text-decoration="undefined" x="947" y="767" text-anchor="middle" dominant-baseline="central" transform="matrix(1 0 0 1 -621 -491)">required»</text></g></g><g><path fill="none" stroke="#000000" paint-order="fill stroke markers" d=" M 322 226 L 322 186 L 426 186 L 426 122" stroke-miterlimit="10" stroke-dasharray="3"/></g><g><path fill="none" stroke="#000000" paint-order="fill stroke markers" d=" M 430.2095177560159 132.1626748576241 L 426 122 L 421.7904822439841 132.1626748576241" stroke-miterlimit="10" stroke-dasharray=""/></g><g><rect fill="#ffffff" stroke="none" x="887" y="693" width="53.49169921875" height="13" transform="matrix(1 0 0 1 -621 -491)"/></g><g><g><path fill="none" stroke="none"/><text fill="#000000" stroke="none" font-family="Arial" font-size="13px" font-style="normal" font-weight="normal" text-decoration="undefined" x="913.745849609375" y="699.5" text-anchor="middle" dominant-baseline="central" transform="matrix(1 0 0 1 -621 -491)">«extend»</text></g></g></g></svg>