<svg version="1.1" xmlns="http://www.w3.org/2000/svg" xmlns:xlink="http://www.w3.org/1999/xlink" width="1069" height="324"><defs/><g><g><rect fill="#C0C0C0" stroke="none" x="596" y="526" width="840" height="304" transform="matrix(1 0 0 1 -371 -509)" fill-opacity="0.2"/></g><g><rect fill="#ffffff" stroke="none" x="589" y="519" width="840" height="304" transform="matrix(1 0 0 1 -371 -509)"/></g><g><path fill="none" stroke="#000000" paint-order="fill stroke markers" d=" M 218 10 L 1058 10 L 1058 314 L 218 314 L 218 10 Z Z" stroke-miterlimit="10" stroke-dasharray=""/></g><g><g><path fill="none" stroke="none"/><text fill="#000000" stroke="none" font-family="Arial" font-size="13px" font-style="normal" font-weight="bold" text-decoration="undefined" x="1009.5" y="532.5" text-anchor="middle" dominant-baseline="central" transform="matrix(1 0 0 1 -371 -509)">Sistema</text></g></g><g><path fill="#ffffff" stroke="none" paint-order="stroke fill markers" d=" M 76.57772460937503 75.85000000000002 C 76.57772460937503 70.96227952000004 80.53552697737501 67 85.417724609375 67 C 90.29992224137499 67 94.25772460937497 70.96227952000004 94.25772460937497 75.85000000000002 C 94.25772460937497 80.73772048000001 90.29992224137499 84.70000000000005 85.417724609375 84.70000000000005 C 80.53552697737501 84.70000000000005 76.57772460937503 80.73772048000001 76.57772460937503 75.85000000000002 Z"/></g><g><path fill="none" stroke="#000000" paint-order="fill stroke markers" d=" M 76.57772460937503 75.85000000000002 C 76.57772460937503 70.96227952000004 80.53552697737501 67 85.417724609375 67 C 90.29992224137499 67 94.25772460937497 70.96227952000004 94.25772460937497 75.85000000000002 C 94.25772460937497 80.73772048000001 90.29992224137499 84.70000000000005 85.417724609375 84.70000000000005 C 80.53552697737501 84.70000000000005 76.57772460937503 80.73772048000001 76.57772460937503 75.85000000000002 Z" stroke-miterlimit="10" stroke-dasharray=""/></g><g><path fill="none" stroke="#000000" paint-order="fill stroke markers" d=" M 85.417724609375 84.70000000000005 L 85.417724609375 102.29999999999995" stroke-miterlimit="10" stroke-dasharray=""/></g><g><path fill="none" stroke="#000000" paint-order="fill stroke markers" d=" M 76.05772460937499 91.29999999999995 L 94.77772460937501 91.29999999999995" stroke-miterlimit="10" stroke-dasharray=""/></g><g><path fill="none" stroke="#000000" paint-order="fill stroke markers" d=" M 85.417724609375 102.29999999999995 L 72.417724609375 120" stroke-miterlimit="10" stroke-dasharray=""/></g><g><path fill="none" stroke="#000000" paint-order="fill stroke markers" d=" M 85.417724609375 102.29999999999995 L 98.417724609375 120" stroke-miterlimit="10" stroke-dasharray=""/></g><g><g><path fill="none" stroke="none"/><text fill="#000000" stroke="none" font-family="Arial" font-size="13px" font-style="normal" font-weight="bold" text-decoration="undefined" x="456.917724609375" y="643.5" text-anchor="middle" dominant-baseline="central" transform="matrix(1 0 0 1 -371 -509)">Utente non autenticato</text></g></g><g><path fill="#C0C0C0" stroke="none" paint-order="stroke fill markers" d=" M 273 114.5 C 273 104.835016 299.4151968 97 332 97 C 364.5848032 97 391 104.835016 391 114.5 C 391 124.164984 364.5848032 132 332 132 C 299.4151968 132 273 124.164984 273 114.5 Z" fill-opacity="0.2"/></g><g><path fill="#ffffff" stroke="none" paint-order="stroke fill markers" d=" M 266 107.5 C 266 97.835016 292.4151968 90 325 90 C 357.5848032 90 384 97.835016 384 107.5 C 384 117.164984 357.5848032 125 325 125 C 292.4151968 125 266 117.164984 266 107.5 Z"/></g><g><path fill="none" stroke="#000000" paint-order="fill stroke markers" d=" M 266 107.5 C 266 97.835016 292.4151968 90 325 90 C 357.5848032 90 384 97.835016 384 107.5 C 384 117.164984 357.5848032 125 325 125 C 292.4151968 125 266 117.164984 266 107.5 Z" stroke-miterlimit="10" stroke-dasharray=""/></g><g><g><path fill="none" stroke="none"/><text fill="#000000" stroke="none" font-family="Arial" font-size="13px" font-style="normal" font-weight="bold" text-decoration="undefined" x="696" y="617.5" text-anchor="middle" dominant-baseline="central" transform="matrix(1 0 0 1 -371 -509)">UC[1] Login</text></g></g><g><path fill="none" stroke="#000000" paint-order="fill stroke markers" d=" M 161 106 L 266 106" stroke-miterlimit="10" stroke-dasharray=""/></g><g><path fill="#C0C0C0" stroke="none" paint-order="stroke fill markers" d=" M 833 69 C 833 49.11774720000005 863.4446336000001 33 901 33 C 938.5553663999999 33 969 49.11774720000005 969 69 C 969 88.88225279999995 938.5553663999999 105 901 105 C 863.4446336000001 105 833 88.88225279999995 833 69 Z" fill-opacity="0.2"/></g><g><path fill="#ffffff" stroke="none" paint-order="stroke fill markers" d=" M 826 62 C 826 42.11774720000005 856.4446336000001 26 894 26 C 931.5553663999999 26 962 42.11774720000005 962 62 C 962 81.88225279999995 931.5553663999999 98 894 98 C 856.4446336000001 98 826 81.88225279999995 826 62 Z"/></g><g><path fill="none" stroke="#000000" paint-order="fill stroke markers" d=" M 826 62 C 826 42.11774720000005 856.4446336000001 26 894 26 C 931.5553663999999 26 962 42.11774720000005 962 62 C 962 81.88225279999995 931.5553663999999 98 894 98 C 856.4446336000001 98 826 81.88225279999995 826 62 Z" stroke-miterlimit="10" stroke-dasharray=""/></g><g><g><path fill="none" stroke="none"/><text fill="#000000" stroke="none" font-family="Arial" font-size="13px" font-style="normal" font-weight="bold" text-decoration="undefined" x="1265" y="559" text-anchor="middle" dominant-baseline="central" transform="matrix(1 0 0 1 -371 -509)">UC[2]</text><text fill="#000000" stroke="none" font-family="Arial" font-size="13px" font-style="normal" font-weight="bold" text-decoration="undefined" x="1265" y="572" text-anchor="middle" dominant-baseline="central" transform="matrix(1 0 0 1 -371 -509)">Inserimento</text><text fill="#000000" stroke="none" font-family="Arial" font-size="13px" font-style="normal" font-weight="bold" text-decoration="undefined" x="1265" y="585" text-anchor="middle" dominant-baseline="central" transform="matrix(1 0 0 1 -371 -509)">E-mail</text></g></g><g><path fill="#C0C0C0" stroke="none" paint-order="stroke fill markers" d=" M 249 269 C 249 249.11774720000005 284.81721600000003 233 329 233 C 373.18278399999997 233 409 249.11774720000005 409 269 C 409 288.88225279999995 373.18278399999997 305 329 305 C 284.81721600000003 305 249 288.88225279999995 249 269 Z" fill-opacity="0.2"/></g><g><path fill="#ffffff" stroke="none" paint-order="stroke fill markers" d=" M 242 262 C 242 242.11774720000005 277.81721600000003 226 322 226 C 366.18278399999997 226 402 242.11774720000005 402 262 C 402 281.88225279999995 366.18278399999997 298 322 298 C 277.81721600000003 298 242 281.88225279999995 242 262 Z"/></g><g><path fill="none" stroke="#000000" paint-order="fill stroke markers" d=" M 242 262 C 242 242.11774720000005 277.81721600000003 226 322 226 C 366.18278399999997 226 402 242.11774720000005 402 262 C 402 281.88225279999995 366.18278399999997 298 322 298 C 277.81721600000003 298 242 281.88225279999995 242 262 Z" stroke-miterlimit="10" stroke-dasharray=""/></g><g><g><path fill="none" stroke="none"/><text fill="#000000" stroke="none" font-family="Arial" font-size="13px" font-style="normal" font-weight="bold" text-decoration="undefined" x="693" y="759" text-anchor="middle" dominant-baseline="central" transform="matrix(1 0 0 1 -371 -509)">UC[4] Errore</text><text fill="#000000" stroke="none" font-family="Arial" font-size="13px" font-style="normal" font-weight="bold" text-decoration="undefined" x="693" y="772" text-anchor="middle" dominant-baseline="central" transform="matrix(1 0 0 1 -371 -509)">«Credenziali</text><text fill="#000000" stroke="none" font-family="Arial" font-size="13px" font-style="normal" font-weight="bold" text-decoration="undefined" x="693" y="785" text-anchor="middle" dominant-baseline="central" transform="matrix(1 0 0 1 -371 -509)">non valide»</text></g></g><g><path fill="#C0C0C0" stroke="none" paint-order="stroke fill markers" d=" M 425 269 C 425 249.11774720000005 457.2354944 233 497 233 C 536.7645056 233 569 249.11774720000005 569 269 C 569 288.88225279999995 536.7645056 305 497 305 C 457.2354944 305 425 288.88225279999995 425 269 Z" fill-opacity="0.2"/></g><g><path fill="#ffffff" stroke="none" paint-order="stroke fill markers" d=" M 418 262 C 418 242.11774720000005 450.2354944 226 490 226 C 529.7645056 226 562 242.11774720000005 562 262 C 562 281.88225279999995 529.7645056 298 490 298 C 450.2354944 298 418 281.88225279999995 418 262 Z"/></g><g><path fill="none" stroke="#000000" paint-order="fill stroke markers" d=" M 418 262 C 418 242.11774720000005 450.2354944 226 490 226 C 529.7645056 226 562 242.11774720000005 562 262 C 562 281.88225279999995 529.7645056 298 490 298 C 450.2354944 298 418 281.88225279999995 418 262 Z" stroke-miterlimit="10" stroke-dasharray=""/></g><g><g><path fill="none" stroke="none"/><text fill="#000000" stroke="none" font-family="Arial" font-size="13px" font-style="normal" font-weight="bold" text-decoration="undefined" x="861" y="765.5" text-anchor="middle" dominant-baseline="central" transform="matrix(1 0 0 1 -371 -509)">UC[8] Errore</text><text fill="#000000" stroke="none" font-family="Arial" font-size="13px" font-style="normal" font-weight="bold" text-decoration="undefined" x="861" y="778.5" text-anchor="middle" dominant-baseline="central" transform="matrix(1 0 0 1 -371 -509)">Generico</text></g></g><g><path fill="none" stroke="#000000" paint-order="fill stroke markers" d=" M 384 99 L 402 99 L 402 58 L 826 58" stroke-miterlimit="10" stroke-dasharray="3"/></g><g><path fill="none" stroke="#000000" paint-order="fill stroke markers" d=" M 815.8373251423759 62.209517756016 L 826 58 L 815.8373251423759 53.790482243984" stroke-miterlimit="10" stroke-dasharray=""/></g><g><rect fill="#ffffff" stroke="none" x="756" y="538" width="55.65625" height="13" transform="matrix(1 0 0 1 -371 -509)"/></g><g><g><path fill="none" stroke="none"/><text fill="#000000" stroke="none" font-family="Arial" font-size="13px" font-style="normal" font-weight="normal" text-decoration="undefined" x="783.828125" y="544.5" text-anchor="middle" dominant-baseline="central" transform="matrix(1 0 0 1 -371 -509)">«include»</text></g></g><g><path fill="none" stroke="#000000" paint-order="fill stroke markers" d=" M 322 226 L 322 125" stroke-miterlimit="10" stroke-dasharray="3"/></g><g><path fill="none" stroke="#000000" paint-order="fill stroke markers" d=" M 326.209517756016 135.1626748576241 L 322 125 L 317.790482243984 135.1626748576241" stroke-miterlimit="10" stroke-dasharray=""/></g><g><rect fill="#ffffff" stroke="none" x="626" y="719" width="53.49169921875" height="13" transform="matrix(1 0 0 1 -371 -509)"/></g><g><g><path fill="none" stroke="none"/><text fill="#000000" stroke="none" font-family="Arial" font-size="13px" font-style="normal" font-weight="normal" text-decoration="undefined" x="652.745849609375" y="725.5" text-anchor="middle" dominant-baseline="central" transform="matrix(1 0 0 1 -371 -509)">«extend»</text></g></g><g><path fill="none" stroke="#000000" paint-order="fill stroke markers" d=" M 490 226 L 490 186 L 322 186 L 322 125" stroke-miterlimit="10" stroke-dasharray="3"/></g><g><path fill="none" stroke="#000000" paint-order="fill stroke markers" d=" M 326.209517756016 135.1626748576241 L 322 125 L 317.790482243984 135.1626748576241" stroke-miterlimit="10" stroke-dasharray=""/></g><g><rect fill="#ffffff" stroke="none" x="797" y="718" width="53.49169921875" height="13" transform="matrix(1 0 0 1 -371 -509)"/></g><g><g><path fill="none" stroke="none"/><text fill="#000000" stroke="none" font-family="Arial" font-size="13px" font-style="normal" font-weight="normal" text-decoration="undefined" x="823.745849609375" y="724.5" text-anchor="middle" dominant-baseline="central" transform="matrix(1 0 0 1 -371 -509)">«extend»</text></g></g><g><path fill="#C0C0C0" stroke="none" paint-order="stroke fill markers" d=" M 833 149 C 833 129.11774720000005 863.4446336000001 113 901 113 C 938.5553663999999 113 969 129.11774720000005 969 149 C 969 168.88225279999995 938.5553663999999 185 901 185 C 863.4446336000001 185 833 168.88225279999995 833 149 Z" fill-opacity="0.2"/></g><g><path fill="#ffffff" stroke="none" paint-order="stroke fill markers" d=" M 826 142 C 826 122.11774720000005 856.4446336000001 106 894 106 C 931.5553663999999 106 962 122.11774720000005 962 142 C 962 161.88225279999995 931.5553663999999 178 894 178 C 856.4446336000001 178 826 161.88225279999995 826 142 Z"/></g><g><path fill="none" stroke="#000000" paint-order="fill stroke markers" d=" M 826 142 C 826 122.11774720000005 856.4446336000001 106 894 106 C 931.5553663999999 106 962 122.11774720000005 962 142 C 962 161.88225279999995 931.5553663999999 178 894 178 C 856.4446336000001 178 826 161.88225279999995 826 142 Z" stroke-miterlimit="10" stroke-dasharray=""/></g><g><g><path fill="none" stroke="none"/><text fill="#000000" stroke="none" font-family="Arial" font-size="13px" font-style="normal" font-weight="bold" text-decoration="undefined" x="1265" y="639" text-anchor="middle" dominant-baseline="central" transform="matrix(1 0 0 1 -371 -509)">UC[3]</text><text fill="#000000" stroke="none" font-family="Arial" font-size="13px" font-style="normal" font-weight="bold" text-decoration="undefined" x="1265" y="652" text-anchor="middle" dominant-baseline="central" transform="matrix(1 0 0 1 -371 -509)">Inserimento</text><text fill="#000000" stroke="none" font-family="Arial" font-size="13px" font-style="normal" font-weight="bold" text-decoration="undefined" x="1265" y="665" text-anchor="middle" dominant-baseline="central" transform="matrix(1 0 0 1 -371 -509)">Password</text></g></g><g><path fill="none" stroke="#000000" paint-order="fill stroke markers" d=" M 384 99 L 402 99 L 402 146 L 826 146" stroke-miterlimit="10" stroke-dasharray="3"/></g><g><path fill="none" stroke="#000000" paint-order="fill stroke markers" d=" M 815.8373251423759 150.209517756016 L 826 146 L 815.8373251423759 141.790482243984" stroke-miterlimit="10" stroke-dasharray=""/></g><g><rect fill="#ffffff" stroke="none" x="756" y="651" width="55.65625" height="13" transform="matrix(1 0 0 1 -371 -509)"/></g><g><g><path fill="none" stroke="none"/><text fill="#000000" stroke="none" font-family="Arial" font-size="13px" font-style="normal" font-weight="normal" text-decoration="undefined" x="783.828125" y="657.5" text-anchor="middle" dominant-baseline="central" transform="matrix(1 0 0 1 -371 -509)">«include»</text></g></g><g><path fill="#C0C0C0" stroke="none" paint-order="stroke fill markers" d=" M 761 269 C 761 249.11774720000005 791.4446336000001 233 829 233 C 866.5553663999999 233 897 249.11774720000005 897 269 C 897 288.88225279999995 866.5553663999999 305 829 305 C 791.4446336000001 305 761 288.88225279999995 761 269 Z" fill-opacity="0.2"/></g><g><path fill="#ffffff" stroke="none" paint-order="stroke fill markers" d=" M 754 262 C 754 242.11774720000005 784.4446336000001 226 822 226 C 859.5553663999999 226 890 242.11774720000005 890 262 C 890 281.88225279999995 859.5553663999999 298 822 298 C 784.4446336000001 298 754 281.88225279999995 754 262 Z"/></g><g><path fill="none" stroke="#000000" paint-order="fill stroke markers" d=" M 754 262 C 754 242.11774720000005 784.4446336000001 226 822 226 C 859.5553663999999 226 890 242.11774720000005 890 262 C 890 281.88225279999995 859.5553663999999 298 822 298 C 784.4446336000001 298 754 281.88225279999995 754 262 Z" stroke-miterlimit="10" stroke-dasharray=""/></g><g><g><path fill="none" stroke="none"/><text fill="#000000" stroke="none" font-family="Arial" font-size="13px" font-style="normal" font-weight="bold" text-decoration="undefined" x="1193" y="759" text-anchor="middle" dominant-baseline="central" transform="matrix(1 0 0 1 -371 -509)">UC[5] Errore</text><text fill="#000000" stroke="none" font-family="Arial" font-size="13px" font-style="normal" font-weight="bold" text-decoration="undefined" x="1193" y="772" text-anchor="middle" dominant-baseline="central" transform="matrix(1 0 0 1 -371 -509)">«Utente non</text><text fill="#000000" stroke="none" font-family="Arial" font-size="13px" font-style="normal" font-weight="bold" text-decoration="undefined" x="1193" y="785" text-anchor="middle" dominant-baseline="central" transform="matrix(1 0 0 1 -371 -509)">trovato»</text></g></g><g><path fill="#C0C0C0" stroke="none" paint-order="stroke fill markers" d=" M 585 269 C 585 249.11774720000005 620.817216 233 665 233 C 709.1827840000001 233 745 249.11774720000005 745 269 C 745 288.88225279999995 709.1827840000001 305 665 305 C 620.817216 305 585 288.88225279999995 585 269 Z" fill-opacity="0.2"/></g><g><path fill="#ffffff" stroke="none" paint-order="stroke fill markers" d=" M 578 262 C 578 242.11774720000005 613.817216 226 658 226 C 702.1827840000001 226 738 242.11774720000005 738 262 C 738 281.88225279999995 702.1827840000001 298 658 298 C 613.817216 298 578 281.88225279999995 578 262 Z"/></g><g><path fill="none" stroke="#000000" paint-order="fill stroke markers" d=" M 578 262 C 578 242.11774720000005 613.817216 226 658 226 C 702.1827840000001 226 738 242.11774720000005 738 262 C 738 281.88225279999995 702.1827840000001 298 658 298 C 613.817216 298 578 281.88225279999995 578 262 Z" stroke-miterlimit="10" stroke-dasharray=""/></g><g><g><path fill="none" stroke="none"/><text fill="#000000" stroke="none" font-family="Arial" font-size="13px" font-style="normal" font-weight="bold" text-decoration="undefined" x="1029" y="759" text-anchor="middle" dominant-baseline="central" transform="matrix(1 0 0 1 -371 -509)">UC[6] Errore</text><text fill="#000000" stroke="none" font-family="Arial" font-size="13px" font-style="normal" font-weight="bold" text-decoration="undefined" x="1029" y="772" text-anchor="middle" dominant-baseline="central" transform="matrix(1 0 0 1 -371 -509)">«Troppi tentativi</text><text fill="#000000" stroke="none" font-family="Arial" font-size="13px" font-style="normal" font-weight="bold" text-decoration="undefined" x="1029" y="785" text-anchor="middle" dominant-baseline="central" transform="matrix(1 0 0 1 -371 -509)">di accesso»</text></g></g><g><path fill="#C0C0C0" stroke="none" paint-order="stroke fill markers" d=" M 913 270 C 913 245.14718400000004 941.6537728000001 225 977 225 C 1012.3462271999999 225 1041 245.14718400000004 1041 270 C 1041 294.85281599999996 1012.3462271999999 315 977 315 C 941.6537728000001 315 913 294.85281599999996 913 270 Z" fill-opacity="0.2"/></g><g><path fill="#ffffff" stroke="none" paint-order="stroke fill markers" d=" M 906 263 C 906 238.14718400000004 934.6537728000001 218 970 218 C 1005.3462271999999 218 1034 238.14718400000004 1034 263 C 1034 287.85281599999996 1005.3462271999999 308 970 308 C 934.6537728000001 308 906 287.85281599999996 906 263 Z"/></g><g><path fill="none" stroke="#000000" paint-order="fill stroke markers" d=" M 906 263 C 906 238.14718400000004 934.6537728000001 218 970 218 C 1005.3462271999999 218 1034 238.14718400000004 1034 263 C 1034 287.85281599999996 1005.3462271999999 308 970 308 C 934.6537728000001 308 906 287.85281599999996 906 263 Z" stroke-miterlimit="10" stroke-dasharray=""/></g><g><g><path fill="none" stroke="none"/><text fill="#000000" stroke="none" font-family="Arial" font-size="13px" font-style="normal" font-weight="bold" text-decoration="undefined" x="1341" y="753.5" text-anchor="middle" dominant-baseline="central" transform="matrix(1 0 0 1 -371 -509)">UC[7] Errore</text><text fill="#000000" stroke="none" font-family="Arial" font-size="13px" font-style="normal" font-weight="bold" text-decoration="undefined" x="1341" y="766.5" text-anchor="middle" dominant-baseline="central" transform="matrix(1 0 0 1 -371 -509)">«Account</text><text fill="#000000" stroke="none" font-family="Arial" font-size="13px" font-style="normal" font-weight="bold" text-decoration="undefined" x="1341" y="779.5" text-anchor="middle" dominant-baseline="central" transform="matrix(1 0 0 1 -371 -509)">non</text><text fill="#000000" stroke="none" font-family="Arial" font-size="13px" font-style="normal" font-weight="bold" text-decoration="undefined" x="1341" y="792.5" text-anchor="middle" dominant-baseline="central" transform="matrix(1 0 0 1 -371 -509)">verificato»</text></g></g><g><path fill="none" stroke="#000000" paint-order="fill stroke markers" d=" M 666 226 L 666 186 L 322 186 L 322 125" stroke-miterlimit="10" stroke-dasharray="3"/></g><g><path fill="none" stroke="#000000" paint-order="fill stroke markers" d=" M 326.209517756016 135.1626748576241 L 322 125 L 317.790482243984 135.1626748576241" stroke-miterlimit="10" stroke-dasharray=""/></g><g><rect fill="#ffffff" stroke="none" x="1261" y="710" width="53.49169921875" height="13" transform="matrix(1 0 0 1 -371 -509)"/></g><g><g><path fill="none" stroke="none"/><text fill="#000000" stroke="none" font-family="Arial" font-size="13px" font-style="normal" font-weight="normal" text-decoration="undefined" x="1287.745849609375" y="716.5" text-anchor="middle" dominant-baseline="central" transform="matrix(1 0 0 1 -371 -509)">«extend»</text></g></g><g><path fill="none" stroke="#000000" paint-order="fill stroke markers" d=" M 818 226 L 818 186 L 322 186 L 322 125" stroke-miterlimit="10" stroke-dasharray="3"/></g><g><path fill="none" stroke="#000000" paint-order="fill stroke markers" d=" M 326.209517756016 135.1626748576241 L 322 125 L 317.790482243984 135.1626748576241" stroke-miterlimit="10" stroke-dasharray=""/></g><g><rect fill="#ffffff" stroke="none" x="1125" y="718" width="53.49169921875" height="13" transform="matrix(1 0 0 1 -371 -509)"/></g><g><g><path fill="none" stroke="none"/><text fill="#000000" stroke="none" font-family="Arial" font-size="13px" font-style="normal" font-weight="normal" text-decoration="undefined" x="1151.745849609375" y="724.5" text-anchor="middle" dominant-baseline="central" transform="matrix(1 0 0 1 -371 -509)">«extend»</text></g></g><g><path fill="none" stroke="#000000" paint-order="fill stroke markers" d=" M 970 218 L 970 194 L 818 194 L 818 186 L 322 186 L 322 125" stroke-miterlimit="10" stroke-dasharray="3"/></g><g><path fill="none" stroke="#000000" paint-order="fill stroke markers" d=" M 326.209517756016 135.1626748576241 L 322 125 L 317.790482243984 135.1626748576241" stroke-miterlimit="10" stroke-dasharray=""/></g><g><rect fill="#ffffff" stroke="none" x="981" y="719" width="53.49169921875" height="13" transform="matrix(1 0 0 1 -371 -509)"/></g><g><g><path fill="none" stroke="none"/><text fill="#000000" stroke="none" font-family="Arial" font-size="13px" font-style="normal" font-weight="normal" text-decoration="undefined" x="1007.745849609375" y="725.5" text-anchor="middle" dominant-baseline="central" transform="matrix(1 0 0 1 -371 -509)">«extend»</text></g></g></g></svg>