<svg version="1.1" xmlns="http://www.w3.org/2000/svg" xmlns:xlink="http://www.w3.org/1999/xlink" width="1037" height="517"><defs/><g><g><rect fill="#C0C0C0" stroke="none" x="730" y="4964" width="816" height="497" transform="matrix(1 0 0 1 -513 -4947)" fill-opacity="0.2"/></g><g><rect fill="#ffffff" stroke="none" x="723" y="4957" width="816" height="497" transform="matrix(1 0 0 1 -513 -4947)"/></g><g><path fill="none" stroke="#000000" paint-order="fill stroke markers" d=" M 210 10 L 1026 10 L 1026 507 L 210 507 L 210 10 Z Z" stroke-miterlimit="10" stroke-dasharray=""/></g><g><g><path fill="none" stroke="none"/><text fill="#000000" stroke="none" font-family="Arial" font-size="13px" font-style="normal" font-weight="bold" text-decoration="undefined" x="1131.5" y="4970.5" text-anchor="middle" dominant-baseline="central" transform="matrix(1 0 0 1 -513 -4947)">Sistema</text></g></g><g><path fill="#ffffff" stroke="none" paint-order="stroke fill markers" d=" M 88.14632812499997 147.85000000000036 C 88.14632812499997 142.96227952000027 92.10413049299996 139 96.986328125 139 C 101.86852575700004 139 105.82632812500003 142.96227952000027 105.82632812500003 147.85000000000036 C 105.82632812500003 152.73772048000046 101.86852575700004 156.69999999999982 96.986328125 156.69999999999982 C 92.10413049299996 156.69999999999982 88.14632812499997 152.73772048000046 88.14632812499997 147.85000000000036 Z"/></g><g><path fill="none" stroke="#000000" paint-order="fill stroke markers" d=" M 88.14632812499997 147.85000000000036 C 88.14632812499997 142.96227952000027 92.10413049299996 139 96.986328125 139 C 101.86852575700004 139 105.82632812500003 142.96227952000027 105.82632812500003 147.85000000000036 C 105.82632812500003 152.73772048000046 101.86852575700004 156.69999999999982 96.986328125 156.69999999999982 C 92.10413049299996 156.69999999999982 88.14632812499997 152.73772048000046 88.14632812499997 147.85000000000036 Z" stroke-miterlimit="10" stroke-dasharray=""/></g><g><path fill="none" stroke="#000000" paint-order="fill stroke markers" d=" M 96.986328125 156.69999999999982 L 96.986328125 174.30000000000018" stroke-miterlimit="10" stroke-dasharray=""/></g><g><path fill="none" stroke="#000000" paint-order="fill stroke markers" d=" M 87.62632812499999 163.30000000000018 L 106.34632812500001 163.30000000000018" stroke-miterlimit="10" stroke-dasharray=""/></g><g><path fill="none" stroke="#000000" paint-order="fill stroke markers" d=" M 96.986328125 174.30000000000018 L 83.986328125 192" stroke-miterlimit="10" stroke-dasharray=""/></g><g><path fill="none" stroke="#000000" paint-order="fill stroke markers" d=" M 96.986328125 174.30000000000018 L 109.986328125 192" stroke-miterlimit="10" stroke-dasharray=""/></g><g><g><path fill="none" stroke="none"/><text fill="#000000" stroke="none" font-family="Arial" font-size="13px" font-style="normal" font-weight="bold" text-decoration="undefined" x="610.486328125" y="5153.5" text-anchor="middle" dominant-baseline="central" transform="matrix(1 0 0 1 -513 -4947)">Utente autenticato</text></g></g><g><path fill="#C0C0C0" stroke="none" paint-order="stroke fill markers" d=" M 321 189 C 321 169.11774719999994 374.725824 153 441 153 C 507.274176 153 561 169.11774719999994 561 189 C 561 208.88225280000006 507.274176 225 441 225 C 374.725824 225 321 208.88225280000006 321 189 Z" fill-opacity="0.2"/></g><g><path fill="#ffffff" stroke="none" paint-order="stroke fill markers" d=" M 314 182 C 314 162.11774719999994 367.725824 146 434 146 C 500.274176 146 554 162.11774719999994 554 182 C 554 201.88225280000006 500.274176 218 434 218 C 367.725824 218 314 201.88225280000006 314 182 Z"/></g><g><path fill="none" stroke="#000000" paint-order="fill stroke markers" d=" M 314 182 C 314 162.11774719999994 367.725824 146 434 146 C 500.274176 146 554 162.11774719999994 554 182 C 554 201.88225280000006 500.274176 218 434 218 C 367.725824 218 314 201.88225280000006 314 182 Z" stroke-miterlimit="10" stroke-dasharray=""/></g><g><g><path fill="none" stroke="none"/><text fill="#000000" stroke="none" font-family="Arial" font-size="13px" font-style="normal" font-weight="bold" text-decoration="undefined" x="947" y="5117" text-anchor="middle" dominant-baseline="central" transform="matrix(1 0 0 1 -513 -4947)">UC[45] Modificare le</text><text fill="#000000" stroke="none" font-family="Arial" font-size="13px" font-style="normal" font-weight="bold" text-decoration="undefined" x="947" y="5130" text-anchor="middle" dominant-baseline="central" transform="matrix(1 0 0 1 -513 -4947)">impostazioni di un</text><text fill="#000000" stroke="none" font-family="Arial" font-size="13px" font-style="normal" font-weight="bold" text-decoration="undefined" x="947" y="5143" text-anchor="middle" dominant-baseline="central" transform="matrix(1 0 0 1 -513 -4947)">singolo blocco</text></g></g><g><path fill="none" stroke="#000000" paint-order="fill stroke markers" d=" M 184 178 L 314 178" stroke-miterlimit="10" stroke-dasharray=""/></g><g><path fill="#C0C0C0" stroke="none" paint-order="stroke fill markers" d=" M 369 437 C 369 417.11774719999994 401.2354944 401 441 401 C 480.7645056 401 513 417.11774719999994 513 437 C 513 456.88225280000006 480.7645056 473 441 473 C 401.2354944 473 369 456.88225280000006 369 437 Z" fill-opacity="0.2"/></g><g><path fill="#ffffff" stroke="none" paint-order="stroke fill markers" d=" M 362 430 C 362 410.11774719999994 394.2354944 394 434 394 C 473.7645056 394 506 410.11774719999994 506 430 C 506 449.88225280000006 473.7645056 466 434 466 C 394.2354944 466 362 449.88225280000006 362 430 Z"/></g><g><path fill="none" stroke="#000000" paint-order="fill stroke markers" d=" M 362 430 C 362 410.11774719999994 394.2354944 394 434 394 C 473.7645056 394 506 410.11774719999994 506 430 C 506 449.88225280000006 473.7645056 466 434 466 C 394.2354944 466 362 449.88225280000006 362 430 Z" stroke-miterlimit="10" stroke-dasharray=""/></g><g><g><path fill="none" stroke="none"/><text fill="#000000" stroke="none" font-family="Arial" font-size="13px" font-style="normal" font-weight="bold" text-decoration="undefined" x="947" y="5371.5" text-anchor="middle" dominant-baseline="central" transform="matrix(1 0 0 1 -513 -4947)">UC[8] Errore</text><text fill="#000000" stroke="none" font-family="Arial" font-size="13px" font-style="normal" font-weight="bold" text-decoration="undefined" x="947" y="5384.5" text-anchor="middle" dominant-baseline="central" transform="matrix(1 0 0 1 -513 -4947)">Generico</text></g></g><g><path fill="none" stroke="#000000" paint-order="fill stroke markers" d=" M 434 394 L 434 218" stroke-miterlimit="10" stroke-dasharray="3"/></g><g><path fill="none" stroke="#000000" paint-order="fill stroke markers" d=" M 438.209517756016 228.16267485762455 L 434 218 L 429.790482243984 228.16267485762455" stroke-miterlimit="10" stroke-dasharray=""/></g><g><rect fill="#ffffff" stroke="none" x="883" y="5309" width="53.49169921875" height="13" transform="matrix(1 0 0 1 -513 -4947)"/></g><g><g><path fill="none" stroke="none"/><text fill="#000000" stroke="none" font-family="Arial" font-size="13px" font-style="normal" font-weight="normal" text-decoration="undefined" x="909.745849609375" y="5315.5" text-anchor="middle" dominant-baseline="central" transform="matrix(1 0 0 1 -513 -4947)">«extend»</text></g></g><g><path fill="#C0C0C0" stroke="none" paint-order="stroke fill markers" d=" M 673 85 C 673 65.11774719999994 750.0070144000001 49 845 49 C 939.9929855999999 49 1017 65.11774719999994 1017 85 C 1017 104.88225280000006 939.9929855999999 121 845 121 C 750.0070144000001 121 673 104.88225280000006 673 85 Z" fill-opacity="0.2"/></g><g><path fill="#ffffff" stroke="none" paint-order="stroke fill markers" d=" M 666 78 C 666 58.11774719999994 743.0070144000001 42 838 42 C 932.9929855999999 42 1010 58.11774719999994 1010 78 C 1010 97.88225280000006 932.9929855999999 114 838 114 C 743.0070144000001 114 666 97.88225280000006 666 78 Z"/></g><g><path fill="none" stroke="#000000" paint-order="fill stroke markers" d=" M 666 78 C 666 58.11774719999994 743.0070144000001 42 838 42 C 932.9929855999999 42 1010 58.11774719999994 1010 78 C 1010 97.88225280000006 932.9929855999999 114 838 114 C 743.0070144000001 114 666 97.88225280000006 666 78 Z" stroke-miterlimit="10" stroke-dasharray=""/></g><g><g><path fill="none" stroke="none"/><text fill="#000000" stroke="none" font-family="Arial" font-size="13px" font-style="normal" font-weight="bold" text-decoration="undefined" x="1351" y="5013" text-anchor="middle" dominant-baseline="central" transform="matrix(1 0 0 1 -513 -4947)">UC[46] Modifica impostazioni del</text><text fill="#000000" stroke="none" font-family="Arial" font-size="13px" font-style="normal" font-weight="bold" text-decoration="undefined" x="1351" y="5026" text-anchor="middle" dominant-baseline="central" transform="matrix(1 0 0 1 -513 -4947)">blocco "Telegram - Send Bot</text><text fill="#000000" stroke="none" font-family="Arial" font-size="13px" font-style="normal" font-weight="bold" text-decoration="undefined" x="1351" y="5039" text-anchor="middle" dominant-baseline="central" transform="matrix(1 0 0 1 -513 -4947)">Message"</text></g></g><g><path fill="#C0C0C0" stroke="none" paint-order="stroke fill markers" d=" M 681 435.5 C 681 420.86445280000044 752.6344320000001 409 841 409 C 929.3655679999999 409 1001 420.86445280000044 1001 435.5 C 1001 450.13554719999956 929.3655679999999 462 841 462 C 752.6344320000001 462 681 450.13554719999956 681 435.5 Z" fill-opacity="0.2"/></g><g><path fill="#ffffff" stroke="none" paint-order="stroke fill markers" d=" M 674 428.5 C 674 413.86445280000044 745.6344320000001 402 834 402 C 922.3655679999999 402 994 413.86445280000044 994 428.5 C 994 443.13554719999956 922.3655679999999 455 834 455 C 745.6344320000001 455 674 443.13554719999956 674 428.5 Z"/></g><g><path fill="none" stroke="#000000" paint-order="fill stroke markers" d=" M 674 428.5 C 674 413.86445280000044 745.6344320000001 402 834 402 C 922.3655679999999 402 994 413.86445280000044 994 428.5 C 994 443.13554719999956 922.3655679999999 455 834 455 C 745.6344320000001 455 674 443.13554719999956 674 428.5 Z" stroke-miterlimit="10" stroke-dasharray=""/></g><g><g><path fill="none" stroke="none"/><text fill="#000000" stroke="none" font-family="Arial" font-size="13px" font-style="normal" font-weight="bold" text-decoration="undefined" x="1347" y="5370" text-anchor="middle" dominant-baseline="central" transform="matrix(1 0 0 1 -513 -4947)">UC[48] Modifica impostazioni del</text><text fill="#000000" stroke="none" font-family="Arial" font-size="13px" font-style="normal" font-weight="bold" text-decoration="undefined" x="1347" y="5383" text-anchor="middle" dominant-baseline="central" transform="matrix(1 0 0 1 -513 -4947)">blocco "Notion - Get Page"</text></g></g><g><path fill="#C0C0C0" stroke="none" paint-order="stroke fill markers" d=" M 673 251.5 C 673 236.86445280000044 748.2161536000001 225 841 225 C 933.7838463999999 225 1009 236.86445280000044 1009 251.5 C 1009 266.13554719999956 933.7838463999999 278 841 278 C 748.2161536000001 278 673 266.13554719999956 673 251.5 Z" fill-opacity="0.2"/></g><g><path fill="#ffffff" stroke="none" paint-order="stroke fill markers" d=" M 666 244.5 C 666 229.86445280000044 741.2161536000001 218 834 218 C 926.7838463999999 218 1002 229.86445280000044 1002 244.5 C 1002 259.13554719999956 926.7838463999999 271 834 271 C 741.2161536000001 271 666 259.13554719999956 666 244.5 Z"/></g><g><path fill="none" stroke="#000000" paint-order="fill stroke markers" d=" M 666 244.5 C 666 229.86445280000044 741.2161536000001 218 834 218 C 926.7838463999999 218 1002 229.86445280000044 1002 244.5 C 1002 259.13554719999956 926.7838463999999 271 834 271 C 741.2161536000001 271 666 259.13554719999956 666 244.5 Z" stroke-miterlimit="10" stroke-dasharray=""/></g><g><g><path fill="none" stroke="none"/><text fill="#000000" stroke="none" font-family="Arial" font-size="13px" font-style="normal" font-weight="bold" text-decoration="undefined" x="1347" y="5186" text-anchor="middle" dominant-baseline="central" transform="matrix(1 0 0 1 -513 -4947)">UC[47] Modifica impostazioni del</text><text fill="#000000" stroke="none" font-family="Arial" font-size="13px" font-style="normal" font-weight="bold" text-decoration="undefined" x="1347" y="5199" text-anchor="middle" dominant-baseline="central" transform="matrix(1 0 0 1 -513 -4947)">blocco "System - Wait Seconds"</text></g></g><g><path fill="none" stroke="#000000" paint-order="fill stroke markers" d=" M 674 428 L 634 428 L 634 186 L 554 186" stroke-miterlimit="10" stroke-dasharray=""/></g><g><path fill="#FFFFFF" stroke="none" paint-order="stroke fill markers" d=" M 574.3253497152482 177.58096448796823 L 554 186 L 574.3253497152482 194.41903551203177"/></g><g><path fill="none" stroke="#000000" paint-order="fill stroke markers" d=" M 574.3253497152482 177.58096448796823 L 554 186 L 574.3253497152482 194.41903551203177 L 574.3253497152482 177.58096448796823" stroke-miterlimit="10" stroke-dasharray=""/></g><g><path fill="none" stroke="#000000" paint-order="fill stroke markers" d=" M 666 244 L 634 244 L 634 186 L 554 186" stroke-miterlimit="10" stroke-dasharray=""/></g><g><path fill="#FFFFFF" stroke="none" paint-order="stroke fill markers" d=" M 574.3253497152482 177.58096448796823 L 554 186 L 574.3253497152482 194.41903551203177"/></g><g><path fill="none" stroke="#000000" paint-order="fill stroke markers" d=" M 574.3253497152482 177.58096448796823 L 554 186 L 574.3253497152482 194.41903551203177 L 574.3253497152482 177.58096448796823" stroke-miterlimit="10" stroke-dasharray=""/></g><g><path fill="none" stroke="#000000" paint-order="fill stroke markers" d=" M 666 82 L 634 82 L 634 186 L 554 186" stroke-miterlimit="10" stroke-dasharray=""/></g><g><path fill="#FFFFFF" stroke="none" paint-order="stroke fill markers" d=" M 574.3253497152482 177.58096448796823 L 554 186 L 574.3253497152482 194.41903551203177"/></g><g><path fill="none" stroke="#000000" paint-order="fill stroke markers" d=" M 574.3253497152482 177.58096448796823 L 554 186 L 574.3253497152482 194.41903551203177 L 574.3253497152482 177.58096448796823" stroke-miterlimit="10" stroke-dasharray=""/></g></g></svg>