<svg version="1.1" xmlns="http://www.w3.org/2000/svg" xmlns:xlink="http://www.w3.org/1999/xlink" width="825" height="324"><defs/><g><g><rect fill="#C0C0C0" stroke="none" x="752" y="508" width="612" height="304" transform="matrix(1 0 0 1 -543 -491)" fill-opacity="0.2"/></g><g><rect fill="#ffffff" stroke="none" x="745" y="501" width="612" height="304" transform="matrix(1 0 0 1 -543 -491)"/></g><g><path fill="none" stroke="#000000" paint-order="fill stroke markers" d=" M 202 10 L 814 10 L 814 314 L 202 314 L 202 10 Z Z" stroke-miterlimit="10" stroke-dasharray=""/></g><g><g><path fill="none" stroke="none"/><text fill="#000000" stroke="none" font-family="Arial" font-size="13px" font-style="normal" font-weight="bold" text-decoration="undefined" x="1051.5" y="514.5" text-anchor="middle" dominant-baseline="central" transform="matrix(1 0 0 1 -543 -491)">Sistema</text></g></g><g><path fill="#ffffff" stroke="none" paint-order="stroke fill markers" d=" M 88.14632812499997 56.85000000000002 C 88.14632812499997 51.96227952000004 92.10413049299996 48 96.986328125 48 C 101.86852575700004 48 105.82632812500003 51.96227952000004 105.82632812500003 56.85000000000002 C 105.82632812500003 61.73772048000001 101.86852575700004 65.70000000000005 96.986328125 65.70000000000005 C 92.10413049299996 65.70000000000005 88.14632812499997 61.73772048000001 88.14632812499997 56.85000000000002 Z"/></g><g><path fill="none" stroke="#000000" paint-order="fill stroke markers" d=" M 88.14632812499997 56.85000000000002 C 88.14632812499997 51.96227952000004 92.10413049299996 48 96.986328125 48 C 101.86852575700004 48 105.82632812500003 51.96227952000004 105.82632812500003 56.85000000000002 C 105.82632812500003 61.73772048000001 101.86852575700004 65.70000000000005 96.986328125 65.70000000000005 C 92.10413049299996 65.70000000000005 88.14632812499997 61.73772048000001 88.14632812499997 56.85000000000002 Z" stroke-miterlimit="10" stroke-dasharray=""/></g><g><path fill="none" stroke="#000000" paint-order="fill stroke markers" d=" M 96.986328125 65.70000000000005 L 96.986328125 83.29999999999995" stroke-miterlimit="10" stroke-dasharray=""/></g><g><path fill="none" stroke="#000000" paint-order="fill stroke markers" d=" M 87.62632812499999 72.29999999999995 L 106.34632812500001 72.29999999999995" stroke-miterlimit="10" stroke-dasharray=""/></g><g><path fill="none" stroke="#000000" paint-order="fill stroke markers" d=" M 96.986328125 83.29999999999995 L 83.986328125 101" stroke-miterlimit="10" stroke-dasharray=""/></g><g><path fill="none" stroke="#000000" paint-order="fill stroke markers" d=" M 96.986328125 83.29999999999995 L 109.986328125 101" stroke-miterlimit="10" stroke-dasharray=""/></g><g><g><path fill="none" stroke="none"/><text fill="#000000" stroke="none" font-family="Arial" font-size="13px" font-style="normal" font-weight="bold" text-decoration="undefined" x="640.486328125" y="606.5" text-anchor="middle" dominant-baseline="central" transform="matrix(1 0 0 1 -543 -491)">Utente autenticato</text></g></g><g><path fill="#C0C0C0" stroke="none" paint-order="stroke fill markers" d=" M 349 96.5 C 349 81.86445279999998 404.5166848 70 473 70 C 541.4833152000001 70 597 81.86445279999998 597 96.5 C 597 111.13554720000002 541.4833152000001 123 473 123 C 404.5166848 123 349 111.13554720000002 349 96.5 Z" fill-opacity="0.2"/></g><g><path fill="#ffffff" stroke="none" paint-order="stroke fill markers" d=" M 342 89.5 C 342 74.86445279999998 397.5166848 63 466 63 C 534.4833152000001 63 590 74.86445279999998 590 89.5 C 590 104.13554720000002 534.4833152000001 116 466 116 C 397.5166848 116 342 104.13554720000002 342 89.5 Z"/></g><g><path fill="none" stroke="#000000" paint-order="fill stroke markers" d=" M 342 89.5 C 342 74.86445279999998 397.5166848 63 466 63 C 534.4833152000001 63 590 74.86445279999998 590 89.5 C 590 104.13554720000002 534.4833152000001 116 466 116 C 397.5166848 116 342 104.13554720000002 342 89.5 Z" stroke-miterlimit="10" stroke-dasharray=""/></g><g><g><path fill="none" stroke="none"/><text fill="#000000" stroke="none" font-family="Arial" font-size="13px" font-style="normal" font-weight="bold" text-decoration="undefined" x="1009" y="575" text-anchor="middle" dominant-baseline="central" transform="matrix(1 0 0 1 -543 -491)">UC[31] Modifica del nome</text><text fill="#000000" stroke="none" font-family="Arial" font-size="13px" font-style="normal" font-weight="bold" text-decoration="undefined" x="1009" y="588" text-anchor="middle" dominant-baseline="central" transform="matrix(1 0 0 1 -543 -491)">di una routine</text></g></g><g><path fill="none" stroke="#000000" paint-order="fill stroke markers" d=" M 184 87 L 342 87" stroke-miterlimit="10" stroke-dasharray=""/></g><g><path fill="#C0C0C0" stroke="none" paint-order="stroke fill markers" d=" M 661 98 C 661 78.11774720000005 693.2354944000001 62 733 62 C 772.7645055999999 62 805 78.11774720000005 805 98 C 805 117.88225279999995 772.7645055999999 134 733 134 C 693.2354944000001 134 661 117.88225279999995 661 98 Z" fill-opacity="0.2"/></g><g><path fill="#ffffff" stroke="none" paint-order="stroke fill markers" d=" M 654 91 C 654 71.11774720000005 686.2354944000001 55 726 55 C 765.7645055999999 55 798 71.11774720000005 798 91 C 798 110.88225279999995 765.7645055999999 127 726 127 C 686.2354944000001 127 654 110.88225279999995 654 91 Z"/></g><g><path fill="none" stroke="#000000" paint-order="fill stroke markers" d=" M 654 91 C 654 71.11774720000005 686.2354944000001 55 726 55 C 765.7645055999999 55 798 71.11774720000005 798 91 C 798 110.88225279999995 765.7645055999999 127 726 127 C 686.2354944000001 127 654 110.88225279999995 654 91 Z" stroke-miterlimit="10" stroke-dasharray=""/></g><g><g><path fill="none" stroke="none"/><text fill="#000000" stroke="none" font-family="Arial" font-size="13px" font-style="normal" font-weight="bold" text-decoration="undefined" x="1269" y="576.5" text-anchor="middle" dominant-baseline="central" transform="matrix(1 0 0 1 -543 -491)">UC[8] Errore</text><text fill="#000000" stroke="none" font-family="Arial" font-size="13px" font-style="normal" font-weight="bold" text-decoration="undefined" x="1269" y="589.5" text-anchor="middle" dominant-baseline="central" transform="matrix(1 0 0 1 -543 -491)">Generico</text></g></g><g><path fill="none" stroke="#000000" paint-order="fill stroke markers" d=" M 654 87 L 590 87" stroke-miterlimit="10" stroke-dasharray="3"/></g><g><path fill="none" stroke="#000000" paint-order="fill stroke markers" d=" M 600.1626748576241 82.790482243984 L 590 87 L 600.1626748576241 91.209517756016" stroke-miterlimit="10" stroke-dasharray=""/></g><g><rect fill="#ffffff" stroke="none" x="1077" y="698" width="53.49169921875" height="13" transform="matrix(1 0 0 1 -543 -491)"/></g><g><g><path fill="none" stroke="none"/><text fill="#000000" stroke="none" font-family="Arial" font-size="13px" font-style="normal" font-weight="normal" text-decoration="undefined" x="1103.745849609375" y="704.5" text-anchor="middle" dominant-baseline="central" transform="matrix(1 0 0 1 -543 -491)">«extend»</text></g></g><g><path fill="#C0C0C0" stroke="none" paint-order="stroke fill markers" d=" M 477 266 C 477 246.11774720000005 532.5166847999999 230 601 230 C 669.4833152000001 230 725 246.11774720000005 725 266 C 725 285.88225279999995 669.4833152000001 302 601 302 C 532.5166847999999 302 477 285.88225279999995 477 266 Z" fill-opacity="0.2"/></g><g><path fill="#ffffff" stroke="none" paint-order="stroke fill markers" d=" M 470 259 C 470 239.11774720000005 525.5166847999999 223 594 223 C 662.4833152000001 223 718 239.11774720000005 718 259 C 718 278.88225279999995 662.4833152000001 295 594 295 C 525.5166847999999 295 470 278.88225279999995 470 259 Z"/></g><g><path fill="none" stroke="#000000" paint-order="fill stroke markers" d=" M 470 259 C 470 239.11774720000005 525.5166847999999 223 594 223 C 662.4833152000001 223 718 239.11774720000005 718 259 C 718 278.88225279999995 662.4833152000001 295 594 295 C 525.5166847999999 295 470 278.88225279999995 470 259 Z" stroke-miterlimit="10" stroke-dasharray=""/></g><g><g><path fill="none" stroke="none"/><text fill="#000000" stroke="none" font-family="Arial" font-size="13px" font-style="normal" font-weight="bold" text-decoration="undefined" x="1137" y="738" text-anchor="middle" dominant-baseline="central" transform="matrix(1 0 0 1 -543 -491)">UC[23] Errore «Il nome del</text><text fill="#000000" stroke="none" font-family="Arial" font-size="13px" font-style="normal" font-weight="bold" text-decoration="undefined" x="1137" y="751" text-anchor="middle" dominant-baseline="central" transform="matrix(1 0 0 1 -543 -491)">workflow deve avere</text><text fill="#000000" stroke="none" font-family="Arial" font-size="13px" font-style="normal" font-weight="bold" text-decoration="undefined" x="1137" y="764" text-anchor="middle" dominant-baseline="central" transform="matrix(1 0 0 1 -543 -491)">meno di 25 caratteri»</text></g></g><g><path fill="#C0C0C0" stroke="none" paint-order="stroke fill markers" d=" M 245 266 C 245 246.11774720000005 289.77152 230 345 230 C 400.22848 230 445 246.11774720000005 445 266 C 445 285.88225279999995 400.22848 302 345 302 C 289.77152 302 245 285.88225279999995 245 266 Z" fill-opacity="0.2"/></g><g><path fill="#ffffff" stroke="none" paint-order="stroke fill markers" d=" M 238 259 C 238 239.11774720000005 282.77152 223 338 223 C 393.22848 223 438 239.11774720000005 438 259 C 438 278.88225279999995 393.22848 295 338 295 C 282.77152 295 238 278.88225279999995 238 259 Z"/></g><g><path fill="none" stroke="#000000" paint-order="fill stroke markers" d=" M 238 259 C 238 239.11774720000005 282.77152 223 338 223 C 393.22848 223 438 239.11774720000005 438 259 C 438 278.88225279999995 393.22848 295 338 295 C 282.77152 295 238 278.88225279999995 238 259 Z" stroke-miterlimit="10" stroke-dasharray=""/></g><g><g><path fill="none" stroke="none"/><text fill="#000000" stroke="none" font-family="Arial" font-size="13px" font-style="normal" font-weight="bold" text-decoration="undefined" x="881" y="738" text-anchor="middle" dominant-baseline="central" transform="matrix(1 0 0 1 -543 -491)">UC[22] Errore «Il</text><text fill="#000000" stroke="none" font-family="Arial" font-size="13px" font-style="normal" font-weight="bold" text-decoration="undefined" x="881" y="751" text-anchor="middle" dominant-baseline="central" transform="matrix(1 0 0 1 -543 -491)">Workflow deve avere</text><text fill="#000000" stroke="none" font-family="Arial" font-size="13px" font-style="normal" font-weight="bold" text-decoration="undefined" x="881" y="764" text-anchor="middle" dominant-baseline="central" transform="matrix(1 0 0 1 -543 -491)">un nome»</text></g></g><g><path fill="none" stroke="#000000" paint-order="fill stroke markers" d=" M 342 223 L 342 159 L 470 159 L 470 116" stroke-miterlimit="10" stroke-dasharray="3"/></g><g><path fill="none" stroke="#000000" paint-order="fill stroke markers" d=" M 474.209517756016 126.1626748576241 L 470 116 L 465.790482243984 126.1626748576241" stroke-miterlimit="10" stroke-dasharray=""/></g><g><rect fill="#ffffff" stroke="none" x="1149" y="554" width="53.49169921875" height="13" transform="matrix(1 0 0 1 -543 -491)"/></g><g><g><path fill="none" stroke="none"/><text fill="#000000" stroke="none" font-family="Arial" font-size="13px" font-style="normal" font-weight="normal" text-decoration="undefined" x="1175.745849609375" y="560.5" text-anchor="middle" dominant-baseline="central" transform="matrix(1 0 0 1 -543 -491)">«extend»</text></g></g><g><path fill="none" stroke="#000000" paint-order="fill stroke markers" d=" M 590 223 L 590 159 L 470 159 L 470 116" stroke-miterlimit="10" stroke-dasharray="3"/></g><g><path fill="none" stroke="#000000" paint-order="fill stroke markers" d=" M 474.209517756016 126.1626748576241 L 470 116 L 465.790482243984 126.1626748576241" stroke-miterlimit="10" stroke-dasharray=""/></g><g><rect fill="#ffffff" stroke="none" x="829" y="698" width="53.49169921875" height="13" transform="matrix(1 0 0 1 -543 -491)"/></g><g><g><path fill="none" stroke="none"/><text fill="#000000" stroke="none" font-family="Arial" font-size="13px" font-style="normal" font-weight="normal" text-decoration="undefined" x="855.745849609375" y="704.5" text-anchor="middle" dominant-baseline="central" transform="matrix(1 0 0 1 -543 -491)">«extend»</text></g></g></g></svg>