<svg version="1.1" xmlns="http://www.w3.org/2000/svg" xmlns:xlink="http://www.w3.org/1999/xlink" width="772" height="324"><defs/><g><g><rect fill="#C0C0C0" stroke="none" x="771" y="508" width="567" height="304" transform="matrix(1 0 0 1 -570 -491)" fill-opacity="0.2"/></g><g><rect fill="#ffffff" stroke="none" x="764" y="501" width="567" height="304" transform="matrix(1 0 0 1 -570 -491)"/></g><g><path fill="none" stroke="#000000" paint-order="fill stroke markers" d=" M 194 10 L 761 10 L 761 314 L 194 314 L 194 10 Z Z" stroke-miterlimit="10" stroke-dasharray=""/></g><g><g><path fill="none" stroke="none"/><text fill="#000000" stroke="none" font-family="Arial" font-size="13px" font-style="normal" font-weight="bold" text-decoration="undefined" x="1048" y="514.5" text-anchor="middle" dominant-baseline="central" transform="matrix(1 0 0 1 -570 -491)">Sistema</text></g></g><g><path fill="#ffffff" stroke="none" paint-order="stroke fill markers" d=" M 88.14632812499997 52.85000000000002 C 88.14632812499997 47.96227952000004 92.10413049299996 44 96.986328125 44 C 101.86852575700004 44 105.82632812500003 47.96227952000004 105.82632812500003 52.85000000000002 C 105.82632812500003 57.73772048000001 101.86852575700004 61.700000000000045 96.986328125 61.700000000000045 C 92.10413049299996 61.700000000000045 88.14632812499997 57.73772048000001 88.14632812499997 52.85000000000002 Z"/></g><g><path fill="none" stroke="#000000" paint-order="fill stroke markers" d=" M 88.14632812499997 52.85000000000002 C 88.14632812499997 47.96227952000004 92.10413049299996 44 96.986328125 44 C 101.86852575700004 44 105.82632812500003 47.96227952000004 105.82632812500003 52.85000000000002 C 105.82632812500003 57.73772048000001 101.86852575700004 61.700000000000045 96.986328125 61.700000000000045 C 92.10413049299996 61.700000000000045 88.14632812499997 57.73772048000001 88.14632812499997 52.85000000000002 Z" stroke-miterlimit="10" stroke-dasharray=""/></g><g><path fill="none" stroke="#000000" paint-order="fill stroke markers" d=" M 96.986328125 61.700000000000045 L 96.986328125 79.29999999999995" stroke-miterlimit="10" stroke-dasharray=""/></g><g><path fill="none" stroke="#000000" paint-order="fill stroke markers" d=" M 87.62632812499999 68.29999999999995 L 106.34632812500001 68.29999999999995" stroke-miterlimit="10" stroke-dasharray=""/></g><g><path fill="none" stroke="#000000" paint-order="fill stroke markers" d=" M 96.986328125 79.29999999999995 L 83.986328125 97" stroke-miterlimit="10" stroke-dasharray=""/></g><g><path fill="none" stroke="#000000" paint-order="fill stroke markers" d=" M 96.986328125 79.29999999999995 L 109.986328125 97" stroke-miterlimit="10" stroke-dasharray=""/></g><g><g><path fill="none" stroke="none"/><text fill="#000000" stroke="none" font-family="Arial" font-size="13px" font-style="normal" font-weight="bold" text-decoration="undefined" x="667.486328125" y="602.5" text-anchor="middle" dominant-baseline="central" transform="matrix(1 0 0 1 -570 -491)">Utente autenticato</text></g></g><g><path fill="#C0C0C0" stroke="none" paint-order="stroke fill markers" d=" M 417 94 C 417 74.11774720000005 447.4446336 58 485 58 C 522.5553663999999 58 553 74.11774720000005 553 94 C 553 113.88225279999995 522.5553663999999 130 485 130 C 447.4446336 130 417 113.88225279999995 417 94 Z" fill-opacity="0.2"/></g><g><path fill="#ffffff" stroke="none" paint-order="stroke fill markers" d=" M 410 87 C 410 67.11774720000005 440.4446336 51 478 51 C 515.5553663999999 51 546 67.11774720000005 546 87 C 546 106.88225279999995 515.5553663999999 123 478 123 C 440.4446336 123 410 106.88225279999995 410 87 Z"/></g><g><path fill="none" stroke="#000000" paint-order="fill stroke markers" d=" M 410 87 C 410 67.11774720000005 440.4446336 51 478 51 C 515.5553663999999 51 546 67.11774720000005 546 87 C 546 106.88225279999995 515.5553663999999 123 478 123 C 440.4446336 123 410 106.88225279999995 410 87 Z" stroke-miterlimit="10" stroke-dasharray=""/></g><g><g><path fill="none" stroke="none"/><text fill="#000000" stroke="none" font-family="Arial" font-size="13px" font-style="normal" font-weight="bold" text-decoration="undefined" x="1048" y="566" text-anchor="middle" dominant-baseline="central" transform="matrix(1 0 0 1 -570 -491)">UC[18]</text><text fill="#000000" stroke="none" font-family="Arial" font-size="13px" font-style="normal" font-weight="bold" text-decoration="undefined" x="1048" y="579" text-anchor="middle" dominant-baseline="central" transform="matrix(1 0 0 1 -570 -491)">Conferma</text><text fill="#000000" stroke="none" font-family="Arial" font-size="13px" font-style="normal" font-weight="bold" text-decoration="undefined" x="1048" y="592" text-anchor="middle" dominant-baseline="central" transform="matrix(1 0 0 1 -570 -491)">email OTP</text></g></g><g><path fill="#C0C0C0" stroke="none" paint-order="stroke fill markers" d=" M 209 231 C 209 206.14718400000004 243.0263552 186 285 186 C 326.9736448 186 361 206.14718400000004 361 231 C 361 255.85281599999996 326.9736448 276 285 276 C 243.0263552 276 209 255.85281599999996 209 231 Z" fill-opacity="0.2"/></g><g><path fill="#ffffff" stroke="none" paint-order="stroke fill markers" d=" M 202 224 C 202 199.14718400000004 236.0263552 179 278 179 C 319.9736448 179 354 199.14718400000004 354 224 C 354 248.85281599999996 319.9736448 269 278 269 C 236.0263552 269 202 248.85281599999996 202 224 Z"/></g><g><path fill="none" stroke="#000000" paint-order="fill stroke markers" d=" M 202 224 C 202 199.14718400000004 236.0263552 179 278 179 C 319.9736448 179 354 199.14718400000004 354 224 C 354 248.85281599999996 319.9736448 269 278 269 C 236.0263552 269 202 248.85281599999996 202 224 Z" stroke-miterlimit="10" stroke-dasharray=""/></g><g><g><path fill="none" stroke="none"/><text fill="#000000" stroke="none" font-family="Arial" font-size="13px" font-style="normal" font-weight="bold" text-decoration="undefined" x="848" y="696.5" text-anchor="middle" dominant-baseline="central" transform="matrix(1 0 0 1 -570 -491)">UC[19] Errore</text><text fill="#000000" stroke="none" font-family="Arial" font-size="13px" font-style="normal" font-weight="bold" text-decoration="undefined" x="848" y="709.5" text-anchor="middle" dominant-baseline="central" transform="matrix(1 0 0 1 -570 -491)">«Codice di</text><text fill="#000000" stroke="none" font-family="Arial" font-size="13px" font-style="normal" font-weight="bold" text-decoration="undefined" x="848" y="722.5" text-anchor="middle" dominant-baseline="central" transform="matrix(1 0 0 1 -570 -491)">conferma</text><text fill="#000000" stroke="none" font-family="Arial" font-size="13px" font-style="normal" font-weight="bold" text-decoration="undefined" x="848" y="735.5" text-anchor="middle" dominant-baseline="central" transform="matrix(1 0 0 1 -570 -491)">scaduto»</text></g></g><g><path fill="#C0C0C0" stroke="none" paint-order="stroke fill markers" d=" M 393 231 C 393 206.14718400000004 428.81721600000003 186 473 186 C 517.1827840000001 186 553 206.14718400000004 553 231 C 553 255.85281599999996 517.1827840000001 276 473 276 C 428.81721600000003 276 393 255.85281599999996 393 231 Z" fill-opacity="0.2"/></g><g><path fill="#ffffff" stroke="none" paint-order="stroke fill markers" d=" M 386 224 C 386 199.14718400000004 421.81721600000003 179 466 179 C 510.1827840000001 179 546 199.14718400000004 546 224 C 546 248.85281599999996 510.1827840000001 269 466 269 C 421.81721600000003 269 386 248.85281599999996 386 224 Z"/></g><g><path fill="none" stroke="#000000" paint-order="fill stroke markers" d=" M 386 224 C 386 199.14718400000004 421.81721600000003 179 466 179 C 510.1827840000001 179 546 199.14718400000004 546 224 C 546 248.85281599999996 510.1827840000001 269 466 269 C 421.81721600000003 269 386 248.85281599999996 386 224 Z" stroke-miterlimit="10" stroke-dasharray=""/></g><g><g><path fill="none" stroke="none"/><text fill="#000000" stroke="none" font-family="Arial" font-size="13px" font-style="normal" font-weight="bold" text-decoration="undefined" x="1036" y="696.5" text-anchor="middle" dominant-baseline="central" transform="matrix(1 0 0 1 -570 -491)">UC[20] Errore</text><text fill="#000000" stroke="none" font-family="Arial" font-size="13px" font-style="normal" font-weight="bold" text-decoration="undefined" x="1036" y="709.5" text-anchor="middle" dominant-baseline="central" transform="matrix(1 0 0 1 -570 -491)">«Codice di</text><text fill="#000000" stroke="none" font-family="Arial" font-size="13px" font-style="normal" font-weight="bold" text-decoration="undefined" x="1036" y="722.5" text-anchor="middle" dominant-baseline="central" transform="matrix(1 0 0 1 -570 -491)">conferma non</text><text fill="#000000" stroke="none" font-family="Arial" font-size="13px" font-style="normal" font-weight="bold" text-decoration="undefined" x="1036" y="735.5" text-anchor="middle" dominant-baseline="central" transform="matrix(1 0 0 1 -570 -491)">valido»</text></g></g><g><path fill="#C0C0C0" stroke="none" paint-order="stroke fill markers" d=" M 625 230 C 625 210.11774720000005 655.4446336000001 194 693 194 C 730.5553663999999 194 761 210.11774720000005 761 230 C 761 249.88225279999995 730.5553663999999 266 693 266 C 655.4446336000001 266 625 249.88225279999995 625 230 Z" fill-opacity="0.2"/></g><g><path fill="#ffffff" stroke="none" paint-order="stroke fill markers" d=" M 618 223 C 618 203.11774720000005 648.4446336000001 187 686 187 C 723.5553663999999 187 754 203.11774720000005 754 223 C 754 242.88225279999995 723.5553663999999 259 686 259 C 648.4446336000001 259 618 242.88225279999995 618 223 Z"/></g><g><path fill="none" stroke="#000000" paint-order="fill stroke markers" d=" M 618 223 C 618 203.11774720000005 648.4446336000001 187 686 187 C 723.5553663999999 187 754 203.11774720000005 754 223 C 754 242.88225279999995 723.5553663999999 259 686 259 C 648.4446336000001 259 618 242.88225279999995 618 223 Z" stroke-miterlimit="10" stroke-dasharray=""/></g><g><g><path fill="none" stroke="none"/><text fill="#000000" stroke="none" font-family="Arial" font-size="13px" font-style="normal" font-weight="bold" text-decoration="undefined" x="1256" y="702" text-anchor="middle" dominant-baseline="central" transform="matrix(1 0 0 1 -570 -491)">UC[5] Errore</text><text fill="#000000" stroke="none" font-family="Arial" font-size="13px" font-style="normal" font-weight="bold" text-decoration="undefined" x="1256" y="715" text-anchor="middle" dominant-baseline="central" transform="matrix(1 0 0 1 -570 -491)">«Utente non</text><text fill="#000000" stroke="none" font-family="Arial" font-size="13px" font-style="normal" font-weight="bold" text-decoration="undefined" x="1256" y="728" text-anchor="middle" dominant-baseline="central" transform="matrix(1 0 0 1 -570 -491)">trovato»</text></g></g><g><path fill="#C0C0C0" stroke="none" paint-order="stroke fill markers" d=" M 617 94 C 617 74.11774720000005 649.2354944000001 58 689 58 C 728.7645055999999 58 761 74.11774720000005 761 94 C 761 113.88225279999995 728.7645055999999 130 689 130 C 649.2354944000001 130 617 113.88225279999995 617 94 Z" fill-opacity="0.2"/></g><g><path fill="#ffffff" stroke="none" paint-order="stroke fill markers" d=" M 610 87 C 610 67.11774720000005 642.2354944000001 51 682 51 C 721.7645055999999 51 754 67.11774720000005 754 87 C 754 106.88225279999995 721.7645055999999 123 682 123 C 642.2354944000001 123 610 106.88225279999995 610 87 Z"/></g><g><path fill="none" stroke="#000000" paint-order="fill stroke markers" d=" M 610 87 C 610 67.11774720000005 642.2354944000001 51 682 51 C 721.7645055999999 51 754 67.11774720000005 754 87 C 754 106.88225279999995 721.7645055999999 123 682 123 C 642.2354944000001 123 610 106.88225279999995 610 87 Z" stroke-miterlimit="10" stroke-dasharray=""/></g><g><g><path fill="none" stroke="none"/><text fill="#000000" stroke="none" font-family="Arial" font-size="13px" font-style="normal" font-weight="bold" text-decoration="undefined" x="1252" y="572.5" text-anchor="middle" dominant-baseline="central" transform="matrix(1 0 0 1 -570 -491)">UC[8] Errore</text><text fill="#000000" stroke="none" font-family="Arial" font-size="13px" font-style="normal" font-weight="bold" text-decoration="undefined" x="1252" y="585.5" text-anchor="middle" dominant-baseline="central" transform="matrix(1 0 0 1 -570 -491)">Generico</text></g></g><g><path fill="none" stroke="#000000" paint-order="fill stroke markers" d=" M 184 86 L 410 86" stroke-miterlimit="10" stroke-dasharray=""/></g><g><path fill="none" stroke="#000000" paint-order="fill stroke markers" d=" M 274 179 L 274 139 L 474 139 L 474 123" stroke-miterlimit="10" stroke-dasharray="3"/></g><g><path fill="none" stroke="#000000" paint-order="fill stroke markers" d=" M 478.2095177560159 133.1626748576241 L 474 123 L 469.7904822439841 133.1626748576241" stroke-miterlimit="10" stroke-dasharray=""/></g><g><rect fill="#ffffff" stroke="none" x="788" y="654" width="53.49169921875" height="13" transform="matrix(1 0 0 1 -570 -491)"/></g><g><g><path fill="none" stroke="none"/><text fill="#000000" stroke="none" font-family="Arial" font-size="13px" font-style="normal" font-weight="normal" text-decoration="undefined" x="814.745849609375" y="660.5" text-anchor="middle" dominant-baseline="central" transform="matrix(1 0 0 1 -570 -491)">«extend»</text></g></g><g><path fill="none" stroke="#000000" paint-order="fill stroke markers" d=" M 474 179 L 474 123" stroke-miterlimit="10" stroke-dasharray="3"/></g><g><path fill="none" stroke="#000000" paint-order="fill stroke markers" d=" M 478.2095177560159 133.1626748576241 L 474 123 L 469.7904822439841 133.1626748576241" stroke-miterlimit="10" stroke-dasharray=""/></g><g><rect fill="#ffffff" stroke="none" x="988" y="654" width="53.49169921875" height="13" transform="matrix(1 0 0 1 -570 -491)"/></g><g><g><path fill="none" stroke="none"/><text fill="#000000" stroke="none" font-family="Arial" font-size="13px" font-style="normal" font-weight="normal" text-decoration="undefined" x="1014.745849609375" y="660.5" text-anchor="middle" dominant-baseline="central" transform="matrix(1 0 0 1 -570 -491)">«extend»</text></g></g><g><path fill="none" stroke="#000000" paint-order="fill stroke markers" d=" M 690 187 L 690 139 L 474 139 L 474 123" stroke-miterlimit="10" stroke-dasharray="3"/></g><g><path fill="none" stroke="#000000" paint-order="fill stroke markers" d=" M 478.2095177560159 133.1626748576241 L 474 123 L 469.7904822439841 133.1626748576241" stroke-miterlimit="10" stroke-dasharray=""/></g><g><rect fill="#ffffff" stroke="none" x="1204" y="653" width="53.49169921875" height="13" transform="matrix(1 0 0 1 -570 -491)"/></g><g><g><path fill="none" stroke="none"/><text fill="#000000" stroke="none" font-family="Arial" font-size="13px" font-style="normal" font-weight="normal" text-decoration="undefined" x="1230.745849609375" y="659.5" text-anchor="middle" dominant-baseline="central" transform="matrix(1 0 0 1 -570 -491)">«extend»</text></g></g><g><path fill="none" stroke="#000000" paint-order="fill stroke markers" d=" M 610 87 L 546 87" stroke-miterlimit="10" stroke-dasharray="3"/></g><g><path fill="none" stroke="#000000" paint-order="fill stroke markers" d=" M 556.1626748576241 82.790482243984 L 546 87 L 556.1626748576241 91.209517756016" stroke-miterlimit="10" stroke-dasharray=""/></g><g><rect fill="#ffffff" stroke="none" x="1124" y="558" width="53.49169921875" height="13" transform="matrix(1 0 0 1 -570 -491)"/></g><g><g><path fill="none" stroke="none"/><text fill="#000000" stroke="none" font-family="Arial" font-size="13px" font-style="normal" font-weight="normal" text-decoration="undefined" x="1150.745849609375" y="564.5" text-anchor="middle" dominant-baseline="central" transform="matrix(1 0 0 1 -570 -491)">«extend»</text></g></g></g></svg>