<svg version="1.1" xmlns="http://www.w3.org/2000/svg" xmlns:xlink="http://www.w3.org/1999/xlink" width="1062" height="452"><defs/><g><g><rect fill="#C0C0C0" stroke="none" x="635" y="444" width="848" height="432" transform="matrix(1 0 0 1 -425 -427)" fill-opacity="0.2"/></g><g><rect fill="#ffffff" stroke="none" x="628" y="437" width="848" height="432" transform="matrix(1 0 0 1 -425 -427)"/></g><g><path fill="none" stroke="#000000" paint-order="fill stroke markers" d=" M 203 10 L 1051 10 L 1051 442 L 203 442 L 203 10 Z Z" stroke-miterlimit="10" stroke-dasharray=""/></g><g><g><path fill="none" stroke="none"/><text fill="#000000" stroke="none" font-family="Arial" font-size="13px" font-style="normal" font-weight="bold" text-decoration="undefined" x="1052.5" y="450.5" text-anchor="middle" dominant-baseline="central" transform="matrix(1 0 0 1 -425 -427)">Sistema</text></g></g><g><path fill="#ffffff" stroke="none" paint-order="stroke fill markers" d=" M 76.57772460937503 48.85000000000002 C 76.57772460937503 43.96227952000004 80.53552697737501 40 85.417724609375 40 C 90.29992224137504 40 94.25772460937503 43.96227952000004 94.25772460937503 48.85000000000002 C 94.25772460937503 53.73772048000001 90.29992224137504 57.69999999999999 85.417724609375 57.69999999999999 C 80.53552697737501 57.69999999999999 76.57772460937503 53.73772048000001 76.57772460937503 48.85000000000002 Z"/></g><g><path fill="none" stroke="#000000" paint-order="fill stroke markers" d=" M 76.57772460937503 48.85000000000002 C 76.57772460937503 43.96227952000004 80.53552697737501 40 85.417724609375 40 C 90.29992224137504 40 94.25772460937503 43.96227952000004 94.25772460937503 48.85000000000002 C 94.25772460937503 53.73772048000001 90.29992224137504 57.69999999999999 85.417724609375 57.69999999999999 C 80.53552697737501 57.69999999999999 76.57772460937503 53.73772048000001 76.57772460937503 48.85000000000002 Z" stroke-miterlimit="10" stroke-dasharray=""/></g><g><path fill="none" stroke="#000000" paint-order="fill stroke markers" d=" M 85.417724609375 57.69999999999999 L 85.417724609375 75.30000000000001" stroke-miterlimit="10" stroke-dasharray=""/></g><g><path fill="none" stroke="#000000" paint-order="fill stroke markers" d=" M 76.05772460937499 64.30000000000001 L 94.77772460937501 64.30000000000001" stroke-miterlimit="10" stroke-dasharray=""/></g><g><path fill="none" stroke="#000000" paint-order="fill stroke markers" d=" M 85.417724609375 75.30000000000001 L 72.417724609375 93" stroke-miterlimit="10" stroke-dasharray=""/></g><g><path fill="none" stroke="#000000" paint-order="fill stroke markers" d=" M 85.417724609375 75.30000000000001 L 98.417724609375 93" stroke-miterlimit="10" stroke-dasharray=""/></g><g><g><path fill="none" stroke="none"/><text fill="#000000" stroke="none" font-family="Arial" font-size="13px" font-style="normal" font-weight="bold" text-decoration="undefined" x="510.917724609375" y="534.5" text-anchor="middle" dominant-baseline="central" transform="matrix(1 0 0 1 -425 -427)">Utente non autenticato</text></g></g><g><path fill="#C0C0C0" stroke="none" paint-order="stroke fill markers" d=" M 290 82.5 C 290 72.835016 332.0852288 65 384 65 C 435.9147712 65 478 72.835016 478 82.5 C 478 92.164984 435.9147712 100 384 100 C 332.0852288 100 290 92.164984 290 82.5 Z" fill-opacity="0.2"/></g><g><path fill="#ffffff" stroke="none" paint-order="stroke fill markers" d=" M 283 75.5 C 283 65.835016 325.0852288 58 377 58 C 428.9147712 58 471 65.835016 471 75.5 C 471 85.164984 428.9147712 93 377 93 C 325.0852288 93 283 85.164984 283 75.5 Z"/></g><g><path fill="none" stroke="#000000" paint-order="fill stroke markers" d=" M 283 75.5 C 283 65.835016 325.0852288 58 377 58 C 428.9147712 58 471 65.835016 471 75.5 C 471 85.164984 428.9147712 93 377 93 C 325.0852288 93 283 85.164984 283 75.5 Z" stroke-miterlimit="10" stroke-dasharray=""/></g><g><g><path fill="none" stroke="none"/><text fill="#000000" stroke="none" font-family="Arial" font-size="13px" font-style="normal" font-weight="bold" text-decoration="undefined" x="802" y="503.5" text-anchor="middle" dominant-baseline="central" transform="matrix(1 0 0 1 -425 -427)">UC[9] Registrazione</text></g></g><g><path fill="none" stroke="#000000" paint-order="fill stroke markers" d=" M 161 74 L 283 74" stroke-miterlimit="10" stroke-dasharray=""/></g><g><path fill="#C0C0C0" stroke="none" paint-order="stroke fill markers" d=" M 898 77 C 898 57.1177472 928.4446336000001 41 966 41 C 1003.5553663999999 41 1034 57.1177472 1034 77 C 1034 96.88225279999995 1003.5553663999999 113 966 113 C 928.4446336000001 113 898 96.88225279999995 898 77 Z" fill-opacity="0.2"/></g><g><path fill="#ffffff" stroke="none" paint-order="stroke fill markers" d=" M 891 70 C 891 50.1177472 921.4446336000001 34 959 34 C 996.5553663999999 34 1027 50.1177472 1027 70 C 1027 89.88225279999995 996.5553663999999 106 959 106 C 921.4446336000001 106 891 89.88225279999995 891 70 Z"/></g><g><path fill="none" stroke="#000000" paint-order="fill stroke markers" d=" M 891 70 C 891 50.1177472 921.4446336000001 34 959 34 C 996.5553663999999 34 1027 50.1177472 1027 70 C 1027 89.88225279999995 996.5553663999999 106 959 106 C 921.4446336000001 106 891 89.88225279999995 891 70 Z" stroke-miterlimit="10" stroke-dasharray=""/></g><g><g><path fill="none" stroke="none"/><text fill="#000000" stroke="none" font-family="Arial" font-size="13px" font-style="normal" font-weight="bold" text-decoration="undefined" x="1384" y="485" text-anchor="middle" dominant-baseline="central" transform="matrix(1 0 0 1 -425 -427)">UC[2]</text><text fill="#000000" stroke="none" font-family="Arial" font-size="13px" font-style="normal" font-weight="bold" text-decoration="undefined" x="1384" y="498" text-anchor="middle" dominant-baseline="central" transform="matrix(1 0 0 1 -425 -427)">Inserimento</text><text fill="#000000" stroke="none" font-family="Arial" font-size="13px" font-style="normal" font-weight="bold" text-decoration="undefined" x="1384" y="511" text-anchor="middle" dominant-baseline="central" transform="matrix(1 0 0 1 -425 -427)">E-mail</text></g></g><g><path fill="none" stroke="#000000" paint-order="fill stroke markers" d=" M 471 74 L 891 74" stroke-miterlimit="10" stroke-dasharray="3"/></g><g><path fill="none" stroke="#000000" paint-order="fill stroke markers" d=" M 880.8373251423759 78.209517756016 L 891 74 L 880.8373251423759 69.790482243984" stroke-miterlimit="10" stroke-dasharray=""/></g><g><rect fill="#ffffff" stroke="none" x="1236" y="477" width="55.65625" height="13" transform="matrix(1 0 0 1 -425 -427)"/></g><g><g><path fill="none" stroke="none"/><text fill="#000000" stroke="none" font-family="Arial" font-size="13px" font-style="normal" font-weight="normal" text-decoration="undefined" x="1263.828125" y="483.5" text-anchor="middle" dominant-baseline="central" transform="matrix(1 0 0 1 -425 -427)">«include»</text></g></g><g><path fill="#C0C0C0" stroke="none" paint-order="stroke fill markers" d=" M 890 165 C 890 145.11774720000005 920.4446336000001 129 958 129 C 995.5553663999999 129 1026 145.11774720000005 1026 165 C 1026 184.88225279999995 995.5553663999999 201 958 201 C 920.4446336000001 201 890 184.88225279999995 890 165 Z" fill-opacity="0.2"/></g><g><path fill="#ffffff" stroke="none" paint-order="stroke fill markers" d=" M 883 158 C 883 138.11774720000005 913.4446336000001 122 951 122 C 988.5553663999999 122 1019 138.11774720000005 1019 158 C 1019 177.88225279999995 988.5553663999999 194 951 194 C 913.4446336000001 194 883 177.88225279999995 883 158 Z"/></g><g><path fill="none" stroke="#000000" paint-order="fill stroke markers" d=" M 883 158 C 883 138.11774720000005 913.4446336000001 122 951 122 C 988.5553663999999 122 1019 138.11774720000005 1019 158 C 1019 177.88225279999995 988.5553663999999 194 951 194 C 913.4446336000001 194 883 177.88225279999995 883 158 Z" stroke-miterlimit="10" stroke-dasharray=""/></g><g><g><path fill="none" stroke="none"/><text fill="#000000" stroke="none" font-family="Arial" font-size="13px" font-style="normal" font-weight="bold" text-decoration="undefined" x="1376" y="573" text-anchor="middle" dominant-baseline="central" transform="matrix(1 0 0 1 -425 -427)">UC[10]</text><text fill="#000000" stroke="none" font-family="Arial" font-size="13px" font-style="normal" font-weight="bold" text-decoration="undefined" x="1376" y="586" text-anchor="middle" dominant-baseline="central" transform="matrix(1 0 0 1 -425 -427)">Creazione</text><text fill="#000000" stroke="none" font-family="Arial" font-size="13px" font-style="normal" font-weight="bold" text-decoration="undefined" x="1376" y="599" text-anchor="middle" dominant-baseline="central" transform="matrix(1 0 0 1 -425 -427)">Password</text></g></g><g><path fill="none" stroke="#000000" paint-order="fill stroke markers" d=" M 471 74 L 811 74 L 811 162 L 883 162" stroke-miterlimit="10" stroke-dasharray="3"/></g><g><path fill="none" stroke="#000000" paint-order="fill stroke markers" d=" M 872.8373251423759 166.209517756016 L 883 162 L 872.8373251423759 157.790482243984" stroke-miterlimit="10" stroke-dasharray=""/></g><g><rect fill="#ffffff" stroke="none" x="1236" y="569" width="55.65625" height="13" transform="matrix(1 0 0 1 -425 -427)"/></g><g><g><path fill="none" stroke="none"/><text fill="#000000" stroke="none" font-family="Arial" font-size="13px" font-style="normal" font-weight="normal" text-decoration="undefined" x="1263.828125" y="575.5" text-anchor="middle" dominant-baseline="central" transform="matrix(1 0 0 1 -425 -427)">«include»</text></g></g><g><path fill="#C0C0C0" stroke="none" paint-order="stroke fill markers" d=" M 898 253 C 898 233.11774720000005 928.4446336000001 217 966 217 C 1003.5553663999999 217 1034 233.11774720000005 1034 253 C 1034 272.88225279999995 1003.5553663999999 289 966 289 C 928.4446336000001 289 898 272.88225279999995 898 253 Z" fill-opacity="0.2"/></g><g><path fill="#ffffff" stroke="none" paint-order="stroke fill markers" d=" M 891 246 C 891 226.11774720000005 921.4446336000001 210 959 210 C 996.5553663999999 210 1027 226.11774720000005 1027 246 C 1027 265.88225279999995 996.5553663999999 282 959 282 C 921.4446336000001 282 891 265.88225279999995 891 246 Z"/></g><g><path fill="none" stroke="#000000" paint-order="fill stroke markers" d=" M 891 246 C 891 226.11774720000005 921.4446336000001 210 959 210 C 996.5553663999999 210 1027 226.11774720000005 1027 246 C 1027 265.88225279999995 996.5553663999999 282 959 282 C 921.4446336000001 282 891 265.88225279999995 891 246 Z" stroke-miterlimit="10" stroke-dasharray=""/></g><g><g><path fill="none" stroke="none"/><text fill="#000000" stroke="none" font-family="Arial" font-size="13px" font-style="normal" font-weight="bold" text-decoration="undefined" x="1384" y="661" text-anchor="middle" dominant-baseline="central" transform="matrix(1 0 0 1 -425 -427)">UC[11]</text><text fill="#000000" stroke="none" font-family="Arial" font-size="13px" font-style="normal" font-weight="bold" text-decoration="undefined" x="1384" y="674" text-anchor="middle" dominant-baseline="central" transform="matrix(1 0 0 1 -425 -427)">Conferma</text><text fill="#000000" stroke="none" font-family="Arial" font-size="13px" font-style="normal" font-weight="bold" text-decoration="undefined" x="1384" y="687" text-anchor="middle" dominant-baseline="central" transform="matrix(1 0 0 1 -425 -427)">Password</text></g></g><g><path fill="none" stroke="#000000" paint-order="fill stroke markers" d=" M 471 74 L 811 74 L 811 242 L 891 242" stroke-miterlimit="10" stroke-dasharray="3"/></g><g><path fill="none" stroke="#000000" paint-order="fill stroke markers" d=" M 880.8373251423759 246.209517756016 L 891 242 L 880.8373251423759 237.790482243984" stroke-miterlimit="10" stroke-dasharray=""/></g><g><rect fill="#ffffff" stroke="none" x="1238" y="654" width="55.65625" height="13" transform="matrix(1 0 0 1 -425 -427)"/></g><g><g><path fill="none" stroke="none"/><text fill="#000000" stroke="none" font-family="Arial" font-size="13px" font-style="normal" font-weight="normal" text-decoration="undefined" x="1265.828125" y="660.5" text-anchor="middle" dominant-baseline="central" transform="matrix(1 0 0 1 -425 -427)">«include»</text></g></g><g><path fill="#C0C0C0" stroke="none" paint-order="stroke fill markers" d=" M 234 245 C 234 225.11774720000005 266.2354944 209 306 209 C 345.7645056 209 378 225.11774720000005 378 245 C 378 264.88225279999995 345.7645056 281 306 281 C 266.2354944 281 234 264.88225279999995 234 245 Z" fill-opacity="0.2"/></g><g><path fill="#ffffff" stroke="none" paint-order="stroke fill markers" d=" M 227 238 C 227 218.11774720000005 259.2354944 202 299 202 C 338.7645056 202 371 218.11774720000005 371 238 C 371 257.88225279999995 338.7645056 274 299 274 C 259.2354944 274 227 257.88225279999995 227 238 Z"/></g><g><path fill="none" stroke="#000000" paint-order="fill stroke markers" d=" M 227 238 C 227 218.11774720000005 259.2354944 202 299 202 C 338.7645056 202 371 218.11774720000005 371 238 C 371 257.88225279999995 338.7645056 274 299 274 C 259.2354944 274 227 257.88225279999995 227 238 Z" stroke-miterlimit="10" stroke-dasharray=""/></g><g><g><path fill="none" stroke="none"/><text fill="#000000" stroke="none" font-family="Arial" font-size="13px" font-style="normal" font-weight="bold" text-decoration="undefined" x="724" y="653" text-anchor="middle" dominant-baseline="central" transform="matrix(1 0 0 1 -425 -427)">UC[12] Errore</text><text fill="#000000" stroke="none" font-family="Arial" font-size="13px" font-style="normal" font-weight="bold" text-decoration="undefined" x="724" y="666" text-anchor="middle" dominant-baseline="central" transform="matrix(1 0 0 1 -425 -427)">«User already</text><text fill="#000000" stroke="none" font-family="Arial" font-size="13px" font-style="normal" font-weight="bold" text-decoration="undefined" x="724" y="679" text-anchor="middle" dominant-baseline="central" transform="matrix(1 0 0 1 -425 -427)">exists»</text></g></g><g><path fill="#C0C0C0" stroke="none" paint-order="stroke fill markers" d=" M 394 245 C 394 225.11774720000005 426.2354944 209 466 209 C 505.7645056 209 538 225.11774720000005 538 245 C 538 264.88225279999995 505.7645056 281 466 281 C 426.2354944 281 394 264.88225279999995 394 245 Z" fill-opacity="0.2"/></g><g><path fill="#ffffff" stroke="none" paint-order="stroke fill markers" d=" M 387 238 C 387 218.11774720000005 419.2354944 202 459 202 C 498.7645056 202 531 218.11774720000005 531 238 C 531 257.88225279999995 498.7645056 274 459 274 C 419.2354944 274 387 257.88225279999995 387 238 Z"/></g><g><path fill="none" stroke="#000000" paint-order="fill stroke markers" d=" M 387 238 C 387 218.11774720000005 419.2354944 202 459 202 C 498.7645056 202 531 218.11774720000005 531 238 C 531 257.88225279999995 498.7645056 274 459 274 C 419.2354944 274 387 257.88225279999995 387 238 Z" stroke-miterlimit="10" stroke-dasharray=""/></g><g><g><path fill="none" stroke="none"/><text fill="#000000" stroke="none" font-family="Arial" font-size="13px" font-style="normal" font-weight="bold" text-decoration="undefined" x="884" y="659.5" text-anchor="middle" dominant-baseline="central" transform="matrix(1 0 0 1 -425 -427)">UC[8] Errore</text><text fill="#000000" stroke="none" font-family="Arial" font-size="13px" font-style="normal" font-weight="bold" text-decoration="undefined" x="884" y="672.5" text-anchor="middle" dominant-baseline="central" transform="matrix(1 0 0 1 -425 -427)">Generico</text></g></g><g><path fill="none" stroke="#000000" paint-order="fill stroke markers" d=" M 299 202 L 299 146 L 379 146 L 379 93" stroke-miterlimit="10" stroke-dasharray="3"/></g><g><path fill="none" stroke="#000000" paint-order="fill stroke markers" d=" M 383.209517756016 103.1626748576241 L 379 93 L 374.790482243984 103.1626748576241" stroke-miterlimit="10" stroke-dasharray=""/></g><g><rect fill="#ffffff" stroke="none" x="660" y="613" width="53.49169921875" height="13" transform="matrix(1 0 0 1 -425 -427)"/></g><g><g><path fill="none" stroke="none"/><text fill="#000000" stroke="none" font-family="Arial" font-size="13px" font-style="normal" font-weight="normal" text-decoration="undefined" x="686.745849609375" y="619.5" text-anchor="middle" dominant-baseline="central" transform="matrix(1 0 0 1 -425 -427)">«extend»</text></g></g><g><path fill="none" stroke="#000000" paint-order="fill stroke markers" d=" M 459 202 L 459 146 L 379 146 L 379 93" stroke-miterlimit="10" stroke-dasharray="3"/></g><g><path fill="none" stroke="#000000" paint-order="fill stroke markers" d=" M 383.209517756016 103.1626748576241 L 379 93 L 374.790482243984 103.1626748576241" stroke-miterlimit="10" stroke-dasharray=""/></g><g><rect fill="#ffffff" stroke="none" x="820" y="612" width="53.49169921875" height="13" transform="matrix(1 0 0 1 -425 -427)"/></g><g><g><path fill="none" stroke="none"/><text fill="#000000" stroke="none" font-family="Arial" font-size="13px" font-style="normal" font-weight="normal" text-decoration="undefined" x="846.745849609375" y="618.5" text-anchor="middle" dominant-baseline="central" transform="matrix(1 0 0 1 -425 -427)">«extend»</text></g></g><g><path fill="#C0C0C0" stroke="none" paint-order="stroke fill markers" d=" M 570 245 C 570 225.11774720000005 604.0263551999999 209 646 209 C 687.9736448000001 209 722 225.11774720000005 722 245 C 722 264.88225279999995 687.9736448000001 281 646 281 C 604.0263551999999 281 570 264.88225279999995 570 245 Z" fill-opacity="0.2"/></g><g><path fill="#ffffff" stroke="none" paint-order="stroke fill markers" d=" M 563 238 C 563 218.11774720000005 597.0263552 202 639 202 C 680.9736448000001 202 715 218.11774720000005 715 238 C 715 257.88225279999995 680.9736448000001 274 639 274 C 597.0263552 274 563 257.88225279999995 563 238 Z"/></g><g><path fill="none" stroke="#000000" paint-order="fill stroke markers" d=" M 563 238 C 563 218.11774720000005 597.0263552 202 639 202 C 680.9736448000001 202 715 218.11774720000005 715 238 C 715 257.88225279999995 680.9736448000001 274 639 274 C 597.0263552 274 563 257.88225279999995 563 238 Z" stroke-miterlimit="10" stroke-dasharray=""/></g><g><g><path fill="none" stroke="none"/><text fill="#000000" stroke="none" font-family="Arial" font-size="13px" font-style="normal" font-weight="bold" text-decoration="undefined" x="1064" y="653" text-anchor="middle" dominant-baseline="central" transform="matrix(1 0 0 1 -425 -427)">UC[13] Errore</text><text fill="#000000" stroke="none" font-family="Arial" font-size="13px" font-style="normal" font-weight="bold" text-decoration="undefined" x="1064" y="666" text-anchor="middle" dominant-baseline="central" transform="matrix(1 0 0 1 -425 -427)">«è richiesta la</text><text fill="#000000" stroke="none" font-family="Arial" font-size="13px" font-style="normal" font-weight="bold" text-decoration="undefined" x="1064" y="679" text-anchor="middle" dominant-baseline="central" transform="matrix(1 0 0 1 -425 -427)">password»</text></g></g><g><path fill="#C0C0C0" stroke="none" paint-order="stroke fill markers" d=" M 450 382 C 450 357.14718400000004 484.0263552 337 526 337 C 567.9736448 337 602 357.14718400000004 602 382 C 602 406.85281599999996 567.9736448 427 526 427 C 484.0263552 427 450 406.85281599999996 450 382 Z" fill-opacity="0.2"/></g><g><path fill="#ffffff" stroke="none" paint-order="stroke fill markers" d=" M 443 375 C 443 350.14718400000004 477.0263552 330 519 330 C 560.9736448 330 595 350.14718400000004 595 375 C 595 399.85281599999996 560.9736448 420 519 420 C 477.0263552 420 443 399.85281599999996 443 375 Z"/></g><g><path fill="none" stroke="#000000" paint-order="fill stroke markers" d=" M 443 375 C 443 350.14718400000004 477.0263552 330 519 330 C 560.9736448 330 595 350.14718400000004 595 375 C 595 399.85281599999996 560.9736448 420 519 420 C 477.0263552 420 443 399.85281599999996 443 375 Z" stroke-miterlimit="10" stroke-dasharray=""/></g><g><g><path fill="none" stroke="none"/><text fill="#000000" stroke="none" font-family="Arial" font-size="13px" font-style="normal" font-weight="bold" text-decoration="undefined" x="944" y="783.5" text-anchor="middle" dominant-baseline="central" transform="matrix(1 0 0 1 -425 -427)">UC[14] Errore</text><text fill="#000000" stroke="none" font-family="Arial" font-size="13px" font-style="normal" font-weight="bold" text-decoration="undefined" x="944" y="796.5" text-anchor="middle" dominant-baseline="central" transform="matrix(1 0 0 1 -425 -427)">«È richiesto un</text><text fill="#000000" stroke="none" font-family="Arial" font-size="13px" font-style="normal" font-weight="bold" text-decoration="undefined" x="944" y="809.5" text-anchor="middle" dominant-baseline="central" transform="matrix(1 0 0 1 -425 -427)">codice di</text><text fill="#000000" stroke="none" font-family="Arial" font-size="13px" font-style="normal" font-weight="bold" text-decoration="undefined" x="944" y="822.5" text-anchor="middle" dominant-baseline="central" transform="matrix(1 0 0 1 -425 -427)">verifica»</text></g></g><g><path fill="#C0C0C0" stroke="none" paint-order="stroke fill markers" d=" M 626 373 C 626 353.11774720000005 672.5623808 337 730 337 C 787.4376192 337 834 353.11774720000005 834 373 C 834 392.88225279999995 787.4376192 409 730 409 C 672.5623808 409 626 392.88225279999995 626 373 Z" fill-opacity="0.2"/></g><g><path fill="#ffffff" stroke="none" paint-order="stroke fill markers" d=" M 619 366 C 619 346.11774720000005 665.5623808 330 723 330 C 780.4376192 330 827 346.11774720000005 827 366 C 827 385.88225279999995 780.4376192 402 723 402 C 665.5623808 402 619 385.88225279999995 619 366 Z"/></g><g><path fill="none" stroke="#000000" paint-order="fill stroke markers" d=" M 619 366 C 619 346.11774720000005 665.5623808 330 723 330 C 780.4376192 330 827 346.11774720000005 827 366 C 827 385.88225279999995 780.4376192 402 723 402 C 665.5623808 402 619 385.88225279999995 619 366 Z" stroke-miterlimit="10" stroke-dasharray=""/></g><g><g><path fill="none" stroke="none"/><text fill="#000000" stroke="none" font-family="Arial" font-size="13px" font-style="normal" font-weight="bold" text-decoration="undefined" x="1148" y="781" text-anchor="middle" dominant-baseline="central" transform="matrix(1 0 0 1 -425 -427)">UC[15] Errore «Le</text><text fill="#000000" stroke="none" font-family="Arial" font-size="13px" font-style="normal" font-weight="bold" text-decoration="undefined" x="1148" y="794" text-anchor="middle" dominant-baseline="central" transform="matrix(1 0 0 1 -425 -427)">password non</text><text fill="#000000" stroke="none" font-family="Arial" font-size="13px" font-style="normal" font-weight="bold" text-decoration="undefined" x="1148" y="807" text-anchor="middle" dominant-baseline="central" transform="matrix(1 0 0 1 -425 -427)">corrispondono»</text></g></g><g><path fill="#C0C0C0" stroke="none" paint-order="stroke fill markers" d=" M 874 373 C 874 353.11774720000005 913.3989376 337 962 337 C 1010.6010624 337 1050 353.11774720000005 1050 373 C 1050 392.88225279999995 1010.6010624 409 962 409 C 913.3989376 409 874 392.88225279999995 874 373 Z" fill-opacity="0.2"/></g><g><path fill="#ffffff" stroke="none" paint-order="stroke fill markers" d=" M 867 366 C 867 346.11774720000005 906.3989376 330 955 330 C 1003.6010624 330 1043 346.11774720000005 1043 366 C 1043 385.88225279999995 1003.6010624 402 955 402 C 906.3989376 402 867 385.88225279999995 867 366 Z"/></g><g><path fill="none" stroke="#000000" paint-order="fill stroke markers" d=" M 867 366 C 867 346.11774720000005 906.3989376 330 955 330 C 1003.6010624 330 1043 346.11774720000005 1043 366 C 1043 385.88225279999995 1003.6010624 402 955 402 C 906.3989376 402 867 385.88225279999995 867 366 Z" stroke-miterlimit="10" stroke-dasharray=""/></g><g><g><path fill="none" stroke="none"/><text fill="#000000" stroke="none" font-family="Arial" font-size="13px" font-style="normal" font-weight="bold" text-decoration="undefined" x="1380" y="781" text-anchor="middle" dominant-baseline="central" transform="matrix(1 0 0 1 -425 -427)">UC[16] Errore</text><text fill="#000000" stroke="none" font-family="Arial" font-size="13px" font-style="normal" font-weight="bold" text-decoration="undefined" x="1380" y="794" text-anchor="middle" dominant-baseline="central" transform="matrix(1 0 0 1 -425 -427)">«Password troppo</text><text fill="#000000" stroke="none" font-family="Arial" font-size="13px" font-style="normal" font-weight="bold" text-decoration="undefined" x="1380" y="807" text-anchor="middle" dominant-baseline="central" transform="matrix(1 0 0 1 -425 -427)">corta»</text></g></g><g><path fill="#C0C0C0" stroke="none" paint-order="stroke fill markers" d=" M 226 373 C 226 353.11774720000005 270.77152 337 326 337 C 381.22848 337 426 353.11774720000005 426 373 C 426 392.88225279999995 381.22848 409 326 409 C 270.77152 409 226 392.88225279999995 226 373 Z" fill-opacity="0.2"/></g><g><path fill="#ffffff" stroke="none" paint-order="stroke fill markers" d=" M 219 366 C 219 346.11774720000005 263.77152 330 319 330 C 374.22848 330 419 346.11774720000005 419 366 C 419 385.88225279999995 374.22848 402 319 402 C 263.77152 402 219 385.88225279999995 219 366 Z"/></g><g><path fill="none" stroke="#000000" paint-order="fill stroke markers" d=" M 219 366 C 219 346.11774720000005 263.77152 330 319 330 C 374.22848 330 419 346.11774720000005 419 366 C 419 385.88225279999995 374.22848 402 319 402 C 263.77152 402 219 385.88225279999995 219 366 Z" stroke-miterlimit="10" stroke-dasharray=""/></g><g><g><path fill="none" stroke="none"/><text fill="#000000" stroke="none" font-family="Arial" font-size="13px" font-style="normal" font-weight="bold" text-decoration="undefined" x="744" y="781" text-anchor="middle" dominant-baseline="central" transform="matrix(1 0 0 1 -425 -427)">UC[17] Errore «Email</text><text fill="#000000" stroke="none" font-family="Arial" font-size="13px" font-style="normal" font-weight="bold" text-decoration="undefined" x="744" y="794" text-anchor="middle" dominant-baseline="central" transform="matrix(1 0 0 1 -425 -427)">quota limit</text><text fill="#000000" stroke="none" font-family="Arial" font-size="13px" font-style="normal" font-weight="bold" text-decoration="undefined" x="744" y="807" text-anchor="middle" dominant-baseline="central" transform="matrix(1 0 0 1 -425 -427)">exceeded»</text></g></g><g><path fill="none" stroke="#000000" paint-order="fill stroke markers" d=" M 643 202 L 643 146 L 379 146 L 379 93" stroke-miterlimit="10" stroke-dasharray="3"/></g><g><path fill="none" stroke="#000000" paint-order="fill stroke markers" d=" M 383.209517756016 103.1626748576241 L 379 93 L 374.790482243984 103.1626748576241" stroke-miterlimit="10" stroke-dasharray=""/></g><g><rect fill="#ffffff" stroke="none" x="668" y="733" width="53.49169921875" height="13" transform="matrix(1 0 0 1 -425 -427)"/></g><g><g><path fill="none" stroke="none"/><text fill="#000000" stroke="none" font-family="Arial" font-size="13px" font-style="normal" font-weight="normal" text-decoration="undefined" x="694.745849609375" y="739.5" text-anchor="middle" dominant-baseline="central" transform="matrix(1 0 0 1 -425 -427)">«extend»</text></g></g><g><path fill="none" stroke="#000000" paint-order="fill stroke markers" d=" M 315 330 L 315 290 L 771 290 L 771 146 L 379 146 L 379 93" stroke-miterlimit="10" stroke-dasharray="3"/></g><g><path fill="none" stroke="#000000" paint-order="fill stroke markers" d=" M 383.209517756016 103.1626748576241 L 379 93 L 374.790482243984 103.1626748576241" stroke-miterlimit="10" stroke-dasharray=""/></g><g><rect fill="#ffffff" stroke="none" x="1308" y="740" width="53.49169921875" height="13" transform="matrix(1 0 0 1 -425 -427)"/></g><g><g><path fill="none" stroke="none"/><text fill="#000000" stroke="none" font-family="Arial" font-size="13px" font-style="normal" font-weight="normal" text-decoration="undefined" x="1334.745849609375" y="746.5" text-anchor="middle" dominant-baseline="central" transform="matrix(1 0 0 1 -425 -427)">«extend»</text></g></g><g><path fill="none" stroke="#000000" paint-order="fill stroke markers" d=" M 523 330 L 523 290 L 771 290 L 771 146 L 379 146 L 379 93" stroke-miterlimit="10" stroke-dasharray="3"/></g><g><path fill="none" stroke="#000000" paint-order="fill stroke markers" d=" M 383.209517756016 103.1626748576241 L 379 93 L 374.790482243984 103.1626748576241" stroke-miterlimit="10" stroke-dasharray=""/></g><g><rect fill="#ffffff" stroke="none" x="1076" y="741" width="53.49169921875" height="13" transform="matrix(1 0 0 1 -425 -427)"/></g><g><g><path fill="none" stroke="none"/><text fill="#000000" stroke="none" font-family="Arial" font-size="13px" font-style="normal" font-weight="normal" text-decoration="undefined" x="1102.745849609375" y="747.5" text-anchor="middle" dominant-baseline="central" transform="matrix(1 0 0 1 -425 -427)">«extend»</text></g></g><g><path fill="none" stroke="#000000" paint-order="fill stroke markers" d=" M 723 330 L 723 290 L 771 290 L 771 146 L 379 146 L 379 93" stroke-miterlimit="10" stroke-dasharray="3"/></g><g><path fill="none" stroke="#000000" paint-order="fill stroke markers" d=" M 383.209517756016 103.1626748576241 L 379 93 L 374.790482243984 103.1626748576241" stroke-miterlimit="10" stroke-dasharray=""/></g><g><rect fill="#ffffff" stroke="none" x="884" y="741" width="53.49169921875" height="13" transform="matrix(1 0 0 1 -425 -427)"/></g><g><g><path fill="none" stroke="none"/><text fill="#000000" stroke="none" font-family="Arial" font-size="13px" font-style="normal" font-weight="normal" text-decoration="undefined" x="910.745849609375" y="747.5" text-anchor="middle" dominant-baseline="central" transform="matrix(1 0 0 1 -425 -427)">«extend»</text></g></g><g><path fill="none" stroke="#000000" paint-order="fill stroke markers" d=" M 963 330 L 963 290 L 771 290 L 771 146 L 379 146 L 379 93" stroke-miterlimit="10" stroke-dasharray="3"/></g><g><path fill="none" stroke="#000000" paint-order="fill stroke markers" d=" M 383.209517756016 103.1626748576241 L 379 93 L 374.790482243984 103.1626748576241" stroke-miterlimit="10" stroke-dasharray=""/></g><g><rect fill="#ffffff" stroke="none" x="1003" y="613" width="53.49169921875" height="13" transform="matrix(1 0 0 1 -425 -427)"/></g><g><g><path fill="none" stroke="none"/><text fill="#000000" stroke="none" font-family="Arial" font-size="13px" font-style="normal" font-weight="normal" text-decoration="undefined" x="1029.745849609375" y="619.5" text-anchor="middle" dominant-baseline="central" transform="matrix(1 0 0 1 -425 -427)">«extend»</text></g></g></g></svg>