<svg version="1.1" xmlns="http://www.w3.org/2000/svg" xmlns:xlink="http://www.w3.org/1999/xlink" width="546" height="205"><defs/><g><g><rect fill="#C0C0C0" stroke="none" x="898" y="568" width="327" height="185" transform="matrix(1 0 0 1 -683 -551)" fill-opacity="0.2"/></g><g><rect fill="#ffffff" stroke="none" x="891" y="561" width="327" height="185" transform="matrix(1 0 0 1 -683 -551)"/></g><g><path fill="none" stroke="#000000" paint-order="fill stroke markers" d=" M 208 10 L 535 10 L 535 195 L 208 195 L 208 10 Z Z" stroke-miterlimit="10" stroke-dasharray=""/></g><g><g><path fill="none" stroke="none"/><text fill="#000000" stroke="none" font-family="Arial" font-size="13px" font-style="normal" font-weight="bold" text-decoration="undefined" x="1055" y="574.5" text-anchor="middle" dominant-baseline="central" transform="matrix(1 0 0 1 -683 -551)">Sistema</text></g></g><g><path fill="#ffffff" stroke="none" paint-order="stroke fill markers" d=" M 88.14632812499997 68.85000000000002 C 88.14632812499997 63.96227952000004 92.10413049299996 60 96.986328125 60 C 101.86852575700004 60 105.82632812500003 63.96227952000004 105.82632812500003 68.85000000000002 C 105.82632812500003 73.73772048000001 101.86852575700004 77.70000000000005 96.986328125 77.70000000000005 C 92.10413049299996 77.70000000000005 88.14632812499997 73.73772048000001 88.14632812499997 68.85000000000002 Z"/></g><g><path fill="none" stroke="#000000" paint-order="fill stroke markers" d=" M 88.14632812499997 68.85000000000002 C 88.14632812499997 63.96227952000004 92.10413049299996 60 96.986328125 60 C 101.86852575700004 60 105.82632812500003 63.96227952000004 105.82632812500003 68.85000000000002 C 105.82632812500003 73.73772048000001 101.86852575700004 77.70000000000005 96.986328125 77.70000000000005 C 92.10413049299996 77.70000000000005 88.14632812499997 73.73772048000001 88.14632812499997 68.85000000000002 Z" stroke-miterlimit="10" stroke-dasharray=""/></g><g><path fill="none" stroke="#000000" paint-order="fill stroke markers" d=" M 96.986328125 77.70000000000005 L 96.986328125 95.29999999999995" stroke-miterlimit="10" stroke-dasharray=""/></g><g><path fill="none" stroke="#000000" paint-order="fill stroke markers" d=" M 87.62632812499999 84.29999999999995 L 106.34632812500001 84.29999999999995" stroke-miterlimit="10" stroke-dasharray=""/></g><g><path fill="none" stroke="#000000" paint-order="fill stroke markers" d=" M 96.986328125 95.29999999999995 L 83.986328125 113" stroke-miterlimit="10" stroke-dasharray=""/></g><g><path fill="none" stroke="#000000" paint-order="fill stroke markers" d=" M 96.986328125 95.29999999999995 L 109.986328125 113" stroke-miterlimit="10" stroke-dasharray=""/></g><g><g><path fill="none" stroke="none"/><text fill="#000000" stroke="none" font-family="Arial" font-size="13px" font-style="normal" font-weight="bold" text-decoration="undefined" x="780.486328125" y="678.5" text-anchor="middle" dominant-baseline="central" transform="matrix(1 0 0 1 -683 -551)">Utente autenticato</text></g></g><g><path fill="#C0C0C0" stroke="none" paint-order="stroke fill markers" d=" M 255 112 C 255 92.11774720000005 308.725824 76 375 76 C 441.2741759999999 76 495 92.11774720000005 495 112 C 495 131.88225279999995 441.2741759999999 148 375 148 C 308.725824 148 255 131.88225279999995 255 112 Z" fill-opacity="0.2"/></g><g><path fill="#ffffff" stroke="none" paint-order="stroke fill markers" d=" M 248 105 C 248 85.11774720000005 301.725824 69 368 69 C 434.2741759999999 69 488 85.11774720000005 488 105 C 488 124.88225279999995 434.2741759999999 141 368 141 C 301.725824 141 248 124.88225279999995 248 105 Z"/></g><g><path fill="none" stroke="#000000" paint-order="fill stroke markers" d=" M 248 105 C 248 85.11774720000005 301.725824 69 368 69 C 434.2741759999999 69 488 85.11774720000005 488 105 C 488 124.88225279999995 434.2741759999999 141 368 141 C 301.725824 141 248 124.88225279999995 248 105 Z" stroke-miterlimit="10" stroke-dasharray=""/></g><g><g><path fill="none" stroke="none"/><text fill="#000000" stroke="none" font-family="Arial" font-size="13px" font-style="normal" font-weight="bold" text-decoration="undefined" x="1051" y="644" text-anchor="middle" dominant-baseline="central" transform="matrix(1 0 0 1 -683 -551)">UC[58] Ritornare alla</text><text fill="#000000" stroke="none" font-family="Arial" font-size="13px" font-style="normal" font-weight="bold" text-decoration="undefined" x="1051" y="657" text-anchor="middle" dominant-baseline="central" transform="matrix(1 0 0 1 -683 -551)">dashboard dalla pagina</text><text fill="#000000" stroke="none" font-family="Arial" font-size="13px" font-style="normal" font-weight="bold" text-decoration="undefined" x="1051" y="670" text-anchor="middle" dominant-baseline="central" transform="matrix(1 0 0 1 -683 -551)">di modifica di un flusso</text></g></g><g><path fill="none" stroke="#000000" paint-order="fill stroke markers" d=" M 184 102 L 248 102" stroke-miterlimit="10" stroke-dasharray=""/></g></g></svg>