<svg version="1.1" xmlns="http://www.w3.org/2000/svg" xmlns:xlink="http://www.w3.org/1999/xlink" width="861" height="278"><defs/><g><g><rect fill="#C0C0C0" stroke="none" x="758" y="531" width="624" height="258" transform="matrix(1 0 0 1 -525 -514)" fill-opacity="0.2"/></g><g><rect fill="#ffffff" stroke="none" x="751" y="524" width="624" height="258" transform="matrix(1 0 0 1 -525 -514)"/></g><g><path fill="none" stroke="#000000" paint-order="fill stroke markers" d=" M 226 10 L 850 10 L 850 268 L 226 268 L 226 10 Z Z" stroke-miterlimit="10" stroke-dasharray=""/></g><g><g><path fill="none" stroke="none"/><text fill="#000000" stroke="none" font-family="Arial" font-size="13px" font-style="normal" font-weight="bold" text-decoration="undefined" x="1063.5" y="537.5" text-anchor="middle" dominant-baseline="central" transform="matrix(1 0 0 1 -525 -514)">Sistema</text></g></g><g><path fill="#C0C0C0" stroke="none" paint-order="stroke fill markers" d=" M 369 74.5 C 369 64.835016 426.97911840000006 57 498.5 57 C 570.0208815999999 57 628 64.835016 628 74.5 C 628 84.164984 570.0208815999999 92 498.5 92 C 426.97911840000006 92 369 84.164984 369 74.5 Z" fill-opacity="0.2"/></g><g><path fill="#ffffff" stroke="none" paint-order="stroke fill markers" d=" M 362 67.5 C 362 57.835015999999996 419.97911840000006 50 491.5 50 C 563.0208815999999 50 621 57.835015999999996 621 67.5 C 621 77.164984 563.0208815999999 85 491.5 85 C 419.97911840000006 85 362 77.164984 362 67.5 Z"/></g><g><path fill="none" stroke="#000000" paint-order="fill stroke markers" d=" M 362 67.5 C 362 57.835015999999996 419.97911840000006 50 491.5 50 C 563.0208815999999 50 621 57.835015999999996 621 67.5 C 621 77.164984 563.0208815999999 85 491.5 85 C 419.97911840000006 85 362 77.164984 362 67.5 Z" stroke-miterlimit="10" stroke-dasharray=""/></g><g><g><path fill="none" stroke="none"/><text fill="#000000" stroke="none" font-family="Arial" font-size="13px" font-style="normal" font-weight="bold" text-decoration="undefined" x="1016.5" y="582.5" text-anchor="middle" dominant-baseline="central" transform="matrix(1 0 0 1 -525 -514)">UC[49] Salvare una routine</text></g></g><g><path fill="#ffffff" stroke="none" paint-order="stroke fill markers" d=" M 88.14632812499997 51.85000000000002 C 88.14632812499997 46.96227952000004 92.10413049299996 43 96.986328125 43 C 101.86852575700004 43 105.82632812500003 46.96227952000004 105.82632812500003 51.85000000000002 C 105.82632812500003 56.73772048000001 101.86852575700004 60.700000000000045 96.986328125 60.700000000000045 C 92.10413049299996 60.700000000000045 88.14632812499997 56.73772048000001 88.14632812499997 51.85000000000002 Z"/></g><g><path fill="none" stroke="#000000" paint-order="fill stroke markers" d=" M 88.14632812499997 51.85000000000002 C 88.14632812499997 46.96227952000004 92.10413049299996 43 96.986328125 43 C 101.86852575700004 43 105.82632812500003 46.96227952000004 105.82632812500003 51.85000000000002 C 105.82632812500003 56.73772048000001 101.86852575700004 60.700000000000045 96.986328125 60.700000000000045 C 92.10413049299996 60.700000000000045 88.14632812499997 56.73772048000001 88.14632812499997 51.85000000000002 Z" stroke-miterlimit="10" stroke-dasharray=""/></g><g><path fill="none" stroke="#000000" paint-order="fill stroke markers" d=" M 96.986328125 60.700000000000045 L 96.986328125 78.29999999999995" stroke-miterlimit="10" stroke-dasharray=""/></g><g><path fill="none" stroke="#000000" paint-order="fill stroke markers" d=" M 87.62632812499999 67.29999999999995 L 106.34632812500001 67.29999999999995" stroke-miterlimit="10" stroke-dasharray=""/></g><g><path fill="none" stroke="#000000" paint-order="fill stroke markers" d=" M 96.986328125 78.29999999999995 L 83.986328125 96" stroke-miterlimit="10" stroke-dasharray=""/></g><g><path fill="none" stroke="#000000" paint-order="fill stroke markers" d=" M 96.986328125 78.29999999999995 L 109.986328125 96" stroke-miterlimit="10" stroke-dasharray=""/></g><g><g><path fill="none" stroke="none"/><text fill="#000000" stroke="none" font-family="Arial" font-size="13px" font-style="normal" font-weight="bold" text-decoration="undefined" x="622.486328125" y="624.5" text-anchor="middle" dominant-baseline="central" transform="matrix(1 0 0 1 -525 -514)">Utente autenticato</text></g></g><g><path fill="#C0C0C0" stroke="none" paint-order="stroke fill markers" d=" M 681 85 C 681 65.11774720000005 713.2354944000001 49 753 49 C 792.7645055999999 49 825 65.11774720000005 825 85 C 825 104.88225279999995 792.7645055999999 121 753 121 C 713.2354944000001 121 681 104.88225279999995 681 85 Z" fill-opacity="0.2"/></g><g><path fill="#ffffff" stroke="none" paint-order="stroke fill markers" d=" M 674 78 C 674 58.11774720000005 706.2354944000001 42 746 42 C 785.7645055999999 42 818 58.11774720000005 818 78 C 818 97.88225279999995 785.7645055999999 114 746 114 C 706.2354944000001 114 674 97.88225279999995 674 78 Z"/></g><g><path fill="none" stroke="#000000" paint-order="fill stroke markers" d=" M 674 78 C 674 58.11774720000005 706.2354944000001 42 746 42 C 785.7645055999999 42 818 58.11774720000005 818 78 C 818 97.88225279999995 785.7645055999999 114 746 114 C 706.2354944000001 114 674 97.88225279999995 674 78 Z" stroke-miterlimit="10" stroke-dasharray=""/></g><g><g><path fill="none" stroke="none"/><text fill="#000000" stroke="none" font-family="Arial" font-size="13px" font-style="normal" font-weight="bold" text-decoration="undefined" x="1271" y="586.5" text-anchor="middle" dominant-baseline="central" transform="matrix(1 0 0 1 -525 -514)">UC[8] Errore</text><text fill="#000000" stroke="none" font-family="Arial" font-size="13px" font-style="normal" font-weight="bold" text-decoration="undefined" x="1271" y="599.5" text-anchor="middle" dominant-baseline="central" transform="matrix(1 0 0 1 -525 -514)">Generico</text></g></g><g><path fill="none" stroke="#000000" paint-order="fill stroke markers" d=" M 674 74 L 621 74" stroke-miterlimit="10" stroke-dasharray="3"/></g><g><path fill="none" stroke="#000000" paint-order="fill stroke markers" d=" M 631.1626748576241 69.790482243984 L 621 74 L 631.1626748576241 78.209517756016" stroke-miterlimit="10" stroke-dasharray=""/></g><g><rect fill="#ffffff" stroke="none" x="1148" y="572" width="53.49169921875" height="13" transform="matrix(1 0 0 1 -525 -514)"/></g><g><g><path fill="none" stroke="none"/><text fill="#000000" stroke="none" font-family="Arial" font-size="13px" font-style="normal" font-weight="normal" text-decoration="undefined" x="1174.745849609375" y="578.5" text-anchor="middle" dominant-baseline="central" transform="matrix(1 0 0 1 -525 -514)">«extend»</text></g></g><g><path fill="none" stroke="#000000" paint-order="fill stroke markers" d=" M 184 74 L 362 74" stroke-miterlimit="10" stroke-dasharray=""/></g><g><path fill="#C0C0C0" stroke="none" paint-order="stroke fill markers" d=" M 521 205 C 521 185.11774720000005 576.5166847999999 169 645 169 C 713.4833152000001 169 769 185.11774720000005 769 205 C 769 224.88225279999995 713.4833152000001 241 645 241 C 576.5166847999999 241 521 224.88225279999995 521 205 Z" fill-opacity="0.2"/></g><g><path fill="#ffffff" stroke="none" paint-order="stroke fill markers" d=" M 514 198 C 514 178.11774720000005 569.5166847999999 162 638 162 C 706.4833152000001 162 762 178.11774720000005 762 198 C 762 217.88225279999995 706.4833152000001 234 638 234 C 569.5166847999999 234 514 217.88225279999995 514 198 Z"/></g><g><path fill="none" stroke="#000000" paint-order="fill stroke markers" d=" M 514 198 C 514 178.11774720000005 569.5166847999999 162 638 162 C 706.4833152000001 162 762 178.11774720000005 762 198 C 762 217.88225279999995 706.4833152000001 234 638 234 C 569.5166847999999 234 514 217.88225279999995 514 198 Z" stroke-miterlimit="10" stroke-dasharray=""/></g><g><g><path fill="none" stroke="none"/><text fill="#000000" stroke="none" font-family="Arial" font-size="13px" font-style="normal" font-weight="bold" text-decoration="undefined" x="1163" y="700" text-anchor="middle" dominant-baseline="central" transform="matrix(1 0 0 1 -525 -514)">UC[23] Errore «Il nome del</text><text fill="#000000" stroke="none" font-family="Arial" font-size="13px" font-style="normal" font-weight="bold" text-decoration="undefined" x="1163" y="713" text-anchor="middle" dominant-baseline="central" transform="matrix(1 0 0 1 -525 -514)">workflow deve avere</text><text fill="#000000" stroke="none" font-family="Arial" font-size="13px" font-style="normal" font-weight="bold" text-decoration="undefined" x="1163" y="726" text-anchor="middle" dominant-baseline="central" transform="matrix(1 0 0 1 -525 -514)">meno di 25 caratteri»</text></g></g><g><path fill="#C0C0C0" stroke="none" paint-order="stroke fill markers" d=" M 289 205 C 289 185.11774720000005 321.2354944 169 361 169 C 400.7645056 169 433 185.11774720000005 433 205 C 433 224.88225279999995 400.7645056 241 361 241 C 321.2354944 241 289 224.88225279999995 289 205 Z" fill-opacity="0.2"/></g><g><path fill="#ffffff" stroke="none" paint-order="stroke fill markers" d=" M 282 198 C 282 178.11774720000005 314.2354944 162 354 162 C 393.7645056 162 426 178.11774720000005 426 198 C 426 217.88225279999995 393.7645056 234 354 234 C 314.2354944 234 282 217.88225279999995 282 198 Z"/></g><g><path fill="none" stroke="#000000" paint-order="fill stroke markers" d=" M 282 198 C 282 178.11774720000005 314.2354944 162 354 162 C 393.7645056 162 426 178.11774720000005 426 198 C 426 217.88225279999995 393.7645056 234 354 234 C 314.2354944 234 282 217.88225279999995 282 198 Z" stroke-miterlimit="10" stroke-dasharray=""/></g><g><g><path fill="none" stroke="none"/><text fill="#000000" stroke="none" font-family="Arial" font-size="13px" font-style="normal" font-weight="bold" text-decoration="undefined" x="879" y="700" text-anchor="middle" dominant-baseline="central" transform="matrix(1 0 0 1 -525 -514)">UC[30] Errore</text><text fill="#000000" stroke="none" font-family="Arial" font-size="13px" font-style="normal" font-weight="bold" text-decoration="undefined" x="879" y="713" text-anchor="middle" dominant-baseline="central" transform="matrix(1 0 0 1 -525 -514)">«Workflow</text><text fill="#000000" stroke="none" font-family="Arial" font-size="13px" font-style="normal" font-weight="bold" text-decoration="undefined" x="879" y="726" text-anchor="middle" dominant-baseline="central" transform="matrix(1 0 0 1 -525 -514)">non trovato»</text></g></g><g><path fill="none" stroke="#000000" paint-order="fill stroke markers" d=" M 354 162 L 354 138 L 490 138 L 490 85" stroke-miterlimit="10" stroke-dasharray="3"/></g><g><path fill="none" stroke="#000000" paint-order="fill stroke markers" d=" M 494.209517756016 95.1626748576241 L 490 85 L 485.790482243984 95.1626748576241" stroke-miterlimit="10" stroke-dasharray=""/></g><g><rect fill="#ffffff" stroke="none" x="815" y="660" width="53.49169921875" height="13" transform="matrix(1 0 0 1 -525 -514)"/></g><g><g><path fill="none" stroke="none"/><text fill="#000000" stroke="none" font-family="Arial" font-size="13px" font-style="normal" font-weight="normal" text-decoration="undefined" x="841.745849609375" y="666.5" text-anchor="middle" dominant-baseline="central" transform="matrix(1 0 0 1 -525 -514)">«extend»</text></g></g><g><path fill="none" stroke="#000000" paint-order="fill stroke markers" d=" M 642 162 L 642 138 L 490 138 L 490 85" stroke-miterlimit="10" stroke-dasharray="3"/></g><g><path fill="none" stroke="#000000" paint-order="fill stroke markers" d=" M 494.209517756016 95.1626748576241 L 490 85 L 485.790482243984 95.1626748576241" stroke-miterlimit="10" stroke-dasharray=""/></g><g><rect fill="#ffffff" stroke="none" x="1103" y="659" width="53.49169921875" height="13" transform="matrix(1 0 0 1 -525 -514)"/></g><g><g><path fill="none" stroke="none"/><text fill="#000000" stroke="none" font-family="Arial" font-size="13px" font-style="normal" font-weight="normal" text-decoration="undefined" x="1129.745849609375" y="665.5" text-anchor="middle" dominant-baseline="central" transform="matrix(1 0 0 1 -525 -514)">«extend»</text></g></g></g></svg>