<svg version="1.1" xmlns="http://www.w3.org/2000/svg" xmlns:xlink="http://www.w3.org/1999/xlink" width="546" height="205"><defs/><g><g><rect fill="#C0C0C0" stroke="none" x="898" y="568" width="327" height="185" transform="matrix(1 0 0 1 -683 -551)" fill-opacity="0.2"/></g><g><rect fill="#ffffff" stroke="none" x="891" y="561" width="327" height="185" transform="matrix(1 0 0 1 -683 -551)"/></g><g><path fill="none" stroke="#000000" paint-order="fill stroke markers" d=" M 208 10 L 535 10 L 535 195 L 208 195 L 208 10 Z Z" stroke-miterlimit="10" stroke-dasharray=""/></g><g><g><path fill="none" stroke="none"/><text fill="#000000" stroke="none" font-family="Arial" font-size="13px" font-style="normal" font-weight="bold" text-decoration="undefined" x="1055" y="574.5" text-anchor="middle" dominant-baseline="central" transform="matrix(1 0 0 1 -683 -551)">Sistema</text></g></g><g><path fill="#C0C0C0" stroke="none" paint-order="stroke fill markers" d=" M 271 105 C 271 85.11774720000005 319.35324160000005 69 379 69 C 438.64675839999995 69 487 85.11774720000005 487 105 C 487 124.88225279999995 438.64675839999995 141 379 141 C 319.35324160000005 141 271 124.88225279999995 271 105 Z" fill-opacity="0.2"/></g><g><path fill="#ffffff" stroke="none" paint-order="stroke fill markers" d=" M 264 98 C 264 78.11774720000005 312.35324160000005 62 372 62 C 431.64675839999995 62 480 78.11774720000005 480 98 C 480 117.88225279999995 431.64675839999995 134 372 134 C 312.35324160000005 134 264 117.88225279999995 264 98 Z"/></g><g><path fill="none" stroke="#000000" paint-order="fill stroke markers" d=" M 264 98 C 264 78.11774720000005 312.35324160000005 62 372 62 C 431.64675839999995 62 480 78.11774720000005 480 98 C 480 117.88225279999995 431.64675839999995 134 372 134 C 312.35324160000005 134 264 117.88225279999995 264 98 Z" stroke-miterlimit="10" stroke-dasharray=""/></g><g><g><path fill="none" stroke="none"/><text fill="#000000" stroke="none" font-family="Arial" font-size="13px" font-style="normal" font-weight="bold" text-decoration="undefined" x="1055" y="637" text-anchor="middle" dominant-baseline="central" transform="matrix(1 0 0 1 -683 -551)">UC[54] Scollegare due</text><text fill="#000000" stroke="none" font-family="Arial" font-size="13px" font-style="normal" font-weight="bold" text-decoration="undefined" x="1055" y="650" text-anchor="middle" dominant-baseline="central" transform="matrix(1 0 0 1 -683 -551)">blocchi di una routine</text><text fill="#000000" stroke="none" font-family="Arial" font-size="13px" font-style="normal" font-weight="bold" text-decoration="undefined" x="1055" y="663" text-anchor="middle" dominant-baseline="central" transform="matrix(1 0 0 1 -683 -551)">esistente</text></g></g><g><path fill="#ffffff" stroke="none" paint-order="stroke fill markers" d=" M 88.14632812499997 68.85000000000002 C 88.14632812499997 63.96227952000004 92.10413049299996 60 96.986328125 60 C 101.86852575700004 60 105.82632812500003 63.96227952000004 105.82632812500003 68.85000000000002 C 105.82632812500003 73.73772048000001 101.86852575700004 77.70000000000005 96.986328125 77.70000000000005 C 92.10413049299996 77.70000000000005 88.14632812499997 73.73772048000001 88.14632812499997 68.85000000000002 Z"/></g><g><path fill="none" stroke="#000000" paint-order="fill stroke markers" d=" M 88.14632812499997 68.85000000000002 C 88.14632812499997 63.96227952000004 92.10413049299996 60 96.986328125 60 C 101.86852575700004 60 105.82632812500003 63.96227952000004 105.82632812500003 68.85000000000002 C 105.82632812500003 73.73772048000001 101.86852575700004 77.70000000000005 96.986328125 77.70000000000005 C 92.10413049299996 77.70000000000005 88.14632812499997 73.73772048000001 88.14632812499997 68.85000000000002 Z" stroke-miterlimit="10" stroke-dasharray=""/></g><g><path fill="none" stroke="#000000" paint-order="fill stroke markers" d=" M 96.986328125 77.70000000000005 L 96.986328125 95.29999999999995" stroke-miterlimit="10" stroke-dasharray=""/></g><g><path fill="none" stroke="#000000" paint-order="fill stroke markers" d=" M 87.62632812499999 84.29999999999995 L 106.34632812500001 84.29999999999995" stroke-miterlimit="10" stroke-dasharray=""/></g><g><path fill="none" stroke="#000000" paint-order="fill stroke markers" d=" M 96.986328125 95.29999999999995 L 83.986328125 113" stroke-miterlimit="10" stroke-dasharray=""/></g><g><path fill="none" stroke="#000000" paint-order="fill stroke markers" d=" M 96.986328125 95.29999999999995 L 109.986328125 113" stroke-miterlimit="10" stroke-dasharray=""/></g><g><g><path fill="none" stroke="none"/><text fill="#000000" stroke="none" font-family="Arial" font-size="13px" font-style="normal" font-weight="bold" text-decoration="undefined" x="780.486328125" y="678.5" text-anchor="middle" dominant-baseline="central" transform="matrix(1 0 0 1 -683 -551)">Utente autenticato</text></g></g><g><path fill="none" stroke="#000000" paint-order="fill stroke markers" d=" M 184 99 L 264 99" stroke-miterlimit="10" stroke-dasharray=""/></g></g></svg>