<svg version="1.1" xmlns="http://www.w3.org/2000/svg" xmlns:xlink="http://www.w3.org/1999/xlink" width="1069" height="324"><defs/><g><g><rect fill="#C0C0C0" stroke="none" x="307" y="646" width="840" height="304" transform="matrix(1 0 0 1 -82 -629)" fill-opacity="0.2"/></g><g><rect fill="#ffffff" stroke="none" x="300" y="639" width="840" height="304" transform="matrix(1 0 0 1 -82 -629)"/></g><g><path fill="none" stroke="#000000" paint-order="fill stroke markers" d=" M 218 10 L 1058 10 L 1058 314 L 218 314 L 218 10 Z Z" stroke-miterlimit="10" stroke-dasharray=""/></g><g><g><path fill="none" stroke="none"/><text fill="#000000" stroke="none" font-family="Arial" font-size="13px" font-style="normal" font-weight="bold" text-decoration="undefined" x="720.5" y="652.5" text-anchor="middle" dominant-baseline="central" transform="matrix(1 0 0 1 -82 -629)">Sistema</text></g></g><g><path fill="#ffffff" stroke="none" paint-order="stroke fill markers" d=" M 76.577724609375 75.85000000000002 C 76.577724609375 70.96227952000004 80.53552697737499 67 85.417724609375 67 C 90.29992224137501 67 94.257724609375 70.96227952000004 94.257724609375 75.85000000000002 C 94.257724609375 80.73772048000001 90.29992224137501 84.70000000000005 85.417724609375 84.70000000000005 C 80.53552697737499 84.70000000000005 76.577724609375 80.73772048000001 76.577724609375 75.85000000000002 Z"/></g><g><path fill="none" stroke="#000000" paint-order="fill stroke markers" d=" M 76.577724609375 75.85000000000002 C 76.577724609375 70.96227952000004 80.53552697737499 67 85.417724609375 67 C 90.29992224137501 67 94.257724609375 70.96227952000004 94.257724609375 75.85000000000002 C 94.257724609375 80.73772048000001 90.29992224137501 84.70000000000005 85.417724609375 84.70000000000005 C 80.53552697737499 84.70000000000005 76.577724609375 80.73772048000001 76.577724609375 75.85000000000002 Z" stroke-miterlimit="10" stroke-dasharray=""/></g><g><path fill="none" stroke="#000000" paint-order="fill stroke markers" d=" M 85.417724609375 84.70000000000005 L 85.417724609375 102.29999999999995" stroke-miterlimit="10" stroke-dasharray=""/></g><g><path fill="none" stroke="#000000" paint-order="fill stroke markers" d=" M 76.05772460937499 91.29999999999995 L 94.77772460937501 91.29999999999995" stroke-miterlimit="10" stroke-dasharray=""/></g><g><path fill="none" stroke="#000000" paint-order="fill stroke markers" d=" M 85.417724609375 102.29999999999995 L 72.417724609375 120" stroke-miterlimit="10" stroke-dasharray=""/></g><g><path fill="none" stroke="#000000" paint-order="fill stroke markers" d=" M 85.417724609375 102.29999999999995 L 98.417724609375 120" stroke-miterlimit="10" stroke-dasharray=""/></g><g><g><path fill="none" stroke="none"/><text fill="#000000" stroke="none" font-family="Arial" font-size="13px" font-style="normal" font-weight="bold" text-decoration="undefined" x="167.917724609375" y="763.5" text-anchor="middle" dominant-baseline="central" transform="matrix(1 0 0 1 -82 -629)">Utente non autenticato</text></g></g><g><path fill="#C0C0C0" stroke="none" paint-order="stroke fill markers" d=" M 273 114.5 C 273 104.835016 299.4151968 97 332 97 C 364.5848032 97 391 104.835016 391 114.5 C 391 124.164984 364.5848032 132 332 132 C 299.4151968 132 273 124.164984 273 114.5 Z" fill-opacity="0.2"/></g><g><path fill="#ffffff" stroke="none" paint-order="stroke fill markers" d=" M 266 107.5 C 266 97.835016 292.4151968 90 325 90 C 357.5848032 90 384 97.835016 384 107.5 C 384 117.164984 357.5848032 125 325 125 C 292.4151968 125 266 117.164984 266 107.5 Z"/></g><g><path fill="none" stroke="#000000" paint-order="fill stroke markers" d=" M 266 107.5 C 266 97.835016 292.4151968 90 325 90 C 357.5848032 90 384 97.835016 384 107.5 C 384 117.164984 357.5848032 125 325 125 C 292.4151968 125 266 117.164984 266 107.5 Z" stroke-miterlimit="10" stroke-dasharray=""/></g><g><g><path fill="none" stroke="none"/><text fill="#000000" stroke="none" font-family="Arial" font-size="13px" font-style="normal" font-weight="bold" text-decoration="undefined" x="407" y="737.5" text-anchor="middle" dominant-baseline="central" transform="matrix(1 0 0 1 -82 -629)">UC[1] Login</text></g></g><g><path fill="none" stroke="#000000" paint-order="fill stroke markers" d=" M 161 106 L 266 106" stroke-miterlimit="10" stroke-dasharray=""/></g><g><path fill="#C0C0C0" stroke="none" paint-order="stroke fill markers" d=" M 897 77 C 897 57.11774720000005 927.4446336 41 965 41 C 1002.5553663999999 41 1033 57.11774720000005 1033 77 C 1033 96.88225279999995 1002.5553663999999 113 965 113 C 927.4446336 113 897 96.88225279999995 897 77 Z" fill-opacity="0.2"/></g><g><path fill="#ffffff" stroke="none" paint-order="stroke fill markers" d=" M 890 70 C 890 50.11774720000005 920.4446336 34 958 34 C 995.5553663999999 34 1026 50.11774720000005 1026 70 C 1026 89.88225279999995 995.5553663999999 106 958 106 C 920.4446336 106 890 89.88225279999995 890 70 Z"/></g><g><path fill="none" stroke="#000000" paint-order="fill stroke markers" d=" M 890 70 C 890 50.11774720000005 920.4446336 34 958 34 C 995.5553663999999 34 1026 50.11774720000005 1026 70 C 1026 89.88225279999995 995.5553663999999 106 958 106 C 920.4446336 106 890 89.88225279999995 890 70 Z" stroke-miterlimit="10" stroke-dasharray=""/></g><g><g><path fill="none" stroke="none"/><text fill="#000000" stroke="none" font-family="Arial" font-size="13px" font-style="normal" font-weight="bold" text-decoration="undefined" x="1040" y="687" text-anchor="middle" dominant-baseline="central" transform="matrix(1 0 0 1 -82 -629)">UC[2]</text><text fill="#000000" stroke="none" font-family="Arial" font-size="13px" font-style="normal" font-weight="bold" text-decoration="undefined" x="1040" y="700" text-anchor="middle" dominant-baseline="central" transform="matrix(1 0 0 1 -82 -629)">Inserimento</text><text fill="#000000" stroke="none" font-family="Arial" font-size="13px" font-style="normal" font-weight="bold" text-decoration="undefined" x="1040" y="713" text-anchor="middle" dominant-baseline="central" transform="matrix(1 0 0 1 -82 -629)">E-mail</text></g></g><g><path fill="#C0C0C0" stroke="none" paint-order="stroke fill markers" d=" M 249 269 C 249 249.11774720000005 284.81721600000003 233 329 233 C 373.18278399999997 233 409 249.11774720000005 409 269 C 409 288.88225279999995 373.18278399999997 305 329 305 C 284.81721600000003 305 249 288.88225279999995 249 269 Z" fill-opacity="0.2"/></g><g><path fill="#ffffff" stroke="none" paint-order="stroke fill markers" d=" M 242 262 C 242 242.11774720000005 277.81721600000003 226 322 226 C 366.18278399999997 226 402 242.11774720000005 402 262 C 402 281.88225279999995 366.18278399999997 298 322 298 C 277.81721600000003 298 242 281.88225279999995 242 262 Z"/></g><g><path fill="none" stroke="#000000" paint-order="fill stroke markers" d=" M 242 262 C 242 242.11774720000005 277.81721600000003 226 322 226 C 366.18278399999997 226 402 242.11774720000005 402 262 C 402 281.88225279999995 366.18278399999997 298 322 298 C 277.81721600000003 298 242 281.88225279999995 242 262 Z" stroke-miterlimit="10" stroke-dasharray=""/></g><g><g><path fill="none" stroke="none"/><text fill="#000000" stroke="none" font-family="Arial" font-size="13px" font-style="normal" font-weight="bold" text-decoration="undefined" x="404" y="879" text-anchor="middle" dominant-baseline="central" transform="matrix(1 0 0 1 -82 -629)">UC[4] Errore</text><text fill="#000000" stroke="none" font-family="Arial" font-size="13px" font-style="normal" font-weight="bold" text-decoration="undefined" x="404" y="892" text-anchor="middle" dominant-baseline="central" transform="matrix(1 0 0 1 -82 -629)">«Credenziali</text><text fill="#000000" stroke="none" font-family="Arial" font-size="13px" font-style="normal" font-weight="bold" text-decoration="undefined" x="404" y="905" text-anchor="middle" dominant-baseline="central" transform="matrix(1 0 0 1 -82 -629)">non valide»</text></g></g><g><path fill="#C0C0C0" stroke="none" paint-order="stroke fill markers" d=" M 425 269 C 425 249.11774720000005 457.2354944 233 497 233 C 536.7645056 233 569 249.11774720000005 569 269 C 569 288.88225279999995 536.7645056 305 497 305 C 457.2354944 305 425 288.88225279999995 425 269 Z" fill-opacity="0.2"/></g><g><path fill="#ffffff" stroke="none" paint-order="stroke fill markers" d=" M 418 262 C 418 242.11774720000005 450.2354944 226 490 226 C 529.7645056 226 562 242.11774720000005 562 262 C 562 281.88225279999995 529.7645056 298 490 298 C 450.2354944 298 418 281.88225279999995 418 262 Z"/></g><g><path fill="none" stroke="#000000" paint-order="fill stroke markers" d=" M 418 262 C 418 242.11774720000005 450.2354944 226 490 226 C 529.7645056 226 562 242.11774720000005 562 262 C 562 281.88225279999995 529.7645056 298 490 298 C 450.2354944 298 418 281.88225279999995 418 262 Z" stroke-miterlimit="10" stroke-dasharray=""/></g><g><g><path fill="none" stroke="none"/><text fill="#000000" stroke="none" font-family="Arial" font-size="13px" font-style="normal" font-weight="bold" text-decoration="undefined" x="572" y="885.5" text-anchor="middle" dominant-baseline="central" transform="matrix(1 0 0 1 -82 -629)">UC[8] Errore</text><text fill="#000000" stroke="none" font-family="Arial" font-size="13px" font-style="normal" font-weight="bold" text-decoration="undefined" x="572" y="898.5" text-anchor="middle" dominant-baseline="central" transform="matrix(1 0 0 1 -82 -629)">Generico</text></g></g><g><path fill="none" stroke="#000000" paint-order="fill stroke markers" d=" M 384 99 L 402 99 L 402 58 L 890 58" stroke-miterlimit="10" stroke-dasharray="3"/></g><g><path fill="none" stroke="#000000" paint-order="fill stroke markers" d=" M 879.8373251423759 62.209517756016 L 890 58 L 879.8373251423758 53.790482243984" stroke-miterlimit="10" stroke-dasharray=""/></g><g><rect fill="#ffffff" stroke="none" x="467" y="658" width="55.65625" height="13" transform="matrix(1 0 0 1 -82 -629)"/></g><g><g><path fill="none" stroke="none"/><text fill="#000000" stroke="none" font-family="Arial" font-size="13px" font-style="normal" font-weight="normal" text-decoration="undefined" x="494.828125" y="664.5" text-anchor="middle" dominant-baseline="central" transform="matrix(1 0 0 1 -82 -629)">«include»</text></g></g><g><path fill="none" stroke="#000000" paint-order="fill stroke markers" d=" M 322 226 L 322 125" stroke-miterlimit="10" stroke-dasharray="3"/></g><g><path fill="none" stroke="#000000" paint-order="fill stroke markers" d=" M 326.209517756016 135.1626748576241 L 322 125 L 317.790482243984 135.1626748576241" stroke-miterlimit="10" stroke-dasharray=""/></g><g><rect fill="#ffffff" stroke="none" x="337" y="839" width="53.49169921875" height="13" transform="matrix(1 0 0 1 -82 -629)"/></g><g><g><path fill="none" stroke="none"/><text fill="#000000" stroke="none" font-family="Arial" font-size="13px" font-style="normal" font-weight="normal" text-decoration="undefined" x="363.745849609375" y="845.5" text-anchor="middle" dominant-baseline="central" transform="matrix(1 0 0 1 -82 -629)">«extend»</text></g></g><g><path fill="none" stroke="#000000" paint-order="fill stroke markers" d=" M 490 226 L 490 186 L 322 186 L 322 125" stroke-miterlimit="10" stroke-dasharray="3"/></g><g><path fill="none" stroke="#000000" paint-order="fill stroke markers" d=" M 326.209517756016 135.1626748576241 L 322 125 L 317.790482243984 135.1626748576241" stroke-miterlimit="10" stroke-dasharray=""/></g><g><rect fill="#ffffff" stroke="none" x="508" y="838" width="53.49169921875" height="13" transform="matrix(1 0 0 1 -82 -629)"/></g><g><g><path fill="none" stroke="none"/><text fill="#000000" stroke="none" font-family="Arial" font-size="13px" font-style="normal" font-weight="normal" text-decoration="undefined" x="534.745849609375" y="844.5" text-anchor="middle" dominant-baseline="central" transform="matrix(1 0 0 1 -82 -629)">«extend»</text></g></g><g><path fill="#C0C0C0" stroke="none" paint-order="stroke fill markers" d=" M 897 157 C 897 137.11774720000005 927.4446336 121 965 121 C 1002.5553663999999 121 1033 137.11774720000005 1033 157 C 1033 176.88225279999995 1002.5553663999999 193 965 193 C 927.4446336 193 897 176.88225279999995 897 157 Z" fill-opacity="0.2"/></g><g><path fill="#ffffff" stroke="none" paint-order="stroke fill markers" d=" M 890 150 C 890 130.11774720000005 920.4446336 114 958 114 C 995.5553663999999 114 1026 130.11774720000005 1026 150 C 1026 169.88225279999995 995.5553663999999 186 958 186 C 920.4446336 186 890 169.88225279999995 890 150 Z"/></g><g><path fill="none" stroke="#000000" paint-order="fill stroke markers" d=" M 890 150 C 890 130.11774720000005 920.4446336 114 958 114 C 995.5553663999999 114 1026 130.11774720000005 1026 150 C 1026 169.88225279999995 995.5553663999999 186 958 186 C 920.4446336 186 890 169.88225279999995 890 150 Z" stroke-miterlimit="10" stroke-dasharray=""/></g><g><g><path fill="none" stroke="none"/><text fill="#000000" stroke="none" font-family="Arial" font-size="13px" font-style="normal" font-weight="bold" text-decoration="undefined" x="1040" y="767" text-anchor="middle" dominant-baseline="central" transform="matrix(1 0 0 1 -82 -629)">UC[3]</text><text fill="#000000" stroke="none" font-family="Arial" font-size="13px" font-style="normal" font-weight="bold" text-decoration="undefined" x="1040" y="780" text-anchor="middle" dominant-baseline="central" transform="matrix(1 0 0 1 -82 -629)">Inserimento</text><text fill="#000000" stroke="none" font-family="Arial" font-size="13px" font-style="normal" font-weight="bold" text-decoration="undefined" x="1040" y="793" text-anchor="middle" dominant-baseline="central" transform="matrix(1 0 0 1 -82 -629)">Password</text></g></g><g><path fill="none" stroke="#000000" paint-order="fill stroke markers" d=" M 384 99 L 402 99 L 402 146 L 890 146" stroke-miterlimit="10" stroke-dasharray="3"/></g><g><path fill="none" stroke="#000000" paint-order="fill stroke markers" d=" M 879.8373251423759 150.209517756016 L 890 146 L 879.8373251423758 141.790482243984" stroke-miterlimit="10" stroke-dasharray=""/></g><g><rect fill="#ffffff" stroke="none" x="467" y="771" width="55.65625" height="13" transform="matrix(1 0 0 1 -82 -629)"/></g><g><g><path fill="none" stroke="none"/><text fill="#000000" stroke="none" font-family="Arial" font-size="13px" font-style="normal" font-weight="normal" text-decoration="undefined" x="494.828125" y="777.5" text-anchor="middle" dominant-baseline="central" transform="matrix(1 0 0 1 -82 -629)">«include»</text></g></g><g><path fill="#C0C0C0" stroke="none" paint-order="stroke fill markers" d=" M 761 269 C 761 249.11774720000005 791.4446336 233 829 233 C 866.5553664 233 897 249.11774720000005 897 269 C 897 288.88225279999995 866.5553664 305 829 305 C 791.4446336 305 761 288.88225279999995 761 269 Z" fill-opacity="0.2"/></g><g><path fill="#ffffff" stroke="none" paint-order="stroke fill markers" d=" M 754 262 C 754 242.11774720000005 784.4446336 226 822 226 C 859.5553664 226 890 242.11774720000005 890 262 C 890 281.88225279999995 859.5553664 298 822 298 C 784.4446336 298 754 281.88225279999995 754 262 Z"/></g><g><path fill="none" stroke="#000000" paint-order="fill stroke markers" d=" M 754 262 C 754 242.11774720000005 784.4446336 226 822 226 C 859.5553664 226 890 242.11774720000005 890 262 C 890 281.88225279999995 859.5553664 298 822 298 C 784.4446336 298 754 281.88225279999995 754 262 Z" stroke-miterlimit="10" stroke-dasharray=""/></g><g><g><path fill="none" stroke="none"/><text fill="#000000" stroke="none" font-family="Arial" font-size="13px" font-style="normal" font-weight="bold" text-decoration="undefined" x="904" y="879" text-anchor="middle" dominant-baseline="central" transform="matrix(1 0 0 1 -82 -629)">UC[5] Errore</text><text fill="#000000" stroke="none" font-family="Arial" font-size="13px" font-style="normal" font-weight="bold" text-decoration="undefined" x="904" y="892" text-anchor="middle" dominant-baseline="central" transform="matrix(1 0 0 1 -82 -629)">«Utente non</text><text fill="#000000" stroke="none" font-family="Arial" font-size="13px" font-style="normal" font-weight="bold" text-decoration="undefined" x="904" y="905" text-anchor="middle" dominant-baseline="central" transform="matrix(1 0 0 1 -82 -629)">trovato»</text></g></g><g><path fill="#C0C0C0" stroke="none" paint-order="stroke fill markers" d=" M 585 269 C 585 249.11774720000005 620.817216 233 665 233 C 709.182784 233 745 249.11774720000005 745 269 C 745 288.88225279999995 709.182784 305 665 305 C 620.817216 305 585 288.88225279999995 585 269 Z" fill-opacity="0.2"/></g><g><path fill="#ffffff" stroke="none" paint-order="stroke fill markers" d=" M 578 262 C 578 242.11774720000005 613.817216 226 658 226 C 702.182784 226 738 242.11774720000005 738 262 C 738 281.88225279999995 702.182784 298 658 298 C 613.817216 298 578 281.88225279999995 578 262 Z"/></g><g><path fill="none" stroke="#000000" paint-order="fill stroke markers" d=" M 578 262 C 578 242.11774720000005 613.817216 226 658 226 C 702.182784 226 738 242.11774720000005 738 262 C 738 281.88225279999995 702.182784 298 658 298 C 613.817216 298 578 281.88225279999995 578 262 Z" stroke-miterlimit="10" stroke-dasharray=""/></g><g><g><path fill="none" stroke="none"/><text fill="#000000" stroke="none" font-family="Arial" font-size="13px" font-style="normal" font-weight="bold" text-decoration="undefined" x="740" y="879" text-anchor="middle" dominant-baseline="central" transform="matrix(1 0 0 1 -82 -629)">UC[6] Errore</text><text fill="#000000" stroke="none" font-family="Arial" font-size="13px" font-style="normal" font-weight="bold" text-decoration="undefined" x="740" y="892" text-anchor="middle" dominant-baseline="central" transform="matrix(1 0 0 1 -82 -629)">«Troppi tentativi</text><text fill="#000000" stroke="none" font-family="Arial" font-size="13px" font-style="normal" font-weight="bold" text-decoration="undefined" x="740" y="905" text-anchor="middle" dominant-baseline="central" transform="matrix(1 0 0 1 -82 -629)">di accesso»</text></g></g><g><path fill="#C0C0C0" stroke="none" paint-order="stroke fill markers" d=" M 913 270 C 913 245.14718400000004 941.6537728 225 977 225 C 1012.3462271999999 225 1041 245.14718400000004 1041 270 C 1041 294.85281599999996 1012.3462271999999 315 977 315 C 941.6537728 315 913 294.85281599999996 913 270 Z" fill-opacity="0.2"/></g><g><path fill="#ffffff" stroke="none" paint-order="stroke fill markers" d=" M 906 263 C 906 238.14718400000004 934.6537728 218 970 218 C 1005.3462271999999 218 1034 238.14718400000004 1034 263 C 1034 287.85281599999996 1005.3462271999999 308 970 308 C 934.6537728 308 906 287.85281599999996 906 263 Z"/></g><g><path fill="none" stroke="#000000" paint-order="fill stroke markers" d=" M 906 263 C 906 238.14718400000004 934.6537728 218 970 218 C 1005.3462271999999 218 1034 238.14718400000004 1034 263 C 1034 287.85281599999996 1005.3462271999999 308 970 308 C 934.6537728 308 906 287.85281599999996 906 263 Z" stroke-miterlimit="10" stroke-dasharray=""/></g><g><g><path fill="none" stroke="none"/><text fill="#000000" stroke="none" font-family="Arial" font-size="13px" font-style="normal" font-weight="bold" text-decoration="undefined" x="1052" y="873.5" text-anchor="middle" dominant-baseline="central" transform="matrix(1 0 0 1 -82 -629)">UC[7] Errore</text><text fill="#000000" stroke="none" font-family="Arial" font-size="13px" font-style="normal" font-weight="bold" text-decoration="undefined" x="1052" y="886.5" text-anchor="middle" dominant-baseline="central" transform="matrix(1 0 0 1 -82 -629)">«Account</text><text fill="#000000" stroke="none" font-family="Arial" font-size="13px" font-style="normal" font-weight="bold" text-decoration="undefined" x="1052" y="899.5" text-anchor="middle" dominant-baseline="central" transform="matrix(1 0 0 1 -82 -629)">non</text><text fill="#000000" stroke="none" font-family="Arial" font-size="13px" font-style="normal" font-weight="bold" text-decoration="undefined" x="1052" y="912.5" text-anchor="middle" dominant-baseline="central" transform="matrix(1 0 0 1 -82 -629)">verificato»</text></g></g><g><path fill="none" stroke="#000000" paint-order="fill stroke markers" d=" M 666 226 L 666 186 L 322 186 L 322 125" stroke-miterlimit="10" stroke-dasharray="3"/></g><g><path fill="none" stroke="#000000" paint-order="fill stroke markers" d=" M 326.209517756016 135.1626748576241 L 322 125 L 317.790482243984 135.1626748576241" stroke-miterlimit="10" stroke-dasharray=""/></g><g><rect fill="#ffffff" stroke="none" x="972" y="830" width="53.49169921875" height="13" transform="matrix(1 0 0 1 -82 -629)"/></g><g><g><path fill="none" stroke="none"/><text fill="#000000" stroke="none" font-family="Arial" font-size="13px" font-style="normal" font-weight="normal" text-decoration="undefined" x="998.745849609375" y="836.5" text-anchor="middle" dominant-baseline="central" transform="matrix(1 0 0 1 -82 -629)">«extend»</text></g></g><g><path fill="none" stroke="#000000" paint-order="fill stroke markers" d=" M 818 226 L 818 186 L 322 186 L 322 125" stroke-miterlimit="10" stroke-dasharray="3"/></g><g><path fill="none" stroke="#000000" paint-order="fill stroke markers" d=" M 326.209517756016 135.1626748576241 L 322 125 L 317.790482243984 135.1626748576241" stroke-miterlimit="10" stroke-dasharray=""/></g><g><rect fill="#ffffff" stroke="none" x="836" y="838" width="53.49169921875" height="13" transform="matrix(1 0 0 1 -82 -629)"/></g><g><g><path fill="none" stroke="none"/><text fill="#000000" stroke="none" font-family="Arial" font-size="13px" font-style="normal" font-weight="normal" text-decoration="undefined" x="862.745849609375" y="844.5" text-anchor="middle" dominant-baseline="central" transform="matrix(1 0 0 1 -82 -629)">«extend»</text></g></g><g><path fill="none" stroke="#000000" paint-order="fill stroke markers" d=" M 970 218 L 970 194 L 818 194 L 818 186 L 322 186 L 322 125" stroke-miterlimit="10" stroke-dasharray="3"/></g><g><path fill="none" stroke="#000000" paint-order="fill stroke markers" d=" M 326.209517756016 135.1626748576241 L 322 125 L 317.790482243984 135.1626748576241" stroke-miterlimit="10" stroke-dasharray=""/></g><g><rect fill="#ffffff" stroke="none" x="692" y="839" width="53.49169921875" height="13" transform="matrix(1 0 0 1 -82 -629)"/></g><g><g><path fill="none" stroke="none"/><text fill="#000000" stroke="none" font-family="Arial" font-size="13px" font-style="normal" font-weight="normal" text-decoration="undefined" x="718.745849609375" y="845.5" text-anchor="middle" dominant-baseline="central" transform="matrix(1 0 0 1 -82 -629)">«extend»</text></g></g></g></svg>