<svg version="1.1" xmlns="http://www.w3.org/2000/svg" xmlns:xlink="http://www.w3.org/1999/xlink" width="676" height="381"><defs/><g><g><rect fill="#C0C0C0" stroke="none" x="819" y="480" width="471" height="361" transform="matrix(1 0 0 1 -618 -463)" fill-opacity="0.2"/></g><g><rect fill="#ffffff" stroke="none" x="812" y="473" width="471" height="361" transform="matrix(1 0 0 1 -618 -463)"/></g><g><path fill="none" stroke="#000000" paint-order="fill stroke markers" d=" M 194 10 L 665 10 L 665 371 L 194 371 L 194 10 Z Z" stroke-miterlimit="10" stroke-dasharray=""/></g><g><g><path fill="none" stroke="none"/><text fill="#000000" stroke="none" font-family="Arial" font-size="13px" font-style="normal" font-weight="bold" text-decoration="undefined" x="1048" y="486.5" text-anchor="middle" dominant-baseline="central" transform="matrix(1 0 0 1 -618 -463)">Sistema</text></g></g><g><path fill="#C0C0C0" stroke="none" paint-order="stroke fill markers" d=" M 265 189 C 265 169.11774720000005 313.35324160000005 153 373 153 C 432.64675839999995 153 481 169.11774720000005 481 189 C 481 208.88225279999995 432.64675839999995 225 373 225 C 313.35324160000005 225 265 208.88225279999995 265 189 Z" fill-opacity="0.2"/></g><g><path fill="#ffffff" stroke="none" paint-order="stroke fill markers" d=" M 258 182 C 258 162.11774720000005 306.35324160000005 146 366 146 C 425.64675839999995 146 474 162.11774720000005 474 182 C 474 201.88225279999995 425.64675839999995 218 366 218 C 306.35324160000005 218 258 201.88225279999995 258 182 Z"/></g><g><path fill="none" stroke="#000000" paint-order="fill stroke markers" d=" M 258 182 C 258 162.11774720000005 306.35324160000005 146 366 146 C 425.64675839999995 146 474 162.11774720000005 474 182 C 474 201.88225279999995 425.64675839999995 218 366 218 C 306.35324160000005 218 258 201.88225279999995 258 182 Z" stroke-miterlimit="10" stroke-dasharray=""/></g><g><g><path fill="none" stroke="none"/><text fill="#000000" stroke="none" font-family="Arial" font-size="13px" font-style="normal" font-weight="bold" text-decoration="undefined" x="984" y="633" text-anchor="middle" dominant-baseline="central" transform="matrix(1 0 0 1 -618 -463)">UC[26] Visualizzare i</text><text fill="#000000" stroke="none" font-family="Arial" font-size="13px" font-style="normal" font-weight="bold" text-decoration="undefined" x="984" y="646" text-anchor="middle" dominant-baseline="central" transform="matrix(1 0 0 1 -618 -463)">dettagli di una routine</text><text fill="#000000" stroke="none" font-family="Arial" font-size="13px" font-style="normal" font-weight="bold" text-decoration="undefined" x="984" y="659" text-anchor="middle" dominant-baseline="central" transform="matrix(1 0 0 1 -618 -463)">esistente</text></g></g><g><path fill="#ffffff" stroke="none" paint-order="stroke fill markers" d=" M 88.14632812499997 147.85000000000002 C 88.14632812499997 142.96227952000004 92.10413049299996 139 96.986328125 139 C 101.86852575700004 139 105.82632812500003 142.96227952000004 105.82632812500003 147.85000000000002 C 105.82632812500003 152.73772048 101.86852575700004 156.70000000000005 96.986328125 156.70000000000005 C 92.10413049299996 156.70000000000005 88.14632812499997 152.73772048 88.14632812499997 147.85000000000002 Z"/></g><g><path fill="none" stroke="#000000" paint-order="fill stroke markers" d=" M 88.14632812499997 147.85000000000002 C 88.14632812499997 142.96227952000004 92.10413049299996 139 96.986328125 139 C 101.86852575700004 139 105.82632812500003 142.96227952000004 105.82632812500003 147.85000000000002 C 105.82632812500003 152.73772048 101.86852575700004 156.70000000000005 96.986328125 156.70000000000005 C 92.10413049299996 156.70000000000005 88.14632812499997 152.73772048 88.14632812499997 147.85000000000002 Z" stroke-miterlimit="10" stroke-dasharray=""/></g><g><path fill="none" stroke="#000000" paint-order="fill stroke markers" d=" M 96.986328125 156.70000000000005 L 96.986328125 174.29999999999995" stroke-miterlimit="10" stroke-dasharray=""/></g><g><path fill="none" stroke="#000000" paint-order="fill stroke markers" d=" M 87.62632812499999 163.29999999999995 L 106.34632812500001 163.29999999999995" stroke-miterlimit="10" stroke-dasharray=""/></g><g><path fill="none" stroke="#000000" paint-order="fill stroke markers" d=" M 96.986328125 174.29999999999995 L 83.986328125 192" stroke-miterlimit="10" stroke-dasharray=""/></g><g><path fill="none" stroke="#000000" paint-order="fill stroke markers" d=" M 96.986328125 174.29999999999995 L 109.986328125 192" stroke-miterlimit="10" stroke-dasharray=""/></g><g><g><path fill="none" stroke="none"/><text fill="#000000" stroke="none" font-family="Arial" font-size="13px" font-style="normal" font-weight="bold" text-decoration="undefined" x="715.486328125" y="669.5" text-anchor="middle" dominant-baseline="central" transform="matrix(1 0 0 1 -618 -463)">Utente autenticato</text></g></g><g><path fill="none" stroke="#000000" paint-order="fill stroke markers" d=" M 184 178 L 258 178" stroke-miterlimit="10" stroke-dasharray=""/></g><g><path fill="#C0C0C0" stroke="none" paint-order="stroke fill markers" d=" M 505 95 C 505 65.17662080000002 538.1309248 41 579 41 C 619.8690752 41 653 65.17662080000002 653 95 C 653 124.82337919999998 619.8690752 149 579 149 C 538.1309248 149 505 124.82337919999998 505 95 Z" fill-opacity="0.2"/></g><g><path fill="#ffffff" stroke="none" paint-order="stroke fill markers" d=" M 498 88 C 498 58.17662080000002 531.1309248 34 572 34 C 612.8690752 34 646 58.17662080000002 646 88 C 646 117.82337919999998 612.8690752 142 572 142 C 531.1309248 142 498 117.82337919999998 498 88 Z"/></g><g><path fill="none" stroke="#000000" paint-order="fill stroke markers" d=" M 498 88 C 498 58.17662080000002 531.1309248 34 572 34 C 612.8690752 34 646 58.17662080000002 646 88 C 646 117.82337919999998 612.8690752 142 572 142 C 531.1309248 142 498 117.82337919999998 498 88 Z" stroke-miterlimit="10" stroke-dasharray=""/></g><g><g><path fill="none" stroke="none"/><text fill="#000000" stroke="none" font-family="Arial" font-size="13px" font-style="normal" font-weight="bold" text-decoration="undefined" x="1190" y="526" text-anchor="middle" dominant-baseline="central" transform="matrix(1 0 0 1 -618 -463)">UC[27]</text><text fill="#000000" stroke="none" font-family="Arial" font-size="13px" font-style="normal" font-weight="bold" text-decoration="undefined" x="1190" y="539" text-anchor="middle" dominant-baseline="central" transform="matrix(1 0 0 1 -618 -463)">Visualizzazione</text><text fill="#000000" stroke="none" font-family="Arial" font-size="13px" font-style="normal" font-weight="bold" text-decoration="undefined" x="1190" y="552" text-anchor="middle" dominant-baseline="central" transform="matrix(1 0 0 1 -618 -463)">nome di una</text><text fill="#000000" stroke="none" font-family="Arial" font-size="13px" font-style="normal" font-weight="bold" text-decoration="undefined" x="1190" y="565" text-anchor="middle" dominant-baseline="central" transform="matrix(1 0 0 1 -618 -463)">routine</text><text fill="#000000" stroke="none" font-family="Arial" font-size="13px" font-style="normal" font-weight="bold" text-decoration="undefined" x="1190" y="578" text-anchor="middle" dominant-baseline="central" transform="matrix(1 0 0 1 -618 -463)">esistente</text></g></g><g><path fill="#C0C0C0" stroke="none" paint-order="stroke fill markers" d=" M 505 296.5 C 505 261.4299152 538.1309248 233 579 233 C 619.8690752 233 653 261.4299152 653 296.5 C 653 331.5700848 619.8690752 360 579 360 C 538.1309248 360 505 331.5700848 505 296.5 Z" fill-opacity="0.2"/></g><g><path fill="#ffffff" stroke="none" paint-order="stroke fill markers" d=" M 498 289.5 C 498 254.42991519999998 531.1309248 226 572 226 C 612.8690752 226 646 254.42991519999998 646 289.5 C 646 324.5700848 612.8690752 353 572 353 C 531.1309248 353 498 324.5700848 498 289.5 Z"/></g><g><path fill="none" stroke="#000000" paint-order="fill stroke markers" d=" M 498 289.5 C 498 254.42991519999998 531.1309248 226 572 226 C 612.8690752 226 646 254.42991519999998 646 289.5 C 646 324.5700848 612.8690752 353 572 353 C 531.1309248 353 498 324.5700848 498 289.5 Z" stroke-miterlimit="10" stroke-dasharray=""/></g><g><g><path fill="none" stroke="none"/><text fill="#000000" stroke="none" font-family="Arial" font-size="13px" font-style="normal" font-weight="bold" text-decoration="undefined" x="1190" y="721" text-anchor="middle" dominant-baseline="central" transform="matrix(1 0 0 1 -618 -463)">UC [28]</text><text fill="#000000" stroke="none" font-family="Arial" font-size="13px" font-style="normal" font-weight="bold" text-decoration="undefined" x="1190" y="734" text-anchor="middle" dominant-baseline="central" transform="matrix(1 0 0 1 -618 -463)">Visualizzazione</text><text fill="#000000" stroke="none" font-family="Arial" font-size="13px" font-style="normal" font-weight="bold" text-decoration="undefined" x="1190" y="747" text-anchor="middle" dominant-baseline="central" transform="matrix(1 0 0 1 -618 -463)">diagramma dei</text><text fill="#000000" stroke="none" font-family="Arial" font-size="13px" font-style="normal" font-weight="bold" text-decoration="undefined" x="1190" y="760" text-anchor="middle" dominant-baseline="central" transform="matrix(1 0 0 1 -618 -463)">blocchi di una</text><text fill="#000000" stroke="none" font-family="Arial" font-size="13px" font-style="normal" font-weight="bold" text-decoration="undefined" x="1190" y="773" text-anchor="middle" dominant-baseline="central" transform="matrix(1 0 0 1 -618 -463)">routine</text><text fill="#000000" stroke="none" font-family="Arial" font-size="13px" font-style="normal" font-weight="bold" text-decoration="undefined" x="1190" y="786" text-anchor="middle" dominant-baseline="central" transform="matrix(1 0 0 1 -618 -463)">esistente</text></g></g><g><path fill="none" stroke="#000000" paint-order="fill stroke markers" d=" M 370 146 L 370 82 L 498 82" stroke-miterlimit="10" stroke-dasharray="3"/></g><g><path fill="none" stroke="#000000" paint-order="fill stroke markers" d=" M 487.8373251423759 86.209517756016 L 498 82 L 487.8373251423759 77.790482243984" stroke-miterlimit="10" stroke-dasharray=""/></g><g><rect fill="#ffffff" stroke="none" x="996" y="552" width="55.65625" height="13" transform="matrix(1 0 0 1 -618 -463)"/></g><g><g><path fill="none" stroke="none"/><text fill="#000000" stroke="none" font-family="Arial" font-size="13px" font-style="normal" font-weight="normal" text-decoration="undefined" x="1023.828125" y="558.5" text-anchor="middle" dominant-baseline="central" transform="matrix(1 0 0 1 -618 -463)">«include»</text></g></g><g><path fill="none" stroke="#000000" paint-order="fill stroke markers" d=" M 370 218 L 370 298 L 498 298" stroke-miterlimit="10" stroke-dasharray="3"/></g><g><path fill="none" stroke="#000000" paint-order="fill stroke markers" d=" M 487.8373251423759 302.209517756016 L 498 298 L 487.8373251423759 293.790482243984" stroke-miterlimit="10" stroke-dasharray=""/></g><g><rect fill="#ffffff" stroke="none" x="996" y="737" width="55.65625" height="13" transform="matrix(1 0 0 1 -618 -463)"/></g><g><g><path fill="none" stroke="none"/><text fill="#000000" stroke="none" font-family="Arial" font-size="13px" font-style="normal" font-weight="normal" text-decoration="undefined" x="1023.828125" y="743.5" text-anchor="middle" dominant-baseline="central" transform="matrix(1 0 0 1 -618 -463)">«include»</text></g></g></g></svg>