<svg version="1.1" xmlns="http://www.w3.org/2000/svg" xmlns:xlink="http://www.w3.org/1999/xlink" width="941" height="468"><defs/><g><g><rect fill="#C0C0C0" stroke="none" x="690" y="436" width="732" height="448" transform="matrix(1 0 0 1 -485 -419)" fill-opacity="0.2"/></g><g><rect fill="#ffffff" stroke="none" x="683" y="429" width="732" height="448" transform="matrix(1 0 0 1 -485 -419)"/></g><g><path fill="none" stroke="#000000" paint-order="fill stroke markers" d=" M 198 10 L 930 10 L 930 458 L 198 458 L 198 10 Z Z" stroke-miterlimit="10" stroke-dasharray=""/></g><g><g><path fill="none" stroke="none"/><text fill="#000000" stroke="none" font-family="Arial" font-size="13px" font-style="normal" font-weight="bold" text-decoration="undefined" x="1049.5" y="442.5" text-anchor="middle" dominant-baseline="central" transform="matrix(1 0 0 1 -485 -419)">Sistema</text></g></g><g><path fill="#ffffff" stroke="none" paint-order="stroke fill markers" d=" M 88.14632812499997 194.85000000000002 C 88.14632812499997 189.96227952000004 92.10413049299996 186 96.986328125 186 C 101.86852575700004 186 105.82632812500003 189.96227952000004 105.82632812500003 194.85000000000002 C 105.82632812500003 199.73772048 101.86852575700004 203.70000000000005 96.986328125 203.70000000000005 C 92.10413049299996 203.70000000000005 88.14632812499997 199.73772048 88.14632812499997 194.85000000000002 Z"/></g><g><path fill="none" stroke="#000000" paint-order="fill stroke markers" d=" M 88.14632812499997 194.85000000000002 C 88.14632812499997 189.96227952000004 92.10413049299996 186 96.986328125 186 C 101.86852575700004 186 105.82632812500003 189.96227952000004 105.82632812500003 194.85000000000002 C 105.82632812500003 199.73772048 101.86852575700004 203.70000000000005 96.986328125 203.70000000000005 C 92.10413049299996 203.70000000000005 88.14632812499997 199.73772048 88.14632812499997 194.85000000000002 Z" stroke-miterlimit="10" stroke-dasharray=""/></g><g><path fill="none" stroke="#000000" paint-order="fill stroke markers" d=" M 96.986328125 203.70000000000005 L 96.986328125 221.29999999999995" stroke-miterlimit="10" stroke-dasharray=""/></g><g><path fill="none" stroke="#000000" paint-order="fill stroke markers" d=" M 87.62632812499999 210.29999999999995 L 106.34632812500001 210.29999999999995" stroke-miterlimit="10" stroke-dasharray=""/></g><g><path fill="none" stroke="#000000" paint-order="fill stroke markers" d=" M 96.986328125 221.29999999999995 L 83.986328125 239" stroke-miterlimit="10" stroke-dasharray=""/></g><g><path fill="none" stroke="#000000" paint-order="fill stroke markers" d=" M 96.986328125 221.29999999999995 L 109.986328125 239" stroke-miterlimit="10" stroke-dasharray=""/></g><g><g><path fill="none" stroke="none"/><text fill="#000000" stroke="none" font-family="Arial" font-size="13px" font-style="normal" font-weight="bold" text-decoration="undefined" x="582.486328125" y="672.5" text-anchor="middle" dominant-baseline="central" transform="matrix(1 0 0 1 -485 -419)">Utente autenticato</text></g></g><g><path fill="#C0C0C0" stroke="none" paint-order="stroke fill markers" d=" M 269 237 C 269 217.11774720000005 320.93496319999997 201 385 201 C 449.06503680000003 201 501 217.11774720000005 501 237 C 501 256.88225279999995 449.06503680000003 273 385 273 C 320.93496319999997 273 269 256.88225279999995 269 237 Z" fill-opacity="0.2"/></g><g><path fill="#ffffff" stroke="none" paint-order="stroke fill markers" d=" M 262 230 C 262 210.11774720000005 313.93496319999997 194 378 194 C 442.06503680000003 194 494 210.11774720000005 494 230 C 494 249.88225279999995 442.06503680000003 266 378 266 C 313.93496319999997 266 262 249.88225279999995 262 230 Z"/></g><g><path fill="none" stroke="#000000" paint-order="fill stroke markers" d=" M 262 230 C 262 210.11774720000005 313.93496319999997 194 378 194 C 442.06503680000003 194 494 210.11774720000005 494 230 C 494 249.88225279999995 442.06503680000003 266 378 266 C 313.93496319999997 266 262 249.88225279999995 262 230 Z" stroke-miterlimit="10" stroke-dasharray=""/></g><g><g><path fill="none" stroke="none"/><text fill="#000000" stroke="none" font-family="Arial" font-size="13px" font-style="normal" font-weight="bold" text-decoration="undefined" x="863" y="637" text-anchor="middle" dominant-baseline="central" transform="matrix(1 0 0 1 -485 -419)">UC[41] Visualizza le</text><text fill="#000000" stroke="none" font-family="Arial" font-size="13px" font-style="normal" font-weight="bold" text-decoration="undefined" x="863" y="650" text-anchor="middle" dominant-baseline="central" transform="matrix(1 0 0 1 -485 -419)">impostazioni di un</text><text fill="#000000" stroke="none" font-family="Arial" font-size="13px" font-style="normal" font-weight="bold" text-decoration="undefined" x="863" y="663" text-anchor="middle" dominant-baseline="central" transform="matrix(1 0 0 1 -485 -419)">singolo blocco</text></g></g><g><path fill="none" stroke="#000000" paint-order="fill stroke markers" d=" M 184 228 L 262 228" stroke-miterlimit="10" stroke-dasharray=""/></g><g><path fill="#C0C0C0" stroke="none" paint-order="stroke fill markers" d=" M 613 109 C 613 89.1177472 681.0527104 73 765 73 C 848.9472896 73 917 89.1177472 917 109 C 917 128.88225279999995 848.9472896 145 765 145 C 681.0527104 145 613 128.88225279999995 613 109 Z" fill-opacity="0.2"/></g><g><path fill="#ffffff" stroke="none" paint-order="stroke fill markers" d=" M 606 102 C 606 82.1177472 674.0527104 66 758 66 C 841.9472896 66 910 82.1177472 910 102 C 910 121.88225279999995 841.9472896 138 758 138 C 674.0527104 138 606 121.88225279999995 606 102 Z"/></g><g><path fill="none" stroke="#000000" paint-order="fill stroke markers" d=" M 606 102 C 606 82.1177472 674.0527104 66 758 66 C 841.9472896 66 910 82.1177472 910 102 C 910 121.88225279999995 841.9472896 138 758 138 C 674.0527104 138 606 121.88225279999995 606 102 Z" stroke-miterlimit="10" stroke-dasharray=""/></g><g><g><path fill="none" stroke="none"/><text fill="#000000" stroke="none" font-family="Arial" font-size="13px" font-style="normal" font-weight="bold" text-decoration="undefined" x="1243" y="509" text-anchor="middle" dominant-baseline="central" transform="matrix(1 0 0 1 -485 -419)">UC[42] Visualizzazione</text><text fill="#000000" stroke="none" font-family="Arial" font-size="13px" font-style="normal" font-weight="bold" text-decoration="undefined" x="1243" y="522" text-anchor="middle" dominant-baseline="central" transform="matrix(1 0 0 1 -485 -419)">impostazioni del blocco</text><text fill="#000000" stroke="none" font-family="Arial" font-size="13px" font-style="normal" font-weight="bold" text-decoration="undefined" x="1243" y="535" text-anchor="middle" dominant-baseline="central" transform="matrix(1 0 0 1 -485 -419)">"Telegram - Send Bot Message"</text></g></g><g><path fill="#C0C0C0" stroke="none" paint-order="stroke fill markers" d=" M 621 237 C 621 217.11774720000005 683.680128 201 761 201 C 838.319872 201 901 217.11774720000005 901 237 C 901 256.88225279999995 838.319872 273 761 273 C 683.680128 273 621 256.88225279999995 621 237 Z" fill-opacity="0.2"/></g><g><path fill="#ffffff" stroke="none" paint-order="stroke fill markers" d=" M 614 230 C 614 210.11774720000005 676.680128 194 754 194 C 831.319872 194 894 210.11774720000005 894 230 C 894 249.88225279999995 831.319872 266 754 266 C 676.680128 266 614 249.88225279999995 614 230 Z"/></g><g><path fill="none" stroke="#000000" paint-order="fill stroke markers" d=" M 614 230 C 614 210.11774720000005 676.680128 194 754 194 C 831.319872 194 894 210.11774720000005 894 230 C 894 249.88225279999995 831.319872 266 754 266 C 676.680128 266 614 249.88225279999995 614 230 Z" stroke-miterlimit="10" stroke-dasharray=""/></g><g><g><path fill="none" stroke="none"/><text fill="#000000" stroke="none" font-family="Arial" font-size="13px" font-style="normal" font-weight="bold" text-decoration="undefined" x="1239" y="637" text-anchor="middle" dominant-baseline="central" transform="matrix(1 0 0 1 -485 -419)">UC[43] Visualizzazione</text><text fill="#000000" stroke="none" font-family="Arial" font-size="13px" font-style="normal" font-weight="bold" text-decoration="undefined" x="1239" y="650" text-anchor="middle" dominant-baseline="central" transform="matrix(1 0 0 1 -485 -419)">impostazioni del blocco</text><text fill="#000000" stroke="none" font-family="Arial" font-size="13px" font-style="normal" font-weight="bold" text-decoration="undefined" x="1239" y="663" text-anchor="middle" dominant-baseline="central" transform="matrix(1 0 0 1 -485 -419)">"System - Wait Seconds"</text></g></g><g><path fill="#C0C0C0" stroke="none" paint-order="stroke fill markers" d=" M 613 373 C 613 353.11774720000005 679.2618496 337 761 337 C 842.7381504 337 909 353.11774720000005 909 373 C 909 392.88225279999995 842.7381504 409 761 409 C 679.2618496 409 613 392.88225279999995 613 373 Z" fill-opacity="0.2"/></g><g><path fill="#ffffff" stroke="none" paint-order="stroke fill markers" d=" M 606 366 C 606 346.11774720000005 672.2618496 330 754 330 C 835.7381504 330 902 346.11774720000005 902 366 C 902 385.88225279999995 835.7381504 402 754 402 C 672.2618496 402 606 385.88225279999995 606 366 Z"/></g><g><path fill="none" stroke="#000000" paint-order="fill stroke markers" d=" M 606 366 C 606 346.11774720000005 672.2618496 330 754 330 C 835.7381504 330 902 346.11774720000005 902 366 C 902 385.88225279999995 835.7381504 402 754 402 C 672.2618496 402 606 385.88225279999995 606 366 Z" stroke-miterlimit="10" stroke-dasharray=""/></g><g><g><path fill="none" stroke="none"/><text fill="#000000" stroke="none" font-family="Arial" font-size="13px" font-style="normal" font-weight="bold" text-decoration="undefined" x="1239" y="773" text-anchor="middle" dominant-baseline="central" transform="matrix(1 0 0 1 -485 -419)">UC[44] Visualizzazione</text><text fill="#000000" stroke="none" font-family="Arial" font-size="13px" font-style="normal" font-weight="bold" text-decoration="undefined" x="1239" y="786" text-anchor="middle" dominant-baseline="central" transform="matrix(1 0 0 1 -485 -419)">impostazioni del blocco "Notion</text><text fill="#000000" stroke="none" font-family="Arial" font-size="13px" font-style="normal" font-weight="bold" text-decoration="undefined" x="1239" y="799" text-anchor="middle" dominant-baseline="central" transform="matrix(1 0 0 1 -485 -419)">- Get Page"</text></g></g><g><path fill="none" stroke="#000000" paint-order="fill stroke markers" d=" M 606 362 L 550 362 L 550 234 L 494 234" stroke-miterlimit="10" stroke-dasharray=""/></g><g><path fill="#FFFFFF" stroke="none" paint-order="stroke fill markers" d=" M 514.3253497152483 225.580964487968 L 494 234 L 514.3253497152483 242.419035512032"/></g><g><path fill="none" stroke="#000000" paint-order="fill stroke markers" d=" M 514.3253497152483 225.580964487968 L 494 234 L 514.3253497152483 242.419035512032 L 514.3253497152483 225.580964487968" stroke-miterlimit="10" stroke-dasharray=""/></g><g><path fill="none" stroke="#000000" paint-order="fill stroke markers" d=" M 614 234 L 494 234" stroke-miterlimit="10" stroke-dasharray=""/></g><g><path fill="#FFFFFF" stroke="none" paint-order="stroke fill markers" d=" M 514.3253497152483 225.580964487968 L 494 234 L 514.3253497152483 242.419035512032"/></g><g><path fill="none" stroke="#000000" paint-order="fill stroke markers" d=" M 514.3253497152483 225.580964487968 L 494 234 L 514.3253497152483 242.419035512032 L 514.3253497152483 225.580964487968" stroke-miterlimit="10" stroke-dasharray=""/></g><g><path fill="none" stroke="#000000" paint-order="fill stroke markers" d=" M 606 98 L 550 98 L 550 234 L 494 234" stroke-miterlimit="10" stroke-dasharray=""/></g><g><path fill="#FFFFFF" stroke="none" paint-order="stroke fill markers" d=" M 514.3253497152483 225.580964487968 L 494 234 L 514.3253497152483 242.419035512032"/></g><g><path fill="none" stroke="#000000" paint-order="fill stroke markers" d=" M 514.3253497152483 225.580964487968 L 494 234 L 514.3253497152483 242.419035512032 L 514.3253497152483 225.580964487968" stroke-miterlimit="10" stroke-dasharray=""/></g></g></svg>